<svg id="Grupo_8733" data-name="Grupo 8733" xmlns="http://www.w3.org/2000/svg" xmlns:xlink="http://www.w3.org/1999/xlink" width="81.687" height="81.667" viewBox="0 0 81.687 81.667">
  <defs>
    <clipPath id="clip-path">
      <rect id="Rectángulo_73" data-name="Rectángulo 73" width="81.687" height="81.667" fill="#fe9900"/>
    </clipPath>
  </defs>
  <g id="Grupo_8732" data-name="Grupo 8732" clip-path="url(#clip-path)">
    <path id="Trazado_4811" data-name="Trazado 4811" d="M11.371,81.666a26.769,26.769,0,0,1-4.129-1.33C2.748,78.063.183,74.335.1,69.292-.042,60.312-.02,51.326.089,42.345a12.653,12.653,0,0,1,12.3-12.33c1.377-.042,2.756-.006,4.242-.006v-.9q0-4.983,0-9.966A18.9,18.9,0,0,1,31.954.389a19.212,19.212,0,0,1,22.034,12.7,18.843,18.843,0,0,1,.91,6.039V30c1.225,0,2.409,0,3.594,0A12.792,12.792,0,0,1,71.444,42.17c.12,2.306.056,4.623.028,6.935a3.179,3.179,0,1,1-6.357.01c-.034-1.993,0-3.986-.011-5.98a6.415,6.415,0,0,0-6.757-6.757q-22.56-.01-45.12,0a6.418,6.418,0,0,0-6.8,6.8q-.01,12.638,0,25.275a6.428,6.428,0,0,0,6.84,6.835q12.157.008,24.314,0a3.534,3.534,0,0,1,2.689.971,3.177,3.177,0,0,1-.917,5.1c-.236.113-.479.212-.719.317ZM23.008,29.937H48.484c0-4.067.1-8.078-.051-12.08a11.254,11.254,0,0,0-1.1-4.193A12.61,12.61,0,0,0,33.418,6.627c-5.149,1.029-8.63,4.087-10,9.218a19.887,19.887,0,0,0-.39,4.738c-.055,3.1-.016,6.206-.016,9.354" transform="translate(0 0)" fill="#fe9900"/>
    <path id="Trazado_4812" data-name="Trazado 4812" d="M226.248,287.482c-2.639-.386-4.546-1.957-6.352-3.78-2.746-2.773-5.575-5.464-8.372-8.187a3.249,3.249,0,0,1-1.081-3.37,3.152,3.152,0,0,1,4.9-1.738,7.666,7.666,0,0,1,.835.736q4.563,4.448,9.121,8.9c1.552,1.515,2.48,1.44,3.725-.3Q236.51,269.288,244,258.834c1.362-1.9,3.574-2.225,5.039-.707a8.217,8.217,0,0,1,.969,1.606v1.276a15.014,15.014,0,0,1-.876,1.594q-7.61,10.668-15.246,21.318a8.2,8.2,0,0,1-4.275,3.162c-.477.151-.965.267-1.448.4Z" transform="translate(-168.319 -205.815)" fill="#fe9900"/>
    <path id="Trazado_4813" data-name="Trazado 4813" d="M80.1,263.642a3.183,3.183,0,1,1-3.2-3.191,3.2,3.2,0,0,1,3.2,3.191" transform="translate(-59.011 -208.441)" fill="#fe9900"/>
    <path id="Trazado_4814" data-name="Trazado 4814" d="M139.987,263.641a3.183,3.183,0,1,1-3.2-3.189,3.2,3.2,0,0,1,3.2,3.189" transform="translate(-106.937 -208.442)" fill="#fe9900"/>
    <path id="Trazado_4815" data-name="Trazado 4815" d="M199.87,263.656a3.184,3.184,0,1,1-3.182-3.2,3.2,3.2,0,0,1,3.182,3.2" transform="translate(-154.862 -208.441)" fill="#fe9900"/>
    <path id="Trazado_4816" data-name="Trazado 4816" d="M257.339,260.45a3.184,3.184,0,1,1-3.152,3.235,3.2,3.2,0,0,1,3.152-3.235" transform="translate(-203.428 -208.44)" fill="#fe9900"/>
  </g>
</svg>
