<svg id="Grupo_8754" data-name="Grupo 8754" xmlns="http://www.w3.org/2000/svg" xmlns:xlink="http://www.w3.org/1999/xlink" width="516" height="327.897" viewBox="0 0 516 327.897">
  <defs>
    <clipPath id="clip-path">
      <rect id="Rectángulo_88" data-name="Rectángulo 88" width="516" height="327.897" fill="none"/>
    </clipPath>
    <clipPath id="clip-path-3">
      <rect id="Rectángulo_83" data-name="Rectángulo 83" width="5.76" height="7.657" fill="none"/>
    </clipPath>
    <clipPath id="clip-path-4">
      <rect id="Rectángulo_84" data-name="Rectángulo 84" width="27.588" height="78.739" fill="none"/>
    </clipPath>
    <clipPath id="clip-path-5">
      <rect id="Rectángulo_85" data-name="Rectángulo 85" width="19.061" height="10.803" fill="none"/>
    </clipPath>
    <clipPath id="clip-path-6">
      <rect id="Rectángulo_86" data-name="Rectángulo 86" width="34.978" height="34.024" fill="none"/>
    </clipPath>
  </defs>
  <g id="Grupo_8753" data-name="Grupo 8753" clip-path="url(#clip-path)">
    <rect id="Rectángulo_74" data-name="Rectángulo 74" width="223.467" height="13.358" transform="translate(35.586 84.277)" fill="#e1e1e1"/>
    <rect id="Rectángulo_75" data-name="Rectángulo 75" width="10.811" height="20.504" transform="translate(66.73 94.709)" fill="#e1e1e1"/>
    <rect id="Rectángulo_76" data-name="Rectángulo 76" width="10.811" height="20.504" transform="translate(206.257 94.709)" fill="#e1e1e1"/>
    <g id="Grupo_8752" data-name="Grupo 8752">
      <g id="Grupo_8751" data-name="Grupo 8751" clip-path="url(#clip-path)">
        <path id="Trazado_4817" data-name="Trazado 4817" d="M75.643,40.68s-10.029,7.641-.42,17.736a.873.873,0,0,0,.635.269l87.623-.511s7.483-8.393,1.274-18.063Z" transform="translate(-32.465 -18.325)" fill="#ececec"/>
        <path id="Trazado_4818" data-name="Trazado 4818" d="M164.573,55.694c0,.1-10.911.177-24.367.177s-24.37-.079-24.37-.177,10.909-.177,24.37-.177,24.367.079,24.367.177" transform="translate(-52.923 -25.364)" fill="#e1e1e1"/>
        <path id="Trazado_4819" data-name="Trazado 4819" d="M161.2,61.53c0,.1-5.13.177-11.456.177s-11.458-.079-11.458-.177,5.129-.177,11.458-.177,11.456.079,11.456.177" transform="translate(-63.181 -28.031)" fill="#e1e1e1"/>
        <path id="Trazado_4820" data-name="Trazado 4820" d="M221.917,57.688c-.057-.015.193-1.006.464-2.629a36.319,36.319,0,0,0-.121-12.776c-.3-1.617-.57-2.6-.513-2.62a2.842,2.842,0,0,1,.254.674c.146.44.321,1.087.5,1.9a31.04,31.04,0,0,1,.122,12.871c-.168.811-.331,1.462-.469,1.9a2.811,2.811,0,0,1-.242.679" transform="translate(-101.308 -18.121)" fill="#e1e1e1"/>
        <path id="Trazado_4821" data-name="Trazado 4821" d="M234.1,39.908a3,3,0,0,1,.39.637,7.528,7.528,0,0,1,.389.784c.137.313.31.664.448,1.072a18.691,18.691,0,0,1,.834,2.907,19.524,19.524,0,0,1,.06,7.38,18.646,18.646,0,0,1-.788,2.921c-.131.411-.3.764-.43,1.079a7.685,7.685,0,0,1-.376.791,2.988,2.988,0,0,1-.38.643c-.061-.029.427-.973.949-2.592a21.053,21.053,0,0,0,.7-2.9,20.844,20.844,0,0,0-.059-7.263,21.114,21.114,0,0,0-.749-2.885c-.548-1.611-1.052-2.547-.991-2.578" transform="translate(-106.954 -18.233)" fill="#e1e1e1"/>
        <path id="Trazado_4822" data-name="Trazado 4822" d="M102.869,58.624a2.778,2.778,0,0,1-.408-.586,6.26,6.26,0,0,1-.409-.731,10.354,10.354,0,0,1-.468-1.007,15.334,15.334,0,0,1-.854-2.764,16.237,16.237,0,0,1,.095-7.05,15.309,15.309,0,0,1,.929-2.741,10.344,10.344,0,0,1,.495-.994,6.2,6.2,0,0,1,.429-.72,2.751,2.751,0,0,1,.424-.575c.06.037-.5.884-1.117,2.387a17.008,17.008,0,0,0-.841,2.715,17.143,17.143,0,0,0-.093,6.914,17,17,0,0,0,.767,2.736c.572,1.519,1.113,2.381,1.053,2.416" transform="translate(-45.865 -18.94)" fill="#e1e1e1"/>
        <path id="Trazado_4823" data-name="Trazado 4823" d="M85.064,60.641a3.5,3.5,0,0,1-.45-.664,7.613,7.613,0,0,1-.458-.823c-.162-.33-.366-.7-.53-1.13a18.6,18.6,0,0,1-1-3.093,19.548,19.548,0,0,1-.175-7.926,18.618,18.618,0,0,1,.865-3.134c.145-.44.332-.816.479-1.153a7.656,7.656,0,0,1,.421-.842,3.49,3.49,0,0,1,.42-.683c.064.033-.5,1.03-1.085,2.762a20.627,20.627,0,0,0-.78,3.107,20.655,20.655,0,0,0,.173,7.8,20.713,20.713,0,0,0,.917,3.07c.664,1.7,1.268,2.676,1.206,2.711" transform="translate(-37.522 -18.82)" fill="#e1e1e1"/>
        <rect id="Rectángulo_77" data-name="Rectángulo 77" width="32.446" height="16.768" transform="translate(95.355 66.534)" fill="#ececec"/>
        <path id="Trazado_4824" data-name="Trazado 4824" d="M42.366,129.542q.008.222.02.444a9.607,9.607,0,0,0,9.652,9h96.63v-1.213H125.728a8.384,8.384,0,0,1,0-16.768h22.939v-1.781l-96.659.326a9.667,9.667,0,0,0-9.643,9.994" transform="translate(-19.353 -54.47)" fill="#e1e1e1"/>
        <path id="Trazado_4825" data-name="Trazado 4825" d="M210.241,138.2c0,.1-6.672.177-14.9.177s-14.9-.079-14.9-.177,6.67-.177,14.9-.177,14.9.079,14.9.177" transform="translate(-82.44 -63.06)" fill="#e1e1e1"/>
        <path id="Trazado_4826" data-name="Trazado 4826" d="M210.725,145.158c0,.1-6.313.177-14.1.177s-14.1-.079-14.1-.177,6.311-.177,14.1-.177,14.1.079,14.1.177" transform="translate(-83.393 -66.239)" fill="#e1e1e1"/>
        <path id="Trazado_4827" data-name="Trazado 4827" d="M213.983,151.52c0,.1-5.676.177-12.675.177s-12.676-.079-12.676-.177,5.673-.177,12.676-.177,12.675.079,12.675.177" transform="translate(-86.182 -69.145)" fill="#e1e1e1"/>
        <path id="Trazado_4828" data-name="Trazado 4828" d="M210.755,131.951c0,.1-6.535.177-14.594.177s-14.6-.079-14.6-.177,6.533-.177,14.6-.177,14.594.079,14.594.177" transform="translate(-82.953 -60.205)" fill="#e1e1e1"/>
        <path id="Trazado_4829" data-name="Trazado 4829" d="M212.589,125.7c0,.1-5.816.177-12.99.177s-12.991-.079-12.991-.177,5.815-.177,12.991-.177,12.99.079,12.99.177" transform="translate(-85.257 -57.349)" fill="#e1e1e1"/>
        <path id="Trazado_4830" data-name="Trazado 4830" d="M60.047,120.339a21.536,21.536,0,0,0-2.053,2.441,12.419,12.419,0,0,0,.17,14.369,21.532,21.532,0,0,0,2.109,2.392,3.41,3.41,0,0,1-.7-.514,11.127,11.127,0,0,1-1.614-1.73,12.231,12.231,0,0,1-.173-14.66,11.072,11.072,0,0,1,1.573-1.768,3.408,3.408,0,0,1,.685-.531" transform="translate(-25.327 -54.98)" fill="#f5f5f5"/>
        <path id="Trazado_4831" data-name="Trazado 4831" d="M54.03,119.68a21.533,21.533,0,0,0-2.053,2.441,12.419,12.419,0,0,0,.17,14.369,21.53,21.53,0,0,0,2.109,2.392,3.408,3.408,0,0,1-.7-.514,11.1,11.1,0,0,1-1.614-1.73,12.232,12.232,0,0,1-.173-14.661,11.088,11.088,0,0,1,1.573-1.767,3.408,3.408,0,0,1,.685-.531" transform="translate(-22.578 -54.679)" fill="#f5f5f5"/>
        <path id="Trazado_4832" data-name="Trazado 4832" d="M174.921,120.339a21.535,21.535,0,0,0-2.053,2.441,12.419,12.419,0,0,0,.17,14.369,21.534,21.534,0,0,0,2.109,2.392,3.409,3.409,0,0,1-.7-.514,11.1,11.1,0,0,1-1.614-1.73,12.231,12.231,0,0,1-.173-14.66,11.073,11.073,0,0,1,1.573-1.768,3.408,3.408,0,0,1,.685-.531" transform="translate(-77.81 -54.98)" fill="#f5f5f5"/>
        <path id="Trazado_4833" data-name="Trazado 4833" d="M168.9,119.68a21.53,21.53,0,0,0-2.053,2.441,12.419,12.419,0,0,0,.17,14.369,21.527,21.527,0,0,0,2.109,2.392,3.408,3.408,0,0,1-.7-.514,11.1,11.1,0,0,1-1.614-1.73,12.231,12.231,0,0,1-.174-14.661,11.087,11.087,0,0,1,1.573-1.767,3.407,3.407,0,0,1,.685-.531" transform="translate(-75.061 -54.679)" fill="#f5f5f5"/>
        <path id="Trazado_4834" data-name="Trazado 4834" d="M79.9,134.346q-.046-3.409-.092-6.818a4.872,4.872,0,0,0-.24-1.756,1.655,1.655,0,0,0-1.294-1.093c-.854-.377-2.185.334-2.781,1.318a6.471,6.471,0,0,0-.67,3.341,48.352,48.352,0,0,0,.261,5.386,6.193,6.193,0,0,0,.634,2.465,2.3,2.3,0,0,0,2.08,1.251,2.326,2.326,0,0,0,1.822-1.582,6.842,6.842,0,0,0,.28-2.513" transform="translate(-34.185 -56.916)" fill="#f5f5f5"/>
        <path id="Trazado_4835" data-name="Trazado 4835" d="M127.024,138.805c0,.1-6.986.177-15.6.177s-15.6-.079-15.6-.177,6.984-.177,15.6-.177,15.6.079,15.6.177" transform="translate(-43.778 -63.336)" fill="#f5f5f5"/>
        <path id="Trazado_4836" data-name="Trazado 4836" d="M72.106,105.736l-.179-15.893h8.651l.3,15.893Z" transform="translate(-32.862 -41.047)" fill="#f5f5f5"/>
        <path id="Trazado_4837" data-name="Trazado 4837" d="M80.152,94.9a22.977,22.977,0,0,1-4.02.177,22.981,22.981,0,0,1-4.021-.177,22.983,22.983,0,0,1,4.021-.177,22.979,22.979,0,0,1,4.02.177" transform="translate(-32.946 -43.276)" fill="#e1e1e1"/>
        <path id="Trazado_4838" data-name="Trazado 4838" d="M80.152,99.416a22.977,22.977,0,0,1-4.02.177,22.981,22.981,0,0,1-4.021-.177,22.981,22.981,0,0,1,4.021-.177,22.977,22.977,0,0,1,4.02.177" transform="translate(-32.946 -45.34)" fill="#e1e1e1"/>
        <path id="Trazado_4839" data-name="Trazado 4839" d="M80.152,103.933a22.979,22.979,0,0,1-4.02.177,22.983,22.983,0,0,1-4.021-.177,22.981,22.981,0,0,1,4.021-.177,22.977,22.977,0,0,1,4.02.177" transform="translate(-32.946 -47.404)" fill="#e1e1e1"/>
        <path id="Trazado_4840" data-name="Trazado 4840" d="M80.152,108.449a22.977,22.977,0,0,1-4.02.177,22.981,22.981,0,0,1-4.021-.177,22.982,22.982,0,0,1,4.021-.177,22.978,22.978,0,0,1,4.02.177" transform="translate(-32.946 -49.467)" fill="#e1e1e1"/>
        <path id="Trazado_4841" data-name="Trazado 4841" d="M80.152,112.966a22.977,22.977,0,0,1-4.02.177,22.981,22.981,0,0,1-4.021-.177,22.983,22.983,0,0,1,4.021-.177,22.979,22.979,0,0,1,4.02.177" transform="translate(-32.946 -51.531)" fill="#e1e1e1"/>
        <path id="Trazado_4842" data-name="Trazado 4842" d="M71.082,89.067h95.889a45.043,45.043,0,0,1,0,17.18H71.491v-1.169h5.834a2.755,2.755,0,0,0,2.755-2.755V92.816a2.755,2.755,0,0,0-2.755-2.755H71.082Z" transform="translate(-32.476 -40.693)" fill="#ececec"/>
        <path id="Trazado_4843" data-name="Trazado 4843" d="M110.884,102.086h1.6a.369.369,0,0,1,.172.043.327.327,0,0,1,.172.3.356.356,0,0,1-.012.1c-.032.136-.068.272-.109.409a4.551,4.551,0,0,1-1,1.811,1.892,1.892,0,0,1-1.364.706,1.474,1.474,0,0,1-.193-.012,1.559,1.559,0,0,1-1.088-.788,3.6,3.6,0,0,1-.477-1.926,5.172,5.172,0,0,1,.19-1.372,4.6,4.6,0,0,1,.95-1.854,1.931,1.931,0,0,1,1.441-.766,1.362,1.362,0,0,1,.606.138,1.963,1.963,0,0,1,.934,1.168.349.349,0,0,1,.039.159.333.333,0,0,1-.047.172.327.327,0,0,1-.3.172.369.369,0,0,1-.108-.017.325.325,0,0,1-.219-.216l-.017-.03a1.725,1.725,0,0,0-.193-.379.913.913,0,0,0-.766-.456.9.9,0,0,0-.529.193,2.828,2.828,0,0,0-.873,1.256,4.707,4.707,0,0,0-.379,1.8,3.244,3.244,0,0,0,.275,1.418.93.93,0,0,0,.835.627,1.148,1.148,0,0,0,.774-.467,4.263,4.263,0,0,0,.822-1.486q-1.106,0-1.148-.013c-.25-.04-.377-.169-.383-.387a.353.353,0,0,1,.4-.31" transform="translate(-49.609 -45.112)" fill="#fafafa"/>
        <path id="Trazado_4844" data-name="Trazado 4844" d="M119.954,99.006c.014.032.028.071.043.116q.1.352,1.129,5.942a.24.24,0,0,1,.016.086.357.357,0,0,1-.047.176.316.316,0,0,1-.286.175.4.4,0,0,1-.055,0,.313.313,0,0,1-.265-.237l-.381-1.974h-1.97l-.947,1.981a.352.352,0,0,1-.328.234.34.34,0,0,1-.187-.055.334.334,0,0,1-.158-.289.26.26,0,0,1,.022-.1q.089-.207.294-.651,2.067-4.515,2.472-5.328a.373.373,0,0,1,.332-.241.366.366,0,0,1,.316.172m-.43,1.328-1.066,2.241h1.5Z" transform="translate(-53.234 -45.155)" fill="#fafafa"/>
        <path id="Trazado_4845" data-name="Trazado 4845" d="M129.967,105.5h-2.89a.331.331,0,0,1-.185-.056.521.521,0,0,1-.163-.362v0q0-.176.8-5.917a.918.918,0,0,1,.017-.127.316.316,0,0,1,.311-.211.337.337,0,0,1,.159.039.32.32,0,0,1,.181.305q-.038.392-.2,1.622-.5,3.789-.518,4h2.456a.5.5,0,0,1,.185.035.324.324,0,0,1,.219.323.376.376,0,0,1-.017.112.4.4,0,0,1-.357.241" transform="translate(-57.9 -45.148)" fill="#fafafa"/>
        <path id="Trazado_4846" data-name="Trazado 4846" d="M137.076,99.006a1.152,1.152,0,0,1,.043.116q.1.352,1.129,5.942a.24.24,0,0,1,.016.086.357.357,0,0,1-.047.176.316.316,0,0,1-.286.175.4.4,0,0,1-.055,0,.313.313,0,0,1-.265-.237l-.381-1.974h-1.97l-.947,1.981a.352.352,0,0,1-.328.234.34.34,0,0,1-.187-.055.334.334,0,0,1-.158-.289.26.26,0,0,1,.022-.1c.059-.138.158-.355.293-.651q2.068-4.515,2.473-5.328a.374.374,0,0,1,.332-.241.365.365,0,0,1,.315.172m-.429,1.328-1.066,2.241h1.5Z" transform="translate(-61.058 -45.155)" fill="#fafafa"/>
        <path id="Trazado_4847" data-name="Trazado 4847" d="M146.114,102.417q.337.939.522,1.448.447,1.235.448,1.3a.3.3,0,0,1-.056.175.326.326,0,0,1-.288.159.316.316,0,0,1-.286-.232c-.022-.062-.04-.11-.054-.146q-.235-.539-.773-2.037l-1.635,2.234a.4.4,0,0,1-.306.181.371.371,0,0,1-.179-.047.319.319,0,0,1-.163-.289.475.475,0,0,1,0-.073.839.839,0,0,1,.172-.28q.822-1.062,1.816-2.53c-.07-.192-.135-.373-.2-.545q-.921-2.473-.922-2.555a.374.374,0,0,1,.043-.177.3.3,0,0,1,.279-.172.347.347,0,0,1,.323.191l.964,2.6L147.752,99a.387.387,0,0,1,.307-.163.321.321,0,0,1,.325.346.432.432,0,0,1-.035.159Z" transform="translate(-65.49 -45.156)" fill="#fafafa"/>
        <path id="Trazado_4848" data-name="Trazado 4848" d="M157.441,98.875a.349.349,0,0,1,.159.039.342.342,0,0,1,.185.3q-.71,5.605-.783,6.057a3.684,3.684,0,0,1-.619,1.578,2.23,2.23,0,0,1-2.843.7,2.047,2.047,0,0,1-1.019-.895.367.367,0,0,1-.039-.168.338.338,0,0,1,.047-.172.327.327,0,0,1,.3-.172.334.334,0,0,1,.263.142,1.859,1.859,0,0,0,1.48.842,1.464,1.464,0,0,0,1.148-.583,3.185,3.185,0,0,0,.637-1.817,1.738,1.738,0,0,1-1.462.791,1.477,1.477,0,0,1-.194-.013,1.547,1.547,0,0,1-1.1-.788,3.569,3.569,0,0,1-.482-1.926q0-.525.048-1.084.081-.877.391-2.491a.385.385,0,0,1,.03-.1.316.316,0,0,1,.309-.236.325.325,0,0,1,.168.047.3.3,0,0,1,.172.275,12.714,12.714,0,0,1-.159,1.318,18.145,18.145,0,0,0-.229,2.015,4.037,4.037,0,0,0,.259,1.567q.3.7.856.7a.556.556,0,0,0,.116-.013,1.574,1.574,0,0,0,.865-.691,4.314,4.314,0,0,0,.714-1.594l.439-3.295a.44.44,0,0,1,.043-.146.316.316,0,0,1,.3-.188" transform="translate(-69.666 -45.174)" fill="#fafafa"/>
        <path id="Trazado_4849" data-name="Trazado 4849" d="M240.853,106.282c-.1,0-.177-3.946-.177-8.813s.079-8.813.177-8.813.177,3.945.177,8.813-.079,8.813-.177,8.813" transform="translate(-109.959 -40.505)" fill="#f5f5f5"/>
        <path id="Trazado_4850" data-name="Trazado 4850" d="M96.38,106.282c-.1,0-.177-3.946-.177-8.813s.079-8.813.177-8.813.177,3.945.177,8.813-.079,8.813-.177,8.813" transform="translate(-43.953 -40.505)" fill="#e1e1e1"/>
        <path id="Trazado_4851" data-name="Trazado 4851" d="M243.95,106.282c-.1,0-.177-3.946-.177-8.813s.079-8.813.177-8.813.177,3.945.177,8.813-.079,8.813-.177,8.813" transform="translate(-111.374 -40.505)" fill="#f5f5f5"/>
        <path id="Trazado_4852" data-name="Trazado 4852" d="M93.485,106.282c-.1,0-.177-3.946-.177-8.813s.079-8.813.177-8.813.177,3.945.177,8.813-.079,8.813-.177,8.813" transform="translate(-42.63 -40.505)" fill="#e1e1e1"/>
        <path id="Trazado_4853" data-name="Trazado 4853" d="M189.3,93.976l-.015-.03,10.135,8.176.09.072-.111.029-1.349.355-8.556,2.245-.017,0-.016-.007-7.755-3.289-2.195-.941-.58-.253-.148-.067a.25.25,0,0,1-.049-.026.233.233,0,0,1,.052.017l.152.059.585.238,2.207.913,7.772,3.25-.034,0,8.554-2.256,1.349-.355-.022.1-10.114-8.2L189.222,94V93.98" transform="translate(-81.66 -42.922)" fill="#e1e1e1"/>
        <path id="Trazado_4854" data-name="Trazado 4854" d="M214.514,106.656l.552.52.742-.161-.324.687.382.656-.753-.1-.506.566-.141-.746-.694-.306.665-.364Z" transform="translate(-97.668 -48.729)" fill="#e1e1e1"/>
        <path id="Trazado_4855" data-name="Trazado 4855" d="M196.873,112.59l.377.314.473-.133-.182.456.272.408-.49-.033-.3.386-.121-.476-.46-.17.415-.262Z" transform="translate(-89.748 -51.44)" fill="#e1e1e1"/>
        <path id="Trazado_4856" data-name="Trazado 4856" d="M177.468,104.11l.6.038.373-.474.15.583.566.207-.509.323-.022.6-.464-.384-.58.165.222-.561Z" transform="translate(-81.081 -47.366)" fill="#e1e1e1"/>
        <path id="Trazado_4857" data-name="Trazado 4857" d="M223.5,93.871l.6.037.372-.474.15.584.566.207-.509.323-.022.6-.464-.385-.58.165.222-.56Z" transform="translate(-102.114 -42.688)" fill="#e1e1e1"/>
        <path id="Trazado_4858" data-name="Trazado 4858" d="M197.289,93.277l.384.024.237-.3.1.373.361.133-.325.206-.014.385-.3-.245-.37.1.142-.357Z" transform="translate(-90.137 -42.489)" fill="#e1e1e1"/>
        <path id="Trazado_4859" data-name="Trazado 4859" d="M212.745,94.481c0,.039-3.28-.07-7.322-.243s-7.318-.345-7.316-.384,3.28.07,7.322.243,7.317.345,7.316.384" transform="translate(-90.511 -42.876)" fill="#e1e1e1"/>
        <path id="Trazado_4860" data-name="Trazado 4860" d="M149.126,81.982H51.875c-1.274-2.89-1.586-5.635,0-8.1h97.251a9.382,9.382,0,0,1,0,8.1" transform="translate(-23.209 -33.757)" fill="#e1e1e1"/>
        <rect id="Rectángulo_78" data-name="Rectángulo 78" width="52.688" height="2.946" transform="translate(48.803 42.443)" fill="#ececec"/>
        <path id="Trazado_4861" data-name="Trazado 4861" d="M58.238,82.2a2.84,2.84,0,0,1-.768-.979,7.147,7.147,0,0,1-.515-5.858,2.839,2.839,0,0,1,.585-1.1,9.364,9.364,0,0,1-.347,1.173,8.181,8.181,0,0,0,.5,5.666,9.251,9.251,0,0,1,.546,1.094" transform="translate(-25.839 -33.929)" fill="#e1e1e1"/>
        <path id="Trazado_4862" data-name="Trazado 4862" d="M62.112,82.2a2.84,2.84,0,0,1-.768-.979,7.144,7.144,0,0,1-.515-5.858,2.834,2.834,0,0,1,.585-1.1,9.366,9.366,0,0,1-.347,1.173,8.181,8.181,0,0,0,.5,5.666,9.251,9.251,0,0,1,.546,1.094" transform="translate(-27.609 -33.929)" fill="#e1e1e1"/>
        <path id="Trazado_4863" data-name="Trazado 4863" d="M224.586,81.859a16.628,16.628,0,0,0,.684-3.958,16.6,16.6,0,0,0-.639-3.965,8.234,8.234,0,0,1-.046,7.923" transform="translate(-102.604 -33.779)" fill="#f5f5f5"/>
        <path id="Trazado_4864" data-name="Trazado 4864" d="M221.239,81.968c-.106-.024.3-1.733.292-3.876.006-2.143-.408-3.851-.3-3.876a9.444,9.444,0,0,1,.656,3.875,9.441,9.441,0,0,1-.646,3.877" transform="translate(-101.066 -33.907)" fill="#f5f5f5"/>
        <rect id="Rectángulo_79" data-name="Rectángulo 79" width="106.389" height="110.901" transform="translate(403.513 11.428)" fill="#e1e1e1"/>
        <rect id="Rectángulo_80" data-name="Rectángulo 80" width="106.389" height="110.901" transform="translate(396.308 11.428)" fill="#fafafa"/>
        <path id="Trazado_4865" data-name="Trazado 4865" d="M836.079,131.948H729.625V20.981H836.079Zm-106.388-.066H836.013V21.047H729.691Z" transform="translate(-333.349 -9.586)" fill="#e1e1e1"/>
        <rect id="Rectángulo_81" data-name="Rectángulo 81" width="77.785" height="81.085" transform="translate(410.61 26.337)" fill="#fff"/>
        <path id="Trazado_4866" data-name="Trazado 4866" d="M744.074,198.773A12.687,12.687,0,0,1,742.155,201c-1.243,1.311-2.988,3.085-4.945,5.012s-3.756,3.645-5.082,4.864a12.394,12.394,0,0,1-2.248,1.873,12.419,12.419,0,0,1,1.909-2.222c1.242-1.311,2.993-3.089,4.956-5.023s3.764-3.654,5.091-4.872a12.167,12.167,0,0,1,2.238-1.863" transform="translate(-333.464 -90.813)" fill="#e1e1e1"/>
        <path id="Trazado_4867" data-name="Trazado 4867" d="M899.233,198.408a12.681,12.681,0,0,1,2.232,1.919c1.311,1.242,3.085,2.988,5.013,4.945s3.645,3.756,4.864,5.082a12.38,12.38,0,0,1,1.872,2.248,12.41,12.41,0,0,1-2.222-1.91c-1.311-1.242-3.089-2.992-5.023-4.955s-3.654-3.764-4.872-5.091a12.157,12.157,0,0,1-1.864-2.238" transform="translate(-410.837 -90.647)" fill="#e1e1e1"/>
        <path id="Trazado_4868" data-name="Trazado 4868" d="M898.842,37.124a12.709,12.709,0,0,1,1.919-2.232c1.242-1.311,2.988-3.085,4.945-5.012s3.756-3.645,5.082-4.865a12.379,12.379,0,0,1,2.248-1.872,12.421,12.421,0,0,1-1.909,2.222c-1.243,1.311-2.993,3.089-4.956,5.022s-3.765,3.654-5.091,4.873a12.155,12.155,0,0,1-2.238,1.863" transform="translate(-410.659 -10.572)" fill="#e1e1e1"/>
        <path id="Trazado_4869" data-name="Trazado 4869" d="M743.861,37.312a12.706,12.706,0,0,1-2.232-1.919c-1.311-1.242-3.086-2.988-5.013-4.945s-3.645-3.756-4.864-5.082a12.376,12.376,0,0,1-1.873-2.248,12.4,12.4,0,0,1,2.223,1.909c1.311,1.242,3.089,2.993,5.022,4.956s3.654,3.764,4.873,5.091a12.169,12.169,0,0,1,1.863,2.238" transform="translate(-333.464 -10.56)" fill="#e1e1e1"/>
        <path id="Trazado_4870" data-name="Trazado 4870" d="M833.3,129.286a3.581,3.581,0,0,1-.017-.394c0-.276-.01-.649-.017-1.131-.008-1.017-.02-2.479-.035-4.377-.018-3.842-.045-9.43-.079-16.526-.037-14.2-.09-34.432-.153-58.656l.3.3-77.565.044h-.007l.344-.344c-.018,29.761-.035,57.6-.049,81.085l-.3-.3,56.168.152,15.777.077,4.174.034,1.078.017a3.539,3.539,0,0,1,.376.016,2.585,2.585,0,0,1-.343.017l-1.047.016-4.117.034-15.71.077-56.355.151h-.3v-.3c-.014-23.481-.031-51.323-.049-81.085v-.344h.352L833.3,47.9h.3v.3c-.064,24.3-.116,44.6-.153,58.848-.034,7.067-.061,12.632-.079,16.458-.015,1.874-.027,3.316-.035,4.319-.007.469-.013.83-.017,1.1a2.714,2.714,0,0,1-.017.36" transform="translate(-345.118 -21.865)" fill="#e1e1e1"/>
        <path id="Trazado_4871" data-name="Trazado 4871" d="M831.486,88.953a29.159,29.159,0,0,0-29.3-3.683s-1.454,19.265-1.351,27.655,8.495,9.694,8.495,9.694L809.3,131.7l20.389.766,3.043-42.558Z" transform="translate(-365.882 -37.875)" fill="#f5f5f5"/>
        <path id="Trazado_4872" data-name="Trazado 4872" d="M816.441,153.193a19.51,19.51,0,0,0,10.937-3.108s-2.585,6.037-10.957,5.282Z" transform="translate(-373.004 -68.57)" fill="#e1e1e1"/>
        <path id="Trazado_4873" data-name="Trazado 4873" d="M857.384,111.585c.143-.062,5.765-1.7,5.581,4.031s-5.9,4.369-5.909,4.2.328-8.234.328-8.234" transform="translate(-391.57 -50.86)" fill="#f5f5f5"/>
        <path id="Trazado_4874" data-name="Trazado 4874" d="M860.405,119.282c.026-.017.1.073.265.156a1,1,0,0,0,.746.039,2.472,2.472,0,0,0,1.214-2.181,3.3,3.3,0,0,0-.234-1.44,1.156,1.156,0,0,0-.727-.791.509.509,0,0,0-.6.255c-.082.158-.049.274-.08.282s-.12-.1-.066-.335a.637.637,0,0,1,.237-.352.755.755,0,0,1,.557-.128,1.4,1.4,0,0,1,1.016.923,3.4,3.4,0,0,1,.3,1.609,2.6,2.6,0,0,1-1.537,2.431,1.073,1.073,0,0,1-.909-.181c-.173-.147-.2-.276-.179-.286" transform="translate(-393.097 -52.44)" fill="#e1e1e1"/>
        <path id="Trazado_4875" data-name="Trazado 4875" d="M808.392,110.12a1.2,1.2,0,0,0,1.155,1.208,1.145,1.145,0,0,0,1.235-1.08,1.2,1.2,0,0,0-1.154-1.21,1.147,1.147,0,0,0-1.236,1.081" transform="translate(-369.336 -49.816)" fill="#e1e1e1"/>
        <path id="Trazado_4876" data-name="Trazado 4876" d="M806.236,107.934c.148.156,1.056-.515,2.346-.512,1.288-.015,2.234.648,2.373.49.069-.07-.083-.352-.494-.652a3.29,3.29,0,0,0-1.9-.586,3.155,3.155,0,0,0-1.867.6c-.4.3-.531.587-.458.657" transform="translate(-368.342 -48.737)" fill="#e1e1e1"/>
        <path id="Trazado_4877" data-name="Trazado 4877" d="M831.728,111.12a1.2,1.2,0,0,0,1.155,1.208,1.145,1.145,0,0,0,1.235-1.08,1.2,1.2,0,0,0-1.154-1.21,1.147,1.147,0,0,0-1.236,1.081" transform="translate(-379.997 -50.273)" fill="#e1e1e1"/>
        <path id="Trazado_4878" data-name="Trazado 4878" d="M829.57,108.377c.148.156,1.058-.515,2.346-.512,1.287-.015,2.234.648,2.374.49.068-.07-.081-.352-.495-.652a3.29,3.29,0,0,0-1.9-.586,3.161,3.161,0,0,0-1.867.6c-.395.3-.531.587-.457.657" transform="translate(-379.003 -48.94)" fill="#e1e1e1"/>
        <path id="Trazado_4879" data-name="Trazado 4879" d="M818.208,118a8.538,8.538,0,0,0-2.094-.378c-.329-.034-.641-.1-.7-.324a1.675,1.675,0,0,1,.22-.976l.973-2.507a43.125,43.125,0,0,0,2.187-6.557,43.155,43.155,0,0,0-2.71,6.366c-.325.88-.637,1.719-.933,2.522a1.9,1.9,0,0,0-.171,1.292.825.825,0,0,0,.541.481,2.23,2.23,0,0,0,.559.078,8.394,8.394,0,0,0,2.122,0" transform="translate(-372.32 -49.005)" fill="#e1e1e1"/>
        <path id="Trazado_4880" data-name="Trazado 4880" d="M828.967,99.321c.127.35,1.414.184,2.927.367,1.516.152,2.736.595,2.937.28.09-.15-.123-.48-.616-.82a5.127,5.127,0,0,0-4.467-.493c-.556.224-.835.5-.78.666" transform="translate(-378.734 -44.936)" fill="#e1e1e1"/>
        <path id="Trazado_4881" data-name="Trazado 4881" d="M807.1,101c.227.293,1.115-.011,2.183-.026,1.067-.052,1.972.2,2.18-.109.091-.149-.051-.442-.446-.72a3.162,3.162,0,0,0-3.516.109c-.377.3-.5.6-.4.746" transform="translate(-368.729 -45.535)" fill="#e1e1e1"/>
        <path id="Trazado_4882" data-name="Trazado 4882" d="M795.792,71.543a3.1,3.1,0,0,1,1.143-2.767,2.2,2.2,0,0,1,2.846.213,2.564,2.564,0,0,1,2.2-3.109c1.368-.087,2.535.947,3.857,1.309a6.23,6.23,0,0,0,3.917-.452c1.242-.5,2.4-1.19,3.66-1.649a10.727,10.727,0,0,1,13.721,6.3,4.763,4.763,0,0,1,5.052,1.912,7.812,7.812,0,0,1,1.2,5.5,17.488,17.488,0,0,1-.959,3.765c0,.108.01.213.009.322-.087,4.613-.608,10.031-2.577,10.061-3.43.053-2.613-6.41-2.613-6.41-4.21-1.627-2.642-7.934-3.694-8.891s-3.255-3.181-12.069,1.324a17.075,17.075,0,0,1-10.457,1.131c-.073-.016-.147-.027-.219-.045l-.051-.01c-.027-.007-.046-.022-.073-.029a7.94,7.94,0,0,1-2.26-.959,4.463,4.463,0,0,1-1.863-2.071,2.446,2.446,0,0,1,.481-2.626,5.377,5.377,0,0,1-1.25-2.822" transform="translate(-363.574 -29.444)" fill="#e1e1e1"/>
        <path id="Trazado_4883" data-name="Trazado 4883" d="M819.469,135.163a4,4,0,0,0,1.476-.182,2.112,2.112,0,0,0,1.116-1.014,2.222,2.222,0,0,0,.036-1.81,1.974,1.974,0,0,0-.242-.414c-.109-.115-.089-.11-.209-.092s-.295.116-.443.174l-.455.185c-.593.24-1.129.449-1.582.619a5.028,5.028,0,0,1-1.507.454,5.057,5.057,0,0,1,1.37-.775c.436-.21.957-.453,1.54-.715l.448-.2a5,5,0,0,1,.506-.209.649.649,0,0,1,.411.012.761.761,0,0,1,.305.241,2.406,2.406,0,0,1,.311.525,2.6,2.6,0,0,1-.085,2.214,2.367,2.367,0,0,1-1.4,1.136,2.234,2.234,0,0,1-1.2.047c-.275-.073-.4-.166-.393-.194" transform="translate(-373.57 -59.922)" fill="#e1e1e1"/>
        <path id="Trazado_4884" data-name="Trazado 4884" d="M573.6,396.831a13.707,13.707,0,0,1,13.345-11.5c28.866-.384,102.368-1.048,106.311,2.083,4.912,3.9,7.48,5.9,7.1,12.089C700,405.185,693.8,503.377,693.8,503.377H556.242Z" transform="translate(-254.134 -175.894)" fill="#1c3247"/>
        <path id="Trazado_4885" data-name="Trazado 4885" d="M779.919,509.812a1.449,1.449,0,0,1-.04-.289c-.018-.214-.042-.495-.073-.851-.056-.776-.136-1.874-.238-3.275-.108-1.422-.219-3.163-.282-5.188s-.2-4.328-.2-6.879q-.022-1.914-.045-4c-.011-1.392.034-2.839.05-4.339.013-3,.177-6.2.319-9.569.38-6.733,1.021-14.124,2.051-21.84,1.068-7.713,2.426-15.01,3.858-21.6.764-3.285,1.46-6.414,2.25-9.309.385-1.45.727-2.857,1.11-4.2s.758-2.62,1.112-3.846c.683-2.458,1.424-4.644,2.033-6.577s1.174-3.583,1.658-4.925l1.1-3.093.3-.8a1.384,1.384,0,0,1,.116-.268,1.538,1.538,0,0,1-.074.282l-.257.815c-.243.738-.587,1.784-1.027,3.118-.459,1.349-1.007,3-1.586,4.944s-1.306,4.128-1.969,6.589L789,418.563c-.374,1.339-.708,2.748-1.085,4.2-.773,2.894-1.456,6.022-2.207,9.3-1.409,6.586-2.753,13.873-3.819,21.574-1.029,7.7-1.68,15.082-2.082,21.8-.153,3.363-.33,6.559-.358,9.554-.024,1.5-.079,2.943-.076,4.333s.011,2.723.017,4c-.018,2.547.09,4.849.138,6.873s.127,3.764.209,5.187c.067,1.4.119,2.5.157,3.278.012.357.022.639.03.853a1.479,1.479,0,0,1,0,.292" transform="translate(-355.924 -182.279)" fill="#1a2e35"/>
        <path id="Trazado_4886" data-name="Trazado 4886" d="M635.036,476.5c0-.015.067-.042.21-.081a2.034,2.034,0,0,1,.641-.036,2.917,2.917,0,0,1,2.013,1.189,3.3,3.3,0,0,1,.2,3.426,4.272,4.272,0,0,1-1.345,1.611,4.1,4.1,0,0,1-2.131.744,3.438,3.438,0,0,1-2.194-.571,2.777,2.777,0,0,1-1.139-1.79,3.734,3.734,0,0,1,1.054-3.293c1.545-1.318,2.914-1.364,2.885-1.235-.007.016-.077.008-.212.038a3.857,3.857,0,0,0-.581.2,6,6,0,0,0-1.876,1.218,3.466,3.466,0,0,0-.876,3,2.384,2.384,0,0,0,.989,1.519,3.046,3.046,0,0,0,1.924.486,3.719,3.719,0,0,0,1.91-.656,3.939,3.939,0,0,0,1.232-1.44,3,3,0,0,0-.093-3.071,2.856,2.856,0,0,0-1.786-1.2,8.2,8.2,0,0,0-.828-.051" transform="translate(-288.399 -217.644)" fill="#1a2e35"/>
        <path id="Trazado_4887" data-name="Trazado 4887" d="M662.078,453.392a36.077,36.077,0,0,0-3.694.04,16.936,16.936,0,0,0-13.876,9.72,35.838,35.838,0,0,0-1.3,3.458,3.8,3.8,0,0,1,.154-.991,14.6,14.6,0,0,1,.866-2.6,16.471,16.471,0,0,1,14.131-9.9,14.694,14.694,0,0,1,2.735.073,3.822,3.822,0,0,1,.984.194" transform="translate(-293.864 -207.009)" fill="#1a2e35"/>
        <path id="Trazado_4888" data-name="Trazado 4888" d="M604.494,494.73a2.4,2.4,0,0,1,.32-.709,11.15,11.15,0,0,1,1.212-1.742,12.914,12.914,0,0,1,12.692-4.325,11.106,11.106,0,0,1,2.023.639,2.389,2.389,0,0,1,.687.366c-.029.075-1.036-.4-2.77-.7a13.415,13.415,0,0,0-12.4,4.226c-1.186,1.3-1.695,2.29-1.764,2.249" transform="translate(-276.178 -222.799)" fill="#1a2e35"/>
        <path id="Trazado_4889" data-name="Trazado 4889" d="M648.222,498.758a5.147,5.147,0,0,1-1.415-1.022,15.767,15.767,0,0,1-4.516-7.032,5.126,5.126,0,0,1-.341-1.712,22.334,22.334,0,0,0,6.271,9.766" transform="translate(-293.286 -223.41)" fill="#1a2e35"/>
        <path id="Trazado_4890" data-name="Trazado 4890" d="M720.566,478.64c0-.015.067-.042.209-.081a2.028,2.028,0,0,1,.643-.036,2.914,2.914,0,0,1,2.012,1.189,3.3,3.3,0,0,1,.2,3.426,4.274,4.274,0,0,1-1.345,1.611,4.1,4.1,0,0,1-2.131.744,3.438,3.438,0,0,1-2.194-.571,2.776,2.776,0,0,1-1.139-1.79,3.732,3.732,0,0,1,1.054-3.292c1.545-1.318,2.914-1.365,2.884-1.236-.007.016-.076.008-.212.039a3.787,3.787,0,0,0-.581.2,6.023,6.023,0,0,0-1.877,1.218,3.469,3.469,0,0,0-.876,3,2.387,2.387,0,0,0,.99,1.519,3.047,3.047,0,0,0,1.924.486,3.719,3.719,0,0,0,1.91-.656,3.94,3.94,0,0,0,1.232-1.44,3,3,0,0,0-.093-3.071,2.855,2.855,0,0,0-1.786-1.2,8.191,8.191,0,0,0-.827-.05" transform="translate(-327.475 -218.622)" fill="#1a2e35"/>
        <path id="Trazado_4891" data-name="Trazado 4891" d="M747.608,455.531a36.076,36.076,0,0,0-3.694.04,16.938,16.938,0,0,0-13.876,9.72,36.177,36.177,0,0,0-1.3,3.458,3.845,3.845,0,0,1,.154-.991,14.705,14.705,0,0,1,.866-2.6,16.473,16.473,0,0,1,14.132-9.9,14.646,14.646,0,0,1,2.735.073,3.813,3.813,0,0,1,.984.194" transform="translate(-332.941 -207.986)" fill="#1a2e35"/>
        <path id="Trazado_4892" data-name="Trazado 4892" d="M690.025,496.871a2.4,2.4,0,0,1,.32-.709,11.162,11.162,0,0,1,1.212-1.742,12.912,12.912,0,0,1,12.692-4.325,11.128,11.128,0,0,1,2.024.639,2.389,2.389,0,0,1,.687.366c-.029.075-1.036-.4-2.77-.7a13.415,13.415,0,0,0-12.4,4.226c-1.186,1.3-1.695,2.29-1.764,2.249" transform="translate(-315.256 -223.777)" fill="#1a2e35"/>
        <path id="Trazado_4893" data-name="Trazado 4893" d="M733.752,500.9a5.146,5.146,0,0,1-1.415-1.022,15.767,15.767,0,0,1-4.516-7.032,5.129,5.129,0,0,1-.341-1.712,22.335,22.335,0,0,0,6.271,9.766" transform="translate(-332.363 -224.387)" fill="#1a2e35"/>
        <path id="Trazado_4894" data-name="Trazado 4894" d="M710.139,312.648c-37.03-36.584-83.132-45.311-83.132-45.311-27.412,16.343-45.91,43.78-59.99,76.715,23.618,21.856,53.994,42.8,79.983,44.731,41.1-10.393,63.139-76.135,63.139-76.135" transform="translate(-259.057 -122.14)" fill="#ff4f5b"/>
        <path id="Trazado_4895" data-name="Trazado 4895" d="M710.139,312.648c-37.03-36.584-83.132-45.311-83.132-45.311-27.412,16.343-45.91,43.78-59.99,76.715,23.618,21.856,53.994,42.8,79.983,44.731,41.1-10.393,63.139-76.135,63.139-76.135" transform="translate(-259.057 -122.14)" fill="#fc7e00"/>
        <path id="Trazado_4896" data-name="Trazado 4896" d="M736.428,350.086a1.491,1.491,0,0,1-.092-.253c-.059-.186-.136-.434-.236-.754l-.884-2.939-3.255-11.058.165.088-18.162,5.889.115-.112a.394.394,0,0,1-.05.1.2.2,0,0,1-.222.061.229.229,0,0,1-.116-.117.59.59,0,0,1-.032-.133l-.019-.2-.017-.372-.012-.739q0-.739,0-1.491.007-1.5.014-3.05c.008-2.064.007-4.19-.024-6.37s-.091-4.413-.216-6.69a59.216,59.216,0,0,0-.718-6.923l.257.169-16.511,3.837-10.066,2.334-.218.051-.042-.22c-1.489-7.8-2.9-15.215-4.209-22.05l.245.153a148.9,148.9,0,0,1-26.375,4.612l-.134.011-.016-.132c-.693-5.682-1.243-10.2-1.622-13.312-.178-1.534-.317-2.722-.413-3.548-.041-.389-.073-.692-.1-.916a1.864,1.864,0,0,1-.02-.312,1.927,1.927,0,0,1,.059.307c.033.222.077.524.135.911l.485,3.538,1.749,13.3-.15-.121a151.951,151.951,0,0,0,26.3-4.715l.205-.056.04.209,4.245,22.043-.26-.169,10.065-2.338,16.514-3.827.218-.051.039.219a59.476,59.476,0,0,1,.714,6.976c.122,2.285.176,4.525.2,6.708s.021,4.311.007,6.377q-.012,1.549-.024,3.05,0,.75,0,1.487l.009.731.015.357.015.167.005.035c-.017.018.044-.012-.041.027s-.081.006-.1.047c0,.046,0-.041-.038-.022-.134-.085-.1-.062-.1-.062l-.094-.045.21-.067,18.193-5.792.129-.041.036.129,3.139,11.092.818,2.958.2.765a1.5,1.5,0,0,1,.057.262" transform="translate(-298.544 -130.53)" fill="#ff4f5b"/>
        <path id="Trazado_4897" data-name="Trazado 4897" d="M718.273,373.206a1.059,1.059,0,0,1-.084-.2l-.219-.589-.824-2.307-3.073-8.784.141.076-21.649,5.78-.2.053-.026-.205c-.516-3.981-1.091-8.257-1.724-12.763s-1.313-9.245-2.183-14.121l.257.169L672.844,344l-10.73,2.488-.218.051-.042-.221c-1.489-7.8-2.9-15.214-4.209-22.05l.245.153a148.871,148.871,0,0,1-26.375,4.611l-.134.011-.016-.132c-.693-5.684-1.243-10.2-1.623-13.314-.179-1.533-.317-2.721-.413-3.547-.041-.389-.073-.691-.1-.915a1.928,1.928,0,0,1-.02-.312,1.748,1.748,0,0,1,.059.307c.033.222.078.523.135.91.113.823.275,2.008.484,3.537.409,3.112,1,7.622,1.749,13.3l-.149-.121a151.929,151.929,0,0,0,26.3-4.715l.2-.055.04.209c1.316,6.834,2.743,14.243,4.245,22.043l-.26-.169,10.729-2.492,15.848-3.673.219-.051.039.22c.867,4.892,1.527,9.634,2.161,14.142S692.2,363,692.7,366.988l-.226-.152,21.681-5.658.106-.028.035.1,2.969,8.82q.5,1.507.766,2.327l.189.6a1.089,1.089,0,0,1,.054.206" transform="translate(-287.472 -142.009)" fill="#fafafa"/>
        <path id="Trazado_4898" data-name="Trazado 4898" d="M693.314,404.9s0-.236.037-.691q.057-.712.164-2.018c.157-1.789.387-4.387.679-7.709l.139.111-22.448,7.459-.191.064-.038-.2-6.137-31.835.259.17-13.73,3.19L639.2,376.417l-.218.051-.042-.219c-1.49-7.809-2.9-15.219-4.208-22.05l.243.152a148.856,148.856,0,0,1-26.375,4.611l-.132.011-.016-.13c-.694-5.691-1.244-10.207-1.624-13.32-.179-1.533-.317-2.72-.413-3.543-.041-.388-.073-.691-.1-.913a.156.156,0,1,1,.038,0l.134.909c.112.821.275,2.005.484,3.534.408,3.109,1,7.619,1.749,13.3l-.147-.119a151.88,151.88,0,0,0,26.3-4.715l.2-.055.04.207,4.246,22.043L639.1,376l12.846-2.984,13.732-3.183.217-.05.042.221c2.242,11.776,4.313,22.651,6.063,31.844l-.23-.135,22.493-7.325.156-.05-.017.162c-.336,3.317-.6,5.912-.78,7.7q-.141,1.3-.218,2.012c-.053.454-.094.686-.094.686" transform="translate(-277.004 -155.683)" fill="#ff4f5b"/>
        <path id="Trazado_4899" data-name="Trazado 4899" d="M654.879,436.967a.7.7,0,0,1-.054-.158l-.13-.474-.477-1.854-1.732-7.033c-.721-3.038-1.592-6.708-2.588-10.9-.962-4.208-2.08-8.934-3.078-14.128l.234.154-26.572,6.192-.221.051-.042-.222-.441-2.3c-1.319-6.9-2.588-13.536-3.776-19.75l.257.161a148.735,148.735,0,0,1-26.376,4.613l-.145.012-.017-.143c-.68-5.6-1.229-10.113-1.611-13.253-.178-1.541-.317-2.744-.414-3.586l-.1-.931a1.732,1.732,0,0,1-.018-.319,1.8,1.8,0,0,1,.061.313c.034.229.08.535.139.926.116.84.281,2.039.493,3.576.414,3.136,1.008,7.644,1.746,13.235l-.162-.131a152.289,152.289,0,0,0,26.294-4.713l.216-.059.042.219,3.8,19.746c.151.787.3,1.572.44,2.3l-.262-.171,26.583-6.144.2-.046.037.2c.977,5.18,2.074,9.916,3.009,14.127l2.5,10.92c.7,3.016,1.245,5.4,1.626,7.058q.27,1.2.419,1.868c.042.2.074.356.1.482a.639.639,0,0,1,.024.165" transform="translate(-268.451 -170.46)" fill="#fafafa"/>
        <path id="Trazado_4900" data-name="Trazado 4900" d="M665.892,472.083a6.908,6.908,0,0,1-.312-1.158l-.714-3.222c-.589-2.74-1.385-6.567-2.264-10.9l.26.171-2.5.582c-4.9,1.136-9.332,2.141-12.548,2.847l-3.814.814a9.018,9.018,0,0,1-1.412.241,9.034,9.034,0,0,1,1.374-.406l3.783-.949c3.2-.783,7.624-1.835,12.52-2.971l2.5-.578.217-.05.044.221c.864,4.335,1.607,8.169,2.121,10.922.239,1.325.436,2.415.586,3.248a6.945,6.945,0,0,1,.16,1.192" transform="translate(-293.585 -208.565)" fill="#ff4f5b"/>
        <path id="Trazado_4901" data-name="Trazado 4901" d="M614.066,443.487a6.568,6.568,0,0,1-.313-1.18c-.18-.847-.413-1.939-.693-3.25-.567-2.748-1.321-6.548-2.126-10.752l-.144-.75.271.168c-3.972,1.074-7.583,1.843-10.2,2.317-1.309.238-2.368.407-3.1.509a5.826,5.826,0,0,1-1.145.113,6.151,6.151,0,0,1,1.117-.275l3.072-.643c2.6-.549,6.186-1.365,10.144-2.441l.226-.061.044.23c.046.238.1.493.144.75.806,4.2,1.511,8.013,2,10.776l.558,3.276a6.567,6.567,0,0,1,.146,1.212" transform="translate(-272.579 -195.198)" fill="#ff4f5b"/>
        <path id="Trazado_4902" data-name="Trazado 4902" d="M571.023,408.357a16.516,16.516,0,0,1-.671-5.3,16.525,16.525,0,0,1,.671,5.3" transform="translate(-260.552 -184.148)" fill="#ff4f5b"/>
        <path id="Trazado_4903" data-name="Trazado 4903" d="M752.628,330.1a1.036,1.036,0,0,1-.052-.2c-.03-.155-.07-.354-.121-.61l-.438-2.383c-.373-2.109-.912-5.162-1.6-9.028l.141.1L737.932,320l-.164.026-.027-.165-4.47-26.759.255.167-17.242,4.009-8.783,2.037-.207.048-.051-.206c-1.866-7.589-3.6-14.779-4.9-21.409l.222.156-25.65,3.942-.13.02-.015-.129c-.5-4.11-.888-7.365-1.159-9.615-.125-1.1-.222-1.95-.29-2.551-.028-.275-.049-.492-.066-.657a1.066,1.066,0,0,1-.011-.224,1.053,1.053,0,0,1,.046.219c.025.164.058.379.1.652.083.6.2,1.447.355,2.542.3,2.247.73,5.5,1.276,9.6l-.145-.109,25.629-4.078.185-.029.037.186c1.321,6.606,3.07,13.8,4.94,21.377l-.258-.158,8.782-2.04,17.245-3.995.219-.051.035.218c1.645,10.041,3.142,19.186,4.386,26.783l-.19-.139,12.644-1.938.121-.018.02.119c.634,3.874,1.135,6.933,1.482,9.047q.242,1.546.375,2.393l.088.616a1,1,0,0,1,.018.21" transform="translate(-308.5 -122.757)" fill="#fafafa"/>
        <path id="Trazado_4904" data-name="Trazado 4904" d="M774.289,349.618a1.079,1.079,0,0,1-.232.087l-.69.213c-.6.2-1.519.4-2.648.82a54.159,54.159,0,0,0-9.3,4.133,64.853,64.853,0,0,0-12.187,8.864,83.924,83.924,0,0,0-12.106,13.938,125.553,125.553,0,0,0-9.276,16.009c-2.508,5.114-4.524,9.835-6.162,13.821s-2.911,7.235-3.8,9.476l-1.031,2.578-.278.667a1.057,1.057,0,0,1-.109.222,1.028,1.028,0,0,1,.067-.237c.061-.177.14-.4.238-.682.229-.626.549-1.5.955-2.608.84-2.26,2.07-5.527,3.673-9.532s3.592-8.746,6.087-13.882a122.826,122.826,0,0,1,9.279-16.081,82.9,82.9,0,0,1,12.193-13.986,63.8,63.8,0,0,1,12.308-8.837,51.34,51.34,0,0,1,9.393-4.025c1.142-.4,2.068-.569,2.679-.744l.7-.171a1.012,1.012,0,0,1,.243-.044" transform="translate(-327.34 -159.732)" fill="#1a2e35"/>
        <path id="Trazado_4905" data-name="Trazado 4905" d="M47.546,464.387a.889.889,0,0,1-.86-.664L16.971,350.472a.89.89,0,0,1,1.722-.452L48.408,463.271a.89.89,0,0,1-.635,1.087.862.862,0,0,1-.227.029" transform="translate(-7.74 -159.613)" fill="#1a2e35"/>
        <path id="Trazado_4906" data-name="Trazado 4906" d="M33.095,469.548a.889.889,0,0,1-.86-.664L2.52,355.631a.89.89,0,1,1,1.721-.452L33.956,468.431a.889.889,0,0,1-.635,1.087.856.856,0,0,1-.226.029" transform="translate(-1.138 -161.97)" fill="#1a2e35"/>
        <path id="Trazado_4907" data-name="Trazado 4907" d="M7.909,260.248,6.48,259.186,82.78,156.5l69.6,13.335-.335,1.749-68.5-13.124Z" transform="translate(-2.961 -71.503)" fill="#1a2e35"/>
        <rect id="Rectángulo_82" data-name="Rectángulo 82" width="126.126" height="1.781" transform="matrix(0.595, -0.804, 0.804, 0.595, 10.107, 189.607)" fill="#1a2e35"/>
        <path id="Trazado_4908" data-name="Trazado 4908" d="M143.237,159.576a5.046,5.046,0,1,0,3.152-6.4,5.046,5.046,0,0,0-3.152,6.4" transform="translate(-65.318 -69.858)" fill="#1c3247"/>
        <path id="Trazado_4909" data-name="Trazado 4909" d="M268,164.046l-1.247-7.253,5.372-.4.388,7.006Z" transform="translate(-121.874 -71.451)" fill="#ff4f5b"/>
        <g id="Grupo_8741" data-name="Grupo 8741" transform="translate(144.88 84.938)" opacity="0.3">
          <g id="Grupo_8740" data-name="Grupo 8740">
            <g id="Grupo_8739" data-name="Grupo 8739" clip-path="url(#clip-path-3)">
              <path id="Trazado_4910" data-name="Trazado 4910" d="M268,164.046l-1.247-7.253,5.372-.4.388,7.006Z" transform="translate(-266.753 -156.389)" fill="#fe9900"/>
            </g>
          </g>
        </g>
        <path id="Trazado_4911" data-name="Trazado 4911" d="M246.236,168.021l-4.961,26.913L228.734,230.5l70.659-10.192-28.516-31.042-11.907-23.079Z" transform="translate(-104.503 -75.926)" fill="#1c3247"/>
        <path id="Trazado_4912" data-name="Trazado 4912" d="M0,348.343a5.607,5.607,0,1,0,5.607-5.606A5.607,5.607,0,0,0,0,348.343" transform="translate(0 -156.589)" fill="#1c3247"/>
        <path id="Trazado_4913" data-name="Trazado 4913" d="M32.057,583.061c-.018-.374-.056-.743-.056-1.122a22.426,22.426,0,0,1,44.852,0c0,.378-.038.747-.056,1.122Z" transform="translate(-14.621 -255.629)" fill="#1c3247"/>
        <path id="Trazado_4914" data-name="Trazado 4914" d="M256.773,587.415c-.276.055-1.449,1.25.23,3.15s11.8,7.087,13.673,3.985-2.64-5.257-2.64-5.257Z" transform="translate(-117.014 -268.377)" fill="#ffc09d"/>
        <path id="Trazado_4915" data-name="Trazado 4915" d="M261.965,555.086s10.448-1.155,14.71-.608c4.628.594,9.529-1.744,12.439-4.933a16.684,16.684,0,0,0,3.672-7.386l6.648-4.651s.717-15.8-9.818-13.251l-12.314.431s-24.224,4.014-27.975,7.031c0,0-4.564,4.433-5.893,6.151-.5.648-.932,7.161,3.7,9.381,0,0-2.729,3.491-.325,5.458l1.131.858s-1.563,3.479-.093,4.477,13.094,4.525,16.4,2.226-.524-4.951-2.276-5.184" transform="translate(-111.084 -239.393)" fill="#ffc09d"/>
        <path id="Trazado_4916" data-name="Trazado 4916" d="M252.962,565.7a9.744,9.744,0,0,1,1.368.147c.877.113,2.146.268,3.72.382.787.057,1.65.1,2.577.122s1.919-.012,2.981.071a6.186,6.186,0,0,1,3.2,1.014,3.543,3.543,0,0,1,1.562,3.222,2.753,2.753,0,0,1-.934,1.654,4.85,4.85,0,0,1-1.58.878,14.4,14.4,0,0,1-3.272.6,29.3,29.3,0,0,1-5.584-.108c-1.579-.165-2.845-.376-3.718-.524a8.038,8.038,0,0,1-1.348-.283,8.574,8.574,0,0,1,1.372.115c.88.1,2.15.261,3.723.386a31.312,31.312,0,0,0,5.519.015,14.393,14.393,0,0,0,3.166-.607,4.467,4.467,0,0,0,1.437-.8,2.331,2.331,0,0,0,.79-1.395,3.139,3.139,0,0,0-1.386-2.814,5.852,5.852,0,0,0-2.977-.957c-1.025-.092-2.023-.065-2.957-.11s-1.8-.1-2.592-.176c-1.58-.154-2.849-.356-3.721-.521a7.312,7.312,0,0,1-1.341-.315" transform="translate(-115.101 -258.45)" fill="#ff9b6c"/>
        <path id="Trazado_4917" data-name="Trazado 4917" d="M251.756,551.792a9.321,9.321,0,0,1,1.362.154c.873.116,2.136.282,3.7.417s3.436.242,5.514.242a7.267,7.267,0,0,1,3.3.495,2.636,2.636,0,0,1,1.256,1.344,3.335,3.335,0,0,1,.172,1.872,4.477,4.477,0,0,1-2.112,2.9,7.219,7.219,0,0,1-3.172,1.032,31.941,31.941,0,0,1-5.559-.257l-3.715-.377a8.332,8.332,0,0,1-1.357-.2,8.223,8.223,0,0,1,1.371.029l3.726.239a34.553,34.553,0,0,0,5.491.166,6.888,6.888,0,0,0,2.986-.993,4.074,4.074,0,0,0,1.912-2.615,2.464,2.464,0,0,0-1.2-2.76,7.022,7.022,0,0,0-3.1-.472,54.829,54.829,0,0,1-5.542-.336c-1.571-.175-2.832-.389-3.7-.556a7.432,7.432,0,0,1-1.334-.321" transform="translate(-114.743 -252.098)" fill="#ff9b6c"/>
        <path id="Trazado_4918" data-name="Trazado 4918" d="M260.543,550.269a77.463,77.463,0,0,0-1.952-3.828c.082-.079.833.6,1.39,1.7a3.631,3.631,0,0,1,.562,2.125" transform="translate(-118.14 -249.654)" fill="#ff9b6c"/>
        <path id="Trazado_4919" data-name="Trazado 4919" d="M288.172,520.328l-9.877-1.314s-27.917-5.691-28.189-4.955-1.649.994-.617,3.983,17.143,5.648,17.86,6.6,1.232,6.5,7.558,9.04,10.244,1.691,10.244,1.691" transform="translate(-113.813 -234.832)" fill="#ffc09d"/>
        <path id="Trazado_4920" data-name="Trazado 4920" d="M284.969,535.189a.692.692,0,0,1-.213.059c-.143.027-.357.063-.64.089a14.508,14.508,0,0,1-2.483,0,23.39,23.39,0,0,1-8.725-2.572,11.194,11.194,0,0,1-4.35-4.546,25.335,25.335,0,0,1-1.344-3.247,1.94,1.94,0,0,0-.182-.367.758.758,0,0,0-.294-.185,8.588,8.588,0,0,0-.848-.3c-.587-.18-1.192-.341-1.8-.5-2.455-.638-5.055-1.254-7.715-2.037-1.33-.391-2.677-.822-4.013-1.362a13.636,13.636,0,0,1-1.964-.972,4.618,4.618,0,0,1-.9-.707,1.95,1.95,0,0,1-.344-.514,4.662,4.662,0,0,1-.187-.543,4.083,4.083,0,0,1-.136-2.277,2.644,2.644,0,0,1,.606-.991,1.592,1.592,0,0,0,.274-.383.407.407,0,0,1,.066-.108.279.279,0,0,1,.163-.1.836.836,0,0,1,.181-.029c.1,0,.2-.005.289,0,1.46.093,2.837.341,4.209.555,2.732.451,5.356.939,7.854,1.411,5,.948,9.482,1.854,13.248,2.628.941.186,1.84.4,2.683.539l2.421.339,3.875.553,2.447.367.635.106a.111.111,0,1,1-.006.044l-.641-.063-2.46-.286-3.889-.48L278.353,519c-.865-.134-1.752-.334-2.7-.511l-13.261-2.535c-2.5-.461-5.122-.94-7.849-1.384-1.359-.21-2.762-.456-4.153-.543-.086,0-.169,0-.247,0a.618.618,0,0,0-.084.011c-.009-.013.009.031-.021-.03-.047-.072-.011-.068-.041-.1a.081.081,0,0,0-.037-.023c.331.124.087.046.159.078l-.017.038a1.951,1.951,0,0,1-.344.494,2.23,2.23,0,0,0-.519.838,3.692,3.692,0,0,0,.14,2.026,1.923,1.923,0,0,0,.432.883,4.245,4.245,0,0,0,.81.634,13.335,13.335,0,0,0,1.9.94c1.312.531,2.648.961,3.97,1.353,2.644.784,5.236,1.408,7.7,2.058.615.165,1.221.329,1.818.515a8.93,8.93,0,0,1,.889.319,1.084,1.084,0,0,1,.451.317,2.272,2.272,0,0,1,.221.442,25.372,25.372,0,0,0,1.311,3.227,10.916,10.916,0,0,0,4.187,4.449,21.428,21.428,0,0,0,4.763,1.918,22.238,22.238,0,0,0,3.821.75,16.694,16.694,0,0,0,2.461.081c.282-.012.5-.033.64-.045a1.051,1.051,0,0,1,.219-.015" transform="translate(-113.632 -234.65)" fill="#ff9b6c"/>
        <path id="Trazado_4921" data-name="Trazado 4921" d="M263.8,580.328a3.253,3.253,0,0,1,1.028.049,9.745,9.745,0,0,1,2.7.8,8.8,8.8,0,0,1,1.686,1,2.958,2.958,0,0,1,1.237,1.938,2.411,2.411,0,0,1-1.239,2.21,4.646,4.646,0,0,1-2.65.549,49.721,49.721,0,0,1-9.126-1.344,27.407,27.407,0,0,1-2.673-.822,4.248,4.248,0,0,1-.941-.409,5.106,5.106,0,0,1,.993.248c.632.181,1.548.429,2.692.684a59.493,59.493,0,0,0,9.069,1.208,4.283,4.283,0,0,0,2.411-.476,2.012,2.012,0,0,0,1.065-1.811,2.624,2.624,0,0,0-1.065-1.695,8.914,8.914,0,0,0-1.592-1,14.673,14.673,0,0,0-3.591-1.127" transform="translate(-115.965 -265.13)" fill="#ff9b6c"/>
        <path id="Trazado_4922" data-name="Trazado 4922" d="M367.153,395.731s12.379-20.377,15.161-33.826,17.158-34.78,21.8-40.345S427.3,309.5,427.3,309.5l6.84-3.688,52.983-4.659s35.244,3.71,45.911,13.448,19.013,32,19.013,43.128,10.771,107.514,10.771,107.514l-130.561-.172,2.926-47.519s-15.767-10.666-19.941-19.941-1.855-4.638-1.855-4.638-14.8,31.466-19.9,35.176-64.393,21.906-64.393,21.906l-8.12-31.116Z" transform="translate(-146.644 -137.591)" fill="#fe9900"/>
        <path id="Trazado_4923" data-name="Trazado 4923" d="M618.406,332.4c-1.431.444-19.112,46.119-20.359,50.274s0,30.331,0,30.331l5.817,10.8s-1.662,7.894-.416,11.634l-26.176,4.986s-6.648-4.57-12.88,0l-30.88,2.611s9.066.1,6.366,14.009c-2.644,13.621-4.655,16.617-4.655,16.617l108.528-2.478s12.055-.6,10.218-23.783-7.012-87.135-7.012-87.135S639.045,326,618.406,332.4" transform="translate(-243.75 -151.502)" fill="#fe9900"/>
        <path id="Trazado_4924" data-name="Trazado 4924" d="M646.372,424.685a3.254,3.254,0,0,1-.257-.562l-.658-1.645c-.287-.714-.627-1.592-.962-2.634s-.775-2.208-1.131-3.538c-.384-1.323-.806-2.77-1.157-4.353-.405-1.569-.718-3.271-1.06-5.06a85.976,85.976,0,0,1-.912-23.615c.215-1.809.389-3.531.682-5.125.136-.8.243-1.573.393-2.31l.446-2.115c.26-1.352.609-2.55.879-3.609s.538-1.962.779-2.693q.34-1.049.547-1.685a3.333,3.333,0,0,1,.218-.578,3.272,3.272,0,0,1-.135.6c-.118.431-.274,1-.468,1.706-.216.737-.468,1.642-.707,2.706s-.574,2.26-.814,3.612l-.417,2.112c-.141.735-.238,1.509-.367,2.3-.276,1.59-.436,3.307-.639,5.108a89.321,89.321,0,0,0,.908,23.508c.33,1.783.628,3.481,1.017,5.047.334,1.579.738,3.026,1.1,4.349.335,1.332.749,2.5,1.066,3.547s.627,1.93.89,2.652l.581,1.672a3.284,3.284,0,0,1,.175.594" transform="translate(-292.32 -166.834)" fill="#1a2e35"/>
        <path id="Trazado_4925" data-name="Trazado 4925" d="M693.478,546.637a1.56,1.56,0,0,1-.278-.318l-.726-.96c-.306-.423-.687-.935-1.161-1.5s-.975-1.249-1.6-1.937c-.61-.7-1.282-1.473-2.055-2.251-.741-.807-1.6-1.6-2.492-2.452a56.994,56.994,0,0,0-13.134-9.084c-1.11-.532-2.157-1.057-3.173-1.467-1-.448-1.956-.805-2.831-1.128-.866-.346-1.677-.581-2.379-.818s-1.314-.418-1.817-.556l-1.154-.341a1.559,1.559,0,0,1-.4-.148,1.52,1.52,0,0,1,.417.062l1.177.262c.512.113,1.134.266,1.844.487s1.534.432,2.411.761c.886.306,1.854.649,2.868,1.086,1.029.4,2.089.915,3.212,1.44a54.162,54.162,0,0,1,13.229,9.149c.888.865,1.746,1.674,2.481,2.5.766.794,1.428,1.579,2.027,2.3.618.705,1.11,1.4,1.563,1.987s.82,1.116,1.106,1.555l.661,1.009a1.548,1.548,0,0,1,.205.368" transform="translate(-301.665 -239.253)" fill="#1a2e35"/>
        <path id="Trazado_4926" data-name="Trazado 4926" d="M718.588,547.024c-.063.059-1.024-1.037-2.833-2.511a28.87,28.87,0,0,0-3.354-2.34,28.55,28.55,0,0,0-9.318-3.535,28.838,28.838,0,0,0-4.062-.473c-2.332-.1-3.777.085-3.786,0a4.566,4.566,0,0,1,1.008-.172,10.634,10.634,0,0,1,1.2-.1c.468-.017,1-.062,1.59-.034a25.8,25.8,0,0,1,4.126.386,26.942,26.942,0,0,1,9.453,3.586,25.808,25.808,0,0,1,3.343,2.447c.46.37.829.757,1.168,1.08a10.629,10.629,0,0,1,.828.87,4.611,4.611,0,0,1,.641.8" transform="translate(-317.637 -245.731)" fill="#1a2e35"/>
        <path id="Trazado_4927" data-name="Trazado 4927" d="M696.713,522.256c-.055.079-1.334-.94-3.674-2.1a19.689,19.689,0,0,0-1.951-.852c-.7-.3-1.492-.527-2.312-.788a26.564,26.564,0,0,0-11.086-.759c-.848.147-1.659.262-2.4.465a19.681,19.681,0,0,0-2.049.578c-2.475.826-3.881,1.66-3.925,1.575a5.747,5.747,0,0,1,.976-.595,9.8,9.8,0,0,1,1.2-.6,16.348,16.348,0,0,1,1.647-.672,18.44,18.44,0,0,1,2.062-.638,24.241,24.241,0,0,1,2.426-.512,25.526,25.526,0,0,1,11.257.771,24.33,24.33,0,0,1,2.334.838,18.465,18.465,0,0,1,1.956.912,16.513,16.513,0,0,1,1.541.891,9.849,9.849,0,0,1,1.108.757,5.7,5.7,0,0,1,.886.722" transform="translate(-305.797 -236.238)" fill="#1a2e35"/>
        <path id="Trazado_4928" data-name="Trazado 4928" d="M596.266,564.494a38.776,38.776,0,0,0,.771-4.651,30.419,30.419,0,0,0-.041-5.1,40.714,40.714,0,0,0-1.092-6.157,41.878,41.878,0,0,0-2.081-5.9,31.393,31.393,0,0,0-2.484-4.46,42.459,42.459,0,0,0-2.945-3.682,7.089,7.089,0,0,1,.956.844,9.85,9.85,0,0,1,1.019,1.1l.608.714c.2.262.4.553.614.852a29.059,29.059,0,0,1,2.6,4.468,39.406,39.406,0,0,1,2.137,5.956,38.334,38.334,0,0,1,1.07,6.234,28.225,28.225,0,0,1-.052,5.166q-.06.545-.116,1.044-.094.483-.181.92a10.256,10.256,0,0,1-.353,1.457,7.129,7.129,0,0,1-.427,1.2" transform="translate(-268.823 -244.219)" fill="#1a2e35"/>
        <path id="Trazado_4929" data-name="Trazado 4929" d="M563.535,451.955a1.03,1.03,0,0,1-.053-.241c-.03-.185-.067-.42-.114-.714-.094-.66-.226-1.581-.394-2.751-.338-2.39-.785-5.855-1.3-10.141-1.03-8.57-2.257-20.437-3.218-33.574s-1.462-25.062-1.685-33.692c-.113-4.315-.174-7.807-.186-10.221,0-1.182-.007-2.113-.008-2.779,0-.3.007-.536.009-.723a1.023,1.023,0,0,1,.018-.247,1.056,1.056,0,0,1,.026.246c.009.187.02.425.034.722.022.666.052,1.6.09,2.778.078,2.444.188,5.925.324,10.215.3,8.624.858,20.534,1.812,33.67s2.138,24.994,3.09,33.571c.487,4.264.883,7.724,1.161,10.154.134,1.175.238,2.1.314,2.762.029.3.052.533.071.72a1.021,1.021,0,0,1,.009.247" transform="translate(-254.288 -163.047)" fill="#1a2e35"/>
        <path id="Trazado_4930" data-name="Trazado 4930" d="M477.915,444.437a8.558,8.558,0,0,1-.568-1.277c-.333-.834-.832-2.034-1.46-3.51-1.257-2.954-3.13-6.973-5.364-11.332l-5.782-11.145c-.728-1.433-1.307-2.6-1.691-3.411a8.6,8.6,0,0,1-.56-1.281,8.52,8.52,0,0,1,.711,1.2l1.813,3.345c1.522,2.829,3.655,6.723,5.9,11.09s4.074,8.422,5.261,11.413c.594,1.5,1.05,2.715,1.335,3.568a8.6,8.6,0,0,1,.409,1.337" transform="translate(-211.3 -188.453)" fill="#1a2e35"/>
        <path id="Trazado_4931" data-name="Trazado 4931" d="M463.991,435.643a2.626,2.626,0,0,1-.757-.145c-.481-.118-1.167-.319-2.007-.594a49.474,49.474,0,0,1-12.35-6.116c-.727-.5-1.3-.927-1.689-1.237s-.591-.49-.574-.514a25.981,25.981,0,0,1,2.432,1.494c1.489.935,3.584,2.166,5.985,3.358s4.652,2.107,6.3,2.725a25.935,25.935,0,0,1,2.662,1.029" transform="translate(-204.048 -195.103)" fill="#1a2e35"/>
        <path id="Trazado_4932" data-name="Trazado 4932" d="M437.255,487.666a4.888,4.888,0,0,1-.9-.547c-.556-.38-1.376-.908-2.4-1.532a49.495,49.495,0,0,0-17.477-6.544c-1.185-.2-2.149-.344-2.818-.423a4.878,4.878,0,0,1-1.036-.177,4.885,4.885,0,0,1,1.051.008c.676.027,1.651.122,2.85.287a43.7,43.7,0,0,1,17.593,6.588c1.012.663,1.81,1.232,2.338,1.655a4.877,4.877,0,0,1,.8.684" transform="translate(-188.519 -218.581)" fill="#1a2e35"/>
        <path id="Trazado_4933" data-name="Trazado 4933" d="M593.413,301.288a4.08,4.08,0,0,1-.048.68q-.082.724-.221,1.938c-.218,1.68-.519,4.115-1.029,7.1a90.96,90.96,0,0,1-2.341,10.394,48.561,48.561,0,0,1-5.256,11.937,37.031,37.031,0,0,1-4.356,5.583l-.17.184-.155-.206a22.083,22.083,0,0,0-7.932-6.58,21.566,21.566,0,0,0-4.176-1.539,19.027,19.027,0,0,0-3.8-.511,15.736,15.736,0,0,0-5.419.763c-1.216.425-1.854.741-1.872.7a2.714,2.714,0,0,1,.456-.243,11.738,11.738,0,0,1,1.368-.6,15.189,15.189,0,0,1,5.474-.9,18.943,18.943,0,0,1,3.874.468,21.613,21.613,0,0,1,4.261,1.524,22.24,22.24,0,0,1,8.114,6.661l-.325-.022a37.15,37.15,0,0,0,4.3-5.52,49.13,49.13,0,0,0,5.24-11.82,96.733,96.733,0,0,0,2.422-10.332c.548-2.975.9-5.4,1.164-7.074q.189-1.208.3-1.927a3.912,3.912,0,0,1,.135-.668" transform="translate(-254.313 -137.652)" fill="#1a2e35"/>
        <path id="Trazado_4934" data-name="Trazado 4934" d="M587.614,293.28l-8.051-10.67-8.747.275-28.433,15.02Z" transform="translate(-247.803 -129.118)" fill="#fc7e00"/>
        <path id="Trazado_4935" data-name="Trazado 4935" d="M539.934,338.135a1.869,1.869,0,0,1-.462-.01,9.477,9.477,0,0,1-1.31-.215,16.366,16.366,0,0,1-4.489-1.919,9.666,9.666,0,0,0-3.053-1.265,8.973,8.973,0,0,0-3.77-.005,8.819,8.819,0,0,0-6.311,5.488l-.456,1.225.035-1.308c.009-.324.018-.672.028-1.022.1-6.581.108-12.555.377-16.87.12-2.158.294-3.9.47-5.1.078-.6.171-1.061.237-1.372a2.037,2.037,0,0,1,.121-.471c.042.008-.076.665-.19,1.865s-.25,2.938-.331,5.093c-.19,4.31-.147,10.269-.249,16.865-.01.352-.019.7-.028,1.027l-.422-.083a9.173,9.173,0,0,1,6.638-5.724,9.364,9.364,0,0,1,7.056,1.4,17.478,17.478,0,0,0,4.38,2.02c1.1.306,1.736.342,1.731.386" transform="translate(-237.613 -144.049)" fill="#1a2e35"/>
        <path id="Trazado_4936" data-name="Trazado 4936" d="M554.976,159.417v64.077a15.529,15.529,0,0,1-3.652,10,46.938,46.938,0,0,1-12.867,10.659l-12.925,7.278-10.691-9.545a15.552,15.552,0,0,1-5.176-10.986c-.185-4.668-.184-9.371-.184-9.371s-18.114-1.3-19.815-19.163c-.8-8.411-1.054-25.637-1.1-41.512a34.746,34.746,0,0,1,31.888-34.711l.51-.042a33.206,33.206,0,0,1,34.01,33.31" transform="translate(-223.215 -57.611)" fill="#ffc09d"/>
        <path id="Trazado_4937" data-name="Trazado 4937" d="M526.979,294.151a41.725,41.725,0,0,0,22.763-8.555s-4.445,13.325-22.421,13.191Z" transform="translate(-240.765 -130.482)" fill="#ff9b6c"/>
        <path id="Trazado_4938" data-name="Trazado 4938" d="M499.648,210.084a2.562,2.562,0,0,0,2.675,2.372,2.45,2.45,0,0,0,2.441-2.52,2.563,2.563,0,0,0-2.673-2.375,2.453,2.453,0,0,0-2.444,2.522" transform="translate(-228.277 -94.83)" fill="#1a2e35"/>
        <path id="Trazado_4939" data-name="Trazado 4939" d="M496.928,200.748c.344.306,2.16-1.285,4.909-1.506,2.742-.259,4.876.988,5.146.626.134-.161-.238-.735-1.169-1.3a7.034,7.034,0,0,0-4.154-.913,6.752,6.752,0,0,0-3.873,1.614c-.791.719-1.028,1.344-.859,1.481" transform="translate(-227.012 -90.291)" fill="#1a2e35"/>
        <path id="Trazado_4940" data-name="Trazado 4940" d="M547.786,208.045a2.562,2.562,0,0,0,2.675,2.372,2.451,2.451,0,0,0,2.442-2.52,2.564,2.564,0,0,0-2.674-2.375,2.452,2.452,0,0,0-2.443,2.522" transform="translate(-250.27 -93.898)" fill="#1a2e35"/>
        <path id="Trazado_4941" data-name="Trazado 4941" d="M546.738,197.575c.344.307,2.163-1.285,4.909-1.5,2.742-.259,4.876.987,5.146.626.134-.161-.235-.735-1.17-1.3a7.024,7.024,0,0,0-4.153-.914,6.761,6.761,0,0,0-3.874,1.614c-.789.719-1.027,1.344-.859,1.481" transform="translate(-249.769 -88.842)" fill="#1a2e35"/>
        <path id="Trazado_4942" data-name="Trazado 4942" d="M525.489,219.894c0-.157-1.733-.311-4.53-.436-.708-.015-1.383-.1-1.541-.568a3.587,3.587,0,0,1,.3-2.119q.779-2.629,1.633-5.515c2.252-7.845,3.82-14.273,3.5-14.361s-2.4,6.2-4.651,14.046q-.807,2.9-1.543,5.54a4.075,4.075,0,0,0-.136,2.784,1.767,1.767,0,0,0,1.239.93,4.82,4.82,0,0,0,1.205.067c2.8-.081,4.526-.211,4.524-.368" transform="translate(-236.806 -89.957)" fill="#1a2e35"/>
        <path id="Trazado_4943" data-name="Trazado 4943" d="M539.844,241.507c-.449.011-.208,2.994-2.585,5.322s-5.58,2.263-5.569,2.682c-.026.19.756.52,2.1.446a7.452,7.452,0,0,0,4.663-2.07,6.493,6.493,0,0,0,1.976-4.447c.01-1.257-.383-1.968-.586-1.934" transform="translate(-242.917 -110.339)" fill="#1a2e35"/>
        <path id="Trazado_4944" data-name="Trazado 4944" d="M543.814,178.346c.333.725,3.047.143,6.3.266,3.259.056,5.937.784,6.309.079.164-.337-.347-1-1.458-1.639a10.966,10.966,0,0,0-9.608-.262c-1.144.575-1.691,1.211-1.545,1.556" transform="translate(-248.446 -80.323)" fill="#1a2e35"/>
        <path id="Trazado_4945" data-name="Trazado 4945" d="M497.541,185.829c.534.584,2.373-.221,4.647-.439,2.266-.3,4.239.072,4.628-.618.168-.333-.187-.933-1.078-1.454a6.76,6.76,0,0,0-7.474.852c-.752.708-.962,1.373-.723,1.66" transform="translate(-227.273 -83.409)" fill="#1a2e35"/>
        <path id="Trazado_4946" data-name="Trazado 4946" d="M572.107,144.322l.1.07a14.116,14.116,0,0,1,5.982,8.663l.079.357c1.122,5.042,1.425,10.241,2.6,15.272s.954,8.876,5.994,10.009a6.709,6.709,0,0,0,7.017-2.85,4.378,4.378,0,0,0,.444-2.39c-.066-12.393,2.426-17.207,1.337-30.082a10.89,10.89,0,0,0-5.236-8.463c-2.856-1.709-6.314-3.44-9.192-1.774s-6.3,7.6-8.423,10.167" transform="translate(-261.383 -60.517)" fill="#1c3247"/>
        <path id="Trazado_4947" data-name="Trazado 4947" d="M600.974,202.477c.293-.158,11.986-4.651,12.606,7.606s-11.813,10.352-11.852,10-.754-17.608-.754-17.608" transform="translate(-274.572 -92.082)" fill="#ffc09d"/>
        <path id="Trazado_4948" data-name="Trazado 4948" d="M608.816,218.525c.052-.042.221.139.59.286a2.14,2.14,0,0,0,1.6-.048c1.27-.541,2.257-2.652,2.2-4.864a7.061,7.061,0,0,0-.752-3.027,2.47,2.47,0,0,0-1.69-1.558,1.088,1.088,0,0,0-1.23.649c-.147.351-.057.592-.121.616-.033.032-.274-.192-.2-.7a1.365,1.365,0,0,1,.443-.792,1.615,1.615,0,0,1,1.165-.372,3,3,0,0,1,2.327,1.787,7.257,7.257,0,0,1,.914,3.379c.047,2.474-1.1,4.849-2.847,5.451a2.289,2.289,0,0,1-1.969-.225c-.395-.283-.473-.554-.432-.578" transform="translate(-278.15 -95.354)" fill="#ff9b6c"/>
        <path id="Trazado_4949" data-name="Trazado 4949" d="M530.826,126.021c2.6-5.14-6.223-11.48-12.414-12.882s-13.895,2.2-19.734,4.684c-3.685,1.57-7.315,3.636-11.317,3.8a27.07,27.07,0,0,1-7.913-1.333,19.841,19.841,0,0,0-7.948-.9c-2.655.4-5.287,2.051-6.1,4.612s.925,5.835,3.606,5.985c-3.537-1.579-8.229,1.269-8.463,5.136s4.079,7.258,7.783,6.122c-1.848-1.173-4.332,1.223-3.938,3.376s2.493,3.569,4.563,4.281c5.284,1.817,11.168.61,16.3-1.6s9.794-5.384,14.867-7.724,13.551-6.486,18.956-5.07c3.979,1.043,7.055,5.477,9.153,4.269a7.5,7.5,0,0,0,3.414-5.817,21.709,21.709,0,0,0-.816-6.94" transform="translate(-210.41 -51.547)" fill="#1c3247"/>
        <path id="Trazado_4950" data-name="Trazado 4950" d="M473.364,132.659c.1-.07.7.853,2.136,2.17a16.914,16.914,0,0,0,7.154,3.81,15.542,15.542,0,0,0,11.62-1.436c4-2.205,7.253-6.227,11.057-10.079,3.792-3.88,8.4-6.9,13.194-7.737,4.765-.855,9.349.539,12.025,3.081a10.706,10.706,0,0,1,3.428,7.672,8.347,8.347,0,0,1-.341,2.291c-.181.5-.3.747-.338.733a19.893,19.893,0,0,0,.207-3.009,10.551,10.551,0,0,0-3.532-7.052,13.4,13.4,0,0,0-11.248-2.617c-4.47.84-8.835,3.707-12.539,7.5-3.734,3.765-7.085,7.9-11.374,10.2a16.68,16.68,0,0,1-19.643-3.013,11.4,11.4,0,0,1-1.432-1.8c-.281-.445-.41-.687-.375-.71" transform="translate(-216.267 -54.43)" fill="#375a64"/>
        <path id="Trazado_4951" data-name="Trazado 4951" d="M596.959,175.407c-.041.045-.555-.293-1.1-1.225a8.246,8.246,0,0,1-.977-4.381c-.055-3.961,3.077-8.477,3.07-13.955A12.338,12.338,0,0,0,596,148.662a9.373,9.373,0,0,0-4.869-3.548A7.986,7.986,0,0,0,587,144.9c-.969.238-1.479.511-1.532.417-.033-.048.4-.468,1.4-.868a7.633,7.633,0,0,1,4.493-.157,9.894,9.894,0,0,1,5.55,3.73,13.01,13.01,0,0,1,2.257,7.844,22.332,22.332,0,0,1-1.72,7.9,23.247,23.247,0,0,0-1.706,6.088,9.462,9.462,0,0,0,1.217,5.558" transform="translate(-267.488 -65.803)" fill="#375a64"/>
        <path id="Trazado_4952" data-name="Trazado 4952" d="M599.61,224.251l-2.91-2.7a1.161,1.161,0,0,1-.062-1.641l8.321-8.981a1.161,1.161,0,0,1,1.641-.063l2.91,2.7a1.162,1.162,0,0,1,.063,1.641l-8.321,8.981a1.161,1.161,0,0,1-1.641.062" transform="translate(-272.449 -96.2)" fill="#1a2e35"/>
        <path id="Trazado_4953" data-name="Trazado 4953" d="M647.786,410.389s.021.163.047.487.061.811.109,1.439c.09,1.279.222,3.159.393,5.605.331,4.914.814,12.09,1.427,21.188l2.165,32.727q.31,4.724.64,9.737c.125,1.667.187,3.37.264,5.093a25.423,25.423,0,0,1-.021,2.6,26.016,26.016,0,0,1-.149,2.634q-.162,1.319-.325,2.655l-.569,2.65c-.251.873-.549,1.74-.824,2.618-.384.836-.7,1.711-1.155,2.527A15.176,15.176,0,0,1,641.5,509.9l-.017.005h-.029L559.7,509.89l-25.929-.015h-.284l.077-.274,2.354-8.4,1.162-4.146a29.18,29.18,0,0,0,.968-4.123,17.951,17.951,0,0,0-.719-8.211,10.174,10.174,0,0,0-1.952-3.527,5.766,5.766,0,0,0-3.332-1.958l-1.714-.267,1.711-.143,30.882-2.6-.1.036a10.54,10.54,0,0,1,6.652-2.045,13.328,13.328,0,0,1,6.443,2.05l-.136-.029,26.181-4.96-.117.2a11.231,11.231,0,0,1-.451-3.077,26.705,26.705,0,0,1,.083-2.99,48.157,48.157,0,0,1,.794-5.643l.014.094-5.8-10.812-.013-.024,0-.027c-.411-9.634-.555-17.229-.486-22.414.028-2.592.127-4.581.265-5.917a10.452,10.452,0,0,1,.223-1.5c.072-.334.117-.5.117-.5s-.023.173-.085.508a11.526,11.526,0,0,0-.19,1.5c-.117,1.333-.2,3.321-.2,5.912-.029,5.18.152,12.773.6,22.4l-.014-.051,5.834,10.793.023.043-.01.051a47.942,47.942,0,0,0-.773,5.608,26.434,26.434,0,0,0-.074,2.958,10.948,10.948,0,0,0,.443,2.99l.054.167-.172.033L575.851,476.6l-.068.014-.067-.042a12.99,12.99,0,0,0-6.253-1.976,10.165,10.165,0,0,0-6.413,1.981l-.044.031-.053,0-30.879,2.628,0-.411a6.134,6.134,0,0,1,3.612,2.092,10.578,10.578,0,0,1,2.039,3.67,18.363,18.363,0,0,1,.742,8.4,29.724,29.724,0,0,1-.978,4.179q-.578,2.064-1.161,4.146l-2.351,8.4-.207-.273,25.929.01,81.761.062-.046.005a12.46,12.46,0,0,0,4.743-2.925,17.727,17.727,0,0,0,3.3-4.422c.444-.8.759-1.66,1.139-2.482.272-.865.567-1.719.816-2.58l.565-2.617q.165-1.322.326-2.628a25.568,25.568,0,0,0,.151-2.612,25.055,25.055,0,0,0,.026-2.585c-.074-1.712-.132-3.4-.254-5.073q-.32-5.011-.621-9.739c-.8-12.6-1.5-23.627-2.074-32.736s-1.012-16.281-1.318-21.2c-.145-2.447-.257-4.329-.333-5.609-.034-.629-.06-1.109-.078-1.441s-.016-.488-.016-.488" transform="translate(-242.295 -187.498)" fill="#1a2e35"/>
        <path id="Trazado_4954" data-name="Trazado 4954" d="M682.422,326.536c.017.033-.53.336-1.489.924a34.826,34.826,0,0,0-3.868,2.771,45.459,45.459,0,0,0-10.016,11.986,99.471,99.471,0,0,0-6.687,14.224c-.715,1.835-1.3,3.342-1.735,4.451l-.484,1.206a.229.229,0,1,1-.083-.03c.109-.329.244-.737.408-1.235.363-1.068.9-2.61,1.607-4.5a89.389,89.389,0,0,1,6.6-14.337,43.559,43.559,0,0,1,10.2-12,29.783,29.783,0,0,1,3.975-2.677c.487-.288.891-.465,1.156-.6a1.789,1.789,0,0,1,.419-.178" transform="translate(-300.599 -149.186)" fill="#1a2e35"/>
        <g id="Grupo_8744" data-name="Grupo 8744" transform="translate(332.525 209.262)" opacity="0.3">
          <g id="Grupo_8743" data-name="Grupo 8743">
            <g id="Grupo_8742" data-name="Grupo 8742" clip-path="url(#clip-path-4)">
              <path id="Trazado_4955" data-name="Trazado 4955" d="M628.829,385.294a55.37,55.37,0,0,0-4.672,25c.314,8.5,1.335,17.016.5,25.477s-3.773,17.1-10.084,22.795a8.223,8.223,0,0,0-2.037,2.263,2.306,2.306,0,0,0,.391,2.8,3.332,3.332,0,0,0,2.625.273c6.049-1.051,12.162-1.8,18.21-2.851,1.3-.225,5.655-1.077,5.655-1.077a23.611,23.611,0,0,1-.368-4.971c.192-1.513.783-6.663.783-6.663a9.025,9.025,0,0,0-1.158-2.151,49.6,49.6,0,0,1-5.012-12.863,58.381,58.381,0,0,1-3.947-12.416c-2.655-10.953-2.577-21.743-.888-35.614" transform="translate(-612.247 -385.294)"/>
            </g>
          </g>
        </g>
        <g id="Grupo_8747" data-name="Grupo 8747" transform="translate(282.758 190.752)" opacity="0.3">
          <g id="Grupo_8746" data-name="Grupo 8746">
            <g id="Grupo_8745" data-name="Grupo 8745" clip-path="url(#clip-path-5)">
              <path id="Trazado_4956" data-name="Trazado 4956" d="M520.712,357.249l1.488,3.763a1.514,1.514,0,0,0,.723.95c.742.286,1.337-.63,1.69-1.343a9.662,9.662,0,0,1,7.415-5.212c2.54-.293,5.147.444,7.65-.077a34.211,34.211,0,0,0-6.9-3.435,11.491,11.491,0,0,0-7.579-.072,6.992,6.992,0,0,0-4.58,5.712" transform="translate(-520.617 -351.213)"/>
            </g>
          </g>
        </g>
        <g id="Grupo_8750" data-name="Grupo 8750" transform="translate(303.045 174.896)" opacity="0.3">
          <g id="Grupo_8749" data-name="Grupo 8749">
            <g id="Grupo_8748" data-name="Grupo 8748" clip-path="url(#clip-path-6)">
              <path id="Trazado_4957" data-name="Trazado 4957" d="M558.44,340.741a41.141,41.141,0,0,1,8.851.794,13.817,13.817,0,0,1,7.58,4.368c2.02,2.465,2.776,5.694,3.591,8.774.156.591.442,1.3,1.05,1.363a1.5,1.5,0,0,0,1-.4c5-3.671,8.3-9.3,10.109-15.23s2.224-12.191,2.325-18.39c-2.389,4.269-3.427,9.135-5,13.766s-3.906,9.3-8,11.971a4.012,4.012,0,0,0-.933-2.936,8.861,8.861,0,0,0-2.435-1.992,23.231,23.231,0,0,0-18.605-2.277" transform="translate(-557.969 -322.02)"/>
            </g>
          </g>
        </g>
        <path id="Trazado_4958" data-name="Trazado 4958" d="M482.737,531.357H472.5s-23.093-8.344-27.841-7.547c-4.276.718-19.933,11.119-23,13.178a1.945,1.945,0,0,0-.742.946,3.357,3.357,0,0,0,1.867,4.266l.324.134-.141.466a5.57,5.57,0,0,0-.235,1.869,2.257,2.257,0,0,0,4.2.974l-.591,1.049a2.571,2.571,0,0,0-.326,1.4l.053.952a2.568,2.568,0,0,0,4.457,1.595c1.986-2.184,6.275-6.559,9.177-7.043a68.113,68.113,0,0,1,9.478-.475,3.212,3.212,0,0,1,2.98,2.051c-1.722.123-13.72,6.381-17.966,8.62a4.545,4.545,0,0,0-2.47,3.417c-.155,1.329.517,2.722,3.146,2.108,5.641-1.318,15.794-5.985,15.794-5.985s5.237-1.5,8.63.9c4.772,3.367,6.959,4.6,11.057,3.243a34.729,34.729,0,0,0,7.12-3.308l8.073-.806s7.635-19.08-2.8-22" transform="translate(-192.213 -239.292)" fill="#ffc09d"/>
        <path id="Trazado_4959" data-name="Trazado 4959" d="M457.258,544.09c-.02.088-1.639-.431-4.338-.6a22.395,22.395,0,0,0-18.664,7.965c-1.745,2.068-2.49,3.595-2.567,3.549a5.288,5.288,0,0,1,.514-1.068,19.432,19.432,0,0,1,1.816-2.676,21.711,21.711,0,0,1,18.925-8.077,19.455,19.455,0,0,1,3.189.541,5.28,5.28,0,0,1,1.127.368" transform="translate(-197.228 -248.127)" fill="#ff9b6c"/>
        <path id="Trazado_4960" data-name="Trazado 4960" d="M451.816,533.656a18.929,18.929,0,0,0-4.516-.787,19.7,19.7,0,0,0-10.5,2.974A42.326,42.326,0,0,0,428.334,543l-2.32,2.465a6.855,6.855,0,0,1-.885.875,6.758,6.758,0,0,1,.759-.987c.51-.616,1.261-1.5,2.221-2.562a38.85,38.85,0,0,1,8.465-7.324,19.22,19.22,0,0,1,10.74-2.909,12.852,12.852,0,0,1,3.352.614,7.75,7.75,0,0,1,.865.332c.194.085.292.135.287.149" transform="translate(-194.231 -243.301)" fill="#ff9b6c"/>
        <path id="Trazado_4961" data-name="Trazado 4961" d="M245.151,534.608,217.42,464.992a9.1,9.1,0,0,1,8.419-12.55h86.4a9.1,9.1,0,0,1,8.617,6.176l23.823,70.218,27.82.134c2.26.011,4.086,3.316,4.086,5.577l-30.623-.353Z" transform="translate(-99.019 -206.711)" fill="#1c3247"/>
        <path id="Trazado_4962" data-name="Trazado 4962" d="M333.134,528.653a5.612,5.612,0,1,1-5.612-5.612,5.612,5.612,0,0,1,5.612,5.612" transform="translate(-147.073 -238.966)" fill="#f5f5f5"/>
        <path id="Trazado_4963" data-name="Trazado 4963" d="M518.387,602.779c0,.12-114.885.218-256.57.218-141.733,0-256.593-.1-256.593-.218s114.86-.218,256.593-.218c141.685,0,256.57.1,256.57.218" transform="translate(-2.387 -275.297)" fill="#1c3247"/>
        <path id="Trazado_4964" data-name="Trazado 4964" d="M331.951,58.178c-8.173-4.739-12.547-15.763-12.873-24.784s3.431-18.435,10.83-23.607c7.794-5.448,18.893-5.35,26.9-.222s12.7,14.807,12.337,24.309a32.233,32.233,0,0,1-13.2,24.21" transform="translate(-145.77 -2.608)" fill="#e1e1e1"/>
        <path id="Trazado_4965" data-name="Trazado 4965" d="M364.845,59.78a10.671,10.671,0,0,1-.152-2.064c-.042-1.476-.1-3.365-.16-5.627-.122-4.751-.308-11.311-.626-18.553S363.2,19.739,362.9,15c-.134-2.259-.247-4.146-.335-5.619a10.722,10.722,0,0,1-.03-2.069,10.8,10.8,0,0,1,.328,2.044c.163,1.32.361,3.235.578,5.6.435,4.737.91,11.293,1.231,18.547s.419,13.824.4,18.581c-.008,2.378-.037,4.3-.083,5.633a10.791,10.791,0,0,1-.147,2.065" transform="translate(-165.62 -3.338)" fill="#fff"/>
        <path id="Trazado_4966" data-name="Trazado 4966" d="M318.7,52.344c-.017.211-1.321.276-2.911.146s-2.866-.407-2.849-.618,1.32-.276,2.911-.146,2.866.407,2.849.618" transform="translate(-142.976 -23.602)" fill="#e1e1e1"/>
        <path id="Trazado_4967" data-name="Trazado 4967" d="M320.4,36.21c-.086.193-1.21-.118-2.511-.7s-2.287-1.2-2.2-1.4,1.21.118,2.511.7,2.287,1.2,2.2,1.4" transform="translate(-144.229 -15.563)" fill="#e1e1e1"/>
        <path id="Trazado_4968" data-name="Trazado 4968" d="M328.092,23.685c-.11.176-1.374-.42-2.687-1.51s-2.139-2.218-1.986-2.358,1.2.716,2.475,1.768,2.315,1.918,2.2,2.1" transform="translate(-147.754 -9.046)" fill="#e1e1e1"/>
        <path id="Trazado_4969" data-name="Trazado 4969" d="M338.015,12.694c-.193.085-.8-.861-1.353-2.114s-.846-2.339-.652-2.424.8.861,1.353,2.114.846,2.339.652,2.424" transform="translate(-153.488 -3.724)" fill="#e1e1e1"/>
        <path id="Trazado_4970" data-name="Trazado 4970" d="M350.454,4.947c-.188.089-.841-.92-1.274-2.316s-.47-2.6-.266-2.63.577,1.06,1,2.4.738,2.454.542,2.544" transform="translate(-159.356 0)" fill="#e1e1e1"/>
        <path id="Trazado_4971" data-name="Trazado 4971" d="M370.9.757c.2.071.078.931-.272,1.922s-.8,1.737-.994,1.667-.078-.93.272-1.922.8-1.737.994-1.667" transform="translate(-168.832 -0.344)" fill="#e1e1e1"/>
        <path id="Trazado_4972" data-name="Trazado 4972" d="M384.6,7.163c.143.155-.378.872-1.165,1.6s-1.542,1.193-1.686,1.037.378-.871,1.166-1.6,1.541-1.193,1.685-1.038" transform="translate(-174.403 -3.259)" fill="#e1e1e1"/>
        <path id="Trazado_4973" data-name="Trazado 4973" d="M397.442,15.663c.119.175-.518.814-1.421,1.426s-1.732.966-1.85.791.518-.813,1.421-1.425,1.732-.966,1.85-.791" transform="translate(-180.081 -7.136)" fill="#e1e1e1"/>
        <path id="Trazado_4974" data-name="Trazado 4974" d="M405.542,28.348c.083.194-.92.809-2.24,1.372s-2.458.861-2.541.667.92-.809,2.24-1.372,2.457-.861,2.54-.667" transform="translate(-183.097 -12.924)" fill="#e1e1e1"/>
        <path id="Trazado_4975" data-name="Trazado 4975" d="M409.34,42.084c.026.211-.994.509-2.278.669s-2.347.118-2.373-.092.994-.509,2.279-.668,2.346-.118,2.372.091" transform="translate(-184.893 -19.141)" fill="#e1e1e1"/>
        <path id="Trazado_4976" data-name="Trazado 4976" d="M411.34,57.571c-.084.194-1.172-.091-2.428-.637s-2.207-1.147-2.122-1.341,1.171.092,2.428.638,2.206,1.147,2.122,1.34" transform="translate(-185.851 -25.371)" fill="#e1e1e1"/>
        <path id="Trazado_4977" data-name="Trazado 4977" d="M409.246,71.136c-.067.193-1.441-.134-2.877-1.078s-2.292-2.064-2.142-2.2,1.2.679,2.561,1.563,2.537,1.514,2.459,1.718" transform="translate(-184.674 -30.993)" fill="#e1e1e1"/>
        <path id="Trazado_4978" data-name="Trazado 4978" d="M402.721,83.856c-.127.164-1.22-.478-2.27-1.613s-1.614-2.269-1.441-2.383.993.78,2,1.862,1.843,1.964,1.709,2.134" transform="translate(-182.285 -36.482)" fill="#e1e1e1"/>
        <path id="Trazado_4979" data-name="Trazado 4979" d="M328.943,88.756c.1.187-1.051.979-2.566,1.767s-2.822,1.276-2.92,1.088,1.051-.979,2.566-1.767,2.822-1.276,2.919-1.088" transform="translate(-147.778 -40.532)" fill="#e1e1e1"/>
        <path id="Trazado_4980" data-name="Trazado 4980" d="M323.225,76.7c.087.193-.834.8-2.057,1.353s-2.287.848-2.374.656.834-.8,2.058-1.353,2.286-.848,2.373-.656" transform="translate(-145.647 -35.014)" fill="#e1e1e1"/>
        <path id="Trazado_4981" data-name="Trazado 4981" d="M317.75,65.946c.03.21-1.1.544-2.532.746s-2.611.2-2.641-.013,1.1-.543,2.533-.746,2.61-.2,2.64.012" transform="translate(-142.809 -30.056)" fill="#e1e1e1"/>
        <path id="Trazado_4982" data-name="Trazado 4982" d="M333.678,60.121c.063.2-1.043.714-2.518.877s-2.669-.087-2.652-.293,1.168-.306,2.565-.468,2.543-.324,2.6-.116" transform="translate(-150.088 -27.424)" fill="#e1e1e1"/>
        <path id="Trazado_4983" data-name="Trazado 4983" d="M347.79,46.936c.062.2-.818.643-2.005.758s-2.137-.146-2.114-.352.936-.3,2.039-.41,2.018-.2,2.08,0" transform="translate(-157.015 -21.388)" fill="#e1e1e1"/>
        <path id="Trazado_4984" data-name="Trazado 4984" d="M350.41,35.254c-.069.2-1.022.052-2.129-.33s-1.947-.855-1.878-1.055,1.022-.052,2.128.331,1.947.854,1.878,1.054" transform="translate(-158.262 -15.433)" fill="#e1e1e1"/>
        <path id="Trazado_4985" data-name="Trazado 4985" d="M357.207,23.518c-.147.147-.8-.285-1.268-1.1s-.515-1.594-.315-1.647.559.545.978,1.264.76,1.331.605,1.479" transform="translate(-162.425 -9.49)" fill="#e1e1e1"/>
        <path id="Trazado_4986" data-name="Trazado 4986" d="M349.807,69.38c.05.206-.775.584-1.843.845a7.017,7.017,0,0,1-1.549.228l-.151-.447c.276-.049.455-.038.491.043s-.077.221-.3.391l-.151-.447a7.061,7.061,0,0,1,1.479-.512c1.068-.261,1.975-.306,2.025-.1" transform="translate(-158.2 -31.639)" fill="#e1e1e1"/>
        <path id="Trazado_4987" data-name="Trazado 4987" d="M351.321,88.129c.077.2-.975.795-2.35,1.335s-2.553.819-2.63.622.975-.794,2.35-1.335,2.552-.818,2.63-.622" transform="translate(-158.233 -40.235)" fill="#e1e1e1"/>
        <path id="Trazado_4988" data-name="Trazado 4988" d="M337.721,79.79c.068.2-.634.62-1.567.938s-1.746.413-1.814.212.633-.62,1.566-.937,1.747-.413,1.815-.213" transform="translate(-152.75 -36.406)" fill="#e1e1e1"/>
        <path id="Trazado_4989" data-name="Trazado 4989" d="M337.475,40.279c-.048.2-1.27.082-2.682-.42s-2.438-1.174-2.348-1.362,1.232.156,2.6.64,2.477.934,2.426,1.142" transform="translate(-151.884 -17.564)" fill="#e1e1e1"/>
        <path id="Trazado_4990" data-name="Trazado 4990" d="M374.925,37.651c.117.177-.571.836-1.536,1.472s-1.842,1.009-1.958.833.571-.835,1.536-1.472,1.842-1.009,1.958-.833" transform="translate(-169.692 -17.182)" fill="#e1e1e1"/>
        <path id="Trazado_4991" data-name="Trazado 4991" d="M376.992,56.324c.043.207-.68.532-1.615.726s-1.727.184-1.771-.023.68-.532,1.615-.726,1.727-.184,1.77.023" transform="translate(-170.692 -25.659)" fill="#e1e1e1"/>
        <path id="Trazado_4992" data-name="Trazado 4992" d="M378.481,75.836c-.089.192-1.13-.1-2.325-.654s-2.092-1.157-2-1.35,1.13.1,2.325.654,2.092,1.158,2,1.35" transform="translate(-170.939 -33.705)" fill="#e1e1e1"/>
        <path id="Trazado_4993" data-name="Trazado 4993" d="M375.218,95.62c-.163.134-.84-.418-1.51-1.235s-1.081-1.586-.918-1.721.839.418,1.51,1.235,1.081,1.586.918,1.721" transform="translate(-170.303 -42.327)" fill="#e1e1e1"/>
        <path id="Trazado_4994" data-name="Trazado 4994" d="M374.1,23.818c.129.163-.317.726-1.083,1.109s-1.482.407-1.536.206.5-.541,1.193-.89,1.3-.594,1.426-.424" transform="translate(-169.717 -10.857)" fill="#e1e1e1"/>
        <path id="Trazado_4995" data-name="Trazado 4995" d="M390.462,42.715c.07.194-.821.685-2.039.852s-2.208-.056-2.194-.263.954-.333,2.088-.495,2.074-.3,2.144-.093" transform="translate(-176.46 -19.469)" fill="#e1e1e1"/>
        <path id="Trazado_4996" data-name="Trazado 4996" d="M386.772,25.751c.094.185-.79.816-2.048,1.216s-2.342.4-2.373.2.946-.543,2.14-.928,2.185-.679,2.281-.486" transform="translate(-174.687 -11.738)" fill="#e1e1e1"/>
        <path id="Trazado_4997" data-name="Trazado 4997" d="M392.453,68.085c0,.206-1.515.34-3.339.006s-3.194-.984-3.124-1.178,1.5.109,3.26.424,3.209.531,3.2.748" transform="translate(-176.349 -30.541)" fill="#e1e1e1"/>
        <path id="Trazado_4998" data-name="Trazado 4998" d="M387.961,90.468c-.127.164-1.241-.491-2.351-1.61s-1.765-2.232-1.6-2.359,1.065.74,2.142,1.818,1.942,1.981,1.809,2.15" transform="translate(-175.434 -39.514)" fill="#e1e1e1"/>
        <path id="Trazado_4999" data-name="Trazado 4999" d="M348.864,5.705a34.683,34.683,0,0,0-6.714,5.306A32.769,32.769,0,0,0,333.787,29.5a41.517,41.517,0,0,0,.5,11.326,86.483,86.483,0,0,0,2.121,9.09c.735,2.559,1.41,4.609,1.863,6.03a14.259,14.259,0,0,1,.645,2.231A12.8,12.8,0,0,1,338,56.043c-.54-1.393-1.3-3.421-2.1-5.974a76.64,76.64,0,0,1-2.3-9.124,40.622,40.622,0,0,1-.57-11.537,32.228,32.228,0,0,1,8.734-18.772,23.987,23.987,0,0,1,5.009-3.914,15.012,15.012,0,0,1,1.533-.8,1.786,1.786,0,0,1,.562-.219" transform="translate(-152.064 -2.605)" fill="#fff"/>
        <path id="Trazado_5000" data-name="Trazado 5000" d="M372.305,58.932c-.166-.083,1.721-2.989,3.442-8.225a46.565,46.565,0,0,0,2.058-21.151,39.828,39.828,0,0,0-3.261-11.278,26.619,26.619,0,0,0-5.562-7.745,20.248,20.248,0,0,0-5.449-3.444c-1.416-.59-2.265-.729-2.253-.794a1.836,1.836,0,0,1,.626.048,11.447,11.447,0,0,1,1.734.467,18.842,18.842,0,0,1,5.7,3.315,26.208,26.208,0,0,1,5.841,7.848,39.158,39.158,0,0,1,3.383,11.476,44.968,44.968,0,0,1-2.3,21.435c-.433,1.322-.99,2.456-1.4,3.477-.493.988-.9,1.847-1.274,2.527a14.441,14.441,0,0,1-1.276,2.044" transform="translate(-165.061 -2.871)" fill="#fff"/>
        <path id="Trazado_5001" data-name="Trazado 5001" d="M326.958,99.887h42.218l.259,8.449H326.958Z" transform="translate(-149.38 -45.636)" fill="#bcbbbb"/>
        <path id="Trazado_5002" data-name="Trazado 5002" d="M333.562,107.665l2.425,25.795h30.864l2.478-25.512Z" transform="translate(-152.397 -49.19)" fill="#bcbbbb"/>
        <path id="Trazado_5003" data-name="Trazado 5003" d="M369.444,115.309c0,.211-9.508.383-21.233.383s-21.234-.172-21.234-.383,9.505-.383,21.234-.383,21.233.172,21.233.383" transform="translate(-149.388 -52.507)" fill="#fff"/>
        <path id="Trazado_5004" data-name="Trazado 5004" d="M369.864,127.943a6.356,6.356,0,0,1-.9,1.612,23.323,23.323,0,0,1-3.274,3.867l-.194.186-.192-.2a60.818,60.818,0,0,0-8.274-7.243l.467-.02-3.668,3.219-4.336,3.776-.24.209-.24-.2-7.049-5.926.41-.045-3.647,4.45a10.453,10.453,0,0,1-1.432,1.567,10.368,10.368,0,0,1,1.178-1.766l3.446-4.607.176-.235.235.191,7.154,5.8-.48.007,4.321-3.794,3.68-3.207.226-.2.241.177a54,54,0,0,1,8.234,7.477l-.386-.016a42.886,42.886,0,0,0,4.549-5.077" transform="translate(-154.099 -57.284)" fill="#fff"/>
      </g>
    </g>
  </g>
</svg>
