<?xml version="1.0" encoding="utf-8"?>
<!-- Generator: Adobe Illustrator 24.0.0, SVG Export Plug-In . SVG Version: 6.00 Build 0)  -->
<svg version="1.1" id="Capa_1" xmlns="http://www.w3.org/2000/svg" xmlns:xlink="http://www.w3.org/1999/xlink" x="0px" y="0px"
	 viewBox="0 0 398 252" style="enable-background:new 0 0 398 252;" xml:space="preserve">
<style type="text/css">
	.st0{fill:#E1E1E1;}
	.st1{fill:#ECECEC;}
	.st2{fill:#F5F5F5;}
	.st3{fill:#FAFAFA;}
	.st4{fill:#FFFFFF;}
	.st5{fill:#1C3247;}
	.st6{fill:#1A2E35;}
	.st7{fill:#FF4F5B;}
	.st8{fill:#FC7E00;}
	.st9{opacity:0.3;}
	.st10{fill:#FE9900;}
	.st11{fill:#FFBF9D;}
	.st12{fill:#FF9A6C;}
	.st13{fill:#375A64;}
	.st14{fill:#BCBBBB;}
</style>
<g>
	<rect x="54.8" y="72.2" class="st0" width="147.8" height="8.8"/>
</g>
<g>
	<rect x="75.3" y="79.1" class="st0" width="7.2" height="13.6"/>
</g>
<g>
	<rect x="167.6" y="79.1" class="st0" width="7.2" height="13.6"/>
</g>
<g>
	<g>
		<g>
			<g>
				<g>
					<g>
						<g>
							<path class="st1" d="M59.8,31.3c0,0-6.6,5.1-0.3,11.7c0.1,0.1,0.3,0.2,0.4,0.2l58-0.3c0,0,4.9-5.6,0.8-11.9L59.8,31.3z"/>
						</g>
					</g>
				</g>
			</g>
		</g>
		<g>
			<g>
				<g>
					<g>
						<g>
							<g>
								<path class="st0" d="M105.1,36.6c0,0.1-7.2,0.1-16.1,0.1c-8.9,0-16.1-0.1-16.1-0.1s7.2-0.1,16.1-0.1
									C97.8,36.4,105.1,36.5,105.1,36.6z"/>
							</g>
						</g>
					</g>
				</g>
			</g>
		</g>
		<g>
			<g>
				<g>
					<g>
						<g>
							<g>
								<path class="st0" d="M96,38.7c0,0.1-3.4,0.1-7.6,0.1c-4.2,0-7.6-0.1-7.6-0.1c0-0.1,3.4-0.1,7.6-0.1
									C92.7,38.5,96,38.6,96,38.7z"/>
							</g>
						</g>
					</g>
				</g>
			</g>
		</g>
		<g>
			<g>
				<g>
					<g>
						<g>
							<g>
								<path class="st0" d="M111,42.7c0,0,0.1-0.7,0.3-1.7c0.2-1.1,0.3-2.6,0.3-4.2c0-1.7-0.2-3.2-0.4-4.2
									c-0.2-1.1-0.4-1.7-0.3-1.7c0,0,0.1,0.2,0.2,0.4c0.1,0.3,0.2,0.7,0.3,1.3c0.2,1.1,0.5,2.6,0.5,4.3c0,1.7-0.2,3.2-0.4,4.3
									c-0.1,0.5-0.2,1-0.3,1.3C111.1,42.5,111,42.7,111,42.7z"/>
							</g>
						</g>
					</g>
				</g>
			</g>
		</g>
		<g>
			<g>
				<g>
					<g>
						<g>
							<g>
								<path class="st0" d="M115.3,30.8c0,0,0.1,0.1,0.3,0.4c0.1,0.1,0.2,0.3,0.3,0.5c0.1,0.2,0.2,0.4,0.3,0.7
									c0.2,0.5,0.4,1.2,0.6,1.9c0.1,0.7,0.2,1.6,0.3,2.4c0,0.9-0.1,1.7-0.2,2.4c-0.1,0.7-0.3,1.4-0.5,1.9
									c-0.1,0.3-0.2,0.5-0.3,0.7c-0.1,0.2-0.2,0.4-0.2,0.5c-0.1,0.3-0.2,0.4-0.3,0.4c0,0,0.3-0.6,0.6-1.7c0.2-0.5,0.3-1.2,0.5-1.9
									c0.1-0.7,0.2-1.5,0.2-2.4c0-0.9-0.1-1.7-0.2-2.4c-0.1-0.7-0.3-1.4-0.5-1.9C115.6,31.5,115.3,30.9,115.3,30.8z"/>
							</g>
						</g>
					</g>
				</g>
			</g>
		</g>
		<g>
			<g>
				<g>
					<g>
						<g>
							<g>
								<path class="st0" d="M68.9,42.8c0,0-0.1-0.1-0.3-0.4c-0.1-0.1-0.2-0.3-0.3-0.5c-0.1-0.2-0.2-0.4-0.3-0.7
									c-0.2-0.5-0.4-1.1-0.6-1.8c-0.1-0.7-0.2-1.5-0.2-2.3c0-0.8,0.1-1.6,0.3-2.3c0.2-0.7,0.4-1.3,0.6-1.8
									c0.1-0.3,0.2-0.5,0.3-0.7c0.1-0.2,0.2-0.4,0.3-0.5c0.2-0.3,0.3-0.4,0.3-0.4c0,0-0.3,0.6-0.7,1.6c-0.2,0.5-0.4,1.1-0.6,1.8
									c-0.1,0.7-0.2,1.5-0.3,2.3c0,0.8,0.1,1.6,0.2,2.3c0.1,0.7,0.3,1.3,0.5,1.8C68.6,42.2,69,42.7,68.9,42.8z"/>
							</g>
						</g>
					</g>
				</g>
			</g>
		</g>
		<g>
			<g>
				<g>
					<g>
						<g>
							<g>
								<path class="st0" d="M62.7,44.2c0,0-0.1-0.1-0.3-0.4c-0.1-0.1-0.2-0.3-0.3-0.5c-0.1-0.2-0.2-0.5-0.4-0.7
									c-0.2-0.6-0.5-1.3-0.7-2c-0.2-0.8-0.3-1.7-0.3-2.6c0-0.9,0.1-1.8,0.2-2.6c0.2-0.8,0.4-1.5,0.6-2.1c0.1-0.3,0.2-0.5,0.3-0.8
									c0.1-0.2,0.2-0.4,0.3-0.6c0.2-0.3,0.3-0.5,0.3-0.5c0,0-0.3,0.7-0.7,1.8c-0.2,0.6-0.4,1.3-0.5,2.1C61,36,60.9,36.8,61,37.8
									c0,0.9,0.1,1.8,0.3,2.6c0.2,0.8,0.4,1.5,0.6,2C62.3,43.5,62.7,44.1,62.7,44.2z"/>
							</g>
						</g>
					</g>
				</g>
			</g>
		</g>
	</g>
	<g>
		<g>
			<g>
				<g>
					<g>
						<g>
							<g>
								<path class="st1" d="M115.7,60.5c0,0.4,0,11.1,0,11.1H94.3V60.5H115.7z"/>
							</g>
						</g>
					</g>
				</g>
			</g>
			<g>
				<g>
					<g>
						<g>
							<g>
								<path class="st0" d="M46.4,66.2c0,0.1,0,0.2,0,0.3c0.2,3.4,3,6,6.4,6h63.9v-0.8h-15.2c-3.1,0-5.5-2.5-5.5-5.5v0
									c0-3.1,2.5-5.5,5.5-5.5h15.2v-1.2l-63.9,0.2C49.2,59.6,46.3,62.6,46.4,66.2z"/>
							</g>
						</g>
					</g>
				</g>
			</g>
			<g>
				<g>
					<g>
						<g>
							<g>
								<g>
									<path class="st0" d="M115.7,66.2c0,0.1-4.4,0.1-9.9,0.1c-5.4,0-9.9-0.1-9.9-0.1c0-0.1,4.4-0.1,9.9-0.1
										C111.3,66.1,115.7,66.1,115.7,66.2z"/>
								</g>
							</g>
						</g>
					</g>
				</g>
			</g>
			<g>
				<g>
					<g>
						<g>
							<g>
								<g>
									<path class="st0" d="M115.4,68.7c0,0.1-4.2,0.1-9.3,0.1c-5.2,0-9.3-0.1-9.3-0.1c0-0.1,4.2-0.1,9.3-0.1
										C111.3,68.6,115.4,68.6,115.4,68.7z"/>
								</g>
							</g>
						</g>
					</g>
				</g>
			</g>
			<g>
				<g>
					<g>
						<g>
							<g>
								<g>
									<path class="st0" d="M115.7,71c0,0.1-3.8,0.1-8.4,0.1c-4.6,0-8.4-0.1-8.4-0.1c0-0.1,3.8-0.1,8.4-0.1
										C112,70.9,115.7,70.9,115.7,71z"/>
								</g>
							</g>
						</g>
					</g>
				</g>
			</g>
			<g>
				<g>
					<g>
						<g>
							<g>
								<g>
									<path class="st0" d="M115.7,64c0,0.1-4.3,0.1-9.7,0.1c-5.3,0-9.7-0.1-9.7-0.1c0-0.1,4.3-0.1,9.7-0.1
										C111.4,63.8,115.7,63.9,115.7,64z"/>
								</g>
							</g>
						</g>
					</g>
				</g>
			</g>
			<g>
				<g>
					<g>
						<g>
							<g>
								<g>
									<path class="st0" d="M115.4,61.7c0,0.1-3.8,0.1-8.6,0.1c-4.7,0-8.6-0.1-8.6-0.1c0-0.1,3.8-0.1,8.6-0.1
										C111.6,61.6,115.4,61.6,115.4,61.7z"/>
								</g>
							</g>
						</g>
					</g>
				</g>
			</g>
		</g>
		<g>
			<g>
				<g>
					<g>
						<g>
							<g>
								<path class="st2" d="M54.2,59.7c0,0-0.6,0.5-1.4,1.6c-0.7,1.1-1.5,2.8-1.5,4.8c0,2,0.8,3.7,1.6,4.7c0.8,1.1,1.4,1.5,1.4,1.6
									c0,0-0.2-0.1-0.5-0.3c-0.3-0.2-0.7-0.6-1.1-1.1c-0.8-1-1.6-2.8-1.7-4.8c0-2.1,0.8-3.8,1.6-4.9c0.4-0.5,0.8-0.9,1-1.2
									C54,59.8,54.2,59.7,54.2,59.7z"/>
							</g>
						</g>
					</g>
				</g>
			</g>
		</g>
		<g>
			<g>
				<g>
					<g>
						<g>
							<g>
								<path class="st2" d="M52,59.5c0,0-0.6,0.5-1.4,1.6c-0.7,1.1-1.5,2.8-1.5,4.8c0,2,0.8,3.7,1.6,4.7c0.8,1.1,1.4,1.5,1.4,1.6
									c0,0-0.2-0.1-0.5-0.3c-0.3-0.2-0.7-0.6-1.1-1.1c-0.8-1-1.6-2.8-1.7-4.8c0-2.1,0.8-3.8,1.6-4.9c0.4-0.5,0.8-0.9,1-1.2
									C51.8,59.6,52,59.5,52,59.5z"/>
							</g>
						</g>
					</g>
				</g>
			</g>
		</g>
		<g>
			<g>
				<g>
					<g>
						<g>
							<g>
								<path class="st2" d="M95.4,59.7c0,0-0.6,0.5-1.4,1.6c-0.7,1.1-1.5,2.8-1.5,4.8c0,2,0.8,3.7,1.6,4.7c0.8,1.1,1.4,1.5,1.4,1.6
									c0,0-0.2-0.1-0.5-0.3c-0.3-0.2-0.7-0.6-1.1-1.1c-0.8-1-1.6-2.8-1.7-4.8c0-2.1,0.8-3.8,1.6-4.9c0.4-0.5,0.8-0.9,1-1.2
									C95.3,59.8,95.4,59.7,95.4,59.7z"/>
							</g>
						</g>
					</g>
				</g>
			</g>
		</g>
		<g>
			<g>
				<g>
					<g>
						<g>
							<g>
								<path class="st2" d="M93.3,59.5c0,0-0.6,0.5-1.4,1.6c-0.7,1.1-1.5,2.8-1.5,4.8c0,2,0.8,3.7,1.6,4.7c0.8,1.1,1.4,1.5,1.4,1.6
									c0,0-0.2-0.1-0.5-0.3c-0.3-0.2-0.7-0.6-1.1-1.1c-0.8-1-1.6-2.8-1.7-4.8c0-2.1,0.8-3.8,1.6-4.9c0.4-0.5,0.8-0.9,1-1.2
									C93.1,59.6,93.3,59.5,93.3,59.5z"/>
							</g>
						</g>
					</g>
				</g>
			</g>
		</g>
		<g>
			<g>
				<g>
					<g>
						<g>
							<path class="st2" d="M61.5,67.7c0-1.5,0-3-0.1-4.5c0-0.4,0-0.8-0.2-1.2c-0.1-0.4-0.5-0.7-0.9-0.7c-0.6-0.2-1.4,0.2-1.8,0.9
								c-0.4,0.7-0.4,1.4-0.4,2.2c0,1.2,0,2.4,0.2,3.6c0.1,0.6,0.1,1.1,0.4,1.6c0.3,0.5,0.8,0.9,1.4,0.8c0.6-0.1,1-0.5,1.2-1
								C61.5,68.9,61.5,68.3,61.5,67.7z"/>
						</g>
					</g>
				</g>
			</g>
		</g>
		<g>
			<g>
				<g>
					<g>
						<g>
							<g>
								<path class="st2" d="M86.3,66.4c0,0.1-4.6,0.1-10.3,0.1c-5.7,0-10.3-0.1-10.3-0.1c0-0.1,4.6-0.1,10.3-0.1
									C81.7,66.3,86.3,66.4,86.3,66.4z"/>
							</g>
						</g>
					</g>
				</g>
			</g>
		</g>
	</g>
	<g>
		<g>
			<g>
				<g>
					<g>
						<g>
							<g>
								<g>
									<polygon class="st2" points="57.2,59.3 57.1,48.8 62.8,48.8 63,59.3 									"/>
								</g>
							</g>
						</g>
					</g>
				</g>
				<g>
					<g>
						<g>
							<g>
								<g>
									<g>
										<path class="st0" d="M62.4,50.6c0,0.1-1.2,0.1-2.7,0.1c-1.5,0-2.7-0.1-2.7-0.1s1.2-0.1,2.7-0.1
											C61.2,50.5,62.4,50.6,62.4,50.6z"/>
									</g>
								</g>
							</g>
						</g>
					</g>
				</g>
				<g>
					<g>
						<g>
							<g>
								<g>
									<g>
										<path class="st0" d="M62.4,52.3c0,0.1-1.2,0.1-2.7,0.1c-1.5,0-2.7-0.1-2.7-0.1c0-0.1,1.2-0.1,2.7-0.1
											C61.2,52.2,62.4,52.2,62.4,52.3z"/>
									</g>
								</g>
							</g>
						</g>
					</g>
				</g>
				<g>
					<g>
						<g>
							<g>
								<g>
									<g>
										<path class="st0" d="M62.4,53.9c0,0.1-1.2,0.1-2.7,0.1c-1.5,0-2.7-0.1-2.7-0.1s1.2-0.1,2.7-0.1
											C61.2,53.8,62.4,53.8,62.4,53.9z"/>
									</g>
								</g>
							</g>
						</g>
					</g>
				</g>
				<g>
					<g>
						<g>
							<g>
								<g>
									<g>
										<path class="st0" d="M62.4,55.5c0,0.1-1.2,0.1-2.7,0.1c-1.5,0-2.7-0.1-2.7-0.1c0-0.1,1.2-0.1,2.7-0.1
											C61.2,55.4,62.4,55.5,62.4,55.5z"/>
									</g>
								</g>
							</g>
						</g>
					</g>
				</g>
				<g>
					<g>
						<g>
							<g>
								<g>
									<g>
										<path class="st0" d="M62.4,57.1c0,0.1-1.2,0.1-2.7,0.1c-1.5,0-2.7-0.1-2.7-0.1c0-0.1,1.2-0.1,2.7-0.1
											C61.2,57,62.4,57.1,62.4,57.1z"/>
									</g>
								</g>
							</g>
						</g>
					</g>
				</g>
			</g>
			<g>
				<g>
					<g>
						<g>
							<g>
								<path class="st1" d="M56.7,48.5h63.4c0.8,3.5,0.7,7.3,0,11.4H57v-0.8h3.9c1,0,1.8-0.8,1.8-1.8V51c0-1-0.8-1.8-1.8-1.8h-4.1
									V48.5z"/>
							</g>
						</g>
					</g>
				</g>
			</g>
			<g>
				<g>
					<g>
						<g>
							<g>
								<path class="st3" d="M71.7,54.2h1.1c0,0,0.1,0,0.1,0c0.1,0,0.1,0.1,0.1,0.2c0,0,0,0,0,0.1c0,0.1,0,0.2-0.1,0.3
									c-0.1,0.5-0.4,0.9-0.7,1.2c-0.3,0.3-0.6,0.5-0.9,0.5c0,0-0.1,0-0.1,0c-0.3,0-0.5-0.2-0.7-0.5c-0.2-0.3-0.3-0.8-0.3-1.3
									c0-0.3,0-0.6,0.1-0.9c0.1-0.5,0.3-0.9,0.6-1.2c0.3-0.3,0.6-0.5,1-0.5c0.1,0,0.3,0,0.4,0.1c0.3,0.1,0.5,0.4,0.6,0.8
									c0,0,0,0.1,0,0.1c0,0,0,0.1,0,0.1c0,0.1-0.1,0.1-0.2,0.1c0,0,0,0-0.1,0c-0.1,0-0.1-0.1-0.1-0.1l0,0c0-0.1-0.1-0.2-0.1-0.3
									c-0.1-0.2-0.3-0.3-0.5-0.3c-0.1,0-0.2,0-0.3,0.1c-0.2,0.2-0.4,0.4-0.6,0.8c-0.2,0.4-0.3,0.8-0.3,1.2c0,0.4,0.1,0.7,0.2,0.9
									c0.1,0.3,0.3,0.4,0.6,0.4c0.2,0,0.3-0.1,0.5-0.3c0.2-0.3,0.4-0.6,0.5-1c-0.5,0-0.7,0-0.8,0c-0.2,0-0.2-0.1-0.3-0.3
									c0,0,0-0.1,0-0.1C71.5,54.2,71.6,54.2,71.7,54.2z"/>
							</g>
						</g>
					</g>
				</g>
				<g>
					<g>
						<g>
							<g>
								<path class="st3" d="M75.3,52.1C75.4,52.1,75.4,52.2,75.3,52.1c0.1,0.2,0.3,1.5,0.8,4c0,0,0,0,0,0.1c0,0,0,0.1,0,0.1
									c0,0.1-0.1,0.1-0.2,0.1c0,0,0,0,0,0c-0.1,0-0.1-0.1-0.2-0.2L75.4,55h-1.3l-0.6,1.3c0,0,0,0,0,0c-0.1,0.1-0.1,0.1-0.2,0.1
									c0,0-0.1,0-0.1,0c-0.1,0-0.1-0.1-0.1-0.2c0,0,0,0,0-0.1c0-0.1,0.1-0.2,0.2-0.4c0.9-2,1.5-3.2,1.6-3.5C75,52.1,75,52,75.1,52
									C75.2,52,75.3,52,75.3,52.1z M75.1,53l-0.7,1.5h1L75.1,53z"/>
							</g>
						</g>
					</g>
				</g>
				<g>
					<g>
						<g>
							<g>
								<path class="st3" d="M78.9,56.4H77c0,0-0.1,0-0.1,0c-0.1,0-0.1-0.1-0.1-0.2v0c0-0.1,0.2-1.4,0.5-3.9c0,0,0-0.1,0-0.1
									c0-0.1,0.1-0.1,0.2-0.1c0,0,0.1,0,0.1,0c0.1,0,0.1,0.1,0.1,0.2c0,0.2-0.1,0.5-0.1,1.1c-0.2,1.7-0.3,2.6-0.3,2.6h1.6
									c0,0,0.1,0,0.1,0c0.1,0,0.1,0.1,0.1,0.2c0,0,0,0,0,0.1C79.1,56.3,79,56.4,78.9,56.4z"/>
							</g>
						</g>
					</g>
				</g>
				<g>
					<g>
						<g>
							<g>
								<path class="st3" d="M81.5,52.1C81.5,52.1,81.5,52.2,81.5,52.1c0.1,0.2,0.3,1.5,0.8,4c0,0,0,0,0,0.1c0,0,0,0.1,0,0.1
									c0,0.1-0.1,0.1-0.2,0.1c0,0,0,0,0,0c-0.1,0-0.1-0.1-0.2-0.2L81.6,55h-1.3l-0.6,1.3c0,0,0,0,0,0c-0.1,0.1-0.1,0.1-0.2,0.1
									c0,0-0.1,0-0.1,0c-0.1,0-0.1-0.1-0.1-0.2c0,0,0,0,0-0.1c0-0.1,0.1-0.2,0.2-0.4c0.9-2,1.5-3.2,1.6-3.5
									c0.1-0.1,0.1-0.2,0.2-0.2C81.4,52,81.4,52,81.5,52.1z M81.2,53l-0.7,1.5h1L81.2,53z"/>
							</g>
						</g>
					</g>
				</g>
				<g>
					<g>
						<g>
							<g>
								<path class="st3" d="M84.5,54.4c0.1,0.4,0.3,0.7,0.3,1c0.2,0.5,0.3,0.8,0.3,0.9c0,0,0,0.1,0,0.1c0,0.1-0.1,0.1-0.2,0.1
									c-0.1,0-0.1-0.1-0.2-0.2c0,0,0-0.1,0-0.1c-0.1-0.2-0.3-0.7-0.5-1.3l-1.1,1.5c-0.1,0.1-0.1,0.1-0.2,0.1c0,0-0.1,0-0.1,0
									c-0.1,0-0.1-0.1-0.1-0.2c0,0,0,0,0,0c0,0,0-0.1,0.1-0.2c0.4-0.5,0.8-1,1.2-1.7c0-0.1-0.1-0.2-0.1-0.4
									c-0.4-1.1-0.6-1.7-0.6-1.7c0,0,0-0.1,0-0.1c0-0.1,0.1-0.1,0.2-0.1c0.1,0,0.2,0,0.2,0.1l0.6,1.7l1.3-1.7
									c0.1-0.1,0.1-0.1,0.2-0.1c0,0,0.1,0,0.1,0c0.1,0,0.1,0.1,0.1,0.2c0,0,0,0.1,0,0.1L84.5,54.4z"/>
							</g>
						</g>
					</g>
				</g>
				<g>
					<g>
						<g>
							<g>
								<path class="st3" d="M89.3,52c0,0,0.1,0,0.1,0c0.1,0,0.1,0.1,0.1,0.2c-0.3,2.5-0.5,3.8-0.5,4c-0.1,0.4-0.2,0.8-0.4,1
									c-0.3,0.4-0.7,0.6-1.3,0.6c-0.2,0-0.4-0.1-0.6-0.2c-0.3-0.2-0.6-0.3-0.7-0.6c0,0,0-0.1,0-0.1c0,0,0-0.1,0-0.1
									c0-0.1,0.1-0.1,0.2-0.1c0.1,0,0.1,0,0.2,0.1c0.3,0.4,0.6,0.6,1,0.6c0.3,0,0.5-0.1,0.8-0.4c0.2-0.3,0.4-0.7,0.4-1.2
									c-0.1,0.1-0.2,0.2-0.3,0.3c-0.2,0.1-0.4,0.2-0.7,0.2c0,0-0.1,0-0.1,0c-0.3,0-0.5-0.2-0.7-0.5c-0.2-0.3-0.3-0.8-0.3-1.3
									c0-0.2,0-0.5,0-0.7c0-0.4,0.1-0.9,0.3-1.6c0,0,0,0,0-0.1c0-0.1,0.1-0.2,0.2-0.2c0,0,0.1,0,0.1,0c0.1,0,0.1,0.1,0.1,0.2
									c0,0.1,0,0.4-0.1,0.9c-0.1,0.7-0.2,1.1-0.2,1.3c0,0.4,0.1,0.8,0.2,1c0.1,0.3,0.3,0.5,0.6,0.5c0,0,0.1,0,0.1,0
									c0.2,0,0.4-0.2,0.6-0.5c0.2-0.3,0.4-0.7,0.5-1.1l0.3-2.2c0,0,0-0.1,0-0.1C89.1,52.1,89.2,52,89.3,52z"/>
							</g>
						</g>
					</g>
				</g>
			</g>
			<g>
				<g>
					<g>
						<g>
							<g>
								<g>
									<path class="st2" d="M117.8,60c-0.1,0-0.1-2.6-0.1-5.8c0-3.2,0.1-5.8,0.1-5.8c0.1,0,0.1,2.6,0.1,5.8
										C117.9,57.4,117.9,60,117.8,60z"/>
								</g>
							</g>
						</g>
					</g>
				</g>
			</g>
			<g>
				<g>
					<g>
						<g>
							<g>
								<g>
									<path class="st0" d="M65.9,60c-0.1,0-0.1-2.6-0.1-5.8c0-3.2,0.1-5.8,0.1-5.8c0.1,0,0.1,2.6,0.1,5.8C66,57.4,66,60,65.9,60z
										"/>
								</g>
							</g>
						</g>
					</g>
				</g>
			</g>
			<g>
				<g>
					<g>
						<g>
							<g>
								<g>
									<path class="st2" d="M118.9,60c-0.1,0-0.1-2.6-0.1-5.8c0-3.2,0.1-5.8,0.1-5.8c0.1,0,0.1,2.6,0.1,5.8
										C119,57.4,119,60,118.9,60z"/>
								</g>
							</g>
						</g>
					</g>
				</g>
			</g>
			<g>
				<g>
					<g>
						<g>
							<g>
								<g>
									<path class="st0" d="M64.8,60c-0.1,0-0.1-2.6-0.1-5.8c0-3.2,0.1-5.8,0.1-5.8c0.1,0,0.1,2.6,0.1,5.8
										C65,57.4,64.9,60,64.8,60z"/>
								</g>
							</g>
						</g>
					</g>
				</g>
			</g>
		</g>
		<g>
			<g>
				<g>
					<g>
						<g>
							<g>
								<g>
									<g>
										<g>
											<g>
												<g>
													<path class="st0" d="M102.4,50.3L102.4,50.3c1.7,1.4,4.1,3.3,6.7,5.4l0.1,0l-0.1,0c-0.3,0.1-0.6,0.2-0.9,0.2
														c-2,0.5-4,1-5.7,1.5l0,0l0,0c-2.1-0.9-3.9-1.6-5.1-2.2c-0.6-0.3-1.1-0.5-1.5-0.6c-0.2-0.1-0.3-0.1-0.4-0.2
														c0,0-0.1,0-0.1,0c0,0,0,0,0,0c0,0,0,0,0,0c0,0,0.1,0,0.1,0c0.1,0,0.2,0.1,0.4,0.2c0.3,0.1,0.8,0.3,1.5,0.6
														c1.3,0.5,3,1.3,5.1,2.1l0,0c1.7-0.4,3.6-1,5.7-1.5c0.3-0.1,0.6-0.2,0.9-0.2l0,0.1C106.4,53.6,104.1,51.7,102.4,50.3
														L102.4,50.3L102.4,50.3"/>
												</g>
											</g>
										</g>
									</g>
								</g>
							</g>
						</g>
					</g>
				</g>
			</g>
			<g>
				<g>
					<g>
						<g>
							<g>
								<g>
									<g>
										<g>
											<g>
												<polygon class="st0" points="108.5,54.8 108.9,55.2 109.4,55.1 109.1,55.5 109.4,55.9 108.9,55.9 108.6,56.3 
													108.5,55.8 108,55.6 108.4,55.3 												"/>
											</g>
										</g>
									</g>
								</g>
							</g>
						</g>
					</g>
				</g>
			</g>
			<g>
				<g>
					<g>
						<g>
							<g>
								<g>
									<g>
										<g>
											<g>
												<polygon class="st0" points="102.1,56.9 102.3,57.2 102.6,57.1 102.5,57.4 102.7,57.6 102.4,57.6 102.2,57.9 
													102.1,57.6 101.8,57.4 102.1,57.3 												"/>
											</g>
										</g>
									</g>
								</g>
							</g>
						</g>
					</g>
				</g>
			</g>
			<g>
				<g>
					<g>
						<g>
							<g>
								<g>
									<g>
										<g>
											<g>
												<polygon class="st0" points="95,54 95.4,54.1 95.6,53.7 95.7,54.1 96.1,54.3 95.7,54.5 95.7,54.9 95.4,54.6 95,54.7 
													95.2,54.4 												"/>
											</g>
										</g>
									</g>
								</g>
							</g>
						</g>
					</g>
				</g>
			</g>
			<g>
				<g>
					<g>
						<g>
							<g>
								<g>
									<g>
										<g>
											<g>
												<polygon class="st0" points="111.5,50.4 111.9,50.4 112.1,50.1 112.2,50.5 112.6,50.6 112.3,50.8 112.3,51.2 112,51 
													111.6,51.1 111.7,50.7 												"/>
											</g>
										</g>
									</g>
								</g>
							</g>
						</g>
					</g>
				</g>
			</g>
			<g>
				<g>
					<g>
						<g>
							<g>
								<g>
									<g>
										<g>
											<g>
												<polygon class="st0" points="102.1,50.1 102.3,50.1 102.5,49.9 102.6,50.2 102.8,50.2 102.6,50.4 102.6,50.6 
													102.4,50.5 102.1,50.5 102.2,50.3 												"/>
											</g>
										</g>
									</g>
								</g>
							</g>
						</g>
					</g>
				</g>
			</g>
			<g>
				<g>
					<g>
						<g>
							<g>
								<g>
									<path class="st0" d="M112.1,50.6c0,0-2.2,0-4.8-0.2c-2.7-0.1-4.8-0.2-4.8-0.3c0,0,2.2,0,4.8,0.2
										C109.9,50.5,112.1,50.6,112.1,50.6z"/>
								</g>
							</g>
						</g>
					</g>
				</g>
			</g>
		</g>
	</g>
	<g>
		<g>
			<g>
				<g>
					<g>
						<g>
							<path class="st0" d="M114.5,48.4H50.2c-0.8-1.9-1-3.7,0-5.4h64.3C115.3,45,115.3,46.8,114.5,48.4z"/>
						</g>
					</g>
				</g>
			</g>
		</g>
		<g>
			<g>
				<g>
					<g>
						<g>
							<rect x="63.5" y="44.6" class="st1" width="34.8" height="1.9"/>
						</g>
					</g>
				</g>
			</g>
		</g>
		<g>
			<g>
				<g>
					<g>
						<g>
							<g>
								<path class="st0" d="M52.6,48.4c0,0-0.2-0.2-0.5-0.6c-0.3-0.4-0.5-1.1-0.6-1.9c-0.1-0.8,0.1-1.5,0.2-2
									c0.2-0.5,0.4-0.7,0.4-0.7c0,0-0.1,0.3-0.2,0.8c-0.1,0.5-0.2,1.2-0.2,1.9c0.1,0.7,0.3,1.4,0.5,1.8
									C52.5,48.2,52.7,48.4,52.6,48.4z"/>
							</g>
						</g>
					</g>
				</g>
			</g>
		</g>
		<g>
			<g>
				<g>
					<g>
						<g>
							<g>
								<path class="st0" d="M54,48.4c0,0-0.2-0.2-0.5-0.6c-0.3-0.4-0.5-1.1-0.6-1.9c-0.1-0.8,0.1-1.5,0.2-2
									c0.2-0.5,0.4-0.7,0.4-0.7c0,0-0.1,0.3-0.2,0.8c-0.1,0.5-0.2,1.2-0.2,1.9c0.1,0.7,0.3,1.4,0.5,1.8
									C53.9,48.2,54.1,48.4,54,48.4z"/>
							</g>
						</g>
					</g>
				</g>
			</g>
		</g>
		<g>
			<g>
				<g>
					<g>
						<g>
							<g>
								<path class="st2" d="M111.9,48.3c-0.1,0,0.5-1.1,0.5-2.6c0-1.5-0.5-2.6-0.4-2.6c0,0,0.7,1.1,0.7,2.6
									C112.6,47.2,111.9,48.3,111.9,48.3z"/>
							</g>
						</g>
					</g>
				</g>
			</g>
		</g>
		<g>
			<g>
				<g>
					<g>
						<g>
							<g>
								<path class="st2" d="M110.7,48.3c-0.1,0,0.2-1.1,0.2-2.6c0-1.4-0.3-2.5-0.2-2.6c0.1,0,0.4,1.1,0.4,2.6
									C111.1,47.2,110.7,48.3,110.7,48.3z"/>
							</g>
						</g>
					</g>
				</g>
			</g>
		</g>
	</g>
</g>
<g>
	<g>
		<g>
			<g>
				<g>
					<g>
						<g>
							<g>
								<rect x="298.1" y="24.1" class="st0" width="70.4" height="73.4"/>
							</g>
						</g>
					</g>
				</g>
			</g>
		</g>
	</g>
	<g>
		<g>
			<g>
				<g>
					<g>
						<g>
							<g>
								<rect x="293.3" y="24.1" class="st3" width="70.4" height="73.4"/>
							</g>
						</g>
					</g>
				</g>
			</g>
		</g>
		<g>
			<g>
				<g>
					<g>
						<g>
							<g>
								<path class="st0" d="M363.7,97.4h-70.4V24h70.4V97.4z M293.4,97.4h70.3V24.1h-70.3V97.4z"/>
							</g>
						</g>
					</g>
				</g>
			</g>
		</g>
	</g>
	<g>
		<g>
			<g>
				<g>
					<g>
						<g>
							<g>
								<rect x="302.8" y="33.9" class="st4" width="51.4" height="53.6"/>
							</g>
						</g>
					</g>
				</g>
			</g>
		</g>
	</g>
	<g>
		<g>
			<g>
				<g>
					<g>
						<g>
							<g>
								<g>
									<path class="st0" d="M302.8,87.9c0,0-0.4,0.6-1.3,1.5c-0.8,0.9-2,2-3.3,3.3c-1.3,1.3-2.5,2.4-3.4,3.2
										c-0.9,0.8-1.4,1.3-1.5,1.2c0,0,0.4-0.6,1.3-1.5c0.8-0.9,2-2,3.3-3.3c1.3-1.3,2.5-2.4,3.4-3.2
										C302.2,88.3,302.8,87.9,302.8,87.9z"/>
								</g>
							</g>
						</g>
					</g>
				</g>
			</g>
		</g>
	</g>
	<g>
		<g>
			<g>
				<g>
					<g>
						<g>
							<g>
								<g>
									<path class="st0" d="M354.2,87.8c0,0,0.6,0.4,1.5,1.3c0.9,0.8,2,2,3.3,3.3c1.3,1.3,2.4,2.5,3.2,3.4
										c0.8,0.9,1.3,1.4,1.2,1.5c0,0-0.6-0.4-1.5-1.3c-0.9-0.8-2-2-3.3-3.3c-1.3-1.3-2.4-2.5-3.2-3.4
										C354.7,88.4,354.2,87.8,354.2,87.8z"/>
								</g>
							</g>
						</g>
					</g>
				</g>
			</g>
		</g>
	</g>
	<g>
		<g>
			<g>
				<g>
					<g>
						<g>
							<g>
								<g>
									<path class="st0" d="M354.1,34.1c0,0,0.4-0.6,1.3-1.5c0.8-0.9,2-2,3.3-3.3c1.3-1.3,2.5-2.4,3.4-3.2
										c0.9-0.8,1.4-1.3,1.5-1.2c0,0-0.4,0.6-1.3,1.5c-0.8,0.9-2,2-3.3,3.3c-1.3,1.3-2.5,2.4-3.4,3.2
										C354.7,33.6,354.1,34.1,354.1,34.1z"/>
								</g>
							</g>
						</g>
					</g>
				</g>
			</g>
		</g>
	</g>
	<g>
		<g>
			<g>
				<g>
					<g>
						<g>
							<g>
								<g>
									<path class="st0" d="M302.7,34.2c0,0-0.6-0.4-1.5-1.3c-0.9-0.8-2-2-3.3-3.3c-1.3-1.3-2.4-2.5-3.2-3.4
										c-0.8-0.9-1.3-1.4-1.2-1.5c0,0,0.6,0.4,1.5,1.3c0.9,0.8,2,2,3.3,3.3c1.3,1.3,2.4,2.5,3.2,3.4
										C302.2,33.6,302.7,34.2,302.7,34.2z"/>
								</g>
							</g>
						</g>
					</g>
				</g>
			</g>
		</g>
	</g>
	<g>
		<g>
			<g>
				<g>
					<g>
						<g>
							<g>
								<g>
									<path class="st0" d="M354.1,87.6c0,0,0-0.1,0-0.3c0-0.2,0-0.4,0-0.7c0-0.7,0-1.6,0-2.9c0-2.5,0-6.2-0.1-10.9
										c0-9.4-0.1-22.8-0.1-38.8l0.2,0.2c-15,0-32.6,0-51.3,0h0l0.2-0.2c0,19.7,0,38.1,0,53.6l-0.2-0.2c15.4,0,28.2,0.1,37.1,0.1
										c4.5,0,8,0,10.4,0.1c1.2,0,2.1,0,2.8,0c0.3,0,0.5,0,0.7,0C354,87.5,354.1,87.6,354.1,87.6c0,0-0.1,0-0.2,0
										c-0.2,0-0.4,0-0.7,0c-0.6,0-1.5,0-2.7,0c-2.4,0-5.9,0-10.4,0.1c-9,0-21.8,0.1-37.3,0.1l-0.2,0l0-0.2c0-15.5,0-33.9,0-53.6
										l0-0.2h0.2h0c18.7,0,36.3,0,51.3,0l0.2,0l0,0.2c0,16.1-0.1,29.5-0.1,38.9c0,4.7,0,8.4-0.1,10.9c0,1.2,0,2.2,0,2.9
										c0,0.3,0,0.5,0,0.7C354.1,87.5,354.1,87.6,354.1,87.6z"/>
								</g>
							</g>
						</g>
					</g>
				</g>
			</g>
		</g>
	</g>
	<g>
		<g>
			<g>
				<g>
					<g>
						<g>
							<g>
								<g>
									<g>
										<path class="st2" d="M339.2,50.3c-5.5-4.3-13-5.2-19.4-2.4c0,0-1,12.7-0.9,18.3c0.1,5.5,5.6,6.4,5.6,6.4l0,6l13.5,0.5
											l2-28.1L339.2,50.3z"/>
									</g>
								</g>
							</g>
							<g>
								<g>
									<g>
										<g>
											<g>
												<g>
													<path class="st0" d="M324.5,72.5c0,0,3.5,0.3,7.2-2.1c0,0-1.7,4-7.2,3.5L324.5,72.5z"/>
												</g>
											</g>
										</g>
									</g>
								</g>
							</g>
						</g>
					</g>
				</g>
				<g>
					<g>
						<g>
							<g>
								<g>
									<g>
										<g>
											<path class="st2" d="M339.3,56.7c0.1,0,3.8-1.1,3.7,2.7c-0.1,3.8-3.9,2.9-3.9,2.8C339.1,62,339.3,56.7,339.3,56.7z"/>
										</g>
									</g>
								</g>
							</g>
						</g>
					</g>
					<g>
						<g>
							<g>
								<g>
									<g>
										<g>
											<g>
												<path class="st0" d="M340.3,60.7c0,0,0.1,0,0.2,0.1c0.1,0.1,0.3,0.1,0.5,0c0.4-0.1,0.8-0.8,0.8-1.4c0-0.3,0-0.7-0.2-1
													c-0.1-0.3-0.3-0.5-0.5-0.5c-0.2-0.1-0.3,0.1-0.4,0.2c-0.1,0.1,0,0.2-0.1,0.2c0,0-0.1-0.1,0-0.2c0-0.1,0.1-0.2,0.2-0.2
													c0.1-0.1,0.2-0.1,0.4-0.1c0.3,0,0.5,0.3,0.7,0.6c0.1,0.3,0.2,0.7,0.2,1.1c0,0.8-0.5,1.5-1,1.6c-0.3,0.1-0.5,0-0.6-0.1
													C340.3,60.8,340.3,60.7,340.3,60.7z"/>
											</g>
										</g>
									</g>
								</g>
							</g>
						</g>
					</g>
				</g>
				<g>
					<g>
						<g>
							<g>
								<g>
									<g>
										<g>
											<g>
												<g>
													<g>
														<g>
															<g>
																<path class="st0" d="M321.6,56.4c0,0.4,0.3,0.8,0.8,0.8c0.4,0,0.8-0.3,0.8-0.7c0-0.4-0.3-0.8-0.8-0.8
																	C322,55.7,321.6,56,321.6,56.4z"/>
															</g>
														</g>
													</g>
												</g>
											</g>
										</g>
										<g>
											<g>
												<g>
													<g>
														<g>
															<g>
																<g>
																	<path class="st0" d="M320.8,55.7c0.1,0.1,0.7-0.3,1.6-0.3c0.9,0,1.5,0.4,1.6,0.3c0,0-0.1-0.2-0.3-0.4
																		c-0.3-0.2-0.7-0.4-1.3-0.4c-0.5,0-1,0.2-1.2,0.4C320.9,55.4,320.8,55.6,320.8,55.7z"/>
																</g>
															</g>
														</g>
													</g>
												</g>
											</g>
										</g>
									</g>
									<g>
										<g>
											<g>
												<g>
													<g>
														<g>
															<g>
																<path class="st0" d="M330,56.7c0,0.4,0.3,0.8,0.8,0.8c0.4,0,0.8-0.3,0.8-0.7c0-0.4-0.3-0.8-0.8-0.8
																	C330.4,56,330,56.3,330,56.7z"/>
															</g>
														</g>
													</g>
												</g>
											</g>
										</g>
										<g>
											<g>
												<g>
													<g>
														<g>
															<g>
																<g>
																	<path class="st0" d="M329.2,55.8c0.1,0.1,0.7-0.3,1.6-0.3c0.9,0,1.5,0.4,1.6,0.3c0,0-0.1-0.2-0.3-0.4
																		c-0.3-0.2-0.7-0.4-1.3-0.4c-0.5,0-1,0.2-1.2,0.4C329.3,55.6,329.2,55.8,329.2,55.8z"/>
																</g>
															</g>
														</g>
													</g>
												</g>
											</g>
										</g>
									</g>
									<g>
										<g>
											<g>
												<g>
													<g>
														<g>
															<g>
																<path class="st0" d="M326.1,62.1c0,0-0.5-0.1-1.4-0.2c-0.2,0-0.4-0.1-0.5-0.2c-0.1-0.2,0-0.4,0.1-0.6
																	c0.2-0.5,0.4-1.1,0.6-1.7c0.9-2.4,1.5-4.3,1.4-4.3c-0.1,0-0.9,1.8-1.8,4.2c-0.2,0.6-0.4,1.1-0.6,1.7
																	c-0.1,0.2-0.2,0.5-0.1,0.9c0.1,0.2,0.2,0.3,0.4,0.3c0.1,0,0.3,0,0.4,0.1C325.6,62.2,326.1,62.2,326.1,62.1z"/>
															</g>
														</g>
													</g>
												</g>
											</g>
										</g>
									</g>
								</g>
							</g>
						</g>
						<g>
							<g>
								<g>
									<g>
										<g>
											<g>
												<path class="st0" d="M329,52.5c0.1,0.2,0.9,0.1,1.9,0.2c1,0.1,1.8,0.4,1.9,0.2c0.1-0.1-0.1-0.3-0.4-0.5
													c-0.3-0.2-0.8-0.4-1.4-0.5c-0.6-0.1-1.2,0-1.5,0.2C329.2,52.2,329,52.4,329,52.5z"/>
											</g>
										</g>
									</g>
								</g>
							</g>
						</g>
						<g>
							<g>
								<g>
									<g>
										<g>
											<g>
												<path class="st0" d="M321.2,53.2c0.2,0.2,0.7,0,1.4,0c0.7,0,1.3,0.1,1.4-0.1c0.1-0.1,0-0.3-0.3-0.5
													c-0.3-0.2-0.7-0.3-1.2-0.3c-0.5,0-0.9,0.2-1.2,0.4C321.2,52.9,321.1,53.1,321.2,53.2z"/>
											</g>
										</g>
									</g>
								</g>
							</g>
						</g>
					</g>
				</g>
			</g>
			<g>
				<g>
					<g>
						<g>
							<path class="st0" d="M317.1,44.3c-0.1-0.7,0.2-1.4,0.8-1.8c0.6-0.4,1.4-0.4,1.9,0.1c-0.3-0.9,0.5-2,1.5-2.1
								c0.9-0.1,1.7,0.6,2.6,0.9c0.9,0.2,1.8,0,2.6-0.3c0.8-0.3,1.6-0.8,2.4-1.1c1.7-0.6,3.7-0.6,5.4,0.2c1.7,0.8,3,2.2,3.7,4
								c1.2-0.4,2.6,0.2,3.3,1.3c0.7,1,0.9,2.4,0.8,3.6c-0.1,0.9-0.3,1.7-0.6,2.5c0,0.1,0,0.1,0,0.2c-0.1,3.1-0.4,6.6-1.7,6.7
								c-2.3,0-1.7-4.2-1.7-4.2c-2.8-1.1-1.7-5.2-2.4-5.9c-0.7-0.6-2.2-2.1-8,0.9c-2.3,1.2-5.3,1.1-6.9,0.7c0,0-0.1,0-0.1,0
								c0,0,0,0,0,0c0,0,0,0,0,0c-0.5-0.1-1-0.3-1.5-0.6c-0.5-0.3-1-0.8-1.2-1.4c-0.2-0.6-0.1-1.3,0.3-1.7
								C317.5,45.7,317.1,45,317.1,44.3z"/>
						</g>
					</g>
				</g>
			</g>
		</g>
		<g>
			<g>
				<g>
					<g>
						<path class="st0" d="M326.1,66.3c0-0.1,0.4,0.1,1-0.1c0.3-0.1,0.6-0.3,0.7-0.7c0.2-0.3,0.2-0.8,0-1.2c0-0.1-0.1-0.2-0.2-0.3
							c-0.1-0.1-0.1-0.1-0.1-0.1c-0.1,0-0.2,0.1-0.3,0.1c-0.1,0-0.2,0.1-0.3,0.1c-0.4,0.2-0.7,0.3-1,0.4c-0.6,0.2-1,0.3-1,0.3
							c0,0,0.3-0.2,0.9-0.5c0.3-0.1,0.6-0.3,1-0.5c0.1,0,0.2-0.1,0.3-0.1c0.1,0,0.2-0.1,0.3-0.1c0.1,0,0.2,0,0.3,0
							c0.1,0,0.2,0.1,0.2,0.2c0.1,0.1,0.2,0.2,0.2,0.3c0.2,0.5,0.2,1.1-0.1,1.5c-0.2,0.4-0.6,0.7-0.9,0.8c-0.3,0.1-0.6,0.1-0.8,0
							C326.2,66.4,326.1,66.3,326.1,66.3z"/>
					</g>
				</g>
			</g>
		</g>
	</g>
</g>
<g>
	<g>
		<g>
			<path class="st5" d="M242.5,162.6c0.7-4.3,4.4-7.6,8.8-7.6c19.1-0.3,67.7-0.7,70.3,1.4c3.2,2.6,4.9,3.9,4.7,8
				c-0.2,3.8-4.3,68.7-4.3,68.7h-91L242.5,162.6z"/>
		</g>
		<g>
			<g>
				<path class="st6" d="M311.6,233.1c0,0,0-0.1,0-0.2c0-0.1,0-0.3,0-0.6c0-0.5-0.1-1.2-0.2-2.2c-0.1-0.9-0.1-2.1-0.2-3.4
					c0-1.3-0.1-2.9-0.1-4.5c0-0.8,0-1.7,0-2.6c0-0.9,0-1.9,0-2.9c0-2,0.1-4.1,0.2-6.3c0.3-4.5,0.7-9.3,1.4-14.4
					c0.7-5.1,1.6-9.9,2.6-14.3c0.5-2.2,1-4.2,1.5-6.2c0.3-1,0.5-1.9,0.7-2.8c0.3-0.9,0.5-1.7,0.7-2.5c0.5-1.6,0.9-3.1,1.3-4.3
					c0.4-1.3,0.8-2.4,1.1-3.3c0.3-0.9,0.6-1.6,0.7-2c0.1-0.2,0.1-0.4,0.2-0.5c0-0.1,0.1-0.2,0.1-0.2c0,0,0,0.1,0,0.2
					c0,0.1-0.1,0.3-0.2,0.5c-0.2,0.5-0.4,1.2-0.7,2.1c-0.3,0.9-0.7,2-1,3.3c-0.4,1.3-0.9,2.7-1.3,4.4c-0.2,0.8-0.5,1.7-0.7,2.5
					c-0.2,0.9-0.5,1.8-0.7,2.8c-0.5,1.9-1,4-1.5,6.2c-0.9,4.4-1.8,9.2-2.5,14.3c-0.7,5.1-1.1,10-1.4,14.4c-0.1,2.2-0.2,4.3-0.2,6.3
					c0,1-0.1,1.9-0.1,2.9c0,0.9,0,1.8,0,2.6c0,1.7,0.1,3.2,0.1,4.5c0,1.3,0.1,2.5,0.1,3.4c0,0.9,0.1,1.7,0.1,2.2c0,0.2,0,0.4,0,0.6
					C311.7,233.1,311.7,233.1,311.6,233.1z"/>
			</g>
		</g>
	</g>
	<g>
		<g>
			<path class="st6" d="M260.5,187.7c0,0,0,0,0.1-0.1c0.1,0,0.2,0,0.4,0c0.4,0,0.9,0.2,1.3,0.8c0.4,0.5,0.5,1.5,0.1,2.3
				c-0.2,0.4-0.5,0.8-0.9,1.1c-0.4,0.3-0.9,0.5-1.4,0.5c-0.5,0-1-0.1-1.5-0.4c-0.4-0.3-0.7-0.7-0.8-1.2c-0.2-0.9,0.2-1.7,0.7-2.2
				c1-0.9,1.9-0.9,1.9-0.8C260.6,187.7,260.6,187.7,260.5,187.7c-0.1,0-0.2,0.1-0.4,0.1c-0.3,0.1-0.8,0.4-1.2,0.8
				c-0.4,0.4-0.7,1.2-0.6,2c0.1,0.4,0.3,0.8,0.7,1c0.3,0.2,0.8,0.3,1.3,0.3c0.5,0,0.9-0.2,1.3-0.4c0.4-0.3,0.6-0.6,0.8-1
				c0.4-0.7,0.3-1.5-0.1-2c-0.4-0.5-0.8-0.7-1.2-0.8C260.7,187.7,260.5,187.7,260.5,187.7z"/>
		</g>
		<g>
			<path class="st6" d="M274.8,179.5c0,0.1-0.9-0.1-2.4,0c-1.5,0.1-3.6,0.7-5.4,2c-1.9,1.3-3.1,3.1-3.7,4.4
				c-0.6,1.4-0.8,2.3-0.9,2.3c0,0,0-0.2,0.1-0.7c0.1-0.4,0.3-1,0.6-1.7c0.6-1.4,1.8-3.2,3.7-4.6c1.9-1.4,4.1-1.9,5.6-2
				c0.8,0,1.4,0,1.8,0C274.5,179.4,274.8,179.4,274.8,179.5z"/>
		</g>
		<g>
			<path class="st6" d="M248.4,196.4c0,0,0.1-0.2,0.2-0.5c0.2-0.3,0.4-0.7,0.8-1.2c0.8-0.9,2.1-2,3.8-2.6c1.7-0.6,3.4-0.5,4.6-0.3
				c0.6,0.1,1,0.3,1.3,0.4c0.3,0.1,0.5,0.2,0.5,0.2c0,0-0.7-0.3-1.8-0.5c-1.1-0.2-2.8-0.2-4.5,0.3c-1.7,0.6-3,1.6-3.7,2.5
				C248.7,195.7,248.4,196.4,248.4,196.4z"/>
		</g>
		<g>
			<path class="st6" d="M266,198.6c0,0-0.4-0.2-0.9-0.7c-0.5-0.5-1.2-1.2-1.8-2.1c-0.6-0.9-1-1.8-1.2-2.5c-0.2-0.7-0.3-1.1-0.2-1.1
				c0.1,0,0.5,1.7,1.6,3.5C264.6,197.5,266,198.6,266,198.6z"/>
		</g>
	</g>
	<g>
		<g>
			<path class="st6" d="M291.2,188.5c0,0,0,0,0.1-0.1c0.1,0,0.2,0,0.4,0c0.4,0,0.9,0.2,1.3,0.8c0.4,0.5,0.5,1.5,0.1,2.3
				c-0.2,0.4-0.5,0.8-0.9,1.1c-0.4,0.3-0.9,0.5-1.4,0.5c-0.5,0-1-0.1-1.5-0.4c-0.4-0.3-0.7-0.7-0.8-1.2c-0.2-0.9,0.2-1.7,0.7-2.2
				c1-0.9,1.9-0.9,1.9-0.8C291.3,188.5,291.3,188.5,291.2,188.5c-0.1,0-0.2,0.1-0.4,0.1c-0.3,0.1-0.8,0.4-1.2,0.8
				c-0.4,0.4-0.7,1.2-0.6,2c0.1,0.4,0.3,0.8,0.7,1c0.3,0.2,0.8,0.3,1.3,0.3c0.5,0,0.9-0.2,1.3-0.4c0.4-0.3,0.6-0.6,0.8-1
				c0.4-0.7,0.3-1.5-0.1-2c-0.4-0.5-0.8-0.7-1.2-0.8C291.4,188.5,291.2,188.5,291.2,188.5z"/>
		</g>
		<g>
			<path class="st6" d="M305.5,180.2c0,0.1-0.9-0.1-2.4,0c-1.5,0.1-3.6,0.7-5.4,2c-1.9,1.3-3.1,3.1-3.7,4.4
				c-0.6,1.4-0.8,2.3-0.9,2.3c0,0,0-0.2,0.1-0.7c0.1-0.4,0.3-1,0.6-1.7c0.6-1.4,1.8-3.2,3.7-4.6c1.9-1.4,4.1-1.9,5.6-2
				c0.8,0,1.4,0,1.8,0C305.3,180.2,305.5,180.2,305.5,180.2z"/>
		</g>
		<g>
			<path class="st6" d="M279.1,197.1c0,0,0.1-0.2,0.2-0.5c0.2-0.3,0.4-0.7,0.8-1.2c0.8-0.9,2.1-2,3.8-2.6c1.7-0.6,3.4-0.5,4.6-0.3
				c0.6,0.1,1,0.3,1.3,0.4c0.3,0.1,0.5,0.2,0.5,0.2c0,0-0.7-0.3-1.8-0.5c-1.1-0.2-2.8-0.2-4.5,0.3c-1.7,0.6-3,1.6-3.7,2.5
				C279.5,196.5,279.1,197.2,279.1,197.1z"/>
		</g>
		<g>
			<path class="st6" d="M296.7,199.4c0,0-0.4-0.2-0.9-0.7c-0.5-0.5-1.2-1.2-1.8-2.1c-0.6-0.9-1-1.8-1.2-2.5
				c-0.2-0.7-0.3-1.1-0.2-1.1c0.1,0,0.5,1.7,1.6,3.5C295.3,198.2,296.8,199.3,296.7,199.4z"/>
		</g>
	</g>
</g>
<g>
	<g>
		<g>
			<path class="st7" d="M329.6,142.5c-24.5-24.2-55-30-55-30c-18.1,10.8-30.4,29-39.7,50.7c15.6,14.5,35.7,28.3,52.9,29.6
				C315,186,329.6,142.5,329.6,142.5z"/>
		</g>
		<g>
			<path class="st8" d="M329.6,142.5c-24.5-24.2-55-30-55-30c-18.1,10.8-30.4,29-39.7,50.7c15.6,14.5,35.7,28.3,52.9,29.6
				C315,186,329.6,142.5,329.6,142.5z"/>
		</g>
	</g>
	<g>
		<g>
			<path class="st7" d="M320.8,161.7c0,0,0-0.1-0.1-0.2c0-0.1-0.1-0.3-0.2-0.5c-0.1-0.5-0.3-1.1-0.6-1.9c-0.5-1.7-1.2-4.2-2.2-7.3
				l0.1,0.1c-3.3,1.1-7.4,2.4-12,3.9l0.1-0.1c0,0,0,0,0,0.1c0,0-0.1,0.1-0.1,0c0,0-0.1-0.1-0.1-0.1c0,0,0-0.1,0-0.1l0-0.1l0-0.2
				l0-0.5c0-0.3,0-0.7,0-1c0-0.7,0-1.3,0-2c0-1.4,0-2.8,0-4.2c0-1.4-0.1-2.9-0.1-4.4c-0.1-1.5-0.2-3-0.5-4.6l0.2,0.1
				c-3.5,0.8-7.2,1.7-10.9,2.5c-2.3,0.5-4.5,1-6.7,1.5l-0.1,0l0-0.1c-1-5.2-1.9-10.1-2.8-14.6l0.2,0.1c-6.7,1.8-12.7,2.7-17.4,3.1
				l-0.1,0l0-0.1c-0.5-3.8-0.8-6.7-1.1-8.8c-0.1-1-0.2-1.8-0.3-2.3c0-0.3,0-0.5-0.1-0.6c0-0.1,0-0.2,0-0.2c0,0,0,0.1,0,0.2
				c0,0.1,0.1,0.3,0.1,0.6c0.1,0.5,0.2,1.3,0.3,2.3c0.3,2.1,0.7,5,1.2,8.8l-0.1-0.1c4.7-0.4,10.7-1.3,17.4-3.1l0.1,0l0,0.1
				c0.9,4.5,1.8,9.4,2.8,14.6l-0.2-0.1c2.2-0.5,4.4-1,6.7-1.5c3.8-0.9,7.4-1.7,10.9-2.5l0.1,0l0,0.1c0.3,1.6,0.4,3.1,0.5,4.6
				c0.1,1.5,0.1,3,0.1,4.4c0,1.4,0,2.9,0,4.2c0,0.7,0,1.4,0,2c0,0.3,0,0.7,0,1l0,0.5l0,0.2l0,0.1l0,0c0,0,0,0,0,0c0,0-0.1,0-0.1,0
				c0,0,0,0,0,0c-0.1-0.1-0.1,0-0.1,0l-0.1,0l0.1,0c4.6-1.5,8.7-2.8,12-3.8l0.1,0l0,0.1c0.9,3.1,1.6,5.6,2.1,7.3
				c0.2,0.8,0.4,1.5,0.5,2c0.1,0.2,0.1,0.4,0.1,0.5C320.8,161.7,320.8,161.7,320.8,161.7z"/>
		</g>
	</g>
	<g>
		<g>
			<path class="st3" d="M316.1,169.4c0,0,0,0-0.1-0.1c0-0.1-0.1-0.2-0.1-0.4c-0.1-0.4-0.3-0.9-0.5-1.5c-0.5-1.4-1.2-3.3-2-5.8l0.1,0
				c-3.7,1-8.6,2.3-14.3,3.8l-0.1,0l0-0.1c-0.3-2.6-0.7-5.5-1.1-8.4c-0.4-3-0.9-6.1-1.4-9.3l0.2,0.1c-3.4,0.8-6.9,1.6-10.5,2.4
				c-2.4,0.6-4.8,1.1-7.1,1.6l-0.1,0l0-0.1c-1-5.2-1.9-10.1-2.8-14.6l0.2,0.1c-6.7,1.8-12.7,2.7-17.4,3.1l-0.1,0l0-0.1
				c-0.5-3.8-0.8-6.7-1.1-8.8c-0.1-1-0.2-1.8-0.3-2.3c0-0.3,0-0.5-0.1-0.6c0-0.1,0-0.2,0-0.2c0,0,0,0.1,0,0.2c0,0.1,0.1,0.3,0.1,0.6
				c0.1,0.5,0.2,1.3,0.3,2.3c0.3,2.1,0.7,5,1.2,8.8l-0.1-0.1c4.7-0.4,10.7-1.3,17.4-3.1l0.1,0l0,0.1c0.9,4.5,1.8,9.4,2.8,14.6
				l-0.2-0.1c2.3-0.5,4.7-1.1,7.1-1.6c3.6-0.8,7.1-1.6,10.5-2.4l0.1,0l0,0.1c0.6,3.2,1,6.4,1.4,9.4c0.4,3,0.8,5.8,1.1,8.4l-0.1-0.1
				c5.8-1.5,10.7-2.8,14.3-3.7l0.1,0l0,0.1c0.8,2.5,1.5,4.5,2,5.8c0.2,0.7,0.4,1.2,0.5,1.5c0.1,0.2,0.1,0.3,0.1,0.4
				C316.1,169.4,316.2,169.4,316.1,169.4z"/>
		</g>
	</g>
	<g>
		<g>
			<path class="st7" d="M306.6,181.3c0,0,0-0.2,0-0.5c0-0.3,0.1-0.8,0.1-1.3c0.1-1.2,0.3-2.9,0.4-5.1l0.1,0.1
				c-3.6,1.2-8.7,2.9-14.8,4.9l-0.1,0l0-0.1c-1.2-6.1-2.6-13.3-4.1-21.1l0.2,0.1c-2.9,0.7-6,1.4-9.1,2.1c-2.9,0.7-5.7,1.3-8.5,2
				l-0.1,0l0-0.1c-1-5.2-1.9-10.1-2.8-14.6l0.2,0.1c-6.7,1.8-12.7,2.7-17.4,3l-0.1,0l0-0.1c-0.5-3.8-0.8-6.8-1.1-8.8
				c-0.1-1-0.2-1.8-0.3-2.3c0-0.3,0-0.5-0.1-0.6c0-0.1,0-0.2,0-0.2c0,0,0,0.1,0,0.2c0,0.1,0.1,0.3,0.1,0.6c0.1,0.5,0.2,1.3,0.3,2.3
				c0.3,2.1,0.7,5,1.2,8.8l-0.1-0.1c4.7-0.4,10.7-1.3,17.4-3.1l0.1,0l0,0.1c0.9,4.5,1.8,9.4,2.8,14.6l-0.2-0.1
				c2.8-0.6,5.6-1.3,8.5-2c3.1-0.7,6.2-1.4,9.1-2.1l0.1,0l0,0.1c1.5,7.8,2.9,15,4,21.1l-0.2-0.1c6.1-2,11.2-3.7,14.9-4.8l0.1,0
				l0,0.1c-0.2,2.2-0.4,3.9-0.5,5.1c-0.1,0.6-0.1,1-0.1,1.3C306.6,181.2,306.6,181.3,306.6,181.3z"/>
		</g>
	</g>
	<g>
		<g>
			<path class="st3" d="M286.8,192.8c0,0,0,0,0-0.1c0-0.1-0.1-0.2-0.1-0.3c-0.1-0.3-0.2-0.7-0.3-1.2c-0.3-1.1-0.7-2.7-1.1-4.7
				c-0.5-2-1.1-4.4-1.7-7.2c-0.6-2.8-1.4-5.9-2-9.3l0.2,0.1c-5.2,1.2-11.2,2.6-17.6,4.1l-0.1,0l0-0.1c-0.1-0.5-0.2-1-0.3-1.5
				c-0.9-4.6-1.7-9-2.5-13.1l0.2,0.1c-6.6,1.8-12.6,2.7-17.4,3.1l-0.1,0l0-0.1c-0.4-3.7-0.8-6.7-1.1-8.8c-0.1-1-0.2-1.8-0.3-2.4
				c0-0.3,0-0.5-0.1-0.6c0-0.1,0-0.2,0-0.2c0,0,0,0.1,0,0.2c0,0.2,0.1,0.4,0.1,0.6c0.1,0.6,0.2,1.3,0.3,2.4c0.3,2.1,0.7,5.1,1.2,8.8
				l-0.1-0.1c4.8-0.4,10.8-1.3,17.4-3.1l0.1,0l0,0.1c0.8,4.1,1.6,8.5,2.5,13.1c0.1,0.5,0.2,1,0.3,1.5l-0.2-0.1
				c6.3-1.5,12.3-2.9,17.6-4.1l0.1,0l0,0.1c0.6,3.4,1.4,6.6,2,9.3c0.6,2.8,1.2,5.2,1.7,7.2c0.5,2,0.8,3.6,1.1,4.7
				c0.1,0.5,0.2,0.9,0.3,1.2c0,0.1,0,0.2,0.1,0.3C286.8,192.7,286.8,192.8,286.8,192.8z"/>
		</g>
	</g>
	<g>
		<g>
			<path class="st7" d="M277.5,190.8c0,0-0.1-0.3-0.2-0.8c-0.1-0.5-0.3-1.3-0.5-2.1c-0.4-1.8-0.9-4.3-1.5-7.2l0.2,0.1
				c-0.5,0.1-1.1,0.3-1.7,0.4c-3.2,0.8-6.2,1.4-8.3,1.9c-1,0.2-1.9,0.4-2.5,0.5c-0.6,0.1-0.9,0.2-0.9,0.2c0,0,0.3-0.1,0.9-0.3
				c0.6-0.2,1.5-0.4,2.5-0.6c2.1-0.5,5-1.2,8.3-2c0.6-0.1,1.1-0.3,1.7-0.4l0.1,0l0,0.1c0.6,2.9,1.1,5.4,1.4,7.2
				c0.2,0.9,0.3,1.6,0.4,2.1C277.4,190.5,277.5,190.8,277.5,190.8z"/>
		</g>
	</g>
	<g>
		<g>
			<path class="st7" d="M257.1,180.7c0,0-0.1-0.3-0.2-0.8c-0.1-0.6-0.3-1.3-0.5-2.1c-0.4-1.8-0.9-4.3-1.4-7.1c0-0.2-0.1-0.3-0.1-0.5
				l0.2,0.1c-2.6,0.7-5,1.2-6.7,1.5c-0.9,0.2-1.6,0.3-2.1,0.3c-0.5,0.1-0.8,0.1-0.8,0.1c0,0,0.3-0.1,0.7-0.2c0.5-0.1,1.2-0.3,2-0.4
				c1.7-0.4,4.1-0.9,6.7-1.6l0.1,0l0,0.2c0,0.2,0.1,0.3,0.1,0.5c0.5,2.8,1,5.3,1.3,7.1c0.1,0.9,0.3,1.6,0.4,2.2
				C257.1,180.4,257.1,180.7,257.1,180.7z"/>
		</g>
	</g>
	<g>
		<g>
			<path class="st7" d="M236.6,164.8c-0.1,0-0.2-0.8-0.4-1.7c-0.1-1-0.2-1.8-0.1-1.8c0.1,0,0.2,0.8,0.4,1.7
				C236.6,164,236.6,164.8,236.6,164.8z"/>
		</g>
	</g>
	<g>
		<g>
			<path class="st3" d="M325,153.6c0,0,0,0,0-0.1c0-0.1,0-0.2-0.1-0.4c-0.1-0.4-0.2-0.9-0.3-1.6c-0.2-1.4-0.6-3.4-1.1-6l0.1,0.1
				c-2.3,0.4-5.1,0.8-8.4,1.3l-0.1,0l0-0.1c-0.8-5-1.8-11.1-3-17.7l0.2,0.1c-3.6,0.8-7.4,1.7-11.4,2.7c-2,0.5-3.9,0.9-5.8,1.3
				l-0.1,0l0-0.1c-1.2-5-2.4-9.8-3.2-14.2l0.1,0.1c-6.8,1-12.6,1.9-17,2.6l-0.1,0l0-0.1c-0.3-2.7-0.6-4.9-0.8-6.4
				c-0.1-0.7-0.1-1.3-0.2-1.7c0-0.2,0-0.3,0-0.4c0-0.1,0-0.1,0-0.1c0,0,0,0,0,0.1c0,0.1,0,0.3,0.1,0.4c0.1,0.4,0.1,1,0.2,1.7
				c0.2,1.5,0.5,3.6,0.8,6.3l-0.1-0.1c4.3-0.7,10.2-1.6,17-2.7l0.1,0l0,0.1c0.9,4.4,2,9.1,3.3,14.1l-0.2-0.1
				c1.9-0.4,3.8-0.9,5.8-1.3c4-0.9,7.8-1.8,11.4-2.6l0.1,0l0,0.1c1.1,6.6,2.1,12.7,2.9,17.7l-0.1-0.1c3.2-0.5,6-0.9,8.4-1.3l0.1,0
				l0,0.1c0.4,2.6,0.8,4.6,1,6c0.1,0.7,0.2,1.2,0.2,1.6c0,0.2,0,0.3,0.1,0.4C325,153.6,325,153.6,325,153.6z"/>
		</g>
	</g>
	<g>
		<g>
			<path class="st6" d="M326.8,142.1c0,0-0.1,0-0.2,0.1c-0.1,0-0.3,0.1-0.5,0.1c-0.4,0.1-1,0.3-1.8,0.5c-1.5,0.5-3.7,1.4-6.1,2.7
				c-2.5,1.4-5.3,3.3-8.1,5.9c-2.8,2.5-5.5,5.7-8,9.2c-2.5,3.6-4.5,7.2-6.1,10.6c-1.7,3.4-3,6.5-4.1,9.1c-1.1,2.6-1.9,4.8-2.5,6.3
				c-0.3,0.7-0.5,1.3-0.7,1.7c-0.1,0.2-0.1,0.3-0.2,0.4c0,0.1-0.1,0.1-0.1,0.1s0-0.1,0-0.2c0-0.1,0.1-0.3,0.2-0.5
				c0.2-0.4,0.4-1,0.6-1.7c0.6-1.5,1.4-3.7,2.4-6.3c1.1-2.6,2.4-5.8,4-9.2c1.6-3.4,3.7-7,6.1-10.6c2.5-3.6,5.3-6.7,8.1-9.3
				c2.8-2.5,5.6-4.5,8.1-5.8c2.5-1.4,4.7-2.2,6.2-2.7c0.8-0.3,1.4-0.4,1.8-0.5c0.2,0,0.3-0.1,0.5-0.1
				C326.8,142.1,326.8,142.1,326.8,142.1z"/>
		</g>
	</g>
</g>
<g>
	<g>
		<g>
			<g>
				<g>
					<g>
						<g>
							<path class="st6" d="M57.5,218.1c-0.3,0-0.5-0.2-0.6-0.4l-19.7-74.9c-0.1-0.3,0.1-0.6,0.4-0.7c0.3-0.1,0.6,0.1,0.7,0.4
								l19.7,74.9c0.1,0.3-0.1,0.6-0.4,0.7C57.6,218.1,57.6,218.1,57.5,218.1z"/>
						</g>
					</g>
				</g>
				<g>
					<g>
						<g>
							<path class="st6" d="M52.3,219.9c-0.3,0-0.5-0.2-0.6-0.4l-19.7-74.9c-0.1-0.3,0.1-0.6,0.4-0.7c0.3-0.1,0.6,0.1,0.7,0.4
								l19.7,74.9c0.1,0.3-0.1,0.6-0.4,0.7C52.4,219.9,52.4,219.9,52.3,219.9z"/>
						</g>
					</g>
				</g>
				<g>
					<g>
						<g>
							<polygon class="st6" points="34.5,141.3 33.5,140.6 84,72.7 130,81.5 129.8,82.7 84.5,74 							"/>
						</g>
					</g>
				</g>
				<g>
					<g>
						<g>
							
								<rect x="21.5" y="108.2" transform="matrix(0.5951 -0.8037 0.8037 0.5951 -61.804 94.8173)" class="st6" width="83.4" height="1.2"/>
						</g>
					</g>
				</g>
				<g>
					<g>
						<g>
							<path class="st5" d="M82.7,75.8c0.6,1.7,2.5,2.7,4.2,2.1c1.7-0.6,2.7-2.5,2.1-4.2c-0.6-1.7-2.5-2.7-4.2-2.1
								C83.1,72.2,82.2,74.1,82.7,75.8z"/>
						</g>
					</g>
				</g>
			</g>
		</g>
		<g>
			<g>
				<g>
					<polygon class="st7" points="127.9,77.7 127,73 130.6,72.7 130.8,77.3 					"/>
				</g>
			</g>
			<g class="st9">
				<g>
					<polygon class="st10" points="127.9,77.7 127,73 130.6,72.7 130.8,77.3 					"/>
				</g>
			</g>
			<g>
				<g>
					<polyline class="st5" points="125,77.4 121.7,95.2 113.4,118.7 160.1,112 141.3,91.5 133.4,76.2 125,77.4 					"/>
				</g>
			</g>
		</g>
	</g>
	<g>
		<g>
			<g>
				<path class="st5" d="M31.2,143.3c0,2,1.7,3.7,3.7,3.7c2,0,3.7-1.7,3.7-3.7c0-2-1.7-3.7-3.7-3.7
					C32.9,139.6,31.2,141.3,31.2,143.3z"/>
			</g>
		</g>
	</g>
	<g>
		<g>
			<g>
				<path class="st5" d="M42.7,233.1c0-0.2,0-0.5,0-0.7c0-8.2,6.6-14.8,14.8-14.8c8.2,0,14.8,6.6,14.8,14.8c0,0.3,0,0.5,0,0.7H42.7z
					"/>
			</g>
		</g>
	</g>
</g>
<g>
	<g>
		<path class="st11" d="M123.7,227.5c-0.2,0-1,0.8,0.2,2.1c1.1,1.3,7.8,4.7,9,2.6c1.2-2.1-1.7-3.5-1.7-3.5L123.7,227.5z"/>
		<g>
			<g>
				<path class="st11" d="M131,225.3c0,0,6.9-0.8,9.7-0.4c3.1,0.4,6.3-1.2,8.2-3.3c1.9-2.1,2.4-4.9,2.4-4.9l4.4-3.1
					c0,0,0.5-10.5-6.5-8.8l-8.1,0.3c0,0-16,2.7-18.5,4.7c0,0-3,2.9-3.9,4.1c-0.3,0.4-0.6,4.7,2.4,6.2c0,0-1.8,2.3-0.2,3.6l0.7,0.6
					c0,0-1,2.3-0.1,3c1,0.7,8.7,3,10.8,1.5C134.7,227.2,132.2,225.5,131,225.3"/>
			</g>
		</g>
		<g>
			<path class="st12" d="M122.4,219.7c0,0,0.3,0,0.9,0.1c0.6,0.1,1.4,0.2,2.5,0.3c0.5,0,1.1,0.1,1.7,0.1c0.6,0,1.3,0,2,0
				c0.7,0.1,1.5,0.2,2.1,0.7c0.6,0.5,1.2,1.2,1,2.1c-0.1,0.4-0.3,0.8-0.6,1.1c-0.3,0.3-0.7,0.5-1,0.6c-0.7,0.3-1.5,0.3-2.2,0.4
				c-1.4,0.1-2.7,0-3.7-0.1c-1-0.1-1.9-0.2-2.5-0.3c-0.6-0.1-0.9-0.2-0.9-0.2c0,0,0.3,0,0.9,0.1c0.6,0.1,1.4,0.2,2.5,0.3
				c1,0.1,2.3,0.1,3.7,0c0.7-0.1,1.4-0.2,2.1-0.4c0.3-0.1,0.7-0.3,1-0.5c0.3-0.2,0.5-0.6,0.5-0.9c0.1-0.7-0.4-1.4-0.9-1.9
				c-0.6-0.4-1.3-0.6-2-0.6c-0.7-0.1-1.3,0-2-0.1c-0.6,0-1.2-0.1-1.7-0.1c-1-0.1-1.9-0.2-2.5-0.3
				C122.7,219.8,122.4,219.7,122.4,219.7z"/>
		</g>
		<g>
			<path class="st12" d="M121.8,214.7c0,0,0.3,0,0.9,0.1c0.6,0.1,1.4,0.2,2.4,0.3c1,0.1,2.3,0.2,3.6,0.2c0.7,0,1.5,0,2.2,0.3
				c0.4,0.2,0.7,0.5,0.8,0.9c0.2,0.4,0.2,0.8,0.1,1.2c-0.2,0.8-0.7,1.5-1.4,1.9c-0.7,0.4-1.4,0.6-2.1,0.7c-1.4,0.1-2.6-0.1-3.7-0.2
				c-1-0.1-1.8-0.2-2.5-0.2c-0.6-0.1-0.9-0.1-0.9-0.1s0.3,0,0.9,0c0.6,0,1.5,0.1,2.5,0.2c1,0,2.3,0.2,3.6,0.1c0.7-0.1,1.4-0.3,2-0.7
				c0.6-0.4,1.1-1,1.3-1.7c0.2-0.7-0.1-1.5-0.8-1.8c-0.6-0.3-1.4-0.3-2.1-0.3c-1.4,0-2.6-0.1-3.7-0.2c-1-0.1-1.9-0.3-2.4-0.4
				C122.1,214.8,121.8,214.7,121.8,214.7z"/>
		</g>
		<g>
			<path class="st12" d="M125.4,215.3c-0.1,0-0.3-0.6-0.6-1.3c-0.3-0.7-0.7-1.2-0.7-1.3c0.1-0.1,0.6,0.4,0.9,1.1
				C125.4,214.7,125.5,215.3,125.4,215.3z"/>
		</g>
		<g>
			<path class="st11" d="M146.5,205.3l-6.5-0.9c0,0-18.5-3.8-18.6-3.3c-0.2,0.5-1.1,0.7-0.4,2.6c0.7,2,11.3,3.7,11.8,4.4
				c0.5,0.6,0.8,4.3,5,6c4.2,1.7,6.8,1.1,6.8,1.1"/>
			<g>
				<path class="st12" d="M144.5,215.3c0,0,0,0-0.1,0c-0.1,0-0.2,0-0.4,0.1c-0.4,0-0.9,0.1-1.6,0c-0.7-0.1-1.6-0.2-2.6-0.5
					c-1-0.3-2.1-0.6-3.2-1.2c-1.1-0.6-2.2-1.7-2.9-3c-0.4-0.7-0.6-1.4-0.9-2.1c0-0.1-0.1-0.2-0.1-0.2c0,0-0.1-0.1-0.2-0.1
					c-0.2-0.1-0.4-0.1-0.6-0.2c-0.4-0.1-0.8-0.2-1.2-0.3c-1.6-0.4-3.3-0.8-5.1-1.3c-0.9-0.3-1.8-0.5-2.7-0.9
					c-0.4-0.2-0.9-0.4-1.3-0.6c-0.2-0.1-0.4-0.3-0.6-0.5c-0.1-0.1-0.2-0.2-0.2-0.3c-0.1-0.1-0.1-0.2-0.1-0.4c-0.1-0.5-0.2-1-0.1-1.5
					c0.1-0.3,0.2-0.5,0.4-0.7c0.1-0.1,0.1-0.2,0.2-0.3c0,0,0,0,0-0.1c0.1-0.1,0.1-0.1,0.1-0.1c0.1,0,0.1,0,0.1,0c0.1,0,0.1,0,0.2,0
					c1,0.1,1.9,0.2,2.8,0.4c1.8,0.3,3.5,0.6,5.2,0.9c3.3,0.6,6.3,1.2,8.8,1.7c0.6,0.1,1.2,0.3,1.8,0.4c0.6,0.1,1.1,0.2,1.6,0.2
					c1,0.1,1.9,0.3,2.6,0.4c0.7,0.1,1.2,0.2,1.6,0.2c0.2,0,0.3,0.1,0.4,0.1c0.1,0,0.1,0,0.1,0c0,0,0,0-0.1,0c-0.1,0-0.3,0-0.4,0
					c-0.4,0-0.9-0.1-1.6-0.2c-0.7-0.1-1.6-0.2-2.6-0.3c-0.5-0.1-1-0.1-1.6-0.2c-0.6-0.1-1.2-0.2-1.8-0.3c-2.5-0.5-5.5-1-8.8-1.7
					c-1.7-0.3-3.4-0.6-5.2-0.9c-0.9-0.1-1.8-0.3-2.7-0.4c-0.1,0-0.1,0-0.2,0c0,0-0.1,0-0.1,0c0,0,0,0,0,0c0,0,0,0,0-0.1c0,0,0,0,0,0
					c0.2,0.1,0.1,0,0.1,0.1l0,0c-0.1,0.1-0.2,0.2-0.2,0.3c-0.2,0.2-0.3,0.3-0.3,0.6c-0.1,0.4,0,0.9,0.1,1.3c0.1,0.2,0.1,0.4,0.3,0.6
					c0.2,0.2,0.3,0.3,0.5,0.4c0.4,0.2,0.8,0.4,1.3,0.6c0.9,0.4,1.8,0.6,2.6,0.9c1.7,0.5,3.5,0.9,5.1,1.4c0.4,0.1,0.8,0.2,1.2,0.3
					c0.2,0.1,0.4,0.1,0.6,0.2c0.1,0,0.2,0.1,0.3,0.2c0.1,0.1,0.1,0.2,0.1,0.3c0.3,0.8,0.5,1.5,0.9,2.1c0.7,1.3,1.7,2.3,2.8,2.9
					c1.1,0.6,2.2,1,3.2,1.3c1,0.3,1.8,0.4,2.5,0.5c0.7,0.1,1.3,0.1,1.6,0.1c0.2,0,0.3,0,0.4,0C144.5,215.3,144.5,215.3,144.5,215.3z
					"/>
			</g>
		</g>
		<g>
			<path class="st12" d="M129,225c0,0,0.2,0,0.7,0c0.4,0.1,1.1,0.2,1.8,0.5c0.4,0.2,0.7,0.4,1.1,0.7c0.4,0.3,0.8,0.7,0.8,1.3
				c0.1,0.6-0.3,1.2-0.8,1.5c-0.5,0.3-1.2,0.4-1.8,0.4c-2.4-0.1-4.5-0.5-6-0.9c-0.8-0.2-1.4-0.4-1.8-0.5c-0.4-0.2-0.6-0.3-0.6-0.3
				c0,0,0.2,0,0.7,0.2c0.4,0.1,1,0.3,1.8,0.5c1.5,0.3,3.6,0.7,6,0.8c0.6,0,1.2,0,1.6-0.3c0.4-0.3,0.8-0.7,0.7-1.2
				c0-0.5-0.4-0.8-0.7-1.1c-0.3-0.3-0.7-0.5-1.1-0.7C130,225,129,225,129,225z"/>
		</g>
	</g>
	<g>
		<path class="st10" d="M177.1,187.2c0,0,8.2-13.5,10-22.4c1.8-8.9,11.3-23,14.4-26.7c3.1-3.7,15.3-8,15.3-8l4.5-2.4l35-3.1
			c0,0,23.3,2.5,30.4,8.9c7.1,6.4,12.6,21.2,12.6,28.5c0,7.4,7.1,71.1,7.1,71.1l-86.4-0.1l1.9-31.4c0,0-10.4-7.1-13.2-13.2
			c-2.8-6.1-1.2-3.1-1.2-3.1s-9.8,20.8-13.2,23.3s-42.6,14.5-42.6,14.5l-5.4-20.6L177.1,187.2z"/>
	</g>
	<g>
		<path class="st10" d="M279,136.2c-0.9,0.3-12.6,30.5-13.5,33.3c-0.8,2.7,0,20.1,0,20.1l3.8,7.1c0,0-1.1,5.2-0.3,7.7l-17.3,3.3
			c0,0-4.4-3-8.5,0l-20.4,1.7c0,0,6,0.1,4.2,9.3c-1.7,9-3.1,11-3.1,11l71.8-1.6c0,0,8-0.4,6.8-15.7c-1.2-15.3-4.6-57.6-4.6-57.6
			S292.7,131.9,279,136.2z"/>
	</g>
	<g>
		<g>
			<path class="st6" d="M265.4,187c0,0-0.1-0.1-0.2-0.4c-0.1-0.3-0.3-0.6-0.4-1.1c-0.2-0.5-0.4-1.1-0.6-1.7
				c-0.2-0.7-0.5-1.5-0.7-2.3c-0.3-0.9-0.5-1.8-0.8-2.9c-0.3-1-0.5-2.2-0.7-3.3c-0.4-2.4-0.7-5-0.8-7.8c-0.1-2.8,0-5.4,0.2-7.8
				c0.1-1.2,0.3-2.3,0.5-3.4c0.1-0.5,0.2-1,0.3-1.5c0.1-0.5,0.2-1,0.3-1.4c0.2-0.9,0.4-1.7,0.6-2.4c0.2-0.7,0.4-1.3,0.5-1.8
				c0.2-0.5,0.3-0.8,0.4-1.1c0.1-0.3,0.1-0.4,0.1-0.4c0,0,0,0.1-0.1,0.4c-0.1,0.3-0.2,0.7-0.3,1.1c-0.1,0.5-0.3,1.1-0.5,1.8
				c-0.2,0.7-0.4,1.5-0.5,2.4c-0.1,0.4-0.2,0.9-0.3,1.4c-0.1,0.5-0.2,1-0.2,1.5c-0.2,1.1-0.3,2.2-0.4,3.4c-0.2,2.4-0.3,5-0.2,7.8
				c0.1,2.8,0.4,5.4,0.8,7.8c0.2,1.2,0.4,2.3,0.7,3.3c0.2,1,0.5,2,0.7,2.9c0.2,0.9,0.5,1.7,0.7,2.3c0.2,0.7,0.4,1.3,0.6,1.8
				c0.2,0.5,0.3,0.8,0.4,1.1C265.4,186.9,265.4,187,265.4,187z"/>
		</g>
	</g>
	<g>
		<g>
			<path class="st6" d="M290.4,219.8c0,0-0.1-0.1-0.2-0.2c-0.1-0.2-0.3-0.4-0.5-0.6c-0.2-0.3-0.5-0.6-0.8-1
				c-0.3-0.4-0.6-0.8-1.1-1.3c-0.4-0.5-0.8-1-1.4-1.5c-0.5-0.5-1.1-1.1-1.6-1.6c-1.2-1.1-2.6-2.2-4.1-3.3c-1.6-1.1-3.1-2-4.6-2.7
				c-0.7-0.4-1.4-0.7-2.1-1c-0.7-0.3-1.3-0.5-1.9-0.7c-0.6-0.2-1.1-0.4-1.6-0.5c-0.5-0.2-0.9-0.3-1.2-0.4c-0.3-0.1-0.6-0.2-0.8-0.2
				c-0.2-0.1-0.3-0.1-0.3-0.1c0,0,0.1,0,0.3,0c0.2,0,0.5,0.1,0.8,0.2c0.3,0.1,0.8,0.2,1.2,0.3c0.5,0.1,1,0.3,1.6,0.5
				c0.6,0.2,1.2,0.4,1.9,0.7c0.7,0.3,1.4,0.6,2.1,1c1.5,0.7,3,1.6,4.6,2.7c1.6,1.1,2.9,2.2,4.1,3.4c0.6,0.6,1.2,1.1,1.6,1.7
				c0.5,0.5,0.9,1,1.3,1.5c0.4,0.5,0.7,0.9,1,1.3c0.3,0.4,0.5,0.7,0.7,1c0.2,0.3,0.3,0.5,0.4,0.7
				C290.3,219.7,290.4,219.8,290.4,219.8z"/>
		</g>
	</g>
	<g>
		<g>
			<path class="st6" d="M296.4,215.8c0,0-0.7-0.7-1.9-1.7c-0.6-0.5-1.3-1-2.2-1.5c-0.9-0.5-1.9-1-3-1.4c-1.1-0.4-2.2-0.7-3.2-0.9
				c-1-0.2-1.9-0.3-2.7-0.3c-1.5-0.1-2.5,0.1-2.5,0c0,0,0.2-0.1,0.7-0.1c0.2,0,0.5-0.1,0.8-0.1c0.3,0,0.7,0,1.1,0
				c0.8,0,1.7,0.1,2.7,0.3c1,0.2,2.1,0.5,3.2,0.9c1.1,0.4,2.1,0.9,3,1.5c0.9,0.5,1.6,1.1,2.2,1.6c0.3,0.2,0.5,0.5,0.8,0.7
				c0.2,0.2,0.4,0.4,0.5,0.6C296.3,215.6,296.4,215.8,296.4,215.8z"/>
		</g>
	</g>
	<g>
		<g>
			<path class="st6" d="M289.8,205.7c0,0.1-0.9-0.6-2.4-1.4c-0.4-0.2-0.8-0.4-1.3-0.6c-0.5-0.2-1-0.3-1.5-0.5
				c-1.1-0.3-2.3-0.5-3.6-0.6c-1.3-0.1-2.6,0-3.7,0.1c-0.6,0.1-1.1,0.2-1.6,0.3c-0.5,0.1-0.9,0.2-1.4,0.4c-1.6,0.5-2.6,1.1-2.6,1
				c0,0,0.2-0.2,0.6-0.4c0.2-0.1,0.5-0.3,0.8-0.4c0.3-0.1,0.7-0.3,1.1-0.4c0.4-0.1,0.9-0.3,1.4-0.4c0.5-0.1,1-0.2,1.6-0.3
				c1.1-0.2,2.4-0.2,3.8-0.2c1.3,0.1,2.6,0.4,3.7,0.7c0.5,0.2,1.1,0.3,1.5,0.6c0.5,0.2,0.9,0.4,1.3,0.6c0.4,0.2,0.7,0.4,1,0.6
				c0.3,0.2,0.5,0.4,0.7,0.5C289.6,205.5,289.8,205.7,289.8,205.7z"/>
		</g>
	</g>
	<g>
		<g>
			<path class="st6" d="M247.8,228.3c-0.1,0,0.4-1.2,0.5-3.1c0.1-1,0.1-2.1,0-3.4c-0.1-1.3-0.4-2.6-0.7-4.1
				c-0.4-1.4-0.9-2.7-1.4-3.9c-0.6-1.1-1.1-2.2-1.6-2.9c-1.1-1.6-2-2.4-1.9-2.4c0,0,0.2,0.2,0.6,0.6c0.2,0.2,0.4,0.4,0.7,0.7
				c0.1,0.1,0.3,0.3,0.4,0.5c0.1,0.2,0.3,0.4,0.4,0.6c0.6,0.8,1.1,1.8,1.7,3c0.5,1.2,1,2.5,1.4,3.9c0.4,1.4,0.6,2.8,0.7,4.1
				c0.1,1.3,0.1,2.4,0,3.4c0,0.2-0.1,0.5-0.1,0.7c0,0.2-0.1,0.4-0.1,0.6c-0.1,0.4-0.1,0.7-0.2,1
				C247.9,228.1,247.8,228.3,247.8,228.3z"/>
		</g>
	</g>
	<g>
		<g>
			<path class="st6" d="M235.8,207.6c0,0,0-0.1,0-0.2c0-0.1,0-0.3-0.1-0.5c-0.1-0.4-0.1-1-0.3-1.8c-0.2-1.6-0.5-3.9-0.9-6.7
				c-0.7-5.7-1.5-13.5-2.1-22.2c-0.6-8.7-1-16.6-1.1-22.3c-0.1-2.9-0.1-5.2-0.1-6.8c0-0.8,0-1.4,0-1.8c0-0.2,0-0.4,0-0.5
				c0-0.1,0-0.2,0-0.2c0,0,0,0.1,0,0.2c0,0.1,0,0.3,0,0.5c0,0.4,0,1.1,0.1,1.8c0.1,1.6,0.1,3.9,0.2,6.8c0.2,5.7,0.6,13.6,1.2,22.3
				c0.6,8.7,1.4,16.5,2,22.2c0.3,2.8,0.6,5.1,0.8,6.7c0.1,0.8,0.2,1.4,0.2,1.8c0,0.2,0,0.4,0,0.5
				C235.8,207.5,235.8,207.6,235.8,207.6z"/>
		</g>
	</g>
	<g>
		<g>
			<path class="st6" d="M207.6,185.8c0,0-0.2-0.3-0.4-0.8c-0.2-0.6-0.6-1.3-1-2.3c-0.8-2-2.1-4.6-3.5-7.5c-1.5-2.9-2.8-5.4-3.8-7.4
				c-0.5-0.9-0.9-1.7-1.1-2.3c-0.3-0.5-0.4-0.8-0.4-0.8c0,0,0.2,0.3,0.5,0.8c0.3,0.6,0.7,1.3,1.2,2.2c1,1.9,2.4,4.4,3.9,7.3
				c1.5,2.9,2.7,5.6,3.5,7.5c0.4,1,0.7,1.8,0.9,2.4C207.5,185.5,207.6,185.8,207.6,185.8z"/>
		</g>
	</g>
	<g>
		<g>
			<path class="st6" d="M203.1,175.6c0,0-0.2,0-0.5-0.1c-0.3-0.1-0.8-0.2-1.3-0.4c-1.1-0.4-2.6-0.9-4.2-1.7c-1.6-0.8-3-1.6-3.9-2.3
				c-0.5-0.3-0.9-0.6-1.1-0.8c-0.3-0.2-0.4-0.3-0.4-0.3c0,0,0.6,0.4,1.6,1c1,0.6,2.4,1.4,4,2.2c1.6,0.8,3.1,1.4,4.2,1.8
				C202.5,175.3,203.2,175.6,203.1,175.6z"/>
		</g>
	</g>
	<g>
		<g>
			<path class="st6" d="M195.7,194.5c0,0-0.2-0.1-0.6-0.4c-0.4-0.3-0.9-0.6-1.6-1c-1.4-0.8-3.3-1.9-5.6-2.7c-2.3-0.8-4.4-1.3-6-1.6
				c-0.8-0.1-1.4-0.2-1.9-0.3c-0.4-0.1-0.7-0.1-0.7-0.1c0,0,0.2,0,0.7,0c0.4,0,1.1,0.1,1.9,0.2c1.6,0.2,3.8,0.7,6.1,1.5
				c2.3,0.9,4.2,1.9,5.6,2.8c0.7,0.4,1.2,0.8,1.5,1.1C195.6,194.3,195.7,194.5,195.7,194.5z"/>
		</g>
	</g>
	<g>
		<g>
			<path class="st6" d="M255.5,124.7c0,0,0,0.2,0,0.4c0,0.3-0.1,0.7-0.1,1.3c-0.1,1.1-0.3,2.7-0.7,4.7c-0.3,2-0.8,4.3-1.5,6.9
				c-0.8,2.5-1.8,5.3-3.5,7.9c-0.8,1.4-1.9,2.6-2.9,3.7l-0.1,0.1l-0.1-0.1c-1.5-2-3.4-3.4-5.2-4.4c-0.9-0.5-1.9-0.8-2.8-1
				c-0.9-0.2-1.7-0.3-2.5-0.3c-1.5,0-2.8,0.2-3.6,0.5c-0.8,0.3-1.2,0.5-1.2,0.5c0,0,0.1-0.1,0.3-0.2c0.2-0.1,0.5-0.3,0.9-0.4
				c0.8-0.3,2-0.6,3.6-0.6c0.8,0,1.6,0.1,2.6,0.3c0.9,0.2,1.9,0.5,2.8,1c1.9,0.9,3.8,2.4,5.4,4.4l-0.2,0c1-1.1,2-2.3,2.8-3.7
				c1.6-2.6,2.7-5.3,3.5-7.8c0.8-2.5,1.2-4.9,1.6-6.8c0.4-2,0.6-3.6,0.8-4.7c0.1-0.5,0.2-1,0.2-1.3
				C255.5,124.9,255.5,124.7,255.5,124.7z"/>
		</g>
	</g>
	<g>
		<polygon class="st8" points="256,125.1 250.6,118 244.9,118.2 226.1,128.1 		"/>
	</g>
	<g>
		<g>
			<path class="st6" d="M231.2,144.9c0,0-0.1,0-0.3,0c-0.2,0-0.5-0.1-0.9-0.1c-0.7-0.2-1.8-0.6-3-1.3c-0.6-0.4-1.2-0.7-2-0.8
				c-0.8-0.2-1.6-0.2-2.5,0c-1.7,0.3-3.5,1.7-4.2,3.6l-0.3,0.8l0-0.9c0-0.2,0-0.4,0-0.7c0.1-4.4,0.1-8.3,0.2-11.2
				c0.1-1.4,0.2-2.6,0.3-3.4c0.1-0.4,0.1-0.7,0.2-0.9c0-0.2,0.1-0.3,0.1-0.3c0,0-0.1,0.4-0.1,1.2c-0.1,0.8-0.2,1.9-0.2,3.4
				c-0.1,2.9-0.1,6.8-0.2,11.2c0,0.2,0,0.5,0,0.7l-0.3-0.1c0.8-2,2.6-3.4,4.4-3.8c1.8-0.4,3.5,0.2,4.7,0.9c1.2,0.7,2.2,1.1,2.9,1.3
				C230.8,144.8,231.2,144.8,231.2,144.9z"/>
		</g>
	</g>
	<g>
		<g>
			<g>
				<g>
					<g>
						<g>
							<g>
								<g>
									<g>
										<g>
											<g>
												<g>
													<g>
														<path class="st11" d="M250.6,83.8l0,42.4c0,2.4-0.9,4.8-2.4,6.6l0,0c-2.4,2.8-5.3,5.2-8.5,7l-8.5,4.8l-7.1-6.3
															c-2.1-1.9-3.3-4.5-3.4-7.3c-0.1-3.1-0.1-6.2-0.1-6.2s-12-0.9-13.1-12.7c-0.5-5.6-0.7-17-0.7-27.5c0-12,9.2-22,21.1-23
															l0.3,0C240.5,61.5,250.7,71.5,250.6,83.8z"/>
													</g>
												</g>
											</g>
										</g>
									</g>
								</g>
							</g>
						</g>
						<g>
							<g>
								<g>
									<g>
										<g>
											<g>
												<g>
													<g>
														<path class="st12" d="M220.5,124.8c0,0,7.5,0,15.1-5.7c0,0-2.9,8.8-14.8,8.7L220.5,124.8z"/>
													</g>
												</g>
											</g>
										</g>
									</g>
								</g>
							</g>
						</g>
					</g>
				</g>
			</g>
			<g>
				<g>
					<g>
						<g>
							<g>
								<g>
									<g>
										<g>
											<g>
												<g>
													<g>
														<g>
															<g>
																<g>
																	<path class="st6" d="M210.7,92.7c0,0.9,0.8,1.6,1.8,1.6c0.9,0,1.7-0.8,1.6-1.7c0-0.9-0.8-1.6-1.8-1.6
																		C211.4,91.1,210.7,91.8,210.7,92.7z"/>
																</g>
															</g>
														</g>
													</g>
												</g>
											</g>
										</g>
									</g>
									<g>
										<g>
											<g>
												<g>
													<g>
														<g>
															<g>
																<g>
																	<g>
																		<path class="st6" d="M209.7,89.6c0.2,0.2,1.4-0.9,3.2-1c1.8-0.2,3.2,0.7,3.4,0.4c0.1-0.1-0.2-0.5-0.8-0.9
																			c-0.6-0.4-1.6-0.7-2.7-0.6c-1.1,0.1-2,0.6-2.6,1.1C209.8,89.1,209.6,89.5,209.7,89.6z"/>
																	</g>
																</g>
															</g>
														</g>
													</g>
												</g>
											</g>
										</g>
									</g>
								</g>
								<g>
									<g>
										<g>
											<g>
												<g>
													<g>
														<g>
															<g>
																<g>
																	<path class="st6" d="M228,92c0,0.9,0.8,1.6,1.8,1.6c0.9,0,1.7-0.8,1.6-1.7c0-0.9-0.8-1.6-1.8-1.6
																		C228.7,90.4,228,91.1,228,92z"/>
																</g>
															</g>
														</g>
													</g>
												</g>
											</g>
										</g>
									</g>
									<g>
										<g>
											<g>
												<g>
													<g>
														<g>
															<g>
																<g>
																	<g>
																		<path class="st6" d="M227.6,88.4c0.2,0.2,1.4-0.8,3.2-1c1.8-0.2,3.2,0.7,3.4,0.4c0.1-0.1-0.2-0.5-0.8-0.9
																			c-0.6-0.4-1.6-0.7-2.7-0.6c-1.1,0.1-2,0.6-2.6,1.1C227.7,87.9,227.5,88.3,227.6,88.4z"/>
																	</g>
																</g>
															</g>
														</g>
													</g>
												</g>
											</g>
										</g>
									</g>
								</g>
								<g>
									<g>
										<g>
											<g>
												<g>
													<g>
														<g>
															<g>
																<g>
																	<path class="st6" d="M222.2,102.4c0-0.1-1.1-0.2-3-0.3c-0.5,0-0.9-0.1-1-0.4c-0.1-0.3,0-0.8,0.2-1.4
																		c0.3-1.2,0.7-2.4,1.1-3.6c1.5-5.2,2.5-9.4,2.3-9.5c-0.2-0.1-1.6,4.1-3.1,9.3c-0.4,1.3-0.7,2.5-1,3.7
																		c-0.1,0.5-0.4,1.2-0.1,1.8c0.2,0.3,0.5,0.6,0.8,0.6c0.3,0.1,0.6,0,0.8,0C221,102.6,222.2,102.6,222.2,102.4z"/>
																</g>
															</g>
														</g>
													</g>
												</g>
											</g>
										</g>
									</g>
								</g>
								<g>
									<g>
										<g>
											<g>
												<g>
													<g>
														<g>
															<g>
																<g>
																	<path class="st6" d="M227.6,103.3c-0.3,0-0.1,2-1.7,3.5c-1.6,1.5-3.7,1.5-3.7,1.8c0,0.1,0.5,0.3,1.4,0.3
																		c0.9,0,2.1-0.4,3.1-1.4c1-0.9,1.3-2.1,1.3-2.9C228,103.7,227.7,103.2,227.6,103.3z"/>
																</g>
															</g>
														</g>
													</g>
												</g>
											</g>
										</g>
									</g>
								</g>
							</g>
						</g>
					</g>
					<g>
						<g>
							<g>
								<g>
									<g>
										<g>
											<g>
												<g>
													<path class="st6" d="M226.6,81.3c0.2,0.5,2,0.1,4.2,0.2c2.2,0,3.9,0.5,4.2,0.1c0.1-0.2-0.2-0.7-1-1.1
														c-0.7-0.4-1.9-0.8-3.2-0.8c-1.3,0-2.4,0.3-3.2,0.6C226.8,80.7,226.5,81.1,226.6,81.3z"/>
												</g>
											</g>
										</g>
									</g>
								</g>
							</g>
						</g>
					</g>
					<g>
						<g>
							<g>
								<g>
									<g>
										<g>
											<g>
												<g>
													<path class="st6" d="M210,84.2c0.4,0.4,1.6-0.1,3.1-0.3c1.5-0.2,2.8,0,3.1-0.4c0.1-0.2-0.1-0.6-0.7-1
														c-0.6-0.3-1.5-0.6-2.6-0.5c-1,0.1-1.9,0.6-2.4,1C210,83.6,209.8,84.1,210,84.2z"/>
												</g>
											</g>
										</g>
									</g>
								</g>
							</g>
						</g>
					</g>
				</g>
			</g>
			<g>
				<g>
					<path class="st5" d="M236.7,71.9C236.8,71.9,236.8,72,236.7,71.9c2.1,1.4,3.5,3.4,4,5.8c0,0.1,0,0.2,0.1,0.2
						c0.7,3.3,0.9,6.8,1.7,10.1c0.8,3.3,0.6,5.9,4,6.6c2.1,0.5,3.9-0.7,4.6-1.9c0.3-0.5,0.3-1,0.3-1.6c0-8.2,1.6-11.4,0.9-19.9
						c-0.2-2.3-1.5-4.4-3.5-5.6c-1.9-1.1-4.2-2.3-6.1-1.2c-1.9,1.1-4.2,5-5.6,6.7"/>
				</g>
			</g>
			<g>
				<g>
					<g>
						<g>
							<g>
								<g>
									<g>
										<g>
											<g>
												<path class="st11" d="M247.1,89.5c0.2-0.1,7.9-3.1,8.3,5c0.4,8.1-7.8,6.8-7.8,6.6C247.6,100.9,247.1,89.5,247.1,89.5z"
													/>
											</g>
										</g>
									</g>
								</g>
							</g>
						</g>
					</g>
				</g>
				<g>
					<g>
						<g>
							<g>
								<g>
									<g>
										<g>
											<g>
												<g>
													<path class="st12" d="M249.9,98c0,0,0.1,0.1,0.4,0.2c0.2,0.1,0.6,0.1,1.1,0c0.8-0.4,1.5-1.8,1.5-3.2
														c0-0.7-0.2-1.4-0.5-2c-0.3-0.6-0.7-1-1.1-1c-0.4-0.1-0.7,0.2-0.8,0.4c-0.1,0.2,0,0.4-0.1,0.4c0,0-0.2-0.1-0.1-0.5
														c0-0.2,0.1-0.4,0.3-0.5c0.2-0.2,0.5-0.3,0.8-0.2c0.6,0,1.2,0.6,1.5,1.2c0.4,0.6,0.6,1.4,0.6,2.2c0,1.6-0.7,3.2-1.9,3.6
														c-0.6,0.2-1,0-1.3-0.1C249.9,98.2,249.9,98,249.9,98z"/>
												</g>
											</g>
										</g>
									</g>
								</g>
							</g>
						</g>
					</g>
				</g>
			</g>
			<g>
				<g>
					<path class="st5" d="M243.1,65.8c1.7-3.4-4.1-7.6-8.2-8.5c-4.1-0.9-9.2,1.5-13.1,3.1c-2.4,1-4.8,2.4-7.5,2.5
						c-1.8,0.1-3.5-0.4-5.2-0.9c-1.7-0.5-3.5-0.9-5.3-0.6c-1.8,0.3-3.5,1.4-4,3.1c-0.5,1.7,0.6,3.9,2.4,4c-2.3-1-5.4,0.8-5.6,3.4
						c-0.2,2.6,2.7,4.8,5.1,4c-1.2-0.8-2.9,0.8-2.6,2.2c0.3,1.4,1.6,2.4,3,2.8c3.5,1.2,7.4,0.4,10.8-1.1c3.4-1.5,6.5-3.6,9.8-5.1
						c3.4-1.5,9-4.3,12.5-3.4c2.6,0.7,4.7,3.6,6.1,2.8c1.3-0.8,2.1-2.3,2.3-3.8C243.8,68.8,243.5,67.3,243.1,65.8"/>
				</g>
			</g>
			<g>
				<g>
					<g>
						<path class="st13" d="M201.3,68.2c0.1,0,0.5,0.6,1.4,1.4c0.9,0.9,2.5,2,4.7,2.5c2.2,0.6,5.1,0.6,7.7-0.9
							c2.6-1.5,4.8-4.1,7.3-6.7c2.5-2.6,5.6-4.6,8.7-5.1c3.2-0.6,6.2,0.4,8,2c1.8,1.7,2.3,3.8,2.3,5.1c0,0.7-0.1,1.2-0.2,1.5
							c-0.1,0.3-0.2,0.5-0.2,0.5c-0.1,0,0.2-0.7,0.1-2c-0.1-1.2-0.6-3.2-2.3-4.7c-1.7-1.5-4.5-2.3-7.4-1.7c-3,0.6-5.8,2.5-8.3,5
							c-2.5,2.5-4.7,5.2-7.5,6.7c-2.8,1.6-5.9,1.5-8.2,0.9c-2.3-0.7-3.9-1.9-4.8-2.8c-0.5-0.5-0.8-0.9-0.9-1.2
							C201.3,68.4,201.2,68.3,201.3,68.2z"/>
					</g>
				</g>
			</g>
			<g>
				<g>
					<g>
						<path class="st13" d="M249.1,89c0,0-0.4-0.2-0.7-0.8c-0.4-0.6-0.7-1.6-0.6-2.9c0-2.6,2-5.6,2-9.2c0-1.8-0.4-3.5-1.3-4.8
							c-0.9-1.2-2.1-2-3.2-2.3c-1.1-0.4-2.1-0.3-2.7-0.1c-0.6,0.2-1,0.3-1,0.3c0,0,0.3-0.3,0.9-0.6c0.7-0.2,1.7-0.4,3-0.1
							c1.2,0.3,2.7,1.1,3.7,2.5c1,1.4,1.5,3.3,1.5,5.2c0,1.9-0.6,3.7-1.1,5.2c-0.6,1.5-1,2.9-1.1,4C248.1,87.7,249.2,88.9,249.1,89z
							"/>
					</g>
				</g>
			</g>
		</g>
	</g>
	<g>
		<path class="st6" d="M246.6,100.3L246.6,100.3c-0.8-0.8-0.9-2.1-0.1-2.9l3.7-4c0.8-0.8,2.1-0.9,2.9-0.1l0,0
			c0.8,0.8,0.9,2.1,0.1,2.9l-3.7,4C248.8,101,247.5,101.1,246.6,100.3z"/>
	</g>
	<g>
		<g>
			<path class="st6" d="M299.4,163.9c0,0,0,0.1,0,0.3c0,0.2,0,0.5,0.1,1c0.1,0.8,0.1,2.1,0.3,3.7c0.2,3.2,0.5,8,0.9,14
				c0.4,6,0.9,13.3,1.4,21.6c0.1,2.1,0.3,4.2,0.4,6.4c0.1,1.1,0.1,2.2,0.2,3.4c0,0.6,0,1.1,0,1.7c0,0.6,0,1.2-0.1,1.7
				c-0.1,0.6-0.1,1.2-0.2,1.8c-0.1,0.6-0.2,1.2-0.4,1.8c-0.2,0.6-0.4,1.2-0.5,1.7c-0.3,0.6-0.5,1.1-0.8,1.7c-1.2,2.2-3,4.2-5.5,5
				l0,0h0c-16.1,0-34.6,0-54.1,0c-5.8,0-11.6,0-17.1,0l-0.2,0l0.1-0.2c0.5-1.9,1-3.7,1.6-5.6c0.3-0.9,0.5-1.8,0.8-2.7
				c0.3-0.9,0.5-1.8,0.6-2.7c0.3-1.8,0.1-3.7-0.5-5.4c-0.3-0.9-0.7-1.7-1.3-2.3c-0.6-0.7-1.4-1.2-2.2-1.3l-1.1-0.2l1.1-0.1
				c7.1-0.6,14-1.2,20.4-1.7l-0.1,0c1.3-0.9,2.9-1.4,4.4-1.4c1.5,0.1,3,0.6,4.3,1.4l-0.1,0c6.2-1.2,12-2.3,17.3-3.3l-0.1,0.1
				c-0.2-0.7-0.3-1.4-0.3-2c0-0.7,0-1.3,0.1-2c0.1-1.3,0.3-2.5,0.5-3.7l0,0.1c-1.4-2.6-2.7-5-3.8-7.2l0,0l0,0
				c-0.3-6.4-0.4-11.4-0.3-14.8c0-1.7,0.1-3,0.2-3.9c0-0.4,0.1-0.8,0.1-1c0-0.2,0.1-0.3,0.1-0.3s0,0.1-0.1,0.3
				c-0.1,0.2-0.1,0.6-0.1,1c-0.1,0.9-0.1,2.2-0.1,3.9c0,3.4,0.1,8.4,0.4,14.8l0,0c1.2,2.2,2.5,4.6,3.9,7.1l0,0l0,0
				c-0.2,1.2-0.4,2.4-0.5,3.7c-0.1,0.6-0.1,1.3,0,2c0,0.7,0.1,1.3,0.3,2l0,0.1l-0.1,0c-5.3,1-11.1,2.1-17.3,3.3l0,0l0,0
				c-1.2-0.8-2.7-1.2-4.1-1.3c-1.5-0.1-3,0.4-4.2,1.3l0,0l0,0c-6.5,0.5-13.3,1.1-20.4,1.7l0-0.3c1,0.1,1.8,0.7,2.4,1.4
				c0.6,0.7,1.1,1.5,1.3,2.4c0.6,1.8,0.8,3.7,0.5,5.6c-0.1,0.9-0.4,1.9-0.6,2.8c-0.3,0.9-0.5,1.8-0.8,2.7c-0.5,1.8-1,3.7-1.6,5.6
				l-0.1-0.2c5.6,0,11.3,0,17.1,0c19.5,0,38,0,54.1,0l0,0c1.2-0.4,2.2-1.1,3.1-1.9c0.9-0.9,1.6-1.9,2.2-2.9c0.3-0.5,0.5-1.1,0.8-1.6
				c0.2-0.6,0.4-1.1,0.5-1.7c0.1-0.6,0.3-1.2,0.4-1.7c0.1-0.6,0.1-1.2,0.2-1.7c0.1-0.6,0.1-1.2,0.1-1.7c0-0.6,0.1-1.1,0-1.7
				c0-1.1-0.1-2.2-0.2-3.4c-0.1-2.2-0.3-4.4-0.4-6.4c-0.5-8.3-1-15.6-1.4-21.7c-0.4-6-0.7-10.8-0.9-14c-0.1-1.6-0.2-2.9-0.2-3.7
				c0-0.4,0-0.7-0.1-1C299.4,164,299.4,163.9,299.4,163.9z"/>
		</g>
	</g>
	<g>
		<g>
			<path class="st6" d="M283.8,133.8c0,0-0.4,0.2-1,0.6c-0.6,0.4-1.5,1-2.6,1.8c-2.1,1.7-4.6,4.4-6.6,7.9c-2.1,3.5-3.4,6.9-4.4,9.4
				c-0.5,1.2-0.9,2.2-1.1,2.9c-0.1,0.3-0.2,0.6-0.3,0.8c-0.1,0.2-0.1,0.3-0.1,0.3c0,0,0-0.1,0.1-0.3c0.1-0.2,0.2-0.5,0.3-0.8
				c0.2-0.7,0.6-1.7,1.1-3c0.9-2.5,2.3-6,4.4-9.5c2.1-3.5,4.6-6.3,6.7-7.9c1.1-0.8,2-1.4,2.6-1.8c0.3-0.2,0.6-0.3,0.8-0.4
				C283.7,133.8,283.7,133.8,283.8,133.8z"/>
		</g>
	</g>
	<g class="st9">
		<g>
			<path d="M262.1,154.9c-2.4,5.1-3.3,10.9-3.1,16.5c0.2,5.6,0.9,11.3,0.3,16.9c-0.6,5.6-2.5,11.3-6.7,15.1c-0.5,0.5-1,0.9-1.3,1.5
				c-0.3,0.6-0.3,1.4,0.3,1.9c0.5,0.4,1.1,0.3,1.7,0.2c4-0.7,8-1.2,12-1.9c0.9-0.1,3.7-0.7,3.7-0.7s-0.4-2.2-0.2-3.3
				c0.1-1,0.5-4.4,0.5-4.4c-0.1-0.5-0.5-0.9-0.8-1.4c-2.6-4.9-3.3-8.5-3.3-8.5c-1.4-2.8-2-5.6-2.6-8.2
				C260.9,171.2,261,164.1,262.1,154.9"/>
		</g>
	</g>
	<g class="st9">
		<g>
			<path d="M218.3,146.7c0.3,0.8,0.7,1.7,1,2.5c0.1,0.3,0.2,0.5,0.5,0.6c0.5,0.2,0.9-0.4,1.1-0.9c0.9-1.9,2.8-3.2,4.9-3.4
				c1.7-0.2,3.4,0.3,5.1-0.1c-1.5-0.9-2.9-1.8-4.6-2.3c-1.6-0.5-3.4-0.7-5,0c-1.6,0.6-2.9,2.1-3,3.8"/>
		</g>
	</g>
	<g class="st9">
		<g>
			<path d="M232,144.6c2,0,3.9,0.1,5.9,0.5c1.9,0.5,3.8,1.4,5,2.9c1.3,1.6,1.8,3.8,2.4,5.8c0.1,0.4,0.3,0.9,0.7,0.9
				c0.2,0,0.5-0.1,0.7-0.3c3.3-2.4,5.5-6.2,6.7-10.1c1.2-3.9,1.5-8.1,1.5-12.2c-1.6,2.8-2.3,6-3.3,9.1c-1,3.1-2.6,6.1-5.3,7.9
				c0.1-0.7-0.2-1.4-0.6-1.9c-0.4-0.5-1-1-1.6-1.3c-3.6-2.2-8.2-2.8-12.3-1.5"/>
		</g>
	</g>
	<g>
		<g>
			<path class="st11" d="M223.4,209.7h-6.8c0,0-15.3-5.5-18.4-5c-2.8,0.5-13.2,7.4-15.2,8.7c-0.2,0.2-0.4,0.4-0.5,0.6l0,0
				c-0.4,1.1,0.1,2.4,1.2,2.8l0.2,0.1l-0.1,0.3c-0.1,0.4-0.2,0.8-0.2,1.2c0.1,1.5,2,1.9,2.8,0.6l-0.4,0.7c-0.2,0.3-0.2,0.6-0.2,0.9
				l0,0.6c0,0.7,0.5,1.3,1.2,1.5l0,0c0.6,0.2,1.3,0,1.8-0.5c1.3-1.4,4.2-4.3,6.1-4.7c1.7-0.3,4.6-0.3,6.3-0.3c0.9,0,1.7,0.5,2,1.4
				l0,0c-1.1,0.1-9.1,4.2-11.9,5.7c-0.9,0.5-1.5,1.3-1.6,2.3c-0.1,0.9,0.3,1.8,2.1,1.4c3.7-0.9,10.4-4,10.4-4s3.5-1,5.7,0.6
				c3.2,2.2,4.6,3,7.3,2.1c2.7-0.9,4.7-2.2,4.7-2.2l5.3-0.5C225.2,224.2,230.3,211.6,223.4,209.7z"/>
		</g>
		<g>
			<g>
				<path class="st12" d="M203.2,212.3c0,0.1-1.1-0.3-2.9-0.4c-1.8-0.1-4.3,0.1-6.8,1.2c-2.5,1.1-4.4,2.7-5.5,4.1
					c-1.2,1.4-1.6,2.4-1.7,2.3c0,0,0.1-0.3,0.3-0.7c0.2-0.4,0.6-1.1,1.2-1.8c1.1-1.4,3-3.2,5.6-4.2c2.6-1.1,5.1-1.3,6.9-1.1
					c0.9,0.1,1.6,0.2,2.1,0.4C202.9,212.1,203.2,212.2,203.2,212.3z"/>
			</g>
		</g>
		<g>
			<g>
				<path class="st12" d="M201.6,208.5c0,0.1-1.1-0.5-3-0.5c-1.9-0.1-4.5,0.5-6.9,2c-2.5,1.5-4.3,3.4-5.6,4.7
					c-0.6,0.7-1.1,1.2-1.5,1.6c-0.4,0.4-0.6,0.6-0.6,0.6c0,0,0.2-0.2,0.5-0.7c0.3-0.4,0.8-1,1.5-1.7c1.3-1.4,3.1-3.3,5.6-4.8
					c2.5-1.5,5.2-2.1,7.1-1.9c1,0.1,1.7,0.2,2.2,0.4c0.3,0.1,0.4,0.2,0.6,0.2C201.5,208.5,201.6,208.5,201.6,208.5z"/>
			</g>
		</g>
	</g>
</g>
<g>
	<g>
		<path class="st4" d="M289.8,55c-12.5,0-22.6,10.1-22.6,22.6c0,4.8,1.5,9.3,4.1,12.9l-2.7,8.4l8.3-2.8c3.7,2.6,8.1,4.1,12.9,4.1
			c12.5,0,22.6-10.1,22.6-22.6C312.4,65.1,302.3,55,289.8,55z"/>
	</g>
	<g>
		<g>
			<g>
				<g>
					<g>
						<g>
							<g>
								<path class="st6" d="M283.8,77.4c0,1.1-0.9,1.9-2,1.9c-1.1,0-1.9-0.9-1.9-2s0.9-1.9,2-1.9C283,75.4,283.8,76.3,283.8,77.4z"
									/>
							</g>
						</g>
					</g>
				</g>
			</g>
			<g>
				<g>
					<g>
						<g>
							<g>
								<path class="st6" d="M291.6,77.7c0,1.1-0.9,1.9-2,1.9c-1.1,0-1.9-0.9-1.9-2c0-1.1,0.9-1.9,2-1.9
									C290.8,75.7,291.6,76.6,291.6,77.7z"/>
							</g>
						</g>
					</g>
				</g>
			</g>
			<g>
				<g>
					<g>
						<g>
							<g>
								<path class="st6" d="M299.4,76.9c0.5,0.9,0.2,2.1-0.8,2.6c-0.9,0.5-2.1,0.2-2.6-0.8c-0.5-0.9-0.2-2.1,0.8-2.6
									C297.7,75.6,298.9,76,299.4,76.9z"/>
							</g>
						</g>
					</g>
				</g>
			</g>
		</g>
		<g>
			<g>
				<g>
					<g>
						<g>
							<g>
								<path class="st6" d="M290.5,54.8c0,0,0.1,0,0.4,0c0.3,0,0.7,0,1.2,0.1c0.3,0,0.5,0,0.9,0.1c0.3,0.1,0.7,0.1,1,0.2
									c0.4,0.1,0.8,0.1,1.2,0.2c0.4,0.1,0.9,0.2,1.3,0.4c1.9,0.5,4.1,1.4,6.4,3c2.3,1.6,4.6,3.8,6.5,6.7c1.8,3,3.2,6.6,3.5,10.7
									c0,1,0.1,2.1,0,3.1c-0.1,0.5-0.1,1.1-0.2,1.6c-0.1,0.5-0.2,1.1-0.3,1.6c-0.5,2.1-1.2,4.3-2.4,6.3c-1.1,2-2.6,3.9-4.3,5.6
									c-1.8,1.6-3.8,3.1-6.1,4.1c-2.3,1.1-4.8,1.8-7.4,2c-0.6,0.1-1.3,0.1-1.9,0.1c-0.7,0-1.3,0-2,0c-1.3-0.1-2.6-0.3-3.9-0.6
									c-2.8-0.7-5.4-1.9-7.7-3.5l0.2,0c-2.7,1-5.4,2-8.1,3l-0.5,0.2l0.1-0.5c0.9-2.9,1.8-5.7,2.6-8.5l0,0.2c-2.1-3-3.5-6.5-4-9.9
									c-0.2-1.7-0.3-3.4-0.2-5c0.1-0.8,0.1-1.6,0.3-2.4c0.1-0.4,0.1-0.8,0.2-1.2c0.1-0.4,0.2-0.8,0.3-1.1c1.7-6,5.6-10.3,9.3-12.7
									c1.9-1.2,3.7-2.1,5.4-2.6c0.4-0.1,0.8-0.3,1.2-0.4c0.4-0.1,0.8-0.2,1.1-0.3c0.4-0.1,0.7-0.2,1-0.2c0.3-0.1,0.7-0.1,1-0.1
									c0.6-0.1,1.1-0.1,1.6-0.2c0.5,0,0.8,0,1.2,0c0.3,0,0.5,0,0.7,0C290.4,54.8,290.5,54.8,290.5,54.8c0,0-0.1,0-0.2,0
									c-0.2,0-0.4,0-0.7,0c-0.3,0-0.7,0-1.2,0c-0.5,0-1,0.1-1.6,0.2c-2.4,0.4-5.9,1.2-9.6,3.7c-3.7,2.4-7.4,6.7-9.1,12.6
									c-0.1,0.4-0.2,0.7-0.3,1.1c-0.1,0.4-0.1,0.8-0.2,1.1c-0.2,0.8-0.2,1.6-0.3,2.3c-0.2,1.6-0.1,3.2,0.2,4.9
									c0.5,3.3,1.8,6.7,3.9,9.7l0.1,0.1l0,0.1c-0.8,2.7-1.7,5.6-2.6,8.5l-0.3-0.3c2.6-1,5.3-2,8.1-3l0.1,0l0.1,0.1
									c2.2,1.6,4.8,2.8,7.6,3.5c1.3,0.3,2.5,0.5,3.8,0.6c0.6,0,1.3,0,1.9,0c0.6,0,1.3,0,1.9-0.1c2.5-0.2,5-0.9,7.2-2
									c2.2-1,4.2-2.4,6-4c1.7-1.6,3.1-3.5,4.2-5.5c1.1-2,1.8-4.1,2.3-6.2c0.1-0.5,0.2-1,0.3-1.6c0.1-0.5,0.1-1,0.2-1.6
									c0.1-1,0-2.1,0-3.1c-0.2-4-1.6-7.7-3.4-10.6c-1.8-2.9-4.1-5.1-6.3-6.7c-2.2-1.6-4.4-2.5-6.3-3.1c-0.5-0.1-0.9-0.3-1.3-0.4
									c-0.4-0.1-0.8-0.2-1.2-0.2c-0.4-0.1-0.7-0.1-1-0.2c-0.3,0-0.6-0.1-0.8-0.1c-0.5-0.1-0.9-0.1-1.1-0.1
									C290.6,54.9,290.5,54.8,290.5,54.8z"/>
							</g>
						</g>
					</g>
				</g>
			</g>
		</g>
	</g>
</g>
<g>
	<g>
		<path class="st5" d="M127.9,233.4l-18.3-46c-1.6-4,1.3-8.3,5.6-8.3h57.1c2.6,0,4.9,1.6,5.7,4.1l15.8,46.4l18.4,0.1
			c1.5,0,2.7,2.2,2.7,3.7l0,0l-20.3-0.2L127.9,233.4z"/>
	</g>
</g>
<g>
	<path class="st2" d="M154.3,208.1c0,2-1.7,3.7-3.7,3.7c-2,0-3.7-1.7-3.7-3.7c0-2,1.7-3.7,3.7-3.7
		C152.6,204.4,154.3,206.1,154.3,208.1z"/>
</g>
<g>
	<g>
		<path class="st5" d="M372.5,233.1c0,0.1-76,0.1-169.7,0.1c-93.7,0-169.7-0.1-169.7-0.1c0-0.1,76-0.1,169.7-0.1
			C296.5,233,372.5,233,372.5,233.1z"/>
	</g>
</g>
<g>
	<g>
		<g>
			<g>
				<path class="st0" d="M154.4,53.3c-5.4-3.1-8.3-10.4-8.5-16.4c-0.2-6,2.3-12.2,7.2-15.6c5.2-3.6,12.5-3.5,17.8-0.1
					c5.3,3.4,8.4,9.8,8.2,16.1c-0.2,6.3-3.7,12.3-8.7,16"/>
			</g>
		</g>
		<g>
			<g>
				<g>
					<path class="st4" d="M163,53.8c0,0-0.1-0.5-0.1-1.4c0-1-0.1-2.2-0.1-3.7c-0.1-3.1-0.2-7.5-0.4-12.3c-0.2-4.8-0.5-9.1-0.7-12.3
						c-0.1-1.5-0.2-2.7-0.2-3.7c0-0.9-0.1-1.4,0-1.4c0,0,0.1,0.5,0.2,1.4c0.1,0.9,0.2,2.1,0.4,3.7c0.3,3.1,0.6,7.5,0.8,12.3
						c0.2,4.8,0.3,9.1,0.3,12.3c0,1.6,0,2.8-0.1,3.7C163,53.3,163,53.8,163,53.8z"/>
				</g>
			</g>
		</g>
		<g>
			<g>
				<g>
					<path class="st0" d="M147.4,35.5c0,0.1-0.9,0.2-1.9,0.1c-1.1-0.1-1.9-0.3-1.9-0.4c0-0.1,0.9-0.2,1.9-0.1
						C146.6,35.2,147.5,35.4,147.4,35.5z"/>
				</g>
			</g>
		</g>
		<g>
			<g>
				<g>
					<path class="st0" d="M147.7,30.2c-0.1,0.1-0.8-0.1-1.7-0.5c-0.9-0.4-1.5-0.8-1.5-0.9c0.1-0.1,0.8,0.1,1.7,0.5
						C147.1,29.6,147.8,30,147.7,30.2z"/>
				</g>
			</g>
		</g>
		<g>
			<g>
				<g>
					<path class="st0" d="M150.5,26.2c-0.1,0.1-0.9-0.3-1.8-1c-0.9-0.7-1.4-1.5-1.3-1.6c0.1-0.1,0.8,0.5,1.6,1.2
						C149.9,25.5,150.6,26.1,150.5,26.2z"/>
				</g>
			</g>
		</g>
		<g>
			<g>
				<g>
					<path class="st0" d="M153.3,22.4c-0.1,0.1-0.5-0.6-0.9-1.4c-0.4-0.8-0.6-1.5-0.4-1.6c0.1-0.1,0.5,0.6,0.9,1.4
						C153.2,21.7,153.4,22.4,153.3,22.4z"/>
				</g>
			</g>
		</g>
		<g>
			<g>
				<g>
					<path class="st0" d="M157.6,19.8c-0.1,0.1-0.6-0.6-0.8-1.5c-0.3-0.9-0.3-1.7-0.2-1.7c0.1,0,0.4,0.7,0.7,1.6
						C157.5,19,157.7,19.7,157.6,19.8z"/>
				</g>
			</g>
		</g>
		<g>
			<g>
				<g>
					<path class="st0" d="M164.9,16.8c0.1,0,0.1,0.6-0.2,1.3c-0.2,0.7-0.5,1.1-0.7,1.1c-0.1,0-0.1-0.6,0.2-1.3
						C164.4,17.2,164.7,16.7,164.9,16.8z"/>
				</g>
			</g>
		</g>
		<g>
			<g>
				<g>
					<path class="st0" d="M170.2,19.1c0.1,0.1-0.3,0.6-0.8,1.1c-0.5,0.5-1,0.8-1.1,0.7c-0.1-0.1,0.2-0.6,0.8-1.1
						C169.6,19.3,170.1,19,170.2,19.1z"/>
				</g>
			</g>
		</g>
		<g>
			<g>
				<g>
					<path class="st0" d="M175,22.1c0.1,0.1-0.3,0.5-0.9,0.9c-0.6,0.4-1.1,0.6-1.2,0.5c-0.1-0.1,0.3-0.5,0.9-0.9
						C174.4,22.3,174.9,22,175,22.1z"/>
				</g>
			</g>
		</g>
		<g>
			<g>
				<g>
					<path class="st0" d="M178.3,26.7c0.1,0.1-0.6,0.5-1.5,0.9c-0.9,0.4-1.6,0.6-1.7,0.4c-0.1-0.1,0.6-0.5,1.5-0.9
						C177.5,26.8,178.3,26.6,178.3,26.7z"/>
				</g>
			</g>
		</g>
		<g>
			<g>
				<g>
					<path class="st0" d="M179.7,31.7c0,0.1-0.7,0.3-1.5,0.4c-0.8,0.1-1.6,0.1-1.6-0.1c0-0.1,0.7-0.3,1.5-0.4
						C178.9,31.5,179.6,31.5,179.7,31.7z"/>
				</g>
			</g>
		</g>
		<g>
			<g>
				<g>
					<path class="st0" d="M180.4,37.8c-0.1,0.1-0.8-0.1-1.6-0.4c-0.8-0.4-1.5-0.8-1.4-0.9c0.1-0.1,0.8,0.1,1.6,0.4
						C179.8,37.3,180.4,37.7,180.4,37.8z"/>
				</g>
			</g>
		</g>
		<g>
			<g>
				<g>
					<path class="st0" d="M179.7,43.1c0,0.1-1-0.1-1.9-0.7c-1-0.6-1.5-1.4-1.4-1.5c0.1-0.1,0.8,0.4,1.7,1
						C179,42.5,179.8,42.9,179.7,43.1z"/>
				</g>
			</g>
		</g>
		<g>
			<g>
				<g>
					<path class="st0" d="M177,47.8c-0.1,0.1-0.8-0.3-1.5-1.1c-0.7-0.7-1.1-1.5-1-1.6c0.1-0.1,0.7,0.5,1.3,1.2
						C176.5,47.1,177.1,47.7,177,47.8z"/>
				</g>
			</g>
		</g>
		<g>
			<g>
				<g>
					<path class="st0" d="M151,48.4c0.1,0.1-0.7,0.6-1.7,1.2c-1,0.5-1.9,0.8-1.9,0.7c-0.1-0.1,0.7-0.6,1.7-1.2
						C150.1,48.6,151,48.3,151,48.4z"/>
				</g>
			</g>
		</g>
		<g>
			<g>
				<g>
					<path class="st0" d="M148.7,44.1c0.1,0.1-0.6,0.5-1.4,0.9c-0.8,0.4-1.5,0.6-1.6,0.4c-0.1-0.1,0.6-0.5,1.4-0.9
						C147.9,44.1,148.6,43.9,148.7,44.1z"/>
				</g>
			</g>
		</g>
		<g>
			<g>
				<g>
					<path class="st0" d="M146.9,40.2c0,0.1-0.7,0.4-1.7,0.5c-0.9,0.1-1.7,0.1-1.7,0c0-0.1,0.7-0.4,1.7-0.5
						C146.1,40.1,146.9,40.1,146.9,40.2z"/>
				</g>
			</g>
		</g>
		<g>
			<g>
				<g>
					<path class="st0" d="M152.6,38.1c0,0.1-0.7,0.5-1.7,0.6c-1,0.1-1.8-0.1-1.8-0.2c0-0.1,0.8-0.2,1.7-0.3
						C151.8,38.1,152.6,38,152.6,38.1z"/>
				</g>
			</g>
		</g>
		<g>
			<g>
				<g>
					<path class="st0" d="M157.4,33.4c0,0.1-0.5,0.4-1.3,0.5c-0.8,0.1-1.4-0.1-1.4-0.2c0-0.1,0.6-0.2,1.3-0.3
						C156.7,33.3,157.4,33.3,157.4,33.4z"/>
				</g>
			</g>
		</g>
		<g>
			<g>
				<g>
					<path class="st0" d="M158.3,29.6c0,0.1-0.7,0-1.4-0.2c-0.7-0.3-1.3-0.6-1.2-0.7c0-0.1,0.7,0,1.4,0.2
						C157.8,29.2,158.3,29.5,158.3,29.6z"/>
				</g>
			</g>
		</g>
		<g>
			<g>
				<g>
					<path class="st0" d="M160,25.8c-0.1,0.1-0.5-0.2-0.8-0.7c-0.3-0.5-0.3-1.1-0.2-1.1c0.1,0,0.4,0.4,0.6,0.8
						C159.9,25.3,160.1,25.7,160,25.8z"/>
				</g>
			</g>
		</g>
		<g>
			<g>
				<g>
					<path class="st0" d="M157.9,41.5c0,0.1-0.5,0.4-1.2,0.6c-0.4,0.1-0.8,0.2-1,0.2l-0.1-0.3c0.2,0,0.3,0,0.3,0
						c0,0.1-0.1,0.1-0.2,0.3l-0.1-0.3c0.2-0.1,0.6-0.2,1-0.3C157.3,41.4,157.9,41.3,157.9,41.5z"/>
				</g>
			</g>
		</g>
		<g>
			<g>
				<g>
					<path class="st0" d="M158.9,48.2c0.1,0.1-0.6,0.5-1.6,0.9c-0.9,0.4-1.7,0.5-1.7,0.4c-0.1-0.1,0.6-0.5,1.6-0.9
						C158.1,48.2,158.9,48.1,158.9,48.2z"/>
				</g>
			</g>
		</g>
		<g>
			<g>
				<g>
					<path class="st0" d="M153.6,45.2c0,0.1-0.4,0.4-1,0.6c-0.6,0.2-1.2,0.3-1.2,0.1c0-0.1,0.4-0.4,1-0.6
						C153,45.1,153.5,45.1,153.6,45.2z"/>
				</g>
			</g>
		</g>
		<g>
			<g>
				<g>
					<path class="st0" d="M154,31.5c0,0.1-0.8,0.1-1.8-0.3c-0.9-0.3-1.6-0.8-1.6-0.9c0.1-0.1,0.8,0.1,1.7,0.4
						C153.3,31.1,154,31.4,154,31.5z"/>
				</g>
			</g>
		</g>
		<g>
			<g>
				<g>
					<path class="st0" d="M167,30c0.1,0.1-0.4,0.6-1,1c-0.6,0.4-1.2,0.7-1.3,0.6c-0.1-0.1,0.4-0.6,1-1C166.3,30.2,166.9,29.9,167,30
						z"/>
				</g>
			</g>
		</g>
		<g>
			<g>
				<g>
					<path class="st0" d="M167.7,36.8c0,0.1-0.4,0.4-1.1,0.5c-0.6,0.1-1.1,0.1-1.2,0c0-0.1,0.4-0.4,1.1-0.5
						C167.1,36.6,167.6,36.7,167.7,36.8z"/>
				</g>
			</g>
		</g>
		<g>
			<g>
				<g>
					<path class="st0" d="M168.5,44.4c-0.1,0.1-0.7-0.1-1.5-0.4c-0.8-0.4-1.4-0.8-1.3-0.9c0.1-0.1,0.7,0.1,1.5,0.4
						C167.9,43.8,168.5,44.2,168.5,44.4z"/>
				</g>
			</g>
		</g>
		<g>
			<g>
				<g>
					<path class="st0" d="M166.7,51.8c-0.1,0.1-0.6-0.3-1-0.8c-0.4-0.5-0.7-1-0.6-1.1c0.1-0.1,0.6,0.3,1,0.8
						C166.6,51.2,166.9,51.7,166.7,51.8z"/>
				</g>
			</g>
		</g>
		<g>
			<g>
				<g>
					<path class="st0" d="M166.4,25.1c0.1,0.1-0.2,0.5-0.7,0.7c-0.5,0.3-1,0.3-1,0.1c0-0.1,0.3-0.4,0.8-0.6
						C165.9,25.1,166.3,25,166.4,25.1z"/>
				</g>
			</g>
		</g>
		<g>
			<g>
				<g>
					<path class="st0" d="M172.8,31.9c0,0.1-0.5,0.5-1.3,0.6c-0.8,0.1-1.5,0-1.5-0.2c0-0.1,0.6-0.2,1.4-0.3
						C172.1,31.8,172.7,31.7,172.8,31.9z"/>
				</g>
			</g>
		</g>
		<g>
			<g>
				<g>
					<path class="st0" d="M171.5,25.8c0.1,0.1-0.5,0.5-1.4,0.8c-0.8,0.3-1.5,0.3-1.6,0.1c0-0.1,0.6-0.4,1.4-0.6
						C170.8,25.8,171.4,25.6,171.5,25.8z"/>
				</g>
			</g>
		</g>
		<g>
			<g>
				<g>
					<path class="st0" d="M174.1,41.3c0,0.1-1,0.2-2.2,0c-1.2-0.2-2.1-0.7-2.1-0.8c0-0.1,1,0.1,2.2,0.3
						C173.2,41.1,174.2,41.2,174.1,41.3z"/>
				</g>
			</g>
		</g>
		<g>
			<g>
				<g>
					<path class="st0" d="M171.8,50.2c-0.1,0.1-0.8-0.3-1.6-1.1c-0.7-0.7-1.2-1.5-1.1-1.6c0.1-0.1,0.7,0.5,1.4,1.2
						C171.3,49.5,171.9,50.1,171.8,50.2z"/>
				</g>
			</g>
		</g>
		<g>
			<g>
				<g>
					<path class="st4" d="M161.4,18.6c0.1,0.1-2,1-4.4,3.5c-2.4,2.5-4.9,6.9-5.5,12.2c-0.3,2.6,0,5.2,0.3,7.5c0.4,2.3,0.9,4.3,1.4,6
						c0.5,1.7,0.9,3,1.2,4c0.3,0.9,0.5,1.5,0.4,1.5c0,0-0.3-0.5-0.6-1.4c-0.4-0.9-0.9-2.3-1.4-4c-0.5-1.7-1.1-3.7-1.5-6
						c-0.4-2.3-0.7-4.9-0.4-7.6c0.6-5.4,3.2-9.9,5.8-12.4c1.3-1.3,2.4-2.1,3.3-2.6c0.4-0.3,0.8-0.4,1-0.5
						C161.2,18.6,161.4,18.5,161.4,18.6z"/>
				</g>
			</g>
		</g>
		<g>
			<g>
				<g>
					<path class="st4" d="M168.3,53.6c-0.1-0.1,1.1-2,2.3-5.4c1.2-3.4,2.1-8.5,1.4-14c-0.4-2.7-1.2-5.3-2.2-7.5
						c-1-2.1-2.4-3.9-3.7-5.1c-1.4-1.2-2.7-1.9-3.6-2.3c-0.9-0.4-1.5-0.5-1.5-0.5c0,0,0.1,0,0.4,0c0.3,0,0.7,0.1,1.1,0.3
						c1,0.3,2.3,1,3.8,2.2c1.4,1.2,2.8,3,3.9,5.2c1,2.2,1.9,4.8,2.2,7.6c0.8,5.6-0.3,10.7-1.5,14.2c-0.3,0.9-0.7,1.6-0.9,2.3
						c-0.3,0.7-0.6,1.2-0.8,1.7C168.6,53.1,168.3,53.6,168.3,53.6z"/>
				</g>
			</g>
		</g>
	</g>
	<g>
		<g>
			<polygon class="st14" points="148.7,52.4 176.6,52.4 176.8,58 148.7,58 			"/>
		</g>
	</g>
	<g>
		<g>
			<polygon class="st14" points="151,55.2 152.6,72.2 173.1,72.2 174.7,55.4 			"/>
		</g>
	</g>
	<g>
		<g>
			<g>
				<path class="st4" d="M176.8,58c0,0.1-6.3,0.3-14,0.3c-7.8,0-14-0.1-14-0.3c0-0.1,6.3-0.3,14-0.3C170.5,57.8,176.8,57.9,176.8,58
					z"/>
			</g>
		</g>
	</g>
	<g>
		<g>
			<g>
				<path class="st4" d="M173.9,63.2c0,0-0.2,0.4-0.6,1.1c-0.4,0.7-1.1,1.6-2.2,2.6L171,67l-0.1-0.1c-1.3-1.4-3.2-3.1-5.5-4.8l0.3,0
					c-0.8,0.7-1.6,1.4-2.4,2.1c-1,0.9-2,1.7-2.9,2.5l-0.2,0.1l-0.2-0.1c-1.7-1.5-3.3-2.8-4.7-3.9l0.3,0c-1,1.2-1.8,2.2-2.4,2.9
					c-0.6,0.7-0.9,1.1-0.9,1c0,0,0.2-0.4,0.8-1.2c0.6-0.8,1.4-1.8,2.3-3l0.1-0.2l0.2,0.1c1.4,1.1,3,2.4,4.7,3.8l-0.3,0
					c0.9-0.8,1.9-1.6,2.9-2.5c0.8-0.7,1.7-1.4,2.4-2.1l0.1-0.1l0.2,0.1c2.3,1.7,4.1,3.5,5.4,4.9l-0.3,0
					C173,64.7,173.8,63.2,173.9,63.2z"/>
			</g>
		</g>
	</g>
</g>
</svg>
