<?xml version="1.0" encoding="utf-8"?>
<!-- Generator: Adobe Illustrator 24.0.0, SVG Export Plug-In . SVG Version: 6.00 Build 0)  -->
<svg version="1.1" id="Capa_1" xmlns="http://www.w3.org/2000/svg" xmlns:xlink="http://www.w3.org/1999/xlink" x="0px" y="0px"
	 viewBox="0 0 176 65" style="enable-background:new 0 0 176 65;" xml:space="preserve">
<style type="text/css">
	.st0{fill:#FC7E00;}
	.st1{fill:#FE9900;}
	.st2{fill:#808080;}
	.st3{fill:#1C3247;}
</style>
<polygon class="st0" points="169.7,22.4 152.9,22.4 152.9,22.3 151.3,23.3 149.6,34 149.7,34.1 168.3,34.1 "/>
<polygon class="st1" points="151.3,23.3 152.9,22.3 154.9,5.6 143.4,5.6 139.9,34.1 149.7,34.1 149.6,34 "/>
<g>
	<path class="st2" d="M48.9,59c-0.2,0.2-0.4,0.4-0.7,0.5c-0.3,0.1-0.6,0.2-1,0.2c-0.3,0-0.6-0.1-0.8-0.2c-0.2-0.1-0.4-0.3-0.5-0.6
		c-0.1-0.3-0.2-0.5-0.2-0.9c0-0.3,0-0.6,0.1-1c0.1-0.4,0.2-0.8,0.3-1.1s0.4-0.5,0.6-0.7c0.3-0.2,0.7-0.3,1.1-0.3
		c0.5,0,0.8,0.2,1.1,0.4c0.3,0.2,0.4,0.6,0.5,1.1h-0.8c0-0.5-0.3-0.8-0.8-0.8c-0.3,0-0.6,0.1-0.9,0.4c-0.3,0.3-0.4,0.6-0.5,1.1
		c0,0.3-0.1,0.5-0.1,0.7c0,0.4,0,0.7,0.2,0.9c0.2,0.2,0.4,0.3,0.6,0.3c0.4,0,0.7-0.1,0.9-0.3l0.2-0.9h-0.9l0.1-0.6h1.7L48.9,59z"/>
	<path class="st2" d="M51.1,59.7c-0.3,0-0.5-0.1-0.8-0.2c-0.2-0.2-0.4-0.3-0.5-0.6c-0.1-0.3-0.2-0.5-0.1-0.8v-0.1
		c0-0.3,0.2-0.6,0.3-0.9c0.2-0.3,0.4-0.5,0.6-0.6c0.3-0.2,0.5-0.2,0.8-0.2c0.4,0,0.8,0.2,0.9,0.5c0.2,0.3,0.3,0.7,0.3,1.2l0,0.3
		h-2.1c0,0.3,0,0.5,0.2,0.6c0.1,0.2,0.3,0.3,0.5,0.3c0.3,0,0.6-0.1,0.9-0.4l0.4,0.4c-0.2,0.2-0.3,0.4-0.6,0.5
		C51.6,59.6,51.4,59.7,51.1,59.7z M51.4,56.8c-0.4,0-0.7,0.3-0.9,0.8h1.4l0-0.1c0-0.1,0-0.2,0-0.3c0-0.2-0.1-0.3-0.2-0.3
		C51.6,56.8,51.5,56.8,51.4,56.8z"/>
	<path class="st2" d="M54.9,58.6c0-0.2-0.1-0.3-0.4-0.4c-0.3-0.1-0.5-0.2-0.6-0.2c-0.4-0.2-0.6-0.5-0.6-0.8c0-0.3,0.2-0.5,0.4-0.8
		s0.6-0.3,1-0.3c0.3,0,0.6,0.1,0.9,0.3c0.2,0.2,0.3,0.5,0.3,0.8h-0.8c0-0.2,0-0.3-0.1-0.4c-0.1-0.1-0.2-0.1-0.4-0.2
		c-0.2,0-0.3,0-0.4,0.1C54.1,56.8,54,57,54,57.1c0,0.2,0.1,0.3,0.4,0.4c0.3,0,0.5,0.2,0.7,0.2c0.4,0.2,0.6,0.5,0.6,0.8
		c0,0.2-0.1,0.4-0.2,0.6c-0.1,0.2-0.3,0.3-0.5,0.4c-0.2,0.1-0.5,0.1-0.7,0.1c-0.4,0-0.7-0.1-0.9-0.3c-0.3-0.2-0.4-0.5-0.3-0.8h0.7
		c0,0.2,0,0.3,0.2,0.4c0.1,0.1,0.3,0.2,0.4,0.2c0.2,0,0.3,0,0.5-0.1C54.8,58.9,54.9,58.8,54.9,58.6z"/>
	<path class="st2" d="M57.8,55.4l-0.2,0.8h0.6l-0.1,0.6h-0.6l-0.3,1.9c0,0,0,0.1,0,0.2c0,0.1,0.1,0.2,0.3,0.2c0.1,0,0.2,0,0.3,0
		l0,0.6c-0.2,0-0.3,0.1-0.5,0.1c-0.3,0-0.5-0.1-0.6-0.3s-0.2-0.4-0.2-0.7l0.3-1.9h-0.5l0.1-0.6h0.5l0.2-0.8L57.8,55.4L57.8,55.4z"/>
	<path class="st2" d="M59,59.6h-0.8l0.6-3.4h0.8L59,59.6z M59,55.3c0-0.1,0-0.2,0.1-0.3c0.1-0.1,0.2-0.1,0.3-0.1
		c0.1,0,0.2,0,0.3,0.1c0.1,0,0.1,0.2,0.1,0.3s0,0.2-0.1,0.3c-0.1,0.1-0.2,0.1-0.3,0.1c-0.1,0-0.2,0-0.3-0.1C59,55.5,59,55.5,59,55.3
		z"/>
	<path class="st2" d="M60,57.9c0-0.3,0.1-0.6,0.3-0.9c0.2-0.3,0.4-0.5,0.6-0.6s0.5-0.2,0.8-0.2c0.3,0,0.5,0.1,0.8,0.2
		c0.2,0.2,0.4,0.3,0.5,0.6c0.1,0.3,0.1,0.5,0.1,0.9c0,0.3-0.1,0.7-0.3,0.9c-0.2,0.3-0.4,0.5-0.6,0.6c-0.3,0.2-0.5,0.2-0.8,0.2
		c-0.3,0-0.5-0.1-0.8-0.2c-0.2-0.2-0.4-0.3-0.5-0.6C60,58.6,60,58.3,60,57.9L60,57.9z M60.8,58.3c0,0.2,0.1,0.4,0.2,0.5
		c0.1,0.1,0.3,0.2,0.5,0.2c0.3,0,0.5-0.1,0.6-0.3c0.2-0.2,0.3-0.5,0.3-0.8l0-0.3c0-0.3,0-0.5-0.2-0.6c-0.1-0.2-0.3-0.2-0.5-0.3
		c-0.3,0-0.6,0.2-0.8,0.5c-0.1,0.2-0.2,0.4-0.2,0.7C60.8,58.1,60.8,58.2,60.8,58.3z M62.2,54.8h0.9l-1,0.9h-0.6L62.2,54.8z"/>
	<path class="st2" d="M64.7,56.2l-0.1,0.4c0.3-0.3,0.6-0.5,1-0.5c0.3,0,0.5,0.1,0.7,0.3c0.2,0.2,0.2,0.5,0.2,0.9l-0.4,2.2h-0.8
		l0.4-2.2c0-0.1,0-0.2,0-0.3c0-0.3-0.2-0.4-0.5-0.4c-0.3,0-0.5,0.1-0.8,0.4l-0.4,2.4h-0.8l0.6-3.4L64.7,56.2L64.7,56.2z"/>
	<path class="st2" d="M69.8,58.5l1.1-2.3h0.8l-2,4C69.4,60.7,69,61,68.5,61c-0.1,0-0.3,0-0.4-0.1l0.1-0.6l0.1,0c0.2,0,0.3,0,0.5-0.1
		c0.1-0.1,0.2-0.2,0.3-0.3l0.2-0.3l-0.6-3.3h0.8L69.8,58.5z"/>
	<path class="st2" d="M75.9,58.5h-1.7l-0.5,1.1h-0.8l2.4-4.6h0.7l0.9,4.6h-0.8L75.9,58.5z M74.5,57.9h1.3L75.5,56L74.5,57.9z"/>
	<path class="st2" d="M77.5,57.9c0-0.3,0.1-0.7,0.3-0.9c0.2-0.3,0.3-0.5,0.5-0.6c0.2-0.2,0.5-0.2,0.7-0.2c0.3,0,0.6,0.2,0.8,0.4
		l0.3-1.7h0.8l-0.8,4.8h-0.7l0-0.3c-0.3,0.3-0.6,0.4-0.9,0.4c-0.3,0-0.6-0.1-0.8-0.4c-0.2-0.3-0.3-0.5-0.3-0.9c0-0.1,0-0.3,0-0.4
		L77.5,57.9L77.5,57.9z M78.2,58.2c0,0.3,0,0.5,0.1,0.6s0.3,0.2,0.4,0.2c0.3,0,0.5-0.1,0.8-0.4l0.3-1.5c-0.1-0.3-0.3-0.4-0.6-0.4
		c-0.3,0-0.5,0.1-0.7,0.4C78.3,57.4,78.2,57.8,78.2,58.2z"/>
	<path class="st2" d="M82.2,56.2l-0.1,0.4c0.3-0.3,0.6-0.4,1-0.4c0.2,0,0.4,0,0.5,0.2c0.2,0.1,0.3,0.2,0.3,0.4
		c0.3-0.3,0.7-0.5,1.1-0.5c0.3,0,0.6,0.1,0.8,0.3c0.2,0.2,0.2,0.5,0.2,0.9l-0.4,2.2h-0.8l0.4-2.2c0-0.1,0-0.2,0-0.3
		c0-0.3-0.2-0.4-0.5-0.4c-0.3,0-0.5,0.2-0.7,0.5v0.1l-0.4,2.3h-0.8l0.4-2.2c0-0.1,0-0.2,0-0.3c0-0.3-0.2-0.4-0.5-0.4
		c-0.3,0-0.5,0.1-0.7,0.4l-0.4,2.4h-0.8l0.6-3.4L82.2,56.2z"/>
	<path class="st2" d="M87.1,59.6h-0.8l0.6-3.4h0.8L87.1,59.6z M87.1,55.3c0-0.1,0-0.2,0.1-0.3c0.1-0.1,0.2-0.1,0.3-0.1
		s0.2,0,0.3,0.1c0.1,0,0.1,0.2,0.1,0.3s0,0.2-0.1,0.3s-0.2,0.1-0.3,0.1s-0.2,0-0.3-0.1C87.1,55.5,87.1,55.5,87.1,55.3z"/>
	<path class="st2" d="M89.2,56.2l-0.1,0.4c0.3-0.3,0.6-0.5,1-0.5c0.3,0,0.5,0.1,0.7,0.3c0.2,0.2,0.2,0.5,0.2,0.9l-0.4,2.2h-0.8
		l0.4-2.2c0-0.1,0-0.2,0-0.3c0-0.3-0.2-0.4-0.5-0.4s-0.5,0.1-0.8,0.4l-0.4,2.4h-0.8l0.6-3.4L89.2,56.2L89.2,56.2z"/>
	<path class="st2" d="M92.2,59.6h-0.8l0.6-3.4h0.8L92.2,59.6z M92.2,55.3c0-0.1,0-0.2,0.1-0.3c0.1-0.1,0.2-0.1,0.3-0.1
		c0.1,0,0.2,0,0.3,0.1c0.1,0,0.1,0.2,0.1,0.3s0,0.2-0.1,0.3s-0.2,0.1-0.3,0.1c-0.1,0-0.2,0-0.3-0.1C92.2,55.5,92.2,55.5,92.2,55.3z"
		/>
	<path class="st2" d="M95.1,58.6c0-0.2-0.1-0.3-0.4-0.4c-0.3-0.1-0.5-0.2-0.6-0.2c-0.4-0.2-0.6-0.5-0.6-0.8c0-0.3,0.2-0.5,0.4-0.8
		s0.6-0.3,1-0.3c0.3,0,0.6,0.1,0.9,0.3c0.2,0.2,0.3,0.5,0.3,0.8h-0.8c0-0.2,0-0.3-0.1-0.4c-0.1-0.1-0.2-0.1-0.4-0.2
		c-0.2,0-0.3,0-0.4,0.1c-0.1,0.1-0.2,0.2-0.2,0.3c0,0.2,0.1,0.3,0.4,0.4c0.3,0.1,0.5,0.2,0.7,0.2c0.4,0.2,0.6,0.5,0.6,0.8
		c0,0.2-0.1,0.4-0.2,0.6c-0.1,0.2-0.3,0.3-0.5,0.4c-0.2,0.1-0.5,0.1-0.7,0.1c-0.4,0-0.7-0.1-0.9-0.3c-0.3-0.2-0.4-0.5-0.3-0.8h0.7
		c0,0.2,0,0.3,0.2,0.4c0.1,0.1,0.3,0.2,0.4,0.2s0.3,0,0.5-0.1C95,58.9,95.1,58.8,95.1,58.6z"/>
	<path class="st2" d="M98,55.4l-0.2,0.8h0.6l-0.1,0.6h-0.6l-0.3,1.9c0,0,0,0.1,0,0.2c0,0.1,0.1,0.2,0.3,0.2c0.1,0,0.2,0,0.3,0l0,0.6
		c-0.2,0-0.3,0.1-0.5,0.1c-0.3,0-0.5-0.1-0.6-0.3c-0.1-0.2-0.2-0.4-0.2-0.7l0.3-1.9h-0.5l0.1-0.6H97l0.2-0.8L98,55.4L98,55.4z"/>
	<path class="st2" d="M100.6,56.9c-0.1,0-0.2,0-0.3,0c-0.3,0-0.6,0.1-0.8,0.4l-0.4,2.3h-0.8l0.6-3.4h0.7l-0.1,0.4
		c0.2-0.3,0.5-0.5,0.8-0.5c0.1,0,0.2,0,0.3,0L100.6,56.9z"/>
	<path class="st2" d="M102.5,59.6c0-0.1,0-0.2,0-0.3c-0.3,0.3-0.6,0.4-0.9,0.4s-0.5-0.1-0.7-0.3c-0.2-0.2-0.3-0.4-0.3-0.7
		c0-0.3,0.2-0.6,0.5-0.8c0.3-0.2,0.7-0.3,1.2-0.3h0.5l0-0.2c0-0.1,0-0.2,0-0.2c0-0.2-0.2-0.3-0.5-0.3c-0.2,0-0.3,0-0.4,0.1
		c-0.1,0.1-0.2,0.2-0.2,0.3h-0.8c0-0.2,0.1-0.4,0.2-0.5c0.1-0.2,0.3-0.3,0.5-0.4c0.2-0.1,0.5-0.1,0.7-0.1c0.4,0,0.7,0.1,0.9,0.3
		s0.3,0.5,0.3,0.8l-0.3,1.6l0,0.3c0,0.1,0,0.3,0,0.4v0L102.5,59.6L102.5,59.6z M101.8,59.1c0.2,0,0.3,0,0.5-0.1
		c0.1-0.1,0.3-0.2,0.3-0.3l0.1-0.6h-0.3c-0.3,0-0.5,0-0.7,0.2c-0.2,0.1-0.3,0.3-0.3,0.4c0,0.2,0,0.3,0.1,0.3
		C101.6,59.1,101.6,59.1,101.8,59.1z"/>
	<path class="st2" d="M105.4,59.1c0.2,0,0.3,0,0.5-0.2c0.1-0.1,0.2-0.3,0.3-0.4h0.7c0,0.2-0.1,0.4-0.3,0.6c-0.2,0.2-0.3,0.3-0.5,0.4
		s-0.5,0.2-0.7,0.2c-0.3,0-0.5-0.1-0.8-0.2c-0.2-0.1-0.3-0.3-0.5-0.6s-0.1-0.5-0.1-0.9v-0.1c0-0.3,0.1-0.6,0.3-0.9
		c0.2-0.3,0.3-0.5,0.6-0.6c0.3-0.2,0.5-0.2,0.8-0.2c0.4,0,0.7,0.1,0.9,0.4c0.2,0.2,0.3,0.5,0.3,0.9h-0.7c0-0.2,0-0.3-0.2-0.5
		c-0.1-0.1-0.2-0.2-0.4-0.2c-0.3,0-0.5,0.1-0.7,0.4c-0.2,0.3-0.3,0.6-0.3,1.1C104.8,58.8,105,59.1,105.4,59.1z"/>
	<path class="st2" d="M108,59.6h-0.8l0.6-3.4h0.8L108,59.6z M108,55.3c0-0.1,0-0.2,0.1-0.3c0.1-0.1,0.2-0.1,0.3-0.1
		c0.1,0,0.2,0,0.3,0.1c0.1,0,0.1,0.2,0.1,0.3s0,0.2-0.1,0.3s-0.2,0.1-0.3,0.1c-0.1,0-0.2,0-0.3-0.1C108,55.5,108,55.5,108,55.3z"/>
	<path class="st2" d="M109,57.9c0-0.3,0.1-0.6,0.3-0.9c0.2-0.3,0.4-0.5,0.6-0.6c0.3-0.2,0.5-0.2,0.8-0.2c0.3,0,0.5,0.1,0.8,0.2
		c0.2,0.2,0.4,0.3,0.5,0.6c0.1,0.3,0.1,0.5,0.1,0.9c0,0.3-0.1,0.7-0.3,0.9c-0.2,0.3-0.4,0.5-0.6,0.6c-0.3,0.2-0.5,0.2-0.8,0.2
		c-0.3,0-0.5-0.1-0.8-0.2c-0.2-0.1-0.4-0.3-0.5-0.6C109,58.6,109,58.3,109,57.9L109,57.9z M109.8,58.3c0,0.2,0.1,0.4,0.2,0.5
		c0.1,0.1,0.3,0.2,0.5,0.2c0.3,0,0.5-0.1,0.6-0.3c0.2-0.2,0.3-0.5,0.3-0.8l0-0.3c0-0.3,0-0.5-0.2-0.6c-0.1-0.2-0.3-0.2-0.5-0.3
		c-0.3,0-0.6,0.2-0.8,0.5c-0.1,0.2-0.2,0.4-0.2,0.7C109.8,58.1,109.7,58.2,109.8,58.3z M111.2,54.8h0.9l-1,0.9h-0.6L111.2,54.8z"/>
	<path class="st2" d="M113.7,56.2l-0.1,0.4c0.3-0.3,0.6-0.5,1-0.5c0.3,0,0.5,0.1,0.7,0.3c0.2,0.2,0.2,0.5,0.2,0.9l-0.4,2.2h-0.8
		l0.4-2.2c0-0.1,0-0.2,0-0.3c0-0.3-0.2-0.4-0.5-0.4c-0.3,0-0.5,0.1-0.8,0.4l-0.4,2.4h-0.8l0.6-3.4L113.7,56.2L113.7,56.2z"/>
	<path class="st2" d="M120.2,58.5h-1.7l-0.5,1.1h-0.8l2.4-4.6h0.7l0.9,4.6h-0.8L120.2,58.5z M118.9,57.9h1.3l-0.3-1.9L118.9,57.9z"
		/>
	<path class="st2" d="M123.1,59.1c0.2,0,0.3,0,0.5-0.2s0.2-0.3,0.3-0.4h0.7c0,0.2-0.1,0.4-0.3,0.6c-0.2,0.2-0.3,0.3-0.5,0.4
		s-0.5,0.2-0.7,0.2c-0.3,0-0.5-0.1-0.8-0.2c-0.2-0.2-0.3-0.3-0.5-0.6c-0.1-0.3-0.1-0.5-0.1-0.9v-0.1c0-0.3,0.1-0.6,0.3-0.9
		c0.2-0.3,0.3-0.5,0.6-0.6c0.3-0.2,0.5-0.2,0.8-0.2c0.4,0,0.7,0.1,0.9,0.4c0.2,0.2,0.3,0.5,0.3,0.9H124c0-0.2,0-0.3-0.2-0.5
		c-0.1-0.1-0.2-0.2-0.4-0.2c-0.3,0-0.5,0.1-0.7,0.4c-0.2,0.3-0.3,0.6-0.3,1.1C122.5,58.8,122.7,59.1,123.1,59.1z"/>
	<path class="st2" d="M127,59.6c0-0.1,0-0.2,0-0.3c-0.3,0.3-0.6,0.4-0.9,0.4s-0.5-0.1-0.7-0.3c-0.2-0.2-0.3-0.4-0.3-0.7
		c0-0.3,0.2-0.6,0.5-0.8c0.3-0.2,0.7-0.3,1.2-0.3h0.5l0-0.2c0-0.1,0-0.2,0-0.2c0-0.2-0.2-0.3-0.5-0.3c-0.2,0-0.3,0-0.4,0.1
		c-0.1,0.1-0.2,0.2-0.2,0.3h-0.8c0-0.2,0.1-0.4,0.2-0.5c0.1-0.2,0.3-0.3,0.5-0.4c0.2-0.1,0.5-0.1,0.7-0.1c0.4,0,0.7,0.1,0.9,0.3
		s0.3,0.5,0.3,0.8l-0.3,1.6l0,0.3c0,0.1,0,0.3,0,0.4v0L127,59.6L127,59.6z M126.2,59.1c0.2,0,0.3,0,0.5-0.1c0.1-0.1,0.3-0.2,0.3-0.3
		l0.1-0.6h-0.3c-0.3,0-0.5,0-0.7,0.2c-0.2,0.1-0.3,0.3-0.3,0.4c0,0.2,0,0.3,0.1,0.3C126,59.1,126,59.1,126.2,59.1z"/>
	<path class="st2" d="M128.5,57.9c0-0.3,0.1-0.7,0.3-0.9c0.2-0.3,0.3-0.5,0.5-0.6c0.2-0.2,0.5-0.2,0.7-0.2c0.3,0,0.6,0.2,0.8,0.4
		l0.3-1.7h0.8l-0.8,4.8h-0.6l0-0.3c-0.3,0.3-0.6,0.4-0.9,0.4c-0.3,0-0.6-0.1-0.8-0.4c-0.2-0.3-0.3-0.5-0.3-0.9c0-0.1,0-0.3,0-0.4
		L128.5,57.9z M129.2,58.2c0,0.3,0,0.5,0.1,0.6c0.1,0.2,0.3,0.2,0.4,0.2c0.3,0,0.5-0.1,0.8-0.4l0.3-1.5c-0.1-0.3-0.3-0.4-0.6-0.4
		c-0.3,0-0.5,0.1-0.7,0.4C129.4,57.4,129.3,57.8,129.2,58.2z"/>
	<path class="st2" d="M133.4,59.7c-0.3,0-0.5-0.1-0.8-0.2c-0.2-0.2-0.4-0.3-0.5-0.6c-0.1-0.3-0.2-0.5-0.1-0.8v-0.1
		c0-0.3,0.2-0.6,0.3-0.9c0.2-0.3,0.4-0.5,0.6-0.6c0.3-0.2,0.5-0.2,0.8-0.2c0.4,0,0.8,0.2,0.9,0.5c0.2,0.3,0.3,0.7,0.3,1.2l0,0.3
		h-2.1c0,0.3,0,0.5,0.2,0.6c0.1,0.2,0.3,0.3,0.5,0.3c0.3,0,0.6-0.1,0.9-0.4l0.4,0.4c-0.2,0.2-0.3,0.4-0.6,0.5
		C134,59.6,133.7,59.7,133.4,59.7z M133.7,56.8c-0.4,0-0.7,0.3-0.9,0.8h1.4l0-0.1c0-0.1,0-0.2,0-0.3c0-0.2-0.1-0.3-0.2-0.3
		C134,56.8,133.9,56.8,133.7,56.8z M134.2,54.8h0.9l-1,0.9h-0.6L134.2,54.8z"/>
	<path class="st2" d="M136.5,56.2l-0.1,0.4c0.3-0.3,0.6-0.4,1-0.4c0.2,0,0.4,0,0.5,0.2c0.2,0.1,0.3,0.2,0.3,0.4
		c0.3-0.3,0.7-0.5,1.1-0.5c0.3,0,0.6,0.1,0.8,0.3c0.2,0.2,0.2,0.5,0.2,0.9l-0.4,2.2h-0.8l0.4-2.2c0-0.1,0-0.2,0-0.3
		c0-0.3-0.2-0.4-0.5-0.4c-0.3,0-0.5,0.2-0.7,0.5v0.1l-0.4,2.3h-0.8l0.4-2.2c0-0.1,0-0.2,0-0.3c0-0.3-0.2-0.4-0.5-0.4
		c-0.3,0-0.5,0.1-0.7,0.4l-0.4,2.4h-0.8l0.6-3.4L136.5,56.2z"/>
	<path class="st2" d="M141.5,59.6h-0.8l0.6-3.4h0.8L141.5,59.6z M141.5,55.3c0-0.1,0-0.2,0.1-0.3c0.1-0.1,0.2-0.1,0.3-0.1
		c0.1,0,0.2,0,0.3,0.1c0.1,0,0.1,0.2,0.1,0.3s0,0.2-0.1,0.3s-0.2,0.1-0.3,0.1c-0.1,0-0.2,0-0.3-0.1
		C141.5,55.5,141.5,55.5,141.5,55.3z"/>
	<path class="st2" d="M143.8,59.1c0.2,0,0.3,0,0.5-0.2c0.1-0.1,0.2-0.3,0.3-0.4h0.7c0,0.2-0.1,0.4-0.3,0.6c-0.2,0.2-0.3,0.3-0.5,0.4
		c-0.2,0.1-0.5,0.2-0.7,0.2c-0.3,0-0.5-0.1-0.8-0.2c-0.2-0.2-0.3-0.3-0.5-0.6c-0.1-0.3-0.1-0.5-0.1-0.9v-0.1c0-0.3,0.1-0.6,0.3-0.9
		c0.2-0.3,0.3-0.5,0.6-0.6c0.3-0.2,0.5-0.2,0.8-0.2c0.4,0,0.7,0.1,0.9,0.4c0.2,0.2,0.3,0.5,0.3,0.9h-0.7c0-0.2,0-0.3-0.2-0.5
		c-0.1-0.1-0.2-0.2-0.4-0.2c-0.3,0-0.5,0.1-0.7,0.4c-0.2,0.3-0.3,0.6-0.3,1.1C143.2,58.8,143.4,59.1,143.8,59.1z"/>
	<path class="st2" d="M147.6,59.6c0-0.1,0-0.2,0-0.3c-0.3,0.3-0.6,0.4-0.9,0.4s-0.5-0.1-0.7-0.3c-0.2-0.2-0.3-0.4-0.3-0.7
		c0-0.3,0.2-0.6,0.5-0.8c0.3-0.2,0.7-0.3,1.2-0.3h0.5l0-0.2c0-0.1,0-0.2,0-0.2c0-0.2-0.2-0.3-0.5-0.3c-0.2,0-0.3,0-0.4,0.1
		c-0.1,0.1-0.2,0.2-0.2,0.3H146c0-0.2,0.1-0.4,0.2-0.5s0.3-0.3,0.5-0.4c0.2-0.1,0.5-0.1,0.7-0.1c0.4,0,0.7,0.1,0.9,0.3
		c0.2,0.2,0.3,0.5,0.3,0.8l-0.3,1.6l0,0.3c0,0.1,0,0.3,0,0.4v0L147.6,59.6L147.6,59.6z M146.9,59.1c0.2,0,0.3,0,0.5-0.1
		c0.1-0.1,0.3-0.2,0.3-0.3l0.1-0.6h-0.3c-0.3,0-0.5,0-0.7,0.2c-0.2,0.1-0.3,0.3-0.3,0.4c0,0.2,0,0.3,0.1,0.3
		C146.7,59.1,146.8,59.1,146.9,59.1z"/>
	<path class="st2" d="M149.2,59.2c0-0.1,0-0.2,0.1-0.3c0.1-0.1,0.2-0.1,0.3-0.1c0.1,0,0.2,0,0.3,0.1c0.1,0,0.1,0.2,0.1,0.3
		c0,0.1,0,0.2-0.1,0.3c-0.1,0.1-0.2,0.1-0.3,0.1c-0.1,0-0.2,0-0.3-0.1C149.2,59.4,149.2,59.4,149.2,59.2z"/>
</g>
<path class="st3" d="M21.3,35.2c-10.5,0-14.4-4.7-11.9-14.2c2.5-9.3,9-14,19.4-14h20.4l-3.4,12.6H25.5c-2.1,0-3.3,0.5-3.5,1.4
	c-0.3,1.1,0.6,1.7,2.7,1.7H34c10.5,0,14.5,4.7,12,14c-2.6,9.5-9.1,14.2-19.5,14.2H6l3.4-12.6h20.4c2.1,0,3.3-0.6,3.6-1.7
	c0.3-1-0.7-1.4-2.8-1.4H21.3z"/>
<path class="st3" d="M73.3,38.3l3.4-12.6h12.6l-6.7,25.1H65.3c-6.1,0-10.7-2.1-13.8-6.4c-3.2-4.3-3.9-9.5-2.3-15.6
	c1.6-6.1,5.1-11.2,10.6-15.6C65.2,9,70.9,6.9,77,6.9h14.1l-3.4,12.6H73.7c-2.6,0-5,0.9-7.4,2.8c-2.4,1.8-3.9,4.1-4.5,6.6
	c-0.7,2.6-0.4,4.8,1,6.6c1.3,1.8,3.3,2.8,5.9,2.8H73.3L73.3,38.3z"/>
<path class="st3" d="M99.6,44.5l-3.9,6.3H83.1l27.5-44h15.7l3.9,44h-12.6l-0.6-6.3H99.6L99.6,44.5z M114.9,20.1L107.4,32h8.5
	L114.9,20.1z"/>
<polygon class="st3" points="149.6,50.8 137.9,50.8 139.9,34.1 123.2,34.1 124.7,22.4 152.8,22.4 "/>
</svg>
