<?xml version="1.0" encoding="utf-8"?>
<!-- Generator: Adobe Illustrator 24.0.0, SVG Export Plug-In . SVG Version: 6.00 Build 0)  -->
<svg version="1.1" id="Capa_1" xmlns="http://www.w3.org/2000/svg" xmlns:xlink="http://www.w3.org/1999/xlink" x="0px" y="0px"
	 viewBox="0 0 176 53" style="enable-background:new 0 0 176 53;" xml:space="preserve">
<style type="text/css">
	.st0{fill:#1C3247;}
	.st1{fill:url(#SVGID_1_);}
	.st2{fill:url(#SVGID_2_);}
	.st3{fill:url(#SVGID_3_);}
	.st4{fill:url(#SVGID_4_);}
	.st5{fill:#808080;}
</style>
<path class="st0" d="M17.1,25.7c-7.3,0-10-3.3-8.3-9.9C10.6,9.3,15.1,6,22.4,6h14.2l-2.3,8.7H20.1c-1.5,0-2.3,0.3-2.4,1
	c-0.2,0.8,0.4,1.2,1.9,1.2H26c7.3,0,10.1,3.3,8.3,9.8c-1.8,6.6-6.3,9.9-13.6,9.9H6.6l2.3-8.7h14.2c1.5,0,2.3-0.4,2.5-1.2
	c0.2-0.7-0.5-1-1.9-1H17.1z"/>
<path class="st0" d="M42,32.2l-2.7,4.4h-8.7L49.6,6h10.9l2.7,30.6h-8.7l-0.4-4.4H42z M52.6,15.2l-5.2,8.3h5.9L52.6,15.2z"/>
<linearGradient id="SVGID_1_" gradientUnits="userSpaceOnUse" x1="85.866" y1="25.1431" x2="167.0036" y2="107.0497">
	<stop  offset="0" style="stop-color:#FE9900"/>
	<stop  offset="1" style="stop-color:#FC4600"/>
</linearGradient>
<path class="st1" d="M81.3,27.9l2.3-8.7h8.7l-4.7,17.5h-12c-4.2,0-7.4-1.5-9.6-4.5c-2.2-3-2.7-6.6-1.6-10.8
	c1.1-4.2,3.6-7.8,7.4-10.8c3.8-3,7.8-4.5,12-4.5h9.8l-2.3,8.7h-9.8c-1.8,0-3.5,0.6-5.1,1.9c-1.6,1.3-2.7,2.8-3.2,4.6
	c-0.5,1.8-0.3,3.4,0.7,4.6c0.9,1.3,2.3,1.9,4.1,1.9H81.3z"/>
<linearGradient id="SVGID_2_" gradientUnits="userSpaceOnUse" x1="97.4821" y1="13.6361" x2="178.6197" y2="95.5427">
	<stop  offset="0" style="stop-color:#FE9900"/>
	<stop  offset="1" style="stop-color:#FC4600"/>
</linearGradient>
<path class="st2" d="M120.1,6l-2.3,8.7h-13.1l-0.6,2.2H115l-2.3,8.7h-10.9l-0.6,2.2h13.1l-2.3,8.7H90L98.2,6H120.1z"/>
<linearGradient id="SVGID_3_" gradientUnits="userSpaceOnUse" x1="110.5046" y1="0.7358" x2="191.6422" y2="82.6425">
	<stop  offset="0" style="stop-color:#FE9900"/>
	<stop  offset="1" style="stop-color:#FC4600"/>
</linearGradient>
<path class="st3" d="M126.4,25.7c-7.3,0-10-3.3-8.3-9.9c1.7-6.5,6.2-9.8,13.5-9.8h20.7l-2.3,8.7h-20.7c-1.5,0-2.3,0.3-2.4,1
	c-0.2,0.8,0.4,1.2,1.9,1.2h6.6c7.3,0,10.1,3.3,8.3,9.8c-1.8,6.6-6.3,9.9-13.6,9.9h-20.7l2.3-8.7h20.7c1.5,0,2.3-0.4,2.5-1.2
	c0.2-0.7-0.5-1-1.9-1H126.4z"/>
<linearGradient id="SVGID_4_" gradientUnits="userSpaceOnUse" x1="125.05" y1="-13.673" x2="206.1876" y2="68.2337">
	<stop  offset="0" style="stop-color:#FE9900"/>
	<stop  offset="1" style="stop-color:#FC4600"/>
</linearGradient>
<path class="st4" d="M156.1,36.6h-8.7l5.9-21.9h-7.7l2.3-8.7H172l-2.3,8.7H162L156.1,36.6z"/>
<g>
	<path class="st5" d="M38.6,47.6c-0.3,0.4-0.8,0.7-1.3,0.9c-0.6,0.2-1.2,0.3-1.9,0.3c-0.6,0-1.1-0.1-1.5-0.4c-0.4-0.3-0.8-0.6-1-1.1
		c-0.3-0.5-0.4-1-0.4-1.7c0-0.5,0-1.1,0.1-1.8c0.1-0.7,0.4-1.4,0.7-2c0.3-0.6,0.7-1,1.2-1.4c0.6-0.4,1.4-0.7,2.2-0.6
		c0.9,0,1.6,0.3,2,0.8c0.5,0.5,0.8,1.2,0.8,2l-1.4,0c-0.1-1-0.6-1.5-1.5-1.6c-0.7,0-1.2,0.2-1.7,0.7c-0.4,0.5-0.7,1.2-0.9,2.1
		c-0.1,0.5-0.1,1-0.1,1.3c0,0.7,0.1,1.3,0.4,1.7c0.3,0.4,0.7,0.6,1.2,0.6c0.7,0,1.3-0.2,1.7-0.5l0.3-1.7h-1.7l0.2-1.1h3.2L38.6,47.6
		z"/>
	<path class="st5" d="M42.8,48.8c-0.6,0-1-0.2-1.5-0.4c-0.4-0.3-0.7-0.6-0.9-1.1s-0.3-1-0.2-1.6l0-0.2c0.1-0.7,0.3-1.2,0.6-1.8
		c0.3-0.5,0.7-0.9,1.2-1.2c0.5-0.3,1-0.4,1.5-0.4c0.8,0,1.4,0.3,1.8,0.9c0.4,0.6,0.6,1.3,0.5,2.3L45.7,46h-4.1
		c0,0.5,0.1,0.9,0.3,1.2c0.2,0.3,0.6,0.5,1,0.5c0.6,0,1.2-0.2,1.7-0.8l0.7,0.8c-0.3,0.4-0.6,0.7-1.1,0.9
		C43.8,48.8,43.3,48.9,42.8,48.8z M43.4,43.3c-0.7,0-1.3,0.5-1.7,1.6l2.7,0l0-0.1c0-0.2,0-0.4,0-0.5c0-0.3-0.2-0.5-0.3-0.7
		C43.9,43.4,43.7,43.3,43.4,43.3z"/>
	<path class="st5" d="M50.2,46.9c0.1-0.4-0.2-0.7-0.8-0.8c-0.6-0.2-1-0.3-1.2-0.4c-0.8-0.4-1.2-0.9-1.2-1.6c0-0.6,0.3-1.1,0.8-1.4
		c0.5-0.4,1.1-0.6,1.8-0.6c0.7,0,1.2,0.2,1.7,0.6c0.4,0.4,0.6,0.9,0.6,1.5l-1.4,0c0-0.3-0.1-0.5-0.2-0.7c-0.2-0.2-0.4-0.3-0.7-0.3
		c-0.3,0-0.6,0.1-0.8,0.2c-0.2,0.2-0.4,0.4-0.4,0.6c-0.1,0.4,0.2,0.6,0.8,0.8c0.6,0.1,1,0.3,1.3,0.4c0.8,0.3,1.2,0.9,1.1,1.6
		c0,0.4-0.2,0.8-0.4,1.1c-0.2,0.3-0.6,0.5-1,0.7c-0.4,0.2-0.9,0.2-1.3,0.2c-0.7,0-1.3-0.2-1.8-0.6c-0.5-0.4-0.7-0.9-0.7-1.5l1.4,0
		c0,0.3,0.1,0.6,0.3,0.8c0.2,0.2,0.5,0.3,0.8,0.3c0.4,0,0.6-0.1,0.9-0.2C50,47.4,50.1,47.2,50.2,46.9z"/>
	<path class="st5" d="M55.6,40.7l-0.3,1.6h1.1l-0.2,1.1h-1.1L54.6,47c0,0.1,0,0.2,0,0.3c0,0.3,0.2,0.4,0.5,0.4c0.1,0,0.3,0,0.5-0.1
		l-0.1,1.1c-0.3,0.1-0.6,0.1-0.9,0.1c-0.5,0-0.9-0.2-1.1-0.5c-0.2-0.3-0.3-0.8-0.3-1.3l0.6-3.7h-1l0.2-1.1h1l0.3-1.6H55.6z"/>
	<path class="st5" d="M58,48.7h-1.4l1.1-6.5h1.4L58,48.7z M57.9,40.6c0-0.2,0.1-0.4,0.2-0.6c0.1-0.2,0.3-0.2,0.6-0.2
		c0.2,0,0.4,0.1,0.6,0.2c0.2,0.1,0.2,0.3,0.2,0.5c0,0.2-0.1,0.4-0.2,0.6c-0.1,0.1-0.3,0.2-0.6,0.2c-0.2,0-0.4-0.1-0.6-0.2
		C58,41,57.9,40.8,57.9,40.6z"/>
	<path class="st5" d="M59.9,45.5c0.1-0.6,0.3-1.2,0.6-1.7c0.3-0.5,0.7-0.9,1.2-1.2c0.5-0.3,1-0.4,1.6-0.4c0.6,0,1,0.2,1.4,0.4
		c0.4,0.3,0.7,0.7,0.9,1.2s0.2,1.1,0.2,1.7c-0.1,0.7-0.2,1.3-0.6,1.8c-0.3,0.5-0.7,0.9-1.2,1.2c-0.5,0.3-1,0.4-1.6,0.4
		c-0.5,0-1-0.2-1.4-0.4c-0.4-0.3-0.7-0.7-0.9-1.2c-0.2-0.5-0.3-1-0.2-1.6L59.9,45.5z M61.3,46.3c0,0.4,0.1,0.8,0.3,1
		c0.2,0.3,0.5,0.4,0.8,0.4c0.5,0,0.9-0.2,1.2-0.6c0.3-0.4,0.5-0.9,0.6-1.6l0-0.6c0-0.5-0.1-0.9-0.3-1.2c-0.2-0.3-0.5-0.4-0.9-0.5
		c-0.6,0-1.1,0.3-1.4,0.9c-0.2,0.4-0.3,0.8-0.4,1.3C61.3,45.8,61.3,46.1,61.3,46.3z M64.1,39.6h1.7l-1.9,1.8l-1.2,0L64.1,39.6z"/>
	<path class="st5" d="M68.8,42.3L68.7,43c0.6-0.6,1.2-0.9,1.9-0.9c0.6,0,1.1,0.2,1.3,0.6c0.3,0.4,0.4,1,0.3,1.8l-0.7,4.2h-1.4
		l0.7-4.2c0-0.2,0-0.3,0-0.5c-0.1-0.5-0.3-0.7-0.8-0.7c-0.5,0-1,0.3-1.4,0.8l-0.8,4.6h-1.4l1.1-6.5L68.8,42.3z"/>
	<path class="st5" d="M81.3,46.7H78l-1,2h-1.6l4.7-8.7h1.3l1.7,8.7h-1.5L81.3,46.7z M78.7,45.5h2.4l-0.6-3.6L78.7,45.5z"/>
	<path class="st5" d="M84.3,45.5c0.1-0.7,0.3-1.3,0.5-1.8c0.3-0.5,0.6-0.9,1-1.2s0.9-0.4,1.4-0.4c0.7,0,1.2,0.3,1.5,0.7l0.6-3.3h1.4
		l-1.6,9.2H88l0.1-0.7c-0.5,0.5-1.1,0.8-1.8,0.8c-0.6,0-1.1-0.2-1.4-0.7c-0.4-0.5-0.6-1.1-0.6-1.8c0-0.2,0-0.5,0-0.7L84.3,45.5z
		 M85.7,46c0,0.5,0,0.9,0.2,1.2c0.2,0.3,0.5,0.4,0.8,0.4c0.5,0,1-0.2,1.4-0.8l0.5-2.8c-0.2-0.5-0.5-0.8-1.1-0.8
		c-0.5,0-1,0.2-1.3,0.7C85.9,44.5,85.7,45.2,85.7,46z"/>
	<path class="st5" d="M93.2,42.3l-0.1,0.7c0.5-0.5,1.2-0.8,1.9-0.8c0.4,0,0.7,0.1,1,0.3c0.3,0.2,0.5,0.4,0.5,0.7
		c0.6-0.7,1.3-1,2.1-1c0.6,0,1.1,0.2,1.4,0.6c0.3,0.4,0.4,1,0.3,1.7l-0.7,4.2h-1.4l0.7-4.2c0-0.2,0-0.3,0-0.5
		c-0.1-0.5-0.4-0.7-0.9-0.7c-0.6,0-1,0.3-1.4,1l0,0.1l-0.7,4.3h-1.4l0.7-4.2c0-0.2,0-0.3,0-0.5c-0.1-0.5-0.4-0.7-0.9-0.7
		c-0.5,0-1,0.2-1.3,0.7l-0.8,4.7h-1.4l1.1-6.5L93.2,42.3z"/>
	<path class="st5" d="M102.6,48.7h-1.4l1.1-6.5h1.4L102.6,48.7z M102.6,40.6c0-0.2,0.1-0.4,0.2-0.6c0.1-0.2,0.3-0.2,0.6-0.2
		c0.2,0,0.4,0.1,0.6,0.2c0.2,0.1,0.2,0.3,0.2,0.5c0,0.2-0.1,0.4-0.2,0.6c-0.1,0.1-0.3,0.2-0.6,0.2c-0.2,0-0.4-0.1-0.6-0.2
		C102.6,41,102.6,40.8,102.6,40.6z"/>
	<path class="st5" d="M106.7,42.3l-0.1,0.8c0.6-0.6,1.2-0.9,1.9-0.9c0.6,0,1.1,0.2,1.3,0.6c0.3,0.4,0.4,1,0.3,1.8l-0.7,4.2H108
		l0.7-4.2c0-0.2,0-0.3,0-0.5c-0.1-0.5-0.3-0.7-0.8-0.7c-0.5,0-1,0.3-1.4,0.8l-0.8,4.6h-1.4l1.1-6.5L106.7,42.3z"/>
	<path class="st5" d="M112.4,48.7H111l1.1-6.5h1.4L112.4,48.7z M112.3,40.6c0-0.2,0.1-0.4,0.2-0.6c0.1-0.2,0.3-0.2,0.6-0.2
		c0.2,0,0.4,0.1,0.6,0.2c0.2,0.1,0.2,0.3,0.2,0.5c0,0.2-0.1,0.4-0.2,0.6c-0.1,0.1-0.3,0.2-0.6,0.2c-0.2,0-0.4-0.1-0.6-0.2
		C112.4,41,112.3,40.8,112.3,40.6z"/>
	<path class="st5" d="M117.8,46.9c0.1-0.4-0.2-0.7-0.8-0.8c-0.6-0.2-1-0.3-1.2-0.4c-0.8-0.4-1.2-0.9-1.2-1.6c0-0.6,0.3-1.1,0.8-1.4
		c0.5-0.4,1.1-0.6,1.8-0.6c0.7,0,1.2,0.2,1.7,0.6c0.4,0.4,0.6,0.9,0.6,1.5l-1.4,0c0-0.3-0.1-0.5-0.2-0.7c-0.2-0.2-0.4-0.3-0.7-0.3
		c-0.3,0-0.6,0.1-0.8,0.2c-0.2,0.2-0.4,0.4-0.4,0.6c-0.1,0.4,0.2,0.6,0.8,0.8c0.6,0.1,1,0.3,1.3,0.4c0.8,0.3,1.2,0.9,1.1,1.6
		c0,0.4-0.2,0.8-0.4,1.1c-0.2,0.3-0.6,0.5-1,0.7c-0.4,0.2-0.9,0.2-1.3,0.2c-0.7,0-1.3-0.2-1.8-0.6c-0.5-0.4-0.7-0.9-0.7-1.5l1.4,0
		c0,0.3,0.1,0.6,0.3,0.8c0.2,0.2,0.5,0.3,0.8,0.3c0.4,0,0.6-0.1,0.9-0.2C117.7,47.4,117.8,47.2,117.8,46.9z"/>
	<path class="st5" d="M123.3,40.7l-0.3,1.6h1.1l-0.2,1.1h-1.1l-0.6,3.6c0,0.1,0,0.2,0,0.3c0,0.3,0.2,0.4,0.5,0.4
		c0.1,0,0.3,0,0.5-0.1l-0.1,1.1c-0.3,0.1-0.6,0.1-0.9,0.1c-0.5,0-0.9-0.2-1.1-0.5c-0.2-0.3-0.3-0.8-0.3-1.3l0.6-3.7h-1l0.2-1.1h1
		l0.3-1.6H123.3z"/>
	<path class="st5" d="M128.4,43.6c-0.2,0-0.4-0.1-0.6-0.1c-0.6,0-1.1,0.2-1.5,0.8l-0.8,4.4h-1.4l1.1-6.5l1.3,0l-0.1,0.7
		c0.4-0.6,1-0.9,1.5-0.9c0.1,0,0.3,0,0.5,0.1L128.4,43.6z"/>
	<path class="st5" d="M132,48.7c0-0.2-0.1-0.4-0.1-0.6c-0.5,0.5-1.1,0.7-1.7,0.7c-0.6,0-1-0.2-1.4-0.5c-0.4-0.4-0.5-0.8-0.5-1.3
		c0-0.7,0.3-1.2,0.9-1.6c0.6-0.4,1.3-0.6,2.2-0.6l0.9,0l0.1-0.4c0-0.2,0-0.3,0-0.4c-0.1-0.4-0.4-0.7-0.9-0.7c-0.3,0-0.6,0.1-0.8,0.2
		c-0.2,0.2-0.4,0.4-0.4,0.6l-1.4,0c0-0.4,0.2-0.7,0.4-1c0.3-0.3,0.6-0.5,1-0.7c0.4-0.2,0.9-0.2,1.3-0.2c0.7,0,1.3,0.2,1.6,0.6
		c0.4,0.4,0.6,0.9,0.5,1.6l-0.5,3l0,0.5c0,0.2,0,0.5,0.1,0.7l0,0.1H132z M130.6,47.7c0.3,0,0.6-0.1,0.8-0.2c0.3-0.1,0.5-0.3,0.7-0.6
		l0.2-1.2l-0.7,0c-0.5,0-1,0.1-1.3,0.3c-0.3,0.2-0.5,0.5-0.5,0.8c0,0.3,0,0.5,0.2,0.6C130.1,47.6,130.3,47.7,130.6,47.7z"/>
	<path class="st5" d="M137.9,40.7l-0.3,1.6h1.1l-0.2,1.1h-1.1l-0.6,3.6c0,0.1,0,0.2,0,0.3c0,0.3,0.2,0.4,0.5,0.4
		c0.1,0,0.3,0,0.5-0.1l-0.1,1.1c-0.3,0.1-0.6,0.1-0.9,0.1c-0.5,0-0.9-0.2-1.1-0.5c-0.2-0.3-0.3-0.8-0.3-1.3l0.6-3.7h-1l0.2-1.1h1
		l0.3-1.6H137.9z"/>
	<path class="st5" d="M140.2,48.7h-1.4l1.1-6.5h1.4L140.2,48.7z M140.1,40.6c0-0.2,0.1-0.4,0.2-0.6c0.1-0.2,0.3-0.2,0.6-0.2
		c0.2,0,0.4,0.1,0.6,0.2c0.2,0.1,0.2,0.3,0.2,0.5c0,0.2-0.1,0.4-0.2,0.6c-0.1,0.1-0.3,0.2-0.6,0.2c-0.2,0-0.4-0.1-0.6-0.2
		C140.2,41,140.1,40.8,140.1,40.6z"/>
	<path class="st5" d="M144.3,46.9l2-4.6h1.5l-3.2,6.5h-1.2l-1.2-6.5h1.4L144.3,46.9z"/>
	<path class="st5" d="M151.5,48.7c0-0.2-0.1-0.4-0.1-0.6c-0.5,0.5-1.1,0.7-1.7,0.7c-0.6,0-1-0.2-1.4-0.5c-0.4-0.4-0.5-0.8-0.5-1.3
		c0-0.7,0.3-1.2,0.9-1.6c0.6-0.4,1.3-0.6,2.2-0.6l0.9,0l0.1-0.4c0-0.2,0-0.3,0-0.4c-0.1-0.4-0.4-0.7-0.9-0.7c-0.3,0-0.6,0.1-0.8,0.2
		c-0.2,0.2-0.4,0.4-0.4,0.6l-1.4,0c0-0.4,0.2-0.7,0.4-1c0.3-0.3,0.6-0.5,1-0.7c0.4-0.2,0.9-0.2,1.3-0.2c0.7,0,1.3,0.2,1.6,0.6
		c0.4,0.4,0.6,0.9,0.5,1.6l-0.5,3l0,0.5c0,0.2,0,0.5,0.1,0.7l0,0.1H151.5z M150,47.7c0.3,0,0.6-0.1,0.8-0.2c0.3-0.1,0.5-0.3,0.7-0.6
		l0.2-1.2l-0.7,0c-0.5,0-1,0.1-1.3,0.3c-0.3,0.2-0.5,0.5-0.5,0.8c0,0.3,0,0.5,0.2,0.6C149.5,47.6,149.7,47.7,150,47.7z"/>
</g>
</svg>
