<svg xmlns="http://www.w3.org/2000/svg" xmlns:xlink="http://www.w3.org/1999/xlink" width="67.031" height="67.002" viewBox="0 0 67.031 67.002">
  <defs>
    <clipPath id="clip-path">
      <rect id="Rectángulo_71" data-name="Rectángulo 71" width="67.031" height="67.002" fill="#fe9900"/>
    </clipPath>
  </defs>
  <g id="Grupo_8729" data-name="Grupo 8729" transform="translate(0 0)">
    <g id="Grupo_8728" data-name="Grupo 8728" transform="translate(0 0)" clip-path="url(#clip-path)">
      <path id="Trazado_4805" data-name="Trazado 4805" d="M52.672,13.582c-3-1.094-5.969-2.179-8.939-3.26-4.792-1.745-9.584-3.5-14.385-5.219a1.781,1.781,0,0,0-1.123-.026c-7.583,2.737-15.157,5.506-22.74,8.247a.879.879,0,0,0-.7,1c.026,5.235,0,10.47.019,15.7A33.548,33.548,0,0,0,27.252,61.7a3.651,3.651,0,0,0,2.992-.051,20.493,20.493,0,0,1,2.846-1.1,2.352,2.352,0,0,1,2.967,1.461,2.313,2.313,0,0,1-1.365,3.005c-1.707.689-3.442,1.308-5.191,1.879a2.663,2.663,0,0,1-1.531-.006Q5.124,59.657.527,36.127a34.947,34.947,0,0,1-.491-6.25c-.064-5.832-.022-11.667-.022-17.5A2.539,2.539,0,0,1,2.058,9.492Q14.72,4.888,27.379.269A3.585,3.585,0,0,1,29.986.224Q42.71,4.89,55.447,9.5a2.514,2.514,0,0,1,2.01,2.836q0,9.274,0,18.548a2.379,2.379,0,0,1-3.5,2.265A2.445,2.445,0,0,1,52.665,30.8q.019-8.15.006-16.3Z" transform="translate(0 -0.001)" fill="#fe9900"/>
      <path id="Trazado_4806" data-name="Trazado 4806" d="M26.385,11.983A14.357,14.357,0,1,1,12.01,26.25,14.373,14.373,0,0,1,26.385,11.983M35.94,26.342a9.572,9.572,0,1,0-9.555,9.571,9.581,9.581,0,0,0,9.555-9.571" transform="translate(26.305 26.245)" fill="#fe9900"/>
      <path id="Trazado_4807" data-name="Trazado 4807" d="M27.368,21.83c1.1.833,2.227,1.57,3.2,2.469a2.407,2.407,0,1,1-3.43,3.312,4.711,4.711,0,0,0-3.589-1.547c-3.117,0-6.231-.006-9.347,0a4.776,4.776,0,0,0-4.919,4.9c-.006.75.013,1.5-.006,2.243a2.4,2.4,0,0,1-2.418,2.421,2.365,2.365,0,0,1-2.351-2.4,24.5,24.5,0,0,1,.242-4.39A9.111,9.111,0,0,1,9.825,22.29c.175-.089.348-.179.593-.3a10.769,10.769,0,0,1-1.988-9.513,10.4,10.4,0,0,1,4.1-5.975A10.78,10.78,0,0,1,27.368,21.83m-8.5-.555a5.98,5.98,0,1,0-5.995-5.908,5.985,5.985,0,0,0,5.995,5.908" transform="translate(9.878 9.772)" fill="#fe9900"/>
      <path id="Trazado_4808" data-name="Trazado 4808" d="M19.381,18.809c1.037-1.037,1.988-1.984,2.938-2.929a2.411,2.411,0,1,1,3.41,3.372q-2.211,2.225-4.441,4.438a2.392,2.392,0,0,1-3.729,0c-.724-.718-1.455-1.436-2.163-2.166a2.395,2.395,0,1,1,3.382-3.388c.195.191.364.408.6.676" transform="translate(32.049 32.815)" fill="#fe9900"/>
    </g>
  </g>
</svg>
