<svg id="Grupo_8731" data-name="Grupo 8731" xmlns="http://www.w3.org/2000/svg" xmlns:xlink="http://www.w3.org/1999/xlink" width="77" height="77" viewBox="0 0 77 77">
  <defs>
    <clipPath id="clip-path">
      <rect id="Rectángulo_72" data-name="Rectángulo 72" width="77" height="77" transform="translate(0 0)" fill="#fe9900"/>
    </clipPath>
  </defs>
  <g id="Grupo_8730" data-name="Grupo 8730" clip-path="url(#clip-path)">
    <path id="Trazado_4809" data-name="Trazado 4809" d="M54.592,77H22.408a4.036,4.036,0,0,0-.38-.521Q11.28,65.721.522,54.973A4.071,4.071,0,0,0,0,54.593V22.409a4.126,4.126,0,0,0,.521-.381Q11.279,11.28,22.027.522A4.1,4.1,0,0,0,22.408,0H54.592a4.316,4.316,0,0,0,.386.52q10.746,10.756,21.5,21.5a4.3,4.3,0,0,0,.52.385V54.593a4.237,4.237,0,0,0-.52.385q-10.757,10.746-21.5,21.5a4.261,4.261,0,0,0-.385.52M4.512,38.5c0,4.486-.009,8.972.018,13.458a1.618,1.618,0,0,0,.423,1.029q9.491,9.541,19.033,19.033a1.712,1.712,0,0,0,1.093.448q13.421.037,26.842,0a1.712,1.712,0,0,0,1.094-.447q9.517-9.463,19-18.958a1.509,1.509,0,0,0,.479-1.181q-.019-13.383,0-26.767a1.51,1.51,0,0,0-.479-1.181q-9.506-9.474-19-18.958a1.713,1.713,0,0,0-1.094-.447Q38.5,4.5,25.08,4.532a1.713,1.713,0,0,0-1.093.449q-9.517,9.463-19,18.958A1.506,1.506,0,0,0,4.5,25.118c.016,4.461.01,8.922.01,13.383" transform="translate(0 -0.001)" fill="#fe9900"/>
    <path id="Trazado_4810" data-name="Trazado 4810" d="M94.43,55.651c1.172-3.612,3.293-5.4,6.362-5.4,3.168,0,5.134,1.77,6.36,5.615a19.251,19.251,0,0,1,2.711.019,6.332,6.332,0,0,1,5.505,6.334c.022.9,0,1.8,0,2.754a6.385,6.385,0,0,1,5.864,1.2,5.684,5.684,0,0,1,2.283,4.4c.05,4.535.195,9.082-.055,13.605C122.908,94.2,114.927,103,105,104.819a22.919,22.919,0,0,1-25.778-14.4,21.248,21.248,0,0,1-1.443-7.331c-.023-1.553-.049-3.108-.007-4.661a6.423,6.423,0,0,1,7.79-6.232c.194.037.39.068.645.112V67.548c0-1.83-.006-3.659,0-5.489a6.339,6.339,0,0,1,8.021-6.41,1.125,1.125,0,0,0,.2,0m-3.663,26.8c3.122-.257,6.013.217,8.443,2.269a10.021,10.021,0,0,1,3.7,7.779h-4.45a2.262,2.262,0,0,1-.059-.244,5.623,5.623,0,0,0-5.951-5.327c-1.8-.006-3.609,0-5.414,0h-.827c0-1.45,0-2.777,0-4.1,0-1.429.026-2.858-.013-4.286a1.951,1.951,0,0,0-1.957-1.969,1.9,1.9,0,0,0-1.95,1.952,52,52,0,0,0,.077,5.635,18.378,18.378,0,0,0,36.655-1.253c.087-3.858.03-7.719.025-11.579a1.85,1.85,0,1,0-3.672-.016c-.011,1.755,0,3.509,0,5.264v1.884h-4.512v-.921q0-7.407,0-14.813a4.353,4.353,0,0,0-.1-1.041,1.819,1.819,0,0,0-3.478-.122,3.786,3.786,0,0,0-.133,1.108q-.012,7.444-.005,14.889v.877h-4.512v-.964q0-10.114,0-20.227c0-.251.009-.5-.011-.752a1.844,1.844,0,0,0-1.766-1.722,1.808,1.808,0,0,0-1.877,1.59,6.955,6.955,0,0,0-.045.975q0,10.076,0,20.152c0,.315-.026.631-.041.962H94.413V77.51q0-7.52,0-15.039a7.182,7.182,0,0,0-.045-.975A1.766,1.766,0,0,0,92.978,60a1.823,1.823,0,0,0-2.25,1.932q-.013,10,0,20c0,.124.019.247.041.518" transform="translate(-62.163 -40.177)" fill="#fe9900"/>
  </g>
</svg>
