<svg xmlns="http://www.w3.org/2000/svg" width="20.708" height="25.858" viewBox="0 0 20.708 25.858">
  <g id="Grupo_595" data-name="Grupo 595" transform="translate(-1600.806 -1258.322)">
    <path id="Trazado_676" data-name="Trazado 676" d="M1600.806,1271.236q0-5.091,0-10.182a2.533,2.533,0,0,1,1.566-2.508,2.772,2.772,0,0,1,1.086-.213q5.031-.024,10.063,0a.615.615,0,0,1,.39.164q3.728,3.708,7.438,7.434a.574.574,0,0,1,.154.366q.011,7.622,0,15.243a2.552,2.552,0,0,1-2.648,2.637q-7.7.011-15.4,0a2.572,2.572,0,0,1-2.654-2.726Q1600.8,1276.342,1600.806,1271.236Zm11.663-10.2v6.312h6.313Zm-3.322,18.021a19.176,19.176,0,0,0,2-.011,2.438,2.438,0,0,0,2.522-2.269,2.3,2.3,0,0,0-2.074-2.855,20.566,20.566,0,0,0-2.2-.006c-.2,0-.249.09-.248.278.008.9,0,1.8,0,2.7Zm-3.3-1.775a10.728,10.728,0,0,0,1.47-.259,1.536,1.536,0,0,0,1.064-1.73,1.419,1.419,0,0,0-1.315-1.359c-.695-.078-1.405-.012-2.109-.021-.235,0-.278.1-.276.315.008,1.5,0,3.007.005,4.511,0,.088.01.176.016.27h1.144Zm11.76-2.446v-.942H1614.5v5.119h1.155v-2.054h1.822V1276h-1.811v-1.168Z" transform="translate(0 0)" fill="#fff"/>
    <path id="Trazado_677" data-name="Trazado 677" d="M1718.387,1464.387c.791.056,1.5-.012,1.917-.771a2.149,2.149,0,0,0-.137-2.151,1.738,1.738,0,0,0-1.78-.418Z" transform="translate(-108.061 -186.232)" fill="#fff"/>
    <path id="Trazado_678" data-name="Trazado 678" d="M1663.048,1462.718a5.938,5.938,0,0,0,.981-.191.689.689,0,0,0,.4-.772.614.614,0,0,0-.464-.6,2.79,2.79,0,0,0-.744-.053.254.254,0,0,0-.168.183C1663.04,1461.723,1663.048,1462.166,1663.048,1462.718Z" transform="translate(-57.201 -186.356)" fill="#fff"/>
    <path id="Trazado_679" data-name="Trazado 679" d="M1718.387,1464.387v-3.34a1.738,1.738,0,0,1,1.78.418,2.149,2.149,0,0,1,.137,2.151C1719.888,1464.375,1719.178,1464.443,1718.387,1464.387Z" transform="translate(-108.061 -186.232)" fill="#fff"/>
    <path id="Trazado_680" data-name="Trazado 680" d="M1663.048,1462.718c0-.552-.007-1,.008-1.437a.254.254,0,0,1,.168-.183,2.79,2.79,0,0,1,.744.053.614.614,0,0,1,.464.6.689.689,0,0,1-.4.772A5.938,5.938,0,0,1,1663.048,1462.718Z" transform="translate(-57.201 -186.356)" fill="#fff"/>
  </g>
</svg>
