<?xml version="1.0" encoding="utf-8"?>
<!-- Generator: Adobe Illustrator 26.0.0, SVG Export Plug-In . SVG Version: 6.00 Build 0)  -->
<svg version="1.1" id="Capa_1" xmlns="http://www.w3.org/2000/svg" xmlns:xlink="http://www.w3.org/1999/xlink" x="0px" y="0px"
	 viewBox="0 0 163.2 56.5" style="enable-background:new 0 0 163.2 56.5;" xml:space="preserve">
<style type="text/css">
	.st0{fill:#004C79;}
</style>
<g>
	<g>
		<g>
			<path class="st0" d="M64.1,29.7v3.7H52V18.9h11.8v3.7h-7v1.7H63v3.5h-6.1v1.9C56.8,29.7,64.1,29.7,64.1,29.7z"/>
			<path class="st0" d="M79.5,24.4c0,3.4-2.6,5.5-6.6,5.5h-2.1v3.6H66V18.9h7C77,18.9,79.5,21,79.5,24.4z M74.6,24.4
				c0-1.1-0.6-1.7-2-1.7h-1.8v3.4h1.8C74,26.1,74.6,25.5,74.6,24.4z"/>
			<path class="st0" d="M80.8,26.9v-8h4.9v7.8c0,2.2,0.8,3,2.2,3c1.4,0,2.2-0.8,2.2-3v-7.8h4.8v8c0,4.4-2.6,6.9-7.1,6.9
				C83.4,33.8,80.8,31.2,80.8,26.9z"/>
			<path class="st0" d="M111.4,18.9v14.5h-4l-5.5-6.6v6.6h-4.8V18.9h4l5.5,6.6v-6.6H111.4z"/>
			<path class="st0" d="M125.8,29.7v3.7h-12V18.9h11.8v3.7h-7v1.7h6.1v3.5h-6.1v1.9C118.6,29.7,125.8,29.7,125.8,29.7z"/>
			<path class="st0" d="M140.6,33.4v-6.6l-3.1,5.3h-2.1l-3.1-5.1v6.4h-4.4V18.9h4l4.7,7.7l4.6-7.7h4v14.5L140.6,33.4L140.6,33.4z"/>
			<path class="st0" d="M147.4,18.9h4.9v14.5h-4.9V18.9z"/>
		</g>
	</g>
	<path class="st0" d="M44.4,16.4L31.2,8.8c-1.5-0.9-3.4-0.9-4.9,0l-13.2,7.6c-1.5,0.9-2.4,2.5-2.4,4.2v15.2c0,1.7,0.9,3.4,2.4,4.2
		l13.2,7.6c0.8,0.4,1.6,0.7,2.4,0.7s1.7-0.2,2.4-0.7L44.3,40c1.5-0.9,2.4-2.5,2.4-4.2V20.6C46.8,18.9,45.9,17.3,44.4,16.4z
		 M45.2,36.1c0,1-0.6,2-1.5,2.5l-13.6,7.8c-0.9,0.5-2,0.5-2.9,0l-13.6-7.8c-0.9-0.5-1.5-1.5-1.5-2.5V20.4c0-1,0.6-2,1.5-2.5
		l13.6-7.8c0.9-0.5,2-0.5,2.9,0l13.6,7.8c0.9,0.5,1.5,1.5,1.5,2.5V36.1z"/>
</g>
<g>
	<path class="st0" d="M44.3,16.4L31.1,8.8c-1.5-0.9-3.4-0.9-4.9,0L13,16.4c-1.5,0.9-2.4,2.5-2.4,4.2V36c0,1.7,0.9,3.4,2.4,4.2
		l13.2,7.6c0.8,0.4,1.6,0.7,2.4,0.7c0.8,0,1.7-0.2,2.4-0.7l13.2-7.6c1.5-0.9,2.4-2.5,2.4-4.2V20.7C46.8,18.9,45.9,17.3,44.3,16.4z
		 M45.2,36.2c0,1-0.6,2-1.5,2.5l-13.6,7.9c-0.9,0.5-2,0.5-2.9,0l-13.6-7.9c-0.9-0.5-1.5-1.5-1.5-2.5V20.5c0-1,0.6-2,1.5-2.5
		l13.6-7.9c0.9-0.5,2-0.5,2.9,0l13.6,7.9c0.9,0.5,1.5,1.5,1.5,2.5V36.2z"/>
	<path class="st0" d="M41.1,33c-0.3-0.2-0.6-0.3-0.8-0.6c0,0,0,0,0,0H17.1c0,0,0,0,0,0c-0.2,0.2-0.5,0.4-0.8,0.6
		c-0.6,0.4-1.3,0.8-1.3,1.7c0,0,0,0,0,0.1l2.3,1c0,0,0,0,0,0l3.1-0.9l2.3,0.9l-3,1c0,0,0,0,0,0.1c0,0,0,0,0,0.1l2.8,1.2c0,0,0,0,0,0
		c0,0,0,0,0,0l3.2-1.1l2.9,1.1L25.8,39c0,0,0,0,0,0.1s0,0,0,0.1l3,1.2c0,0,0,0,0,0s0,0,0,0l3-1.2c0,0,0,0,0-0.1s0,0,0-0.1l-2.9-1.3
		l2.9-1.1l3.2,1.1c0,0,0,0,0,0c0,0,0,0,0,0l2.8-1.2c0,0,0,0,0-0.1c0,0,0,0,0-0.1l-3-1l2.3-0.9l3.1,0.9c0,0,0,0,0,0c0,0,0,0,0,0
		l2.3-1c0,0,0,0,0-0.1C42.4,33.7,41.8,33.4,41.1,33z M25.8,34.7h0.5l2.4,0.8l-2.9,1l-2.6-1L25.8,34.7z M28.8,35.5l2.4-0.8h0.5
		l2.7,0.9l-2.6,1L28.8,35.5z"/>
	<path class="st0" d="M18,31.9h4.7h2.4h0h0.6c-0.1,0-0.1-0.1-0.1-0.1v-0.6c0-0.3,0.3-0.6,0.6-0.6h0.1v-0.2c-0.2,0-0.3-0.2-0.3-0.4
		c0-0.2,0.2-0.4,0.4-0.4h0.1c0.7-1.3,1-3,1.1-3.5h-0.2c-0.2,0-0.4-0.2-0.4-0.4s0.2-0.4,0.4-0.4h0.2c-0.2-0.2-0.3-0.5-0.3-0.9
		c0-0.8,0.6-1.4,1.4-1.4c0.8,0,1.4,0.6,1.4,1.4c0,0.3-0.1,0.6-0.3,0.9h0.3c0.2,0,0.4,0.2,0.4,0.4S30.4,26,30.2,26h-0.3
		c0.1,0.5,0.3,2,1.1,3.5h0.1c0.2,0,0.4,0.2,0.4,0.4c0,0.2-0.1,0.3-0.3,0.4v0.2h0.1c0.3,0,0.6,0.3,0.6,0.6v0.6c0,0.1-0.1,0.1-0.1,0.1
		h0.4h0.1c0,0,0,0,0.1,0h7.9c0.1,0,0.2-0.1,0.2-0.2V31c0-0.4-0.3-0.7-0.7-0.7h-0.1V30c0.2-0.1,0.3-0.2,0.3-0.4
		c0-0.3-0.2-0.5-0.5-0.5h-0.3l-0.5-0.5l0.8-0.8c0.1-0.1,0.1-0.2,0-0.2l-1.6-0.8c0.4-0.3,1.5-0.8,1.8-1.2c0.3-0.5,0.4-1.1,0.4-1.8
		c0-1.1-0.4-2-1.2-2.8c-0.7-0.7-1.7-1.2-2.8-1.2c0,0-0.1,0-0.1,0L33,22.7C33,22.8,33,22.9,33,23l1.1,1.1c0,0,0.1,0,0.1,0
		c0,0,0,0,0,0c0,0,0.1,0,0.1,0c0,0,1.1-1.1,1.8-0.6c-0.7,1.1-2.6,4-2.6,4c0,0.1,0,0.1,0,0.2l0.8,1.4H34c-0.3,0-0.5,0.2-0.5,0.5
		c0,0.2,0.1,0.4,0.3,0.4v0.2l-1.4-0.1C32.1,30,32,29.7,32,29.3l0-0.4l-0.2-3.5c0.3,0,0.5-0.3,0.5-0.6c0-0.3-0.3-0.5-0.5-0.5
		l-0.1-0.1l-0.3-4c0.3,0,0.5-0.3,0.5-0.5c0-0.2-0.1-0.3-0.2-0.4c0.1-0.1,0.2-0.3,0.2-0.5v-1.6c0-0.1-0.1-0.2-0.2-0.2h-1.1
		c-0.1,0-0.2,0.1-0.2,0.2v0.6h-0.7v-0.6c0-0.1-0.1-0.2-0.2-0.2h-1.1c-0.1,0-0.2,0.1-0.2,0.2v0.6h-0.7v-0.6c0-0.1-0.1-0.2-0.2-0.2H26
		c-0.1,0-0.2,0.1-0.2,0.2v1.6c0,0.2,0.1,0.3,0.2,0.5c-0.1,0.1-0.2,0.2-0.2,0.4c0,0.3,0.2,0.5,0.5,0.5l-0.3,4l-0.1,0.1
		c-0.3,0-0.5,0.2-0.5,0.5c0,0.3,0.2,0.5,0.5,0.6l-0.2,3.5l0,0.4c-0.1,0.3-0.2,0.7-0.5,0.8c-0.4,0.2-1,0.1-1.3,0.1V30
		c0.2-0.1,0.3-0.2,0.3-0.4c0-0.3-0.2-0.5-0.5-0.5h-0.4l0.8-1.4c0-0.1,0-0.1,0-0.2c0,0-1.9-2.9-2.6-4c0.7-0.5,1.8,0.6,1.8,0.6
		c0,0,0.1,0,0.1,0c0,0,0,0,0,0c0,0,0.1,0,0.1,0l1.1-1.1c0.1-0.1,0.1-0.2,0-0.2l-2.9-2.9c0,0-0.1,0-0.1,0c-1.1,0-2,0.4-2.8,1.2
		c-0.7,0.7-1.2,1.7-1.2,2.8c0,0.6,0.1,1.2,0.4,1.8c0.2,0.5,0.6,0.9,1,1.2L18,27.5c-0.1,0.1-0.1,0.2,0,0.2l0.8,0.8L18.3,29H18
		c-0.3,0-0.5,0.2-0.5,0.5c0,0.2,0.1,0.4,0.3,0.4v0.3h-0.1c-0.4,0-0.7,0.3-0.7,0.7v0.7C17.1,31.8,17.9,31.9,18,31.9z"/>
</g>
</svg>
