<?xml version="1.0" encoding="utf-8"?>
<!-- Generator: Adobe Illustrator 24.0.0, SVG Export Plug-In . SVG Version: 6.00 Build 0)  -->
<svg version="1.1" id="Capa_1" xmlns="http://www.w3.org/2000/svg" xmlns:xlink="http://www.w3.org/1999/xlink" x="0px" y="0px"
	 viewBox="0 0 200 200" style="enable-background:new 0 0 200 200;" xml:space="preserve">
<style type="text/css">
	.st0{fill:#BECBD8;}
</style>
<g>
	<path class="st0" d="M155.8,99.9c0,17.1,0,34.2,0,51.2c0,6.7-4,11.8-10.3,13.2c-1.1,0.2-2.4,0.3-3.5,0.3c-28.2,0-56.5,0-84.7,0
		c-7.1,0-12.3-4.1-13.6-10.7c-0.2-1-0.2-2-0.2-3c0-28.6,0-57.1,0-85.7c0-4.3,1.5-7.7,4.5-10.7c5.1-4.9,10.1-9.9,15-15
		c3.1-3.2,6.8-4.6,11.2-4.6c22.6,0.1,45.3,0,67.9,0c7.1,0,12.3,4.2,13.5,10.8c0.2,1.1,0.2,2.2,0.2,3.3
		C155.8,66,155.8,82.9,155.8,99.9z M147.2,99.9c0-17,0-34,0-51c0-3.7-1.6-5.2-5.2-5.2c-22.7,0-45.5,0-68.2-0.1
		c-1.8,0-3.3,0.6-4.6,1.9c-5,5.1-10.1,10.2-15.2,15.2c-1.4,1.4-2,3-2,4.9c0,28.3,0,56.6,0,85c0,3.8,1.6,5.3,5.4,5.3
		c28.1,0,56.2,0,84.3,0c3.9,0,5.4-1.5,5.4-5.4C147.2,133.7,147.2,116.8,147.2,99.9z"/>
	<path class="st0" d="M129.8,82.4c-10.1,0-20,0-30.1,0c0-2.8,0-5.6,0-8.5c10,0,20,0,30.1,0C129.8,76.8,129.8,79.6,129.8,82.4z"/>
	<path class="st0" d="M99.7,108.3c0-2.8,0-5.6,0-8.4c10,0,20,0,30.1,0c0,2.8,0,5.5,0,8.4C119.8,108.3,109.8,108.3,99.7,108.3z"/>
	<path class="st0" d="M129.8,125.8c0,2.8,0,5.6,0,8.4c-10,0-20,0-30.1,0c0-2.8,0-5.5,0-8.4C109.7,125.8,119.7,125.8,129.8,125.8z"/>
	<path class="st0" d="M66.6,79.4c2.1-2.1,4-4,6-6.1c1.5,1.6,3.1,3.3,4.7,5c3.2-3.2,6.2-6.3,9.1-9.2c2.2,2.2,4.2,4.2,6.2,6.4
		c-1.4,1.4-2.9,2.9-4.5,4.5c-2.4,2.4-4.8,4.9-7.3,7.2c-1.9,1.9-4.5,2-6.4,0.2C71.9,84.8,69.2,82.1,66.6,79.4z"/>
	<path class="st0" d="M82.2,108.4c-2.8,0-5.6,0-8.4,0c0-2.8,0-5.6,0-8.4c2.7,0,5.5,0,8.4,0C82.2,102.7,82.2,105.4,82.2,108.4z"/>
	<path class="st0" d="M82.3,125.8c0,2.8,0,5.5,0,8.4c-2.8,0-5.6,0-8.4,0c0-2.7,0-5.5,0-8.4C76.6,125.8,79.3,125.8,82.3,125.8z"/>
</g>
</svg>
