<?xml version="1.0" encoding="utf-8"?>
<!-- Generator: Adobe Illustrator 24.0.0, SVG Export Plug-In . SVG Version: 6.00 Build 0)  -->
<svg version="1.1" id="Capa_1" xmlns="http://www.w3.org/2000/svg" xmlns:xlink="http://www.w3.org/1999/xlink" x="0px" y="0px"
	 viewBox="0 0 250 250" style="enable-background:new 0 0 250 250;" xml:space="preserve">
<style type="text/css">
	.st0{fill:#1C3247;}
</style>
<g id="hzoiV0.tif">
	<g>
		<path class="st0" d="M127.1,43.6c1.7,0.3,3.4,0.7,5.1,1.1c18.9,4.2,32,21.3,31.5,41.1c-0.5,18.8-14.7,35.2-33.4,38.5
			c-22.6,4-43.7-11.1-47.4-33.8c-3.6-22.3,12.6-43.8,35-46.5c0.4,0,0.8-0.2,1.2-0.3C121.7,43.6,124.4,43.6,127.1,43.6z M94,84.1
			c0,16,13,29.1,29,29.1c16,0,29-12.9,29.1-28.9c0.1-16.1-12.9-29.1-28.9-29.2C107.1,55.1,94.1,68.1,94,84.1z"/>
		<path class="st0" d="M208,148.4c-1.1,1.5-2,3.3-3.4,4.6c-10.5,10.6-21.1,21.1-31.7,31.7c-1.7,1.7-3.5,2.5-5.9,2.6
			c-4.2,0.1-8.5,0.4-12.7,0.6c-5,0.2-7.5-2.2-7.3-7.2c0.2-4.6,0.3-9.2,0.7-13.8c0.1-1.5,0.9-3.2,1.9-4.3
			c11.2-11.3,22.4-22.6,33.7-33.8c2.4-2.4,5.8-2.5,8.3-0.1c4.9,4.8,9.7,9.6,14.5,14.5c0.8,0.9,1.2,2.2,1.8,3.3
			C208,147.2,208,147.8,208,148.4z M187.4,141.3C187.5,141.3,187.4,141.3,187.4,141.3c-9.2,9.1-18.3,18.3-27.5,27.4
			c-0.3,0.3-0.6,0.8-0.7,1.2c-0.2,2-0.2,3.9-0.3,5.9c1.4,0,2.6-0.1,3.8,0c1.9,0.1,3.3-0.6,4.7-2.1c8.3-8.4,16.6-16.7,24.9-25
			c0.5-0.5,0.9-0.9,1.2-1.3C191.5,145.5,189.5,143.4,187.4,141.3z"/>
		<path class="st0" d="M53.4,194.5c1,0,1.7,0,2.4,0c23,0,46,0,68.9,0c0.8,0,1.6,0,2.3,0.1c2.8,0.6,4.8,3.2,4.6,6.1
			c-0.2,2.9-2.5,5.2-5.4,5.4c-0.5,0-1.1,0-1.6,0c-25.3,0-50.6,0-75.8,0c-5,0-7.1-2.1-7.1-7c0.1-6.9-0.3-13.9,1-20.8
			c4.3-22.1,23.4-39.6,46-41.5c7.2-0.6,14.5-0.3,21.8-0.4c5,0,9.9,0,14.9,0c3.7,0,6.3,2.4,6.4,5.7c0,3.4-2.6,5.9-6.4,5.9
			c-10.2,0-20.3,0-30.5,0c-20.8,0-37.1,13.6-40.9,34c-0.3,1.6-0.5,3.2-0.5,4.9C53.3,189.4,53.4,191.8,53.4,194.5z"/>
		<path class="st0" d="M169.4,206.1c-8.5,0-16.9,0-25.4,0c-3.8,0-6.5-2.4-6.4-5.9c0-3.4,2.6-5.7,6.4-5.8c17.1,0,34.1,0,51.2,0
			c3.7,0,6.3,2.4,6.3,5.8c0,3.4-2.6,5.8-6.5,5.8C186.5,206.1,178,206.1,169.4,206.1z"/>
	</g>
</g>
</svg>
