<?xml version="1.0" encoding="utf-8"?>
<!-- Generator: Adobe Illustrator 24.0.0, SVG Export Plug-In . SVG Version: 6.00 Build 0)  -->
<svg version="1.1" id="Capa_1" xmlns="http://www.w3.org/2000/svg" xmlns:xlink="http://www.w3.org/1999/xlink" x="0px" y="0px"
	 viewBox="0 0 200 200" style="enable-background:new 0 0 200 200;" xml:space="preserve">
<style type="text/css">
	.st0{fill:#BECBD8;}
</style>
<g>
	<path class="st0" d="M114.1,148.4c-0.9-0.1-1.9-0.2-2.8-0.3c-4.2-0.8-7.6-4.3-8-8.6c-0.7-7.2-0.6-14.4-0.3-21.6
		c0.1-1.9,0.2-3.7,0.4-5.6c0.8-4.7,4.8-8.3,9.6-8.6c7.9-0.6,15.8-0.5,23.7-0.2c3.2,0.1,6.1,0.9,8.4,3.3c1.6,1.7,2.5,3.8,2.6,6.2
		c0.4,7.9,0,15.8-1,23.7c-0.7,5.5-5,9.9-10.6,10.5c-3.9,0.4-7.8,0.7-11.7,1c-0.3,0-0.6,0.1-0.8,0.1
		C120.6,148.4,117.3,148.4,114.1,148.4z M109.9,126.5c0,0,0.1,0,0.1,0c0,0.9,0,1.8,0,2.7c0.1,3.1,0.2,6.1,0.4,9.2
		c0.1,1.7,1.2,2.5,2.8,2.6c7.5,0.4,15,0,22.5-1c1.9-0.2,3.7-2,3.9-3.9c1-7.5,1.4-15.1,1-22.7c-0.1-1.2-0.7-2-1.8-2.4
		c-0.6-0.2-1.2-0.3-1.9-0.3c-7.8-0.4-15.5-0.4-23.3,0.1c-1.9,0.1-3.1,1.3-3.2,3.2C110.3,118.2,110.1,122.4,109.9,126.5z"/>
	<path class="st0" d="M51.1,114.7c0.1-1,0.2-1.9,0.3-2.9c0.7-4.3,4.4-7.7,8.7-8.1c7.2-0.6,14.4-0.6,21.6-0.3
		c1.8,0.1,3.5,0.1,5.3,0.4c4.7,0.7,8.3,4.6,8.7,9.3c0.7,8.7,0.7,17.3,0,26c-0.4,5.1-4.5,8.9-9.6,9.1c-0.5,0-0.9,0.1-1.4,0.2
		c-3.1,0-6.2,0-9.3,0c-0.3,0-0.6-0.1-0.8-0.1c-4-0.3-8-0.6-12-1c-5.1-0.5-9.5-4.6-10.3-9.6c-0.5-2.8-0.7-5.7-0.9-8.5
		c-0.2-1.8-0.3-3.6-0.4-5.5C51.1,120.6,51.1,117.6,51.1,114.7z M73,110.3c0,0.1,0,0.1,0,0.2c-2.3,0-4.6,0-6.9,0
		c-1.7,0-3.5,0.1-5.2,0.3c-1.6,0.2-2.4,1.2-2.5,2.7c-0.4,7.5,0,15.1,1,22.5c0.2,1.8,2,3.6,3.8,3.9c7.6,1,15.3,1.4,22.9,1
		c1.1-0.1,1.9-0.7,2.3-1.7c0.2-0.6,0.3-1.2,0.3-1.8c0.4-7.8,0.5-15.6-0.1-23.3c-0.1-1.9-1.3-3.1-3.2-3.2
		C81.2,110.7,77.1,110.5,73,110.3z"/>
	<path class="st0" d="M51.1,76c0.1-1.7,0.2-3.5,0.4-5.2c0.3-2.9,0.5-5.7,0.9-8.6c0.8-5.2,5.1-9.1,10.2-9.7c7-0.9,13.9-1.3,21-1.1
		c1.3,0,2.7,0.1,4,0.3c4.4,0.7,8,4.3,8.2,8.8c0.3,5.9,0.4,11.9,0.4,17.9c0,3-0.1,6.1-0.5,9.1c-0.7,4.7-4.5,8.2-9.2,8.6
		c-8.7,0.7-17.3,0.7-26,0c-5.1-0.4-8.9-4.5-9.1-9.6c0-0.4-0.1-0.8-0.2-1.2C51.1,82.2,51.1,79.1,51.1,76z M73.4,89.5
		c3.6-0.2,7.7-0.3,11.9-0.5c2-0.1,3.2-1.3,3.3-3.3c0.2-5.4,0.3-10.8,0.4-16.3c0-2.7-0.2-5.4-0.4-8c-0.1-1.6-1.2-2.4-2.8-2.5
		c-7.5-0.4-14.9,0-22.3,0.9c-2.2,0.3-3.9,1.9-4.1,4.1c-0.2,1.3-0.3,2.5-0.5,3.8c-0.6,6.3-0.9,12.6-0.5,18.9c0.1,1.2,0.9,2.1,2.1,2.4
		c0.5,0.1,1,0.2,1.5,0.2C65.7,89.2,69.3,89.3,73.4,89.5z"/>
	<g>
		<path class="st0" d="M146.9,63c-0.7-5.4-5-9.7-10.5-10.4c-7.8-1-15.6-1.4-23.5-1c-5.1,0.3-9.2,4-9.6,9.1c-0.7,8.7-0.6,17.3,0,26
			c0.4,5,4.5,9.1,9.5,9.4c4.4,0.3,8.9,0.4,13.4,0.6c4.2-0.2,8.4-0.3,12.6-0.6c4.4-0.3,8.1-3.8,8.8-8.1c0.2-1.3,0.3-2.7,0.3-4.1
			C148.1,76.9,147.8,69.9,146.9,63z M140.7,86c-0.1,1.8-0.9,2.8-2.7,2.9c-3.3,0.2-6.5,0.3-9.8,0.4c-0.7,0-1.3,0-2,0c0,0,0,0.1,0,0.1
			c-4.1-0.2-8.3-0.4-12.4-0.6c-2-0.1-3.1-1.3-3.3-3.3c-0.6-7.7-0.5-15.3-0.1-23c0-0.5,0.1-1.1,0.2-1.6c0.3-1.4,1.2-2.2,2.6-2.2
			c7.5-0.4,15.1,0,22.5,1c1.9,0.3,3.7,2,4,3.9C140.7,71.1,141.1,78.6,140.7,86z"/>
	</g>
</g>
</svg>
