<?xml version="1.0" encoding="utf-8"?>
<!-- Generator: Adobe Illustrator 24.0.0, SVG Export Plug-In . SVG Version: 6.00 Build 0)  -->
<svg version="1.1" id="Capa_1" xmlns="http://www.w3.org/2000/svg" xmlns:xlink="http://www.w3.org/1999/xlink" x="0px" y="0px"
	 viewBox="0 0 200 200" style="enable-background:new 0 0 200 200;" xml:space="preserve">
<style type="text/css">
	.st0{fill:#2E2E2E;}
</style>
<g>
	<path class="st0" d="M77.4,63.4c2.4,0,4.3,1.3,6,3.1c0.9,0.9,1.6,2.5,3.4,1.8c1.6-0.7,1-2.3,1-3.5c0.1-6.2,3-9.2,9.2-9.2
		c2.4,0,4.7,0,7.1,0c4.4,0.1,7.7,3.3,7.8,7.8c0,1-0.1,2.1,0.1,3.1c0.1,0.6,0.5,1.6,1,1.7c0.6,0.2,1.5-0.1,2.1-0.5
		c0.8-0.5,1.4-1.3,2.1-2c3.2-3.1,7.9-3.1,11.2-0.1c2,1.9,4,3.9,6,6c3,3.1,3,7.6,0,10.7c-0.8,0.8-1.7,1.6-2.4,2.5
		c-0.4,0.5-0.6,1.4-0.4,1.8c0.3,0.5,1,1,1.7,1.1c1.5,0.2,3,0,4.5,0.2c3.7,0.5,6.5,3.5,6.6,7.2c0.1,3,0.1,6.1,0,9.1
		c-0.1,3.8-2.9,6.7-6.7,7.2c-1,0.1-1.9,0.1-2.9,0.2c-1.1,0.1-2.5-0.5-3.2,1c-0.7,1.6,0.8,2.2,1.6,3.1c0.4,0.5,0.9,0.9,1.3,1.4
		c2.9,3.1,2.9,7.5,0,10.6c-2,2.1-4.1,4.2-6.2,6.2c-3.2,3-7.7,2.9-10.9-0.1c-0.7-0.6-1.2-1.4-2-1.9c-0.7-0.4-1.7-0.9-2.4-0.7
		c-0.5,0.1-0.9,1.3-1,2.1c-0.2,0.9,0,1.9-0.1,2.9c-0.2,4.2-3.4,7.5-7.6,7.6c-2.9,0.1-5.9,0.1-8.8,0c-4.2-0.1-7.4-3.3-7.6-7.6
		c0-1,0.1-2.1-0.1-3.1c-0.1-0.7-0.5-1.7-1-1.9c-0.6-0.2-1.6,0.2-2.2,0.6c-0.8,0.6-1.5,1.4-2.2,2.1c-3.2,2.9-7.7,2.9-10.8,0
		c-2.1-2-4.1-4-6.1-6.1c-3-3.2-3-7.7,0-10.8c0.6-0.7,1.4-1.2,1.9-2c0.4-0.7,0.9-1.7,0.7-2.3c-0.1-0.5-1.3-0.9-2-1
		c-1.2-0.2-2.5,0-3.8-0.2c-4-0.5-6.8-3.6-6.9-7.6c-0.1-2.8,0-5.5,0-8.3c0.1-4.3,2.9-7.4,7.2-7.8c1.3-0.1,2.7,0,3.9-0.1
		c0.6-0.1,1.4-0.6,1.7-1.1c0.2-0.4-0.1-1.3-0.4-1.8c-0.7-0.9-1.6-1.6-2.4-2.5c-2.9-3.1-2.9-7.6,0-10.7c1.9-2,4-4,6-6
		C72.9,64.1,74.9,63.4,77.4,63.4z M138,99.7c0-1.2,0-2.4,0-3.6c0-1.4-0.6-2.1-2.1-2.1c-1.2,0-2.4,0-3.6,0c-3.2-0.2-5.4-1.9-6.6-4.7
		c-1.3-2.9-0.9-5.7,1.2-8.2c0.8-1,1.8-1.8,2.6-2.7c0.8-0.8,0.9-1.7,0-2.6c-1.9-1.9-3.7-3.7-5.6-5.6c-0.9-0.8-1.7-0.8-2.6,0
		c-0.9,0.8-1.7,1.7-2.6,2.5c-2.5,2.2-5.4,2.6-8.5,1.3c-3-1.3-4.6-3.7-4.7-7c0-1,0-2.1,0-3.1c0-1.3-0.6-2.1-2-2c-2.6,0-5.2,0-7.7,0
		c-1.3,0-1.9,0.7-1.9,1.9c0,1.1,0,2.2,0,3.3c-0.1,3.3-1.7,5.7-4.7,7c-3.1,1.3-6,0.9-8.5-1.3c-0.8-0.7-1.6-1.5-2.3-2.3
		c-1-1-1.9-1.1-3-0.1c-1.8,1.8-3.6,3.6-5.4,5.3c-0.9,0.9-0.9,1.8,0,2.7c0.8,0.8,1.7,1.6,2.4,2.4c2.2,2.4,2.8,5.3,1.5,8.3
		c-1.3,3-3.6,4.7-6.9,4.9c-1.1,0.1-2.3,0-3.4,0c-1.3,0-2,0.6-2,2c0,2.5,0,5.1,0,7.6c0,1.3,0.7,1.9,1.9,1.9c1.1,0,2.3,0,3.4,0
		c3.3,0.1,5.7,1.8,7,4.8c1.3,3.1,0.8,6-1.5,8.5c-0.7,0.8-1.5,1.6-2.3,2.3c-1,0.9-1,1.9,0,2.8c1.8,1.8,3.6,3.5,5.4,5.3
		c1,1,1.9,0.9,2.8,0c0.8-0.8,1.5-1.6,2.3-2.3c2.5-2.3,5.4-2.7,8.5-1.5c3.1,1.3,4.8,3.7,4.9,7.1c0,1,0,2.1,0,3.1c0,1.3,0.6,2.1,2,2.1
		c2.6,0,5.2,0,7.7,0c1.3,0,1.9-0.7,1.9-1.9c0-1.1,0-2.2,0-3.3c0.1-3.3,1.7-5.7,4.7-7c3-1.3,5.8-0.9,8.4,1.2c0.9,0.7,1.7,1.6,2.5,2.4
		c1,1,1.9,1.1,3,0.1c1.8-1.8,3.6-3.6,5.4-5.3c1-1,0.9-1.9-0.1-2.8c-0.8-0.8-1.7-1.6-2.4-2.5c-2.1-2.4-2.6-5.2-1.4-8.2
		c1.3-3,3.6-4.7,6.9-4.9c1-0.1,2.1,0,3.1,0c1.9,0,2.3-0.5,2.4-2.3C138,102,138,100.8,138,99.7z"/>
	<path class="st0" d="M117.1,157.8c6-1.4,11.5-3.8,16.5-7.2c15.6-10.4,25.2-24.7,28.2-43.3c0.2-1.5,0.4-3,2.1-3.7
		c2.3-0.9,4.6,0.9,4.3,3.5c-1.8,13.1-6.9,24.7-15.4,34.7c-9.3,11-20.8,18.5-34.7,22.4c-0.4,0.1-0.8,0.2-1.5,0.5
		c1.5,1.2,2.8,2.3,4,3.4c0.7,0.6,1.3,1.1,2,1.7c1.4,1.3,1.6,3,0.5,4.3c-1.1,1.3-3,1.6-4.5,0.4c-2-1.6-4-3.3-6-4.9
		c-1.8-1.5-3.5-2.9-5.3-4.4c-1.8-1.6-2-3.1-0.5-4.9c3-3.6,6-7.2,9.1-10.8c1.4-1.6,3.2-1.8,4.6-0.7c1.5,1.2,1.5,3,0.1,4.7
		c-0.6,0.8-1.3,1.5-1.9,2.2C118.3,156.4,117.7,157.1,117.1,157.8z"/>
	<path class="st0" d="M160.8,83.6c-1.7-7.2-4.5-13.6-8.4-19.4c-9.7-14.4-23.2-23.4-40.2-26.9c-0.4-0.1-0.8-0.2-1.2-0.3
		c-1.9-0.5-3-1.9-2.7-3.6c0.3-1.8,1.9-2.8,3.9-2.4c8.1,1.4,15.7,4.2,22.8,8.4c16.2,9.7,26.8,23.7,31.7,42c0.1,0.4,0.3,0.7,0.5,1.3
		c1.4-2.4,2.7-4.6,4-6.9c0.7-1.2,1.8-2,3.1-1.6c1,0.3,2,1.1,2.5,2c0.4,0.6,0.2,1.9-0.2,2.6c-2.4,4.3-4.8,8.6-7.4,12.8
		c-1.1,1.9-2.6,2.2-4.6,1.2c-4.2-2.3-8.3-4.6-12.4-7c-1.8-1-2.3-2.8-1.4-4.4c0.9-1.6,2.7-2,4.5-1C156.9,81.4,158.7,82.5,160.8,83.6z
		"/>
	<path class="st0" d="M32.5,113.5c-1.4,1.9-2.6,3.6-3.9,5.3c-1.4,1.9-3.2,2.3-4.7,1.1c-1.5-1.1-1.6-2.9-0.3-4.7
		c2.8-3.8,5.5-7.6,8.3-11.4c1.4-1.9,3-2.2,4.9-0.8c3.9,2.8,7.7,5.5,11.6,8.4c1.6,1.2,1.9,2.9,0.9,4.4c-1,1.5-2.9,1.7-4.6,0.6
		c-1.9-1.3-3.8-2.7-6.2-4.4c0.5,1.7,0.7,2.9,1.1,4.1c7.4,22.5,22.7,36.7,45.6,42.9c0.3,0.1,0.6,0.1,0.8,0.2c2,0.6,3,2.1,2.6,3.8
		c-0.5,1.7-2.1,2.7-4.1,2.2c-2.6-0.6-5.1-1.3-7.6-2.2c-22.9-8.6-37.7-24.6-44.1-48.2C32.8,114.4,32.7,114.1,32.5,113.5z"/>
	<path class="st0" d="M79.6,32.8c-2.7-1-5-1.8-7.3-2.7c-2.2-0.9-2.8-3.4-1.2-5c1-1,2.3-1.1,3.5-0.7c4.6,1.6,9.2,3.3,13.7,5
		c2.1,0.8,2.8,2.3,2,4.4c-1.6,4.4-3.2,8.8-4.8,13.2c-0.7,2-2.3,2.8-4,2.2c-1.8-0.6-2.5-2.3-1.8-4.4c0.7-1.9,1.4-3.9,2.3-6.3
		c-2.9,1.1-5.6,2-8.1,3.1c-20,9.6-32.2,25.3-36.1,47.2c-0.5,2.7-2.8,4-4.8,2.6c-1.3-0.9-1.6-2.2-1.3-3.6
		C36.8,61,52.3,42.9,77.9,33.5C78.4,33.3,78.8,33.1,79.6,32.8z"/>
	<path class="st0" d="M82.5,99.7c0-9.4,7.8-17.1,17.2-17.1c9.6,0,17.3,7.8,17.3,17.3c0,9.4-7.8,17.1-17.3,17.1
		C90.2,116.8,82.5,109.1,82.5,99.7z M110.8,99.6c0-6.1-5-11-11.2-10.9c-6,0.1-10.9,5-10.9,11c0,6.1,5,11,11.1,11
		C105.9,110.7,110.9,105.7,110.8,99.6z"/>
</g>
</svg>
