<?xml version="1.0" encoding="utf-8"?>
<!-- Generator: Adobe Illustrator 24.0.0, SVG Export Plug-In . SVG Version: 6.00 Build 0)  -->
<svg version="1.1" id="Capa_1" xmlns="http://www.w3.org/2000/svg" xmlns:xlink="http://www.w3.org/1999/xlink" x="0px" y="0px"
	 viewBox="0 0 250 250" style="enable-background:new 0 0 250 250;" xml:space="preserve">
<style type="text/css">
	.st0{fill:#ACAEAF;}
</style>
<g id="_x37_Eelwo.tif">
	<g>
		<path class="st0" d="M41.8,51.2c0.2-0.7,0.5-1.4,0.7-2.1c1.9-6.1,7.6-10.3,14-10.3c27.4,0,54.9,0,82.3,0
			c11.7,0,20.5,8.8,20.6,20.4c0.1,10.9,0,21.8,0,32.7c0,2.7-1.6,4.7-3.9,5.4c-2.4,0.7-4.9-0.2-6.1-2.4c-0.6-1.2-0.9-2.6-0.9-3.9
			c-0.1-10.3-0.2-20.7,0-31c0.1-6.5-4.7-10.4-10.3-10.3c-14.5,0.2-29,0.1-43.6,0.1c-0.5,0-1,0-1.5,0c0,0.1,0,0.2-0.1,0.3
			c4,1.4,8.1,2.7,12.1,4.1c5.4,1.9,8.8,5.7,9.9,11.3c0.3,1.3,0.3,2.7,0.3,4.1c0,36.7,0,73.3,0,110c0,0.7,0,1.5,0,2.4
			c0.7,0,1.2,0.1,1.8,0.1c7.2,0,14.3,0,21.5,0c6,0,9.8-3.8,9.8-9.8c0-10.6,0-21.2,0-31.8c0-4.2,3.2-6.9,6.9-5.9
			c2.2,0.6,3.8,2.5,4,4.8c0,0.5,0,0.9,0,1.4c0,10.6,0,21.1,0,31.7c0,12-8.8,20.7-20.8,20.7c-7.1,0-14.1,0-21.2,0c-0.6,0-1.2,0-2.1,0
			c0,2.1,0,4,0,5.9c0,8.7-3.8,13.6-12.2,15.9c-0.1,0-0.2,0.1-0.3,0.2c-1.5,0-3,0-4.5,0c-1-0.3-2.1-0.6-3.1-1
			c-14.3-4.7-28.5-9.5-42.8-14.2c-5.5-1.9-9.1-5.6-10.3-11.4c0-0.2-0.2-0.4-0.3-0.6C41.8,142.4,41.8,96.8,41.8,51.2z M104.2,134.4
			c0-21.7,0-43.4,0-65.1c0-3.1-0.7-4.1-3.6-5c-14-4.7-27.9-9.3-41.9-14c-3.8-1.3-5.9,0.2-5.9,4.2c0,43.4,0,86.8,0,130.1
			c0,3,0.7,4,3.5,4.9c5.1,1.7,10.1,3.4,15.2,5c9.1,3,18.3,6.1,27.4,9.1c3.1,1,5.2-0.6,5.3-3.8c0-0.5,0-1,0-1.5
			C104.2,177.1,104.2,155.8,104.2,134.4z"/>
		<path class="st0" d="M199.2,110.5c-0.7-0.7-1-1.1-1.4-1.5c-5.4-5.4-10.8-10.8-16.2-16.2c-2.6-2.6-2.8-5.9-0.4-8.2
			c2.3-2.3,5.6-2.1,8.2,0.5c9,9,18,17.9,26.9,26.9c2.5,2.5,2.5,5.7,0,8.2c-9,9-17.9,17.9-26.9,26.9c-2.6,2.6-5.9,2.8-8.2,0.4
			c-2.3-2.3-2.1-5.6,0.5-8.2c5.4-5.4,10.8-10.8,16.2-16.2c0.4-0.4,0.8-0.8,1.4-1.5c-0.9,0-1.5,0-2.1,0c-17.9,0-35.8,0-53.7,0
			c-4.2,0-6.8-3.2-5.8-7c0.6-2.2,2.5-3.8,4.8-4c0.6-0.1,1.3,0,1.9,0c17.6,0,35.1,0,52.7,0C197.6,110.5,198.2,110.5,199.2,110.5z"/>
	</g>
</g>
</svg>
