<?xml version="1.0" encoding="utf-8"?>
<!-- Generator: Adobe Illustrator 24.0.0, SVG Export Plug-In . SVG Version: 6.00 Build 0)  -->
<svg version="1.1" id="Capa_1" xmlns="http://www.w3.org/2000/svg" xmlns:xlink="http://www.w3.org/1999/xlink" x="0px" y="0px"
	 viewBox="0 0 200 200" style="enable-background:new 0 0 200 200;" xml:space="preserve">
<style type="text/css">
	.st0{fill:#BECBD8;}
</style>
<g>
	<path class="st0" d="M52.4,138c0-0.7,0-1.2,0-1.8c0-28.4,0-56.8,0-85.2c0-6,3.7-10.5,9.5-11.4c0.7-0.1,1.4-0.1,2.1-0.1
		c29.1,0,58.2,0,87.4,0c6.9,0,11.6,4.7,11.6,11.6c0,3.7,0,7.4,0,11.1c0,2.3-1.2,3.5-3.5,3.5c-4.1,0-8.3,0-12.6,0c0,0.6,0,1.1,0,1.6
		c0,27.1,0,54.2,0,81.3c0,5.2-2.8,9.4-7.5,10.9c-1.2,0.4-2.5,0.6-3.8,0.6c-29.4,0-58.7,0-88.1,0c-6.4,0-11.2-4.8-11.2-11.2
		c0-2.5,0-5,0-7.5c0-2.1,1.2-3.3,3.4-3.4C43.8,138,48,138,52.4,138z M58.4,138c0.7,0,1.2,0,1.7,0c22.4,0,44.7,0,67.1,0
		c2.5,0,3.6,1.1,3.6,3.6c0,2.5,0,5,0,7.5c0.1,3.4,3.3,5.7,6.5,4.7c2.3-0.7,3.6-2.6,3.6-5.4c0-30.4,0-60.8,0-91.2
		c0-3.9-0.7-7.9,1.1-11.7c-0.6,0-1,0-1.4,0c-25.5,0-50.9,0-76.4,0c-3.8,0-5.8,2-5.8,5.8c0,28.4,0,56.8,0,85.2
		C58.4,137,58.4,137.4,58.4,138z M124.7,144.1c-27.5,0-55,0-82.4,0c0,1.4,0,2.8,0,4.1c0,3.9,1.9,5.9,5.8,5.9c25.4,0,50.9,0,76.3,0
		c0.4,0,0.9,0,1.5,0C124.3,150.9,124.9,147.5,124.7,144.1z M157,59.6c0-3.1,0-6,0-9c0-2.9-2.2-5-5-5.1c-2.8,0-5,2.2-5,5
		c0,2.7,0,5.4,0,8.2c0,0.3,0.1,0.6,0.1,0.8C150.3,59.6,153.5,59.6,157,59.6z"/>
	<path class="st0" d="M128.8,102.9c0,16-13.1,29.1-29.2,29.1c-16.1,0-29.2-13.1-29.2-29.2c0-16,13.1-29.1,29.1-29.1
		C115.7,73.7,128.8,86.7,128.8,102.9z M122.8,102.9c0-12.7-10.3-23.2-22.9-23.2c-13,0-23.3,10.3-23.3,23.3c0,12.7,10.5,23,23.2,23
		C112.4,125.9,122.8,115.5,122.8,102.9z"/>
	<path class="st0" d="M87.4,57.6c-6.3,0-12.6,0-18.8,0c-0.3,0-0.7,0-1,0c-1.9-0.1-3.2-1.3-3.1-3.1c0-1.7,1.3-2.9,3.1-3
		c1.6,0,3.2,0,4.8,0c11.4,0,22.9,0,34.3,0c0.5,0,0.9,0,1.4,0c1.5,0.2,2.7,1.5,2.7,3c0,1.5-1.1,2.8-2.7,3c-0.4,0.1-0.8,0-1.3,0
		C100.3,57.6,93.9,57.6,87.4,57.6z"/>
	<path class="st0" d="M127,59.6c1.7,0,3.2,0,4.8,0c2,0,3.3,1.3,3.3,3c0,1.7-1.4,3-3.3,3c-1.5,0-2.9,0-4.4,0c0,0-0.1,0-0.3,0.1
		c0,1.6,0,3.3,0,4.9c0,1.4-0.9,2.5-2.2,2.9c-1.2,0.4-2.5,0-3.2-1.1c-0.4-0.6-0.6-1.4-0.6-2.1c-0.1-1.5,0-3,0-4.7c-1.7,0-3.3,0-4.9,0
		c-1.6,0-2.7-0.9-3.1-2.3c-0.5-1.8,0.9-3.6,2.9-3.7c0.8,0,1.7,0,2.5,0c0.8,0,1.6,0,2.6,0c0-1.7,0-3.3,0-4.9c0-1.6,0.9-2.7,2.3-3.1
		c1.8-0.5,3.6,0.9,3.7,2.9C127.1,56.1,127,57.8,127,59.6z"/>
	<path class="st0" d="M76.5,69.6c-2.9,0-5.8,0-8.7,0c-2.1,0-3.4-1.3-3.4-3c0-1.7,1.4-3,3.3-3c5.8,0,11.6,0,17.4,0c2,0,3.3,1.2,3.3,3
		c0,1.8-1.4,3-3.4,3C82.3,69.6,79.4,69.6,76.5,69.6z"/>
	<path class="st0" d="M104.3,110c-3.3,0-6.6,0-9.9,0c0,1.6,0,3.2,0,4.7c0,1.9-1.2,3.2-2.9,3.2c-1.8,0-3.1-1.2-3.1-3.2
		c0-5.4-0.1-10.8,0-16.2c0.1-6,5.1-10.8,11.1-10.7c6,0,10.9,4.8,11,10.9c0.1,5.3,0,10.6,0,16c0,1.9-1.2,3.2-2.9,3.2
		c-1.8,0-3-1.3-3.1-3.2c0-1.5,0-2.9,0-4.4C104.4,110.3,104.4,110.2,104.3,110z M94.5,103.8c3.3,0,6.6,0,10,0c0-1.7,0-3.3,0-5
		c-0.1-2.7-2-4.8-4.7-5c-2.5-0.2-4.9,1.6-5.2,4.2C94.3,100,94.5,101.9,94.5,103.8z"/>
</g>
</svg>
