<?xml version="1.0" encoding="utf-8"?>
<!-- Generator: Adobe Illustrator 24.0.0, SVG Export Plug-In . SVG Version: 6.00 Build 0)  -->
<svg version="1.1" id="Capa_1" xmlns="http://www.w3.org/2000/svg" xmlns:xlink="http://www.w3.org/1999/xlink" x="0px" y="0px"
	 viewBox="0 0 250 250" style="enable-background:new 0 0 250 250;" xml:space="preserve">
<style type="text/css">
	.st0{fill:#1C3247;}
</style>
<g id="B0cInf.tif">
	<g>
		<path class="st0" d="M123.1,33.8c3.1,0.4,6.1,0.7,9.2,1.1c11,1.5,21.4,5.1,31.1,10.6c14.7,8.3,26.3,19.9,34.7,34.5
			c3.5,6.1,6.2,12.5,8.2,19.1c0.2,0.6,0.4,1.2,0.7,2.2c1.3-3.2,2.4-6.1,3.6-8.9c1.4-3.3,4.7-4.7,7.8-3.5c3.3,1.3,4.7,4.7,3.3,8.3
			c-2.3,6-4.8,12-7.2,18c-1.5,3.7-3.1,7.4-4.4,11.1c-1.5,4.3-6.7,6.7-11.1,2.3c-7.7-7.8-15.5-15.5-23.2-23.3
			c-1.8-1.8-2.6-3.8-1.9-6.4c0.7-2.3,2.2-3.7,4.5-4.2c2.3-0.6,4.2,0.2,5.9,1.8c3.4,3.4,6.8,6.8,10.2,10.2c0.4,0.4,0.9,0.9,1.6,1.5
			c-1.5-7.2-3.9-13.6-7.1-19.8c-8.2-15.5-20.2-27.1-35.9-34.8c-12.6-6.1-25.9-8.5-39.8-7.6C99.6,47.1,87,51.5,75.6,59
			c-11.5,7.6-20.4,17.5-26.8,29.7c-6.3,12-9.2,24.9-8.8,38.4c0.5,16.4,5.6,31.3,15.3,44.5c11.9,16.1,27.7,26.5,47.3,30.7
			c16.8,3.6,33.2,1.8,49-5.4c8.5-3.8,16-9,22.6-15.4c1.5-1.5,3.2-2.5,5.4-2.3c2.6,0.2,4.4,1.6,5.3,4c0.8,2.5,0.2,4.7-1.7,6.6
			c-6.5,6.4-13.7,11.8-21.8,16c-14.5,7.6-30,10.9-46.3,10.3c-36.9-1.3-70.4-26.4-82.3-61.4c-2.5-7.3-4.1-14.9-4.7-22.6
			c0-0.5-0.2-1-0.3-1.5c0-3.8,0-7.6,0-11.4c0.1-0.4,0.3-0.8,0.3-1.3c1-14.2,5.1-27.5,12.6-39.6C55,55,75.7,40.5,102.8,35.3
			c3.6-0.7,7.2-1,10.9-1.5C116.8,33.8,120,33.8,123.1,33.8z"/>
		<path class="st0" d="M94.6,106.8c0-4.3-0.1-8.3,0-12.4c0.2-14,11.7-24.7,25.6-24.1c12.3,0.6,22.5,10.8,22.9,23.1
			c0.2,4.4,0,8.7,0,13.3c2,0,3.8,0,5.6,0c4.1,0.1,6.6,2.5,6.6,6.7c0,15.8,0,31.7,0,47.5c0,4.1-2.5,6.6-6.6,6.6
			c-19.9,0-39.8,0-59.7,0c-4.2,0-6.6-2.5-6.6-6.6c0-15.8,0-31.7,0-47.5c0-4.3,2.5-6.6,6.8-6.7C91,106.8,92.7,106.8,94.6,106.8z
			 M143.1,155.3c0-12.2,0-24.3,0-36.2c-16.2,0-32.3,0-48.4,0c0,12.2,0,24.2,0,36.2C110.9,155.3,126.9,155.3,143.1,155.3z
			 M106.8,106.6c8.2,0,16.2,0,24.2,0c0-4.4,0.2-8.6,0-12.8c-0.4-6.5-5.7-11.3-12-11.3c-6.4,0-11.8,5-12.1,11.5
			C106.7,98.1,106.8,102.3,106.8,106.6z"/>
	</g>
</g>
</svg>
