<?xml version="1.0" encoding="utf-8"?>
<!-- Generator: Adobe Illustrator 24.0.0, SVG Export Plug-In . SVG Version: 6.00 Build 0)  -->
<svg version="1.1" id="Capa_1" xmlns="http://www.w3.org/2000/svg" xmlns:xlink="http://www.w3.org/1999/xlink" x="0px" y="0px"
	 viewBox="0 0 200 200" style="enable-background:new 0 0 200 200;" xml:space="preserve">
<style type="text/css">
	.st0{fill:#1C3247;}
	.st1{fill:#1C3247;}
	.st2{fill:#FD9800;}
</style>
<g>
	<path class="st0" d="M17,161.9c0-41.3,0-82.6,0-123.8c0.1-0.1,0.2-0.2,0.2-0.2C19,32.3,22.2,30,28,30c6.9,0,13.7,0,20.6,0
		c0.6,0,1.1,0,1.8,0c0-1.3,0-2.3,0-3.4c0.1-5.3,4.4-9.5,9.7-9.6c5.3,0,9.6,4.2,9.8,9.5c0,1.1,0,2.2,0,3.4c17.6,0,35,0,52.5,0
		c0-1.1,0-2.1,0-3.2c0.1-5.4,4.4-9.7,9.7-9.7c5.3,0,9.6,4.2,9.7,9.6c0,1.1,0,2.1,0,3.3c0.8,0,1.4,0,1.9,0c6.8,0,13.6,0,20.4,0
		c7.1,0,11,4,11,11c0,29.8,0,59.5,0,89.3c0,1.2,0.3,2.2,1.1,3.2c13.4,16.9,5.8,41.6-14.7,48.1c-1.9,0.6-3.9,0.9-5.8,1.4
		c-2.1,0-4.1,0-6.2,0c-0.3-0.1-0.5-0.2-0.8-0.2c-8.5-1.1-15.3-5.1-20.7-11.9c-0.4-0.5-1.2-0.8-1.9-0.8c-7.1-0.1-14.2,0-21.2,0
		c-2.6,0-5.3,0-7.9,0c-1.4,0-2.6-0.5-2.9-1.8c-0.3-1-0.2-2.5,0.4-3.3c0.6-0.8,2-1.3,3.1-1.3c8.2-0.1,16.4-0.1,24.6-0.1
		c0.6,0,1.1-0.1,1.6-0.1c-0.7-3.1-1.3-6-2-9c-0.6,0-1.3,0-1.9,0c-27.6,0-55.2,0-82.8,0c-3.6,0-4.6-0.9-4.6-4.6c0-24.6,0-49.3,0-73.9
		c0-3.5,1-4.5,4.4-4.5c39.4,0,78.9,0,118.3,0c3.3,0,4.4,1,4.4,4.4c0,15,0,30,0,45.1c0,0.6,0,1.3,0,1.7c3.1,1.3,6.1,2.5,8.9,3.7
		c0-21.3,0-42.6,0-64c-0.8,0-1.5,0-2.2,0c-39.6,0-79.1,0-118.7,0c-0.6,0-1.3,0-1.9,0c-1.7-0.2-2.8-1.6-2.8-3.2c0-1.6,1.2-3,2.9-3.2
		c0.6-0.1,1.2,0,1.8,0c39.7,0,79.3,0,119,0c0.7,0,1.4,0,2.1,0c0-5.3,0-10.4,0-15.4c0-2.8-1.3-4-4.1-4c-7.1,0-14.3,0-21.4,0
		c-0.4,0-0.8,0-1.4,0c0,1.2,0,2.2,0,3.2c-0.1,5.5-4.4,9.8-9.8,9.8c-5.3,0-9.6-4.3-9.6-9.8c0-1.1,0-2.1,0-3.1c-17.6,0-35,0-52.5,0
		c0,1.2,0,2.3,0,3.5c-0.2,5.2-4.5,9.4-9.7,9.4c-5.3,0-9.6-4.2-9.8-9.5c0-1.1,0-2.2,0-3.5c-0.8,0-1.3,0-1.9,0c-6.8,0-13.5,0-20.3,0
		c-3.7,0-4.7,1-4.7,4.7c0,39.2,0,78.4,0,117.7c0,3.7,1,4.7,4.7,4.7c14.2,0,28.3,0,42.5,0c2.2,0,3.7,1.4,3.7,3.3
		c0,1.8-1.5,3.2-3.6,3.2c-14.7,0-29.4,0-44.1,0c-4.2,0-7.8-2.7-9.2-6.8C17.4,162.8,17.2,162.4,17,161.9z M152.6,128.5
		c-13.2,0-24,10.8-24,24c0,13.2,10.7,23.9,23.9,24c13.3,0,24.1-10.7,24.1-23.9C176.6,139.3,165.8,128.5,152.6,128.5z M80.7,97
		c0-6.4,0-12.7,0-19c-5.9,0-11.6,0-17.4,0c0,6.4,0,12.7,0,19C69.2,97,74.9,97,80.7,97z M111.5,78c0,6.4,0,12.7,0,19
		c5.9,0,11.6,0,17.5,0c0-6.4,0-12.6,0-19C123.1,78,117.3,78,111.5,78z M63.2,147.9c5.9,0,11.7,0,17.5,0c0-6.4,0-12.7,0-18.9
		c-5.9,0-11.6,0-17.5,0C63.2,135.3,63.2,141.5,63.2,147.9z M63.3,103.6c0,6.3,0,12.5,0,18.6c5.9,0,11.7,0,17.4,0
		c0-6.3,0-12.5,0-18.6C74.8,103.6,69.1,103.6,63.3,103.6z M129,122.3c0-6.3,0-12.4,0-18.6c-5.9,0-11.7,0-17.5,0c0,6.2,0,12.4,0,18.6
		C117.3,122.3,123.1,122.3,129,122.3z M56.6,78.1c-5.9,0-11.7,0-17.4,0c0,6.4,0,12.7,0,18.9c5.9,0,11.6,0,17.4,0
		C56.6,90.6,56.6,84.4,56.6,78.1z M87.4,78c0,6.4,0,12.7,0,19c5.9,0,11.6,0,17.3,0c0-6.4,0-12.7,0-19C99,78,93.3,78,87.4,78z
		 M153.1,97c0-6.4,0-12.7,0-19c-5.9,0-11.6,0-17.4,0c0,6.4,0,12.7,0,19C141.5,97,147.2,97,153.1,97z M56.6,129c-5.9,0-11.7,0-17.4,0
		c0,6.4,0,12.7,0,18.9c5.9,0,11.6,0,17.4,0C56.6,141.5,56.6,135.3,56.6,129z M87.4,128.9c0,6.4,0,12.7,0,19c5.9,0,11.6,0,17.4,0
		c0-6.4,0-12.7,0-19C99,128.9,93.3,128.9,87.4,128.9z M56.5,122.3c0-6.3,0-12.5,0-18.6c-5.9,0-11.6,0-17.4,0c0,6.3,0,12.4,0,18.6
		C45,122.3,50.7,122.3,56.5,122.3z M104.8,122.3c0-6.3,0-12.5,0-18.7c-5.9,0-11.6,0-17.4,0c0,6.3,0,12.4,0,18.7
		C93.2,122.3,99,122.3,104.8,122.3z M153.1,103.7c-5.9,0-11.6,0-17.4,0c0,6.3,0,12.4,0,18.7c3,0,5.8,0,8.7,0
		c2.9-0.1,5.8-0.2,8.8-0.3C153.1,115.9,153.1,109.8,153.1,103.7z M111.5,128.9c0,6.4,0,12.7,0,19c3.7,0,7.2,0,10.8,0
		c0.1-0.5,0.3-0.9,0.3-1.3c0.8-4.3,2.4-8.3,5.1-11.7c1.5-1.9,1.3-3.8,1.2-6C123.1,128.9,117.4,128.9,111.5,128.9z M63.4,33.2
		c0-2,0-4.1,0-6.1c0-2.1-1.3-3.5-3.2-3.6c-1.9,0-3.3,1.4-3.3,3.6c0,4.1,0,8.2,0,12.3c0,2.1,1.3,3.5,3.2,3.6c1.9,0,3.3-1.4,3.3-3.6
		C63.4,37.3,63.4,35.2,63.4,33.2z M128.9,33.2c0,2,0,4.1,0,6.1c0,2.1,1.3,3.5,3.2,3.6c1.9,0,3.3-1.4,3.3-3.6c0-4.1,0-8.2,0-12.3
		c0-2.1-1.3-3.5-3.2-3.6c-1.9,0-3.3,1.4-3.3,3.6C128.8,29.1,128.9,31.2,128.9,33.2z"/>
	<path class="st1" d="M33.3,55.9c1.8,0,3.3,1.6,3.2,3.4c-0.1,1.7-1.6,3.1-3.3,3.1c-1.8,0-3.3-1.6-3.2-3.4
		C30.1,57.3,31.5,55.9,33.3,55.9z"/>
	<path class="st1" d="M84.1,163.6c1.7,0,3.2,1.5,3.2,3.3c0,1.8-1.6,3.3-3.4,3.2c-1.8-0.1-3.1-1.6-3.1-3.3
		C80.9,164.9,82.4,163.5,84.1,163.6z"/>
	<path class="st2" d="M151.8,154.8c3.2-3.2,6.2-6.2,9.2-9.2c0.4-0.4,0.8-0.9,1.3-1.2c1.3-0.9,3-0.7,4.1,0.4c1.1,1.1,1.3,2.8,0.3,4.1
		c-0.7,0.9-1.6,1.7-2.5,2.6c-3.2,3.2-6.3,6.3-9.5,9.5c-2.1,2.1-3.7,2.1-5.8,0.1c-2-1.9-3.9-3.9-5.8-5.8c-1.6-1.6-1.7-3.5-0.3-4.9
		c1.4-1.4,3.3-1.3,4.9,0.3C149.1,151.8,150.3,153.2,151.8,154.8z"/>
</g>
</svg>
