<?xml version="1.0" encoding="utf-8"?>
<!-- Generator: Adobe Illustrator 24.0.0, SVG Export Plug-In . SVG Version: 6.00 Build 0)  -->
<svg version="1.1" id="Capa_1" xmlns="http://www.w3.org/2000/svg" xmlns:xlink="http://www.w3.org/1999/xlink" x="0px" y="0px"
	 viewBox="0 0 200 200" style="enable-background:new 0 0 200 200;" xml:space="preserve">
<style type="text/css">
	.st0{fill:#1C3247;}
	.st1{fill:#FD9800;}
</style>
<g>
	<path class="st0" d="M29.6,181.3c0-0.6,0.1-1.3,0.1-1.9c0-17.5,0-35.1,0-52.6c0-0.6,0-1.3,0-2c8.7,0,17.1,0,25.7,0
		c0,2.7,0,5.3,0,8.1c0.6-0.3,1-0.4,1.3-0.7c2.1-1.2,4.1-2.6,6.3-3.6c1.6-0.7,3.4-1.2,5.2-1.3c5.7-0.2,11.5-0.1,17.2,0
		c1.1,0,2.2,0.2,3.4,0.4c0.1-1.8,0.2-3.6,0.3-5.6c-0.8,0-1.7,0-2.5,0c-4.6-0.1-7.8-3.2-8-7.9c0-1.7-0.1-3.4,0-5.1
		c0.2-4.2,3-7.2,7.3-7.6c1-0.1,2.1,0,3,0c0-2.6,0-5,0-7.5c0.1-4.7,3.2-7.9,8-8c3.2-0.1,6.4,0,9.6-0.1c0,0,0.1,0,0.3-0.1
		C96.3,80.4,90,72,89,60.1c-0.8-9.3,2.2-17.4,8.8-24c12.5-12.8,33.4-12.1,45.2,1.3c13.3,15.1,8.8,40-10.4,48.7c3.2,0,6,0,8.8,0
		c1.1,0,2.1,0,3.1,0.2c3.3,0.6,5.8,3.3,6.1,6.6c0.2,2.1,0.2,4.2,0.1,6.3c-0.2,4.2-3.1,7.1-7.3,7.4c-1,0.1-2.1,0-3.1,0
		c0,3.5,0,6.8,0,10.3c2.9,0,6-0.1,8.4,2.4c2.4,2.5,2.1,5.6,2.1,8.9c1.6-0.9,3-1.7,4.5-2.5c7.2-3.8,15.6,1.4,15.2,9.5
		c-0.1,3.7-1.9,6.5-5.1,8.4c-12.3,7.6-24.7,15.3-37,22.9c-4.1,2.5-8.1,5-12.2,7.5c-2.3,1.4-4.8,2.1-7.4,2.1c-13.5,0-26.9,0-40.4,0
		c-2.8,0-5.3-0.9-7.8-1.9c-1.6-0.6-3.2-1.3-4.9-2c0,3.1,0,6.1,0,9C46.9,181.3,38.2,181.3,29.6,181.3z M87,143.4
		c2.1,0.6,4.1,1.1,6.1,1.6c7.6,2,15.1,4.1,22.7,5.9c3.8,0.9,6.9-2.8,5.7-6.5c-0.7-2.2-2.4-3.2-4.5-3.7c-8.7-2.3-17.3-4.7-26-6.9
		c-2.1-0.5-4.2-1.2-6.3-1.2c-5.2-0.2-10.5-0.2-15.7,0c-1.5,0-3.2,0.5-4.6,1.2c-2.7,1.4-5.3,3.1-7.9,4.7c-0.7,0.4-1,0.9-1,1.8
		c0,8.5,0,17,0,25.5c0,0.8,0.2,1.2,1,1.5c2.6,1,5.2,2.1,7.9,3c1.3,0.5,2.7,0.8,4.1,0.8c13.3,0.1,26.6,0,40,0c1.9,0,3.7-0.4,5.3-1.5
		c16.3-10.1,32.5-20.1,48.8-30.2c2.8-1.7,3.6-4.7,2.1-7.2c-1.5-2.5-4.6-3.2-7.4-1.6c-9.9,5.7-19.7,11.4-29.6,17.1
		c-0.5,0.3-0.9,0.8-1.1,1.3c-2,5.5-6.8,8.3-12.5,6.9c-8.8-2.2-17.6-4.6-26.3-7c-0.7-0.2-1.3-0.4-2-0.6C86.2,146.6,86.6,145,87,143.4
		z M145.5,57.9c0.1-14.2-11.3-25.8-25.5-25.9c-14.2-0.1-25.8,11.3-25.9,25.5c-0.1,14.3,11.3,25.9,25.5,26.1
		C133.8,83.6,145.4,72.2,145.5,57.9z M50.2,176.1c0-15.4,0-30.8,0-46.2c-5.1,0-10.2,0-15.3,0c0,15.4,0,30.8,0,46.2
		C40,176.1,45.1,176.1,50.2,176.1z M106.9,101.4c0-1.4-0.1-2.7,0-4c0-0.4,0.4-1,0.7-1c1.4-0.1,2.9,0,4.5,0c0,1.8,0,3.4,0,5
		c1.8,0,3.4,0,5.2,0c0-1.7,0-3.3,0-5c1.4,0,2.7,0,3.9,0c0.9,0,1.2,0.3,1.2,1.2c-0.1,1.3,0,2.6,0,3.8c1.8,0,3.4,0,5.2,0
		c0-1.7,0-3.3,0-4.9c1.8,0,3.4,0,5.2,0c0,1.7,0,3.3,0,4.9c1.8,0,3.4,0,5.1,0c0-1.7,0-3.3,0-4.9c1.8,0,3.4,0,5.1,0c0,0.9,0,1.7,0,2.5
		c0,0.8,0,1.6,0,2.4c1.6-0.1,2.4-0.9,2.5-2.3c0.1-1.4,0.1-2.7,0.1-4.1c0-3.2-0.7-3.9-3.9-3.9c-14.6,0-29.1,0-43.7,0
		c-0.6,0-1.5-0.1-1.9,0.2c-0.7,0.5-1.7,1.3-1.8,2.1c-0.3,1.9-0.2,3.8-0.1,5.7c0.1,1.4,1,2.1,2.5,2c0-1.6,0-3.2,0-4.8
		c1.8,0,3.4,0,5.2,0c0,1.7,0,3.3,0,4.9C103.6,101.4,105.1,101.4,106.9,101.4z M132.7,117c1.7-0.3,2.5-1.1,2.5-2.6
		c0-1.7,0.1-3.4,0-5.1c-0.1-1.5-0.9-2.4-2.5-2.5c-0.4,0-0.9,0-1.4,0c-14.6,0-29.2,0-43.7,0c-0.5,0-1,0-1.5,0.1
		c-1.4,0.2-2.2,0.9-2.3,2.3c-0.1,1.9-0.1,3.7,0,5.6c0.1,1.4,0.9,2.2,2.5,2.2c0-1.7,0-3.3,0-5c1.8,0,3.4,0,5.1,0c0,1.7,0,3.3,0,5
		c1.8,0,3.4,0,5.1,0c0-1.7,0-3.3,0-4.9c1.8,0,3.4,0,5.2,0c0,1.7,0,3.3,0,4.9c1.7,0,3.3,0,5.1,0c0-1.7,0-3.3,0-5c1.8,0,3.4,0,5.2,0
		c0,1.7,0,3.3,0,4.9c1.8,0,3.4,0,5.1,0c0-1.7,0-3.3,0-4.9c1.8,0,3.4,0,5.2,0c0,1.7,0,3.3,0,4.9c1.8,0,3.4,0,5.2,0c0-1.7,0-3.3,0-4.9
		c1.7,0,3.3,0,5.1,0C132.7,113.6,132.7,115.2,132.7,117z M132.7,127.4c0,1.7,0,3.3,0,4.9c1.8,0,3.4,0,5.2,0c0-1.7,0-3.3,0-4.9
		c1.8,0,3.4,0,5.1,0c0,1.7,0,3.3,0,5c1.6-0.2,2.4-1,2.5-2.5c0.1-1.4,0-2.7,0-4.1c0-3-0.7-3.7-3.7-3.7c-14.7,0-29.3,0-44,0
		c-0.4,0-0.8,0-1.2,0c-1.5,0.1-2.4,1-2.5,2.5c0,0.9,0,1.8,0,2.7c0,2.2,0.1,2.3,2.5,2.3c0-0.8,0.1-1.5,0.1-2.3c1.8,0,3.4,0,5.1,0
		c0,1,0,2,0,2.9c0,0.4,0.2,1,0.4,1c1.5,0.5,3,0.8,4.8,1.3c0-2,0-3.6,0-5.2c1.8,0,3.4,0,5.2,0c0,1.7,0,3.3,0,5c1.8,0,3.4,0,5.2,0
		c0-1.7,0-3.3,0-5c1.8,0,3.4,0,5.2,0c0,1.7,0,3.3,0,5c1.8,0,3.4,0,5.1,0c0-1.7,0-3.3,0-5C129.3,127.4,130.9,127.4,132.7,127.4z
		 M134.5,137.7c-4.1,0-7.8,0-11.4,0c1.2,1.5,2.3,3,3.5,4.6C129.1,140.8,131.6,139.3,134.5,137.7z"/>
	<path class="st1" d="M122.4,70.7c0,1.5,0,3.2,0,5c-1.7,0-3.3,0-5.1,0c0-1.8,0-3.5,0-5.2c-4-1.1-7.1-2.8-7.9-7.5c1.7,0,3.2,0,4.8,0
		c0.2,0,0.4,0.2,0.6,0.4c2.3,2.3,6,2.8,8.8,1.2c1.8-1,1.8-2.4,0-3.2c-1.2-0.6-2.7-0.9-4-1c-2.7-0.2-5.2-0.8-7.3-2.5
		c-3.7-3-3.7-7.8,0.1-10.6c1.1-0.8,2.6-1.2,3.9-1.9c0.4-0.2,0.9-0.8,0.9-1.2c0.1-1.4,0-2.8,0-4.3c1.7,0,3.3,0,5.1,0
		c0,1.7,0,3.5,0,5.1c5.6,2.1,7.6,4,7.6,7.6c-1.5,0-3,0-4.5,0c-0.2,0-0.5-0.2-0.7-0.4c-2.2-2.4-6.7-2.8-9.2-0.9c-1.2,0.9-1.4,2,0,2.7
		c1.4,0.7,3,1.1,4.6,1.2c2.5,0.2,4.8,0.7,6.8,2.2c4.2,3,4.1,8.3-0.2,11.2C125.5,69.4,124,69.9,122.4,70.7z"/>
</g>
</svg>
