<?xml version="1.0" encoding="utf-8"?>
<!-- Generator: Adobe Illustrator 24.0.0, SVG Export Plug-In . SVG Version: 6.00 Build 0)  -->
<svg version="1.1" id="Capa_1" xmlns="http://www.w3.org/2000/svg" xmlns:xlink="http://www.w3.org/1999/xlink" x="0px" y="0px"
	 viewBox="0 0 200 200" style="enable-background:new 0 0 200 200;" xml:space="preserve">
<style type="text/css">
	.st0{fill:#1C3247;}
</style>
<path class="st0" d="M163.4,146.9c-0.2-2.4-4.1-9.1-32.7-20.9l0.4-0.7l-14.2-6.2v-11.4c8.7-3.2,15.1-11.1,16.3-20.5
	c7.7-0.3,14-6.3,14-13.7c0-4.7-2.5-8.8-6.3-11.3v-21l0-0.3c0-0.3-1.1-7.6-6.3-11.3c-2.2-1.5-4.7-2.2-7.6-2.1
	c-1.6-5.3-6.2-12.6-15.6-13c-11.7-0.5-26.5,0-26.7,0c-0.3,0-30.5,1.6-29,45.9l0.1,2.2l2.2,0.3c0.1,0,0.2,0,0.3,0
	c-3.2,2.5-5.2,6.3-5.2,10.5c0,7.4,6.2,13.4,13.9,13.7c1.2,9.5,7.6,17.3,16.3,20.6v11.4l-11.4,5c-10.8,3.9-35.6,13.7-35.8,22
	c-0.2,7.3,0,35,0,36.1l0,2.6h127.5v-37.6L163.4,146.9z M89.4,109.2c0.8,0.1,1.6,0.1,2.4,0.1H108c0.8,0,1.6,0,2.5-0.1l0.2,11
	c-3.3,3.1-7.1,6.7-10.7,10.2c-3.7-3.5-7.4-7.1-10.7-10.2L89.4,109.2z M114.5,123.8l7.8,3.4l-0.4,1c0.4,0.1,0.7,0.3,1.1,0.4
	c-3.6,6-7.2,11.9-9.2,14.8c-2.1-1.9-5.9-5.4-10.1-9.4C106.8,131.2,110.3,127.8,114.5,123.8z M133.3,81.9V65.4
	c1.3,0.4,2.7,0.7,4.1,0.9c2.6,1.5,4.4,4.1,4.4,7.2C141.8,78,138.1,81.6,133.3,81.9z M84.7,19.8c0.1,0,14.8-0.5,26.3,0
	c9.4,0.4,11.2,10.6,11.3,11l0.4,2.7l2.7-0.6c2.4-0.5,4.4-0.2,6,0.9c3.1,2.1,4,6.7,4.1,7.5v18.7c-0.7-0.1-1.5-0.2-2.3-0.2
	c-12.1-4.8-17.7-19.4-17.7-19.5l-1.5-4.1l-2.9,3.3C94.2,58.7,68.3,58.5,60.7,58C60.4,21.3,83.7,19.9,84.7,19.8z M58.1,73.5
	c0-4.4,3.8-8.1,8.5-8.4v16.8C61.8,81.6,58.1,77.9,58.1,73.5z M71.8,84V63.2c11.4-0.9,27.6-4.6,40.5-17.3c2.4,4.8,7.5,12.8,15.8,17.4
	V84c0,11.1-9,20.1-20.1,20.1H91.8C80.8,104.1,71.8,95.1,71.8,84z M85.4,123.8c4.2,4,7.7,7.4,10.7,10.2c-4.2,4-7.9,7.5-10.1,9.4
	c-2-3.1-5.9-9.4-9.7-15.7L85.4,123.8z M158.1,179.6H41.1c0-7.2-0.1-27.4,0-33.4c0.3-2.9,14.3-10.5,30.4-16.5
	c11.9,20.1,12.3,20.1,14.1,20.1c1,0,1.5,0,14.3-12.1c12.8,12.1,13.3,12.1,14.3,12.1c1.8,0,2.2,0,13.6-19.2
	c25.2,10.3,29.6,16,30.2,17.1V179.6z"/>
</svg>
