<?xml version="1.0" encoding="utf-8"?>
<!-- Generator: Adobe Illustrator 24.0.0, SVG Export Plug-In . SVG Version: 6.00 Build 0)  -->
<svg version="1.1" id="Capa_1" xmlns="http://www.w3.org/2000/svg" xmlns:xlink="http://www.w3.org/1999/xlink" x="0px" y="0px"
	 viewBox="0 0 250 250" style="enable-background:new 0 0 250 250;" xml:space="preserve">
<style type="text/css">
	.st0{fill:#1C3247;}
</style>
<g id="UvoiTk.tif">
	<g>
		<path class="st0" d="M220.5,204.4c-41.5,0-83,0-124.4,0c-1.8-1.2-2.3-2.9-2.2-5c0.1-2.7,0-5.3,0-8c0-3.1,1.2-4.3,4.3-4.3
			c3.4,0,6.7,0,10.2,0c0.6-2.3,1.1-4.5,1.7-6.8c-10.1,0-20,0-30.1,0c0,3.6,0.1,7,0,10.4c-0.2,5.3-2.6,9.3-7.3,11.9
			c-1.4,0.8-2.9,1.2-4.4,1.7c-13,0-25.9,0-38.9,0c-3.7-1-7.1-2.7-9.2-6.1c-1-1.6-1.6-3.4-2.4-5.1c0-20.1,0-40.3,0-60.4
			c0.1-0.2,0.3-0.3,0.4-0.5c2.3-7.3,7-10.7,14.5-10.7c1.9,0,3.8,0,5.9,0c0-1.2,0-2,0-2.9c0-19.4,0-38.8,0-58.3
			c0-9.1,5.8-14.8,14.8-14.8c47.7,0,95.5,0,143.2,0c8.9,0,14.8,5.8,14.8,14.7c0,8.1,0,16.3,0,24.4c0,0.8,0,1.5,0,2.4
			c2.3,0,4.3,0,6.3,0c8.5,0,14.4,5.9,14.4,14.4c0,5.5,0,11.1,0,16.6c0,24,0,47.9,0,71.9c0,7.3-3.9,12.3-10.9,14.2
			C221,204.2,220.7,204.3,220.5,204.4z M45.5,121.5c7,0,13.8,0,20.6,0c8,0.1,13.9,6,14,13.9c0.1,6,0,11.9,0,17.9c0,0.8,0,1.7,0,2.5
			c20.9,0,41.5,0,62.2,0c0-0.9,0-1.7,0-2.5c0-17.2,0-34.4,0-51.6c0-9,5.8-14.8,14.9-14.8c15,0,30,0,44.9,0c0.8,0,1.5,0,2.4,0
			c0-9,0-17.7,0-26.4c0-5.5-2.6-8.2-8.2-8.2c-47.5,0-95.1,0-142.6,0c-5.6,0-8.2,2.6-8.2,8.2c0,19.5,0,39,0,58.5
			C45.5,119.8,45.5,120.5,45.5,121.5z M24.8,162.9c0,9.1,0,18.3,0,27.4c0,4.2,2.9,7.2,6.9,7.2c11.5,0.1,23,0.1,34.5,0
			c3.9,0,6.9-3,6.9-6.8c0-18.5,0-36.9,0-55.4c0-3.8-3-6.6-6.7-6.8c-1.1,0-2.2-0.2-3.2,0c-0.7,0.1-1.5,0.7-1.7,1.3
			c-0.8,2.1-1.5,4.2-2.2,6.3c-0.6,1.8-1.8,2.7-3.7,2.7c-2.9,0-5.8,0-8.6,0c-7.8,0-7.2,0.7-9.7-7c-1.1-3.4-1.1-3.4-4.7-3.4
			c-5.1,0-7.8,2.8-7.8,7.9C24.8,145.2,24.8,154,24.8,162.9z M225.2,145.7c0-14.6,0-29.2,0-43.8c0-5.2-2.7-7.9-8-7.9c-20,0-40,0-60,0
			c-5.3,0-8,2.7-8,7.9c0,29.2,0,58.4,0,87.6c0,5.4,2.7,8,8.1,8c19.9,0,39.9,0,59.8,0c5.5,0,8.1-2.6,8.1-8
			C225.2,174.9,225.2,160.3,225.2,145.7z M80.2,173.2c20.8,0,41.4,0,61.9,0c0-3.5,0-6.8,0-10.1c-20.7,0-41.3,0-61.9,0
			C80.2,166.5,80.2,169.8,80.2,173.2z M143.8,197.5c-0.2-3-1.8-3.5-4.3-3.5c-12.1,0.1-24.1,0.1-36.2,0.1c-0.8,0-1.5,0-2.2,0
			c0,1.3,0,2.3,0,3.4C115.4,197.5,129.6,197.5,143.8,197.5z M115.7,187c6.4,0,12.4,0,18.7,0c-0.6-2.4-1.2-4.6-1.7-6.7
			c-5.3,0-10.3,0-15.4,0C116.8,182.6,116.2,184.7,115.7,187z M43.6,128.5c0.7,3.4,0.7,3.4,3.8,3.4c1.1,0,2.2,0,3.2,0
			c3.1,0,3.1,0,3.6-3.4C50.7,128.5,47.2,128.5,43.6,128.5z M139.8,180.3c0.6,2.5,1.2,4.6,1.8,6.8c0.2,0,0.4-0.1,0.6-0.1
			c0-2.2,0-4.4,0-6.7C141.4,180.3,140.7,180.3,139.8,180.3z"/>
		<path class="st0" d="M36.9,187.2c1.7,0,3.3,0,5,0c2.2,0.1,3.7,1.5,3.6,3.4c0,2-1.5,3.4-3.7,3.4c-3.3,0.1-6.6,0.1-9.9,0
			c-2.2,0-3.6-1.5-3.6-3.4c0-2,1.5-3.3,3.7-3.4C33.6,187.1,35.2,187.2,36.9,187.2z"/>
		<path class="st0" d="M54.1,194.1c-0.4,0-0.9,0-1.3,0c-2.3-0.1-3.8-1.5-3.8-3.5c0-2,1.5-3.3,3.7-3.4c0.9,0,1.9,0,2.8,0
			c2.3,0.1,3.8,1.5,3.8,3.5c0,1.9-1.5,3.3-3.7,3.4C55.1,194.1,54.6,194.1,54.1,194.1z"/>
		<path class="st0" d="M221.8,140.5c0,12.8,0,25.6,0,38.4c0,3.7-1.1,4.7-4.8,4.7c-19.9,0-39.7,0-59.6,0c-3.7,0-4.7-1.1-4.7-4.8
			c0-25.6,0-51.2,0-76.8c0-3.7,1.1-4.7,4.8-4.7c19.9,0,39.7,0,59.6,0c3.7,0,4.8,1.1,4.8,4.7C221.8,114.9,221.8,127.7,221.8,140.5z
			 M214.7,176.7c0-24.2,0-48.3,0-72.3c-18.5,0-36.8,0-55,0c0,24.2,0,48.2,0,72.3C178.1,176.7,196.3,176.7,214.7,176.7z"/>
		<path class="st0" d="M183.7,194.1c-1.9,0-3.4-1.6-3.4-3.5c0-1.9,1.6-3.4,3.5-3.4c1.9,0,3.4,1.6,3.4,3.5
			C187.2,192.5,185.6,194.1,183.7,194.1z"/>
	</g>
</g>
</svg>
