<?xml version="1.0" encoding="utf-8"?>
<!-- Generator: Adobe Illustrator 24.0.0, SVG Export Plug-In . SVG Version: 6.00 Build 0)  -->
<svg version="1.1" id="Capa_1" xmlns="http://www.w3.org/2000/svg" xmlns:xlink="http://www.w3.org/1999/xlink" x="0px" y="0px"
	 viewBox="0 0 200 200" style="enable-background:new 0 0 200 200;" xml:space="preserve">
<style type="text/css">
	.st0{fill:#BECBD8;}
</style>
<g>
	<path class="st0" d="M26.4,135.9c0-2.1,0-4.2,0-6.3c0.1-0.3,0.2-0.6,0.2-1C28,117,33.6,107.8,43.1,101c0.8-0.6,1.1-1.1,1.1-2.1
		c0-15.4,0-30.7,0-46.1c0-0.5,0-1.1,0-1.7c3,0,5.9,0,8.7,0c2.8,0,5.6,0,8.5,0c0-1.7,0-3.3,0-4.9c0.2-6.6,5.8-12.1,12.4-12.3
		c7.3-0.2,13.2,5.4,13.4,12.7c0,1.5,0,2.9,0,4.3c3,0,5.7,0,8.6,0c0-1.6,0-3.2,0-4.8c0.2-6.7,5.8-12.2,12.5-12.3
		c7.2-0.2,13.1,5.5,13.2,12.7c0,1.5,0,2.9,0,4.3c3,0,5.7,0,8.6,0c0-1.6,0-3.2,0-4.8c0.2-6.7,5.8-12.2,12.5-12.3
		c7.2-0.2,13.1,5.5,13.2,12.7c0,1.5,0,2.9,0,4.5c5.8,0,11.4,0,17.1,0c0,34.4,0,68.6,0,103c-0.7,0-1.2,0-1.8,0c-24.1,0-48.3,0-72.4,0
		c-1.1,0-1.8,0.4-2.4,1.3c-7.2,9.7-16.9,15.1-29,15.8c-17.4,1.1-33.4-9.8-38.8-26.4C27.5,142,27.1,138.9,26.4,135.9z M164.3,85.6
		c-37.2,0-74.3,0-111.5,0c0,3.5,0,6.9,0,10.4c15.1-4.2,28.6-1.5,39.7,9.7c11.1,11.2,13.6,24.8,9.1,39.8c20.9,0,41.7,0,62.7,0
		C164.3,125.5,164.3,105.6,164.3,85.6z M95.1,132.7c0-16.5-13.5-30-30.1-30c-16.5,0-30,13.5-30,30c0,16.6,13.5,30.1,30.1,30.1
		C81.7,162.7,95.1,149.2,95.1,132.7z M69.9,59.8c0,2.9,0,5.7,0,8.4c-2.9,0-5.6,0-8.6,0c0-2.8,0-5.6,0-8.4c-2.9,0-5.7,0-8.5,0
		c0,5.7,0,11.3,0,17c37.2,0,74.3,0,111.4,0c0-5.7,0-11.4,0-17c-8.6,0-17.1,0-25.7,0c0,2.8,0,5.6,0,8.4c-2.9,0-5.7,0-8.6,0
		c0-2.9,0-5.7,0-8.4c-8.6,0-17.1,0-25.7,0c0,2.8,0,5.6,0,8.4c-2.9,0-5.7,0-8.6,0c0-2.8,0-5.6,0-8.4C87.1,59.8,78.6,59.8,69.9,59.8z
		 M78.5,51.1c0-1.6,0.1-3,0-4.4c-0.1-2.2-1.9-4-4-4.1c-2.1-0.1-4.1,1.3-4.4,3.4c-0.2,1.7,0,3.4,0,5.1C72.9,51.1,75.6,51.1,78.5,51.1
		z M112.8,51.1c0-1.6,0.1-3.2,0-4.7c-0.2-2.2-2.1-3.8-4.2-3.9c-2.1,0-4,1.6-4.2,3.7c-0.2,1.6,0,3.2,0,4.9
		C107.2,51.1,109.9,51.1,112.8,51.1z M147.2,51.1c0-1.6,0.1-3.1,0-4.5c-0.1-2.2-2-3.9-4.1-4c-2.1-0.1-4.2,1.5-4.4,3.7
		c-0.2,1.6,0,3.2,0,4.8C141.5,51.1,144.2,51.1,147.2,51.1z"/>
	<path class="st0" d="M112.9,102.6c0-2.8,0-5.6,0-8.4c5.7,0,11.3,0,17,0c0,2.7,0,5.5,0,8.4C124.3,102.6,118.7,102.6,112.9,102.6z"/>
	<path class="st0" d="M138.7,102.6c0-2.8,0-5.6,0-8.4c5.7,0,11.3,0,17,0c0,2.8,0,5.5,0,8.4C150,102.6,144.4,102.6,138.7,102.6z"/>
	<path class="st0" d="M129.9,119.8c-5.7,0-11.3,0-17,0c0-2.8,0-5.6,0-8.4c5.6,0,11.3,0,17,0C129.9,114.1,129.9,116.9,129.9,119.8z"
		/>
	<path class="st0" d="M155.6,119.8c-5.7,0-11.3,0-17,0c0-2.8,0-5.5,0-8.4c5.6,0,11.2,0,17,0C155.6,114.1,155.6,116.9,155.6,119.8z"
		/>
	<path class="st0" d="M129.9,128.5c0,2.8,0,5.6,0,8.4c-5.7,0-11.3,0-17,0c0-2.8,0-5.5,0-8.4C118.5,128.5,124.2,128.5,129.9,128.5z"
		/>
	<path class="st0" d="M138.7,128.5c5.7,0,11.3,0,17,0c0,2.8,0,5.6,0,8.4c-5.6,0-11.3,0-17,0C138.7,134.1,138.7,131.4,138.7,128.5z"
		/>
	<path class="st0" d="M60.8,111.3c2.8,0,5.6,0,8.5,0c0,5.7,0,11.3,0,17c2.9,0,5.6,0,8.5,0c0,2.9,0,5.7,0,8.5c-5.6,0-11.3,0-17,0
		C60.8,128.4,60.8,119.9,60.8,111.3z"/>
</g>
</svg>
