<?xml version="1.0" encoding="utf-8"?>
<!-- Generator: Adobe Illustrator 24.0.0, SVG Export Plug-In . SVG Version: 6.00 Build 0)  -->
<svg version="1.1" id="Capa_1" xmlns="http://www.w3.org/2000/svg" xmlns:xlink="http://www.w3.org/1999/xlink" x="0px" y="0px"
	 viewBox="0 0 400 400" style="enable-background:new 0 0 400 400;" xml:space="preserve">
<style type="text/css">
	.st0{fill:#ACAEAF;}
	.st1{fill:#FE9900;}
	.st2{fill:#1C3247;}
</style>
<g>
	<path class="st0" d="M120,208.5c0-2,0-3.3,0-4.5c0-34.8,0-69.6,0-104.4c0-9.9,2.9-18.5,10.6-25.2c8.2-7.1,19.8-8.3,29.4-3.1
		c0.8,0.5,1.7,0.9,2.6,1.4c4.9-12.1,13.1-20.1,26.8-19.8c12.9,0.3,20.6,8.1,25.3,19.7c10.3-6.2,20.7-6.7,30.6,0.6
		c9.5,7,12.5,17.2,12,28.9c5.6-2.8,11-4.4,16.8-3.5c13.7,2,23.7,13.2,24.2,28.2c0.5,14,0.2,28,0.1,42.1c0,4.3-3.1,7.3-7.1,7.2
		c-3.9-0.1-6.6-3-6.7-7.6c-0.1-12.7,0-25.5-0.1-38.2c0-2.1,0-4.3-0.5-6.4c-1.6-7.2-7.7-12.2-14-11.7c-6.7,0.6-12.4,6.6-12.7,14
		c-0.3,8.8-0.1,17.6-0.1,26.3c0,1.1,0,2.1-0.1,3.2c-0.4,3.9-3.3,6.7-7,6.6c-3.5-0.1-6.3-2.7-6.7-6.5c-0.1-1.1-0.1-2.1-0.1-3.2
		c0-17.6,0-35.1,0-52.7c0-2.1,0-4.3-0.4-6.4c-1.5-7.2-7.6-12.3-13.9-11.9c-6.4,0.4-12.1,6.4-12.8,13.6c-0.2,1.6-0.1,3.2-0.1,4.8
		c0,23.8,0,47.5,0,71.3c0,1.4,0,2.8-0.4,4.1c-0.8,3.3-3.6,5.2-6.9,5.1c-3.1-0.2-5.6-2.3-6.2-5.5c-0.3-1.4-0.3-2.8-0.3-4.2
		c0-28.7,0-57.4,0-86.1c0-2.1,0-4.3-0.4-6.4c-1.4-7.1-7.6-12.4-13.8-12c-6.6,0.4-12.2,6.2-13,13.4c-0.2,1.7-0.1,3.4-0.1,5.1
		c0,33.8,0,67.7,0,101.5c0,6-2.4,9.3-6.8,9.4c-4.4,0.1-7-3.3-7-9.3c0-28.8,0-57.6,0-86.4c0-2.2,0-4.5-0.4-6.7
		c-1.5-7.2-7.6-12.3-14-11.8c-6.4,0.4-12.1,6.4-12.8,13.6c-0.2,1.7-0.1,3.4-0.1,5.1c0,40.8,0,81.6,0,122.4c0,1,0,1.9,0,2.9
		c-0.1,4.2-1.5,6.6-4.5,7.7c-3,1.2-5.7,0.3-8.4-2.9c-6.9-8-13.9-16-20.8-24.1c-5.1-5.9-10.2-11.8-15.3-17.7
		c-4.9-5.7-9.8-7.5-15.1-5.5c-5.4,2-9.3,7.9-9.6,14.4c-0.2,4.6,1.2,8.6,4,12.2c17.4,22.8,34.9,45.5,52.2,68.4
		c4.8,6.3,8.8,13.2,14,19.2c12.4,14.3,28,23.6,46.6,27.7c6.1,1.4,8.5,7.3,4.7,11.5c-2.1,2.4-4.8,2.5-7.7,1.9
		c-10.5-2.3-20.5-6.2-29.7-11.7c-13.2-8-23.9-18.6-32.9-31.1c-12-16.8-24.3-33.4-36.7-49.9c-7.1-9.5-14.6-18.7-21.9-28.1
		c-7.7-10-8.6-24.1-2.2-35c9.7-16.4,30.9-18.4,43.4-4.1c7.8,9,15.5,18,23.3,27C118,206.4,118.7,207.1,120,208.5z"/>
	<path class="st1" d="M279.4,347.6c-17.3,0-34.7,0.1-52,0c-14-0.1-23.6-10.6-21.5-23.9c0.4-2.4,1.3-4.7,2.4-6.9
		c17.4-34.9,34.8-69.8,52.3-104.7c3.8-7.7,10-11.9,18.6-12c8.7,0,15,4.2,18.9,12c17.4,34.9,34.9,69.8,52.3,104.7
		c7.5,15.1-2,30.5-18.9,30.8c-0.2,0-0.4,0-0.6,0C313.7,347.6,296.6,347.6,279.4,347.6z M279.3,333.8c17.1,0,34.3,0,51.4,0
		c7.8,0,10.6-4.6,7.1-11.6c-17.2-34.3-34.3-68.6-51.5-103c-1.5-3.1-3.4-5.5-7.2-5.5c-3.6,0.1-5.4,2.5-6.9,5.4
		c-17.1,34.3-34.2,68.7-51.6,102.9c-3.3,6.5,0.2,11.9,7.2,11.8C245,333.5,262.2,333.8,279.3,333.8z"/>
	<path class="st2" d="M272.5,265.1c0-4.4-0.1-8.8,0-13.2c0.1-4.3,2.8-7,6.7-7.1c4,0,6.9,2.8,6.9,7.2c0.1,8.8,0.1,17.6,0,26.3
		c0,4.4-2.8,7.4-6.7,7.5c-3.9,0.1-6.8-3-6.9-7.3C272.5,274.1,272.5,269.6,272.5,265.1z"/>
	<path class="st2" d="M286.1,310c0,1.3,0.1,2.6,0,3.8c-0.4,3.6-3.4,6.3-6.9,6.3c-3.5-0.1-6.4-2.8-6.6-6.4c-0.1-2.4-0.1-4.9,0-7.3
		c0.2-3.9,3-6.7,6.7-6.7c3.6,0,6.6,2.8,6.9,6.6C286.2,307.5,286.1,308.7,286.1,310C286.1,310,286.1,310,286.1,310z"/>
</g>
</svg>
