<?xml version="1.0" encoding="utf-8"?>
<!-- Generator: Adobe Illustrator 24.0.0, SVG Export Plug-In . SVG Version: 6.00 Build 0)  -->
<svg version="1.1" id="Capa_1" xmlns="http://www.w3.org/2000/svg" xmlns:xlink="http://www.w3.org/1999/xlink" x="0px" y="0px"
	 viewBox="0 0 200 200" style="enable-background:new 0 0 200 200;" xml:space="preserve">
<style type="text/css">
	.st0{fill:#ABADAE;}
	.st1{fill:#FD9800;}
</style>
<g>
	<path class="st0" d="M194.3,93.9c0,3.7,0,7.3,0,11c-0.1,0.5-0.3,1-0.3,1.6c-0.9,13.1-4.3,25.5-10.7,36.9
		c-17.3,30.7-43.6,47.4-78.8,49.6c-15.2,1-29.9-1.9-43.5-8.7c-33.4-16.6-51.6-43.7-54-81C5.9,86.3,9.7,70,18,55.1
		c14.6-26.3,36.8-42.4,66.4-48c3.5-0.7,7.1-1,10.7-1.5c3.7,0,7.3,0,11,0c0.5,0.1,0.9,0.3,1.4,0.3c13.1,0.9,25.6,4.3,37.1,10.7
		c26.4,14.6,42.6,36.7,48.3,66.4C193.6,86.6,193.9,90.3,194.3,93.9z M100.6,178.5c43.6,0,79-35.4,79.1-79
		c0-43.7-35.5-79.2-79.1-79.1c-43.6,0-79,35.4-79.1,79C21.5,143,57,178.5,100.6,178.5z"/>
	<path class="st1" d="M88.1,113.9c0.5-0.7,0.8-1.4,1.3-1.9c13.8-13.9,27.7-27.7,41.5-41.6c1.6-1.7,3.5-2.9,5.9-2.9
		c2.9,0,5.2,1.4,6.5,4c1.4,2.6,1.1,5.2-0.6,7.6c-0.5,0.6-1,1.2-1.6,1.8c-15.8,15.8-31.6,31.6-47.4,47.4c-4.1,4.1-8.1,4.1-12.2,0
		c-7.3-7.3-14.7-14.7-22-22c-2.7-2.7-3.3-6-1.8-9c2.4-4.6,8.1-5.3,12-1.4c5.5,5.4,10.9,10.9,16.3,16.3
		C86.7,112.5,87.2,113,88.1,113.9z"/>
</g>
</svg>
