<?xml version="1.0" encoding="utf-8"?>
<!-- Generator: Adobe Illustrator 24.0.0, SVG Export Plug-In . SVG Version: 6.00 Build 0)  -->
<svg version="1.1" id="Capa_1" xmlns="http://www.w3.org/2000/svg" xmlns:xlink="http://www.w3.org/1999/xlink" x="0px" y="0px"
	 viewBox="0 0 200 200" style="enable-background:new 0 0 200 200;" xml:space="preserve">
<style type="text/css">
	.st0{fill:#1C3247;}
</style>
<g>
	<path class="st0" d="M46.3,174c-1.4-0.7-2.6-1.5-3.2-3c-1.2-3.1,1-6.4,4.4-6.4c3.1,0,6.2,0,9.4,0c0-0.6,0-1.1,0-1.6
		c0-8.4,0-16.9,0-25.3c0-5.6,2.1-10.1,6.3-13.8c6.7-5.7,13.3-11.5,20-17.3c3.9-3.4,3.9-8.1,0-11.5c-6.6-5.8-13.3-11.6-20-17.3
		c-4.3-3.7-6.4-8.3-6.4-13.9c0-8.9,0-17.7,0-26.7c-0.4,0-0.8-0.1-1.3-0.1c-2.7,0-5.4,0-8.1,0c-2.7,0-4.7-2.1-4.7-4.7
		c0-2.6,2-4.6,4.7-4.7c0.1,0,0.3,0,0.4,0c35.9,0,71.8,0,107.7,0c2,0,3.6,0.7,4.6,2.5c1.7,3.1-0.5,6.9-4.1,6.9c-3.1,0.1-6.2,0-9.5,0
		c0,0.6,0,1.1,0,1.6c0,7.7,0,15.3,0,23c0,5.5-2,10.1-6.2,13.7c-7.5,6.5-15,13.1-22.5,19.7c-4,3.5-4,8.1,0,11.6
		c7.4,6.5,14.7,13,22.2,19.4c4.5,3.8,6.6,8.5,6.6,14.4c-0.1,8,0,16,0,24.2c1.8,0,3.6,0,5.4,0c1.2,0,2.5,0,3.7,0
		c2.5,0,4.4,1.5,4.9,3.6c0.5,2.4-0.6,4.4-3,5.5c-0.2,0.1-0.3,0.2-0.5,0.3C120.3,174,83.3,174,46.3,174z M66.4,164.4
		c23.7,0,47.2,0,70.9,0c0-7.8-0.1-15.5,0.1-23.1c0.1-3.8-1.2-6.5-4.1-8.9c-7.4-6.2-14.6-12.7-21.9-19.1c-4.5-4-6.4-9.1-5.6-15.1
		c0.6-4.4,3-7.8,6.3-10.7c7.4-6.4,14.7-12.9,22.1-19.3c2.1-1.8,3.1-4,3.1-6.8c-0.1-7.6,0-15.2,0-22.9c0-0.5,0-1,0-1.5
		c-23.7,0-47.2,0-70.9,0c0,0.6,0,1,0,1.5c0,8.4,0,16.8,0,25.2c0,2.8,1,5,3.1,6.9c6.7,5.7,13.3,11.4,19.9,17.2
		c8.4,7.3,8.3,18.6,0,25.9c-6.7,5.8-13.4,11.6-20.1,17.4c-1.7,1.4-2.8,3.2-2.8,5.4C66.4,145.8,66.4,155.1,66.4,164.4z"/>
</g>
</svg>
