<svg id="Grupo_565" data-name="Grupo 565" xmlns="http://www.w3.org/2000/svg" xmlns:xlink="http://www.w3.org/1999/xlink" width="139.12" height="109.815" viewBox="0 0 139.12 109.815">
  <defs>
    <clipPath id="clip-path">
      <rect id="Rectángulo_27" data-name="Rectángulo 27" width="139.12" height="109.815" fill="#95bde4"/>
    </clipPath>
  </defs>
  <g id="Grupo_564" data-name="Grupo 564" clip-path="url(#clip-path)">
    <path id="Trazado_9" data-name="Trazado 9" d="M189.681,144.255A36.778,36.778,0,0,1,188.1,149.4c-3.235,6.891-8.727,10.691-16.346,10.838-9.778.188-19.561.056-29.342.046-1.955,0-3.243-1.13-3.223-2.736s1.3-2.686,3.273-2.688c9.509-.01,19.019.014,28.528-.011,6.386-.017,11.214-3.585,12.808-9.665,1.156-4.411.089-8.538-2.4-12.278a15.877,15.877,0,0,0-17.007-6.865c-.354.075-.7.171-1.058.24-2.444.474-3.857-.71-3.762-3.225a19.171,19.171,0,0,0-5.274-14.24c-8.68-9.4-24.519-7.639-30.787,3.5a4.923,4.923,0,0,1-4.8,2.915c-7.3.062-14.279,6.073-15.711,13.267-.062.31-.123.621-.2.928-.58,2.281-2.524,3.09-4.453,1.729a15.035,15.035,0,0,0-7.576-3.023c-5.5-.433-9.7,1.847-12.721,6.27a13.1,13.1,0,0,0,1.008,16.218,12.681,12.681,0,0,0,10.048,4.236q14.943,0,29.887,0c2.556,0,3.888.968,3.841,2.784-.046,1.758-1.336,2.65-3.839,2.65-10.1,0-20.2.03-30.295-.009a17.927,17.927,0,0,1-18.153-15.47,18.6,18.6,0,0,1,5.943-16.974c.458-.436.943-.843,1.47-1.312-1.067-1.482-2.161-2.9-3.149-4.388C66.6,109.764,67.9,92.188,77.853,81.144c7.941-8.814,17.872-12.727,29.65-11.576a34.13,34.13,0,0,1,29.665,26.511c.234,1.056.55,1.372,1.666,1.286,12.407-.962,24.166,8.561,25.892,20.907.087.626.189,1.25.3,1.993,1.6,0,3.224-.134,4.817.022a21.621,21.621,0,0,1,19.59,18.748,2.714,2.714,0,0,0,.246.6ZM132.059,98.647a4.4,4.4,0,0,0,0-.6,28.9,28.9,0,1,0-49.941,24.8,1.689,1.689,0,0,0,2.1.562,16.294,16.294,0,0,1,8.043-.581c2.063.4,4.071,1.079,6.2,1.66a4.8,4.8,0,0,0,.229-.443q5.466-12.827,19.327-14.317a2.055,2.055,0,0,0,1.119-.773c1.281-1.516,2.421-3.163,3.787-4.6a23.768,23.768,0,0,1,9.136-5.712" transform="translate(-50.561 -50.522)" fill="#95bde4"/>
    <path id="Trazado_10" data-name="Trazado 10" d="M0,187.559a3.4,3.4,0,0,1,3.614-2c1.573.082,3.155-.015,4.731.034a2.646,2.646,0,0,1,2.883,2.577,2.6,2.6,0,0,1-2.672,2.788c-1.931.113-3.873.051-5.81.02A3.07,3.07,0,0,1,0,188.918Z" transform="translate(0 -135.132)" fill="#95bde4"/>
    <path id="Trazado_11" data-name="Trazado 11" d="M57.508,53.136a15.856,15.856,0,0,1,2.359,1.433c1.243,1.111,2.4,2.318,3.557,3.522,1.3,1.354,1.4,2.972.305,4.1a2.778,2.778,0,0,1-4.092-.213,37.522,37.522,0,0,1-4-4.2,3.26,3.26,0,0,1-.307-2.719c.3-.763,1.352-1.23,2.179-1.915" transform="translate(-40.174 -38.698)" fill="#95bde4"/>
    <path id="Trazado_12" data-name="Trazado 12" d="M185.8,5.473c0-.992-.062-1.988.015-2.973A2.637,2.637,0,0,1,188.365,0a2.506,2.506,0,0,1,2.647,2.2A53.984,53.984,0,0,1,191,9.071a2.388,2.388,0,0,1-2.666,2.137,2.519,2.519,0,0,1-2.508-2.357c-.093-1.118-.019-2.251-.019-3.377H185.8" transform="translate(-135.296 0)" fill="#95bde4"/>
    <path id="Trazado_13" data-name="Trazado 13" d="M311.625,56.865a15.155,15.155,0,0,1-1.39,2.29c-1.147,1.27-2.378,2.468-3.619,3.649A2.722,2.722,0,1,1,302.769,59c1.311-1.365,2.658-2.7,4.045-3.987a2.3,2.3,0,0,1,2.982-.354,10.774,10.774,0,0,1,1.83,2.209" transform="translate(-219.782 -39.513)" fill="#95bde4"/>
    <path id="Trazado_14" data-name="Trazado 14" d="M288.842,389.433a2.7,2.7,0,1,1,.094-5.391,2.7,2.7,0,0,1-.094,5.391" transform="translate(-208.424 -279.69)" fill="#95bde4"/>
    <path id="Trazado_15" data-name="Trazado 15" d="M112.843,144.195a22.388,22.388,0,0,1,8.827-16.728c1.461-1.143,3.13-1.067,4.109.149,1.013,1.259.808,2.85-.7,4.036a17.283,17.283,0,0,0-6.655,11.128c-.146.889-.125,1.805-.266,2.7-.275,1.741-1.394,2.7-2.909,2.559a2.694,2.694,0,0,1-2.443-3.027c0-.271.023-.543.036-.814" transform="translate(-82.155 -92.24)" fill="#95bde4"/>
    <path id="Trazado_16" data-name="Trazado 16" d="M185.8,115.46a2.643,2.643,0,0,1,2.632-2.7,2.674,2.674,0,1,1-2.632,2.7" transform="translate(-135.317 -82.121)" fill="#95bde4"/>
  </g>
</svg>
