<svg id="Grupo_574" data-name="Grupo 574" xmlns="http://www.w3.org/2000/svg" xmlns:xlink="http://www.w3.org/1999/xlink" width="112" height="105.35" viewBox="0 0 112 105.35">
  <defs>
    <clipPath id="clip-path">
      <rect id="Rectángulo_29" data-name="Rectángulo 29" width="112" height="105.35" fill="#95bde4"/>
    </clipPath>
  </defs>
  <g id="Grupo_573" data-name="Grupo 573" clip-path="url(#clip-path)">
    <path id="Trazado_23" data-name="Trazado 23" d="M0,108.177c.362-2.222.628-4.464,1.1-6.662A42.84,42.84,0,0,1,35.268,68.782c.61-.106,1.226-.177,1.833-.3A2.214,2.214,0,0,1,39.437,71.9a36.816,36.816,0,0,0-4.283,10.355c-2.838,12-.552,22.963,6.753,32.887.125.17.276.321.484.56a11.055,11.055,0,0,1,5.3-4.466,6.138,6.138,0,0,0,3.882-3.8,13.73,13.73,0,0,1,14.843-7.6,1.785,1.785,0,0,0,1.9-.742C73.9,92.742,80.913,90.438,89,92.81s12.83,8.071,14.008,16.444a8.983,8.983,0,0,0,2.383,5.592,11.154,11.154,0,0,1,2.845,7.944c.025,1.868-.8,2.7-2.629,2.707q-7.162.017-14.325,0c-1.6,0-2.576-.852-2.567-2.186s.985-2.178,2.59-2.182c3.681-.011,7.363,0,11.045,0h1.319a7.9,7.9,0,0,0-3.392-5.217,3.011,3.011,0,0,1-1.452-3.024,15.376,15.376,0,0,0-28.3-9.45c-.908,1.352-1.638,1.595-3.258,1.081a9.742,9.742,0,0,0-12.779,7.647c-.287,1.492-.771,1.973-2.274,2.2a8.424,8.424,0,0,0-7.274,6.215,4.04,4.04,0,0,0-.078.546H46.2q12.029,0,24.058,0a6.213,6.213,0,0,1,1.3.084,2.144,2.144,0,0,1,1.715,2.326,2.086,2.086,0,0,1-2.026,1.931c-1.529.058-3.061.03-4.592.031-4.045,0-8.09,0-12.247.208.371.208.733.438,1.116.621a38.637,38.637,0,0,0,21.458,3.662,2.272,2.272,0,0,1,2.3,3.736c-7.806,11.92-18.772,18.785-32.971,19.945a42.539,42.539,0,0,1-45.03-32.411c-.524-2.074-.73-4.228-1.086-6.344-.059-.351-.127-.7-.191-1.052v-5.688M33.28,73.809C21.96,76.122,5.879,87.6,4.46,108.7A38.5,38.5,0,0,0,33.2,148.269c16.6,4.343,32.727-3.442,39.913-13.639-.6,0-1.138.016-1.676,0A41.808,41.808,0,0,1,49.2,127.715c-2.112-1.413-4.092-2.6-6.764-2.265a1.979,1.979,0,0,1-2.143-2.017,5.479,5.479,0,0,1,.055-1.849,2.312,2.312,0,0,0-.672-2.244c-9.026-11.177-12.051-23.79-8.821-37.813.607-2.637,1.617-5.181,2.425-7.718" transform="translate(0 -48.471)" fill="#95bde4"/>
    <path id="Trazado_24" data-name="Trazado 24" d="M266.118,39.849a2.93,2.93,0,0,1-2.957,1.563q-21.314-.058-42.628-.024c-2.263,0-3.147-.913-2.92-3.151a9.617,9.617,0,0,1,6.323-8.438,2.144,2.144,0,0,0,1.082-1.016,10.523,10.523,0,0,1,10.964-6.62,1.589,1.589,0,0,0,1.576-.591,14.367,14.367,0,0,1,25.087,9.059c.013.344.034.813.248,1a11.035,11.035,0,0,1,3.225,5.807Zm-4.5-2.879a9.56,9.56,0,0,0-1.709-2.044c-1.438-.9-1.719-2.106-1.677-3.707a9.973,9.973,0,0,0-18.182-5.77c-1.142,1.631-1.6,1.791-3.584,1.246a5.985,5.985,0,0,0-7.536,4.468,2.873,2.873,0,0,1-2.717,2.6,4.794,4.794,0,0,0-3.861,3.2Z" transform="translate(-154.118 -11.867)" fill="#95bde4"/>
    <path id="Trazado_25" data-name="Trazado 25" d="M165.894,92.467a2.378,2.378,0,0,1-1.654,2.455c-2.075.882-4.161,1.739-6.207,2.682a2.544,2.544,0,0,0-1.156,1.139c-.947,2.045-1.811,4.129-2.685,6.207a2.252,2.252,0,0,1-4.353.011c-.865-2.082-1.735-4.163-2.682-6.208A2.56,2.56,0,0,0,146,97.6c-1.977-.919-3.989-1.765-6-2.6-1.048-.432-1.891-1.014-1.9-2.257-.006-1.3.9-1.875,1.977-2.315,1.984-.814,3.968-1.634,5.913-2.534a2.569,2.569,0,0,0,1.158-1.157c.947-2.045,1.821-4.124,2.679-6.209a2.248,2.248,0,0,1,4.354-.029c.842,2.013,1.728,4.007,2.549,6.028A2.407,2.407,0,0,0,158.184,88c2.095.83,4.153,1.752,6.223,2.643a2.115,2.115,0,0,1,1.486,1.822m-13.9,6.321A7.664,7.664,0,0,1,158.07,92.7c-3.436-.7-5.256-2.807-6.083-6.068a7.459,7.459,0,0,1-6.037,6.119,7.414,7.414,0,0,1,6.045,6.037" transform="translate(-97.822 -55.839)" fill="#95bde4"/>
    <path id="Trazado_26" data-name="Trazado 26" d="M206.942,3.41c0-.4-.016-.8,0-1.2a2.172,2.172,0,0,1,4.342-.132,18.31,18.31,0,0,1,0,2.614,2.173,2.173,0,0,1-4.344-.085c-.02-.4,0-.8,0-1.2" transform="translate(-146.579 0)" fill="#95bde4"/>
    <path id="Trazado_27" data-name="Trazado 27" d="M224.459,26.73c-.436,0-.874.03-1.307-.006a2.139,2.139,0,0,1-2.061-2.231,2.1,2.1,0,0,1,2.059-2.112,24.993,24.993,0,0,1,2.5-.007,2.178,2.178,0,1,1,0,4.356c-.4.024-.8,0-1.2,0Z" transform="translate(-156.606 -15.828)" fill="#95bde4"/>
    <path id="Trazado_28" data-name="Trazado 28" d="M206.946,39.914c0-.4-.019-.8,0-1.2a2.169,2.169,0,0,1,4.331-.149,16.1,16.1,0,0,1-.01,2.829,2.178,2.178,0,0,1-2.243,1.953,2.207,2.207,0,0,1-2.076-2.127c-.027-.434,0-.871,0-1.308" transform="translate(-146.581 -25.909)" fill="#95bde4"/>
    <path id="Trazado_29" data-name="Trazado 29" d="M188.024,22.407c.4,0,.8-.026,1.2,0a2.152,2.152,0,0,1,2.083,2.107,2.128,2.128,0,0,1-1.958,2.222,18.1,18.1,0,0,1-2.831,0,2.17,2.17,0,0,1,.091-4.331c.47-.036.944-.006,1.417-.006" transform="translate(-130.709 -15.863)" fill="#95bde4"/>
    <path id="Trazado_30" data-name="Trazado 30" d="M272.555,253.479a2.158,2.158,0,0,1-2.168-2.137,2.2,2.2,0,0,1,2.225-2.214,2.179,2.179,0,0,1,2.1,2.215,2.135,2.135,0,0,1-2.16,2.136" transform="translate(-191.524 -176.465)" fill="#95bde4"/>
  </g>
</svg>
