<svg xmlns="http://www.w3.org/2000/svg" xmlns:xlink="http://www.w3.org/1999/xlink" width="112" height="112" viewBox="0 0 112 112">
  <defs>
    <clipPath id="clip-path">
      <rect id="Rectángulo_28" data-name="Rectángulo 28" width="112" height="112" transform="translate(-0.007 -0.006)" fill="#95bde4"/>
    </clipPath>
  </defs>
  <g id="Grupo_570" data-name="Grupo 570" transform="translate(0.007 0.006)">
    <g id="Grupo_569" data-name="Grupo 569" clip-path="url(#clip-path)">
      <path id="Trazado_17" data-name="Trazado 17" d="M0,178.118a25.44,25.44,0,0,1,1.347-2.223q9.344-12.466,18.722-24.907c.022-.029.042-.059.065-.088,1.9-2.5,4.205-2.515,6.082-.029,2,2.645,3.979,5.3,6.079,8.1l8.478-12.7c-1.354-.91-2.745-1.7-3.976-2.7-7.976-6.425-11.485-14.741-9.921-24.894A25.986,25.986,0,0,1,47.469,97.058c14.009-3.013,28.467,6.611,31.022,20.666a24.189,24.189,0,0,1,.067,9.345,3.123,3.123,0,0,0,.6,2.612q15.971,23.307,31.887,46.653a3.772,3.772,0,0,1,.813,3.364,4.173,4.173,0,0,1-2.247,2.358H2.407A4.452,4.452,0,0,1,0,179.43v-1.312m57.113-33.379c.1.179.158.312.237.432q9.841,14.84,19.711,29.66a1.812,1.812,0,0,0,1.316.635c7.689.038,15.379.029,23.068.025.3,0,.6-.044,1.021-.077l-33.3-48.752L57.113,144.738m14.794-25.9c-.982-6.794-7.559-15.152-18.115-15.7a19.6,19.6,0,0,0-20.45,16.3c-1.652,9.527,3.98,18.226,11.237,21.113.64-.953,1.276-1.926,1.938-2.88,1.626-2.343,4.2-2.357,5.835-.04l.822,1.165c.6-.9,1.148-1.7,1.686-2.506q5.606-8.407,11.212-16.813c1.585-2.371,3.56-2.61,5.645-.712a.53.53,0,0,0,.191.071m-22.447,26.3c-.345.488-.6.831-.836,1.185q-6.579,9.862-13.157,19.723c-1.649,2.465-4.13,2.544-5.914.2-1.9-2.494-3.765-5.009-5.649-7.512-.211-.281-.445-.546-.753-.921L9.9,175.435H69.547L49.46,145.141" transform="translate(0 -70.068)" fill="#95bde4"/>
      <path id="Trazado_18" data-name="Trazado 18" d="M0,170.774c.872-1.891,2.37-2.488,4.4-2.436,4.038.1,8.081,0,12.122.043a3.248,3.248,0,0,1,3.146,4.437,3.05,3.05,0,0,1-2.928,2.087c-4.513.043-9.028.03-13.542.01-1.629-.007-2.511-1.089-3.2-2.391Z" transform="translate(0 -122.222)" fill="#95bde4"/>
      <path id="Trazado_19" data-name="Trazado 19" d="M187.047,10.031c0,2.078.01,4.155,0,6.233-.013,2.14-1.346,3.612-3.255,3.626a3.3,3.3,0,0,1-3.3-3.579q-.022-6.342,0-12.684a3.293,3.293,0,1,1,6.556-.047c.016,2.15,0,4.3,0,6.451" transform="translate(-131.039 0)" fill="#95bde4"/>
      <path id="Trazado_20" data-name="Trazado 20" d="M69.537,53.8a3.791,3.791,0,0,1-2.09,3.14,3.092,3.092,0,0,1-3.649-.562c-1.276-1.2-2.492-2.454-3.73-3.689-1.78-1.776-3.565-3.547-5.332-5.335-1.557-1.576-1.664-3.579-.292-4.944s3.369-1.253,4.945.313c2.9,2.876,5.8,5.741,8.639,8.675a13.406,13.406,0,0,1,1.509,2.4" transform="translate(-38.834 -30.106)" fill="#95bde4"/>
      <path id="Trazado_21" data-name="Trazado 21" d="M277.458,57.245c-1.9-.063-2.916-.7-3.47-1.936a3.045,3.045,0,0,1,.508-3.467c.948-1.056,1.98-2.037,2.984-3.043,2.11-2.115,4.21-4.242,6.346-6.331a3.238,3.238,0,0,1,3.814-.726,3.048,3.048,0,0,1,1.812,3.194,4.421,4.421,0,0,1-1.06,2.192q-4.4,4.563-8.964,8.968a7.931,7.931,0,0,1-1.969,1.15" transform="translate(-198.698 -30.065)" fill="#95bde4"/>
      <path id="Trazado_22" data-name="Trazado 22" d="M322.145,168.446c2.078,0,4.156-.011,6.234,0a3.292,3.292,0,1,1,0,6.555q-6.234.02-12.468,0a3.292,3.292,0,1,1,0-6.555c2.078-.014,4.156,0,6.234,0" transform="translate(-226.756 -122.299)" fill="#95bde4"/>
    </g>
  </g>
</svg>
