<svg xmlns="http://www.w3.org/2000/svg" xmlns:xlink="http://www.w3.org/1999/xlink" width="123" height="123" viewBox="0 0 123 123">
  <defs>
    <clipPath id="clip-path">
      <rect id="Rectángulo_38" data-name="Rectángulo 38" width="123" height="123" fill="#95bde4"/>
    </clipPath>
  </defs>
  <g id="Grupo_577" data-name="Grupo 577" transform="translate(-7)">
    <g id="Grupo_576" data-name="Grupo 576" transform="translate(7)" clip-path="url(#clip-path)">
      <path id="Trazado_31" data-name="Trazado 31" d="M81.686,0h23.3a4.421,4.421,0,0,1,3.151,3.979c1.158,0,2.2,0,3.233,0,3.143.011,4.65,1.5,4.652,4.616q.006,8.88,0,17.76v1.431h1.4q4.86,0,9.72,0c3.3.005,4.739,1.455,4.739,4.762q0,22.5-.014,45a2.466,2.466,0,0,0,.766,1.886,25.228,25.228,0,0,1,6.367,11.377c.33,1.265.545,2.559.813,3.84V99.7a4.542,4.542,0,0,0-.211.673c-1.562,10.209-7.165,17.238-16.743,21.017A49.73,49.73,0,0,1,116.52,123h-4.8a1.173,1.173,0,0,0-.322-.148,25.649,25.649,0,0,1-18.7-11.205,1.3,1.3,0,0,0-.846-.524c-1.108-.062-2.221-.025-3.434-.025a16.363,16.363,0,0,0,2.675,7.563c.163.244.688.333,1.05.344,1.3.04,2.61.016,3.957.016V123H60.546v-3.98c1.356,0,2.667.025,3.977-.017a1.458,1.458,0,0,0,1.042-.363,16.194,16.194,0,0,0,2.652-7.547H66.659q-18.376,0-36.752,0c-.52,0-1.043.006-1.559-.045a3.814,3.814,0,0,1-3.53-3.362c-.134-1.458-.027-2.938-.027-4.444h3.957v3.829H90.174A26.966,26.966,0,0,1,88.31,95.227h-47.6V91.27H87.4a2.166,2.166,0,0,0,.831-.021,1.728,1.728,0,0,0,.882-.69c.445-1.066.737-2.2,1.163-3.271a26.037,26.037,0,0,1,5.573-8.383c-2.748-1.381-3.77-3.612-3.646-6.535.092-2.158.019-4.323.018-6.485,0-1.441.036-2.884-.018-4.323a1.936,1.936,0,0,0-1.95-2.013,1.963,1.963,0,0,0-2.021,1.946,9.591,9.591,0,0,0-.015.96c0,3.523.043,7.047-.029,10.568a7.861,7.861,0,0,1-.616,3.01A5.894,5.894,0,0,1,76.382,73.6c-.047-5.724-.033-11.45-.007-17.175,0-.762-.25-1-.964-1.32a35.943,35.943,0,0,1-4.987-2.747,3.447,3.447,0,0,0-2.02-.769q-11.59.045-23.18.014c-3.035,0-4.6-1.572-4.6-4.583q-.008-6.966,0-13.932V31.8h-11.9v43.51H24.755V74.268q0-21.018,0-42.036c0-2.892,1.54-4.427,4.46-4.44,3.363-.015,6.726,0,10.089-.007.419,0,.838-.038,1.314-.062V26.263q0-8.888,0-17.775c0-2.964,1.539-4.489,4.525-4.507,1.107-.007,2.215,0,3.36,0A4.44,4.44,0,0,1,51.657,0h23.3c.992.4,1.979.81,2.981,1.178a1.2,1.2,0,0,0,.764,0C79.708.81,80.694.4,81.686,0m34.34,31.784v1.362q0,6.785,0,13.57c0,3.424-1.466,4.888-4.9,4.889-7.646,0-15.292-.017-22.938.033a4.514,4.514,0,0,0-1.884.728c-1.677.894-3.281,1.938-5.007,2.715-.74.333-1.032.576-1.027,1.4.038,5.444.017,10.888.026,16.332a4.17,4.17,0,0,0,.144,1.181,1.655,1.655,0,0,0,1.877,1.333A3.744,3.744,0,0,0,84.1,74.009c.256-.3.182-.916.184-1.39.015-3.763-.036-7.527.028-11.288A5.867,5.867,0,0,1,91.483,55.7a5.794,5.794,0,0,1,4.653,5.651c.057,3.6.02,7.205.023,10.808,0,.36-.016.722.007,1.081a2,2,0,1,0,3.987-.089c.027-3.283-.025-6.566.026-9.847a7.892,7.892,0,0,1,7.387-7.748,7.732,7.732,0,0,1,8.24,6.5,65.552,65.552,0,0,1,.219,7.665c.012.586,0,1.173,0,1.6,2.162.512,4.182.847,6.1,1.486,1.947.649,3.794,1.6,5.695,2.42V31.784Zm-12-27.739c-.342-.029-.541-.061-.739-.062q-9.96,0-19.92,0a6.662,6.662,0,0,0-1.429.144,1.851,1.851,0,0,0-1.693,2.116c.069,10.64.038,21.279.038,31.919v1.412H104.03Zm7.9,43.551V8h-3.841V9.5q0,14.651,0,29.3c0,3.364-1.478,4.86-4.807,4.86q-24.978,0-49.957,0c-3.271,0-4.777-1.5-4.778-4.766q0-14.771,0-29.542V8.009H44.714V47.6h1.526c7.606,0,15.212.038,22.816-.032a4.377,4.377,0,0,1,3.65,1.49,7.31,7.31,0,0,0,7.3,2.33,9.665,9.665,0,0,0,4.691-2.974,2.941,2.941,0,0,1,1.843-.779c7.966-.051,15.932-.034,23.9-.034ZM52.605,39.6H76.359V6.572c0-1.965-.322-2.326-2.282-2.537A10.08,10.08,0,0,0,73,3.982q-9.6,0-19.2,0c-.383,0-.767.047-1.194.074Zm52.06,51.735a33.178,33.178,0,0,0-.217,10.566c.127.946.419,1.266,1.4,1.258,5.475-.046,10.951-.021,16.427-.026.383,0,.765-.052,1.133-.079a31.108,31.108,0,0,0-.021-11.72ZM122.33,107.2H105.758a24.046,24.046,0,0,0,8.292,11.451,23.865,23.865,0,0,0,8.28-11.451M122.3,87.208a22.522,22.522,0,0,0-5.5-8.975c-3.2-3.1-2.329-3.11-5.549-.012a21.76,21.76,0,0,0-5.483,8.987ZM70.277,118.939H86.368l-2.257-7.792H72.532l-2.255,7.792M112.031,71.3c0-2.4.018-4.951-.005-7.5-.023-2.527-1.6-4.229-3.883-4.255a3.95,3.95,0,0,0-4.04,4.245c-.032,2.6-.008,5.195-.008,7.792v1.595l7.936-1.881m15.685,31.838c2.2,0,4.509.015,6.812-.025a.893.893,0,0,0,.615-.559,20.968,20.968,0,0,0-.137-11.2h-7.291ZM100.369,91.323h-7.3a21.065,21.065,0,0,0-.564,9.388c.375,2.428.37,2.429,2.849,2.429h5.013Zm20.7,26.536a21.976,21.976,0,0,0,12.378-10.723c-1.915,0-3.6.075-5.274-.025-1.2-.072-1.922.181-2.173,1.5a8.731,8.731,0,0,1-1.031,2.546c-1.256,2.244-2.584,4.449-3.9,6.7M94.754,107.137c1.846,4.57,8.315,10.05,12.506,10.631a30.134,30.134,0,0,1-5.557-10.056,1.106,1.106,0,0,0-.845-.551c-2-.048-3.994-.025-6.1-.025m38.68-19.873a21.421,21.421,0,0,0-12.452-10.606,33.215,33.215,0,0,1,5.372,10.006,1.117,1.117,0,0,0,.842.574c2,.051,3.994.027,6.238.027m-38.8,0c2.047,0,3.872-.046,5.693.02a1.346,1.346,0,0,0,1.606-1.116,27.184,27.184,0,0,1,4.609-8.631c.2-.255.373-.533.559-.8A20.958,20.958,0,0,0,94.638,87.265" transform="translate(-16.823)" fill="#95bde4"/>
      <path id="Trazado_32" data-name="Trazado 32" d="M0,272.25l17.62.065c.675,0,1.35,0,2.129,0v4.019H0Z" transform="translate(0 -185.045)" fill="#95bde4"/>
      <path id="Trazado_33" data-name="Trazado 33" d="M0,247.5l18.1.057c.515,0,1.031,0,1.649,0v4.027H0Z" transform="translate(0 -168.223)" fill="#95bde4"/>
      <rect id="Rectángulo_30" data-name="Rectángulo 30" width="3.888" height="4.084" transform="translate(0 95.133)" fill="#95bde4"/>
      <path id="Trazado_34" data-name="Trazado 34" d="M102.188,205.235H74.515V173.682h27.673Zm-4-27.574H78.535v23.653H98.188Z" transform="translate(-50.647 -118.049)" fill="#95bde4"/>
      <path id="Trazado_35" data-name="Trazado 35" d="M53.657,301.16H49.742v-3.937c1.12,0,2.187-.036,3.248.029a.9.9,0,0,1,.637.6c.067,1.064.03,2.134.03,3.308" transform="translate(-33.809 -202.012)" fill="#95bde4"/>
      <rect id="Rectángulo_31" data-name="Rectángulo 31" width="3.816" height="3.85" transform="translate(7.996 95.274)" fill="#95bde4"/>
      <path id="Trazado_36" data-name="Trazado 36" d="M189.806,311.684a1.951,1.951,0,0,1-3.9.089,1.951,1.951,0,1,1,3.9-.089" transform="translate(-126.358 -210.527)" fill="#95bde4"/>
      <rect id="Rectángulo_32" data-name="Rectángulo 32" width="15.747" height="3.83" transform="translate(67.532 23.884)" fill="#95bde4"/>
      <rect id="Rectángulo_33" data-name="Rectángulo 33" width="15.741" height="3.819" transform="translate(67.565 31.804)" fill="#95bde4"/>
      <rect id="Rectángulo_34" data-name="Rectángulo 34" width="15.698" height="3.801" transform="translate(67.545 8.026)" fill="#95bde4"/>
      <rect id="Rectángulo_35" data-name="Rectángulo 35" width="15.746" height="3.804" transform="translate(67.519 15.939)" fill="#95bde4"/>
      <path id="Trazado_37" data-name="Trazado 37" d="M124.11,24.94h15.705v11.8H124.11Zm3.972,7.807h7.81v-3.8h-7.81Z" transform="translate(-84.356 -16.951)" fill="#95bde4"/>
      <rect id="Rectángulo_36" data-name="Rectángulo 36" width="15.699" height="3.855" transform="translate(39.757 23.873)" fill="#95bde4"/>
      <rect id="Rectángulo_37" data-name="Rectángulo 37" width="15.74" height="3.814" transform="translate(39.694 31.831)" fill="#95bde4"/>
      <path id="Trazado_38" data-name="Trazado 38" d="M112.428,202l-13.192,9.889V192.13L112.428,202m-9.125-1.872v3.761l2.481-1.9-2.481-1.858" transform="translate(-67.449 -130.588)" fill="#95bde4"/>
    </g>
  </g>
</svg>
