<svg id="Grupo_581" data-name="Grupo 581" xmlns="http://www.w3.org/2000/svg" xmlns:xlink="http://www.w3.org/1999/xlink" width="114.925" height="114.966" viewBox="0 0 114.925 114.966">
  <defs>
    <clipPath id="clip-path">
      <rect id="Rectángulo_39" data-name="Rectángulo 39" width="114.925" height="114.966" fill="#95bde4"/>
    </clipPath>
  </defs>
  <g id="Grupo_580" data-name="Grupo 580" clip-path="url(#clip-path)">
    <path id="Trazado_39" data-name="Trazado 39" d="M71.472,0a19.185,19.185,0,0,1,2.04.871,6.757,6.757,0,0,1,3.549,5.867c.023.409.038.819.059,1.228a1.652,1.652,0,0,0,.1.26c1.876,0,3.819-.054,5.757.011a9.414,9.414,0,0,1,9.086,7.851,13.488,13.488,0,0,1,.123,2.348q.009,23.407,0,46.815v1.1c2.732.747,5.449,1.147,7.873,2.212,9.283,4.08,14.494,11.3,14.842,21.417.344,10.013-4.273,17.492-13.1,22.334a2.345,2.345,0,0,1-2.828-.067,1.925,1.925,0,0,1-.666-2.409,3.971,3.971,0,0,1,1.618-1.576A19.114,19.114,0,0,0,109.375,97.3c2.379-7.177,1.165-13.814-3.854-19.487-4.928-5.571-11.257-7.5-18.6-6.288a5.106,5.106,0,0,1-2.591-.3c-2.456-.977-4.854-2.1-7.43-3.238,0,2.668-.034,5.161.016,7.653a3.66,3.66,0,0,1-.988,2.639c-8.876,10.12-4.718,24.655,5.806,29.99,1.6.81,2.1,2.111,1.361,3.366a2.273,2.273,0,0,1-3.236.713A23.681,23.681,0,0,1,68.343,99.806,23.353,23.353,0,0,1,66.9,87.148a4.976,4.976,0,0,0,0-.666H65.451c-18.338,0-36.678-.105-55.015.06A10.013,10.013,0,0,1,0,76.044C.094,63.471.027,50.9.027,38.323.027,31.549,0,24.776.036,18c.023-4.846,2.995-8.721,7.53-9.56a38.3,38.3,0,0,1,5.83-.23c.554-.016,1.109,0,1.74,0,.023-.48.05-.842.055-1.2A6.758,6.758,0,0,1,20.444.193,2.432,2.432,0,0,0,20.838,0h2.476a3.562,3.562,0,0,0,.481.233,6.816,6.816,0,0,1,5.037,6.308c.041.514.058,1.031.087,1.57H39.288c0-.507-.007-.916,0-1.325A6.43,6.43,0,0,1,42.028,1.4,18.71,18.71,0,0,1,44.917,0h2.475a3.689,3.689,0,0,0,.485.23,6.877,6.877,0,0,1,5.083,6.624c.015.4,0,.81,0,1.265H63.379c0-.5-.011-.907,0-1.315A6.679,6.679,0,0,1,66.756.968,17.452,17.452,0,0,1,69,0ZM4.53,30.288v1.38q0,22.058,0,44.117A15.375,15.375,0,0,0,4.6,77.353,4.9,4.9,0,0,0,9.7,81.986Q38.559,82,67.415,82a1.265,1.265,0,0,0,1.293-.765c.99-1.753,2.127-3.423,3.159-5.154a3.243,3.243,0,0,0,.511-1.512c.046-3.142.02-6.286.025-9.429,0-2.432,1.474-3.419,3.681-2.452,2.947,1.292,5.87,2.643,8.837,3.887a14.929,14.929,0,0,0,2.692.579V30.288ZM28.936,12.771c-.48,5.091-2.5,7.6-6.279,7.947a6.492,6.492,0,0,1-4.473-1.149A7.187,7.187,0,0,1,15.168,12.7c-1.954,0-3.752-.03-5.548.007a4.916,4.916,0,0,0-5.082,5.122c-.031,2.32-.011,4.641,0,6.961a6.867,6.867,0,0,0,.11.86H87.657c0-2.95.091-5.831-.032-8.7A4.457,4.457,0,0,0,83.96,12.9c-2.245-.225-4.531-.053-6.8-.053-.665,5.248-2.818,7.788-6.7,7.908a6.64,6.64,0,0,1-4.583-1.541,7.3,7.3,0,0,1-2.518-6.437H52.988A7.6,7.6,0,0,1,51.3,18.361a6.7,6.7,0,0,1-5.242,2.4,6.572,6.572,0,0,1-4.415-1.687,7.134,7.134,0,0,1-2.36-6.3Zm43.628-2.33c0-1.158.031-2.318-.008-3.475a2.34,2.34,0,1,0-4.671.049q-.036,3.363,0,6.727a2.31,2.31,0,0,0,2.3,2.509A2.334,2.334,0,0,0,72.556,13.8c.037-1.12.007-2.242.008-3.363m-24.1-.051c0-1.121.03-2.243-.007-3.363a2.342,2.342,0,1,0-4.665.039q-.026,3.307,0,6.614a2.34,2.34,0,1,0,4.664.073c.038-1.12.007-2.242.008-3.363m-24.11-.006c0-1.121.032-2.243-.008-3.362a2.334,2.334,0,1,0-4.648.049q-.024,3.306,0,6.612a2.333,2.333,0,1,0,4.647.062c.041-1.119.008-2.241.009-3.362" transform="translate(0)" fill="#95bde4"/>
    <path id="Trazado_40" data-name="Trazado 40" d="M273.189,258.053a3.616,3.616,0,0,1,3.444,2.088,9.115,9.115,0,0,1,.78,1.611c.527,1.978,1.883,2.673,3.8,2.664a9.408,9.408,0,0,1,1.778.245,3.588,3.588,0,0,1,2.882,2.534,3.5,3.5,0,0,1-.732,3.756c-.873.925-1.848,1.755-2.7,2.7a1.794,1.794,0,0,0-.413,1.239c.116,1.187.354,2.363.561,3.541a3.65,3.65,0,0,1-1.439,3.665,3.565,3.565,0,0,1-3.913.451c-1.125-.5-2.172-1.182-3.3-1.675a1.985,1.985,0,0,0-1.421-.015c-1.1.47-2.122,1.107-3.2,1.627a3.8,3.8,0,0,1-5.51-3.795,27.068,27.068,0,0,1,.588-3.535,1.518,1.518,0,0,0-.544-1.665c-.868-.768-1.68-1.6-2.494-2.429a3.538,3.538,0,0,1-.8-3.939,3.574,3.574,0,0,1,3.05-2.482,31.345,31.345,0,0,0,3.327-.509,2.368,2.368,0,0,0,1.312-.963c.608-.98,1.045-2.064,1.573-3.095a3.589,3.589,0,0,1,3.377-2.018m-4.8,19.6c1.741-.647,3.26-1.647,4.784-1.655s3.053.975,4.344,1.439c0-1.448-.39-3.2.109-4.641s1.889-2.592,2.822-3.784c-1.432-.4-3.256-.475-4.477-1.369-1.26-.922-1.935-2.64-2.976-4.172-.887,3.791-3.377,5.554-7.408,5.453,3.4,2.242,4.238,5.148,2.8,8.729" transform="translate(-182.21 -180.653)" fill="#95bde4"/>
    <path id="Trazado_41" data-name="Trazado 41" d="M299.768,370.59a2.242,2.242,0,1,1-4.483.04,2.242,2.242,0,0,1,4.483-.04" transform="translate(-206.718 -257.893)" fill="#95bde4"/>
    <path id="Trazado_42" data-name="Trazado 42" d="M105.395,140.438c-1.648,0-3.3.026-4.944-.007a2.206,2.206,0,0,1-2.393-2.383q-.049-4.933,0-9.867a2.217,2.217,0,0,1,2.328-2.356q5-.063,10,0a2.168,2.168,0,0,1,2.306,2.348q.047,4.989,0,9.98a2.128,2.128,0,0,1-2.354,2.279c-1.648.032-3.3.007-4.944.008m-2.771-4.579h5.526v-5.5h-5.526Z" transform="translate(-68.629 -88.063)" fill="#95bde4"/>
    <path id="Trazado_43" data-name="Trazado 43" d="M169.625,140.439c-1.648,0-3.3.025-4.944-.008a2.151,2.151,0,0,1-2.366-2.382q-.041-4.877,0-9.756a2.222,2.222,0,0,1,2.415-2.474q4.888-.049,9.776,0a2.268,2.268,0,0,1,2.452,2.467q.042,4.877,0,9.756a2.207,2.207,0,0,1-2.384,2.39c-1.648.033-3.3.008-4.944.008m-2.756-4.565h5.512v-5.52H166.87Z" transform="translate(-113.617 -88.065)" fill="#95bde4"/>
    <path id="Trazado_44" data-name="Trazado 44" d="M33.388,202.917c0-1.645-.018-3.289.005-4.933a2.211,2.211,0,0,1,2.37-2.408q4.943-.056,9.888,0a2.212,2.212,0,0,1,2.378,2.406q.035,4.877,0,9.755a2.171,2.171,0,0,1-2.322,2.441q-5,.065-10,0a2.167,2.167,0,0,1-2.316-2.439c-.019-1.607,0-3.214,0-4.821m10.074-2.779H37.984v5.537h5.479Z" transform="translate(-23.369 -136.895)" fill="#95bde4"/>
    <path id="Trazado_45" data-name="Trazado 45" d="M112.709,202.877c0,1.607.019,3.214-.005,4.821-.025,1.627-.8,2.468-2.386,2.486q-4.944.054-9.888,0a2.194,2.194,0,0,1-2.373-2.4q-.046-4.877,0-9.755a2.259,2.259,0,0,1,2.465-2.45q4.887-.047,9.775,0a2.218,2.218,0,0,1,2.407,2.481c.026,1.607.006,3.214.006,4.821m-10.1,2.756h5.513v-5.487h-5.513Z" transform="translate(-68.63 -136.896)" fill="#95bde4"/>
    <path id="Trazado_46" data-name="Trazado 46" d="M169.676,210.2c-1.61,0-3.221.022-4.831-.005a2.241,2.241,0,0,1-2.534-2.569q-.025-4.765,0-9.53a2.233,2.233,0,0,1,2.482-2.521q4.831-.042,9.663,0a2.283,2.283,0,0,1,2.5,2.528q.034,4.821,0,9.642a2.235,2.235,0,0,1-2.451,2.447c-1.61.037-3.221.008-4.831.009m2.738-10.078h-5.533v5.5h5.533Z" transform="translate(-113.619 -136.899)" fill="#95bde4"/>
    <path id="Trazado_47" data-name="Trazado 47" d="M233.711,136.273c-1.2,1.221-2.23,2.3-3.3,3.354a2.314,2.314,0,0,1-3.388.23,2.227,2.227,0,0,1,.2-3.369c1.053-1.06,2.148-2.078,3.4-3.288-1.245-1.2-2.43-2.265-3.526-3.415a2.177,2.177,0,0,1,1.061-3.8,3.2,3.2,0,0,1,2.185.771,47.589,47.589,0,0,1,3.351,3.44c1.173-1.237,2.178-2.34,3.231-3.4,1.162-1.164,2.5-1.227,3.457-.221a2.31,2.31,0,0,1-.288,3.38c-1.055,1.055-2.147,2.074-3.36,3.241,1.184,1.131,2.282,2.143,3.336,3.2,1.141,1.144,1.22,2.518.256,3.46s-2.312.828-3.466-.323c-1.031-1.029-2.026-2.095-3.154-3.267" transform="translate(-158.458 -88.12)" fill="#95bde4"/>
  </g>
</svg>
