<?xml version="1.0" encoding="utf-8"?>
<!-- Generator: Adobe Illustrator 24.0.0, SVG Export Plug-In . SVG Version: 6.00 Build 0)  -->
<svg version="1.1" id="Capa_1" xmlns="http://www.w3.org/2000/svg" xmlns:xlink="http://www.w3.org/1999/xlink" x="0px" y="0px"
	 viewBox="0 0 442 101" style="enable-background:new 0 0 442 101;" xml:space="preserve">
<style type="text/css">
	.st0{fill:#FE9900;}
	.st1{enable-background:new    ;}
	.st2{fill:#FFFFFF;}
	.st3{fill:#1C3247;}
</style>
<g>
	<path class="st0" d="M200.6,90.7h-60.9c-6.2,0-11.1-5-11.1-11.1v-61c0-6.2,5-11.1,11.1-11.1h60.9c6.2,0,11.1,5,11.1,11.1v60.9
		C211.7,85.7,206.7,90.7,200.6,90.7z"/>
	<g class="st1">
		<path class="st2" d="M237.8,36.5c-1.9-0.5-3.2-1.2-4.1-2c-0.9-0.8-1.3-1.7-1.3-2.9c0-1.3,0.5-2.4,1.6-3.2s2.4-1.3,4.1-1.3
			c1.1,0,2.1,0.2,3,0.7s1.6,1,2.1,1.8c0.5,0.8,0.7,1.6,0.7,2.5h-2.2c0-1-0.3-1.8-1-2.4c-0.6-0.6-1.5-0.9-2.7-0.9
			c-1.1,0-1.9,0.2-2.5,0.7c-0.6,0.5-0.9,1.1-0.9,2c0,0.7,0.3,1.2,0.9,1.7s1.5,0.9,2.9,1.3s2.4,0.8,3.2,1.3c0.8,0.5,1.3,1,1.7,1.6
			c0.4,0.6,0.6,1.3,0.6,2.2c0,1.3-0.5,2.4-1.6,3.2c-1,0.8-2.4,1.2-4.2,1.2c-1.1,0-2.2-0.2-3.2-0.7c-1-0.4-1.7-1-2.3-1.8
			c-0.5-0.8-0.8-1.6-0.8-2.6h2.2c0,1,0.4,1.8,1.1,2.4c0.7,0.6,1.7,0.9,3,0.9c1.1,0,2-0.2,2.6-0.7c0.6-0.5,0.9-1.1,0.9-1.9
			c0-0.8-0.3-1.4-0.9-1.9S239.3,36.9,237.8,36.5z"/>
		<path class="st2" d="M246.4,28.3c0-0.3,0.1-0.6,0.3-0.9s0.5-0.4,0.9-0.4s0.7,0.1,0.9,0.4c0.2,0.2,0.3,0.5,0.3,0.9
			c0,0.3-0.1,0.6-0.3,0.9c-0.2,0.2-0.5,0.3-0.9,0.3s-0.7-0.1-0.9-0.3C246.5,28.9,246.4,28.6,246.4,28.3z M248.7,43.8h-2.1V31.5h2.1
			V43.8z"/>
		<path class="st2" d="M259.2,40.6c0-0.6-0.2-1-0.6-1.3c-0.4-0.3-1.2-0.6-2.2-0.8c-1.1-0.2-1.9-0.5-2.5-0.8s-1.1-0.7-1.4-1.1
			s-0.4-1-0.4-1.6c0-1,0.4-1.9,1.3-2.6c0.9-0.7,1.9-1,3.3-1c1.4,0,2.5,0.4,3.4,1.1c0.9,0.7,1.3,1.6,1.3,2.8h-2.1
			c0-0.6-0.2-1.1-0.7-1.5c-0.5-0.4-1.1-0.6-1.8-0.6c-0.8,0-1.4,0.2-1.8,0.5c-0.4,0.3-0.6,0.8-0.6,1.3c0,0.5,0.2,0.9,0.6,1.1
			c0.4,0.3,1.1,0.5,2.2,0.7c1,0.2,1.9,0.5,2.5,0.8s1.1,0.7,1.4,1.2c0.3,0.5,0.5,1,0.5,1.7c0,1.1-0.4,2-1.3,2.6c-0.9,0.7-2,1-3.4,1
			c-1,0-1.9-0.2-2.6-0.5c-0.8-0.3-1.3-0.8-1.8-1.5c-0.4-0.6-0.6-1.3-0.6-2h2.1c0,0.7,0.3,1.3,0.8,1.7c0.5,0.4,1.2,0.6,2.1,0.6
			c0.8,0,1.4-0.2,1.9-0.5C258.9,41.5,259.2,41.1,259.2,40.6z"/>
		<path class="st2" d="M266.9,28.6v3h2.3v1.6h-2.3v7.6c0,0.5,0.1,0.9,0.3,1.1c0.2,0.2,0.6,0.4,1,0.4c0.2,0,0.6,0,1-0.1v1.7
			c-0.6,0.2-1.1,0.2-1.6,0.2c-0.9,0-1.6-0.3-2.1-0.9c-0.5-0.6-0.7-1.4-0.7-2.4v-7.6h-2.2v-1.6h2.2v-3H266.9z"/>
		<path class="st2" d="M276.7,44c-1.7,0-3-0.5-4.1-1.6c-1-1.1-1.6-2.6-1.6-4.4v-0.4c0-1.2,0.2-2.3,0.7-3.3c0.5-1,1.1-1.7,2-2.2
			c0.8-0.5,1.7-0.8,2.7-0.8c1.6,0,2.8,0.5,3.7,1.6c0.9,1.1,1.3,2.6,1.3,4.5v0.9h-8.3c0,1.2,0.4,2.2,1.1,2.9c0.7,0.7,1.5,1.1,2.6,1.1
			c0.7,0,1.4-0.2,1.9-0.5c0.5-0.3,1-0.7,1.3-1.2l1.3,1C280.3,43.3,278.7,44,276.7,44z M276.4,33c-0.8,0-1.6,0.3-2.1,0.9
			c-0.6,0.6-0.9,1.5-1.1,2.6h6.1v-0.2c-0.1-1.1-0.3-1.9-0.9-2.5C278,33.3,277.3,33,276.4,33z"/>
		<path class="st2" d="M285.9,31.5l0.1,1.4c0.9-1.1,2.1-1.6,3.6-1.6c1.7,0,2.9,0.7,3.5,2c0.4-0.6,0.9-1.1,1.6-1.4
			c0.7-0.4,1.4-0.5,2.3-0.5c2.7,0,4.1,1.4,4.1,4.3v8.2H299v-8.1c0-0.9-0.2-1.5-0.6-2c-0.4-0.4-1.1-0.7-2-0.7c-0.8,0-1.4,0.2-1.9,0.7
			c-0.5,0.5-0.8,1.1-0.9,1.9v8.1h-2.1v-8c0-1.8-0.9-2.7-2.6-2.7c-1.4,0-2.3,0.6-2.8,1.8v9h-2.1V31.5H285.9z"/>
		<path class="st2" d="M311.8,43.8c-0.1-0.2-0.2-0.7-0.3-1.3c-1,1-2.1,1.5-3.5,1.5c-1.2,0-2.2-0.3-3-1c-0.8-0.7-1.2-1.6-1.2-2.6
			c0-1.3,0.5-2.3,1.5-3c1-0.7,2.3-1.1,4.1-1.1h2v-1c0-0.7-0.2-1.3-0.7-1.8c-0.4-0.4-1.1-0.7-1.9-0.7c-0.7,0-1.4,0.2-1.9,0.6
			c-0.5,0.4-0.8,0.8-0.8,1.4h-2.1c0-0.6,0.2-1.2,0.7-1.8c0.4-0.6,1-1,1.8-1.4c0.7-0.3,1.6-0.5,2.5-0.5c1.4,0,2.5,0.4,3.3,1.1
			c0.8,0.7,1.2,1.7,1.2,2.9V41c0,1.1,0.1,2,0.4,2.7v0.2H311.8z M308.4,42.2c0.7,0,1.3-0.2,1.9-0.5c0.6-0.3,1-0.8,1.3-1.3v-2.5h-1.6
			c-2.6,0-3.9,0.8-3.9,2.3c0,0.7,0.2,1.2,0.7,1.5C307.1,42,307.7,42.2,308.4,42.2z"/>
		<path class="st2" d="M322.1,37.6c0-1.9,0.4-3.4,1.3-4.5c0.9-1.1,2.1-1.7,3.5-1.7c1.4,0,2.6,0.5,3.4,1.5v-6.4h2.1v17.4h-1.9
			l-0.1-1.3c-0.8,1-2,1.5-3.5,1.5c-1.4,0-2.6-0.6-3.5-1.7c-0.9-1.2-1.3-2.7-1.3-4.6V37.6z M324.2,37.8c0,1.4,0.3,2.5,0.9,3.3
			c0.6,0.8,1.4,1.2,2.4,1.2c1.3,0,2.3-0.6,2.9-1.8v-5.6c-0.6-1.2-1.6-1.7-2.9-1.7c-1,0-1.8,0.4-2.4,1.2
			C324.5,35.1,324.2,36.3,324.2,37.8z"/>
		<path class="st2" d="M340.8,44c-1.7,0-3-0.5-4.1-1.6c-1-1.1-1.6-2.6-1.6-4.4v-0.4c0-1.2,0.2-2.3,0.7-3.3c0.5-1,1.1-1.7,2-2.2
			c0.8-0.5,1.7-0.8,2.7-0.8c1.6,0,2.8,0.5,3.7,1.6c0.9,1.1,1.3,2.6,1.3,4.5v0.9h-8.3c0,1.2,0.4,2.2,1.1,2.9c0.7,0.7,1.5,1.1,2.6,1.1
			c0.7,0,1.4-0.2,1.9-0.5s1-0.7,1.3-1.2l1.3,1C344.4,43.3,342.9,44,340.8,44z M340.6,33c-0.8,0-1.6,0.3-2.1,0.9
			c-0.6,0.6-0.9,1.5-1.1,2.6h6.1v-0.2c-0.1-1.1-0.3-1.9-0.9-2.5C342.2,33.3,341.5,33,340.6,33z"/>
	</g>
	<g class="st1">
		<path class="st2" d="M367,41.8c-0.6,0.7-1.5,1.2-2.7,1.6c-1.2,0.4-2.5,0.6-3.9,0.6c-2.2,0-3.9-0.7-5.2-2s-2-3.2-2.1-5.5l0-1.4
			c0-1.6,0.3-3,0.9-4.3c0.6-1.2,1.4-2.1,2.5-2.8c1.1-0.7,2.3-1,3.7-1c2.1,0,3.7,0.5,4.8,1.4s1.8,2.3,2,4.2h-3.8
			c-0.1-0.9-0.4-1.6-0.9-2c-0.5-0.4-1.1-0.6-1.9-0.6c-1,0-1.8,0.4-2.3,1.3c-0.5,0.8-0.8,2.1-0.8,3.6v1c0,1.6,0.3,2.9,0.8,3.7
			c0.6,0.8,1.4,1.2,2.7,1.2c1,0,1.8-0.2,2.3-0.7v-2.6h-2.8V35h6.7V41.8z"/>
		<path class="st2" d="M375.1,44c-1.9,0-3.4-0.6-4.6-1.7c-1.2-1.1-1.7-2.6-1.7-4.4v-0.3c0-1.3,0.2-2.4,0.7-3.3c0.5-1,1.1-1.7,2-2.2
			c0.9-0.5,2-0.8,3.2-0.8c1.7,0,3.1,0.5,4.1,1.6c1,1.1,1.5,2.6,1.5,4.5v1.5h-7.6c0.1,0.7,0.4,1.2,0.9,1.6c0.5,0.4,1.1,0.6,1.8,0.6
			c1.2,0,2.2-0.4,2.8-1.3l1.7,2.1c-0.5,0.7-1.2,1.2-2,1.6C377,43.9,376.1,44,375.1,44z M374.6,34.3c-1.1,0-1.8,0.7-2,2.2h3.9v-0.3
			c0-0.6-0.1-1.1-0.5-1.4C375.7,34.4,375.2,34.3,374.6,34.3z"/>
		<path class="st2" d="M388.2,40.4c0-0.3-0.2-0.6-0.5-0.8c-0.3-0.2-1-0.4-1.9-0.6c-1-0.2-1.7-0.5-2.4-0.8c-0.6-0.3-1.1-0.8-1.4-1.3
			s-0.5-1.1-0.5-1.7c0-1.1,0.5-2.1,1.4-2.8c0.9-0.7,2.1-1.1,3.7-1.1c1.6,0,2.9,0.4,3.9,1.1c1,0.7,1.5,1.7,1.5,2.9h-3.8
			c0-1-0.5-1.5-1.6-1.5c-0.4,0-0.7,0.1-1,0.3c-0.3,0.2-0.4,0.5-0.4,0.8c0,0.3,0.2,0.6,0.5,0.8c0.3,0.2,0.9,0.4,1.6,0.5
			s1.4,0.3,1.9,0.5c1.8,0.6,2.8,1.8,2.8,3.4c0,1.1-0.5,2-1.5,2.7c-1,0.7-2.3,1.1-3.9,1.1c-1.1,0-2-0.2-2.8-0.6
			c-0.8-0.4-1.5-0.9-1.9-1.5s-0.7-1.3-0.7-2.1h3.6c0,0.6,0.2,1,0.6,1.2s0.8,0.4,1.4,0.4c0.5,0,0.9-0.1,1.2-0.3
			C388.1,41,388.2,40.7,388.2,40.4z"/>
		<path class="st2" d="M398.1,28.5v3.1h2v2.7h-2v5.6c0,0.5,0.1,0.8,0.2,1c0.2,0.2,0.5,0.3,1,0.3c0.4,0,0.7,0,1-0.1v2.7
			c-0.7,0.2-1.4,0.3-2.2,0.3c-1.3,0-2.3-0.3-2.9-0.9c-0.6-0.6-0.9-1.6-0.9-2.8v-6.1h-1.6v-2.7h1.6v-3.1H398.1z"/>
		<path class="st2" d="M401.6,28.4c0-0.5,0.2-1,0.6-1.3c0.4-0.3,0.9-0.5,1.5-0.5c0.6,0,1.1,0.2,1.5,0.5c0.4,0.3,0.6,0.8,0.6,1.3
			c0,0.5-0.2,1-0.6,1.3c-0.4,0.3-0.9,0.5-1.5,0.5c-0.6,0-1.1-0.2-1.5-0.5C401.8,29.4,401.6,28.9,401.6,28.4z M405.7,43.8h-3.8V31.5
			h3.8V43.8z"/>
		<path class="st2" d="M407.6,37.6c0-1.2,0.2-2.3,0.7-3.3c0.5-1,1.2-1.7,2.1-2.2c0.9-0.5,1.9-0.8,3.1-0.8c1.8,0,3.3,0.6,4.3,1.7
			c1.1,1.1,1.6,2.7,1.6,4.6v0.1c0,1.9-0.5,3.4-1.6,4.6c-1.1,1.1-2.5,1.7-4.3,1.7c-1.7,0-3.1-0.5-4.2-1.6c-1.1-1-1.6-2.5-1.7-4.3
			L407.6,37.6z M411.4,37.8c0,1.1,0.2,2,0.5,2.5s0.9,0.8,1.6,0.8c1.4,0,2.1-1,2.1-3.1v-0.4c0-2.2-0.7-3.3-2.1-3.3
			c-1.3,0-2,0.9-2.1,2.8L411.4,37.8z M414,26.4h4l-3.2,3.6l-3.1,0L414,26.4z"/>
		<path class="st2" d="M424.6,31.5l0.1,1.4c0.8-1.1,2-1.7,3.5-1.7c1.3,0,2.2,0.4,2.9,1.1c0.6,0.8,1,1.9,1,3.4v7.9h-3.8v-7.7
			c0-0.6-0.1-1.1-0.4-1.4c-0.2-0.3-0.7-0.4-1.4-0.4c-0.7,0-1.3,0.3-1.7,0.9v8.7H421V31.5H424.6z"/>
	</g>
	<g class="st1">
		<path class="st2" d="M241.7,63.4h-5.5l-1,3.1H231L237,50h3.7l6.1,16.5h-4.3L241.7,63.4z M237.2,60.4h3.6l-1.8-5.7L237.2,60.4z"/>
		<path class="st2" d="M253.1,63.8c0.5,0,1-0.1,1.2-0.4c0.3-0.3,0.4-0.7,0.4-1.2h3.6c0,1.3-0.5,2.5-1.4,3.3c-1,0.9-2.2,1.3-3.7,1.3
			c-1.8,0-3.2-0.6-4.2-1.7c-1-1.1-1.5-2.7-1.5-4.6v-0.2c0-1.2,0.2-2.3,0.7-3.3c0.5-0.9,1.1-1.7,2-2.2c0.9-0.5,1.9-0.8,3.1-0.8
			c1.6,0,2.9,0.4,3.8,1.3s1.4,2.1,1.4,3.6h-3.6c0-0.6-0.2-1.1-0.5-1.5c-0.3-0.3-0.7-0.5-1.2-0.5c-1,0-1.6,0.6-1.7,1.9
			c-0.1,0.4-0.1,1-0.1,1.7c0,1.2,0.1,2.1,0.4,2.6S252.5,63.8,253.1,63.8z"/>
		<path class="st2" d="M266.9,66.5c-0.1-0.3-0.3-0.6-0.4-1.1c-0.7,0.9-1.7,1.3-2.9,1.3c-1.2,0-2.1-0.3-2.9-1
			c-0.8-0.7-1.2-1.6-1.2-2.6c0-1.3,0.5-2.3,1.5-3c1-0.7,2.4-1,4.3-1h1.2v-0.6c0-1.1-0.5-1.7-1.5-1.7c-0.9,0-1.4,0.4-1.4,1.3h-3.8
			c0-1.2,0.5-2.1,1.5-2.9s2.3-1.1,3.9-1.1c1.6,0,2.8,0.4,3.7,1.1s1.4,1.8,1.4,3.1v5.4c0,1.1,0.2,2,0.5,2.6v0.2H266.9z M264.5,64
			c0.5,0,0.9-0.1,1.2-0.3s0.5-0.4,0.7-0.7v-2h-1.1c-1.3,0-2,0.6-2,1.8c0,0.3,0.1,0.6,0.4,0.8S264.1,64,264.5,64z"/>
		<path class="st2" d="M271.8,60.3c0-1.9,0.4-3.5,1.3-4.6c0.8-1.1,2-1.7,3.5-1.7c1.1,0,2,0.4,2.8,1.3v-6.2h3.8v17.4h-3.4l-0.2-1.3
			c-0.8,1-1.8,1.5-3,1.5c-1.5,0-2.6-0.6-3.5-1.7C272.3,64,271.8,62.4,271.8,60.3z M275.7,60.5c0,2.2,0.6,3.3,1.9,3.3
			c0.8,0,1.5-0.4,1.8-1.1v-4.7c-0.3-0.7-0.9-1.1-1.8-1.1c-1.2,0-1.8,1-1.9,2.9L275.7,60.5z"/>
		<path class="st2" d="M291.3,66.7c-1.9,0-3.4-0.6-4.6-1.7c-1.2-1.1-1.7-2.6-1.7-4.4v-0.3c0-1.3,0.2-2.4,0.7-3.3
			c0.5-1,1.1-1.7,2-2.2c0.9-0.5,2-0.8,3.2-0.8c1.7,0,3.1,0.5,4.1,1.6c1,1.1,1.5,2.6,1.5,4.5v1.5h-7.6c0.1,0.7,0.4,1.2,0.9,1.6
			c0.5,0.4,1.1,0.6,1.8,0.6c1.2,0,2.2-0.4,2.8-1.3l1.7,2.1c-0.5,0.7-1.2,1.2-2,1.6S292.3,66.7,291.3,66.7z M290.8,49.1h4l-3.2,3.6
			l-3.1,0L290.8,49.1z M290.9,57c-1.1,0-1.8,0.7-2,2.2h3.9v-0.3c0-0.6-0.1-1.1-0.5-1.4C292,57.1,291.5,57,290.9,57z"/>
		<path class="st2" d="M301.6,54.2l0.1,1.4c0.9-1.1,2-1.7,3.5-1.7c1.5,0,2.6,0.6,3.1,1.8c0.8-1.2,2-1.8,3.6-1.8
			c2.5,0,3.8,1.5,3.8,4.5v8H312v-7.7c0-0.6-0.1-1.1-0.3-1.4c-0.2-0.3-0.6-0.4-1.2-0.4c-0.8,0-1.3,0.3-1.7,1l0,0.2v8.4H305v-7.7
			c0-0.6-0.1-1.1-0.3-1.4c-0.2-0.3-0.6-0.4-1.2-0.4c-0.7,0-1.3,0.3-1.7,1v8.5h-3.8V54.2H301.6z"/>
		<path class="st2" d="M318,51.1c0-0.5,0.2-1,0.6-1.3c0.4-0.3,0.9-0.5,1.5-0.5c0.6,0,1.1,0.2,1.5,0.5c0.4,0.3,0.6,0.8,0.6,1.3
			c0,0.5-0.2,1-0.6,1.3c-0.4,0.3-0.9,0.5-1.5,0.5c-0.6,0-1.1-0.2-1.5-0.5C318.2,52.1,318,51.6,318,51.1z M322.1,66.5h-3.8V54.2h3.8
			V66.5z"/>
		<path class="st2" d="M329.6,63.8c0.5,0,1-0.1,1.2-0.4c0.3-0.3,0.4-0.7,0.4-1.2h3.6c0,1.3-0.5,2.5-1.4,3.3c-1,0.9-2.2,1.3-3.7,1.3
			c-1.8,0-3.2-0.6-4.2-1.7c-1-1.1-1.5-2.7-1.5-4.6v-0.2c0-1.2,0.2-2.3,0.7-3.3c0.5-0.9,1.1-1.7,2-2.2c0.9-0.5,1.9-0.8,3.1-0.8
			c1.6,0,2.9,0.4,3.8,1.3c0.9,0.9,1.4,2.1,1.4,3.6h-3.6c0-0.6-0.2-1.1-0.5-1.5c-0.3-0.3-0.7-0.5-1.2-0.5c-1,0-1.6,0.6-1.7,1.9
			c-0.1,0.4-0.1,1-0.1,1.7c0,1.2,0.1,2.1,0.4,2.6S329,63.8,329.6,63.8z"/>
		<path class="st2" d="M343.4,66.5c-0.1-0.3-0.3-0.6-0.4-1.1c-0.7,0.9-1.7,1.3-2.9,1.3c-1.2,0-2.1-0.3-2.9-1
			c-0.8-0.7-1.2-1.6-1.2-2.6c0-1.3,0.5-2.3,1.5-3c1-0.7,2.4-1,4.3-1h1.2v-0.6c0-1.1-0.5-1.7-1.5-1.7c-0.9,0-1.4,0.4-1.4,1.3h-3.8
			c0-1.2,0.5-2.1,1.5-2.9c1-0.7,2.3-1.1,3.9-1.1s2.8,0.4,3.7,1.1s1.4,1.8,1.4,3.1v5.4c0,1.1,0.2,2,0.5,2.6v0.2H343.4z M341,64
			c0.5,0,0.9-0.1,1.2-0.3c0.3-0.2,0.5-0.4,0.7-0.7v-2h-1.1c-1.3,0-2,0.6-2,1.8c0,0.3,0.1,0.6,0.4,0.8C340.3,63.9,340.6,64,341,64z"
			/>
	</g>
	<path class="st2" d="M38.9,55.9c0-1.4-0.7-2.6-2.2-3.4c-1.5-0.9-4.3-1.8-8.5-2.7s-7.6-2.1-10.3-3.6s-4.8-3.3-6.2-5.5
		c-1.4-2.1-2.1-4.6-2.1-7.4c0-4.9,2-9,6.1-12.2s9.4-4.8,16-4.8c7.1,0,12.8,1.6,17,4.8c4.3,3.2,6.4,7.4,6.4,12.6H38.3
		c0-4.3-2.3-6.4-6.8-6.4c-1.8,0-3.2,0.5-4.4,1.5c-1.2,1-1.8,2.2-1.8,3.6c0,1.5,0.7,2.7,2.2,3.6c1.5,0.9,3.8,1.7,7,2.3s6,1.3,8.4,2.1
		C51,43.3,55,48.3,55,55.4c0,4.9-2.2,8.9-6.5,11.9c-4.3,3.1-10,4.6-16.9,4.6c-4.6,0-8.7-0.8-12.3-2.5s-6.4-3.9-8.4-6.7s-3-5.8-3-9
		h15.6c0.1,2.5,0.9,4.3,2.5,5.4c1.6,1.1,3.6,1.7,6.1,1.7c2.3,0,4-0.5,5.1-1.4C38.3,58.6,38.9,57.4,38.9,55.9z"/>
	<path class="st3" d="M178.1,75.9c-0.6-1.1-1.1-2.7-1.6-4.8c-3.1,3.9-7.4,5.8-12.9,5.8c-5.1,0-9.4-1.5-12.9-4.6s-5.3-6.9-5.3-11.5
		c0-5.8,2.1-10.2,6.4-13.2c4.3-3,10.5-4.5,18.7-4.5h5.2v-2.8c0-4.9-2.1-7.4-6.4-7.4c-4,0-5.9,2-5.9,5.9h-16.7
		c0-5.2,2.2-9.4,6.6-12.6c4.4-3.2,10-4.9,16.9-4.9c6.8,0,12.2,1.7,16.2,5s6,7.9,6.1,13.7v23.7c0.1,4.9,0.8,8.7,2.3,11.3v0.8
		L178.1,75.9L178.1,75.9z M167.6,64.9c2.1,0,3.8-0.4,5.2-1.3c1.4-0.9,2.4-1.9,2.9-3V52h-4.9c-5.8,0-8.7,2.6-8.7,7.8
		c0,1.5,0.5,2.8,1.5,3.7C164.7,64.5,166,64.9,167.6,64.9z"/>
	<g>
		<path class="st2" d="M104.7,17.4l-0.5,3.7c-0.8-0.5-1.6-0.9-2.5-1.3c-3.5-1.6-7.4-2.6-11.6-2.6c-3.2,0-6.2,0.6-9.1,1.6
			c-10.6,3.7-18.3,13.9-18.3,25.8c0,14.7,11.5,26.6,26,27.3c0.7,0.1,1.4,0.1,2.1,0.1c1.5,0,2.9-0.2,4.3-0.5c2.8-0.5,5.4-1.5,7.8-2.7
			c-0.1,7.4-3.8,11.1-11.1,11.1c-5.1,0-9.2-1.8-12.3-5.5l-7,9.8c1.9,2.4,4.8,4.3,8.4,5.8c3.7,1.5,7.5,2.2,11.4,2.2
			c5.5,0,10.3-0.9,14.5-2.8s7.3-4.5,9.5-8s3.3-7.6,3.3-12.3V17.4H104.7z M90.1,57.4c-7.5,0-13.6-6.1-13.6-13.6s6.1-13.6,13.6-13.6
			s13.6,6.1,13.6,13.6S97.6,57.4,90.1,57.4z"/>
	</g>
	<circle class="st2" cx="207.4" cy="67.1" r="9.5"/>
</g>
</svg>
