<?xml version="1.0" encoding="utf-8"?>
<!-- Generator: Adobe Illustrator 24.0.0, SVG Export Plug-In . SVG Version: 6.00 Build 0)  -->
<svg version="1.1" id="Capa_1" xmlns="http://www.w3.org/2000/svg" xmlns:xlink="http://www.w3.org/1999/xlink" x="0px" y="0px"
	 viewBox="0 0 428 158" style="enable-background:new 0 0 428 158;" xml:space="preserve">
<style type="text/css">
	.st0{fill:#FFFFFF;}
</style>
<polygon class="st0" points="399.7,65.4 359.9,65.4 359.9,65.1 356,67.4 352,93 352.1,93.1 396.5,93.1 "/>
<polygon class="st0" points="356,67.4 359.9,65.1 364.6,25.5 337.2,25.5 328.9,93.1 352.1,93.1 352,93 "/>
<path class="st0" d="M46.6,95.7c-24.9,0-34.3-11.3-28.2-33.9c5.9-22.2,21.3-33.3,46.2-33.3h48.5l-8,29.9H56.6c-5,0-7.8,1.1-8.4,3.4
	c-0.8,2.7,1.4,4,6.4,4H77c24.9,0,34.4,11.1,28.5,33.3C99.4,121.7,83.9,133,59,133H10.3l8-29.9h48.5c5,0,7.9-1.4,8.6-4
	c0.6-2.3-1.6-3.4-6.6-3.4H46.6z"/>
<path class="st0" d="M170.5,103.1l8-29.9h29.9l-16,59.8h-41.1c-14.5,0-25.4-5.1-32.9-15.3c-7.5-10.2-9.3-22.6-5.4-37
	c3.8-14.5,12.2-26.7,25.2-37c12.9-10.2,26.6-15.3,41.1-15.3h33.6l-8,29.9h-33.6c-6.2,0-12,2.2-17.6,6.6s-9.2,9.7-10.8,15.8
	c-1.7,6.2-0.9,11.5,2.3,15.8c3.2,4.4,7.9,6.6,14.1,6.6H170.5L170.5,103.1z"/>
<path class="st0" d="M232.9,118l-9.3,14.9h-29.9l65.4-104.6h37.4l9.3,104.6h-29.9l-1.4-14.9H232.9L232.9,118z M269.4,59.8
	l-17.8,28.4h20.3L269.4,59.8z"/>
<polygon class="st0" points="351.9,133 324.2,133 328.9,93.1 289.2,93.1 292.6,65.4 359.6,65.4 "/>
</svg>
