<?xml version="1.0" encoding="utf-8"?>
<!-- Generator: Adobe Illustrator 24.0.0, SVG Export Plug-In . SVG Version: 6.00 Build 0)  -->
<svg version="1.1" id="Capa_1" xmlns="http://www.w3.org/2000/svg" xmlns:xlink="http://www.w3.org/1999/xlink" x="0px" y="0px"
	 viewBox="0 0 250 250" style="enable-background:new 0 0 250 250;" xml:space="preserve">
<style type="text/css">
	.st0{fill:#FFFFFF;}
</style>
<g>
	<path class="st0" d="M137.5,229.3c-4.2,0-8.5,0.2-12.7-0.2c-7.3-0.6-14.1-3.2-20.4-7.1c-6.5-4.1-13-8.1-19.3-12.4
		c-11-7.5-17.7-18-20.6-30.9c-6.1-27.6-12.2-55.2-18.2-82.8c-2.2-10,4.7-18.1,14.9-17.6c9.1,0.4,15.9,5.5,19.2,14.2
		c4,10.6,8.2,21.1,12.3,31.6c0.2,0.6,0.5,1.1,0.9,1.9c0.5-0.8,1-1.4,1.4-2.1c15.1-23.5,30.1-47.1,45.1-70.6c2.6-4,5.9-7,10.6-8.5
		c8.1-2.7,18.5,2.4,21.3,10.5c2,5.9,1.2,11.3-2.1,16.5c-3.6,5.5-7.1,11-10.6,16.5c-0.3,0.5-0.7,1.1-1.1,1.9c6,0.8,10.6,3.5,13.6,8.6
		c3,5.1,3.2,10.5,1,16.2c6.1,0.8,10.8,3.5,13.8,8.7c3,5.1,3.2,10.5,1,16.1c3.6,0.5,6.8,1.5,9.6,3.8c7.2,5.8,9.1,15.8,3.8,23.4
		c-10,14.5-20.2,28.8-30.6,43c-5.8,8-13.8,13.4-23.2,16.8c-0.6,0.2-1.2,0.5-1.7,0.8C142.9,228.1,140.2,228.7,137.5,229.3z
		 M64.8,137.3c2.8,12.9,5.7,25.8,8.5,38.7c2.4,11.1,8,20.1,17.5,26.4c6.3,4.2,12.6,8.4,19.2,12.2c18.9,11,41.6,6,54.5-11.8
		c3.9-5.4,7.6-10.8,11.5-16.2c5.7-8.1,11.5-16.2,17.2-24.3c2.8-4,2-8.9-1.7-11.7c-3.7-2.8-8.7-2-11.7,1.8c-0.4,0.6-0.9,1.1-1.4,1.6
		c-1.3,1.2-2.8,1.6-4.5,1c-1.7-0.6-2.9-1.8-2.9-3.6c0-1.3,0.4-2.7,1-3.8c2.1-3.5,4.3-6.9,6.5-10.3c1.8-2.8,2.1-5.8,0.5-8.7
		c-2.9-5.5-10.4-6-14.2-0.8c-2.5,3.6-4.7,7.4-7.2,11c-1.7,2.6-4.4,3.3-6.6,1.9c-2.3-1.4-2.7-4.1-1.1-6.7c0.9-1.5,1.9-3,2.8-4.5
		c3.6-5.6,7.2-11.2,10.8-16.9c2.8-4.4,1.7-9.5-2.4-12c-4.1-2.5-8.9-1.3-11.7,3.1c-4.4,6.8-8.7,13.7-13.1,20.5
		c-0.5,0.8-1,1.5-1.7,2.1c-1.4,1.3-3,1.5-4.7,0.7c-1.7-0.8-2.8-2.1-2.6-4c0.2-1.4,0.7-2.8,1.5-3.9c11-17.2,22-34.4,33-51.6
		c0.5-0.8,1.1-1.7,1.5-2.5c2.6-5.7-1.9-12.2-8.2-11.7c-3.3,0.3-5.4,2.2-7.1,4.9c-16.9,26.5-33.9,53-50.8,79.5
		c-1.2,1.8-2.5,3.2-4.9,3c-2.4-0.2-3.5-1.8-4.3-3.8c-2.2-5.8-4.5-11.6-6.8-17.4c-3.3-8.5-6.6-17.1-10.1-25.5
		c-2-4.8-6.7-7.2-11.8-6.6c-2.9,0.4-4.5,2.3-4.3,5.2c0.1,0.8,0.2,1.5,0.4,2.3C58.6,109.2,61.7,123.2,64.8,137.3z"/>
	<path class="st0" d="M146.1,21.6c20.1-4.1,39,5.5,47.2,23.2c7.8,16.9,2.5,37.9-12.4,49.2c-2.5,1.9-5.1,1.8-6.8-0.3
		c-1.7-2-1.4-4.7,1-6.7c4.2-3.5,7.6-7.5,9.8-12.5c8.1-17.7-2.1-39-21-43.8c-17.1-4.3-33.9,5.4-38.8,22.3c-0.2,0.8-0.5,1.6-0.8,2.4
		c-1,2.5-3.2,3.7-5.6,3c-2.3-0.7-3.6-3-3.1-5.6c1.5-6.6,4.3-12.4,8.7-17.6C130.4,28,138.1,23.5,146.1,21.6z"/>
</g>
</svg>
