<?xml version="1.0" encoding="utf-8"?>
<!-- Generator: Adobe Illustrator 24.0.0, SVG Export Plug-In . SVG Version: 6.00 Build 0)  -->
<svg version="1.1" id="Capa_1" xmlns="http://www.w3.org/2000/svg" xmlns:xlink="http://www.w3.org/1999/xlink" x="0px" y="0px"
	 viewBox="0 0 200 200" style="enable-background:new 0 0 200 200;" xml:space="preserve">
<style type="text/css">
	.st0{fill:#ACAEAF;}
</style>
<g>
	<path class="st0" d="M106.4,188c-3,0-6,0-9,0c-3.5-0.6-7.1-1-10.6-1.8c-29.4-6.6-51.3-32.7-52.5-62.7c-0.8-20.1,6.1-37.2,20.3-51.4
		c1.2-1.2,2.5-2.4,3.8-3.6c-0.7-1.1-1.5-2-2.1-3c-1.2-2.1-2.5-2.9-5.2-2.5c-6.6,0.9-12.9-3.1-15.6-9.3c-2.7-6.1-1.1-13.2,3.9-17.7
		c5-4.5,12.2-5.3,18-2.1c5.8,3.2,9,9.9,7.7,16.4c-0.4,2.2-1.4,4.2-2.2,6.5c1.3,1.7,2.7,3.7,4.1,5.7c9.2-5.5,19.1-8.7,29.6-9.5
		c0-3.8,0-7.5,0-11.3c-6.9,0-13.7,0-20.7,0c0-10.5,0-20.9,0-31.2c17.3,0,34.7,0,52,0c0,10.4,0,20.7,0,31.2c-7,0-13.8,0-20.7,0
		c0,3.8,0,7.5,0,11.3c10.6,0.9,20.5,4.1,29.7,9.5c1.5-2.1,2.9-4,4.3-6c-0.3-0.6-0.6-1-0.8-1.5c-3.4-6.2-2.3-13.9,2.9-18.8
		c5.1-4.9,12.9-5.8,18.9-2.1c6,3.7,8.8,10.9,6.8,17.7c-2.2,7.6-9.8,12.3-17.6,11c-0.7-0.1-1.7-0.2-2,0.2c-1.4,1.7-2.6,3.6-3.9,5.4
		c0.4,0.3,0.6,0.6,0.8,0.7c18.6,16.9,26.2,37.8,22.3,62.7c-4.1,26.3-25.1,48.4-51.3,54.2C113.6,187,109.9,187.4,106.4,188z
		 M159.1,120.4c0-31.5-25.7-57.2-57.2-57.2c-31.5,0-57.1,25.6-57.2,57.1c-0.1,31.5,25.6,57.3,57.1,57.3
		C133.3,177.6,159,151.9,159.1,120.4z M86.4,20.9c0,3.4,0,6.8,0,10.3c10.4,0,20.7,0,30.9,0c0-3.5,0-6.9,0-10.3
		C107,20.9,96.8,20.9,86.4,20.9z M49.8,42.4c-2.8,0-5.1,2.4-5.1,5.2c0,2.8,2.4,5.2,5.2,5.2c2.9,0,5.3-2.5,5.2-5.3
		C55,44.6,52.6,42.3,49.8,42.4z M153.7,52.7c2.8,0.1,5.2-2.2,5.3-5c0.1-2.8-2.2-5.2-5-5.4c-2.9-0.1-5.4,2.2-5.4,5.1
		C148.6,50.3,150.9,52.7,153.7,52.7z"/>
	<path class="st0" d="M150.2,110.5c-3.6,2.1-7.1,4.1-10.6,6.1c-1,0.6-1.2,1.2-1.4,2.4c-0.6,3.6,1.1,5.4,4.1,6.8
		c2.7,1.2,5.2,2.9,7.9,4.5c-5.2,9-10.4,18-15.6,27c-3.7-2.1-7.3-4.2-10.9-6.3c-0.9-0.6-1.5-0.4-2.5,0c-3.4,1.2-4.2,3.6-3.8,6.9
		c0.3,2.9,0,5.9,0,8.8c0,0.1-0.1,0.2-0.2,0.4c-10.2,0-20.5,0-31,0c0-1.4,0-2.7,0-4.1c0-1.7-0.2-3.4,0-5c0.5-3.4-0.4-5.8-3.9-7.1
		c-0.9-0.3-1.5-0.5-2.3,0c-3.6,2.1-7.2,4.2-11,6.4c-5.2-9-10.4-17.9-15.6-27c3-1.7,5.7-3.6,8.7-5c2.5-1.2,3.6-2.7,3.3-5.5
		c-0.2-1.7-0.5-2.8-2.1-3.6c-3.3-1.7-6.5-3.7-9.9-5.7c5.2-9,10.3-17.9,15.6-27c3.1,1.8,6.2,3.4,9.1,5.3c2.1,1.4,3.6,1.6,5.8,0.1
		c1.6-1.1,2.3-1.9,2.2-3.9c-0.2-3.7,0-7.5,0-11.4c10.4,0,20.7,0,31.2,0c0,4.1,0,8.2,0,12.3c0,1.2,0.5,1.7,1.4,2.4
		c2.7,2.2,5,1.7,7.6-0.1c2.5-1.8,5.4-3.1,8.2-4.8C139.8,92.5,145,101.4,150.2,110.5z M121.3,103.1c-3.9-3.9-8.3-6.5-13.5-8.1
		c-0.4-0.1-0.8-1-0.8-1.6c-0.1-3.1,0-6.2,0-9.3c-3.6,0-6.9,0-10.4,0c0,3-0.1,5.9,0,8.8c0.1,1.4-0.4,2.2-1.8,2.6
		c-4.2,1.2-7.9,3.4-11.2,6.4c-0.5,0.4-1,0.8-1.5,1.2c-3.1-1.8-6.2-3.6-9.4-5.4c-1.8,3.1-3.5,6-5.2,9c2.7,1.6,5.4,3.2,8,4.6
		c1,0.5,1.3,1.2,1,2.2c-1.2,4.6-1.2,9.1,0,13.7c0.3,1.2-0.1,1.8-1.1,2.3c-2.6,1.4-5.2,3-7.9,4.5c1.7,3,3.4,5.9,5.2,9
		c3.2-1.8,6.3-3.6,9.5-5.4c3.8,3.8,8.2,6.5,13.3,8c1,0.3,1,0.9,1,1.7c0,3.1,0,6.2,0,9.3c3.6,0,6.9,0,10.4,0c0-3.2,0-6.2,0-9.3
		c0-1,0.3-1.5,1.3-1.8c4.4-1.4,8.4-3.5,11.8-6.7c0.4-0.4,0.9-0.7,1.4-1.1c3.1,1.8,6.1,3.5,9.3,5.4c1.7-3,3.4-6,5.2-9
		c-2.8-1.6-5.4-3.2-8-4.6c-1-0.5-1.3-1.1-1-2.2c1.2-4.6,1.2-9.1,0-13.7c-0.3-1.2,0.1-1.8,1.1-2.3c2.6-1.4,5.2-3,7.9-4.5
		c-1.7-3-3.4-6-5.2-9C127.6,99.5,124.6,101.2,121.3,103.1z"/>
	<path class="st0" d="M101.9,136c-8.6,0-15.6-7.1-15.6-15.7c0-8.5,7-15.5,15.6-15.5c8.6,0,15.6,7,15.6,15.7
		C117.4,129,110.4,136,101.9,136z M107,120.3c0-2.8-2.4-5.2-5.2-5.2c-2.8,0-5.2,2.3-5.2,5.1c0,2.9,2.4,5.3,5.3,5.3
		C104.7,125.5,107.1,123.2,107,120.3z"/>
</g>
</svg>
