<?xml version="1.0" encoding="utf-8"?>
<!-- Generator: Adobe Illustrator 24.0.0, SVG Export Plug-In . SVG Version: 6.00 Build 0)  -->
<svg version="1.1" id="Capa_1" xmlns="http://www.w3.org/2000/svg" xmlns:xlink="http://www.w3.org/1999/xlink" x="0px" y="0px"
	 viewBox="0 0 200 200" style="enable-background:new 0 0 200 200;" xml:space="preserve">
<style type="text/css">
	.st0{fill:#ACAEAF;}
</style>
<g>
	<path class="st0" d="M9.4,105.4c0-3.5,0-7.1,0-10.6c0.3-2.3,0.5-4.7,0.8-7c2.9-19.9,11.2-37.2,25.4-51.5
		c13.6-13.7,29.9-22.1,48.9-25.4c3.4-0.6,6.8-0.9,10.1-1.4c3.5,0,7.1,0,10.6,0c0.5,0.1,0.9,0.2,1.4,0.3c4.2,0.6,8.4,1,12.6,1.8
		c45.9,9.6,77.1,54.1,70.5,100.6c-2.5,17.8-9.4,33.8-21.5,47.2c-21.6,24-48.6,34.1-80.6,30.2c-19.9-2.4-37-11.1-51.3-25.1
		c-13.7-13.6-22.3-29.9-25.6-48.9C10.2,112.2,9.9,108.8,9.4,105.4z M100,90.2c-5.5-5.5-10.9-10.9-16.3-16.3
		c-3.3-3.3-6.5-6.5-9.8-9.7c-2-2-4.5-2.5-7.2-1.4c-2.7,1-4.2,3.1-4.5,5.9c-0.3,2.5,0.9,4.4,2.6,6.1c8,7.9,15.9,15.9,23.9,23.9
		c0.4,0.4,0.9,0.9,1.6,1.7c-0.6,0.5-1.2,0.8-1.6,1.3c-8.2,8.2-16.4,16.4-24.6,24.6c-0.5,0.5-1.1,1.1-1.6,1.7c-2,2.6-1.9,6.3,0.3,8.8
		c2.8,3.2,7.3,3.1,10.6-0.2c8.4-8.4,16.8-16.8,25.3-25.3c0.4-0.4,0.9-0.9,1.4-1.3c8.1,8.1,16,16,23.9,23.9c0.8,0.8,1.6,1.7,2.6,2.4
		c3.9,3.1,9.8,1.2,11-3.6c0.8-2.9-0.3-5.3-2.4-7.3c-8-7.9-15.9-15.9-23.9-23.9c-0.4-0.4-0.9-0.9-1.5-1.5c0.6-0.5,1.2-0.9,1.6-1.4
		c7.6-7.6,15.2-15.2,22.8-22.8c3-3.1,3.2-7.3,0.4-10.1c-2.8-2.9-7.1-2.8-10.2,0.3c-3.9,3.9-7.8,7.8-11.8,11.7
		C108.4,81.8,104.3,85.9,100,90.2z"/>
</g>
</svg>
