<?xml version="1.0" encoding="utf-8"?>
<!-- Generator: Adobe Illustrator 24.0.0, SVG Export Plug-In . SVG Version: 6.00 Build 0)  -->
<svg version="1.1" id="Capa_1" xmlns="http://www.w3.org/2000/svg" xmlns:xlink="http://www.w3.org/1999/xlink" x="0px" y="0px"
	 viewBox="0 0 200 200" style="enable-background:new 0 0 200 200;" xml:space="preserve">
<style type="text/css">
	.st0{fill:#ACAEAF;}
</style>
<g>
	<path class="st0" d="M182.1,121.6c-0.9,1.7-1.9,3.1-4,3.2c-0.8,0-1.7-0.1-2.4-0.4c-6-2.9-11.9-5.9-17.8-8.9
		c-2.1-1.1-2.9-3.3-2.2-5.4c0.7-2,2.6-3.3,4.7-3c0.8,0.1,1.5,0.4,2.2,0.8c5.3,2.6,10.6,5.3,16,8c1.7,0.8,3,1.8,3.6,3.7
		C182.1,120.2,182.1,120.9,182.1,121.6z"/>
	<path class="st0" d="M182.1,68c-0.7,1.7-2,2.8-3.7,3.6c-5.3,2.6-10.5,5.2-15.7,7.8c-0.7,0.4-1.5,0.7-2.3,0.8
		c-2,0.3-3.8-0.8-4.6-2.7c-0.8-1.8-0.3-3.9,1.3-5.2c0.5-0.4,1.2-0.7,1.8-1c5.2-2.6,10.5-5.2,15.7-7.8c3.7-1.8,5.7-1.2,7.5,2.4
		C182.1,66.7,182.1,67.4,182.1,68z"/>
	<path class="st0" d="M182.1,94.7c-1,2.6-2.9,3.6-5.6,3.5c-5.4-0.1-10.8,0-16.3,0c-3,0-4.9-1.9-4.8-4.6c0.1-2.2,1.7-4.2,4-4.2
		c6.3-0.1,12.5-0.1,18.8,0c2.1,0,3.1,1.6,4,3.3C182.1,93.3,182.1,94,182.1,94.7z"/>
	<g>
		<path class="st0" d="M146.5,60.5c0-1.2-0.1-2.4-0.1-3.5c-0.5-6-5.3-11.1-10.9-12c-7.1-1.1-13,3.1-14.8,8.6c-0.3,1-0.9,1.4-1.8,1.7
			C103,60.4,87.1,65.7,71.3,71c-0.9,0.3-1.8,0.4-2.7,0.4c-7.9,0-15.8,0-23.7,0c-8.3,0-14.2,5.5-14.3,13.5c-0.1,8.8-0.1,17.7,0,26.5
			c0.1,5.5,2.7,9.7,7.7,12.1c1.8,0.8,3.8,1.1,5.8,1.7c1.4,13,2.9,26,4.1,39.1c0.5,5.4,2.3,9.8,7.3,12.5c4.8,2.5,9.5,2.1,13.8-0.9
			c4-2.8,6-6.9,5.6-11.8c-0.3-4.1-0.8-8.1-1.2-12.4c1.8,0,3.4,0,5,0c7.9,0.1,13.7-5.6,14-12.5c0.1-2.1,0-4.2,0-6.5
			c0.7,0.2,1.2,0.3,1.6,0.5c8,2.7,16.1,5.4,24.1,8c1.1,0.4,1.6,0.9,2,2c3.1,8.3,13.8,11.2,20.7,5.6c3.8-3,5.1-7.1,5.1-11.7
			C146.5,111.5,146.5,86,146.5,60.5z M44.6,116c-3.4,0-5.2-1.7-5.2-5.2c0-8.4,0-16.9,0-25.3c0-3.4,1.7-5.1,5.1-5.1
			c6.8,0,13.6,0,20.4,0c0.3,0,0.7,0,1.2,0.1c0,11.9,0,23.7,0,35.6c-0.6,0-1.1,0-1.7,0C57.9,116,51.3,116,44.6,116z M62.8,169.3
			c-2,0.5-4.2-0.5-5-2.4c-0.3-0.8-0.4-1.8-0.5-2.7c-1.4-12.9-2.8-25.7-4.1-38.6c0-0.1,0-0.3,0-0.6c3.1,0,6.1,0,9.3,0
			c0.2,2.1,0.4,4.1,0.6,6.2c1,11.1,2.1,22.2,3.1,33.2C66.4,166.9,65.1,168.8,62.8,169.3z M84.1,138.1c-0.1,2.8-1.8,4.5-4.7,4.6
			c-2.1,0-4.1,0-6.3,0c-0.5-5.7-1.1-11.4-1.6-17.3c4.1,1.4,8.1,2.7,12,4c0.3,0.1,0.6,0.7,0.6,1.1C84.1,133.1,84.1,135.6,84.1,138.1z
			 M119.7,132c-0.5-0.1-0.9-0.2-1.3-0.3c-14-4.6-27.9-9.3-41.9-13.9c-1-0.3-1.3-0.8-1.3-1.9c0-11.8,0-23.6,0-35.4
			c0-1,0.2-1.5,1.2-1.8c14.1-4.6,28.1-9.3,42.2-14c0.3-0.1,0.7-0.2,1.1-0.3C119.7,87,119.7,109.4,119.7,132z M137.5,136.8
			c0,0.6,0,1.3-0.1,1.9c-0.2,2.1-1.9,3.8-4,3.9c-2.3,0.2-4.2-1.2-4.7-3.4c-0.1-0.6-0.2-1.3-0.2-1.9c0-26.1,0-52.3,0-78.4
			c0-2.9,1.1-4.6,3.4-5.2c2.6-0.7,5.2,1.1,5.4,3.8c0.1,0.6,0.1,1.3,0.1,1.9c0,12.9,0,25.7,0,38.6C137.5,111,137.5,123.9,137.5,136.8
			z"/>
	</g>
</g>
</svg>
