<?xml version="1.0" encoding="utf-8"?>
<!-- Generator: Adobe Illustrator 24.0.0, SVG Export Plug-In . SVG Version: 6.00 Build 0)  -->
<svg version="1.1" id="Capa_1" xmlns="http://www.w3.org/2000/svg" xmlns:xlink="http://www.w3.org/1999/xlink" x="0px" y="0px"
	 viewBox="0 0 200 200" style="enable-background:new 0 0 200 200;" xml:space="preserve">
<style type="text/css">
	.st0{fill:#ACAEAF;}
</style>
<g>
	<path class="st0" d="M49,176.3c-1.2-0.3-2.4-0.5-3.6-0.8c-11.2-2.9-19-12.9-19-24.4c0-33.8,0-67.6,0-101.4c0-3.2,2.1-5.6,5.1-5.6
		c3,0,5.2,2.3,5.2,5.6c0,12.2,0,24.3,0,36.5c0,21.4,0,42.8,0,64.2c0,7.2,3.9,12.9,10.4,15c1.7,0.5,3.5,0.8,5.2,0.8
		c31.8,0,63.6,0,95.4,0c9.1,0,15.7-6.6,15.7-15.7c0-33.6,0-67.2,0-100.8c0-9.2-6.6-15.7-15.8-15.7c-25,0-49.9,0-74.9,0
		c-9.3,0-15.8,6.6-15.8,15.8c0,33.4,0,66.7,0,100.1c0,3.4-2.2,5.7-5.3,5.6c-2.6-0.1-4.7-2.2-4.8-4.8c0-0.3,0-0.6,0-0.9
		c0-33.4,0-66.8,0-100.2c0-12.1,7.7-22.1,19.2-25c1.1-0.3,2.3-0.5,3.4-0.8c27.3,0,54.5,0,81.8,0c0.3,0.1,0.5,0.2,0.8,0.3
		c10.2,1.5,18.3,8.8,20.9,18.8c0.3,1.2,0.6,2.4,0.8,3.6c0,35.7,0,71.5,0,107.2c-0.1,0.3-0.2,0.5-0.3,0.8c-1.5,10.2-8.8,18.4-18.8,21
		c-1.2,0.3-2.4,0.6-3.6,0.8C117.2,176.3,83.1,176.3,49,176.3z"/>
	<path class="st0" d="M107.9,102.5c0,4.1,0,8.2,0,12.4c0,6-4.1,10.4-10,10.5c-6.9,0.2-13.8,0.2-20.7,0c-5.9-0.1-10-4.5-10-10.5
		c0-8.2,0-16.4,0-24.6c0-6.2,4.4-10.6,10.6-10.6c6.5,0,13.1,0,19.6,0c6.2,0,10.5,4.3,10.5,10.6C107.9,94.4,107.9,98.5,107.9,102.5z
		 M97.7,115.2c0-8.5,0-16.9,0-25.2c-6.8,0-13.6,0-20.3,0c0,8.5,0,16.8,0,25.2C84.2,115.2,90.9,115.2,97.7,115.2z"/>
	<path class="st0" d="M110.3,64.4c-12.7,0-25.5,0-38.2,0c-3.1,0-5.4-2.1-5.5-5.1c0-2.9,2.3-5.1,5.4-5.1c25.5,0,51,0,76.5,0
		c3.1,0,5.4,2.2,5.4,5.1c0,2.9-2.3,5-5.5,5C135.7,64.4,123,64.4,110.3,64.4z"/>
	<path class="st0" d="M110.8,135.7c12.6,0,25.2,0,37.7,0c3.1,0,5.4,2.2,5.4,5.1c0,2.9-2.4,5.1-5.5,5.1c-25.1,0-50.1,0-75.2,0
		c-3.3,0-5.6-2.1-5.6-5.1c0-2.9,2.1-5.1,5.1-5.1c4.6,0,9.2,0,13.8,0C94.6,135.7,102.7,135.7,110.8,135.7
		C110.8,135.7,110.8,135.7,110.8,135.7z"/>
	<path class="st0" d="M133.8,84.8c4.9,0,9.8,0,14.7,0c3.1,0,5.4,2.1,5.5,5c0,2.9-2.3,5.1-5.4,5.1c-9.9,0-19.8,0-29.7,0
		c-3.1,0-5.4-2.1-5.5-5c0-2.9,2.3-5.1,5.6-5.1C123.9,84.8,128.8,84.8,133.8,84.8z"/>
	<path class="st0" d="M133.5,120.3c-4.9,0-9.7,0-14.6,0c-3.3,0-5.6-2.1-5.5-5.1c0-3,2.3-5,5.6-5c9.9,0,19.7,0,29.6,0
		c3.1,0,5.4,2.2,5.4,5.1c0,2.9-2.3,5-5.3,5C143.6,120.3,138.5,120.3,133.5,120.3C133.5,120.3,133.5,120.3,133.5,120.3z"/>
</g>
</svg>
