<?xml version="1.0" encoding="utf-8"?>
<!-- Generator: Adobe Illustrator 24.0.0, SVG Export Plug-In . SVG Version: 6.00 Build 0)  -->
<svg version="1.1" id="Capa_1" xmlns="http://www.w3.org/2000/svg" xmlns:xlink="http://www.w3.org/1999/xlink" x="0px" y="0px"
	 viewBox="0 0 200 200" style="enable-background:new 0 0 200 200;" xml:space="preserve">
<style type="text/css">
	.st0{fill:#ACAEAF;}
</style>
<g>
	<path class="st0" d="M186,94.7c0,3.3,0,6.7,0,10c-0.1,0.6-0.2,1.2-0.3,1.8c-0.5,3.7-0.8,7.4-1.6,11.1c-4.5,20.6-15,37.5-31.8,50.2
		c-20.9,15.8-44.4,21-70,15.7c-20.5-4.3-37.2-15-49.9-31.6C18.6,134,12.9,113.6,15,91.2C16.8,73,23.8,57,35.9,43.3
		c13.3-15,29.8-24.4,49.6-27.9c3.2-0.6,6.5-0.9,9.7-1.3c3.3,0,6.7,0,10,0c0.4,0.1,0.9,0.2,1.3,0.3c13.4,0.9,26,4.8,37.4,11.8
		c22.2,13.6,35.9,33.2,40.7,58.9C185.3,88.2,185.6,91.5,186,94.7z M100.3,169.9c38.5,0,69.9-31.3,70.1-70
		c0.2-38.5-31.5-70.2-70.1-70.2c-38.5,0-69.9,31.3-70.1,70C30,138.1,61.6,169.8,100.3,169.9z"/>
	<path class="st0" d="M88.3,113.6c5.9-5.9,11.7-11.7,17.4-17.4c8.7-8.7,17.4-17.4,26.2-26.2c3.3-3.3,7.6-3.7,10.8-1.1
		c3.3,2.6,3.9,7.3,1.4,10.6c-0.5,0.7-1.1,1.3-1.7,1.9c-15.9,15.9-31.8,31.8-47.7,47.7c-4.4,4.4-8.6,4.4-12.9,0
		c-8.1-8.1-16.2-16.2-24.3-24.3c-3.8-3.8-3.7-8.9,0.1-12c2.8-2.3,6.7-2.4,9.6-0.1c1.2,0.9,2.2,2,3.3,3.1
		C76.5,101.7,82.3,107.6,88.3,113.6z"/>
</g>
</svg>
