<?xml version="1.0" encoding="utf-8"?>
<!-- Generator: Adobe Illustrator 24.0.0, SVG Export Plug-In . SVG Version: 6.00 Build 0)  -->
<svg version="1.1" id="Capa_1" xmlns="http://www.w3.org/2000/svg" xmlns:xlink="http://www.w3.org/1999/xlink" x="0px" y="0px"
	 viewBox="0 0 250 250" style="enable-background:new 0 0 250 250;" xml:space="preserve">
<style type="text/css">
	.st0{fill:#E9EFF4;}
</style>
<g id="CTAaQG.tif">
	<g>
		<path class="st0" d="M127,12.3c3.1,1.3,6.6,2.1,9.4,4c5.9,3.9,8.1,10,8.1,16.9c0,3.7,0.1,3.6,3.6,4.9c28.2,10.1,45.6,29.7,52,59
			c1.2,5.3,1.4,10.9,1.5,16.4c0.2,22.1,0.1,44.2,0,66.3c0,1.6,0.4,2.6,1.9,3.5c8.3,5.3,13,12.9,13.6,22.9c0.3,4.1-1.3,5.8-5.5,5.8
			c-18.1,0-36.1,0-54.2,0c-3,0-6,0-9.3,0c0.3,8.9-2.6,16.1-9.7,21.4c-4.2,3.1-8.9,4.7-14.2,4.5c-6.8-0.2-12.5-3-17-8
			c-4.5-5-6.2-11-5.8-17.9c-1.1,0-2,0-2.8,0c-20,0-40.1,0-60.1,0c-2.7,0-4.9-0.6-6.2-3.2c0-1.5,0-2.9,0-4.4c0.2-0.7,0.4-1.4,0.5-2.1
			c1.6-7.7,5.6-14,12.2-18.4c1.3-0.9,1.4-1.8,1.4-3.1c0-22.6,0-45.2,0-67.8c0-7.2,0.6-14.3,2.7-21.1C57.2,64.2,75,46,102.5,37.4
			c1.9-0.6,2.7-1.4,2.5-3.5c-0.3-5.3,1-10.2,4.4-14.4c3.4-4.2,8-6.3,13.2-7.3C124.1,12.3,125.5,12.3,127,12.3z M207.7,203.1
			c-1.7-6.1-5.2-10.7-10.8-13.3c-3.1-1.4-4.3-3.5-4.3-6.8c0.1-23.3,0-46.6,0.1-69.8c0-12.3-2.5-24-8.7-34.6
			c-11.1-19.3-27.7-31.1-49.9-34.6c-15.3-2.4-30,0-43.3,7.8c-23.4,13.6-35.4,34.3-35.6,61.4c-0.2,21.9,0,43.8,0,65.7
			c0,0.8,0,1.5,0,2.4c1.2,0,2.1,0,3,0c24.7,0,49.3,0,74,0c1,0,2.1,0,3,0.3c2.2,0.5,3.4,2.2,3.3,4.3c-0.1,2.1-1.5,3.7-3.7,4.1
			c-0.9,0.1-1.8,0.1-2.6,0.1c-26.1,0-52.1,0-78.2,0c-0.8,0-1.7-0.1-2.4,0.2c-5.1,2.8-8.4,7.1-10,12.9
			C97.1,203.1,152.3,203.1,207.7,203.1z M110.5,212.1c-0.9,5.9,1.7,11.8,6.5,14.7c5.1,3.1,11.5,3,16.2-0.4c4.8-3.5,6.5-8.4,6-14.3
			C129.5,212.1,120.1,212.1,110.5,212.1z M113.9,34c7.3,0,14.5,0,21.7,0c0.3-4.7-0.9-8.5-4.8-11c-3.8-2.5-7.9-2.6-11.8-0.2
			C114.8,25.3,113.4,29.2,113.9,34z"/>
		<path class="st0" d="M151.2,189.9c-2.3,0-4.4-1.9-4.4-4.3c0-2.3,1.9-4.4,4.3-4.5c2.3,0,4.4,2,4.4,4.3
			C155.6,187.8,153.6,189.9,151.2,189.9z"/>
	</g>
</g>
</svg>
