<?xml version="1.0" encoding="utf-8"?>
<!-- Generator: Adobe Illustrator 24.0.0, SVG Export Plug-In . SVG Version: 6.00 Build 0)  -->
<svg version="1.1" id="Capa_1" xmlns="http://www.w3.org/2000/svg" xmlns:xlink="http://www.w3.org/1999/xlink" x="0px" y="0px"
	 viewBox="0 0 479 146" style="enable-background:new 0 0 479 146;" xml:space="preserve">
<style type="text/css">
	.st0{fill:#1C3247;}
	.st1{fill:url(#SVGID_1_);}
	.st2{fill:url(#SVGID_2_);}
	.st3{fill:#808080;}
</style>
<path class="st0" d="M41.7,71.3c-19.9,0-27.5-9-22.6-27.1c4.7-17.8,17.1-26.7,37-26.7h38.9l-6.4,23.9H49.7c-4,0-6.2,0.9-6.7,2.8
	c-0.6,2.2,1.1,3.2,5.1,3.2H66c19.9,0,27.5,8.9,22.8,26.7c-4.9,18.1-17.3,27.1-37.2,27.1H12.7l6.4-23.9H58c4,0,6.3-1.1,6.9-3.2
	c0.5-1.8-1.3-2.7-5.3-2.7H41.7z"/>
<path class="st0" d="M109.5,89.2l-7.5,12H78.1l52.3-83.7h29.9l7.5,83.7h-23.9l-1.1-12H109.5z M138.7,42.6l-14.2,22.7h16.2
	L138.7,42.6z"/>
<g>
	<linearGradient id="SVGID_1_" gradientUnits="userSpaceOnUse" x1="234.9326" y1="70.6552" x2="490.1957" y2="268.0236">
		<stop  offset="0" style="stop-color:#FE9900"/>
		<stop  offset="1" style="stop-color:#FC4600"/>
	</linearGradient>
	<path class="st1" d="M223.6,53.3l-6.4,23.9h-9c-4.9,0-8.7-1.8-11.3-5.3c-2.6-3.5-3.2-7.7-1.8-12.7c1.3-4.9,4.2-9.2,8.6-12.7
		c4.4-3.5,9.1-5.3,14.1-5.3h26.9l6.4-23.9h-26.9c-11.6,0-22.5,4.1-32.9,12.3c-10.4,8.2-17.1,18-20.1,29.6
		c-3.1,11.6-1.7,21.4,4.3,29.6c6,8.2,14.7,12.3,26.3,12.3h32.9l12.8-47.8H223.6z"/>
	<linearGradient id="SVGID_2_" gradientUnits="userSpaceOnUse" x1="284.59" y1="6.4315" x2="539.8532" y2="203.7999">
		<stop  offset="0" style="stop-color:#FE9900"/>
		<stop  offset="1" style="stop-color:#FC4600"/>
	</linearGradient>
	<path class="st2" d="M411.5,17.5h-12.3h-44.4c-19.9,0-32.3,8.9-37,26.7c-4.9,18.1,2.7,27.1,22.6,27.1h17.9c4,0,5.7,0.9,5.3,2.7
		c-0.6,2.2-2.9,3.2-6.9,3.2h-49.6h-7.1h-28.8l1.6-6h29.9l6.4-23.9h-29.9l1.6-6h35.9l6.4-23.9h-59.8L241,101.2h52.7h7.1h49.6
		c19.9,0,32.3-9,37.2-27.1c4.7-17.8-2.8-26.7-22.8-26.7h-17.9c-4,0-5.7-1.1-5.1-3.2c0.5-1.8,2.7-2.8,6.7-2.8h44.4h12.3h8.6l-16,59.8
		h23.9l16-59.8h20.9l6.4-23.9H411.5z"/>
</g>
<g>
	<path class="st3" d="M100.4,131.2c-0.9,1.1-2.1,2-3.7,2.6c-1.6,0.6-3.4,0.9-5.3,0.8c-1.6,0-2.9-0.4-4.1-1.1c-1.2-0.7-2.1-1.7-2.8-3
		c-0.7-1.3-1.1-2.8-1.2-4.5c-0.1-1.3,0.1-3,0.4-5c0.3-2,1-3.8,1.9-5.4c0.9-1.6,2-2.8,3.3-3.7c1.7-1.2,3.7-1.8,6-1.7
		c2.4,0,4.2,0.7,5.6,2.1c1.3,1.3,2.1,3.2,2.3,5.6l-3.9,0c-0.2-2.8-1.6-4.2-4.1-4.3c-1.8-0.1-3.4,0.6-4.6,1.9c-1.2,1.4-2,3.3-2.4,5.9
		c-0.3,1.5-0.4,2.7-0.4,3.6c-0.1,1.9,0.3,3.5,1.1,4.6c0.8,1.1,1.9,1.7,3.4,1.7c1.9,0,3.5-0.4,4.7-1.4l0.9-4.6h-4.8l0.6-3.1h8.7
		L100.4,131.2z"/>
	<path class="st3" d="M111.8,134.6c-1.5,0-2.9-0.4-4-1.2c-1.1-0.7-2-1.8-2.5-3c-0.5-1.3-0.7-2.7-0.6-4.3l0-0.7
		c0.2-1.8,0.7-3.4,1.6-4.8c0.9-1.4,1.9-2.5,3.2-3.3c1.3-0.7,2.7-1.1,4.1-1.1c2.2,0,3.9,0.9,5,2.5c1.1,1.6,1.5,3.7,1.2,6.3l-0.2,1.7
		h-11.1c-0.1,1.4,0.2,2.5,0.8,3.4c0.7,0.9,1.6,1.3,2.7,1.3c1.7,0.1,3.2-0.7,4.6-2.2l2,2.1c-0.7,1.1-1.7,1.9-2.9,2.5
		S113.2,134.6,111.8,134.6z M113.4,119.5c-2-0.1-3.6,1.4-4.6,4.3l7.3,0l0.1-0.3c0.1-0.5,0.1-1,0-1.5c-0.1-0.8-0.4-1.4-0.9-1.8
		C114.8,119.7,114.2,119.5,113.4,119.5z"/>
	<path class="st3" d="M131.9,129.4c0.2-1.1-0.5-1.8-2.1-2.2c-1.6-0.4-2.7-0.8-3.2-1c-2.2-1-3.3-2.4-3.2-4.4c0.1-1.6,0.8-2.9,2.2-3.9
		c1.4-1,3-1.5,5-1.5c1.9,0,3.4,0.5,4.6,1.6c1.2,1,1.8,2.4,1.7,4.1l-3.8,0c0-0.8-0.2-1.5-0.7-1.9c-0.5-0.5-1.1-0.7-1.9-0.7
		c-0.9,0-1.6,0.2-2.2,0.6c-0.6,0.4-1,1-1.1,1.7c-0.2,1,0.5,1.7,2.1,2.1c1.5,0.4,2.7,0.7,3.4,1.1c2.2,0.9,3.2,2.4,3.1,4.4
		c-0.1,1.1-0.4,2.1-1.1,2.9c-0.7,0.8-1.6,1.5-2.7,1.9c-1.1,0.4-2.4,0.6-3.6,0.6c-1.9,0-3.5-0.6-4.8-1.7c-1.3-1.1-1.9-2.5-1.9-4.2
		l3.7,0c0,0.9,0.3,1.7,0.8,2.2c0.5,0.5,1.3,0.7,2.2,0.8c1,0,1.8-0.2,2.4-0.6C131.4,130.6,131.8,130.1,131.9,129.4z"/>
	<path class="st3" d="M146.9,112.3l-0.8,4.3h3l-0.5,2.9h-3l-1.7,9.9c0,0.3,0,0.5,0,0.7c0.1,0.7,0.5,1.1,1.3,1.1c0.4,0,0.9,0,1.4-0.1
		l-0.3,3.1c-0.8,0.2-1.6,0.3-2.4,0.3c-1.3,0-2.4-0.5-3-1.4c-0.7-0.9-0.9-2.1-0.8-3.6l1.6-10.1h-2.8l0.5-2.9h2.8l0.8-4.3H146.9z"/>
	<path class="st3" d="M153.3,134.3h-3.9l3.1-17.7h3.9L153.3,134.3z M153.1,112.1c0-0.6,0.2-1.1,0.6-1.5c0.4-0.4,0.9-0.6,1.6-0.7
		c0.6,0,1.2,0.2,1.6,0.6c0.4,0.4,0.6,0.9,0.6,1.5c0,0.6-0.2,1.1-0.6,1.5c-0.4,0.4-0.9,0.6-1.6,0.6c-0.6,0-1.1-0.2-1.6-0.6
		C153.3,113.2,153.1,112.7,153.1,112.1z"/>
	<path class="st3" d="M158.6,125.4c0.2-1.7,0.7-3.3,1.5-4.7c0.8-1.4,1.9-2.5,3.2-3.3c1.3-0.8,2.8-1.1,4.3-1.1c1.5,0,2.8,0.4,3.9,1.2
		c1.1,0.8,1.9,1.9,2.4,3.2s0.7,2.9,0.5,4.5c-0.2,1.9-0.7,3.5-1.5,5c-0.8,1.4-1.9,2.5-3.2,3.3c-1.3,0.8-2.8,1.1-4.4,1.1
		c-1.5,0-2.8-0.4-3.9-1.2c-1.1-0.8-1.9-1.8-2.4-3.2c-0.5-1.4-0.7-2.8-0.6-4.5L158.6,125.4z M162.4,127.6c0.1,1.1,0.4,2.1,0.9,2.8
		c0.5,0.7,1.3,1.1,2.3,1.1c1.3,0,2.4-0.5,3.3-1.5c0.9-1.1,1.5-2.5,1.7-4.3l0.1-1.6c0-1.4-0.3-2.5-0.8-3.3c-0.6-0.8-1.4-1.2-2.4-1.3
		c-1.7,0-3,0.8-3.9,2.4c-0.6,1-0.9,2.2-1.1,3.5C162.3,126.3,162.3,127,162.4,127.6z M169.9,109.2h4.7l-5.2,4.9l-3.4,0L169.9,109.2z"
		/>
	<path class="st3" d="M182.9,116.6l-0.4,2.1c1.5-1.6,3.3-2.4,5.2-2.4c1.7,0,2.9,0.6,3.7,1.8s1.1,2.7,0.9,4.8l-1.9,11.4h-3.9
		l1.9-11.5c0.1-0.5,0.1-0.9,0-1.3c-0.1-1.3-0.9-2-2.3-2c-1.5,0-2.8,0.7-3.9,2.2l-2.2,12.6h-3.9l3.1-17.7L182.9,116.6z"/>
	<path class="st3" d="M217,128.7h-8.9l-2.8,5.5h-4.3l12.8-23.8h3.6l4.6,23.8h-4L217,128.7z M209.8,125.4h6.7l-1.6-9.8L209.8,125.4z"
		/>
	<path class="st3" d="M225.3,125.4c0.2-1.8,0.7-3.4,1.5-4.9c0.8-1.4,1.7-2.5,2.8-3.2c1.1-0.7,2.4-1.1,3.7-1c1.8,0,3.2,0.7,4.2,2
		l1.7-9.1h3.9l-4.4,25.1h-3.5l0.3-1.8c-1.4,1.5-3,2.2-4.8,2.2c-1.6,0-3-0.7-3.9-1.9c-1-1.2-1.5-2.9-1.6-5c0-0.7,0-1.3,0-2
		L225.3,125.4z M229,126.9c-0.1,1.3,0.1,2.4,0.6,3.2s1.2,1.2,2.2,1.2c1.5,0,2.8-0.7,3.9-2.2l1.3-7.6c-0.5-1.4-1.5-2.1-3-2.1
		c-1.5,0-2.7,0.6-3.6,2S229.1,124.6,229,126.9z"/>
	<path class="st3" d="M249.6,116.6l-0.3,1.9c1.5-1.5,3.2-2.2,5.2-2.2c1.1,0,2,0.3,2.8,0.8c0.7,0.5,1.2,1.1,1.5,1.9
		c1.6-1.8,3.5-2.8,5.6-2.7c1.7,0,3,0.6,3.8,1.8c0.8,1.1,1.1,2.7,0.9,4.8l-1.9,11.4h-3.9l1.9-11.5c0.1-0.5,0.1-0.9,0-1.3
		c-0.2-1.3-1-1.9-2.4-2c-1.6,0-2.9,0.8-3.8,2.6l0,0.4l-2,11.8h-3.9l1.9-11.4c0.1-0.5,0.1-0.9,0-1.3c-0.2-1.3-1-2-2.4-2
		c-1.4,0-2.7,0.6-3.6,1.9l-2.2,12.8h-3.9l3.1-17.7L249.6,116.6z"/>
	<path class="st3" d="M275.4,134.3h-3.9l3.1-17.7h3.9L275.4,134.3z M275.2,112.1c0-0.6,0.2-1.1,0.6-1.5c0.4-0.4,0.9-0.6,1.6-0.7
		c0.6,0,1.2,0.2,1.6,0.6c0.4,0.4,0.6,0.9,0.6,1.5c0,0.6-0.2,1.1-0.6,1.5c-0.4,0.4-0.9,0.6-1.6,0.6c-0.6,0-1.1-0.2-1.6-0.6
		C275.4,113.2,275.2,112.7,275.2,112.1z"/>
	<path class="st3" d="M286.4,116.6l-0.4,2.1c1.5-1.6,3.3-2.4,5.2-2.4c1.7,0,2.9,0.6,3.7,1.8c0.8,1.1,1.1,2.7,0.9,4.8l-1.9,11.4H290
		l1.9-11.5c0.1-0.5,0.1-0.9,0-1.3c-0.1-1.3-0.9-2-2.3-2c-1.5,0-2.8,0.7-3.9,2.2l-2.2,12.6h-3.9l3.1-17.7L286.4,116.6z"/>
	<path class="st3" d="M302,134.3h-3.9l3.1-17.7h3.9L302,134.3z M301.8,112.1c0-0.6,0.2-1.1,0.6-1.5c0.4-0.4,0.9-0.6,1.6-0.7
		c0.6,0,1.2,0.2,1.6,0.6c0.4,0.4,0.6,0.9,0.6,1.5c0,0.6-0.2,1.1-0.6,1.5c-0.4,0.4-0.9,0.6-1.6,0.6c-0.6,0-1.1-0.2-1.6-0.6
		C302,113.2,301.8,112.7,301.8,112.1z"/>
	<path class="st3" d="M316.9,129.4c0.2-1.1-0.5-1.8-2.1-2.2c-1.6-0.4-2.7-0.8-3.2-1c-2.2-1-3.3-2.4-3.2-4.4c0.1-1.6,0.8-2.9,2.2-3.9
		c1.4-1,3-1.5,5-1.5c1.9,0,3.4,0.5,4.6,1.6c1.2,1,1.8,2.4,1.7,4.1l-3.8,0c0-0.8-0.2-1.5-0.7-1.9c-0.5-0.5-1.1-0.7-1.9-0.7
		c-0.9,0-1.6,0.2-2.2,0.6c-0.6,0.4-1,1-1.1,1.7c-0.2,1,0.5,1.7,2.1,2.1c1.5,0.4,2.7,0.7,3.4,1.1c2.2,0.9,3.2,2.4,3.1,4.4
		c-0.1,1.1-0.4,2.1-1.1,2.9c-0.7,0.8-1.6,1.5-2.7,1.9s-2.4,0.6-3.6,0.6c-1.9,0-3.5-0.6-4.8-1.7c-1.3-1.1-1.9-2.5-1.9-4.2l3.7,0
		c0,0.9,0.3,1.7,0.8,2.2c0.5,0.5,1.3,0.7,2.2,0.8c1,0,1.8-0.2,2.4-0.6C316.4,130.6,316.8,130.1,316.9,129.4z"/>
	<path class="st3" d="M331.9,112.3l-0.8,4.3h3l-0.5,2.9h-3l-1.7,9.9c0,0.3,0,0.5,0,0.7c0.1,0.7,0.5,1.1,1.3,1.1c0.4,0,0.9,0,1.4-0.1
		l-0.3,3.1c-0.8,0.2-1.6,0.3-2.4,0.3c-1.3,0-2.4-0.5-3-1.4c-0.7-0.9-0.9-2.1-0.8-3.6l1.6-10.1H324l0.5-2.9h2.8l0.8-4.3H331.9z"/>
	<path class="st3" d="M345.8,120.2c-0.5-0.1-1-0.2-1.5-0.2c-1.7,0-3,0.7-4,2.1l-2.1,12.1h-3.9l3.1-17.7l3.7,0l-0.4,2
		c1.2-1.6,2.6-2.4,4.2-2.4c0.4,0,0.9,0.1,1.5,0.2L345.8,120.2z"/>
	<path class="st3" d="M355.8,134.3c-0.1-0.4-0.2-1-0.2-1.6c-1.5,1.4-3,2-4.7,2c-1.5,0-2.8-0.5-3.8-1.5c-1-1-1.5-2.2-1.4-3.7
		c0.1-1.9,0.9-3.3,2.4-4.4c1.5-1.1,3.6-1.6,6.1-1.6l2.5,0l0.2-1.2c0.1-0.4,0.1-0.8,0-1.2c-0.2-1.2-1-1.8-2.3-1.8
		c-0.8,0-1.6,0.2-2.2,0.6c-0.6,0.4-1,1-1.2,1.8l-3.9,0c0.1-1.1,0.5-2,1.2-2.9s1.6-1.5,2.8-1.9c1.2-0.5,2.4-0.7,3.7-0.7
		c1.9,0,3.4,0.6,4.5,1.7c1.1,1.1,1.5,2.6,1.3,4.3l-1.4,8.3l-0.1,1.5c0,0.6,0,1.3,0.2,1.9l0,0.3H355.8z M351.8,131.4
		c0.8,0,1.6-0.2,2.3-0.6c0.7-0.4,1.3-0.9,1.8-1.5l0.6-3.3l-1.8,0c-1.5,0-2.6,0.3-3.5,0.8c-0.9,0.5-1.4,1.3-1.5,2.3
		c-0.1,0.7,0.1,1.3,0.5,1.7C350.5,131.2,351.1,131.4,351.8,131.4z"/>
	<path class="st3" d="M371.7,112.3l-0.8,4.3h3l-0.5,2.9h-3l-1.7,9.9c0,0.3,0,0.5,0,0.7c0.1,0.7,0.5,1.1,1.3,1.1c0.4,0,0.9,0,1.4-0.1
		l-0.3,3.1c-0.8,0.2-1.6,0.3-2.4,0.3c-1.3,0-2.4-0.5-3-1.4c-0.7-0.9-0.9-2.1-0.8-3.6l1.6-10.1h-2.8l0.5-2.9h2.8l0.8-4.3H371.7z"/>
	<path class="st3" d="M378.1,134.3h-3.9l3.1-17.7h3.9L378.1,134.3z M377.8,112.1c0-0.6,0.2-1.1,0.6-1.5c0.4-0.4,0.9-0.6,1.6-0.7
		c0.6,0,1.2,0.2,1.6,0.6c0.4,0.4,0.6,0.9,0.6,1.5c0,0.6-0.2,1.1-0.6,1.5c-0.4,0.4-0.9,0.6-1.6,0.6c-0.6,0-1.1-0.2-1.6-0.6
		C378,113.2,377.8,112.7,377.8,112.1z"/>
	<path class="st3" d="M389.3,129.2l5.6-12.6h4.1l-8.7,17.7H387l-3.2-17.7h3.9L389.3,129.2z"/>
	<path class="st3" d="M408.8,134.3c-0.1-0.4-0.2-1-0.2-1.6c-1.5,1.4-3,2-4.7,2c-1.5,0-2.8-0.5-3.8-1.5c-1-1-1.5-2.2-1.4-3.7
		c0.1-1.9,0.9-3.3,2.4-4.4c1.5-1.1,3.6-1.6,6.1-1.6l2.5,0l0.2-1.2c0.1-0.4,0.1-0.8,0-1.2c-0.2-1.2-1-1.8-2.3-1.8
		c-0.8,0-1.6,0.2-2.2,0.6c-0.6,0.4-1,1-1.2,1.8l-3.9,0c0.1-1.1,0.5-2,1.2-2.9c0.7-0.8,1.6-1.5,2.8-1.9c1.2-0.5,2.4-0.7,3.7-0.7
		c1.9,0,3.4,0.6,4.5,1.7c1.1,1.1,1.5,2.6,1.3,4.3l-1.4,8.3l-0.1,1.5c0,0.6,0,1.3,0.2,1.9l0,0.3H408.8z M404.9,131.4
		c0.8,0,1.6-0.2,2.3-0.6c0.7-0.4,1.3-0.9,1.8-1.5l0.6-3.3l-1.8,0c-1.5,0-2.6,0.3-3.5,0.8c-0.9,0.5-1.4,1.3-1.5,2.3
		c-0.1,0.7,0.1,1.3,0.5,1.7C403.6,131.2,404.1,131.4,404.9,131.4z"/>
</g>
</svg>
