<?xml version="1.0" encoding="utf-8"?>
<!-- Generator: Adobe Illustrator 24.0.0, SVG Export Plug-In . SVG Version: 6.00 Build 0)  -->
<svg version="1.1" id="Capa_1" xmlns="http://www.w3.org/2000/svg" xmlns:xlink="http://www.w3.org/1999/xlink" x="0px" y="0px"
	 viewBox="0 0 233 101" style="enable-background:new 0 0 233 101;" xml:space="preserve">
<style type="text/css">
	.st0{fill:#FE9900;}
	.st1{fill:#FFFFFF;}
	.st2{fill:#1C3247;}
</style>
<g>
	<path class="st0" d="M200.6,90.7h-60.9c-6.2,0-11.1-5-11.1-11.1v-61c0-6.2,5-11.1,11.1-11.1h60.9c6.2,0,11.1,5,11.1,11.1v60.9
		C211.7,85.7,206.7,90.7,200.6,90.7z"/>
	<path class="st1" d="M38.9,55.9c0-1.4-0.7-2.6-2.2-3.4c-1.5-0.9-4.3-1.8-8.5-2.7s-7.6-2.1-10.3-3.6s-4.8-3.3-6.2-5.5
		c-1.4-2.1-2.1-4.6-2.1-7.4c0-4.9,2-9,6.1-12.2s9.4-4.8,16-4.8c7.1,0,12.8,1.6,17,4.8c4.3,3.2,6.4,7.4,6.4,12.6H38.3
		c0-4.3-2.3-6.4-6.8-6.4c-1.8,0-3.2,0.5-4.4,1.5c-1.2,1-1.8,2.2-1.8,3.6c0,1.5,0.7,2.7,2.2,3.6c1.5,0.9,3.8,1.7,7,2.3s6,1.3,8.4,2.1
		C51,43.3,55,48.3,55,55.4c0,4.9-2.2,8.9-6.5,11.9c-4.3,3.1-10,4.6-16.9,4.6c-4.6,0-8.7-0.8-12.3-2.5s-6.4-3.9-8.4-6.7s-3-5.8-3-9
		h15.6c0.1,2.5,0.9,4.3,2.5,5.4c1.6,1.1,3.6,1.7,6.1,1.7c2.3,0,4-0.5,5.1-1.4C38.3,58.6,38.9,57.4,38.9,55.9z"/>
	<path class="st2" d="M178.1,75.9c-0.6-1.1-1.1-2.7-1.6-4.8c-3.1,3.9-7.4,5.8-12.9,5.8c-5.1,0-9.4-1.5-12.9-4.6s-5.3-6.9-5.3-11.5
		c0-5.8,2.1-10.2,6.4-13.2c4.3-3,10.5-4.5,18.7-4.5h5.2v-2.8c0-4.9-2.1-7.4-6.4-7.4c-4,0-5.9,2-5.9,5.9h-16.7
		c0-5.2,2.2-9.4,6.6-12.6c4.4-3.2,10-4.9,16.9-4.9c6.8,0,12.2,1.7,16.2,5s6,7.9,6.1,13.7v23.7c0.1,4.9,0.8,8.7,2.3,11.3v0.8
		L178.1,75.9L178.1,75.9z M167.6,64.9c2.1,0,3.8-0.4,5.2-1.3c1.4-0.9,2.4-1.9,2.9-3V52h-4.9c-5.8,0-8.7,2.6-8.7,7.8
		c0,1.5,0.5,2.8,1.5,3.7C164.7,64.5,166,64.9,167.6,64.9z"/>
	<g>
		<path class="st1" d="M104.7,17.4l-0.5,3.7c-0.8-0.5-1.6-0.9-2.5-1.3c-3.5-1.6-7.4-2.6-11.6-2.6c-3.2,0-6.2,0.6-9.1,1.6
			c-10.6,3.7-18.3,13.9-18.3,25.8c0,14.7,11.5,26.6,26,27.3c0.7,0.1,1.4,0.1,2.1,0.1c1.5,0,2.9-0.2,4.3-0.5c2.8-0.5,5.4-1.5,7.8-2.7
			c-0.1,7.4-3.8,11.1-11.1,11.1c-5.1,0-9.2-1.8-12.3-5.5l-7,9.8c1.9,2.4,4.8,4.3,8.4,5.8c3.7,1.5,7.5,2.2,11.4,2.2
			c5.5,0,10.3-0.9,14.5-2.8s7.3-4.5,9.5-8s3.3-7.6,3.3-12.3V17.4H104.7z M90.1,57.4c-7.5,0-13.6-6.1-13.6-13.6s6.1-13.6,13.6-13.6
			s13.6,6.1,13.6,13.6S97.6,57.4,90.1,57.4z"/>
	</g>
	<circle class="st1" cx="207.4" cy="67.1" r="9.5"/>
</g>
</svg>
