<?xml version="1.0" encoding="utf-8"?>
<!-- Generator: Adobe Illustrator 24.0.0, SVG Export Plug-In . SVG Version: 6.00 Build 0)  -->
<svg version="1.1" id="Capa_1" xmlns="http://www.w3.org/2000/svg" xmlns:xlink="http://www.w3.org/1999/xlink" x="0px" y="0px"
	 viewBox="0 0 482 129" style="enable-background:new 0 0 482 129;" xml:space="preserve">
<style type="text/css">
	.st0{fill:#1C3247;}
	.st1{fill:#FE9900;}
	.st2{fill:#FFFFFF;}
</style>
<g>
	<path class="st0" d="M219.6,108.1h-66.4c-6.2,0-11.1-5-11.1-11.1V30.5c0-6.2,5-11.1,11.1-11.1h66.4c6.2,0,11.1,5,11.1,11.1v66.4
		C230.7,103.1,225.8,108.1,219.6,108.1z"/>
	<g>
		<path class="st0" d="M258.6,50.3c-2-0.6-3.4-1.3-4.3-2.1s-1.4-1.9-1.4-3.1c0-1.4,0.6-2.5,1.7-3.4c1.1-0.9,2.5-1.4,4.3-1.4
			c1.2,0,2.3,0.2,3.2,0.7s1.7,1.1,2.2,1.9c0.5,0.8,0.8,1.7,0.8,2.7h-2.3c0-1.1-0.3-1.9-1-2.5c-0.7-0.6-1.6-0.9-2.9-0.9
			c-1.1,0-2,0.3-2.7,0.8c-0.6,0.5-1,1.2-1,2.1c0,0.7,0.3,1.3,0.9,1.8c0.6,0.5,1.6,1,3.1,1.4c1.5,0.4,2.6,0.9,3.4,1.4
			c0.8,0.5,1.4,1.1,1.8,1.7s0.6,1.4,0.6,2.3c0,1.4-0.6,2.6-1.7,3.4c-1.1,0.9-2.6,1.3-4.5,1.3c-1.2,0-2.3-0.2-3.4-0.7
			c-1-0.5-1.9-1.1-2.4-1.9c-0.6-0.8-0.9-1.7-0.9-2.7h2.3c0,1.1,0.4,1.9,1.2,2.5c0.8,0.6,1.8,0.9,3.1,0.9c1.2,0,2.2-0.2,2.8-0.7
			c0.7-0.5,1-1.2,1-2s-0.3-1.5-0.9-2C261.3,51.2,260.2,50.8,258.6,50.3z"/>
		<path class="st0" d="M267.7,41.6c0-0.4,0.1-0.7,0.3-0.9c0.2-0.2,0.5-0.4,1-0.4c0.4,0,0.8,0.1,1,0.4c0.2,0.2,0.3,0.6,0.3,0.9
			c0,0.4-0.1,0.7-0.3,0.9c-0.2,0.2-0.6,0.4-1,0.4c-0.4,0-0.8-0.1-1-0.4C267.9,42.3,267.7,42,267.7,41.6z M270.2,58.2h-2.2V45.1h2.2
			V58.2z"/>
		<path class="st0" d="M281.4,54.7c0-0.6-0.2-1.1-0.7-1.4s-1.2-0.6-2.4-0.9c-1.1-0.2-2-0.5-2.7-0.9c-0.7-0.3-1.2-0.7-1.5-1.2
			c-0.3-0.5-0.5-1-0.5-1.7c0-1.1,0.5-2,1.4-2.7c0.9-0.7,2.1-1.1,3.5-1.1c1.5,0,2.7,0.4,3.6,1.1c0.9,0.8,1.4,1.7,1.4,2.9h-2.2
			c0-0.6-0.3-1.1-0.8-1.6c-0.5-0.4-1.2-0.7-2-0.7c-0.8,0-1.5,0.2-1.9,0.5s-0.7,0.8-0.7,1.4c0,0.5,0.2,0.9,0.6,1.2
			c0.4,0.3,1.2,0.5,2.3,0.8c1.1,0.2,2,0.5,2.7,0.9c0.7,0.3,1.2,0.8,1.5,1.3c0.3,0.5,0.5,1.1,0.5,1.8c0,1.2-0.5,2.1-1.4,2.8
			c-0.9,0.7-2.1,1.1-3.6,1.1c-1,0-2-0.2-2.8-0.6c-0.8-0.4-1.4-0.9-1.9-1.6c-0.5-0.7-0.7-1.4-0.7-2.2h2.2c0,0.7,0.3,1.3,0.9,1.8
			c0.6,0.4,1.3,0.7,2.2,0.7c0.8,0,1.5-0.2,2-0.5C281.1,55.7,281.4,55.3,281.4,54.7z"/>
		<path class="st0" d="M289.5,41.9v3.2h2.4v1.7h-2.4v8.1c0,0.5,0.1,0.9,0.3,1.2c0.2,0.3,0.6,0.4,1.1,0.4c0.3,0,0.6,0,1.1-0.1v1.8
			c-0.6,0.2-1.2,0.2-1.7,0.2c-1,0-1.8-0.3-2.3-0.9c-0.5-0.6-0.8-1.5-0.8-2.6v-8.1h-2.4v-1.7h2.4v-3.2H289.5z"/>
		<path class="st0" d="M300,58.4c-1.8,0-3.2-0.6-4.3-1.7c-1.1-1.2-1.7-2.7-1.7-4.7v-0.4c0-1.3,0.2-2.5,0.7-3.5s1.2-1.8,2.1-2.4
			c0.9-0.6,1.9-0.9,2.9-0.9c1.7,0,3,0.6,4,1.7c0.9,1.1,1.4,2.7,1.4,4.8v0.9h-8.9c0,1.3,0.4,2.3,1.1,3.1c0.7,0.8,1.6,1.2,2.8,1.2
			c0.8,0,1.5-0.2,2-0.5c0.5-0.3,1-0.7,1.4-1.3l1.4,1.1C303.9,57.6,302.2,58.4,300,58.4z M299.7,46.7c-0.9,0-1.7,0.3-2.3,1
			c-0.6,0.7-1,1.6-1.1,2.8h6.6v-0.2c-0.1-1.1-0.4-2-0.9-2.6C301.4,47,300.7,46.7,299.7,46.7z"/>
		<path class="st0" d="M309.8,45.1l0.1,1.5c1-1.1,2.3-1.7,3.9-1.7c1.8,0,3.1,0.7,3.7,2.1c0.4-0.6,1-1.1,1.7-1.5
			c0.7-0.4,1.5-0.6,2.5-0.6c2.9,0,4.3,1.5,4.4,4.6v8.8h-2.2v-8.6c0-0.9-0.2-1.6-0.6-2.1c-0.4-0.5-1.1-0.7-2.2-0.7
			c-0.8,0-1.5,0.2-2.1,0.7c-0.5,0.5-0.9,1.2-1,2v8.7h-2.2v-8.6c0-1.9-0.9-2.9-2.8-2.9c-1.5,0-2.5,0.6-3,1.9v9.6h-2.2V45.1H309.8z"/>
		<path class="st0" d="M337.5,58.2c-0.1-0.3-0.2-0.7-0.3-1.4c-1,1.1-2.3,1.6-3.7,1.6c-1.3,0-2.3-0.4-3.2-1.1
			c-0.8-0.7-1.2-1.7-1.2-2.8c0-1.4,0.5-2.4,1.6-3.2s2.5-1.1,4.4-1.1h2.2v-1c0-0.8-0.2-1.4-0.7-1.9c-0.5-0.5-1.2-0.7-2.1-0.7
			c-0.8,0-1.5,0.2-2,0.6c-0.5,0.4-0.8,0.9-0.8,1.5h-2.2c0-0.7,0.2-1.3,0.7-1.9c0.5-0.6,1.1-1.1,1.9-1.4c0.8-0.4,1.7-0.5,2.6-0.5
			c1.5,0,2.7,0.4,3.5,1.1c0.9,0.8,1.3,1.8,1.3,3.1v6c0,1.2,0.2,2.2,0.5,2.9v0.2H337.5z M333.8,56.5c0.7,0,1.4-0.2,2-0.5
			c0.6-0.4,1.1-0.8,1.4-1.4v-2.7h-1.8c-2.7,0-4.1,0.8-4.1,2.4c0,0.7,0.2,1.2,0.7,1.6C332.4,56.3,333,56.5,333.8,56.5z"/>
		<path class="st0" d="M348.5,51.5c0-2,0.5-3.6,1.4-4.8c1-1.2,2.2-1.8,3.7-1.8c1.5,0,2.7,0.5,3.6,1.6v-6.8h2.2v18.6h-2.1l-0.1-1.4
			c-0.9,1.1-2.1,1.6-3.7,1.6c-1.5,0-2.7-0.6-3.7-1.9c-1-1.2-1.4-2.9-1.4-4.9V51.5z M350.7,51.8c0,1.5,0.3,2.6,0.9,3.5
			c0.6,0.8,1.5,1.3,2.5,1.3c1.4,0,2.5-0.6,3.1-1.9v-6c-0.7-1.2-1.7-1.8-3.1-1.8c-1.1,0-2,0.4-2.6,1.3
			C351,48.9,350.7,50.1,350.7,51.8z"/>
		<path class="st0" d="M368.4,58.4c-1.8,0-3.2-0.6-4.3-1.7c-1.1-1.2-1.7-2.7-1.7-4.7v-0.4c0-1.3,0.2-2.5,0.7-3.5s1.2-1.8,2.1-2.4
			c0.9-0.6,1.9-0.9,2.9-0.9c1.7,0,3,0.6,4,1.7c0.9,1.1,1.4,2.7,1.4,4.8v0.9h-8.9c0,1.3,0.4,2.3,1.1,3.1c0.7,0.8,1.6,1.2,2.8,1.2
			c0.8,0,1.5-0.2,2-0.5c0.5-0.3,1-0.7,1.4-1.3l1.4,1.1C372.2,57.6,370.6,58.4,368.4,58.4z M368.1,46.7c-0.9,0-1.7,0.3-2.3,1
			c-0.6,0.7-1,1.6-1.1,2.8h6.6v-0.2c-0.1-1.1-0.4-2-0.9-2.6C369.8,47,369,46.7,368.1,46.7z"/>
		<path class="st0" d="M396.3,56c-0.7,0.7-1.6,1.3-2.9,1.8c-1.3,0.4-2.6,0.7-4.1,0.7c-2.3,0-4.1-0.7-5.5-2.1
			c-1.4-1.4-2.1-3.4-2.2-5.9l0-1.5c0-1.7,0.3-3.2,0.9-4.5c0.6-1.3,1.5-2.3,2.6-3c1.1-0.7,2.5-1,4-1c2.2,0,3.9,0.5,5.1,1.5
			c1.2,1,1.9,2.5,2.1,4.5h-4.1c-0.1-1-0.5-1.7-0.9-2.1c-0.5-0.4-1.2-0.6-2.1-0.6c-1.1,0-1.9,0.5-2.5,1.4c-0.6,0.9-0.9,2.2-0.9,3.9
			v1.1c0,1.8,0.3,3.1,0.9,4c0.6,0.9,1.5,1.3,2.8,1.3c1.1,0,1.9-0.2,2.5-0.7v-2.7h-3v-2.9h7.2V56z"/>
		<path class="st0" d="M404.9,58.4c-2,0-3.6-0.6-4.9-1.8c-1.2-1.2-1.9-2.8-1.9-4.7v-0.3c0-1.3,0.2-2.5,0.7-3.5
			c0.5-1,1.2-1.8,2.2-2.4c1-0.6,2.1-0.8,3.4-0.8c1.8,0,3.3,0.6,4.4,1.7c1.1,1.1,1.6,2.7,1.6,4.8v1.6h-8.1c0.1,0.7,0.5,1.3,1,1.7
			c0.5,0.4,1.1,0.6,1.9,0.6c1.3,0,2.3-0.5,3-1.4l1.9,2.2c-0.5,0.7-1.2,1.3-2.2,1.7C406.9,58.2,405.9,58.4,404.9,58.4z M404.4,48
			c-1.2,0-1.9,0.8-2.1,2.4h4.1V50c0-0.7-0.1-1.2-0.5-1.5C405.5,48.2,405,48,404.4,48z"/>
		<path class="st0" d="M418.9,54.5c0-0.3-0.2-0.6-0.5-0.8c-0.4-0.2-1.1-0.4-2.1-0.7c-1-0.2-1.9-0.5-2.5-0.9
			c-0.7-0.4-1.2-0.8-1.5-1.3c-0.3-0.5-0.5-1.1-0.5-1.8c0-1.2,0.5-2.2,1.5-3c1-0.8,2.3-1.2,3.9-1.2c1.7,0,3.1,0.4,4.2,1.2
			c1,0.8,1.6,1.8,1.6,3.1h-4.1c0-1-0.6-1.6-1.7-1.6c-0.4,0-0.8,0.1-1.1,0.4c-0.3,0.2-0.4,0.5-0.4,0.9c0,0.4,0.2,0.7,0.5,0.9
			c0.4,0.2,0.9,0.4,1.7,0.6c0.8,0.1,1.5,0.3,2,0.5c2,0.7,2.9,1.9,2.9,3.6c0,1.2-0.5,2.2-1.6,2.9c-1.1,0.7-2.4,1.1-4.1,1.1
			c-1.1,0-2.1-0.2-3-0.6c-0.9-0.4-1.6-1-2.1-1.6c-0.5-0.7-0.7-1.4-0.7-2.2h3.8c0,0.6,0.2,1,0.6,1.3c0.4,0.3,0.9,0.4,1.5,0.4
			c0.6,0,1-0.1,1.3-0.3C418.7,55.1,418.9,54.8,418.9,54.5z"/>
		<path class="st0" d="M429.4,41.8v3.3h2.2v2.8h-2.2v6c0,0.5,0.1,0.8,0.3,1c0.2,0.2,0.5,0.3,1.1,0.3c0.4,0,0.7,0,1-0.1V58
			c-0.7,0.2-1.5,0.4-2.3,0.4c-1.4,0-2.4-0.3-3.1-1c-0.7-0.7-1-1.7-1-3v-6.5h-1.7v-2.8h1.7v-3.3H429.4z"/>
		<path class="st0" d="M433.2,41.7c0-0.6,0.2-1.1,0.6-1.4c0.4-0.4,1-0.6,1.6-0.6s1.2,0.2,1.6,0.6c0.4,0.4,0.6,0.8,0.6,1.4
			c0,0.6-0.2,1.1-0.6,1.4c-0.4,0.4-1,0.6-1.6,0.6s-1.2-0.2-1.6-0.6C433.4,42.8,433.2,42.3,433.2,41.7z M437.5,58.2h-4.1V45.1h4.1
			V58.2z"/>
		<path class="st0" d="M439.5,51.5c0-1.3,0.3-2.5,0.8-3.5c0.5-1,1.2-1.8,2.2-2.4c1-0.5,2.1-0.8,3.3-0.8c2,0,3.5,0.6,4.6,1.8
			c1.1,1.2,1.7,2.9,1.7,5v0.1c0,2-0.6,3.7-1.7,4.9c-1.1,1.2-2.7,1.8-4.6,1.8c-1.9,0-3.4-0.6-4.5-1.7c-1.1-1.1-1.7-2.6-1.8-4.5
			L439.5,51.5z M443.6,51.8c0,1.2,0.2,2.1,0.6,2.7c0.4,0.6,0.9,0.8,1.7,0.8c1.5,0,2.2-1.1,2.2-3.3v-0.4c0-2.3-0.7-3.5-2.2-3.5
			c-1.4,0-2.1,1-2.2,3L443.6,51.8z M446.3,39.6h4.3l-3.4,3.8l-3.3,0L446.3,39.6z"/>
		<path class="st0" d="M457.6,45.1l0.1,1.5c0.9-1.2,2.1-1.8,3.7-1.8c1.4,0,2.4,0.4,3.1,1.2s1,2,1,3.7v8.4h-4.1v-8.3
			c0-0.7-0.1-1.1-0.4-1.5c-0.3-0.3-0.7-0.5-1.5-0.5c-0.8,0-1.4,0.3-1.8,0.9v9.2h-4.1V45.1H457.6z"/>
		<path class="st0" d="M262.7,79.1h-5.8l-1,3.3h-4.5l6.5-17.6h4l6.5,17.6h-4.6L262.7,79.1z M257.9,75.8h3.8l-1.9-6.1L257.9,75.8z"/>
		<path class="st0" d="M274.9,79.4c0.6,0,1-0.2,1.3-0.5c0.3-0.3,0.5-0.7,0.5-1.3h3.8c0,1.4-0.5,2.6-1.5,3.5c-1,0.9-2.4,1.4-4,1.4
			c-1.9,0-3.4-0.6-4.5-1.8c-1.1-1.2-1.6-2.8-1.6-5v-0.2c0-1.3,0.2-2.5,0.7-3.5c0.5-1,1.2-1.8,2.1-2.3c0.9-0.5,2-0.8,3.3-0.8
			c1.7,0,3.1,0.5,4,1.4c1,0.9,1.5,2.2,1.5,3.8h-3.8c0-0.7-0.2-1.2-0.5-1.6c-0.3-0.4-0.8-0.5-1.3-0.5c-1.1,0-1.7,0.7-1.9,2
			c-0.1,0.4-0.1,1-0.1,1.8c0,1.3,0.2,2.2,0.5,2.7S274.2,79.4,274.9,79.4z"/>
		<path class="st0" d="M289.6,82.3c-0.1-0.3-0.3-0.7-0.4-1.2c-0.7,0.9-1.8,1.4-3.1,1.4c-1.2,0-2.3-0.4-3.1-1.1
			c-0.9-0.7-1.3-1.7-1.3-2.8c0-1.4,0.5-2.5,1.6-3.2c1-0.7,2.6-1.1,4.6-1.1h1.3v-0.7c0-1.2-0.5-1.8-1.6-1.8c-1,0-1.5,0.5-1.5,1.4
			h-4.1c0-1.3,0.5-2.3,1.6-3.1c1.1-0.8,2.4-1.2,4.1-1.2c1.7,0,3,0.4,4,1.2c1,0.8,1.5,1.9,1.5,3.3v5.8c0,1.2,0.2,2.1,0.6,2.8v0.2
			H289.6z M287,79.7c0.5,0,0.9-0.1,1.3-0.3c0.3-0.2,0.6-0.5,0.7-0.7v-2.1h-1.2c-1.4,0-2.1,0.6-2.1,1.9c0,0.4,0.1,0.7,0.4,0.9
			S286.6,79.7,287,79.7z"/>
		<path class="st0" d="M294.8,75.7c0-2.1,0.4-3.7,1.3-4.9c0.9-1.2,2.1-1.8,3.7-1.8c1.2,0,2.2,0.5,2.9,1.4v-6.6h4.1v18.6h-3.7
			l-0.2-1.4c-0.8,1.1-1.9,1.6-3.2,1.6c-1.6,0-2.8-0.6-3.7-1.8C295.3,79.6,294.8,77.9,294.8,75.7z M298.9,76c0,2.3,0.7,3.5,2,3.5
			c0.9,0,1.5-0.4,1.9-1.1v-5c-0.4-0.8-1-1.2-1.9-1.2c-1.3,0-1.9,1-2,3L298.9,76z"/>
		<path class="st0" d="M315.6,82.6c-2,0-3.6-0.6-4.9-1.8c-1.2-1.2-1.9-2.8-1.9-4.7v-0.3c0-1.3,0.2-2.5,0.7-3.5
			c0.5-1,1.2-1.8,2.2-2.4c1-0.6,2.1-0.8,3.4-0.8c1.8,0,3.3,0.6,4.4,1.7c1.1,1.1,1.6,2.7,1.6,4.8v1.6H313c0.1,0.7,0.5,1.3,1,1.7
			c0.5,0.4,1.1,0.6,1.9,0.6c1.3,0,2.3-0.5,3-1.4l1.9,2.2c-0.5,0.7-1.2,1.3-2.2,1.7C317.7,82.4,316.7,82.6,315.6,82.6z M315.1,63.8
			h4.3l-3.4,3.8l-3.3,0L315.1,63.8z M315.2,72.2c-1.2,0-1.9,0.8-2.1,2.4h4.1v-0.3c0-0.7-0.1-1.2-0.5-1.5
			C316.3,72.3,315.8,72.2,315.2,72.2z"/>
		<path class="st0" d="M326.6,69.3l0.1,1.5c0.9-1.2,2.2-1.8,3.7-1.8c1.7,0,2.8,0.7,3.3,2c0.9-1.3,2.2-2,3.8-2c2.7,0,4,1.6,4.1,4.8
			v8.5h-4.1v-8.3c0-0.7-0.1-1.2-0.3-1.5c-0.2-0.3-0.6-0.5-1.2-0.5c-0.8,0-1.4,0.4-1.8,1.1l0,0.2v8.9h-4.1v-8.2
			c0-0.7-0.1-1.2-0.3-1.5c-0.2-0.3-0.6-0.5-1.2-0.5c-0.8,0-1.4,0.4-1.8,1.1v9.1h-4.1V69.3H326.6z"/>
		<path class="st0" d="M344.1,65.9c0-0.6,0.2-1.1,0.6-1.4c0.4-0.4,1-0.6,1.6-0.6s1.2,0.2,1.6,0.6c0.4,0.4,0.6,0.8,0.6,1.4
			c0,0.6-0.2,1.1-0.6,1.4c-0.4,0.4-1,0.6-1.6,0.6s-1.2-0.2-1.6-0.6C344.3,66.9,344.1,66.5,344.1,65.9z M348.4,82.3h-4.1V69.3h4.1
			V82.3z"/>
		<path class="st0" d="M356.4,79.4c0.6,0,1-0.2,1.3-0.5c0.3-0.3,0.5-0.7,0.5-1.3h3.8c0,1.4-0.5,2.6-1.5,3.5c-1,0.9-2.4,1.4-4,1.4
			c-1.9,0-3.4-0.6-4.5-1.8c-1.1-1.2-1.6-2.8-1.6-5v-0.2c0-1.3,0.2-2.5,0.7-3.5c0.5-1,1.2-1.8,2.1-2.3c0.9-0.5,2-0.8,3.3-0.8
			c1.7,0,3.1,0.5,4,1.4c1,0.9,1.5,2.2,1.5,3.8h-3.8c0-0.7-0.2-1.2-0.5-1.6c-0.3-0.4-0.8-0.5-1.3-0.5c-1.1,0-1.7,0.7-1.9,2
			c-0.1,0.4-0.1,1-0.1,1.8c0,1.3,0.2,2.2,0.5,2.7S355.7,79.4,356.4,79.4z"/>
		<path class="st0" d="M371.1,82.3c-0.1-0.3-0.3-0.7-0.4-1.2c-0.7,0.9-1.8,1.4-3.1,1.4c-1.2,0-2.3-0.4-3.1-1.1
			c-0.9-0.7-1.3-1.7-1.3-2.8c0-1.4,0.5-2.5,1.6-3.2c1-0.7,2.6-1.1,4.6-1.1h1.3v-0.7c0-1.2-0.5-1.8-1.6-1.8c-1,0-1.5,0.5-1.5,1.4
			h-4.1c0-1.3,0.5-2.3,1.6-3.1c1.1-0.8,2.4-1.2,4.1-1.2c1.7,0,3,0.4,4,1.2c1,0.8,1.5,1.9,1.5,3.3v5.8c0,1.2,0.2,2.1,0.6,2.8v0.2
			H371.1z M368.6,79.7c0.5,0,0.9-0.1,1.3-0.3c0.3-0.2,0.6-0.5,0.7-0.7v-2.1h-1.2c-1.4,0-2.1,0.6-2.1,1.9c0,0.4,0.1,0.7,0.4,0.9
			S368.2,79.7,368.6,79.7z"/>
	</g>
	<path class="st1" d="M49.5,71.1c0-1.5-0.8-2.7-2.4-3.6c-1.6-0.9-4.6-1.9-9-2.9c-4.4-1-8.1-2.3-11-3.9c-2.9-1.6-5.1-3.5-6.6-5.8
		c-1.5-2.3-2.3-4.9-2.3-7.9c0-5.2,2.2-9.6,6.5-13c4.3-3.4,10-5.1,17-5.1c7.5,0,13.6,1.7,18.2,5.1c4.6,3.4,6.9,7.9,6.9,13.5H48.9
		c0-4.6-2.4-6.9-7.2-6.9c-1.9,0-3.4,0.5-4.7,1.6c-1.3,1-1.9,2.3-1.9,3.9c0,1.6,0.8,2.9,2.3,3.9c1.5,1,4,1.8,7.4,2.4
		c3.4,0.6,6.4,1.4,9,2.3c8.6,3,12.9,8.3,12.9,15.9c0,5.2-2.3,9.5-6.9,12.7c-4.6,3.3-10.6,4.9-18,4.9c-4.9,0-9.3-0.9-13.1-2.6
		c-3.8-1.8-6.8-4.2-9-7.2c-2.1-3-3.2-6.2-3.2-9.6H33c0.1,2.6,1,4.6,2.6,5.8c1.7,1.2,3.9,1.8,6.5,1.8c2.4,0,4.3-0.5,5.5-1.5
		C48.9,73.9,49.5,72.7,49.5,71.1z"/>
	<path class="st2" d="M194.9,92.3c-0.6-1.2-1.2-2.9-1.7-5.1c-3.3,4.1-7.9,6.2-13.7,6.2c-5.4,0-10-1.6-13.7-4.9
		c-3.8-3.3-5.7-7.4-5.7-12.3c0-6.2,2.3-10.9,6.9-14.1c4.6-3.2,11.2-4.8,20-4.8h5.5v-3c0-5.3-2.3-7.9-6.8-7.9c-4.2,0-6.3,2.1-6.3,6.3
		h-17.8c0-5.5,2.4-10,7.1-13.5s10.7-5.2,18-5.2c7.3,0,13,1.8,17.3,5.3c4.2,3.6,6.4,8.4,6.5,14.6v25.3c0.1,5.2,0.9,9.3,2.4,12v0.9
		H194.9z M183.7,80.7c2.2,0,4.1-0.5,5.5-1.4c1.5-1,2.5-2,3.1-3.2v-9.1h-5.2c-6.2,0-9.3,2.8-9.3,8.3c0,1.6,0.5,2.9,1.6,3.9
		C180.7,80.2,182.1,80.7,183.7,80.7z"/>
	<g>
		<path class="st1" d="M118.2,30l-0.5,3.9c-0.9-0.5-1.7-1-2.6-1.4c-3.7-1.7-7.9-2.7-12.3-2.7c-3.4,0-6.7,0.6-9.7,1.7
			c-11.3,4-19.5,14.8-19.5,27.5c0,15.6,12.3,28.4,27.7,29.1c0.7,0.1,1.5,0.1,2.2,0.1c1.6,0,3.1-0.2,4.6-0.6c3-0.6,5.8-1.5,8.4-2.9
			c-0.1,7.8-4.1,11.8-11.8,11.8c-5.4,0-9.8-2-13.1-5.9L84,101.1c2.1,2.5,5.1,4.6,9,6.2c3.9,1.6,8,2.4,12.2,2.4c5.8,0,11-1,15.4-3
			c4.4-2,7.8-4.8,10.2-8.6c2.3-3.7,3.5-8.1,3.5-13.1V30H118.2z M102.6,72.6c-8,0-14.5-6.5-14.5-14.5c0-8,6.5-14.5,14.5-14.5
			s14.5,6.5,14.5,14.5C117.1,66.2,110.6,72.6,102.6,72.6z"/>
	</g>
	<circle class="st1" cx="226.2" cy="82.9" r="10.1"/>
</g>
</svg>
