<?xml version="1.0" encoding="utf-8"?>
<!-- Generator: Adobe Illustrator 26.0.0, SVG Export Plug-In . SVG Version: 6.00 Build 0)  -->
<svg version="1.1" id="Capa_1" xmlns="http://www.w3.org/2000/svg" xmlns:xlink="http://www.w3.org/1999/xlink" x="0px" y="0px"
	 viewBox="0 0 695 258" style="enable-background:new 0 0 695 258;" xml:space="preserve">
<style type="text/css">
	.st0{fill:#FC7E00;}
	.st1{fill:#FE9900;}
	.st2{fill:#1C3247;}
</style>
<g>
	<polygon class="st0" points="682,106.3 614.6,106.3 614.6,105.8 608,109.7 601.2,153 601.4,153.2 676.6,153.2 	"/>
	<polygon class="st1" points="608,109.7 614.6,105.8 622.6,38.6 576.1,38.6 562.1,153.2 601.4,153.2 601.2,153 	"/>
</g>
<path class="st2" d="M84,157.5c-42.2,0-58.1-19.1-47.8-57.4c10-37.6,36.1-56.4,78.3-56.4h82.2l-13.5,50.6H101
	c-8.4,0-13.2,1.9-14.2,5.8c-1.3,4.6,2.3,6.8,10.8,6.8h38c42.2,0,58.2,18.8,48.2,56.4c-10.3,38.3-36.5,57.4-78.7,57.4H22.7l13.5-50.6
	h82.2c8.4,0,13.3-2.3,14.6-6.8c1-3.9-2.7-5.8-11.1-5.8H84z"/>
<path class="st2" d="M293.9,170.1l13.5-50.6H358l-27.1,101.2h-69.6c-24.5,0-43-8.6-55.7-25.9s-15.7-38.2-9.1-62.6
	c6.5-24.5,20.7-45.3,42.6-62.6s45.1-25.9,69.6-25.9h56.9l-13.5,50.6h-56.9c-10.5,0-20.4,3.7-29.8,11.1s-15.5,16.4-18.3,26.8
	c-2.9,10.5-1.6,19.4,3.9,26.8c5.4,7.4,13.4,11.1,23.9,11.1L293.9,170.1L293.9,170.1z"/>
<path class="st2" d="M399.5,195.4l-15.8,25.3h-50.6L443.8,43.6h63.3l15.8,177.1h-50.6l-2.3-25.3L399.5,195.4L399.5,195.4z
	 M461.3,96.7l-30.1,48.1h34.3L461.3,96.7z"/>
<polygon class="st2" points="601.1,220.8 554.2,220.8 562.1,153.2 494.8,153.2 500.6,106.3 614.2,106.3 "/>
</svg>
