<?xml version="1.0" encoding="utf-8"?>
<!-- Generator: Adobe Illustrator 24.0.0, SVG Export Plug-In . SVG Version: 6.00 Build 0)  -->
<svg version="1.1" id="Capa_1" xmlns="http://www.w3.org/2000/svg" xmlns:xlink="http://www.w3.org/1999/xlink" x="0px" y="0px"
	 viewBox="0 0 414 149" style="enable-background:new 0 0 414 149;" xml:space="preserve">
<style type="text/css">
	.st0{fill:#FC7E00;}
	.st1{fill:#FE9900;}
	.st2{fill:#808080;}
	.st3{fill:#1C3247;}
</style>
<polygon class="st0" points="400.5,52.7 360.7,52.7 360.7,52.4 356.8,54.7 352.8,80.3 352.9,80.4 397.3,80.4 "/>
<polygon class="st1" points="356.8,54.7 360.7,52.4 365.4,12.8 338,12.8 329.7,80.4 352.9,80.4 352.8,80.3 "/>
<g>
	<path class="st2" d="M113.1,139.8c-0.4,0.5-0.9,0.9-1.7,1.2c-0.7,0.3-1.5,0.4-2.4,0.4c-0.7,0-1.4-0.2-1.9-0.5s-1-0.8-1.3-1.4
		s-0.5-1.3-0.5-2.1c-0.1-0.6,0-1.4,0.2-2.3s0.5-1.8,0.8-2.5s0.9-1.3,1.5-1.7c0.8-0.5,1.7-0.8,2.7-0.8c1.1,0,1.9,0.4,2.5,0.9
		s0.9,1.5,1.1,2.5h-1.8c-0.1-1.3-0.7-1.9-1.8-1.9c-0.8,0-1.5,0.3-2.1,0.9s-0.9,1.5-1.1,2.7c-0.1,0.7-0.2,1.2-0.2,1.7
		c0,0.9,0.1,1.6,0.5,2.1s0.9,0.8,1.5,0.8c0.9,0,1.6-0.2,2.1-0.6l0.4-2.1h-2.2l0.2-1.4h4L113.1,139.8z"/>
	<path class="st2" d="M118.3,141.3c-0.7,0-1.3-0.2-1.8-0.5c-0.5-0.4-0.9-0.8-1.1-1.4s-0.4-1.2-0.3-1.9v-0.3c0.1-0.8,0.4-1.5,0.7-2.2
		c0.4-0.6,0.9-1.1,1.5-1.5s1.2-0.5,1.9-0.5c1,0,1.8,0.4,2.2,1.1c0.5,0.7,0.7,1.7,0.6,2.8l-0.1,0.8h-5.1c-0.1,0.6,0.1,1.2,0.4,1.5
		c0.3,0.4,0.7,0.6,1.2,0.6c0.8,0,1.5-0.3,2.1-1l0.9,0.9c-0.4,0.5-0.8,0.9-1.4,1.1C119.6,141.2,119,141.3,118.3,141.3z M119,134.4
		c-0.9-0.1-1.7,0.6-2.1,2h3.4l0.1-0.2c0.1-0.2,0.1-0.5,0-0.6c-0.1-0.4-0.2-0.6-0.4-0.8C119.7,134.5,119.4,134.4,119,134.4z"/>
	<path class="st2" d="M127.5,138.9c0.1-0.5-0.2-0.8-0.9-1c-0.7-0.2-1.2-0.4-1.5-0.5c-1-0.4-1.5-1.1-1.5-2c0-0.7,0.4-1.3,1-1.8
		s1.4-0.7,2.3-0.7c0.8,0,1.5,0.2,2.1,0.7c0.5,0.5,0.8,1.1,0.8,1.8H128c0-0.4-0.1-0.6-0.3-0.9c-0.2-0.2-0.5-0.3-0.9-0.4
		c-0.4,0-0.7,0.1-1,0.3c-0.3,0.2-0.5,0.5-0.5,0.8c-0.1,0.5,0.2,0.8,0.9,0.9s1.2,0.4,1.6,0.5c1,0.4,1.5,1.1,1.4,2
		c0,0.5-0.2,0.9-0.5,1.4c-0.3,0.4-0.7,0.6-1.2,0.9c-0.5,0.2-1.1,0.3-1.7,0.3c-0.9,0-1.6-0.3-2.2-0.8s-0.9-1.1-0.8-1.9h1.7
		c0,0.4,0.1,0.8,0.4,1c0.2,0.2,0.6,0.4,1,0.4s0.8-0.1,1.1-0.3C127.3,139.5,127.4,139.2,127.5,138.9z"/>
	<path class="st2" d="M134.3,131.1l-0.4,1.9h1.4l-0.2,1.4h-1.4l-0.8,4.5c0,0.1,0,0.2,0,0.4c0.1,0.3,0.2,0.5,0.6,0.5
		c0.2,0,0.4,0,0.6-0.1l-0.1,1.4c-0.4,0.1-0.7,0.2-1.1,0.2c-0.6,0-1.1-0.2-1.4-0.6s-0.4-0.9-0.4-1.7l0.8-4.6h-1.3l0.2-1.4h1.3
		l0.4-1.9L134.3,131.1L134.3,131.1z"/>
	<path class="st2" d="M137.3,141.2h-1.8l1.4-8.1h1.8L137.3,141.2z M137.2,131c0-0.3,0.1-0.5,0.3-0.7c0.2-0.2,0.4-0.3,0.7-0.3
		s0.5,0.1,0.7,0.2s0.3,0.4,0.3,0.7s-0.1,0.5-0.3,0.7s-0.4,0.3-0.7,0.3s-0.5-0.1-0.7-0.2C137.3,131.5,137.2,131.3,137.2,131z"/>
	<path class="st2" d="M139.6,137.1c0.1-0.8,0.3-1.5,0.7-2.1c0.4-0.6,0.9-1.1,1.5-1.5s1.2-0.5,2-0.5c0.7,0,1.3,0.2,1.8,0.5
		c0.5,0.4,0.9,0.8,1.1,1.5c0.2,0.6,0.3,1.3,0.2,2.1c-0.1,0.8-0.3,1.6-0.7,2.2c-0.4,0.6-0.9,1.2-1.5,1.5c-0.6,0.4-1.2,0.5-2,0.5
		c-0.7,0-1.3-0.2-1.8-0.5c-0.5-0.4-0.9-0.8-1.1-1.5c-0.2-0.6-0.3-1.3-0.2-2.1V137.1z M141.4,138.1c0,0.5,0.2,0.9,0.4,1.2
		c0.2,0.3,0.6,0.5,1.1,0.5c0.6,0,1.1-0.2,1.5-0.7s0.6-1.1,0.8-1.9l0.1-0.7c0-0.6-0.1-1.1-0.4-1.5c-0.2-0.4-0.6-0.5-1.1-0.6
		c-0.8,0-1.4,0.4-1.8,1.1c-0.2,0.5-0.4,1-0.5,1.6C141.4,137.5,141.4,137.9,141.4,138.1z M144.8,129.7h2.1l-2.4,2.2H143L144.8,129.7z
		"/>
	<path class="st2" d="M150.8,133.1l-0.2,0.9c0.7-0.8,1.5-1.1,2.4-1.1c0.8,0,1.3,0.3,1.7,0.8s0.5,1.2,0.4,2.2l-0.9,5.2h-1.8l0.9-5.3
		c0-0.2,0-0.4,0-0.6c-0.1-0.6-0.4-0.9-1.1-0.9c-0.6,0-1.2,0.3-1.8,1l-1,5.7h-1.8l1.4-8.1h1.8V133.1z"/>
	<path class="st2" d="M163,138.6l2.5-5.4h1.9l-4.8,9.4c-0.6,1.3-1.5,1.9-2.7,1.9c-0.3,0-0.6-0.1-0.9-0.2l0.2-1.4l0.3,0.1
		c0.4,0,0.8-0.1,1.1-0.2c0.3-0.2,0.5-0.5,0.7-0.8l0.4-0.8l-1.4-7.9h1.8L163,138.6z"/>
	<path class="st2" d="M177.4,138.6h-4.1l-1.3,2.5h-2l5.8-10.9h1.7l2.1,10.9h-1.8L177.4,138.6z M174.1,137.1h3.1l-0.7-4.5
		L174.1,137.1z"/>
	<path class="st2" d="M181.2,137.1c0.1-0.8,0.3-1.6,0.6-2.2c0.4-0.6,0.8-1.2,1.3-1.5c0.5-0.4,1.1-0.5,1.7-0.5c0.8,0,1.5,0.4,1.9,0.9
		l0.8-4.1h1.8l-2,11.5h-1.6l0.1-0.8c-0.6,0.7-1.4,1-2.2,1c-0.8,0-1.4-0.3-1.8-0.9c-0.5-0.6-0.7-1.3-0.7-2.2c0-0.3,0-0.6,0-0.9
		L181.2,137.1L181.2,137.1z M182.9,137.8c-0.1,0.6,0.1,1.1,0.3,1.5s0.6,0.5,1,0.5c0.7,0,1.3-0.3,1.8-1l0.6-3.5
		c-0.2-0.6-0.7-0.9-1.4-0.9c-0.6,0-1.2,0.3-1.7,0.9C183.1,135.9,183,136.8,182.9,137.8z"/>
	<path class="st2" d="M192.3,133.1l-0.2,0.9c0.6-0.7,1.5-1,2.4-1c0.5,0,0.9,0.1,1.2,0.4c0.4,0.2,0.6,0.5,0.7,0.9
		c0.8-0.8,1.6-1.2,2.5-1.2c0.8,0,1.4,0.3,1.8,0.8s0.5,1.2,0.4,2.2l-0.9,5.3h-1.8l0.9-5.3c0-0.2,0-0.4,0-0.6
		c-0.1-0.6-0.5-0.9-1.1-0.9c-0.7,0-1.3,0.4-1.7,1.2v0.2l-0.9,5.4h-1.8l0.9-5.2c0-0.2,0-0.4,0-0.6c-0.1-0.6-0.5-0.9-1.1-0.9
		s-1.2,0.3-1.7,0.9l-1,5.8h-1.8l1.4-8.1L192.3,133.1z"/>
	<path class="st2" d="M204.1,141.2h-1.8l1.4-8.1h1.8L204.1,141.2z M204,131c0-0.3,0.1-0.5,0.3-0.7c0.2-0.2,0.4-0.3,0.7-0.3
		s0.5,0.1,0.7,0.2s0.3,0.4,0.3,0.7s-0.1,0.5-0.3,0.7s-0.4,0.3-0.7,0.3s-0.5-0.1-0.7-0.2C204,131.5,204,131.3,204,131z"/>
	<path class="st2" d="M209.1,133.1l-0.2,0.9c0.7-0.8,1.5-1.1,2.4-1.1c0.8,0,1.3,0.3,1.7,0.8s0.5,1.2,0.4,2.2l-0.9,5.2h-1.8l0.9-5.3
		c0-0.2,0-0.4,0-0.6c-0.1-0.6-0.4-0.9-1.1-0.9s-1.2,0.3-1.8,1l-1,5.7h-1.8l1.4-8.1h1.8V133.1z"/>
	<path class="st2" d="M216.3,141.2h-1.8l1.4-8.1h1.8L216.3,141.2z M216.2,131c0-0.3,0.1-0.5,0.3-0.7c0.2-0.2,0.4-0.3,0.7-0.3
		c0.3,0,0.5,0.1,0.7,0.2s0.3,0.4,0.3,0.7s-0.1,0.5-0.3,0.7s-0.4,0.3-0.7,0.3c-0.3,0-0.5-0.1-0.7-0.2
		C216.2,131.5,216.2,131.3,216.2,131z"/>
	<path class="st2" d="M223.1,138.9c0.1-0.5-0.2-0.8-0.9-1c-0.7-0.2-1.2-0.4-1.5-0.5c-1-0.4-1.5-1.1-1.5-2c0-0.7,0.4-1.3,1-1.8
		s1.4-0.7,2.3-0.7c0.8,0,1.5,0.2,2.1,0.7c0.5,0.5,0.8,1.1,0.8,1.8h-1.8c0-0.4-0.1-0.6-0.3-0.9c-0.2-0.2-0.5-0.3-0.9-0.4
		c-0.4,0-0.7,0.1-1,0.3c-0.3,0.2-0.5,0.5-0.5,0.8c-0.1,0.5,0.2,0.8,0.9,0.9c0.7,0.2,1.2,0.4,1.6,0.5c1,0.4,1.5,1.1,1.4,2
		c0,0.5-0.2,0.9-0.5,1.4c-0.3,0.4-0.7,0.6-1.2,0.9c-0.5,0.2-1.1,0.3-1.7,0.3c-0.9,0-1.6-0.3-2.2-0.8s-0.9-1.1-0.8-1.9h1.7
		c0,0.4,0.1,0.8,0.4,1c0.2,0.2,0.6,0.4,1,0.4s0.8-0.1,1.1-0.3C222.8,139.5,223,139.2,223.1,138.9z"/>
	<path class="st2" d="M229.9,131.1l-0.4,1.9h1.4l-0.2,1.4h-1.4l-0.8,4.5c0,0.1,0,0.2,0,0.4c0.1,0.3,0.2,0.5,0.6,0.5
		c0.2,0,0.4,0,0.6-0.1l-0.1,1.4c-0.4,0.1-0.7,0.2-1.1,0.2c-0.6,0-1.1-0.2-1.4-0.6s-0.4-0.9-0.4-1.7l0.8-4.6h-1.3l0.2-1.4h1.3
		l0.4-1.9L229.9,131.1L229.9,131.1z"/>
	<path class="st2" d="M236.2,134.7c-0.2-0.1-0.5-0.1-0.7-0.1c-0.8,0-1.4,0.3-1.8,0.9l-0.9,5.5H231l1.4-8.1h1.7l-0.2,0.9
		c0.5-0.7,1.2-1.1,1.9-1.1c0.2,0,0.4,0.1,0.6,0.1L236.2,134.7z"/>
	<path class="st2" d="M240.8,141.2c-0.1-0.2-0.1-0.5-0.1-0.8c-0.6,0.6-1.4,0.9-2.1,0.9s-1.3-0.2-1.7-0.6c-0.5-0.4-0.6-1-0.6-1.7
		c0.1-0.8,0.4-1.5,1.1-2s1.7-0.7,2.8-0.7h1.1l0.1-0.5c0-0.2,0-0.4,0-0.5c-0.1-0.5-0.5-0.8-1.1-0.8c-0.4,0-0.7,0.1-1,0.3
		c-0.3,0.2-0.5,0.5-0.5,0.8H237c0.1-0.5,0.2-0.9,0.5-1.3s0.8-0.6,1.2-0.9c0.5-0.2,1.1-0.3,1.7-0.3c0.9,0,1.6,0.3,2.1,0.8
		s0.7,1.2,0.6,2l-0.6,3.8l-0.1,0.6c0,0.3,0,0.6,0.1,0.9v0.1L240.8,141.2L240.8,141.2z M239,139.9c0.4,0,0.7-0.1,1.1-0.2
		c0.3-0.2,0.6-0.4,0.8-0.7l0.3-1.5h-0.8c-0.6,0-1.2,0.1-1.6,0.4s-0.6,0.6-0.6,1c-0.1,0.4,0.1,0.6,0.2,0.8S238.6,139.9,239,139.9z"/>
	<path class="st2" d="M247.6,139.9c0.4,0,0.8-0.1,1.1-0.4s0.5-0.6,0.6-1h1.7c-0.1,0.5-0.2,1-0.6,1.5c-0.4,0.4-0.8,0.8-1.3,1
		s-1.1,0.4-1.6,0.4c-0.7,0-1.3-0.2-1.8-0.5s-0.8-0.8-1.1-1.4s-0.3-1.3-0.2-2.1v-0.2c0.1-0.8,0.3-1.5,0.7-2.1
		c0.4-0.6,0.8-1.1,1.4-1.5s1.2-0.5,1.9-0.5c0.9,0,1.6,0.3,2.1,0.9c0.5,0.5,0.8,1.3,0.8,2.2h-1.7c0-0.5-0.1-0.8-0.4-1.1
		c-0.2-0.3-0.5-0.5-1-0.5c-0.7,0-1.2,0.3-1.7,0.9s-0.6,1.5-0.6,2.5C246.2,139.2,246.7,139.9,247.6,139.9z"/>
	<path class="st2" d="M253.8,141.2H252l1.4-8.1h1.8L253.8,141.2z M253.7,131c0-0.3,0.1-0.5,0.3-0.7c0.2-0.2,0.4-0.3,0.7-0.3
		c0.3,0,0.5,0.1,0.7,0.2s0.3,0.4,0.3,0.7s-0.1,0.5-0.3,0.7s-0.4,0.3-0.7,0.3c-0.3,0-0.5-0.1-0.7-0.2
		C253.8,131.5,253.7,131.3,253.7,131z"/>
	<path class="st2" d="M256.2,137.1c0.1-0.8,0.3-1.5,0.7-2.1c0.4-0.6,0.9-1.1,1.5-1.5s1.2-0.5,2-0.5c0.7,0,1.3,0.2,1.8,0.5
		c0.5,0.4,0.9,0.8,1.1,1.5c0.2,0.6,0.3,1.3,0.2,2.1c-0.1,0.8-0.3,1.6-0.7,2.2c-0.4,0.6-0.9,1.2-1.5,1.5c-0.6,0.4-1.2,0.5-2,0.5
		c-0.7,0-1.3-0.2-1.8-0.5s-0.9-0.8-1.1-1.5c-0.2-0.6-0.3-1.3-0.2-2.1V137.1z M258,138.1c0,0.5,0.2,0.9,0.4,1.2
		c0.2,0.3,0.6,0.5,1.1,0.5c0.6,0,1.1-0.2,1.5-0.7s0.6-1.1,0.8-1.9l0.1-0.7c0-0.6-0.1-1.1-0.4-1.5c-0.2-0.4-0.6-0.5-1.1-0.6
		c-0.8,0-1.4,0.4-1.8,1.1c-0.2,0.5-0.4,1-0.5,1.6C258,137.5,257.9,137.9,258,138.1z M261.4,129.7h2.1l-2.4,2.2h-1.5L261.4,129.7z"/>
	<path class="st2" d="M267.3,133.1l-0.2,0.9c0.7-0.8,1.5-1.1,2.4-1.1c0.8,0,1.3,0.3,1.7,0.8s0.5,1.2,0.4,2.2l-0.9,5.2h-1.8l0.9-5.3
		c0-0.2,0-0.4,0-0.6c-0.1-0.6-0.4-0.9-1.1-0.9c-0.6,0-1.2,0.3-1.8,1l-1,5.7h-1.8l1.4-8.1h1.8V133.1z"/>
	<path class="st2" d="M282.9,138.6h-4.1l-1.3,2.5h-2l5.8-10.9h1.7l2.1,10.9h-1.8L282.9,138.6z M279.6,137.1h3.1l-0.7-4.5
		L279.6,137.1z"/>
	<path class="st2" d="M289.8,139.9c0.4,0,0.8-0.1,1.1-0.4s0.5-0.6,0.6-1h1.7c-0.1,0.5-0.2,1-0.6,1.5c-0.4,0.4-0.8,0.8-1.3,1
		s-1.1,0.4-1.6,0.4c-0.7,0-1.3-0.2-1.8-0.5c-0.5-0.4-0.8-0.8-1.1-1.4c-0.2-0.6-0.3-1.3-0.2-2.1v-0.2c0.1-0.8,0.3-1.5,0.7-2.1
		c0.4-0.6,0.8-1.1,1.4-1.5s1.2-0.5,1.9-0.5c0.9,0,1.6,0.3,2.1,0.9c0.5,0.5,0.8,1.3,0.8,2.2h-1.7c0-0.5-0.1-0.8-0.4-1.1
		c-0.2-0.3-0.5-0.5-1-0.5c-0.7,0-1.2,0.3-1.7,0.9c-0.4,0.6-0.6,1.5-0.6,2.5C288.4,139.2,288.8,139.9,289.8,139.9z"/>
	<path class="st2" d="M298.9,141.2c-0.1-0.2-0.1-0.5-0.1-0.8c-0.6,0.6-1.4,0.9-2.1,0.9s-1.3-0.2-1.7-0.6c-0.5-0.4-0.6-1-0.6-1.7
		c0.1-0.8,0.4-1.5,1.1-2s1.7-0.7,2.8-0.7h1.1l0.1-0.5c0-0.2,0-0.4,0-0.5c-0.1-0.5-0.5-0.8-1.1-0.8c-0.4,0-0.7,0.1-1,0.3
		c-0.3,0.2-0.5,0.5-0.5,0.8h-1.8c0.1-0.5,0.2-0.9,0.5-1.3s0.8-0.6,1.2-0.9c0.5-0.2,1.1-0.3,1.7-0.3c0.9,0,1.6,0.3,2.1,0.8
		s0.7,1.2,0.6,2l-0.6,3.8l-0.1,0.6c0,0.3,0,0.6,0.1,0.9v0.1L298.9,141.2L298.9,141.2z M297.1,139.9c0.4,0,0.7-0.1,1.1-0.2
		c0.3-0.2,0.6-0.4,0.8-0.7l0.3-1.5h-0.8c-0.6,0-1.2,0.1-1.6,0.4c-0.4,0.2-0.6,0.6-0.6,1c-0.1,0.4,0.1,0.6,0.2,0.8
		S296.7,139.9,297.1,139.9z"/>
	<path class="st2" d="M302.6,137.1c0.1-0.8,0.3-1.6,0.6-2.2c0.4-0.6,0.8-1.2,1.3-1.5c0.5-0.4,1.1-0.5,1.7-0.5c0.8,0,1.5,0.4,1.9,0.9
		l0.8-4.1h1.8l-2,11.5h-1.5l0.1-0.8c-0.6,0.7-1.4,1-2.2,1c-0.8,0-1.4-0.3-1.8-0.9c-0.5-0.6-0.7-1.3-0.7-2.2c0-0.3,0-0.6,0-0.9
		L302.6,137.1z M304.3,137.8c-0.1,0.6,0.1,1.1,0.3,1.5c0.2,0.4,0.6,0.5,1,0.5c0.7,0,1.3-0.3,1.8-1l0.6-3.5c-0.2-0.6-0.7-0.9-1.4-0.9
		c-0.6,0-1.2,0.3-1.7,0.9C304.6,135.9,304.4,136.8,304.3,137.8z"/>
	<path class="st2" d="M314.3,141.3c-0.7,0-1.3-0.2-1.8-0.5c-0.5-0.4-0.9-0.8-1.1-1.4s-0.4-1.2-0.3-1.9v-0.3c0.1-0.8,0.4-1.5,0.7-2.2
		c0.4-0.6,0.9-1.1,1.5-1.5s1.2-0.5,1.9-0.5c1,0,1.8,0.4,2.2,1.1c0.5,0.7,0.7,1.7,0.6,2.8l-0.1,0.8h-5.1c-0.1,0.6,0.1,1.2,0.4,1.5
		c0.3,0.4,0.7,0.6,1.2,0.6c0.8,0,1.5-0.3,2.1-1l0.9,0.9c-0.4,0.5-0.8,0.9-1.4,1.1C315.6,141.2,314.9,141.3,314.3,141.3z M315,134.4
		c-0.9-0.1-1.7,0.6-2.1,2h3.4l0.1-0.2c0.1-0.2,0.1-0.5,0-0.6c-0.1-0.4-0.2-0.6-0.4-0.8C315.7,134.5,315.4,134.4,315,134.4z
		 M316.1,129.7h2.1l-2.4,2.2h-1.5L316.1,129.7z"/>
	<path class="st2" d="M321.7,133.1l-0.2,0.9c0.6-0.7,1.5-1,2.4-1c0.5,0,0.9,0.1,1.2,0.4c0.4,0.2,0.6,0.5,0.7,0.9
		c0.8-0.8,1.6-1.2,2.5-1.2c0.8,0,1.4,0.3,1.8,0.8s0.5,1.2,0.4,2.2l-0.9,5.3h-1.8l0.9-5.3c0-0.2,0-0.4,0-0.6
		c-0.1-0.6-0.5-0.9-1.1-0.9c-0.7,0-1.3,0.4-1.7,1.2v0.2l-0.9,5.4h-1.8l0.9-5.2c0-0.2,0-0.4,0-0.6c-0.1-0.6-0.5-0.9-1.1-0.9
		s-1.2,0.3-1.7,0.9l-1,5.8h-1.8l1.4-8.1L321.7,133.1z"/>
	<path class="st2" d="M333.5,141.2h-1.8l1.4-8.1h1.8L333.5,141.2z M333.4,131c0-0.3,0.1-0.5,0.3-0.7c0.2-0.2,0.4-0.3,0.7-0.3
		c0.3,0,0.5,0.1,0.7,0.2s0.3,0.4,0.3,0.7s-0.1,0.5-0.3,0.7s-0.4,0.3-0.7,0.3c-0.3,0-0.5-0.1-0.7-0.2
		C333.5,131.5,333.4,131.3,333.4,131z"/>
	<path class="st2" d="M339,139.9c0.4,0,0.8-0.1,1.1-0.4s0.5-0.6,0.6-1h1.7c-0.1,0.5-0.2,1-0.6,1.5c-0.4,0.4-0.8,0.8-1.3,1
		s-1.1,0.4-1.6,0.4c-0.7,0-1.3-0.2-1.8-0.5c-0.5-0.4-0.8-0.8-1.1-1.4c-0.2-0.6-0.3-1.3-0.2-2.1v-0.2c0.1-0.8,0.3-1.5,0.7-2.1
		c0.4-0.6,0.8-1.1,1.4-1.5s1.2-0.5,1.9-0.5c0.9,0,1.6,0.3,2.1,0.9c0.5,0.5,0.8,1.3,0.8,2.2H341c0-0.5-0.1-0.8-0.4-1.1
		c-0.2-0.3-0.5-0.5-1-0.5c-0.7,0-1.2,0.3-1.7,0.9c-0.4,0.6-0.6,1.5-0.6,2.5C337.6,139.2,338.1,139.9,339,139.9z"/>
	<path class="st2" d="M348.1,141.2c-0.1-0.2-0.1-0.5-0.1-0.8c-0.6,0.6-1.4,0.9-2.1,0.9s-1.3-0.2-1.7-0.6c-0.5-0.4-0.6-1-0.6-1.7
		c0.1-0.8,0.4-1.5,1.1-2s1.7-0.7,2.8-0.7h1.1l0.1-0.5c0-0.2,0-0.4,0-0.5c-0.1-0.5-0.5-0.8-1.1-0.8c-0.4,0-0.7,0.1-1,0.3
		c-0.3,0.2-0.5,0.5-0.5,0.8h-1.8c0.1-0.5,0.2-0.9,0.5-1.3s0.8-0.6,1.2-0.9c0.5-0.2,1.1-0.3,1.7-0.3c0.9,0,1.6,0.3,2.1,0.8
		s0.7,1.2,0.6,2l-0.6,3.8l-0.1,0.6c0,0.3,0,0.6,0.1,0.9v0.1L348.1,141.2L348.1,141.2z M346.3,139.9c0.4,0,0.7-0.1,1.1-0.2
		c0.3-0.2,0.6-0.4,0.8-0.7l0.3-1.5h-0.8c-0.6,0-1.2,0.1-1.6,0.4c-0.4,0.2-0.6,0.6-0.6,1c-0.1,0.4,0.1,0.6,0.2,0.8
		S346,139.9,346.3,139.9z"/>
	<path class="st2" d="M351.7,140.3c0-0.3,0.1-0.5,0.3-0.8c0.2-0.2,0.4-0.3,0.7-0.3c0.3,0,0.5,0.1,0.7,0.2s0.3,0.4,0.3,0.7
		c0,0.3-0.1,0.5-0.3,0.7s-0.4,0.3-0.8,0.3c-0.3,0-0.5-0.1-0.7-0.2C351.7,140.8,351.7,140.6,351.7,140.3z"/>
</g>
<path class="st3" d="M47.4,83c-24.9,0-34.3-11.3-28.2-33.9c5.9-22.2,21.3-33.3,46.2-33.3h48.5l-8,29.9H57.4c-5,0-7.8,1.1-8.4,3.4
	c-0.8,2.7,1.4,4,6.4,4h22.4c24.9,0,34.4,11.1,28.5,33.3c-6.1,22.6-21.6,33.9-46.5,33.9H11.1l8-29.9h48.5c5,0,7.9-1.4,8.6-4
	c0.6-2.3-1.6-3.4-6.6-3.4H47.4z"/>
<path class="st3" d="M171.3,90.4l8-29.9h29.9l-16,59.8h-41.1c-14.5,0-25.4-5.1-32.9-15.3c-7.5-10.2-9.3-22.6-5.4-37
	c3.8-14.5,12.2-26.7,25.2-37c12.9-10.2,26.6-15.3,41.1-15.3h33.6l-8,29.9h-33.6c-6.2,0-12,2.2-17.6,6.6s-9.2,9.7-10.8,15.8
	c-1.7,6.2-0.9,11.5,2.3,15.8c3.2,4.4,7.9,6.6,14.1,6.6H171.3L171.3,90.4z"/>
<path class="st3" d="M233.7,105.3l-9.3,14.9h-29.9l65.4-104.6h37.4l9.3,104.6h-29.9l-1.4-14.9H233.7L233.7,105.3z M270.2,47.1
	l-17.8,28.4h20.3L270.2,47.1z"/>
<polygon class="st3" points="352.7,120.3 325,120.3 329.7,80.4 290,80.4 293.4,52.7 360.4,52.7 "/>
</svg>
