<?xml version="1.0" encoding="iso-8859-1"?>
<!-- Generator: Adobe Illustrator 18.1.1, SVG Export Plug-In . SVG Version: 6.00 Build 0)  -->
<svg version="1.1" id="Capa_1" xmlns="http://www.w3.org/2000/svg" xmlns:xlink="http://www.w3.org/1999/xlink" x="0px" y="0px"
	 viewBox="0 0 53 53" style="enable-background:new 0 0 53 53;" xml:space="preserve">
<g>
	<path style="fill:#010002;" d="M45.5,3v2h-35v22h-3V5V3c0-1.657,1.343-3,3-3h32C44.157,0,45.5,1.343,45.5,3z M42.5,19h3v22v9
		c0,1.657-1.343,3-3,3h-32c-1.657,0-3-1.343-3-3v-9h35V19z M28.804,47.5c0-1.18-0.957-2.137-2.137-2.137S24.53,46.32,24.53,47.5
		s0.957,2.137,2.137,2.137C27.847,49.637,28.804,48.68,28.804,47.5z"/>
</g>
<g>
</g>
<g>
</g>
<g>
</g>
<g>
</g>
<g>
</g>
<g>
</g>
<g>
</g>
<g>
</g>
<g>
</g>
<g>
</g>
<g>
</g>
<g>
</g>
<g>
</g>
<g>
</g>
<g>
</g>
</svg>
