<svg xmlns="http://www.w3.org/2000/svg" width="357.388" height="61.726" viewBox="0 0 357.388 61.726">
  <g id="Grupo_3" data-name="Grupo 3" transform="translate(-90.306 -1226.147)">
    <path id="Trazado_1" data-name="Trazado 1" d="M322.584,1158.818H273.374l-4.625,15.432h19.938l-12.4,46.293h25.325c4.82-17.99,8.326-31.074,12.4-46.293h25.719l4.135-15.431Z" transform="translate(-178.443 67.33)" fill="#254763"/>
    <path id="Trazado_2" data-name="Trazado 2" d="M441.073,1174.249l4.135-15.432H363.771v15.271c-.015.053-.032.106-.047.159h0l-2.349,8.764-2.586,9.649-2.745,10.244c-2.61,9.739,3.171,17.636,12.91,17.636h59.714l4.134-15.43H381.366l2.271-8.478h38.134l3.65-13.621H387.287l2.349-8.765Z" transform="translate(-215.002 67.33)" fill="#fc7e00"/>
    <path id="Trazado_3" data-name="Trazado 3" d="M515.613,1158.816h-9.84l-.168,15.273c-9.009,33.623,1.528-5.7-12.447,46.453h21.017c1.858-6.945,14.6-54.5,16.539-61.726Z" transform="translate(-273.103 67.331)" fill="#fe9900"/>
    <g id="Grupo_1" data-name="Grupo 1" transform="translate(259.609 1226.147)">
      <path id="Trazado_4" data-name="Trazado 4" d="M291.268,1275.268l-1,3.333h-4.617l-4.293,14h-4.222l4.293-14h-4.592l1.026-3.333Z" transform="translate(-267.718 -1275.268)" fill="#1c3247"/>
      <path id="Trazado_5" data-name="Trazado 5" d="M312.613,1276.49a3.549,3.549,0,0,1,.994,3.172,5.721,5.721,0,0,1-.237,1.061,7.187,7.187,0,0,1-1.908,3.086,7.78,7.78,0,0,1-3.485,1.926l1.9,6.864h-4.765l-1.592-6.543H302.5l-2.013,6.543h-4.222l5.32-17.332h7.086A5.459,5.459,0,0,1,312.613,1276.49Zm-3.469,3.889a1.356,1.356,0,0,0-.347-1.222,2.024,2.024,0,0,0-1.437-.432h-2.617l-1.332,4.345h2.617a3.087,3.087,0,0,0,1.913-.568,3.142,3.142,0,0,0,1.086-1.6Q309.127,1280.5,309.144,1280.379Z" transform="translate(-275.915 -1275.268)" fill="#1c3247"/>
      <path id="Trazado_6" data-name="Trazado 6" d="M333.652,1275.268l-5.32,17.332H324.11l5.32-17.332Z" transform="translate(-287.659 -1275.268)" fill="#1c3247"/>
      <path id="Trazado_7" data-name="Trazado 7" d="M352.493,1282.3a6.225,6.225,0,0,1-2.554,1.407,2.737,2.737,0,0,1,1.793,1.21,3.21,3.21,0,0,1,.43,2.2,4.17,4.17,0,0,1-.173.766,6.146,6.146,0,0,1-2.573,3.444,8.2,8.2,0,0,1-4.634,1.271h-8.074l5.32-17.332h7.8a5.4,5.4,0,0,1,3.5.963,2.771,2.771,0,0,1,.936,2.667,5.655,5.655,0,0,1-1.777,3.407Zm-4.521,4.567a1.191,1.191,0,0,0-.372-1.123,2.042,2.042,0,0,0-1.379-.407h-3.061l-1.2,3.9h3.111a3.058,3.058,0,0,0,1.793-.494,2.65,2.65,0,0,0,1-1.432A3.178,3.178,0,0,0,347.971,1286.872Zm.632-5.037a2.384,2.384,0,0,0,.967-1.358,2.6,2.6,0,0,0,.076-.4,1.19,1.19,0,0,0-.326-1.1,1.936,1.936,0,0,0-1.333-.383h-2.765l-1.124,3.7h2.741A3.115,3.115,0,0,0,348.6,1281.836Z" transform="translate(-292.973 -1275.268)" fill="#1c3247"/>
      <path id="Trazado_8" data-name="Trazado 8" d="M375.53,1275.268l-3.175,10.345a7.388,7.388,0,0,0-.215.889,2.052,2.052,0,0,0,.415,1.741,2.393,2.393,0,0,0,1.823.6,3.917,3.917,0,0,0,2.528-.839,4.737,4.737,0,0,0,1.522-2.395l3.175-10.345h4.222l-3.175,10.345a10.427,10.427,0,0,1-2.183,3.962,9.308,9.308,0,0,1-3.351,2.407,10.262,10.262,0,0,1-3.991.79,5.86,5.86,0,0,1-4.2-1.407,4.491,4.491,0,0,1-1.136-4.074,10.807,10.807,0,0,1,.367-1.679l3.15-10.345Z" transform="translate(-306.056 -1275.268)" fill="#1c3247"/>
      <path id="Trazado_9" data-name="Trazado 9" d="M410.458,1292.6h-4.222l-3.767-10.691-3.294,10.691h-4.222l5.32-17.332h4.222l3.761,10.74,3.3-10.74h4.222Z" transform="translate(-317.541 -1275.268)" fill="#1c3247"/>
      <path id="Trazado_10" data-name="Trazado 10" d="M437.968,1289.539H431.5l-1.979,3.061H425.1l11.591-17.332h4.889l.952,17.332h-4.469Zm-.076-3.21-.176-6.42-4.145,6.42Z" transform="translate(-330.259 -1275.268)" fill="#1c3247"/>
      <path id="Trazado_11" data-name="Trazado 11" d="M463.745,1289.391h5.531l-.986,3.209h-9.752l5.32-17.332h4.222Z" transform="translate(-344.362 -1275.268)" fill="#1c3247"/>
      <path id="Trazado_12" data-name="Trazado 12" d="M274.564,1316.841l-1.087,3.6h5.655l-.983,3.186h-5.654l-1.2,3.876h6.394l-1.026,3.333H266.049l5.32-17.332h10.617l-1.027,3.333Z" transform="translate(-263.168 -1291.398)" fill="#1c3247"/>
      <path id="Trazado_13" data-name="Trazado 13" d="M294.359,1327.63h5.53l-.986,3.21h-9.752l5.319-17.332h4.222Z" transform="translate(-272.913 -1291.398)" fill="#1c3247"/>
      <path id="Trazado_14" data-name="Trazado 14" d="M318.034,1316.841l-1.087,3.6H322.6l-.983,3.186h-5.654l-1.2,3.876h6.395l-1.027,3.333H309.519l5.32-17.332h10.617l-1.027,3.333Z" transform="translate(-281.504 -1291.398)" fill="#1c3247"/>
      <path id="Trazado_15" data-name="Trazado 15" d="M338.185,1317.425a12.461,12.461,0,0,1,4.05-3.135,10.966,10.966,0,0,1,4.838-1.124,6.641,6.641,0,0,1,4.787,1.629,5.518,5.518,0,0,1,1.582,4.445H348.8a2.39,2.39,0,0,0-.962-1.617,3.389,3.389,0,0,0-2.014-.556,5.41,5.41,0,0,0-3.558,1.345,7.36,7.36,0,0,0-2.3,3.593,7.444,7.444,0,0,0-.281,1.209,3.445,3.445,0,0,0,.606,2.74,3.057,3.057,0,0,0,2.51,1.013,5.111,5.111,0,0,0,2.334-.569,6.022,6.022,0,0,0,1.977-1.629h4.642a11.948,11.948,0,0,1-4.306,4.432,11.093,11.093,0,0,1-5.791,1.617,7.591,7.591,0,0,1-3.763-.865,5.027,5.027,0,0,1-2.224-2.444,6.9,6.9,0,0,1-.41-3.679,10.135,10.135,0,0,1,.411-1.826A12.507,12.507,0,0,1,338.185,1317.425Z" transform="translate(-292.331 -1291.254)" fill="#1c3247"/>
      <path id="Trazado_16" data-name="Trazado 16" d="M385.4,1313.508l-1,3.333h-4.617l-4.293,14h-4.221l4.293-14h-4.593l1.027-3.333Z" transform="translate(-307.422 -1291.398)" fill="#1c3247"/>
      <path id="Trazado_17" data-name="Trazado 17" d="M396.141,1329.918a5.3,5.3,0,0,1-2.246-2.568,7.237,7.237,0,0,1-.418-3.8,12.327,12.327,0,0,1,2.014-5.419,11.436,11.436,0,0,1,9.6-5.049,7.458,7.458,0,0,1,3.784.9,5.246,5.246,0,0,1,2.261,2.543,7.128,7.128,0,0,1,.423,3.766,12.483,12.483,0,0,1-2.017,5.444,11.459,11.459,0,0,1-9.652,5.1A7.238,7.238,0,0,1,396.141,1329.918Zm7.868-3.826a6.759,6.759,0,0,0,2.208-2.259,7.776,7.776,0,0,0,1.079-3.074,3.46,3.46,0,0,0-.623-2.79,3.26,3.26,0,0,0-2.634-1.012,5.561,5.561,0,0,0-2.986.839,6.764,6.764,0,0,0-2.217,2.234,7.67,7.67,0,0,0-1.079,3.074,3.5,3.5,0,0,0,.623,2.8,3.262,3.262,0,0,0,2.656,1.025A5.5,5.5,0,0,0,404.009,1326.092Z" transform="translate(-316.885 -1291.218)" fill="#1c3247"/>
      <path id="Trazado_18" data-name="Trazado 18" d="M440.305,1314.73a3.55,3.55,0,0,1,.994,3.173,5.715,5.715,0,0,1-.237,1.061,7.183,7.183,0,0,1-1.908,3.086,7.769,7.769,0,0,1-3.485,1.926l1.9,6.864H432.8l-1.592-6.543H430.2l-2.013,6.543H423.96l5.32-17.332h7.086A5.458,5.458,0,0,1,440.305,1314.73Zm-3.469,3.889a1.357,1.357,0,0,0-.347-1.222,2.023,2.023,0,0,0-1.437-.433h-2.617l-1.332,4.346h2.617a3.088,3.088,0,0,0,1.913-.568,3.141,3.141,0,0,0,1.086-1.6C436.786,1318.874,436.825,1318.7,436.836,1318.619Z" transform="translate(-329.777 -1291.398)" fill="#1c3247"/>
      <path id="Trazado_19" data-name="Trazado 19" d="M462.7,1327.778h-6.469l-1.979,3.062h-4.419l11.591-17.332h4.889l.951,17.332H462.8Zm-.075-3.209-.176-6.419-4.144,6.419Z" transform="translate(-340.693 -1291.398)" fill="#1c3247"/>
      <path id="Trazado_20" data-name="Trazado 20" d="M488.482,1327.63h5.53l-.986,3.21h-9.752l5.319-17.332h4.223Z" transform="translate(-354.797 -1291.398)" fill="#1c3247"/>
      <path id="Trazado_21" data-name="Trazado 21" d="M270.608,1351.747l-5.32,17.332h-4.222l5.32-17.332Z" transform="translate(-261.066 -1307.528)" fill="#1c3247"/>
      <path id="Trazado_22" data-name="Trazado 22" d="M289.168,1369.079h-4.222l-3.767-10.69-3.294,10.69h-4.222l5.32-17.332h4.222l3.76,10.74,3.3-10.74h4.222Z" transform="translate(-266.38 -1307.528)" fill="#1c3247"/>
      <path id="Trazado_23" data-name="Trazado 23" d="M309.014,1367.849a3.479,3.479,0,0,1-1.314-3.468c.02-.149.065-.371.136-.667h4.395a1.686,1.686,0,0,0,.252,1.481,1.852,1.852,0,0,0,1.509.543,2.72,2.72,0,0,0,1.573-.42,1.627,1.627,0,0,0,.71-1.185,1.311,1.311,0,0,0-.536-1.284,10.316,10.316,0,0,0-2.041-1.111,16.308,16.308,0,0,1-2.187-1.123,4.3,4.3,0,0,1-1.38-1.444,3.493,3.493,0,0,1-.367-2.3,5.6,5.6,0,0,1,1.225-2.963,6.573,6.573,0,0,1,2.646-1.925,9.336,9.336,0,0,1,3.592-.667,7.87,7.87,0,0,1,3.089.556,3.979,3.979,0,0,1,1.939,1.6,3.757,3.757,0,0,1,.442,2.481,4.444,4.444,0,0,1-.1.543h-4.494a1.414,1.414,0,0,0,.064-.3,1.279,1.279,0,0,0-.335-1.123,1.7,1.7,0,0,0-1.265-.432,2.533,2.533,0,0,0-1.5.432,1.635,1.635,0,0,0-.708,1.173,1.306,1.306,0,0,0,.528,1.247,10.927,10.927,0,0,0,2,1.173,19.378,19.378,0,0,1,2.221,1.234,4.439,4.439,0,0,1,1.4,1.518,3.653,3.653,0,0,1,.362,2.333,5.411,5.411,0,0,1-1.171,2.741,6.438,6.438,0,0,1-2.591,1.888,9.4,9.4,0,0,1-3.669.679A7.143,7.143,0,0,1,309.014,1367.849Z" transform="translate(-280.718 -1307.347)" fill="#1c3247"/>
      <path id="Trazado_24" data-name="Trazado 24" d="M352.573,1351.747l-1,3.333h-4.617l-4.293,14h-4.222l4.294-14h-4.593l1.027-3.333Z" transform="translate(-293.577 -1307.528)" fill="#1c3247"/>
      <path id="Trazado_25" data-name="Trazado 25" d="M367.115,1351.747l-5.32,17.332h-4.222l5.32-17.332Z" transform="translate(-301.774 -1307.528)" fill="#1c3247"/>
      <path id="Trazado_26" data-name="Trazado 26" d="M390.406,1351.747l-1,3.333h-4.617l-4.293,14h-4.222l4.293-14h-4.593l1.027-3.333Z" transform="translate(-309.535 -1307.528)" fill="#1c3247"/>
      <path id="Trazado_27" data-name="Trazado 27" d="M406.088,1351.747l-3.175,10.345a7.467,7.467,0,0,0-.214.889,2.048,2.048,0,0,0,.415,1.741,2.388,2.388,0,0,0,1.822.6,3.918,3.918,0,0,0,2.53-.839,4.744,4.744,0,0,0,1.522-2.4l3.175-10.345h4.222l-3.175,10.345a10.438,10.438,0,0,1-2.183,3.963,9.312,9.312,0,0,1-3.351,2.407,10.25,10.25,0,0,1-3.992.791,5.865,5.865,0,0,1-4.2-1.407,4.492,4.492,0,0,1-1.136-4.074,10.9,10.9,0,0,1,.367-1.679l3.151-10.345Z" transform="translate(-318.946 -1307.528)" fill="#1c3247"/>
      <path id="Trazado_28" data-name="Trazado 28" d="M431.076,1355.664a12.476,12.476,0,0,1,4.05-3.135,10.97,10.97,0,0,1,4.838-1.124,6.641,6.641,0,0,1,4.787,1.629,5.518,5.518,0,0,1,1.582,4.445H441.69a2.39,2.39,0,0,0-.962-1.617,3.39,3.39,0,0,0-2.014-.555,5.413,5.413,0,0,0-3.558,1.345,7.362,7.362,0,0,0-2.3,3.593,7.459,7.459,0,0,0-.281,1.209,3.446,3.446,0,0,0,.606,2.741,3.058,3.058,0,0,0,2.51,1.012,5.1,5.1,0,0,0,2.334-.568,6.014,6.014,0,0,0,1.977-1.629h4.642a11.95,11.95,0,0,1-4.306,4.432,11.091,11.091,0,0,1-5.791,1.617,7.591,7.591,0,0,1-3.763-.864,5.031,5.031,0,0,1-2.224-2.445,6.9,6.9,0,0,1-.41-3.679,10.128,10.128,0,0,1,.411-1.826A12.507,12.507,0,0,1,431.076,1355.664Z" transform="translate(-331.514 -1307.384)" fill="#1c3247"/>
      <path id="Trazado_29" data-name="Trazado 29" d="M467.592,1351.747l-5.32,17.332H458.05l5.32-17.332Z" transform="translate(-344.157 -1307.528)" fill="#1c3247"/>
      <path id="Trazado_30" data-name="Trazado 30" d="M476.393,1368.158a5.3,5.3,0,0,1-2.245-2.568,7.239,7.239,0,0,1-.418-3.8,12.329,12.329,0,0,1,2.014-5.42,11.436,11.436,0,0,1,9.6-5.049,7.451,7.451,0,0,1,3.784.9,5.238,5.238,0,0,1,2.261,2.543,7.12,7.12,0,0,1,.423,3.765,12.486,12.486,0,0,1-2.017,5.444,11.461,11.461,0,0,1-9.652,5.1A7.246,7.246,0,0,1,476.393,1368.158Zm7.868-3.827a6.751,6.751,0,0,0,2.208-2.259,7.768,7.768,0,0,0,1.079-3.074,3.458,3.458,0,0,0-.624-2.79,3.258,3.258,0,0,0-2.633-1.012,5.562,5.562,0,0,0-2.986.839,6.759,6.759,0,0,0-2.217,2.234,7.676,7.676,0,0,0-1.08,3.074,3.494,3.494,0,0,0,.623,2.8,3.261,3.261,0,0,0,2.656,1.025A5.5,5.5,0,0,0,484.261,1364.331Z" transform="translate(-350.737 -1307.347)" fill="#1c3247"/>
      <path id="Trazado_31" data-name="Trazado 31" d="M519.717,1369.079H515.5l-3.767-10.69-3.294,10.69h-4.222l5.32-17.332h4.222l3.76,10.74,3.3-10.74h4.222Z" transform="translate(-363.629 -1307.528)" fill="#1c3247"/>
      <path id="Trazado_32" data-name="Trazado 32" d="M547.227,1366.017h-6.468l-1.98,3.062H534.36l11.591-17.332h4.888l.951,17.332h-4.469Zm-.075-3.209-.176-6.42-4.145,6.42Z" transform="translate(-376.346 -1307.528)" fill="#1c3247"/>
      <path id="Trazado_33" data-name="Trazado 33" d="M573,1365.869h5.53l-.986,3.21H567.8l5.32-17.332h4.223Z" transform="translate(-390.45 -1307.528)" fill="#1c3247"/>
    </g>
  </g>
</svg>
