<?xml version="1.0" encoding="utf-8"?>
<!-- Generator: Adobe Illustrator 24.0.0, SVG Export Plug-In . SVG Version: 6.00 Build 0)  -->
<svg version="1.1" id="Capa_1" xmlns="http://www.w3.org/2000/svg" xmlns:xlink="http://www.w3.org/1999/xlink" x="0px" y="0px"
	 viewBox="0 0 271.4 253" style="enable-background:new 0 0 271.4 253;" xml:space="preserve">
<style type="text/css">
	.st0{fill:#ACAEAF;}
	.st1{fill:#FE9900;}
	.st2{fill:#1C3247;}
</style>
<g id="ttdudJ.tif">
	<g>
		<path class="st0" d="M226.4,90.8c-0.5,2.8-0.9,5.7-1.6,8.5c-2.6,10.3-7.9,18.9-15.9,25.9c-1.3,1.1-1.8,2.2-1.8,3.9
			c0.1,5.8,0,11.6,0.1,17.4c0,1.8-0.4,3.3-2.2,4.1c-1.8,0.7-3.2,0-4.5-1.3c-3.8-3.9-7.7-7.7-11.6-11.6c-0.8-0.8-1.4-1.1-2.6-0.8
			c-7.5,1.8-15.2,1.5-22.8,1.2c-9.4-0.3-18.1-3.1-25.9-8.2c-12.7-8.4-20.6-20.1-22.9-35.2c-2.8-18.8,3.2-34.6,17.3-47.2
			c8-7.1,17.6-11,28.2-12.2c0.6-0.1,1.1-0.2,1.7-0.3c5.5,0,10.9,0,16.4,0c0.6,0.1,1.1,0.2,1.7,0.3c3.5,0.7,7.1,1.1,10.4,2.2
			c18.1,6.3,29.7,18.8,34.5,37.4c0.7,2.6,1,5.3,1.4,8C226.4,85.6,226.4,88.2,226.4,90.8z M200.1,138.9c0-3.6,0.3-6.7-0.1-9.7
			c-0.4-4.1,1.1-6.7,4.3-9.4c8.5-7.2,13.3-16.7,14.6-27.7c1.4-12.2-1.6-23.3-9.3-32.9c-7.1-9-16.3-14.5-27.6-16.3
			c-7.1-1.2-14.3-0.9-21.4-0.3c-4.6,0.4-9,1.6-13.1,3.6c-14.4,6.9-23.4,18.2-25.7,34c-2.5,16.7,3.3,30.7,16.3,41.4
			c7.4,6.1,16,9.2,25.6,9.6c7.8,0.3,15.5,0.7,23.1-1.6c2.2-0.6,3.9-0.2,5.4,1.5C194.7,133.6,197.2,136,200.1,138.9z"/>
		<path class="st0" d="M104.1,204.8c0-2,0-3.6,0-5.2c0-4.3,1-5.3,5.2-5.3c11.9,0,23.8,0,35.7,0c11.1,0,18.8-7.7,18.8-18.7
			c0-7.5,0-14.9,0-22.4c0-0.8,0-1.6,0.3-2.3c0.5-1.6,1.7-2.4,3.4-2.4c1.5,0,2.7,0.9,3.2,2.4c0.2,0.6,0.3,1.3,0.3,1.9
			c0,7.9,0.1,15.8,0,23.6c-0.1,12-8,21.8-19.7,24.4c-2,0.4-4.1,0.6-6.2,0.6c-10.5,0.1-21.1,0-31.6,0c-0.6,0-1.3,0-2.2,0
			c0,2,0,3.9,0,5.8c0,1.8,0,3.6,0,5.3c0,1.8-0.4,3.3-2.2,4.1c-1.9,0.8-3.3-0.1-4.6-1.3c-4.2-4.2-8.5-8.4-12.7-12.7
			c-0.9-0.9-1.8-1.3-3.1-1.3c-6.2,0.1-12.4,0-18.7,0c-14.8,0-25.6-10.8-25.7-25.7c0-17.7,0-35.4,0-53.2c0-14.8,10.8-25.6,25.7-25.6
			c11.3,0,22.5,0,33.8,0c0.4,0,0.8,0,1.2,0c2.1,0.2,3.5,1.6,3.6,3.5c0,1.9-1.4,3.4-3.5,3.6c-0.5,0.1-1.1,0-1.6,0
			c-11.2,0-22.4,0-33.6,0c-10.7,0-18.5,7.8-18.5,18.5c0,17.8,0,35.6,0,53.3c0,10.7,7.8,18.5,18.5,18.5c7.1,0,14.1,0,21.2,0
			c1.9,0,3.3,0.6,4.6,2.1C98.2,199.2,101.1,201.8,104.1,204.8z"/>
		<path class="st1" d="M104.8,145.2c12,0,23.9,0,35.9,0c0.6,0,1.2,0,1.8,0.1c1.9,0.3,3.2,1.8,3.2,3.5c0,1.7-1.3,3.2-3.2,3.5
			c-0.6,0.1-1.2,0.1-1.8,0.1c-24.1,0-48.1,0-72.2,0c-0.1,0-0.2,0-0.4,0c-2.9,0-4.6-1.3-4.6-3.6s1.7-3.6,4.6-3.6
			C80.4,145.2,92.6,145.2,104.8,145.2z"/>
		<path class="st1" d="M97.9,165.1c9.7,0,19.3,0,29,0c0.7,0,1.4,0,2.1,0.2c1.6,0.4,2.7,1.7,2.7,3.3c0,1.7-1.1,3.1-2.8,3.5
			c-0.7,0.2-1.4,0.2-2.1,0.2c-19.4,0-38.9,0-58.3,0c-0.2,0-0.5,0-0.7,0c-2.6-0.1-4.2-1.5-4.2-3.6c0-2.1,1.7-3.5,4.3-3.5
			C77.8,165.1,87.8,165.1,97.9,165.1z"/>
		<path class="st1" d="M92.9,132.4c-8.1,0-16.2,0-24.4,0c-0.6,0-1.2,0-1.8-0.1c-1.9-0.3-3.2-1.8-3.2-3.5c0-1.7,1.3-3.2,3.2-3.5
			c0.6-0.1,1.2-0.1,1.8-0.1c16.4,0,32.7,0,49.1,0c0.1,0,0.2,0,0.4,0c2.9,0,4.6,1.3,4.6,3.6c0,2.2-1.7,3.5-4.6,3.6
			C109.6,132.4,101.2,132.4,92.9,132.4z"/>
		<path class="st1" d="M142,172.2c-1.9-0.1-3.5-1.8-3.4-3.6c0.1-1.9,1.8-3.5,3.6-3.4c1.9,0.1,3.5,1.8,3.4,3.6
			C145.6,170.6,143.9,172.3,142,172.2z"/>
		<path class="st2" d="M167.7,93.2c0-1.4,0-2.7,0-4.1c0.1-2.9,1.7-5.2,4.5-6.2c0.5-0.2,1-0.3,1.5-0.5c3.8-1.3,6-5.1,5.3-9
			c-0.7-3.7-4.1-6.5-7.9-6.4c-4,0.1-7.2,2.9-7.7,6.9c-0.1,0.5-0.2,1.1-0.3,1.6c-0.4,2-1.9,3.1-3.8,2.9c-1.8-0.2-3-1.6-3.1-3.5
			c-0.2-6.1,4.5-12.5,10.4-14.2c10.3-3,19.9,4.4,19.6,15.1c-0.2,5.7-4.1,11.3-9.6,13.1c-1.6,0.5-2,1.2-1.9,2.8
			c0.1,1.9,0.1,3.8,0,5.7c-0.1,2.4-1.6,4.1-3.6,4c-2.1,0-3.4-1.6-3.5-4.1C167.6,95.9,167.7,94.6,167.7,93.2
			C167.7,93.2,167.7,93.2,167.7,93.2z"/>
		<path class="st2" d="M171.2,108.4c1.9,0,3.5,1.7,3.5,3.5c0,1.9-1.7,3.5-3.6,3.5c-1.9,0-3.5-1.6-3.5-3.5
			C167.7,110,169.3,108.4,171.2,108.4z"/>
	</g>
</g>
</svg>
