<?xml version="1.0" encoding="utf-8"?>
<!-- Generator: Adobe Illustrator 22.0.1, SVG Export Plug-In . SVG Version: 6.00 Build 0)  -->
<svg version="1.1" id="Layer_1" xmlns="http://www.w3.org/2000/svg" xmlns:xlink="http://www.w3.org/1999/xlink" x="0px" y="0px"
	 viewBox="0 0 86.1 24" style="enable-background:new 0 0 86.1 24;" xml:space="preserve">
<style type="text/css">
	.st0{fill:#008C44;}
	.st1{fill:#FFFFFF;}
</style>
<g>
	<path class="st1" d="M18,15.4c0,2.1-0.8,3.7-2.5,4.9c-1.5,1.1-3.3,1.6-5.4,1.6c-2.2,0-4-0.5-5.4-1.6c-1.6-1.2-2.4-2.8-2.4-4.9V2.1
		h6.3v12.9c0,1,0.5,1.5,1.6,1.5c1.1,0,1.6-0.5,1.6-1.5V2.1H18V15.4z"/>
	<path class="st1" d="M37.4,21.7h-6.3l-5.8-9v9h-6.3V2.1h5.8l6.2,9.5V2.1h6.3V21.7z"/>
	<path class="st1" d="M51.1,21.7H38.6V2.1h12.6V7h-6.3v2.5h6v4.9h-6v2.4h6.3V21.7z"/>
	<path class="st1" d="M76.6,21.7h-6.3l-1.6-10l-2.6,10h-3.6l-2.8-10l-1.7,10h-6.3l3.7-19.7h6.4l2.4,8.7l2.5-8.7H73L76.6,21.7z"/>
	<path class="st1" d="M83.8,21.7h-6.3V2.1h6.3V21.7z"/>
</g>
</svg>
