<svg xmlns="http://www.w3.org/2000/svg" width="103.68" height="103.521" viewBox="0 0 103.68 103.521">
  <g id="Grupo_3803" data-name="Grupo 3803" transform="translate(-912 -375.49)">
    <path id="Trazado_11833" data-name="Trazado 11833" d="M44.742,4.17a9.778,9.778,0,0,1,12.267,0l7.722,6.6a11.291,11.291,0,0,0,6.207,2.248h8.308a9.469,9.469,0,0,1,9.432,9.432v8.308a11.137,11.137,0,0,0,2.248,6.158l6.6,7.721a9.778,9.778,0,0,1,0,12.267l-6.6,7.722a11.137,11.137,0,0,0-2.248,6.158v8.308a9.469,9.469,0,0,1-9.432,9.432H70.937a11.137,11.137,0,0,0-6.158,2.248l-7.722,6.6a9.778,9.778,0,0,1-12.267,0l-7.721-6.6a11.274,11.274,0,0,0-6.158-2.248H22.36a9.469,9.469,0,0,1-9.432-9.432V70.731a10.931,10.931,0,0,0-2.2-6.109l-6.6-7.77a9.84,9.84,0,0,1,0-12.218l6.6-7.77a11.065,11.065,0,0,0,2.2-6.109V22.5a9.469,9.469,0,0,1,9.432-9.432h8.455a11.137,11.137,0,0,0,6.158-2.248Z" transform="translate(912.995 376.482)" fill="none" stroke="#2db6fd" stroke-linecap="round" stroke-linejoin="round" stroke-width="6"/>
    <path id="Trazado_11834" data-name="Trazado 11834" d="M12,8.13v23.6" transform="translate(951.54 400.281)" fill="none" stroke="#2db6fd" stroke-linecap="round" stroke-linejoin="round" stroke-width="7"/>
    <path id="Trazado_11835" data-name="Trazado 11835" d="M11.994,16h.044" transform="translate(951.545 430.872)" fill="none" stroke="#2db6fd" stroke-linecap="round" stroke-linejoin="round" stroke-width="7"/>
  </g>
</svg>
