<svg xmlns="http://www.w3.org/2000/svg" width="92.397" height="66.331" viewBox="0 0 92.397 66.331">
  <g id="Grupo_2607" data-name="Grupo 2607" transform="translate(-348 -822.157)">
    <path id="Trazado_1679" data-name="Trazado 1679" d="M348,881.129V829.513a.557.557,0,0,0,.1-.148c1.245-4.9,4.2-7.206,9.252-7.206h73.7c.331,0,.662-.006.992.006a8.522,8.522,0,0,1,7.909,5.807c.17.507.3,1.027.448,1.541v51.616c-.035.048-.089.09-.1.144-1.222,4.888-4.2,7.211-9.247,7.211h-73.7c-.3,0-.6.012-.9,0a8.447,8.447,0,0,1-7.846-5.386A17.508,17.508,0,0,1,348,881.129Zm46.242,1.94q18.54,0,37.081,0c2.474,0,3.659-1.178,3.66-3.635q0-24.091,0-48.182c0-2.522-1.165-3.679-3.7-3.679H357.117c-2.543,0-3.7,1.152-3.7,3.678q0,24.046,0,48.091c0,2.587,1.146,3.726,3.747,3.726Z" fill="#d8d8d8"/>
    <path id="Trazado_1680" data-name="Trazado 1680" d="M415.084,935.267a9.969,9.969,0,1,1,14.969-.024c.612.474,1.25.917,1.83,1.426a14.147,14.147,0,0,1,4.973,10.433,2.709,2.709,0,0,1-2.942,3.089q-11.367.03-22.735,0a2.736,2.736,0,0,1-2.918-3.2,14.19,14.19,0,0,1,6.349-11.371C414.755,935.514,414.9,935.405,415.084,935.267Zm15.841,9.474a8.786,8.786,0,0,0-8.775-6.136c-3.705.184-7.417,3.042-7.923,6.136Zm-8.335-11.571a4.525,4.525,0,1,0-4.572-4.471A4.549,4.549,0,0,0,422.59,933.169Z" transform="translate(-45.755 -73.323)" fill="#ff8000"/>
    <path id="Trazado_1681" data-name="Trazado 1681" d="M439.954,875.816q-14.249,0-28.5,0a2.85,2.85,0,0,1-2.991-1.708,2.678,2.678,0,0,1,2.119-3.652,7.819,7.819,0,0,1,1.079-.051q28.318,0,56.636,0c1.841,0,2.872.63,3.252,1.966a2.658,2.658,0,0,1-2.112,3.378,6.746,6.746,0,0,1-1.167.067Q454.113,875.819,439.954,875.816Z" transform="translate(-45.768 -36.637)" fill="#d8d8d8"/>
    <path id="Trazado_1682" data-name="Trazado 1682" d="M577.693,936.085q-4.872,0-9.744,0a2.727,2.727,0,1,1-.016-5.411q9.789-.008,19.578,0a2.727,2.727,0,1,1,.016,5.411Q582.61,936.091,577.693,936.085Z" transform="translate(-164.686 -82.403)" fill="#d8d8d8"/>
    <path id="Trazado_1683" data-name="Trazado 1683" d="M577.661,984.228c-3.338,0-6.677.023-10.014-.009a2.664,2.664,0,0,1-2.568-3.678,2.594,2.594,0,0,1,2.527-1.716q10.1-.026,20.208,0a2.7,2.7,0,1,1-.049,5.4C584.4,984.242,581.029,984.229,577.661,984.228Z" transform="translate(-164.687 -118.961)" fill="#d8d8d8"/>
    <path id="Trazado_1684" data-name="Trazado 1684" d="M574.87,1032.456c-2.4,0-4.805.041-7.206-.013a2.659,2.659,0,0,1-2.614-3.579,2.517,2.517,0,0,1,2.455-1.8c4.894-.032,9.789-.041,14.683,0a2.679,2.679,0,0,1-.022,5.356c-2.431.058-4.864.016-7.3.016Z" transform="translate(-164.693 -155.586)" fill="#d8d8d8"/>
  </g>
</svg>
