<?xml version="1.0" encoding="utf-8"?>
<!-- Generator: Adobe Illustrator 24.0.0, SVG Export Plug-In . SVG Version: 6.00 Build 0)  -->
<svg version="1.1" id="Capa_1" xmlns="http://www.w3.org/2000/svg" xmlns:xlink="http://www.w3.org/1999/xlink" x="0px" y="0px"
	 viewBox="0 0 512 512" style="enable-background:new 0 0 512 512;" xml:space="preserve">
<style type="text/css">
	.st0{fill:#FC7E00;}
	.st1{fill:#FFFFFF;}
</style>
<g>
	<path class="st0" d="M453.9,316.9c10.3-18.6,30.8-29.4,36.7-50.5c5.4-19.3-5.2-35.1-18.1-48.5c-6.7-7-13.4-13.1-18.5-22.2
		c-1.2-2.1-2-4.3-2.3-6.6c-1-6.7-0.9-13.4,0.3-20.2c1.5-8.8,2.4-17.5,2.4-26.1c0-20.6-9.7-34-28.9-40.4c-8-2.6-15.2-4.4-21.9-5.3
		c-8.9-1.2-22-3.9-28.3-10.2c-3.9-3.9-6.6-7.3-8.1-10.2c-11.3-21.3-23.4-48.7-52-46.9c-11.3,0.7-24.5,6.8-35.3,12.3
		c-7.8,4-18.8,8.6-27.3,7c-6.6-1.2-12.5-3.1-17.7-5.7c-19-9.6-41.8-21-61.3-7.2c-11,7.8-19.2,22.3-25.2,34.8
		c-2.7,5.5-6.5,10.8-11.5,16c-6,6.2-18,8.6-27,9.9c-11.1,1.6-21,4.3-29.8,8.2c-16.2,7.1-23.4,23.5-22.8,40.7
		c0.3,6.9,1.2,14.6,2.7,23c1.1,6.1,1.2,12.7,0.3,19.7c-0.3,2.2-1,4.3-2.1,6.3c-2.7,5-5.3,8.7-7.7,11.2
		c-16.9,17.1-37.8,36.4-28.3,62.8c7,19.6,26,29.9,35.8,47.4c1.2,2.1,1.9,4.3,2.2,6.5c0.9,6.8,0.6,14.3-0.7,22.5
		c-1,6.4-1.7,13.9-1.9,22.5c-0.9,34.9,26,43.1,54.7,47.5c7.8,1.2,18.9,3.9,24.4,9.5c7.2,7.3,10.8,15.1,15.3,23.6
		c10,18.9,22.8,35.6,46.9,33.5c5.2-0.5,11.3-2.2,18-5.2c11.6-5.1,22.2-11.4,34.8-13.8c2.6-0.5,5.2-0.5,7.8,0
		c8.2,1.5,14,3.9,22.4,8.2c9.6,5,19,8.7,29.7,10.3c5.1,0.8,9.5,0.8,13.2,0.2c18.9-3.4,29.9-22.8,37.9-38.4c4.1-8,10.2-19,18.8-22.5
		c6.5-2.7,11.7-4.4,19.1-5.5c10.9-1.5,20.8-4.1,29.7-7.7c17.4-7,25-23.7,24.3-41.9c-0.5-13.6-4.9-27.8-3-42.3
		C452,321.2,452.7,319,453.9,316.9z"/>
	<g>
		<path class="st1" d="M299.9,149c-4.5-34.3-44.9-50-71.8-28.4c-9.4,7.6-14.8,17.4-16.1,29.7c-0.4,3.6-0.2,10.2,0.6,20
			c3,36.5,5.9,73,8.7,109.5c0.7,8.9,1.7,15.2,3,18.7c2.9,7.8,7.9,13.7,15.2,17.7c21.2,11.6,48.5-1.8,50.5-26.7
			c3.2-40.2,6.4-80.3,9.6-120.5C300.3,159.3,300.4,152.7,299.9,149z"/>
		<path class="st1" d="M255.5,336.5c-17.9,0-32.5,14.5-32.5,32.5c0,17.9,14.5,32.5,32.5,32.5S288,386.9,288,369c0,0,0,0,0,0
			C288,351,273.4,336.5,255.5,336.5z"/>
	</g>
</g>
</svg>
