<?xml version="1.0" encoding="utf-8"?>
<!-- Generator: Adobe Illustrator 24.0.0, SVG Export Plug-In . SVG Version: 6.00 Build 0)  -->
<svg version="1.1" id="Capa_1" xmlns="http://www.w3.org/2000/svg" xmlns:xlink="http://www.w3.org/1999/xlink" x="0px" y="0px"
	 viewBox="0 0 80 80" style="enable-background:new 0 0 80 80;" xml:space="preserve">
<style type="text/css">
	.st0{fill:#ACAEAF;}
	.st1{fill:#FE9900;}
	.st2{fill:#1C3247;}
</style>
<g>
	<path class="st0" d="M5,64c0.42-0.52,0.97-0.64,1.61-0.59c0.37,0.03,0.75,0.01,1.2,0.01c0-0.37,0-0.65,0-0.94c0-11.7,0-23.4,0-35.1
		c0-2.48,1.34-4.33,3.58-4.92c0.49-0.13,1.02-0.16,1.53-0.18c0.65-0.03,1.3-0.01,1.92-0.01c-0.08-0.73-0.26-1.41-0.21-2.08
		c0.11-1.55,0.93-2.67,2.31-3.4c3.59-1.9,7.17-3.8,10.76-5.7c2.79-1.48,5.59-2.95,8.38-4.44c2.25-1.2,4.5-1.23,6.76-0.04
		c0.83,0.44,1.67,0.87,2.49,1.33c0.64,0.35,0.84,0.91,0.54,1.45c-0.28,0.51-0.84,0.65-1.46,0.34c-0.88-0.45-1.74-0.93-2.62-1.38
		c-1.53-0.78-3.07-0.8-4.59,0c-6.47,3.41-12.92,6.84-19.39,10.26c-0.76,0.4-1.2,1.02-1.2,1.88c0,0.86,0.42,1.49,1.18,1.89
		c6.48,3.43,12.96,6.87,19.44,10.3c1.44,0.76,2.94,0.79,4.4,0.05c1.64-0.83,3.25-1.71,4.95-2.6c-0.79-0.91-1.54-1.76-2.29-2.62
		c-1.75-1.99-3.5-3.98-5.24-5.98c-0.07-0.08-0.15-0.17-0.22-0.26c-0.45-0.56-0.44-1.17,0.02-1.55c0.44-0.36,1.03-0.29,1.49,0.22
		c1.05,1.17,2.07,2.36,3.11,3.54c1.64,1.87,3.28,3.74,4.96,5.66c0.91-0.48,1.8-0.94,2.69-1.41c3.27-1.73,6.53-3.48,9.81-5.2
		c0.87-0.45,1.47-1.05,1.46-2.07c-0.01-0.99-0.62-1.57-1.45-2.01c-4.21-2.21-8.41-4.44-12.61-6.67c-0.72-0.38-0.97-0.96-0.66-1.52
		c0.29-0.53,0.89-0.64,1.59-0.27c4.26,2.25,8.53,4.5,12.79,6.77c2.03,1.08,2.77,2.94,2.11,5.17c-0.02,0.08-0.04,0.17-0.08,0.33
		c0.66,0,1.29,0,1.91,0c3.22,0.01,5.22,1.99,5.22,5.2c0,11.66,0,23.31,0,34.97c0,0.29,0,0.58,0,0.98c0.44,0,0.83,0,1.23,0
		c1.34,0,1.61,0.24,1.57,1.55c-0.04,1.14,0,2.31-0.27,3.4c-0.66,2.77-3.11,4.67-5.95,4.81c-0.25,0.01-0.49,0.02-0.74,0.02
		c-18.35,0-36.7-0.01-55.05,0.01c-2.79,0-4.91-1.11-6.24-3.57C5.39,68.99,5.24,68.22,5,67.5C5,66.33,5,65.17,5,64z M9.83,63.36
		c19.83,0,39.56,0,59.31,0c0.01-0.23,0.03-0.4,0.03-0.58c0-11.84,0-23.67,0-35.51c0-1.83-1.15-2.97-3-2.98c-1.26-0.01-2.52,0-3.77,0
		c-0.18,0-0.38-0.02-0.53,0.05c-1.58,0.82-3.16,1.65-4.74,2.48c0.01,0.05,0.02,0.11,0.03,0.16c0.23,0,0.47,0,0.7,0
		c2.38,0,4.76,0,7.14,0c1.19,0,1.46,0.28,1.46,1.47c0,10.26,0,20.53,0,30.79c0,1.19-0.28,1.47-1.47,1.47c-13.88,0-27.76,0-41.64,0
		c-0.22,0-0.45,0-0.67-0.05c-0.54-0.12-0.82-0.49-0.79-1.02c0.03-0.53,0.34-0.87,0.89-0.93c0.27-0.03,0.54-0.02,0.81-0.02
		c13.32,0,26.64,0,39.96,0c0.28,0,0.56,0,0.83,0c0-9.96,0-19.8,0-29.66c-3.01,0-5.97,0-8.99,0c0,1.11,0,2.18,0,3.26
		c0.02,4.32-1.87,7.43-5.81,9.26c-0.15,0.07-0.37,0.21-0.36,0.32c0.02,0.75-0.19,1.51,0.26,2.22c0.63,1.01,1.22,2.04,1.78,3.09
		c0.66,1.21,0.48,2.57-0.42,3.56c-0.76,0.84-1.74,1.01-2.82,0.99c-2.74-0.04-4.14-2.44-2.78-4.83c0.52-0.92,1.09-1.81,1.56-2.75
		c0.25-0.5,0.32-1.09,0.5-1.75c-0.4,0.09-0.58,0.13-0.75,0.17c-5.33,1.45-10.59,1.2-15.84-0.51c-5.09-1.66-7.36-5.76-7.15-9.97
		c0.05-1,0.01-2.01,0.01-3.06c-3.03,0-6,0-9,0c0,9.89,0,19.73,0,29.65c0.28,0,0.52,0,0.77,0c1.17,0,2.34-0.01,3.5,0.02
		c0.62,0.02,0.98,0.4,0.99,0.97c0.01,0.56-0.34,0.95-0.95,1.03c-0.13,0.02-0.27,0.01-0.4,0.01c-1.53,0-3.05,0-4.58,0
		c-1.09,0-1.39-0.31-1.39-1.41c0-10.31,0-20.62,0-30.93c0-1.1,0.29-1.4,1.4-1.4c2.4,0,4.81,0,7.21,0c0.23,0,0.47,0,0.7,0
		c-0.41-0.39-0.89-0.59-1.3-0.87c-2.23-1.54-4.67-2.01-7.37-1.87c-2.01,0.1-3.37,1.24-3.36,3.38c0.06,11.63,0.03,23.27,0.03,34.91
		C9.83,62.78,9.83,63.05,9.83,63.36z M72.07,65.48c-0.32-0.02-0.48-0.04-0.63-0.04c-7.68,0-15.36,0-23.04-0.01
		c-0.45,0-0.59,0.17-0.72,0.58c-0.61,1.91-2.26,3.23-4.25,3.28c-2.63,0.07-5.26,0.09-7.88-0.01c-2.06-0.08-3.47-1.24-4.17-3.17
		c-0.19-0.51-0.39-0.68-0.93-0.67c-7.54,0.02-15.09,0.01-22.63,0.01c-0.24,0-0.48,0-0.71,0c-0.49,3.34,1.5,5.74,4.73,5.75
		c18.46,0.01,36.92,0.01,55.37,0c2.26,0,3.99-1.19,4.55-3.18C71.97,67.22,71.97,66.37,72.07,65.48z M25.62,28.81
		c0,1.44-0.01,2.76,0,4.08c0.03,3.1,1.88,5.72,4.76,6.87c3.94,1.58,8.02,2.1,12.22,1.56c1.54-0.2,3.06-0.61,4.53-0.91
		c0-2.85,0-5.52,0-8.28c-1.52,0.8-2.96,1.58-4.41,2.33c-2.1,1.08-4.22,1.11-6.33,0.04c-1.22-0.62-2.42-1.27-3.63-1.91
		C30.42,31.35,28.08,30.11,25.62,28.81z M49.21,39.5c1.75-0.88,2.92-2.15,3.62-3.84c0.92-2.19,0.43-4.48,0.57-6.85
		c-1.4,0.74-2.67,1.4-3.93,2.09c-0.14,0.07-0.26,0.31-0.26,0.47C49.2,34.03,49.21,36.7,49.21,39.5z M45.72,65.49
		c-4.19,0-8.28,0-12.44,0c0.47,1.05,1.19,1.73,2.26,1.75c2.64,0.06,5.29,0.06,7.94,0C44.55,67.22,45.26,66.53,45.72,65.49z
		 M48.2,45.88c-0.45,0.77-0.86,1.45-1.25,2.15c-0.49,0.9-0.03,1.66,1,1.69c0.22,0,0.45,0.01,0.67,0c0.79-0.06,1.25-0.78,0.9-1.49
		C49.15,47.44,48.68,46.7,48.2,45.88z"/>
	<path class="st1" d="M28.72,53.98c3.19,0,6.38,0,9.57,0c0.25,0,0.5-0.01,0.74,0.04c0.47,0.1,0.82,0.44,0.73,0.9
		c-0.07,0.36-0.35,0.72-0.64,0.98c-0.16,0.14-0.51,0.1-0.78,0.1c-6.45,0-12.89,0-19.34,0c-0.27,0-0.62,0.04-0.78-0.1
		c-0.28-0.26-0.64-0.66-0.61-0.98c0.02-0.32,0.44-0.65,0.75-0.88c0.17-0.12,0.48-0.05,0.73-0.05C22.3,53.98,25.51,53.98,28.72,53.98
		z"/>
	<path class="st2" d="M25.29,51.74c-2.15,0-4.3,0-6.46,0c-0.8,0-1.26-0.36-1.28-0.97c-0.02-0.64,0.47-1.04,1.28-1.04
		c4.33,0,8.65,0,12.98,0c0.8,0,1.25,0.36,1.27,0.98c0.02,0.66-0.44,1.03-1.27,1.04C29.64,51.74,27.46,51.74,25.29,51.74z"/>
</g>
</svg>
