<?xml version="1.0" encoding="utf-8"?>
<!-- Generator: Adobe Illustrator 24.0.0, SVG Export Plug-In . SVG Version: 6.00 Build 0)  -->
<svg version="1.1" id="Capa_1" xmlns="http://www.w3.org/2000/svg" xmlns:xlink="http://www.w3.org/1999/xlink" x="0px" y="0px"
	 viewBox="0 0 200 200" style="enable-background:new 0 0 200 200;" xml:space="preserve">
<style type="text/css">
	.st0{fill:#ACAEAF;}
	.st1{fill:#FE9900;}
</style>
<g>
	<path class="st0" d="M61.6,177.6c-2-0.4-4.1-0.7-6.1-1.2c-15.8-3.9-28.1-17.6-30.5-33.7c-1.6-11,0.8-20.9,7.2-29.9
		c0.4-0.5,0.8-1.1,1.3-1.6c0.9-0.9,2-0.9,3-0.2c1,0.7,1.3,1.7,0.7,2.9c-0.2,0.4-0.5,0.8-0.8,1.1c-15.1,19.7-5.6,52.5,22.7,57.1
		c19.8,3.3,38.9-8.4,42.2-30.6c3-20.4-11.9-37.9-30.9-40.7c-8.7-1.3-16.8,0.5-24.3,5.2c-1,0.7-2,1.1-3.1,0.3c-1.5-1.1-1.3-2.9,0.3-4
		c4.5-3,9.4-4.9,14.6-5.9c7.6-1.4,15-0.8,22.2,1.9c0.2,0.1,0.5,0.1,0.9,0.3c0-0.7,0-1.2,0-1.8c0-10.9,0.2-21.7-0.1-32.6
		c-0.3-9.9,10.2-15.1,17.3-10.5c0.1,0.1,0.3,0.1,0.6,0.2c0-1.9,0-3.8,0-5.6c0-2.4,0.1-4.8,0-7.2C98.6,31.6,109.1,26.6,116,31
		c0.2,0.1,0.4,0.2,0.8,0.3c-0.3-4.4,0.8-8.1,4.2-10.9c2.2-1.8,4.7-2.6,7.5-2.5c3.4,0.2,6.2,1.6,8.3,4.3c2.1,2.6,2.6,5.7,2.4,8.9
		c1.7-0.6,3.3-1.4,4.9-1.6c7.2-1,13,4.2,13,11.6c0,10,0,20.1,0,30.1c0,0.6,0,1.2,0,1.9c1.6-0.5,3.1-1.2,4.7-1.5
		c7-1,12.8,4,12.9,11.2c0.1,8.1,0,16.1,0,24.2c0,8,0.1,16,0,24c-0.1,8.5-2.3,16.5-6.7,23.9c-0.7,1.1-1.5,1.9-2.9,1.4
		c-1.5-0.5-2.1-2.1-1.2-3.6c4.7-7.7,6.3-16.1,6.2-25c-0.1-14.8,0-29.6,0-44.4c0-4-2.4-6.8-6-7c-3.6-0.2-6.6,2.4-6.8,6
		c-0.1,2.3,0,4.7,0,7c0,8.3,0,16.5,0,24.8c0,3-0.5,3.6-3.5,3.7c-9,0.5-16.3,7.9-16.7,16.9c0,0.3,0,0.5,0,0.8
		c-0.2,1.6-1.1,2.5-2.5,2.4c-1.4-0.1-2.2-1-2.2-2.6c0-5.1,1.7-9.7,4.9-13.7c3.9-4.9,9-7.6,15.2-8.4c0-0.5,0.1-1,0.1-1.5
		c0-23.3,0-46.7,0-70c0-4.5-2.7-7.4-6.6-7.4c-3.7,0-6.6,2.9-6.6,6.8c0,4.4,0,8.7,0,13.1c0,10.7,0,21.3,0,32c0,0.7,0,1.6-0.4,2.1
		c-0.5,0.6-1.5,1-2.2,0.9c-0.7-0.1-1.4-0.9-1.8-1.6c-0.3-0.5-0.2-1.2-0.2-1.8c0-18.5,0-37.1,0-55.6c0-3.9-1.8-6.3-5.2-7.1
		c-3.9-0.8-7.5,1.8-7.9,5.8c-0.1,0.7,0,1.3,0,2c0,18.1,0,36.2,0,54.2c0,0.4,0,0.8,0,1.2c0,2-0.8,3-2.4,2.9c-1.5,0-2.3-1-2.3-2.9
		c0-12.2,0-24.4,0-36.6c0-2.7,0-5.4,0-8.1c0-4.3-2.7-7.3-6.6-7.3c-4,0-6.7,2.9-6.7,7.4c0,16.5,0,33,0,49.6c0,1.8,0,3.6,0,5.5
		c0,1.8-0.8,2.7-2.3,2.8c-1.5,0-2.4-1-2.4-2.8c0-10.4,0-20.9,0-31.3c0-0.7,0-1.4-0.1-2c-0.3-3.8-3-6.2-6.7-6.2
		c-3.6,0-6.2,2.6-6.4,6.3c-0.1,1.3,0,2.7,0,4.1c0,10.8,0,21.5,0,32.3c0,1.1,0.3,1.7,1.3,2.3c10.9,6.8,17.1,16.7,19,29.3
		c1.6,10.6-0.7,20.4-7.1,29.2c-0.1,0.2-0.2,0.4-0.4,0.6c5.1,5.1,11.1,8.6,18,10.3c14.9,3.7,28.3,0.9,39.9-9.5
		c1.3-1.2,2.6-1.2,3.6-0.2c1.1,1.1,0.9,2.4-0.5,3.6c-7.7,7.2-16.9,11-27.3,12c-0.7,0.1-1.3,0.2-2,0.3c-1.7,0-3.3,0-5,0
		c-0.4-0.1-0.8-0.2-1.2-0.3c-6.9-0.5-13.4-2.3-19.4-5.8c-3.3-1.9-6.3-4.4-9.5-6.6c-0.1,0.1-0.5,0.4-0.8,0.8c-4.6,4.5-9.9,8-16,9.8
		c-3.1,0.9-6.4,1.4-9.5,2.1C66.4,177.6,64,177.6,61.6,177.6z"/>
	<path class="st1" d="M65,104.8c7.2,0,13.1,2.1,18.6,5.7c2.1,1.4,2.2,2.8,0.4,4.6c-6.8,6.8-13.6,13.6-20.4,20.4
		c-6.5,6.5-13,13-19.5,19.5c-2.1,2.1-3.3,1.9-4.9-0.6c-14.3-21.7,1.1-46.6,22.7-49.4C63.1,104.9,64.3,104.9,65,104.8z M78.8,113.2
		c-10.2-6.1-24.3-4.7-33.6,5.7c-8.6,9.7-8.6,22.8-3.2,31C54.3,137.7,66.6,125.4,78.8,113.2z"/>
	<path class="st1" d="M66.3,168.6c-7.5-0.1-13.5-2.1-18.9-5.8c-1.9-1.3-2.1-2.7-0.4-4.3c6.5-6.5,13-13,19.5-19.5
		c6.8-6.8,13.7-13.7,20.5-20.5c2.1-2.1,3.4-1.9,5,0.5c13.9,21.2-0.4,45.5-21.3,49.2C68.9,168.5,67.2,168.5,66.3,168.6z M52.2,160.1
		c8.7,5.6,21.8,5.3,31.4-3.4c10.2-9.3,11.6-23.3,5.4-33.4C76.7,135.6,64.5,147.9,52.2,160.1z"/>
</g>
</svg>
