<svg xmlns="http://www.w3.org/2000/svg" width="24.004" height="24" viewBox="0 0 24.004 24">
  <g id="Grupo_2608" data-name="Grupo 2608" transform="translate(-367.49 -787.441)">
    <path id="Trazado_1685" data-name="Trazado 1685" d="M379.5,787.441a12,12,0,1,1-12.012,11.977A12.006,12.006,0,0,1,379.5,787.441Zm5.639,10.2a13.678,13.678,0,0,0-.339-1.7,5.452,5.452,0,0,0-4.533-4.025,5.19,5.19,0,0,0-5.214,2.264,5.615,5.615,0,0,0-1.1,4.152,6.964,6.964,0,0,0,.811,2.3,32.388,32.388,0,0,0,4.451,6.279c.192.222.366.214.567-.02.363-.421.726-.844,1.074-1.277a28.628,28.628,0,0,0,3.37-5.006A7.289,7.289,0,0,0,385.141,797.642Z" transform="translate(0 0)" fill="#ff8000"/>
    <path id="Trazado_1686" data-name="Trazado 1686" d="M508.3,898.907a2.373,2.373,0,1,1,2.38-2.355A2.365,2.365,0,0,1,508.3,898.907Z" transform="translate(-128.814 -99.297)" fill="#ff8000"/>
  </g>
</svg>
