<svg xmlns="http://www.w3.org/2000/svg" width="463.687" height="103" viewBox="0 0 463.687 103">
  <g id="Grupo_219" data-name="Grupo 219" transform="translate(-433 -532)">
    <text id="Importante:_El_archivo_excel_que_va_a_subir_debe_tener_esta_estructura:_1ra_columna_cédulas_2da_columna_nombres_3ra_columna_con_los_correos" data-name="Importante:
El archivo excel que va a subir 
debe tener esta estructura:
1ra columna cédulas
2da columna nombres
3ra columna con los correos" transform="translate(433 546)" fill="#fa7e23" font-size="15" font-family="Roboto-Black, Roboto" font-weight="800"><tspan x="0" y="0">Importante:</tspan><tspan fill="#1c3247" font-family="Roboto-Regular, Roboto" font-weight="400"><tspan x="0" y="17">El archivo excel que va a subir </tspan><tspan x="0" y="34">debe tener esta estructura:</tspan></tspan><tspan fill="#1c3247" font-family="Roboto-Bold, Roboto" font-weight="700"><tspan x="0" y="51">1ra</tspan><tspan y="51" xml:space="preserve" font-family="Roboto-Regular, Roboto" font-weight="400"> columna </tspan><tspan y="51">cédulas</tspan><tspan x="0" y="68">2da</tspan><tspan y="68" xml:space="preserve" font-family="Roboto-Regular, Roboto" font-weight="400"> columna </tspan><tspan y="68">nombres</tspan><tspan x="0" y="85">3ra</tspan><tspan y="85" xml:space="preserve" font-family="Roboto-Regular, Roboto" font-weight="400"> columna con los </tspan><tspan y="85">correos</tspan></tspan></text>
    <g id="Grupo_216" data-name="Grupo 216" transform="translate(173.214 246.655)">
      <path id="Trazado_437" data-name="Trazado 437" d="M712.513,386.431H616.5V308.625h96.013" transform="translate(10.96 1.914)" fill="#ced8e0"/>
      <path id="Trazado_438" data-name="Trazado 438" d="M712.513,326.932H616.5V308.625h96.013" transform="translate(10.96 1.914)" fill="#1d3347"/>
      <path id="Trazado_439" data-name="Trazado 439" d="M548.763,386.431H483.188V308.625h65.575" transform="translate(0 1.914)" fill="#eac8a0"/>
      <path id="Trazado_440" data-name="Trazado 440" d="M548.763,326.932H483.188V308.625h65.575" transform="translate(0 1.914)" fill="#f29617"/>
      <path id="Trazado_441" data-name="Trazado 441" d="M684.726,329.469" transform="translate(16.569 3.628)" fill="#fff" stroke="#000" stroke-width="1"/>
      <g id="Grupo_193" data-name="Grupo 193" transform="translate(490.004 317.047)">
        <path id="Trazado_442" data-name="Trazado 442" d="M494.495,319.217a2.274,2.274,0,0,1-.745,1.574,2.544,2.544,0,0,1-1.727.565A2.459,2.459,0,0,1,490.7,321a2.348,2.348,0,0,1-.885-1.015,3.666,3.666,0,0,1-.325-1.528v-.589a3.679,3.679,0,0,1,.316-1.571,2.377,2.377,0,0,1,.907-1.048,2.528,2.528,0,0,1,1.366-.368,2.436,2.436,0,0,1,1.68.565,2.359,2.359,0,0,1,.74,1.6H493.4a1.555,1.555,0,0,0-.4-.98,1.31,1.31,0,0,0-.933-.3,1.277,1.277,0,0,0-1.1.522,2.608,2.608,0,0,0-.392,1.531v.56a2.769,2.769,0,0,0,.366,1.559,1.215,1.215,0,0,0,1.071.538,1.413,1.413,0,0,0,.97-.29,1.511,1.511,0,0,0,.411-.965Z" transform="translate(-489.486 -314.619)" fill="#fff"/>
        <path id="Trazado_443" data-name="Trazado 443" d="M497,321.375a2.177,2.177,0,0,1-1.621-.63,2.289,2.289,0,0,1-.621-1.678v-.129a2.817,2.817,0,0,1,.271-1.253,2.062,2.062,0,0,1,.76-.859,2.006,2.006,0,0,1,1.091-.307,1.84,1.84,0,0,1,1.478.609,2.58,2.58,0,0,1,.522,1.728v.424h-3.06a1.412,1.412,0,0,0,.387.918,1.165,1.165,0,0,0,.855.338,1.423,1.423,0,0,0,1.177-.584l.568.541a1.905,1.905,0,0,1-.752.651A2.345,2.345,0,0,1,497,321.375Zm-.126-4.013a.886.886,0,0,0-.7.3,1.575,1.575,0,0,0-.34.844h2v-.078a1.273,1.273,0,0,0-.281-.8A.879.879,0,0,0,496.875,317.362Zm.238-2.723h1.2l-1.2,1.312-.844,0Z" transform="translate(-489.053 -314.639)" fill="#fff"/>
        <path id="Trazado_444" data-name="Trazado 444" d="M499.138,318.912a2.792,2.792,0,0,1,.5-1.739,1.612,1.612,0,0,1,1.346-.655,1.53,1.53,0,0,1,1.2.518v-2.4h1.052v6.649h-.952l-.052-.486a1.548,1.548,0,0,1-1.26.573,1.6,1.6,0,0,1-1.331-.663A2.884,2.884,0,0,1,499.138,318.912Zm1.052.091a1.953,1.953,0,0,0,.275,1.115.894.894,0,0,0,.781.4.993.993,0,0,0,.944-.576v-2a.976.976,0,0,0-.935-.563.9.9,0,0,0-.788.4A2.175,2.175,0,0,0,500.19,319Z" transform="translate(-488.693 -314.639)" fill="#fff"/>
        <path id="Trazado_445" data-name="Trazado 445" d="M506.783,320.68a1.631,1.631,0,0,1-1.316.545,1.453,1.453,0,0,1-1.154-.446,1.9,1.9,0,0,1-.392-1.29v-3.035h1.053v3.022q0,.891.739.892a1.04,1.04,0,0,0,1.035-.55v-3.363H507.8v4.684h-.991Z" transform="translate(-488.299 -314.49)" fill="#fff"/>
        <path id="Trazado_446" data-name="Trazado 446" d="M509.61,321.288h-1.052v-6.649h1.052Z" transform="translate(-487.918 -314.639)" fill="#fff"/>
        <path id="Trazado_447" data-name="Trazado 447" d="M513.4,321.145a1.664,1.664,0,0,1-.121-.437,1.769,1.769,0,0,1-2.381.121,1.291,1.291,0,0,1-.446-1,1.33,1.33,0,0,1,.556-1.149,2.7,2.7,0,0,1,1.592-.4h.644v-.308a.815.815,0,0,0-.2-.581.8.8,0,0,0-.618-.219.922.922,0,0,0-.589.18.555.555,0,0,0-.23.457H510.55a1.167,1.167,0,0,1,.255-.721,1.7,1.7,0,0,1,.695-.526,2.449,2.449,0,0,1,.98-.19,1.967,1.967,0,0,1,1.313.413,1.472,1.472,0,0,1,.5,1.162v2.112a2.382,2.382,0,0,0,.179,1.009v.074Zm-1.156-.758a1.2,1.2,0,0,0,.587-.152,1,1,0,0,0,.413-.407v-.884h-.567a1.553,1.553,0,0,0-.879.2.662.662,0,0,0-.294.577.616.616,0,0,0,.2.483A.783.783,0,0,0,512.242,320.388Z" transform="translate(-487.763 -314.496)" fill="#fff"/>
      </g>
      <g id="Grupo_195" data-name="Grupo 195" transform="translate(562.049 315.965)">
        <g id="Grupo_194" data-name="Grupo 194">
          <path id="Trazado_448" data-name="Trazado 448" d="M561.058,320.262h-1.094l-2.81-4.472v4.472h-1.1v-6.3h1.1l2.818,4.49v-4.49h1.086Z" transform="translate(-556.058 -313.613)" fill="#a0a0a0"/>
          <path id="Trazado_449" data-name="Trazado 449" d="M561.6,317.76a2.759,2.759,0,0,1,.273-1.24,1.994,1.994,0,0,1,.766-.848,2.155,2.155,0,0,1,1.134-.3,2.049,2.049,0,0,1,1.539.609,2.4,2.4,0,0,1,.638,1.62l0,.247a2.789,2.789,0,0,1-.266,1.238,1.963,1.963,0,0,1-.762.844,2.174,2.174,0,0,1-1.145.3,2.034,2.034,0,0,1-1.587-.66,2.534,2.534,0,0,1-.6-1.761Zm1.052.091a1.882,1.882,0,0,0,.3,1.131,1.041,1.041,0,0,0,1.66-.005,2.083,2.083,0,0,0,.3-1.216,1.863,1.863,0,0,0-.305-1.125,1.029,1.029,0,0,0-1.647-.007A2.051,2.051,0,0,0,562.65,317.851Z" transform="translate(-555.603 -313.496)" fill="#a0a0a0"/>
          <path id="Trazado_450" data-name="Trazado 450" d="M567.433,315.462l.03.489a1.684,1.684,0,0,1,1.351-.576,1.294,1.294,0,0,1,1.286.719,1.662,1.662,0,0,1,1.437-.719,1.46,1.46,0,0,1,1.154.429,1.879,1.879,0,0,1,.387,1.263v3.079h-1.051V317.1a.931.931,0,0,0-.2-.654.851.851,0,0,0-.645-.208.875.875,0,0,0-.587.193,1.02,1.02,0,0,0-.318.5l0,3.212h-1.052v-3.082a.75.75,0,0,0-.844-.827.928.928,0,0,0-.9.514v3.395h-1.052v-4.684Z" transform="translate(-555.204 -313.496)" fill="#a0a0a0"/>
          <path id="Trazado_451" data-name="Trazado 451" d="M577.682,317.994a2.815,2.815,0,0,1-.487,1.736,1.586,1.586,0,0,1-1.34.645,1.531,1.531,0,0,1-1.281-.593l-.052.506h-.952v-6.649h1.052v2.415a1.523,1.523,0,0,1,1.225-.537,1.6,1.6,0,0,1,1.346.636,2.854,2.854,0,0,1,.489,1.779Zm-1.052-.091a1.994,1.994,0,0,0-.268-1.144.894.894,0,0,0-.779-.38.976.976,0,0,0-.961.6v1.931a.986.986,0,0,0,.97.61.884.884,0,0,0,.762-.369,1.912,1.912,0,0,0,.277-1.111Z" transform="translate(-554.618 -313.639)" fill="#a0a0a0"/>
          <path id="Trazado_452" data-name="Trazado 452" d="M580.638,316.423a2.539,2.539,0,0,0-.429-.035.965.965,0,0,0-.975.554v3.2h-1.051v-4.684h1l.027.523a1.184,1.184,0,0,1,1.055-.609,1,1,0,0,1,.373.061Z" transform="translate(-554.239 -313.496)" fill="#a0a0a0"/>
          <path id="Trazado_453" data-name="Trazado 453" d="M583.064,320.232a2.177,2.177,0,0,1-1.621-.63,2.289,2.289,0,0,1-.621-1.679v-.129a2.817,2.817,0,0,1,.271-1.253,2.062,2.062,0,0,1,.76-.859,2.006,2.006,0,0,1,1.091-.307,1.84,1.84,0,0,1,1.478.609,2.581,2.581,0,0,1,.522,1.728v.424h-3.061a1.413,1.413,0,0,0,.387.918,1.165,1.165,0,0,0,.855.338,1.424,1.424,0,0,0,1.177-.584l.567.541a1.9,1.9,0,0,1-.751.651A2.345,2.345,0,0,1,583.064,320.232Zm-.125-4.013a.886.886,0,0,0-.7.3,1.574,1.574,0,0,0-.34.844h2v-.078a1.272,1.272,0,0,0-.281-.8A.878.878,0,0,0,582.939,316.219Z" transform="translate(-554.022 -313.496)" fill="#a0a0a0"/>
        </g>
      </g>
      <g id="Grupo_196" data-name="Grupo 196" transform="translate(640.25 316.225)">
        <path id="Trazado_454" data-name="Trazado 454" d="M633.327,318.217a2.274,2.274,0,0,1-.745,1.574,2.545,2.545,0,0,1-1.727.565,2.46,2.46,0,0,1-1.327-.357,2.349,2.349,0,0,1-.885-1.015,3.669,3.669,0,0,1-.325-1.528v-.589a3.7,3.7,0,0,1,.316-1.571,2.378,2.378,0,0,1,.907-1.048,2.527,2.527,0,0,1,1.366-.368,2.436,2.436,0,0,1,1.68.565,2.359,2.359,0,0,1,.74,1.6h-1.091a1.555,1.555,0,0,0-.4-.98,1.31,1.31,0,0,0-.933-.3,1.278,1.278,0,0,0-1.1.522,2.608,2.608,0,0,0-.392,1.531v.559a2.77,2.77,0,0,0,.366,1.559,1.215,1.215,0,0,0,1.071.538,1.413,1.413,0,0,0,.97-.29,1.511,1.511,0,0,0,.411-.965Z" transform="translate(-628.318 -313.879)" fill="#fff"/>
        <path id="Trazado_455" data-name="Trazado 455" d="M633.574,317.76a2.759,2.759,0,0,1,.273-1.24,1.994,1.994,0,0,1,.766-.848,2.156,2.156,0,0,1,1.135-.3,2.047,2.047,0,0,1,1.538.609,2.4,2.4,0,0,1,.639,1.62l0,.247a2.8,2.8,0,0,1-.265,1.238,1.973,1.973,0,0,1-.763.844,2.175,2.175,0,0,1-1.145.3,2.03,2.03,0,0,1-1.585-.66,2.529,2.529,0,0,1-.6-1.761Zm1.052.091a1.882,1.882,0,0,0,.3,1.131,1.041,1.041,0,0,0,1.66-.005,2.083,2.083,0,0,0,.3-1.216,1.864,1.864,0,0,0-.305-1.125,1.029,1.029,0,0,0-1.647-.007A2.051,2.051,0,0,0,634.626,317.851Z" transform="translate(-627.886 -313.756)" fill="#fff"/>
        <path id="Trazado_456" data-name="Trazado 456" d="M640.874,316.423a2.539,2.539,0,0,0-.429-.035.965.965,0,0,0-.975.554v3.2h-1.052v-4.684h1l.027.523a1.184,1.184,0,0,1,1.055-.609.992.992,0,0,1,.372.061Z" transform="translate(-627.488 -313.756)" fill="#fff"/>
        <path id="Trazado_457" data-name="Trazado 457" d="M643.752,316.423a2.521,2.521,0,0,0-.429-.035.965.965,0,0,0-.974.554v3.2H641.3v-4.684h1l.025.523a1.187,1.187,0,0,1,1.057-.609.99.99,0,0,1,.371.061Z" transform="translate(-627.251 -313.756)" fill="#fff"/>
        <path id="Trazado_458" data-name="Trazado 458" d="M646.18,320.232a2.179,2.179,0,0,1-1.621-.63,2.289,2.289,0,0,1-.621-1.679v-.129a2.8,2.8,0,0,1,.271-1.253,2.057,2.057,0,0,1,.761-.859,1.994,1.994,0,0,1,1.09-.307,1.843,1.843,0,0,1,1.479.609,2.586,2.586,0,0,1,.521,1.728v.424H645a1.4,1.4,0,0,0,.387.918,1.165,1.165,0,0,0,.855.338,1.422,1.422,0,0,0,1.178-.584l.568.541a1.913,1.913,0,0,1-.752.651A2.343,2.343,0,0,1,646.18,320.232Zm-.124-4.013a.886.886,0,0,0-.7.3,1.565,1.565,0,0,0-.339.844h2v-.078a1.274,1.274,0,0,0-.283-.8A.874.874,0,0,0,646.056,316.219Z" transform="translate(-627.034 -313.756)" fill="#fff"/>
        <path id="Trazado_459" data-name="Trazado 459" d="M648.318,317.76a2.759,2.759,0,0,1,.273-1.24,2,2,0,0,1,.766-.848,2.157,2.157,0,0,1,1.134-.3,2.047,2.047,0,0,1,1.539.609,2.4,2.4,0,0,1,.638,1.62l0,.247a2.8,2.8,0,0,1-.265,1.238,1.977,1.977,0,0,1-.762.844,2.18,2.18,0,0,1-1.146.3,2.03,2.03,0,0,1-1.585-.66,2.529,2.529,0,0,1-.6-1.761Zm1.053.091a1.89,1.89,0,0,0,.3,1.131,1.042,1.042,0,0,0,1.661-.005,2.091,2.091,0,0,0,.3-1.216,1.863,1.863,0,0,0-.306-1.125,1.029,1.029,0,0,0-1.647-.007A2.052,2.052,0,0,0,649.371,317.851Z" transform="translate(-626.674 -313.756)" fill="#fff"/>
      </g>
      <g id="Grupo_197" data-name="Grupo 197" transform="translate(489.927 333.523)">
        <path id="Trazado_460" data-name="Trazado 460" d="M493.184,333.211a2.824,2.824,0,0,1-.479,1.769,1.913,1.913,0,0,1-2.8.012,2.738,2.738,0,0,1-.493-1.724v-1.027a2.786,2.786,0,0,1,.484-1.774,1.918,1.918,0,0,1,2.791-.005,2.734,2.734,0,0,1,.495,1.722Zm-1.107-1.129a2.054,2.054,0,0,0-.189-1.011.642.642,0,0,0-.593-.316.627.627,0,0,0-.576.3,1.9,1.9,0,0,0-.2.942v1.357a2.146,2.146,0,0,0,.186,1.014.632.632,0,0,0,.6.332.621.621,0,0,0,.585-.318,2.094,2.094,0,0,0,.188-.974Z" transform="translate(-489.415 -329.863)" fill="#1d3347"/>
        <path id="Trazado_461" data-name="Trazado 461" d="M496.182,333.288a1.4,1.4,0,0,1-1.011.424,1.5,1.5,0,0,1-1.184-.506,2.007,2.007,0,0,1-.445-1.37,2.131,2.131,0,0,1,.24-1.005,1.755,1.755,0,0,1,.668-.713,1.856,1.856,0,0,1,.965-.254,1.778,1.778,0,0,1,.982.276,1.811,1.811,0,0,1,.666.793,2.843,2.843,0,0,1,.242,1.183v.41a3.228,3.228,0,0,1-.694,2.191,2.622,2.622,0,0,1-1.965.851l-.272,0v-.923l.245,0A1.415,1.415,0,0,0,496.182,333.288Zm-.739-.422a.777.777,0,0,0,.462-.138.934.934,0,0,0,.293-.333v-.456a1.522,1.522,0,0,0-.215-.873.663.663,0,0,0-.575-.311.645.645,0,0,0-.548.3,1.3,1.3,0,0,0-.214.764,1.256,1.256,0,0,0,.209.749A.677.677,0,0,0,495.442,332.866Z" transform="translate(-489.076 -329.863)" fill="#1d3347"/>
        <path id="Trazado_462" data-name="Trazado 462" d="M501.036,333.412h.632v.893h-.632v1.207h-1.107v-1.207h-2.287l-.05-.7,2.325-3.674h1.119Zm-2.341,0h1.234v-1.969l-.073.126Z" transform="translate(-488.743 -329.857)" fill="#1d3347"/>
        <path id="Trazado_463" data-name="Trazado 463" d="M505.662,333.211a2.824,2.824,0,0,1-.478,1.769,1.913,1.913,0,0,1-2.8.012,2.738,2.738,0,0,1-.495-1.724v-1.027a2.785,2.785,0,0,1,.485-1.774,1.917,1.917,0,0,1,2.79-.005,2.727,2.727,0,0,1,.495,1.722Zm-1.107-1.129a2.041,2.041,0,0,0-.189-1.011.64.64,0,0,0-.592-.316.629.629,0,0,0-.577.3,1.915,1.915,0,0,0-.2.942v1.357a2.133,2.133,0,0,0,.186,1.014.631.631,0,0,0,.6.332.623.623,0,0,0,.587-.318,2.083,2.083,0,0,0,.187-.974Z" transform="translate(-488.389 -329.863)" fill="#1d3347"/>
        <path id="Trazado_464" data-name="Trazado 464" d="M508.2,331.857l1.045-1.923h1.321l-1.623,2.766,1.667,2.812h-1.338l-1.073-1.953-1.072,1.953h-1.338l1.667-2.812-1.624-2.766h1.321Z" transform="translate(-488.068 -329.857)" fill="#1d3347"/>
        <path id="Trazado_465" data-name="Trazado 465" d="M512.809,331.857l1.047-1.923h1.321l-1.624,2.766,1.667,2.812h-1.337l-1.074-1.953-1.072,1.953H510.4l1.667-2.812-1.624-2.766h1.323Z" transform="translate(-487.69 -329.857)" fill="#1d3347"/>
        <path id="Trazado_466" data-name="Trazado 466" d="M517.415,331.857l1.045-1.923h1.321l-1.624,2.766,1.667,2.812h-1.337l-1.073-1.953-1.072,1.953h-1.338l1.667-2.812-1.624-2.766h1.321Z" transform="translate(-487.311 -329.857)" fill="#1d3347"/>
        <path id="Trazado_467" data-name="Trazado 467" d="M522.02,331.857l1.047-1.923h1.321l-1.624,2.766,1.667,2.812h-1.337l-1.074-1.953-1.072,1.953H519.61l1.667-2.812-1.624-2.766h1.322Z" transform="translate(-486.933 -329.857)" fill="#1d3347"/>
        <path id="Trazado_468" data-name="Trazado 468" d="M526.626,331.857l1.045-1.923h1.321l-1.624,2.766,1.667,2.812H527.7l-1.072-1.953-1.072,1.953h-1.338l1.667-2.812-1.624-2.766h1.321Z" transform="translate(-486.554 -329.857)" fill="#1d3347"/>
        <path id="Trazado_469" data-name="Trazado 469" d="M531.231,331.857l1.047-1.923H533.6l-1.624,2.766,1.667,2.812H532.3l-1.074-1.953-1.072,1.953h-1.338l1.667-2.812-1.624-2.766h1.322Z" transform="translate(-486.175 -329.857)" fill="#1d3347"/>
      </g>
      <g id="Grupo_199" data-name="Grupo 199" transform="translate(562.056 333.6)">
        <g id="Grupo_198" data-name="Grupo 198">
          <path id="Trazado_470" data-name="Trazado 470" d="M556.8,334.91h2.643v.6h-3.383v-5.578h.74Z" transform="translate(-556.064 -329.934)" fill="#a5a4a4"/>
          <path id="Trazado_471" data-name="Trazado 471" d="M559.689,333.3a2.441,2.441,0,0,1,.24-1.1,1.782,1.782,0,0,1,.666-.751,1.817,1.817,0,0,1,.975-.264,1.745,1.745,0,0,1,1.37.587,2.252,2.252,0,0,1,.523,1.558v.05a2.467,2.467,0,0,1-.232,1.086,1.763,1.763,0,0,1-.662.749,1.84,1.84,0,0,1-.99.268,1.748,1.748,0,0,1-1.367-.587,2.249,2.249,0,0,1-.523-1.551Zm.713.084a1.765,1.765,0,0,0,.32,1.107,1.084,1.084,0,0,0,1.714-.005,1.947,1.947,0,0,0,.317-1.186,1.773,1.773,0,0,0-.324-1.1,1.076,1.076,0,0,0-1.707-.005A1.924,1.924,0,0,0,560.4,333.382Z" transform="translate(-555.766 -329.831)" fill="#a5a4a4"/>
          <path id="Trazado_472" data-name="Trazado 472" d="M566,331.9a2.181,2.181,0,0,0-.349-.027.935.935,0,0,0-.947.594v2.943H564v-4.145h.689l.012.478a1.1,1.1,0,0,1,.988-.555.726.726,0,0,1,.314.053Z" transform="translate(-555.412 -329.831)" fill="#a5a4a4"/>
          <path id="Trazado_473" data-name="Trazado 473" d="M568.117,335.486a1.812,1.812,0,0,1-1.371-.554,2.053,2.053,0,0,1-.529-1.48v-.13a2.488,2.488,0,0,1,.236-1.1,1.835,1.835,0,0,1,.659-.759,1.654,1.654,0,0,1,.918-.274,1.552,1.552,0,0,1,1.256.532,2.307,2.307,0,0,1,.448,1.525v.294h-2.808a1.476,1.476,0,0,0,.358.99,1.127,1.127,0,0,0,.872.378,1.226,1.226,0,0,0,.635-.154,1.592,1.592,0,0,0,.457-.406l.432.338A1.739,1.739,0,0,1,568.117,335.486Zm-.088-3.716a.947.947,0,0,0-.721.312,1.522,1.522,0,0,0-.359.875h2.076V332.9a1.35,1.35,0,0,0-.291-.838A.888.888,0,0,0,568.03,331.769Z" transform="translate(-555.229 -329.831)" fill="#a5a4a4"/>
          <path id="Trazado_474" data-name="Trazado 474" d="M570.891,331.264l.019.46a1.53,1.53,0,0,1,1.23-.537,1.184,1.184,0,0,1,1.183.667,1.545,1.545,0,0,1,1.322-.667q1.364,0,1.386,1.444v2.778h-.708v-2.735a.955.955,0,0,0-.2-.666.9.9,0,0,0-.682-.22.941.941,0,0,0-.656.235.965.965,0,0,0-.3.634v2.751h-.712v-2.716a.79.79,0,0,0-.885-.9.947.947,0,0,0-.953.594v3.026h-.709v-4.145Z" transform="translate(-554.9 -329.831)" fill="#a5a4a4"/>
          <path id="Trazado_475" data-name="Trazado 475" d="M579.262,335.512h-.736v-5.578h.736Z" transform="translate(-554.217 -329.934)" fill="#a5a4a4"/>
          <path id="Trazado_476" data-name="Trazado 476" d="M583.847,333.382a2.487,2.487,0,0,1-.433,1.525,1.39,1.39,0,0,1-1.172.579,1.521,1.521,0,0,1-1.188-.479v2h-.709v-5.739h.647l.034.46a1.459,1.459,0,0,1,1.2-.537,1.413,1.413,0,0,1,1.182.563,2.509,2.509,0,0,1,.435,1.567Zm-.709-.08a1.832,1.832,0,0,0-.3-1.107.964.964,0,0,0-.82-.406,1.041,1.041,0,0,0-.965.57v1.98a1.043,1.043,0,0,0,.973.567.956.956,0,0,0,.811-.4A2,2,0,0,0,583.138,333.3Z" transform="translate(-554.068 -329.831)" fill="#a5a4a4"/>
          <path id="Trazado_477" data-name="Trazado 477" d="M586.839,334.309a.518.518,0,0,0-.216-.446,2.075,2.075,0,0,0-.754-.275,3.562,3.562,0,0,1-.854-.276,1.213,1.213,0,0,1-.469-.383.914.914,0,0,1-.15-.528,1.074,1.074,0,0,1,.431-.861,1.678,1.678,0,0,1,1.1-.353,1.731,1.731,0,0,1,1.143.364,1.158,1.158,0,0,1,.439.931H586.8a.642.642,0,0,0-.247-.5.929.929,0,0,0-.622-.21.97.97,0,0,0-.606.169.529.529,0,0,0-.218.44.431.431,0,0,0,.2.387,2.52,2.52,0,0,0,.734.248,3.9,3.9,0,0,1,.86.284,1.257,1.257,0,0,1,.488.4.973.973,0,0,1,.159.565,1.062,1.062,0,0,1-.444.891,1.862,1.862,0,0,1-1.154.335,2.1,2.1,0,0,1-.881-.176,1.432,1.432,0,0,1-.6-.492,1.182,1.182,0,0,1-.216-.684h.709a.73.73,0,0,0,.285.565,1.106,1.106,0,0,0,.7.209,1.141,1.141,0,0,0,.645-.162A.5.5,0,0,0,586.839,334.309Z" transform="translate(-553.746 -329.831)" fill="#a5a4a4"/>
          <path id="Trazado_478" data-name="Trazado 478" d="M590.712,334.993a1.5,1.5,0,0,1-1.214.487,1.289,1.289,0,0,1-1.01-.385,1.672,1.672,0,0,1-.351-1.14v-2.7h.709v2.677q0,.943.766.943a1.062,1.062,0,0,0,1.081-.606v-3.014h.708V335.4h-.674Z" transform="translate(-553.427 -329.825)" fill="#a5a4a4"/>
          <path id="Trazado_479" data-name="Trazado 479" d="M592.815,331.264l.02.46a1.527,1.527,0,0,1,1.229-.537,1.185,1.185,0,0,1,1.184.667,1.564,1.564,0,0,1,.538-.483,1.6,1.6,0,0,1,.784-.184q1.364,0,1.387,1.444v2.778h-.709v-2.735a.955.955,0,0,0-.2-.666.9.9,0,0,0-.682-.22.938.938,0,0,0-.655.235.955.955,0,0,0-.3.634v2.751h-.712v-2.716a.791.791,0,0,0-.885-.9.948.948,0,0,0-.955.594v3.026h-.708v-4.145Z" transform="translate(-553.098 -329.831)" fill="#a5a4a4"/>
        </g>
      </g>
      <g id="Grupo_200" data-name="Grupo 200" transform="translate(640.345 333.292)">
        <path id="Trazado_480" data-name="Trazado 480" d="M629.076,331.264l.023.521a1.511,1.511,0,0,1,1.241-.6q1.315,0,1.326,1.483v2.739h-.709v-2.743a.951.951,0,0,0-.2-.662.822.822,0,0,0-.626-.214,1.016,1.016,0,0,0-.6.184,1.233,1.233,0,0,0-.406.482v2.954h-.709v-4.145Z" transform="translate(-628.406 -329.524)" fill="#1d3347"/>
        <path id="Trazado_481" data-name="Trazado 481" d="M632.232,333.3a2.441,2.441,0,0,1,.24-1.1,1.782,1.782,0,0,1,.666-.751,1.817,1.817,0,0,1,.975-.264,1.745,1.745,0,0,1,1.37.587,2.252,2.252,0,0,1,.523,1.558v.05a2.467,2.467,0,0,1-.232,1.086,1.764,1.764,0,0,1-.662.749,1.84,1.84,0,0,1-.99.268,1.747,1.747,0,0,1-1.367-.587,2.249,2.249,0,0,1-.523-1.551Zm.713.084a1.766,1.766,0,0,0,.32,1.107,1.084,1.084,0,0,0,1.714-.005,1.946,1.946,0,0,0,.317-1.186,1.773,1.773,0,0,0-.324-1.1,1.076,1.076,0,0,0-1.707-.005A1.924,1.924,0,0,0,632.945,333.382Z" transform="translate(-628.091 -329.524)" fill="#1d3347"/>
        <path id="Trazado_482" data-name="Trazado 482" d="M637.207,331.264l.019.46a1.531,1.531,0,0,1,1.23-.537,1.183,1.183,0,0,1,1.183.667,1.545,1.545,0,0,1,1.321-.667q1.365,0,1.387,1.444v2.778h-.709v-2.735a.955.955,0,0,0-.2-.666.9.9,0,0,0-.681-.22.941.941,0,0,0-.656.235.96.96,0,0,0-.3.634v2.751h-.712v-2.716a.79.79,0,0,0-.885-.9.946.946,0,0,0-.953.594v3.026h-.709v-4.145Z" transform="translate(-627.738 -329.524)" fill="#1d3347"/>
        <path id="Trazado_483" data-name="Trazado 483" d="M646.4,333.508a2.465,2.465,0,0,1-.437,1.527,1.4,1.4,0,0,1-1.173.577,1.444,1.444,0,0,1-1.213-.555l-.036.478h-.65V329.65h.709v2.2a1.437,1.437,0,0,1,1.184-.532,1.4,1.4,0,0,1,1.185.57,2.537,2.537,0,0,1,.432,1.564Zm-.71-.08a1.927,1.927,0,0,0-.278-1.119.926.926,0,0,0-.806-.394,1.039,1.039,0,0,0-1.006.65v1.793a1.068,1.068,0,0,0,1.015.652.922.922,0,0,0,.793-.395A2.034,2.034,0,0,0,645.695,333.428Z" transform="translate(-627.215 -329.65)" fill="#1d3347"/>
        <path id="Trazado_484" data-name="Trazado 484" d="M648.966,331.9a2.192,2.192,0,0,0-.349-.027.935.935,0,0,0-.947.594v2.943h-.708v-4.145h.689l.011.478a1.1,1.1,0,0,1,.988-.555.731.731,0,0,1,.315.053Z" transform="translate(-626.88 -329.524)" fill="#1d3347"/>
        <path id="Trazado_485" data-name="Trazado 485" d="M651.081,335.486a1.809,1.809,0,0,1-1.37-.554,2.058,2.058,0,0,1-.529-1.48v-.13a2.488,2.488,0,0,1,.236-1.1,1.834,1.834,0,0,1,.659-.759,1.657,1.657,0,0,1,.917-.274,1.554,1.554,0,0,1,1.258.532,2.307,2.307,0,0,1,.448,1.525v.294h-2.808a1.475,1.475,0,0,0,.358.99,1.125,1.125,0,0,0,.872.378,1.227,1.227,0,0,0,.635-.154,1.586,1.586,0,0,0,.456-.406l.434.338A1.743,1.743,0,0,1,651.081,335.486Zm-.088-3.716a.946.946,0,0,0-.72.312,1.524,1.524,0,0,0-.36.875h2.077V332.9a1.355,1.355,0,0,0-.291-.838A.888.888,0,0,0,650.994,331.769Z" transform="translate(-626.698 -329.524)" fill="#1d3347"/>
        <path id="Trazado_486" data-name="Trazado 486" d="M659.318,333.581a2.558,2.558,0,0,1-.459,1.463,1.328,1.328,0,0,1-1.108.537.869.869,0,0,1-.919-.644,1.454,1.454,0,0,1-.474.485,1.057,1.057,0,0,1-.549.159.912.912,0,0,1-.824-.445,1.944,1.944,0,0,1-.208-1.229,3.355,3.355,0,0,1,.29-1.129,2.077,2.077,0,0,1,.6-.779,1.236,1.236,0,0,1,.768-.284,1.719,1.719,0,0,1,.554.082,1.866,1.866,0,0,1,.552.324l-.2,2.122q-.073.885.49.885a.8.8,0,0,0,.7-.429,2.256,2.256,0,0,0,.291-1.119,3.3,3.3,0,0,0-.553-2.273,2.3,2.3,0,0,0-1.907-.781,2.482,2.482,0,0,0-1.367.382,2.593,2.593,0,0,0-.944,1.1,4.25,4.25,0,0,0-.386,1.663,3.96,3.96,0,0,0,.231,1.649,2.19,2.19,0,0,0,.84,1.068,2.442,2.442,0,0,0,1.367.37,2.918,2.918,0,0,0,.691-.084,2.156,2.156,0,0,0,.576-.219l.143.44a2.171,2.171,0,0,1-.631.246,3.353,3.353,0,0,1-.8.1,3.037,3.037,0,0,1-1.647-.431,2.619,2.619,0,0,1-1.032-1.241,4.359,4.359,0,0,1-.3-1.894,4.606,4.606,0,0,1,.472-1.895,3.2,3.2,0,0,1,1.153-1.3,3.257,3.257,0,0,1,3.28-.029,2.589,2.589,0,0,1,1.015,1.238A4.418,4.418,0,0,1,659.318,333.581Zm-3.93.326a1.485,1.485,0,0,0,.1.834.516.516,0,0,0,.492.291.652.652,0,0,0,.442-.195,1.448,1.448,0,0,0,.351-.559l0-.035.175-1.926a.979.979,0,0,0-.46-.112.858.858,0,0,0-.74.456A2.766,2.766,0,0,0,655.388,333.907Z" transform="translate(-626.375 -329.619)" fill="#1d3347"/>
        <path id="Trazado_487" data-name="Trazado 487" d="M659.544,333.3a2.438,2.438,0,0,1,.448-1.542,1.545,1.545,0,0,1,2.371-.036l.036-.46h.646v4.045a1.684,1.684,0,0,1-.476,1.267,1.761,1.761,0,0,1-1.283.464,2.132,2.132,0,0,1-.877-.192,1.522,1.522,0,0,1-.656-.525l.368-.425a1.388,1.388,0,0,0,1.115.564,1.085,1.085,0,0,0,.807-.292,1.113,1.113,0,0,0,.289-.819V335a1.455,1.455,0,0,1-1.16.49,1.416,1.416,0,0,1-1.179-.587A2.563,2.563,0,0,1,659.544,333.3Zm.712.08a1.86,1.86,0,0,0,.288,1.1.935.935,0,0,0,.8.4,1.037,1.037,0,0,0,.985-.609v-1.892a1.048,1.048,0,0,0-.976-.594.94.94,0,0,0-.808.4A2.02,2.02,0,0,0,660.256,333.382Z" transform="translate(-625.846 -329.524)" fill="#1d3347"/>
        <path id="Trazado_488" data-name="Trazado 488" d="M664.434,331.264l.018.46a1.533,1.533,0,0,1,1.231-.537,1.185,1.185,0,0,1,1.184.667,1.573,1.573,0,0,1,.538-.483,1.6,1.6,0,0,1,.785-.184q1.362,0,1.386,1.444v2.778h-.709v-2.735a.954.954,0,0,0-.2-.666.9.9,0,0,0-.682-.22.938.938,0,0,0-.655.235.96.96,0,0,0-.3.634v2.751h-.713v-2.716a.79.79,0,0,0-.884-.9.947.947,0,0,0-.954.594v3.026h-.708v-4.145Z" transform="translate(-625.499 -329.524)" fill="#1d3347"/>
        <path id="Trazado_489" data-name="Trazado 489" d="M672.69,335.409a1.469,1.469,0,0,1-.1-.436,1.587,1.587,0,0,1-1.181.513,1.46,1.46,0,0,1-1.005-.347,1.12,1.12,0,0,1-.393-.879,1.169,1.169,0,0,1,.492-1.005,2.316,2.316,0,0,1,1.384-.358h.69v-.326a.8.8,0,0,0-.222-.592.9.9,0,0,0-.656-.221,1.036,1.036,0,0,0-.636.192.565.565,0,0,0-.256.464H670.1a.973.973,0,0,1,.22-.6,1.488,1.488,0,0,1,.6-.458,2,2,0,0,1,.829-.169,1.636,1.636,0,0,1,1.122.358,1.289,1.289,0,0,1,.421.986v1.908a2.321,2.321,0,0,0,.146.908v.062Zm-1.176-.54a1.244,1.244,0,0,0,.632-.172,1.047,1.047,0,0,0,.434-.449V333.4h-.556q-1.3,0-1.3.763a.647.647,0,0,0,.222.522A.858.858,0,0,0,671.513,334.869Z" transform="translate(-624.985 -329.524)" fill="#1d3347"/>
        <path id="Trazado_490" data-name="Trazado 490" d="M674.068,330.273a.422.422,0,0,1,.106-.291.391.391,0,0,1,.312-.119.4.4,0,0,1,.314.119.413.413,0,0,1,.108.291.4.4,0,0,1-.108.287.4.4,0,0,1-.314.115.4.4,0,0,1-.312-.115A.407.407,0,0,1,674.068,330.273Zm.766,5.244h-.709v-4.145h.709Z" transform="translate(-624.652 -329.633)" fill="#1d3347"/>
        <path id="Trazado_491" data-name="Trazado 491" d="M676.589,335.535h-.709V329.65h.709Z" transform="translate(-624.503 -329.65)" fill="#1d3347"/>
        <path id="Trazado_492" data-name="Trazado 492" d="M677.6,334.778a.446.446,0,0,1,.108-.307.419.419,0,0,1,.328-.122.434.434,0,0,1,.332.122.439.439,0,0,1,.112.307.413.413,0,0,1-.112.294.441.441,0,0,1-.332.119.425.425,0,0,1-.328-.119A.419.419,0,0,1,677.6,334.778Z" transform="translate(-624.362 -329.264)" fill="#1d3347"/>
        <path id="Trazado_493" data-name="Trazado 493" d="M681.168,334.907a1.026,1.026,0,0,0,.663-.229.813.813,0,0,0,.314-.575h.67a1.279,1.279,0,0,1-.246.677,1.6,1.6,0,0,1-.6.514,1.749,1.749,0,0,1-.8.192,1.708,1.708,0,0,1-1.346-.565,2.251,2.251,0,0,1-.5-1.546v-.118a2.51,2.51,0,0,1,.223-1.077,1.684,1.684,0,0,1,.637-.732,1.808,1.808,0,0,1,.983-.261,1.662,1.662,0,0,1,1.16.418,1.493,1.493,0,0,1,.491,1.084h-.67a.977.977,0,0,0-.305-.661.95.95,0,0,0-.676-.259.992.992,0,0,0-.837.389,1.827,1.827,0,0,0-.3,1.124v.134a1.792,1.792,0,0,0,.294,1.1A1,1,0,0,0,681.168,334.907Z" transform="translate(-624.22 -329.524)" fill="#1d3347"/>
        <path id="Trazado_494" data-name="Trazado 494" d="M683.113,333.3a2.456,2.456,0,0,1,.239-1.1,1.783,1.783,0,0,1,.667-.751,1.818,1.818,0,0,1,.976-.264,1.745,1.745,0,0,1,1.369.587,2.252,2.252,0,0,1,.523,1.558v.05a2.483,2.483,0,0,1-.232,1.086,1.759,1.759,0,0,1-.663.749,1.835,1.835,0,0,1-.99.268,1.742,1.742,0,0,1-1.365-.587,2.239,2.239,0,0,1-.524-1.551Zm.712.084a1.773,1.773,0,0,0,.32,1.107,1.084,1.084,0,0,0,1.714-.005,1.932,1.932,0,0,0,.318-1.186,1.766,1.766,0,0,0-.324-1.1,1.076,1.076,0,0,0-1.707-.005A1.924,1.924,0,0,0,683.825,333.382Z" transform="translate(-623.908 -329.524)" fill="#1d3347"/>
        <path id="Trazado_495" data-name="Trazado 495" d="M688.088,331.264l.019.46a1.53,1.53,0,0,1,1.229-.537,1.183,1.183,0,0,1,1.184.667,1.575,1.575,0,0,1,.538-.483,1.6,1.6,0,0,1,.785-.184q1.364,0,1.386,1.444v2.778h-.709v-2.735a.954.954,0,0,0-.2-.666.9.9,0,0,0-.682-.22.939.939,0,0,0-.655.235.954.954,0,0,0-.3.634v2.751h-.714v-2.716a.79.79,0,0,0-.884-.9.947.947,0,0,0-.954.594v3.026h-.708v-4.145Z" transform="translate(-623.555 -329.524)" fill="#1d3347"/>
      </g>
      <path id="Trazado_496" data-name="Trazado 496" d="M684.726,342.357" transform="translate(16.569 4.687)" fill="#fff" stroke="#000" stroke-width="1"/>
      <g id="Grupo_201" data-name="Grupo 201" transform="translate(489.927 348.133)">
        <path id="Trazado_497" data-name="Trazado 497" d="M493.184,346.711a2.824,2.824,0,0,1-.479,1.769,1.913,1.913,0,0,1-2.8.012,2.738,2.738,0,0,1-.493-1.724v-1.027a2.785,2.785,0,0,1,.484-1.774,1.918,1.918,0,0,1,2.791-.005,2.734,2.734,0,0,1,.495,1.722Zm-1.107-1.129a2.054,2.054,0,0,0-.189-1.011.642.642,0,0,0-.593-.316.627.627,0,0,0-.576.3,1.9,1.9,0,0,0-.2.942v1.357a2.146,2.146,0,0,0,.186,1.014.632.632,0,0,0,.6.332.621.621,0,0,0,.585-.318,2.094,2.094,0,0,0,.188-.974Z" transform="translate(-489.415 -343.363)" fill="#1d3347"/>
        <path id="Trazado_498" data-name="Trazado 498" d="M496.182,346.788a1.4,1.4,0,0,1-1.011.424,1.5,1.5,0,0,1-1.184-.506,2.007,2.007,0,0,1-.445-1.37,2.131,2.131,0,0,1,.24-1.005,1.755,1.755,0,0,1,.668-.713,1.856,1.856,0,0,1,.965-.254,1.777,1.777,0,0,1,.982.276,1.811,1.811,0,0,1,.666.793,2.844,2.844,0,0,1,.242,1.183v.41a3.228,3.228,0,0,1-.694,2.191,2.621,2.621,0,0,1-1.965.851l-.272,0v-.923l.245,0A1.415,1.415,0,0,0,496.182,346.788Zm-.739-.422a.777.777,0,0,0,.462-.137.934.934,0,0,0,.293-.333v-.456a1.522,1.522,0,0,0-.215-.873.664.664,0,0,0-.575-.311.645.645,0,0,0-.548.3,1.3,1.3,0,0,0-.214.764,1.256,1.256,0,0,0,.209.749A.677.677,0,0,0,495.442,346.366Z" transform="translate(-489.076 -343.363)" fill="#1d3347"/>
        <path id="Trazado_499" data-name="Trazado 499" d="M501.036,346.912h.632v.893h-.632v1.207h-1.107v-1.207h-2.287l-.05-.7,2.325-3.674h1.119Zm-2.341,0h1.234v-1.969l-.073.126Z" transform="translate(-488.743 -343.357)" fill="#1d3347"/>
        <path id="Trazado_500" data-name="Trazado 500" d="M505.662,346.711a2.824,2.824,0,0,1-.478,1.769,1.913,1.913,0,0,1-2.8.012,2.738,2.738,0,0,1-.495-1.724v-1.027a2.785,2.785,0,0,1,.485-1.774,1.917,1.917,0,0,1,2.79-.005,2.727,2.727,0,0,1,.495,1.722Zm-1.107-1.129a2.041,2.041,0,0,0-.189-1.011.641.641,0,0,0-.592-.316.629.629,0,0,0-.577.3,1.915,1.915,0,0,0-.2.942v1.357a2.133,2.133,0,0,0,.186,1.014.631.631,0,0,0,.6.332.623.623,0,0,0,.587-.318,2.082,2.082,0,0,0,.187-.974Z" transform="translate(-488.389 -343.363)" fill="#1d3347"/>
        <path id="Trazado_501" data-name="Trazado 501" d="M508.2,345.357l1.045-1.923h1.321l-1.623,2.766,1.667,2.812h-1.338l-1.073-1.953-1.072,1.953h-1.338l1.667-2.812-1.624-2.766h1.321Z" transform="translate(-488.068 -343.357)" fill="#1d3347"/>
        <path id="Trazado_502" data-name="Trazado 502" d="M512.809,345.357l1.047-1.923h1.321l-1.624,2.766,1.667,2.812h-1.337l-1.074-1.953-1.072,1.953H510.4l1.667-2.812-1.624-2.766h1.323Z" transform="translate(-487.69 -343.357)" fill="#1d3347"/>
        <path id="Trazado_503" data-name="Trazado 503" d="M517.415,345.357l1.045-1.923h1.321l-1.624,2.766,1.667,2.812h-1.337l-1.073-1.953-1.072,1.953h-1.338l1.667-2.812-1.624-2.766h1.321Z" transform="translate(-487.311 -343.357)" fill="#1d3347"/>
        <path id="Trazado_504" data-name="Trazado 504" d="M522.02,345.357l1.047-1.923h1.321l-1.624,2.766,1.667,2.812h-1.337l-1.074-1.953-1.072,1.953H519.61l1.667-2.812-1.624-2.766h1.322Z" transform="translate(-486.933 -343.357)" fill="#1d3347"/>
        <path id="Trazado_505" data-name="Trazado 505" d="M526.626,345.357l1.045-1.923h1.321l-1.624,2.766,1.667,2.812H527.7l-1.072-1.953-1.072,1.953h-1.338l1.667-2.812-1.624-2.766h1.321Z" transform="translate(-486.554 -343.357)" fill="#1d3347"/>
        <path id="Trazado_506" data-name="Trazado 506" d="M531.231,345.357l1.047-1.923H533.6l-1.624,2.766,1.667,2.812H532.3l-1.074-1.953-1.072,1.953h-1.338l1.667-2.812-1.624-2.766h1.322Z" transform="translate(-486.175 -343.357)" fill="#1d3347"/>
      </g>
      <g id="Grupo_203" data-name="Grupo 203" transform="translate(562.056 348.21)">
        <g id="Grupo_202" data-name="Grupo 202">
          <path id="Trazado_507" data-name="Trazado 507" d="M556.8,348.41h2.643v.6h-3.383v-5.578h.74Z" transform="translate(-556.064 -343.434)" fill="#a5a4a4"/>
          <path id="Trazado_508" data-name="Trazado 508" d="M559.689,346.8a2.441,2.441,0,0,1,.24-1.1,1.781,1.781,0,0,1,.666-.751,1.816,1.816,0,0,1,.975-.264,1.745,1.745,0,0,1,1.37.587,2.252,2.252,0,0,1,.523,1.558v.05a2.468,2.468,0,0,1-.232,1.087,1.764,1.764,0,0,1-.662.749,1.84,1.84,0,0,1-.99.268,1.748,1.748,0,0,1-1.367-.587,2.249,2.249,0,0,1-.523-1.551Zm.713.084a1.766,1.766,0,0,0,.32,1.107,1.084,1.084,0,0,0,1.714-.005,1.947,1.947,0,0,0,.317-1.186,1.772,1.772,0,0,0-.324-1.1,1.076,1.076,0,0,0-1.707-.005A1.925,1.925,0,0,0,560.4,346.882Z" transform="translate(-555.766 -343.331)" fill="#a5a4a4"/>
          <path id="Trazado_509" data-name="Trazado 509" d="M566,345.4a2.181,2.181,0,0,0-.349-.027.935.935,0,0,0-.947.594v2.943H564v-4.145h.689l.012.478a1.1,1.1,0,0,1,.988-.555.727.727,0,0,1,.314.053Z" transform="translate(-555.412 -343.331)" fill="#a5a4a4"/>
          <path id="Trazado_510" data-name="Trazado 510" d="M568.117,348.986a1.811,1.811,0,0,1-1.371-.554,2.053,2.053,0,0,1-.529-1.48v-.13a2.488,2.488,0,0,1,.236-1.1,1.835,1.835,0,0,1,.659-.759,1.654,1.654,0,0,1,.918-.274,1.552,1.552,0,0,1,1.256.532,2.307,2.307,0,0,1,.448,1.525v.294h-2.808a1.476,1.476,0,0,0,.358.99,1.126,1.126,0,0,0,.872.378,1.226,1.226,0,0,0,.635-.154,1.592,1.592,0,0,0,.457-.406l.432.338A1.739,1.739,0,0,1,568.117,348.986Zm-.088-3.716a.947.947,0,0,0-.721.312,1.522,1.522,0,0,0-.359.875h2.076V346.4a1.35,1.35,0,0,0-.291-.838A.887.887,0,0,0,568.03,345.269Z" transform="translate(-555.229 -343.331)" fill="#a5a4a4"/>
          <path id="Trazado_511" data-name="Trazado 511" d="M570.891,344.764l.019.46a1.53,1.53,0,0,1,1.23-.537,1.184,1.184,0,0,1,1.183.667,1.545,1.545,0,0,1,1.322-.667q1.364,0,1.386,1.444v2.778h-.708v-2.735a.955.955,0,0,0-.2-.666.9.9,0,0,0-.682-.22.941.941,0,0,0-.656.235.965.965,0,0,0-.3.634v2.751h-.712v-2.716a.79.79,0,0,0-.885-.9.947.947,0,0,0-.953.594v3.026h-.709v-4.145Z" transform="translate(-554.9 -343.331)" fill="#a5a4a4"/>
          <path id="Trazado_512" data-name="Trazado 512" d="M579.262,349.012h-.736v-5.578h.736Z" transform="translate(-554.217 -343.434)" fill="#a5a4a4"/>
          <path id="Trazado_513" data-name="Trazado 513" d="M583.847,346.882a2.487,2.487,0,0,1-.433,1.525,1.39,1.39,0,0,1-1.172.579,1.521,1.521,0,0,1-1.188-.479v2h-.709v-5.739h.647l.034.46a1.459,1.459,0,0,1,1.2-.537,1.413,1.413,0,0,1,1.182.563,2.509,2.509,0,0,1,.435,1.567Zm-.709-.08a1.832,1.832,0,0,0-.3-1.107.964.964,0,0,0-.82-.406,1.041,1.041,0,0,0-.965.57v1.98a1.043,1.043,0,0,0,.973.567.956.956,0,0,0,.811-.4A2,2,0,0,0,583.138,346.8Z" transform="translate(-554.068 -343.331)" fill="#a5a4a4"/>
          <path id="Trazado_514" data-name="Trazado 514" d="M586.839,347.809a.518.518,0,0,0-.216-.446,2.074,2.074,0,0,0-.754-.275,3.562,3.562,0,0,1-.854-.276,1.213,1.213,0,0,1-.469-.383.914.914,0,0,1-.15-.528,1.074,1.074,0,0,1,.431-.861,1.678,1.678,0,0,1,1.1-.353,1.731,1.731,0,0,1,1.143.364,1.159,1.159,0,0,1,.439.931H586.8a.641.641,0,0,0-.247-.5.929.929,0,0,0-.622-.21.97.97,0,0,0-.606.169.529.529,0,0,0-.218.44.431.431,0,0,0,.2.387,2.519,2.519,0,0,0,.734.248,3.9,3.9,0,0,1,.86.284,1.259,1.259,0,0,1,.488.4.973.973,0,0,1,.159.565,1.062,1.062,0,0,1-.444.891,1.862,1.862,0,0,1-1.154.335,2.1,2.1,0,0,1-.881-.176,1.432,1.432,0,0,1-.6-.492,1.182,1.182,0,0,1-.216-.684h.709a.73.73,0,0,0,.285.565,1.106,1.106,0,0,0,.7.209,1.142,1.142,0,0,0,.645-.162A.5.5,0,0,0,586.839,347.809Z" transform="translate(-553.746 -343.331)" fill="#a5a4a4"/>
          <path id="Trazado_515" data-name="Trazado 515" d="M590.712,348.493a1.5,1.5,0,0,1-1.214.487,1.289,1.289,0,0,1-1.01-.385,1.672,1.672,0,0,1-.351-1.14v-2.7h.709v2.677q0,.943.766.943a1.062,1.062,0,0,0,1.081-.606v-3.014h.708V348.9h-.674Z" transform="translate(-553.427 -343.325)" fill="#a5a4a4"/>
          <path id="Trazado_516" data-name="Trazado 516" d="M592.815,344.764l.02.46a1.527,1.527,0,0,1,1.229-.537,1.185,1.185,0,0,1,1.184.667,1.564,1.564,0,0,1,.538-.483,1.6,1.6,0,0,1,.784-.184q1.364,0,1.387,1.444v2.778h-.709v-2.735a.955.955,0,0,0-.2-.666.9.9,0,0,0-.682-.22.938.938,0,0,0-.655.235.955.955,0,0,0-.3.634v2.751h-.712v-2.716a.791.791,0,0,0-.885-.9.948.948,0,0,0-.955.594v3.026h-.708v-4.145Z" transform="translate(-553.098 -343.331)" fill="#a5a4a4"/>
        </g>
      </g>
      <g id="Grupo_204" data-name="Grupo 204" transform="translate(640.345 347.902)">
        <path id="Trazado_517" data-name="Trazado 517" d="M629.076,344.764l.023.521a1.511,1.511,0,0,1,1.241-.6q1.315,0,1.326,1.483v2.739h-.709v-2.743a.951.951,0,0,0-.2-.662.822.822,0,0,0-.626-.214,1.016,1.016,0,0,0-.6.184,1.233,1.233,0,0,0-.406.482v2.954h-.709v-4.145Z" transform="translate(-628.406 -343.024)" fill="#1d3347"/>
        <path id="Trazado_518" data-name="Trazado 518" d="M632.232,346.8a2.441,2.441,0,0,1,.24-1.1,1.781,1.781,0,0,1,.666-.751,1.816,1.816,0,0,1,.975-.264,1.745,1.745,0,0,1,1.37.587,2.252,2.252,0,0,1,.523,1.558v.05a2.468,2.468,0,0,1-.232,1.087,1.764,1.764,0,0,1-.662.749,1.84,1.84,0,0,1-.99.268,1.747,1.747,0,0,1-1.367-.587,2.249,2.249,0,0,1-.523-1.551Zm.713.084a1.766,1.766,0,0,0,.32,1.107,1.084,1.084,0,0,0,1.714-.005,1.946,1.946,0,0,0,.317-1.186,1.772,1.772,0,0,0-.324-1.1,1.076,1.076,0,0,0-1.707-.005A1.925,1.925,0,0,0,632.945,346.882Z" transform="translate(-628.091 -343.024)" fill="#1d3347"/>
        <path id="Trazado_519" data-name="Trazado 519" d="M637.207,344.764l.019.46a1.53,1.53,0,0,1,1.23-.537,1.183,1.183,0,0,1,1.183.667,1.545,1.545,0,0,1,1.321-.667q1.365,0,1.387,1.444v2.778h-.709v-2.735a.955.955,0,0,0-.2-.666.9.9,0,0,0-.681-.22.941.941,0,0,0-.656.235.96.96,0,0,0-.3.634v2.751h-.712v-2.716a.79.79,0,0,0-.885-.9.946.946,0,0,0-.953.594v3.026h-.709v-4.145Z" transform="translate(-627.738 -343.024)" fill="#1d3347"/>
        <path id="Trazado_520" data-name="Trazado 520" d="M646.4,347.008a2.465,2.465,0,0,1-.437,1.527,1.4,1.4,0,0,1-1.173.577,1.444,1.444,0,0,1-1.213-.555l-.036.478h-.65V343.15h.709v2.2a1.437,1.437,0,0,1,1.184-.532,1.4,1.4,0,0,1,1.185.57,2.537,2.537,0,0,1,.432,1.564Zm-.71-.08a1.927,1.927,0,0,0-.278-1.119.926.926,0,0,0-.806-.394,1.039,1.039,0,0,0-1.006.65v1.793a1.068,1.068,0,0,0,1.015.651.922.922,0,0,0,.793-.395A2.034,2.034,0,0,0,645.695,346.928Z" transform="translate(-627.215 -343.15)" fill="#1d3347"/>
        <path id="Trazado_521" data-name="Trazado 521" d="M648.966,345.4a2.192,2.192,0,0,0-.349-.027.935.935,0,0,0-.947.594v2.943h-.708v-4.145h.689l.011.478a1.1,1.1,0,0,1,.988-.555.732.732,0,0,1,.315.053Z" transform="translate(-626.88 -343.024)" fill="#1d3347"/>
        <path id="Trazado_522" data-name="Trazado 522" d="M651.081,348.986a1.809,1.809,0,0,1-1.37-.554,2.058,2.058,0,0,1-.529-1.48v-.13a2.488,2.488,0,0,1,.236-1.1,1.834,1.834,0,0,1,.659-.759,1.657,1.657,0,0,1,.917-.274,1.554,1.554,0,0,1,1.258.532,2.307,2.307,0,0,1,.448,1.525v.294h-2.808a1.475,1.475,0,0,0,.358.99,1.125,1.125,0,0,0,.872.378,1.227,1.227,0,0,0,.635-.154,1.587,1.587,0,0,0,.456-.406l.434.338A1.743,1.743,0,0,1,651.081,348.986Zm-.088-3.716a.946.946,0,0,0-.72.312,1.524,1.524,0,0,0-.36.875h2.077V346.4a1.354,1.354,0,0,0-.291-.838A.888.888,0,0,0,650.994,345.269Z" transform="translate(-626.698 -343.024)" fill="#1d3347"/>
        <path id="Trazado_523" data-name="Trazado 523" d="M659.318,347.081a2.557,2.557,0,0,1-.459,1.463,1.328,1.328,0,0,1-1.108.537.869.869,0,0,1-.919-.644,1.453,1.453,0,0,1-.474.485,1.056,1.056,0,0,1-.549.159.912.912,0,0,1-.824-.445,1.944,1.944,0,0,1-.208-1.229,3.355,3.355,0,0,1,.29-1.129,2.077,2.077,0,0,1,.6-.779,1.236,1.236,0,0,1,.768-.284,1.719,1.719,0,0,1,.554.082,1.868,1.868,0,0,1,.552.324l-.2,2.122q-.073.885.49.885a.8.8,0,0,0,.7-.429,2.256,2.256,0,0,0,.291-1.119,3.3,3.3,0,0,0-.553-2.273,2.3,2.3,0,0,0-1.907-.781,2.482,2.482,0,0,0-1.367.382,2.592,2.592,0,0,0-.944,1.1,4.25,4.25,0,0,0-.386,1.663,3.96,3.96,0,0,0,.231,1.649,2.189,2.189,0,0,0,.84,1.068,2.442,2.442,0,0,0,1.367.37,2.919,2.919,0,0,0,.691-.084,2.156,2.156,0,0,0,.576-.219l.143.44a2.171,2.171,0,0,1-.631.246,3.353,3.353,0,0,1-.8.1,3.038,3.038,0,0,1-1.647-.431,2.62,2.62,0,0,1-1.032-1.241,4.359,4.359,0,0,1-.3-1.894,4.606,4.606,0,0,1,.472-1.895,3.2,3.2,0,0,1,1.153-1.3,3.257,3.257,0,0,1,3.28-.029,2.589,2.589,0,0,1,1.015,1.238A4.418,4.418,0,0,1,659.318,347.081Zm-3.93.326a1.485,1.485,0,0,0,.1.834.517.517,0,0,0,.492.291.652.652,0,0,0,.442-.195,1.447,1.447,0,0,0,.351-.559l0-.035.175-1.926a.979.979,0,0,0-.46-.111.858.858,0,0,0-.74.456A2.765,2.765,0,0,0,655.388,347.407Z" transform="translate(-626.375 -343.119)" fill="#1d3347"/>
        <path id="Trazado_524" data-name="Trazado 524" d="M659.544,346.8a2.438,2.438,0,0,1,.448-1.542,1.545,1.545,0,0,1,2.371-.036l.036-.46h.646v4.045a1.683,1.683,0,0,1-.476,1.267,1.761,1.761,0,0,1-1.283.464,2.132,2.132,0,0,1-.877-.192,1.522,1.522,0,0,1-.656-.525l.368-.425a1.388,1.388,0,0,0,1.115.564,1.085,1.085,0,0,0,.807-.292,1.113,1.113,0,0,0,.289-.819V348.5a1.456,1.456,0,0,1-1.16.49,1.416,1.416,0,0,1-1.179-.587A2.563,2.563,0,0,1,659.544,346.8Zm.712.08a1.86,1.86,0,0,0,.288,1.1.935.935,0,0,0,.8.4,1.037,1.037,0,0,0,.985-.609v-1.892a1.048,1.048,0,0,0-.976-.594.94.94,0,0,0-.808.4A2.02,2.02,0,0,0,660.256,346.882Z" transform="translate(-625.846 -343.024)" fill="#1d3347"/>
        <path id="Trazado_525" data-name="Trazado 525" d="M664.434,344.764l.018.46a1.533,1.533,0,0,1,1.231-.537,1.185,1.185,0,0,1,1.184.667,1.573,1.573,0,0,1,.538-.483,1.6,1.6,0,0,1,.785-.184q1.362,0,1.386,1.444v2.778h-.709v-2.735a.954.954,0,0,0-.2-.666.9.9,0,0,0-.682-.22.938.938,0,0,0-.655.235.96.96,0,0,0-.3.634v2.751h-.713v-2.716a.79.79,0,0,0-.884-.9.947.947,0,0,0-.954.594v3.026h-.708v-4.145Z" transform="translate(-625.499 -343.024)" fill="#1d3347"/>
        <path id="Trazado_526" data-name="Trazado 526" d="M672.69,348.909a1.469,1.469,0,0,1-.1-.436,1.588,1.588,0,0,1-1.181.513,1.46,1.46,0,0,1-1.005-.347,1.12,1.12,0,0,1-.393-.879,1.169,1.169,0,0,1,.492-1.005,2.316,2.316,0,0,1,1.384-.358h.69v-.326a.8.8,0,0,0-.222-.592.9.9,0,0,0-.656-.221,1.036,1.036,0,0,0-.636.192.565.565,0,0,0-.256.464H670.1a.972.972,0,0,1,.22-.6,1.488,1.488,0,0,1,.6-.458,2,2,0,0,1,.829-.169,1.636,1.636,0,0,1,1.122.358,1.289,1.289,0,0,1,.421.986v1.908a2.321,2.321,0,0,0,.146.908v.062Zm-1.176-.54a1.244,1.244,0,0,0,.632-.172,1.047,1.047,0,0,0,.434-.449V346.9h-.556q-1.3,0-1.3.763a.647.647,0,0,0,.222.522A.858.858,0,0,0,671.513,348.369Z" transform="translate(-624.985 -343.024)" fill="#1d3347"/>
        <path id="Trazado_527" data-name="Trazado 527" d="M674.068,343.773a.422.422,0,0,1,.106-.291.391.391,0,0,1,.312-.119.4.4,0,0,1,.314.119.413.413,0,0,1,.108.291.4.4,0,0,1-.108.287.4.4,0,0,1-.314.115.4.4,0,0,1-.312-.115A.407.407,0,0,1,674.068,343.773Zm.766,5.244h-.709v-4.145h.709Z" transform="translate(-624.652 -343.133)" fill="#1d3347"/>
        <path id="Trazado_528" data-name="Trazado 528" d="M676.589,349.035h-.709V343.15h.709Z" transform="translate(-624.503 -343.15)" fill="#1d3347"/>
        <path id="Trazado_529" data-name="Trazado 529" d="M677.6,348.278a.446.446,0,0,1,.108-.307.419.419,0,0,1,.328-.122.434.434,0,0,1,.332.122.439.439,0,0,1,.112.307.413.413,0,0,1-.112.294.441.441,0,0,1-.332.119.425.425,0,0,1-.328-.119A.419.419,0,0,1,677.6,348.278Z" transform="translate(-624.362 -342.764)" fill="#1d3347"/>
        <path id="Trazado_530" data-name="Trazado 530" d="M681.168,348.407a1.026,1.026,0,0,0,.663-.229.813.813,0,0,0,.314-.575h.67a1.279,1.279,0,0,1-.246.677,1.6,1.6,0,0,1-.6.514,1.748,1.748,0,0,1-.8.192,1.708,1.708,0,0,1-1.346-.565,2.251,2.251,0,0,1-.5-1.546v-.118a2.51,2.51,0,0,1,.223-1.077,1.685,1.685,0,0,1,.637-.732,1.808,1.808,0,0,1,.983-.261,1.662,1.662,0,0,1,1.16.418,1.493,1.493,0,0,1,.491,1.084h-.67a.977.977,0,0,0-.305-.661.949.949,0,0,0-.676-.259.992.992,0,0,0-.837.388,1.828,1.828,0,0,0-.3,1.124v.134a1.792,1.792,0,0,0,.294,1.1A1,1,0,0,0,681.168,348.407Z" transform="translate(-624.22 -343.024)" fill="#1d3347"/>
        <path id="Trazado_531" data-name="Trazado 531" d="M683.113,346.8a2.456,2.456,0,0,1,.239-1.1,1.783,1.783,0,0,1,.667-.751,1.818,1.818,0,0,1,.976-.264,1.745,1.745,0,0,1,1.369.587,2.252,2.252,0,0,1,.523,1.558v.05a2.483,2.483,0,0,1-.232,1.087,1.759,1.759,0,0,1-.663.749,1.835,1.835,0,0,1-.99.268,1.743,1.743,0,0,1-1.365-.587,2.239,2.239,0,0,1-.524-1.551Zm.712.084a1.773,1.773,0,0,0,.32,1.107,1.084,1.084,0,0,0,1.714-.005,1.932,1.932,0,0,0,.318-1.186,1.766,1.766,0,0,0-.324-1.1,1.076,1.076,0,0,0-1.707-.005A1.924,1.924,0,0,0,683.825,346.882Z" transform="translate(-623.908 -343.024)" fill="#1d3347"/>
        <path id="Trazado_532" data-name="Trazado 532" d="M688.088,344.764l.019.46a1.53,1.53,0,0,1,1.229-.537,1.183,1.183,0,0,1,1.184.667,1.575,1.575,0,0,1,.538-.483,1.6,1.6,0,0,1,.785-.184q1.364,0,1.386,1.444v2.778h-.709v-2.735a.954.954,0,0,0-.2-.666.9.9,0,0,0-.682-.22.939.939,0,0,0-.655.235.954.954,0,0,0-.3.634v2.751h-.714v-2.716a.79.79,0,0,0-.884-.9.947.947,0,0,0-.954.594v3.026h-.708v-4.145Z" transform="translate(-623.555 -343.024)" fill="#1d3347"/>
      </g>
      <path id="Trazado_533" data-name="Trazado 533" d="M684.726,355.246" transform="translate(16.569 5.747)" fill="#fff" stroke="#000" stroke-width="1"/>
      <g id="Grupo_205" data-name="Grupo 205" transform="translate(489.927 363.163)">
        <path id="Trazado_534" data-name="Trazado 534" d="M493.184,360.6a2.824,2.824,0,0,1-.479,1.769,1.915,1.915,0,0,1-2.8.012,2.741,2.741,0,0,1-.493-1.725v-1.026a2.786,2.786,0,0,1,.484-1.774,1.916,1.916,0,0,1,2.791-.005,2.734,2.734,0,0,1,.495,1.722Zm-1.107-1.13a2.05,2.05,0,0,0-.189-1.01.643.643,0,0,0-.593-.317.629.629,0,0,0-.576.3,1.909,1.909,0,0,0-.2.943v1.357a2.149,2.149,0,0,0,.186,1.014.632.632,0,0,0,.6.332.62.62,0,0,0,.585-.319,2.09,2.09,0,0,0,.188-.974Z" transform="translate(-489.415 -357.251)" fill="#1d3347"/>
        <path id="Trazado_535" data-name="Trazado 535" d="M496.182,360.677a1.4,1.4,0,0,1-1.011.424,1.494,1.494,0,0,1-1.184-.508,2.006,2.006,0,0,1-.445-1.369,2.125,2.125,0,0,1,.24-1.005,1.749,1.749,0,0,1,.668-.713,1.857,1.857,0,0,1,.965-.255,1.777,1.777,0,0,1,.982.276,1.811,1.811,0,0,1,.666.793,2.849,2.849,0,0,1,.242,1.184v.41a3.228,3.228,0,0,1-.694,2.191,2.617,2.617,0,0,1-1.965.85l-.272,0v-.923l.245,0A1.415,1.415,0,0,0,496.182,360.677Zm-.739-.422a.778.778,0,0,0,.462-.139.926.926,0,0,0,.293-.333v-.456a1.522,1.522,0,0,0-.215-.873.666.666,0,0,0-.575-.311.646.646,0,0,0-.548.305,1.294,1.294,0,0,0-.214.764,1.256,1.256,0,0,0,.209.749A.677.677,0,0,0,495.442,360.255Z" transform="translate(-489.076 -357.251)" fill="#1d3347"/>
        <path id="Trazado_536" data-name="Trazado 536" d="M501.036,360.8h.632v.892h-.632V362.9h-1.107v-1.208h-2.287l-.05-.7,2.325-3.674h1.119Zm-2.341,0h1.234v-1.97l-.073.127Z" transform="translate(-488.743 -357.245)" fill="#1d3347"/>
        <path id="Trazado_537" data-name="Trazado 537" d="M505.662,360.6a2.824,2.824,0,0,1-.478,1.769,1.915,1.915,0,0,1-2.8.012,2.742,2.742,0,0,1-.495-1.725v-1.026a2.785,2.785,0,0,1,.485-1.774,1.914,1.914,0,0,1,2.79-.005,2.727,2.727,0,0,1,.495,1.722Zm-1.107-1.13a2.036,2.036,0,0,0-.189-1.01.641.641,0,0,0-.592-.317.631.631,0,0,0-.577.3,1.923,1.923,0,0,0-.2.943v1.357a2.136,2.136,0,0,0,.186,1.014.631.631,0,0,0,.6.332.622.622,0,0,0,.587-.319,2.079,2.079,0,0,0,.187-.974Z" transform="translate(-488.389 -357.251)" fill="#1d3347"/>
        <path id="Trazado_538" data-name="Trazado 538" d="M508.2,359.246l1.045-1.924h1.321l-1.623,2.766,1.667,2.813h-1.338l-1.073-1.954-1.072,1.954h-1.338l1.667-2.813-1.624-2.766h1.321Z" transform="translate(-488.068 -357.245)" fill="#1d3347"/>
        <path id="Trazado_539" data-name="Trazado 539" d="M512.809,359.246l1.047-1.924h1.321l-1.624,2.766,1.667,2.813h-1.337l-1.074-1.954-1.072,1.954H510.4l1.667-2.813-1.624-2.766h1.323Z" transform="translate(-487.69 -357.245)" fill="#1d3347"/>
        <path id="Trazado_540" data-name="Trazado 540" d="M517.415,359.246l1.045-1.924h1.321l-1.624,2.766,1.667,2.813h-1.337l-1.073-1.954-1.072,1.954h-1.338l1.667-2.813-1.624-2.766h1.321Z" transform="translate(-487.311 -357.245)" fill="#1d3347"/>
        <path id="Trazado_541" data-name="Trazado 541" d="M522.02,359.246l1.047-1.924h1.321l-1.624,2.766,1.667,2.813h-1.337l-1.074-1.954-1.072,1.954H519.61l1.667-2.813-1.624-2.766h1.322Z" transform="translate(-486.933 -357.245)" fill="#1d3347"/>
        <path id="Trazado_542" data-name="Trazado 542" d="M526.626,359.246l1.045-1.924h1.321l-1.624,2.766,1.667,2.813H527.7l-1.072-1.954-1.072,1.954h-1.338l1.667-2.813-1.624-2.766h1.321Z" transform="translate(-486.554 -357.245)" fill="#1d3347"/>
        <path id="Trazado_543" data-name="Trazado 543" d="M531.231,359.246l1.047-1.924H533.6l-1.624,2.766,1.667,2.813H532.3l-1.074-1.954-1.072,1.954h-1.338l1.667-2.813-1.624-2.766h1.322Z" transform="translate(-486.175 -357.245)" fill="#1d3347"/>
      </g>
      <g id="Grupo_207" data-name="Grupo 207" transform="translate(562.056 363.24)">
        <g id="Grupo_206" data-name="Grupo 206">
          <path id="Trazado_544" data-name="Trazado 544" d="M556.8,362.3h2.643v.6h-3.383v-5.579h.74Z" transform="translate(-556.064 -357.322)" fill="#a5a4a4"/>
          <path id="Trazado_545" data-name="Trazado 545" d="M559.689,360.686a2.438,2.438,0,0,1,.24-1.1,1.775,1.775,0,0,1,.666-.751,1.816,1.816,0,0,1,.975-.264,1.748,1.748,0,0,1,1.37.586,2.255,2.255,0,0,1,.523,1.559v.05a2.46,2.46,0,0,1-.232,1.085,1.766,1.766,0,0,1-.662.75,1.839,1.839,0,0,1-.99.267,1.747,1.747,0,0,1-1.367-.586,2.25,2.25,0,0,1-.523-1.552Zm.713.084a1.766,1.766,0,0,0,.32,1.107,1.084,1.084,0,0,0,1.714-.005,1.947,1.947,0,0,0,.317-1.186,1.773,1.773,0,0,0-.324-1.1,1.027,1.027,0,0,0-.86-.423,1.015,1.015,0,0,0-.846.418A1.924,1.924,0,0,0,560.4,360.771Z" transform="translate(-555.766 -357.219)" fill="#a5a4a4"/>
          <path id="Trazado_546" data-name="Trazado 546" d="M566,359.288a2.064,2.064,0,0,0-.349-.027.935.935,0,0,0-.947.594V362.8H564v-4.146h.689l.012.479a1.1,1.1,0,0,1,.988-.555.726.726,0,0,1,.314.053Z" transform="translate(-555.412 -357.219)" fill="#a5a4a4"/>
          <path id="Trazado_547" data-name="Trazado 547" d="M568.117,362.874a1.811,1.811,0,0,1-1.371-.553,2.054,2.054,0,0,1-.529-1.482v-.13a2.491,2.491,0,0,1,.236-1.1,1.838,1.838,0,0,1,.659-.758,1.654,1.654,0,0,1,.918-.274,1.555,1.555,0,0,1,1.256.531,2.31,2.31,0,0,1,.448,1.526v.294h-2.808a1.478,1.478,0,0,0,.358.99,1.13,1.13,0,0,0,.872.378,1.225,1.225,0,0,0,.635-.154,1.591,1.591,0,0,0,.457-.406l.432.338A1.739,1.739,0,0,1,568.117,362.874Zm-.088-3.715a.947.947,0,0,0-.721.312,1.516,1.516,0,0,0-.359.876h2.076v-.053a1.35,1.35,0,0,0-.291-.838A.887.887,0,0,0,568.03,359.158Z" transform="translate(-555.229 -357.219)" fill="#a5a4a4"/>
          <path id="Trazado_548" data-name="Trazado 548" d="M570.891,358.652l.019.46a1.533,1.533,0,0,1,1.23-.536,1.184,1.184,0,0,1,1.183.666,1.548,1.548,0,0,1,1.322-.666q1.364,0,1.386,1.444V362.8h-.708v-2.736a.952.952,0,0,0-.2-.665.893.893,0,0,0-.682-.221.942.942,0,0,0-.656.236.962.962,0,0,0-.3.634V362.8h-.712v-2.716a.791.791,0,0,0-.885-.9.948.948,0,0,0-.953.594V362.8h-.709v-4.146Z" transform="translate(-554.9 -357.219)" fill="#a5a4a4"/>
          <path id="Trazado_549" data-name="Trazado 549" d="M579.262,362.9h-.736v-5.579h.736Z" transform="translate(-554.217 -357.322)" fill="#a5a4a4"/>
          <path id="Trazado_550" data-name="Trazado 550" d="M583.847,360.771a2.487,2.487,0,0,1-.433,1.525,1.389,1.389,0,0,1-1.172.578,1.52,1.52,0,0,1-1.188-.478v2h-.709v-5.739h.647l.034.46a1.461,1.461,0,0,1,1.2-.536,1.413,1.413,0,0,1,1.182.563,2.507,2.507,0,0,1,.435,1.567Zm-.709-.08a1.837,1.837,0,0,0-.3-1.108.964.964,0,0,0-.82-.406,1.042,1.042,0,0,0-.965.571v1.98a1.045,1.045,0,0,0,.973.567.958.958,0,0,0,.811-.4A2,2,0,0,0,583.138,360.691Z" transform="translate(-554.068 -357.219)" fill="#a5a4a4"/>
          <path id="Trazado_551" data-name="Trazado 551" d="M586.839,361.7a.521.521,0,0,0-.216-.446,2.076,2.076,0,0,0-.754-.274,3.562,3.562,0,0,1-.854-.276,1.222,1.222,0,0,1-.469-.383.916.916,0,0,1-.15-.528,1.077,1.077,0,0,1,.431-.863,1.683,1.683,0,0,1,1.1-.352,1.731,1.731,0,0,1,1.143.364,1.157,1.157,0,0,1,.439.931H586.8a.641.641,0,0,0-.247-.5.929.929,0,0,0-.622-.21.97.97,0,0,0-.606.169.529.529,0,0,0-.218.439.43.43,0,0,0,.2.388,2.514,2.514,0,0,0,.734.249,3.845,3.845,0,0,1,.86.284,1.248,1.248,0,0,1,.488.4.97.97,0,0,1,.159.565,1.063,1.063,0,0,1-.444.891,1.868,1.868,0,0,1-1.154.334,2.1,2.1,0,0,1-.881-.175,1.432,1.432,0,0,1-.6-.492,1.184,1.184,0,0,1-.216-.684h.709a.732.732,0,0,0,.285.565,1.106,1.106,0,0,0,.7.209,1.133,1.133,0,0,0,.645-.163A.5.5,0,0,0,586.839,361.7Z" transform="translate(-553.746 -357.219)" fill="#a5a4a4"/>
          <path id="Trazado_552" data-name="Trazado 552" d="M590.712,362.382a1.508,1.508,0,0,1-1.214.486,1.286,1.286,0,0,1-1.01-.385,1.667,1.667,0,0,1-.351-1.139v-2.7h.709v2.678q0,.941.766.943a1.063,1.063,0,0,0,1.081-.606v-3.015h.708v4.146h-.674Z" transform="translate(-553.427 -357.213)" fill="#a5a4a4"/>
          <path id="Trazado_553" data-name="Trazado 553" d="M592.815,358.652l.02.46a1.529,1.529,0,0,1,1.229-.536,1.186,1.186,0,0,1,1.184.666,1.562,1.562,0,0,1,.538-.482,1.584,1.584,0,0,1,.784-.184q1.364,0,1.387,1.444V362.8h-.709v-2.736a.952.952,0,0,0-.2-.665.893.893,0,0,0-.682-.221.939.939,0,0,0-.655.236.952.952,0,0,0-.3.634V362.8h-.712v-2.716a.791.791,0,0,0-.885-.9.949.949,0,0,0-.955.594V362.8h-.708v-4.146Z" transform="translate(-553.098 -357.219)" fill="#a5a4a4"/>
        </g>
      </g>
      <g id="Grupo_208" data-name="Grupo 208" transform="translate(640.345 362.933)">
        <path id="Trazado_554" data-name="Trazado 554" d="M629.076,358.652l.023.522a1.512,1.512,0,0,1,1.241-.6q1.315,0,1.326,1.482v2.74h-.709v-2.743a.951.951,0,0,0-.2-.662.818.818,0,0,0-.626-.215,1.024,1.024,0,0,0-.6.184,1.244,1.244,0,0,0-.406.483V362.8h-.709v-4.146Z" transform="translate(-628.406 -356.913)" fill="#1d3347"/>
        <path id="Trazado_555" data-name="Trazado 555" d="M632.232,360.686a2.438,2.438,0,0,1,.24-1.1,1.775,1.775,0,0,1,.666-.751,1.817,1.817,0,0,1,.975-.264,1.748,1.748,0,0,1,1.37.586,2.255,2.255,0,0,1,.523,1.559v.05a2.46,2.46,0,0,1-.232,1.085,1.767,1.767,0,0,1-.662.75,1.839,1.839,0,0,1-.99.267,1.746,1.746,0,0,1-1.367-.586,2.25,2.25,0,0,1-.523-1.552Zm.713.084a1.766,1.766,0,0,0,.32,1.107,1.084,1.084,0,0,0,1.714-.005,1.946,1.946,0,0,0,.317-1.186,1.773,1.773,0,0,0-.324-1.1,1.027,1.027,0,0,0-.86-.423,1.015,1.015,0,0,0-.846.418A1.924,1.924,0,0,0,632.945,360.771Z" transform="translate(-628.091 -356.913)" fill="#1d3347"/>
        <path id="Trazado_556" data-name="Trazado 556" d="M637.207,358.652l.019.46a1.533,1.533,0,0,1,1.23-.536,1.184,1.184,0,0,1,1.183.666,1.548,1.548,0,0,1,1.321-.666q1.365,0,1.387,1.444V362.8h-.709v-2.736a.953.953,0,0,0-.2-.665.892.892,0,0,0-.681-.221.941.941,0,0,0-.656.236.957.957,0,0,0-.3.634V362.8h-.712v-2.716a.791.791,0,0,0-.885-.9.948.948,0,0,0-.953.594V362.8h-.709v-4.146Z" transform="translate(-627.738 -356.913)" fill="#1d3347"/>
        <path id="Trazado_557" data-name="Trazado 557" d="M646.4,360.9a2.467,2.467,0,0,1-.437,1.527,1.4,1.4,0,0,1-1.173.576,1.444,1.444,0,0,1-1.213-.555l-.036.479h-.65v-5.885h.709v2.195a1.439,1.439,0,0,1,1.184-.531,1.4,1.4,0,0,1,1.185.57,2.535,2.535,0,0,1,.432,1.563Zm-.71-.08a1.925,1.925,0,0,0-.278-1.119.927.927,0,0,0-.806-.395,1.04,1.04,0,0,0-1.006.651v1.793a1.068,1.068,0,0,0,1.015.651.922.922,0,0,0,.793-.4A2.034,2.034,0,0,0,645.695,360.817Z" transform="translate(-627.215 -357.039)" fill="#1d3347"/>
        <path id="Trazado_558" data-name="Trazado 558" d="M648.966,359.288a2.074,2.074,0,0,0-.349-.027.935.935,0,0,0-.947.594V362.8h-.708v-4.146h.689l.011.479a1.1,1.1,0,0,1,.988-.555.731.731,0,0,1,.315.053Z" transform="translate(-626.88 -356.913)" fill="#1d3347"/>
        <path id="Trazado_559" data-name="Trazado 559" d="M651.081,362.874a1.809,1.809,0,0,1-1.37-.553,2.059,2.059,0,0,1-.529-1.482v-.13a2.491,2.491,0,0,1,.236-1.1,1.838,1.838,0,0,1,.659-.758,1.656,1.656,0,0,1,.917-.274,1.557,1.557,0,0,1,1.258.531,2.311,2.311,0,0,1,.448,1.526v.294h-2.808a1.477,1.477,0,0,0,.358.99,1.129,1.129,0,0,0,.872.378,1.227,1.227,0,0,0,.635-.154,1.586,1.586,0,0,0,.456-.406l.434.338A1.742,1.742,0,0,1,651.081,362.874Zm-.088-3.715a.946.946,0,0,0-.72.312,1.518,1.518,0,0,0-.36.876h2.077v-.053a1.355,1.355,0,0,0-.291-.838A.888.888,0,0,0,650.994,359.158Z" transform="translate(-626.698 -356.913)" fill="#1d3347"/>
        <path id="Trazado_560" data-name="Trazado 560" d="M659.318,360.97a2.56,2.56,0,0,1-.459,1.463,1.33,1.33,0,0,1-1.108.536.868.868,0,0,1-.919-.643,1.449,1.449,0,0,1-.474.484,1.047,1.047,0,0,1-.549.159.911.911,0,0,1-.824-.444,1.947,1.947,0,0,1-.208-1.23,3.356,3.356,0,0,1,.29-1.128,2.081,2.081,0,0,1,.6-.78,1.241,1.241,0,0,1,.768-.282,1.72,1.72,0,0,1,.554.082,1.868,1.868,0,0,1,.552.324l-.2,2.122q-.073.885.49.885a.8.8,0,0,0,.7-.43,2.249,2.249,0,0,0,.291-1.118,3.3,3.3,0,0,0-.553-2.273,2.3,2.3,0,0,0-1.907-.781A2.491,2.491,0,0,0,655,358.3a2.589,2.589,0,0,0-.944,1.1,4.25,4.25,0,0,0-.386,1.663,3.96,3.96,0,0,0,.231,1.649,2.2,2.2,0,0,0,.84,1.068,2.443,2.443,0,0,0,1.367.37,2.921,2.921,0,0,0,.691-.084,2.192,2.192,0,0,0,.576-.219l.143.441a2.173,2.173,0,0,1-.631.246,3.353,3.353,0,0,1-.8.1,3.047,3.047,0,0,1-1.647-.431,2.625,2.625,0,0,1-1.032-1.241,4.359,4.359,0,0,1-.3-1.894,4.6,4.6,0,0,1,.472-1.895,3.2,3.2,0,0,1,1.153-1.3,3.257,3.257,0,0,1,3.28-.029,2.589,2.589,0,0,1,1.015,1.238A4.418,4.418,0,0,1,659.318,360.97Zm-3.93.325a1.489,1.489,0,0,0,.1.835.516.516,0,0,0,.492.291.653.653,0,0,0,.442-.195,1.457,1.457,0,0,0,.351-.56l0-.035.175-1.927a.991.991,0,0,0-.46-.11.858.858,0,0,0-.74.456A2.765,2.765,0,0,0,655.388,361.3Z" transform="translate(-626.375 -357.008)" fill="#1d3347"/>
        <path id="Trazado_561" data-name="Trazado 561" d="M659.544,360.691a2.444,2.444,0,0,1,.448-1.543,1.547,1.547,0,0,1,2.371-.036l.036-.46h.646V362.7a1.684,1.684,0,0,1-.476,1.267,1.76,1.76,0,0,1-1.283.463,2.131,2.131,0,0,1-.877-.19,1.529,1.529,0,0,1-.656-.525l.368-.425a1.39,1.39,0,0,0,1.115.563,1.089,1.089,0,0,0,.807-.291,1.115,1.115,0,0,0,.289-.82v-.356a1.456,1.456,0,0,1-1.16.49,1.415,1.415,0,0,1-1.179-.586A2.563,2.563,0,0,1,659.544,360.691Zm.712.08a1.86,1.86,0,0,0,.288,1.1.935.935,0,0,0,.8.4,1.038,1.038,0,0,0,.985-.609v-1.893a1.05,1.05,0,0,0-.976-.594.938.938,0,0,0-.808.4A2.02,2.02,0,0,0,660.256,360.771Z" transform="translate(-625.846 -356.913)" fill="#1d3347"/>
        <path id="Trazado_562" data-name="Trazado 562" d="M664.434,358.652l.018.46a1.536,1.536,0,0,1,1.231-.536,1.186,1.186,0,0,1,1.184.666,1.544,1.544,0,0,1,1.323-.666q1.362,0,1.386,1.444V362.8h-.709v-2.736a.952.952,0,0,0-.2-.665.893.893,0,0,0-.682-.221.939.939,0,0,0-.655.236.957.957,0,0,0-.3.634V362.8h-.713v-2.716a.791.791,0,0,0-.884-.9.948.948,0,0,0-.954.594V362.8h-.708v-4.146Z" transform="translate(-625.499 -356.913)" fill="#1d3347"/>
        <path id="Trazado_563" data-name="Trazado 563" d="M672.69,362.8a1.468,1.468,0,0,1-.1-.437,1.583,1.583,0,0,1-1.181.513,1.465,1.465,0,0,1-1.005-.346,1.12,1.12,0,0,1-.393-.879,1.172,1.172,0,0,1,.492-1.007,2.323,2.323,0,0,1,1.384-.358h.69v-.325a.8.8,0,0,0-.222-.592.9.9,0,0,0-.656-.221,1.036,1.036,0,0,0-.636.192.565.565,0,0,0-.256.463H670.1a.977.977,0,0,1,.22-.6,1.506,1.506,0,0,1,.6-.458,2,2,0,0,1,.829-.168,1.641,1.641,0,0,1,1.122.357,1.293,1.293,0,0,1,.421.987v1.908a2.325,2.325,0,0,0,.146.908v.062Zm-1.176-.54a1.246,1.246,0,0,0,.632-.173,1.039,1.039,0,0,0,.434-.448v-.851h-.556q-1.3,0-1.3.763a.645.645,0,0,0,.222.521A.859.859,0,0,0,671.513,362.258Z" transform="translate(-624.985 -356.913)" fill="#1d3347"/>
        <path id="Trazado_564" data-name="Trazado 564" d="M674.068,357.661a.425.425,0,0,1,.106-.291.4.4,0,0,1,.312-.119.4.4,0,0,1,.314.119.417.417,0,0,1,.108.291.439.439,0,0,1-.734.288A.412.412,0,0,1,674.068,357.661Zm.766,5.246h-.709v-4.146h.709Z" transform="translate(-624.652 -357.022)" fill="#1d3347"/>
        <path id="Trazado_565" data-name="Trazado 565" d="M676.589,362.924h-.709v-5.885h.709Z" transform="translate(-624.503 -357.039)" fill="#1d3347"/>
        <path id="Trazado_566" data-name="Trazado 566" d="M677.6,362.166a.445.445,0,0,1,.108-.306.415.415,0,0,1,.328-.122.43.43,0,0,1,.332.122.438.438,0,0,1,.112.306.414.414,0,0,1-.112.3.441.441,0,0,1-.332.119.425.425,0,0,1-.328-.119A.42.42,0,0,1,677.6,362.166Z" transform="translate(-624.362 -356.653)" fill="#1d3347"/>
        <path id="Trazado_567" data-name="Trazado 567" d="M681.168,362.3a1.021,1.021,0,0,0,.663-.231.809.809,0,0,0,.314-.574h.67a1.279,1.279,0,0,1-.246.677,1.616,1.616,0,0,1-.6.514,1.762,1.762,0,0,1-.8.19,1.7,1.7,0,0,1-1.346-.565,2.25,2.25,0,0,1-.5-1.545v-.119a2.514,2.514,0,0,1,.223-1.077,1.7,1.7,0,0,1,.637-.732,1.817,1.817,0,0,1,.983-.26,1.667,1.667,0,0,1,1.16.417,1.5,1.5,0,0,1,.491,1.084h-.67a.974.974,0,0,0-.305-.66.945.945,0,0,0-.676-.259.99.99,0,0,0-.837.388,1.825,1.825,0,0,0-.3,1.124v.134a1.786,1.786,0,0,0,.294,1.1A1,1,0,0,0,681.168,362.3Z" transform="translate(-624.22 -356.913)" fill="#1d3347"/>
        <path id="Trazado_568" data-name="Trazado 568" d="M683.113,360.686a2.452,2.452,0,0,1,.239-1.1,1.776,1.776,0,0,1,.667-.751,1.818,1.818,0,0,1,.976-.264,1.747,1.747,0,0,1,1.369.586,2.255,2.255,0,0,1,.523,1.559v.05a2.475,2.475,0,0,1-.232,1.085,1.762,1.762,0,0,1-.663.75,1.834,1.834,0,0,1-.99.267,1.742,1.742,0,0,1-1.365-.586,2.24,2.24,0,0,1-.524-1.552Zm.712.084a1.773,1.773,0,0,0,.32,1.107,1.084,1.084,0,0,0,1.714-.005,1.932,1.932,0,0,0,.318-1.186,1.766,1.766,0,0,0-.324-1.1,1.028,1.028,0,0,0-.859-.423,1.017,1.017,0,0,0-.847.418A1.924,1.924,0,0,0,683.825,360.771Z" transform="translate(-623.908 -356.913)" fill="#1d3347"/>
        <path id="Trazado_569" data-name="Trazado 569" d="M688.088,358.652l.019.46a1.532,1.532,0,0,1,1.229-.536,1.184,1.184,0,0,1,1.184.666,1.544,1.544,0,0,1,1.323-.666q1.364,0,1.386,1.444V362.8h-.709v-2.736a.951.951,0,0,0-.2-.665.892.892,0,0,0-.682-.221.939.939,0,0,0-.655.236.951.951,0,0,0-.3.634V362.8h-.714v-2.716a.791.791,0,0,0-.884-.9.948.948,0,0,0-.954.594V362.8h-.708v-4.146Z" transform="translate(-623.555 -356.913)" fill="#1d3347"/>
      </g>
      <path id="Trazado_570" data-name="Trazado 570" d="M684.726,368.135" transform="translate(16.569 6.807)" fill="#fff" stroke="#000" stroke-width="1"/>
      <g id="Grupo_209" data-name="Grupo 209" transform="translate(489.927 377.112)">
        <path id="Trazado_571" data-name="Trazado 571" d="M493.184,373.489a2.824,2.824,0,0,1-.479,1.769,1.912,1.912,0,0,1-2.8.012,2.74,2.74,0,0,1-.493-1.724V372.52a2.785,2.785,0,0,1,.484-1.774,1.918,1.918,0,0,1,2.791-.005,2.734,2.734,0,0,1,.495,1.722Zm-1.107-1.13a2.053,2.053,0,0,0-.189-1.01.643.643,0,0,0-.593-.317.628.628,0,0,0-.576.3,1.9,1.9,0,0,0-.2.942v1.357a2.145,2.145,0,0,0,.186,1.014.632.632,0,0,0,.6.332.62.62,0,0,0,.585-.319,2.087,2.087,0,0,0,.188-.974Z" transform="translate(-489.415 -370.141)" fill="#1d3347"/>
        <path id="Trazado_572" data-name="Trazado 572" d="M496.182,373.566a1.4,1.4,0,0,1-1.011.424,1.494,1.494,0,0,1-1.184-.508,2,2,0,0,1-.445-1.369,2.124,2.124,0,0,1,.24-1.005,1.748,1.748,0,0,1,.668-.713,1.856,1.856,0,0,1,.965-.254,1.777,1.777,0,0,1,.982.276,1.808,1.808,0,0,1,.666.792,2.853,2.853,0,0,1,.242,1.184v.41a3.228,3.228,0,0,1-.694,2.191,2.621,2.621,0,0,1-1.965.851l-.272,0v-.923l.245,0A1.415,1.415,0,0,0,496.182,373.566Zm-.739-.422a.778.778,0,0,0,.462-.137.928.928,0,0,0,.293-.334v-.455a1.523,1.523,0,0,0-.215-.874.666.666,0,0,0-.575-.311.646.646,0,0,0-.548.305,1.3,1.3,0,0,0-.214.764,1.256,1.256,0,0,0,.209.749A.677.677,0,0,0,495.442,373.144Z" transform="translate(-489.076 -370.141)" fill="#1d3347"/>
        <path id="Trazado_573" data-name="Trazado 573" d="M501.036,373.69h.632v.892h-.632v1.208h-1.107v-1.208h-2.287l-.05-.7,2.325-3.674h1.119Zm-2.341,0h1.234v-1.97l-.073.127Z" transform="translate(-488.743 -370.135)" fill="#1d3347"/>
        <path id="Trazado_574" data-name="Trazado 574" d="M505.662,373.489a2.824,2.824,0,0,1-.478,1.769,1.912,1.912,0,0,1-2.8.012,2.74,2.74,0,0,1-.495-1.724V372.52a2.785,2.785,0,0,1,.485-1.774,1.917,1.917,0,0,1,2.79-.005,2.727,2.727,0,0,1,.495,1.722Zm-1.107-1.13a2.039,2.039,0,0,0-.189-1.01.641.641,0,0,0-.592-.317.63.63,0,0,0-.577.3,1.915,1.915,0,0,0-.2.942v1.357a2.133,2.133,0,0,0,.186,1.014.631.631,0,0,0,.6.332.622.622,0,0,0,.587-.319,2.076,2.076,0,0,0,.187-.974Z" transform="translate(-488.389 -370.141)" fill="#1d3347"/>
        <path id="Trazado_575" data-name="Trazado 575" d="M508.2,372.135l1.045-1.924h1.321l-1.623,2.767,1.667,2.812h-1.338l-1.073-1.953-1.072,1.953h-1.338l1.667-2.812-1.624-2.767h1.321Z" transform="translate(-488.068 -370.135)" fill="#1d3347"/>
        <path id="Trazado_576" data-name="Trazado 576" d="M512.809,372.135l1.047-1.924h1.321l-1.624,2.767,1.667,2.812h-1.337l-1.074-1.953-1.072,1.953H510.4l1.667-2.812-1.624-2.767h1.323Z" transform="translate(-487.69 -370.135)" fill="#1d3347"/>
        <path id="Trazado_577" data-name="Trazado 577" d="M517.415,372.135l1.045-1.924h1.321l-1.624,2.767,1.667,2.812h-1.337l-1.073-1.953-1.072,1.953h-1.338l1.667-2.812-1.624-2.767h1.321Z" transform="translate(-487.311 -370.135)" fill="#1d3347"/>
        <path id="Trazado_578" data-name="Trazado 578" d="M522.02,372.135l1.047-1.924h1.321l-1.624,2.767,1.667,2.812h-1.337l-1.074-1.953-1.072,1.953H519.61l1.667-2.812-1.624-2.767h1.322Z" transform="translate(-486.933 -370.135)" fill="#1d3347"/>
        <path id="Trazado_579" data-name="Trazado 579" d="M526.626,372.135l1.045-1.924h1.321l-1.624,2.767,1.667,2.812H527.7l-1.072-1.953-1.072,1.953h-1.338l1.667-2.812-1.624-2.767h1.321Z" transform="translate(-486.554 -370.135)" fill="#1d3347"/>
        <path id="Trazado_580" data-name="Trazado 580" d="M531.231,372.135l1.047-1.924H533.6l-1.624,2.767,1.667,2.812H532.3l-1.074-1.953-1.072,1.953h-1.338l1.667-2.812-1.624-2.767h1.322Z" transform="translate(-486.175 -370.135)" fill="#1d3347"/>
      </g>
      <g id="Grupo_211" data-name="Grupo 211" transform="translate(562.056 377.188)">
        <g id="Grupo_210" data-name="Grupo 210">
          <path id="Trazado_581" data-name="Trazado 581" d="M556.8,375.188h2.643v.6h-3.383v-5.579h.74Z" transform="translate(-556.064 -370.211)" fill="#a5a4a4"/>
          <path id="Trazado_582" data-name="Trazado 582" d="M559.689,373.575a2.441,2.441,0,0,1,.24-1.1,1.781,1.781,0,0,1,.666-.751,1.816,1.816,0,0,1,.975-.264,1.748,1.748,0,0,1,1.37.586,2.257,2.257,0,0,1,.523,1.559v.05a2.468,2.468,0,0,1-.232,1.087,1.77,1.77,0,0,1-.662.749,1.84,1.84,0,0,1-.99.268,1.748,1.748,0,0,1-1.367-.587,2.25,2.25,0,0,1-.523-1.552Zm.713.084a1.765,1.765,0,0,0,.32,1.107,1.084,1.084,0,0,0,1.714-.005,1.947,1.947,0,0,0,.317-1.186,1.773,1.773,0,0,0-.324-1.1,1.027,1.027,0,0,0-.86-.423,1.015,1.015,0,0,0-.846.418A1.924,1.924,0,0,0,560.4,373.66Z" transform="translate(-555.766 -370.108)" fill="#a5a4a4"/>
          <path id="Trazado_583" data-name="Trazado 583" d="M566,372.177a2.058,2.058,0,0,0-.349-.027.935.935,0,0,0-.947.594v2.943H564v-4.145h.689l.012.478a1.1,1.1,0,0,1,.988-.555.726.726,0,0,1,.314.053Z" transform="translate(-555.412 -370.108)" fill="#a5a4a4"/>
          <path id="Trazado_584" data-name="Trazado 584" d="M568.117,375.764a1.812,1.812,0,0,1-1.371-.554,2.053,2.053,0,0,1-.529-1.48v-.13a2.5,2.5,0,0,1,.236-1.1,1.839,1.839,0,0,1,.659-.758,1.654,1.654,0,0,1,.918-.274,1.552,1.552,0,0,1,1.256.532,2.305,2.305,0,0,1,.448,1.525v.294h-2.808a1.476,1.476,0,0,0,.358.99,1.126,1.126,0,0,0,.872.378,1.226,1.226,0,0,0,.635-.154,1.593,1.593,0,0,0,.457-.406l.432.338A1.739,1.739,0,0,1,568.117,375.764Zm-.088-3.716a.947.947,0,0,0-.721.312,1.516,1.516,0,0,0-.359.876h2.076v-.053a1.349,1.349,0,0,0-.291-.838A.887.887,0,0,0,568.03,372.047Z" transform="translate(-555.229 -370.108)" fill="#a5a4a4"/>
          <path id="Trazado_585" data-name="Trazado 585" d="M570.891,371.542l.019.459a1.533,1.533,0,0,1,1.23-.536,1.184,1.184,0,0,1,1.183.667,1.545,1.545,0,0,1,1.322-.667q1.364,0,1.386,1.444v2.778h-.708v-2.736a.952.952,0,0,0-.2-.664.892.892,0,0,0-.682-.22.941.941,0,0,0-.656.235.965.965,0,0,0-.3.634v2.751h-.712V372.97a.79.79,0,0,0-.885-.9.947.947,0,0,0-.953.593v3.027h-.709v-4.145Z" transform="translate(-554.9 -370.108)" fill="#a5a4a4"/>
          <path id="Trazado_586" data-name="Trazado 586" d="M579.262,375.79h-.736v-5.579h.736Z" transform="translate(-554.217 -370.211)" fill="#a5a4a4"/>
          <path id="Trazado_587" data-name="Trazado 587" d="M583.847,373.66a2.487,2.487,0,0,1-.433,1.525,1.39,1.39,0,0,1-1.172.579,1.521,1.521,0,0,1-1.188-.479v2h-.709v-5.738h.647l.034.459a1.462,1.462,0,0,1,1.2-.536,1.413,1.413,0,0,1,1.182.563,2.507,2.507,0,0,1,.435,1.567Zm-.709-.08a1.832,1.832,0,0,0-.3-1.107.964.964,0,0,0-.82-.406,1.041,1.041,0,0,0-.965.57v1.98a1.043,1.043,0,0,0,.973.567.958.958,0,0,0,.811-.4A2,2,0,0,0,583.138,373.58Z" transform="translate(-554.068 -370.108)" fill="#a5a4a4"/>
          <path id="Trazado_588" data-name="Trazado 588" d="M586.839,374.587a.518.518,0,0,0-.216-.446,2.056,2.056,0,0,0-.754-.275,3.562,3.562,0,0,1-.854-.276,1.222,1.222,0,0,1-.469-.383.916.916,0,0,1-.15-.528,1.073,1.073,0,0,1,.431-.861,1.677,1.677,0,0,1,1.1-.353,1.731,1.731,0,0,1,1.143.364,1.157,1.157,0,0,1,.439.931H586.8a.642.642,0,0,0-.247-.5.929.929,0,0,0-.622-.21.97.97,0,0,0-.606.169.529.529,0,0,0-.218.439.429.429,0,0,0,.2.387,2.514,2.514,0,0,0,.734.249,3.9,3.9,0,0,1,.86.284,1.257,1.257,0,0,1,.488.4.973.973,0,0,1,.159.565,1.063,1.063,0,0,1-.444.891,1.869,1.869,0,0,1-1.154.336,2.1,2.1,0,0,1-.881-.176,1.432,1.432,0,0,1-.6-.492,1.182,1.182,0,0,1-.216-.684h.709a.73.73,0,0,0,.285.565,1.106,1.106,0,0,0,.7.209,1.133,1.133,0,0,0,.645-.163A.5.5,0,0,0,586.839,374.587Z" transform="translate(-553.746 -370.108)" fill="#a5a4a4"/>
          <path id="Trazado_589" data-name="Trazado 589" d="M590.712,375.271a1.5,1.5,0,0,1-1.214.487,1.289,1.289,0,0,1-1.01-.385,1.672,1.672,0,0,1-.351-1.14v-2.7h.709v2.677q0,.942.766.943a1.063,1.063,0,0,0,1.081-.606v-3.014h.708v4.145h-.674Z" transform="translate(-553.427 -370.102)" fill="#a5a4a4"/>
          <path id="Trazado_590" data-name="Trazado 590" d="M592.815,371.542l.02.459a1.529,1.529,0,0,1,1.229-.536,1.185,1.185,0,0,1,1.184.667,1.552,1.552,0,0,1,.538-.483,1.583,1.583,0,0,1,.784-.184q1.364,0,1.387,1.444v2.778h-.709v-2.736a.952.952,0,0,0-.2-.664.892.892,0,0,0-.682-.22.938.938,0,0,0-.655.235.954.954,0,0,0-.3.634v2.751h-.712V372.97a.791.791,0,0,0-.885-.9.948.948,0,0,0-.955.593v3.027h-.708v-4.145Z" transform="translate(-553.098 -370.108)" fill="#a5a4a4"/>
        </g>
      </g>
      <g id="Grupo_212" data-name="Grupo 212" transform="translate(640.345 376.882)">
        <path id="Trazado_591" data-name="Trazado 591" d="M629.076,371.542l.023.521a1.511,1.511,0,0,1,1.241-.6q1.315,0,1.326,1.482v2.74h-.709v-2.743a.95.95,0,0,0-.2-.662.818.818,0,0,0-.626-.214,1.023,1.023,0,0,0-.6.183,1.243,1.243,0,0,0-.406.483v2.954h-.709v-4.145Z" transform="translate(-628.406 -369.802)" fill="#1d3347"/>
        <path id="Trazado_592" data-name="Trazado 592" d="M632.232,373.575a2.441,2.441,0,0,1,.24-1.1,1.782,1.782,0,0,1,.666-.751,1.817,1.817,0,0,1,.975-.264,1.748,1.748,0,0,1,1.37.586,2.257,2.257,0,0,1,.523,1.559v.05a2.468,2.468,0,0,1-.232,1.087,1.77,1.77,0,0,1-.662.749,1.84,1.84,0,0,1-.99.268,1.747,1.747,0,0,1-1.367-.587,2.25,2.25,0,0,1-.523-1.552Zm.713.084a1.766,1.766,0,0,0,.32,1.107,1.084,1.084,0,0,0,1.714-.005,1.946,1.946,0,0,0,.317-1.186,1.773,1.773,0,0,0-.324-1.1,1.027,1.027,0,0,0-.86-.423,1.015,1.015,0,0,0-.846.418A1.924,1.924,0,0,0,632.945,373.66Z" transform="translate(-628.091 -369.802)" fill="#1d3347"/>
        <path id="Trazado_593" data-name="Trazado 593" d="M637.207,371.542l.019.459a1.533,1.533,0,0,1,1.23-.536,1.183,1.183,0,0,1,1.183.667,1.546,1.546,0,0,1,1.321-.667q1.365,0,1.387,1.444v2.778h-.709v-2.736a.952.952,0,0,0-.2-.664.892.892,0,0,0-.681-.22.941.941,0,0,0-.656.235.96.96,0,0,0-.3.634v2.751h-.712V372.97a.79.79,0,0,0-.885-.9.947.947,0,0,0-.953.593v3.027h-.709v-4.145Z" transform="translate(-627.738 -369.802)" fill="#1d3347"/>
        <path id="Trazado_594" data-name="Trazado 594" d="M646.4,373.786a2.465,2.465,0,0,1-.437,1.527,1.4,1.4,0,0,1-1.173.577,1.442,1.442,0,0,1-1.213-.556l-.036.479h-.65v-5.885h.709v2.2a1.437,1.437,0,0,1,1.184-.532,1.4,1.4,0,0,1,1.185.57,2.537,2.537,0,0,1,.432,1.564Zm-.71-.08a1.927,1.927,0,0,0-.278-1.119.926.926,0,0,0-.806-.394,1.039,1.039,0,0,0-1.006.65v1.793a1.068,1.068,0,0,0,1.015.652.922.922,0,0,0,.793-.4A2.034,2.034,0,0,0,645.695,373.706Z" transform="translate(-627.215 -369.928)" fill="#1d3347"/>
        <path id="Trazado_595" data-name="Trazado 595" d="M648.966,372.177a2.067,2.067,0,0,0-.349-.027.935.935,0,0,0-.947.594v2.943h-.708v-4.145h.689l.011.478a1.1,1.1,0,0,1,.988-.555.732.732,0,0,1,.315.053Z" transform="translate(-626.88 -369.802)" fill="#1d3347"/>
        <path id="Trazado_596" data-name="Trazado 596" d="M651.081,375.764a1.809,1.809,0,0,1-1.37-.554,2.058,2.058,0,0,1-.529-1.48v-.13a2.5,2.5,0,0,1,.236-1.1,1.838,1.838,0,0,1,.659-.758,1.657,1.657,0,0,1,.917-.274,1.554,1.554,0,0,1,1.258.532,2.305,2.305,0,0,1,.448,1.525v.294h-2.808a1.475,1.475,0,0,0,.358.99,1.125,1.125,0,0,0,.872.378,1.227,1.227,0,0,0,.635-.154,1.588,1.588,0,0,0,.456-.406l.434.338A1.743,1.743,0,0,1,651.081,375.764Zm-.088-3.716a.946.946,0,0,0-.72.312,1.518,1.518,0,0,0-.36.876h2.077v-.053a1.354,1.354,0,0,0-.291-.838A.888.888,0,0,0,650.994,372.047Z" transform="translate(-626.698 -369.802)" fill="#1d3347"/>
        <path id="Trazado_597" data-name="Trazado 597" d="M659.318,373.859a2.56,2.56,0,0,1-.459,1.463,1.331,1.331,0,0,1-1.108.537.869.869,0,0,1-.919-.644,1.464,1.464,0,0,1-.474.485,1.056,1.056,0,0,1-.549.159.912.912,0,0,1-.824-.445,1.944,1.944,0,0,1-.208-1.229,3.356,3.356,0,0,1,.29-1.129,2.09,2.09,0,0,1,.6-.78,1.241,1.241,0,0,1,.768-.282,1.719,1.719,0,0,1,.554.082,1.866,1.866,0,0,1,.552.324l-.2,2.122q-.073.885.49.885a.8.8,0,0,0,.7-.429,2.256,2.256,0,0,0,.291-1.119,3.3,3.3,0,0,0-.553-2.273,2.3,2.3,0,0,0-1.907-.781,2.482,2.482,0,0,0-1.367.382,2.58,2.58,0,0,0-.944,1.1,4.25,4.25,0,0,0-.386,1.663,3.959,3.959,0,0,0,.231,1.649,2.194,2.194,0,0,0,.84,1.068,2.442,2.442,0,0,0,1.367.37,2.919,2.919,0,0,0,.691-.084,2.158,2.158,0,0,0,.576-.219l.143.44a2.169,2.169,0,0,1-.631.246,3.351,3.351,0,0,1-.8.1,3.047,3.047,0,0,1-1.647-.431,2.625,2.625,0,0,1-1.032-1.241,4.359,4.359,0,0,1-.3-1.894,4.6,4.6,0,0,1,.472-1.895,3.2,3.2,0,0,1,1.153-1.3,3.257,3.257,0,0,1,3.28-.029,2.589,2.589,0,0,1,1.015,1.238A4.418,4.418,0,0,1,659.318,373.859Zm-3.93.326a1.485,1.485,0,0,0,.1.834.516.516,0,0,0,.492.291.652.652,0,0,0,.442-.195,1.456,1.456,0,0,0,.351-.559l0-.035.175-1.927a.99.99,0,0,0-.46-.11.858.858,0,0,0-.74.456A2.765,2.765,0,0,0,655.388,374.185Z" transform="translate(-626.375 -369.897)" fill="#1d3347"/>
        <path id="Trazado_598" data-name="Trazado 598" d="M659.544,373.58a2.438,2.438,0,0,1,.448-1.542,1.546,1.546,0,0,1,2.371-.037l.036-.459h.646v4.045a1.684,1.684,0,0,1-.476,1.267,1.761,1.761,0,0,1-1.283.464,2.132,2.132,0,0,1-.877-.192,1.522,1.522,0,0,1-.656-.525l.368-.425a1.387,1.387,0,0,0,1.115.563,1.084,1.084,0,0,0,.807-.291,1.113,1.113,0,0,0,.289-.819v-.357a1.453,1.453,0,0,1-1.16.491,1.416,1.416,0,0,1-1.179-.587A2.563,2.563,0,0,1,659.544,373.58Zm.712.08a1.86,1.86,0,0,0,.288,1.1.935.935,0,0,0,.8.4,1.038,1.038,0,0,0,.985-.609V372.66a1.049,1.049,0,0,0-.976-.593.94.94,0,0,0-.808.4A2.02,2.02,0,0,0,660.256,373.66Z" transform="translate(-625.846 -369.802)" fill="#1d3347"/>
        <path id="Trazado_599" data-name="Trazado 599" d="M664.434,371.542l.018.459a1.536,1.536,0,0,1,1.231-.536,1.185,1.185,0,0,1,1.184.667,1.561,1.561,0,0,1,.538-.483,1.583,1.583,0,0,1,.785-.184q1.362,0,1.386,1.444v2.778h-.709v-2.736a.952.952,0,0,0-.2-.664.892.892,0,0,0-.682-.22.938.938,0,0,0-.655.235.959.959,0,0,0-.3.634v2.751h-.713V372.97a.79.79,0,0,0-.884-.9.948.948,0,0,0-.954.593v3.027h-.708v-4.145Z" transform="translate(-625.499 -369.802)" fill="#1d3347"/>
        <path id="Trazado_600" data-name="Trazado 600" d="M672.69,375.687a1.468,1.468,0,0,1-.1-.437,1.585,1.585,0,0,1-1.181.514,1.46,1.46,0,0,1-1.005-.347,1.12,1.12,0,0,1-.393-.879,1.168,1.168,0,0,1,.492-1.005,2.315,2.315,0,0,1,1.384-.359h.69v-.325a.8.8,0,0,0-.222-.592.9.9,0,0,0-.656-.221,1.036,1.036,0,0,0-.636.192.565.565,0,0,0-.256.464H670.1a.978.978,0,0,1,.22-.6,1.494,1.494,0,0,1,.6-.457,2,2,0,0,1,.829-.169,1.641,1.641,0,0,1,1.122.357,1.293,1.293,0,0,1,.421.987v1.908a2.321,2.321,0,0,0,.146.908v.062Zm-1.176-.54a1.255,1.255,0,0,0,.632-.172,1.047,1.047,0,0,0,.434-.449v-.851h-.556q-1.3,0-1.3.763a.643.643,0,0,0,.222.521A.853.853,0,0,0,671.513,375.147Z" transform="translate(-624.985 -369.802)" fill="#1d3347"/>
        <path id="Trazado_601" data-name="Trazado 601" d="M674.068,370.551a.426.426,0,0,1,.106-.292.394.394,0,0,1,.312-.118.4.4,0,0,1,.314.118.418.418,0,0,1,.108.292.439.439,0,0,1-.734.287A.411.411,0,0,1,674.068,370.551Zm.766,5.244h-.709v-4.145h.709Z" transform="translate(-624.652 -369.911)" fill="#1d3347"/>
        <path id="Trazado_602" data-name="Trazado 602" d="M676.589,375.813h-.709v-5.885h.709Z" transform="translate(-624.503 -369.928)" fill="#1d3347"/>
        <path id="Trazado_603" data-name="Trazado 603" d="M677.6,375.055a.445.445,0,0,1,.108-.306.419.419,0,0,1,.328-.122.405.405,0,0,1,.445.429.414.414,0,0,1-.112.3.441.441,0,0,1-.332.119.425.425,0,0,1-.328-.119A.42.42,0,0,1,677.6,375.055Z" transform="translate(-624.362 -369.542)" fill="#1d3347"/>
        <path id="Trazado_604" data-name="Trazado 604" d="M681.168,375.185a1.021,1.021,0,0,0,.663-.231.809.809,0,0,0,.314-.574h.67a1.279,1.279,0,0,1-.246.677,1.607,1.607,0,0,1-.6.514,1.763,1.763,0,0,1-.8.192,1.709,1.709,0,0,1-1.346-.565,2.255,2.255,0,0,1-.5-1.547v-.119a2.513,2.513,0,0,1,.223-1.077,1.687,1.687,0,0,1,.637-.73,1.808,1.808,0,0,1,.983-.261,1.662,1.662,0,0,1,1.16.418,1.493,1.493,0,0,1,.491,1.084h-.67a.974.974,0,0,0-.305-.661.949.949,0,0,0-.676-.259.992.992,0,0,0-.837.389,1.827,1.827,0,0,0-.3,1.124v.134a1.786,1.786,0,0,0,.294,1.1A1,1,0,0,0,681.168,375.185Z" transform="translate(-624.22 -369.802)" fill="#1d3347"/>
        <path id="Trazado_605" data-name="Trazado 605" d="M683.113,373.575a2.456,2.456,0,0,1,.239-1.1,1.783,1.783,0,0,1,.667-.751,1.818,1.818,0,0,1,.976-.264,1.747,1.747,0,0,1,1.369.586,2.256,2.256,0,0,1,.523,1.559v.05a2.483,2.483,0,0,1-.232,1.087,1.765,1.765,0,0,1-.663.749,1.835,1.835,0,0,1-.99.268,1.743,1.743,0,0,1-1.365-.587,2.24,2.24,0,0,1-.524-1.552Zm.712.084a1.773,1.773,0,0,0,.32,1.107,1.084,1.084,0,0,0,1.714-.005,1.932,1.932,0,0,0,.318-1.186,1.766,1.766,0,0,0-.324-1.1,1.028,1.028,0,0,0-.859-.423,1.017,1.017,0,0,0-.847.418A1.924,1.924,0,0,0,683.825,373.66Z" transform="translate(-623.908 -369.802)" fill="#1d3347"/>
        <path id="Trazado_606" data-name="Trazado 606" d="M688.088,371.542l.019.459a1.532,1.532,0,0,1,1.229-.536,1.183,1.183,0,0,1,1.184.667,1.563,1.563,0,0,1,.538-.483,1.587,1.587,0,0,1,.785-.184q1.364,0,1.386,1.444v2.778h-.709v-2.736a.951.951,0,0,0-.2-.664.892.892,0,0,0-.682-.22.938.938,0,0,0-.655.235.953.953,0,0,0-.3.634v2.751h-.714V372.97a.79.79,0,0,0-.884-.9.948.948,0,0,0-.954.593v3.027h-.708v-4.145Z" transform="translate(-623.555 -369.802)" fill="#1d3347"/>
      </g>
      <g id="Grupo_213" data-name="Grupo 213" transform="translate(483.188 341.856)">
        <rect id="Rectángulo_119" data-name="Rectángulo 119" width="96.013" height="0.271" transform="translate(144.273)" fill="#fff"/>
        <rect id="Rectángulo_120" data-name="Rectángulo 120" width="78.697" height="0.271" transform="translate(65.575)" fill="#ced8e0"/>
        <rect id="Rectángulo_121" data-name="Rectángulo 121" width="65.575" height="0.271" fill="#fff"/>
      </g>
      <g id="Grupo_214" data-name="Grupo 214" transform="translate(483.188 358.089)">
        <rect id="Rectángulo_122" data-name="Rectángulo 122" width="96.013" height="0.271" transform="translate(144.273)" fill="#fff"/>
        <rect id="Rectángulo_123" data-name="Rectángulo 123" width="78.697" height="0.271" transform="translate(65.575)" fill="#ced8e0"/>
        <rect id="Rectángulo_124" data-name="Rectángulo 124" width="65.575" height="0.271" fill="#fff"/>
      </g>
      <g id="Grupo_215" data-name="Grupo 215" transform="translate(483.188 373.24)">
        <rect id="Rectángulo_125" data-name="Rectángulo 125" width="96.013" height="0.271" transform="translate(144.273)" fill="#fff"/>
        <rect id="Rectángulo_126" data-name="Rectángulo 126" width="78.697" height="0.271" transform="translate(65.575)" fill="#ced8e0"/>
        <rect id="Rectángulo_127" data-name="Rectángulo 127" width="65.575" height="0.271" fill="#fff"/>
      </g>
      <path id="Trazado_607" data-name="Trazado 607" d="M498.528,298.064a1.365,1.365,0,0,0-1.93,0l-3.81,3.81V286.71a1.364,1.364,0,1,0-2.728,0v15.165l-3.809-3.81a1.364,1.364,0,0,0-1.93,1.928l6.138,6.139a1.365,1.365,0,0,0,1.93,0l6.138-6.139A1.364,1.364,0,0,0,498.528,298.064Z" transform="translate(0.06 0)" fill="#f29617"/>
      <path id="Trazado_608" data-name="Trazado 608" d="M628.651,298.064a1.365,1.365,0,0,0-1.93,0l-3.809,3.81V286.71a1.364,1.364,0,1,0-2.728,0v15.165l-3.809-3.81a1.364,1.364,0,0,0-1.93,1.928l6.138,6.139a1.365,1.365,0,0,0,1.93,0l6.138-6.139A1.364,1.364,0,0,0,628.651,298.064Z" transform="translate(10.758 0)" fill="#1d3347"/>
    </g>
  </g>
</svg>
