<?xml version="1.0" encoding="utf-8"?>
<!-- Generator: Adobe Illustrator 24.0.0, SVG Export Plug-In . SVG Version: 6.00 Build 0)  -->
<svg version="1.1" id="Capa_1" xmlns="http://www.w3.org/2000/svg" xmlns:xlink="http://www.w3.org/1999/xlink" x="0px" y="0px"
	 viewBox="0 0 200 200" style="enable-background:new 0 0 200 200;" xml:space="preserve">
<style type="text/css">
	.st0{fill:#FE9900;}
	.st1{fill:#ACAEAF;}
</style>
<g>
	<path class="st0" d="M183,134.4c-1.6-3.8-3.9-7.3-5.9-11c3.1-3.7,3.6-5.7,1.6-7.6c-0.7-0.7-1.7-1.1-2.7-1.3
		c-2.6-0.4-3.9,1.8-5.4,3.1c-3.4-1.9-6.6-3.7-9.9-5.5c1.6-4.1-0.3-6.8-4.8-6.8c-6.2,0-12.3-0.1-18.5,0.1c-1.3,0-2.8,0.5-3.7,1.3
		c-1.8,1.5-1.7,3.6-0.6,5.6c-0.5,0.2-0.9,0.4-1.3,0.6c-16.6,7.2-26.1,23.7-23.4,41.5c2.2,14.8,10.7,25.2,24.7,30.8
		c3.3,1.3,7,1.8,10.6,2.7c2.2,0,4.3,0,6.5,0c0.4-0.1,0.8-0.2,1.2-0.3c6.1-0.7,11.6-2.8,16.8-6C183.4,171.8,190.1,151.1,183,134.4z
		 M146.9,179.1c-16.7,0-30.4-13.7-30.4-30.4c0-16.7,13.6-30.2,30.3-30.3c16.7,0,30.3,13.5,30.4,30.2
		C177.2,165.4,163.6,179.1,146.9,179.1z"/>
	<path class="st1" d="M102.2,119.1c-1.1,0-2.2,0-3.3,0c0-9.4,0-18.6,0-27.7c0.4-0.1,0.6-0.1,0.8-0.1c9,0,18,0,27.1,0
		c0.9,0,1.3,0.2,1.4,1.2c0.3,1.9,1.6,3,3.4,3.4c1.8,0.4,3.5-0.5,4.4-2.2c0.4-0.7,0.6-1.6,0.9-2.3c9.6,0,19.2,0,29,0
		c0,1.2,0,2.3,0,3.3c0,1.1,0,2.2,0.1,3.3c0.2,2.1,1.7,3.7,3.6,4.1c1.8,0.3,3.9-0.7,4.6-2.6c0.4-0.9,0.4-2,0.4-3c0-14.7,0-29.3,0-44
		c0-4.4-1.4-5.8-5.7-5.8c-49.6,0-99.1,0-148.7,0c-3.5,0-6,1.1-6,5.9c0.1,35.1,0.1,70.2,0.1,105.4c0,0.6,0,1.3,0,1.9
		c0.1,1.9,1.3,3.3,3.2,3.8c0.8,0.2,1.7,0.2,2.5,0.2c24.5,0,49,0,73.5,0c3.6,0,5.2-1.5,5.2-5.2c0-9.7,0-19.3,0-29c0-0.6,0-1.2,0-1.9
		c1.4,0,2.4,0,3.5,0c2.5-0.1,4.4-2,4.4-4.3C106.6,121,104.7,119.2,102.2,119.1z M52,155c-9.7,0-19.3,0-29,0c0-9.1,0-18.1,0-27.2
		c9.6,0,19.2,0,29,0C52,136.9,52,145.9,52,155z M52,119c-9.6,0-19.3,0-29,0c0-9.3,0-18.4,0-27.6c9.7,0,19.3,0,29,0
		C52,100.6,52,109.7,52,119z M90,155c-9.7,0-19.3,0-29.1,0c0-9,0-18,0-27.1c9.6,0,19.3,0,29.1,0C90,137,90,145.9,90,155z M60.9,119
		c0-9.2,0-18.4,0-27.6c9.6,0,19.2,0,29,0c0,9.2,0,18.3,0,27.6C80.3,119,70.7,119,60.9,119z M98.7,66c0-3.5-1.6-5.6-4.4-5.6
		c-2.7,0-4.3,2.1-4.3,5.5c0,5.5,0,11,0,16.6c-9.8,0-19.4,0-29.3,0c0-1.2,0-2.3,0-3.5c0-4.6,0-9.1,0-13.7c0-3-1.8-4.9-4.4-4.9
		c-2.5,0-4.3,2-4.3,5c0,5.6,0,11.3,0,17.1c-9.7,0-19.4,0-29.1,0c0-8.9,0-17.9,0-27.1c47.5,0,95.1,0,142.8,0c0,9.1,0,18,0,27.1
		c-9.7,0-19.3,0-29.2,0c0-0.6,0-1.2,0-1.8c0-5.3,0-10.5,0-15.8c0-2.2-1.4-3.9-3.4-4.4c-2-0.4-3.9,0.5-4.8,2.4
		c-0.4,0.8-0.4,1.8-0.4,2.7c0,5,0,9.9,0,14.9c0,0.6,0,1.2,0,2c-9.8,0-19.5,0-29.3,0c0-1.8,0-3.5,0-5.2C98.7,73.5,98.7,69.7,98.7,66z
		"/>
	<path class="st1" d="M14.7,36.2c0.9,1.9,2.9,2.8,4.8,2.4c1.8-0.4,3.3-2.2,3.4-4.3c0.1-2,0-3.9,0-5.9c9.9,0,19.5,0,29.1,0
		c0.5,5.3,1.6,7.1,4.3,7c1,0,2-0.4,2.8-1c2.1-1.5,1.6-3.8,1.7-6c22.4,0,44.7,0,66.9,0c0.3,1.7,0.3,3.3,0.8,4.7
		c0.6,1.6,2.1,2.4,3.8,2.3c2.8-0.1,3.9-1.8,4.3-7.1c9.7,0,19.4,0,29.1,0c0,1.7,0,3.4,0,5c0,3.2,1.7,5.2,4.4,5.2c2.7,0,4.3-2,4.3-5.3
		c0-2.7,0-5.5,0-8.2c0-4-1.4-5.5-5.5-5.5c-10.2,0-20.3,0-30.5,0c-0.6,0-1.2,0-2,0c0.2-3.5,0.2-7.2-4.2-7.4c-4.7-0.1-4.5,3.8-4.5,7.3
		c-22.4,0-44.7,0-67.2,0c0-1,0-1.9,0-2.8c-0.1-2.7-2-4.6-4.4-4.5c-2.4,0-4.2,2-4.3,4.6c0,0.9,0,1.8,0,2.8c-0.8,0-1.5,0-2.1,0
		c-10.3,0-20.6,0-30.8,0c-3.4,0-4.9,1.6-5,4.9c0,3.1,0,6.2,0,9.2C14.3,34.7,14.4,35.6,14.7,36.2z"/>
	<path class="st0" d="M154.9,137c-1.3,0.4-2.5,1.3-3.9,2.1c0-2,0.1-4.1,0-6.2c-0.1-2.4-2-4.2-4.3-4.2c-2.3,0-4.2,1.8-4.3,4.2
		c-0.1,5.7,0,11.4,0,17.1c0,1.7,0.8,3.2,2.4,3.8c1.6,0.7,3.4,0.7,4.7-0.5c3.3-3.1,6.5-6.3,9.6-9.5c1.2-1.3,1.2-3.5,0.2-5
		C158.4,137.3,156.7,136.5,154.9,137z"/>
</g>
</svg>
