<?xml version="1.0" encoding="utf-8"?>
<!-- Generator: Adobe Illustrator 24.0.0, SVG Export Plug-In . SVG Version: 6.00 Build 0)  -->
<svg version="1.1" id="Capa_1" xmlns="http://www.w3.org/2000/svg" xmlns:xlink="http://www.w3.org/1999/xlink" x="0px" y="0px"
	 viewBox="0 0 400 400" style="enable-background:new 0 0 400 400;" xml:space="preserve">
<style type="text/css">
	.st0{fill:#1C3247;}
	.st1{fill:#FE9900;}
</style>
<g>
	<path class="st0" d="M14.9,338.9c0-92.3,0-184.6,0-276.9c0.2-0.2,0.4-0.3,0.4-0.5c4-12.4,11.1-17.6,24.1-17.6c15.3,0,30.7,0,46,0
		c1.3,0,2.6,0,4.1,0c0-2.8,0-5.2,0-7.6c0.3-11.9,9.9-21.3,21.6-21.4c11.8,0,21.5,9.3,21.8,21.2c0.1,2.5,0,5,0,7.6
		c39.3,0,78.3,0,117.5,0c0-2.5,0-4.8,0-7.1c0.2-12.1,9.7-21.7,21.7-21.7s21.5,9.4,21.8,21.6c0.1,2.4,0,4.8,0,7.4c1.7,0,3,0,4.3,0
		c15.2,0,30.4,0,45.7,0c15.8,0,24.7,8.9,24.7,24.7c0,66.5,0,133.1,0,199.6c0,2.8,0.6,4.9,2.4,7.2c30,37.7,13,93.1-32.9,107.5
		c-4.2,1.3-8.6,2.1-12.9,3.1c-4.6,0-9.2,0-13.8,0c-0.6-0.2-1.1-0.5-1.7-0.5c-19-2.5-34.3-11.5-46.2-26.5c-0.9-1.1-2.8-1.9-4.2-1.9
		c-15.8-0.1-31.7-0.1-47.5-0.1c-5.9,0-11.8,0-17.8,0c-3,0-5.8-1.2-6.6-4.1c-0.6-2.3-0.5-5.6,0.8-7.3c1.3-1.7,4.5-2.9,6.8-2.9
		c18.4-0.2,36.7-0.1,55.1-0.1c1.2,0,2.5-0.1,3.5-0.2c-1.5-6.9-2.9-13.4-4.4-20.1c-1.4,0-2.8,0-4.3,0c-61.7,0-123.5,0-185.2,0
		c-8.1,0-10.2-2.1-10.2-10.4c0-55.1,0-110.2,0-165.2c0-7.7,2.2-10,9.9-10c88.2,0,176.4,0,264.6,0c7.5,0,9.7,2.3,9.7,9.7
		c0,33.6,0,67.2,0,100.7c0,1.4,0,2.9,0,3.9c7,2.9,13.6,5.7,20,8.4c0-47.6,0-95.2,0-143c-1.9,0-3.4,0-5,0c-88.4,0-176.9,0-265.3,0
		c-1.4,0-2.9,0.1-4.3-0.1c-3.7-0.5-6.4-3.6-6.3-7.2c0-3.6,2.8-6.7,6.5-7.1c1.3-0.2,2.7-0.1,4-0.1c88.7,0,177.4,0,266,0
		c1.5,0,3,0,4.8,0c0-11.8,0-23.2,0-34.5c0-6.2-2.9-9-9.2-9c-15.9,0-31.9,0-47.8,0c-0.9,0-1.9,0-3.1,0c0,2.6,0,4.9,0,7.1
		c-0.2,12.3-9.8,21.9-21.9,21.8c-11.9-0.1-21.4-9.6-21.6-21.8c0-2.4,0-4.7,0-7c-39.4,0-78.3,0-117.5,0c0,2.7,0.1,5.2,0,7.7
		c-0.4,11.7-10,21-21.6,21c-11.8,0.2-21.5-9.2-21.8-21c-0.1-2.5,0-5,0-7.8c-1.7,0-3,0-4.3,0c-15.1,0-30.2,0-45.3,0
		c-8.3,0-10.6,2.3-10.6,10.5c0,87.7,0,175.4,0,263.1c0,8.3,2.3,10.6,10.5,10.6c31.7,0,63.3,0,95,0c4.9,0,8.2,3.1,8.2,7.3
		c0,4.1-3.3,7.2-7.9,7.2c-32.9,0-65.7,0.1-98.6,0c-9.4,0-17.4-6.1-20.5-15.1C15.7,340.9,15.3,339.9,14.9,338.9z M317.9,264.2
		c-29.6,0-53.7,24.1-53.7,53.7c0,29.4,24,53.5,53.4,53.6c29.6,0.1,53.8-24,53.9-53.5C371.6,288.4,347.5,264.3,317.9,264.2z
		 M157.3,193.8c0-14.4,0-28.5,0-42.4c-13.2,0-26,0-38.9,0c0,14.3,0,28.3,0,42.4C131.5,193.8,144.3,193.8,157.3,193.8z M226.1,151.3
		c0,14.4,0,28.4,0,42.4c13.1,0,26,0,39.1,0c0-14.2,0-28.3,0-42.4C252.1,151.3,239.2,151.3,226.1,151.3z M118.2,307.5
		c13.2,0,26.1,0,39.1,0c0-14.2,0-28.3,0-42.4c-13.1,0-26,0-39.1,0C118.2,279.3,118.2,293.3,118.2,307.5z M118.4,208.5
		c0,14.2,0,28,0,41.7c13.2,0,26.1,0,38.9,0c0-14,0-27.8,0-41.7C144.2,208.5,131.4,208.5,118.4,208.5z M265.3,250.3
		c0-14,0-27.7,0-41.6c-13.2,0-26.1,0-39.2,0c0,14,0,27.7,0,41.6C239.2,250.3,252.1,250.3,265.3,250.3z M103.4,151.4
		c-13.3,0-26.1,0-39,0c0,14.3,0,28.3,0,42.3c13.1,0,26,0,39,0C103.4,179.5,103.4,165.6,103.4,151.4z M172.4,151.3
		c0,14.4,0,28.4,0,42.4c13.1,0,26,0,38.8,0c0-14.3,0-28.3,0-42.4C198.1,151.3,185.4,151.3,172.4,151.3z M319.1,193.8
		c0-14.4,0-28.4,0-42.4c-13.1,0-26,0-38.8,0c0,14.3,0,28.3,0,42.4C293.3,193.8,306.1,193.8,319.1,193.8z M103.4,265.2
		c-13.3,0-26.1,0-39,0c0,14.3,0,28.3,0,42.3c13.1,0,26,0,39,0C103.4,293.3,103.4,279.3,103.4,265.2z M172.4,265.1
		c0,14.4,0,28.4,0,42.4c13.1,0,26,0,38.8,0c0-14.3,0-28.3,0-42.4C198.1,265.1,185.4,265.1,172.4,265.1z M103.3,250.4
		c0-14.1,0-27.9,0-41.7c-13.1,0-26,0-38.8,0c0,14,0,27.8,0,41.7C77.4,250.4,90.2,250.4,103.3,250.4z M211.2,250.3
		c0-14.1,0-27.9,0-41.7c-13.1,0-25.9,0-38.8,0c0,14,0,27.8,0,41.7C185.3,250.3,198.1,250.3,211.2,250.3z M319.2,208.6
		c-13.1,0-26,0-39,0c0,14,0,27.8,0,41.8c6.6,0,13,0.1,19.4,0c6.5-0.1,12.9-0.5,19.6-0.7C319.2,235.9,319.2,222.4,319.2,208.6z
		 M226.2,265.1c0,14.3,0,28.3,0,42.5c8.2,0,16.1,0,24.1,0c0.3-1,0.6-1.9,0.8-2.9c1.8-9.6,5.4-18.6,11.4-26.2c3.4-4.3,3-8.5,2.7-13.3
		C252.2,265.1,239.3,265.1,226.2,265.1z M118.5,51.1c0-4.6,0.1-9.2,0-13.7c-0.1-4.7-3-7.9-7.1-7.9c-4.3-0.1-7.3,3.2-7.4,8
		c-0.1,9.2-0.1,18.3,0,27.5c0,4.7,2.9,7.9,7.1,8c4.3,0.1,7.3-3.2,7.4-8C118.6,60.3,118.5,55.7,118.5,51.1z M265,51.2
		c0,4.6,0,9.2,0,13.7c0.1,4.7,2.9,7.9,7.1,8c4.3,0.1,7.4-3.2,7.4-8c0.1-9.2,0.1-18.3,0-27.5c0-4.7-2.9-7.9-7.1-8
		c-4.3-0.1-7.3,3.2-7.4,8C264.9,42,265,46.6,265,51.2z"/>
	<path class="st0" d="M51.2,101.9c4,0.1,7.3,3.5,7.1,7.5c-0.2,3.8-3.5,7-7.3,6.9c-4-0.1-7.3-3.5-7.1-7.5
		C44,105,47.4,101.9,51.2,101.9z"/>
	<path class="st0" d="M164.9,342.5c3.9,0.1,7.1,3.4,7.1,7.3c0,4-3.6,7.4-7.6,7.2c-3.9-0.2-6.9-3.5-6.8-7.4
		C157.7,345.6,161,342.5,164.9,342.5z"/>
	<path class="st1" d="M316.3,322.9c7.2-7.2,13.9-13.9,20.7-20.7c0.9-0.9,1.9-1.9,2.9-2.7c2.9-2.1,6.8-1.7,9.3,0.8s2.9,6.4,0.6,9.2
		c-1.6,2.1-3.6,3.9-5.5,5.8c-7.1,7.1-14.2,14.2-21.3,21.3c-4.8,4.8-8.3,4.8-13,0.1c-4.4-4.3-8.7-8.7-13.1-13.1
		c-3.6-3.7-3.8-7.7-0.7-10.9c3-3.1,7.3-3,10.9,0.6C310.1,316.4,313,319.5,316.3,322.9z"/>
</g>
</svg>
