<?xml version="1.0" encoding="utf-8"?>
<!-- Generator: Adobe Illustrator 24.0.0, SVG Export Plug-In . SVG Version: 6.00 Build 0)  -->
<svg version="1.1" id="Capa_1" xmlns="http://www.w3.org/2000/svg" xmlns:xlink="http://www.w3.org/1999/xlink" x="0px" y="0px"
	 viewBox="0 0 200 200" style="enable-background:new 0 0 200 200;" xml:space="preserve">
<style type="text/css">
	.st0{fill:#606060;}
	.st1{fill:#FE9900;}
	.st2{fill:#1C3247;}
</style>
<g>
	<path class="st0" d="M13,171.1c0-32,0-64,0-96c0.1-0.1,0.2-0.3,0.2-0.4c2-10,8.4-15.2,18.6-15.2c38.7,0,77.4,0,116.2,0
		c0.7,0,1.5,0,2.2,0c0.2-0.6,0.4-1.1,0.5-1.6c2.9-8.9,5.9-17.9,8.8-26.8c1-2.9,2.7-5.3,5.7-5.9c2.1-0.4,2.7-1.5,3.2-3.3
		c1-4.2,2.9-7.6,7.4-8.8c1.1,0,2.3,0,3.4,0c0.2,0.1,0.4,0.3,0.6,0.3c5,1.7,7.2,6,5.6,11c-0.4,1.5-1,2.9-1.4,4.4
		c-0.1,0.6,0,1.4,0.4,1.9c2.4,2.7,3,5.7,1.8,9.1c-0.8,2.4-1.6,4.8-2.4,7.2c-1.7,5-3.3,10-4.9,15c4.5,3.7,6.2,6,7.4,9.8
		c0.3,1.1,0.6,2.2,0.8,3.2c0,32,0,64,0,96c-0.2,0.6-0.3,1.3-0.5,1.9c-1.9,8.3-8.8,13.7-17.7,13.7c-44,0-87.9,0-131.9,0
		c-2.3,0-4.6,0-7,0c-7.5-0.2-14.1-5.4-16.2-12.5C13.5,173.1,13.3,172.1,13,171.1z M143,135.9c-0.1,0.1-0.2,0.1-0.2,0.2
		c-0.6,1.6-1.1,3.3-1.7,4.9c-0.7,1.9-2.2,2.7-3.8,2.1c-1.6-0.6-2.2-2.1-1.7-3.9c0.4-1.3,0.8-2.6,1.3-3.9c0.4-0.9,0.2-1.5-0.7-2.1
		c-2.2-1.5-3.4-3.6-3.6-6.2c-0.2-3.3-0.5-6.5-0.6-9.8c0-1.4,0.2-2.9,0.6-4.3c3.7-11.3,7.4-22.5,11.1-33.8c0.2-0.7,0.5-1.5,0.7-2.3
		c-37,0-73.9,0-110.9,0c0,30.9,0,61.6,0,92.3c44.4,0,88.7,0,133,0c0-23.2,0-46.2,0-69.2c-0.4,0.3-0.5,0.7-0.6,1.1
		c-1.5,4.4-3.2,8.7-4.3,13.2c-1.7,6.8-5.1,12.5-9.9,17.6C149.2,134.6,146.7,136.4,143,135.9z M176.9,67.9c-1.3,4-2.6,7.7-3.8,11.5
		c-0.4,1.3-0.7,2.7-0.7,4.1c0,28.2,0,56.4,0,84.6c0,4.9-2.1,7-7.1,7c-43.6,0-87.2,0-130.8,0c-4.8,0-6.9-2.1-6.9-6.9
		c0-30,0-60,0-90.1c0-5.1,2-7.1,7.2-7.1c36.5,0,73,0,109.4,0c0.5,0,0.9,0.1,1.4,0c0.4-0.1,0.8-0.4,1-0.7c0.6-1.6,1.1-3.3,1.7-5.1
		c-0.7,0-1.1,0-1.6,0c-38.6,0-77.1,0-115.7,0c-7.3,0-12.1,5-12.1,12.4c0,30.3,0,60.6,0,90.9c0,7.5,4.9,12.4,12.5,12.4
		c45.8,0,91.5,0,137.3,0c0.8,0,1.7,0,2.5-0.1c6.2-1,10-5.7,10-12.4c0-26.6,0-53.3,0-79.9c0-3.8,0-7.6,0-11.4
		C181.1,73.5,179.9,70.4,176.9,67.9z M137.5,117.8c0.1,0,0.2,0,0.2,0.1c0.2,2.8,0.3,5.6,0.6,8.4c0.1,0.8,0.5,1.9,1.1,2.1
		c1.6,0.8,3.3,1.2,4.9,1.6c0.5,0.1,1.4-0.2,1.7-0.6c3.1-3.9,6.9-7.2,8.5-12.2c8.5-26.3,17.3-52.6,26-78.9c0.9-2.8,0.4-3.8-2.4-4.7
		c-2.8-0.9-5.6-1.8-8.4-2.8c-3-1-3.9-0.5-4.9,2.5c-8.8,26.8-17.7,53.7-26.5,80.5C137.9,115.2,137.8,116.5,137.5,117.8z M178.2,27.6
		c0.6-1.9,1.2-3.6,1.7-5.4c0.3-1.4-0.2-2.5-1.5-3c-1.3-0.5-2.6-0.2-3.2,1.1c-0.8,1.8-1.3,3.7-2,5.6C175,26.5,176.5,27,178.2,27.6z"
		/>
	<path class="st0" d="M173.4,43.5c0-1.7-1-2.8-2.4-3.1c-1.5-0.3-2.7,0.4-3.3,2c-1.2,3.6-2.4,7.2-3.6,10.7c-0.7,2.2-0.1,3.7,1.6,4.3
		c1.7,0.6,3.2-0.3,3.9-2.5c1.1-3.4,2.3-6.7,3.4-10.1C173.2,44.4,173.3,43.8,173.4,43.5z"/>
	<path class="st1" d="M99.5,134.5c-3,4.2-5.9,8.2-8.8,12.2c-3,4.1-6.4,4.5-10.1,1c-4.3-4-9.3-6.3-15.4-7.1c0,1.8,0,3.6,0,5.4
		c-0.1,5.5-3.3,9.8-8.4,11.3c-4.6,1.3-8.6,0.1-11.7-3.3c-3.2-3.5-3.9-7.6-2.2-12c1.7-4.4,5.1-6.9,9.8-7.2c2.2-0.2,4.4,0,6.7,0
		c0-6,0-11.7,0-17.2c-2.5-0.6-4.9-1.2-7.2-1.9c-1.1-0.3-2.1-1-3-1.6c-1.4-1-1.7-2.7-0.8-4c0.9-1.4,2.6-1.7,4.2-0.7
		c2,1.3,4.3,2,7,2.1c0-1.9,0-3.8,0-5.6c0.1-6.1,4.1-10.6,10.1-11.5c6.3-1,12.2,3.8,13,10.3c0.7,6.1-4.1,12.1-10.2,12.6
		c-2.3,0.2-4.6,0-6.9,0c-0.1,0.6-0.1,0.8-0.1,1.1c0,5.4,0,10.8,0,16c3.7,1.2,7.4,2,10.7,3.5c3.3,1.6,6.3,3.9,9.6,6
		c0,0,0.3-0.3,0.5-0.6c2.8-3.8,5.5-7.6,8.2-11.4c2.9-4,7.2-4.1,10.1-0.2c3.1,4,7.2,6.1,12.3,6c2,0,4.1,0,6.1,0
		c1.9,0,3.1,1.3,3.1,2.9c0,1.6-1.3,2.9-3.1,2.9c-3.2,0-6.5,0.2-9.7-0.2C107.6,142.3,103,139.4,99.5,134.5z M59.4,140.4
		c-2.1,0-4-0.1-5.9,0c-3.2,0.1-5.5,2.5-5.6,5.7c0,3.1,2.3,5.6,5.4,5.9c2.9,0.2,5.7-2,6-5C59.5,144.9,59.4,142.8,59.4,140.4z
		 M65.3,111.4c2.3,0,4.4,0.1,6.5,0c2.9-0.2,5.1-3,5-5.9c-0.1-3-2.5-5.4-5.6-5.6c-2.8-0.2-5.6,2-5.9,4.8
		C65.2,106.9,65.3,109.1,65.3,111.4z"/>
	<path class="st2" d="M173.4,43.5c-0.1,0.3-0.2,0.9-0.4,1.4c-1.1,3.4-2.2,6.7-3.4,10.1c-0.7,2.2-2.2,3.1-3.9,2.5
		c-1.7-0.6-2.3-2.1-1.6-4.3c1.2-3.6,2.3-7.2,3.6-10.7c0.5-1.6,1.8-2.3,3.3-2C172.4,40.7,173.4,41.8,173.4,43.5z"/>
</g>
</svg>
