<?xml version="1.0" encoding="utf-8"?>
<!-- Generator: Adobe Illustrator 24.0.0, SVG Export Plug-In . SVG Version: 6.00 Build 0)  -->
<svg version="1.1" id="Capa_1" xmlns="http://www.w3.org/2000/svg" xmlns:xlink="http://www.w3.org/1999/xlink" x="0px" y="0px"
	 viewBox="0 0 80 80" style="enable-background:new 0 0 80 80;" xml:space="preserve">
<style type="text/css">
	.st0{fill:#FE9900;}
	.st1{fill:#ACAEAF;}
</style>
<g>
	<path class="st0" d="M40.3,6.5c2,1.1,4,2.1,5.9,3.2c3.3,1.9,6.6,3.8,9.9,5.7c0.6,0.4,1.2,0.8,1.3,1.6c0.3,1.4-0.7,2.7-2.2,2.8
		c-1.1,0-2.3,0-3.4,0c0,0,0,0-0.1,0.1c0,0.8,0,1.6,0,2.4c0,0.7-0.3,1.2-0.9,1.2c-0.6,0-1-0.4-1-1.2c0-0.8,0-1.6,0-2.5
		c-0.8,0-1.6,0-2.5,0c0,3.1,0,6.3,0,9.4c0.8,0,1.6,0,2.5,0c0-0.9,0-1.7,0-2.6c0-0.2,0-0.4,0-0.6c0-0.7,0.4-1.1,1-1.1
		c0.5,0,0.9,0.4,0.9,1.1c0,1.1,0,2.1,0,3.3c0.5,0,0.9,0,1.3,0c0.9,0.1,1.7,0.5,2.2,1.3c0.3,0.5,0.2,1-0.2,1.3
		c-0.4,0.3-0.9,0.3-1.3-0.2c-0.3-0.4-0.7-0.5-1.2-0.5c-8.6,0-17.2,0-25.9,0c-0.5,0-0.9,0.1-1.2,0.5c-0.3,0.4-0.9,0.5-1.3,0.2
		c-0.4-0.3-0.5-0.8-0.2-1.3c0.5-0.8,1.2-1.2,2.2-1.3c0.4,0,0.8,0,1.3,0c0-3.2,0-6.3,0-9.5c-0.8,0-1.5,0-2.3,0c-0.4,0-0.7,0-1.1,0
		c-1.1,0-2-0.7-2.2-1.6c-0.3-1,0.1-2,1.1-2.5c2.3-1.3,4.6-2.7,6.9-4c2.4-1.4,4.8-2.8,7.2-4.2c0.6-0.3,1.2-0.6,1.8-0.9
		C39.3,6.5,39.8,6.5,40.3,6.5z M39.6,17.9c5.1,0,10.2,0,15.3,0c0.2,0,0.5-0.2,0.7-0.3c-0.2-0.2-0.3-0.4-0.5-0.6
		c-4.7-2.7-9.4-5.5-14.1-8.2c-1-0.6-1.9-0.6-2.8,0c-3.4,2-6.9,4-10.3,6c-1.3,0.8-2.6,1.5-3.9,2.3c-0.2,0.1-0.3,0.3-0.4,0.5
		c0.2,0.1,0.4,0.2,0.6,0.3c0.1,0,0.3,0,0.4,0C29.6,17.9,34.6,17.9,39.6,17.9z M33.8,19.8c0,3.2,0,6.3,0,9.4c0.9,0,1.8,0,2.6,0
		c0-3.2,0-6.3,0-9.4C35.5,19.8,34.7,19.8,33.8,19.8z M42.8,19.8c0,3.2,0,6.3,0,9.4c0.9,0,1.8,0,2.6,0c0-3.2,0-6.3,0-9.4
		C44.5,19.8,43.7,19.8,42.8,19.8z M29.4,19.8c0,3.2,0,6.3,0,9.4c0.8,0,1.6,0,2.4,0c0-3.2,0-6.3,0-9.4C31,19.8,30.2,19.8,29.4,19.8z
		 M38.4,19.8c0,3.2,0,6.3,0,9.4c0.8,0,1.6,0,2.4,0c0-3.2,0-6.3,0-9.4C40,19.8,39.2,19.8,38.4,19.8z"/>
	<path class="st1" d="M55.1,52.9c-0.1,0.9-0.4,1.5-1.1,2c-0.8,0.5-1.7,0.4-2.5-0.1c-0.3-0.2-0.6-0.3-1-0.1c-1.9,1-3.2,0.4-3.7-1.8
		c-0.2,0-0.5,0-0.8,0c-8.4,0-16.9,0-25.3,0c-2.6,0-4.6-1.1-5.7-3.5c-0.4-0.8-0.5-1.7-0.6-2.6c-0.1-2.4,0-4.9,0-7.3c0-3.5,2.6-6,6-6
		c15.2,0,30.4,0,45.6,0c1.6,0,2.7,1.1,2.8,2.7c0,0.5,0,0.9,0,1.4c0,1.7-1.1,2.8-2.8,2.8c-0.3,0-0.7,0-1.1,0c0,1.9,0,3.8,0,5.7
		c0.4,0,0.8,0,1.1,0c1.6,0.1,2.7,1.1,2.8,2.8c0,0.5,0,0.9,0,1.4c0,1.6-1.1,2.7-2.7,2.7c-1.7,0-3.4,0-5.1,0
		C59.1,52.9,57.1,52.9,55.1,52.9z M46.9,47.9c-0.3,0-0.6,0-0.8,0c-5.7,0-11.4,0-17.1,0c-2.2,0-4.4,0-6.6,0c-1.8,0-2.9-1.2-2.9-3
		c0-1,0.1-2.1,0-3.1c-0.1-2,1.3-3.4,3.3-3.4c14.1,0,28.3,0,42.4,0c1.9,0,1.9,0,1.9-1.9c0-1-0.2-1.2-1.2-1.2c-15.1,0-30.2,0-45.3,0
		c-2.6,0-4.3,1.7-4.3,4.3c0,2.3,0,4.6,0,6.9c0,2.8,1.7,4.4,4.4,4.4c8.5,0,16.9,0,25.4,0c0.2,0,0.4,0,0.7,0
		C46.9,49.9,46.9,49,46.9,47.9z M63.2,40.4c-0.1,0-0.2,0-0.3,0c-13.5,0-27,0-40.5,0c-0.8,0-1.1,0.4-1.1,1.1c0,1.1,0,2.1,0,3.2
		c0,1.1,0.3,1.4,1.4,1.4c7.8,0,15.6,0,23.5,0c0.2,0,0.4,0,0.7,0c0-0.7,0-1.2,0-1.9c-0.3,0-0.5,0-0.8,0c-6.2,0-12.5,0-18.7,0
		c-0.2,0-0.4,0-0.6,0c-0.5-0.1-0.8-0.3-0.8-0.8c0-0.5,0.2-0.9,0.8-1c0.2-0.1,0.5,0,0.7,0c11.7,0,23.3,0,35,0c0.3,0,0.5,0,0.8,0
		C63.2,41.6,63.2,41,63.2,40.4z M48.9,44.1c0,0.1,0,0.2-0.1,0.3c0,2.8,0,5.6,0,8.4c0,0.6,0.2,0.7,0.7,0.4c1-0.6,1.9-0.6,2.9,0
		c0.7,0.4,0.8,0.3,0.8-0.5c0-2.6,0-5.2,0-7.9c0-0.2,0-0.4,0-0.6C51.7,44.1,50.3,44.1,48.9,44.1z M55.1,47.9c0,1.1,0,2,0,3.1
		c0.3,0,0.5,0,0.8,0c3.1,0,6.2,0,9.4,0c1.9,0,1.9,0,1.9-1.9c0-1.1-0.2-1.3-1.2-1.3c-3.4,0-6.8,0-10.2,0
		C55.5,47.9,55.3,47.9,55.1,47.9z M63.2,44.1c-2.7,0-5.4,0-8.1,0c0,0.6,0,1.2,0,1.8c2.7,0,5.4,0,8.1,0
		C63.2,45.3,63.2,44.8,63.2,44.1z"/>
	<path class="st1" d="M16,57.9c0,0.7,0,1.3,0,1.9c0.3,0,0.5,0,0.8,0c11.7,0,23.3,0,35,0c0.2,0,0.5,0,0.7,0c0.5,0,0.8,0.3,0.8,0.8
		c0,0.5-0.2,0.8-0.7,1c-0.3,0.1-0.5,0.1-0.8,0.1c-11.7,0-23.3,0-35,0c-0.3,0-0.5,0-0.8,0c0,0.7,0,1.2,0,1.9c0.2,0,0.5,0,0.7,0
		c13.2,0,26.5,0,39.7,0c1.1,0,1.4-0.3,1.4-1.4c0-0.8,0-1.7,0-2.5c0-1.7-0.1-1.8-1.8-1.8c-1.3,0-2.7,0-4,0c-0.2,0-0.4,0-0.6,0
		c-0.5-0.1-0.8-0.4-0.8-0.9c0-0.5,0.3-0.9,0.8-0.9c0.6-0.1,1.3,0,1.9,0c1.1,0,2.3,0,3.4,0c1.7,0,2.9,1.2,2.9,2.9c0,1.1,0,2.2,0,3.2
		c0,2.1-1.1,3.2-3.2,3.2c-14.3,0-28.7,0-43,0c-1.2,0-1.4,0.1-1.4,1.4c0,1.8,0,1.8,1.8,1.8c14.8,0,29.6,0,44.4,0
		c2.9,0,4.6-1.6,4.6-4.6c0-2.3,0-4.5,0-6.8c0-0.8,0.3-1.2,0.9-1.2c0.6,0,1,0.4,1,1.2c0,2.4,0,4.8,0,7.2c0,3.4-2.6,6-6,6
		c-15.2,0-30.4,0-45.6,0c-1.7,0-2.8-1.1-2.8-2.8c0-0.5,0-1,0-1.6c0.1-1.4,1.2-2.4,2.6-2.5c0.4,0,0.8,0,1.3,0c0-1.9,0-3.8,0-5.7
		c-0.4,0-0.7,0-1.1,0c-1.7-0.1-2.7-1.1-2.7-2.8c0-0.5,0-1.1,0-1.6c0.1-1.3,1.1-2.3,2.4-2.5c0.6-0.1,1.1,0.2,1.2,0.8
		c0.1,0.5-0.2,1-0.9,1.1c-0.6,0.1-0.9,0.4-0.9,1c0,0.4,0,0.9,0,1.3c0,0.5,0.3,0.8,0.8,0.8c0.2,0,0.5,0,0.7,0c11.2,0,22.4,0,33.7,0
		c0.2,0,0.5,0,0.7,0c0.5,0.1,0.8,0.4,0.8,0.9c0,0.5-0.3,0.8-0.8,0.9c-0.2,0-0.5,0-0.7,0c-10.1,0-20.2,0-30.3,0
		C16.6,57.9,16.3,57.9,16,57.9z"/>
	<path class="st0" d="M42.6,13.4c0,1.6-1.3,3-3,3c-1.6,0-3-1.4-3-3c0-1.6,1.4-3,3-3C41.2,10.4,42.6,11.7,42.6,13.4z M40.7,13.4
		c0-0.6-0.5-1.1-1.1-1.1c-0.6,0-1.1,0.5-1.1,1.1c0,0.6,0.5,1.1,1.1,1.1C40.2,14.5,40.7,14,40.7,13.4z"/>
</g>
</svg>
