<?xml version="1.0" encoding="utf-8"?>
<!-- Generator: Adobe Illustrator 24.0.0, SVG Export Plug-In . SVG Version: 6.00 Build 0)  -->
<svg version="1.1" id="Capa_1" xmlns="http://www.w3.org/2000/svg" xmlns:xlink="http://www.w3.org/1999/xlink" x="0px" y="0px"
	 viewBox="0 0 200 200" style="enable-background:new 0 0 200 200;" xml:space="preserve">
<style type="text/css">
	.st0{fill:#ACAEAF;}
	.st1{fill:#FE9900;}
	.st2{fill:#1C3247;}
</style>
<g>
	<path class="st0" d="M25.7,188.7c-0.5-0.2-1.1-0.5-1.5-0.6c-5.4-1.8-8.9-7.2-8-12.7c0.9-5.9,5.6-10.1,11.5-10.3c0.8,0,1.5,0,2.6,0
		c-1.4-2.6-2.1-5.1-1.8-7.8c0.6-5.9,5.6-10.4,11.5-10.6c4.1,0,8.1,0,12.4,0c0.6,0,1.1,0,2,0c-2.6-4.4-2.6-8.6,0-13.1
		c-2.1,0-4.1,0-5.9,0c-9.5,0-14.9-8.9-10.9-17.5c0.2-0.2,0.2-0.5,0.3-0.9c-1.4,0-2.6,0-3.9,0c-5,0-8.9-2.1-11-6.6
		c-2.3-4.5-1.5-8.9,1.7-12.8c0.2-0.2,0.2-0.3,0.3-0.6c-2.6-1.7-4.4-4.1-5.3-7.1c-2-7.5,3.5-14.8,11.3-14.9c5.3-0.2,10.6,0,16,0
		c0.6,0,1.2,0,2.1,0c-2.3-4.4-2.6-8.6,0-12.8c-0.3-0.2-0.6-0.3-0.9-0.3c-6.6-0.8-11.3-5.9-10.9-12.2c0.3-6.5,5.4-11.3,12.2-11.3
		c9.2,0,18.2,0,27.4,0c1.5,0,2.3-0.5,3-1.7c11.2-16.6,27-24.7,46.7-23.5c19.9,1.2,34.7,11.2,43.7,29.1c0.5,0.8,0.8,2,0.5,2.7
		c-0.3,0.8-1.2,1.7-2,1.8c-0.9,0-2.1-0.6-2.7-1.4c-1.1-1.5-1.8-3.3-2.9-5c-9.8-15.1-23.7-22.8-41.8-22.3
		c-22.6,0.6-41.5,17.8-44.5,40.1c-3.5,25.6,14.2,49.2,40,52.9c24.9,3.6,48.6-13.9,52.6-38.6c0.9-5.6,0.8-11.3-0.3-16.9
		c-0.2-0.9-0.2-2.3,0.3-2.9c0.5-0.6,1.8-1.2,2.4-1.1c0.9,0.3,2,1.2,2.1,2.1c1.2,5.1,1.7,10.6,1.1,15.8c-2.1,18.5-11.5,32.4-28,41.3
		c-0.2,0-0.2,0.2-0.5,0.5c0.6,0,0.9,0.2,1.4,0.2c3.6,0,7.2,0,10.7,0c9.5,0,15.1,8.9,11,17.5c-0.2,0.2-0.2,0.5-0.5,0.9
		c4.8-0.5,9.2,0.6,12.2,4.5c1.8,2.4,2.7,5.1,2.6,8.1c-0.5,6.9-5.1,10.6-14.3,11.2c0.5,2.1,1.2,4.2,1.4,6.3c0,2.1-0.8,4.4-1.2,6.6
		c0.8,0.2,1.7,0.2,2.7,0.3c5.3,1.2,9.2,5.6,9.3,10.9c0.3,5.7-3.2,10.4-8.4,12.1c-0.5,0.2-0.9,0.3-1.2,0.5
		C123.4,188.7,74.5,188.7,25.7,188.7z M99.7,110c0-0.2,0.2-0.3,0.2-0.3c-0.2,0-0.3-0.2-0.5-0.2c-5.7-3-10.9-6.9-15.2-11.9
		c-0.3-0.5-1.1-0.6-1.7-0.6c-16.3,0-32.6,0-48.9,0c-4.2,0-7.2,3-7.1,6.8c0.2,3.8,3,6.3,7.2,6.3c6.2,0,12.5,0,18.7,0
		c1.8,0,3,1.1,2.9,2.7c0,1.5-1.1,2.4-2.9,2.6c-1.7,0-3.3,0-5,0c-3.8,0.2-6.5,2.9-6.5,6.5c0,3.8,2.9,6.5,6.9,6.6c10,0,19.9,0,29.9,0
		c0.3,0,0.6,0,1.2,0c-2.6-4.4-2.4-8.6,0-13.1c-1.1,0-2,0-2.7,0c-4.2,0-8.3,0-12.5,0c-1.7,0-2.9-1.1-2.9-2.6s1.2-2.6,2.9-2.6
		c0.5,0,0.9,0,1.4,0c10.9,0,21.9,0,32.7,0C98.5,110,99.1,110,99.7,110z M137.1,146.8c11.6,0,23.2,0,34.8,0c4.2,0,7.1-2.9,7.1-6.6
		s-3-6.5-7.1-6.5c-19.5,0-38.8,0-58.2,0c-3.8,0-7.7,0-11.5,0c-3.2,0-5.6,1.8-6.5,4.5c-1.4,4.4,1.8,8.6,6.6,8.6
		C113.9,146.8,125.5,146.8,137.1,146.8z M124,165.2c11.8,0,23.4,0,35.1,0c3.8,0,6.8-2.9,6.8-6.5c0-3.6-2.7-6.6-6.3-6.6
		c-23.7,0-47.2,0-70.9,0c-2.9,0-5,1.7-5.9,4.2c-1.7,4.4,1.7,8.7,6.6,8.7C100.9,165.2,112.5,165.2,124,165.2z M124,128.4
		c6.2,0,12.4,0,18.5,0c5.7,0,11.3,0,17,0c3.5,0,6.2-2.7,6.5-6c0.3-3.3-2.1-6.3-5.4-6.9c-0.8-0.2-1.7-0.2-2.4-0.2
		c-15.7,0-31.4,0-47,0c-7.1,0-14.3,0-21.4,0c-3.2,0-5.6,1.5-6.6,4.1c-1.7,4.4,1.5,8.9,6.3,8.9C100.7,128.4,112.4,128.4,124,128.4z
		 M135,170.3c-11.6,0-23.2,0-34.8,0c-3.2,0-5.7,1.7-6.6,4.4c-1.5,4.4,1.7,8.7,6.6,8.7c13,0,25.9,0,38.9,0c10.1,0,20.4,0,30.5,0
		c3.2,0,5.7-1.7,6.6-4.2c1.7-4.4-1.7-8.7-6.5-8.7C158.2,170.3,146.6,170.3,135,170.3z M89.9,183.4c-2.6-4.5-2.4-8.7,0-13.1
		c-0.6,0-1.1,0-1.5,0c-20.1,0-40,0-60,0c-0.5,0-0.8,0-1.2,0c-4.4,0.5-7.1,4.8-5.6,8.9c1.1,2.7,3.5,4.2,6.8,4.2c16.3,0,32.6,0,48.9,0
		C81.3,183.4,85.4,183.4,89.9,183.4z M79.3,91.6c-1.8-3.9-3.5-7.5-5.1-11.3c-0.5-1.2-0.9-1.8-2.4-1.8c-13.3,0-26.5,0-39.8,0
		c-0.8,0-1.7,0-2.4,0.2c-2.6,0.5-4.2,2-5,4.2c-1.5,4.4,1.7,8.6,6.3,8.6c15.8,0,31.7,0,47.5,0C78.7,91.7,79,91.6,79.3,91.6z M79,152
		c-5.4,0-10.7,0-16,0c-7.5,0-15.1,0-22.6,0c-4.2,0-7.1,2.9-6.9,6.8c0.2,3.8,3,6.3,7.1,6.3c12.4,0,24.7,0,37.1,0c0.5,0,0.9,0,1.4-0.2
		C76.5,160.6,76.6,156.4,79,152z M91.9,133.9c-0.3-0.2-0.3-0.2-0.5-0.2c-9.3,0-18.5,0-27.9,0c-3,0-5.4,2.3-6,5.1
		c-0.9,4.2,2.1,8,6.6,8c8.9,0,17.9,0,26.8,0c0.3,0,0.5,0,1.1-0.2C89.4,142.2,89.4,138,91.9,133.9z M75.4,42.1L75.3,42
		c-9,0-17.9,0-27,0c-2.6,0-4.4,1.5-5.3,3.9c-1.8,4.2,1.2,9,5.9,9c7.4,0.2,14.9,0,22.3,0c0.3,0,0.6-0.2,0.6-0.2
		C73,50.6,74.2,46.3,75.4,42.1z M71,60.4c-4.4,0-8.6-0.2-13,0c-3.5,0.2-6,3.2-5.9,6.6c0.2,3.5,2.9,6.2,6.5,6.2s7.4,0,11.2,0
		c0.8,0,1.5,0,2.3,0C71.6,69,71.3,64.7,71,60.4z"/>
	<path class="st1" d="M122.2,30.5c-9.7,0.3-18.4,4.5-25,13c-0.5,0.6-0.9,1.2-1.4,1.5c-1.2,0.8-2.4,0.6-3.3-0.5
		c-1.1-1.1-0.9-2.3,0-3.5c3.3-4.5,7.4-8.3,12.4-11c23.2-12.7,51.6,0.9,56.1,27c3.8,21.3-11.9,41.9-33.2,44
		C107.8,103.2,90,90.2,86,70.6c-1.4-6.2-0.9-12.4,0.9-18.5c0.6-2.3,2-3.2,3.5-2.6c1.7,0.6,2.1,1.8,1.5,4.1
		c-4.5,15.8,2.6,32.1,17.2,39.1c19.5,9.3,42.5-2.6,46.3-23.8C159.3,48.9,143.7,30.4,122.2,30.5z"/>
	<path class="st2" d="M120.7,42.6c0-2,0-3.8,0-5.6c0-2.3,1.1-3.5,2.7-3.5c1.7,0,2.6,1.4,2.6,3.6c0,1.7,0,3.5,0,5
		c2.3,0.8,4.5,1.2,6.5,2c1.4,0.5,2.1,1.5,1.8,3.2c-0.5,2.1-2,3-3.9,2c-3-1.5-6-2-9.2-1.2c-2.1,0.5-3.8,1.7-4.1,3.9
		c-0.5,2.4,0.5,4.2,2.6,5.4c1.7,0.9,3.5,1.7,5.1,2.4c1.1,0.5,2,0.9,3,1.2c7.2,3.2,8.7,9.2,7.1,15.8c-0.9,3.8-3.5,6.3-7.2,7.5
		c-0.5,0.2-1.1,0.3-1.5,0.5c0,0-0.2,0-0.3,0.2c0,1.5,0,3.2,0,4.8c0,2-1.1,3.2-2.7,3.2c-1.5,0-2.6-1.2-2.6-3c0-1.5,0.5-3.5-0.3-4.5
		c-0.6-0.9-2.7-0.8-4.1-1.5c-1.8-1.1-3.6-2.1-5.1-3.6c-0.6-0.6-0.9-2.3-0.6-3.3c0.6-2.1,2.4-2.6,4.1-0.9c2.4,2.6,5.3,3.8,8.9,3.5
		c3-0.3,5.1-1.7,5.9-4.1c0.9-2.9,0.2-6-2.3-7.7c-2-1.4-4.1-2.1-6.2-3.2c-1.4-0.6-2.7-1.2-4.1-1.8c-4.2-2.3-6.2-6-5.6-10.7
		c0.6-4.8,3-7.7,7.8-9C119.6,43,120.1,42.9,120.7,42.6z"/>
</g>
</svg>
