<?xml version="1.0" encoding="utf-8"?>
<!-- Generator: Adobe Illustrator 24.0.0, SVG Export Plug-In . SVG Version: 6.00 Build 0)  -->
<svg version="1.1" id="Capa_1" xmlns="http://www.w3.org/2000/svg" xmlns:xlink="http://www.w3.org/1999/xlink" x="0px" y="0px"
	 viewBox="0 0 200 200" style="enable-background:new 0 0 200 200;" xml:space="preserve">
<style type="text/css">
	.st0{fill:#ACAEAF;}
	.st1{fill:#1C3247;}
	.st2{fill:#FE9900;}
</style>
<path class="st0" d="M151.3,159c1.8,0.2,3.6,0.2,5.2,0.5c4.7,1.1,8.2,5.2,8.3,9.9c0.2,6.4,0,12.6,0,19c0,0.2,0,0.3-0.2,0.6
	c-1.7,0-3.3,0-5.3,0c0-0.6,0-1.2,0-1.8c0-5.5,0-10.9,0-16.4c0-3.9-2.1-6.1-6.1-6.1c-8.6,0-17.1,0-25.8,0c-3.9,0-6.1,2.1-6.1,6.2
	c0,5.9,0,12,0,18.1c-1.8,0-3.5,0-5.5,0c0-19.9,0-39.6,0-59.5c-4.6,0-9,0-13.7,0c0,1.5,0,3,0,4.6c0.2,5.9-1.4,11.2-5,16.1
	c-0.3,0.3-0.5,0.8-0.5,1.2c0,2.6,0,5.2,0,8c1.1,0,2.1,0,3,0c5.6,0.2,10.3,4.7,10.5,10.3c0.2,6.4,0,12.9,0,19.4c-1.8,0-3.5,0-5.5,0
	c0-0.6,0-1.2,0-1.8c0-5.5,0-10.9,0-16.4c0-3.9-2.1-6.1-6.1-6.1c-8.6,0-17.1,0-25.8,0c-3.9,0-6.1,2.1-6.1,6.1c0,6.1,0,12.1,0,18.2
	c-1.8,0-3.5,0-5.5,0c0-2,0-3.8,0-5.8c0-4.2,0-8.3,0-12.6c0-6.8,4.6-11.4,11.5-11.5c0.6,0,1.2,0,2,0c0-2.9,0-5.8,0-8.5
	c0-0.3-0.2-0.5-0.3-0.8c-3.6-4.7-5.2-10.2-5-16.2c0-1.4,0-2.9,0-4.4c-4.6,0-9,0-13.5,0c0,19.9,0,39.6,0,59.5c-1.8,0-3.5,0-5.5,0
	c0-0.6,0-1.2,0-1.8c0-5.5,0-10.9,0-16.4c0-3.9-2.1-6.1-6.1-6.1c-8.6,0-17.1,0-25.8,0c-3.9,0-6.1,2.1-6.1,6.1c0,6.1,0,12.1,0,18.2
	c-1.8,0-3.5,0-5.5,0c0-1.4,0-2.9,0-4.2c0-4.7,0-9.3,0-14c0-7,4.6-11.5,11.5-11.7c0.6,0,1.2,0,2,0c0-2.9,0-5.6,0-8.3
	c0-0.3-0.3-0.8-0.5-1.1c-3.2-4.2-4.9-9.1-4.9-14.4c0-3.3-0.2-6.5,0.3-9.9c0.9-5.8,5.9-9.9,11.7-9.9c3.5,0,7-0.2,10.5,0.3
	c5.8,0.9,9.9,5.9,10,11.8c0,3.6,0,7.3-0.3,10.8c-0.5,4.1-2,7.7-4.6,11.1c-0.3,0.3-0.5,0.8-0.6,1.2c0,2.7,0,5.5,0,7.9
	c2.9,0.5,5.5,0.9,8.2,1.4c0-2.3,0-4.7,0-7.3c0-8.5,0-16.8,0-25.3c0-2.6,0.3-3,2.7-3.9c0-7.6,0-15.2,0-22.8c0-9.9,4.6-15.6,14-18.1
	c2.6-0.6,5-1.2,7.7-2c0-1.1,0.2-2,0-3c0-0.6-0.3-1.2-0.8-1.5c-2.9-2.3-5-5.2-6.4-8.6c-0.2,0.2-0.9-0.3-1.5-0.3
	c-2.3,0-4.2-0.5-6.1-1.7c-5.5-3.8-5.6-11.8-0.2-15.5c1.1-0.8,1.4-1.5,1.4-2.7c0-4.2-0.2-8.6,0.3-12.9c0.9-7.4,7.7-13,15.2-13.4
	c4.9-0.2,9.9-0.2,14.7,0c4.7,0.2,7.9,2.7,9.7,7c0.3,0.9,0.8,1.5,1.7,1.8c4.4,1.5,7.1,5.5,7.1,10.2c0,2.6,0,5.2,0,7.7
	c0,0.6,0.5,1.5,0.9,1.8c3.6,2.6,5.3,6.7,3.9,10.8c-1.2,3.9-4.9,6.7-9.3,6.7c-1.5,0-2,0.5-2.7,1.7c-1.2,2.4-2.6,4.9-4.6,6.5
	c-1.8,1.7-2.4,3.3-1.8,5.8c1.8,0.3,3.6,0.8,5.5,1.2c5.2,1.1,8.8,4.1,10.8,9c1.1,2.7,2.3,5.6,3.3,8.3c0.2,0.5,0.5,1.1,0.8,1.7
	c2.3-1.2,4.6-2.6,6.8-3.8c4.2-2.4,8.6-4.9,12.9-7.1c5-2.7,10.3-1.4,13,3.2c2.6,4.4,1.1,10.5-3.6,13.2c-8.3,4.7-16.7,9.3-25.2,13.7
	c-4.1,2.1-8.2,1.4-11.8-1.7c-0.5-0.3-0.9-0.8-1.5-1.4c0,2.4,0,4.4,0,6.8c3.2,0,6.2,0,9.4,0c3.3,0,4.1,0.8,4.1,4.1
	c0,10.2,0,20.3,0,30.5c0,0.6,0,1.2,0,1.7c2.7-0.5,5.3-0.9,8.2-1.4c0-2.6,0-5.3,0-8c0-0.3-0.3-0.8-0.5-1.1c-3.2-4.1-4.7-8.8-4.9-14
	c-0.2-3.3-0.2-6.7,0.3-10c0.9-5.9,6.1-10,12-10c3.5,0,7-0.2,10.3,0.3c5.8,0.9,9.9,5.9,9.9,11.8c0,4.7,0.6,9.4-1.1,14
	c-1.1,2.7-2.6,5.3-3.8,7.9c-0.2,0.5-0.5,0.9-0.5,1.4C151.1,153.6,151.3,156.4,151.3,159z M72.4,50.5c0,3.8,0,7.4,0,11.1
	c0.2,7.4,6.2,13.5,13.5,13.5c7.4,0,13.5-5.9,13.5-13.5c0-3.8,0-7.7,0-11.5c0-0.5-0.2-1.1-0.5-1.4c-1.5-1.7-3-3.3-4.7-5
	C88.4,50.3,80.7,51.1,72.4,50.5z M132,99c-4.7,2.6-9.1,5-13.5,7.4c-3.2,1.7-4.2,1.4-5.6-2.1c-1.5-3.9-3.2-7.7-4.7-11.7
	c-0.8-2.1-2.3-3.6-4.4-4.7c-2.3,2.3-4.6,4.6-6.8,6.8c-1.4,1.4-2.7,2.3-4.9,0.9c-0.2,0.9-0.6,1.7-0.5,2.4c0.5,5.5,0.9,11.1,1.5,16.5
	c0,0.5,0.5,1.2,0.9,1.5c3.2,1.4,5.6,3.5,7.1,6.7c0.2,0.3,0.5,0.6,1.1,1.2c0-4.9,0-9.1,0-13.4c0-1.4,0.3-2.6,1.8-3.2
	c1.4-0.6,2.4,0.2,3.3,1.1c1.7,1.7,3.3,3.3,5,5c2.1,2.1,4.4,2.4,7,1.1c1.8-0.9,3.5-1.8,5.2-2.9c3.6-2,7.4-4.1,11.2-6.2
	C134.6,103.6,133.2,101.5,132,99z M67.1,46.1c1.2-0.3,2.4-0.9,3.5-0.9c2.9-0.2,5.6,0,8.5,0c5-0.2,9.1-2.1,12.3-6.1
	c2.1-2.7,3.3-2.7,5.8-0.3c2.6,2.6,5.2,5.2,8,8c0-2.6,0-4.9,0-7.1c-0.2-2.7-2.1-4.9-4.9-5.2c-2.4-0.3-2.9-0.8-3.2-3.2
	c-0.3-2.9-2.6-4.9-5.3-4.9c-4.7,0-9.4-0.2-14.1,0c-5.5,0.2-10,4.6-10.3,10C66.9,39.6,67.1,43,67.1,46.1z M42.6,133c0-2,0-3.3,0-4.7
	c-0.2-4.1-3-7-7.1-7.1c-2.4,0-5,0-7.4,0c-4.1,0-7.1,3-7.1,7.3c0,2.1,0,4.2,0,6.4c0,3.8,1.1,7.1,2.9,10.3c1.2,2,2.9,3,5.3,3.2
	c1.7,0,3.3,0,4.9,0c2.9,0,4.9-1.2,6.2-3.8C42.2,140.6,42.8,136.6,42.6,133z M96.9,133c0-2,0-3.3,0-4.7c-0.2-4.1-3-7-7.1-7.1
	c-2.4,0-5,0-7.4,0c-4.1,0-7.1,3-7.1,7.3c0,2.1,0,4.2,0,6.4c0,3.8,1.1,7.1,2.9,10.3c1.2,2,2.9,3,5.3,3.2c1.7,0,3.3,0,4.9,0
	c2.9,0,4.9-1.2,6.2-3.8C96.5,140.6,97.1,136.6,96.9,133z M129.4,132.6c-0.3,3.9,0.5,8.3,2.7,12.3c1.2,2,2.9,3.2,5.2,3.3
	c0.9,0,2,0,2.9,0c6.2,0.3,7.6-1.1,10-7.1c0.2-0.5,0.3-0.9,0.3-1.4c0.2-4.2,0.6-8.5,0.5-12.6c-0.2-3.3-3.2-5.9-6.5-5.9
	c-2.7-0.2-5.6-0.2-8.3,0c-3.8,0.2-6.5,3-6.7,6.8C129.4,129.4,129.4,130.7,129.4,132.6z M79.9,96c-2.3,1.4-3.6,0.5-4.9-0.9
	c-1.8-2-3.8-3.6-5.6-5.6c-0.8-0.9-1.7-0.9-2.7-0.6c-4.7,1.5-7.9,5.6-7.9,10.8c0,7.7,0,15.5,0,23.2c0,0.3,0.2,0.8,0.2,1.1
	c1.8,0,3.5,0,5.3,0c0-6.4,0-12.6,0-18.8c1.8,0,3.5,0,5.5,0c0,6.4,0,12.6,0,19c0.3-0.2,0.5-0.2,0.6-0.2c0.2-0.2,0.3-0.3,0.3-0.6
	c1.5-3.2,3.9-5.5,7.1-6.8c0.5-0.2,0.9-0.9,0.9-1.5c0.6-5.5,1.1-10.9,1.5-16.4C80.4,97.8,80.1,97.1,79.9,96z M26.4,159.1
	c3.6,0,7.1,0,10.6,0c0-2,0-3.8,0-5.5c-3.6,0-7.1,0-10.6,0C26.4,155.3,26.4,157.1,26.4,159.1z M91.3,153.6c-3.6,0-7.1,0-10.6,0
	c0,1.8,0,3.6,0,5.5c3.6,0,7.1,0,10.6,0C91.3,157.1,91.3,155.3,91.3,153.6z M135,153.8c0,1.7,0,3.5,0,5.3c3.6,0,7.1,0,10.6,0
	c0-2,0-3.6,0-5.3c-1.8,0-3.5,0-5.3,0C138.7,153.8,136.8,153.8,135,153.8z M136.7,96.4c1.4,2.4,2.7,4.7,3.9,7
	c1.4-0.9,2.6-1.4,3.6-2.3c1.7-1.5,2-3.8,0.8-5.5s-3.2-2-5.3-0.9C138.8,95.2,137.9,95.8,136.7,96.4z M66.9,61.4c0-2.7,0-5.3,0-8
	c-2-0.3-3.6,0.2-4.7,2c-0.9,1.4-0.9,2.7,0,4.1C63.3,61.1,64.9,61.7,66.9,61.4z M105.1,61.4c2.3,0.3,3.9-0.3,4.9-2.1
	c0.8-1.5,0.6-3-0.5-4.2c-1.2-1.5-2.7-1.8-4.6-1.5C105.1,56.1,105.1,58.7,105.1,61.4z M86.2,99.6c-0.2,0-0.3,0-0.5,0
	c-0.5,5.3-0.9,10.6-1.5,15.9c1.2,0,2.3,0,3.3,0C87.2,110.1,86.8,104.9,86.2,99.6z M91.5,80.1c-3.8,0-7.3,0-10.8,0
	c0,0.2,0,0.9,0.2,1.1c1.7,0.6,3.5,1.7,5.2,1.7c1.8,0,3.5-1.1,5.3-1.7C91.5,81,91.3,80.4,91.5,80.1z M97.4,86.7c0-0.2,0-0.3,0-0.5
	c-2,0.2-4.1,0.3-6.1,0.5c1.2,1.4,2,2.4,2.7,3.3C95.3,88.7,96.3,87.6,97.4,86.7z M74.9,86.3c0,0.2,0,0.5,0,0.6c1.1,1.1,2,2.1,2.7,2.9
	c1.1-0.9,2.1-1.8,3.2-2.6c0-0.2,0-0.5-0.2-0.6C78.7,86.4,76.9,86.4,74.9,86.3z M83.7,92.3c0.5,1.1,1.1,2.1,2.4,1.7
	c0.9-0.3,1.7-0.9,2.6-1.4c-1.2-1.1-2-1.8-2.9-2.7C85.3,90.7,84.5,91.4,83.7,92.3z"/>
<g>
	<path class="st1" d="M181.1,59.3c-2.3,0.6-4.2,1.1-6.2,1.5c-2.4,0.6-4.2-1.1-4.1-3.5c0.2-1.4,1.1-2.3,2.6-2.7
		c3.2-0.8,6.4-1.5,9.7-2.3c1.2-0.3,2.3-0.6,3.5-0.8c2-0.5,3.6,0.6,4.1,2.4c1.1,4.4,2.1,8.8,3.2,13.2c0.5,2-0.5,3.5-2.3,3.9
		c-2,0.5-3.5-0.5-3.9-2.4c-0.5-1.7-0.8-3.3-1.2-5.2c-0.6,0.8-1.2,1.4-1.7,2c-7.6,7.9-16.7,11.5-27.6,10.6
		c-14.7-1.1-27.5-12.4-30.3-26.9c-0.2-1.1-0.5-2.1-0.5-3.3c-0.2-2,1.1-3.3,2.9-3.5c1.8-0.2,3.2,1.1,3.5,2.9
		c0.8,5.8,2.9,10.9,6.8,15.3c6.1,6.7,13.5,9.7,22.5,9.1c7.6-0.5,13.8-3.8,18.8-9.6C180.7,59.9,180.8,59.7,181.1,59.3z"/>
	<path class="st2" d="M138.4,26.8c1.8-0.5,3.5-0.8,5.2-1.2c0.5-0.2,0.9-0.2,1.4-0.3c1.8-0.5,3.3,0.6,3.8,2.4
		c0.5,1.8-0.5,3.3-2.3,3.8c-1.5,0.5-3.2,0.8-4.7,1.2c-2.7,0.6-5.6,1.4-8.3,2c-2.1,0.5-3.6-0.5-4.2-2.6c-1.1-4.4-2.1-8.8-3.2-13.2
		c-0.3-1.4,0.5-2.9,1.7-3.5c1.4-0.6,2.9-0.5,3.8,0.8c0.5,0.5,0.6,1.2,0.9,1.8c0.5,1.5,0.8,3,1.2,4.7c0.6-0.6,1.1-1.2,1.5-1.7
		c5-5.5,11.4-8.6,18.5-10.3c14.6-3.2,35.3,5.6,39.6,26.4c0.2,0.9,0.3,1.8,0.5,2.7c0.3,2.1-0.8,3.6-2.6,3.9c-2.1,0.3-3.5-0.9-3.8-3
		c-0.3-2.9-1.1-5.6-2.3-8.3c-4.4-9.1-11.7-14.6-21.7-15.8c-9.6-1.2-17.6,2.1-24.1,9.4C138.8,26.4,138.7,26.5,138.4,26.8z"/>
</g>
</svg>
