<?xml version="1.0" encoding="utf-8"?>
<!-- Generator: Adobe Illustrator 24.0.0, SVG Export Plug-In . SVG Version: 6.00 Build 0)  -->
<svg version="1.1" id="Capa_1" xmlns="http://www.w3.org/2000/svg" xmlns:xlink="http://www.w3.org/1999/xlink" x="0px" y="0px"
	 viewBox="0 0 200 200" style="enable-background:new 0 0 200 200;" xml:space="preserve">
<style type="text/css">
	.st0{fill:#ACAEAF;}
	.st1{fill:#1C3247;}
	.st2{fill:#FE9900;}
</style>
<g>
	<path class="st0" d="M136.9,155c-23.2,0-46.3,0-69.5,0c-4.2-1.7-5.1-3.1-5.1-7.7c0-12.8,0-25.5,0-38.3c0-0.4,0-0.8,0-1.2
		c-0.6,0-1,0-1.4,0c-9.5,0.3-18.3-5.7-21.5-14.6c-0.7-1.8-1-3.8-1.4-5.7c0-1.4,0-2.7,0-4.1c0.1-0.4,0.2-0.7,0.2-1.1
		C39.9,71,49.7,62.8,61.3,63.2c0.3,0,0.6,0,1,0c0-2,0-3.9,0-5.9c0-1.6,0.5-3,1.5-4.2c0.9-1.2,2.3-1.7,3.6-2.1c17.5,0,35.1,0,52.6,0
		c0.5,0.4,1.1,0.7,1.6,1.2c6.4,6.4,12.8,12.7,19.1,19.1c0.5,0.5,0.8,1.1,1.2,1.6c0,25.7,0,51.3,0,77c-0.2,0.5-0.4,1.1-0.6,1.6
		C140.5,153.4,138.9,154.4,136.9,155z M117.6,55.1c-0.3,0-0.4,0-0.6,0c-16.1,0-32.2,0-48.2,0c-1.6,0-2.3,0.8-2.4,2.4
		c0,1.8,0,3.7,0,5.5c0,0.8,0.2,1.2,1,1.4c9.1,3,15.3,11.6,15.3,21.2c0,9.5-6.2,18.1-15.2,21.1c-0.8,0.3-1,0.6-1,1.4
		c0,13.3,0,26.7,0,40c0,2.2,0.6,2.8,2.8,2.8c21.9,0,43.9,0,65.8,0c2.2,0,2.8-0.6,2.8-2.8c0-23.9,0-47.7,0-71.6c0-0.4,0-0.7,0-1.1
		c-0.5,0-0.9,0-1.3,0c-5.4,0-10.8,0-16.1,0c-2.3,0-2.9-0.6-2.9-2.9C117.6,66.7,117.6,61,117.6,55.1z M58.3,67.5
		c-8.2,0.6-16.5,8.1-16.2,18.5c0.2,10.3,8.8,18.3,19.1,17.8c10.5-0.5,16.8-9.2,17.2-16.2c-0.4,0-0.7,0-1.1,0c-5.4,0-10.8,0-16.1,0
		c-2.1,0-2.8-0.7-2.8-2.8c0-3.7,0-7.3,0-11C58.3,71.7,58.3,69.6,58.3,67.5z M78.4,83.4c-0.8-9.1-9-15.7-16-15.9c0,5.3,0,10.6,0,15.9
		C67.8,83.4,73.1,83.4,78.4,83.4z M134.6,71.3c-4.3-4.3-8.6-8.6-12.9-12.9c0,4.2,0,8.5,0,12.9C126.1,71.3,130.4,71.3,134.6,71.3z"/>
	<path class="st0" d="M122.1,114.5c-2.2-3.8-0.3-7.5,2.4-8.8c2.3-1.1,5.2-0.7,7,1.2c1.8,1.9,2.3,4.7,1.1,7c-1.2,2.4-3.8,3.7-6.4,3.3
		c-0.4-0.1-0.9,0.1-1.1,0.3c-4.5,4.8-9,9.6-13.4,14.4c-0.1,0.1-0.1,0.2-0.2,0.3c1.4,2.5,1.4,5-0.5,7.3c-1.8,2.2-5.1,2.7-7.6,1.3
		c-2.4-1.4-3.6-4.5-2.7-7.1c0.3-0.8,0.1-1.2-0.3-1.8c-1.8-2.1-3.5-4.2-5.2-6.4c-0.4-0.5-0.7-0.5-1.3-0.4c-1.2,0.1-2.3,0.1-3.5,0
		c-0.6-0.1-1,0-1.4,0.4c-2.1,2.3-4.2,4.6-6.3,6.8c-0.4,0.4-0.5,0.8-0.3,1.3c1,2.8-0.2,5.8-2.7,7.2c-2.6,1.4-5.8,0.9-7.6-1.4
		c-1.9-2.3-1.9-5.5,0-7.8c1.7-1.9,3.8-2.6,6.3-1.9c0.7,0.2,1,0.1,1.5-0.4c2.1-2.3,4.1-4.6,6.3-6.8c0.4-0.4,0.4-0.8,0.3-1.3
		c-0.9-2.6,0-5.3,2.2-6.8c2.1-1.6,5.1-1.5,7.2,0.1c2.1,1.6,3,4.3,2,6.9c-0.2,0.6-0.1,1,0.3,1.4c1.8,2.2,3.5,4.4,5.3,6.6
		c0.4,0.5,0.7,0.6,1.3,0.4c0.8-0.2,1.7-0.3,2.5-0.2c0.7,0.1,1.2,0,1.7-0.6c4.2-4.6,8.4-9.1,12.7-13.6
		C121.6,115.1,121.8,114.8,122.1,114.5z M129.2,111.1c0-1.1-1-2-2-2c-1.1,0-2,1-2,2c0,1.1,1,2,2,2
		C128.2,113.1,129.2,112.2,129.2,111.1z M92.1,117.2c-1.1,0-2,0.9-2,2c0,1.1,0.9,2,2,2c1.1,0,2-0.9,2-2
		C94.1,118.2,93.1,117.3,92.1,117.2z M76.6,137.5c1.1,0,2-1,2-2c0-1.1-1-2-2-2c-1.1,0-2,1-2,2C74.6,136.6,75.5,137.5,76.6,137.5z
		 M108.3,135.5c0-1.1-1-2-2-2c-1.1,0-2,1-2,2c0,1.1,1,2,2,2C107.3,137.5,108.3,136.5,108.3,135.5z"/>
	<path class="st1" d="M112.3,87.6c-4.9,0-9.7,0-14.6,0c-0.3,0-0.7,0-1,0c-1.1-0.2-1.8-1-1.8-2c0-1,0.8-1.8,1.8-2c0.3,0,0.7,0,1,0
		c9.7,0,19.5,0,29.2,0c0.1,0,0.1,0,0.2,0c1.6,0,2.6,0.8,2.6,2c0,1.3-1,2-2.6,2C122.2,87.6,117.3,87.6,112.3,87.6z"/>
	<path class="st1" d="M112.3,95.7c-4.9,0-9.7,0-14.6,0c-0.3,0-0.7,0-1,0c-1.1-0.2-1.8-1-1.8-2c0-1,0.8-1.8,1.8-2c0.3,0,0.7,0,1,0
		c9.7,0,19.5,0,29.2,0c0.1,0,0.1,0,0.2,0c1.6,0,2.6,0.8,2.6,2c0,1.3-1,2-2.6,2C122.2,95.7,117.3,95.7,112.3,95.7z"/>
	<path class="st2" d="M100.8,67.2c-3.4,0-6.8,0-10.3,0c-0.6,0-1.3-0.1-1.7-0.5c-0.4-0.4-0.8-1.3-0.7-1.8c0.1-0.6,0.7-1.2,1.2-1.5
		c0.3-0.2,0.9-0.2,1.4-0.2c6.7,0,13.4,0,20.1,0c0.2,0,0.4,0,0.6,0c1.2,0.1,2.1,0.9,2.1,2c0,1.1-0.9,2-2.1,2c-1.6,0-3.2,0-4.8,0
		C104.7,67.3,102.7,67.3,100.8,67.2z"/>
	<path class="st2" d="M100.9,71.3c3.4,0,6.8,0,10.2,0c0.6,0,1.3,0.1,1.7,0.5c0.4,0.4,0.8,1.2,0.7,1.8c-0.1,0.6-0.7,1.2-1.2,1.5
		c-0.3,0.2-0.9,0.2-1.4,0.2c-6.7,0-13.4,0-20.1,0c-0.2,0-0.4,0-0.6,0c-1.2-0.1-2.1-0.9-2.1-2c0-1.1,0.9-2,2.1-2c1.5,0,3,0,4.5,0
		C96.7,71.3,98.8,71.3,100.9,71.3z"/>
	<path class="st1" d="M88.8,83.5c1.1,0,2,1,2,2c0,1.1-1,2-2,2c-1.1,0-2-1-2-2C86.8,84.4,87.8,83.5,88.8,83.5z"/>
	<path class="st1" d="M88.8,95.7c-1.1,0-2-1-2-2c0-1.1,1-2,2-2c1.1,0,2,1,2,2C90.8,94.7,89.8,95.7,88.8,95.7z"/>
	<path class="st0" d="M59.7,99.7c-7.3-0.2-13.5-6.5-13.6-13.8c0-1.3,0.6-2.1,1.6-2.4c1.3-0.3,2.3,0.7,2.4,2.3
		c0.1,2.3,0.9,4.3,2.3,6.1c1.9,2.4,4.4,3.6,7.5,3.8c1,0.1,1.8,0.3,2.2,1.3C62.8,98.4,61.6,99.8,59.7,99.7z"/>
</g>
</svg>
