<?xml version="1.0" encoding="utf-8"?>
<!-- Generator: Adobe Illustrator 24.0.0, SVG Export Plug-In . SVG Version: 6.00 Build 0)  -->
<svg version="1.1" id="Capa_1" xmlns="http://www.w3.org/2000/svg" xmlns:xlink="http://www.w3.org/1999/xlink" x="0px" y="0px"
	 viewBox="0 0 80 80" style="enable-background:new 0 0 80 80;" xml:space="preserve">
<style type="text/css">
	.st0{fill:#ACAEAF;}
	.st1{fill:#FE9900;}
</style>
<g>
	<path class="st0" d="M48.41,64.41c1.17,2.02,2.26,3.91,3.37,5.78c0.09,0.15,0.35,0.25,0.54,0.26c0.71,0.03,1.43,0,2.14,0.02
		c0.89,0.02,1.47,0.54,1.48,1.3c0.01,0.79-0.58,1.35-1.5,1.35c-9.48,0-18.96,0-28.44,0c-0.92,0-1.52-0.54-1.52-1.33
		c0-0.79,0.6-1.31,1.53-1.32c0.69-0.01,1.38,0.01,2.07-0.01c0.19-0.01,0.46-0.1,0.55-0.24c1.1-1.86,2.18-3.73,3.26-5.61
		c0.02-0.03-0.01-0.08-0.02-0.19c-0.25,0-0.51,0-0.77,0c-5.93,0-11.87,0.01-17.8,0c-2.33,0-4.1-1.37-4.59-3.53
		c-0.09-0.41-0.11-0.84-0.11-1.26c-0.01-14.61-0.01-29.23,0-43.84c0-2.9,1.87-4.78,4.77-4.78c17.89,0,35.78,0,53.67,0
		c2.91,0,4.79,1.87,4.79,4.76c0.01,14.64,0.01,29.27,0,43.91c0,2.85-1.89,4.74-4.74,4.74c-5.91,0.01-11.82,0-17.74,0
		C49.08,64.41,48.82,64.41,48.41,64.41z M69.18,33.68c-0.3,0-0.54,0-0.78,0c-3.86,0-7.72,0.01-11.58-0.01
		c-0.49,0-0.82,0.15-1.16,0.49c-4.71,4.73-9.43,9.44-14.14,14.15c-1.01,1.01-1.58,1.01-2.59,0c-4.76-4.76-9.53-9.52-14.29-14.29
		c-0.34-0.35-0.69-0.48-1.17-0.48c-3.81,0.02-7.63,0.01-11.44,0.01c-0.26,0-0.51,0-0.76,0c0,6.33,0,12.55,0,18.76
		c19.33,0,38.61,0,57.92,0C69.18,46.1,69.18,39.95,69.18,33.68z M40.2,21.47c0.81-0.79,1.53-1.54,2.3-2.25
		c3.57-3.3,8.74-3.66,12.61-0.91c3.87,2.76,5.22,7.75,3.3,12.21c-0.07,0.16-0.12,0.32-0.19,0.51c3.67,0,7.29,0,10.95,0
		c0.01-0.26,0.03-0.48,0.03-0.7c0-4.77,0-9.55,0-14.32c0-1.7-0.64-2.34-2.34-2.34c-17.78,0-35.56,0-53.34,0
		c-1.68,0-2.32,0.65-2.33,2.36c0,4.71,0,9.42,0,14.12c0,0.24,0,0.48,0,0.75c3.69,0,7.29,0,10.95,0c-0.11-0.28-0.2-0.5-0.28-0.72
		c-1.79-4.39-0.24-9.43,3.69-12.04c3.98-2.65,9.06-2.1,12.63,1.35C38.86,20.13,39.52,20.79,40.2,21.47z M11.22,55.01
		c0,1.73-0.05,3.38,0.02,5.02c0.04,1.12,0.83,1.72,2.06,1.72c17.94,0,35.88,0,53.82,0c1.35,0,2.06-0.7,2.09-2.05
		c0.02-0.87,0-1.74,0-2.61c0-0.68,0-1.36,0-2.08C49.84,55.01,30.57,55.01,11.22,55.01z M38.68,36.03c0.18-0.29,0.3-0.47,0.41-0.66
		c1.08-1.87,2.14-3.76,3.25-5.62c0.97-1.63,3.04-1.61,3.97,0.01c0.15,0.27,0.32,0.54,0.43,0.83c0.14,0.37,0.38,0.47,0.77,0.47
		c2.32-0.02,4.64,0.01,6.96-0.03c0.27,0,0.64-0.21,0.8-0.43c1.78-2.39,1.86-5.61,0.23-8.16c-1.58-2.48-4.59-3.77-7.47-3.23
		c-1.87,0.35-3.29,1.41-4.57,2.73c-0.74,0.77-1.48,1.55-2.26,2.28c-0.64,0.6-1.25,0.59-1.91,0.03c-0.39-0.33-0.74-0.71-1.12-1.06
		c-0.97-0.92-1.86-1.94-2.92-2.74c-2.74-2.05-6.56-1.77-9.11,0.57c-2.54,2.32-3.08,6.09-1.34,9.05c0.35,0.59,0.72,0.96,1.47,0.85
		c0.44-0.06,0.89-0.04,1.34,0c0.43,0.04,0.62-0.14,0.78-0.53c0.66-1.61,1.31-3.22,2.06-4.79c0.25-0.52,0.73-1.05,1.24-1.31
		c1.19-0.61,2.48,0.06,3.03,1.45C36.01,29.15,37.32,32.53,38.68,36.03z M28.16,33.58c4.04,4.04,8.1,8.1,12.06,12.06
		c3.94-3.94,7.93-7.94,11.95-11.96c-1.36,0-2.77-0.07-4.16,0.02c-1.66,0.11-3.02-0.21-3.68-1.94c-0.01-0.01-0.03-0.02-0.09-0.05
		c-1.18,2.04-2.36,4.08-3.53,6.13c-0.49,0.87-1.18,1.42-2.2,1.36c-1.07-0.06-1.71-0.7-2.09-1.7c-0.95-2.52-1.94-5.03-2.92-7.54
		c-0.32-0.81-0.64-1.62-1-2.55c-0.68,1.6-1.32,3.07-1.93,4.55c-0.4,0.95-1.06,1.52-2.12,1.57C28.32,33.55,28.19,33.58,28.16,33.58z
		 M48.79,70.43c-0.05-0.13-0.08-0.21-0.12-0.29c-1.04-1.79-2.07-3.59-3.13-5.37c-0.11-0.19-0.45-0.34-0.69-0.34
		c-3.1-0.02-6.2-0.01-9.3-0.02c-0.39,0-0.6,0.14-0.78,0.47c-0.49,0.88-1,1.74-1.51,2.6c-0.55,0.96-1.1,1.92-1.7,2.95
		C37.35,70.43,43.02,70.43,48.79,70.43z"/>
	<path class="st1" d="M45.04,57.05c0.78,0,1.39,0.61,1.38,1.4c-0.01,0.75-0.61,1.35-1.36,1.35c-0.75,0-1.36-0.58-1.37-1.33
		C43.66,57.68,44.26,57.06,45.04,57.05z"/>
	<path class="st1" d="M36.73,58.45c-0.01,0.73-0.65,1.35-1.38,1.34C34.63,59.79,34,59.16,34,58.43c0-0.76,0.66-1.4,1.41-1.37
		C36.13,57.08,36.74,57.73,36.73,58.45z"/>
	<path class="st1" d="M40.17,59.79c-0.73-0.02-1.34-0.65-1.33-1.39c0.01-0.76,0.68-1.39,1.43-1.35c0.73,0.04,1.32,0.69,1.29,1.42
		C41.54,59.21,40.9,59.81,40.17,59.79z"/>
</g>
</svg>
