<?xml version="1.0" encoding="utf-8"?>
<!-- Generator: Adobe Illustrator 24.0.0, SVG Export Plug-In . SVG Version: 6.00 Build 0)  -->
<svg version="1.1" id="Capa_1" xmlns="http://www.w3.org/2000/svg" xmlns:xlink="http://www.w3.org/1999/xlink" x="0px" y="0px"
	 viewBox="0 0 198.4 198.4" style="enable-background:new 0 0 198.4 198.4;" xml:space="preserve">
<style type="text/css">
	.st0{fill:#ACAEAF;}
	.st1{fill:#FE9900;}
</style>
<g>
	<path class="st0" d="M137,185c-2.8-1.2-3.9-3.3-3.8-6.4c0.1-6.8,0-13.6,0-20.3c0-0.6,0-1.2,0-2c-0.8,0-1.6-0.1-2.3-0.1
		c-3.4-0.2-5.8-2.5-5.8-5.9c-0.1-5.6,0-11.2,0-16.7c0-5.9,3.1-10.2,8.7-12.2c0.3-0.1,0.5-0.2,0.8-0.3c-2-6.9-0.8-11.7,3.9-14.9
		c4.1-2.9,9.6-2.8,13.7,0.1c4.6,3.3,5.8,8.1,3.8,14.4c2,1.3,4.1,2.4,5.8,4c2.4,2.1,3.5,5,3.5,8.2c0,5.7,0,11.5,0,17.2
		c0,3.6-2.4,5.9-6,6.1c-0.6,0-1.3,0-2.1,0c0,0.8-0.1,1.3-0.1,1.9c0,6.8-0.1,13.7,0,20.5c0.1,3-0.9,5.2-3.8,6.4
		C147.9,185,142.4,185,137,185z M152.2,180c0-4.8,0-9.5,0-14.2c0-9.4,0-18.7,0-28.1c0-2,1-3.2,2.6-3.1c1.5,0.1,2.3,1.1,2.4,3.1
		c0,2.4,0,4.8,0,7.2c0,2.1,0,4.1,0,6.1c2.6,0.4,3.2,0.2,3.2-1.2c0-5.8,0.1-11.6-0.1-17.4c-0.2-4.9-5.9-8.1-10.2-6
		c-3.3,1.6-6.7,1.4-10-0.1c-0.7-0.3-1.4-0.5-2.2-0.5c-4.7-0.1-7.8,3-7.8,7.7c0,5.1,0,10.2,0,15.3c0,2.5,0.5,2.9,3.2,2.1
		c0-0.6,0-1.3,0-1.9c0-3.9,0-7.9,0-11.8c0-1.7,1.1-2.7,2.5-2.7c1.4,0,2.3,1,2.4,2.6c0,0.5,0,1.1,0,1.6c0,13,0,26,0,39.1
		c0,0.7,0,1.4,0,2.1c1.6,0,3,0,4.6,0c0-0.7,0-1.4,0-2c0-6.1,0-12.1,0-18.2c0-0.5,0-1.1,0.1-1.6c0.2-1.4,1-2.2,2.4-2.2
		c1.4,0,2.2,0.8,2.4,2.2c0.1,0.5,0.1,1.1,0.1,1.6c0,6.2,0,12.4,0,18.5c0,0.6,0,1.2,0,1.8C149.2,180,150.6,180,152.2,180z
		 M145.2,122.6c3.7,0,6.8-3,6.8-6.7c0-3.8-3.1-6.9-6.9-6.9c-3.7,0-6.8,3-6.8,6.8C138.3,119.5,141.4,122.6,145.2,122.6z"/>
	<path class="st0" d="M147.1,16.9c0.2,0.1,0.5,0.3,0.7,0.3c7.2,1.9,10.8,8.9,8.2,15.9c-0.1,0.2-0.2,0.5-0.3,0.8
		c0.4,0.2,0.8,0.3,1.1,0.4c5.1,1.8,8.4,6.3,8.4,11.7c0.1,5.5,0,10.9,0,16.4c0,4.2-2.3,6.5-6.6,6.6c-0.4,0-0.9,0-1.5,0
		c0,0.7,0,1.3,0,1.9c0,6.9,0,13.9,0,20.8c0,4.2-1.8,6-6,6c-4,0-8,0-12,0c-4.1,0-6-1.9-6-6c0-6.9,0-13.8,0-20.7c0-0.6,0-1.2,0-2
		c-0.8,0-1.4,0-2,0c-3.6-0.1-6.1-2.5-6.1-6.1c0-5.1,0.2-10.2-0.1-15.3c-0.3-6.6,3-11.7,9.5-13.7c-0.3-0.9-0.6-1.8-0.8-2.7
		c-1.4-6.3,2.3-12.2,8.4-14c0.4-0.1,0.7-0.3,1-0.4C144.5,16.9,145.8,16.9,147.1,16.9z M157.1,64.2c1.4-0.3,3.2,0.7,3.2-1.5
		c0.1-5.7,0.1-11.5,0-17.2c-0.2-5-5.6-8.2-10.2-6.1c-3.3,1.5-6.7,1.4-10-0.1c-0.7-0.3-1.4-0.6-2.2-0.6c-4.6-0.1-7.8,3.1-7.9,7.8
		c0,5,0,10.1,0,15.1c0,2.7,0.3,3,3.2,2.4c0-4.2,0-8.5,0-12.7c0-2.6,0.8-3.8,2.5-3.8c1.7,0,2.4,1.2,2.4,3.8c0,13.2,0,26.4,0,39.5
		c0,0.7,0.1,1.4,0.1,2c1.6,0,3,0,4.5,0c0-0.7,0-1.3,0-1.9c0-6.1,0-12.3,0-18.4c0-0.6,0-1.2,0.1-1.8c0.3-1.3,1.1-2,2.4-1.9
		c1.3,0,2,0.7,2.3,1.9c0.1,0.6,0.1,1.2,0.1,1.8c0,6.2,0,12.4,0,18.5c0,0.6,0,1.2,0,1.8c1.6,0,3,0,4.6,0c0-0.8,0-1.4,0-2.1
		c0-13.1,0-26.3,0-39.4c0-0.7,0-1.3,0.1-2c0.3-1.3,1.1-2,2.4-2c1.3,0,2.1,0.8,2.3,2.1c0.1,0.7,0.1,1.4,0.1,2.1
		C157.1,55.8,157.1,59.9,157.1,64.2z M138.3,28.7c0,3.7,3,6.8,6.8,6.9c3.7,0.1,6.9-3.1,6.9-6.8c0-3.7-3.1-6.8-6.8-6.8
		C141.5,21.8,138.3,24.9,138.3,28.7z"/>
	<path class="st0" d="M44.7,185c-2.8-1.3-3.8-3.4-3.7-6.4c0.2-6.8,0-13.6,0-20.3c0-0.6,0-1.2,0-2c-0.8,0-1.5,0-2.2,0
		c-3.4-0.1-5.9-2.5-5.9-5.9c0-5.8-0.1-11.6,0-17.4c0.1-5,3.3-9.4,8-11.2c0.5-0.2,0.9-0.3,1.5-0.5c-2.3-6.2-1.2-11.5,4.4-15.3
		c4-2.8,9.5-2.4,13.4,0.6c4.4,3.3,5.5,7.9,3.6,14.5c1.5,0.8,3,1.4,4.3,2.3c3,2.1,4.9,5.1,5,8.8c0.2,6.1,0.2,12.3,0.1,18.4
		c-0.1,3.4-2.5,5.6-6,5.7c-0.6,0-1.3,0-2.1,0c0,0.9,0,1.6,0,2.3c0,6.7-0.1,13.5,0,20.2c0,3-1,5.2-3.9,6.3
		C55.7,185,50.2,185,44.7,185z M41.1,151.1c0-0.6,0-1.1,0-1.7c0-4,0-8.1,0-12.1c0-1.6,1-2.6,2.4-2.6c1.4,0,2.4,1,2.5,2.5
		c0,0.5,0,1,0,1.5c0,13.2,0,26.4,0,39.6c0,0.6,0,1.3,0,1.9c1.6,0,3,0,4.6,0c0-1.8,0-3.6,0-5.3c0-5.4,0-10.7,0-16.1
		c0-1.7,1-2.7,2.4-2.8c1.4,0,2.4,1.1,2.5,2.7c0,0.4,0,0.9,0,1.3c0,6.1,0,12.3,0,18.4c0,0.6,0,1.2,0,1.8c1.6,0,3,0,4.6,0
		c0-0.7,0-1.4,0-2c0-13.2,0-26.4,0-39.6c0-0.5,0-1.1,0-1.6c0.1-1.3,0.9-2,2.1-2.1c1.2-0.1,2.2,0.4,2.6,1.6c0.2,0.6,0.2,1.2,0.2,1.8
		c0,3.8,0,7.7,0,11.5c0,0.6,0,1.2,0,1.7c3.1,0.3,3.2,0.2,3.2-2.5c0-2.5,0-5,0-7.5c0-3,0.1-5.9-0.1-8.9c-0.4-4.8-6-7.8-10.1-5.8
		c-3.3,1.6-6.7,1.5-10,0c-0.6-0.3-1.3-0.6-2-0.6c-4.9-0.2-8.1,3-8.1,7.8c0,5,0,10,0,14.9C37.8,151.4,38.1,151.6,41.1,151.1z
		 M52.9,122.6c3.8,0,6.9-3,6.9-6.8c0-3.7-3-6.8-6.8-6.8c-3.8,0-6.9,3.1-6.9,6.9C46.2,119.6,49.2,122.6,52.9,122.6z"/>
	<path class="st1" d="M100.8,16.9c1.1,0.4,2.3,0.7,3.4,1.2c5.4,2.6,7.9,8.8,5.9,14.4c-0.2,0.5-0.3,0.9-0.5,1.5
		c0.6,0.2,1.2,0.4,1.7,0.7c4.7,2,7.3,5.6,7.8,10.7c0.2,1.8-0.7,3-2.1,3.1c-1.6,0.2-2.6-0.8-2.8-2.7c-0.5-4.3-3.5-7.1-7.8-7.1
		c-0.7,0-1.5,0.2-2.2,0.6c-3.4,1.6-6.8,1.7-10.1,0.1C90,37.4,85,40,84.1,44.6c-0.2,1.2-0.2,2.5-0.2,3.8c0,4.4,0,8.8,0,13.1
		c0,2.8,0.2,2.9,3.2,2.6c0-3,0-6,0-8.9c0-1.5,0-3,0-4.4c0-2.1,0.9-3.2,2.4-3.2c1.6,0,2.5,1.1,2.5,3.2c0,13.4,0,26.8,0,40.2
		c0,0.6,0,1.2,0,2c1.5,0,2.9,0,4.6,0c0-0.6,0-1.2,0-1.7c0-6.4,0-12.8,0-19.2c0-1.4,0.3-2.5,1.7-3c1.7-0.6,3.2,0.6,3.2,2.6
		c0,4.6,0,9.2,0,13.8c0,2.5,0,4.9,0,7.5c1.5,0,2.9,0,4.6,0c0-0.6,0-1.3,0-1.9c0-13.2,0-26.4,0-39.5c0-0.4,0-0.9,0-1.3
		c0.1-1.5,1.1-2.6,2.4-2.6c1.4,0,2.5,1,2.5,2.7c0,4,0,8.1,0,12.1c0,0.6,0,1.2,0,1.7c3,0.4,3.2,0.2,3.2-2.5c0-1.4,0-2.7,0-4.1
		c0.1-1.5,1-2.4,2.3-2.5c1.4-0.1,2.5,0.9,2.6,2.4c0.1,2.1,0.1,4.2,0,6.2c-0.2,3.1-2.6,5.3-5.7,5.5c-0.7,0-1.4,0-2.4,0
		c0,0.6,0,1.2,0,1.8c0,7.1,0,14.2,0,21.3c0,3.6-1.9,5.6-5.5,5.6c-4.3,0-8.5,0-12.8,0c-3.7,0-5.6-2-5.6-5.7c0-7,0-14,0-21
		c0-0.6,0-1.2,0-2c-0.8,0-1.4,0-2,0c-3.5-0.1-6-2.4-6.1-5.8c-0.1-5.9-0.2-11.8,0-17.7c0.2-5.6,3.3-9.3,8.6-11.2
		c0.2-0.1,0.5-0.2,0.4-0.2c-0.2-2.6-0.8-5.1-0.5-7.4c0.7-4.9,3.8-8,8.5-9.5c0.4-0.1,0.8-0.3,1.2-0.4C98.4,16.9,99.6,16.9,100.8,16.9
		z M105.9,28.6c0-3.8-3-6.8-6.8-6.8c-3.8,0-6.9,3-6.9,6.9c0,3.7,3,6.8,6.7,6.8C102.8,35.6,105.9,32.4,105.9,28.6z"/>
	<path class="st0" d="M54.9,16.9c0.3,0.1,0.6,0.3,0.9,0.3C62.7,19,66.4,26,64,32.8c-0.1,0.4-0.3,0.7-0.4,1.2
		c0.6,0.2,1.1,0.4,1.7,0.7c4.6,2,7.5,5.4,7.7,10.3c0.3,6.2,0.2,12.4,0.1,18.5c-0.1,3.3-2.6,5.5-5.9,5.6c-0.6,0-1.3,0-2.1,0
		c0,0.7,0,1.3,0,1.9c0,7,0,14,0,21c0,3.9-1.9,5.8-5.8,5.9c-4.2,0-8.3,0-12.5,0c-3.7,0-5.6-1.9-5.6-5.7c0-2.7,0-5.4,0-8
		c0-1.9,0.9-2.9,2.4-2.9c1.5,0,2.5,1,2.5,2.8c0.1,2.8,0.1,5.7,0.1,8.5c0,0.1,0,0.1,0.1,0.3c1.4,0,2.8,0,4.4,0c0-0.6,0-1.2,0-1.8
		c0-6.4,0-12.8,0-19.2c0-2.1,0.9-3.2,2.5-3.1c1.6,0,2.4,1.1,2.4,3.2c0,6.3,0,12.7,0,19c0,0.6,0,1.2,0,1.9c1.6,0,3,0,4.6,0
		c0-0.7,0-1.4,0-2c0-13.1,0-26.3,0-39.4c0-0.5,0-1,0-1.5c0.1-1.5,1-2.5,2.3-2.5c1.4-0.1,2.5,0.9,2.6,2.4c0.1,1.4,0,2.8,0,4.3
		c0,3.3,0,6.6,0,9.8c2.7,0.7,3.2,0.3,3.2-2.3c0-5,0-10.1,0-15.1c-0.1-4.7-3.2-7.9-7.8-7.8c-0.7,0-1.5,0.3-2.2,0.6
		c-3.3,1.5-6.7,1.6-10,0.1c-4.6-2-10,0.9-10.3,5.9c-0.3,5.8-0.2,11.7-0.1,17.6c0,2.2,1.9,1.1,3.2,1.3c0-3.4,0-6.6,0-9.8
		c0-1.5,0-3.1,0-4.6c0.1-1.4,0.9-2.2,2.3-2.3c1.4-0.1,2.2,0.7,2.6,2.1c0.1,0.4,0.1,0.8,0.1,1.1c0,6.9,0,13.9,0,20.8
		c0,0.5,0,1-0.2,1.5c-0.4,1.3-1.3,1.9-2.6,1.7c-1.2-0.1-2-0.9-2.1-2.1c-0.1-1.1,0-2.2,0-3.5c-0.9,0-1.5,0-2.2,0
		c-3.4-0.1-5.9-2.6-5.9-6c0-5.8-0.1-11.6,0-17.4c0.1-4.9,3.2-9.3,7.8-11.1c0.5-0.2,1-0.4,1.3-0.5c-0.3-2.2-0.8-4.4-0.7-6.5
		c0.3-5.2,3.9-9.2,9-10.4c0.3-0.1,0.6-0.2,0.9-0.3C52.5,16.9,53.7,16.9,54.9,16.9z M59.8,28.7c0-3.8-3.1-6.9-6.9-6.9
		c-3.7,0-6.8,3.1-6.8,6.8c0,3.8,3.2,6.9,6.9,6.9C56.8,35.5,59.8,32.4,59.8,28.7z"/>
	<path class="st0" d="M90.7,185c-2.8-1.4-3.7-3.7-3.6-6.8c0.2-7.2,0-14.4,0-21.9c-0.7,0-1.3,0-2,0c-3.6-0.1-6.1-2.3-6.1-5.9
		c-0.1-5.8-0.2-11.6,0-17.4c0.2-6.1,3.7-9.8,9.4-11.8c-2.3-6.3-1.1-11.7,4.7-15.4c3.9-2.5,9.3-2.2,12.9,0.7c5,3.9,5.8,9,3.7,14.6
		c1.5,0.8,3,1.4,4.4,2.3c3.3,2.3,5,5.6,5.1,9.7c0.1,5.7,0.1,11.5,0,17.2c0,3.5-2.5,5.9-6.1,6c-0.6,0-1.3,0-2.1,0c0,1.5,0,2.8,0,4.1
		c0,1.7-0.9,2.7-2.4,2.7c-1.5,0-2.5-1-2.5-2.8c0-7.6,0-15.2,0-22.8c0-1.8,1-2.9,2.5-2.8c1.5,0,2.4,1.1,2.4,2.9c0,4,0,8,0,12
		c0,0.5,0,1.1,0,1.6c2.9,0.6,3.2,0.3,3.2-2.4c0-5,0-10,0-14.9c0-4.9-3.2-8-8.1-7.9c-0.7,0-1.4,0.3-2,0.6c-3.3,1.5-6.7,1.6-10,0.1
		c-4.6-2.2-9.5,1.3-10.1,5.2c-0.2,1.2-0.2,2.5-0.2,3.8c0,4.4,0,8.8,0,13.1c0,2.8,0.2,3,3.2,2.5c0-3.5,0-6.9,0-10.4c0-1,0-2.1,0-3.1
		c0-1.9,1-3,2.6-3c1.5,0,2.4,1.1,2.4,2.9c0,12.9,0,25.8,0,38.7c0,1.2,0,2.4,0,3.7c1.5,0,2.9,0,4.6,0c0-0.5,0-1.1,0-1.7
		c0-6.2,0-12.5,0-18.7c0-0.4,0-0.9,0-1.3c0.1-1.5,1.2-2.5,2.6-2.4c1.3,0.1,2.3,1.1,2.3,2.5c0.1,2.7,0,5.5,0,8.2c0,4.4,0,8.9,0,13.4
		c1.5,0,3,0,4.6,0c0-2.5,0-5.1,0-7.6c0-1.4,0.6-2.5,2.1-2.7c1.5-0.3,2.8,0.8,2.8,2.4c0.1,2.8,0.1,5.6,0,8.4
		c-0.1,2.4-1.7,3.6-3.6,4.6C101.8,185,96.3,185,90.7,185z M105.9,115.9c0-3.8-3-6.9-6.8-6.9c-3.8,0-6.8,3-6.8,6.8
		c0,3.8,2.9,6.8,6.7,6.9C102.8,122.7,105.9,119.7,105.9,115.9z"/>
</g>
</svg>
