<?xml version="1.0" encoding="utf-8"?>
<!-- Generator: Adobe Illustrator 24.0.0, SVG Export Plug-In . SVG Version: 6.00 Build 0)  -->
<svg version="1.1" id="Capa_1" xmlns="http://www.w3.org/2000/svg" xmlns:xlink="http://www.w3.org/1999/xlink" x="0px" y="0px"
	 viewBox="0 0 200 200" style="enable-background:new 0 0 200 200;" xml:space="preserve">
<style type="text/css">
	.st0{fill:#ACAEAF;}
	.st1{fill:#1D3347;}
	.st2{fill:#F39717;}
</style>
<g>
	<path class="st0" d="M49.7,26.2c0-2.3,0-4.3,0-6.4c0-3,1.4-4.3,4.4-4.3c18.7,0,37.5,0,56.2,0c2.9,0,4.2,1.3,4.3,4.2
		c0,2.1,0,4.2,0,6.5c1.1,0,2.1,0,3.1,0c4.2,0,8.4,0,12.6,0.1c8.8,0.4,16.5,8.2,16.6,17.1c0.1,3.8,0,7.6,0,11.4
		c0,2.2-1.5,3.7-3.5,3.8c-2.1,0.1-3.6-1.4-3.7-3.8c-0.1-4.1,0.1-8.2-0.3-12.2c-0.5-5-4.7-8.9-9.7-9.1c-5-0.2-10,0-15.2,0
		c0,2.2,0,4.3,0,6.5c0,3-1.4,4.4-4.4,4.4c-18.7,0-37.5,0-56.2,0c-2.9,0-4.3-1.4-4.3-4.3c0-2.1,0-4.2,0-6.5c-0.5,0-1-0.1-1.5-0.1
		c-4.1,0-8.3,0-12.4,0c-6.4,0-11,4.5-11.2,10.9c0,0.3,0,0.6,0,0.8c0,41.3,0,82.6,0,123.9c0,5.7,2.8,9.8,7.7,11.3
		c1.2,0.4,2.6,0.5,3.8,0.5c30.6,0,61.3,0,91.9,0c7,0,11.6-4.5,11.6-11.6c0-2.1,0-4.2,0-6.3c0.1-2.2,1.6-3.8,3.5-3.8
		c2,0,3.7,1.6,3.6,3.9c-0.1,3.9,0.1,7.9-0.7,11.6c-1.8,7.9-9,13.3-17.1,13.3c-31.3,0-62.5,0-93.8,0c-9.8,0-17.8-8-17.8-17.8
		c0-42.1,0-84.2,0-126.3c0-9.4,7.5-17.3,16.9-17.7c4.5-0.2,8.9-0.1,13.4-0.1C48.3,26.2,48.9,26.2,49.7,26.2z M107.2,22.7
		c-16.8,0-33.3,0-49.9,0c0,4.8,0,9.4,0,14.1c16.7,0,33.3,0,49.9,0C107.2,32.1,107.2,27.5,107.2,22.7z"/>
	<path class="st0" d="M178,94.6c2.9,0.5,5.6,1,8.3,1.4c2.7,0.4,3.7,1.6,3.7,4.3c0,5.8,0,11.6,0,17.3c0,2.5-1,3.7-3.5,4.2
		c-2.8,0.5-5.5,1-8.6,1.5c1.6,2.3,3.2,4.4,4.7,6.6c1.9,2.7,1.8,4-0.5,6.4c-3.9,3.9-7.8,7.8-11.7,11.7c-2.2,2.2-3.6,2.3-6.1,0.5
		c-2.2-1.5-4.3-3.1-6.7-4.8c-0.4,2.6-0.9,5-1.3,7.3c-0.6,4-1.5,4.8-5.5,4.8c-5.3,0-10.6,0-16,0c-2.9,0-4.2-1.1-4.7-4
		c-0.4-2.6-0.9-5.2-1.3-8.1c-2.4,1.7-4.6,3.3-6.8,4.9c-2.4,1.7-3.8,1.6-6-0.5c-4-4-7.9-7.9-11.9-11.9c-2.1-2.1-2.2-3.6-0.4-6
		c1.6-2.2,3.1-4.4,4.9-6.8c-3-0.5-5.8-1-8.6-1.5c-2.4-0.4-3.4-1.6-3.4-4.1c0-5.8,0-11.7,0-17.5c0-2.7,1.1-3.8,3.8-4.3
		c2.7-0.4,5.3-0.9,8.3-1.4c-1.7-2.4-3.2-4.5-4.8-6.7c-1.8-2.5-1.7-3.9,0.5-6.1c4-4,7.9-7.9,11.9-11.9c2-2,3.5-2.1,5.8-0.4
		c2.2,1.6,4.4,3.1,6.9,4.9c0.5-2.6,0.9-5,1.3-7.5c0.6-3.8,1.5-4.7,5.3-4.7c5.3,0,10.6,0,16,0c3.2,0,4.4,1.1,4.9,4.2
		c0.4,2.6,0.8,5.1,1.3,8c2.4-1.7,4.5-3.2,6.7-4.7c2.6-1.9,4-1.8,6.2,0.4c3.9,3.9,7.9,7.8,11.8,11.8c2.1,2.1,2.3,3.5,0.5,6
		C181.3,90,179.7,92.2,178,94.6z M175.5,132.4c-0.8-1.1-1.6-2.4-2.5-3.6c-4.1-5.5-2.9-4.6-1.1-9.8c0.6-1.6,1.8-2.4,3.4-2.6
		c2.1-0.3,4.2-0.6,6.3-1.1c0.5-0.1,1.2-0.7,1.2-1c0.1-3.8,0.1-7.6,0.1-11.4c-1.6-0.3-3-0.7-4.4-0.8c-4-0.1-6.7-1.7-7.7-5.9
		c-0.5-1.8-0.6-3.2,0.6-4.8c1.5-2,2.9-4,4.2-5.8c-3-3-5.9-5.9-8.8-8.8c-1.1,0.8-2.5,1.5-3.6,2.6c-2.9,2.7-5.8,3.2-9.3,1.2
		c-1.7-0.9-2.8-2-3-3.9c-0.3-2.4-0.8-4.8-1.2-7.2c-4.2,0-8.2,0-12.4,0c-0.4,2.4-0.8,4.7-1.1,7.1c-0.3,2.1-1.2,3.5-3.3,4.1
		c-0.6,0.2-1.2,0.4-1.7,0.7c-2,1.1-3.7,0.9-5.5-0.5c-1.8-1.5-3.8-2.8-5.5-4c-3,3-5.8,5.8-8.8,8.8c0.8,1.1,1.6,2.4,2.5,3.6
		c3.8,5.1,3.1,4.4,1.1,9.6c-0.6,1.5-1.6,2.4-3.2,2.7c-2.6,0.4-5.2,0.9-7.9,1.4c0,2.8,0,5.6,0,8.3c0,4,0,3.9,4,4.6
		c6.6,1.2,5.8,0.4,8.1,5.8c0.8,1.9,0.7,3.4-0.5,5.1c-1.5,1.9-2.8,3.9-4.1,5.7c3,3,5.8,5.9,8.8,8.8c1.2-0.8,2.6-1.6,3.7-2.7
		c2.8-2.6,5.6-3.1,9-1.2c1.9,1,3,2.2,3.3,4.3c0.3,2.3,0.7,4.6,1.1,7c2.6,0,5.1,0,7.7,0c4.7,0,5,0,5.4-4.7c0.3-3.8,1.8-6.2,5.6-7.4
		c2-0.6,3.5-0.6,5.2,0.6c1.9,1.5,3.9,2.8,5.7,4.1C169.7,138.2,172.5,135.3,175.5,132.4z"/>
	<path class="st1" d="M60.6,145c8.3,0,16.6,0,25,0c1.9,0,3.1,0.9,3.7,2.7c0.5,1.6-0.1,2.9-1.4,3.8c-0.6,0.4-1.5,0.6-2.2,0.6
		c-16.7,0-33.4,0-50.1,0c-2.2,0-3.7-1.6-3.8-3.6c0-2,1.6-3.6,3.9-3.6C44,144.9,52.3,145,60.6,145z"/>
	<path class="st1" d="M60.6,94.6c-8.2,0-16.4,0-24.6,0c-2.1,0-3.4-0.8-4-2.5c-0.7-2,0.5-4.2,2.5-4.6c0.6-0.1,1.2-0.2,1.9-0.2
		c16.1,0,32.3,0,48.4,0c0.9,0,1.8,0.1,2.6,0.4c1.5,0.6,2.2,2.3,1.9,3.8c-0.4,1.8-1.7,3-3.6,3c-3.5,0.1-6.9,0-10.4,0
		C70.4,94.6,65.5,94.6,60.6,94.6z"/>
	<path class="st2" d="M46.1,129.1c5-5.1,9.9-10,14.8-14.8c0.9-0.8,2.1-1.4,3.3-1.7c1.4-0.3,2.7,0.6,3.1,1.9c0.3,1.1,0.1,2.4-0.1,3.5
		c-0.1,0.5-0.7,1-1.2,1.4c-5.5,5.5-11,11-16.5,16.5c-2.5,2.5-4.2,2.5-6.6,0c-2.1-2.1-4.2-4.1-6.2-6.3c-1.6-1.7-1.7-3.8-0.3-5.3
		c1.5-1.6,3.7-1.5,5.4,0.2C43.3,126.1,44.6,127.6,46.1,129.1z"/>
	<path class="st2" d="M46.1,71.5c4.7-4.7,9.2-9.2,13.7-13.7c0.6-0.6,1.2-1.2,1.8-1.8c1.7-1.5,3.7-1.5,5.2-0.1c1.4,1.4,1.5,3.6,0,5.2
		c-3.4,3.5-6.9,7-10.4,10.5c-2.4,2.4-4.7,4.7-7.1,7.1c-2,2-3.9,2-5.9,0c-2.2-2.1-4.3-4.3-6.5-6.5c-1.7-1.7-1.8-3.9-0.3-5.4
		c1.5-1.6,3.6-1.5,5.4,0.2C43.2,68.5,44.6,69.9,46.1,71.5z"/>
	<path class="st0" d="M161.3,109c0,10-8,18-18,18c-9.8,0-17.9-8-18-17.9c-0.1-9.9,8.2-18.2,18.2-18.1C153.3,91,161.3,99.1,161.3,109
		z M143.2,98.2c-6,0-10.7,4.8-10.6,10.9c0,5.9,4.9,10.7,10.8,10.6c5.9-0.1,10.7-5,10.7-10.9C154,102.9,149.2,98.2,143.2,98.2z"/>
</g>
</svg>
