<?xml version="1.0" encoding="utf-8"?>
<!-- Generator: Adobe Illustrator 24.0.0, SVG Export Plug-In . SVG Version: 6.00 Build 0)  -->
<svg version="1.1" id="Capa_1" xmlns="http://www.w3.org/2000/svg" xmlns:xlink="http://www.w3.org/1999/xlink" x="0px" y="0px"
	 viewBox="0 0 198.4 198.4" style="enable-background:new 0 0 198.4 198.4;" xml:space="preserve">
<style type="text/css">
	.st0{fill:#ACAEAF;}
	.st1{fill:#1C3247;}
	.st2{fill:#FE9900;}
</style>
<g>
	<path class="st0" d="M61.8,179.4c-1.7,0-3.3,0-5,0c-0.2-0.1-0.5-0.2-0.7-0.3c-8.9-1.5-15.6-7.6-17.4-16.4
		c-1.6-7.8-2.9-15.7-4.3-23.5c-3.5-19.8-6.9-39.7-10.5-59.5c-2.3-12.6,4.8-23.6,17.1-26c8.5-1.7,17-3.1,25.5-4.5
		c1.1-0.2,1.7-0.5,1.9-1.7c1.1-6.8,2.4-13.7,3.6-20.5c0.8-4.6,4.9-7.4,9.5-6.5c4.6,0.8,9.2,1.6,13.8,2.4
		c23.3,4.1,46.5,8.2,69.8,12.3c11.1,2,18.9,12.6,17.2,23.8c-1.2,7.6-2.6,15.1-3.9,22.6c-3.5,19.8-7.1,39.5-10.4,59.4
		c-1.5,9.1-5.9,15.7-14.7,18.9c-0.4,0.1-0.8,0.5-1,0.8c-1.4,2.3-3.5,3.4-6.1,3.9c-2.7,0.4-5.3,0.9-8,1.4c-21.5,3.8-43,7.6-64.6,11.4
		C69.6,178,65.7,178.7,61.8,179.4z M144.9,117.8c0.3-1.7,0.6-3.2,0.8-4.7c2.6-14.6,5.2-29.3,7.8-43.9c0.3-1.8,1.6-2.8,3.1-2.5
		c1.6,0.3,2.4,1.6,2.1,3.4c-1.3,7.2-2.6,14.4-3.8,21.6c-1.6,9-3.2,17.9-4.7,26.6c2.8,1.3,5.6,2.3,8,4c2.4,1.6,4.3,3.9,6.4,5.8
		c0.1-0.5,0.2-1.1,0.4-1.8c3.8-21.7,7.6-43.3,11.5-65c0.6-3.5,1-6.9-0.2-10.3c-2.1-5.7-6.2-9.2-12.2-10.7c-0.1,0.4-0.2,0.7-0.2,1
		c-0.7,4.1-1.4,8.2-2.2,12.2c-0.3,1.8-1.6,2.7-3.2,2.4c-1.5-0.3-2.3-1.6-2.1-3.3c0.2-1.3,0.5-2.6,0.7-4c0.5-3.1,1.1-6.2,1.6-9.4
		c-1.9-0.3-3.5-0.6-5.2-0.9c-24.1-4.3-48.2-8.5-72.4-12.8c-2.6-0.5-3.6,0.3-4.1,2.8c-0.6,3.1-1.1,6.2-1.6,9.3
		C72.1,57,68.7,76.1,65.4,95.2c-0.5,2.8-1,5.7-1.4,8.3C91,108.3,117.8,113,144.9,117.8z M41.3,147.2c2.8-4.2,6.3-7,10.6-8.8
		c0.4-0.2,0.6-0.9,0.7-1.3c0.5-3.4,2.4-5.6,5.6-6.8c0.5-0.2,1-0.8,1.1-1.3c0.6-3.1,1.2-6.2,1.7-9.3c0.1-0.5-0.3-1.2-0.7-1.5
		c-2.3-2-3.6-4.5-3.1-7.5c2.8-16,5.6-31.9,8.4-47.9c0.5-2.7,0.9-5.5,1.4-8.3c-7.9,1.4-15.5,2.7-23.2,4.1c-0.8,0.1-1.6,0.3-2.4,0.5
		c-8.8,2-14.1,10-12.5,18.9c3.3,18.6,6.5,37.1,9.8,55.7C39.6,138,40.4,142.4,41.3,147.2z M162.4,139.9c0-8.2-5.8-14.7-14.1-16.2
		c-16.1-2.8-32.2-5.7-48.3-8.5c-11.3-2-22.6-4-34-6c-1.8-0.3-3.1,0.5-3.4,2.1c-0.3,1.5,0.7,2.8,2.5,3.1c2,0.4,4,0.7,6,1.1
		c16.7,3,33.4,5.9,50.2,8.9c8.9,1.6,17.9,3.1,26.8,4.7c6.2,1.1,10.1,6.6,9,12.6c-1.1,5.7-6.7,9.4-12.8,8.3c-6.7-1.2-13.4-2.3-20-3.5
		c-17.3-3.1-34.7-6.1-52-9.2c-3.6-0.6-7.2-1.3-10.9-1.9c-1.7-0.3-3,0.5-3.3,2c-0.3,1.6,0.6,2.8,2.4,3.2c0.5,0.1,1,0.2,1.5,0.3
		c12.7,2.2,25.4,4.5,38.1,6.7c14.7,2.6,29.5,5.3,44.2,7.8C153.5,156.9,162.4,149.4,162.4,139.9z M64.5,130.5
		c1.4,0.3,2.6,0.5,3.7,0.7c17.9,3.2,35.9,6.3,53.8,9.5c7.7,1.4,15.5,2.8,23.2,4.1c3,0.5,5.9-1.4,6.4-4.2c0.5-3.1-1.3-5.7-4.5-6.3
		c-2.9-0.5-5.7-1-8.6-1.5c-18.7-3.3-37.3-6.6-56-9.9c-5.3-0.9-10.7-1.9-16.2-2.8C65.8,123.6,65.2,127,64.5,130.5z M63,146.7
		c0-0.1,0-0.1,0-0.2c-0.3-0.1-0.7-0.2-1-0.3c-2.6-0.4-5.1-0.7-7.1-2.7c-0.2-0.2-0.9-0.1-1.3,0c-7.2,2.6-11.6,10.9-9.7,18.4
		c1.9,7.8,9.6,13.2,17.3,12c7.2-1.1,14.3-2.4,21.4-3.7c16.2-2.9,32.4-5.7,48.6-8.6c2.7-0.5,5.5-1,8.2-1.5c-3.8-0.9-7.5-1.6-11.3-2.3
		c-1.3-0.2-2.6-0.6-3.8-0.4c-10,1.7-20,3.5-30,5.2c-11.1,1.9-22.2,4-33.4,5.8c-6,1-11.3-3.1-12.2-9.1c-0.8-5.6,3.2-10.8,9-11.8
		C59.6,147.4,61.3,147,63,146.7z M109.4,154.7c-0.7-0.2-1-0.3-1.3-0.4c-9.5-1.7-19-3.3-28.4-5c-0.3-0.1-0.7,0-1.1,0
		c-6.6,1.2-13.1,2.3-19.7,3.5c-3.2,0.6-5.2,3.2-4.7,6c0.5,3,3.3,4.9,6.5,4.4c9.8-1.7,19.6-3.4,29.4-5.1
		C96.3,157.1,102.7,155.9,109.4,154.7z"/>
	<path class="st0" d="M133.4,107.6c-3.3-0.6-7.1-1.2-10.9-1.9c-14.6-2.6-29.3-5.2-43.9-7.8c-3.3-0.6-5.1-3.1-4.5-6.4
		c1.5-8.5,3-17,4.5-25.5c0.6-3.3,3.2-5.1,6.6-4.5c17.9,3.2,35.9,6.3,53.8,9.5c3.8,0.7,5.5,3,4.9,6.9c-1.4,8.4-2.9,16.8-4.4,25.2
		C138.9,106,136.8,107.7,133.4,107.6z M83.9,66.6c-1.6,8.8-3.1,17.4-4.6,26.1c18.4,3.2,36.6,6.4,54.9,9.7c1.5-8.8,3.1-17.4,4.6-26.1
		C120.4,73,102.3,69.8,83.9,66.6z"/>
	<path class="st1" d="M86.7,34.8c3.1,0.5,6.4,1.1,9.8,1.7c16.3,2.9,32.5,5.7,48.8,8.6c0.5,0.1,1,0.2,1.5,0.3c1.6,0.4,2.5,1.6,2.3,3
		c-0.3,1.6-1.7,2.5-3.4,2.2c-4.6-0.8-9.3-1.6-13.9-2.5c-15.1-2.7-30.3-5.3-45.4-8c-1.8-0.3-2.8-1.4-2.7-2.9
		C83.8,35.8,84.9,34.8,86.7,34.8z"/>
	<path class="st2" d="M95.1,49.7c3.4,0.6,7.1,1.2,10.7,1.9c9.3,1.6,18.6,3.3,28,4.9c1.3,0.2,2.4,0.9,2.4,2.2c0,0.8-0.4,1.9-1,2.5
		c-0.5,0.5-1.6,0.6-2.3,0.5c-12.8-2.2-25.7-4.5-38.5-6.8c-1.7-0.3-2.6-1.5-2.4-3C92.2,50.5,93.3,49.6,95.1,49.7z"/>
</g>
</svg>
