<?xml version="1.0" encoding="utf-8"?>
<!-- Generator: Adobe Illustrator 24.0.0, SVG Export Plug-In . SVG Version: 6.00 Build 0)  -->
<svg version="1.1" id="Capa_1" xmlns="http://www.w3.org/2000/svg" xmlns:xlink="http://www.w3.org/1999/xlink" x="0px" y="0px"
	 viewBox="0 0 226.8 226.8" style="enable-background:new 0 0 226.8 226.8;" xml:space="preserve">
<style type="text/css">
	.st0{fill:#ACAEAF;}
	.st1{fill:#FE9900;}
	.st2{fill:#1C3247;}
</style>
<g>
	<path class="st0" d="M108.4,7.7c27.3,0,54.7,0,82,0c11.5,0,18.8,7.2,18.8,18.7c0,52.4,0,104.8,0,157.2c0,0.9,0.2,1.8-0.1,2.6
		c-1.2,3,0.4,4.8,2.4,6.6c2.6,2.3,5,4.9,7.4,7.3c5.5,5.7,5.6,14,0.2,19.2c-5.3,5.2-13.5,5-19.1-0.5c-5.1-5-10.2-10.1-15.2-15.2
		c-1.1-1.1-2.1-1.5-3.6-1.5c-51.9,0-103.8,0-155.7,0c-9.5,0-16.5-5.9-18-14.9c-0.2-1.1-0.2-2.3-0.2-3.5c0-52.6,0-105.2,0-157.8
		c0-11,7.4-18.3,18.5-18.3C53.3,7.7,80.9,7.7,108.4,7.7z M168.9,188.4c-0.4,0.4-1,1-1.6,1.5c-2.7,2.6-4.1,2.7-6.8,0
		c-3.3-3.3-6.7-6.6-10-10c-1-1.1-1.9-1.3-3.4-0.8c-7.2,2.3-14.6,3-22.1,1.8c-26-4-43.9-27.2-41.3-53.5c2.7-27.3,28.4-47.2,55.6-43.1
		c29.9,4.5,48.6,34.2,39.6,63c-0.5,1.6-0.2,2.5,0.9,3.5c3.5,3.3,6.8,6.7,10.2,10.1c2.2,2.3,2.3,3.9,0.1,6.1
		c-0.7,0.7-1.7,1.1-2.6,1.6c0.4,0.1,0.8,0.1,1.2,0.2c4.5,4.5,9.1,9.1,13.3,13.3c0-43.8,0-88.2,0-132.6c-62.6,0-125.2,0-187.8,0
		c0,0.7,0,1.3,0,1.9c0,44.3,0,88.6,0,132.9c0,6.7,4.4,11,11.3,11c49.5,0,99,0,148.5,0c0.6,0,1.2-0.1,1.7-0.1
		C173.5,192.9,171.2,190.7,168.9,188.4z M14.3,42.3c62.8,0,125.3,0,187.9,0c0-5.3,0-10.5,0-15.7c0-7.8-4.1-11.9-11.9-11.9
		c-54.7,0-109.4,0-164.2,0c-0.7,0-1.3,0-2,0c-5.1,0.3-9.6,4.3-9.8,9.3C14.1,30,14.3,36.1,14.3,42.3z M132.7,91.1
		c-23.4,0.1-41.9,18.7-41.9,42c0,22.8,19,41.5,42.1,41.4c22.7-0.1,41.5-18.9,41.4-41.6C174.3,109.8,155.6,91,132.7,91.1z
		 M183.3,174.5c-3.1,3-5.9,5.9-8.9,8.9c0-0.2,0-0.1,0,0c10.4,10.4,20.7,20.8,31.2,31.1c2.5,2.5,6.4,2.2,8.8-0.3
		c2.4-2.5,2.5-6.2-0.1-8.8C204,195,193.6,184.7,183.3,174.5z M175.2,156.3c-4.5,8.1-11,14.4-18.7,18.8c2.6,2.6,5.2,5.2,7.5,7.4
		c6.2-6.2,12.5-12.5,18.8-18.8C180.4,161.5,177.9,159,175.2,156.3z"/>
	<path class="st1" d="M76.9,84.2c0,5.6,0,11.1,0,16.7c0,6.7-4.4,11-11,11c-11.2,0-22.5,0-33.7,0c-6.5,0-10.9-4.4-11-10.9
		c0-11.3,0-22.6,0-33.9c0-6.4,4.4-10.8,10.8-10.8c11.4,0,22.8,0,34.1,0c6.2,0,10.7,4.4,10.7,10.7C77,72.7,76.9,78.5,76.9,84.2z
		 M28.2,84.1c0,5.5,0,11,0,16.5c0,3.1,1.2,4.3,4.3,4.3c11,0,22,0,33.1,0c3.1,0,4.3-1.2,4.3-4.3c0-11,0-22,0-33
		c0-3.1-1.2-4.3-4.4-4.3c-11,0-22,0-33.1,0c-3.1,0-4.3,1.2-4.3,4.3C28.2,73.1,28.2,78.6,28.2,84.1z"/>
	<path class="st2" d="M76.9,153.7c0,5.6,0,11.1,0,16.7c0,6.6-4.4,11-11,11c-11.2,0-22.5,0-33.7,0c-6.5,0-10.9-4.4-10.9-10.9
		c0-11.3,0-22.6,0-33.9c0-6.4,4.5-10.8,10.8-10.8c11.4,0,22.8,0,34.1,0c6.2,0,10.7,4.5,10.7,10.7C77,142.2,76.9,147.9,76.9,153.7z
		 M49.1,132.8c-5.5,0-11,0-16.5,0c-3.1,0-4.3,1.2-4.4,4.3c0,11,0,22,0,33c0,3.1,1.2,4.3,4.3,4.3c11,0,22,0,33.1,0
		c3.1,0,4.4-1.2,4.4-4.3c0-11,0-22,0-33c0-3.1-1.2-4.3-4.3-4.3C60.1,132.8,54.6,132.8,49.1,132.8z"/>
	<path class="st0" d="M97.9,77c0-2.3,0-4.4,0-6.7c23.2,0,46.2,0,69.4,0c0,2.2,0,4.4,0,6.7C144.2,77,121.2,77,97.9,77z"/>
	<path class="st0" d="M174.5,77c0-2.3,0-4.4,0-6.7c4.6,0,9,0,13.6,0c0,2.1,0,4.3,0,6.7C183.7,77,179.2,77,174.5,77z"/>
	<path class="st0" d="M111.9,25.2c25.5,0,50.8,0,76.3,0c0,2.2,0,4.4,0,6.7c-25.3,0-50.7,0-76.3,0C111.9,29.7,111.9,27.6,111.9,25.2z
		"/>
	<path class="st0" d="M28.3,31.9c0-2.3,0-4.4,0-6.7c2.3,0,4.5,0,6.8,0c0,2.2,0,4.4,0,6.7C32.9,31.9,30.7,31.9,28.3,31.9z"/>
	<path class="st0" d="M42.2,25.2c2.2,0,4.4,0,6.7,0c0,2.2,0,4.4,0,6.7c-2.2,0-4.4,0-6.7,0C42.2,29.7,42.2,27.6,42.2,25.2z"/>
	<path class="st0" d="M56.2,25.2c2.3,0,4.4,0,6.7,0c0,2.2,0,4.4,0,6.7c-2.1,0-4.3,0-6.7,0C56.2,29.7,56.2,27.5,56.2,25.2z"/>
	<path class="st0" d="M76.8,25.2c0,2.3,0,4.4,0,6.7c-2.2,0-4.4,0-6.7,0c0-2.1,0-4.3,0-6.7C72.3,25.2,74.4,25.2,76.8,25.2z"/>
	<path class="st0" d="M167.4,132.8c-0.1,19.3-15.7,34.8-34.9,34.7c-19.2-0.1-34.7-15.6-34.7-34.9c0-19.1,15.8-34.6,35.1-34.5
		C151.8,98.1,167.5,113.8,167.4,132.8z M132.6,160.6c15.2,0,27.8-12.4,27.9-27.5c0.1-15.5-12.4-28.1-27.7-28.1
		c-15.5,0-28,12.4-28,27.8C104.8,148.1,117.2,160.5,132.6,160.6z"/>
</g>
</svg>
