<?xml version="1.0" encoding="utf-8"?>
<!-- Generator: Adobe Illustrator 24.0.0, SVG Export Plug-In . SVG Version: 6.00 Build 0)  -->
<svg version="1.1" id="Capa_1" xmlns="http://www.w3.org/2000/svg" xmlns:xlink="http://www.w3.org/1999/xlink" x="0px" y="0px"
	 viewBox="0 0 200 200" style="enable-background:new 0 0 200 200;" xml:space="preserve">
<style type="text/css">
	.st0{fill:#ACAEAF;}
	.st1{fill:#FE9900;}
	.st2{fill:#1C3247;}
</style>
<g>
	<path class="st0" d="M24.8,47c0.8-0.9,1.4-1.8,2.1-2.6c7.8-7.8,15.7-15.7,23.3-23.5c1.4-1.4,2.6-2,4.5-2c30,0,60.1,0,90,0
		c3.3,0,4.4,1.1,4.4,4.4c0,27.2,0,54.5,0,81.7c0,0.6,0,1.2,0,2.3c0.5-0.5,0.8-0.8,0.9-1.1c2.7-4.4,5.6-8.7,8-13.2
		c3.6-6.6,11.1-10.2,18.4-8.3c7.2,2,12.5,8.6,12,16.1c-0.5,6.6-3.8,11.3-9.6,14.1c-9.8,4.8-18.2,11.4-26.5,18.7
		c0.5,0.5,0.8,0.9,1.1,1.2c2.1,2.1,4.2,4.1,6.2,6.3c5.6,6.2,5.6,15.2,0,21.4c-1.4,1.4-2.7,2.7-4.1,4.1c-2.6,2.6-3.5,2.6-6.5,0.3
		c0,0.9,0,1.5,0,2.1c0,3.2-0.2,6.2,0,9.3c0.2,2-0.6,3.5-2.3,4.4c-15.4,0-30.7,0-46.1,0c-0.2-0.2-0.5-0.3-0.6-0.5
		c-1.4-0.9-2-2.1-1.5-3.6c0.5-1.5,1.5-2.4,3.2-2.4c5,0,9.8,0,14.7,0c8,0,16.1,0,24.1,0c0.6,0,1.2,0,1.8,0c0-0.6,0.2-1.2,0.2-1.7
		c0-4.2,0-8.6,0-12.8c0-1.1-0.3-1.8-1.1-2.7c-11.9-11.9-23.8-23.8-35.7-35.7c-0.3-0.3-0.6-0.6-0.9-0.9c-1.5-1.5-1.5-3.3,0-4.8
		c1.7-1.7,3.2-3.3,4.8-4.8c6-5.6,15.2-5.7,21.4-0.2c2.6,2.3,4.8,5,7.2,7.7c1.5-1.7,2.7-3,3.9-4.4c0.3-0.3,0.3-0.9,0.3-1.4
		c0-29.3,0-58.8,0-88.2c0-0.3,0-0.6,0-1.1c-28.6,0-57.2,0-85.9,0c0,0.5,0,1.1,0,1.7c0,6.6,0,13.2,0,19.9c0,2.9-1.1,4.1-4.1,4.1
		c-7.1,0-14.1,0-21.4,0c0,41.7,0,83.4,0,125.4c0.6,0,1.2,0,1.8,0c13.1,0,26.3,0,39.4,0c2,0,3.2,0.9,3.6,2.4c0.5,1.5-0.2,2.7-1.8,3.8
		c-0.2,0.2-0.3,0.2-0.3,0.3c-16.4,0-32.8,0-49.2,0C24.8,137.6,24.8,92.3,24.8,47z M152.7,161.1c0.6-0.8,1.2-1.5,1.8-2.1
		c4.1-4.2,4.1-9.8,0-14c-8.9-9-17.8-17.9-26.8-26.8c-1.2-1.1-2.7-2-4.2-2.6c-4.2-1.4-8.1,0.3-11.6,4.5
		C125.5,133.8,138.9,147.4,152.7,161.1z M147.9,129.3c0.2-0.2,0.3-0.2,0.5-0.2c8.7-7.8,18.2-14.9,28.7-20.2c3.6-1.8,5.6-6.2,5-9.9
		c-0.8-4.1-3.9-7.4-8-8.1c-3.9-0.6-8.3,1.5-10.1,5.3c-3.9,8-9,14.9-14.4,21.8c-2,2.4-3.9,4.7-6,6.9
		C144.9,126.3,146.4,127.8,147.9,129.3z M36.1,44.6c4.8,0,9.5,0,14.1,0c0-4.8,0-9.5,0-14.1C45.5,35.3,40.9,39.9,36.1,44.6z"/>
	<path class="st0" d="M86.5,182.9c-0.3-0.2-0.5-0.3-0.8-0.6c-1.2-0.9-1.8-2.1-1.4-3.6c0.5-1.5,1.5-2.3,3.2-2.3c1.5,0,2.6,0.9,3,2.3
		c0.5,1.5,0,2.7-1.4,3.6c-0.3,0.2-0.5,0.3-0.8,0.6C87.8,182.9,87.1,182.9,86.5,182.9z"/>
	<path class="st0" d="M86.8,78.6c-14.9,0-30,0-44.9,0c-3.3,0-4.4-1.1-4.4-4.4c0-3.6,0-7.4,0-11c0-2.6,1.2-3.8,3.8-3.8
		c30.4,0,61,0,91.4,0c2.6,0,3.6,1.2,3.8,3.8c0,3.8,0,7.5,0,11.1c0,3.2-1.1,4.2-4.2,4.2C117,78.6,102,78.6,86.8,78.6z M71.6,72.1
		c19.6,0,39,0,58.2,0c0-2.1,0-4.2,0-6.2c-19.6,0-38.8,0-58.2,0C71.6,68.1,71.6,70,71.6,72.1z M65,66c-7.1,0-14,0-20.9,0
		c0,2.1,0,4.2,0,6.2c7.1,0,14,0,20.9,0C65,70,65,68.1,65,66z"/>
	<path class="st1" d="M84.5,155.4c-5,0-9.8,0-14.6,0c-0.5,0-0.9,0-1.5,0c-2-0.2-3.3-1.4-3.3-3.2c0-1.8,1.4-3.2,3.3-3.2
		c4.7,0,9.3,0,14,0c0.6,0,1.2,0,2.1,0c1.4-5.3,4.4-9.2,9.3-11.4c3.3-1.5,6.9-1.8,10.4-0.8c7.4,2,12.2,8.6,11.9,16.3
		c-0.3,7.5-6,13.7-14,14.9C94.5,169.2,88.1,164.7,84.5,155.4z M91.3,149c2.6,0,5.1,0,7.7,0c3,0,4.5,1.1,4.5,3.2
		c0,2.1-1.5,3.3-4.5,3.3c-2.6,0-5,0-7.7,0c1.7,4.5,6.2,7.1,10.5,6.3c4.8-0.9,8.1-4.8,8-9.5c0-4.7-3.5-8.6-8.1-9.3
		C97.3,142,93,144.7,91.3,149z"/>
	<path class="st0" d="M86.9,91.4c-14.9,0-29.8,0-44.7,0c-0.6,0-1.1,0-1.7,0c-1.7-0.2-3-1.5-3-3.2c0-1.7,1.2-3,3-3.2
		c0.5,0,0.9,0,1.5,0c30,0,59.9,0,90,0c2.9,0,4.4,1.1,4.4,3.2c0,2.1-1.5,3.2-4.4,3.2C117,91.4,102,91.4,86.9,91.4z"/>
	<path class="st2" d="M87.1,97.9c14.9,0,29.8,0,44.7,0c0.6,0,1.1,0,1.7,0c1.8,0.2,3,1.5,3,3.2c0,1.7-1.2,3.2-3,3.3
		c-0.5,0-0.9,0-1.2,0c-30.1,0-60.1,0-90.2,0c-0.6,0-1.1,0-1.7,0c-1.7-0.3-2.7-1.7-2.7-3.3c0-1.5,1.2-2.9,2.7-3c0.6-0.2,1.2,0,1.8,0
		C57.1,97.9,72,97.9,87.1,97.9z"/>
	<path class="st2" d="M67.4,110.7c8.6,0,17.3,0,25.9,0c1.4,0,2.7,0.3,3.5,1.7c1.2,2,0,4.4-2.3,4.8c-0.5,0.2-1.1,0-1.7,0
		c-16.9,0-33.9,0-50.7,0c-0.2,0-0.5,0-0.6,0c-2.3,0-3.8-1.4-3.8-3.3c0-1.8,1.5-3.2,3.6-3.2c4.7,0,9.3,0,14,0
		C59.2,110.7,63.3,110.7,67.4,110.7z"/>
	<path class="st2" d="M60.9,129.8c-6.5,0-12.9,0-19.4,0c-1.1,0-2.4-0.5-3-1.2c-0.6-0.8-0.6-2.1-0.5-3c0.3-1.4,1.4-2,2.7-2
		c1.4,0,2.7,0,4.1,0c11.6,0,23.3,0,34.9,0c0.5,0,0.9,0,1.5,0c1.8,0.2,3.2,1.4,3.2,3.2s-1.4,3.2-3.3,3.3c-3.5,0-6.9,0-10.4,0
		C67.4,129.8,64.2,129.8,60.9,129.8z"/>
	<path class="st0" d="M91.4,44.7c-1.1,0-2.1,0-3.2,0c-1.8-0.2-3.2-1.5-3.2-3.2c0-1.7,1.4-3.2,3.2-3.2c2.1,0,4.4,0,6.5,0
		c1.8,0,3.2,1.5,3.2,3.2c0,1.7-1.4,3-3.2,3.2C93.7,44.7,92.6,44.7,91.4,44.7z"/>
	<path class="st0" d="M111,38.4c1.1,0,2.1,0,3.2,0c1.8,0.2,3.2,1.5,3,3.2c0,1.7-1.4,3-3,3.2c-2.3,0.2-4.5,0.2-6.6,0
		c-1.8,0-3.2-1.5-3-3.2c0-1.7,1.4-3,3.2-3.2C108.8,38.3,109.8,38.4,111,38.4L111,38.4z"/>
	<path class="st0" d="M129.8,44.7c-1.1,0-2.1,0-3.2,0c-1.8-0.2-3.2-1.5-3.2-3.2c0-1.7,1.4-3.2,3.2-3.2c2.1,0,4.4,0,6.5,0
		c1.8,0,3.2,1.5,3.2,3.2c0,1.7-1.4,3-3.2,3.2C132.1,44.7,131,44.7,129.8,44.7z"/>
	<path class="st2" d="M93.9,123.5c1.7,0,3.2,1.4,3.2,3.2s-1.5,3.3-3.2,3.3c-1.8,0-3.2-1.5-3.2-3.3S92.2,123.5,93.9,123.5z"/>
</g>
</svg>
