<?xml version="1.0" encoding="utf-8"?>
<!-- Generator: Adobe Illustrator 24.0.0, SVG Export Plug-In . SVG Version: 6.00 Build 0)  -->
<svg version="1.1" id="Capa_1" xmlns="http://www.w3.org/2000/svg" xmlns:xlink="http://www.w3.org/1999/xlink" x="0px" y="0px"
	 viewBox="0 0 200 200" style="enable-background:new 0 0 200 200;" xml:space="preserve">
<style type="text/css">
	.st0{fill:#ACAEAF;}
	.st1{fill:#FE9900;}
	.st2{fill:#1C3247;}
</style>
<g>
	<path class="st0" d="M128.1,133.6c0-0.9,0-1.6,0-2.3c0-27.7,0-55.5,0-83.2c0-3.4,0.7-4.1,4.1-4.1c16,0,32,0,47.9,0
		c3.2,0,4,0.9,4,4.1c0,44,0,88.1,0,132.1c0,3.2-0.9,4-4.1,4c-32.7,0-65.5,0-98.4,0c-3.2,0-4-0.9-4-4.1c0-14.1,0-28.3,0-42.4
		c0-3.2,0.9-4,4-4c14.7,0,29.4,0,44,0C126.4,133.6,127.2,133.6,128.1,133.6z M178.3,88.7c0-13.1,0-26.1,0-39.1c-3.7,0-7.3,0-11,0
		c0,0.6,0,1.2,0,1.8c0,4,0,7.8,0,11.7c0,2.1-1,3.2-3.1,3.2c-5.4,0-10.9,0-16.3,0c-1.9,0-2.9-1.2-3.1-3.1c0-2.3,0-4.8,0-7.2
		c0-2.2,0-4.3,0-6.5c-3.8,0-7.5,0-11.2,0c0,13.1,0,26,0,39.1C148.6,88.7,163.3,88.7,178.3,88.7z M178.3,133.6c0-13.1,0-26,0-39.1
		c-3.7,0-7.3,0-11.2,0c0,4.4,0,8.8,0,13.1c0,2.6-1,3.7-3.5,3.7c-4.8,0-9.8,0-14.7,0c-3.4,0-4.1-0.7-4.1-4.1c0-4.3,0-8.4,0-12.6
		c-3.8,0-7.3,0-11,0c0,13.1,0,26.1,0,39.1 M83.3,139.3c0,13.1,0,26.1,0,39.1c15,0,29.7,0,44.6,0c0-13.1,0-26,0-39.1
		c-3.7,0-7.3,0-11.2,0c0,4.4,0,8.8,0,13.1c0,2.6-1,3.7-3.5,3.7c-4.8,0-9.8,0-14.7,0c-3.4,0-4.1-0.7-4.1-4.1c0-4.3,0-8.4,0-12.6
		C90.6,139.3,87.1,139.3,83.3,139.3z M167.3,139.3c0,4.6,0,9,0,13.5c0,2.2-1,3.4-3.1,3.4c-5.4,0-10.7,0-16.1,0c-2.1,0-3.1-1-3.1-3.1
		c0-4,0-7.9,0-11.9c0-0.6,0-1.2-0.1-1.6c-3.8,0-7.3,0-11,0c0,13.1,0,26,0,39.1c15,0,29.8,0,44.5,0c0-13.1,0-26.1,0-39.1
		C174.6,139.3,171.1,139.3,167.3,139.3z M150.5,60.7c3.8,0,7.3,0,11,0c0-3.8,0-7.3,0-11c-3.7,0-7.3,0-11,0
		C150.5,53.3,150.5,56.8,150.5,60.7z M150.5,94.4c0,3.8,0,7.5,0,11c3.7,0,7.3,0,11,0c0-3.8,0-7.3,0-11
		C157.7,94.4,154.2,94.4,150.5,94.4z M100.2,150.4c3.8,0,7.3,0,11,0c0-3.8,0-7.3,0-11c-3.7,0-7.3,0-11,0
		C100.2,143,100.2,146.7,100.2,150.4z M150.5,139.3c0,3.7,0,7.3,0,11c3.7,0,7.3,0,11,0c0-3.8,0-7.3,0-11
		C157.7,139.3,154.2,139.3,150.5,139.3z"/>
	<path class="st0" d="M30,27c0.9-6.9,5.1-11.2,11.2-11.2c6.2,0,10.6,4.3,11.3,11.2c0.7,0,1.3,0,2.1,0c14.7,0,29.5,0,44.2,0
		c1.6,0,2.9,0.4,4,1.6c6,6,12,12,18.1,18.2c0.7,0.9,1.5,2.2,1.5,3.4c0.1,25.5,0,51.2,0,76.8c0,0.3,0,0.6,0,1c-1.8,0-3.5,0-5.6,0
		c0-25.1,0-50.2,0-75.6c-4.8,0-9.4,0-13.9,0c-5.4,0-5.7-0.1-5.7-5.7c0-4.6,0-9.1,0-13.8c-18.6,0-37.1,0-55.9,0c0-1.9,0-3.7,0-5.7
		c1.9,0,3.7,0,5.4,0c-0.1-3.2-2.5-5.6-5.4-5.6s-5.6,2.3-5.6,5.3c-0.1,5.7,0,11.3,0,17c0,1.8,1.3,2.9,2.8,2.9c1.5,0,2.6-1.2,2.6-2.9
		c0-1.8,0-3.5,0-5.4c1.8,0,3.7,0,5.4,0c0,2.3,0.3,4.8,0,7.2c-0.7,4.3-4.7,7-9,6.6c-4.3-0.4-7.5-4-7.5-8.2c0-1.9,0-3.7,0-5.6
		c0-1.8,0-3.7,0-5.6c-2.8,0-5.4,0-8.2,0c0,44.8,0,89.6,0,134.5c16.7,0,33.5,0,50.2,0c0,1.9,0,3.7,0,5.6c-0.6,0-1.2,0-1.9,0
		c-16.7,0-33.3,0-50.1,0c-3.2,0-4-0.9-4-4c0-46,0-91.9,0-137.7c0-3.2,0.7-4.1,4-4.1C23.2,27,26.6,27,30,27z M103,46.6
		c3.2,0,6.5,0,9.1,0c-2.9-2.9-6.2-6.2-9.1-9C103,40.2,103,43.5,103,46.6z"/>
	<path class="st1" d="M108.4,111.3c0,1.9,0,3.5,0,5.4c-26,0-52,0-78.1,0c0-1.8,0-3.5,0-5.4C56.1,111.3,82.1,111.3,108.4,111.3z"/>
	<path class="st0" d="M108.4,122.6c0,1.9,0,3.5,0,5.4c-26.1,0-52,0-78.1,0c0-1.8,0-3.5,0-5.4C56.1,122.6,82.1,122.6,108.4,122.6z"/>
	<path class="st1" d="M46.9,105.4c0-1.9,0-3.5,0-5.4c20.4,0,40.8,0,61.4,0c0,1.8,0,3.5,0,5.4C87.8,105.4,67.4,105.4,46.9,105.4z"/>
	<path class="st2" d="M71.8,85.9c-1.6,0-3.4,0-5.1,0c0,0-0.1-0.1-0.1-0.3c0.3-1.9-0.4-3.1-2.2-4.1C62,80.2,61,77.7,61,74.7
		c1.9,0,3.5,0,5.3,0c0.9,2.2,1.5,2.8,3.4,2.8c1.3,0,2.3-0.7,2.3-1.9c0-0.9-0.6-2.1-1.2-2.6c-1.5-1-3.2-1.8-4.8-2.5
		c-3.1-1.5-5-3.8-5-7.3c0-3.4,1.6-5.9,4.7-7.3c0.4-0.3,0.7-0.9,0.9-1.5s0-1.2,0.1-1.8c0,0,0-0.1,0.1-0.1c1.6,0,3.4,0,5.1,0
		c0,0.1,0.1,0.1,0.1,0.3c-0.3,1.9,0.6,3.1,2.2,4.1c2.3,1.5,3.4,3.8,3.4,6.8c-1.9,0-3.5,0-5.3,0c-0.9-2.3-1.5-2.8-3.4-2.8
		c-1.3,0-2.3,0.7-2.3,1.9c0,0.9,0.6,2.1,1.2,2.6c1.5,1,3.2,1.8,5,2.6c3.1,1.5,4.8,3.8,4.8,7.3c0,3.4-1.6,5.9-4.7,7.5
		c-0.4,0.3-0.7,0.9-0.9,1.5s0,1.2-0.1,1.8C72,85.8,72,85.8,71.8,85.9z"/>
	<path class="st0" d="M69.2,133.8c0,1.9,0,3.5,0,5.4c-13.1,0-25.8,0-38.9,0c0-1.8,0-3.5,0-5.4C43.1,133.8,56,133.8,69.2,133.8z"/>
	<path class="st0" d="M57.9,144.9c0,1.9,0,3.5,0,5.4c-9.2,0-18.5,0-27.7,0c0-1.8,0-3.5,0-5.4C39.4,144.9,48.6,144.9,57.9,144.9z"/>
	<path class="st2" d="M55.1,72c-1.8,0-3.5,0-5.4,0c0-1.8,0-3.7,0-5.4c1.8,0,3.5,0,5.4,0C55.1,68.1,55.1,69.9,55.1,72z"/>
	<path class="st2" d="M83.3,66.4c1.8,0,3.5,0,5.4,0c0,1.8,0,3.5,0,5.4c-1.8,0-3.5,0-5.4,0C83.3,70.1,83.3,68.3,83.3,66.4z"/>
	<path class="st1" d="M35.7,100.1c1.8,0,3.5,0,5.4,0c0,1.8,0,3.5,0,5.4c-1.8,0-3.5,0-5.4,0C35.7,103.7,35.7,101.9,35.7,100.1z"/>
	<path class="st0" d="M172.7,77.7c0,1.8,0,3.5,0,5.4c-1.8,0-3.5,0-5.4,0c0-1.8,0-3.5,0-5.4C169,77.7,170.8,77.7,172.7,77.7z"/>
	<path class="st0" d="M172.7,122.6c0,1.9,0,3.5,0,5.4c-1.8,0-3.5,0-5.4,0c0-1.8,0-3.5,0-5.4C169,122.6,170.8,122.6,172.7,122.6z"/>
	<path class="st0" d="M116.9,172.8c0-1.8,0-3.5,0-5.4c1.8,0,3.5,0,5.4,0c0,1.8,0,3.5,0,5.4C120.6,172.8,118.8,172.8,116.9,172.8z"/>
	<path class="st0" d="M172.7,167.4c0,1.9,0,3.5,0,5.4c-1.8,0-3.5,0-5.4,0c0-1.8,0-3.5,0-5.4C169,167.4,170.8,167.4,172.7,167.4z"/>
</g>
</svg>
