<?xml version="1.0" encoding="utf-8"?>
<!-- Generator: Adobe Illustrator 24.0.0, SVG Export Plug-In . SVG Version: 6.00 Build 0)  -->
<svg version="1.1" id="Capa_1" xmlns="http://www.w3.org/2000/svg" xmlns:xlink="http://www.w3.org/1999/xlink" x="0px" y="0px"
	 viewBox="0 0 200 200" style="enable-background:new 0 0 200 200;" xml:space="preserve">
<style type="text/css">
	.st0{fill:#ACAEAF;}
	.st1{fill:#FE9900;}
</style>
<g>
	<path class="st0" d="M193.1,106.7c-1,3.8-2.8,7-6.4,8.9c-6.4,3.4-14.5,0.4-16.9-6.5c-0.4-1.2-0.9-1.6-2.2-1.5
		c-3.3,0.1-6.5,0.1-9.8,0c-1.6-0.1-2.1,0.5-2.1,2c-0.3,7.9-2.1,15.6-4.9,23c-3.4,8.9-8.3,16.9-14.7,24c-0.3,0.3-0.6,0.7-0.9,1
		c3.2,3.1,6.4,6.2,9.6,9.4c7.2-3.8,13.4-0.4,16.2,3.9c3.1,4.8,2.4,11.4-1.7,15.2c-4.2,4-10.7,4.5-15.3,1.2
		c-4.6-3.4-6.8-9.9-3.2-16.4c-2.3-2.3-4.6-4.5-6.9-6.8c-1.2-1.2-2.4-2.4-3.6-3.6c-2-2-1.9-3,0-5.1c2.4-2.8,5-5.5,7.1-8.6
		c10.4-14.6,14.7-31,13-48.8c-1.6-16.4-8.2-30.6-19.5-42.6c-0.3-0.3-0.6-0.7-0.9-1c-1.5-1.7-1.5-2.9,0.1-4.5
		c3.2-3.2,6.4-6.4,9.6-9.6c0.4-0.4,0.8-0.7,1.1-0.9c-2.9-8.1-1.6-13.7,3.8-17c4.9-3,11.3-2.2,15.1,1.9c3.9,4.2,4.4,10.6,1.2,15.2
		c-3,4.2-9.1,7.2-16.2,3.5c-3.1,3.1-6.2,6.2-9.4,9.4c0.6,0.7,1.2,1.5,1.9,2.2c11.3,13.2,17.5,28.4,18.5,45.7
		c0.1,1.6,0.5,2.3,2.3,2.2c3.3-0.2,6.6,0,10-0.1c0.6,0,1.4-0.5,1.6-1c2.2-5.5,6.6-8.6,12.1-8.4c5.5,0.3,9.7,3.9,11.2,9.7
		c0.1,0.2,0.2,0.4,0.3,0.6C193.1,104.4,193.1,105.5,193.1,106.7z M174.1,104.9c0,3.8,3,6.9,6.8,6.9c3.8,0,6.9-3,7-6.8
		c0-3.8-3.1-6.9-6.8-6.9C177.3,98.1,174.2,101.1,174.1,104.9z M150.9,39.4c3.8,0,6.9-3,7-6.8c0.1-3.7-3.1-6.9-6.8-7
		c-3.8,0-6.9,3-7,6.8C144.1,36.2,147.1,39.4,150.9,39.4z M150.9,170.5c-3.8,0-6.9,3.1-6.8,6.9c0.1,3.8,3.2,6.9,7,6.8
		c3.8,0,6.9-3.2,6.8-7C157.9,173.5,154.7,170.5,150.9,170.5z"/>
	<path class="st1" d="M102.9,97.8c1.7-0.6,2.9-1.2,4.2-1.6c4.2-1.4,8.6,0.6,10.2,4.6c1.6,4-0.1,8.4-4.1,10.4c-1.3,0.6-2.6,1.1-4,1.7
		c2.8,5.2,5.9,10.1,10.3,13.9c1.3,1.2,3,2,4.7,2.8c1.4,0.6,2.7,0.1,3.3-1.3c0.7-1.9,1.2-3.9,1.6-5.9c0.4-2,1.3-3,3-2.8
		c1.6,0.2,2.5,1.5,2.1,3.5c-0.5,2.4-0.8,4.9-1.8,7.1c-1.9,4.3-6,5.8-10.5,4.2c-8.5-2.9-17-5.8-25.5-8.6c-0.7-0.2-1.6-0.2-2.3,0
		c-1.7,0.6-3.4,1.3-5.2,2c1.2,3.1,2.5,6.1,3.6,9.2c1.5,4.2-0.9,8.4-5.3,9.3c-3,0.6-6.2-1-7.5-4.1c-1.2-2.8-2.4-5.7-3.5-8.6
		c-0.4-0.9-0.8-1.3-1.9-1.3c-6.2-0.4-11.5-4.5-13.1-9.9c-1.9-6.3-0.1-12.2,5.1-16.2c1.2-1,2.7-1.7,4.2-2.3c4.2-1.7,8.4-3.3,12.5-5.1
		c0.8-0.3,1.5-1,1.9-1.7c4.2-7.9,8.4-15.9,12.5-23.8c2.4-4.5,6.9-5.9,11.7-3.6c4.8,2.3,8.1,6.3,11.1,10.5
		c6.3,9.1,10.5,19.1,12.8,29.9c0,0.2,0.1,0.4,0.1,0.7c0.3,1.8-0.5,3.2-2,3.4c-1.4,0.3-2.6-0.7-3-2.4c-0.7-2.8-1.3-5.7-2.2-8.4
		c-2.9-8.7-6.7-16.9-12.8-23.8c-1.6-1.8-3.4-3.4-5.4-4.7c-3-2.1-5.3-1.3-6.2,2.3c-0.6,2.7-0.9,5.6-0.7,8.3
		C101.3,89.5,102.2,93.6,102.9,97.8z M110.7,125.1c-8-11.4-12.9-23.5-15-37.3c-2.1,4-4,7.5-5.8,11c-1.1,2.3-2.4,4.2-5.1,4.9
		c-0.1,0-0.1,0.2-0.2,0.3c1.2,6.1,3.4,11.9,7.1,17.4c2.5-2.1,4.9-1.1,7.4-0.2c1,0.4,2,0.6,2.9,1
		C104.8,123.2,107.6,124.1,110.7,125.1z M79.5,105.8c-3.1,1.3-6.2,2.4-9.2,3.9c-4,2.1-5.7,7.1-4.1,11.4c1.6,4.2,6.1,7,10.4,5.8
		c3.4-0.9,6.6-2.3,9.9-3.5c-1.5-3-2.9-5.7-4.1-8.6C81.3,112,80.5,109,79.5,105.8z M80.8,131.2c1.2,3.1,2.3,5.9,3.5,8.8
		c0.4,1,1.3,1.8,2.3,1.1c0.6-0.4,1.3-1.6,1.1-2.1c-1-3.1-2.3-6-3.5-9.1C82.9,130.3,81.9,130.7,80.8,131.2z M106.9,108.3
		c1.6-0.7,3-1.2,4.3-1.9c1.4-0.8,1.8-2.3,1.2-3.7c-0.6-1.4-2.1-2.1-3.5-1.6c-1.4,0.4-2.8,1-4.3,1.6
		C105.5,104.6,106.2,106.3,106.9,108.3z"/>
	<path class="st0" d="M40.6,119.2c-9.5-1-17.6,5.9-18.1,15.7c-0.3,5.8-0.1,11.7-0.1,17.6c15.9,0,31.7,0,47.7,0
		c0-0.6,0.1-1.2,0.1-1.8c0-3,0-5.9,0-8.9c0-0.5,0-1,0.1-1.5c0.2-1.4,1.1-2.3,2.5-2.3c1.3,0,2.5,1,2.5,2.5c0.1,4.9,0,9.7,0,14.6
		c0,1.7-1,2.5-2.6,2.7c-0.5,0.1-0.9,0-1.4,0c-16.7,0-33.4,0-50.1,0c-3.3,0-4.1-0.7-4.1-4c0-5.9,0-11.8,0-17.7
		c0-12.8,9.3-22.1,22.1-22.2c4.3,0,8.6,0,12.9,0c1.9,0,2.9,0.9,3.1,2.3c0.2,1.4-0.7,2.4-2.6,2.8c-0.2,0-0.3,0.1-0.6,0.2
		c1,3.5,2,7,3.1,10.5c0.7,2.2,1.3,4.5,2,6.7c0.4,1.3,0.1,2.3-0.8,3.3c-2.6,2.7-5.2,5.3-7.8,8c-1.6,1.6-2.9,1.6-4.4,0
		c-2.6-2.6-5.2-5.3-7.8-8c-1.1-1.1-1.1-2.4-0.7-3.8c1.5-5,3-10.1,4.5-15.1C40.2,120.4,40.4,119.8,40.6,119.2z M46.3,142.4
		c1.5-1.4,3-2.9,4.5-4.3c0.8-0.7,1-1.4,0.7-2.5c-1.5-5-3-10.1-4.5-15.1c-0.1-0.5-0.4-1-0.6-1.7c-0.3,0.4-0.5,0.6-0.6,0.8
		c-1.6,5.5-3.3,11-4.8,16.6c-0.1,0.5,0.2,1.2,0.5,1.6C43.1,139.4,44.7,140.9,46.3,142.4z"/>
	<path class="st0" d="M65.2,77.1C66,66.2,56,56.4,45.3,57.4c-3,0.3-5.8,1.1-8.5,2.5c-0.8,0.4-2,0.6-2.9,0.3
		c-0.7-0.2-1.4-1.4-1.4-2.1c0.1-0.9,0.7-2,1.5-2.4c5-3,10.5-4.1,16.3-3.1c11.8,2.1,20.1,11.9,20.1,23.9c0,4.6,0.2,9.3-0.4,13.9
		c-1.2,10.2-9.6,18.7-19.4,20.2c-11.1,1.7-21.2-3.4-26-13.1c-1.7-3.4-2.6-7-2.5-10.8c0.1-5.1,0.1-10.3,0.7-15.4
		c0.3-2.4,1.6-4.7,2.6-7c0.7-1.5,2.1-1.9,3.4-1.3c1.4,0.7,1.9,2.1,1.1,3.6c-1.4,2.7-2.3,5.4-2.6,8.5c-0.1,1.3,0.3,1.7,1.4,2
		c8.5,2,16,0.3,22.4-5.6c0.5-0.5,1-1.1,1.7-1.5c1.3-0.9,2.6-0.5,3.8,1c2.1,2.8,4.6,4.9,7.9,6C64.8,77,64.9,77,65.2,77.1z M27.5,82
		c-0.1,0.3-0.2,0.4-0.2,0.6c0,1.4-0.1,2.7,0,4.1c0.4,8.2,4.2,14.3,11.7,17.4c7.4,3.1,14.4,1.7,20.4-3.8c5-4.6,6.3-10.7,5.9-17.2
		c0-0.4-0.7-0.7-1.1-1c-2.5-1.3-5.1-2.5-7.5-3.9c-1-0.6-1.8-1.6-2.7-2.4C46.1,82.5,37.2,84.4,27.5,82z"/>
</g>
</svg>
