<?xml version="1.0" encoding="utf-8"?>
<!-- Generator: Adobe Illustrator 24.0.0, SVG Export Plug-In . SVG Version: 6.00 Build 0)  -->
<svg version="1.1" id="Capa_1" xmlns="http://www.w3.org/2000/svg" xmlns:xlink="http://www.w3.org/1999/xlink" x="0px" y="0px"
	 viewBox="0 0 226.8 226.8" style="enable-background:new 0 0 226.8 226.8;" xml:space="preserve">
<style type="text/css">
	.st0{fill:#ACAEAF;}
</style>
<g>
	<path class="st0" d="M110.8,11.1c1.6,0,3.2,0,4.8,0c0.8,0.3,1.5,0.5,2.3,0.8c5.3,1.9,8.8,6.8,9,12.3c0.1,3.8-1.2,7-3.7,9.9
		c7.8,4.8,11,11.9,10.5,20.8c-0.1,2.4,0,4.8,0,7.4c5.6-0.5,10.9-0.5,13.2,5.3c1.6-3.1,3.1-6.1,4.7-9.3c-6.5-6.6-4.6-15.2,0-19.6
		c5.2-5.1,13.5-5.1,18.9-0.2c4.6,4.3,6.9,13.1-0.3,20.4c3.7,3.3,4.7,7.6,4.7,12.4c-0.1,11.8,0,23.6,0,35.4c0,0.7-0.2,1.6,0.2,2.2
		c2.1,3.3,4.3,6.4,6.2,9.4c1.5-2.9,3-5.7,4.6-8.6c-5.5-6.8-5.6-14.2-0.1-19.6c4.9-4.9,12.9-5.2,18.2-0.8c2.8,2.3,4.4,5.3,4.9,8.9
		c0.6,4.7-1.2,8.7-4.5,12c3.7,3.4,4.7,7.5,4.7,12.2c-0.1,11.7-0.1,23.4,0,35.2c0,1,0.4,2.2,1,3.1c1.9,3.1,3.9,6.2,5.8,9.2
		c0,5.6,0,11.2,0,16.8c-1.7,4.8-5.6,5.8-10.3,5.2c0,1.1,0,1.8,0,2.5c0,4.8,0,9.6,0,14.4c-0.1,4.3-2.8,7-7.2,7.1c-4.3,0-8.5,0-12.8,0
		c-4.4,0-7.3-2.8-7.3-7.3c0-4.8,0-9.6,0-14.4c0-0.7,0-1.4,0-2.1c-11.5,0-22.7,0-34.1,0c0,4.5,0.1,8.9,0,13.3
		c-0.1,5.8-4.3,10.4-10,10.4c-13.9,0.1-27.7,0.1-41.6,0c-4.8,0-8.9-3.5-9.7-8.2c-0.4-2.5-0.3-5-0.3-7.6c0-2.6,0-5.3,0-7.9
		c-11.5,0-22.7,0-34.1,0c0,5.6,0,11,0,16.5c0,4.4-2.9,7.2-7.3,7.3c-4.1,0-8.3,0-12.4,0c-4.9,0-7.6-2.6-7.6-7.5c0-4.7,0-9.5,0-14.2
		c0-0.7-0.1-1.4-0.1-2.3c-4.7,0.6-8.5-0.4-10.2-5.2c0-5.6,0-11.2,0-16.8c2-3.1,4-6.1,5.8-9.2c0.5-0.9,0.9-2.1,0.9-3.1
		c0.1-11.1,0.1-22.1,0-33.2c-0.1-5.3,0.3-10.4,4.7-14.1c-6-7.1-6.1-14.7-0.5-20.2c5.1-4.9,13.3-5.2,18.5-0.5
		c6.1,5.4,6.1,12.9,0.5,20.2c1.6,3,3.1,5.8,4.5,8.6c1.7-2.5,3.7-5.2,5.4-8c0.6-0.9,1-2.2,1-3.3c0.1-11.7,0.1-23.4,0-35.2
		c0-4.9,0.8-9.4,4.7-12.8c-7-7.2-5-15.6-0.7-20c4.9-5,13-5.4,18.4-1c2.7,2.3,4.4,5.1,4.9,8.7c0.7,4.8-1.1,8.8-3.9,11.7
		c1.6,3.3,3.1,6.3,4.6,9.3c2.3-5.9,7.6-5.9,13.2-5.4c0-1.7,0-3.1,0-4.4c0.1-3-0.2-6,0.3-9c0.9-6.5,4.5-11.4,10.2-14.8
		c-0.4-0.5-0.8-1-1.1-1.5c-4.6-6.4-2.8-15.4,3.9-19.5C107.5,12.2,109.2,11.8,110.8,11.1z M208.6,171.3c-0.3-0.6-0.5-0.9-0.7-1.1
		c-22.5-33.3-45-66.5-67.4-99.8c-0.7-1-1.5-1.3-2.6-1.3c-16.4,0-32.8,0-49.2,0c-1.3,0-2,0.4-2.7,1.5c-22.3,33-44.7,65.9-67.1,98.8
		c-0.3,0.5-0.6,1.1-1.1,1.9c21.7,0,43.1,0,64.7,0c-0.2-6.5,0.8-12.7,4.1-18.4c3.3-5.7,8.1-10,14.1-12.8
		c-11.6-10.2-8.6-23.9-2.4-30.3c7.4-7.7,19.3-8.7,27.6-2.2c4.3,3.4,6.9,7.8,7.6,13.1c1.1,7.8-1.8,14.2-7.7,19.3
		c12.9,6.7,18.7,17.2,18.2,31.4C165.5,171.3,186.9,171.3,208.6,171.3z M130.3,208.9c1.1,0,1.9,0,2.7,0c2.8,0,4.1-1.3,4.1-4
		c0-12.4,0.2-24.9,0-37.3c-0.2-12.6-10.4-23-22.6-23.4c-14.2-0.5-25.2,10.1-25.3,24.3c0,8.6,0,17.2,0,25.8c0,3.6,0,7.2,0,10.8
		c0,2.5,1.3,3.8,3.8,3.9c0.9,0,1.8,0,3,0c0-0.9,0-1.6,0-2.3c0-9,0-18,0-27c0-0.9,0-1.8,0.3-2.6c0.5-1.6,1.8-2.3,3.4-2.2
		c1.7,0.1,2.7,1.1,3,2.7c0.1,0.7,0.1,1.5,0.1,2.2c0,8.9,0,17.8,0,26.8c0,0.8,0,1.5,0,2.3c7,0,13.7,0,20.6,0c0-2.3,0-4.6,0-6.8
		c0-7.8,0-15.6,0-23.4c0-2.3,1.3-3.7,3.2-3.8c2.1-0.1,3.4,1.3,3.6,3.7c0,0.5,0,1.1,0,1.6c0,8.8,0,17.6,0,26.4
		C130.3,207.2,130.3,207.9,130.3,208.9z M99.5,123.6c0,7.6,6.2,13.8,13.7,13.7c7.5,0,13.6-6.2,13.5-13.7c0-7.5-6.1-13.6-13.6-13.6
		C105.7,110,99.5,116.1,99.5,123.6z M126.8,62.2c0-3.7,0.1-7.2,0-10.7c-0.2-6.7-5.3-12.1-12.3-13c-6.3-0.8-13.1,3.5-14.3,9.9
		c-0.9,4.5-0.6,9.2-0.8,13.9C108.7,62.2,117.6,62.2,126.8,62.2z M82.3,178.3c-21.7,0-43.2,0-64.7,0c0,2.3,0,4.4,0,6.5
		c21.6,0,43.1,0,64.7,0C82.3,182.6,82.3,180.5,82.3,178.3z M144,184.8c21.7,0,43.2,0,64.7,0c0-2.3,0-4.4,0-6.5
		c-21.6,0-43.1,0-64.7,0C144,180.5,144,182.6,144,184.8z M58.5,98.2c0.5-0.5,0.7-0.6,0.8-0.7c4.1-6.1,8.2-12.1,12.3-18.2
		c0.3-0.5,0.6-1.2,0.6-1.8c0.1-2.8,0.1-5.6,0-8.4c-0.1-3-1.5-5.2-4.4-6.3c-4.6-1.8-9.2,1.5-9.3,6.7c-0.1,5.4,0,10.8,0,16.2
		C58.5,89.6,58.5,93.7,58.5,98.2z M167.6,98.1c0.1-0.4,0.3-0.6,0.3-0.8c0-9.5,0.1-18.9,0-28.4c-0.1-3.9-3.1-6.7-6.8-6.7
		c-3.7,0-6.6,2.8-6.8,6.7c-0.1,2.5-0.2,4.9,0,7.4c0.1,1.2,0.4,2.6,1.1,3.7c3.6,5.5,7.4,10.9,11.1,16.4
		C166.7,96.9,167.1,97.4,167.6,98.1z M24.3,148.3c0.2,0.1,0.4,0.2,0.6,0.4c0.1-0.3,0.1-0.6,0.2-0.8c4.1-6.1,8.2-12.1,12.3-18.2
		c0.3-0.5,0.5-1.1,0.5-1.7c0-2.7,0.1-5.5,0-8.2c-0.1-2.8-1.9-5.1-4.5-6c-4.6-1.6-9.1,1.7-9.1,6.8c0,8.3,0,16.5,0,24.8
		C24.3,146.3,24.3,147.3,24.3,148.3z M201.6,148.4c0.1-0.1,0.3-0.1,0.4-0.2c0-9.3,0.1-18.6,0-27.9c0-3.9-3.1-6.8-6.9-6.8
		c-3.8,0-6.6,3-6.7,7c0,2.3-0.1,4.5,0,6.8c0.1,1.1,0.4,2.2,0.9,3.1c3.6,5.4,7.3,10.8,10.9,16.2C200.7,147.1,201.2,147.7,201.6,148.4
		z M27.9,191.9c0,5.7,0,11.2,0,16.9c4.5,0,8.9,0,13.4,0c0-5.7,0-11.3,0-16.9C36.7,191.9,32.4,191.9,27.9,191.9z M185,208.7
		c4.6,0,9.1,0,13.4,0c0-5.7,0-11.2,0-16.7c-4.6,0-9,0-13.4,0C185,197.7,185,203.2,185,208.7z M38,99.8C38,96,35,93,31.2,93
		c-3.8,0-6.9,3.1-6.8,6.8c0,3.6,3.1,6.7,6.7,6.8C34.8,106.6,37.9,103.6,38,99.8z M113.1,31.5c3.8,0,6.9-3,6.9-6.8
		c0-3.8-3.1-6.9-6.8-6.8c-3.7,0-6.7,3-6.8,6.7C106.3,28.4,109.3,31.5,113.1,31.5z M188.4,99.8c0,3.8,3.1,6.9,6.8,6.8
		c3.7,0,6.7-3.1,6.8-6.7c0.1-3.7-3-6.9-6.8-6.9C191.4,93,188.4,95.9,188.4,99.8z M65.4,41.8c-3.8,0-6.8,3-6.8,6.8
		c0,3.7,3,6.7,6.7,6.8c3.8,0.1,6.9-3,7-6.7C72.2,45,69.2,41.9,65.4,41.8z M167.8,48.5c0-3.8-3.1-6.8-6.9-6.7c-3.8,0.1-6.8,3.2-6.7,7
		c0.1,3.7,3.2,6.7,6.8,6.6C164.8,55.4,167.8,52.3,167.8,48.5z"/>
</g>
</svg>
