<?xml version="1.0" encoding="utf-8"?>
<!-- Generator: Adobe Illustrator 24.0.0, SVG Export Plug-In . SVG Version: 6.00 Build 0)  -->
<svg version="1.1" id="Capa_1" xmlns="http://www.w3.org/2000/svg" xmlns:xlink="http://www.w3.org/1999/xlink" x="0px" y="0px"
	 viewBox="0 0 200 200" style="enable-background:new 0 0 200 200;" xml:space="preserve">
<style type="text/css">
	.st0{fill:#ACAEAF;}
	.st1{fill:#1C3247;}
	.st2{fill:#FE9900;}
</style>
<g>
	<path class="st0" d="M13.1,15c35.9,0,71.8,0,107.7,0c1.5,1,1.9,2.5,1.8,4.3c0,23.5,0,46.9,0,70.4c0,0.7,0,1.4,0,2.1
		c10.5,0,20.7,0,31.1,0c0-2,0-3.9,0-5.8c0-1.1,0-2.3,0.3-3.4c1-3.8,4.6-6,8.6-5.6c3.6,0.4,6.6,3.6,6.7,7.4c0.1,2.4,0,4.9,0,7.5
		c1.6,0,3,0,4.4,0c8,0,13.2,5.2,13.2,13.2c0,24.5,0,49,0,73.5c0,7.9-5.2,13.1-13.1,13.1c-52.9,0-105.8,0-158.8,0
		c-3.2,0-4.1-0.9-4.1-4.1c0-56.2,0-112.4,0-168.6C11,17.3,11.5,15.9,13.1,15z M112.8,91.9c1.4,0,2.5,0,3.8,0c0-23.7,0-47.3,0-70.9
		c-33.2,0-66.3,0-99.5,0c0,55,0,109.9,0,164.8c4.7,0,9.2,0,13.7,0c0.1-0.6,0.2-1.2,0.3-1.7c1.9,0,3.7,0,5.6,0
		c0.1,0.6,0.2,1.2,0.2,1.7c14.3,0,28.4,0,42.3,0c-0.4-2.3-1.2-4.6-1.2-6.9c-0.1-24.7-0.1-49.4,0-74c0-7.6,5.3-12.8,12.8-12.8
		c2,0,4,0,6.2,0c0-2.3,0-4.4,0-6.5c0-4.9,3.3-8.4,7.9-8.4c4.6,0,7.9,3.5,7.9,8.4C112.8,87.6,112.8,89.7,112.8,91.9z M181.1,118.8
		c-32.5,0-64.8,0-97.2,0c0,0.7,0,1.3,0,1.9c0,19.2,0,38.4,0,57.6c0,5,2.5,7.5,7.5,7.5c27.4,0,54.8,0,82.1,0c5.1,0,7.6-2.5,7.6-7.7
		c0-19.2,0-38.3,0-57.5C181.1,120.2,181.1,119.6,181.1,118.8z M112.8,98c0,1.1,0,2,0,3c-0.1,4.6-3.4,8-7.7,8.1
		c-4.5,0.1-7.9-3.3-8-7.9c0-1,0-2,0-3c-0.3-0.1-0.5-0.2-0.6-0.2c-2.1,0-4.1-0.1-6.2,0c-3.1,0.1-5.7,2.1-6,5.1
		c-0.3,3.2-0.1,6.4-0.1,9.6c32.3,0,64.6,0,97,0c0-3.1,0.2-6.1,0-9.1c-0.2-2.9-2.4-5.3-5.2-5.6c-2-0.2-4.1,0-6.3,0c0,1.2,0,2.2,0,3.3
		c-0.1,4.3-3.3,7.6-7.5,7.7c-4.3,0.2-7.8-2.8-8.2-7.2c-0.1-1.2,0-2.5,0-3.9C140.1,98,126.6,98,112.8,98z M106.9,93.2
		c0-2.5,0-5.1,0-7.6c0-1.8-0.7-2.7-2-2.6c-1.6,0.1-2,1.2-2,2.5c0,5.1,0,10.1,0,15.2c0,1.4,0.4,2.5,2,2.4c1.6,0,2-1.1,2-2.5
		C106.9,98.1,106.9,95.7,106.9,93.2z M163.6,93c0-2.5,0-5.1,0-7.6c0-1.4-0.4-2.4-2-2.4c-1.6,0-2,1.1-2,2.5c0,5.1,0,10.1,0,15.2
		c0,1.4,0.4,2.5,2,2.4c1.6,0,2-1.1,2-2.5C163.5,98.1,163.6,95.6,163.6,93z"/>
	<path class="st0" d="M36.8,161c0,1.9,0,3.5,0,5.2c-1.9,0-3.8,0-5.8,0c0-1.6,0-3.3,0-5.2c-2.1,0-4.1,0-6,0c-2.5,0-3.6-1.1-3.6-3.6
		c0-6.3,0-12.7,0-19c0-2.4,1.1-3.5,3.5-3.5c1.9,0,3.9,0,5.9,0c0-2.5,0-4.8,0-7.4c-2,0-3.9,0-5.9,0c-2.5,0-3.6-1.1-3.6-3.6
		c0-6.3,0-12.5,0-18.8c0-2.5,1-3.6,3.5-3.6c1.9,0,3.9,0,5.9,0c0-2.9,0-5.5,0-8.3c-2,0-3.9,0-5.7,0c-2.6,0-3.7-1.1-3.7-3.7
		c0-6.3,0-12.5,0-18.8c0-2.5,1.1-3.6,3.6-3.6c1.9,0,3.8,0,5.8,0c0-2.8,0-5.4,0-8.3c-2,0-4,0-6,0c-2.3,0-3.4-1.1-3.4-3.4
		c0-6.4,0-12.8,0-19.2c0-2.4,1.1-3.4,3.5-3.4c6.3,0,12.7,0,19,0c2.5,0,3.6,1,3.6,3.6c0,6.3,0,12.5,0,18.8c0,2.6-1.1,3.6-3.7,3.6
		c-2.1,0-4.3,0-6.4,0c-0.1,0-0.2,0.1-0.4,0.1c0,2.6,0,5.3,0,8.2c2.3,0,4.6,0,6.9,0c2.6,0,3.7,1.1,3.7,3.7c0,6.3,0,12.5,0,18.8
		c0,2.5-1.1,3.6-3.6,3.6c-2.3,0-4.6,0-7,0c0,2.8,0,5.4,0,8.3c2.2,0,4.5,0,6.7,0c2.9,0,3.9,1,3.9,3.8c0,6.2,0,12.3,0,18.5
		c0,2.7-1,3.7-3.8,3.7c-2.1,0-4.3,0-6.4,0c-0.1,0-0.2,0.1-0.4,0.2c0,2.3,0,4.6,0,7.2c2.2,0,4.4,0,6.5,0c3.1,0,4,1,4,4
		c0,6,0,12.1,0,18.1c0,2.9-1,3.9-4,3.9C41.4,161.1,39.2,161,36.8,161z M41.5,73.2c-4.8,0-9.5,0-14.2,0c0,4.7,0,9.3,0,14
		c4.8,0,9.4,0,14.2,0C41.5,82.5,41.5,78,41.5,73.2z M27.4,38.9c0,4.8,0,9.4,0,14c4.7,0,9.4,0,14.1,0c0-4.7,0-9.3,0-14
		C36.8,38.9,32.2,38.9,27.4,38.9z M41.5,121.6c0-4.8,0-9.4,0-14.1c-4.7,0-9.4,0-14.1,0c0,4.7,0,9.3,0,14.1
		C32.1,121.6,36.7,121.6,41.5,121.6z M27.4,155c4.8,0,9.4,0,14.1,0c0-4.7,0-9.4,0-14.1c-4.7,0-9.4,0-14.1,0
		C27.4,145.7,27.4,150.3,27.4,155z"/>
	<path class="st1" d="M52.2,54.1c0-1.9,0-3.7,0-5.7c15.9,0,31.7,0,47.7,0c0,1.9,0,3.7,0,5.7C84,54.1,68.1,54.1,52.2,54.1z"/>
	<path class="st2" d="M97.1,76.7c-15,0-29.9,0-44.9,0c0-1.9,0-3.7,0-5.7c14.9,0,29.8,0,44.9,0C97.1,72.9,97.1,74.7,97.1,76.7z"/>
	<path class="st2" d="M85.3,82.8c0,1.8,0,3.7,0,5.7c-11.1,0-22,0-33.1,0c0-1.9,0-3.7,0-5.7C63.2,82.8,74.2,82.8,85.3,82.8z"/>
	<path class="st1" d="M52.2,42.3c0-1.9,0-3.7,0-5.7c10.4,0,20.7,0,31.2,0c0,1.9,0,3.7,0,5.7C73,42.3,62.7,42.3,52.2,42.3z"/>
	<path class="st2" d="M72.7,111c-6.8,0-13.6,0-20.5,0c0-1.9,0-3.7,0-5.7c6.8,0,13.6,0,20.5,0C72.7,107.2,72.7,109.1,72.7,111z"/>
	<path class="st0" d="M72.8,138.8c0,1.9,0,3.7,0,5.6c-6.8,0-13.6,0-20.6,0c0-1.8,0-3.6,0-5.6C59,138.8,65.8,138.8,72.8,138.8z"/>
	<path class="st0" d="M72.8,150.5c0,1.9,0,3.7,0,5.6c-6.8,0-13.6,0-20.5,0c0-1.8,0-3.7,0-5.6C59,150.5,65.8,150.5,72.8,150.5z"/>
	<path class="st2" d="M52.2,122.8c0-1.9,0-3.7,0-5.7c6.8,0,13.7,0,20.6,0c0,1.9,0,3.7,0,5.7C65.9,122.8,59.1,122.8,52.2,122.8z"/>
	<path class="st0" d="M36.7,178c-1.9,0-3.8,0-5.7,0c0-1.9,0-3.7,0-5.7c1.9,0,3.7,0,5.7,0C36.7,174.2,36.7,176,36.7,178z"/>
	<path class="st0" d="M144.9,128.1c1.7,0,3.3-0.1,5,0c2.9,0.1,4.7,1.8,4.8,4.7c0.1,3.4,0.1,6.8,0,10.2c-0.1,2.9-1.9,4.7-4.8,4.8
		c-3.3,0.1-6.7,0.1-10,0c-3-0.1-4.8-1.9-4.8-4.9c-0.1-3.3-0.1-6.5,0-9.8c0.1-3.1,1.9-4.8,5-4.9C141.7,128,143.3,128.1,144.9,128.1
		C144.9,128.1,144.9,128.1,144.9,128.1z M141.1,134.1c0,2.7,0,5.1,0,7.6c2.6,0,5.2,0,7.7,0c0-2.6,0-5.1,0-7.6
		C146.2,134.1,143.7,134.1,141.1,134.1z"/>
	<path class="st0" d="M112.1,137.9c0-1.7,0-3.4,0-5.2c0.1-2.6,1.7-4.5,4.2-4.6c3.7-0.2,7.5-0.2,11.2,0c2.5,0.1,4.2,2,4.3,4.6
		c0.1,3.4,0.1,6.9,0,10.3c-0.1,2.7-1.9,4.5-4.6,4.6c-3.5,0.1-7,0.1-10.5,0c-2.8-0.1-4.5-2-4.6-4.8
		C112,141.3,112.1,139.6,112.1,137.9z M118,141.8c2.7,0,5.2,0,7.7,0c0-2.6,0-5.1,0-7.6c-2.6,0-5.2,0-7.7,0
		C118,136.7,118,139.2,118,141.8z"/>
	<path class="st0" d="M144.9,174.2c-1.7,0-3.4,0-5.2,0c-2.6-0.1-4.5-1.7-4.6-4.2c-0.2-3.7-0.2-7.5,0-11.2c0.1-2.5,2-4.2,4.6-4.2
		c3.4-0.1,6.9-0.1,10.3,0c2.6,0.1,4.5,1.8,4.6,4.4c0.2,3.6,0.2,7.1,0,10.7c-0.1,2.8-2,4.5-4.8,4.5
		C148.2,174.3,146.6,174.2,144.9,174.2C144.9,174.2,144.9,174.2,144.9,174.2z M141.1,168.2c2.6,0,5.2,0,7.8,0c0-2.3,0-4.5,0-6.7
		c0-0.4-0.5-1-0.7-1.1c-2.3-0.1-4.7,0-7.1,0C141.1,163.2,141.1,165.7,141.1,168.2z"/>
	<path class="st0" d="M177.8,137.9c0,1.7,0,3.4,0,5.2c-0.1,2.7-1.7,4.6-4.3,4.7c-3.7,0.2-7.4,0.1-11,0c-2.5-0.1-4.2-2-4.3-4.5
		c-0.1-3.5-0.1-7,0-10.5c0.1-2.6,1.9-4.4,4.5-4.5c3.6-0.1,7.1-0.1,10.7,0c2.7,0.1,4.4,2,4.5,4.7
		C177.8,134.5,177.8,136.2,177.8,137.9z M171.8,141.8c0-2.6,0-5.1,0-7.7c-2.6,0-5.2,0-7.7,0c0,2.6,0,5.1,0,7.7
		C166.7,141.8,169.2,141.8,171.8,141.8z"/>
	<path class="st0" d="M168,174.2c-1.7,0-3.4,0-5.2,0c-2.7-0.1-4.6-1.9-4.7-4.5c-0.1-3.5-0.1-7,0-10.5c0.1-2.7,2-4.5,4.6-4.6
		c3.4-0.1,6.9-0.1,10.3,0c2.8,0.1,4.6,2,4.7,4.7c0.1,3.4,0.1,6.8,0,10.2c-0.1,2.9-1.9,4.7-4.8,4.8
		C171.3,174.3,169.6,174.2,168,174.2z M164.1,160.5c0,2.7,0,5.2,0,7.8c2.6,0,5.1,0,7.7,0c0-2.6,0-5.2,0-7.8
		C169.2,160.5,166.7,160.5,164.1,160.5z"/>
	<path class="st0" d="M98.8,174.2c-1.7,0-3.3,0-5,0c-2.9-0.1-4.8-1.9-4.8-4.7c-0.1-3.4-0.1-6.8,0-10.2c0-2.7,1.9-4.7,4.7-4.7
		c3.4-0.1,6.9-0.1,10.3,0c2.8,0.1,4.6,2,4.6,4.8c0.1,3.4,0.1,6.8,0,10.2c0,2.8-1.9,4.6-4.7,4.7C102.3,174.3,100.6,174.2,98.8,174.2z
		 M95,160.5c0,2.7,0,5.2,0,7.7c2.6,0,5.2,0,7.7,0c0-2.6,0-5.1,0-7.7C100.1,160.5,97.6,160.5,95,160.5z"/>
	<path class="st0" d="M121.8,174.2c-1.7,0-3.4,0.1-5.2,0c-2.6-0.1-4.4-1.9-4.5-4.5c-0.1-3.5-0.1-7,0-10.5c0-2.6,1.8-4.5,4.4-4.6
		c3.6-0.1,7.1-0.1,10.7,0c2.6,0.1,4.5,1.9,4.5,4.5c0.1,3.5,0.1,7,0,10.5c-0.1,2.8-2,4.5-4.8,4.6
		C125.2,174.3,123.5,174.2,121.8,174.2C121.8,174.2,121.8,174.2,121.8,174.2z M118,160.5c0,2.7,0,5.2,0,7.7c2.6,0,5.2,0,7.7,0
		c0-2.6,0-5.1,0-7.7C123.2,160.5,120.7,160.5,118,160.5z"/>
</g>
</svg>
