<?xml version="1.0" encoding="utf-8"?>
<!-- Generator: Adobe Illustrator 24.0.0, SVG Export Plug-In . SVG Version: 6.00 Build 0)  -->
<svg version="1.1" id="Capa_1" xmlns="http://www.w3.org/2000/svg" xmlns:xlink="http://www.w3.org/1999/xlink" x="0px" y="0px"
	 viewBox="0 0 200 200" style="enable-background:new 0 0 200 200;" xml:space="preserve">
<style type="text/css">
	.st0{fill:#ACAEAF;}
	.st1{fill:#FE9900;}
	.st2{fill:#1C3247;}
</style>
<g>
	<path class="st0" d="M59.8,19c24.3,0,48.6,0,72.8,0c0.5,0.5,1.2,1,1.7,1.5c10.3,10.3,20.6,20.6,30.9,30.9c1,1,1.5,2.2,1.5,3.7
		c0,13.3,0,26.6,0,40c0,0.7,0,1.2,0,1.9c0.5,0.2,0.8,0.2,1.2,0.2c8.8,1,14,8.1,12.1,16.7c-4.4,21.2-8.8,42.5-13.2,63.6
		c-0.5,2.9-1.2,3.4-4.2,3.4c-46,0-91.9,0-137.9,0c-0.5,0-1,0-1.3,0c-1.3-0.2-2.4-0.8-2.5-2.2c-0.2-0.7-0.2-1.5-0.2-2.2
		c0-33.7,0-67.3,0-101c0-3.4,0-6.6,0-9.9c0-8.1,5.7-13.8,12.8-14.2c3.2-0.2,6.4-0.2,9.6-0.2c1.5,0,2.9,0,4.6,0c0-0.8,0-1.3,0-1.9
		c0-5.4,0-10.8,0-16.2c0-4.7,1.5-8.9,5.6-11.6C55.4,20.5,57.6,20,59.8,19z M161.8,175.6c0-0.2,0.2-0.3,0.2-0.5
		c4.4-20.7,8.6-41.6,13-62.4c0.5-2.2,0.2-4.2-1-6.1c-1.9-3-4.9-3.9-8.3-3.9c-40.1,0-80.3,0-120.4,0c-0.5,0-1,0-1.3,0
		c-4.4,0.2-7.4,2.9-8.1,7.3c-0.8,5.6-1.5,11.1-2.4,16.5c-1.7,12.6-3.5,25.3-5.2,37.9c-0.5,3.7-1,7.3-1.5,11.1
		C72,175.6,116.8,175.6,161.8,175.6z M53.4,97.2c36.1,0,72,0,107.9,0c0-13.5,0-26.8,0-40.5c-0.7,0-1.2,0-1.9,0c-7.1,0-14.2,0-21.2,0
		c-1.2,0-2.2,0-3.4-0.3c-3.9-1-6.1-4-6.1-8.4c0-7.3,0-14.5,0-21.8c0-0.7,0-1.2,0-2c-0.7,0-1.3,0-1.9,0c-21.4,0-43,0-64.4,0
		c-5.2,0-9.4,3.2-9.4,9.4c0.2,20.6,0,41.1,0,61.7C53.4,96.1,53.4,96.6,53.4,97.2z M26.3,137.2C26.4,137.2,26.4,137.2,26.3,137.2
		c0.3-0.5,0.5-1,0.5-1.5c1.2-8.6,2.4-17.4,3.5-26c1-6.9,5.7-11.6,12.6-12.1c1.5-0.2,3.2,0,4.7,0c0-13.7,0-27.1,0-40.6
		c-4.6,0-9.1-0.2-13.5,0c-4.9,0.2-7.9,3.5-7.9,8.4C26.3,89.3,26.3,113.3,26.3,137.2z M134.5,28.6c0,0.7,0,1,0,1.5
		c0,5.9,0,11.6,0,17.5c0,3,0.8,3.7,3.7,3.7c5.9,0,11.6,0,17.5,0c0.5,0,1,0,1.5-0.2C149.5,43.8,142.1,36.2,134.5,28.6z"/>
	<path class="st1" d="M112.8,59.6c0,13.5-11,24.4-24.4,24.3C75,83.7,64.2,73,64.2,59.5s11-24.4,24.4-24.3
		C102,35.4,112.8,46.3,112.8,59.6z M107.4,59.6c0-10.5-8.6-18.9-18.9-18.9c-10.5,0-18.9,8.6-18.9,19.1c0,10.3,8.6,18.9,18.9,18.9
		C98.9,78.5,107.4,69.9,107.4,59.6z"/>
	<path class="st0" d="M129.1,83.7c0-1.7,0-3.4,0-5.2c7.1,0,14.2,0,21.4,0c0,1.7,0,3.4,0,5.2C143.5,83.7,136.4,83.7,129.1,83.7z"/>
	<path class="st2" d="M118.3,73c0-1.9,0-3.5,0-5.2c5.4,0,10.6,0,16,0c0,1.7,0,3.4,0,5.2C129,73,123.7,73,118.3,73z"/>
	<path class="st2" d="M139.9,73c0-1.9,0-3.4,0-5.2c3.5,0,7.1,0,10.6,0c0,1.7,0,3.4,0,5.2C147,73,143.5,73,139.9,73z"/>
	<path class="st0" d="M123.6,78.5c0,1.9,0,3.5,0,5.2c-1.7,0-3.4,0-5.2,0c0-1.7,0-3.5,0-5.2C120,78.5,121.7,78.5,123.6,78.5z"/>
	<path class="st1" d="M85.8,43.4c1.9,0,3.5,0,5.1,0c0.2,0.2,0.2,0.2,0.2,0.3c-0.3,2,0.5,3.2,2.4,4.2c2.2,1.3,3,3.5,3.2,6.2
		c-1.9,0-3.5,0-4.6,0c-1.2-1-2-2-3-2.4c-1.3-0.5-2.4,0.3-2.9,1.5c-0.5,1.3,0.3,2,1.2,2.5c2,1.2,4,2.2,6.1,3.5c4.9,3,4,9.4,0.2,12
		c-1.7,1.2-2.7,2.2-2.2,4.4c-1.9,0-3.5,0-5.6,0c0.7-2.2-0.5-3.4-2.4-4.6c-2-1.2-2.9-3.5-3-6.2c0.8,0,1.7,0,2.5,0s1.7,0,2.5,0
		c0.2,0.5,0.3,1,0.7,1.5c0.7,1,1.7,1.5,2.7,1c0.8-0.3,1.9-1.2,2-2c0.2-0.5-0.7-1.7-1.3-2c-1.9-1.2-4-2.2-5.9-3.5
		c-4.4-3-4.6-8.6-0.3-12c0.5-0.3,1.2-0.7,1.5-1c0.3-0.3,0.7-1,0.8-1.5C85.8,44.8,85.8,44.1,85.8,43.4z"/>
</g>
</svg>
