<?xml version="1.0" encoding="utf-8"?>
<!-- Generator: Adobe Illustrator 24.0.0, SVG Export Plug-In . SVG Version: 6.00 Build 0)  -->
<svg version="1.1" id="Capa_1" xmlns="http://www.w3.org/2000/svg" xmlns:xlink="http://www.w3.org/1999/xlink" x="0px" y="0px"
	 viewBox="0 0 80 80" style="enable-background:new 0 0 80 80;" xml:space="preserve">
<style type="text/css">
	.st0{fill:#ACAEAF;}
	.st1{fill:#FE9900;}
	.st2{fill:#1C3247;}
</style>
<g id="y92VPR.tif_1_">
	<g>
		<path class="st0" d="M24.8,70.4c-0.1-0.1-0.3-0.1-0.4-0.2c-0.4-0.3-0.6-0.7-0.5-1.2c0.1-0.5,0.4-0.9,0.9-1
			c0.3-0.1,0.6-0.1,0.9-0.1c12.5,0,25.1,0,37.6,0c1.4,0,1.8-0.4,1.8-1.8c0-15.8,0-31.5,0-47.3c0-0.3,0-0.6,0.1-0.9
			c0.1-0.6,0.7-1,1.2-0.9c0.6,0,1.1,0.4,1.2,1c0,0.3,0,0.5,0,0.8c0,15.6,0,31.2,0,46.8c0,2.8-0.6,3.6-3.1,4.7
			C51.2,70.4,38,70.4,24.8,70.4z"/>
		<path class="st0" d="M57.6,33.8c0,7.5,0,15,0,22.5c0,2.7-1.5,4.2-4.2,4.2c-11.8,0-23.6,0-35.3,0c-2.6,0-4.1-1.5-4.1-4.1
			c0-7.3,0-14.7,0-22c0-0.3,0-0.6,0.1-0.9c0.2-0.6,0.6-0.8,1.2-0.8c0.5,0,1,0.3,1.1,0.8c0.1,0.3,0.1,0.6,0.1,0.9
			c0,7.3,0,14.6,0,21.9c0,1.3,0.4,1.7,1.7,1.7c11.8,0,23.5,0,35.3,0c1.3,0,1.7-0.4,1.7-1.7c0-15,0-29.9,0-44.9
			c0-1.3-0.4-1.7-1.7-1.7c-11.8,0-23.5,0-35.3,0c-1.3,0-1.7,0.4-1.7,1.7c0,3.8,0,7.6,0,11.4c0,0.1,0,0.2,0,0.4c0,1-0.5,1.6-1.2,1.6
			c-0.8,0-1.2-0.6-1.2-1.6c0-4,0-7.9,0-11.9c0-2.5,1.5-4,4-4c11.9,0,23.8,0,35.6,0c2.5,0,4,1.6,4,4.1C57.6,18.8,57.6,26.3,57.6,33.8
			z"/>
		<path class="st0" d="M62.5,37.7c0,7.9,0,15.7,0,23.6c0,2.7-1.5,4.2-4.2,4.2c-10.9,0-21.8,0-32.8,0c-0.1,0-0.3,0-0.4,0
			c-0.8,0-1.3-0.5-1.3-1.2c0-0.7,0.5-1.2,1.3-1.2c0.2,0,0.4,0,0.6,0c10.9,0,21.7,0,32.6,0c1.4,0,1.8-0.4,1.8-1.8
			c0-15.8,0-31.5,0-47.3c0-0.3,0-0.6,0.1-0.9c0.1-0.6,0.6-0.9,1.2-0.9c0.5,0,1,0.4,1.2,0.9c0.1,0.3,0.1,0.6,0.1,0.9
			C62.5,21.9,62.5,29.8,62.5,37.7z"/>
		<path class="st1" d="M20.8,23.5c0-1.9,0-3.7,0-5.6c0-1.1,0.4-1.5,1.5-1.5c3.7,0,7.5,0,11.2,0c1.1,0,1.5,0.5,1.5,1.5
			c0,3.7,0,7.5,0,11.2c0,1.1-0.5,1.5-1.5,1.5c-3.7,0-7.5,0-11.2,0c-1.1,0-1.5-0.4-1.5-1.5C20.8,27.2,20.8,25.4,20.8,23.5z
			 M23.4,18.8c0,3.1,0,6.2,0,9.3c3.1,0,6.2,0,9.3,0c0-3.1,0-6.2,0-9.3C29.5,18.8,26.5,18.8,23.4,18.8z"/>
		<path class="st0" d="M42.9,40.4c-2.3,0-4.6,0-6.8,0c-0.3,0-0.8,0-1-0.2c-0.3-0.3-0.6-0.7-0.5-1.1c0.1-0.4,0.4-0.7,0.8-1
			c0.2-0.1,0.5-0.1,0.8-0.1c4.6,0,9.1,0,13.7,0c0.8,0,1.3,0.3,1.5,0.8c0.3,0.9-0.3,1.6-1.4,1.6c-1.9,0-3.7,0-5.6,0
			C43.9,40.4,43.4,40.4,42.9,40.4z"/>
		<path class="st0" d="M43,49.8c-2.3,0-4.6,0-6.9,0c-0.3,0-0.8,0-1-0.3c-0.3-0.3-0.6-0.7-0.5-1.1c0.1-0.4,0.4-0.7,0.8-1
			c0.2-0.1,0.5-0.1,0.8-0.1c4.6,0,9.1,0,13.7,0c0.8,0,1.3,0.3,1.5,0.8c0.3,0.9-0.3,1.6-1.4,1.6c-2,0-4,0-6,0
			C43.6,49.8,43.3,49.8,43,49.8z"/>
		<path class="st2" d="M24.9,39.5c1-1,2-2,2.9-2.9c0.2-0.2,0.4-0.4,0.6-0.5c0.5-0.3,1.1-0.2,1.5,0.2c0.4,0.4,0.5,1,0.2,1.5
			c-0.1,0.2-0.2,0.3-0.4,0.5c-1.2,1.2-2.5,2.5-3.7,3.7c-0.8,0.8-1.4,0.8-2.2,0c-0.7-0.7-1.5-1.4-2.2-2.2c-0.4-0.4-0.5-0.9-0.2-1.5
			c0.3-0.5,0.8-0.7,1.3-0.6c0.3,0.1,0.6,0.3,0.8,0.5C24,38.6,24.4,39.1,24.9,39.5z"/>
		<path class="st2" d="M24.9,49c1.1-1.1,2-2.1,3-3c0.2-0.2,0.4-0.3,0.6-0.5c0.5-0.3,1.1-0.2,1.5,0.2c0.4,0.4,0.5,1,0.2,1.5
			c-0.1,0.2-0.2,0.3-0.4,0.5c-1.2,1.2-2.5,2.5-3.7,3.7c-0.8,0.8-1.4,0.8-2.2,0c-0.7-0.7-1.3-1.3-2-2c-0.6-0.6-0.7-1.4-0.2-1.9
			c0.5-0.5,1.2-0.5,1.9,0.2C24,48,24.4,48.5,24.9,49z"/>
		<path class="st1" d="M45.1,18.8c-1.3,0-2.7,0-4,0c-0.9,0-1.5-0.5-1.5-1.2c0-0.8,0.6-1.2,1.5-1.3c2.7,0,5.4,0,8.1,0
			c0.9,0,1.5,0.5,1.5,1.2c0,0.7-0.6,1.2-1.5,1.3C47.8,18.8,46.5,18.8,45.1,18.8z"/>
		<path class="st1" d="M45.1,24.7c-1.4,0-2.8,0-4.2,0c-1,0-1.5-0.8-1.3-1.6c0.2-0.6,0.6-0.9,1.2-0.9c2.8,0,5.7,0,8.5,0
			c0.8,0,1.3,0.6,1.3,1.2c0,0.7-0.5,1.2-1.3,1.2C48,24.7,46.5,24.7,45.1,24.7z"/>
		<path class="st1" d="M45.1,28.2c1.4,0,2.8,0,4.2,0c1,0,1.6,0.9,1.2,1.7c-0.2,0.5-0.6,0.7-1.2,0.8c-2.8,0-5.7,0-8.5,0
			c-0.8,0-1.3-0.5-1.3-1.2c0-0.7,0.5-1.2,1.3-1.2C42.3,28.2,43.7,28.2,45.1,28.2C45.1,28.2,45.1,28.2,45.1,28.2z"/>
		<path class="st0" d="M15.2,27.8c0.7,0,1.2,0.5,1.2,1.2c0,0.6-0.6,1.2-1.2,1.2c-0.6,0-1.2-0.6-1.2-1.2
			C13.9,28.4,14.5,27.8,15.2,27.8z"/>
		<path class="st0" d="M20.1,63c0.6,0,1.2,0.6,1.2,1.2c0,0.6-0.6,1.2-1.2,1.2c-0.6,0-1.2-0.6-1.2-1.2C18.9,63.6,19.4,63,20.1,63z"/>
	</g>
</g>
</svg>
