<?xml version="1.0" encoding="utf-8"?>
<!-- Generator: Adobe Illustrator 24.0.0, SVG Export Plug-In . SVG Version: 6.00 Build 0)  -->
<svg version="1.1" id="Capa_1" xmlns="http://www.w3.org/2000/svg" xmlns:xlink="http://www.w3.org/1999/xlink" x="0px" y="0px"
	 viewBox="0 0 200 200" style="enable-background:new 0 0 200 200;" xml:space="preserve">
<style type="text/css">
	.st0{fill:#ACAEAF;}
	.st1{fill:#1C3247;}
	.st2{fill:#FE9900;}
</style>
<g>
	<path class="st0" d="M166.6,109.1c2.1,0,3.9,0,5.9,0c0,11.7,0,23.2,0,34.7c0.2,0.1,0.4,0.2,0.5,0.2c0.3-0.5,0.7-1,1-1.5
		c3.3-8.1,6.5-16.2,9.7-24.2c0.2-0.4,0.4-0.9,0.6-1.5c1.8,0.7,3.5,1.4,5.4,2.1c-3.3,8.4-6.6,16.7-10,25.1c3.7,0,7.1,0,10.6,0
		c-0.6,12.4-9.3,21.3-19.8,22.8c-4,0.6-8.1,0.3-12.1,0.4c-2.1,0-4.2,0-6.3,0c-3,8-7.8,11.7-14.7,11.6c-6.6-0.1-11.5-4.2-14-11.5
		c-2.9,0-5.8,0-8.9,0c0,7.6,0,15.3,0,23.1c-29.2,0-58.1,0-87.3,0c0-4.4-0.1-8.8,0-13.2c0-1.3-0.4-2-1.5-2.7
		c-10.2-6.2-15.7-15.3-15.9-27.2c-0.3-21.5,9-37.7,27.9-48.1c2.4-1.3,5-2.4,7.7-3.1c2.7-0.7,3.6-2.3,3.9-4.9c-4-1.3-7.1-3.8-9.1-7.6
		c-0.2-0.3-0.9-0.5-1.4-0.5c-7.1-0.4-11.7-5.2-11.7-12.4c0-4.5,0-9.1,0-13.6c-4.6-1.3-5.8-2.9-5.8-7.7c0-1,0-2.1,0-3.1
		c0-4.4,1.8-6.5,6.3-7c0.3-1.1,0.5-2.3,0.8-3.4c4.4-15.8,18.4-26,35-25.5C79.1,10.6,92.7,22,96.1,37.7c0.2,1.1,0.6,1.5,1.8,1.7
		c2.9,0.4,4.8,2.8,4.9,5.7c0,1.4,0,2.8,0,4.2c0,4.8-1.2,6.4-5.8,7.7c0,4.6,0,9.2,0,13.8c0,7-4.6,11.8-11.7,12.2
		c-0.5,0-1.2,0.3-1.4,0.7c-2,3.7-5,6.1-9,7.4c0.3,2.5,1.2,4.1,3.9,4.9c8.7,2.6,16,7.6,22.2,14.3c0.5,0.6,1,1.1,1.8,2
		c0-5.1,0-9.8,0-14.7c3.9,0,7.7,0,11.6,0c0-11.7,0-23.2,0-34.9c4,0,7.7,0,11.7,0c0-3.9,0-7.7,0-11.5c2,0,3.8,0,5.8,0
		c0,3.7,0,7.5,0,11.3c2,0,3.8,0,5.8,0c0-5.7,0-11.4,0-17.2c2,0,3.8,0,5.8,0c0,5.7,0,11.4,0,17.2c2,0,3.9,0,5.8,0c0-3.8,0-7.5,0-11.4
		c2,0,3.8,0,5.8,0c0,3.8,0,7.5,0,11.4c3.9,0,7.7,0,11.6,0C166.6,78,166.6,93.4,166.6,109.1z M47.4,101.1c-2.5,1.1-4.8,1.9-7,3
		c-16.9,9.3-25.1,23.7-24.9,42.9c0.1,8.4,3.7,15.2,10.3,20.5c8.2,6.6,17.9,5.4,27.4,5.3c0-2.2,0-4.2,0-6.3
		c-3.5-0.8-6.9-1.5-10.3-2.3c-8.2-2.1-13.7-7.3-15.2-15.6c-1-5.3-0.6-10.8-0.8-16.3c2.2,0,4.1,0,6,0c0,4,0,8,0,11.9
		c0.1,8.2,6.1,14.4,14.4,14.8C47.4,139.9,47.4,120.7,47.4,101.1z M95.5,143.9c-3.4-8.5-6.7-16.7-10-25.1c1.9-0.7,3.6-1.4,5.4-2.1
		c0.3,0.8,0.6,1.5,0.9,2.2c3.2,7.9,6.3,15.8,9.5,23.7c0.2,0.5,0.6,1,1,1.4c0.2-0.1,0.3-0.2,0.5-0.3c0-6.8,0-13.7,0-20.5
		c0-0.6-0.4-1.3-0.7-1.8c-3.6-6.1-8.4-11.2-14.5-15c-3.4-2.1-7-3.6-10.8-5.6c0,20.6,0,40.5,0,60.4c5.2,0.8,8.5,4,8.6,8.6
		c0.1,4.7-2.9,7.9-8.6,9.1c0,1.8,0,3.7,0,5.5c4.8,0,9.6,0,14.4,0c0-7.4-0.1-14.8,0-22.1c0-2-0.4-3.6-1.7-5.3
		c-2.9-3.8-4.2-8.3-4.6-13.2C88.5,143.9,91.9,143.9,95.5,143.9z M143.5,97.4c0,4,0,7.7,0,11.5c5.8,0,11.6,0,17.3,0
		c0-13.6,0-27,0-40.5c-13.6,0-27,0-40.4,0c0,9.7,0,19.3,0,29C128,97.4,135.6,97.4,143.5,97.4z M44.6,56.8c0,6.7,0,13.3,0,19.8
		c0,5.4,3.7,9.1,9.1,9.2c5.5,0,11,0,16.5,0c5.5,0,9.2-3.7,9.2-9.2c0-6.1,0-12.1,0-18.2c0-0.5-0.1-1-0.1-1.6
		C67.7,56.8,56.3,56.8,44.6,56.8z M137.5,103.3c-9.7,0-19.3,0-28.8,0c0,13.6,0,27,0,40.5c9.7,0,19.2,0,28.8,0
		C137.5,130.3,137.5,116.9,137.5,103.3z M92,149.8c2.7,6.1,6.9,10.3,13.2,11.1c5.8,0.8,11.8,0.4,17.8,0.5c0.4,0,0.9-0.6,1.2-1.1
		c1.8-3,4.4-4.6,7.9-4.7c3.8,0,7.5,0,11.3,0c3.5,0,6.2,1.6,7.8,4.7c0.5,0.9,1,1.1,2,1.1c4.5,0,9.1,0,13.6,0
		c5.6-0.1,10.2-2.3,13.7-6.6c1.1-1.4,1.9-3.1,3.1-4.9C152.7,149.8,122.5,149.8,92,149.8z M62,119.5c-2.7,3.4-5.3,6.5-7.8,9.8
		c-0.5,0.7-0.9,1.7-0.9,2.6c-0.1,6,0,12,0,18c0,3.6,0,7.1,0,10.6c1.3,0.8,2.3,0.6,3.1-0.5c2.7-3.5,6.3-4.9,10.7-4.4
		c1.1,0.1,2.3,0.2,3.5,0.3c0-0.1,0.1-0.3,0.1-0.5c0-8.1,0-16.1,0-24.2c0-0.4-0.1-0.9-0.3-1.2C67.7,126.6,64.9,123.1,62,119.5z
		 M143.5,143.8c7.8,0,15.4,0,23.1,0c0-9.7,0-19.3,0-28.8c-7.8,0-15.4,0-23.1,0C143.5,124.6,143.5,134.2,143.5,143.8z M27.3,45.2
		c0,2,0,3.8,0,5.6c23.3,0,46.4,0,69.5,0c0-1.9,0-3.7,0-5.6C73.6,45.2,50.5,45.2,27.3,45.2z M53.2,17.5C43.3,20,34.7,30.3,33.8,39.2
		c6.4,0,12.9,0,19.4,0C53.2,31.9,53.2,24.8,53.2,17.5z M70.8,39.2c6.6,0,13.1,0,19.5,0c-0.8-9.1-11.1-20.4-19.5-21.6
		C70.8,24.7,70.8,31.9,70.8,39.2z M108.4,184.5c0-5.9,0-11.6,0-16.9c-4-1.1-7.7-2.1-11.4-3.1c0,6.5,0,13.2,0,19.9
		C100.8,184.5,104.6,184.5,108.4,184.5z M62,109.6c2.2-3.3,4-6.4,6.2-9.2c2-2.4,2.3-4.7,0.9-7.4c-0.1-0.1-0.1-0.3-0.1-0.3
		c-0.5-0.4-1-1-1.5-1c-2.8-0.1-5.6,0-8.3,0c-3.7,0-3.8,0-4.9,3.6C54,96,53.7,97,54.1,97.6C56.6,101.5,59.2,105.4,62,109.6z
		 M59.1,173c5.8,0,11.3,0,16.9,0c2.1,0,3.4-1.1,3.4-2.9c0-1.8-1.3-2.9-3.4-2.9c-1.7,0-3.5,0-5.3,0c0-1,0-1.7,0-2.4
		c-0.1-2.3-1.1-3.2-3.3-3.4c-2.9-0.3-5.3,0.4-7,2.8c-0.5,0.7-1.2,1.4-1.3,2.2C59,168.5,59.1,170.6,59.1,173z M137.7,161.4
		c-1.8,0-3.6,0-5.4,0c-2.3,0-3.5,1.3-3.3,3.5c0.2,4.4,4.2,8.1,8.7,8.1c4.5,0,8.5-3.7,8.7-8.1c0.1-2.2-1-3.5-3.2-3.5
		C141.3,161.3,139.5,161.4,137.7,161.4z M59.2,16.2c0,7.8,0,15.4,0,23c2,0,3.8,0,5.6,0c0-7.7,0-15.3,0-23
		C62.9,16.2,61.1,16.2,59.2,16.2z M53.4,184.5c5.8,0,11.6,0,17.2,0c0-2,0-3.8,0-5.6c-5.8,0-11.5,0-17.2,0
		C53.4,180.8,53.4,182.6,53.4,184.5z M33.1,178c0,2,0,4.3,0,6.4c4.9,0,9.6,0,14.3,0c0-1.9,0-3.7,0-5.4
		C42.6,178.7,37.8,178.4,33.1,178z M85.3,77c3.5-0.2,5.9-2.8,5.7-6.1c-0.2-3.1-2.7-5.4-5.7-5.3C85.3,69.4,85.3,73.1,85.3,77z
		 M38.7,65.5c-3.6,0.2-5.9,2.8-5.7,6.1c0.2,3.1,2.7,5.4,5.7,5.3C38.7,73.1,38.7,69.4,38.7,65.5z M53.5,107.3c0,4.7,0,9,0,13.6
		c1.8-2.2,3.4-4.2,5-6.2C56.8,112.3,55.2,109.9,53.5,107.3z M65.6,114.7c1.6,2,3.2,4,5,6.2c0-4.7,0-9,0-13.7
		C68.8,109.9,67.3,112.2,65.6,114.7z M85.3,59.3c2,0.6,3.8,1.1,5.6,1.6c0-1.4,0-2.7,0-4.1c-1.9,0-3.8,0-5.6,0
		C85.3,57.8,85.3,58.6,85.3,59.3z M38.7,56.9c-1.9,0-3.8,0-5.7,0c0,1.5,0,2.8,0,4.1c1.9-0.5,3.8-1.1,5.7-1.6
		C38.7,58.5,38.7,57.7,38.7,56.9z"/>
	<path class="st1" d="M126.1,85.9c1.9,0,3.7,0,5.6,0c0,1.9,0,3.7,0,5.6c-1.8,0-3.6,0-5.6,0C126.1,89.7,126.1,87.8,126.1,85.9z"/>
	<path class="st1" d="M149.3,79.9c0-1.9,0-3.7,0-5.6c1.9,0,3.7,0,5.6,0c0,1.8,0,3.7,0,5.6C153.1,79.9,151.3,79.9,149.3,79.9z"/>
	<path class="st1" d="M143.3,74.3c0,1.9,0,3.6,0,5.6c-1.8,0-3.6,0-5.6,0c0-1.8,0-3.6,0-5.6C139.6,74.3,141.4,74.3,143.3,74.3z"/>
	<path class="st1" d="M126.1,79.9c0-1.9,0-3.7,0-5.6c1.8,0,3.7,0,5.6,0c0,1.8,0,3.7,0,5.6C129.9,79.9,128.1,79.9,126.1,79.9z"/>
	<path class="st1" d="M155,85.9c0,1.9,0,3.7,0,5.6c-1.9,0-3.7,0-5.7,0c0-1.8,0-3.6,0-5.6C151.1,85.9,153,85.9,155,85.9z"/>
	<path class="st1" d="M137.7,85.9c1.9,0,3.7,0,5.6,0c0,1.9,0,3.7,0,5.7c-1.9,0-3.7,0-5.6,0C137.7,89.7,137.7,87.8,137.7,85.9z"/>
	<path class="st1" d="M154.9,103.1c-1.9,0-3.7,0-5.6,0c0-1.9,0-3.7,0-5.6c1.8,0,3.6,0,5.6,0C154.9,99.3,154.9,101.2,154.9,103.1z"/>
	<path class="st2" d="M131.6,138c-1.9,0-3.6,0-5.6,0c0-9.6,0-19.2,0-28.9c1.8,0,3.6,0,5.6,0C131.6,118.7,131.6,128.2,131.6,138z"/>
	<path class="st2" d="M120,138c-1.9,0-3.7,0-5.6,0c0-9.6,0-19.2,0-28.8c1.8,0,3.6,0,5.6,0C120,118.7,120,128.3,120,138z"/>
	<path class="st0" d="M160.7,126.4c-3.8,0-7.5,0-11.3,0c0-1.9,0-3.7,0-5.7c3.7,0,7.5,0,11.3,0C160.7,122.7,160.7,124.5,160.7,126.4z
		"/>
	<path class="st0" d="M160.8,132.4c0,1.9,0,3.7,0,5.6c-3.8,0-7.6,0-11.5,0c0-1.8,0-3.6,0-5.6C153.1,132.4,156.9,132.4,160.8,132.4z"
		/>
</g>
</svg>
