<?xml version="1.0" encoding="utf-8"?>
<!-- Generator: Adobe Illustrator 24.0.0, SVG Export Plug-In . SVG Version: 6.00 Build 0)  -->
<svg version="1.1" id="Capa_1" xmlns="http://www.w3.org/2000/svg" xmlns:xlink="http://www.w3.org/1999/xlink" x="0px" y="0px"
	 viewBox="0 0 200 200" style="enable-background:new 0 0 200 200;" xml:space="preserve">
<style type="text/css">
	.st0{fill:#ACAEAF;}
	.st1{fill:#FE9900;}
	.st2{fill:#1C3247;}
</style>
<g>
	<path class="st0" d="M115.8,163.5c-2.1-1.1-4.2-2.1-6.3-3.2c-3.3,3.2-7.9,2.5-10.2-1.7c-4.6,0.8-6.7-0.3-8.3-4.5
		c-3.4,0.1-5.7-1.4-6.7-4.9c-3.1,0.2-5.4-1-6.5-4.1c-1.1-3,0.6-5.3,2.6-7.8c-0.7,0-1.1-0.1-1.4,0c-2.5,1.2-4.9,1-7.2-0.4
		c-1.1-0.6-2.2-1.3-3.2-1.9c-2-1.2-2.6-3.4-1.4-5.4c5-8.4,9.9-16.9,14.9-25.3c1.2-2.1,3.4-2.6,5.5-1.4c1.2,0.7,2.4,1.4,3.5,2.1
		c2.3,1.4,3.4,3.5,3.4,6.2c0,0.7,0.2,1.1,0.8,1.5c1.5,0.8,3.1,1,4.8,0.4c1.1-0.4,2.3-0.8,3.4-1.3c2.9-1.2,5.8-1,8.5,0.6
		c0.9,0.5,1.6,0.5,2.5,0.3c1.5-0.4,3-0.7,4.4-1.1c2.2-0.7,4.3-0.5,6.4,0.4c1.2,0.5,2.3,1,3.5,1.3c1,0.2,2.1,0.1,3.3,0.2
		c-0.6-2.9-0.4-5.4,1.7-7.2c1.8-1.5,3.9-2.7,6-3.7c1.7-0.8,3.5,0.1,4.6,2c4,6.7,7.9,13.3,11.8,20c1,1.6,1.9,3.2,2.9,4.9
		c1.3,2.3,0.8,4.4-1.5,5.8c-1.1,0.7-2.3,1.4-3.5,2c-1.5,0.8-3.1,1.3-4.8,0.8c-1.6-0.5-2.5,0.3-3.6,1.1c1.6,2.5,1.9,5,0.1,7.4
		c-1.7,2.3-4,2.8-6.8,2.1c-1,3.8-3.4,5.6-7.4,5.2c-0.4,2-1.3,3.7-3.2,4.7c-1.9,1-3.8,0.9-5.8-0.1c-0.5,2.8-2.3,4.4-4.9,5.2
		C117.2,163.5,116.5,163.5,115.8,163.5z M119.1,126.9c-1.1,2.7-2.9,4.4-5.6,5.1c-3.4,0.9-5.7-0.9-5.7-4.4c0-2.3-0.1-4.6,0-6.9
		c0.1-1.3,0.5-2.6,0.9-3.9c0.2-0.6,0.6-1.1,1-1.7c-1.4-0.7-2.7-0.8-4.1-0.3c-1.4,0.5-2.7,1-4.1,1.5c-2.1,0.8-4.1,0.9-6.2,0.2
		c-0.8-0.3-1.5-0.6-2.3-1c-3.7,6.3-7.4,12.5-11.1,18.8c0.1,0.1,0.1,0.2,0.2,0.3c0.5-0.1,1-0.1,1.4-0.2c2.5-1,5.2-0.3,6.9,1.8
		c0.2,0.2,0.4,0.4,0.6,0.7c3.5-3,8.8-1.8,10.2,3.3c2.2-0.2,4,0.5,5.4,2.2c1.4,1.7,1.6,3.7,1,5.8c2.1,0.6,3.6,1.7,4.4,3.6
		c0.8,1.9,0.5,3.8-0.4,5.6c1.4,0.8,2.8,1.7,4.1,2.4c0.4,0.2,1.1,0.3,1.6,0.2c1-0.2,1.6-0.8,1.8-1.8c0.2-1-0.2-1.9-1-2.5
		c-1-0.7-2.1-1.3-3.1-1.9c-1.2-0.7-1.6-1.7-1-2.6c0.5-1,1.6-1.1,2.9-0.4c0.2,0.1,0.4,0.2,0.6,0.4c2.3,1.4,4.6,2.7,6.9,4.1
		c1.4,0.8,2.8,0.5,3.5-0.7c0.7-1.2,0.3-2.6-1.1-3.4c-0.2-0.1-0.5-0.3-0.7-0.4c-2.5-1.5-5.1-3-7.6-4.5c-0.8-0.5-1.3-1.2-1-2
		c0.2-0.6,0.9-1.1,1.4-1.3c0.4-0.1,1.1,0.2,1.6,0.5c3.6,2.1,7.2,4.3,10.9,6.4c0.6,0.3,1.2,0.6,1.9,0.6c1.1,0,1.9-0.7,2.2-1.8
		c0.3-1-0.1-2.1-1.3-2.8c-3.6-2.2-7.2-4.3-10.8-6.4c-0.3-0.2-0.7-0.4-1-0.6c-0.8-0.6-1-1.4-0.5-2.3c0.5-0.9,1.3-1.1,2.2-0.7
		c0.3,0.1,0.6,0.3,0.9,0.5c4.9,2.9,9.8,5.8,14.7,8.7c1.4,0.8,2.8,0.5,3.5-0.7c0.7-1.2,0.4-2.6-1-3.4
		C134.7,136.1,127,131.5,119.1,126.9z M141.2,105.7c-1.3,0.7-2.4,1.4-3.5,2.1c-2.2,1.3-2.7,3.1-1.4,5.4c0.6,1,1.2,2,1.8,3.1
		c0.5,1,0.3,2-0.5,2.5c-0.9,0.5-1.9,0.2-2.5-0.7c-0.3-0.5-0.6-1.1-1-1.7c-2.9,1.2-5.7,0.7-8.4-0.5c-0.7-0.3-1.4-0.7-2.1-0.8
		c-0.9-0.2-1.8-0.4-2.6-0.3c-2.1,0.4-4.2,1-6.3,1.6c-1.6,0.5-2.9,1.5-3,3.2c-0.2,3-0.1,6-0.1,9c2.2,0.3,4-1.3,4.3-3.7
		c0.4-2.9,1.2-3.3,3.8-1.7c0.1,0,0.1,0.1,0.2,0.1c7.3,4.4,14.7,8.7,22,13c0.3,0.2,0.9,0.4,1.2,0.2c0.7-0.3,1.3-0.8,2-1.3
		c-0.8-1.4-1.6-2.7-2.4-4c-1.1-1.9-2.3-3.8-3.4-5.8c-0.3-0.6-0.3-1.5,0-2c0.2-0.4,1.1-0.7,1.7-0.6c0.5,0.1,1.1,0.6,1.4,1.1
		c1.8,2.9,3.5,5.9,5.3,8.8c1,1.6,2.5,2.4,4.1,1.7c1.6-0.7,3.1-1.7,4.7-2.6C151.4,123,146.3,114.4,141.2,105.7z M85.4,105.7
		c-5.2,8.7-10.3,17.3-15.4,26c1.3,0.8,2.4,1.5,3.6,2.2c2.1,1.2,3.9,0.8,5.2-1.4c1.5-2.4,2.9-4.9,4.3-7.3c2.4-4.1,4.8-8.1,7.2-12.2
		c1.1-1.9,0.8-3.7-0.8-4.8C88.3,107.3,86.9,106.6,85.4,105.7z M94.8,138.7c-0.3,0.1-1,0.3-1.3,0.8c-1.8,2.4-3.6,4.9-5.4,7.5
		c-0.7,1-0.3,2.4,0.6,3.1c1,0.8,2.4,0.7,3.2-0.3c1.9-2.4,3.7-4.9,5.3-7.5C98.3,140.7,97,138.7,94.8,138.7z M101.6,143.6
		c-0.2,0.1-0.9,0.2-1.2,0.7c-1.9,2.5-3.7,5-5.5,7.6c-0.6,0.9-0.2,2.3,0.7,2.9c0.9,0.7,2.4,0.7,3.1-0.2c1.9-2.5,3.8-5,5.5-7.7
		C105.1,145.5,103.8,143.6,101.6,143.6z M83.9,145.6c0.2-0.1,0.9-0.3,1.3-0.7c1-1.2,2-2.5,2.8-3.9c0.6-1,0.2-2.3-0.8-3
		c-1-0.7-2.3-0.6-3.1,0.4c-1,1.2-1.9,2.5-2.7,3.8C80.4,143.7,81.7,145.6,83.9,145.6z M102.6,156.1c0,1.3,0.6,2,1.5,2.4
		c1,0.4,2,0.2,2.7-0.7c0.7-0.8,1.4-1.7,1.9-2.7c0.7-1.1,0.3-2.4-0.7-3.1c-1-0.7-2.4-0.6-3.2,0.4c-0.7,0.8-1.3,1.8-1.9,2.7
		C102.7,155.5,102.6,155.9,102.6,156.1z"/>
	<path class="st0" d="M116.5,42.5c2.3,0.6,3.9,2.2,5.5,3.8c4.9,5,9.8,9.9,14.8,14.8c1.8,1.8,2.6,3.8,2.6,6.3c0,9.6,0,19.2,0,28.8
		c0,0.4,0,0.8-0.1,1.2c-0.2,0.9-0.8,1.4-1.8,1.4c-0.9,0-1.5-0.6-1.7-1.5c-0.1-0.4,0-0.8,0-1.2c0-9.4,0-18.8,0-28.2
		c0-0.5,0-0.9,0-1.5c-0.5,0-0.9-0.1-1.3-0.1c-3.1,0-6.2,0-9.3,0c-5.7,0-9.5-3.9-9.6-9.6c0-3.5,0-7,0-10.7c-0.5,0-0.9,0-1.3,0
		c-17.3,0-34.6,0-51.9,0c-3.9,0-6.1,2.2-6.1,6.1c0,31,0,62,0,93c0,3.8,2.2,6,6,6c5.8,0,11.6,0,17.3,0c0.6,0,1.2,0.1,1.7,0.3
		c1.1,0.7,1,2.4-0.3,3c-0.4,0.2-0.8,0.2-1.3,0.2c-5.9,0-11.9,0-17.8,0c-4.6,0-8.1-3-9-7.3c-0.2-0.8-0.2-1.7-0.2-2.6
		c0-30.8,0-61.6,0-92.4c0-5.3,2.3-8.3,7.4-9.8c0.1,0,0.1-0.1,0.2-0.1C79.1,42.5,97.8,42.5,116.5,42.5z M132.8,62.7
		c-4.5-4.5-9.1-9.1-13.5-13.6c0,2.3,0,4.8,0,7.3c0,0.4,0,0.9,0.1,1.3c0.3,2.9,2.5,4.9,5.5,4.9c2.2,0.1,4.3,0,6.5,0
		C131.8,62.7,132.4,62.7,132.8,62.7z"/>
	<path class="st1" d="M96,89.5c-9.3,0-18.6,0-28,0c-0.4,0-0.7,0-1.1,0c-1-0.1-1.5-0.7-1.6-1.6c-0.1-0.9,0.4-1.6,1.3-1.8
		C67.1,86,67.6,86,68,86c18.7,0,37.4,0,56.1,0c0.4,0,0.8,0,1.2,0.1c1,0.2,1.5,0.9,1.4,1.9c-0.1,0.9-0.7,1.5-1.6,1.6
		c-0.4,0-0.7,0-1.1,0C114.7,89.5,105.3,89.5,96,89.5z"/>
	<path class="st1" d="M96.1,78.6c-9.3,0-18.6,0-28,0c-0.4,0-0.7,0-1.1,0c-1-0.1-1.7-0.8-1.7-1.8c0-1,0.7-1.7,1.8-1.8
		c0.3,0,0.6,0,0.9,0c18.6,0,37.3,0,55.9,0c1.9,0,2.7,0.6,2.7,1.8c0,1.2-0.9,1.7-2.7,1.7C114.7,78.6,105.4,78.6,96.1,78.6z"/>
	<path class="st2" d="M81.6,62.7c4.5,0,9,0,13.4,0c0.4,0,0.9,0,1.3,0.1c1,0.1,1.5,0.7,1.5,1.7c0,0.9-0.5,1.6-1.4,1.8
		c-0.3,0.1-0.5,0.1-0.8,0.1c-9.3,0-18.6,0-27.9,0c-0.4,0-0.9,0-1.1-0.2c-0.5-0.5-1.1-1.2-1.1-1.7c0-0.6,0.8-1.2,1.3-1.5
		c0.3-0.2,0.9-0.1,1.4-0.1C72.6,62.7,77.1,62.7,81.6,62.7z"/>
</g>
</svg>
