<?xml version="1.0" encoding="utf-8"?>
<!-- Generator: Adobe Illustrator 24.0.0, SVG Export Plug-In . SVG Version: 6.00 Build 0)  -->
<svg version="1.1" id="Capa_1" xmlns="http://www.w3.org/2000/svg" xmlns:xlink="http://www.w3.org/1999/xlink" x="0px" y="0px"
	 viewBox="0 0 198.4 198.4" style="enable-background:new 0 0 198.4 198.4;" xml:space="preserve">
<style type="text/css">
	.st0{fill:#ACAEAF;}
	.st1{fill:#FE9900;}
</style>
<g>
	<path class="st0" d="M42.1,185.1c-3.4-1.3-4.6-3.9-4.6-7.5c0.2-6.7,0-13.5,0-20.2c0-5.4,1.9-7.3,7.3-7.4c0.3,0,0.5,0,0.9-0.1
		c0-2.8,0-5.4,0-8.3c-0.7,0-1.3,0-1.9,0c-4,0-6.3-2.3-6.4-6.4c0-5.2,0-10.5,0-15.7c0-2.3,0-4.6,0-6.9c0.1-3.9,2.5-6.2,6.4-6.2
		c36.5,0,73,0,109.4,0c3.9,0,6.3,2.3,6.3,6.2c0.1,7.6,0.1,15.2,0,22.8c0,3.9-2.4,6.2-6.4,6.2c-0.6,0-1.2,0-1.9,0
		c-0.1,0.5-0.1,0.8-0.1,1.1c0,2.3,0,4.7,0,7.2c0.7,0,1.3,0,1.9,0c4.1,0,6.4,2.3,6.5,6.4c0,6.1,0,12.2,0,18.2c0,1-0.1,2,0,3
		c0.3,3.6-1.1,6.2-4.5,7.5C117.5,185.1,79.8,185.1,42.1,185.1z M154.7,126.6c-0.9,0-1.5,0-2.2,0c-13.3,0-26.7,0-40,0
		c-0.6,0-1.1,0.1-1.7-0.1c-1.3-0.3-2-1.2-2-2.5c0-1.3,0.8-2.1,2-2.3c0.5-0.1,1.1-0.1,1.7-0.1c13.3,0,26.7,0,40,0c0.7,0,1.3,0,2.1,0
		c0-2.8-0.1-5.4,0-8c0.1-1.6-0.5-2.1-2.1-2.1c-36,0-71.9,0-107.9,0c-1.8,0-2.2,0.6-2.1,2.2c0.1,6.8,0,13.6,0,20.4
		c0,2.5,0,2.5,2.5,2.5c35.7,0,71.4,0,107.1,0c0.4,0,0.8,0,1.2,0c1,0.1,1.4-0.5,1.4-1.4C154.7,132.4,154.7,129.6,154.7,126.6z
		 M154.7,170.1c-0.8,0-1.5,0-2.1,0c-13.3,0-26.5,0-39.8,0c-0.6,0-1.1,0.1-1.7,0c-1.4-0.2-2.2-1.1-2.2-2.5c0-1.4,0.8-2.2,2.1-2.4
		c0.5-0.1,1.1,0,1.7,0c13.3,0,26.7,0,40,0c0.6,0,1.3,0,2,0c0-2.8-0.1-5.4,0-8c0.1-1.6-0.4-2.1-2.1-2.1c-36,0-72.1,0-108.1,0
		c-1.6,0-2,0.5-2,2c0.1,6.9,0,13.8,0,20.7c0,2.4,0,2.4,2.4,2.4c35.7,0,71.5,0,107.2,0c0.4,0,0.9,0.1,1.2,0c0.5-0.3,1.2-0.8,1.2-1.2
		C154.7,176,154.7,173.1,154.7,170.1z M51,149.9c31.9,0,63.5,0,95.2,0c0-2.8,0-5.4,0-8.1c-31.8,0-63.5,0-95.2,0
		C51,144.5,51,147.1,51,149.9z"/>
	<path class="st1" d="M62.6,51.6c0.1-22.8,17.9-39.3,38.6-37.7c15.8,1.2,29,12.5,32.5,27.8c3.5,15.6-3.4,31.4-17.3,39.4
		c-0.9,0.5-1.7,1.3-2.3,2.1c-2.6,3.8-5.2,7.7-7.8,11.5c-4.1,6-11.3,6-15.4,0c-2.6-3.8-5.1-7.7-7.8-11.5c-0.6-0.8-1.4-1.6-2.3-2.1
		C69,74,63.1,63.4,62.6,51.6z M67.7,49.9C68,67.5,81.9,81,99.4,80.7c16.8-0.2,30.4-14.4,30.1-31.4c-0.2-17.2-14.3-30.8-31.7-30.5
		C81.2,19.1,67.4,33.3,67.7,49.9z M107,84.8c-5.7,1.3-11,1.2-16.6,0.1c2,2.9,3.6,5.5,5.4,7.9c1.4,1.9,4.1,2,5.5,0.2
		C103.2,90.4,104.9,87.8,107,84.8z"/>
	<path class="st0" d="M57.9,114.9c1.2,0,2.3-0.1,3.5,0c2.9,0.2,5.3,2.3,5.4,5.1c0.2,2.7,0.2,5.4,0,8c-0.2,3-2.6,5.1-5.6,5.2
		c-2.3,0.1-4.7,0.1-7,0c-3.1-0.1-5.5-2.3-5.6-5.3c-0.2-2.6-0.2-5.1,0-7.7c0.2-3.1,2.6-5.3,5.7-5.4C55.6,114.8,56.8,114.9,57.9,114.9
		C57.9,114.9,57.9,114.9,57.9,114.9z M53.6,123.9c0,4.3,0,4.4,4.3,4.3c4.6,0,4.1,0.8,4.1-4c0-4.3,0-4.4-4.3-4.3
		C53.1,119.9,53.7,119.1,53.6,123.9z"/>
	<path class="st0" d="M84.5,133.3c-1.1,0-2.2,0-3.3,0c-3.1-0.1-5.6-2.3-5.7-5.4c-0.1-2.6-0.1-5.1,0-7.7c0.2-3,2.6-5.2,5.6-5.3
		c2.3-0.1,4.7-0.1,7,0c3,0.1,5.4,2.3,5.5,5.2c0.2,2.6,0.2,5.2,0,7.8c-0.2,3-2.6,5.2-5.6,5.3C86.9,133.3,85.7,133.3,84.5,133.3z
		 M84.6,128.3c4.1,0,4.1,0,4.1-4.1c0-4.2,0-4.2-4.2-4.2c-4.1,0-4.1,0-4.1,4.1C80.4,128.3,80.4,128.3,84.6,128.3z"/>
	<path class="st0" d="M57.7,176.8c-1.2,0-2.3,0-3.5,0c-3-0.1-5.3-2.3-5.5-5.3c-0.2-2.6-0.2-5.2,0-7.8c0.2-3,2.6-5.2,5.7-5.3
		c2.3-0.1,4.6-0.1,6.9,0c3.1,0.1,5.5,2.3,5.7,5.4c0.1,2.5,0.1,5,0,7.5c-0.2,3.2-2.6,5.4-5.9,5.4C59.9,176.8,58.8,176.8,57.7,176.8
		C57.7,176.8,57.7,176.8,57.7,176.8z M57.7,171.8c4.2,0,4.2,0,4.2-4.2c0-4.1,0-4.1-4.1-4.1c-4.2,0-4.2,0-4.2,4.2
		C53.6,171.8,53.6,171.8,57.7,171.8z"/>
	<path class="st0" d="M84.6,176.8c-1.1,0-2.2,0-3.3,0c-3.2-0.1-5.6-2.3-5.8-5.4c-0.2-2.6-0.2-5.1,0-7.7c0.2-3,2.6-5.2,5.6-5.3
		c2.3-0.1,4.7-0.1,7,0c3,0.1,5.4,2.3,5.6,5.3c0.2,2.6,0.2,5.1,0,7.7c-0.2,3-2.6,5.2-5.6,5.3C86.9,176.8,85.7,176.8,84.6,176.8z
		 M84.5,163.4c-4.1,0-4.1,0-4.1,4.2c0,4.2,0,4.2,4.2,4.2c4.1,0,4.1,0,4.1-4.2C88.7,163.4,88.7,163.4,84.5,163.4z"/>
	<path class="st1" d="M102.1,53c0,3.4,0,6.5,0,9.7c0,0.7,0,1.3-0.1,2c-0.2,1.3-1,2.1-2.4,2.1c-1.4,0-2.3-0.8-2.5-2.2
		c-0.1-0.4-0.1-0.9-0.1-1.3c0-9,0-17.9,0-26.9c0-3,0.7-3.6,3.7-3.6c2,0,4,0,6,0c5.8,0.2,10.1,4.5,10.1,10.1c0,5.7-4.5,10-10.3,10.1
		C105.2,53,103.8,53,102.1,53z M102.3,37.9c0,3.4,0,6.7,0,10c1.8,0,3.4,0.1,5,0c2.5-0.2,4.4-2.3,4.6-4.8c0.1-2.5-1.6-4.9-4-5.2
		C106,37.7,104.2,37.9,102.3,37.9z"/>
	<path class="st1" d="M92.1,49.8c0,4.5,0,8.9,0,13.4c0,0.6,0,1.2-0.1,1.8c-0.3,1.2-1.2,1.9-2.5,1.8c-1.2,0-2-0.7-2.3-1.8
		c-0.1-0.6-0.1-1.2-0.1-1.8c0-8.9,0-17.8,0-26.7c0-0.5,0-1,0.1-1.5c0.2-1.3,1-2.1,2.4-2.1c1.4,0,2.3,0.7,2.5,2.1
		c0.1,0.9,0.1,1.9,0.1,2.8C92.1,41.8,92.1,45.8,92.1,49.8z"/>
</g>
</svg>
