<?xml version="1.0" encoding="utf-8"?>
<!-- Generator: Adobe Illustrator 24.0.0, SVG Export Plug-In . SVG Version: 6.00 Build 0)  -->
<svg version="1.1" id="Capa_1" xmlns="http://www.w3.org/2000/svg" xmlns:xlink="http://www.w3.org/1999/xlink" x="0px" y="0px"
	 viewBox="0 0 200 200" style="enable-background:new 0 0 200 200;" xml:space="preserve">
<style type="text/css">
	.st0{fill:#ACAEAF;}
	.st1{fill:#FE9900;}
	.st2{fill:#1C3247;}
</style>
<g>
	<path class="st0" d="M11,86.6c0.9-1.1,1.8-2.1,3.6-1.4c1.6,0.7,1.8,2,1.8,3.4c0,16,0,32,0,48.2c0,0.7,0,1.4,0,2.1
		c5.2,0,10.1,0,15.5,0c0-0.5,0-1.2,0-1.8c0-4.8,0-9.6,0-14.4c0-4.3,2.3-6.6,6.8-6.8c15.5,0,30.8,0,46.3,0c4.4,0,6.8,2.3,6.8,6.8
		c0,4.6,0,9.4,0,14.1c0,0.7,0,1.2,0,2c30.8,0,61.4,0,92.2,0c0-28.5,0-57,0-85.4c-30.6,0-61.2,0-92.2,0c0,1.4,0,2.8,0,4.3
		c0,0.7,0,1.6-0.2,2.3c-0.2,1.2-1.1,2-2.3,2c-1.2,0-2.3-0.5-2.7-1.8c-0.2-0.7-0.2-1.4-0.2-2.3c0-8.5,0-17.1,0-25.8
		c0-2.1,0-2.3-2.3-2.3c-15,0-29.7,0-44.7,0c-2.3,0-2.3,0-2.3,2.1c0,14.2,0,28.5,0,42.7c0,2.1,0,2.1,2.3,2.1c10.7,0,21.4,0,32,0
		c1.8,0,3.2,0.5,4.4,1.8c2.7,2.8,5.5,5.7,8.4,8.4c0.4,0.4,1.1,0.5,1.6,0.9c0.2-0.5,0.5-1.1,0.5-1.8c0-4.6,0-9.4,0-14.1
		c0-0.7,0-1.4,0.2-2.1c0.2-1.2,1.2-2,2.5-2c1.4,0,2.3,0.7,2.5,2.1c0,0.4,0,0.5,0,0.9c0,5.3,0.2,10.5,0,15.8
		c-0.2,4.4-3.9,7.3-7.8,6.1c-1.1-0.4-2.1-1.2-3-2c-2.5-2.3-5-4.8-7.3-7.3c-1.1-1.1-2-1.4-3.6-1.4c-10.1,0-20.5,0-30.6,0
		c-1.2,0-2.5-0.2-3.6-0.5c-2.7-1.1-3.7-3.2-3.7-5.9c0-6.8,0-13.5,0-20.3c0-0.7,0-1.2,0-2.1c-5.2,0-10.3,0-15.7,0c0,1.8,0,3.4,0,5
		c0,5.5,0,11.2,0,16.7c0,1.4-0.2,2.8-1.8,3.4s-2.7-0.4-3.4-1.8c0-11.7,0-23.7,0-35.4c1.8-5,5.5-6.6,10.5-6.2c2.3,0.2,4.6,0,6.9,0
		c1.1,0,2.1,0,3.4,0c0-1.6,0-2.8,0-4.1c0-3.9,2.5-6.4,6.4-6.4c15.5,0,31,0,46.6,0c4.1,0,6.4,2.5,6.6,6.4c0,1.2,0,2.5,0,3.9
		c0.9,0,1.6,0,2.3,0c28.7,0,57.5,0,86.2,0c2.7,0,5,0.5,6.8,2.5c0.9,1.1,1.6,2.5,2.3,3.7c0,38.4,0,76.7,0,115.2c-1.4,3.7-4.3,5-8,4.8
		c-9.1-0.2-18.2,0-27.1,0c-0.7,0-1.4,0-2.1-0.2c-1.4-0.4-2.1-1.2-2-2.7c0.2-1.4,0.9-2.3,2.3-2.3c0.9,0,1.8,0,2.7,0
		c8.9,0,18,0,26.9,0c0.7,0,2-0.5,2-1.1c0.2-3.6,0.2-7.1,0.2-10.7c-55.9,0-111.6,0-167.5,0c0,3,0,5.9,0,8.7c0,3,0,3,3,3
		c40,0,79.9,0,120,0c0.7,0,1.6-0.2,2.1,0.2c0.9,0.5,1.8,1.2,2.1,2.1c0.4,1.2-0.4,2.3-1.6,2.7c-0.7,0.2-1.4,0.2-2.1,0.2
		c-6.1,0-11.9,0-18,0c-0.5,0-1.2,0-2,0c0,3.7,0,7.3,0,10.9c2,0,3.7,0,5.7,0c3,0,5.9,0,8.9,0.2c2.7,0.2,4.4,2.7,4.6,5.3
		c0.2,2.5-1.6,5-3.9,5.7c-1.1,0.4-2.1,0.4-3.2,0.4c-21,0-42.2,0-63.2,0c-0.7,0-1.4,0-2.1,0c-2.8-0.4-5.2-2.7-5.2-5.5s2-5.3,4.8-5.7
		c1.4-0.2,2.8-0.2,4.1-0.2c3.4,0,6.8,0,10.1,0c0-3.7,0-7.3,0-10.9c-0.9,0-1.6,0-2.1,0c-19.6,0-39.3,0-58.9,0c-3.9,0-6.6-1.1-8-4.8
		C11,133.2,11,109.9,11,86.6z M37,139.1c16.6,0,32.8,0,49.1,0c0-0.7,0-1.2,0-2c0-4.4,0-8.9,0-13.3c0-2.3,0-2.3-2.5-2.3
		c-14.8,0-29.5,0-44.3,0c-0.4,0-0.9-0.2-1.2,0c-0.5,0.4-1.2,0.9-1.2,1.2C37,128.1,37,133.4,37,139.1z M183.8,48c0-1.2,0-2.3,0-3.4
		c0-3.4-0.7-4.3-4.1-4.3c-28.7,0-57.5,0-86.2,0c-0.5,0-1.1,0-1.8,0c0,2.7,0,5,0,7.7C122.2,48,152.9,48,183.8,48z M85.8,161.3
		c0,3.6,0,7.1,0,10.9c9.6,0,19,0,28.7,0c0-3.6,0-7.1,0-10.9C104.8,161.3,95.2,161.3,85.8,161.3z M31.6,40.5c-4.3,0-8.5,0-12.6,0
		c-1.4,0-2.7,0.9-2.7,2.3c-0.2,1.8,0,3.4,0,5.2c5.2,0,10.3,0,15.5,0C31.6,45.5,31.6,43.2,31.6,40.5z M66.4,178.1
		c1.8,0.7,66.2,0.7,67.3,0C132.4,177.2,67.8,177.2,66.4,178.1z"/>
	<path class="st0" d="M138.6,73.2c7.5,0,15,0,22.4,0c5.2,0,7.3,2.3,7.3,7.5c0,9.8,0,19.8,0,29.5c0,5.3-2.1,7.5-7.5,7.5
		c-10.3,0-20.5,0-30.8,0c-1.1,0-2,0.4-2.7,1.1c-2.5,2.7-5.2,5.2-7.7,7.8c-2,2-4.3,3-7.1,1.8c-2.7-1.1-3.9-3.4-3.9-6.2
		c0-14.1,0-28.1,0-42.2c0-4.3,2.5-6.6,6.9-6.8C123.5,73.2,131.1,73.2,138.6,73.2z M138.6,78.4c-7.5,0-15.1,0-22.6,0
		c-1.4,0-2.1,0.4-2.1,2c0,13.7,0,27.6,0,41.3c0,0.5,0.4,1.1,0.5,1.8c0.5-0.2,1.2-0.4,1.6-0.9c2.8-2.8,5.7-5.7,8.5-8.5
		c1.1-1.2,2.3-1.6,3.9-1.6c10.9,0,21.5,0,32.4,0c1.6,0,2.3-0.4,2.1-2.1c0-10,0-19.8,0-29.7c0-1.8-0.7-2.1-2.3-2.1
		C153.6,78.4,146.1,78.4,138.6,78.4z"/>
	<path class="st1" d="M61.2,42.8c5,0,10,0,15,0c2.3,0,3.4,0.9,3.4,2.5S78.5,48,76.1,48c-10,0-19.9,0-30.1,0c-2.1,0-3.4-1.1-3.4-2.7
		s1.2-2.5,3.4-2.5c0.4,0,0.7,0,1.1,0C51.9,42.8,56.6,42.8,61.2,42.8z"/>
	<path class="st0" d="M61.4,50.3c4.8,0,9.4,0,14.2,0c0.7,0,1.6-0.2,2,0.2c0.7,0.5,1.8,1.6,1.8,2.3c0,0.9-0.9,1.8-1.8,2.5
		c-0.2,0.4-1.2,0.4-2,0.4c-9.6,0-19,0-28.7,0c-2.7,0-3.9-0.9-3.9-2.5c0-1.8,1.2-2.7,4.1-2.7C51.9,50.3,56.6,50.3,61.4,50.3z"/>
	<path class="st1" d="M65.5,70.7c-3.6,0-7.3,0-10.9,0c-2.1,0-3.2-0.9-3.2-2.5s1.1-2.7,3.2-2.7c7.3,0,14.6,0,22.1,0
		c2,0,3.2,1.1,3.2,2.7s-1.1,2.5-3.2,2.5C72.8,70.7,69.2,70.7,65.5,70.7z"/>
	<path class="st0" d="M65.3,40.5c-3.6,0-7.1,0-10.7,0c-2.1,0-3.2-0.9-3.4-2.5c0-1.8,1.1-2.7,3.2-2.7c7.3,0,14.6,0,21.9,0
		c2,0,3.2,1.1,3.2,2.7s-1.2,2.5-3.2,2.7C72.8,40.5,69,40.5,65.3,40.5z"/>
	<path class="st1" d="M57.1,58.1c3.6,0,7.3,0,10.9,0c2.1,0,3.2,0.9,3.2,2.5s-1.1,2.7-3.2,2.7c-7.3,0-14.6,0-22.1,0
		c-2,0-3.2-1.1-3-2.7c0-1.6,1.1-2.5,3-2.5C49.6,58.1,53.4,58.1,57.1,58.1z"/>
	<path class="st0" d="M44.6,112.8c-3.4,0-6.6,0-10,0c-2,0-3.2-1.1-3.2-2.7s1.2-2.7,3.2-2.7c6.6,0,13.3,0,19.9,0c2,0,3.2,1.1,3.2,2.7
		s-1.2,2.5-3.2,2.5C51.4,112.8,48,112.8,44.6,112.8z"/>
	<path class="st0" d="M162.1,69.7c-1.2,0-2.3,0-3.6,0c-1.6,0-2.7-1.1-2.7-2.5c0-1.4,0.9-2.7,2.3-2.7c2.7-0.2,5.2-0.2,7.8,0
		c1.4,0,2.3,1.1,2.3,2.5s-1.1,2.5-2.5,2.5C164.6,69.7,163.4,69.7,162.1,69.7L162.1,69.7z"/>
	<path class="st0" d="M148.2,67c0-1.6,1.1-2.7,2.7-2.7c1.4,0,2.7,1.2,2.7,2.7s-1.2,2.5-2.5,2.7C149.5,69.7,148.2,68.4,148.2,67z"/>
	<path class="st0" d="M63.2,107.4c1.4,0,2.5,1.2,2.5,2.7s-1.2,2.7-2.7,2.7s-2.5-1.2-2.5-2.7C60.5,108.7,61.6,107.4,63.2,107.4z"/>
	<path class="st1" d="M79.7,60.8c0,1.4-1.2,2.7-2.7,2.7s-2.7-1.2-2.7-2.7c0-1.4,1.2-2.5,2.7-2.5C78.5,58.1,79.7,59.4,79.7,60.8z"/>
	<path class="st0" d="M48.2,38c0,1.4-1.2,2.5-2.7,2.5S43,39.4,43,38s1.1-2.7,2.5-2.7C47,35.3,48.2,36.6,48.2,38z"/>
	<path class="st1" d="M45.5,65.8c1.4,0,2.7,1.2,2.7,2.7c0,1.4-1.2,2.5-2.7,2.5S43,69.9,43,68.4C42.9,66.8,43.9,65.8,45.5,65.8z"/>
	<path class="st0" d="M65.5,129L65.5,129c-3.9,0-7.8,0-11.6,0c-1.4,0-2.3,0.9-2.5,2.3c-0.2,1.4,0.7,2.5,2.3,2.7
		c0.4,0,0.7,0.2,1.1,0.2c7.3,0,14.4,0,21.7,0c2.1,0,3.4-1.1,3.4-2.7s-1.2-2.5-3.4-2.5C72.6,129,69,129,65.5,129z M45.5,129.1
		c-1.4,0-2.7,1.1-2.7,2.5s1.1,2.5,2.5,2.7c1.4,0,2.7-1.1,2.8-2.5C48.2,130.4,47.1,129.1,45.5,129.1z"/>
	<path class="st0" d="M44.8,16.6c3.4,0,6.6,0,10,0c2,0,3,0.9,3.2,2.5c0,1.6-1.1,2.7-3,2.7c-6.8,0-13.3,0-20.1,0
		c-2,0-3.2-1.1-3.2-2.7c0-1.6,1.2-2.5,3.2-2.5C38.2,16.6,41.4,16.6,44.8,16.6z"/>
	<path class="st0" d="M63,21.8c-1.4,0-2.7-1.2-2.7-2.7c0-1.4,1.2-2.5,2.5-2.7c1.4,0,2.7,1.1,2.7,2.7C65.6,20.6,64.6,21.8,63,21.8z"
		/>
	<path class="st0" d="M65.5,129c3.6,0,7.1,0,10.7,0c2.3,0,3.4,0.9,3.4,2.5s-1.2,2.7-3.4,2.7c-7.3,0-14.4,0-21.7,0
		c-0.4,0-0.7,0-1.1-0.2c-1.6-0.4-2.5-1.2-2.3-2.7c0.2-1.4,1.1-2.3,2.5-2.3C57.6,129,61.6,129,65.5,129L65.5,129z"/>
	<path class="st0" d="M45.5,129.1c1.4,0,2.7,1.2,2.7,2.7c0,1.4-1.4,2.5-2.8,2.5c-1.4,0-2.5-1.2-2.5-2.7S44.1,129,45.5,129.1z"/>
	<path class="st0" d="M142.9,100.1c3.6,0,7.3,0,10.9,0c2.1,0,3.2,0.9,3.2,2.5s-1.1,2.7-3.2,2.7c-7.3,0-14.6,0-22.1,0
		c-2,0-3.2-1.1-3.2-2.7s1.1-2.5,3.2-2.5C135.6,100.1,139.3,100.1,142.9,100.1z"/>
	<path class="st0" d="M142.9,89.6c-3.6,0-7.1,0-10.7,0c-1.2,0-2.5-0.2-3-1.4c-0.9-1.8,0.4-3.6,2.5-3.7c3.4,0,6.9,0,10.3,0
		c3.9,0,8,0,11.9,0c2.1,0,3.2,0.9,3.2,2.5c0,1.6-1.1,2.7-3.4,2.7C150.2,89.8,146.5,89.6,142.9,89.6z"/>
	<path class="st2" d="M134.5,97.4c-3.6,0-7.3,0-10.9,0c-2.1,0-3.2-0.9-3.2-2.5c0-1.6,1.2-2.7,3.2-2.7c7.3,0,14.8,0,22.1,0
		c2,0,3.2,1.1,3.2,2.7c0,1.6-1.2,2.5-3.2,2.5C141.8,97.4,138.1,97.4,134.5,97.4z"/>
	<path class="st0" d="M125.6,102.8c0,1.4-1.2,2.7-2.7,2.5c-1.4,0-2.7-1.2-2.7-2.7c0-1.2,1.2-2.5,2.7-2.5
		C124.4,100.3,125.6,101.5,125.6,102.8z"/>
	<path class="st0" d="M125.6,87.1c0,1.4-1.4,2.7-2.8,2.5c-1.4,0-2.5-1.2-2.5-2.7c0-1.4,1.2-2.7,2.7-2.7
		C124.4,84.6,125.6,85.7,125.6,87.1z"/>
	<path class="st2" d="M157.1,95c0,1.4-1.1,2.7-2.7,2.7c-1.4,0-2.7-1.1-2.7-2.7c0-1.4,1.1-2.5,2.5-2.5
		C155.9,92.5,157.1,93.5,157.1,95z"/>
</g>
</svg>
