<?xml version="1.0" encoding="utf-8"?>
<!-- Generator: Adobe Illustrator 24.0.0, SVG Export Plug-In . SVG Version: 6.00 Build 0)  -->
<svg version="1.1" id="Capa_1" xmlns="http://www.w3.org/2000/svg" xmlns:xlink="http://www.w3.org/1999/xlink" x="0px" y="0px"
	 viewBox="0 0 200 200" style="enable-background:new 0 0 200 200;" xml:space="preserve">
<style type="text/css">
	.st0{fill:#ACAEAF;}
	.st1{fill:#FE9900;}
	.st2{fill:#1C3247;}
</style>
<g>
	<path class="st0" d="M22,23c0.8-2,2.3-2.6,4.4-2.6c40.2,0,80.4,0,120.6,0c3.3,0,4.3,1,4.3,4.3c0,3.9,0,7.7,0,11.6
		c0,2.3-1.3,3.7-3.2,3.7c-1.9,0-3.3-1.5-3.3-3.7c0-3,0-6.1,0-9.3c-38.7,0-77.4,0-116.1,0c0,51.2,0,102.5,0,153.8
		c25.7,0,51.5,0,77.4,0c0.4-3.3,0.7-6.7,1.1-10.1c0.4-4.1,0.8-8.2,1.4-12.3c0.1-0.9,0.6-1.7,1-2.5c11.5-19.9,22.9-39.7,34.4-59.6
		c0.5-0.9,0.8-2,0.8-3c0.1-8.6,0-17.2,0-25.8c0-0.5,0-1.1,0-1.6c0.2-1.8,1.6-3,3.3-3c1.8,0,3.2,1.4,3.2,3.3c0,5,0,10,0,15
		c0,0.6,0,1.2,0.3,1.9c0.3-0.5,0.6-0.9,0.9-1.4c3.7-6.4,7.3-13,11.2-19.3c5.2-8.6,17.4-9,23-0.7c3.2,4.8,3.3,9.9,0.4,14.9
		c-4.9,8.5-9.8,17-14.8,25.6c-6.7,11.6-13.4,23.2-20.1,34.9c-0.5,0.9-0.8,2-0.8,3c-0.1,14.4-0.1,28.7,0,43.1c0,2-0.5,3.5-2.4,4.4
		c-42.3,0-84.7,0-127,0C22,132.7,22,77.8,22,23z M128.7,164.5c15.9-27.6,31.8-55.1,47.8-82.8c-4.1-2.4-8.2-4.7-12.4-7.2
		c-15.9,27.6-31.8,55.2-47.8,82.8C120.5,159.8,124.5,162.1,128.7,164.5z M144.7,150c-0.5,0.7-0.7,1.2-1,1.6
		c-3.4,5.9-6.8,11.9-10.3,17.8c-0.7,1.2-1.7,2.3-2.8,3.1c-3.4,2.6-6.8,5-10.2,7.5c-0.3,0.2-0.6,0.5-0.9,0.8c8.6,0,16.9,0,25.3,0
		C144.7,170.6,144.7,160.5,144.7,150z M167.3,68.9c4.2,2.4,8.3,4.8,12.5,7.2c0.8-1.4,1.6-2.7,2.2-4c1.5-3.4,0.1-7.3-3.1-9.1
		c-3.2-1.8-7.3-0.8-9.4,2.3C168.7,66.4,168.1,67.6,167.3,68.9z M123.9,169.3c-3.2-1.8-6.2-3.6-9.4-5.4c-0.5,4.5-0.9,8.7-1.4,13.3
		C116.8,174.5,120.3,172,123.9,169.3z"/>
	<path class="st1" d="M86.7,55c10.6,0,21.2,0,31.8,0c0.5,0,1,0,1.5,0c1.8,0.2,3,1.5,3,3.3c0,1.7-1.2,3.1-3,3.2c-0.5,0-1,0-1.5,0
		c-21.1,0-42.3,0-63.4,0c-0.2,0-0.4,0-0.7,0c-2.3,0-3.9-1.3-3.9-3.3c0-1.9,1.5-3.2,3.9-3.2C65.1,55,75.9,55,86.7,55z"/>
	<path class="st1" d="M86.6,79.8c-10.5,0-21.1,0-31.6,0c-0.5,0-1.1,0-1.6,0c-1.6-0.2-2.9-1.6-2.9-3.2c0-1.6,1.2-3,2.9-3.2
		c0.5-0.1,1,0,1.5,0c21.3,0,42.5,0,63.8,0c0.5,0,1,0,1.5,0c1.7,0.2,2.9,1.5,2.9,3.2c0,1.7-1.1,3-2.8,3.2c-0.5,0.1-1.1,0-1.6,0
		C107.8,79.8,97.2,79.8,86.6,79.8z"/>
	<path class="st0" d="M86.8,109.8c10.5,0,21.1,0,31.6,0c0.5,0,1,0,1.5,0c1.8,0.2,3,1.5,3,3.3c0,1.7-1.3,3.1-3,3.2c-0.5,0-1,0-1.5,0
		c-21.1,0-42.3,0-63.4,0c-0.3,0-0.5,0-0.8,0c-2.2,0-3.7-1.4-3.7-3.3c0-1.9,1.5-3.2,3.7-3.2C65.1,109.8,76,109.8,86.8,109.8z"/>
	<path class="st0" d="M68.2,152.9c-4.7,0-9.4,0-14.2,0c-2.6,0-4.2-2.3-3.3-4.5c0.6-1.3,1.6-2,3.1-2c9.5,0,19,0,28.5,0
		c2,0,3.3,1.4,3.3,3.2c0,1.9-1.3,3.2-3.3,3.3C77.6,152.9,72.9,152.9,68.2,152.9z"/>
	<path class="st2" d="M107.4,98.1c-3.8,0-7.6,0-11.4,0c-2.4,0-3.8-1.3-3.8-3.3c0-2,1.5-3.3,3.8-3.3c7.7,0,15.4,0,23.1,0
		c2.4,0,3.8,1.3,3.7,3.3c0,2-1.4,3.2-3.7,3.2C115.3,98.1,111.4,98.1,107.4,98.1z"/>
	<path class="st2" d="M64.7,98.1c-3.5,0-7,0-10.4,0c-2.2,0-3.7-1.3-3.8-3.2c0-1.9,1.5-3.3,3.8-3.3c6.9,0,13.8,0,20.7,0
		c2.2,0,3.7,1.3,3.8,3.2c0,2-1.5,3.3-3.8,3.3C71.5,98.1,68.1,98.1,64.7,98.1z"/>
	<path class="st0" d="M95.5,128.1c3.2,0,6.4,0,9.6,0c2.4,0,3.8,1.3,3.8,3.3c0,2-1.4,3.2-3.7,3.2c-6.5,0-12.9,0-19.4,0
		c-2.3,0-3.7-1.3-3.7-3.2c0-2,1.4-3.3,3.6-3.3C88.9,128.1,92.2,128.1,95.5,128.1z"/>
	<path class="st0" d="M62.2,128.1c2.7,0,5.3,0,8,0c2.2,0,3.7,1.4,3.6,3.3c0,1.8-1.5,3.2-3.6,3.2c-5.4,0-10.7,0-16.1,0
		c-2.2,0-3.7-1.4-3.6-3.3c0-1.8,1.5-3.2,3.6-3.2C56.8,128.1,59.5,128.1,62.2,128.1z"/>
	<path class="st0" d="M148.1,54.6c-1.7,0-3.3-1.4-3.3-3.2c-0.1-1.8,1.5-3.4,3.3-3.4c1.8,0,3.2,1.4,3.2,3.2
		C151.3,53.2,149.9,54.6,148.1,54.6z"/>
</g>
</svg>
