<?xml version="1.0" encoding="utf-8"?>
<!-- Generator: Adobe Illustrator 24.0.0, SVG Export Plug-In . SVG Version: 6.00 Build 0)  -->
<svg version="1.1" id="Capa_1" xmlns="http://www.w3.org/2000/svg" xmlns:xlink="http://www.w3.org/1999/xlink" x="0px" y="0px"
	 viewBox="0 0 198.4 198.4" style="enable-background:new 0 0 198.4 198.4;" xml:space="preserve">
<style type="text/css">
	.st0{fill:#ACAEAF;}
	.st1{fill:#FE9900;}
	.st2{fill:#1C3247;}
</style>
<g>
	<path class="st0" d="M39.8,29.1c0-4.6,0-8.9,0-13.3c0-2.6,1-3.6,3.6-3.6c40.7,0,81.4,0,122.1,0c2.7,0,3.6,1,3.6,3.8
		c0,19,0,38.1,0,57.1c0,0.6,0,1.3,0,1.9c0.2,0,0.4,0.1,0.4,0.1c2.5-2.2,5.3-0.5,5.3,3.1c-0.1,25.4-0.1,50.8-0.1,76.3
		c0,3.8-1.8,4.9-5.1,3.1c-0.1,0-0.2,0-0.5,0c0,3.2,0,6.4,0,9.6c-0.2,9.2-6.4,16.9-15.3,19c-1.6,0.4-3.2,0.5-4.9,0.5
		c-39,0-78,0-117,0c-8.5,0-14.6-6.1-14.6-14.6c0-46.3,0-92.7,0-139c0-3,0.9-3.8,3.9-3.8c5.6,0,11.1,0,16.7,0
		C38.5,29.1,39,29.1,39.8,29.1z M141,138.5c0,1.1,0,1.7,0,2.4c0,5.9,0.1,11.8,0,17.7c-0.1,6.4-5.3,11.3-11.6,11.2
		c-6-0.1-10.8-5.1-10.9-11.1c-0.1-6.9,0-13.8,0-20.7c-0.6-0.3-1.1-0.5-1.5-0.7c-6.1-3.1-9.4-8.1-9.7-14.9c-0.1-3.6,0-7.3,0-10.9
		c0-10.2,7.3-17.5,17.5-17.5c5.6,0,11.1,0,16.7,0c0.9,0,2-0.3,2.7-0.8c6-4.1,11.9-8.3,17.9-12.4c1.1-0.7,1.5-1.5,1.5-2.8
		c-0.1-19.3,0-38.5,0-57.8c0-0.6,0-1.2,0-1.8c-39.5,0-78.8,0-118.1,0c0,0.9,0,1.7,0,2.4c0,48.9,0,97.8,0,146.7
		c0,4.7,0.5,9.5-2.9,13.7c0.7,0,0.9,0.1,1.2,0.1c35.3,0,70.5,0,105.8,0c7.8,0,13.9-6.2,14-14c0.1-4.2,0.1-8.3,0-12.5
		c0-0.7-0.5-1.6-1.1-2.1c-6-4.3-12.1-8.6-18.3-12.8C143.3,139.1,142.2,138.9,141,138.5z M22.9,34.8c0,0.8,0,1.4,0,2
		c0,44.9,0,89.9,0,134.8c0,0.5,0,1.1,0,1.6c0.2,3.4,2.7,6.5,6,7.5c5.6,1.7,10.8-2.5,10.8-8.5c0-45.3,0-90.6,0-135.8
		c0-0.4-0.1-0.9-0.1-1.5c-5.1,0-10,0-15,0C24.2,34.8,23.6,34.8,22.9,34.8z M140.9,99.5c-0.3-0.1-0.5-0.1-0.7-0.1
		c-5.4,0-10.8-0.1-16.1,0c-6.3,0.1-11.1,5-11.2,11.3c0,3.7,0,7.4,0,11.1c0.1,6.4,4.9,11.3,11.4,11.3c5.1,0,10.3,0,15.4,0
		c0.4,0,0.8-0.1,1.2-0.1C140.9,121.9,140.9,110.8,140.9,99.5z M157.8,90.3c-3.7,2.6-7.2,5-10.6,7.4c-0.3,0.2-0.5,0.9-0.5,1.3
		c0,11.5,0,22.9,0,34.4c0,0.5,0.2,1.1,0.5,1.3c3.4,2.5,6.9,4.9,10.6,7.5C157.8,124.9,157.8,107.7,157.8,90.3z M169.1,82.4
		c-1.7,1.2-3.2,2.1-4.5,3.2c-0.5,0.4-1,1.3-1,1.9c-0.1,19.2,0,38.4,0,57.6c0,0.4,0,1.1,0.2,1.3c1.7,1.3,3.4,2.5,5.3,3.8
		C169.1,127.5,169.1,105.1,169.1,82.4z M124.1,138.9c0,6.6,0,13.1,0,19.5c0,3.3,2.5,5.7,5.7,5.7c3.1,0,5.5-2.5,5.6-5.8
		c0-6.1,0-12.3,0-18.4c0-0.3-0.1-0.7-0.1-1C131.5,138.9,127.9,138.9,124.1,138.9z"/>
	<path class="st0" d="M178.9,97.4c2.6-2.6,5.3-5.3,8.1-8.1c1.1,1.2,2.2,2.4,3.3,3.6c-2.6,2.6-5.3,5.3-8.1,8.2
		C181.1,100,180,98.6,178.9,97.4z"/>
	<path class="st0" d="M190.4,128.6c-1.1,1.1-2.3,2.3-3.5,3.5c-2.8-2.8-5.5-5.5-8.2-8.2c1.2-1.1,2.5-2.3,3.6-3.3
		C184.9,123,187.6,125.8,190.4,128.6z"/>
	<path class="st0" d="M180.4,113.4c0-1.9,0-3.5,0-5.4c3.7,0,7.3,0,11.1,0c0,1.7,0,3.5,0,5.4C187.9,113.4,184.2,113.4,180.4,113.4z"
		/>
	<path class="st0" d="M104.5,74.1c-16.5,0-32.9,0-49.4,0c-3.2,0-4-0.8-4-4c0-14.2,0-28.5,0-42.7c0-3,0.9-3.9,3.9-3.9
		c33,0,66.1,0,99.1,0c3,0,3.9,0.9,3.9,3.9c0,14.3,0,28.6,0,42.9c0,3-0.9,3.9-3.9,3.9C137.5,74.1,121,74.1,104.5,74.1z M56.8,29.2
		c0,13.2,0,26.2,0,39.1c31.9,0,63.6,0,95.4,0c0-13.1,0-26.1,0-39.1C120.3,29.2,88.6,29.2,56.8,29.2z"/>
	<path class="st0" d="M51,107.9c0-8.1,0-16.3,0-24.4c0-2.8,0.9-3.7,3.7-3.7c14.4,0,28.8,0,43.2,0c2.8,0,3.7,0.9,3.7,3.7
		c0,16.3,0,32.6,0,48.8c0,2.8-0.9,3.7-3.7,3.7c-14.4,0-28.8,0-43.2,0c-2.8,0-3.7-0.9-3.7-3.7C51,124.2,51,116,51,107.9z M96,85.5
		c-13.2,0-26.2,0-39.2,0c0,15,0,29.8,0,44.8c13.1,0,26.1,0,39.2,0C96,115.3,96,100.5,96,85.5z"/>
	<path class="st1" d="M51.1,147.1c0-1.8,0-3.6,0-5.4c20.6,0,41.1,0,61.7,0c0,1.8,0,3.5,0,5.4C92.3,147.1,71.8,147.1,51.1,147.1z"/>
	<path class="st2" d="M112.8,153c0,1.9,0,3.6,0,5.4c-20.5,0-41,0-61.6,0c0-1.7,0-3.5,0-5.4C71.6,153,92.2,153,112.8,153z"/>
	<path class="st2" d="M51.1,169.6c0-1.8,0-3.6,0-5.4c20.6,0,41.1,0,61.7,0c0,1.8,0,3.5,0,5.4C92.3,169.6,71.8,169.6,51.1,169.6z"/>
	<path class="st0" d="M67.9,62.8c0-4.9,0-9.9,0-14.8c3.1,4.3,5.8,8.6,8.4,12.9c0.8,1.4,1.9,2.3,3.6,1.8c1.7-0.5,2-1.9,2-3.5
		c0-7.7,0-15.3,0-23c0-0.5,0-0.9-0.1-1.4c-1.9,0-3.7,0-5.6,0c0,5,0,9.9,0,15.3c-3-4.8-5.7-9-8.3-13.4c-0.8-1.4-1.8-2.4-3.6-1.9
		c-1.8,0.5-2.1,1.9-2.1,3.6c0,7.6,0,15.2,0,22.8c0,0.5,0.1,1,0.1,1.5C64.2,62.8,65.9,62.8,67.9,62.8z M107.3,34.9c0,0.6,0,1.2,0,1.7
		c0,7.5,0,15.1,0,22.6c0,2.2,0.7,3.3,2.2,3.7c1.5,0.3,2.7-0.5,3.5-2.5c0.9-2.1,1.7-4.2,2.7-6.7c0.8,2,1.5,3.6,2.1,5.2
		c0.3,0.7,0.5,1.3,0.8,2c0.6,1.5,1.7,2.3,3.3,2c1.6-0.3,2.3-1.5,2.3-3.1c0-8,0-16,0-24c0-0.3-0.1-0.5-0.1-0.8c-1.8,0-3.6,0-5.5,0
		c0,3.3,0,6.5,0,9.5c-1-0.4-2-1.1-2.9-1.1c-0.9,0-1.8,0.8-2.8,1.2c0-3.2,0-6.4,0-9.7C111,34.9,109.3,34.9,107.3,34.9z M101.6,34.8
		c-3.9,0-7.6-0.1-11.4,0c-1.5,0-2.6,1-2.6,2.6c-0.1,7.6-0.1,15.2,0,22.8c0,1.5,0.9,2.6,2.4,2.6c3.8,0.1,7.7,0,11.5,0
		c0-1.9,0-3.7,0-5.7c-2.8,0-5.6,0-8.2,0c0-1.9,0-3.7,0-5.6c2.8,0,5.5,0,8.2,0c0-2,0-3.7,0-5.6c-2.8,0-5.5,0-8.2,0c0-1.9,0-3.7,0-5.6
		c2.8,0,5.5,0,8.3,0C101.6,38.4,101.6,36.7,101.6,34.8z M146.6,34.8c-2.6,0-5.1,0-7.5,0c-0.6,0-1.3,0-1.9,0.1
		c-4,0.5-7.1,3.8-7.4,7.8c-0.3,4.1,2.4,7.8,6.4,8.8c0.8,0.2,1.6,0.2,2.4,0.3c1.5,0.3,2.4,1.2,2.4,2.8c0,1.6-0.9,2.5-2.5,2.7
		c-0.7,0.1-1.4,0-2.1,0c-2.2,0-4.4,0-6.6,0c0,2,0,3.7,0,5.6c3.2,0,6.3,0.2,9.4,0c4-0.3,7.1-3.8,7.4-7.7c0.3-4.1-2.4-7.7-6.4-8.8
		c-0.8-0.2-1.8,0-2.4-0.4c-0.9-0.5-2.1-1.4-2.3-2.3c-0.2-0.8,0.6-2,1.2-2.8c0.4-0.4,1.4-0.5,2.1-0.5c2.5-0.1,5.1,0,7.7,0
		C146.6,38.4,146.6,36.7,146.6,34.8z"/>
	<path class="st0" d="M67.9,62.8c-2,0-3.7,0-5.5,0c0-0.5-0.1-1-0.1-1.5c0-7.6,0-15.2,0-22.8c0-1.7,0.3-3.1,2.1-3.6
		c1.7-0.5,2.7,0.5,3.6,1.9c2.7,4.3,5.4,8.6,8.3,13.4c0-5.4,0-10.3,0-15.3c1.9,0,3.7,0,5.6,0c0,0.5,0.1,0.9,0.1,1.4
		c0,7.7,0,15.3,0,23c0,1.6-0.4,3-2,3.5c-1.7,0.5-2.7-0.4-3.6-1.8c-2.7-4.3-5.4-8.6-8.4-12.9C67.9,53,67.9,57.9,67.9,62.8z"/>
	<path class="st0" d="M107.3,34.9c2,0,3.7,0,5.6,0c0,3.3,0,6.5,0,9.7c1-0.5,1.9-1.2,2.8-1.2c0.9,0,1.8,0.7,2.9,1.1c0-3,0-6.2,0-9.5
		c1.9,0,3.7,0,5.5,0c0,0.2,0.1,0.5,0.1,0.8c0,8,0,16,0,24c0,1.6-0.7,2.8-2.3,3.1c-1.6,0.4-2.7-0.5-3.3-2c-0.3-0.6-0.5-1.3-0.8-2
		c-0.6-1.6-1.3-3.2-2.1-5.2c-1,2.5-1.9,4.6-2.7,6.7c-0.8,2-2,2.8-3.5,2.5c-1.5-0.3-2.2-1.5-2.2-3.7c0-7.5,0-15.1,0-22.6
		C107.3,36,107.3,35.5,107.3,34.9z"/>
	<path class="st0" d="M101.6,34.8c0,1.9,0,3.6,0,5.5c-2.7,0-5.4,0-8.3,0c0,2,0,3.7,0,5.6c2.7,0,5.4,0,8.2,0c0,1.9,0,3.7,0,5.6
		c-2.7,0-5.4,0-8.2,0c0,1.9,0,3.7,0,5.6c2.7,0,5.4,0,8.2,0c0,2,0,3.7,0,5.7c-3.8,0-7.7,0.1-11.5,0c-1.4,0-2.4-1.1-2.4-2.6
		c0-7.6-0.1-15.2,0-22.8c0-1.5,1.1-2.5,2.6-2.6C94,34.7,97.7,34.8,101.6,34.8z"/>
	<path class="st0" d="M146.6,34.8c0,2,0,3.7,0,5.6c-2.6,0-5.1,0-7.7,0c-0.7,0-1.7,0-2.1,0.5c-0.7,0.8-1.4,2-1.2,2.8
		c0.2,0.9,1.4,1.7,2.3,2.3c0.6,0.4,1.6,0.2,2.4,0.4c4,1,6.6,4.7,6.4,8.8c-0.3,3.9-3.4,7.4-7.4,7.7c-3.1,0.2-6.2,0-9.4,0
		c0-1.8,0-3.6,0-5.6c2.2,0,4.4,0,6.6,0c0.7,0,1.4,0.1,2.1,0C140,57,141,56,141,54.5c0-1.6-0.9-2.5-2.4-2.8c-0.8-0.2-1.6-0.1-2.4-0.3
		c-4-1-6.6-4.7-6.4-8.8c0.3-3.9,3.4-7.3,7.4-7.8c0.6-0.1,1.3-0.1,1.9-0.1C141.5,34.8,144,34.8,146.6,34.8z"/>
</g>
</svg>
