<?xml version="1.0" encoding="utf-8"?>
<!-- Generator: Adobe Illustrator 24.0.0, SVG Export Plug-In . SVG Version: 6.00 Build 0)  -->
<svg version="1.1" id="Capa_1" xmlns="http://www.w3.org/2000/svg" xmlns:xlink="http://www.w3.org/1999/xlink" x="0px" y="0px"
	 viewBox="0 0 283.5 283.5" style="enable-background:new 0 0 283.5 283.5;" xml:space="preserve">
<style type="text/css">
	.st0{fill:#ACAEAF;}
	.st1{fill:#1C3247;}
	.st2{fill:#FE9900;}
</style>
<g>
	<path class="st0" d="M70.8,159.1c0-14.1,0-27.8,0-41.5c0-0.7,0-1.4,0-2.4c-0.9,0-1.7,0-2.5,0c-7.5,0-14.9,0-22.4,0
		c-7.1,0-11.7-4.6-11.7-11.8c0-16.5,0-33.1,0-49.6c0-7.1,4.6-11.7,11.7-11.8c7.4,0,14.8,0,22.2,0c0.8,0,1.6,0,2.7,0
		c0-3.4,0-6.7,0-9.9c0-3.4,1.2-4.7,4.7-4.7c50.5,0,101,0,151.5,0c3.5,0,4.7,1.3,4.7,4.9c0,29.2,0,58.5,0,87.7c0,1.6,0.4,2.7,1.7,3.9
		c17.3,14.9,17.3,40.6,0,55.5c-1.3,1.1-1.7,2.2-1.7,3.9c0.1,6.2,0,12.3,0,18.8c3.8-1.4,7.3-2.7,10.8-4c1.5-0.6,3-1.1,4.5-1.7
		c4.8-1.7,9.2-0.6,11.9,3c2.7,3.6,2.8,8.7-0.1,12.5c-1.3,1.6-3,3.1-4.8,4.1c-6.8,3.8-13.6,7.5-20.5,11.1c-1.4,0.7-1.9,1.6-1.8,3.2
		c0.1,6.4,0,12.8,0,19.2c0,3.3-1.3,4.6-4.6,4.6c-56.9,0-113.8,0-170.7,0c-12.4,0-22.1-9.6-22.1-22c-0.1-22.9,0-45.7,0-68.6
		c0-3.3,1.3-4.5,4.6-4.5c9.7,0,19.5,0,29.2,0C69,159.1,69.8,159.1,70.8,159.1z M224.3,185.5c-19.7,5.4-34.2,1.3-44.1-12.2
		c-8.9-12.3-9.4-28.7-1.1-41.4c4.2-6.4,9.8-11,16.8-13.9c9.4-3.8,18.8-3.6,28.3,0.2c0-27.9,0-55.6,0-83.2c-48.8,0-97.4,0-146,0
		c0,2.4,0,4.7,0,7.1c0.9,0,1.8,0,2.6,0c17.1,0,34.1,0,51.2,0c7.4,0,11.9,4.5,11.9,12c0,16.4,0,32.8,0,49.1c0,7.6-4.5,12-12.1,12
		c-17,0-34,0-51,0c-0.9,0-1.8,0-2.7,0c0,1.2,0,2.2,0,3.1c0,37.5,0,74.9,0,112.4c0,1.5-0.1,3-0.2,4.6c-0.5,4.3-2.4,7.9-5.1,11.4
		c50.7,0,101.1,0,151.4,0c0-4.8,0-9.5,0-14.4c-2.6,1.4-4.9,2.7-7.3,3.9c-7.5,3.8-15.3,4.5-23.2,1.7c-6.1-2.2-12.1-4.6-18.2-6.7
		c-3-1.1-6.2-1.7-9.5-2.6c-0.1,1.1-0.1,1.6-0.2,2.1c-0.1,4.3-1.1,5.3-5.3,5.3c-6.2,0-12.5-0.1-18.7,0c-2.8,0-4.8-0.6-5.4-3.8
		c-17,0-34,0-50.9,0c0-2.5,0-4.7,0-7.2c17,0,34,0,50.9,0c0-2.6,0-4.9,0-7.3c-11,0-21.7,0-32.6,0c0-2.5,0-4.8,0-7.3
		c11,0,21.8,0,32.8,0c0-1.1,0-1.9,0-2.8c0-8.5,0-17.1,0-25.6c0-2.9,1.2-4.4,3.8-4.4c7.2-0.1,14.5-0.1,21.7,0c2.3,0,3.6,1.4,3.8,3.7
		c0.1,1.1,0,2.3,0,3.5c1.5,0.1,2.7,0.3,4,0.4c9,0.6,17.7,2.7,26.3,5.6c2.3,0.8,4.8,1.1,7.3,1.3c2.3,0.2,4.7,0.2,7.1,0
		c6.4-0.4,11.3,1.7,13.8,8.8C224.3,195.2,224.3,190.5,224.3,185.5z M89.1,49.4c-14.2,0-28.3,0-42.5,0c-3.9,0-5,1.1-5,5
		c0,16.1,0,32.3,0,48.4c0,3.9,1.1,5,5,5c28.3,0,56.7,0,85,0c3.9,0,5-1.1,5-5c0-16.1,0-32.3,0-48.4c0-3.9-1.1-5-5-5
		C117.5,49.4,103.3,49.4,89.1,49.4z M41.6,166.5c0,22.4-0.1,44.5,0,66.7c0,4.1,2,7.7,5.2,10.3c4.7,3.7,9.9,4.6,15.4,2
		c5.6-2.6,8.5-7.3,8.5-13.5c0.1-21.2,0-42.5,0-63.7c0-0.6-0.1-1.2-0.2-1.8C61,166.5,51.4,166.5,41.6,166.5z M239,151.9
		c0-16.1-13.1-29.3-29.1-29.3c-16.1,0-29.3,13.1-29.4,29.1c-0.1,16.2,13.1,29.4,29.3,29.4C225.9,181.1,239,167.9,239,151.9z
		 M166,192.3c0,9.8,0,19.4,0,29c2.2,0.4,4.3,0.5,6.3,1.2c7.6,2.6,15.2,5.3,22.8,8.1c6.5,2.4,12.8,2.1,19-1.1
		c12.2-6.5,24.4-13.1,36.5-19.7c1.2-0.7,2.4-2,2.9-3.3c0.9-2.1-1.1-3.9-3.3-3.3c-0.5,0.1-1,0.4-1.5,0.6c-7.6,2.8-15.1,5.7-22.7,8.3
		c-7.1,2.5-14.4,1.8-21.7,1.9c-4.2,0-8.3,0-12.5,0c0-2.6,0-4.9,0-7.3c7.1,0,14.1,0,21.1,0c2.7,0,4.3-1.5,4.3-3.7
		c0-2.2-1.7-3.6-4.4-3.6c-3.8,0-7.6,0.1-11.4-0.1c-2-0.1-4.1-0.4-6-1.1C185.9,194.7,176.3,192.6,166,192.3z M144.1,184.8
		c0,14.7,0,29.2,0,43.6c4.9,0,9.7,0,14.3,0c0-14.6,0-29.1,0-43.6C153.7,184.8,149,184.8,144.1,184.8z"/>
	<path class="st1" d="M85.6,137.3c25.6,0,51,0,76.5,0c0,2.4,0,4.6,0,7c-25.4,0-50.9,0-76.5,0C85.6,142.1,85.6,139.8,85.6,137.3z"/>
	<path class="st1" d="M85.6,159c0-2.4,0-4.7,0-7c23.1,0,46.1,0,69.3,0c0,2.4,0,4.6,0,7C131.8,159,108.8,159,85.6,159z"/>
	<path class="st0" d="M151.5,56.8c21.9,0,43.6,0,65.5,0c0,2.4,0,4.7,0,7.1c-21.8,0-43.6,0-65.5,0C151.5,61.7,151.5,59.4,151.5,56.8z
		"/>
	<path class="st1" d="M111.2,129.7c0-2.4,0-4.7,0-7c18.2,0,36.4,0,54.6,0c0,2.4,0,4.6,0,7C147.7,129.7,129.5,129.7,111.2,129.7z"/>
	<path class="st0" d="M173.3,49.3c0-2.4,0-4.7,0-7c14.6,0,29.1,0,43.7,0c0,2.4,0,4.6,0,7C202.5,49.3,188,49.3,173.3,49.3z"/>
	<path class="st1" d="M85.6,173.6c0-2.4,0-4.7,0-7c14.5,0,29,0,43.6,0c0,2.3,0,4.6,0,7C114.7,173.6,100.2,173.6,85.6,173.6z"/>
	<path class="st0" d="M76.4,73.9c6.8,4.3,9.5,10.5,9.1,18.3c-0.1,1.5,0,3,0,4.6c-0.1,2.3-1.4,3.8-3.7,3.8c-9.7,0.1-19.5,0.1-29.2,0
		c-2,0-3.5-1.2-3.6-3.2c-0.1-3.6-0.2-7.2,0.2-10.7c0.7-5.5,3-8.5,8.6-12.8C55.3,66.7,56.2,62,61,58.7c4.1-2.8,9.6-2.5,13.3,0.7
		C78.4,62.9,79.2,68,76.4,73.9z M78,93.2c0.6-5.6-0.5-10.3-5.5-13.1c-4-2.3-8.1-2-11.8,0.7c-4.2,3.1-5,7.5-4.3,12.4
		C63.6,93.2,70.8,93.2,78,93.2z M70.8,67.8c0-2-1.6-3.7-3.6-3.7c-2,0-3.7,1.6-3.7,3.6c0,2,1.6,3.7,3.6,3.7
		C69.1,71.4,70.8,69.8,70.8,67.8z"/>
	<path class="st0" d="M111.1,78.7c-4.6,0-9.1,0-13.7,0c-3.3,0-4.5-1.3-4.6-4.6c0-4.3,0-8.7,0-13c0-3,1.3-4.3,4.3-4.3
		c9.3,0,18.6,0,27.9,0c3,0,4.3,1.4,4.3,4.3c0,4.4,0,8.8,0,13.3c0,3-1.4,4.3-4.3,4.3C120.4,78.7,115.7,78.7,111.1,78.7z M100.2,71.2
		c7.4,0,14.5,0,21.6,0c0-2.5,0-4.8,0-7c-7.3,0-14.4,0-21.6,0C100.2,66.5,100.2,68.8,100.2,71.2z"/>
	<path class="st0" d="M96.5,100.5c0-2.4,0-4.7,0-7c10.9,0,21.7,0,32.6,0c0,2.3,0,4.6,0,7C118.4,100.5,107.6,100.5,96.5,100.5z"/>
	<path class="st2" d="M206,130c2.7,0,4.9,0,7.1,0c0.1,0.2,0.3,0.3,0.3,0.5c-0.3,2.5,0.4,4,2.8,5.4c3.1,1.7,4.4,4.9,4.6,8.6
		c-2.4,0-4.7,0-7.1,0c-0.2-0.4-0.4-1-0.7-1.5c-0.9-1.7-2.4-2.4-4.2-1.9c-1.7,0.5-2.7,1.8-2.6,3.6c0.1,1.9,1.2,3.1,3,3.5
		c1.1,0.2,2.3,0.2,3.4,0.5c4.4,1.2,7.1,4.1,7.9,8.5c0.9,4.3-0.5,8.2-4.2,10.6c-2.4,1.5-3.5,3.1-2.8,5.9c-2.5,0-4.8,0-7.5,0
		c0.9-3.1-0.8-4.6-3.2-6.2c-2.7-1.8-3.9-4.7-4-8.2c2.4,0,4.7,0,7.1,0c0.2,0.4,0.4,1,0.7,1.5c0.9,1.7,2.4,2.4,4.2,1.9
		c1.7-0.5,2.7-1.8,2.6-3.6c-0.1-1.9-1.2-3.1-3-3.5c-1.1-0.2-2.3-0.2-3.4-0.5c-4.4-1.2-7.1-4.1-8-8.5c-0.9-4.3,0.5-8.2,4.2-10.6
		C205.6,134.4,206.7,132.9,206,130z"/>
</g>
</svg>
