<?xml version="1.0" encoding="utf-8"?>
<!-- Generator: Adobe Illustrator 24.0.0, SVG Export Plug-In . SVG Version: 6.00 Build 0)  -->
<svg version="1.1" id="Capa_1" xmlns="http://www.w3.org/2000/svg" xmlns:xlink="http://www.w3.org/1999/xlink" x="0px" y="0px"
	 viewBox="0 0 200 200" style="enable-background:new 0 0 200 200;" xml:space="preserve">
<style type="text/css">
	.st0{fill:#ACAEAF;}
	.st1{fill:#FE9900;}
</style>
<g>
	<g>
		<path class="st0" d="M154.7,170.1c0,4.6,0,9,0,13.4c0,3.6-0.5,4.1-4.1,4.1c-37.5,0-75.1,0-112.6,0c-3.4,0-4-0.6-4-4
			c0-50.8,0-101.6,0-152.5c0-3.5,0.6-4.1,4.1-4.1c4.4,0,8.8,0,13.5,0c0-2.3,0-4.4,0-6.6c0-1.9,0-3.9,0-5.8c0-1.7,0.9-2.6,2.6-2.6
			c0.5,0,1.1,0,1.6,0c26.7,0,53.4,0,80.1,0c1.5,0,2.6,0.5,3.7,1.5c9.5,9.5,19,19,28.5,28.5c1,1,1.6,2.1,1.6,3.6
			c0,40.1,0,80.1,0,120.2c0,3.7-0.6,4.3-4.3,4.3C162,170.1,158.5,170.1,154.7,170.1z M134.6,17.1c-26,0-51.9,0-77.8,0
			c0,49.3,0,98.6,0,147.8c36.1,0,71.9,0,107.8,0c0-39.3,0-78.5,0-117.8c-2.5,0-4.8,0-7.2,0c-6.5,0-13,0-19.4,0
			c-2.5,0-3.4-0.9-3.4-3.4c0-0.6,0-1.2,0-1.8C134.6,33.8,134.6,25.6,134.6,17.1z M39.2,182.5c36.8,0,73.6,0,110.3,0
			c0-4.2,0-8.2,0-12.4c-0.9,0-1.7,0-2.5,0c-30.3,0-60.7,0-91,0c-0.6,0-1.2,0-1.8,0c-1.5-0.2-2.4-1-2.5-2.6c0-0.7,0-1.3,0-2
			c0-43.6,0-87.3,0-130.9c0-0.8,0-1.6,0-2.5c-4.3,0-8.4,0-12.5,0C39.2,82.3,39.2,132.3,39.2,182.5z M160.3,42.1
			c-6.8-6.8-13.8-13.8-20.5-20.4c0,6.5,0,13.4,0,20.4C146.9,42.1,153.8,42.1,160.3,42.1z"/>
	</g>
	<g>
		<path class="st1" d="M108.8,64.3c1.4,0,2.7,0,4.1,0c1.1,0.1,2.2,0.3,3.3,0.4c7.8,1.4,14.4,5.1,19.4,11.1
			c6.4,7.6,8.9,16.4,7.3,26.3c-1.2,7.8-5,14.3-11,19.5c-7,6-15.2,8.6-24.4,7.7c-6.5-0.6-12.3-3-17.3-7.2
			c-6.2-5.1-10.1-11.7-11.6-19.6c-0.2-1.2-0.3-2.4-0.5-3.6c0-1.4,0-2.7,0-4.1c0.1-0.4,0.1-0.8,0.2-1.3c0.7-6.5,3.1-12.3,7.2-17.3
			c5.1-6.2,11.7-10.1,19.7-11.5C106.4,64.6,107.6,64.5,108.8,64.3z M126.7,76.4c-9.7-7.8-25.1-7.6-34.8,2.8
			c-9.6,10.2-8.8,24.9-1.6,33.6C102.4,100.6,114.5,88.5,126.7,76.4z M95,117.5c9.1,7.4,24,7.9,34.2-2.1c10-10,9.8-25,2.2-34.3
			C119.2,93.2,107.1,105.4,95,117.5z"/>
	</g>
</g>
</svg>
