<?xml version="1.0" encoding="utf-8"?>
<!-- Generator: Adobe Illustrator 24.0.0, SVG Export Plug-In . SVG Version: 6.00 Build 0)  -->
<svg version="1.1" id="Capa_1" xmlns="http://www.w3.org/2000/svg" xmlns:xlink="http://www.w3.org/1999/xlink" x="0px" y="0px"
	 viewBox="0 0 400 400" style="enable-background:new 0 0 400 400;" xml:space="preserve">
<style type="text/css">
	.st0{fill:#1C3247;}
	.st1{fill:#FE9900;}
	.st2{fill:#ACAEAF;}
</style>
<g>
	<path class="st0" d="M261.4,256.4c13.9,0,27.8,0,41.7,0c1.4,0,2.9,0,4.3-0.3c3.8-0.6,6-4.2,5.1-7.9c-0.9-3.7-3.5-5.3-8.8-5.3
		c-28.1,0-56.2,0-84.4,0c-1.5,0-3.1,0.1-4.6,0.5c-2.9,0.8-4.7,3.5-4.5,6.6c0.1,3,2.2,5.5,5.2,6c1.4,0.2,2.9,0.3,4.3,0.3
		C233.6,256.4,247.5,256.4,261.4,256.4z M244.6,270.6c-9,0-18-0.1-27,0c-5.1,0.1-8,3.1-7.4,7.6c0.5,3.5,3.1,5.7,7.4,5.7
		c18,0.1,36,0,54,0c1,0,2-0.2,2.9-0.5c3.9-1.3,5.7-5.9,3.5-9.5c-1.6-2.7-4.2-3.4-7.1-3.4C262.2,270.6,253.4,270.6,244.6,270.6z
		 M343.3,249.7c0-3.7-2.9-6.6-6.5-6.6c-3.9,0-7.1,3.1-7,6.9c0.1,3.6,3,6.4,6.7,6.4C340.3,256.4,343.3,253.4,343.3,249.7z"/>
	<path class="st1" d="M29.5,122.1c1.6-4.1,4.8-5.3,9-5.3c49.1,0.1,98.2,0,147.3,0c6.9,0,9.1,2.2,9.1,9.2c0,49.7,0,99.3,0,149
		c0,7.1-2.1,9.2-9.1,9.2c-49.1,0-98.2,0-147.3,0.1c-4.1,0-7.1-1.2-9-4.8C29.5,227,29.5,174.6,29.5,122.1z M180.7,224.1
		c0.2-0.2,0.5-0.4,0.7-0.7c0-31,0-61.9,0-93c-46.2,0-92.3,0-138.3,0c0,40.7,0,81.1,0,122c1.1-1.1,1.8-1.9,2.5-2.7
		c8.7-10,17.4-19.9,26.1-29.9c4.1-4.7,7-5.1,12.1-1.5c5.9,4.2,11.7,8.4,17.6,12.6c1.6,1.1,3.2,2.3,4.9,3.5c0.9-1.3,1.6-2.3,2.3-3.3
		c9-13.5,17.9-27,26.9-40.5c4.1-6.1,8.1-6.5,13.2-1.1c10,10.6,20,21.2,29.9,31.8C179.3,222.2,180,223.2,180.7,224.1z M45.3,270.6
		c45.8,0,90.9,0,136.3,0c0-8.1,0.1-16-0.1-23.8c0-1.6-0.8-3.5-1.8-4.6c-11.3-12.2-22.8-24.3-34.2-36.5c-0.7-0.8-1.2-1.8-1.9-3
		c-1.4,2-2.1,3-2.7,4c-8.8,13.2-17.5,26.5-26.3,39.7c-3.4,5-6.8,5.7-11.8,2.2c-6.9-4.9-13.7-9.8-20.6-14.7c-1-0.7-1.9-1.3-3-2
		C67.9,244.7,56.8,257.5,45.3,270.6z"/>
	<path class="st2" d="M365.7,29.4c3.8,1.7,5,4.8,5,8.9c-0.1,18.7,0,37.3,0,56c0,6.6-2.4,9-9,9c-107.6,0-215.3,0-322.9,0
		c-4.1,0-7.4-1.2-9.1-5.2c0-21.1,0-42.2,0-63.4c1.8-1.8,3.6-3.6,5.3-5.3C145.1,29.4,255.4,29.4,365.7,29.4z M43,89.6
		c104.8,0,209.3,0,313.9,0c0-15.7,0-31.1,0-46.6C252.1,43,147.6,43,43,43C43,58.6,43,73.9,43,89.6z"/>
	<path class="st2" d="M29.5,302.2c2.1-3.7,5.3-4.8,9.4-4.8c107.5,0.1,215.1,0.1,322.6,0c4.2,0,7.3,1.1,9.4,4.8c0,21.1,0,42.2,0,63.4
		c-1.8,3.7-4.8,4.9-8.9,4.9c-107.9-0.1-215.7-0.1-323.6,0c-4.1,0-7.1-1.2-8.9-4.9C29.5,344.4,29.5,323.3,29.5,302.2z M357.5,311.1
		c-105,0-209.7,0-314.4,0c0,15.4,0,30.4,0,45.5c104.9,0,209.6,0,314.4,0C357.5,341.4,357.5,326.4,357.5,311.1z"/>
	<path class="st2" d="M371,196.8c-2,3.8-5.2,4.8-9.4,4.8c-47.4-0.1-94.9-0.1-142.3-0.1c-7.2,0-9.3-2.1-9.3-9.4c0-22,0-44,0-66
		c0-7.2,2.2-9.3,9.3-9.3c47.4,0,94.9,0,142.3,0c4.3,0,7.6,1.1,9.3,5.3C371,147,371,171.9,371,196.8z M223.7,130.4
		c0,19.3,0,38.4,0,57.5c44.7,0,89.2,0,133.6,0c0-19.3,0-38.4,0-57.5C312.7,130.4,268.3,130.4,223.7,130.4z"/>
	<path class="st0" d="M371,224.1c-2,3.8-5.2,4.8-9.4,4.8c-47.5-0.1-94.9-0.1-142.4-0.1c-1.2,0-2.5,0-3.7-0.2
		c-3.1-0.5-5.2-2.9-5.4-5.9c-0.3-3.2,1.5-5.9,4.6-6.8c1.3-0.4,2.6-0.5,3.9-0.5c47.8,0,95.6,0,143.4-0.1c4.2,0,7.3,1.3,8.9,5.4
		C371,221.9,371,223,371,224.1z"/>
	<path class="st0" d="M261.4,256.4c-13.9,0-27.8,0-41.7,0c-1.4,0-2.9,0-4.3-0.3c-3-0.5-5.1-3-5.2-6c-0.1-3,1.6-5.8,4.5-6.6
		c1.5-0.4,3.1-0.5,4.6-0.5c28.1,0,56.2,0,84.4,0c5.3,0,7.9,1.6,8.8,5.3c0.9,3.7-1.3,7.3-5.1,7.9c-1.4,0.2-2.9,0.3-4.3,0.3
		C289.2,256.4,275.3,256.4,261.4,256.4z"/>
	<path class="st0" d="M244.6,270.6c8.8,0,17.5,0,26.3,0c2.9,0,5.5,0.6,7.1,3.4c2.1,3.6,0.4,8.2-3.5,9.5c-0.9,0.3-2,0.5-2.9,0.5
		c-18,0-36,0.1-54,0c-4.3,0-6.9-2.3-7.4-5.7c-0.6-4.5,2.3-7.6,7.4-7.6C226.6,270.6,235.6,270.6,244.6,270.6z"/>
	<path class="st0" d="M343.3,249.7c0,3.7-3,6.7-6.8,6.7c-3.7,0-6.6-2.8-6.7-6.4c-0.1-3.8,3-6.9,7-6.9
		C340.4,243.1,343.2,246,343.3,249.7z"/>
	<path class="st2" d="M199.8,327.3c-4.9,0-9.8-0.1-14.7,0c-4.7,0.1-7.6,2.6-7.6,6.6c0,3.8,2.8,6.7,7.2,6.7c9.9,0.2,19.8,0.2,29.6,0
		c4.4-0.1,7.2-2.9,7.2-6.7c0-4-2.8-6.6-7.5-6.7C209.4,327.2,204.6,327.3,199.8,327.3z M71.3,327.3c-4.8,0-9.6-0.1-14.3,0
		c-4.9,0.1-7.9,2.7-7.9,6.7c0,3.8,3.1,6.6,7.6,6.7c9.7,0.1,19.3,0.1,29,0c4.6-0.1,7.5-2.9,7.5-6.8c0-3.9-2.9-6.5-7.6-6.6
		C80.8,327.2,76,327.3,71.3,327.3z M135.4,340.7C135.4,340.7,135.4,340.7,135.4,340.7c5,0,10,0.1,15-0.1c4.3-0.2,7.2-3.3,7-6.9
		c-0.2-3.7-2.9-6.3-7.2-6.4c-10-0.1-20-0.1-30,0.1c-1.8,0-4.3,0.9-5.2,2.3c-1.1,1.8-1.7,4.6-1.2,6.7c0.7,3.1,3.7,4.2,6.8,4.3
		C125.7,340.8,130.6,340.7,135.4,340.7z M263.9,327.3c-4.9,0-9.8-0.1-14.7,0c-4.5,0.1-7.3,2.6-7.5,6.4c-0.2,3.8,2.9,6.9,7.4,7
		c9.8,0.1,19.5,0.1,29.3,0c4.6-0.1,7.5-2.9,7.4-6.8c0-3.9-2.9-6.5-7.6-6.6C273.5,327.2,268.7,327.3,263.9,327.3z M328.2,327.3
		c-4.8,0-9.6-0.1-14.3,0c-5,0.1-7.8,2.6-7.8,6.7c0,3.9,2.9,6.6,7.6,6.7c9.7,0.1,19.3,0.1,29,0c4.5-0.1,7.6-3,7.6-6.8
		c0-3.9-3-6.5-7.7-6.6C337.8,327.2,333,327.3,328.2,327.3z"/>
	<path class="st1" d="M86.5,197.7c-16.4,0.1-29.8-13.3-30-29.8c-0.2-16.3,13.7-30.2,30.1-30.1c16.5,0.1,29.8,13.5,29.8,30
		C116.4,184.3,103,197.7,86.5,197.7z M103,167.7c-0.1-9.2-7.4-16.4-16.6-16.4c-9.2,0.1-16.5,7.4-16.4,16.6
		c0.1,9.2,7.4,16.4,16.6,16.4C95.8,184.2,103,176.9,103,167.7z"/>
	<path class="st2" d="M68.6,46c10.7,0.1,19.5,8.9,19.5,19.6c0,10.7-9.2,19.9-19.8,19.7c-10.7-0.2-19.5-9-19.5-19.6
		C48.9,54.8,57.8,46,68.6,46z M68.6,59.4c-3.3-0.1-6.2,2.8-6.3,6.1c-0.1,3.3,2.8,6.2,6.1,6.3c3.3,0.1,6.3-2.8,6.3-6.1
		C74.8,62.4,71.9,59.5,68.6,59.4z"/>
	<path class="st2" d="M90.9,65.7c0-10.9,8.8-19.7,19.7-19.6c10.7,0,19.5,8.8,19.6,19.5c0.1,10.7-9.1,19.9-19.8,19.7
		C99.6,85.1,90.9,76.3,90.9,65.7z M116.6,65.7c0-3.3-2.8-6.2-6.1-6.2c-3.3,0-6.2,2.8-6.2,6.1c0,3.3,2.8,6.2,6.1,6.2
		C113.7,71.8,116.6,69,116.6,65.7z"/>
	<path class="st2" d="M132.8,65.7c-0.1-10.8,8.5-19.6,19.3-19.7c10.9-0.1,19.8,8.6,19.9,19.5c0.1,10.7-9,19.8-19.7,19.8
		C141.6,85.2,132.8,76.4,132.8,65.7z M158.5,65.6c0-3.4-2.7-6.2-6.1-6.2c-3.4,0-6.1,2.8-6.2,6.1c0,3.4,2.7,6.2,6.1,6.2
		C155.7,71.8,158.4,69,158.5,65.6z"/>
	<path class="st2" d="M216.3,73c-8.4,0-16.9,0-25.3,0c-1.3,0-2.7,0-4-0.2c-2.9-0.5-5.1-3-5.3-6c-0.2-2.9,1.7-5.8,4.5-6.6
		c1.5-0.4,3.1-0.5,4.6-0.5c17.2,0,34.4,0,51.6,0c0.7,0,1.3,0,2,0c4.3,0.4,7.2,3.2,7.2,6.8c-0.1,3.8-2.9,6.5-7.3,6.5
		C234.9,73,225.6,72.9,216.3,73C216.3,73,216.3,73,216.3,73z"/>
	<path class="st2" d="M275.1,72.2c-3.8-0.1-6.7-3.1-6.5-6.9c0.2-3.6,3.4-6.6,7.1-6.4c3.5,0.1,6.4,3.2,6.4,6.8
		C282.1,69.4,278.9,72.3,275.1,72.2z"/>
	<path class="st2" d="M199.8,327.3c4.8,0,9.6-0.1,14.3,0c4.7,0.1,7.5,2.7,7.5,6.7c0,3.8-2.8,6.6-7.2,6.7c-9.9,0.2-19.8,0.2-29.6,0
		c-4.4-0.1-7.2-3-7.2-6.7c0-4,2.9-6.5,7.6-6.6C190,327.2,194.9,327.3,199.8,327.3z"/>
	<path class="st2" d="M71.3,327.3c4.8,0,9.6-0.1,14.3,0c4.7,0.1,7.6,2.7,7.6,6.6c0,3.9-2.9,6.7-7.5,6.8c-9.7,0.1-19.3,0.1-29,0
		c-4.6-0.1-7.6-2.9-7.6-6.7c0-3.9,3-6.6,7.9-6.7C61.7,327.2,66.5,327.3,71.3,327.3z"/>
	<path class="st2" d="M135.4,340.7c-4.9,0-9.8,0.1-14.7,0c-3.1-0.1-6.1-1.1-6.8-4.3c-0.5-2.1,0.1-4.9,1.2-6.7
		c0.8-1.3,3.4-2.3,5.2-2.3c10-0.2,20-0.2,30-0.1c4.2,0,7,2.7,7.2,6.4c0.2,3.6-2.7,6.7-7,6.9C145.4,340.9,140.4,340.7,135.4,340.7
		C135.4,340.7,135.4,340.7,135.4,340.7z"/>
	<path class="st2" d="M263.9,327.3c4.8,0,9.6-0.1,14.3,0c4.7,0.1,7.6,2.6,7.6,6.6c0,3.9-2.8,6.7-7.4,6.8c-9.8,0.1-19.5,0.1-29.3,0
		c-4.5-0.1-7.5-3.2-7.4-7c0.2-3.8,3-6.3,7.5-6.4C254.1,327.2,259,327.3,263.9,327.3z"/>
	<path class="st2" d="M328.2,327.3c4.8,0,9.6-0.1,14.3,0c4.7,0.1,7.6,2.7,7.7,6.6c0,3.8-3,6.7-7.6,6.8c-9.7,0.1-19.3,0.1-29,0
		c-4.7-0.1-7.5-2.7-7.6-6.7c0-4.1,2.8-6.6,7.8-6.7C318.6,327.2,323.4,327.3,328.2,327.3z"/>
</g>
</svg>
