<?xml version="1.0" encoding="utf-8"?>
<!-- Generator: Adobe Illustrator 24.0.0, SVG Export Plug-In . SVG Version: 6.00 Build 0)  -->
<svg version="1.1" id="Capa_1" xmlns="http://www.w3.org/2000/svg" xmlns:xlink="http://www.w3.org/1999/xlink" x="0px" y="0px"
	 viewBox="0 0 80 80" style="enable-background:new 0 0 80 80;" xml:space="preserve">
<style type="text/css">
	.st0{fill:#ACAEAF;}
	.st1{fill:#FE9900;}
	.st2{fill:#1C3247;}
</style>
<g>
	<path class="st0" d="M35.07,8c8.12,0,16.25,0.05,24.37-0.03c2.42-0.02,3.89,1.58,3.87,3.84c-0.07,8.78-0.03,17.56-0.01,26.35
		c0,0.42,0.15,0.89,0.37,1.25c3.26,5.4,3.77,11.03,1.45,16.9c-0.21,0.52-0.14,0.8,0.25,1.16c0.75,0.69,1.45,1.43,2.17,2.15
		c0.62,0.63,0.89,1.38,0.62,2.23c-0.12,0.38,0,0.57,0.24,0.81c1.45,1.43,2.91,2.85,4.32,4.32c2.62,2.73,1.49,7.14-2.09,8.19
		c-1.88,0.55-3.54,0.07-4.93-1.29c-1.41-1.37-2.8-2.77-4.18-4.18c-0.29-0.29-0.53-0.45-0.98-0.3c-0.81,0.27-1.51-0.02-2.1-0.6
		c-0.76-0.75-1.53-1.48-2.25-2.26c-0.33-0.36-0.6-0.39-1.05-0.2c-8.6,3.57-18.37,0.26-23.03-7.8c-0.39-0.68-0.74-1.4-1.03-2.13
		c-0.18-0.45-0.41-0.59-0.89-0.59c-6.54,0.02-13.08,0.01-19.62,0.01c-2.5,0-3.77-1.25-3.77-3.74c0-13.45,0-26.89,0-40.34
		C6.79,9.28,8.06,8,10.49,8C18.69,8,26.88,8,35.07,8z M61.09,16.75c-17.4,0-34.75,0-52.12,0c0,0.2,0,0.36,0,0.52
		c0,11.66,0,23.31,0,34.97c0,1.06,0.36,1.41,1.44,1.41c6.36,0,12.72,0,19.08,0c0.21,0,0.42-0.02,0.58-0.03
		c-0.15-1.21-0.37-2.35-0.41-3.49c-0.04-1.15-0.03-2.32,0.16-3.45c1.04-6.38,4.43-11.06,10.23-13.96c0.33-0.17,0.45-0.36,0.44-0.73
		c-0.02-1.77-0.01-3.53-0.01-5.3c0-0.89,0.4-1.28,1.29-1.29c1.22-0.01,2.44,0,3.67,0c1.25,0,1.56,0.31,1.57,1.56
		c0,1.28,0,2.57,0,3.85c0.76,0,1.45,0,2.15,0c0.01-0.16,0.02-0.27,0.02-0.38c0-3.39,0-6.79,0-10.18c0-0.98,0.38-1.36,1.35-1.36
		c1.22-0.01,2.44,0,3.67,0c1.16,0,1.5,0.34,1.5,1.48c0,3.82,0.01,7.65-0.01,11.47c0,0.46,0.12,0.69,0.55,0.93
		c1.12,0.62,2.21,1.33,3.27,2.05c0.55,0.37,1.02,0.85,1.59,1.33C61.09,29.62,61.09,23.21,61.09,16.75z M8.96,14.48
		c17.43,0,34.77,0,52.15,0c0-0.91,0-1.76,0-2.62c0-1.4-0.28-1.68-1.65-1.68c-16.29,0-32.58,0-48.87,0c-0.18,0-0.36-0.01-0.54,0
		c-0.65,0.05-1.06,0.43-1.08,1.08C8.94,12.32,8.96,13.38,8.96,14.48z M64.37,49.32C64.38,40.34,57.1,33.02,48.13,33
		c-8.99-0.02-16.33,7.25-16.36,16.2c-0.02,9.05,7.26,16.37,16.31,16.4C57.03,65.62,64.36,58.3,64.37,49.32z M66.64,64.01
		c-1.3,1.3-2.57,2.57-3.83,3.83c1.53,1.55,3.07,3.2,4.71,4.75c1.03,0.97,2.69,0.8,3.68-0.23c1.01-1.05,1.07-2.67,0.05-3.74
		C69.73,67.03,68.15,65.51,66.64,64.01z M63.8,59.15c-0.87,1.04-1.72,2.19-2.72,3.19c-0.99,0.99-2.14,1.83-3.11,2.65
		c0.7,0.7,1.44,1.44,2.06,2.06c1.92-1.92,3.91-3.9,5.83-5.82C65.2,60.55,64.47,59.82,63.8,59.15z M53.47,31.61
		c0-3.54,0-7.03,0-10.52c-0.73,0-1.41,0-2.1,0c0,3.36,0,6.67,0,10.02C52.06,31.27,52.73,31.44,53.47,31.61z M42.66,31.61
		c0.64-0.14,1.22-0.25,1.78-0.41c0.15-0.04,0.35-0.24,0.36-0.37c0.03-1.07,0.02-2.15,0.02-3.22c-0.76,0-1.45,0-2.15,0
		C42.66,28.96,42.66,30.26,42.66,31.61z"/>
	<path class="st1" d="M22,31.91c0.31,0,0.55,0,0.79,0c2.19,0,4.39,0,6.58,0c0.93,0,1.32,0.41,1.31,1.33
		c-0.03,4.54-3.6,8.67-8.1,9.39c-6.24,0.99-11.68-3.81-11.44-10.1c0.19-5.02,4.47-9.23,9.45-9.31c1.01-0.02,1.4,0.36,1.4,1.38
		c0,2.17,0,4.34,0,6.52C22,31.36,22,31.6,22,31.91z M14.81,37.55c1.65-1.65,3.24-3.23,4.81-4.82c0.1-0.1,0.19-0.27,0.19-0.41
		c0.01-2.26,0.01-4.52,0.01-6.86c-2.7,0.5-4.66,1.88-5.79,4.3C12.79,32.44,13.12,35.02,14.81,37.55z M28.45,34.08
		c-2.35,0-4.58,0-6.82,0.01c-0.14,0-0.32,0.06-0.42,0.16c-1.6,1.59-3.2,3.18-4.86,4.84c2.33,1.59,4.74,1.99,7.31,0.98
		C26.33,39.01,27.87,37,28.45,34.08z"/>
	<path class="st2" d="M18.74,51.47c-2.08,0-4.16,0-6.25,0c-0.97,0-1.35-0.38-1.35-1.36c-0.01-1.29-0.01-2.58,0-3.87
		c0.01-0.89,0.4-1.28,1.29-1.29c4.21-0.01,8.42-0.01,12.63,0c0.89,0,1.28,0.4,1.29,1.29c0.01,1.31,0.01,2.63,0,3.94
		c-0.01,0.89-0.4,1.28-1.29,1.29C22.95,51.48,20.84,51.47,18.74,51.47z M13.34,49.26c3.61,0,7.19,0,10.79,0c0-0.72,0-1.41,0-2.09
		c-3.62,0-7.21,0-10.79,0C13.34,47.89,13.34,48.56,13.34,49.26z"/>
	<path class="st2" d="M29.6,29.74c-1.38,0-2.76,0.01-4.14,0c-0.89-0.01-1.29-0.4-1.29-1.28c-0.01-2.76-0.01-5.52,0-8.28
		c0-0.92,0.41-1.31,1.33-1.3c5.05,0.02,9.49,4.45,9.52,9.51c0.01,0.95-0.39,1.35-1.36,1.35C32.32,29.74,30.96,29.74,29.6,29.74z
		 M26.36,27.56c2,0,3.94,0,5.88,0c0.16,0,0.31-0.02,0.47-0.03c-0.29-3.61-3.93-6.35-6.35-6.28C26.36,23.32,26.36,25.39,26.36,27.56z
		"/>
	<path class="st0" d="M48.08,35.17c7.73-0.02,14.11,6.34,14.12,14.06c0.01,7.78-6.28,14.16-14,14.18
		c-7.92,0.02-14.24-6.27-14.25-14.2C33.94,41.52,40.3,35.19,48.08,35.17z M55.7,44.95c0.27,0,0.47,0,0.67,0
		c1.15,0.01,1.48,0.34,1.48,1.5c0,1.18,0,2.35,0,3.53c0,1.15-0.34,1.49-1.5,1.49c-4.75,0-9.5,0-14.25,0c-0.88,0-1.76,0.01-2.65-0.01
		c-0.7-0.02-1.14-0.41-1.15-1.08c-0.03-1.45-0.02-2.9,0-4.34c0.01-0.67,0.44-1.06,1.14-1.09c0.33-0.01,0.66,0,0.97,0
		c0-1.63,0-3.18,0-4.75c-3.81,2.74-5.43,9.15-3.42,13.42c7.38,0,14.78,0,22.16,0c2.21-5.13-0.13-11.13-3.45-13.37
		C55.7,41.8,55.7,43.33,55.7,44.95z M58.07,55.86c-6.72,0-13.29,0-19.99,0c2.49,3.48,5.75,5.35,9.93,5.37
		C52.23,61.25,55.54,59.38,58.07,55.86z M40.5,49.25c5.08,0,10.11,0,15.12,0c0-0.73,0-1.42,0-2.09c-5.07,0-10.08,0-15.12,0
		C40.5,47.86,40.5,48.53,40.5,49.25z M49.12,44.92c0-2.53,0-5,0-7.51c-0.72,0-1.41,0-2.1,0c0,2.54,0,5.01,0,7.51
		C47.73,44.92,48.4,44.92,49.12,44.92z M51.37,37.78c0,2.47,0,4.79,0,7.12c0.72,0,1.41,0,2.14,0c0-2.01,0.01-3.97-0.01-5.93
		c0-0.15-0.15-0.38-0.3-0.45C52.63,38.26,52.04,38.05,51.37,37.78z M44.79,44.92c0-2.37,0-4.69,0-7.14
		c-0.69,0.28-1.31,0.52-1.92,0.8c-0.11,0.05-0.21,0.24-0.21,0.37c-0.01,1.98-0.01,3.97-0.01,5.98
		C43.38,44.92,44.05,44.92,44.79,44.92z"/>
</g>
</svg>
