<?xml version="1.0" encoding="utf-8"?>
<!-- Generator: Adobe Illustrator 24.0.0, SVG Export Plug-In . SVG Version: 6.00 Build 0)  -->
<svg version="1.1" id="Capa_1" xmlns="http://www.w3.org/2000/svg" xmlns:xlink="http://www.w3.org/1999/xlink" x="0px" y="0px"
	 viewBox="0 0 200 200" style="enable-background:new 0 0 200 200;" xml:space="preserve">
<style type="text/css">
	.st0{fill:#FE9900;}
	.st1{fill:#1C3247;}
	.st2{fill:#ACAEAF;}
</style>
<g>
	<path class="st0" d="M138.9,124.5c-12.3,0-22.2-10-22.1-22.2c0-12.3,10-22.2,22.3-22.1c12.2,0.1,22.1,10.1,22,22.3
		C161,114.7,151.1,124.5,138.9,124.5z M138.9,119.9c9.7,0,17.6-7.9,17.6-17.6c0-9.7-7.9-17.6-17.6-17.7c-9.7,0-17.7,7.9-17.7,17.7
		C121.3,112,129.2,119.9,138.9,119.9z"/>
	<path class="st1" d="M119.5,87.9c-0.6,0.8-1,1.5-1.6,2c-0.9,0.6-1.8,0.4-2.6-0.2c-2.6-1.8-5.4-3.3-8.4-4.2
		c-12.1-3.6-23.2-1.9-33,6.4c-3.1,2.6-5.8,5.6-8.8,8.2c-2.5,2.2-5.3,4.1-8,6.1c-1.3,1-2.8,0.7-3.5-0.4c-0.7-1.1-0.4-2.4,0.9-3.3
		c5.4-3.6,10.2-7.9,14.8-12.5c8.5-8.4,18.9-11.6,30.7-10.6c6.5,0.6,12.4,2.7,17.8,6.4C118.4,86.3,118.8,87.1,119.5,87.9z"/>
	<path class="st2" d="M95.8,58.2c-9.9,0.1-19.2,2.3-27.9,6.9c-0.2,0.1-0.4,0.2-0.6,0.3c-1.3,0.6-2.6,0.2-3.2-0.9
		c-0.6-1.1-0.3-2.5,1-3.1c2.2-1.1,4.4-2.3,6.7-3.2c18.5-7.1,36.6-6.2,54.3,2.8c0.4,0.2,0.9,0.5,1.3,0.9c0.7,0.8,0.7,2,0.1,2.8
		c-0.7,0.9-1.8,1.1-3,0.6c-2.6-1.2-5.2-2.5-7.9-3.5C109.9,59.3,103,58.2,95.8,58.2z"/>
	<path class="st2" d="M97.6,96.1c4.6-0.2,9.6,2.4,13.8,6.7c1,1,1,2.3,0.1,3.3c-0.9,1-2.2,1-3.3,0c-0.5-0.4-1-0.8-1.4-1.3
		c-6.2-6.1-17.7-5-22.9,0.6c-6.7,7.3-14.6,13.3-23.2,18.3c-0.2,0.1-0.4,0.2-0.6,0.3c-1.3,0.6-2.6,0.3-3.2-0.8
		c-0.6-1.1-0.3-2.3,0.9-3.1c1.4-0.9,2.8-1.7,4.1-2.5c6.8-4.4,13.1-9.5,18.7-15.3C84.9,98,90.1,96.2,97.6,96.1z"/>
	<path class="st1" d="M105.9,67.6c-1.6-0.2-2.8-0.4-4-0.5c-10.6-1.2-20.6,0.6-30.1,5.6c-4.4,2.3-8.3,5.3-11.7,8.9
		c-0.8,0.8-1.6,1.3-2.7,0.9c-1.7-0.5-2.1-2.6-0.7-3.9c2.9-2.5,5.6-5.2,8.8-7.3c12.1-8,25.5-10.5,39.7-8.3c0.8,0.1,1.8,0.6,2.3,1.2
		c0.4,0.5,0.3,1.6,0,2.3C107.1,67,106.2,67.4,105.9,67.6z"/>
	<path class="st2" d="M106.8,122.5c-0.6,0.7-1,1.5-1.6,1.9c-0.9,0.6-1.8,0.3-2.6-0.4c-1.9-1.8-3.9-3.5-5.7-5.3c-0.8-0.7-1.2-0.7-2,0
		c-8.3,7.1-16.7,14.2-26,20c-0.2,0.1-0.5,0.3-0.7,0.4c-1.2,0.7-2.5,0.3-3.2-0.8c-0.7-1.1-0.3-2.3,0.9-3.2c3.9-2.7,8-5.3,11.8-8.3
		c5-3.9,9.9-8.1,14.8-12.2c2.2-1.8,4.9-1.8,7,0.1c2.1,1.9,4.1,3.8,6.1,5.7C106,121,106.3,121.7,106.8,122.5z"/>
	<path class="st2" d="M95.5,104.7c4,0,7.1,1.2,9.7,3.9c6.8,7.1,14.5,13.1,22.9,18.1c0.2,0.1,0.5,0.3,0.7,0.4
		c1.2,0.8,1.5,2.1,0.8,3.2c-0.7,1.1-2,1.4-3.2,0.7c-3-1.9-5.9-3.7-8.8-5.7c-5.7-4-10.9-8.5-15.7-13.4c-2.7-2.7-6.3-3.3-9.9-1.8
		c-0.7,0.3-1.7,0.4-2.4,0.1c-1.6-0.7-1.6-3-0.1-3.9C91.5,105,93.6,104.7,95.5,104.7z"/>
	<path class="st1" d="M97.1,75.2c-5.4,0.1-9.5,0.6-13.5,1.8c-0.2,0.1-0.5,0.1-0.7,0.2c-1.4,0.3-2.6-0.3-2.9-1.5
		c-0.4-1.2,0.3-2.5,1.6-2.8c2.3-0.6,4.6-1.3,6.9-1.6c11.2-1.6,21.7,0.2,31.5,5.9c0.4,0.3,0.9,0.5,1.3,0.8c1.2,0.8,1.6,2.2,0.9,3.3
		c-0.7,1.1-2,1.4-3.3,0.6c-3.1-2-6.4-3.6-9.9-4.6c-1.8-0.5-3.6-1-5.5-1.3C101,75.5,98.4,75.3,97.1,75.2z"/>
	<path class="st2" d="M96,140.9c-4.7,3.2-9.2,6.4-13.8,9.6c-0.4,0.2-0.7,0.5-1.1,0.6c-1,0.4-2.2,0-2.8-0.9c-0.6-0.9-0.4-2,0.4-2.8
		c0.3-0.3,0.6-0.5,1-0.7c4.5-3.2,9-6.4,13.4-9.7c2.2-1.6,3.3-1.6,5.5,0c4.5,3.3,9,6.5,13.5,9.7c0.1,0.1,0.3,0.2,0.4,0.3
		c1.3,0.9,1.6,2.1,0.9,3.3c-0.7,1.1-2,1.4-3.3,0.6c-2-1.3-4-2.5-5.9-3.9C101.4,145,98.7,142.9,96,140.9z"/>
	<path class="st2" d="M95.9,129.6c-1,0.9-1.9,1.7-2.8,2.4c-1.2,1-2.5,0.9-3.4-0.1c-0.9-1-0.7-2.3,0.4-3.3c0.9-0.8,1.8-1.6,2.8-2.4
		c2-1.8,3.9-1.8,5.9,0c4.9,4.4,10,8.4,15.5,12c1.9,1.2,3.8,2.4,5.7,3.6c0.9,0.6,1.4,1.3,1.2,2.4c-0.2,1-0.8,1.7-1.8,1.8
		c-0.7,0.1-1.5-0.2-2.1-0.5c-7.3-4.2-14-9.2-20.4-14.8C96.7,130.2,96.3,129.9,95.9,129.6z"/>
	<path class="st1" d="M95.9,87.5c2.2,0.3,4.4,0.5,6.5,0.9c1.4,0.2,2.1,1.4,1.8,2.7c-0.2,1.3-1.4,2-2.8,1.8c-0.4-0.1-0.8-0.2-1.3-0.2
		c-7.7-1.1-14.8,0.4-20.8,5.7c-1.2,1-2.2,2.2-3.4,3.3c-1.2,1.2-2.6,1.3-3.5,0.3c-1-1-0.9-2.3,0.3-3.5c3-3.1,6.1-6,10.1-7.8
		C87.1,88.6,91.4,87.6,95.9,87.5z"/>
	<path class="st2" d="M62.6,132.4c-1.3-0.1-2.1-0.6-2.3-1.6c-0.3-1.1,0-2,0.9-2.6c0.9-0.6,1.9-1.1,2.8-1.7c5.4-3.3,10.5-7,15.3-11.1
		c0.4-0.4,0.9-0.8,1.5-0.9c1.1-0.3,1.9,0.1,2.5,1.1c0.6,1,0.4,2.1-0.6,2.9c-2,1.7-3.9,3.4-6,4.9c-4.1,2.9-8.4,5.6-12.6,8.4
		C63.6,132.1,63,132.2,62.6,132.4z"/>
	<path class="st1" d="M73,76.6c0.7,0.6,1.4,1,1.9,1.7c0.5,0.8,0.3,1.8-0.5,2.5c-0.3,0.3-0.8,0.5-1.1,0.8c-2.2,1.8-4.5,3.5-6.7,5.4
		c-3.2,2.8-6.3,5.6-9.4,8.5c-0.8,0.8-1.8,1-2.8,0.3c-1.2-0.7-1.6-2.6-0.5-3.4C59.7,88,64.2,81.9,70.5,78C71.2,77.5,72,77.2,73,76.6z
		"/>
	<path class="st2" d="M105.8,50.1c-4.6-0.1-9.2-0.2-13.8-0.2c-1.9,0-3.8,0.3-5.8,0.5c-1.6,0.1-2.7-0.7-2.8-2
		c-0.1-1.3,0.8-2.3,2.4-2.5c6.6-0.9,13.3-0.9,19.9,0c0.3,0,0.5,0.1,0.8,0.1c1.2,0.3,1.9,1.3,1.7,2.6c-0.2,1.2-1.2,2-2.5,1.9
		C105.8,50.3,105.8,50.2,105.8,50.1z"/>
	<path class="st2" d="M127.9,77.6c-0.3-0.2-0.9-0.3-1.3-0.7c-3.7-2.9-7.8-5.1-12.2-6.8c-1.5-0.6-2.1-1.8-1.6-3.1
		c0.5-1.2,1.7-1.7,3.1-1.2c4.9,1.8,9.4,4.4,13.5,7.6c0.9,0.7,1.3,1.6,0.9,2.7C130,77.1,129.2,77.5,127.9,77.6z"/>
	<path class="st2" d="M124.7,139.6c-0.3-0.1-0.8-0.3-1.3-0.5c-3.7-2.4-7.3-4.7-11-7.2c-1.2-0.8-1.5-2.2-0.7-3.3
		c0.8-1,2.1-1.2,3.2-0.5c3.7,2.4,7.3,4.8,11,7.1c1,0.6,1.3,1.6,1,2.7C126.7,139,125.9,139.4,124.7,139.6z"/>
	<path class="st2" d="M103.9,152.4c-0.2,1.9-2.1,3-3.7,2.1c-1.1-0.6-2.1-1.4-3.1-2.2c-0.8-0.7-1.5-0.7-2.4,0c-0.9,0.7-1.9,1.4-2.9,2
		c-1.2,0.8-2.6,0.6-3.3-0.5c-0.7-1.1-0.4-2.4,0.8-3.3c1.2-0.8,2.3-1.7,3.5-2.4c2-1.3,4.1-1.4,6.1-0.1c1.3,0.8,2.6,1.7,3.8,2.7
		C103.2,151.1,103.5,151.9,103.9,152.4z"/>
	<path class="st2" d="M81.9,135.3c1.2,0.1,2,0.6,2.4,1.6c0.3,1,0,2-0.9,2.6c-1.7,1.2-3.5,2.4-5.3,3.6c-1.3,0.9-2.7,1.7-4,2.5
		c-1.3,0.8-2.6,0.5-3.3-0.7c-0.7-1.1-0.3-2.4,1-3.2c2.9-1.9,5.9-3.8,8.8-5.7C81.1,135.6,81.6,135.4,81.9,135.3z"/>
	<path class="st2" d="M67.4,108.2c-0.5,0.8-0.8,1.5-1.3,1.9c-2.7,1.9-5.4,3.7-8.1,5.5c-1.2,0.8-2.6,0.4-3.3-0.7
		c-0.7-1.1-0.3-2.3,0.9-3.2c2.6-1.7,5.2-3.5,7.7-5.2c0.8-0.6,1.7-0.8,2.5-0.2C66.4,106.7,66.8,107.5,67.4,108.2z"/>
	<path class="st0" d="M134.6,106.2c0.4-0.4,0.8-0.7,1.1-1c3.4-3.4,6.8-6.9,10.3-10.3c1.1-1.1,2.4-1.2,3.4-0.3c1.1,1,1,2.3-0.2,3.5
		c-2.5,2.5-5,5-7.4,7.4c-1.2,1.2-2.3,2.4-3.5,3.5c-2.1,2.1-4.9,2.1-7.1,0c-1.4-1.3-2.7-2.7-4-4c-1.1-1.1-1.1-2.4-0.2-3.4
		c1-1,2.3-0.9,3.4,0.1C131.8,103.2,133.2,104.7,134.6,106.2z"/>
</g>
</svg>
