<?xml version="1.0" encoding="utf-8"?>
<!-- Generator: Adobe Illustrator 24.0.0, SVG Export Plug-In . SVG Version: 6.00 Build 0)  -->
<svg version="1.1" id="Capa_1" xmlns="http://www.w3.org/2000/svg" xmlns:xlink="http://www.w3.org/1999/xlink" x="0px" y="0px"
	 viewBox="0 0 200 200" style="enable-background:new 0 0 200 200;" xml:space="preserve">
<style type="text/css">
	.st0{fill:#ACAEAF;}
	.st1{fill:#FE9900;}
</style>
<g>
	<path class="st0" d="M190.8,131.8c-0.9,0.7-1.7,1.7-2.7,2c-21.1,7.7-42.3,15.4-63.4,23.1c-1.6,0.6-2.2,1.3-2.5,3
		c-1.2,10-8.2,17.3-18.1,19.2c-8.6,1.7-17.6-2.4-22.7-10.4c-4.5-7-4.2-17,0.7-23.9c0.5-0.7,0.9-1.6,1.6-2.1c2.1-1.4,1.7-3,1-5.1
		C72.8,105,61,72.4,49.1,39.8c-0.2-0.7-0.5-1.3-0.8-2.1c-5,1.8-9.8,3.5-14.7,5.3c-5.3,1.9-10.6,3.8-16,5.8c-2.6,0.9-3.6,0.4-4.6-2.2
		c-1.1-2.9-2.1-5.7-3.2-8.6c-0.7-2.1-0.2-3.3,1.9-4c11.1-4,22.1-8.1,33.2-12c7.8-2.7,14.8,0.8,17.7,8.6
		c11.9,32.7,23.8,65.4,35.7,98.1c0.6,1.7,1.1,3.5,1.9,5.1c0.3,0.6,1,1.2,1.7,1.3c1.4,0.4,2.9,0.5,4.6,0.7c-0.2-0.6-0.4-1.2-0.6-1.8
		c-9.9-27.2-19.8-54.5-29.7-81.7c-1.1-2.9-0.6-3.9,2.3-5c19.2-7,38.4-14,57.6-21c3-1.1,3.9-0.6,5,2.2c1.3,3.7,2.7,7.3,4,11
		c0.1,0.4,0.3,0.8,0.4,1.2c0.4,1.7-0.2,3-1.6,3.4c-1.4,0.5-2.7-0.1-3.4-1.7c-1.1-2.9-2.1-5.7-3.2-8.6c-0.2-0.6-0.4-1.2-0.7-2
		c-6.1,2.2-12.1,4.4-18.3,6.6c1.2,3.4,2.4,6.7,3.6,9.9c0.9,2.6,0.4,3.7-2.2,4.6c-3.9,1.4-7.7,2.8-11.6,4.2c-2.5,0.9-3.6,0.4-4.5-2.1
		c-1.2-3.3-2.4-6.5-3.7-10C94,47.5,88,49.7,81.8,52c4.6,12.7,9.2,25.4,13.9,38.3c18.3-6.7,36.5-13.3,54.9-20
		c-2-5.5-3.9-10.9-5.9-16.3c-0.2-0.6-0.4-1.1-0.5-1.7c-0.2-1.4,0.4-2.4,1.8-2.9c1.3-0.4,2.3,0,3,1.1c0.3,0.5,0.5,1.2,0.8,1.8
		c8.2,22.5,16.3,44.9,24.5,67.4c0.2,0.6,0.5,1.2,0.8,1.9c2.6-0.9,5.2-1.9,7.7-2.8c2.6-0.9,3.6-0.5,4.6,2.1c1.2,3,2.3,6,3.5,9
		C190.8,130.6,190.8,131.2,190.8,131.8z M115.8,88.5c-6.2,2.3-12.2,4.5-18.2,6.7c0.3,0.8,0.4,1.4,0.6,1.9
		c4.8,13.1,9.6,26.1,14.2,39.2c0.8,2.1,1.7,3.9,3.4,5.4c0.9,0.8,1.5,0.9,2.6,0.5c13.7-5,27.3-10,41-14.9c3.5-1.3,6.9-2.5,10.5-3.8
		c-5.9-16.1-11.7-32.1-17.6-48.2c-6.2,2.2-12.2,4.4-18.3,6.7c1.3,3.5,2.5,6.8,3.6,10.1c0.8,2.4,0.3,3.5-2.1,4.4
		c-3.9,1.4-7.7,2.8-11.6,4.2c-2.6,1-3.7,0.4-4.7-2.3C118.2,95.1,117.1,91.9,115.8,88.5z M17.5,43.2c0.7-0.2,1.2-0.4,1.8-0.6
		c9.6-3.5,19.2-6.9,28.8-10.4c2.8-1,3.8-0.6,4.8,2.2c12.3,33.6,24.5,67.3,36.7,100.9c0.3,0.7,0.5,1.4,0.8,2.1
		c1.7-0.6,3.3-1.2,4.9-1.8c-0.2-0.5-0.3-1-0.5-1.5C82.4,100.3,70.1,66.5,57.8,32.7c-2-5.6-6-7.5-11.6-5.5
		c-9.6,3.5-19.3,6.9-28.9,10.4c-0.5,0.2-1,0.4-1.6,0.7C16.3,40,16.9,41.6,17.5,43.2z M100.3,140.5c-9.1,0-16.8,7.5-16.8,16.4
		c0,9.6,7.4,17.1,16.7,17.2c9.1,0,16.9-7.7,16.9-16.5C117.1,148,109.7,140.5,100.3,140.5z M184.8,129.4c-0.6-1.7-1.2-3.3-1.8-5
		c-21,7.7-41.9,15.2-62.8,22.8c0.6,1.8,1.2,3.3,1.8,5C142.9,144.6,163.8,137,184.8,129.4z M108.1,51.8c2.8-1,5.5-2,8.3-3
		c-1-2.8-2-5.5-3-8.3c-2.8,1-5.5,2-8.3,3C106.1,46.3,107.1,49,108.1,51.8z M123.8,95c2.9-1.1,5.6-2,8.3-3.1c-1-2.8-2-5.5-3-8.3
		c-2.8,1-5.5,2-8.2,3c0.2,0.6,0.3,1,0.4,1.4C122.1,90.3,123,92.6,123.8,95z"/>
	<path class="st0" d="M100.4,149.4c-4.5,0-8,3.5-8,7.9c0,4.4,3.6,8,8,8c4.3-0.1,7.9-3.6,7.9-7.9C108.4,153,104.8,149.4,100.4,149.4z
		"/>
	<path class="st1" d="M100.4,149.4c4.4,0,8,3.6,7.9,8c0,4.3-3.6,7.8-7.9,7.9c-4.4,0.1-8-3.5-8-8C92.4,152.9,95.9,149.4,100.4,149.4z
		"/>
</g>
</svg>
