<?xml version="1.0" encoding="utf-8"?>
<!-- Generator: Adobe Illustrator 24.0.0, SVG Export Plug-In . SVG Version: 6.00 Build 0)  -->
<svg version="1.1" id="Capa_1" xmlns="http://www.w3.org/2000/svg" xmlns:xlink="http://www.w3.org/1999/xlink" x="0px" y="0px"
	 viewBox="0 0 200 200" style="enable-background:new 0 0 200 200;" xml:space="preserve">
<style type="text/css">
	.st0{fill:#ACAEAF;}
	.st1{fill:#1C3247;}
	.st2{fill:#FE9900;}
</style>
<g>
	<path class="st0" d="M151.8,80.9c1.9,0.2,3.7,0.3,5.5,0.7c4.2,0.9,7.6,3.1,10.4,6.4c1.3,1.5,2.6,3.1,3.9,4.6
		c2.5,2.9,5.7,4.4,9.5,4.6c2.1,0.1,3.3,1.1,3.2,2.8c-0.1,1.7-1.3,2.6-3.5,2.5c-5.3-0.3-9.7-2.4-13.2-6.3c-1.2-1.4-2.4-2.8-3.6-4.2
		c-3-3.8-6.9-5.5-11.8-5.6c-2.7-0.1-4.3,0.7-5.5,3.2c-2.3,4.5-5,8.8-7.6,13.4c0.3,0.2,0.5,0.3,0.7,0.4c3.6,1.9,5.4,5.3,4.6,9
		c-0.9,3.9-4,6.4-8.3,6.4c-9.3,0-18.5,0-27.8,0c-1.2,0-2.5,0.3-3.5,0.8c-2.3,1.1-3.4,3.5-2.9,5.7c0.6,2.5,2.6,4.1,5.1,4.3
		c0.5,0,1,0,1.5,0c10.1,0,20.2,0,30.3,0c4.3,0,8.3,0.8,12.1,2.9c3.4,1.8,6.9,2.6,10.8,2.6c5.7-0.1,11.4,0,17.1,0
		c2.1,0,3.3,1,3.4,2.7c0,1.7-1.2,2.7-3.3,2.7c-6.2,0-12.4,0-18.6,0c-3.8,0-7.4-0.9-10.8-2.7c-3.7-2-7.6-2.8-11.7-2.7
		c-5.2,0.1-10.4,0.1-15.6,0c-1,0-1.7,0.2-2.1,1.2c-2.8,6.4-7.4,11.3-13,15.4c-3.3,2.3-6.3,5.1-9.3,7.6c-1.2,1-2.4,1.5-3.8,0.7
		c-1.4-0.8-1.3-2.2-1.1-3.6c1.3-7.5,2.5-15,3.7-22.3c-2.2-0.5-4.4-0.6-6.5-1.4c-5.3-2-7.1-7.2-4.3-12.2c5.3-9.4,10.7-18.7,16.1-28.1
		c4.3-7.4,10.8-11.1,19.3-11.2c1.9,0,4.2,0.5,5.7-0.4c1.4-0.8,2-3.1,3-4.7c6.3-11,12.6-22,19-33c4.1-7.1,13.6-7.6,18.2-1.1
		c2.7,3.9,2.7,7.9,0.3,12c-4.8,8.4-9.7,16.9-14.5,25.3C152.4,79.8,152.1,80.3,151.8,80.9z M114.4,113.4c3.8,0,7.2-0.1,10.7,0
		c1.3,0,2-0.4,2.6-1.5c8.7-15.1,17.4-30.2,26.1-45.3c0.3-0.6,0.6-1.1,1-1.8c-3.1-1.8-6.1-3.5-9.2-5.3
		C135.2,77.4,124.9,95.2,114.4,113.4z M123.6,86.6c-8.1-0.6-14.1,2.3-17.8,9.4c-0.9,1.8-2,3.5-3,5.2c-4.1,7.2-8.3,14.5-12.4,21.7
		c-0.8,1.3-1.1,2.6,0.1,3.8c1.3,1.4,4.5,1.9,6.4,1c-1.8-7.9,2.4-13.5,10.6-14.4c0.6-0.1,1.2-0.7,1.5-1.2c4.7-8,9.3-16.1,13.9-24.1
		C123.1,87.6,123.3,87.2,123.6,86.6z M157.5,60.1c1.9-3.4,3.9-6.6,5.6-10c1.2-2.5,0-5.4-2.4-6.7c-2.4-1.3-5.4-0.7-6.8,1.6
		c-2,3.2-3.8,6.4-5.7,9.7C151.3,56.6,154.3,58.3,157.5,60.1z M99,150.3c0.1,0.1,0.3,0.1,0.4,0.2c3.4-2.8,7-5.4,10.1-8.5
		c2-1.9,3.3-4.6,5.1-7c-4.3-0.2-8.1-0.4-12.5-0.7C100.4,139.3,100.3,144.9,99,150.3z M133,113.4c1.4,0,2.6,0.1,3.7,0
		c1.4-0.1,2.2-1,2.4-2.4c0.1-1.4-0.7-2.3-2-2.7c-0.4-0.1-1.1,0.1-1.3,0.4C134.8,110.1,134,111.6,133,113.4z"/>
	<path class="st0" d="M139.2,24.8c-26.9,0-53.5,0-80.4,0c0,0.6,0,1.2,0,1.8c0,8,0,16,0,24c0,4.3-2,6.3-6.4,6.3c-7.9,0-15.9,0-23.8,0
		c-0.6,0-1.2,0-1.9,0c0,39.4,0,78.7,0,118.1c37.4,0,74.8,0,112.5,0c0-0.5,0-1.1,0-1.7c0-9.7,0-19.5,0-29.2c0-0.5,0-1,0-1.5
		c0.3-1.4,1.2-2.3,2.6-2.3c1.5,0,2.3,0.9,2.6,2.3c0,0.2,0,0.3,0,0.5c0,11.5,0,23.1,0,34.6c0,1.8-1.1,2.8-2.8,2.9c-0.4,0-0.8,0-1.2,0
		c-38.4,0-76.8,0-115.3,0c-3.3,0-4-0.7-4-4c0-40.3,0-80.6,0-120.9c0-1.7,0.5-2.9,1.7-4.1c10.2-10.2,20.4-20.4,30.6-30.6
		c1.1-1.1,2.3-1.6,3.8-1.6c27.8,0,55.6,0,83.4,0c2.9,0,3.7,0.8,3.7,3.8c0,7.3,0,14.7,0,22c0,0.3,0,0.6,0,0.8
		c-0.1,1.7-1.1,2.9-2.6,2.9c-1.6,0-2.7-1.1-2.7-3c0-6.3,0-12.6,0-19C139.2,26.3,139.2,25.6,139.2,24.8z M53.3,29.3
		c-7.4,7.5-14.8,15-22,22.2c7,0,14.5,0,22,0C53.3,43.9,53.3,36.5,53.3,29.3z"/>
	<path class="st1" d="M64.6,63.5c1.1-1.2,2.7-2.8,4.3-4.4c1.4-1.4,3-1.6,4.1-0.5c1.2,1.1,1.1,2.8-0.3,4.3c-2.5,2.6-5.2,5.1-7.7,7.7
		c-0.5,0.5-0.9,1.4-0.9,2.2c-0.1,4.3,0,8.6,0,12.9c0,2.5-0.9,3.5-3.4,3.5c-6.7,0-13.4,0-20.1,0c-2.4,0-3.3-1-3.3-3.4
		c0-6.7,0-13.4,0-20.1c0-2.4,0.9-3.4,3.3-3.4c6.6,0,13.2-0.1,19.8,0C61.6,62.4,62.9,63,64.6,63.5z M50.8,77.2c2.5-2.5,5-4.9,7.3-7.4
		c0.4-0.4,0.5-1.2,0.8-2c-5.6,0-10.9,0-16.2,0c0,1.1,0,2,0,2.8C46.4,71.8,47.9,75.2,50.8,77.2z M42.7,83.7c2.3,0,4.5,0,6,0
		c-1.8-1.9-3.8-4.2-6-6.5C42.7,79.4,42.7,81.5,42.7,83.7z M58.7,77.2c-2.3,2.3-4.4,4.5-6.4,6.5c2,0,4.2,0,6.4,0
		C58.7,81.5,58.7,79.4,58.7,77.2z"/>
	<path class="st2" d="M64,101.8c1.7-1.8,3.3-3.4,4.9-5.1c1.5-1.5,3.1-1.6,4.2-0.4c1.1,1.2,1,2.7-0.4,4.1c-2.5,2.6-5.2,5.1-7.7,7.7
		c-0.5,0.5-0.9,1.4-0.9,2.2c-0.1,4.3,0,8.6,0,12.9c0,2.5-0.9,3.5-3.4,3.5c-6.7,0-13.4,0-20.1,0c-2.4,0-3.3-0.9-3.3-3.4
		c0-6.7,0-13.4,0-20.1c0-2.5,0.9-3.4,3.5-3.4c6.6,0,13.2,0,19.7,0C62,99.9,63.2,100.2,64,101.8z M50.9,114.8
		c2.5-2.5,4.9-4.9,7.3-7.4c0.4-0.4,0.5-1.2,0.8-2c-5.6,0-10.9,0-16.2,0c0,1.1,0,2,0,2.8C46.4,109.3,47.9,112.8,50.9,114.8z
		 M48.8,121.4c-1.9-2-3.9-4.3-6.1-6.6c0,2.3,0,4.4,0,6.6C45,121.4,47.2,121.4,48.8,121.4z M58.6,121.4c0-2.2,0-4.3,0-6.4
		c-2.1,2.1-4.3,4.3-6.4,6.4C54.2,121.4,56.3,121.4,58.6,121.4z"/>
	<path class="st0" d="M64,139.4c1.7-1.8,3.3-3.4,4.9-5.1c1.5-1.5,3.1-1.6,4.2-0.4c1.1,1.2,0.9,2.7-0.5,4.1c-2.5,2.6-5.2,5.1-7.7,7.7
		c-0.5,0.5-0.9,1.4-0.9,2.2c-0.1,4.3,0,8.6,0,12.9c0,2.5-0.9,3.5-3.4,3.5c-6.7,0-13.4,0-20.1,0c-2.4,0-3.3-0.9-3.3-3.4
		c0-6.7,0-13.4,0-20.1c0-2.4,0.9-3.4,3.3-3.4c6.6,0,13.3,0,19.9,0C62,137.5,63.2,137.8,64,139.4z M58.9,143c-5.7,0-10.9,0-16.2,0
		c0,1.1,0,2,0,2.9c3.7,1.1,5.1,4.7,8.1,6.5c2.5-2.5,5-4.9,7.4-7.5C58.6,144.5,58.7,143.8,58.9,143z M48.8,159
		c-1.9-2.1-4-4.3-6.1-6.5c0,2.2,0,4.4,0,6.5C45,159,47.2,159,48.8,159z M58.7,152.2c-2.4,2.4-4.5,4.6-6.6,6.7c2.1,0,4.3,0,6.6,0
		C58.7,156.7,58.7,154.7,58.7,152.2z"/>
	<path class="st0" d="M101.6,40.8c-9.4,0-18.9,0-28.3,0c-0.5,0-1,0-1.5,0c-1.4-0.3-2.3-1.2-2.3-2.6c0-1.5,0.9-2.4,2.3-2.6
		c0.5-0.1,1,0,1.5,0c18.9,0,37.8,0,56.6,0c0.5,0,1,0,1.5,0c1.4,0.3,2.3,1.2,2.3,2.6c0,1.5-0.9,2.4-2.3,2.6c-0.5,0.1-1,0-1.5,0
		C120.5,40.8,111.1,40.8,101.6,40.8z"/>
	<path class="st0" d="M101.5,51.6c-9.3,0-18.7,0-28,0c-0.5,0-1,0-1.5,0c-1.5-0.1-2.5-1.2-2.5-2.6c0-1.4,1-2.5,2.5-2.7
		c0.4,0,0.8,0,1.2,0c19,0,38,0,57,0c0.4,0,0.9,0,1.3,0c1.4,0.3,2.3,1.1,2.3,2.6c0,1.5-0.8,2.4-2.3,2.7c-0.5,0.1-1.1,0-1.7,0
		C120.4,51.6,110.9,51.6,101.5,51.6z"/>
	<path class="st1" d="M101.5,73.1c-7.6,0-15.2,0-22.8,0c-0.5,0-1,0-1.5,0c-1.4-0.3-2.3-1.2-2.3-2.6c0-1.5,0.9-2.4,2.3-2.6
		c0.5-0.1,1.1,0,1.7,0c15.2,0,30.4,0,45.6,0c0.6,0,1.1-0.1,1.7,0c1.4,0.3,2.3,1.2,2.3,2.6c0,1.5-0.9,2.4-2.3,2.6c-0.5,0.1-1,0-1.5,0
		C116.9,73.1,109.2,73.1,101.5,73.1z"/>
	<path class="st1" d="M90.8,83.8c-4.2,0-8.4,0-12.6,0c-2.1,0-3.3-1-3.4-2.7c0-1.7,1.2-2.7,3.3-2.7c8.5,0,17,0,25.5,0
		c2.1,0,3.4,1,3.4,2.6c0,1.7-1.2,2.7-3.3,2.7C99.4,83.8,95.1,83.8,90.8,83.8z"/>
	<path class="st0" d="M120.4,159c-3.4,0-6.7,0-10.1,0c-2.1,0-3.3-1-3.3-2.7c0-1.7,1.2-2.7,3.3-2.7c6.7,0,13.4,0,20.1,0
		c2.1,0,3.3,1,3.3,2.7c0,1.7-1.2,2.7-3.3,2.7C127.1,159.1,123.7,159,120.4,159z"/>
	<path class="st0" d="M83,148.3c-1.7,0-3.5,0-5.2,0c-1.8,0-3-1.1-3-2.7c0-1.6,1.2-2.6,3-2.6c3.4,0,6.7,0,10.1,0c1.8,0,3,1.1,3,2.7
		c0,1.6-1.2,2.6-3,2.6C86.2,148.3,84.6,148.3,83,148.3z"/>
	<path class="st0" d="M125.7,148.3c-1.7,0-3.4,0-5,0c-1.8,0-3-1.1-3-2.7c0-1.6,1.2-2.6,3-2.6c3.4,0,6.7,0,10.1,0c1.8,0,3,1.1,3,2.7
		c0,1.6-1.2,2.6-3,2.6C129.1,148.3,127.4,148.3,125.7,148.3z"/>
	<path class="st2" d="M81.5,105.3c1.3,0,2.7-0.1,4,0c1.6,0.1,2.7,1.2,2.7,2.7c0,1.5-1.1,2.6-2.7,2.7c-2.7,0.1-5.4,0.1-8,0
		c-1.6,0-2.7-1.2-2.7-2.7c0-1.5,1.1-2.6,2.7-2.7C78.8,105.3,80.2,105.3,81.5,105.3z"/>
	<path class="st0" d="M81.4,159c-1.3,0-2.6,0-3.9,0c-1.7-0.1-2.8-1.2-2.8-2.8c0-1.5,1.1-2.6,2.7-2.6c2.6-0.1,5.2-0.1,7.9,0
		c1.7,0,2.8,1.2,2.8,2.7c0,1.5-1.1,2.5-2.8,2.6C84.1,159.1,82.8,159,81.4,159z"/>
	<path class="st2" d="M78.8,121.4c-0.2,0-0.3,0-0.5,0c-2.3,0-3.5-1-3.5-2.7c0-1.7,1.2-2.7,3.5-2.7c0.6,0,1.1,0,1.7,0
		c1.7,0.1,2.8,1.2,2.8,2.7c0,1.5-1.1,2.6-2.8,2.7C79.6,121.4,79.2,121.4,78.8,121.4z"/>
</g>
</svg>
