<?xml version="1.0" encoding="utf-8"?>
<!-- Generator: Adobe Illustrator 24.0.0, SVG Export Plug-In . SVG Version: 6.00 Build 0)  -->
<svg version="1.1" id="Capa_1" xmlns="http://www.w3.org/2000/svg" xmlns:xlink="http://www.w3.org/1999/xlink" x="0px" y="0px"
	 viewBox="0 0 200 200" style="enable-background:new 0 0 200 200;" xml:space="preserve">
<style type="text/css">
	.st0{fill:#ACAEAF;}
	.st1{fill:#FE9900;}
	.st2{fill:#1C3247;}
</style>
<g>
	<path class="st0" d="M49.7,109c-2.3-0.9-4.5-1.7-6.5-2.8C25.1,97.4,14.5,77.7,17.4,58C20.5,37.7,35.9,21.7,56,18.6
		c17.9-2.6,32.5,3.2,43.9,17.1c0.8,0.9,1.5,1.4,2.9,1.4c5.7,0,11.2,0,16.9,0c3.4,0,6.2,1.2,8.6,3.5c7.2,7.2,14.5,14.5,21.7,21.7
		c2.5,2.5,3.7,5.4,3.7,8.9c0,20.3,0,40.8,0,61.1c0,1.4,0.3,2.3,1.4,3.2c7.2,7.2,14.5,14.3,21.7,21.6c7.5,7.7,4.9,20.2-5.1,23.7
		c-5.4,2-10.3,0.9-14.6-2.9c-1.2-1.1-2.3-2.5-3.7-4c-0.5,0.9-0.6,1.2-0.8,1.7c-2.2,4-5.4,6.2-9.9,6.2c-27.4,0-54.6,0-82,0
		c-6.3,0-10.9-4.9-10.9-11.4c0-19.9,0-39.7,0-59.6C49.7,110.4,49.7,109.7,49.7,109z M55.3,110.2c0,0.8,0,1.4,0,2
		c0,19.2,0,38.5,0,57.7c0,4.5,2,6.6,6.6,6.6c18.6,0,37.3,0,55.9,0c8.2,0,16.5,0,24.6,0c2.3,0,4.2-0.9,5.2-2.9c1.2-2,0.9-4-0.8-5.7
		c-2.3-2.3-4.6-4.5-6.8-6.8c-0.8-0.9-1.7-1.2-2.8-1.2c-4.5,0-8.9,0-13.5,0c0-1.8,0-3.5,0-5.5c3.2,0,6.3,0,9.7,0
		c-3.4-3.4-6.6-6.5-9.5-9.5c-0.9-0.9-1.8-1.4-3.1-1.2c-2.6,0.2-5.2,0-7.9,0c0-2,0-3.7,0-5.5c1.4,0,2.6,0,4.3,0
		c-2.3-2.3-4.5-4-6.2-6.2c-2.9-3.8-6.5-5.4-11.2-4.8c-2,0.3-4,0-5.8,0c0-2,0-3.5,0-5.5c2.3,0,4.5,0,6.8,0c-1.8-2.5-1.7-2.9,0.2-5.7
		c-1.1-1.1-2.2-2-3.2-3.1c-1.2-1.2-2.8-2.2-3.2-3.7c-1.1-2.8-3.4-4-5.1-6.2C78.6,109.9,67.4,112.2,55.3,110.2z M148.2,128.5
		c0-0.3,0-0.5,0-0.6c0-19.1,0-38,0-57.1c0-1.8-0.8-3.2-2-4.5c-6.2-6.2-12.5-12.5-18.6-18.6c-0.3-0.3-0.8-0.6-1.2-1.1
		c0,5.1,0,9.7,0,14.5c0,2.5,0.9,3.4,3.5,3.4c2.5,0,4.9,0,7.4,0c0,1.8,0,3.7,0,5.5c-2.6,0-4.9,0-7.4,0c-5.5,0-8.9-3.4-8.9-8.8
		c0-5.5,0-11.1,0-16.6c0-0.6,0-1.2,0-1.8c-5.5,0-10.8,0-16.3,0c5.8,11.4,6.9,23.2,3.4,35.6c2.6,0,4.9,0,7.4,0c0,1.8,0,3.5,0,5.4
		c-2.8,0-5.5,0-8.3,0c-0.5,0-1.2,0.3-1.5,0.8c-1.1,1.8-2,3.7-3.2,5.8c1.2,1.1,2.3,2.3,3.7,3.4c0.6,0.5,1.5,0.9,2.3,0.9
		c5.1,0.2,10.2,0,15.2,0c0.9,0,1.8,0,2.6,0c0,2,0,3.7,0,5.5c-2.3,0-4.5,0-6.8,0c9.4,9.5,18.8,18.9,28.2,28.3
		C147.8,128.5,147.9,128.5,148.2,128.5z M104.5,64.5c0-22.6-18.5-40.9-40.9-40.9c-22.8,0-41.1,18.3-41.1,41.1
		c0,22.5,18.3,40.9,40.9,40.9C86,105.4,104.5,87.1,104.5,64.5z M118.4,107.1c-4.2,4-8.2,8.2-12,12c16.8,16.8,33.6,33.6,50.2,50.2
		c3.8-4,8-8,12-12C151.8,140.7,135,123.7,118.4,107.1z M173,161.6c-4.2,4.2-8.3,8.2-12.3,12.3c3.1,3.5,8.9,3.5,12.5-0.2
		C176.6,170.2,176.4,164.5,173,161.6z M104.4,112.2c2.3-2.3,4.6-4.6,6.8-6.8c-1.2-1.2-2.6-2.6-3.8-3.8c-2.2,2.2-4.5,4.5-6.8,6.8
		C101.7,109.6,103.1,111,104.4,112.2z M96.7,103.4c2-2,3.8-3.7,5.4-5.4c-0.9-1.1-2-2.3-2.8-3.1c-1.8,1.8-3.7,3.7-5.5,5.5
		C94.7,101.3,95.7,102.4,96.7,103.4z"/>
	<path class="st1" d="M79.9,143.6c0-1.8,0-3.5,0-5.2c9.1,0,18.2,0,27.2,0c0,1.7,0,3.4,0,5.2C98,143.6,89.1,143.6,79.9,143.6z"/>
	<path class="st1" d="M66.3,160.1c0-1.8,0-3.5,0-5.2c9.1,0,18,0,27.1,0c0,1.7,0,3.4,0,5.2C84.5,160.1,75.4,160.1,66.3,160.1z"/>
	<path class="st1" d="M66.3,121.9c7.2,0,14.3,0,21.7,0c0,1.8,0,3.5,0,5.4c-7.2,0-14.3,0-21.7,0C66.3,125.6,66.3,123.9,66.3,121.9z"
		/>
	<path class="st1" d="M118.1,154.8c0,1.8,0,3.5,0,5.2c-6.3,0-12.6,0-18.9,0c0-1.7,0-3.4,0-5.2C105.4,154.8,111.6,154.8,118.1,154.8z
		"/>
	<path class="st1" d="M66.3,143.6c0-1.8,0-3.5,0-5.2c2.6,0,5.2,0,8,0c0,1.7,0,3.4,0,5.2C71.7,143.6,69.1,143.6,66.3,143.6z"/>
	<path class="st2" d="M137.1,78.2c0,1.8,0,3.5,0,5.2c-5.4,0-10.8,0-16.2,0c0-1.7,0-3.4,0-5.2C126.4,78.2,131.8,78.2,137.1,78.2z"/>
	<path class="st2" d="M137.1,94.7c0,1.8,0,3.4,0,5.2c-1.7,0-3.4,0-5.2,0c0-1.7,0-3.4,0-5.2C133.6,94.7,135.3,94.7,137.1,94.7z"/>
	<path class="st0" d="M99,64.8C99,84.2,83,100,63.4,100C44,100,28,84,28,64.5s16-35.7,35.3-35.6C83.3,28.9,99,44.8,99,64.8z
		 M93.4,67.3c0.5-4.3-0.2-8.3-1.4-12.2c-0.3-1.1-0.8-1.5-2-1.5c-12.3,0-24.5,0-36.8,0c-4,0-6.2,2.2-6.2,6.3c0,9.4,0,18.9,0,28.3
		c0,1.2,0.5,1.8,1.4,2.5c10.9,6.3,24.9,5.1,34.6-3.2c0.3-0.2,0.5-0.5,0.8-0.9c-4.9,0-9.5,0-14.3,0c-4.8,0-9.4,0-14.2,0
		c0-1.8,0-3.7,0-5.5c0.8,0,1.4,0,2,0c10,0,19.9,0,29.9,0c0.6,0,1.5-0.2,1.7-0.5c1.4-2.5,2.5-4.9,3.8-7.9c-5.5,0-10.6,0-15.5,0
		c0-1.8,0-3.5,0-5.4C82.7,67.3,87.9,67.3,93.4,67.3z M88.3,48C84,39.5,71.6,33.4,60.9,34.5C48.2,35.7,38,44,34.3,56.2
		c-3.4,11.4,1.1,23.1,7.1,28.5c0-0.6,0-1.2,0-1.8c0-8,0-16,0-23.9c0-5.4,3.7-9.7,8.9-10.8c0.9-0.2,2-0.2,3.1-0.2
		C65.1,48,76.6,48,88.3,48z"/>
	<path class="st2" d="M71.6,67.3c0,1.8,0,3.5,0,5.2c-5.4,0-10.8,0-16.2,0c0-1.7,0-3.4,0-5.2C60.6,67.3,66,67.3,71.6,67.3z"/>
</g>
</svg>
