<?xml version="1.0" encoding="utf-8"?>
<!-- Generator: Adobe Illustrator 24.0.0, SVG Export Plug-In . SVG Version: 6.00 Build 0)  -->
<svg version="1.1" id="Capa_1" xmlns="http://www.w3.org/2000/svg" xmlns:xlink="http://www.w3.org/1999/xlink" x="0px" y="0px"
	 viewBox="0 0 200 200" style="enable-background:new 0 0 200 200;" xml:space="preserve">
<style type="text/css">
	.st0{fill:#ACAEAF;}
	.st1{fill:#1C3247;}
	.st2{fill:#FE9900;}
</style>
<g>
	<path class="st0" d="M59.2,150.3c-2.4-0.8-3.2-2.5-3.2-4.9c0-19.4,0-38.9,0-58.3c0-4.8,2.5-8.5,6.7-9.9c0.6-0.2,1.2-0.3,1.9-0.5
		c0-0.3,0-0.7,0-1c0-3.4,0-6.9,0-10.3c0-2.9,2-4.9,4.9-4.9c1.2,0,2.4,0,3.8,0c0-1.3,0-2.5,0-3.7c0-3.1,1.9-5,5-5
		c13.7,0,27.5,0,41.2,0c0.8,0,1.4,0.2,2,0.8c3.8,3.8,7.6,7.6,11.3,11.4c0.4,0.4,0.7,1.2,0.8,1.8c0.1,3.3,0,6.5,0,9.8
		c0,0.3,0,0.7,0,1.1c1.9,0.4,3.6,1,5,2.3c2.4,2.1,3.6,4.8,3.6,8c0,8.7,0,17.4,0,26.1c0,0.2,0,0.3,0,0.5c-0.1,0.9-0.7,1.5-1.5,1.4
		c-0.9-0.1-1.3-0.6-1.3-1.5c0-2.1,0-4.2,0-6.3c0-5.5,0-11,0-16.5c0-0.4,0-0.8,0-1.2c-26.8,0-53.5,0-80.3,0c0,0.4,0,0.7,0,1
		c0,18.4,0,36.7,0,55.1c0,1.6,0.3,1.9,1.8,1.9c25.6,0,51.1,0,76.7,0c1.5,0,1.8-0.3,1.8-1.8c0-8.2,0-16.4,0-24.5c0-0.4,0-0.7,0-1.1
		c0.1-0.8,0.6-1.2,1.3-1.3c0.8,0,1.3,0.4,1.5,1.1c0.1,0.4,0.1,0.8,0.1,1.1c0,8.1,0,16.2,0,24.3c0,2.5-0.9,4.1-3.2,4.9
		C112.3,150.3,85.7,150.3,59.2,150.3z M67.4,86.3c18.2,0,36.3,0,54.4,0c0-3.7,0-7.3,0-10.9c-2.4,0-4.8,0-7.2,0c-2.9,0-4.8-2-4.9-4.8
		c0-1.1,0-2.2,0-3.3c0-1.3,0-2.6,0-3.9c-0.3,0-0.5,0-0.7,0c-13.2,0-26.4,0-39.6,0c-1.4,0-2,0.7-2,2.1c0,4.1,0,8.2,0,12.3
		C67.4,80.6,67.4,83.4,67.4,86.3z M130.5,86.4c0-6.6,0-13.1,0-19.5c-0.1,0-0.2-0.1-0.2-0.1c-2.3,0-4.7,0-7,0c-2.2,0-4-1.3-4.5-3.2
		c-0.2-0.7-0.2-1.5-0.2-2.3c0-2.2,0-4.3,0-6.6c-0.4,0-0.7,0-1,0c-13,0-26.1,0-39.1,0c-0.2,0-0.5,0-0.7,0c-0.9,0.1-1.5,0.7-1.6,1.6
		c-0.1,1.4,0,2.7,0,4.2c0.5,0,0.8,0,1.2,0c11.1,0,22.2,0,33.4,0c0.8,0,1.4,0.2,2,0.8c3.8,3.8,7.6,7.6,11.4,11.4
		c0.6,0.6,0.8,1.2,0.8,2c0,3.6,0,7.2,0,10.8c0,0.3,0,0.7,0,1.1C126.7,86.4,128.6,86.4,130.5,86.4z M64.5,86.4c0-2.3,0-4.5,0-6.7
		c-3.1,0.4-6,3.8-5.5,6.7c1.6,0,3.1,0,4.7,0C63.9,86.4,64.2,86.4,64.5,86.4z M139.1,86.4c-0.1-3.4-2.5-6.2-5.6-6.7
		c0,2.2,0,4.4,0,6.7C135.4,86.4,137.2,86.4,139.1,86.4z M121.4,57.1c0,1.7,0,3.4,0,5.2c0,0.8,0.6,1.5,1.4,1.5c1.8,0.1,3.7,0,5.3,0
		C125.9,61.6,123.6,59.3,121.4,57.1z M112.7,65.7c0,1.7,0,3.5,0,5.2c0,0.8,0.6,1.5,1.4,1.5c1.8,0.1,3.7,0,5.4,0
		C117.2,70.2,115,68,112.7,65.7z"/>
	<path class="st1" d="M100.4,114.8c0,0.5,0,0.8,0,1.1c0,7.4,0,14.8,0,22.2c0,0.9,0.3,1.2,1.2,1.2c9.6,0,19.2,0,28.8,0
		c0.3,0,0.6,0,1,0c0-0.4,0.1-0.8,0.1-1.1c0-7.4,0-14.9,0-22.3c0-0.9-0.3-1.1-1.2-1.1c-3.4,0-6.9,0-10.3,0c-0.4,0-0.9,0.1-1.1-0.1
		c-0.4-0.3-0.9-0.8-1-1.3c-0.1-0.7,0.4-1.2,1.1-1.4c0.3-0.1,0.6-0.1,1-0.1c3.6,0,7.2,0,10.8,0c2.5,0,3.6,1.2,3.6,3.7
		c0,7.6,0,15.3,0,22.9c0,2.5-1.2,3.7-3.7,3.7c-9.8,0-19.6,0-29.4,0c-2.5,0-3.7-1.2-3.7-3.6c0-7.7,0-15.3,0-23c0-2.5,1.2-3.6,3.7-3.6
		c3.6,0,7.1,0,10.7,0c0.3,0,0.6,0,0.9,0c0.8,0.1,1.2,0.6,1.3,1.3c0,0.8-0.4,1.3-1.2,1.5c-0.3,0.1-0.6,0-1,0c-3.4,0-6.8,0-10.2,0
		C101.3,114.8,100.9,114.8,100.4,114.8z"/>
	<path class="st1" d="M116,120.5c-3.2,0-6.4,0-9.6,0c-1.4,0-2-0.5-2-1.5c0-0.9,0.7-1.4,2-1.4c6.4,0,12.9,0,19.3,0
		c0.7,0,1.4,0.1,1.8,0.8c0.5,1-0.2,2-1.5,2c-3.1,0-6.3,0-9.4,0C116.4,120.5,116.2,120.5,116,120.5z"/>
	<path class="st1" d="M116,122.9c3.3,0,6.5,0,9.8,0c1.1,0,1.8,0.5,1.8,1.4c0,0.9-0.7,1.5-1.8,1.5c-6.5,0-13.1,0-19.6,0
		c-1.1,0-1.8-0.5-1.8-1.4c0-0.9,0.6-1.5,1.8-1.5C109.4,122.9,112.7,122.9,116,122.9z"/>
	<path class="st1" d="M115.9,131.1c-3.2,0-6.3,0-9.5,0c-0.3,0-0.6,0-1-0.1c-0.7-0.1-1.1-0.6-1.1-1.4c0-0.7,0.3-1.2,1.1-1.4
		c0.3-0.1,0.7-0.1,1-0.1c6.3,0,12.7,0,19,0c0.3,0,0.5,0,0.8,0c0.8,0.1,1.4,0.7,1.3,1.5c-0.1,0.8-0.5,1.3-1.4,1.3c-0.3,0-0.6,0-0.9,0
		C122.2,131.1,119.1,131.1,115.9,131.1z"/>
	<path class="st1" d="M115.9,136.4c-3.3,0-6.6,0-9.9,0c-1.1,0-1.7-0.5-1.7-1.4c0-0.9,0.6-1.5,1.6-1.5c2.1,0,4.3,0,6.4,0
		c4.4,0,8.8,0,13.3,0c0.5,0,1.2,0.2,1.5,0.6c0.3,0.3,0.4,1.1,0.2,1.5c-0.2,0.4-0.9,0.8-1.4,0.8c-2,0.1-3.9,0-5.9,0
		C118.7,136.4,117.3,136.4,115.9,136.4z"/>
	<path class="st2" d="M93.9,80.5c6.3,0,12.6,0,18.9,0c0.4,0,0.7,0,1.1,0c0.8,0.1,1.2,0.6,1.2,1.4c0,0.7-0.4,1.2-1.1,1.4
		c-0.3,0.1-0.7,0.1-1,0.1c-12.8,0-25.5,0-38.3,0c-0.4,0-0.7,0-1-0.1c-0.8-0.2-1.1-0.7-1.1-1.5c0.1-0.7,0.5-1.2,1.2-1.3
		c0.3,0,0.7,0,1.1,0C81.2,80.5,87.6,80.5,93.9,80.5z"/>
	<path class="st2" d="M90.6,78.1c-5.3,0-10.6,0-15.9,0c-0.3,0-0.5,0-0.8,0c-0.8-0.1-1.4-0.6-1.4-1.4c0-0.8,0.5-1.4,1.4-1.4
		c0.2,0,0.4,0,0.6,0c10.8,0,21.6,0,32.3,0c0.3,0,0.5,0,0.8,0c0.7,0.2,1.2,0.6,1.2,1.4c0,0.8-0.4,1.3-1.2,1.4c-0.3,0.1-0.6,0-1,0
		C101.3,78.1,96,78.1,90.6,78.1z"/>
</g>
</svg>
