<?xml version="1.0" encoding="utf-8"?>
<!-- Generator: Adobe Illustrator 24.0.0, SVG Export Plug-In . SVG Version: 6.00 Build 0)  -->
<svg version="1.1" id="Capa_1" xmlns="http://www.w3.org/2000/svg" xmlns:xlink="http://www.w3.org/1999/xlink" x="0px" y="0px"
	 viewBox="0 0 200 200" style="enable-background:new 0 0 200 200;" xml:space="preserve">
<style type="text/css">
	.st0{fill:#ACAEAF;}
	.st1{fill:#FE9900;}
	.st2{fill:#1C3247;}
</style>
<g>
	<path class="st0" d="M140,14.7c3,0.9,5.8,2.2,7.6,4.9c2.8,4.2,2.8,8.5,0.2,13c6.4,2.3,10,6.8,10.5,13.7c3.8-0.1,7.6,0.8,11.1-1.8
		c3-2.3,6.5-4,9.8-5.9c2.7-1.6,4.9-0.4,4.9,2.8c0,11,0,22,0,33c0,3.2-2.2,4.5-4.9,2.8c-3.8-2.2-7.5-4.4-11.2-6.8
		c-1.3-0.8-2.6-1.2-4.1-1.1c-1.8,0.1-3.7,0-5.6,0c-0.2,3.4-1.1,6.4-3.2,8.9c-2.9,3.6-6.7,5.4-11.2,5.4c-9.5,0.1-19.1,0.1-28.6,0
		c-6.6-0.1-11.8-4-13.7-10.3c-0.1-0.3-0.2-0.6-0.4-1.1c-2.8,0-5.6,0-8.3,0c-1.4,0-2.6-0.5-3.1-1.8c-0.8-1.8,0.5-3.8,2.7-3.9
		c2.2-0.1,4.4,0,6.6,0c0.6,0,1.2,0,1.9,0c0-5.7,0-11.3,0-17c-2.7,0-5.3,0-8.1,0c0.2,2,0.5,3.9,0.7,5.8c0.1,0.7,0.2,1.4,0.2,2.2
		c0,1.8-0.9,2.9-2.4,3.1c-1.6,0.2-2.9-0.7-3.2-2.5c-0.3-1.9-0.5-3.8-0.8-5.7c-0.2-1.7-0.4-3.4-0.6-5.2c-0.3-2.3,0.9-3.7,3.2-3.7
		c3.4,0,6.7,0,10.1-0.1c0.5,0,1.3-0.5,1.5-0.9c0.9-2.9,2.5-5.3,4.8-7.3c-3.1-4.2-3.5-8.3,0.2-12.3c2.5-2.6,6.5-3.2,9.8-1.6
		c3.7,1.8,5.2,5.2,4.5,10.5c0.3,0,0.6,0.1,1,0.1c2.1,0,4.2,0,6.2,0c-0.4-2.1-1-4.1-1-6.1c0-5.2,3.5-9.5,8.6-10.9
		c0.3-0.1,0.6-0.2,0.9-0.4C137.5,14.7,138.7,14.7,140,14.7z M129.5,37.8c-4.5,0-9.1,0-13.6,0c-5.8,0-9.3,3.5-9.3,9.3
		c0,7.1,0,14.2,0,21.3c0,5.9,3.5,9.4,9.4,9.4c9,0,18,0,27.1,0c5.8,0,9.3-3.5,9.4-9.3c0-7.2,0-14.3,0-21.5c0-5.8-3.5-9.3-9.3-9.3
		C138.6,37.8,134,37.8,129.5,37.8z M178.2,45.7c-2.8,1.7-5.4,3.2-8,4.8c-0.4,0.2-0.6,0.9-0.6,1.4c0,3.9,0,7.8,0,11.8
		c0,0.5,0.1,1.1,0.5,1.3c2.6,1.7,5.3,3.2,8.1,4.9C178.2,61.8,178.2,54,178.2,45.7z M132.4,26.3c0,3.1,2.5,5.7,5.6,5.7
		c3.2,0,5.8-2.6,5.8-5.7c0-3.2-2.7-5.7-5.8-5.7C134.9,20.7,132.4,23.2,132.4,26.3z M163.8,63.5c0-3.9,0-7.5,0-11.2
		c-1.9,0-3.7,0-5.5,0c0,3.8,0,7.5,0,11.2C160.1,63.5,161.9,63.5,163.8,63.5z M115.1,29.2c0-1.6-1.1-2.8-2.7-2.8
		c-1.6,0-2.9,1.2-2.9,2.8c0,1.5,1.2,2.8,2.7,2.8C113.8,32,115.1,30.8,115.1,29.2z"/>
	<path class="st0" d="M11.9,80.6c0.2-1,0.3-2.1,0.6-3.1c1.8-6.9,7.2-11,14.4-11c8.7,0,17.4,0,26,0c0.6,0,1.2,0,2,0
		c0.1-1.4,0.1-2.7,0.3-4c0.6-4.4,4.3-7.5,8.7-7.4c4.3,0.1,7.8,3.4,8.2,7.8c0.1,1.2,0.1,2.3,0.2,3.6c3.4,0.2,6.4,1.2,9,3.3
		c3.4,2.9,5.2,6.6,5.2,11c0.1,7.7,0.1,15.3,0,23c-0.1,7.9-5.8,13.8-13.7,14.1c-6.3,0.3-12.7,0.1-19,0.1c-9.4,0-18.8,0.1-28.2-0.1
		c-7.2-0.2-12.6-5.6-13.4-12.8c0-0.3-0.2-0.6-0.3-0.9C11.9,96.3,11.9,88.5,11.9,80.6z M49.3,112.3c7.3,0,14.6,0,21.8,0
		c6.2,0,9.6-3.4,9.6-9.5c0-7,0-14,0-21c0-6.1-3.5-9.6-9.6-9.6c-14.6,0-29.2,0-43.8,0c-6.1,0-9.6,3.4-9.6,9.6c0,7,0,14,0,21
		c0,6.1,3.5,9.5,9.6,9.5C34.7,112.3,42,112.3,49.3,112.3z M66.4,66.4c-0.2-1.9,0.6-4-1.4-5.1c-0.8-0.4-2.2-0.4-2.9,0.1
		c-1.9,1.2-1.3,3.2-1.3,5.1C62.7,66.4,64.4,66.4,66.4,66.4z"/>
	<path class="st1" d="M106.6,126.6c5.8,0,11.4,0,17.1,0c0-5.7,0-11.3,0-17.1c-2.5,0-4.9,0-7.4,0c-3.1,0-6.2,0-9.2,0
		c-2.5-0.1-3.9-2-3.1-4c0.6-1.4,1.9-1.8,3.3-1.8c5.6,0,11.2,0.1,16.8,0c1.2,0,2.6-0.3,3.7-0.7c8.4-3.3,16.8-6.7,25.3-10.1
		c3.5-1.4,5-0.3,5,3.3c0,14.6,0,29.1,0,43.7c0,3.6-1.6,4.6-4.9,3.3c-8.6-3.4-17.2-6.9-25.9-10.3c-0.8-0.3-1.7-0.5-2.6-0.5
		c-5.8,0-11.7,0-17.5,0c-4.1,0-6.3-2.2-6.4-6.3c0-1.7,0-3.4,0-5c0.1-1.7,1.1-2.8,2.7-2.9c1.6-0.1,2.9,1,3,2.8
		C106.7,122.7,106.6,124.6,106.6,126.6z M152.3,136.7c0-12.6,0-24.8,0-37.3c-7.4,3-14.7,5.9-21.9,8.8c-0.4,0.1-0.8,0.7-0.8,1
		c0,6.1,0,12.2,0,18.3C137.1,130.6,144.7,133.6,152.3,136.7z"/>
	<path class="st0" d="M97.8,186.9c-10,0-20.1,0-30.1,0c-9.7,0-15.6-5.9-15.6-15.6c0-14.4,0-28.8,0-43.2c0-0.6,0-1.1,0-1.7
		c0.2-1.5,1-2.3,2.5-2.5c1.4-0.2,2.6,0.6,3,2.1c0.2,0.7,0.2,1.4,0.2,2.2c0,14.4,0.1,28.8-0.1,43.2c-0.1,6,4,9.9,9.9,9.9
		c20.3-0.1,40.7-0.1,61-0.1c4.6,0,7.9-2.3,9-6.3c0.3-1.2,0.4-2.4,0.4-3.7c0-7.5,0-14.9,0-22.4c0-0.4,0-0.8,0-1.2
		c0-2.4,1.1-3.8,2.9-3.8c1.8,0,2.8,1.4,2.8,3.8c0,8,0.1,16,0,24c-0.1,9.1-6.2,15.1-15.3,15.1C118.3,186.9,108.1,186.9,97.8,186.9z"
		/>
	<path class="st0" d="M105.3,141c6.6,0,13.2,0,19.8,0c0.6,0,1.2,0,1.8,0.1c1.6,0.2,2.4,1.2,2.5,2.7c0.1,1.3-0.9,2.5-2.3,2.8
		c-0.6,0.1-1.2,0.2-1.8,0.2c-13.4,0-26.9,0-40.3,0c-0.7,0-1.5,0-2.2-0.2c-1.4-0.3-2.1-1.4-2-2.7c0-1.4,0.8-2.4,2.3-2.7
		c0.7-0.1,1.3-0.1,2-0.1C91.9,141,98.6,141,105.3,141z"/>
	<path class="st0" d="M112.3,95.1c-5.3,0-10.6,0-16,0c-0.6,0-1.2,0-1.8-0.1c-1.4-0.3-2.1-1.3-2.2-2.6c0-1.3,0.6-2.3,1.9-2.7
		c0.6-0.2,1.2-0.3,1.8-0.3c10.9,0,21.8,0,32.8,0c0.4,0,0.8,0,1.2,0.1c1.6,0.3,2.5,1.5,2.4,3c-0.1,1.5-1.1,2.5-2.7,2.7
		c-0.5,0-1,0-1.5,0C122.8,95.1,117.5,95.1,112.3,95.1z"/>
	<path class="st0" d="M80.8,132.4c-3.6,0-7.2,0-10.7,0c-2.3,0-3.6-1.1-3.5-2.9c0-1.7,1.3-2.8,3.5-2.8c7.2,0,14.4,0,21.6,0
		c2.1,0,3.5,1.1,3.5,2.8c0,1.7-1.3,2.9-3.4,2.9C88.1,132.4,84.4,132.4,80.8,132.4z"/>
	<path class="st0" d="M80.6,161c-3.6,0-7.2,0-10.7,0c-2.1,0-3.3-1-3.4-2.7c-0.1-1.8,1.2-3,3.3-3c7.3,0,14.7,0,22,0
		c2,0,3.3,1.2,3.3,2.8c0,1.7-1.3,2.8-3.4,2.9C88,161.1,84.3,161,80.6,161z"/>
	<path class="st0" d="M116.6,161c-3.1,0-6.3,0-9.4,0c-2.1,0-3.4-1.1-3.4-2.8c0-1.7,1.3-2.9,3.4-2.9c6.3,0,12.6,0,19,0
		c2.1,0,3.4,1.2,3.4,3c-0.1,1.7-1.3,2.7-3.3,2.7C123,161.1,119.8,161,116.6,161z"/>
	<path class="st0" d="M77.8,172.5c-2.6,0-5.3,0-7.9,0c-2.2,0-3.4-1.1-3.4-2.8c0-1.7,1.3-2.9,3.4-2.9c5.4,0,10.7,0,16.1,0
		c2.1,0,3.4,1.2,3.3,3c0,1.7-1.3,2.7-3.3,2.8C83.3,172.5,80.6,172.5,77.8,172.5z"/>
	<path class="st0" d="M109.4,172.5c-2.7,0-5.4,0-8,0c-2.1,0-3.3-1.1-3.3-2.8c0-1.6,1.2-2.9,3.2-2.9c5.5-0.1,11-0.1,16.4,0
		c2,0,3.2,1.2,3.2,2.9c0,1.7-1.2,2.8-3.2,2.8C114.9,172.6,112.1,172.5,109.4,172.5z"/>
	<path class="st1" d="M175.4,118c-1.8,0-3.7,0.1-5.5,0c-1.8-0.1-3-1.1-3-2.7c0-1.6,1.1-2.9,2.8-2.9c3.8-0.1,7.6-0.1,11.4,0
		c1.8,0,2.9,1.4,2.9,2.9c-0.1,1.6-1.2,2.7-3,2.7C179.1,118.1,177.2,118,175.4,118z"/>
	<path class="st1" d="M178.6,95.2c-0.7,1-1.2,1.9-1.9,2.5c-2.6,1.9-5.4,3.7-8.1,5.4c-1.6,1-3.3,0.7-4.2-0.6c-0.9-1.4-0.6-3,0.9-4.1
		c2.7-1.9,5.4-3.8,8.3-5.5c0.8-0.5,2.2-0.5,3.1-0.1C177.5,93.1,177.9,94.2,178.6,95.2z"/>
	<path class="st1" d="M166.3,129.4c1,0.4,1.7,0.4,2.2,0.8c2.8,1.8,5.6,3.7,8.4,5.6c1.5,1,1.8,2.6,0.9,3.9c-0.8,1.3-2.5,1.8-4,0.8
		c-2.9-1.9-5.8-3.8-8.6-5.8c-1.1-0.8-1.6-2-0.9-3.2C164.7,130.6,165.7,130,166.3,129.4z"/>
	<path class="st2" d="M130.1,43.6c2.9,0,5.7-0.1,8.6,0c4.4,0.2,7.9,3.7,8.1,8.1c0.1,2.1,0.1,4.1,0,6.2c-0.1,4.7-3.4,8.3-8.1,8.4
		c-5.8,0.2-11.6,0.1-17.5,0.1c-1.9,0-3.1-1.3-3-2.9c0-1.6,1.2-2.8,3.2-2.8c5.3,0,10.5,0,15.8,0c3,0,3.9-1,3.9-3.9c0-1.3,0-2.6,0-3.9
		c0-2.7-1-3.7-3.6-3.7c-4.9,0-9.9,0-14.8,0c-0.4,0-0.9,0-1.3,0c-2-0.1-3.2-1.4-3.1-3c0.1-1.6,1.3-2.7,3.2-2.7
		C124.2,43.5,127.1,43.6,130.1,43.6C130.1,43.6,130.1,43.6,130.1,43.6z"/>
	<path class="st2" d="M35,92.3c-0.1-7.7,6-14,13.7-14.4c1.9-0.1,3.3,1,3.4,2.7c0.1,1.6-1.1,2.8-3,3c-5.4,0.7-8.6,4.1-8.4,9
		c0.2,4.2,3.5,7.7,7.6,8.1c4.4,0.4,8.3-2.3,9.3-6.5c0.2-0.7,0.2-1.4,0.3-2.2c0.3-1.7,1.6-2.8,3.1-2.7c1.6,0.2,2.6,1.5,2.6,3.2
		c-0.2,7.8-6.9,14.1-14.7,13.9C41.1,106.3,35,100.1,35,92.3z"/>
	<path class="st2" d="M26.3,100.9c1.5,0,2.8,1.2,2.8,2.7c0,1.6-1.2,2.9-2.8,2.9c-1.6,0-2.9-1.3-2.8-2.9
		C23.6,102.2,24.8,100.9,26.3,100.9z"/>
</g>
</svg>
