<?xml version="1.0" encoding="utf-8"?>
<!-- Generator: Adobe Illustrator 24.0.0, SVG Export Plug-In . SVG Version: 6.00 Build 0)  -->
<svg version="1.1" id="Capa_1" xmlns="http://www.w3.org/2000/svg" xmlns:xlink="http://www.w3.org/1999/xlink" x="0px" y="0px"
	 viewBox="0 0 200 200" style="enable-background:new 0 0 200 200;" xml:space="preserve">
<style type="text/css">
	.st0{fill:#FE9900;}
	.st1{fill:#1C3247;}
	.st2{fill:#ACAEAF;}
</style>
<g>
	<path class="st0" d="M104.8,24c2.8,0.4,5.7,0.8,8.5,1.2c0.5,0.1,1.1,0.2,1.6,0.3c1.9,0.4,2.9,1.9,2.6,3.5c-0.3,1.7-1.9,2.5-3.7,2.3
		c-4.8-0.5-9.5-1.4-14.3-1.3c-27.8,0.9-49,13.5-61.6,38.2c-13,25.3-10.2,50.2,6,73.5c0.3,0.4,0.6,0.8,0.7,1c2.2-0.4,4.3-1.1,6.3-1.1
		c5.6-0.1,10.4,3.7,11.9,9.1c1.5,5.3-0.8,11-5.5,13.9c-4.7,2.9-10.9,2.3-15-1.5c-4.1-3.7-5.2-9.7-2.7-14.7c0.6-1.2,0.5-1.8-0.3-2.8
		c-8.9-11.8-13.9-25.2-15.1-39.9c0-0.4-0.2-0.9-0.2-1.3c0-3.1,0-6.1,0-9.2c0.5-3.4,0.8-6.8,1.5-10.1c5.7-30.3,30.9-55,61.3-60
		c2.8-0.5,5.7-0.8,8.5-1.2C98.4,24,101.6,24,104.8,24z M50.7,147.5c-3.6,0-6.5,3-6.5,6.5c0,3.6,3,6.5,6.5,6.5c3.6,0,6.6-3,6.5-6.6
		C57.2,150.3,54.3,147.5,50.7,147.5z"/>
	<path class="st1" d="M95.3,176c-2.8-0.4-5.7-0.8-8.5-1.2c-0.5-0.1-1-0.2-1.5-0.3c-1.9-0.4-2.9-1.8-2.6-3.5c0.3-1.7,1.8-2.5,3.7-2.3
		c4.9,0.5,9.8,1.3,14.7,1.3c27.6-0.1,53.6-17.8,63.6-43.5c9.5-24.2,6.3-47.1-8.6-68.3c-0.2-0.3-0.4-0.6-0.6-0.8
		c-0.1-0.1-0.1-0.1,0,0c-2.2,0.4-4.3,1.1-6.3,1.1c-5.6,0.1-10.5-3.8-11.9-9.1c-1.5-5.3,0.8-11,5.5-13.9c4.8-2.9,10.8-2.4,15,1.4
		c4.1,3.7,5.2,9.8,2.7,14.7c-0.6,1.2-0.5,1.8,0.3,2.8c8.9,11.8,13.9,25.2,15.1,39.9c0,0.4,0.2,0.9,0.2,1.3c0,3.1,0,6.1,0,9.2
		c-0.1,0.4-0.2,0.8-0.2,1.1c-0.5,3.5-0.8,7.1-1.6,10.5c-6.1,29.5-31.3,53.6-60.9,58.4c-2.8,0.5-5.7,0.8-8.5,1.2
		C101.6,176,98.4,176,95.3,176z M149.2,52.5c3.6,0,6.5-2.9,6.6-6.4c0-3.6-2.9-6.6-6.6-6.6c-3.6,0-6.5,2.9-6.5,6.5
		C142.7,49.6,145.6,52.5,149.2,52.5z"/>
	<path class="st2" d="M140.9,123.7c1,0.9,2.2,2.1,3.5,3.3c1.7,1.7,1.7,3.3,0,5c-4.1,4.1-8.2,8.2-12.3,12.3c-1.8,1.8-3.3,1.7-5.1-0.1
		c-1.1-1.1-2.2-2.2-3.4-3.3c-0.1-0.1-0.2-0.1,0.1,0c-3.7,1.4-7.1,2.8-10.5,4.2c-0.4,0.2-0.8,0.8-0.9,1.2c-0.1,1.5,0,3.1-0.1,4.6
		c-0.1,1.9-1.2,3.1-3.1,3.1c-6.1,0-12.2,0-18.3,0c-2,0-3.1-1.2-3.1-3.2c0-1.5,0-3,0-4.5c0-0.8-0.2-1.1-1-1.4
		c-3.4-1.3-6.8-2.6-10.6-4.1c-0.9,0.9-2.1,2.2-3.3,3.4c-1.7,1.7-3.3,1.7-5,0c-4.1-4.1-8.3-8.2-12.4-12.4c-1.7-1.7-1.6-3.2,0-4.9
		c1.2-1.2,2.5-2.4,3.5-3.3c-1.5-3.9-2.8-7.4-4.2-10.8c-0.1-0.4-0.8-0.7-1.2-0.7c-1.5-0.1-3,0-4.5,0c-2.1,0-3.2-1.2-3.2-3.2
		c0-6,0-12,0-18c0-2.1,1.1-3.2,3.2-3.3c1.5,0,3,0.1,4.4,0c0.4,0,1.1-0.4,1.2-0.8c1.4-3.4,2.7-6.9,4.2-10.7c-1-0.9-2.3-2-3.5-3.2
		c-1.7-1.7-1.7-3.2,0-4.9c4.1-4.1,8.2-8.3,12.4-12.4c1.7-1.7,3.3-1.7,5,0c1,1,1.9,2,3,2.9c0.3,0.3,1,0.4,1.5,0.2
		c3.2-1.2,6.3-2.5,9.4-3.9c0.4-0.2,0.9-0.8,0.9-1.2c0.1-1.5,0-3.1,0.1-4.6c0.1-1.9,1.2-3.1,3.1-3.1c6.1,0,12.2,0,18.3,0
		c2,0,3.1,1.2,3.1,3.2c0,1.5,0,3,0,4.5c0,0.4,0.4,1.1,0.7,1.2c3.5,1.4,7,2.7,10.9,4.2c0.9-1,2-2.2,3.3-3.5c1.7-1.7,3.2-1.6,4.9,0
		c4.1,4.1,8.3,8.2,12.4,12.4c1.7,1.7,1.7,3.3-0.1,5c-1.2,1.2-2.4,2.3-3.4,3.2c1.5,3.9,2.8,7.4,4.2,10.8c0.1,0.4,0.8,0.7,1.2,0.7
		c1.5,0.1,3,0,4.5,0c2.1,0,3.2,1.1,3.2,3.2c0,6,0,12,0,18c0,2.1-1.1,3.2-3.3,3.3c-1.5,0-3-0.1-4.4,0c-0.4,0-1,0.4-1.1,0.8
		C143.7,116.5,142.4,119.9,140.9,123.7z M148,93.7c-0.9,0-1.6,0-2.4,0c-0.7,0-1.5,0-2.2,0c-2-0.1-2.9-0.8-3.4-2.7
		c-1.1-4.7-2.9-9-5.4-13.1c-1-1.5-0.8-2.8,0.5-4.1c1.1-1.1,2.2-2.1,3.3-3.1c-3.1-3.1-6-6-9.2-9.2c-0.9,1-1.9,2.2-2.9,3.2
		c-1.5,1.5-2.7,1.6-4.5,0.5c-3.9-2.5-8.2-4.2-12.7-5.3c-2.1-0.5-2.8-1.4-2.8-3.5c0-1.5,0-2.9,0-4.5c-4.3,0-8.3,0-12.4,0
		c-0.1,0.2-0.1,0.2-0.1,0.3c0,1.4,0,2.8,0,4.2c0,2-0.8,3-2.7,3.5c-4.6,1.1-8.9,2.9-12.9,5.4c-1.7,1-2.9,0.9-4.3-0.5
		c-1.1-1.1-2-2.3-2.9-3.3c-3.2,3.2-6.1,6.1-9.2,9.2c1,0.9,2.1,1.9,3.1,2.9c1.4,1.4,1.6,2.7,0.5,4.4c-2.5,3.9-4.2,8.2-5.3,12.7
		c-0.5,2.2-1.4,2.9-3.8,2.9c-1.4,0-2.8,0-4.3,0c0,4.3,0,8.4,0,12.6c1.6,0,3.1,0,4.7,0c1.9,0,2.9,0.8,3.3,2.6c1.1,4.7,2.9,9,5.4,13.1
		c1,1.6,0.9,2.9-0.5,4.3c-1.1,1.1-2.2,2.1-3.3,3c3.2,3.1,6.1,6,9.2,9.1c0.9-1,1.9-2.1,2.9-3.2c1.5-1.5,2.7-1.6,4.5-0.5
		c3.9,2.4,8.1,4.2,12.5,5.2c2.3,0.5,3,1.5,3,3.9c0,1.4,0,2.8,0,4.2c4.3,0,8.4,0,12.5,0c0.1-0.2,0.1-0.3,0.1-0.4c0-1.3,0-2.7,0-4
		c0-2.2,0.7-3.1,2.9-3.6c4.5-1.1,8.7-2.8,12.7-5.3c1.8-1.1,3-1,4.5,0.6c1,1,2,2.2,2.9,3.2c3.2-3.1,6.1-6.1,9.2-9.2
		c-1-1-2.2-2-3.3-3.1c-1.4-1.4-1.5-2.6-0.5-4.3c2.5-4,4.3-8.3,5.4-12.9c0.5-1.9,1.4-2.7,3.4-2.7c1.5,0,3,0,4.6,0
		C148,102,148,98,148,93.7z"/>
	<path class="st2" d="M127.3,35.2c-1.6,0-3-1.5-2.9-3.1c0.1-1.6,1.4-2.8,3-2.8c1.7,0,3,1.4,2.9,3.1C130.2,34,128.8,35.3,127.3,35.2z
		"/>
	<path class="st2" d="M75.7,167.9c-0.1,1.6-1.4,2.8-3,2.8c-1.6,0-2.9-1.4-2.9-3c0-1.7,1.5-3,3.1-2.9
		C74.6,164.9,75.8,166.3,75.7,167.9z"/>
	<path class="st2" d="M100,75.5c13.5,0,24.5,11,24.6,24.5c0,13.5-11,24.5-24.5,24.5c-13.5,0-24.5-11-24.6-24.5
		C75.4,86.5,86.5,75.5,100,75.5z M118.6,100c0-10.2-8.5-18.6-18.7-18.6c-10.2,0-18.6,8.5-18.6,18.6c0,10.2,8.5,18.6,18.7,18.6
		C110.3,118.6,118.6,110.1,118.6,100z"/>
</g>
</svg>
