<?xml version="1.0" encoding="utf-8"?>
<!-- Generator: Adobe Illustrator 24.0.0, SVG Export Plug-In . SVG Version: 6.00 Build 0)  -->
<svg version="1.1" id="Capa_1" xmlns="http://www.w3.org/2000/svg" xmlns:xlink="http://www.w3.org/1999/xlink" x="0px" y="0px"
	 viewBox="0 0 80 80" style="enable-background:new 0 0 80 80;" xml:space="preserve">
<style type="text/css">
	.st0{fill:#ACAEAF;}
	.st1{fill:#FE9900;}
</style>
<g>
	<path class="st0" d="M67.72,39.69c-12.11,0-24.18,0-36.26,0c0-1.25,0-2.46,0-3.71c0.27,0,0.5,0,0.73,0c10.81,0,21.62,0,32.44,0
		c0.95,0,1.28-0.3,1.28-1.16c0-7.3,0-14.6,0-21.9c0-0.84-0.33-1.17-1.16-1.17c-17.24,0-34.47,0-51.71,0c-0.87,0-1.18,0.32-1.18,1.2
		c0,7.28,0,14.56,0,21.84c0,0.87,0.32,1.18,1.2,1.19c1.12,0,2.25,0,3.42,0c0,1.28,0,2.49,0,3.74c-2.17,0-4.3,0-6.45,0
		c0,0.63,0,1.22,0,1.81c19.26,0,38.48,0,57.7,0C67.72,40.91,67.72,40.32,67.72,39.69z M29.51,39.67c-3.68,0-7.37,0-11.11,0
		c0-2.79,0-5.53,0-8.31c3.7,0,7.38,0,11.11,0C29.51,34.1,29.51,36.86,29.51,39.67z M25.88,24.8c0.96,0.02,1.75,0.77,1.79,1.73
		c0.04,0.95,0.01,1.9,0.01,2.9c-2.51,0-4.94,0-7.43,0c0-1.04-0.06-2.07,0.02-3.08c0.07-0.88,0.87-1.53,1.77-1.55
		C23.32,24.78,24.6,24.78,25.88,24.8z M22.1,21.12c-0.02-1.04,0.82-1.9,1.86-1.91c1.01,0,1.85,0.83,1.86,1.84
		c0.01,1.02-0.81,1.86-1.83,1.88C22.99,22.95,22.12,22.12,22.1,21.12z M31.42,30.93c0-1.25-0.21-1.47-1.44-1.48
		c-0.12,0-0.23,0-0.43,0c0-0.66-0.03-1.29,0.01-1.92c0.13-1.99-0.52-3.54-2.44-4.38c0.91-2.31,0.58-4-0.99-5.12
		c-1.4-1-3.26-0.92-4.58,0.19c-1.39,1.18-1.66,2.96-0.72,4.89c-0.13,0.07-0.26,0.15-0.39,0.22c-1.33,0.72-2.02,1.83-2.06,3.34
		c-0.02,0.91,0,1.81,0,2.77c-0.25,0-0.44,0-0.63,0c-0.94,0.01-1.24,0.3-1.24,1.27c0,1.1,0,2.21,0,3.35c-0.93,0-1.83,0-2.76,0
		c0-6.79,0-13.58,0-20.41c16.73,0,33.47,0,50.25,0c0,6.78,0,13.58,0,20.43c-10.87,0-21.69,0-32.58,0
		C31.42,33.02,31.42,31.98,31.42,30.93z"/>
	<path class="st0" d="M67.75,62.98c-0.05-1.91-0.97-3.31-2.69-4.17c-0.15-0.08-0.3-0.15-0.46-0.22c1.21-2.54,0.98-4.39-0.7-5.8
		c-1.46-1.22-3.59-1.29-5.13-0.16c-0.78,0.57-1.31,1.32-1.57,2.25c-0.38,1.33-0.07,2.56,0.64,3.6c-0.78,0.56-1.51,1.09-2.19,1.58
		c-0.68-0.49-1.41-1.02-2.19-1.58c1.2-2.23,0.96-4.25-0.71-5.67c-1.5-1.27-3.72-1.32-5.27-0.1c-1.77,1.4-2.04,3.36-0.84,5.78
		c-0.75,0.54-1.49,1.07-2.17,1.56c-0.72-0.51-1.46-1.04-2.2-1.57c1.21-2.07,1-4.13-0.59-5.57c-1.45-1.31-3.62-1.45-5.21-0.32
		c-0.8,0.57-1.36,1.33-1.63,2.28c-0.38,1.33-0.08,2.56,0.63,3.61c-0.78,0.57-1.53,1.1-2.19,1.58c-0.72-0.51-1.45-1.03-2.19-1.56
		c1.18-2.31,0.96-4.22-0.66-5.64c-1.42-1.24-3.51-1.38-5.08-0.32c-0.8,0.54-1.35,1.27-1.65,2.19c-0.45,1.39-0.15,2.66,0.58,3.76
		c-0.78,0.57-1.51,1.09-2.18,1.58c-0.71-0.51-1.45-1.04-2.2-1.58c1.21-2.12,0.99-4.17-0.62-5.6c-1.48-1.31-3.69-1.41-5.26-0.23
		c-1.83,1.37-2.12,3.29-0.89,5.94c-0.06,0.04-0.12,0.08-0.19,0.11c-1.99,0.88-2.96,2.42-2.96,4.58c0,1.63,0,3.26,0,4.89
		c0,1.11,0.26,1.36,1.37,1.36c8.23,0,16.46,0,24.69,0c10.15,0,20.31,0,30.46,0c0.95,0,1.25-0.3,1.25-1.25
		C67.76,66.51,67.8,64.74,67.75,62.98z M16.49,53.69c1.28,0,2.34,1.03,2.34,2.31c0.01,1.28-1.03,2.33-2.31,2.34
		c-1.28,0.01-2.33-1.03-2.34-2.31C14.17,54.75,15.22,53.69,16.49,53.69z M21.15,67.64c-3.13,0-6.19,0-9.28,0
		c0-1.69-0.07-3.35,0.02-5c0.08-1.34,1.28-2.38,2.63-2.41c1.32-0.03,2.64-0.03,3.95,0c1.37,0.03,2.58,1.09,2.65,2.46
		C21.22,64.31,21.15,65.96,21.15,67.64z M27.68,53.69c1.28,0,2.33,1.04,2.33,2.32c0,1.28-1.04,2.33-2.32,2.33
		c-1.28,0-2.32-1.04-2.33-2.32C25.36,54.74,26.41,53.69,27.68,53.69z M32.33,67.64c-3.1,0-6.17,0-9.27,0c0-1.69-0.08-3.36,0.02-5.01
		c0.08-1.37,1.31-2.39,2.69-2.41c1.28-0.02,2.56-0.02,3.84,0c1.38,0.02,2.61,1.04,2.69,2.41C32.4,64.28,32.33,65.95,32.33,67.64z
		 M38.89,53.69c1.28,0.01,2.32,1.07,2.31,2.34c-0.01,1.28-1.06,2.32-2.34,2.31c-1.28-0.01-2.31-1.06-2.31-2.34
		C36.55,54.72,37.61,53.67,38.89,53.69z M43.52,67.62c-3.09,0-6.16,0-9.3,0c0-1.66-0.06-3.29,0.02-4.91
		c0.06-1.36,1.26-2.45,2.62-2.49c1.34-0.04,2.67-0.04,4.01,0c1.39,0.04,2.58,1.16,2.63,2.55C43.57,64.37,43.52,65.98,43.52,67.62z
		 M50.03,53.69c1.28-0.01,2.34,1.03,2.35,2.3c0.01,1.28-1.02,2.34-2.3,2.35c-1.28,0.01-2.33-1.02-2.35-2.3
		C47.71,54.76,48.76,53.7,50.03,53.69z M54.7,67.64c-3.13,0-6.18,0-9.27,0c0-1.7-0.09-3.39,0.03-5.06c0.09-1.35,1.31-2.34,2.67-2.36
		c1.3-0.02,2.6-0.03,3.89,0c1.37,0.03,2.58,1.09,2.66,2.45C54.77,64.31,54.7,65.96,54.7,67.64z M61.23,53.69
		c1.28,0,2.33,1.04,2.33,2.32c0,1.28-1.04,2.33-2.32,2.33c-1.28,0-2.33-1.04-2.33-2.32C58.9,54.74,59.96,53.69,61.23,53.69z
		 M65.88,67.64c-3.1,0-6.17,0-9.27,0c0-1.69-0.08-3.36,0.02-5.01c0.08-1.37,1.31-2.39,2.69-2.41c1.28-0.02,2.56-0.02,3.84,0
		c1.38,0.02,2.61,1.04,2.69,2.41C65.95,64.28,65.88,65.95,65.88,67.64z"/>
	<path class="st0" d="M17.91,48.53c-0.01,2.31,1.85,4.21,4.14,4.23c2.33,0.02,4.24-1.86,4.24-4.19c0.01-2.3-1.87-4.19-4.17-4.19
		C19.81,44.36,17.92,46.23,17.91,48.53z M24.43,48.55c0,1.28-1.04,2.33-2.32,2.34c-1.27,0.01-2.34-1.04-2.34-2.32
		c0-1.28,1.04-2.33,2.32-2.34C23.37,46.23,24.42,47.27,24.43,48.55z"/>
	<path class="st0" d="M29.09,48.51c-0.02,2.31,1.84,4.22,4.13,4.24c2.33,0.02,4.25-1.85,4.26-4.17c0.01-2.3-1.86-4.2-4.16-4.21
		C31.01,44.35,29.11,46.22,29.09,48.51z M35.61,48.57c-0.01,1.28-1.06,2.32-2.34,2.31c-1.27,0-2.32-1.07-2.31-2.34
		c0.01-1.28,1.06-2.32,2.34-2.31C34.57,46.24,35.62,47.3,35.61,48.57z"/>
	<path class="st0" d="M51.46,48.6c0.02,2.3,1.92,4.17,4.22,4.15c2.32-0.02,4.19-1.93,4.16-4.27c-0.03-2.29-1.94-4.14-4.25-4.12
		C53.3,44.39,51.44,46.3,51.46,48.6z M57.97,48.56c0,1.28-1.05,2.32-2.33,2.32c-1.27,0-2.33-1.06-2.32-2.33
		c0.01-1.28,1.05-2.32,2.33-2.32C56.93,46.23,57.98,47.29,57.97,48.56z"/>
	<path class="st0" d="M40.27,48.57c0.01,2.3,1.89,4.18,4.19,4.18c2.33,0,4.21-1.91,4.19-4.24c-0.01-2.29-1.91-4.16-4.22-4.15
		C42.14,44.38,40.27,46.27,40.27,48.57z M46.79,48.58c-0.01,1.28-1.06,2.32-2.34,2.31c-1.27,0-2.32-1.07-2.31-2.34
		c0.01-1.28,1.06-2.32,2.34-2.31C45.76,46.24,46.8,47.3,46.79,48.58z"/>
	<path class="st1" d="M45.61,32.25c1.05,0,2.1,0,3.14,0c1.05,0,2.1,0,3.14,0c2.13,0,4.27,0.01,6.4,0c2.28-0.01,3.87-1.6,3.88-3.89
		c0.01-2.99,0.01-5.98,0-8.96c0-2.33-1.59-3.91-3.91-3.92c-4.23,0-8.46,0-12.69,0c-2.32,0-3.9,1.59-3.9,3.92
		c-0.01,2.97,0,5.94,0,8.9C41.67,30.67,43.25,32.25,45.61,32.25z M43.53,19.47c0-1.39,0.73-2.12,2.11-2.12c4.19,0,8.39,0,12.58,0
		c1.34,0,2.08,0.75,2.08,2.1c0,2.95,0,5.9,0,8.85c0,1.35-0.74,2.09-2.08,2.1c-2.1,0-4.19,0-6.29,0c-2.1,0-4.19,0-6.29,0
		c-1.38,0-2.11-0.74-2.11-2.13C43.53,25.33,43.53,22.4,43.53,19.47z"/>
	<path class="st0" d="M51.89,32.25c-1.05,0-2.1,0-3.14,0C49.8,32.25,50.84,32.25,51.89,32.25c2.13,0,4.27,0.01,6.4,0
		C56.16,32.26,54.03,32.25,51.89,32.25z"/>
	<path class="st1" d="M58.4,19.24c-3.1,0-6.16,0-9.25,0c0,0.6,0,1.18,0,1.79c3.12,0,6.19,0,9.25,0C58.4,20.4,58.4,19.81,58.4,19.24z
		"/>
	<path class="st1" d="M58.4,22.96c-3.11,0-6.16,0-9.25,0c0,0.6,0,1.18,0,1.79c3.12,0,6.19,0,9.25,0
		C58.4,24.13,58.4,23.54,58.4,22.96z"/>
	<path class="st1" d="M49.15,28.49c3.12,0,6.19,0,9.25,0c0-0.63,0-1.22,0-1.8c-3.1,0-6.16,0-9.25,0
		C49.15,27.29,49.15,27.87,49.15,28.49z"/>
	<path class="st1" d="M47.23,19.23c-0.6,0-1.18,0-1.79,0c0,0.64,0,1.22,0,1.79c0.63,0,1.22,0,1.79,0
		C47.23,20.4,47.23,19.83,47.23,19.23z"/>
	<path class="st1" d="M47.22,22.96c-0.61,0-1.19,0-1.79,0c0,0.64,0,1.21,0,1.81c0.62,0,1.2,0,1.79,0
		C47.22,24.14,47.22,23.55,47.22,22.96z"/>
	<path class="st1" d="M45.43,28.49c0.62,0,1.21,0,1.81,0c0-0.61,0-1.18,0-1.78c-0.65,0-1.24,0-1.81,0
		C45.43,27.33,45.43,27.9,45.43,28.49z"/>
</g>
</svg>
