<?xml version="1.0" encoding="utf-8"?>
<!-- Generator: Adobe Illustrator 24.0.0, SVG Export Plug-In . SVG Version: 6.00 Build 0)  -->
<svg version="1.1" id="Capa_1" xmlns="http://www.w3.org/2000/svg" xmlns:xlink="http://www.w3.org/1999/xlink" x="0px" y="0px"
	 viewBox="0 0 200 200" style="enable-background:new 0 0 200 200;" xml:space="preserve">
<style type="text/css">
	.st0{fill:#FE9900;}
	.st1{fill:#1C3247;}
	.st2{fill:#ACAEAF;}
</style>
<g>
	<path class="st0" d="M153.8,137.6c-18.9,0-34-15.3-33.9-34c0-18.9,15.3-34,34.2-33.9c18.7,0.2,33.9,15.5,33.7,34.2
		C187.7,122.5,172.5,137.6,153.8,137.6z M153.8,130.5c14.9,0,27-12.1,27-27s-12.1-27-27-27.1c-14.9,0-27.1,12.1-27.1,27.1
		C126.8,118.4,139,130.5,153.8,130.5z"/>
	<path class="st1" d="M124.1,81.4c-0.9,1.2-1.5,2.3-2.5,3.1c-1.4,0.9-2.8,0.6-4-0.3c-4-2.8-8.3-5.1-12.9-6.4
		c-18.6-5.5-35.6-2.9-50.6,9.8c-4.8,4-8.9,8.6-13.5,12.6c-3.8,3.4-8.1,6.3-12.3,9.4c-2,1.5-4.3,1.1-5.4-0.6s-0.6-3.7,1.4-5.1
		c8.3-5.5,15.6-12.1,22.7-19.2c13-12.9,29-17.8,47.1-16.3c10,0.9,19,4.1,27.3,9.8C122.4,79,123,80.2,124.1,81.4z"/>
	<path class="st2" d="M87.7,35.9C72.6,36,58.3,39.4,45,46.5c-0.3,0.2-0.6,0.3-0.9,0.5c-2,0.9-4,0.3-4.9-1.4
		c-0.9-1.7-0.5-3.8,1.5-4.8c3.4-1.7,6.7-3.5,10.3-4.9c28.4-10.9,56.1-9.5,83.3,4.3c0.6,0.3,1.4,0.8,2,1.4c1.1,1.2,1.1,3.1,0.2,4.3
		c-1.1,1.4-2.8,1.7-4.6,0.9c-4-1.8-8-3.8-12.1-5.4C109.4,37.6,98.8,35.9,87.7,35.9z"/>
	<path class="st2" d="M90.5,94c7.1-0.3,14.7,3.7,21.2,10.3c1.5,1.5,1.5,3.5,0.2,5.1c-1.4,1.5-3.4,1.5-5.1,0c-0.8-0.6-1.5-1.2-2.1-2
		c-9.5-9.4-27.1-7.7-35.1,0.9c-10.3,11.2-22.4,20.4-35.6,28.1c-0.3,0.2-0.6,0.3-0.9,0.5c-2,0.9-4,0.5-4.9-1.2
		c-0.9-1.7-0.5-3.5,1.4-4.8c2.1-1.4,4.3-2.6,6.3-3.8c10.4-6.7,20.1-14.6,28.7-23.5C71,96.9,79,94.2,90.5,94z"/>
	<path class="st1" d="M103.2,50.3c-2.5-0.3-4.3-0.6-6.1-0.8c-16.3-1.8-31.6,0.9-46.2,8.6c-6.7,3.5-12.7,8.1-17.9,13.6
		c-1.2,1.2-2.5,2-4.1,1.4c-2.6-0.8-3.2-4-1.1-6c4.4-3.8,8.6-8,13.5-11.2c18.6-12.3,39.1-16.1,60.9-12.7c1.2,0.2,2.8,0.9,3.5,1.8
		c0.6,0.8,0.5,2.5,0,3.5C105.1,49.4,103.7,50,103.2,50.3z"/>
	<path class="st2" d="M104.6,134.5c-0.9,1.1-1.5,2.3-2.5,2.9c-1.4,0.9-2.8,0.5-4-0.6c-2.9-2.8-6-5.4-8.7-8.1c-1.2-1.1-1.8-1.1-3.1,0
		c-12.7,10.9-25.6,21.8-39.9,30.7c-0.3,0.2-0.8,0.5-1.1,0.6c-1.8,1.1-3.8,0.5-4.9-1.2c-1.1-1.7-0.5-3.5,1.4-4.9
		c6-4.1,12.3-8.1,18.1-12.7c7.7-6,15.2-12.4,22.7-18.7c3.4-2.8,7.5-2.8,10.7,0.2c3.2,2.9,6.3,5.8,9.4,8.7
		C103.4,132.2,103.8,133.3,104.6,134.5z"/>
	<path class="st2" d="M87.3,107.2c6.1,0,10.9,1.8,14.9,6c10.4,10.9,22.2,20.1,35.1,27.8c0.3,0.2,0.8,0.5,1.1,0.6
		c1.8,1.2,2.3,3.2,1.2,4.9s-3.1,2.1-4.9,1.1c-4.6-2.9-9-5.7-13.5-8.7c-8.7-6.1-16.7-13-24.1-20.5c-4.1-4.1-9.7-5.1-15.2-2.8
		c-1.1,0.5-2.6,0.6-3.7,0.2c-2.5-1.1-2.5-4.6-0.2-6C81.1,107.7,84.4,107.2,87.3,107.2z"/>
	<path class="st1" d="M89.7,62c-8.3,0.2-14.6,0.9-20.7,2.8c-0.3,0.2-0.8,0.2-1.1,0.3c-2.1,0.5-4-0.5-4.4-2.3
		c-0.6-1.8,0.5-3.8,2.5-4.3c3.5-0.9,7.1-2,10.6-2.5c17.2-2.5,33.3,0.3,48.3,9c0.6,0.5,1.4,0.8,2,1.2c1.8,1.2,2.5,3.4,1.4,5.1
		c-1.1,1.7-3.1,2.1-5.1,0.9c-4.8-3.1-9.8-5.5-15.2-7.1c-2.8-0.8-5.5-1.5-8.4-2C95.7,62.4,91.7,62.1,89.7,62z"/>
	<path class="st2" d="M88,162.7c-7.2,4.9-14.1,9.8-21.2,14.7c-0.6,0.3-1.1,0.8-1.7,0.9c-1.5,0.6-3.4,0-4.3-1.4
		c-0.9-1.4-0.6-3.1,0.6-4.3c0.5-0.5,0.9-0.8,1.5-1.1c6.9-4.9,13.8-9.8,20.5-14.9c3.4-2.5,5.1-2.5,8.4,0c6.9,5.1,13.8,10,20.7,14.9
		c0.2,0.2,0.5,0.3,0.6,0.5c2,1.4,2.5,3.2,1.4,5.1c-1.1,1.7-3.1,2.1-5.1,0.9c-3.1-2-6.1-3.8-9-6C96.3,169,92.2,165.8,88,162.7z"/>
	<path class="st2" d="M87.9,145.4c-1.5,1.4-2.9,2.6-4.3,3.7c-1.8,1.5-3.8,1.4-5.2-0.2c-1.4-1.5-1.1-3.5,0.6-5.1
		c1.4-1.2,2.8-2.5,4.3-3.7c3.1-2.8,6-2.8,9,0c7.5,6.7,15.3,12.9,23.8,18.4c2.9,1.8,5.8,3.7,8.7,5.5c1.4,0.9,2.1,2,1.8,3.7
		c-0.3,1.5-1.2,2.6-2.8,2.8c-1.1,0.2-2.3-0.3-3.2-0.8c-11.2-6.4-21.5-14.1-31.3-22.7C89.1,146.3,88.5,145.8,87.9,145.4z"/>
	<path class="st1" d="M87.9,80.8c3.4,0.5,6.7,0.8,10,1.4c2.1,0.3,3.2,2.1,2.8,4.1c-0.3,2-2.1,3.1-4.3,2.8c-0.6-0.2-1.2-0.3-2-0.3
		c-11.8-1.7-22.7,0.6-31.9,8.7c-1.8,1.5-3.4,3.4-5.2,5.1c-1.8,1.8-4,2-5.4,0.5c-1.5-1.5-1.4-3.5,0.5-5.4c4.6-4.8,9.4-9.2,15.5-12
		C74.4,82.5,81,81,87.9,80.8z"/>
	<path class="st2" d="M36.8,149.7c-2-0.2-3.2-0.9-3.5-2.5c-0.5-1.7,0-3.1,1.4-4c1.4-0.9,2.9-1.7,4.3-2.6c8.3-5.1,16.1-10.7,23.5-17
		c0.6-0.6,1.4-1.2,2.3-1.4c1.7-0.5,2.9,0.2,3.8,1.7c0.9,1.5,0.6,3.2-0.9,4.4c-3.1,2.6-6,5.2-9.2,7.5c-6.3,4.4-12.9,8.6-19.3,12.9
		C38.4,149.2,37.4,149.4,36.8,149.7z"/>
	<path class="st1" d="M52.8,64.1c1.1,0.9,2.1,1.5,2.9,2.6c0.8,1.2,0.5,2.8-0.8,3.8c-0.5,0.5-1.2,0.8-1.7,1.2
		c-3.4,2.8-6.9,5.4-10.3,8.3c-4.9,4.3-9.7,8.6-14.4,13c-1.2,1.2-2.8,1.5-4.3,0.5c-1.8-1.1-2.5-4-0.8-5.2
		c8.9-6.7,15.8-16.1,25.5-22.1C50,65.5,51.2,65,52.8,64.1z"/>
	<path class="st2" d="M103.1,23.5C96,23.3,89,23.2,81.9,23.2c-2.9,0-5.8,0.5-8.9,0.8c-2.5,0.2-4.1-1.1-4.3-3.1
		c-0.2-2,1.2-3.5,3.7-3.8c10.1-1.4,20.4-1.4,30.5,0c0.5,0,0.8,0.2,1.2,0.2c1.8,0.5,2.9,2,2.6,4c-0.3,1.8-1.8,3.1-3.8,2.9
		C103.1,23.8,103.1,23.6,103.1,23.5z"/>
	<path class="st2" d="M137,65.6c-0.5-0.3-1.4-0.5-2-1.1c-5.7-4.4-12-7.8-18.7-10.4c-2.3-0.9-3.2-2.8-2.5-4.8
		c0.8-1.8,2.6-2.6,4.8-1.8c7.5,2.8,14.4,6.7,20.7,11.7c1.4,1.1,2,2.5,1.4,4.1C140.2,64.9,139,65.5,137,65.6z"/>
	<path class="st2" d="M132.1,160.7c-0.5-0.2-1.2-0.5-2-0.8c-5.7-3.7-11.2-7.2-16.9-11c-1.8-1.2-2.3-3.4-1.1-5.1
		c1.2-1.5,3.2-1.8,4.9-0.8c5.7,3.7,11.2,7.4,16.9,10.9c1.5,0.9,2,2.5,1.5,4.1C135.1,159.8,133.9,160.4,132.1,160.7z"/>
	<path class="st2" d="M100.2,180.3c-0.3,2.9-3.2,4.6-5.7,3.2c-1.7-0.9-3.2-2.1-4.8-3.4c-1.2-1.1-2.3-1.1-3.7,0
		c-1.4,1.1-2.9,2.1-4.4,3.1c-1.8,1.2-4,0.9-5.1-0.8c-1.1-1.7-0.6-3.7,1.2-5.1c1.8-1.2,3.5-2.6,5.4-3.7c3.1-2,6.3-2.1,9.4-0.2
		c2,1.2,4,2.6,5.8,4.1C99.1,178.3,99.5,179.6,100.2,180.3z"/>
	<path class="st2" d="M66.4,154.1c1.8,0.2,3.1,0.9,3.7,2.5c0.5,1.5,0,3.1-1.4,4c-2.6,1.8-5.4,3.7-8.1,5.5c-2,1.4-4.1,2.6-6.1,3.8
		s-4,0.8-5.1-1.1c-1.1-1.7-0.5-3.7,1.5-4.9c4.4-2.9,9-5.8,13.5-8.7C65.2,154.6,66,154.3,66.4,154.1z"/>
	<path class="st2" d="M44.2,112.6c-0.8,1.2-1.2,2.3-2,2.9c-4.1,2.9-8.3,5.7-12.4,8.4c-1.8,1.2-4,0.6-5.1-1.1
		c-1.1-1.7-0.5-3.5,1.4-4.9c4-2.6,8-5.4,11.8-8c1.2-0.9,2.6-1.2,3.8-0.3C42.7,110.3,43.3,111.5,44.2,112.6z"/>
	<path class="st0" d="M147.2,109.5c0.6-0.6,1.2-1.1,1.7-1.5c5.2-5.2,10.4-10.6,15.8-15.8c1.7-1.7,3.7-1.8,5.2-0.5
		c1.7,1.5,1.5,3.5-0.3,5.4c-3.8,3.8-7.7,7.7-11.3,11.3c-1.8,1.8-3.5,3.7-5.4,5.4c-3.2,3.2-7.5,3.2-10.9,0c-2.1-2-4.1-4.1-6.1-6.1
		c-1.7-1.7-1.7-3.7-0.3-5.2c1.5-1.5,3.5-1.4,5.2,0.2C142.9,104.9,145.1,107.2,147.2,109.5z"/>
</g>
</svg>
