<?xml version="1.0" encoding="utf-8"?>
<!-- Generator: Adobe Illustrator 24.0.0, SVG Export Plug-In . SVG Version: 6.00 Build 0)  -->
<svg version="1.1" id="Capa_1" xmlns="http://www.w3.org/2000/svg" xmlns:xlink="http://www.w3.org/1999/xlink" x="0px" y="0px"
	 viewBox="0 0 80 80" style="enable-background:new 0 0 80 80;" xml:space="preserve">
<style type="text/css">
	.st0{fill:#ACAEAF;}
	.st1{fill:#FE9900;}
	.st2{fill:#1C3247;}
</style>
<g>
	<path class="st0" d="M72.98,42.79c-1.04,2.18-2.82,3.81-4.32,5.65c-2.51,3.08-5.11,6.09-7.63,9.16c-2.34,2.85-5.37,4.21-9.01,4.23
		c-5.56,0.04-11.13,0.06-16.69-0.02c-1.92-0.03-3.1,1.05-4.26,2.28c-0.09,0.09-0.08,0.32-0.06,0.47c0.29,1.51-0.11,2.79-1.22,3.87
		c-1.96,1.9-3.89,3.83-5.84,5.74c-0.23,0.22-0.5,0.4-0.75,0.6c-0.26,0-0.52,0-0.77,0c-0.38-0.34-0.79-0.65-1.15-1.01
		c-4.53-4.55-9.06-9.12-13.58-13.68c-0.9-0.91-0.91-1.52-0.02-2.41c1.88-1.89,3.77-3.77,5.64-5.66c0.91-0.92,1.97-1.41,3.28-1.36
		c0.2,0.01,0.5-0.15,0.59-0.31c4.28-7.51,13.64-9.36,20.37-6.77c0.33,0.13,0.71,0.18,1.06,0.18c4.4,0.01,8.81,0.03,13.21,0
		c1.8-0.01,3.34,0.48,4.76,2.12c0.11-0.25,0.15-0.49,0.29-0.64c2.39-2.47,4.79-4.93,7.18-7.4c2.88-2.97,7.22-2.12,8.78,1.72
		c0.02,0.06,0.07,0.1,0.11,0.15C72.98,40.73,72.98,41.76,72.98,42.79z M29.34,62.11c0.19-0.18,0.38-0.32,0.53-0.49
		c1.58-1.72,3.53-2.41,5.88-2.38c5.35,0.07,10.7,0.03,16.05,0.02c2.96,0,5.43-1.04,7.31-3.4c1.12-1.41,2.31-2.77,3.47-4.16
		c2.44-2.92,4.89-5.83,7.31-8.75c0.96-1.16,0.87-2.7-0.18-3.65c-1.03-0.94-2.59-0.89-3.6,0.14c-2.76,2.83-5.51,5.66-8.26,8.51
		c-0.13,0.14-0.25,0.36-0.25,0.55c-0.08,3.57-2.14,5.59-5.71,5.6c-3.14,0-6.27,0-9.41,0c-0.26,0-0.52,0-0.77-0.04
		c-0.68-0.12-1.11-0.65-1.09-1.31c0.02-0.65,0.49-1.14,1.18-1.22c0.23-0.03,0.47-0.02,0.71-0.02c3.16,0,6.32,0,9.47,0
		c0.28,0,0.56-0.01,0.83-0.04c1.22-0.17,2.12-1.17,2.2-2.41c0.08-1.13-0.71-2.28-1.83-2.58c-0.41-0.11-0.85-0.13-1.28-0.13
		c-4.55-0.01-9.11,0-13.66-0.01c-0.42,0-0.87-0.05-1.25-0.21c-2.86-1.17-5.8-1.34-8.79-0.72c-3.77,0.78-6.69,2.79-8.69,6.11
		c-0.23,0.39-0.2,0.61,0.13,0.92c0.91,0.86,1.77,1.75,2.65,2.63C24.64,57.4,26.97,59.74,29.34,62.11z M23.12,71.66
		c1.64-1.71,3.37-3.5,5.08-5.31c0.54-0.57,0.44-1.29-0.2-1.94c-3.54-3.54-7.08-7.08-10.62-10.62c-0.75-0.75-1.41-0.75-2.17,0.01
		c-1.14,1.14-2.27,2.29-3.42,3.42c-0.54,0.54-1.11,1.05-1.74,1.64C14.4,63.12,18.65,67.28,23.12,71.66z"/>
	<path class="st1" d="M45.48,37.02C37.62,37,31.29,30.63,31.32,22.76c0.03-7.82,6.4-14.15,14.23-14.14
		c7.84,0.01,14.19,6.41,14.16,14.27C59.68,30.72,53.32,37.04,45.48,37.02z M45.51,34.44c6.41,0,11.6-5.17,11.62-11.58
		c0.01-6.43-5.19-11.65-11.61-11.65c-6.4,0-11.6,5.19-11.61,11.59C33.89,29.24,39.08,34.44,45.51,34.44z"/>
	<path class="st0" d="M37.79,52.59c-0.01,0.7-0.57,1.26-1.27,1.27c-0.7,0.01-1.32-0.61-1.3-1.32c0.01-0.71,0.62-1.28,1.35-1.25
		C37.27,51.32,37.8,51.88,37.79,52.59z"/>
	<path class="st2" d="M43.97,16.54c0-0.45-0.01-0.93,0-1.4c0.02-0.78,0.56-1.34,1.27-1.35c0.71-0.01,1.35,0.55,1.28,1.31
		c-0.09,0.99,0.09,1.72,1.15,2.07c0.29,0.09,0.52,0.37,0.75,0.59c0.54,0.53,0.56,1.26,0.08,1.79c-0.45,0.5-1.16,0.57-1.75,0.15
		c-0.26-0.19-0.51-0.4-0.78-0.56c-0.54-0.3-1.08-0.28-1.55,0.13c-0.41,0.36-0.56,0.82-0.38,1.34c0.2,0.6,0.64,0.87,1.27,0.91
		c1.99,0.15,3.36,1.3,3.75,3.13c0.37,1.71-0.47,3.33-2.16,4.27c-0.16,0.09-0.3,0.33-0.33,0.52c-0.05,0.38,0,0.77-0.02,1.16
		c-0.04,0.75-0.58,1.25-1.29,1.24c-0.71,0-1.33-0.52-1.25-1.26c0.11-1.07-0.2-1.74-1.23-2.17c-0.46-0.19-0.83-0.67-1.17-1.08
		c-0.46-0.55-0.37-1.28,0.14-1.74c0.51-0.46,1.2-0.46,1.75,0.02c0.29,0.25,0.55,0.55,0.87,0.76c0.54,0.36,1.13,0.45,1.68,0.03
		c0.45-0.34,0.63-0.82,0.46-1.37c-0.21-0.66-0.71-0.91-1.38-0.95c-2.87-0.19-4.58-3.08-3.32-5.59C42.2,17.7,42.65,17.29,43.97,16.54
		z"/>
</g>
</svg>
