<?xml version="1.0" encoding="utf-8"?>
<!-- Generator: Adobe Illustrator 24.0.0, SVG Export Plug-In . SVG Version: 6.00 Build 0)  -->
<svg version="1.1" id="Capa_1" xmlns="http://www.w3.org/2000/svg" xmlns:xlink="http://www.w3.org/1999/xlink" x="0px" y="0px"
	 viewBox="0 0 200 200" style="enable-background:new 0 0 200 200;" xml:space="preserve">
<style type="text/css">
	.st0{fill:none;}
	.st1{fill:#ACAEAF;}
	.st2{fill:#FE9900;}
	.st3{fill:#1C3247;}
</style>
<g>
	<path class="st0" d="M106.6,159.7c4.9,0,9.9,0,14.8,0c4.6,0,9.3,0,14.1,0c-4.6,0-9.3,0-14.1,0C116.6,159.7,111.7,159.7,106.6,159.7
		z"/>
	<path class="st0" d="M146.6,159.7c-1,0-2.2,0-3.3,0C144.5,159.7,145.6,159.7,146.6,159.7c0.9,0,1.6,0,2.5,0
		C148.4,159.7,147.5,159.7,146.6,159.7z"/>
	<path class="st0" d="M112,145.9c-0.6,0-1.2,0-1.8,0c-0.6,0-1.2,0-1.8,0c0.6,0,1.2,0,1.8,0C110.6,145.9,111.2,145.9,112,145.9z"/>
	<path class="st1" d="M164.9,27.3c-42.6,0-85.4,0-128,0c-9.6,0-15.8,6.3-15.8,16c0,34.4,0,68.6,0,103c0,9.7,6.3,16,16,16
		c13.9,0,27.8,0,41.7,0c0.6,0,1.2,0,1.9,0c0,2.1,0,4,0,6c0,5.7,4,9.7,9.6,9.7c22.6,0,45.1,0,67.9,0c5.7,0,9.6-4,9.6-9.7
		c0-1.9,0-4,0-6c8.5-1.9,13-7.5,13-16c0-34.4,0-68.6,0-103C180.9,33.7,174.4,27.3,164.9,27.3z M122,31.3c0.6,0,1.2,0,1.6,0
		c13.8,0,27.5,0,41.3,0c7.5,0,12,4.6,12,12c0,1.8,0,3.6,0,5.5c-19.1,0-38.1,0-57.3,0C123.3,43.3,121.1,37.1,122,31.3z M76.5,40.1
		c-0.1-3,0-5.8,0-8.8c13.8,0,27.5,0,41.3,0c0,0.3,0.1,0.7,0.1,1c0,3.1,0,6.4,0,9.6c-0.1,3.9-3,6.9-6.7,6.9c-12.3,0-24.5,0-36.6,0
		c-0.1,0-0.1,0-0.6-0.1C75.9,46.1,76.7,43.3,76.5,40.1z M25.4,39.8c0.9-4.9,5.2-8.5,10.3-8.7c12.1-0.1,24.2,0,36.3,0
		c0.1,0,0.3,0,0.6,0.1c0,3.9,0.1,7.6,0,11.5c-0.3,3.3-3.3,6-6.6,6c-13.5,0-27.1,0-40.5,0c0,0-0.1,0-0.4-0.3
		C25,45.6,24.8,42.7,25.4,39.8z M163.8,167.8c0,4.2-2.1,6.3-6.1,6.3c-20.5,0-41.1,0-61.6,0c-0.4,0-0.9,0-1.5,0c0-32.6,0-65,0-97.8
		c0.6,0,1.2,0,1.8,0c20.5,0,41,0,61.4,0c4.2,0,6.1,1.9,6.1,6.1C163.8,110.8,163.8,139.4,163.8,167.8z M176.8,147.3
		c0,4.9-3.1,9.3-7.9,10.6c-0.3,0.1-0.7,0.1-1.2,0.1c0-0.7,0-1.3,0-2.1c0-24.5,0-48.9,0-73.4c0-6.7-3.7-10.5-10.3-10.5
		c-22.1,0-44.2,0-66.4,0c-6.6,0-10.3,3.7-10.3,10.3c0,2.8,0,5.7,0,8.5c0,1.5,0.7,2.5,1.9,2.4c1.3-0.1,1.9-1,1.9-2.4
		c0-3.1,0-6.3,0-9.4c0-3.3,2.2-5.4,5.8-5.4c0,32.6,0,65.2,0,97.6c-3.4,0.1-5.7-2.2-5.8-5.5c0-4,0-7.9,0-12c0-16.7,0-33.3,0-50.1
		c0-0.6,0.1-1.2-0.1-1.6c-0.4-0.6-1.2-1.5-1.8-1.5c-0.7,0-1.5,0.9-1.9,1.5c-0.3,0.3-0.1,1-0.1,1.6c0,16.6,0,33.2,0,49.8
		c0,0.6,0,1.3,0,2.1c-0.7,0-1.2,0-1.8,0c-14.1,0-28.1,0-42,0c-7.2,0-11.8-4.6-11.8-11.8c0-30.6,0-61.4,0-92.1c0-0.6,0-1,0-1.6
		c50.7,0,101.2,0,151.7,0c0,0.3,0.1,0.7,0.1,1C176.8,85,176.8,116.2,176.8,147.3z"/>
	<path class="st2" d="M51.3,87.1c-10.2,1.3-17.5,10.3-17.2,20.6c0.4,13,13,22.3,25.4,18.7c1.5-0.4,2.2-1.3,1.8-2.5
		c-0.4-1.3-1.5-1.6-2.8-1.3c-1.3,0.3-2.8,0.6-4.3,0.6c-8.2,0-15.1-6.1-16-14.2c-0.9-8.1,4.3-15.7,12.1-17.6
		c8.1-1.9,16.3,2.2,19.1,10c1.2,3,1.3,6,0.7,9.1c-0.4,1.9,0,3,1.3,3.3c1.2,0.3,2.1-0.6,2.5-2.5c0.3-1.3,0.3-2.7,0.6-4.2
		c-0.3-1.5-0.3-3.3-0.7-4.9C71,91.8,61.4,85.6,51.3,87.1z"/>
	<path class="st2" d="M62.5,105.3c-3.3-2.5-6.6-4.9-9.9-7.3c-0.6-0.4-1.8-0.6-2.4-0.3c-0.6,0.3-0.9,1.3-1,1.9c-0.1,2.4,0,4.9,0,7.3
		c0,2.5,0,5.1,0,7.6c0,1.9,1.8,2.8,3.3,1.6c3.4-2.4,6.7-4.9,10-7.5C63.8,107.7,63.8,106.3,62.5,105.3z M53.1,110.8
		c0-2.7,0-4.9,0-7.6c1.8,1.3,3.3,2.5,5.1,3.9C56.5,108.3,54.9,109.5,53.1,110.8z"/>
	<path class="st2" d="M49.2,106.9c0-2.4-0.1-4.9,0-7.3C49,102,49.2,104.5,49.2,106.9c0,2.5,0,5.1,0,7.6
		C49,112,49.2,109.5,49.2,106.9z"/>
	<path class="st3" d="M31.8,63.3c-1.2,0-1.9,0.9-1.9,2.7c0,7.9,0,15.7,0,23.6c0,1.6,0.7,2.7,1.9,2.7s1.9-0.9,1.9-2.7
		c0-3.9,0-7.8,0-11.7c0-3.9,0-7.9,0-11.8C33.8,64.2,33,63.1,31.8,63.3z"/>
	<path class="st2" d="M69.7,116.4c-0.6-0.1-1.6-0.1-2.1,0.1c-0.9,0.7-1.8,1.6-2.4,2.7c-0.3,0.4-0.3,1.5,0.1,2.1
		c0.3,0.4,1.2,0.7,1.8,0.7c1.2,0,3.6-2.8,3.6-4.5C70.4,117.4,70.1,116.7,69.7,116.4z"/>
	<path class="st3" d="M31.8,61.3c1.2,0,1.9-0.9,1.9-2.5c0-1.5-0.7-2.4-1.9-2.4s-1.9,1-1.9,2.5S30.6,61.3,31.8,61.3z"/>
	<path class="st1" d="M153.4,110.5c0.1-1.5-0.6-2.2-1.9-2.8c-7.8-2.8-15.7-5.8-23.5-8.7c-0.6-0.3-1.5-0.3-2.2,0
		c-8.1,2.8-16,5.8-23.9,8.8c-0.7,0.3-1.5,1.2-1.5,1.9c0,0.6,0.7,1.5,1.3,1.8c1.3,0.7,2.8,1.3,4.3,1.8c1.5,0.4,2.1,1.2,2.1,2.8
		c-0.1,3.7,0,7.3,0,11.1c0,1.5,0.6,2.4,2.1,2.8c11.1,3.7,22.1,3.9,33.2,0c1.3-0.4,1.9-1.2,1.9-2.7c0-3.1,0-6.3,0-9.4
		c0-4,0-4,3.9-5.2c0,0,0.1,0,0.6,0c-0.1,1-0.1,1.9-0.6,2.7c-2.2,4-2.4,8.4-2.1,12.9c0,1.3,0.7,2.2,2.2,2.2s3,0,4.6,0
		c1.2,0,2.2-0.7,2.2-1.9c0-3.4,0.7-7.2-0.9-10.5C153.8,115.9,153.1,113.2,153.4,110.5z M111.8,125.9c10,2.8,19.7,3,29.6,0.3
		C138,130.1,115.1,130,111.8,125.9z M112,115.8c3.1,1.2,6.3,2.1,9,3.6c3.9,2.1,7.6,2.1,11.5,0c2.7-1.5,5.7-2.2,8.7-3.4
		c0,2.1,0,4,0,6c-3.7,1.3-7.6,2.1-11.7,2.2c-5.5,0.3-11.1-0.3-16.4-1.9c-0.9-0.3-1.2-0.6-1.2-1.5C112.1,119.2,112,117.7,112,115.8z
		 M132,115.5c-3.6,1.6-6.7,1.6-10.5,0c-4.3-2.1-9-3.6-13.9-5.5c1.8-0.7,3.4-1.2,4.9-1.8c4.3-1.6,8.7-3.1,13-4.8
		c0.6-0.1,1.5-0.3,1.9-0.1c5.8,2.1,11.7,4.3,17.5,6.4c0.1,0,0.3,0.1,0.4,0.4C141,111.9,136.3,113.4,132,115.5z M151.9,126.8
		c-0.3-0.3-0.9-0.4-0.9-0.7c0-1.9,0-3.7,0.1-5.7c0.3,0,0.6,0,0.9,0c0.1,1.9,0.3,4,0.3,6C152,126.7,152,126.7,151.9,126.8z"/>
	<path class="st1" d="M135.4,155.8c-4.6,0-9.3,0-14.1,0c-4.9,0-9.7,0-14.6,0c-1.3,0-2.2,0.3-2.5,1.8c-0.1,1.2,0.7,2.1,2.4,2.1
		c4.9,0,9.9,0,14.8,0c4.6,0,9.3,0,14.1,0c2.1,0,3-0.6,3-1.9C138.6,156.4,137.5,155.8,135.4,155.8z"/>
	<path class="st1" d="M149.5,145.9c-9.3,0-18.7,0-28,0c-1.8,0-2.5,0.6-2.5,1.9c0,1.3,0.9,1.9,2.7,1.9c4.6,0,9.3,0,13.9,0
		c2.4,0,4.8,0,7,0s4.8,0,7,0c1.6,0,2.7-0.7,2.7-1.9C152,146.7,151.1,145.9,149.5,145.9z"/>
	<path class="st1" d="M121.5,149.8c4.6,0,9.3,0,13.9,0c2.4,0,4.8,0,7,0c-2.4,0-4.8,0-7,0C130.6,149.8,126.2,149.8,121.5,149.8z"/>
	<path class="st1" d="M106.3,149.8c2.5,0,5.1,0,7.6,0c1.2,0,1.9-0.7,1.9-1.9c0-1.3-0.7-1.9-2.1-1.9c-0.6,0-1.2,0-1.8,0
		c-0.6,0-1.2,0-1.8,0c-0.6,0-1.2,0-1.8,0c-0.6,0-1.2,0-1.8,0c-1.2,0-2.1,0.7-2.1,1.9C104.2,149.2,105.1,149.8,106.3,149.8z"/>
	<path class="st1" d="M150.1,155.8c-2.2,0-4.5,0-6.7,0c-1.2,0-1.9,0.7-1.9,1.9c0,1.2,0.7,1.9,1.9,1.9c1,0,2.2,0,3.3,0
		c0.9,0,1.6,0,2.5,0c0.3,0,0.6,0,0.9,0c1.2,0,1.9-0.7,1.9-1.9C152,156.6,151.3,155.8,150.1,155.8z"/>
	<path class="st1" d="M38,42.7c1.5,0,2.7-1,2.7-2.5c0.1-1.5-1-2.7-2.5-2.8c-1.5,0-2.7,1-2.7,2.7C35.4,41.5,36.6,42.7,38,42.7z"/>
	<path class="st1" d="M48.7,42.7c1.3,0,2.5-1.2,2.5-2.5c0-1.5-1.2-2.7-2.7-2.7c-1.5,0-2.7,1.2-2.5,2.7
		C46.2,41.6,47.4,42.7,48.7,42.7z"/>
	<path class="st1" d="M59.2,42.7c1.5,0,2.7-1,2.7-2.5c0.1-1.5-1-2.7-2.5-2.8c-1.5,0-2.7,1.2-2.7,2.7C56.7,41.5,57.8,42.7,59.2,42.7z
		"/>
</g>
</svg>
