<?xml version="1.0" encoding="utf-8"?>
<!-- Generator: Adobe Illustrator 24.0.0, SVG Export Plug-In . SVG Version: 6.00 Build 0)  -->
<svg version="1.1" id="Capa_1" xmlns="http://www.w3.org/2000/svg" xmlns:xlink="http://www.w3.org/1999/xlink" x="0px" y="0px"
	 viewBox="0 0 198.4 198.4" style="enable-background:new 0 0 198.4 198.4;" xml:space="preserve">
<style type="text/css">
	.st0{fill:#ACAEAF;}
	.st1{fill:#FE9900;}
</style>
<path class="st0" d="M42.8,180.4c-0.2-0.1-0.4-0.2-0.6-0.3c-4.7-1.4-7.4-4.8-7.4-9.7c0-6.7,0-13.4,0-20.2c0-35.3,0-70.7,0-106
	c0-1.3,0.1-2.7,0.4-4c1.1-4.2,4.8-7,9.3-7c7.4,0,14.7,0,22.1,0c0.6,0,1.2,0,1.9,0c0-2,0-4,0-5.9c0-2.2,0.9-3.1,3.1-3.2
	c3.8,0,7.6,0,11.5,0c1,0,1.5-0.2,2-1.2C87.8,17.7,92.2,15,98,15s10.1,2.8,12.8,7.9c0.5,0.9,1,1.2,2,1.2c3.8-0.1,7.6,0,11.5,0
	c2.2,0,3.1,0.9,3.1,3.2c0,1.9,0,3.8,0,5.9c0.6,0,1.2,0,1.8,0c7.3,0,14.5,0,21.8,0c6.2,0,10.2,4,10.2,10.2c0,42.3,0,84.5,0,126.8
	c0,5.2-2.2,8-8,10.1C116.4,180.4,79.6,180.4,42.8,180.4z M68.6,38.4c-7.8,0-15.4,0-23,0c-4.1,0-5.6,1.5-5.6,5.7
	c0,41.8,0,83.7,0,125.5c0,4.1,1.5,5.6,5.7,5.6c34.9,0,69.7,0,104.6,0c4.2,0,5.8-1.5,5.8-5.7c0-9.1,0-18.2,0-27.3
	c0-32.8,0-65.5,0-98.3c0-4-1.6-5.6-5.5-5.6c-7.1,0-14.2,0-21.3,0c-0.6,0-1.1,0-1.6,0c-0.1,0.3-0.1,0.4-0.1,0.6c0,1.8,0,3.5,0,5.3
	c0,2.2-0.9,3.2-3.1,3.2c-17.5,0-35.1,0-52.6,0c-2.1,0-3-0.9-3-3.1C68.6,42.4,68.6,40.5,68.6,38.4z M73.8,42.1c16.2,0,32.2,0,48.2,0
	c0-4.3,0-8.5,0-12.8c-3.8,0-7.4,0-11.1,0c-3.1,0-3.2-0.1-4.3-3c-1.3-3.6-4.8-6.1-8.7-6.1c-3.9,0-7.4,2.4-8.7,6.1c-1,2.9-1.2,3-4.3,3
	c-3.7,0-7.4,0-11.1,0C73.8,33.7,73.8,37.9,73.8,42.1z"/>
<g>
	<path class="st1" d="M129.9,100.5c0,1.2,0,2.5,0,3.7c0,0.2-0.1,0.4-0.1,0.5c-0.3,4.4-1.5,8.6-3.6,12.5c-5,9-12.5,14.4-22.6,16.4
		c-1.2,0.2-2.5,0.3-3.7,0.5c-1.2,0-2.5,0-3.7,0c-0.2,0-0.3-0.1-0.5-0.1c-4.5-0.3-8.7-1.5-12.6-3.6c-9-4.9-14.5-12.5-16.4-22.5
		c-0.2-1.2-0.3-2.4-0.5-3.7c0-1.2,0-2.5,0-3.7c0-0.2,0.1-0.4,0.1-0.5c0.3-4.4,1.5-8.7,3.6-12.5c5.9-10.4,14.8-16.1,26.8-16.8
		c5.7-0.4,11.2,0.9,16.3,3.7c9,4.9,14.5,12.5,16.4,22.5C129.6,98,129.7,99.3,129.9,100.5z M98.1,75.5c-14.8,0-26.8,12-26.9,26.8
		c0,14.8,12,26.9,26.9,26.9c14.8,0,26.8-12,26.9-26.8C125,87.6,112.9,75.5,98.1,75.5z"/>
	<path class="st1" d="M93.7,107.3c0.3-0.4,0.4-0.6,0.6-0.8c4.7-4.7,9.4-9.4,14.1-14.1c0.8-0.8,1.6-1.2,2.7-0.9
		c1.7,0.5,2.3,2.4,1.3,3.8c-0.2,0.2-0.4,0.4-0.6,0.6c-5.3,5.3-10.7,10.7-16,16c-1.4,1.4-2.8,1.4-4.2,0c-2.5-2.5-5-4.9-7.4-7.4
		c-0.9-0.9-1.2-2-0.7-3c0.8-1.6,2.8-1.9,4.1-0.6c1.9,1.8,3.7,3.7,5.5,5.5C93.3,106.8,93.4,107,93.7,107.3z"/>
</g>
</svg>
