<?xml version="1.0" encoding="utf-8"?>
<!-- Generator: Adobe Illustrator 24.0.0, SVG Export Plug-In . SVG Version: 6.00 Build 0)  -->
<svg version="1.1" id="Capa_1" xmlns="http://www.w3.org/2000/svg" xmlns:xlink="http://www.w3.org/1999/xlink" x="0px" y="0px"
	 viewBox="0 0 200 200" style="enable-background:new 0 0 200 200;" xml:space="preserve">
<style type="text/css">
	.st0{fill:#ACAEAF;}
	.st1{fill:#FE9900;}
	.st2{fill:#1C3247;}
</style>
<g>
	<g>
		<path class="st0" d="M10.9,129.2c0.5-1.6,1-3.2,1.7-4.7c1.5-3.1,4-5.1,7-6.5c1-0.4,1.9-0.9,2.9-1.3c4.7-1.6,8.8-4.1,11.9-8
			c0.1-0.2,0.3-0.4,0.5-0.5c1.8-0.6,1.4-2.1,1.3-3.4c0-0.4-0.4-0.8-0.7-1.1c-4.3-3.2-7.1-7.4-8.4-12.6c-0.2-0.7-0.4-1-1.2-1
			c-1.7-0.1-3.1-1-4.1-2.4c-2-2.8-1.6-7.4,0.7-9.9c0.4-0.4,0.5-1.2,0.4-1.8c-1-5.4-0.2-10.5,2.2-15.4c1.8-3.6,4.5-6.6,7.8-8.9
			c0.8-0.5,1.2-1.1,1.3-2.1c0.8-6,5.5-10.8,11.1-11.6c6.6-0.9,12.5,2,15.1,7.6c0.6,1.3,0.7,2.8,1.2,4.1c0.2,0.6,0.5,1.3,0.9,1.7
			c5.8,4.1,9.5,9.5,10.5,16.5c0.4,2.7,0,5.4-0.2,8.2c-0.1,0.8,0,1.3,0.6,1.9c2.6,2.5,2.6,8-0.1,10.5C73,89.2,72,89.9,71.1,90
			c-1.5,0.1-1.8,0.8-2.2,2.1c-1.3,4.7-3.9,8.5-7.9,11.5c-1.5,1.2-1.4,3.3,0.1,4.5c1.8,1.5,3.3,3.3,5,4.8c0.6,0.5,1.2,1,1.9,1.3
			c3.2,1.5,6.5,2.7,9.6,4.3c5.4,2.7,7.9,7.3,7.7,13.3c-0.3,9.4-0.8,18.7-1.2,28.1c0,0.1,0,0.3,0,0.4c-0.1,1.4-1,2.3-2.1,2.3
			c-1.2,0-2-1-2-2.4c0.1-2.8,0.2-5.6,0.3-8.4c0.3-6.8,0.6-13.6,0.9-20.5c0.1-1.8-0.3-3.6-1.4-5.4c-2.2,2.8-4.4,5.4-6.4,8.2
			c-1.4,2-1.7,4.4-1.6,6.8c0,6.1,0,12.3,0,18.4c0,2.1-0.7,3.2-2.1,3.2c-1.4,0-2.1-1-2.1-3.3c0-6.6,0-13.3,0.1-19.9
			c0-3.8,1.6-7.1,4-10c1.7-2.1,3.5-4.2,5.5-6.6c-3.6-1.6-6.9-3.1-10.5-4.7c-0.3,0.4-0.6,0.8-0.8,1.3c-1.7,2.8-3.4,5.6-5.2,8.4
			c-1.8,2.8-4.3,3.2-6.9,1.1c-1.1-0.9-2.2-1.8-3.5-3c0,0.8,0,1.3,0,1.8c0,10.5,0,21.1,0,31.6c0,2.2-0.6,3.2-2,3.2
			c-1.4,0-2.2-1-2.2-3.3c0-10.5,0-21,0-31.5c0-0.5,0-1,0-1.8c-1.3,1.1-2.3,1.9-3.3,2.8c-2.8,2.3-5.2,1.9-7.2-1.2
			c-1.9-3.1-3.8-6.2-5.8-9.5c-3.5,1.5-6.9,3.1-10.6,4.7c1,1.2,1.9,2.3,2.8,3.4c1.8,2.3,3.8,4.5,5.1,7.1c1,2,1.6,4.4,1.6,6.7
			c0.2,6.7,0.1,13.5,0.1,20.2c0,1.1-0.4,2.2-1.6,2.3c-0.7,0.1-1.7-0.3-2.1-0.8c-0.4-0.5-0.5-1.4-0.5-2.1c0-6.1-0.1-12.2,0-18.3
			c0.1-3.7-1.1-6.9-3.5-9.7c-1.6-1.8-3-3.6-4.6-5.5c-1.1,1.8-1.4,3.7-1.4,5.6c0.3,7.4,0.6,14.8,0.9,22.1c0.1,1.9,0.2,3.9,0.2,5.8
			c0.1,1.9-0.6,2.9-2,2.9c-1.3,0-2.1-1-2.2-2.8c-0.2-5.1-0.4-10.2-0.6-15.3c-0.1-2.9-0.2-5.8-0.4-8.6c0-0.5-0.1-0.9-0.2-1.4
			C10.9,132.7,10.9,130.9,10.9,129.2z M30.6,77.5c0.6-0.6,1.1-1.1,1.7-1.7c0.9-0.9,2-0.9,2.9-0.2c0.9,0.8,1,2,0.1,3
			c-0.7,0.8-1.5,1.7-2.3,2.4c-2,1.7-2.9,1.6-5,0.1c-0.5-0.4-1.6-0.6-2.1-0.4c-1.4,0.7-1.1,2.2-1,3.5c0.1,1.1,0.8,1.7,2,1.8
			c2.5,0.2,3.7,1.3,4.2,3.7c0.6,2.7,1.8,5.1,3.5,7.4c4.5,5.9,13.6,8.3,20.3,5.2c5.5-2.5,9-6.7,10.4-12.6c0.5-2.2,1.9-3.4,4.2-3.6
			c1.7-0.2,2.4-1.3,2.1-3.6c-0.2-1.6-1.2-2.3-2.8-1.7c-1.8,0.6-3.2,0.2-4.4-1.1c-0.8-0.8-1.7-0.9-2.8-0.9c-7.2,0-14.3-1-20.8-4.3
			c-3-1.5-5.6-3.5-7.7-6.1c-0.4-0.5-0.6-1.6-0.4-2.3c0.2-0.5,1-1.2,1.6-1.2c0.7,0,1.5,0.5,2.1,1c1.9,1.4,3.5,3.2,5.6,4.4
			c5.9,3.4,12.4,4.4,19,4.4c2.2,0,4.2,0.1,5.9,1.8c0.9,0.8,2,0.3,2.2-0.9c0.8-4.2,0.4-8.3-1.5-12.2c-6-12.4-22.6-16-33.2-7.2
			c-6.1,5.1-8.6,11.6-7.1,19.5c0.1,0.4,0.4,0.8,0.7,1C28.8,76.9,29.7,77.2,30.6,77.5z M40.5,106.8c0,0.6,0,1.3,0,1.9
			c0.1,0.8-0.1,1.8,0.3,2.2c2.4,2.5,4.9,4.9,7.4,7.5c2.1-2.1,3.9-4.2,6-6c2.1-1.7,1.6-3.7,1.5-5.6c-2.6,0.3-5.2,0.9-7.7,0.9
			C45.6,107.7,43.1,107.1,40.5,106.8z M39.5,126c1.9-1.7,3.7-3.2,5.4-4.6c-2.9-2.9-5.8-5.8-8.4-8.4c-1,0.9-2,1.9-3.2,2.9
			C35.3,119.3,37.4,122.6,39.5,126z M56.8,126c2.2-3.5,4.2-6.8,6.1-9.9c-1.2-1.2-2.2-2.3-3.1-3.2c-2.7,2.7-5.5,5.6-8.4,8.4
			C53.1,122.9,54.9,124.4,56.8,126z M57.3,48.6c-1.1-4.2-5.5-7-10-6.6c-4.1,0.4-7.9,3.4-8.2,6.5C45.2,46.4,51.2,46.4,57.3,48.6z"/>
		<path class="st0" d="M148.8,117.8c-2.4,2.5-4.8,4.9-7.1,7.4c-1.5,1.7-1.9,4-1.9,6.3c0,9.3,0,18.6,0,27.9c0,2.2-0.7,3.2-2,3.2
			c-1.4,0-2.1-1-2.1-3.2c0-9.2,0-18.4,0-27.6c0-4.5,1.5-8.3,4.8-11.5c2.2-2.1,4.3-4.2,6.7-6.6c-1.4-0.9-2.5-1.8-3.8-2.4
			c-3.5-1.5-7-2.7-10.6-4.1c-0.3,0.4-0.6,0.8-0.9,1.2c-2.2,3.2-4.3,6.5-6.5,9.7c-2.4,3.6-4.2,4.3-8.6,3.2c0,0.4,0,0.8,0,1.2
			c0.5,12.4,1.1,24.8,1.6,37.2c0.1,1.9-0.9,3.1-2.3,2.9c-1.3-0.2-1.8-1.1-1.9-2.4c-0.2-5.3-0.5-10.7-0.7-16
			c-0.3-6.4-0.6-12.9-0.9-19.3c0-0.2,0-0.4-0.1-0.6c-1.4,0-2.8,0-4.3,0c-0.1,2.1-0.2,4.2-0.3,6.3c-0.4,9.5-0.8,18.9-1.2,28.4
			c0,0.7-0.1,1.4-0.2,2.1c-0.2,1.1-1,1.7-2.1,1.6c-1.1-0.1-1.8-0.8-1.9-1.9c0-1.6,0-3.2,0.1-4.7c0.5-11.3,1-22.5,1.5-33.8
			c0-0.2,0-0.5,0-0.7c-1.2,0.2-2.3,0.5-3.4,0.4c-2.1-0.1-3.7-1.3-4.9-3.1c-2.3-3.5-4.6-7-6.9-10.4c-0.3-0.4-0.5-0.8-0.9-1.2
			c-3.8,1.5-7.7,3.1-11.5,4.6c-0.5,0.2-0.9,0.5-1.4,0.7c-1,0.3-2,0.1-2.5-0.9c-0.6-1-0.4-2,0.5-2.6c0.9-0.7,2-1.2,3-1.6
			c1.2-0.5,2.5-1.1,3.8-1.4c5.1-1.5,9.2-4.2,12.8-8.1c1.4-1.5,1.9-2.8,1.7-4.6c-0.1-0.8-0.3-1.6-0.8-2.2c-2.1-2.6-3.6-5.4-4.3-8.6
			c-0.2-0.8-0.5-1.2-1.4-1.3c-1.9-0.1-3.3-1.2-4.2-2.8c-1.8-3.1-1-7.7,1.8-9.9c0.8-0.6,0.5-1.2,0.4-1.8c-0.9-4.1-1.3-8.3-1-12.4
			c0.3-5.2,3.4-8.8,8.5-10c0.5-0.1,1-0.4,1.5-0.7c9.5-6.4,19.7-7.2,30.1-2.9c7.1,3,10.7,9,11.4,16.6c0.4,3.6-0.2,7.3-0.2,11
			c0,0.6,0.2,1.2,0.5,1.7c1.7,2.9,1.8,5.8,0.1,8.6c-0.7,1.1-2.1,2.3-3.3,2.5c-1.9,0.3-2.2,1.3-2.6,2.7c-0.8,2.9-2.3,5.4-4.1,7.6
			c-1.3,1.6-0.4,3.5-0.6,5.2c0,0.1,0.4,0.2,0.5,0.3c0.4,0.3,0.8,0.5,1.1,0.8c3.5,4.6,8.3,6.9,13.6,8.6c2.9,0.9,5.7,2,7.9,4.3
			c2.6,2.6,4.1,5.7,4.1,9.3c0,5.5-0.3,11-0.5,16.4c-0.3,7.9-0.7,15.8-1,23.7c0,0.3,0,0.7-0.1,1c-0.2,1.2-0.9,1.9-2.1,1.9
			c-1.1,0-1.8-0.7-2-1.8c-0.1-0.6,0-1.3,0-1.9c0.5-12.5,1-25,1.5-37.4c0-1.1,0-2.3,0-3.4C149.2,117.9,149,117.8,148.8,117.8z
			 M132.4,66.9c0.1-2.5,0.3-5.2,0.2-7.9c-0.1-3.5-1-6.9-3.1-9.8c-2.9-4.1-7-6.1-11.8-6.8c-7.6-1.2-14.7,0-21,4.8
			c-0.6,0.4-1.3,0.7-2,0.8c-3.4,0.7-5.4,2.8-5.4,6.2c0,3.6,0.5,7.2,0.8,10.8c0.1,1.9,1.1,3,2.7,3.4c0.7-0.6,1.2-1.1,1.8-1.6
			c0.9-0.9,1.9-1,2.9-0.2c0.9,0.7,1,2,0.2,3c-0.8,0.9-1.6,1.8-2.5,2.6c-1.9,1.6-2.8,1.5-4.8,0c-0.6-0.4-1.8-0.6-2.3-0.3
			c-1.3,0.8-0.9,2.3-0.8,3.6c0.2,1.1,0.9,1.5,2,1.6c2.4,0.2,3.7,1.3,4.2,3.6c0.8,3.7,2.7,6.9,5.4,9.5c6.3,6,17.3,5.9,23.5-0.1
			c2.7-2.7,4.5-5.8,5.3-9.6c0.4-1.9,1.6-3,3.5-3.3c2.4-0.4,3.1-1.3,2.7-3.8c-0.2-1.3-1-1.9-2.3-1.8c-3.2,0.3-3.9-0.2-5.2-3.1
			c-0.2-0.4-0.4-0.8-0.5-1.3c-0.2-1-0.8-1.2-1.8-1c-4.5,0.9-8.9,1-13.4,0.5c-5.7-0.7-10.9-2.6-14.9-7c-1.2-1.3-1.3-2.5-0.3-3.4
			c1-0.9,2.1-0.7,3.4,0.6c1.2,1.1,2.5,2.3,3.9,3.1c4.1,2.4,8.7,3,13.4,2.8c3.2-0.2,6.5-0.7,9.7-1.1c1.4-0.2,2.3,0.2,2.9,1.6
			c0.4,1,1,2,1.3,3.1C130.2,67.3,130.9,67.5,132.4,66.9z M121.9,95.4c-7.7,4.3-15.3,4.3-22.9,0c-0.5,3.3-0.4,3.6,1.9,5.6
			c3.2,2.8,6.3,5.5,9.6,8.4c3.3-2.9,6.3-5.8,9.6-8.4C122.2,99.5,122.2,97.7,121.9,95.4z M125.9,101.5c-4.1,3.6-8.2,7.2-12.4,10.9
			c1.6,1.6,3.1,3.1,4.6,4.5c1.3,1.2,2.3,1.1,3.3-0.4c1.7-2.5,3.3-4.9,5-7.4c1-1.5,1.9-2.9,2.9-4.4
			C128.1,103.6,127.1,102.6,125.9,101.5z M107.3,112.3c-4.1-3.6-8.3-7.2-12.2-10.7c-1.2,1.1-2.2,2.2-3.3,3.3
			c2.6,3.9,5.2,7.8,7.8,11.7c0.8,1.2,1.9,1.5,2.9,0.6C104.1,115.6,105.7,113.9,107.3,112.3z M112.2,119.9c0.4-2.1,0-3.6-1.9-4.5
			c-1.8,1-2.2,2.6-1.8,4.5C109.8,119.9,111,119.9,112.2,119.9z"/>
		<path class="st1" d="M94.9,129.7c1.3,0,2.5,0,3.8,0c1.3,0.1,2.1,0.8,2.1,1.9c0.1,1.2-0.6,2.1-1.9,2.1c-2.7,0.1-5.4,0.1-8.1,0
			c-1.3,0-2-1-1.9-2.1c0.1-1.3,0.9-1.9,2.1-1.9C92.3,129.7,93.6,129.7,94.9,129.7z"/>
		<path class="st2" d="M37.5,138.9c1,0,2,0,2.9,0c1.2,0.1,1.9,0.7,2,1.9c0.1,1.2-0.6,2.1-1.7,2.1c-2.1,0.1-4.3,0.1-6.4,0
			c-1.2-0.1-1.8-0.9-1.8-2.1c0-1.1,0.9-1.9,2.1-2C35.5,138.9,36.5,138.9,37.5,138.9C37.5,138.9,37.5,138.9,37.5,138.9z"/>
	</g>
	<path class="st1" d="M166.7,109.3c-14.5,0-26.2-11.8-26.2-26.3c0-14.6,11.8-26.3,26.4-26.2c14.5,0.1,26.1,11.9,26,26.4
		C192.9,97.7,181.2,109.4,166.7,109.3z M166.8,103.9c11.5,0,20.8-9.3,20.9-20.8c0-11.5-9.3-20.9-20.8-20.9
		c-11.5,0-20.9,9.3-20.9,20.9C145.9,94.6,155.3,103.9,166.8,103.9z"/>
	<path class="st2" d="M170.1,83.1l7.4-7.4c0.9-0.9,0.9-2.4,0-3.3c-0.9-0.9-2.4-0.9-3.3,0l-7.4,7.4l-7.4-7.4c-0.9-0.9-2.4-0.9-3.3,0
		c-0.9,0.9-0.9,2.4,0,3.3l7.4,7.4l-7.4,7.4c-0.9,0.9-0.9,2.4,0,3.3c0.9,0.9,2.4,0.9,3.3,0l7.4-7.4l7.4,7.4c0.9,0.9,2.4,0.9,3.3,0
		c0.9-0.9,0.9-2.4,0-3.3L170.1,83.1z"/>
</g>
</svg>
