<?xml version="1.0" encoding="utf-8"?>
<!-- Generator: Adobe Illustrator 24.0.0, SVG Export Plug-In . SVG Version: 6.00 Build 0)  -->
<svg version="1.1" id="Capa_1" xmlns="http://www.w3.org/2000/svg" xmlns:xlink="http://www.w3.org/1999/xlink" x="0px" y="0px"
	 viewBox="0 0 200 200" style="enable-background:new 0 0 200 200;" xml:space="preserve">
<style type="text/css">
	.st0{fill:#ACAEAF;}
	.st1{fill:#1C3247;}
	.st2{fill:#FE9900;}
</style>
<g>
	<path class="st0" d="M196,134.8c-1.8,7.8-7.1,12.8-13.5,16.6c-3.9,2.3-8,4.2-12.1,6.1c-2.8,1.3-5.3,0.5-6.8-1.8
		c-1.6-2.3-1.1-4.8,1-7.2c2-2.2,4.1-4.3,5.7-6.7c2.2-3.3-0.1-7.4-4.1-7.7c-0.4,0-0.8,0.3-1.1,0.5c-3.6,2-7.3,4.1-10.9,6.2
		c-0.8,0.5-1.7,1.2-2.1,2.1c-3.6,6.7-7.8,12.9-13.7,17.8c-4.5,3.8-9.6,5.8-15.5,5.6c-3.1-0.1-6.1,0-9.2,0c-4,0-6.5-1.8-7.2-5.2
		c-0.7-3.2,0.9-5.9,4.5-7.5c2.2-1,4.5-1.9,6.8-2.7c2.6-1,2.6-0.9,2.2-3.6c-3-0.9-6.1-1.5-8.9-2.8c-3.1-1.5-6.2-3.3-8.8-5.5
		c-3.2-2.7-6.4-3.6-10.5-2.4c-3.8,1.1-7.8,1.7-11.7,2.4c-1.2,0.2-1.9,0.7-2.4,1.8c-3.1,6.5-7.6,12-13.1,16.7
		c-2.6,2.2-5.7,2.2-8.2,0.2c-2.6-2.1-3.1-5.2-1.6-8.3c2.1-4.2,4-8.4,6-12.6c0.5-1.1,0.2-1.6-0.7-2.4c-3-2.6-5.8-5.4-8.9-8.4
		c-5.2,1.8-11,3.7-16.8,5.7c-4.2,1.4-8.4,2.8-12.5,4.3c-4.2,1.5-8,0.9-11.2-2.3c-3.1-3.2-3.6-7-2-11.2c5.9-15.9,14.8-29.7,28.6-39.9
		c0.1-0.1,0.3-0.2,0.6-0.4c-0.7-0.3-1.2-0.6-1.8-0.8c-11.5-4.8-15.9-16-15.5-25.9c0.1-3.3,2.8-5.8,6.2-5.8c2.7,0,5.4,0.3,8.1,0.6
		c1,0.1,1.6,0.1,2.1-0.9c0.6-1.1,1.3-2.2,2.1-3.2c2.3-3.2,5.9-3.8,9.2-1.7c7.1,4.6,11.3,11.1,12.7,19.5c0.3-0.2,0.7-0.3,0.9-0.5
		c9.4-8.8,20.6-13.7,33.2-15.2c29.6-3.5,52.8,7.7,70.5,31.1c0.5,0.7,1.1,1.5,1.1,2.3c-0.1,0.9-0.6,2.2-1.3,2.5
		c-0.8,0.4-2.1,0.1-3-0.2c-0.5-0.2-0.9-1-1.3-1.5c-12.1-16.3-27.9-26.5-48.2-29c-16.8-2-32.3,1.6-45.6,12.7
		c-1.9,1.6-3.6,3.5-5.3,5.3c-0.3,0.4-0.4,1.4-0.2,1.8c3.2,5.5,3,11,0,16.5c-1.9,3.6-4,7.2-6,10.8c-0.6,1.2-1,2.5-1.6,3.7
		c-0.7,1.6-2.1,2.4-3.5,1.9c-1.5-0.5-2.4-2-1.7-3.7c1.1-2.8,2.4-5.5,3.8-8.1c1.4-2.8,3.1-5.5,4.5-8.4c1-2.1,1.6-4.3,0.9-6.4
		c-1.9,2.1-3.5,4.5-5.7,6.1c-2.6,1.9-5.4,0.6-7.8-1.4c-4.8,3.1-9.1,6.6-13,10.7c-8.3,8.7-13.9,18.9-18,30.1
		c-0.7,1.8-0.4,3.4,0.8,4.8c1.3,1.4,2.9,1.9,4.7,1.4c10-3.4,20.1-6.8,30.2-10.3c-0.3-1-0.6-2-0.8-2.9c-0.6-2.4,0-3.9,1.8-4.3
		c1.7-0.4,2.9,0.6,3.5,2.9c2.8,9.6,9.2,15.5,19.1,17.1c4.9,0.8,9.8-0.4,14.6-1.5c1.5-0.3,3-0.8,4.4-1.2c4.5-1.2,8.9-0.5,12.3,2.6
		c9.4,8.7,20.5,9.7,32.4,7.4c8.3-1.6,15.9-4.8,23.1-9.2c9.6-5.9,13.5-14.7,11.3-25.7c-0.7-3.8-2-7.4-3.1-11.1
		c-0.1-0.2-0.2-0.4-0.3-0.7c-0.6-1.8,0.1-3.3,1.6-3.8c1.4-0.5,2.8,0.1,3.5,1.8c2,4.8,3.5,9.8,4,15c0.2,2.2,0.9,3.4,3,4.4
		c4.2,2,8,4.8,11.1,8.3c2.7,3,4.5,6.5,5.4,10.5C196,131.8,196,133.3,196,134.8z M38.4,63.7c-0.1,6.8,4.8,12.8,10.2,16.5
		c1,0.7,1.5,0.2,2.1-0.6C58.4,69.4,56,55.9,45.2,49c-1-0.6-1.6-0.6-2.3,0.4C40.2,53.4,38.4,57.7,38.4,63.7z M170.2,129.8
		c1,0.7,2,1.3,2.9,2c3.5,2.7,4.6,6.5,2.9,10.6c-0.9,2-2.2,3.8-3.4,5.6c-0.9,1.3-2,2.3-3,3.5c0.1,0.2,0.2,0.4,0.4,0.5
		c3.9-2.2,8-4.1,11.7-6.7c2.7-1.9,5-4.4,7.1-7.1c2.2-2.9,2.5-6.4,1-9.8c-2.6-5.8-7.5-9.2-13.1-12.2
		C175.5,121.3,173.5,125.8,170.2,129.8z M125.5,147.6c0.6,4.8-1.9,7.2-6.2,8.5c-2.2,0.6-4.2,1.6-6.3,2.6c-0.5,0.2-0.8,0.9-1.2,1.3
		c0.6,0.2,1.1,0.7,1.7,0.7c3.2,0.1,6.5,0,9.7,0c3.8,0.1,7.1-1.1,10.1-3.3c4.3-3.1,7.5-7.2,10.4-11.5c0.2-0.4,0.4-0.8,0.6-1.3
		c-3.2,0.7-6.3,1.5-9.3,1.9C132,147.1,128.8,147.3,125.5,147.6z M33.8,55.2c-2.4-0.1-4.6-0.3-6.7-0.3c-0.4,0-1.3,0.9-1.2,1.3
		c0.1,7.4,2.6,13.6,8.8,18c0.3,0.2,0.7,0.3,1.4,0.6C32.7,68.5,32.1,62.2,33.8,55.2z M66.5,137.8c-2.4,4.8-4.7,9.4-6.9,14
		c-0.2,0.4,0,1,0,1.5c0.5-0.1,1.2-0.1,1.5-0.4c2.9-3.2,5.8-6.5,8.6-9.8c0.9-1.1,1.6-2.5,2.4-3.9C70,138.6,68.1,138.2,66.5,137.8z"/>
	<path class="st0" d="M36.2,106.5c0,0.8,0,1.6,0,2.4c-0.1,1.6-1.3,2.7-2.7,2.7c-1.4,0-2.7-1.1-2.8-2.7c-0.1-1.5-0.1-3.1,0-4.6
		c0.1-1.6,1.2-2.6,2.7-2.7c1.6,0,2.7,1.1,2.8,2.8C36.3,105.1,36.2,105.8,36.2,106.5z"/>
	<path class="st1" d="M154.6,90.5c-1.4,0-2.7-1.2-2.7-2.7c-0.1-1.5,1.2-2.8,2.7-2.8c1.5,0,2.7,1.1,2.7,2.6
		C157.4,89.2,156.1,90.5,154.6,90.5z"/>
	<path class="st2" d="M114.3,85c0,1.6-1.3,2.8-2.9,2.7c-1.5-0.1-2.6-1.3-2.6-2.8c0-1.5,1.2-2.7,2.7-2.7
		C113,82.1,114.3,83.4,114.3,85z"/>
	<path class="st2" d="M126.3,82.2c1.5,0.1,2.7,1.4,2.6,2.9c-0.1,1.5-1.3,2.6-2.8,2.6c-1.5,0-2.8-1.4-2.7-2.9
		C123.6,83.3,124.9,82.1,126.3,82.2z"/>
	<path class="st1" d="M140.9,82.2c1.5,0,2.8,1.2,2.8,2.8c0,1.5-1.2,2.7-2.7,2.7c-1.5,0-2.8-1.2-2.8-2.8
		C138.2,83.4,139.5,82.2,140.9,82.2z"/>
	<path class="st2" d="M114.5,93.2c1.5,0,2.8,1.3,2.7,2.8c-0.1,1.5-1.2,2.6-2.7,2.6c-1.5,0-2.8-1.3-2.7-2.8
		C111.8,94.4,113,93.2,114.5,93.2z"/>
	<path class="st2" d="M131.9,96c0,1.6-1.3,2.8-2.8,2.7c-1.5,0-2.7-1.3-2.7-2.7c0-1.5,1.2-2.7,2.7-2.8
		C130.6,93.2,131.9,94.4,131.9,96z"/>
	<path class="st1" d="M143.9,98.7c-1.5,0-2.7-1.2-2.7-2.7c0-1.5,1.3-2.8,2.8-2.8c1.5,0,2.7,1.2,2.7,2.7
		C146.7,97.5,145.4,98.7,143.9,98.7z"/>
	<path class="st2" d="M118.6,107c0,1.5-1.3,2.8-2.8,2.8c-1.5,0-2.7-1.2-2.7-2.7c0-1.5,1.2-2.7,2.6-2.8
		C117.3,104.2,118.6,105.4,118.6,107z"/>
	<path class="st2" d="M133.4,107.1c0,1.6-1.4,2.8-2.9,2.7c-1.5-0.1-2.6-1.3-2.6-2.8c0-1.5,1.3-2.7,2.7-2.7
		C132.2,104.3,133.4,105.5,133.4,107.1z"/>
	<path class="st1" d="M145.3,109.7c-1.5,0-2.6-1.3-2.6-2.7c0-1.5,1.3-2.8,2.8-2.7c1.5,0.1,2.7,1.3,2.7,2.8
		C148.1,108.6,146.8,109.8,145.3,109.7z"/>
	<path class="st1" d="M157.9,120c1.6,0,2.8,1.2,2.8,2.7c0,1.5-1.2,2.7-2.7,2.7c-1.5,0-2.8-1.3-2.8-2.8
		C155.2,121.2,156.4,120,157.9,120z"/>
	<path class="st2" d="M129.7,129.1c0,1.5-1.1,2.7-2.6,2.8c-1.5,0.1-2.8-1.2-2.9-2.7c0-1.5,1.2-2.7,2.6-2.8
		C128.3,126.3,129.7,127.6,129.7,129.1z"/>
	<path class="st1" d="M144.4,129.2c0,1.6-1.3,2.8-2.9,2.7c-1.5-0.1-2.6-1.3-2.6-2.8c0-1.5,1.2-2.7,2.7-2.7
		C143.2,126.3,144.4,127.6,144.4,129.2z"/>
	<path class="st2" d="M106.8,76.6c-1.5,0-2.7-1.3-2.7-2.9c0.1-1.5,1.3-2.6,2.8-2.6c1.6,0,2.7,1.3,2.6,2.9
		C109.5,75.5,108.4,76.6,106.8,76.6z"/>
	<path class="st2" d="M124.3,73.9c0,1.6-1.2,2.8-2.8,2.7c-1.5-0.1-2.6-1.3-2.6-2.7c0-1.5,1.2-2.7,2.6-2.7
		C123.1,71.1,124.3,72.3,124.3,73.9z"/>
	<path class="st1" d="M136.4,76.6c-1.5,0-2.7-1.1-2.8-2.6c-0.1-1.5,1.1-2.9,2.7-2.9c1.5,0,2.7,1.1,2.7,2.6
		C139.1,75.3,138,76.6,136.4,76.6z"/>
	<path class="st2" d="M114.5,65.6c-1.5,0-2.6-1.3-2.6-2.7c0-1.5,1.3-2.8,2.8-2.8c1.6,0.1,2.7,1.3,2.6,2.9
		C117.2,64.5,116,65.6,114.5,65.6z"/>
	<path class="st1" d="M158.1,96.1c1.6,0,2.8,1.2,2.7,2.8c0,1.5-1.2,2.7-2.7,2.7c-1.5,0-2.7-1.3-2.7-2.8
		C155.5,97.2,156.6,96.1,158.1,96.1z"/>
	<path class="st1" d="M159.9,114.4c-1.5,0-2.7-1.4-2.6-2.9c0.1-1.5,1.2-2.6,2.8-2.6c1.6,0,2.7,1.2,2.6,2.9
		C162.6,113.3,161.4,114.5,159.9,114.4z"/>
	<path class="st2" d="M118.5,118c0,1.6-1.1,2.8-2.7,2.8c-1.5,0-2.6-1.2-2.7-2.7c0-1.6,1.2-2.8,2.7-2.8
		C117.3,115.3,118.4,116.5,118.5,118z"/>
	<path class="st2" d="M130.5,115.3c1.6,0,2.8,1.2,2.7,2.8c0,1.5-1.2,2.6-2.7,2.7c-1.5,0-2.8-1.2-2.7-2.8
		C127.8,116.5,129,115.3,130.5,115.3z"/>
	<path class="st1" d="M147.9,118c0,1.6-1.1,2.8-2.7,2.8c-1.5,0-2.6-1.2-2.7-2.7c0-1.6,1.2-2.8,2.7-2.8
		C146.7,115.3,147.9,116.5,147.9,118z"/>
</g>
</svg>
