<?xml version="1.0" encoding="utf-8"?>
<!-- Generator: Adobe Illustrator 24.0.0, SVG Export Plug-In . SVG Version: 6.00 Build 0)  -->
<svg version="1.1" id="Capa_1" xmlns="http://www.w3.org/2000/svg" xmlns:xlink="http://www.w3.org/1999/xlink" x="0px" y="0px"
	 viewBox="0 0 80 80" style="enable-background:new 0 0 80 80;" xml:space="preserve">
<style type="text/css">
	.st0{fill:#ACAEAF;}
	.st1{fill:#1C3247;}
	.st2{fill:#FE9900;}
</style>
<g>
	<path class="st0" d="M19.89,43.31c-0.63-0.15-1.21-0.22-1.72-0.43c-2.78-1.15-3.24-4.83-0.83-6.67c0.29-0.22,0.4-0.43,0.4-0.8
		c0.01-1.75-0.08-3.51,0.12-5.23c0.49-4.14,4.19-7.39,8.36-7.46c2.05-0.03,4.11-0.02,6.16-0.01c2.18,0.02,4,1.38,4.64,3.47
		c0.11,0.38,0.29,0.54,0.66,0.66c2.09,0.64,3.44,2.46,3.46,4.64c0.01,1.34-0.01,2.68,0.02,4.02c0,0.2,0.12,0.47,0.27,0.6
		c1.45,1.16,2,2.75,1.48,4.37c-0.52,1.62-1.87,2.61-3.72,2.73c-0.04,0-0.08,0.01-0.16,0.03c-0.05,0.15-0.11,0.31-0.16,0.48
		c-0.66,2.42-2.03,4.32-4.12,5.69c-0.33,0.22-0.47,0.43-0.45,0.83c0.03,0.69,0.01,1.38,0.01,2.08c3.08,1.32,6.11,2.71,9.21,3.92
		c3.11,1.22,4.63,3,4.47,6.75c-0.1,2.41-0.02,4.84-0.02,7.26c0,0.92-0.33,1.26-1.24,1.26c-11.53,0-23.05,0-34.58,0
		c-0.92,0-1.26-0.33-1.26-1.24c0-2.83-0.03-5.65,0.01-8.48c0.03-2.39,1.18-4.1,3.37-5.05c3.25-1.42,6.52-2.81,9.79-4.2
		c0.38-0.16,0.46-0.36,0.51-0.75c0.15-1.33-0.16-2.28-1.39-3.13C21.36,47.39,20.38,45.44,19.89,43.31z M12.85,69.51
		c11.09,0,22.11,0,33.17,0c0-2.56,0-5.08,0-7.59c0-1.64-0.77-2.78-2.26-3.43c-1.99-0.86-3.99-1.72-5.98-2.57
		c-0.16-0.07-0.33-0.11-0.52-0.17c-1,1.48-1.98,2.93-2.96,4.37c-0.53,0.78-1.01,0.86-1.77,0.29c-1.02-0.76-2.05-1.53-3.09-2.31
		c-1.08,0.81-2.13,1.6-3.19,2.39c-0.64,0.47-1.15,0.38-1.61-0.26c-0.3-0.43-0.59-0.87-0.89-1.31c-0.72-1.06-1.43-2.11-2.16-3.19
		c-2.32,1-4.61,1.95-6.86,2.97c-1.14,0.52-1.82,1.51-1.85,2.75C12.8,64.1,12.85,66.79,12.85,69.51z M21.75,36.38
		c0,2.12-0.2,4.21,0.04,6.24c0.44,3.68,3.91,6.46,7.72,6.43c3.76-0.03,7.14-2.85,7.59-6.53c0.21-1.7,0.04-3.45,0.17-5.17
		c0.08-1.14-0.26-1.94-1.12-2.68c-0.99-0.86-1.87-1.85-2.81-2.8C29.97,34.81,26.1,36.29,21.75,36.38z M39.19,34.98
		c0-1.23,0.02-2.38,0-3.52c-0.03-1.56-1.19-2.76-2.75-2.89c-0.84-0.07-1.08-0.32-1.16-1.17c-0.13-1.56-1.35-2.72-2.91-2.73
		c-2.01-0.02-4.02-0.03-6.04,0.01c-2.95,0.05-5.57,2.06-6.38,4.88c-0.51,1.76-0.21,3.56-0.24,5.37c0.41-0.56,0.97-0.51,1.52-0.5
		c4.28,0.03,8-1.38,11.12-4.32c0.82-0.77,1.18-0.76,1.99,0.05C35.94,31.74,37.53,33.32,39.19,34.98z M29.44,55.5
		c0.95-0.96,1.84-1.85,2.72-2.75c0.09-0.09,0.18-0.24,0.19-0.36c0.02-0.58,0.01-1.17,0.01-1.82c-1.97,0.6-3.89,0.57-5.85,0.01
		c0,0.59-0.01,1.09,0.01,1.6c0.01,0.17,0.03,0.39,0.13,0.5C27.54,53.6,28.47,54.52,29.44,55.5z M35.45,54.93
		c-0.58-0.25-1.08-0.49-1.59-0.67c-0.14-0.05-0.38-0.03-0.48,0.06c-0.82,0.78-1.61,1.59-2.46,2.44c0.76,0.57,1.46,1.09,2.18,1.64
		C33.91,57.2,34.66,56.09,35.45,54.93z M27.96,56.75c-0.86-0.85-1.65-1.64-2.45-2.41c-0.1-0.09-0.34-0.13-0.47-0.08
		c-0.53,0.2-1.04,0.44-1.61,0.69c0.8,1.17,1.56,2.3,2.34,3.46C26.52,57.83,27.2,57.32,27.96,56.75z M19.65,37.38
		c-1.15-0.03-1.96,1.02-1.93,1.96c0.04,1.04,0.83,1.83,1.93,1.88C19.65,39.95,19.65,38.68,19.65,37.38z M39.24,37.38
		c0,1.28,0,2.57,0,3.85c1.18-0.12,1.94-0.94,1.9-2.01C41.1,38.2,40.31,37.43,39.24,37.38z"/>
	<path class="st1" d="M53.37,12.99c0.27-0.25,0.49-0.45,0.73-0.68c0.42,0.48,0.83,0.94,1.29,1.46c-1.09,0.52-0.78,1.47-0.63,2.5
		c0.46,3.11-2.05,6.17-5.19,6.45c-3.41,0.3-6.36-2.21-6.48-5.5c-0.09-2.52,1.23-4.69,3.44-5.69c2.23-1.01,4.75-0.53,6.58,1.23
		C53.18,12.82,53.25,12.89,53.37,12.99z M51.91,14.39c-1.3-1.6-3.58-1.9-5.28-0.72c-1.69,1.18-2.18,3.48-1.12,5.25
		c1.07,1.8,3.34,2.44,5.2,1.48c1.51-0.78,2.51-2.74,1.97-3.99c-0.67,0.68-1.32,1.36-1.98,2.01c-0.46,0.45-0.95,0.54-1.36,0.16
		c-0.69-0.65-1.33-1.36-1.91-1.97c0.41-0.46,0.82-0.92,1.37-1.53c0.37,0.48,0.72,0.93,1.03,1.34C50.58,15.7,51.23,15.06,51.91,14.39
		z"/>
	<path class="st2" d="M53.36,26.64c0.26-0.24,0.5-0.45,0.76-0.69c0.43,0.46,0.85,0.9,1.29,1.37c0,0,0,0.08-0.04,0.1
		c-0.82,0.57-0.87,1.26-0.67,2.23c0.62,3.07-1.54,6.03-4.73,6.66c-2.99,0.59-6.07-1.45-6.74-4.44c-0.57-2.58,0.57-5.17,2.84-6.45
		c2.28-1.28,5.05-0.91,6.98,0.93C53.14,26.44,53.25,26.53,53.36,26.64z M51.87,28.04c-0.98-1.43-3.21-1.86-4.89-0.92
		c-1.8,1-2.52,3.24-1.66,5.11c0.85,1.84,3,2.74,4.92,2.06c1.75-0.62,2.93-2.56,2.49-4.23c-0.69,0.69-1.34,1.35-1.99,2.01
		c-0.4,0.41-0.9,0.61-1.35,0.21c-0.72-0.64-1.35-1.38-2.01-2.06c0.42-0.44,0.84-0.87,1.37-1.42c0.37,0.46,0.72,0.9,1.05,1.31
		C50.55,29.35,51.21,28.7,51.87,28.04z"/>
	<path class="st2" d="M51.88,43.23c0,0.61,0.01,1.22,0,1.83c-0.02,0.68-0.38,1.05-1.07,1.06c-1.24,0.01-2.48,0.01-3.72,0
		c-0.68-0.01-1.05-0.38-1.06-1.07c-0.01-1.24-0.01-2.48,0-3.72c0.01-0.68,0.38-1.05,1.06-1.06c1.24-0.01,2.48-0.01,3.72,0
		c0.68,0.01,1.05,0.38,1.06,1.06C51.89,41.97,51.88,42.6,51.88,43.23z M49.88,44.15c0-0.67,0-1.29,0-1.9c-0.65,0-1.25,0-1.87,0
		c0,0.64,0,1.26,0,1.9C48.64,44.15,49.24,44.15,49.88,44.15z"/>
	<path class="st2" d="M48.97,48.08c0.61,0,1.22-0.01,1.83,0c0.69,0.02,1.07,0.37,1.07,1.05c0.02,1.24,0.01,2.48,0,3.72
		c-0.01,0.69-0.37,1.07-1.05,1.07c-1.24,0.02-2.48,0.01-3.72,0c-0.69-0.01-1.06-0.37-1.07-1.05c-0.02-1.24-0.01-2.48,0-3.72
		c0.01-0.71,0.38-1.06,1.11-1.08C47.75,48.07,48.36,48.08,48.97,48.08z M48.02,50.06c0,0.67,0,1.29,0,1.9c0.65,0,1.25,0,1.87,0
		c0-0.64,0-1.26,0-1.9C49.26,50.06,48.66,50.06,48.02,50.06z"/>
	<path class="st1" d="M71.37,13.97c0,0.64,0,1.25,0,1.88c-4.86,0-9.68,0-14.56,0c0-0.6,0-1.22,0-1.88
		C61.63,13.97,66.48,13.97,71.37,13.97z"/>
	<path class="st1" d="M71.37,17.87c0,0.65,0,1.25,0,1.88c-4.86,0-9.68,0-14.56,0c0-0.6,0-1.22,0-1.88
		C61.64,17.87,66.48,17.87,71.37,17.87z"/>
	<path class="st2" d="M71.35,29.52c-4.87,0-9.7,0-14.56,0c0-0.63,0-1.23,0-1.88c4.83,0,9.67,0,14.56,0
		C71.35,28.23,71.35,28.85,71.35,29.52z"/>
	<path class="st2" d="M71.37,31.53c0,0.65,0,1.25,0,1.88c-4.86,0-9.69,0-14.56,0c0-0.61,0-1.22,0-1.88
		C61.64,31.53,66.48,31.53,71.37,31.53z"/>
	<path class="st2" d="M71.35,44.15c-4.87,0-9.7,0-14.56,0c0-0.63,0-1.23,0-1.88c4.83,0,9.67,0,14.56,0
		C71.35,42.87,71.35,43.49,71.35,44.15z"/>
	<path class="st2" d="M71.37,50.08c0,0.64,0,1.24,0,1.87c-4.87,0-9.71,0-14.58,0c0-0.63,0-1.23,0-1.87
		C61.63,50.08,66.47,50.08,71.37,50.08z"/>
</g>
</svg>
