<?xml version="1.0" encoding="utf-8"?>
<!-- Generator: Adobe Illustrator 24.0.0, SVG Export Plug-In . SVG Version: 6.00 Build 0)  -->
<svg version="1.1" id="Capa_1" xmlns="http://www.w3.org/2000/svg" xmlns:xlink="http://www.w3.org/1999/xlink" x="0px" y="0px"
	 viewBox="0 0 80 80" style="enable-background:new 0 0 80 80;" xml:space="preserve">
<style type="text/css">
	.st0{fill:#ACAEAF;}
	.st1{fill:#1C3247;}
	.st2{fill:#FE9900;}
</style>
<g>
	<path class="st0" d="M8.29,50.14c0.36-0.68,0.93-0.89,1.69-0.88c5.39,0.02,10.77,0.01,16.16,0.01c0.24,0,0.49,0,0.76,0
		c0-2.32,0-4.59,0-6.96c-0.54,0-1.09,0.01-1.64,0c-0.86-0.01-1.42-0.49-1.43-1.22c-0.02-0.75,0.56-1.26,1.45-1.27
		c9.88,0,19.76,0,29.64,0c0.9,0,1.47,0.49,1.47,1.24c0,0.75-0.57,1.23-1.47,1.24c-0.52,0-1.03,0-1.59,0c0,2.32,0,4.61,0,6.96
		c0.25,0,0.49,0,0.73,0c5.41,0,10.81,0,16.22,0c1.24,0,1.65,0.4,1.65,1.63c0,6.71,0,13.42,0,20.14c0,1.19-0.41,1.61-1.61,1.61
		c-20.14,0-40.27,0-60.41,0.01c-0.74,0-1.28-0.23-1.63-0.88C8.29,64.56,8.29,57.35,8.29,50.14z M53.28,51.79
		c0,1.23,0.02,2.39-0.01,3.55c-0.01,0.75-0.57,1.28-1.25,1.26c-0.67-0.01-1.18-0.53-1.22-1.24c-0.01-0.19,0-0.37,0-0.56
		c0-3.93,0-7.87,0-11.8c0-0.22,0-0.44,0-0.64c-7.18,0-14.27,0-21.35,0c0,9.28,0,18.51,0,27.76c7.12,0,14.21,0,21.35,0
		c0-1.21-0.01-2.39,0.01-3.57c0.01-0.62,0.41-1.08,0.97-1.21c0.53-0.12,1.13,0.14,1.35,0.65c0.11,0.25,0.15,0.56,0.15,0.84
		c0.02,1.09,0.01,2.18,0.01,3.29c5.42,0,10.77,0,16.12,0c0-6.13,0-12.23,0-18.33C64.02,51.79,58.68,51.79,53.28,51.79z M10.8,70.11
		c5.4,0,10.75,0,16.08,0c0-6.14,0-12.24,0-18.32c-5.38,0-10.72,0-16.08,0C10.8,57.91,10.8,63.99,10.8,70.11z"/>
	<path class="st1" d="M52.91,9c1.09,0.78,1.14,1.46,0.19,2.42c-1.26,1.26-2.52,2.52-3.78,3.77c-0.44,0.44-0.96,0.57-1.53,0.28
		c-0.52-0.27-0.74-0.73-0.62-1.29c0.05-0.25,0.18-0.52,0.36-0.7c1.35-1.37,2.71-2.73,4.08-4.09c0.16-0.16,0.36-0.26,0.55-0.39
		C52.41,9,52.66,9,52.91,9z"/>
	<path class="st1" d="M27.93,9c0.64,0.58,1.29,1.15,1.91,1.75c0.88,0.85,1.74,1.72,2.59,2.59c0.63,0.64,0.69,1.39,0.16,1.92
		c-0.53,0.53-1.28,0.48-1.91-0.16c-1.23-1.22-2.46-2.46-3.69-3.69c-0.95-0.95-0.9-1.63,0.19-2.41C27.43,9,27.68,9,27.93,9z"/>
	<path class="st2" d="M32,19.16c1.04,0,2.07-0.02,3.11,0.01c0.4,0.01,0.58-0.11,0.7-0.5c0.58-1.88,1.2-3.74,1.81-5.61
		c0.42-1.29,1.27-1.96,2.47-1.97c1.23-0.01,2.08,0.66,2.52,1.99c0.6,1.85,1.21,3.69,1.79,5.55c0.13,0.41,0.3,0.55,0.73,0.54
		c2.09-0.02,4.18-0.02,6.28,0.01c1,0.02,1.72,0.55,2.14,1.45c0.42,0.93,0.33,1.82-0.3,2.63c-0.21,0.27-0.5,0.49-0.78,0.7
		c-1.55,1.14-3.11,2.27-4.68,3.38c-0.35,0.25-0.42,0.45-0.28,0.86c0.63,1.86,1.23,3.73,1.84,5.6c0.41,1.27,0.1,2.35-0.86,3.05
		c-0.96,0.7-2.07,0.66-3.16-0.13c-1.56-1.13-3.13-2.25-4.66-3.42c-0.44-0.33-0.71-0.28-1.11,0.02c-1.57,1.18-3.16,2.35-4.76,3.48
		c-1.63,1.15-3.76,0.29-4.05-1.63c-0.07-0.45,0.04-0.95,0.17-1.39c0.58-1.88,1.2-3.74,1.83-5.6c0.12-0.37,0.08-0.57-0.25-0.81
		c-1.62-1.14-3.23-2.32-4.84-3.49c-1.06-0.77-1.44-1.8-1.09-2.92c0.36-1.15,1.25-1.77,2.6-1.8c0.35-0.01,0.7,0,1.06,0
		C30.8,19.16,31.4,19.16,32,19.16z M51.22,21.79c-0.01-0.05-0.03-0.1-0.04-0.14c-0.22,0-0.44,0-0.67,0c-2.15,0-4.31,0-6.46,0
		c-1.04,0-1.37-0.23-1.68-1.2c-0.64-1.97-1.27-3.93-1.9-5.9c-0.1-0.3-0.21-0.6-0.36-1.03c-0.12,0.33-0.19,0.52-0.25,0.71
		c-0.66,2.04-1.32,4.09-1.99,6.13c-0.35,1.09-0.63,1.29-1.8,1.29c-2.13,0-4.27,0-6.4,0c-0.22,0-0.43,0-0.82,0
		c0.32,0.25,0.49,0.39,0.67,0.52c1.76,1.27,3.52,2.55,5.28,3.82c0.81,0.59,0.93,0.96,0.62,1.91c-0.69,2.12-1.39,4.24-2.08,6.37
		c-0.05,0.16-0.08,0.33-0.15,0.61c0.27-0.19,0.44-0.3,0.61-0.42c1.76-1.28,3.51-2.56,5.27-3.84c0.87-0.63,1.2-0.64,2.06-0.02
		c1.54,1.12,3.08,2.24,4.61,3.37c0.39,0.29,0.79,0.57,1.31,0.94c-0.1-0.34-0.15-0.53-0.21-0.72c-0.65-2-1.31-4.01-1.97-6.01
		c-0.42-1.28-0.34-1.52,0.73-2.3C47.48,24.51,49.35,23.15,51.22,21.79z"/>
	<path class="st1" d="M28.45,29.64c0.01,0.53-0.23,0.92-0.7,1.15c-1.52,0.74-3.05,1.48-4.58,2.19c-0.66,0.3-1.34,0.03-1.62-0.58
		c-0.29-0.62-0.09-1.31,0.56-1.64c1.53-0.76,3.08-1.51,4.64-2.22C27.57,28.16,28.43,28.75,28.45,29.64z"/>
	<path class="st1" d="M51.64,29.74c0.14-0.93,0.95-1.57,1.71-1.23c1.64,0.72,3.26,1.51,4.87,2.31c0.6,0.3,0.74,1.04,0.44,1.62
		c-0.29,0.55-0.93,0.83-1.53,0.55c-1.6-0.73-3.19-1.48-4.74-2.29C52.05,30.54,51.88,30.07,51.64,29.74z"/>
	<path class="st0" d="M53.28,61.01c-0.03,0.68-0.64,1.23-1.32,1.19c-0.66-0.05-1.18-0.63-1.16-1.29c0.03-0.68,0.64-1.23,1.32-1.19
		C52.78,59.77,53.31,60.35,53.28,61.01z"/>
</g>
</svg>
