<?xml version="1.0" encoding="utf-8"?>
<!-- Generator: Adobe Illustrator 24.0.0, SVG Export Plug-In . SVG Version: 6.00 Build 0)  -->
<svg version="1.1" id="Capa_1" xmlns="http://www.w3.org/2000/svg" xmlns:xlink="http://www.w3.org/1999/xlink" x="0px" y="0px"
	 viewBox="0 0 283.5 283.5" style="enable-background:new 0 0 283.5 283.5;" xml:space="preserve">
<style type="text/css">
	.st0{fill:#ACAEAF;}
	.st1{fill:#1C3247;}
	.st2{fill:#FE9900;}
</style>
<g>
	<path class="st0" d="M35.1,242.6c0-68.3,0-136.6,0-204.8c1.1-3.3,2.3-6.6,5.2-8.6c2.3-1.6,4.9-2.6,7.4-3.9c52.1,0,104.2,0,156.3,0
		c0.1,0.1,0.2,0.2,0.3,0.3c8.7,2.8,12.3,7.7,12.3,16.7c0,20.7,0,41.3,0,62c0,0.8,0,1.5,0,2.3c0.2,0.1,0.5,0.2,0.7,0.3
		c0.5-0.7,0.9-1.4,1.5-2c6.2-6.3,12.4-12.6,18.8-18.7c9-8.5,23.5-4.4,27,7.5c0.2,0.6,0.4,1.1,0.6,1.6c0,1.8,0,3.6,0,5.4
		c-1.2,5.2-4.6,8.9-8.3,12.5c-12.9,12.7-25.6,25.6-38.5,38.4c-1.3,1.3-1.8,2.5-1.8,4.3c0.1,27.8,0,55.5,0,83.3
		c0,8-4.2,13.5-11.8,15.7c-0.3,0.1-0.5,0.3-0.8,0.4c-52.1,0-104.2,0-156.3,0c-2.5-1.3-5.1-2.4-7.4-3.9
		C37.4,249.2,36.3,245.8,35.1,242.6z M189.5,228.2c0-19.3,0-38.3,0-57.6c-4.3,1.9-8.4,3.7-12.5,5.5c-2.2,1-4.2,1.3-6-0.6
		c-1.8-1.8-1.4-3.9-0.5-6c3.7-8.1,7.4-16.2,10.8-24.4c1.6-3.8,3.7-7.1,6.7-9.9c0.8-0.8,1.4-2.3,1.4-3.4c0.1-25.8,0.1-51.5,0.1-77.3
		c0-0.8,0-1.6,0-2.4c-8.7,0-17,0-25.4,0c-0.1,0.3-0.2,0.5-0.2,0.7c-0.8,8.3-6.4,13.5-14.7,13.5c-15.8,0-31.6,0-47.4,0
		c-7.8,0-13.7-5.5-14.3-13.2c0-0.3-0.1-0.7-0.2-1c-8.5,0-16.8,0-25.2,0c0,58.7,0,117.3,0,176c1,0,1.8,0,2.6,0c14.1,0,28.2,0,42.2,0
		c3.3,0,5.3,1.8,5.3,4.5c0,2.7-2,4.5-5.3,4.5c-16.2,0-32.5,0-48.7,0c-3.5,0-5.2-1.7-5.2-5.2c0-61.2,0-122.3,0-183.5
		c0-3.7,1.7-5.3,5.4-5.3c8.8,0,17.7,0,26.5,0c0.8,0,1.6,0,2.5,0c0-3.1,0-6,0-9c-0.9,0-1.6,0-2.4,0c-11.1,0-22.2,0-33.2,0
		c-5.5,0-7.8,2.3-7.8,7.8c0,65.5,0,131,0,196.5c0,5.5,2.3,7.7,7.8,7.7c49.3,0,98.5,0,147.8,0c5.7,0,7.9-2.2,7.9-7.8
		c0-24.5,0-49,0-73.4c0-0.7,0-1.4,0-2.4c-2.5,1.1-4.7,2.3-7,3.1c-1.6,0.6-2,1.5-2,3.2c0.1,21,0,41.9,0,62.9c0,3.9-1.6,5.5-5.4,5.5
		c-16.2,0-32.3,0-48.5,0c-3.3,0-5.3-1.7-5.3-4.5c0-2.7,2-4.5,5.3-4.5c11.6,0,23.2,0,34.8,0C182.8,228.2,186.1,228.2,189.5,228.2z
		 M155.1,34.3c-19.6,0-39,0-58.5,0c0,5.8,0,11.5,0,17.2c0,4.2,1.8,6,6,6c7.4,0,14.8,0,22.2,0c8.2,0,16.5,0,24.7,0
		c3.2,0,5.5-1.8,5.5-4.7C155.2,46.7,155.1,40.6,155.1,34.3z M164.2,43.1c1,0,1.8,0,2.6,0c8.5,0,16.9,0,25.4,0c5.2,0,6.4,1.3,6.4,6.5
		c0,24.2,0,48.3,0,72.5c0,0.8,0,1.5,0,2.9c2.9-2.9,5.3-5.3,7.5-7.8c0.8-0.8,1.4-2.2,1.4-3.3c0.1-24.2,0.1-48.3,0.1-72.5
		c0-5-2.4-7.4-7.4-7.4c-11.2,0-22.4,0-33.7,0c-0.7,0-1.5,0.1-2.3,0.1C164.2,37.2,164.2,40,164.2,43.1z M204.4,152.1
		c13.4-13.4,26.8-26.8,39.8-39.8c-3.2-3.3-6.6-6.7-10-10c-13.2,13.2-26.6,26.6-39.9,39.9C197.7,145.5,201.1,148.8,204.4,152.1z
		 M251.5,105.6c3-2.6,5.6-5.2,4.4-9.6c-0.8-2.9-2.8-4.7-5.8-5.2c-4.1-0.7-6.6,1.7-8.8,4.5C244.7,98.7,248,102.1,251.5,105.6z
		 M189,150.5c-1.8,4.1-3.7,8.4-5.9,13.2c4.9-2.2,9.1-4.1,13.1-5.8C193.8,155.3,191.4,152.9,189,150.5z"/>
	<path class="st1" d="M93.5,116.8c-4.6,0-9.1,0-13.7,0c-3.4,0-5.1-1.7-5.1-5.1c0-9.1,0-18.2,0-27.4c0-3.5,1.7-5.2,5.2-5.2
		c9.1,0,18.2,0,27.4,0c3.4,0,5.1,1.7,5.1,5.1c0,9.1,0,18.2,0,27.4c0,3.5-1.7,5.2-5.2,5.2C102.6,116.8,98,116.8,93.5,116.8z
		 M103.3,107.7c0-6.6,0-13.1,0-19.5c-6.6,0-13.1,0-19.5,0c0,6.6,0,13,0,19.5C90.3,107.7,96.7,107.7,103.3,107.7z"/>
	<path class="st2" d="M93.7,128.5c4.5,0,9,0,13.5,0c3.5,0,5.2,1.7,5.2,5.2c0,9.1,0,18.2,0,27.4c0,3.4-1.7,5.1-5.1,5.1
		c-9.2,0-18.4,0-27.6,0c-3.3,0-5-1.8-5-5c0-9.3,0-18.5,0-27.8c0-3.1,1.8-4.9,4.9-4.9C84.3,128.4,89,128.5,93.7,128.5z M103.3,157.1
		c0-6.6,0-13,0-19.5c-6.6,0-13,0-19.5,0c0,6.6,0,13.1,0,19.5C90.4,157.1,96.8,157.1,103.3,157.1z"/>
	<path class="st0" d="M112.4,196.9c0,4.5,0,9,0,13.5c0,3.6-1.7,5.3-5.2,5.3c-9.1,0-18.2,0-27.4,0c-3.4,0-5.2-1.7-5.2-5.1
		c0-9.2,0-18.4,0-27.6c0-3.3,1.7-5,5-5c9.3,0,18.5,0,27.8,0c3.2,0,4.9,1.8,4.9,5.1C112.4,187.6,112.4,192.2,112.4,196.9z
		 M83.8,206.5c6.6,0,13.1,0,19.5,0c0-6.6,0-13.1,0-19.5c-6.6,0-13,0-19.5,0C83.8,193.5,83.8,199.9,83.8,206.5z"/>
	<path class="st0" d="M142.3,196.6c-2.1-1.9-4-3.6-5.8-5.4c-3.1-3-3.5-5.6-1.5-7.7c2.1-2.2,4.7-1.7,7.9,1.4c1.7,1.8,3.4,3.6,5.5,5.8
		c2.4-2.5,4.4-4.8,6.6-7c2.2-2.2,5.2-2.1,6.9,0.1c1.5,1.9,1.4,4.3-0.6,6.3c-2.1,2.2-4.3,4.3-6.9,6.8c2.3,2.2,4.5,4.2,6.6,6.3
		c2.3,2.3,2.5,5,0.5,6.9c-1.9,1.9-4.6,1.7-6.9-0.7c-0.6-0.6-1.2-1.2-1.7-1.7c-1.4-1.4-2.8-2.7-4.2-4.1c-0.1-0.1-0.3-0.1-0.9-0.4
		c-2.1,2.2-4.2,4.5-6.5,6.8c-1.6,1.6-3.8,1.8-5.6,0.7c-1.8-1.1-2.4-2.9-1.9-4.8c0.3-0.9,0.9-1.9,1.6-2.6
		C137.6,201.1,139.7,199.1,142.3,196.6z"/>
	<path class="st1" d="M143.1,101.9c5.5-5.6,10.7-10.8,16-16.1c0.6-0.6,1.1-1.2,1.8-1.7c1.7-1.3,4-1.1,5.6,0.2c1.6,1.4,2,3.8,0.8,5.7
		c-0.4,0.6-0.9,1.2-1.4,1.7c-6.2,6.2-12.4,12.4-18.5,18.6c-2.9,2.9-5.2,2.9-8.1,0c-2.9-2.8-5.7-5.7-8.6-8.6c-2.3-2.3-2.5-5-0.6-6.9
		c2-2,4.6-1.8,6.9,0.5C139,97.5,141,99.7,143.1,101.9z"/>
	<path class="st2" d="M143.1,151.3c5.1-5.1,9.8-9.9,14.6-14.7c0.9-1,1.9-2,2.9-2.8c1.8-1.5,4.3-1.4,5.9,0.2c1.7,1.6,1.9,4,0.5,5.9
		c-0.3,0.5-0.8,0.9-1.2,1.3c-6.2,6.2-12.4,12.4-18.6,18.6c-3,3-5.2,3-8.2,0c-2.9-2.8-5.7-5.7-8.6-8.6c-2.2-2.2-2.4-4.9-0.5-6.8
		c1.9-2,4.6-1.9,6.9,0.5C139,146.9,141,149,143.1,151.3z"/>
	<path class="st0" d="M130.4,232.7c0,2.5-2.1,4.5-4.6,4.5c-2.4-0.1-4.4-2.1-4.4-4.5c0-2.5,2.1-4.5,4.6-4.5
		C128.4,228.3,130.4,230.3,130.4,232.7z"/>
</g>
</svg>
