<?xml version="1.0" encoding="utf-8"?>
<!-- Generator: Adobe Illustrator 24.0.0, SVG Export Plug-In . SVG Version: 6.00 Build 0)  -->
<svg version="1.1" id="Capa_1" xmlns="http://www.w3.org/2000/svg" xmlns:xlink="http://www.w3.org/1999/xlink" x="0px" y="0px"
	 viewBox="0 0 200 200" style="enable-background:new 0 0 200 200;" xml:space="preserve">
<style type="text/css">
	.st0{fill:#ACAEAF;}
	.st1{fill:#1C3247;}
	.st2{fill:#FE9900;}
</style>
<g>
	<path class="st0" d="M76,154c-1.3-0.7-2.7-1.2-3.8-2.1c-1.5-1.2-2.2-2.9-2.3-4.8c0-0.5,0-1.1,0-1.6c0-11,0-22,0-33
		c0-4.2,0-8.4,0-12.5c0-4.8,3.1-7.9,7.9-7.9c4.3,0,8.6,0,13,0c0.4,0,0.8,0,1.2,0c0-0.5,0.1-0.8,0.1-1.2c0-2.3,0-4.6,0-7
		c0-3.4,2.5-5.9,5.9-5.9c9.3,0,18.6,0,27.9,0c3.5,0,6,2.5,6,6c0,2.6,0,5.3,0,8.1c0.4,0,0.8,0,1.2,0c4.4,0,8.7,0,13.1,0
		c4.1,0,6.7,2,7.8,5.9c0,0.1,0.1,0.2,0.2,0.3c0,16.5,0,33,0,49.5c-0.6,1.2-1.2,2.5-1.9,3.7c-1,1.4-2.6,1.9-4.2,2.5
		C123.9,154,100,154,76,154z M103.1,122.4c-2.7-0.5-5.2-1-7.8-1.5c-7.4-1.6-14.9-2.4-22.1-4.6c0,0.1,0,0.4,0,0.6
		c0,9.8,0,19.6,0,29.4c0,2.7,1.7,4.3,4.4,4.3c22.9,0,45.7,0,68.6,0c2.8,0,4.5-1.6,4.5-4.4c0-9.7,0-19.5,0-29.2c0-0.3,0-0.6-0.1-0.8
		c-1.2,0.4-2.3,0.9-3.5,1.1c-6.5,1.3-13,2.5-19.5,3.8c-2.3,0.4-4.6,0.9-6.9,1.3c0,1.1,0,2.1,0,3.1c-0.1,5-3.9,8.9-8.8,8.9
		c-4.9,0-8.7-3.8-8.8-8.9C103.1,124.5,103.1,123.5,103.1,122.4z M120.7,119c7.3-1.4,14.4-2.8,21.6-4.1c1.9-0.4,3.9-0.7,5.7-1.3
		c1.8-0.6,2.7-2,2.7-3.9c-0.1-3.1,0-6.1,0-9.2c0-3.4-1.4-4.9-4.9-4.9c-11.4,0-22.8,0-34.2,0c-6.2,0-12.4,0-18.5,0
		c-5.2,0-10.4,0-15.6,0c-2.4,0-4.1,1.5-4.2,3.7c-0.1,3.6,0,7.3,0,11c0,1.3,0.6,2.2,1.6,2.8c0.9,0.5,1.8,0.9,2.8,1.1
		c6.6,1.3,13.3,2.5,19.9,3.8c1.8,0.3,3.6,0.7,5.6,1c0-1.8,0-3.5,0-5.2c0-2.4,1.2-3.6,3.6-3.6c3.4,0,6.8,0,10.2,0
		c2.4,0,3.6,1.3,3.7,3.6C120.7,115.5,120.7,117.2,120.7,119z M128.5,92.1c0-2.5,0-5,0-7.5c0-2.2-0.9-3.1-3.1-3.1
		c-3.6,0-7.2,0-10.7,0c-5.4,0-10.8,0-16.2,0c-2.2,0-3.1,0.9-3.1,3.1c0,2.1,0,4.3,0,6.4c0,0.3,0,0.7,0.1,1c1.2,0,2.4,0,3.7,0
		c0-2.4,0-4.7,0-7c8.6,0,17.1,0,25.7,0c0,2.4,0,4.7,0,7C126,92.1,127.2,92.1,128.5,92.1z M106.6,113.6c0,0.3,0,0.5,0,0.8
		c0,3.7,0,7.4,0,11.2c0,3.2,2.3,5.6,5.4,5.6c3,0,5.4-2.4,5.4-5.5c0-2.2,0-4.4,0-6.6c0-1.7,0-3.5,0-5.3
		C113.7,113.6,110.2,113.6,106.6,113.6z M121.3,92.1c0-1.3,0-2.5,0-3.7c-6.3,0-12.5,0-18.7,0c0,1.3,0,2.5,0,3.7
		C108.8,92.1,115,92.1,121.3,92.1z"/>
	<path class="st1" d="M154,78.1c-0.7,0.4-1.3,1-2,1.2c-1.5,0.4-3,0.7-4.5,1c-0.6,0.1-0.9,0.4-1.1,1c-0.6,1.6-1.4,3.2-2.2,4.8
		c-0.6,1.1-1.6,1.3-2.5,0.8c-0.8-0.5-0.9-1.4-0.4-2.5c0.8-1.8,1.6-3.6,2.3-5.5c0.3-0.9,0.8-1.4,1.7-1.5c1.8-0.4,3.5-0.7,5.4-1.1
		c0-0.9,0-1.8,0-2.7c0-0.2-0.4-0.5-0.6-0.6c-1.6-0.4-3.2-0.7-4.8-1c-0.9-0.2-1.3-0.7-1.6-1.5c-0.7-1.9-1.5-3.7-2.3-5.5
		c-0.4-0.8-0.4-1.5,0.1-2.3c1-1.5,2-3,3-4.6c-0.8-0.7-1.5-1.4-2.3-2.2c-1.4,0.9-2.9,1.8-4.3,2.8c-0.9,0.6-1.7,0.6-2.7,0.1
		c-1.6-0.8-3.3-1.5-5-2.1c-1-0.3-1.6-0.8-1.8-1.9c-0.3-1.7-0.7-3.4-1.1-5.2c-1.1,0-2.1,0-3.2,0c-0.4,1.8-0.7,3.6-1.1,5.4
		c-0.3,1.4-1.4,2-2.5,1.4c-0.8-0.4-1-1.1-0.8-2c0.5-2.3,1-4.5,1.4-6.8c0.2-1,0.8-1.4,1.8-1.4c1.8,0,3.7,0,5.5,0c1.2,0,1.7,0.5,2,1.6
		c0.4,1.6,0.7,3.3,1,4.9c0.1,0.6,0.4,0.9,1,1.1c1.2,0.4,2.3,1,3.5,1.4c0.4,0.1,1,0.1,1.3-0.1c1.4-0.9,2.8-1.8,4.2-2.7
		c1-0.7,1.7-0.6,2.5,0.2c1.3,1.3,2.6,2.6,3.9,3.9c0.7,0.7,0.8,1.5,0.2,2.4c-0.9,1.4-1.8,2.8-2.8,4.2c-0.4,0.5-0.4,0.9-0.1,1.5
		c0.5,1.1,0.9,2.3,1.5,3.5c0.2,0.3,0.5,0.7,0.9,0.8c1.5,0.4,3,0.6,4.5,1c0.8,0.2,1.4,0.7,2.2,1.1C154,73.3,154,75.7,154,78.1z"/>
	<path class="st0" d="M112.9,66.1c-3,0-5.7,0-8.5,0c-4.5,0-7.1-2.6-7.1-7.1c0-3.1,0-6.2,0-9.3c0-0.1,0-0.1-0.1-0.3c-0.3,0-0.7,0-1,0
		c-14.8,0-29.6,0-44.4,0c-1.9,0-2.4,0.5-2.4,2.4c0,27.8,0,55.6,0,83.4c0,1.9,0.5,2.4,2.4,2.4c4.2,0,8.4,0,12.5,0
		c0.9,0,1.7,0.3,1.9,1.3c0.3,1.1-0.4,2.1-1.6,2.1c-4.7,0-9.3,0.1-14,0c-2.5-0.1-4.5-2.3-4.6-4.8c0-0.4,0-0.7,0-1.1
		c0-27.7,0-55.4,0-83c0-3.5,2.3-6,6-6c15.4,0.1,30.8,0.1,46.3,0c1.6,0,2.9,0.6,4,1.7c4.2,4.5,8.4,9,12.7,13.5
		c0.9,0.9,1.3,2.1,1.3,3.3c0,2.7,0,5.4,0,8.1c0,1.2-0.7,1.9-1.7,1.9c-1,0-1.7-0.8-1.7-1.9C112.9,70.6,112.9,68.4,112.9,66.1z
		 M100.7,52.1c0,2.8,0,5.3,0,7.8c0,1.3,1.1,2.6,2.4,2.7c2.4,0.1,4.8,0,7.4,0C107.2,59.1,104,55.7,100.7,52.1z"/>
	<path class="st1" d="M139.5,74.6c-0.4,1.8-0.8,3.5-1.4,5.2c-0.4,1.2-1.4,1.7-2.3,1.3c-0.9-0.4-1.2-1.3-0.7-2.5
		c2.5-6.4-1.1-13.1-7.8-14.3c-0.6-0.1-1.2-0.1-1.8-0.2c-1.2-0.1-1.8-0.8-1.7-1.8c0.1-1,0.8-1.5,1.9-1.5c7.4-0.1,13.5,6.2,13.5,13.8
		C139.4,74.6,139.4,74.6,139.5,74.6z"/>
	<path class="st2" d="M77.4,68.8c3.8,0,7.5,0,11.3,0c1.3,0,2.1,0.7,2.1,1.7c0,1-0.8,1.7-2,1.7c-7.6,0-15.2,0-22.8,0
		c-1.2,0-2-0.7-2-1.7c0-1,0.7-1.7,2-1.7C69.7,68.8,73.5,68.8,77.4,68.8z"/>
	<path class="st2" d="M77.3,64.5c-3.6,0-7.3,0-10.9,0c-0.4,0-0.8,0-1.2-0.1c-0.9-0.2-1.3-0.8-1.3-1.6c0-0.8,0.4-1.4,1.3-1.6
		c0.4-0.1,0.8-0.1,1.1-0.1c7.3,0,14.7,0,22,0c0.2,0,0.4,0,0.6,0c1.1,0.1,1.8,0.7,1.8,1.6c0,1-0.7,1.7-1.9,1.7
		C85,64.5,81.1,64.5,77.3,64.5C77.3,64.5,77.3,64.5,77.3,64.5z"/>
	<path class="st0" d="M71.6,79.8c-1.9,0-3.9,0-5.8,0c-1.3,0-2-0.6-2-1.6c0-1,0.8-1.7,2.1-1.7c3.9,0,7.8,0,11.7,0c1.3,0,2,0.6,2,1.6
		c0,1.1-0.7,1.7-2,1.7C75.6,79.8,73.6,79.8,71.6,79.8z"/>
	<path class="st0" d="M56.8,79.8c-0.9,0.1-1.6-0.1-2.1-0.9c-0.4-0.8-0.2-1.5,0.5-2.1c0.7-0.6,2.6-0.6,3.3,0c0.7,0.6,0.9,1.3,0.5,2.1
		C58.5,79.8,57.7,79.8,56.8,79.8z"/>
	<path class="st2" d="M56.9,68.6c0.7,0.3,1.4,0.5,1.9,0.9c0.7,0.6,0.5,1.7-0.2,2.3c-0.8,0.7-2.8,0.7-3.6-0.1
		C54.4,71,54.3,70,55,69.4C55.4,69,56.2,68.9,56.9,68.6z"/>
	<path class="st2" d="M57.1,61.1c0.1,0,0.5,0,0.8,0.1c0.9,0.2,1.4,1.2,1.1,2.1c-0.3,0.9-1.1,1.2-2.6,1.2c-1,0-1.6-0.4-1.9-1.4
		C54.3,62,55.2,61.1,57.1,61.1z"/>
	<path class="st0" d="M113.5,125.4c0,0.9-0.7,1.7-1.6,1.7c-0.9,0-1.7-0.7-1.7-1.6c0-0.9,0.7-1.7,1.7-1.7
		C112.8,123.8,113.5,124.5,113.5,125.4z"/>
</g>
</svg>
