<?xml version="1.0" encoding="utf-8"?>
<!-- Generator: Adobe Illustrator 24.0.0, SVG Export Plug-In . SVG Version: 6.00 Build 0)  -->
<svg version="1.1" id="Capa_1" xmlns="http://www.w3.org/2000/svg" xmlns:xlink="http://www.w3.org/1999/xlink" x="0px" y="0px"
	 viewBox="0 0 200 200" style="enable-background:new 0 0 200 200;" xml:space="preserve">
<style type="text/css">
	.st0{fill:#ACAEAF;}
	.st1{fill:#FE9900;}
</style>
<g>
	<path class="st0" d="M62.3,178.1c-5.8-3.4-11.5-6.7-17.3-10.1c-6.4-3.7-12.9-7.5-19.3-11.1c-1.7-1-2.5-2.2-2.5-4.1
		c0-13.7,0-27.4,0-41c0-1.8,0.7-3,2.3-3.9c11.1-6.3,22.1-12.8,33.2-19.1c1.2-0.7,1.5-1.4,1.5-2.7c0-12.7,0-25.3-0.1-38
		c0-2.1,0.7-3.4,2.5-4.4C74.4,37,86.1,30.2,97.8,23.4c1.7-1,3.2-1,4.9,0c11.8,6.9,23.6,13.7,35.4,20.4c1.6,0.9,2.3,2.1,2.3,3.9
		c0,12.8,0,25.5,0,38.3c0,1.3,0.3,2.1,1.5,2.7c11,6.3,22,12.7,33,19c1.8,1,2.5,2.3,2.5,4.3c-0.1,13.5-0.1,26.9,0,40.4
		c0,2.1-0.7,3.4-2.6,4.5c-12,6.8-23.9,13.8-35.9,20.7c-0.2,0.1-0.4,0.3-0.6,0.4c-0.6,0-1.2,0-1.8,0c-11.7-6.7-23.3-13.4-34.9-20.2
		c-0.9-0.5-1.6-0.5-2.5,0c-11.6,6.8-23.3,13.5-34.9,20.2C63.5,178.1,62.9,178.1,62.3,178.1z M97.2,116.3c-0.4,0.2-0.6,0.3-0.8,0.4
		c-9.7,5.6-19.4,11.2-29.2,16.8c-0.9,0.5-0.9,1.2-0.9,2c0,10.8,0,21.7,0,32.5c0,0.5,0.1,1,0.1,1.6c0.4-0.2,0.7-0.3,0.9-0.5
		c9.6-5.6,19.3-11.1,28.9-16.7c0.9-0.5,1-1.1,1-2c0-10.9,0-21.8,0-32.7C97.2,117.4,97.2,117,97.2,116.3z M134.2,169.7
		c0-0.7,0-1.2,0-1.6c0-10.8,0-21.7,0-32.5c0-1.1-0.4-1.7-1.3-2.2c-9.4-5.4-18.8-10.8-28.1-16.2c-0.4-0.2-0.9-0.4-1.4-0.7
		c0,0.5-0.1,0.7-0.1,1c0,11.1,0,22.3,0,33.4c0,0.9,0.4,1.3,1.1,1.7c9.5,5.5,19,11,28.5,16.5C133.3,169.2,133.6,169.4,134.2,169.7z
		 M134.2,52.4c-0.3,0.1-0.5,0.1-0.6,0.2c-9.9,5.7-19.7,11.4-29.5,17.1c-0.4,0.2-0.7,1-0.7,1.6c0,11,0,22.1,0,33.1
		c0,0.4,0.1,0.7,0.1,1.2c0.3-0.2,0.5-0.2,0.7-0.3c9.7-5.6,19.5-11.2,29.2-16.9c0.5-0.3,0.9-1.1,0.9-1.6c0.1-3.5,0-7.1,0-10.6
		C134.2,68.2,134.2,60.4,134.2,52.4z M97.1,105.5c0-0.3,0.1-0.5,0.1-0.7c0-11.3,0-22.6,0-33.9c0-1-0.6-1.3-1.2-1.6
		c-9.4-5.4-18.7-10.8-28.1-16.2c-0.5-0.3-0.9-0.5-1.5-0.8c0,0.4-0.1,0.6-0.1,0.8c0,11.2,0,22.5,0,33.7c0,0.6,0.6,1.4,1.1,1.7
		c9.4,5.5,18.9,11,28.4,16.4C96.2,105.1,96.6,105.3,97.1,105.5z M60.1,169.6c0-0.4,0.1-0.5,0.1-0.7c0-11.3,0-22.6,0-33.9
		c0-1-0.5-1.3-1.2-1.7c-9.4-5.4-18.8-10.9-28.3-16.3c-0.4-0.2-0.8-0.4-1.4-0.7c0,0.5-0.1,0.8-0.1,1c0,11.1,0,22.3,0,33.4
		c0,1,0.4,1.4,1.2,1.8c9.4,5.4,18.8,10.9,28.3,16.3C59.2,169.2,59.6,169.4,60.1,169.6z M171.1,116.4c-0.4,0.1-0.5,0.2-0.6,0.3
		c-9.8,5.6-19.5,11.3-29.3,17c-0.5,0.3-0.8,1.1-0.8,1.7c0,11,0,22.1,0,33.1c0,0.4,0.1,0.7,0.1,1.2c0.3-0.2,0.5-0.2,0.7-0.3
		c9.7-5.6,19.4-11.2,29.1-16.7c0.9-0.5,1-1.1,1-2c0-10.9,0-21.8,0-32.7C171.2,117.5,171.2,117,171.1,116.4z M69.4,46.9
		c3.8,2.2,7.5,4.3,11.2,6.5c0.9,0.5,1.6,0.5,2.5,0C92,48.1,101,43,110,37.8c0.8-0.5,1.6-1,2.6-1.5c-0.5-0.4-1-0.6-1.4-0.9
		c-3.2-1.9-6.5-3.7-9.7-5.6c-0.9-0.5-1.5-0.6-2.5,0c-9.4,5.5-18.9,10.9-28.4,16.4C70.3,46.4,69.9,46.6,69.4,46.9z M149.7,100.3
		c-3.9-2.3-7.6-4.4-11.3-6.5c-0.9-0.5-1.5-0.5-2.3,0c-9.4,5.5-18.9,10.9-28.4,16.4c-0.4,0.2-0.7,0.5-1.2,0.8c4,2.3,7.8,4.6,11.7,6.7
		c0.4,0.2,1.2,0,1.6-0.2c4.1-2.3,8.1-4.6,12.1-7C137.8,107.2,143.6,103.8,149.7,100.3z M75.6,100.3c-0.6-0.4-1-0.7-1.5-0.9
		c-3.2-1.8-6.4-3.6-9.6-5.6c-1-0.6-1.6-0.6-2.6,0c-9.4,5.4-18.7,10.8-28.1,16.3c-0.4,0.2-0.8,0.5-1.4,0.9c4.1,2.3,7.9,4.6,11.8,6.8
		c0.3,0.2,1.1,0,1.5-0.3c2.5-1.4,4.9-2.8,7.4-4.2C60.6,109,68,104.8,75.6,100.3z M131,46.9c-0.5-0.3-0.9-0.6-1.4-0.8
		c-3.2-1.9-6.4-3.7-9.6-5.6c-0.9-0.6-1.6-0.6-2.6,0c-9.4,5.5-18.7,10.9-28.1,16.3c-0.4,0.3-0.9,0.5-1.4,0.9
		c3.8,2.2,7.5,4.3,11.1,6.5c0.8,0.5,1.5,0.5,2.3,0c9.4-5.5,18.9-11,28.4-16.4C130.2,47.4,130.5,47.2,131,46.9z M94,111
		c-0.5-0.3-0.8-0.6-1.2-0.8c-3.3-1.9-6.6-3.8-9.8-5.7c-0.9-0.5-1.5-0.5-2.3,0c-9.4,5.5-18.9,10.9-28.4,16.4
		c-0.4,0.2-0.8,0.5-1.3,0.8c3.8,2.2,7.5,4.3,11.1,6.4c0.9,0.5,1.6,0.5,2.5,0c9.4-5.4,18.7-10.8,28.1-16.3
		C93,111.6,93.5,111.3,94,111z M168.2,111c-3.9-2.3-7.6-4.3-11.2-6.5c-0.9-0.6-1.6-0.5-2.5,0c-9.4,5.4-18.7,10.8-28.1,16.3
		c-0.5,0.3-0.9,0.6-1.5,0.9c3.8,2.2,7.5,4.3,11.1,6.4c0.9,0.5,1.6,0.5,2.5,0c8.1-4.7,16.2-9.4,24.3-14.1
		C164.5,113.1,166.2,112.1,168.2,111z"/>
	<path class="st1" d="M143.7,156.9c0.7-0.8,1.2-1.8,2.1-2.4c3.5-2.1,7-4.2,10.6-6.2c1.7-1,3.5-0.5,4.4,1c0.8,1.5,0.4,3.2-1.3,4.2
		c-3.6,2.2-7.2,4.3-10.9,6.3C146.3,161.1,143.9,159.6,143.7,156.9z"/>
	<path class="st1" d="M165.7,149.9c-1.7,0-2.9-1.3-2.8-3.1c0-1.7,1.3-3,3-3c1.6,0.1,2.9,1.4,2.9,3.1
		C168.6,148.7,167.4,149.9,165.7,149.9z"/>
</g>
</svg>
