<?xml version="1.0" encoding="utf-8"?>
<!-- Generator: Adobe Illustrator 24.0.0, SVG Export Plug-In . SVG Version: 6.00 Build 0)  -->
<svg version="1.1" id="Capa_1" xmlns="http://www.w3.org/2000/svg" xmlns:xlink="http://www.w3.org/1999/xlink" x="0px" y="0px"
	 viewBox="0 0 80 80" style="enable-background:new 0 0 80 80;" xml:space="preserve">
<style type="text/css">
	.st0{fill:#ACAEAF;}
	.st1{fill:#FE9900;}
</style>
<g>
	<path class="st0" d="M8.29,61.2c0.09-0.45,0.16-0.9,0.28-1.34c1.06-3.59,3.4-5.78,7.1-6.48c0.19-0.04,0.38-0.08,0.64-0.13
		c-1.07-1.05-1.76-2.23-2.08-3.64c-0.93-4.12,2.22-8.27,6.43-8.32c5.74-0.07,11.48-0.03,17.22-0.03c3.06,0,6.12,0,9.18,0
		c0.21,0,0.43,0,0.67,0c0,0.62,0,1.17,0,1.8c-0.27,0-0.53,0-0.78,0c-8.58,0-17.16,0-25.74,0c-2.5,0-4.48,1.42-5.13,3.65
		c-0.95,3.28,1.44,6.51,4.88,6.55c2.52,0.03,5.04,0.01,7.56,0.01c0.22,0,0.44,0,0.7,0c0,0.6,0,1.16,0,1.81c-0.24,0-0.47,0-0.71,0
		c-3.84,0-7.68-0.02-11.52,0.01c-3.55,0.02-6.38,2.56-6.84,6.08c-0.51,3.95,2.59,7.6,6.57,7.72c0.26,0.01,0.52,0.01,0.78,0.01
		c16.52,0,33.05,0,49.57,0c0.25,0,0.51,0,0.79,0c0-0.61,0-1.16,0-1.78c-2.18,0-4.35,0-6.57,0c0-0.63,0-1.19,0-1.82
		c1.54,0,3.07,0,4.64,0c0-0.61,0-1.16,0-1.79c-13.29,0-26.57,0-39.89,0c0-0.63,0-1.18,0-1.81c13.29,0,26.58,0,39.89,0
		c0-1.03,0-1.98,0-2.98c-0.21-0.01-0.4-0.03-0.59-0.03c-16.04,0-32.08,0-48.13,0c-1.85,0-3.17,1.06-3.47,2.75
		c-0.34,1.93,1.1,3.75,3.08,3.85c0.24,0.01,0.48,0.01,0.72,0.01c13.68,0,27.36,0,41.05,0c0.26,0,0.51,0,0.81,0c0,0.6,0,1.15,0,1.76
		c-0.17,0.01-0.34,0.04-0.51,0.04c-13.96,0-27.92,0.01-41.89,0c-2.63,0-4.7-1.87-5.08-4.51c-0.34-2.39,1.21-4.77,3.61-5.47
		c0.58-0.17,1.22-0.22,1.83-0.22c16.56-0.01,33.13-0.01,49.69-0.01c0.25,0,0.51,0,0.79,0c0-0.62,0-1.17,0-1.78
		c-12.25,0-24.48,0-36.76,0c0-0.62,0-1.19,0-1.82c10.31,0,20.62,0,30.98,0c0-0.61,0-1.16,0-1.81c-0.24,0-0.49,0-0.74,0
		c-13.36,0-26.72,0-40.09,0c-1.96,0-3.31-1.12-3.57-2.93c-0.25-1.74,1.11-3.5,2.87-3.65c0.79-0.06,1.59-0.01,2.43-0.01
		c0,0.58,0,1.15,0,1.79c-0.65,0-1.28-0.01-1.92,0c-0.92,0.01-1.57,0.6-1.6,1.44c-0.04,0.84,0.63,1.51,1.56,1.56
		c0.16,0.01,0.32,0,0.48,0c12.64,0,25.28,0,37.93,0c0.23,0,0.47,0,0.74,0c0-1.01,0-1.96,0-2.98c-11.76,0-23.51,0-35.3,0
		c0-0.63,0-1.2,0-1.83c12.41,0,24.8,0,37.22,0c0-0.61,0-1.16,0-1.78c-4.16,0-8.31,0-12.5,0c0-0.63,0-1.2,0-1.79
		c4.77,0,9.52,0,14.31,0c0,1.78,0,3.53,0,5.34c-0.6,0-1.19,0-1.84,0c0,1.02,0,1.99,0,3.01c0.59,0,1.18,0,1.85,0
		c0,1.22,0,2.39,0,3.61c1.95,0,3.82,0,5.74,0c0,1.82,0,3.59,0,5.41c-0.61,0-1.2,0-1.83,0c0,2.22,0,4.39,0,6.6c0.6,0,1.2,0,1.89,0
		c0,1.84,0,3.63,0,5.42c-17.92,0-35.85,0-53.77,0c-0.11-0.04-0.21-0.09-0.33-0.11c-3.67-0.72-6.01-2.9-7.07-6.47
		c-0.13-0.44-0.19-0.89-0.29-1.33C8.29,62.24,8.29,61.72,8.29,61.2z"/>
	<path class="st1" d="M20.32,17.41c2.55,0.85,4.96,1.66,7.36,2.46c3.62,1.21,7.23,2.42,10.86,3.61c0.28,0.09,0.64,0.11,0.91,0.02
		c5.92-1.95,11.82-3.92,17.73-5.89c0.14-0.05,0.28-0.11,0.57-0.23c-1.5-0.5-2.85-0.96-4.27-1.44c0.18-0.57,0.36-1.1,0.56-1.71
		c3.12,1.04,6.19,2.06,9.27,3.09c0.01,0.04,0.01,0.09,0.02,0.13c-0.8,0.27-1.59,0.56-2.4,0.79c-0.44,0.13-0.58,0.34-0.57,0.8
		c0.02,2.66,0.02,5.32,0,7.98c0,0.36,0.08,0.55,0.44,0.71c1.17,0.52,1.87,1.47,1.93,2.74c0.08,1.55,0.02,3.11,0.02,4.72
		c-2.19,0-4.36,0-6.53,0c0-1.73-0.1-3.45,0.03-5.16c0.08-1.09,0.86-1.85,1.86-2.34c0.19-0.09,0.43-0.34,0.43-0.51
		c0.03-2.68,0.02-5.36,0.02-8.13c-0.36,0.12-0.68,0.21-0.99,0.32c-1.27,0.42-2.53,0.88-3.81,1.25c-0.51,0.15-0.62,0.4-0.62,0.89
		c0.02,4.58-0.01,9.16,0.03,13.74c0.01,0.66-0.24,0.97-0.77,1.24c-1.79,0.9-3.69,1.42-5.65,1.73c-5.82,0.92-11.63,0.94-17.39-0.43
		c-1.36-0.33-2.66-0.95-3.98-1.46c-0.37-0.14-0.5-0.43-0.49-0.85c0.02-4.68,0-9.36,0.02-14.04c0-0.46-0.15-0.66-0.58-0.8
		c-3.02-0.99-6.03-2-9.04-3c-0.18-0.06-0.36-0.13-0.68-0.26c1-0.34,1.86-0.63,2.72-0.92c7.06-2.36,14.13-4.71,21.19-7.05
		c0.26-0.09,0.6-0.13,0.85-0.05c4.15,1.36,8.3,2.75,12.45,4.14c0.15,0.05,0.29,0.12,0.49,0.2c-0.19,0.56-0.36,1.1-0.56,1.68
		c-2.27-0.75-4.48-1.49-6.69-2.23c-1.86-0.62-3.71-1.25-5.57-1.85c-0.25-0.08-0.56-0.11-0.8-0.03c-5.97,1.97-11.94,3.96-17.9,5.95
		C20.68,17.25,20.58,17.3,20.32,17.41z M26.75,21.46c-0.03,0.14-0.05,0.18-0.05,0.21c0,4.32-0.01,8.64,0.01,12.96
		c0,0.18,0.23,0.47,0.41,0.53c0.95,0.35,1.91,0.7,2.9,0.94c4.04,0.96,8.15,1.08,12.28,0.83c2.82-0.17,5.6-0.58,8.26-1.6
		c0.88-0.34,0.93-0.44,0.68-1.44c-1.25,0-2.51,0-3.77,0c0-0.63,0-1.18,0-1.78c0.25,0,0.47,0,0.69,0c0.9,0,1.8,0.01,2.7-0.01
		c0.16,0,0.45-0.16,0.46-0.27c0.05-0.48,0.02-0.98,0.02-1.53c-0.79,0-1.48,0-2.18,0c0-0.63,0-1.19,0-1.79c0.57,0,1.09-0.03,1.6,0.01
		c0.5,0.04,0.6-0.16,0.6-0.62c-0.02-1.92-0.01-3.84-0.01-5.76c0-0.21-0.02-0.42-0.03-0.68c-0.25,0.08-0.44,0.13-0.62,0.2
		c-3.71,1.23-7.42,2.48-11.13,3.69c-0.33,0.11-0.75,0.1-1.08-0.01c-2.28-0.73-4.55-1.5-6.82-2.26
		C30.04,22.56,28.41,22.02,26.75,21.46z M60.96,33.41c0-0.81,0-1.55,0-2.29c0-0.14,0-0.28-0.01-0.42c-0.08-0.84-0.63-1.41-1.39-1.45
		c-0.75-0.04-1.48,0.41-1.54,1.12c-0.08,1-0.02,2.01-0.02,3.04C58.99,33.41,59.94,33.41,60.96,33.41z"/>
	<path class="st0" d="M20.62,61.73c0,0.57,0,1.12,0,1.71c-0.58,0-1.14,0-1.74,0c0-0.56,0-1.11,0-1.71
		C19.42,61.73,19.99,61.73,20.62,61.73z"/>
	<path class="st0" d="M24.22,63.45c-0.59,0-1.14,0-1.73,0c0-0.58,0-1.14,0-1.74c0.57,0,1.14,0,1.73,0
		C24.22,62.29,24.22,62.84,24.22,63.45z"/>
	<path class="st1" d="M43.84,33.88c0-0.59,0-1.12,0-1.71c0.58,0,1.15,0,1.75,0c0,0.56,0,1.11,0,1.71
		C45.03,33.88,44.46,33.88,43.84,33.88z"/>
</g>
</svg>
