<?xml version="1.0" encoding="utf-8"?>
<!-- Generator: Adobe Illustrator 24.0.0, SVG Export Plug-In . SVG Version: 6.00 Build 0)  -->
<svg version="1.1" id="Capa_1" xmlns="http://www.w3.org/2000/svg" xmlns:xlink="http://www.w3.org/1999/xlink" x="0px" y="0px"
	 viewBox="0 0 198.4 198.4" style="enable-background:new 0 0 198.4 198.4;" xml:space="preserve">
<style type="text/css">
	.st0{fill:#ACAEAF;}
	.st1{fill:#FE9900;}
	.st2{fill:#1C3247;}
</style>
<path class="st0" d="M41.9,178.1c-0.2-0.1-0.4-0.2-0.6-0.3c-4.7-1.4-7.4-4.8-7.4-9.7c0-6.7,0-13.4,0-20.2c0-35.3,0-70.7,0-106
	c0-1.3,0.1-2.7,0.4-4c1.1-4.2,4.8-7,9.3-7c7.4,0,14.7,0,22.1,0c0.6,0,1.2,0,1.9,0c0-2,0-4,0-5.9c0-2.2,0.9-3.1,3.1-3.2
	c3.8,0,7.6,0,11.5,0c1,0,1.5-0.2,2-1.2c2.7-5.2,7.1-7.9,12.9-7.9c5.8,0,10.1,2.8,12.8,7.9c0.5,0.9,1,1.2,2,1.2c3.8-0.1,7.6,0,11.5,0
	c2.2,0,3.1,0.9,3.1,3.2c0,1.9,0,3.8,0,5.9c0.6,0,1.2,0,1.8,0c7.3,0,14.5,0,21.8,0c6.2,0,10.2,4,10.2,10.2c0,42.3,0,84.5,0,126.8
	c0,5.2-2.2,8-8,10.1C115.5,178.1,78.7,178.1,41.9,178.1z M67.8,36.1c-7.8,0-15.4,0-23,0c-4.1,0-5.6,1.5-5.6,5.7
	c0,41.8,0,83.7,0,125.5c0,4.1,1.5,5.6,5.7,5.6c34.9,0,69.7,0,104.6,0c4.2,0,5.8-1.5,5.8-5.7c0-9.1,0-18.2,0-27.3
	c0-32.8,0-65.5,0-98.3c0-4-1.6-5.6-5.5-5.6c-7.1,0-14.2,0-21.3,0c-0.6,0-1.1,0-1.6,0c-0.1,0.3-0.1,0.4-0.1,0.6c0,1.8,0,3.5,0,5.3
	c0,2.2-0.9,3.2-3.1,3.2c-17.5,0-35.1,0-52.6,0c-2.1,0-3-0.9-3-3.1C67.7,40.1,67.8,38.2,67.8,36.1z M73,39.8c16.2,0,32.2,0,48.2,0
	c0-4.3,0-8.5,0-12.8c-3.8,0-7.4,0-11.1,0c-3.1,0-3.2-0.1-4.3-3c-1.3-3.6-4.8-6.1-8.7-6.1c-3.9,0-7.4,2.4-8.7,6.1c-1,2.9-1.2,3-4.3,3
	c-3.7,0-7.4,0-11.1,0C73,31.4,73,35.6,73,39.8z"/>
<g>
	<path class="st0" d="M129.6,133.3c-0.4,1.4-1,2.6-2.4,3.2c-0.7,0.3-1.6,0.5-2.4,0.5c-13.3,0-26.7,0-40,0c-2.3,0-4.7,0-7,0
		c-2.9,0-4.7-1.8-4.7-4.7c0-14.3,0-28.5,0-42.8c0-2.9,1.8-4.7,4.8-4.7c11.1,0,22.2,0,33.3,0c4.6,0,9.1,0,13.7,0c2,0,3.5,0.7,4.4,2.5
		c0.2,0.4,0.3,0.8,0.4,1.2C129.6,103.4,129.6,118.3,129.6,133.3z M101.3,134.8c7.8,0,15.6,0,23.4,0c1.9,0,2.7-0.8,2.7-2.7
		c0-14.2,0-28.3,0-42.5c0-1.9-0.8-2.7-2.7-2.7c-15.6,0-31.3,0-46.9,0c-1.9,0-2.7,0.8-2.7,2.7c0,14.2,0,28.3,0,42.5
		c0,1.9,0.8,2.7,2.7,2.7C85.7,134.8,93.5,134.8,101.3,134.8z"/>
	<path class="st0" d="M70.8,126.1c0,0.8,0,1.4,0,2.1c-2.8,0.4-4.9-0.1-6-2.4c-0.3-0.6-0.5-1.4-0.5-2.1c0-14.3,0-28.7,0-43
		c0-2.7,1.8-4.6,4.6-4.6c1.8,0,3.6,0,5.4,0c14,0,27.9,0,41.9,0c2,0,3.5,0.7,4.4,2.6c0.6,1.2,0.4,2.6,0.4,3.9c-0.7,0-1.4,0-2.2,0
		c0-0.6,0-1.2,0-1.8c0-1.6-0.9-2.5-2.5-2.5c-15.7,0-31.5,0-47.2,0c-1.6,0-2.5,0.9-2.5,2.5c0,14.3,0,28.6,0,42.8
		c0,1.7,0.9,2.5,2.5,2.5C69.6,126.1,70.2,126.1,70.8,126.1z"/>
	<path class="st0" d="M70.8,82.5c-0.7,0-1.4,0-2.1,0c0-0.7,0-1.4,0-2.1c0.7,0,1.4,0,2.1,0C70.8,81.1,70.8,81.8,70.8,82.5z"/>
	<path class="st0" d="M75.2,80.4c0,0.7,0,1.4,0,2.1c-0.7,0-1.4,0-2.1,0c0-0.7,0-1.4,0-2.1C73.8,80.4,74.4,80.4,75.2,80.4z"/>
	<path class="st0" d="M77.4,82.5c0-0.7,0-1.4,0-2.1c0.7,0,1.4,0,2.1,0c0,0.7,0,1.3,0,2.1C78.8,82.5,78.1,82.5,77.4,82.5z"/>
	<path class="st1" d="M107.8,127.8c-0.7,0.3-1.3,0.5-1.8,0.8c-0.2,0.1-0.3,0.3-0.3,0.5c0,0.7,0,1.5,0,2.2c0,0.9-0.4,1.3-1.3,1.3
		c-2,0-4.1,0-6.1,0c-0.9,0-1.3-0.4-1.3-1.3c0-0.7,0-1.5,0-2.2c0-0.3-0.1-0.5-0.4-0.6c-0.2,0-0.4-0.1-0.6-0.2c-1.1-0.4-1.1-0.4-2,0.4
		c-0.4,0.4-0.7,0.7-1.1,1.1c-0.5,0.5-1.1,0.5-1.6,0c-1.5-1.5-3.1-3-4.5-4.6c-0.5-0.5-0.5-1.1,0.1-1.6c0.5-0.5,1-1,1.5-1.5
		c0.4-0.3,0.5-0.6,0.2-1c-0.1-0.1-0.1-0.3-0.2-0.5c-0.4-1.1-0.4-1.1-1.6-1.1c-0.6,0-1.1,0-1.7,0c-0.7-0.1-1.1-0.4-1.1-1.1
		c0-2.1,0-4.3,0-6.4c0-0.7,0.4-1.1,1.2-1.1c0.8,0,1.5,0,2.3,0c0.2,0,0.5-0.2,0.5-0.4c0.7-1.7,0.7-1.7-0.5-2.9
		c-1.5-1.5-1.5-1.6,0-3.1c1.2-1.2,2.4-2.4,3.6-3.6c0.7-0.7,1.2-0.7,2,0c0.5,0.5,1,1,1.5,1.5c0.2,0.1,0.6,0.2,0.7,0.1
		c0.5-0.4,1.6-0.1,1.7-1.1c0.1-0.7,0-1.5,0-2.2c0-0.9,0.4-1.3,1.3-1.3c2,0,4.1,0,6.1,0c0.9,0,1.3,0.4,1.3,1.3c0,0.7,0,1.5,0,2.2
		c0,0.2,0.2,0.4,0.4,0.5c0.1,0.1,0.4,0.1,0.5,0.2c0.9,0.7,1.6,0.3,2.2-0.5c0.3-0.3,0.6-0.6,0.9-0.9c0.6-0.6,1.2-0.6,1.8,0
		c1.5,1.4,2.9,2.9,4.3,4.3c0.7,0.7,0.6,1.2,0,1.9c-0.5,0.5-1.1,1-1.6,1.6c-0.1,0.1-0.1,0.4-0.1,0.6c0,0.2,0.2,0.4,0.3,0.6
		c0.5,1.1,0.5,1.1,1.7,1.1c0.5,0,1,0,1.5,0c0.8,0,1.2,0.4,1.2,1.2c0,2.1,0,4.2,0,6.3c0,0.8-0.4,1.2-1.2,1.2c-0.7,0-1.5,0-2.2,0
		c-0.4,0-0.6,0.1-0.7,0.5c0,0.2-0.1,0.4-0.2,0.5c-0.4,1.1-0.4,1.1,0.4,1.9c0.4,0.4,0.8,0.7,1.1,1.1c0.5,0.6,0.5,1.1,0,1.6
		c-1.5,1.5-3,3-4.5,4.5c-0.6,0.5-1.2,0.5-1.7,0C109,129.1,108.4,128.4,107.8,127.8z M113.5,124.4c0,0,0-0.1-0.1-0.1
		c-0.5-0.5-0.9-0.9-1.4-1.4c-0.7-0.7-0.7-1-0.3-1.9c0.4-0.8,0.7-1.6,1-2.4c0.4-1,0.6-1.2,1.7-1.2c0.7,0,1.4,0,2.1,0
		c0-1.5,0-2.9,0-4.4c-0.8,0-1.6,0-2.4,0c-0.7,0-1-0.3-1.3-0.9c-0.4-1-0.8-1.9-1.2-2.8c-0.3-0.7-0.3-1.1,0.3-1.7
		c0.5-0.5,1.1-1,1.6-1.5c-1.1-1.1-2.1-2.1-3.2-3.2c-0.5,0.5-1,1-1.5,1.6c-0.7,0.7-1,0.7-1.8,0.3c-0.8-0.4-1.7-0.7-2.6-1.1
		c-0.9-0.3-1.1-0.6-1.1-1.5c0-0.7,0-1.5,0-2.2c-1.5,0-2.9,0-4.3,0c0,0.8,0,1.5,0,2.3c0,0.8-0.2,1.1-1,1.4c-0.9,0.4-1.8,0.7-2.8,1.1
		c-0.8,0.3-1.1,0.3-1.7-0.3c-0.5-0.5-1-1.1-1.5-1.6c-1.1,1.1-2.1,2.1-3.2,3.2c0.5,0.5,1.1,1,1.6,1.5c0.6,0.6,0.6,0.9,0.3,1.7
		c-0.4,0.9-0.8,1.8-1.1,2.7c-0.3,0.8-0.6,1-1.4,1c-0.8,0-1.5,0-2.3,0c0,1.5,0,2.9,0,4.4c0.8,0,1.4,0,2.1,0c1,0,1.2,0.2,1.5,1.1
		c0.3,0.9,0.7,1.7,1,2.5c0.4,0.9,0.4,1.2-0.3,1.9c-0.5,0.5-1.1,1-1.6,1.5c1.1,1.1,2.1,2.1,3.2,3.2c0.5-0.5,1.1-1.1,1.6-1.7
		c0.5-0.5,1-0.6,1.6-0.3c0.9,0.4,1.9,0.8,2.8,1.2c0.7,0.3,1,0.6,1,1.4c0,0.8,0,1.5,0,2.3c1.5,0,2.9,0,4.3,0c0-0.8,0-1.6,0-2.4
		c0-0.6,0.3-1,0.9-1.3c1-0.4,2-0.8,2.9-1.2c0.6-0.3,1.1-0.2,1.6,0.3c0.5,0.6,1.1,1.1,1.6,1.7C111.5,126.4,112.5,125.4,113.5,124.4z"
		/>
	<path class="st2" d="M77.4,95.6c0-0.7,0-1.4,0-2.1c15.9,0,31.9,0,47.8,0c0,0.7,0,1.4,0,2.1C109.3,95.6,93.4,95.6,77.4,95.6z"/>
	<path class="st2" d="M86.1,99c0,0.6,0,1.3,0,2c-2.9,0-5.7,0-8.7,0c0-0.6,0-1.2,0-1.8c0-0.1,0.2-0.3,0.3-0.3
		C80.5,98.9,83.2,98.9,86.1,99C86,98.9,86,99,86.1,99z"/>
	<path class="st2" d="M77.4,103.3c2.2,0,4.3,0,6.5,0c0,0.6,0,1.2,0,1.8c0,0.1-0.3,0.3-0.4,0.3c-1.9,0-3.8,0-5.7,0
		c-0.1,0-0.4-0.2-0.4-0.3C77.4,104.5,77.4,103.9,77.4,103.3z"/>
	<path class="st0" d="M125.2,130.5c0,0.7,0,1.4,0,2.1c-2.1,0-4.3,0-6.5,0c0-0.7,0-1.4,0-2.1C120.9,130.5,123.1,130.5,125.2,130.5z"
		/>
	<path class="st0" d="M77.4,89.1c0.8,0,1.4,0,2.1,0c0,0.7,0,1.4,0,2.1c-0.6,0-1.2,0-1.8,0c-0.1,0-0.3-0.2-0.3-0.3
		C77.4,90.4,77.4,89.8,77.4,89.1z"/>
	<path class="st0" d="M81.8,91.2c0-0.7,0-1.4,0-2.1c0.7,0,1.4,0,2.1,0c0,0.7,0,1.4,0,2.1C83.2,91.2,82.5,91.2,81.8,91.2z"/>
	<path class="st0" d="M88.2,91.2c-0.7,0-1.4,0-2.1,0c0-0.7,0-1.4,0-2.1c0.7,0,1.4,0,2.1,0C88.2,89.8,88.2,90.5,88.2,91.2z"/>
	<path class="st1" d="M93.7,115.3c-0.1-4.1,3.3-7.6,7.4-7.7c4.2-0.1,7.7,3.2,7.8,7.4c0.1,4.1-3.2,7.7-7.3,7.8
		C97.3,122.9,93.8,119.7,93.7,115.3z M95.9,115.2c0,3,2.5,5.4,5.4,5.4c3,0,5.4-2.5,5.4-5.4c0-3-2.5-5.4-5.4-5.4
		C98.3,109.8,95.9,112.2,95.9,115.2z"/>
</g>
</svg>
