<svg id="Grupo_21" data-name="Grupo 21" xmlns="http://www.w3.org/2000/svg" xmlns:xlink="http://www.w3.org/1999/xlink" width="74.536" height="72.46" viewBox="0 0 74.536 72.46">
  <defs>
    <clipPath id="clip-path">
      <rect id="Rectángulo_30" data-name="Rectángulo 30" width="74.536" height="72.46" fill="#aab7c4"/>
    </clipPath>
  </defs>
  <g id="Grupo_20" data-name="Grupo 20" clip-path="url(#clip-path)">
    <path id="Trazado_30" data-name="Trazado 30" d="M73.244,63.824H70.772V62.87q0-16.723,0-33.445c0-2.175-.9-3.074-3.078-3.074H16.386c-2.073,0-3.009.928-3.01,2.986q0,6.525,0,13.05v.747l.216.137a9.276,9.276,0,0,1,.674-.818,3.9,3.9,0,1,1,5.515,5.5c-1.344,1.379-2.713,2.733-4.081,4.088a6.094,6.094,0,0,1-.691.518,8.608,8.608,0,0,1,1.64,4.33,8.164,8.164,0,0,1-2.574,6.766,2.151,2.151,0,0,0-.715,1.769c.046,1.848.014,3.7.016,5.548a2.562,2.562,0,0,0,2.87,2.891q13.646,0,27.292,0h.978v2.472H22.171v2.512H44.528v2.518H43.72q-13.724,0-27.448,0a5.025,5.025,0,0,1-5.392-5.417q0-4.337,0-8.674a1.727,1.727,0,0,0-.027-.2l-2.69,2.781L6.367,67.9c.12-.127.3-.331.5-.526,1.818-1.825,3.646-3.64,5.455-5.473a5.81,5.81,0,0,0,.282-8.282,1.3,1.3,0,0,1,.106-2.1c1.741-1.755,3.494-3.5,5.233-5.254a1.414,1.414,0,0,0,.309-1.956,1.384,1.384,0,0,0-2.224-.072c-1.628,1.61-3.237,3.239-4.855,4.859-.2.2-.408.391-.634.606l-1.727-1.74a3.045,3.045,0,0,1,.429-.465A3.853,3.853,0,0,0,10.9,43.457a14.6,14.6,0,0,1-.016-2.071c-1.429,0-2.8-.088-4.163.026a2.432,2.432,0,0,0-2.073,2.619c-.007,3.517-.018,7.033.01,10.549a2.239,2.239,0,0,1-.738,1.8c-.718.671-1.38,1.4-2.1,2.143L0,56.551c.542-.485,1.171-.984,1.715-1.563a1.626,1.626,0,0,0,.412-1c.03-3.256.015-6.512.019-9.768a5.015,5.015,0,0,1,5.366-5.363c1.088,0,2.176,0,3.367,0v-.874c0-2.969-.007-5.939,0-8.908a4.983,4.983,0,0,1,5.193-5.22q26-.007,52.01,0a4.97,4.97,0,0,1,5.176,5.078q.02,17.192,0,34.385c0,.152-.014.3-.023.51M19.57,78.845V76.368c-1.074,0-2.109.055-3.136-.016s-2.019-.266-3.025-.406a2.437,2.437,0,0,0,2.108,2.876c1.332.108,2.679.023,4.053.023" transform="translate(0 -18.88)" fill="#aab7c4"/>
    <path id="Trazado_31" data-name="Trazado 31" d="M235.878,214.883h-2.5c0-1.257-.038-2.5.011-3.737a2.908,2.908,0,0,0-1.479-2.8c-1.059-.658-2.092-1.361-3.111-2.08a6.632,6.632,0,0,1,.817-11.458,1.93,1.93,0,0,0,1.3-2.095c-.089-3.019-.046-6.042-.024-9.064a3.733,3.733,0,0,1,7.42-.593,13.793,13.793,0,0,1,.015,2.027,3.932,3.932,0,0,1,4.449,1.523,3.791,3.791,0,0,1,3.781.109,3.923,3.923,0,0,1,1.837,3.364,3.82,3.82,0,0,1,3.448.588,3.362,3.362,0,0,1,1.471,2.643c.071,3.85.237,7.717-.9,11.471a19.99,19.99,0,0,1-1,2.866,6.161,6.161,0,0,0-.567,2.938c.038,1.4.01,2.809.01,4.272h-2.5c0-1.574.033-3.154-.011-4.732a6.884,6.884,0,0,1,.637-3.16,21.135,21.135,0,0,0,1.858-8.478c.029-1.51.015-3.022.01-4.532,0-.976-.484-1.552-1.263-1.541s-1.223.58-1.23,1.574c0,.7,0,1.394,0,2.13h-2.5v-.97c0-1.667.006-3.334,0-5,0-.92-.486-1.481-1.241-1.484s-1.244.557-1.249,1.475c-.009,1.558,0,3.117,0,4.723h-2.5c0-1.79,0-3.554,0-5.318,0-.286.013-.574-.005-.859a1.252,1.252,0,0,0-1.217-1.271,1.23,1.23,0,0,0-1.265,1.3c-.024,1.406-.008,2.813-.009,4.22,0,.206,0,.412,0,.673h-2.5v-.835q0-4.376,0-8.752c0-1.035-.478-1.626-1.277-1.6-.772.02-1.215.588-1.215,1.588q0,8.049,0,16.1v1h-2.458v-4.022a3.9,3.9,0,0,0-2.479,4.369,4.17,4.17,0,0,0,1.819,2.8q1.617,1.089,3.24,2.169a5.054,5.054,0,0,1,2.374,4.479c0,1.3,0,2.6,0,3.99" transform="translate(-178.83 -142.423)" fill="#aab7c4"/>
    <path id="Trazado_32" data-name="Trazado 32" d="M210.883,72.559c.032-.5.061-.807.07-1.12a1.12,1.12,0,0,0-1.158-1.152c-.6.02-1.192.079-1.789.108a1.279,1.279,0,0,1-1.352-.843c-.33-.792-.665-1.581-.984-2.377a1.275,1.275,0,0,1,.364-1.551c.428-.379.85-.765,1.271-1.153a1.1,1.1,0,0,0,.02-1.738c-.437-.408-.888-.8-1.33-1.2a1.257,1.257,0,0,1-.337-1.492c.323-.822.663-1.638,1.013-2.449A1.194,1.194,0,0,1,207.9,56.8c.571.022,1.142.036,1.713.068.926.051,1.375-.4,1.327-1.336-.149-2.888-.254-2.53,2.157-3.545.287-.121.579-.23.863-.358a1.358,1.358,0,0,1,1.743.4q.534.621,1.092,1.221a1.08,1.08,0,0,0,1.73-.03q.581-.632,1.152-1.273a1.273,1.273,0,0,1,1.55-.36c.77.31,1.533.638,2.3.95a1.348,1.348,0,0,1,.906,1.472c-.035.52-.075,1.039-.1,1.559a1.126,1.126,0,0,0,1.306,1.3c.441-.024.882-.046,1.323-.058,1.159-.032,1.4.121,1.832,1.162.279.672.542,1.351.827,2.02a1.272,1.272,0,0,1-.346,1.554c-.418.39-.851.765-1.268,1.156a1.086,1.086,0,0,0,.005,1.781c.42.388.85.765,1.27,1.154a1.268,1.268,0,0,1,.339,1.555c-.326.765-.638,1.536-.951,2.306a1.314,1.314,0,0,1-1.4.894c-.519-.027-1.037-.07-1.555-.1-.964-.055-1.46.421-1.372,1.389.262,2.893.093,2.558-2.242,3.558-.31.133-.627.248-.939.376a1.2,1.2,0,0,1-1.418-.32c-.413-.432-.8-.888-1.206-1.328a1.084,1.084,0,0,0-1.777.008c-.389.419-.762.854-1.153,1.272a1.264,1.264,0,0,1-1.552.342c-.642-.278-1.293-.538-1.94-.805-1.119-.461-1.261-.676-1.232-1.863,0-.182,0-.364,0-.362m14.673-4.778a2.892,2.892,0,0,0,.687.029.883.883,0,0,0,.534-.3c.253-.335.174-.615-.153-.932-.547-.531-1.33-1.088-1.447-1.737-.274-1.519-.386-3.156,1.3-4.129.066-.038.153-.092.17-.155.071-.262.232-.581.142-.781a.929.929,0,0,0-.675-.4c-.433-.042-.882.087-1.318.057a1.838,1.838,0,0,1-1.011-.293c-1.218-1.03-2.472-2.074-1.929-3.974.014-.049.032-.117.009-.153a2.121,2.121,0,0,0-.428-.616c-.412-.3-.69.026-.885.329a3.037,3.037,0,0,1-3.271,1.421,1.042,1.042,0,0,0-.234,0,1.8,1.8,0,0,1-1.7-.747,4.9,4.9,0,0,0-.842-.915.776.776,0,0,0-.665-.059.766.766,0,0,0-.419.519c-.034.462.081.935.062,1.4a1.8,1.8,0,0,1-.241,1.027c-1,1.171-1.936,2.533-3.848,2.01-.352-.1-.732-.139-.951.384s.108.685.367.967c.465.506,1.186.993,1.286,1.575.253,1.491.456,3.089-1.186,4.1-.313.193-.7.42-.477,1,.247.632.7.355,1.1.394.656.064,1.477-.076,1.933.265,1.263.946,2.519,2.025,1.948,3.938-.029.1-.056.24-.008.3a1.424,1.424,0,0,0,.487.49.676.676,0,0,0,.6-.069c.383-.347.677-.8,1.069-1.131a2,2,0,0,1,1-.517c1.58-.155,3.147-.184,4.074,1.493.037.066.1.154.157.167.2.042.448.133.611.059a.865.865,0,0,0,.452-.508,3.828,3.828,0,0,0-.034-.93,3.541,3.541,0,0,1,3.734-3.574" transform="translate(-162.727 -40.747)" fill="#fc7e00"/>
    <path id="Trazado_33" data-name="Trazado 33" d="M114.241,190.057h2.506V186.4h2.478v3.653H121.7v2.5H94.343v-2.427h2.446v-3.742h2.478v3.666h2.506V183.9h2.505v6.159h2.477v-9.919h2.5v9.9h2.5v-6.157h2.478Z" transform="translate(-74.689 -142.612)" fill="#aab7c4"/>
    <rect id="Rectángulo_23" data-name="Rectángulo 23" width="32.342" height="2.41" transform="translate(22.172 0.02)" fill="#1c3247"/>
    <rect id="Rectángulo_24" data-name="Rectángulo 24" width="19.865" height="2.408" transform="translate(18.43 17.527)" fill="#aab7c4"/>
    <rect id="Rectángulo_25" data-name="Rectángulo 25" width="14.874" height="2.406" transform="translate(23.393 22.516)" fill="#aab7c4"/>
    <rect id="Rectángulo_26" data-name="Rectángulo 26" width="12.379" height="2.404" transform="translate(25.918 12.527)" fill="#aab7c4"/>
    <rect id="Rectángulo_27" data-name="Rectángulo 27" width="12.406" height="2.396" transform="translate(23.389 27.523)" fill="#aab7c4"/>
    <rect id="Rectángulo_28" data-name="Rectángulo 28" width="2.403" height="2.422" transform="translate(57.086)" fill="#1c3247"/>
    <rect id="Rectángulo_29" data-name="Rectángulo 29" width="2.421" height="2.413" transform="translate(20.906 12.509)" fill="#aab7c4"/>
    <path id="Trazado_34" data-name="Trazado 34" d="M246.144,87.5a4.623,4.623,0,1,1-4.625,4.576,4.615,4.615,0,0,1,4.625-4.576m2.1,4.608a2.105,2.105,0,0,0-2.149-2.1,2.074,2.074,0,0,0-2.08,2.08,2.1,2.1,0,0,0,2.092,2.16,2.151,2.151,0,0,0,2.136-2.136" transform="translate(-191.204 -69.274)" fill="#fc7e00"/>
  </g>
</svg>
