<?xml version="1.0" encoding="utf-8"?>
<!-- Generator: Adobe Illustrator 24.0.0, SVG Export Plug-In . SVG Version: 6.00 Build 0)  -->
<svg version="1.1" id="Capa_1" xmlns="http://www.w3.org/2000/svg" xmlns:xlink="http://www.w3.org/1999/xlink" x="0px" y="0px"
	 viewBox="0 0 80 80" style="enable-background:new 0 0 80 80;" xml:space="preserve">
<style type="text/css">
	.st0{fill:#ACAEAF;}
	.st1{fill:#FE9900;}
	.st2{fill:#1C3247;}
</style>
<g>
	<path class="st0" d="M5.34,20.93c0.09-1.35,0.21-2.69,0.27-4.04c0.09-1.93,0.48-3.74,1.72-5.29c1.46-1.81,3.35-2.8,5.68-2.94
		c7.64-0.47,15.28-0.51,22.92-0.11c1.34,0.07,2.73,0.15,4,0.54c1.04,0.32,1.98,1.05,2.9,1.69c0.54,0.38,0.56,1.04,0.19,1.46
		c-0.38,0.45-1.01,0.46-1.53-0.02c-1.15-1.06-2.5-1.51-4.05-1.6c-7.51-0.44-15.02-0.46-22.53-0.08c-0.89,0.04-1.78,0.07-2.65,0.24
		c-2.47,0.47-4.32,2.52-4.54,5.02c-0.53,5.88-0.53,11.76,0,17.65c0.24,2.72,2.5,4.91,5.22,5.1c1.31,0.09,2.62,0.18,3.93,0.22
		c1.18,0.04,2.14,0.5,2.96,1.33c1.37,1.39,2.76,2.77,4.15,4.15c1.08,1.07,1.9,1.08,2.96,0.02c1.39-1.38,2.77-2.76,4.15-4.15
		c0.83-0.85,1.81-1.31,3.02-1.35c1.29-0.04,2.57-0.13,3.86-0.22c2.78-0.19,5.04-2.45,5.27-5.21c0.48-5.77,0.5-11.54,0.01-17.31
		c-0.02-0.22-0.04-0.44-0.07-0.66c-0.08-0.7,0.2-1.16,0.77-1.26c0.62-0.11,1.08,0.22,1.19,0.95c0.12,0.81,0.16,1.63,0.23,2.45
		c0.04,0.41,0.06,0.83,0.09,1.27c3.06-0.57,6.08-0.27,9.09-0.3c4.45-0.05,8.89-0.02,13.34-0.01c2.79,0.01,4.85,1.47,5.53,3.92
		c0.15,0.53,0.21,1.09,0.21,1.64c0.01,14.14,0.01,28.27,0.01,42.41c0,3.23-2.32,5.56-5.54,5.57c-4.82,0.01-9.65,0-14.47,0
		c-0.94,0-1.49-0.54-1.28-1.25c0.17-0.58,0.61-0.76,1.18-0.75c2.45,0.01,4.89,0,7.34,0s4.89,0.01,7.34,0
		c2.18-0.02,3.66-1.75,3.38-4.02c-1.45,1.23-3.17,1.16-4.89,1.16c-8.27-0.01-16.54,0-24.81,0c-0.28,0-0.57,0-0.89,0
		c0,0.98,0,1.88,0,2.88c0.24,0,0.47,0,0.71,0c2.47,0,4.93,0,7.4,0c0.51,0,0.92,0.15,1.13,0.65c0.23,0.57-0.11,1.19-0.74,1.32
		c-0.19,0.04-0.4,0.03-0.6,0.03c-12.34,0-24.67,0-37.01,0c-2.82,0-4.98-1.71-5.51-4.36c-0.1-0.5-0.1-1.02-0.1-1.53
		c-0.01-9.85,0-19.69-0.01-29.54c0-0.48-0.16-0.95-0.21-1.43c-0.19-1.72-0.37-3.44-0.55-5.16c-0.06-0.57-0.09-1.14-0.14-1.72
		C5.34,25.82,5.34,23.37,5.34,20.93z M45.51,31.23c0.2,0,0.44,0,0.68,0c5.2,0,10.4,0,15.6,0c0.29,0,0.58,0,0.86,0.08
		c0.49,0.14,0.73,0.52,0.68,1.02c-0.05,0.49-0.34,0.81-0.85,0.88c-0.2,0.03-0.4,0.02-0.6,0.02c-5.29,0-10.58,0-15.87,0
		c-0.24,0-0.48,0-0.68,0c-0.05,0.07-0.07,0.08-0.08,0.1c-0.02,0.13-0.03,0.26-0.05,0.4c-0.35,2.51-1.57,4.46-3.75,5.76
		c-0.4,0.24-0.52,0.49-0.52,0.94c0.01,8,0.01,16,0.01,24c0,0.21,0.02,0.43,0.03,0.66c0.23,0.01,0.41,0.03,0.58,0.03
		c8.82,0,17.64,0.01,26.47,0c2.23,0,3.61-1.4,3.61-3.63c0-12.42,0-24.85,0-37.27c0-2.4-1.35-3.76-3.76-3.76
		c-6.49-0.01-12.98-0.01-19.47,0.01c-0.81,0-1.63,0.18-2.43,0.33c-0.16,0.03-0.41,0.26-0.41,0.4c-0.03,1.5-0.02,3.01-0.02,4.56
		c0.41,0,0.68,0,0.94,0c5.11,0,10.22,0,15.33,0c0.24,0,0.49-0.01,0.73,0.04c0.52,0.12,0.83,0.47,0.8,1
		c-0.03,0.56-0.35,0.9-0.93,0.95c-0.22,0.02-0.44,0.01-0.67,0.01c-5.11,0-10.22,0-15.33,0c-0.26,0-0.52,0-0.89,0
		C45.51,28.92,45.51,30.02,45.51,31.23z M31.93,42.19c0.84,0,1.52-0.02,2.21,0.01c0.71,0.03,1.09,0.4,1.09,1
		c0,0.6-0.38,0.97-1.09,0.99c-0.84,0.02-1.7,0.08-2.53-0.01c-1.26-0.15-2.25,0.2-2.99,1.24c-0.17,0.23-0.4,0.42-0.61,0.61
		c-1.52,1.39-3.6,1.38-5.11-0.04c-0.49-0.46-0.92-0.97-1.43-1.4c-0.25-0.21-0.61-0.36-0.92-0.38c-0.93-0.05-1.87-0.01-2.8-0.02
		c-0.8-0.01-1.22-0.37-1.21-1.01c0.01-0.61,0.41-0.96,1.18-0.98c0.4-0.01,0.8,0,1.28,0c-0.71-1.01-1.52-1.49-2.63-1.46
		c-0.8,0.02-1.6-0.09-2.4-0.1c-2.06-0.03-3.95-0.54-5.57-1.87c-0.02-0.02-0.08,0.02-0.15,0.04c0,0.21,0,0.43,0,0.66
		c0,7.29,0.05,14.58-0.03,21.87c-0.02,2.21,1.52,3.84,3.8,3.82c8.71-0.06,17.42-0.02,26.13-0.02c0.24,0,0.48,0,0.74,0
		c0-8.25,0-16.41,0-24.61c-1.55,0.09-3.05,0.22-4.56,0.24C33.29,40.76,32.62,41.3,31.93,42.19z M8.34,66.01
		c-0.4,2.17,1.17,3.98,3.4,3.99c8.88,0.01,17.77,0,26.65,0c0.17,0,0.34-0.03,0.51-0.05c0-0.95,0-1.85,0-2.83c-0.32,0-0.6,0-0.89,0
		c-8.37,0-16.75-0.01-25.12,0.01C11.28,67.13,9.7,67.09,8.34,66.01z"/>
	<path class="st1" d="M16.17,21.72c-0.45-0.57-0.79-0.99-1.13-1.42c-0.7-0.9-0.76-1.73-0.19-2.72c0.64-1.13,1.53-2,2.66-2.65
		c0.93-0.54,1.82-0.49,2.66,0.18c0.43,0.34,0.86,0.69,1.43,1.15c0.06-0.45,0.12-0.78,0.14-1.11c0.14-1.96,0.76-2.69,2.7-2.87
		c0.97-0.09,1.99,0.01,2.96,0.18c1.02,0.18,1.59,0.91,1.7,1.96c0.06,0.57,0.14,1.13,0.22,1.78c1.11-0.62,1.86-1.98,3.23-1.55
		c0.87,0.27,1.7,0.86,2.39,1.48c0.8,0.72,1.51,1.59,1.51,2.79c0,1.18-1.04,1.79-1.61,2.79c0.44,0.06,0.78,0.12,1.12,0.15
		c1.88,0.16,2.59,0.7,2.8,2.56c0.12,1.03-0.02,2.12-0.2,3.16c-0.17,1.01-0.92,1.52-1.93,1.64c-0.55,0.06-1.09,0.12-1.81,0.21
		c0.27,0.36,0.49,0.61,0.66,0.89c0.33,0.54,0.75,1.06,0.94,1.65c0.52,1.68-2.85,5.02-4.49,4.56c-0.59-0.17-1.12-0.58-1.66-0.91
		c-0.29-0.18-0.55-0.42-0.93-0.71c-0.09,0.71-0.16,1.27-0.22,1.84c-0.12,1.05-0.69,1.69-1.71,1.97c-1.25,0.35-2.49,0.35-3.75,0.03
		c-1.07-0.27-1.69-0.91-1.82-2.02c-0.06-0.56-0.13-1.12-0.22-1.83c-0.52,0.41-0.91,0.72-1.3,1.03c-1.03,0.81-1.81,0.87-2.94,0.2
		c-1.05-0.62-1.89-1.47-2.5-2.53c-0.59-1.02-0.53-1.84,0.19-2.77c0.33-0.43,0.67-0.85,1.1-1.38c-0.7-0.08-1.24-0.15-1.78-0.21
		c-1.09-0.12-1.73-0.66-2.04-1.72c-0.35-1.22-0.37-2.45-0.05-3.69c0.31-1.2,0.93-1.76,2.17-1.91
		C14.96,21.83,15.47,21.79,16.17,21.72z M34.49,18.73c-0.31-0.41-0.59-0.85-0.94-1.21c-1.07-1.12-1.25-1.14-2.41-0.13
		c-0.75,0.65-1.54,0.97-2.5,0.59c-0.99-0.4-1.34-1.21-1.41-2.22c-0.1-1.48-0.25-1.61-1.75-1.61c-0.29,0-0.57,0.08-0.86,0.09
		c-0.63,0.02-0.91,0.33-0.88,0.97c0.01,0.29-0.05,0.57-0.07,0.86c-0.07,0.93-0.53,1.59-1.4,1.93c-0.85,0.33-1.58,0.09-2.3-0.44
		c-0.46-0.34-0.78-1.15-1.49-0.82c-0.54,0.25-0.96,0.76-1.42,1.18c-0.14,0.13-0.23,0.32-0.35,0.48c-0.21,0.29-0.23,0.54,0.03,0.83
		c0.33,0.36,0.65,0.74,0.92,1.14c0.94,1.35,0.12,3.18-1.51,3.39c-0.2,0.03-0.4,0.04-0.6,0.07c-1.37,0.16-1.45,0.25-1.49,1.66
		c0,0.11-0.01,0.22,0.01,0.33c0.23,1.62,0.04,1.4,1.56,1.52c1.01,0.08,1.84,0.38,2.25,1.37c0.39,0.94,0.12,1.76-0.54,2.51
		c-1.04,1.2-1.01,1.4,0.17,2.51c0.19,0.18,0.41,0.33,0.62,0.5c0.39,0.32,0.75,0.39,1.15-0.03c0.3-0.32,0.66-0.59,1.03-0.84
		c1.32-0.88,3.07-0.12,3.33,1.45c0.04,0.26,0.07,0.53,0.1,0.79c0.1,1.25,0.15,1.3,1.43,1.36c0.11,0.01,0.22,0.01,0.33,0.01
		c1.55,0,1.62-0.07,1.74-1.6c0.11-1.38,0.76-2.17,1.93-2.35c0.8-0.13,1.41,0.24,1.99,0.73c1.15,0.99,1.28,0.98,2.37-0.1
		c0.06-0.06,0.12-0.13,0.18-0.19c0.91-1,0.91-1.06,0.06-2.08c-0.07-0.09-0.14-0.17-0.21-0.26c-0.64-0.7-0.85-1.51-0.49-2.4
		c0.37-0.93,1.13-1.32,2.09-1.38c1.62-0.11,1.77-0.27,1.71-1.91c0-0.13-0.02-0.27-0.03-0.4c-0.1-1.09-0.1-1.09-1.16-1.19
		c-0.29-0.03-0.57-0.06-0.86-0.1c-1.66-0.2-2.48-2.06-1.51-3.42c0.28-0.4,0.62-0.76,0.92-1.14C34.32,19.05,34.38,18.91,34.49,18.73z
		"/>
	<path class="st0" d="M53.98,38.71c-2.62,0-5.24,0-7.86,0c-0.22,0-0.45,0.01-0.66-0.03c-0.51-0.07-0.79-0.4-0.82-0.9
		c-0.03-0.5,0.2-0.87,0.7-1c0.25-0.07,0.53-0.07,0.79-0.07c5.24,0,10.48,0,15.72,0c0.26,0,0.54,0.01,0.79,0.08
		c0.49,0.14,0.74,0.5,0.7,1c-0.04,0.49-0.32,0.82-0.83,0.9c-0.22,0.03-0.44,0.02-0.66,0.02C59.22,38.71,56.6,38.71,53.98,38.71z"/>
	<path class="st0" d="M54.02,49.68c-2.64,0-5.28,0-7.93,0c-0.26,0-0.61,0.06-0.78-0.08c-0.29-0.24-0.65-0.62-0.65-0.94
		c0.01-0.31,0.39-0.67,0.69-0.91c0.15-0.13,0.47-0.07,0.71-0.07c5.26,0,10.52,0,15.79,0c0.2,0,0.4,0,0.6,0.03
		c0.57,0.08,0.88,0.44,0.88,0.99c-0.01,0.53-0.32,0.86-0.85,0.95c-0.22,0.04-0.44,0.03-0.66,0.03
		C59.22,49.68,56.62,49.68,54.02,49.68z"/>
	<path class="st0" d="M53.95,53.17c2.73,0,5.46,0.01,8.19,0c0.54,0,0.96,0.16,1.15,0.7c0.18,0.52-0.13,1.09-0.7,1.23
		c-0.25,0.06-0.53,0.07-0.79,0.07c-5.22,0-10.44,0-15.65,0c-0.11,0-0.22,0-0.33,0c-0.77-0.03-1.21-0.42-1.19-1.05
		c0.02-0.6,0.44-0.95,1.2-0.95C48.53,53.17,51.24,53.17,53.95,53.17z"/>
	<path class="st0" d="M53.94,44.19c-2.6,0-5.2,0-7.79,0c-0.24,0-0.49,0.01-0.73-0.04c-0.51-0.09-0.77-0.43-0.79-0.93
		c-0.01-0.5,0.23-0.86,0.73-0.97c0.26-0.06,0.53-0.06,0.79-0.06c5.22,0,10.43,0,15.65,0c1.03,0,1.51,0.31,1.53,0.98
		c0.02,0.69-0.48,1.02-1.54,1.02C59.18,44.19,56.56,44.19,53.94,44.19z"/>
	<path class="st0" d="M25.9,53.17c2.69,0,5.37,0,8.06,0c0.86,0,1.28,0.34,1.28,1c-0.01,0.65-0.44,1-1.3,1c-5.37,0-10.75,0-16.12,0
		c-0.04,0-0.09,0-0.13,0c-0.74-0.04-1.15-0.41-1.14-1.02c0.01-0.62,0.42-0.97,1.17-0.97C20.43,53.16,23.16,53.17,25.9,53.17z"/>
	<path class="st0" d="M25.88,49.68c-2.62,0-5.24,0-7.86,0c-0.22,0-0.45,0.01-0.66-0.03c-0.53-0.1-0.83-0.42-0.82-0.97
		c0-0.54,0.29-0.87,0.82-0.96c0.22-0.04,0.44-0.03,0.66-0.03c5.24,0,10.48,0,15.72,0c0.22,0,0.45,0,0.66,0.03
		c0.53,0.09,0.82,0.42,0.82,0.96c0,0.54-0.29,0.87-0.82,0.97c-0.22,0.04-0.44,0.03-0.66,0.03C31.12,49.68,28.5,49.68,25.88,49.68z"
		/>
	<path class="st2" d="M25.47,30.57c-2.78,0-5.06-2.27-5.04-5.04c0.02-2.74,2.28-5,5.03-5c2.77,0,5.06,2.29,5.04,5.05
		C30.47,28.34,28.23,30.57,25.47,30.57z M25.46,28.57c1.67,0,3.02-1.33,3.03-2.99c0.01-1.64-1.35-3.03-2.99-3.04
		c-1.67-0.02-3.07,1.37-3.07,3.04C22.44,27.22,23.8,28.57,25.46,28.57z"/>
</g>
</svg>
