<?xml version="1.0" encoding="utf-8"?>
<!-- Generator: Adobe Illustrator 24.0.0, SVG Export Plug-In . SVG Version: 6.00 Build 0)  -->
<svg version="1.1" id="Capa_1" xmlns="http://www.w3.org/2000/svg" xmlns:xlink="http://www.w3.org/1999/xlink" x="0px" y="0px"
	 viewBox="0 0 200 200" style="enable-background:new 0 0 200 200;" xml:space="preserve">
<style type="text/css">
	.st0{fill:#ACAEAF;}
	.st1{fill:#FE9900;}
	.st2{fill:#1C3247;}
</style>
<g>
	<path class="st0" d="M104.3,101.5c-2.3,0-4.6,0-6.9,0C99.7,101.6,102,101.5,104.3,101.5c1.6,0,3.1,0,4.7,0
		C107.4,101.6,105.9,101.5,104.3,101.5z"/>
	<path class="st0" d="M97.6,67.4c-7.2,0-14.5,0-21.7,0c-7.2,0-14.3,0-21.5,0c7.2,0,14.3,0,21.5,0C83.1,67.4,90.4,67.4,97.6,67.4z"/>
	<path class="st0" d="M128.3,143.8c0-0.6,0-1.2-0.1-1.7c-0.2-1.1-1-1.7-2.1-1.7c-1.1,0-1.9,0.5-2.2,1.6c-0.2,0.6-0.2,1.2-0.2,1.8
		c0,6.8,0,13.6,0,20.4c0,2.8-0.6,3.4-3.5,3.4c-29.6,0-59.2,0-88.8,0c-2.8,0-3.4-0.7-3.4-3.5c0-40.2,0-80.4,0-120.5
		c0-3,0.6-3.6,3.6-3.6c29.5,0,59,0,88.5,0c3,0,3.6,0.6,3.6,3.6c0,13.4,0,26.8,0,40.2c0,0.7,0,1.4,0.2,2c0.3,1.1,1.1,1.6,2.2,1.5
		c1.1-0.1,1.8-0.6,2-1.6c0.1-0.5,0.1-1.1,0.1-1.6c0-13.6,0-27.2,0-40.8c0-0.9,0-1.8-0.3-2.6c-0.8-3.2-3.5-5.1-7.2-5.1
		c-16.2,0-32.5,0-48.7,0c-13.7,0-27.3,0-41,0c-2.5,0-4.6,0.7-6.1,2.7c-0.6,0.9-1,1.9-1.5,2.9c0,41.8,0,83.7,0,125.5
		c0.8,2.9,2.7,4.8,5.6,5.6c31.2,0,62.5,0,93.7,0c4.3-1.4,5.6-4.6,5.5-8.9C128.2,156.8,128.4,150.3,128.3,143.8z"/>
	<path class="st1" d="M178.3,54.6c2.7-5.8,2.2-9.2-1.4-11.4c-1.5-0.9-3.2-1.1-4.9-0.8c-2.9,0.6-4.3,2.8-5.5,5.1
		c-2.3-0.2-2.6,0-3.7,1.9c-1.7,2.9-3.5,5.9-5.2,8.9c-1.7-0.8-3.6-2.7-5-0.2c-1.4,2.5,1.3,3.1,2.7,4.2c-0.2,0.4-0.5,0.8-0.7,1.2
		c-6,10.4-12,20.7-17.9,31.1c-0.5,0.8-0.8,1.7-1.2,2.5c-2.2,5.4-3.8,11.1-6.8,16.2c-1.1,2-0.9,4.1,0.1,6.2c0.2,0.3,0.3,0.9,0.1,1.2
		c-1.5,1.9-3.1,3.8-4.7,5.8c-0.6-1.5-1.1-2.8-1.8-4.1c-1.6-2.8-5.3-3.1-7.4-0.6c-0.4,0.5-0.7,1-1.2,1.7c-0.3-3-0.4-5.8-0.7-8.6
		c-0.3-2.6-1.9-4.3-4-4.5c-2.3-0.2-4.2,1-5,3.5c-1.8,5.3-3.5,10.5-5.3,15.8c-0.6,1.8-0.1,3,1.4,3.5c1.3,0.4,2.3-0.2,2.9-2
		c1.3-4,2.7-8,4-12c0.4-1.2,0.8-2.3,1.2-3.5c0.3,0.5,0.4,1,0.4,1.4c0.3,2.6,0.4,5.1,0.8,7.7c0.3,1.9,1.6,3,3.3,3.4
		c1.8,0.4,3.3-0.1,4.5-1.6c0.4-0.5,0.8-1,1.3-1.7c0.4,1.1,0.8,2,1.2,3c1.6,3.9,5.6,4.5,8.3,1.2c1.5-1.8,2.9-3.7,4.4-5.5
		c0.3-0.3,0.9-0.6,1.3-0.6c3.3,0.3,5.6-1.1,7.4-3.8c1.4-2.2,3-4.4,4.6-6.5c2.2-3,4.9-5.7,6.8-8.9c6.1-10.3,12-20.7,18-31
		c0.2-0.4,0.5-0.8,0.8-1.3c3.6,1.8,3.8,2.5,1.9,5.8c-2.6,4.6-5.3,9.2-7.9,13.7c-0.9,1.6-0.7,2.9,0.5,3.6c1.2,0.7,2.5,0.2,3.4-1.3
		c2.9-5,5.8-9.9,8.6-14.9c2.2-3.9,1.1-7.7-2.7-9.9c-0.5-0.3-1-0.6-1.6-0.9c1.8-3.1,3.4-6,5.2-8.9C179.4,57.2,179.7,55.9,178.3,54.6z
		 M134.9,118.5c-0.7,0-1.7-0.5-2-1.1c-0.9-1.5,0.3-2.7,1.1-4.1c1.3,0.7,2.5,1.4,3.9,2.2C137.1,116.8,136.8,118.5,134.9,118.5z
		 M140.4,111.6c-1.5-0.9-3-1.7-4.5-2.6c1.1-2.9,2.1-5.7,3.2-8.6c2.5,1.4,4.8,2.8,7.2,4.1C144.2,106.9,142.3,109.2,140.4,111.6z
		 M148.9,100.7c-2.7-1.5-5.2-3-7.9-4.6c6.1-10.5,12.1-21,18.2-31.6c2.6,1.5,5.2,3,7.9,4.6C161,79.7,155,90.1,148.9,100.7z
		 M169.4,65.2c-2.6-1.5-5.2-3-7.9-4.5c1.5-2.6,3-5.2,4.6-7.9c2.7,1.5,5.2,3,7.9,4.6C172.4,60,170.9,62.6,169.4,65.2z M174.2,52.2
		c-1.3-0.7-2.6-1.5-4-2.3c0.9-1.3,1.2-3.1,3-3c0.7,0,1.7,0.5,2,1.1C176.3,49.7,175,50.8,174.2,52.2z"/>
	<path class="st0" d="M50.5,53.7c17.9,0,35.9,0,53.8,0c0.6,0,1.2,0,1.7-0.1c1.1-0.2,1.7-0.9,1.8-2c0.1-1.1-0.4-1.9-1.5-2.2
		c-0.6-0.2-1.3-0.2-2-0.2c-14.1,0-28.3,0-42.4,0c-4.9,0-9.9,0-14.8,0c-2.2,0-3,0.8-3,3c0,2.4,0,4.8,0,7.2c0,2.9,0.6,3.5,3.5,3.5
		c18.9,0,37.8,0,56.7,0c0.5,0,1.1,0,1.6-0.1c1.2-0.2,1.8-1,1.8-2.1c0-1.1-0.5-2-1.7-2.2c-0.6-0.1-1.2-0.1-1.9-0.1
		c-17.9,0-35.9,0-53.8,0c-0.6,0-1.1,0-1.7,0c0-1.6,0-3,0-4.6C49.3,53.7,49.9,53.7,50.5,53.7z"/>
	<path class="st0" d="M113.2,83.5c-0.5-0.2-1.1-0.2-1.7-0.2c-16.1,0-32.2,0-48.3,0c-0.6,0-1.3,0-1.8,0.3c-1,0.4-1.4,1.2-1.3,2.2
		c0.1,1.1,0.7,1.7,1.7,2c0.5,0.1,1.1,0.1,1.6,0.1c8,0,15.9,0,23.9,0c8,0,16,0,24,0c0.5,0,1.1,0,1.6-0.1c1-0.2,1.6-0.9,1.8-1.9
		C114.7,84.7,114.3,83.9,113.2,83.5z"/>
	<path class="st0" d="M64.4,101.5c-7.1,0-14.1,0-21.2,0C50.3,101.5,57.3,101.5,64.4,101.5c7.2,0,14.5,0,21.7,0
		C78.9,101.5,71.7,101.5,64.4,101.5z"/>
	<path class="st0" d="M86.1,101.5c0.6,0,1.2,0,1.7-0.1c1.1-0.2,1.7-1,1.7-2.1c0-1.1-0.5-1.9-1.6-2.2C87.4,97,86.8,97,86.1,97
		c-14.4,0-28.7,0-43.1,0c-0.4,0-0.8,0-1.2,0c-1.5,0.2-2.3,1-2.3,2.3c0,1.3,0.9,2.1,2.3,2.3c0.4,0,0.9,0,1.3,0c7.1,0,14.1,0,21.2,0
		C71.7,101.5,78.9,101.5,86.1,101.5z"/>
	<path class="st0" d="M75.9,67.4c-7.2,0-14.3,0-21.5,0c-0.6,0-1.2,0-1.7,0.1c-1.1,0.2-1.7,1-1.7,2.1c0,1.1,0.5,1.9,1.6,2.2
		c0.6,0.2,1.2,0.2,1.8,0.2c14.4,0,28.8,0,43.2,0c2.3,0,3.4-0.7,3.4-2.3c0-1.5-1.1-2.3-3.4-2.3C90.4,67.4,83.1,67.4,75.9,67.4z"/>
	<path class="st0" d="M112.9,97.1c-0.4-0.1-0.8-0.1-1.2-0.1c-4.8,0-9.6,0-14.4,0c-0.5,0-1.1,0-1.6,0.2c-1,0.3-1.5,1.1-1.4,2.2
		c0,1,0.6,1.8,1.6,2.1c0.5,0.1,1.1,0.1,1.6,0.1c2.3,0,4.6,0,6.9,0c1.6,0,3.1,0,4.7,0c1.2,0,2.5,0,3.7-0.1c1.2-0.1,1.9-1,1.9-2.2
		C114.6,98.1,114,97.3,112.9,97.1z"/>
	<g>
		<path class="st2" d="M63.4,107.6c14.4,0,26.2,11.7,26.2,26.1c0,14.5-11.5,26.2-25.9,26.3c-14.6,0.2-26.4-11.5-26.5-26
			C37.1,119.4,48.8,107.7,63.4,107.6z M63.4,111.1c-12.5,0-22.7,10.2-22.7,22.6c0,12.6,10.1,22.9,22.7,22.9
			c12.6,0,22.8-10.2,22.8-22.8C86.1,121.3,75.9,111.1,63.4,111.1z"/>
		<path class="st2" d="M65.1,127.6c0,0.3,0,0.5,0,0.7c0,5.2,0,10.4,0,15.7c0,0.3,0,0.6-0.1,0.8c-0.2,0.8-1,1.4-1.9,1.3
			c-0.8-0.1-1.5-0.8-1.6-1.6c0-0.2,0-0.4,0-0.5c0-5.2,0-10.4,0-15.6c0-0.2,0-0.4,0-0.7c-0.2,0.2-0.3,0.3-0.4,0.4
			c-1.2,1.2-2.4,2.4-3.6,3.6c-0.6,0.6-1.3,0.7-2,0.4c-0.7-0.3-1.1-1-1-1.7c0.1-0.4,0.3-0.8,0.5-1.1c2.3-2.3,4.6-4.6,6.9-6.9
			c0.8-0.8,1.8-0.8,2.6,0c2.3,2.3,4.6,4.6,6.9,6.9c0.7,0.7,0.7,1.8,0,2.5c-0.7,0.7-1.8,0.7-2.5,0c-1.2-1.2-2.3-2.3-3.5-3.5
			C65.5,127.9,65.3,127.8,65.1,127.6z"/>
	</g>
</g>
</svg>
