<?xml version="1.0" encoding="utf-8"?>
<!-- Generator: Adobe Illustrator 24.0.0, SVG Export Plug-In . SVG Version: 6.00 Build 0)  -->
<svg version="1.1" id="Capa_1" xmlns="http://www.w3.org/2000/svg" xmlns:xlink="http://www.w3.org/1999/xlink" x="0px" y="0px"
	 viewBox="0 0 80 80" style="enable-background:new 0 0 80 80;" xml:space="preserve">
<style type="text/css">
	.st0{fill:#FE9900;}
	.st1{fill:#1C3247;}
	.st2{fill:#ACAEAF;}
</style>
<g>
	<path class="st0" d="M76,32.36c-0.24,0.8-0.37,1.66-0.74,2.39c-0.7,1.4-1.4,2.83-2.33,4.07c-2.72,3.63-5.57,7.17-8.35,10.76
		c-0.78,1-1.74,1.62-3.01,1.25c-0.61-0.18-1.26-0.6-1.66-1.1c-3.08-3.88-6.18-7.74-9.12-11.72c-5.41-7.3-1.99-18.17,6.59-21.16
		c8.24-2.88,16.74,1.96,18.5,10.53c0.02,0.11,0.08,0.21,0.12,0.32C76,29.26,76,30.81,76,32.36z M62.19,48.25
		c0.1-0.16,0.14-0.25,0.2-0.32c2.94-3.78,5.96-7.51,8.81-11.36c2.58-3.5,2.95-7.38,1.11-11.31c-1.87-3.97-5.1-6.22-9.51-6.45
		c-4.67-0.25-8.28,1.78-10.48,5.87c-2.22,4.13-1.81,8.22,0.92,12.05c0.89,1.24,1.86,2.43,2.8,3.63
		C58.05,42.95,60.07,45.53,62.19,48.25z"/>
	<path class="st1" d="M38.32,5.24c1.1,0.4,2.29,0.66,3.3,1.23c4.17,2.36,5.4,7.91,2.63,11.8c-1.48,2.08-3.09,4.07-4.69,6.05
		c-1.18,1.46-3.14,1.47-4.32,0.02c-1.56-1.93-3.14-3.86-4.56-5.9c-3.62-5.22-0.87-11.85,5.36-13.09c0.08-0.02,0.16-0.08,0.23-0.12
		C36.95,5.24,37.64,5.24,38.32,5.24z M37.41,22.69c1.62-2.13,3.25-4.16,4.75-6.28c0.9-1.27,1.06-2.78,0.63-4.26
		c-0.69-2.37-2.3-3.81-4.76-4.11c-2.22-0.27-4.06,0.59-5.28,2.47c-1.33,2.04-1.32,4.2,0.07,6.22c1.06,1.54,2.27,2.97,3.41,4.45
		C36.6,21.66,36.98,22.14,37.41,22.69z"/>
	<path class="st2" d="M6,46.87c0.47-7.05,4.25-12.72,11.58-15.83c6.64-2.82,14.98-0.87,19.87,4.47c3.47,3.79,5.17,8.23,4.95,13.36
		c-0.17,4.02-1.64,7.58-4.13,10.74c-3.7,4.7-7.36,9.43-11.04,14.14c-1.71,2.18-4.32,2.18-6.03,0c-0.94-1.2-1.89-2.41-2.82-3.62
		c-0.4-0.51-0.5-1.08-0.16-1.66c0.3-0.49,0.79-0.77,1.33-0.61c0.4,0.12,0.81,0.42,1.09,0.74c0.94,1.12,1.81,2.29,2.71,3.44
		c0.62,0.78,1.1,0.79,1.7,0.03c3.9-5,7.87-9.96,11.68-15.03c6.33-8.41,2.05-20.95-8.07-23.86c-8.19-2.36-16.47,1.92-19.14,10.03
		c-1.62,4.93-0.81,9.6,2.18,13.85c0.77,1.1,1.64,2.14,2.46,3.21c0.39,0.51,0.54,1.06,0.22,1.66c-0.42,0.78-1.5,1-2.09,0.3
		c-1.8-2.12-3.59-4.26-4.72-6.85C6.5,52.94,5.97,50.39,6,46.87z"/>
	<path class="st2" d="M13.71,48.01c-0.03-5.75,4.69-10.48,10.48-10.51c5.75-0.03,10.49,4.7,10.52,10.48
		c0.02,5.75-4.71,10.5-10.48,10.52C18.48,58.52,13.74,53.79,13.71,48.01z M24.19,40.23c-4.28,0.03-7.76,3.54-7.73,7.78
		c0.03,4.27,3.54,7.76,7.79,7.74c4.26-0.03,7.77-3.56,7.73-7.79C31.94,43.69,28.43,40.2,24.19,40.23z"/>
	<path class="st2" d="M44.31,62.87c-0.73-0.02-1.33-0.64-1.32-1.38c0-0.81,1.1-1.75,1.99-1.7c0.73,0.03,1.31,0.67,1.28,1.4
		C46.25,61.97,45.16,62.9,44.31,62.87z"/>
	<path class="st2" d="M39.7,63.05c0.73,0,1.34,0.62,1.35,1.34c0,0.81-1.07,1.74-1.98,1.71c-0.75-0.02-1.3-0.61-1.29-1.38
		C37.78,63.93,38.8,63.05,39.7,63.05z"/>
	<path class="st1" d="M43.58,29.87c0.02,0.74-0.59,1.38-1.32,1.39c-0.77,0.01-1.85-1.03-1.87-1.82c-0.02-0.71,0.61-1.36,1.33-1.38
		C42.53,28.03,43.56,29.05,43.58,29.87z"/>
	<path class="st2" d="M51.5,57.96c-0.03,0.8-1.1,1.7-1.97,1.66c-0.73-0.03-1.33-0.68-1.3-1.41c0.04-0.81,1.09-1.68,1.99-1.65
		C50.98,56.59,51.53,57.18,51.5,57.96z"/>
	<path class="st2" d="M56.74,54.64c-0.01,0.82-1,1.71-1.92,1.71c-0.76,0-1.34-0.57-1.34-1.34c0-0.83,0.97-1.7,1.91-1.7
		C56.16,53.3,56.75,53.89,56.74,54.64z"/>
	<path class="st1" d="M47.49,33.9c0.01,0.71-0.61,1.35-1.34,1.36c-0.77,0.01-1.44-0.64-1.45-1.41c-0.01-0.73,0.59-1.34,1.33-1.36
		C46.79,32.47,47.48,33.14,47.49,33.9z"/>
	<path class="st2" d="M16.49,66.91c-0.73-0.03-1.34-0.69-1.29-1.4c0.05-0.73,0.69-1.31,1.42-1.28c0.73,0.03,1.32,0.68,1.29,1.41
		C17.87,66.37,17.24,66.94,16.49,66.91z"/>
	<path class="st0" d="M62.17,37.87c-4.37,0-7.95-3.57-7.93-7.92c0.02-4.34,3.55-7.87,7.9-7.88c4.37-0.02,7.95,3.52,7.96,7.89
		C70.11,34.31,66.54,37.87,62.17,37.87z M62.14,35.13c2.84,0.02,5.2-2.32,5.21-5.15c0.01-2.8-2.3-5.13-5.12-5.17
		c-2.85-0.04-5.18,2.24-5.24,5.11C56.92,32.72,59.29,35.11,62.14,35.13z"/>
</g>
</svg>
