<?xml version="1.0" encoding="utf-8"?>
<!-- Generator: Adobe Illustrator 24.0.0, SVG Export Plug-In . SVG Version: 6.00 Build 0)  -->
<svg version="1.1" id="Capa_1" xmlns="http://www.w3.org/2000/svg" xmlns:xlink="http://www.w3.org/1999/xlink" x="0px" y="0px"
	 viewBox="0 0 200 200" style="enable-background:new 0 0 200 200;" xml:space="preserve">
<style type="text/css">
	.st0{fill:#ACAEAF;}
	.st1{fill:#1C3247;}
	.st2{fill:#FE9900;}
</style>
<g>
	<path class="st0" d="M64,36.4c16.2,0,32.4,0,48.5,0c2.9,0.7,5.5,1.9,7.6,4.2c3.6,3.9,7.2,7.7,10.9,11.5c2.6,2.7,3.9,5.9,3.9,9.7
		c0,5.5,0,11.1,0,16.6c0,0.5,0,0.9,0,1.4c2.8,0,5.4-0.1,8,0c1.9,0.1,3.9,0.1,5.8,0.6c7.3,1.9,12,8.3,12.1,16.2c0,18.7,0,37.3,0,56
		c0,0.5,0,1-0.1,1.6c-0.4,5.5-2.9,9.9-7.6,12.7c-1.9,1.2-4.3,1.7-6.4,2.5c-13.8,0-27.5,0-41.3,0c-0.2-0.1-0.4-0.2-0.6-0.2
		c-7.1-1.3-12.3-6.5-13.5-13.6c-0.2-1.3-0.2-2.6-0.3-3.8c-0.9,0-1.6,0-2.2,0c-0.7,1.6-1.4,3.1-2.1,4.8c1.9,2.3,2.5,5.1,1,8
		c-1.5,2.9-4.2,3.9-7.4,3.8c-11-0.1-22,0-32.9,0c-1.3,0-2.7,0-4-0.2c-8-1.1-14.5-8-15-15.9c-0.6-8.9,4.5-16.5,12.8-18.8
		c1-0.3,2-0.5,3.1-0.7c-0.4-2.4,0.3-4.5,1.9-6.3c-0.2-0.2-0.3-0.4-0.4-0.6c-1.7-2.3-2.1-4.9-0.8-7.5c1.3-2.6,3.5-4,6.5-4
		c0.8,0,1.5,0,2.4,0c0-0.7,0-1.3,0-1.8c0-20.9,0-41.8,0-62.8c0-0.8,0-1.6,0.1-2.3c0.5-5.2,3.3-8.7,8.1-10.6
		C62.4,36.8,63.2,36.7,64,36.4z M113.3,40.6c-0.6,0-1,0-1.4,0c-15.1,0-30.3,0-45.4,0c-5.4,0-8.7,3.3-8.7,8.8c0,21.3,0,42.5,0,63.8
		c0,0.5,0,0.9,0.1,1.5c0.6,0,1.1,0,1.7,0c7.3,0,14.6,0,21.9,0c3.5,0,6.2,2.4,6.9,5.9c0.4,2.4-0.3,4.3-1.8,6.1c2.6,3.8,2.6,5.9,0,10
		c2.6,3.5,2.6,5.8,0,10c1.2,1.9,3,0.8,4.6,1.1c0-0.7,0-1.2,0-1.8c0-16.4,0-32.8,0-49.1c0-1.4,0.1-2.9,0.4-4.2
		c1.7-7.5,8.2-12.6,16.2-12.6c7.2,0,14.4,0,21.5,0c0.5,0,1,0,1.4-0.1c0-7,0-13.9,0-20.8c-4.6,0-8.9,0-13.3,0c-3.8,0-3.9-0.2-3.9-4
		C113.3,50.3,113.3,45.6,113.3,40.6z M156.8,124.7c0-9.2,0-18.4,0-27.6c0-1.1,0-2.2-0.2-3.2c-1.2-6.1-6.2-10-12.7-10
		c-12,0-24,0-35.9,0c-7.8,0-13,5.3-13,13.1c0,18.6,0,37.2,0,55.8c0,0.8,0,1.6,0.1,2.3c1.1,6.4,6,10.6,12.6,10.6
		c11.9,0,23.9-0.1,35.8,0.1c7.6,0.1,13.6-5.6,13.4-13.4C156.6,143.1,156.8,133.9,156.8,124.7z M53.1,136.8c-7.6,0-13.9,6.2-14,13.8
		c0,7.7,6.2,14,13.8,14c7.7,0,13.9-6.1,14-13.9C66.9,143.2,60.6,136.8,53.1,136.8z M66.1,124.6c5,0,9.9,0,14.9,0
		c1.8,0,3.1-1.2,3.1-2.8c0-1.7-1.2-2.9-3.1-2.9c-9.9,0-19.9,0-29.8,0c-0.4,0-0.9,0-1.3,0.2c-1.3,0.5-2.1,1.8-1.8,3.2
		c0.2,1.4,1.4,2.3,3,2.3C56.1,124.6,61.1,124.6,66.1,124.6z M66.2,128.8c-5,0-9.9,0-14.9,0c-1.7,0-2.9,0.9-3.2,2.3
		c-0.3,1.5,0,1.9,1.5,1.9c3.6-0.1,7.1,0,10.4,1.5c0.4,0.2,0.9,0.1,1.3,0.1c4.3,0,8.6,0,12.8,0c2.4,0,4.8,0,7.1,0
		c1.9-0.1,3.2-1.8,2.7-3.6c-0.4-1.4-1.4-2.1-3.2-2.1C76,128.7,71.1,128.8,66.2,128.8z M64.9,164.3c5.5,0,11.1,0,16.6,0
		c1.6,0,2.7-1.5,2.6-3c-0.1-1.5-1.2-2.7-2.9-2.7c-3.8,0-7.7,0-11.5,0c-0.4,0-0.8,0.2-1,0.5C67.4,160.8,66.2,162.5,64.9,164.3z
		 M66.4,138.7c1.1,1.8,2,3.5,3,5.2c0.2,0.3,0.7,0.6,1.1,0.6c3.5,0,7.1,0,10.6,0c1.8,0,3-1.2,3-2.8c0-1.6-1.2-2.8-3-2.9
		c-1.3-0.1-2.6,0-3.9,0C73.6,138.7,70,138.7,66.4,138.7z M70.5,154.4c1.8,0,3.4,0,5.1,0c1.9,0,3.7,0,5.6,0c1.7-0.1,2.9-1.3,3-2.8
		c0-1.6-1.1-2.8-2.9-2.9c-0.9-0.1-1.9,0-2.8,0c-2.5,0-5.1,0-7.6,0C70.7,150.6,70.6,152.4,70.5,154.4z M117.5,44c0,3.8,0,7.3,0,10.9
		c3.4,0,6.7,0,10.3,0C124.3,51.1,121,47.6,117.5,44z M32.4,153.1c0,2.9,0.9,3.7,3.6,3C35.4,152.8,35.4,152.8,32.4,153.1z
		 M32.1,148.9c3.1,0.5,3.7-0.1,3.4-2.9C32.5,145.9,32.7,145.4,32.1,148.9z M40.2,138.2c-0.1-0.1-0.1-0.2-0.2-0.3
		c-1.6,1.2-3.2,2.5-4.9,3.7c0.1,0.2,0.2,0.4,0.3,0.6c0.8-0.2,1.8-0.1,2.3-0.6C38.7,140.6,39.4,139.3,40.2,138.2z M35.7,160.4
		c1.6,1.1,3,2.1,4.4,3c0.1-0.1,0.2-0.2,0.2-0.3C38.8,162.3,38.7,159.6,35.7,160.4z"/>
	<path class="st1" d="M79.6,83.1c1.3,0.4,2.5,0.7,3.7,1.2c1.2,0.6,1.5,1.5,1,2.5c-0.5,1-1.3,1.3-2.6,0.6c-1.6-0.8-3.3-1-5-0.6
		c-1.2,0.3-2,0.9-2.2,2.2c-0.2,1.4,0.2,2.5,1.4,3.2c1.3,0.7,2.7,1.2,4.1,1.7c2.5,1,4.5,2.5,5,5.3c0.8,4.3-0.7,8-4.7,9.2
		c-0.3,0.1-0.5,0.6-0.6,1c-0.2,0.6-0.1,1.4-0.5,1.7c-0.5,0.4-1.4,0.8-1.9,0.6c-0.6-0.3-1.2-1.2-1.3-1.8c-0.1-1-0.5-1.3-1.3-1.6
		c-1.2-0.5-2.4-1.2-3.4-2c-0.5-0.3-0.9-1.1-0.8-1.7c0.1-0.7,0.6-1.4,1.1-1.8c0.3-0.2,1.3,0.1,1.6,0.5c1.4,1.6,3.1,2.2,5.2,1.9
		c1.5-0.2,2.6-0.8,3.1-2.3c0.5-1.8,0-3.6-1.3-4.6c-0.9-0.6-2-1-3-1.5c-0.9-0.4-1.9-0.8-2.8-1.3c-2.6-1.3-3.6-3.5-3.4-6.3
		c0.2-2.7,1.6-4.6,4.1-5.4c0.7-0.2,0.9-0.6,0.9-1.3c0-0.4-0.1-0.9,0.1-1.1c0.5-0.5,1-1.2,1.7-1.3c0.9-0.2,1.6,0.4,1.8,1.3
		C79.5,81.9,79.5,82.5,79.6,83.1z"/>
	<path class="st2" d="M101.2,76.9c-5.2,0-10.5,0-15.7,0c-0.4,0-0.9,0-1.3-0.1c-1-0.2-1.6-0.9-1.6-1.9c0-1,0.5-1.7,1.6-1.9
		c0.4-0.1,0.9-0.1,1.3-0.1c10.5,0,21,0,31.5,0c0.3,0,0.7,0,1,0c1.1,0.1,1.9,0.9,1.8,2c0,1-0.8,1.8-1.9,1.9c-0.4,0-0.8,0-1.2,0
		C111.6,76.9,106.4,76.9,101.2,76.9z"/>
	<path class="st2" d="M87.7,63.2c5.5,0,11.1,0,16.6,0c0.4,0,0.8,0,1.2,0.1c1,0.2,1.6,0.9,1.6,1.9c0,1.1-0.7,1.7-1.8,1.9
		c-0.2,0-0.4,0-0.6,0c-11.3,0-22.5,0-33.8,0c-1.5,0-2.4-0.8-2.4-2c0-1.2,0.9-1.9,2.4-1.9C76.5,63.2,82.1,63.2,87.7,63.2z"/>
	<path class="st2" d="M73.6,73c1,0,2,0,3,0c1.3,0.1,2,0.8,2,1.9c0,1.1-0.7,1.9-2,1.9c-2,0.1-4.1,0.1-6.1,0c-1.2,0-2-0.9-2-1.9
		c0-1.1,0.8-1.8,2-1.9c0.1,0,0.2,0,0.3,0C71.7,73,72.7,73,73.6,73C73.6,73,73.6,73,73.6,73z"/>
	<path class="st2" d="M115.5,67.1c-0.9,0-1.7,0-2.6,0c-1.1-0.1-1.9-0.9-1.9-1.9c0-1,0.8-1.9,1.9-2c1.7-0.1,3.4-0.1,5.1,0
		c1.1,0,1.9,0.9,1.9,1.9c0,1.1-0.8,1.9-2,2C117.1,67.2,116.3,67.1,115.5,67.1z"/>
	<path class="st0" d="M125.8,88.3c5.9,0,11.8,0,17.7,0c4.8,0,7.4,2.6,7.4,7.4c0,2,0,4,0,6c-0.1,4.3-2.8,7-7,7c-6.8,0-13.6,0-20.4,0
		c-1.1,0-2.1-0.3-2.4-1.5c-0.3-1.2,0.5-2.3,1.9-2.4c1.9-0.1,3.8,0,5.7,0c5,0,10,0,14.9,0c2.4,0,3.4-0.9,3.4-3.4c0-2,0-4,0-6
		c0-2.2-0.9-3.1-3.1-3.1c-12,0-24.1,0-36.1,0c-2.1,0-3,1-3,3c0,2.1,0,4.2,0,6.4c0,2.1,1,3.1,3.1,3.1c2.1,0,4.2,0,6.2,0
		c1.4,0,2.3,0.7,2.3,1.9c0,1.2-0.9,2-2.3,2c-2.2,0-4.5,0.1-6.7,0c-3.7-0.1-6.4-2.9-6.5-6.6c0-2.3,0-4.6,0-6.9c0-4.2,2.7-6.9,7-6.9
		C113.8,88.3,119.8,88.3,125.8,88.3z"/>
	<path class="st0" d="M58,144.7c0,1.5-1.3,2.3-2.6,1.9c-0.7-0.2-1.3-0.5-2-0.5c-0.5,0-1,0.5-1.5,0.7c0.3,0.4,0.6,0.9,1,1.2
		c0.6,0.4,1.3,0.6,2,0.9c2,0.8,3.3,2.3,3.4,4.5c0.1,2.3-0.5,4.3-2.8,5.4c-0.3,0.1-0.5,0.5-0.6,0.8c-0.3,0.9-0.9,1.5-1.9,1.5
		c-1,0-1.6-0.5-2-1.4c-0.2-0.4-0.6-0.7-0.9-1c-0.7-0.6-1.6-1.1-2.2-1.9c-0.6-0.9-0.3-1.9,0.5-2.5c0.8-0.7,1.6-0.5,2.4,0.2
		c0.6,0.5,1.3,0.8,2,0.9c0.4,0.1,1.4-0.5,1.4-0.8c0.1-0.6-0.2-1.5-0.6-1.9c-0.8-0.6-1.9-0.8-2.8-1.3c-2.5-1.2-3.4-3.3-2.6-5.9
		c0.2-0.6,0.5-1.2,0.9-1.6c0.9-0.9,1.9-1.6,2.5-2.9c0.5-1.3,2.7-1,3.2,0.4c0.3,0.8,0.7,1,1.4,1.3C57.1,143,57.9,143.7,58,144.7z"/>
	<g>
		<path class="st0" d="M133.3,150.6c0,1,0,2.1,0,3.1c0,1.1,0,2.2,0,3.2c0-1.1,0-2.2,0-3.2C133.3,152.7,133.3,151.7,133.3,150.6z"/>
		<path class="st0" d="M100.8,153.8c0-0.9,0-1.8,0-2.6C100.8,152,100.8,152.9,100.8,153.8c0,1.1,0,2.2,0,3.4
			C100.8,156,100.8,154.9,100.8,153.8z"/>
		<path class="st0" d="M114.1,104.8c-2.1,0-4.2,0-6.2,0c-2.1,0-3.1-1-3.1-3.1c0-2.1,0-4.2,0-6.4c0-2.1,1-3,3-3c12,0,24.1,0,36.1,0
			c2.1,0,3,1,3.1,3.1c0,2,0,4,0,6c0,2.5-0.9,3.4-3.4,3.4c-5,0-10,0-14.9,0c-1.9,0-3.8,0-5.7,0c-1.4,0-2.2,1.1-1.9,2.4
			c0.3,1.2,1.3,1.5,2.4,1.5c6.8,0,13.6,0,20.4,0c4.2,0,7-2.7,7-7c0-2,0-4,0-6c0-4.8-2.6-7.4-7.4-7.4c-5.9,0-11.8,0-17.7,0
			c-6,0-12,0-18,0c-4.3,0-6.9,2.7-7,6.9c0,2.3,0,4.6,0,6.9c0.1,3.7,2.8,6.5,6.5,6.6c2.2,0.1,4.5,0,6.7,0c1.5,0,2.4-0.8,2.3-2
			C116.4,105.5,115.5,104.8,114.1,104.8z"/>
		<path class="st0" d="M100.8,137c0-1.1,0-2.2,0-3.4C100.8,134.8,100.8,135.9,100.8,137c0,1.1,0,2.2,0,3.4
			C100.8,139.3,100.8,138.2,100.8,137z"/>
		<path class="st0" d="M151,134.8c0-2.9-1.9-4.9-4.8-5.2c-1.8-0.1-3.6-0.1-5.3,0c-2.8,0.2-4.7,2.3-4.8,5.2c0,6.9,0,13.8,0,20.7
			c0,3.2,2.4,5.6,5.6,5.7c1,0,2.1,0,3.1,0c3.9,0,6.1-2.3,6.2-6.1c0-3.3,0-6.6,0-9.9c0,0,0,0,0,0C151,141.8,151.1,138.3,151,134.8z
			 M147.1,145.4c0,3.2,0,6.3,0,9.5c0,1.9-0.5,2.4-2.5,2.4c-0.8,0-1.6,0-2.3,0c-1.6,0-2.2-0.6-2.2-2.2c0-6.6,0-13.2,0-19.9
			c0-1.2,0.5-1.7,1.7-1.7c1.2,0,2.4,0,3.6,0c1.2,0,1.7,0.5,1.7,1.7C147.1,138.6,147.1,142,147.1,145.4z"/>
		<path class="st0" d="M133.3,137.1c0,1,0,2.1,0,3.1C133.3,139.2,133.3,138.1,133.3,137.1c0-0.5,0-1,0-1.6
			C133.3,136.1,133.3,136.6,133.3,137.1z"/>
		<path class="st0" d="M133.3,137.1c0-0.5,0-1,0-1.6c0-0.5,0-1,0-1.6c-0.1-2.5-1.5-4.2-4.1-4.3c-2.3-0.1-4.6-0.1-6.9,0
			c-2.3,0.1-3.8,1.7-3.9,4c-0.1,2.3-0.1,4.5,0,6.8c0.1,2.4,1.7,4,4.2,4.1c2.2,0.1,4.3,0.1,6.5,0c2.5-0.1,4.2-1.8,4.2-4.3
			C133.3,139.2,133.3,138.1,133.3,137.1z M129.3,139.7c0,0.3-0.5,0.9-0.7,0.9c-2,0.1-4,0-6.2,0c0-2.4,0-4.7,0-7.1c2.1,0,4.1,0,6.1,0
			c0.7,0,0.9,0.3,0.9,1C129.4,136.3,129.4,138,129.3,139.7z"/>
		<path class="st0" d="M133.3,153.7c0-1,0-2.1,0-3.1c-0.1-2.5-1.6-4.2-4.1-4.3c-2.2-0.1-4.5-0.1-6.7,0c-2.4,0.1-4,1.6-4.1,4
			c-0.1,2.3-0.1,4.6,0,6.9c0.1,2.3,1.8,3.9,4.1,4c2.2,0.1,4.4,0.1,6.6,0c2.4-0.1,4.1-1.8,4.2-4.2
			C133.3,155.9,133.3,154.8,133.3,153.7z M129.3,156.6c0,0.2-0.4,0.7-0.6,0.7c-2.1,0-4.2,0-6.4,0c0-2.4,0-4.6,0-7c2.3,0,4.6,0,7,0
			C129.4,152.5,129.4,154.5,129.3,156.6z"/>
		<path class="st0" d="M112.1,146.4c-2.5-0.1-5.1-0.1-7.6,0c-2.1,0.1-3.5,1.8-3.6,3.9c0,0.3,0,0.6,0,0.9c0,0.9,0,1.8,0,2.6
			c0,1.1,0,2.2,0,3.4c0.1,2.2,1.7,4,3.9,4c2.3,0.1,4.7,0.1,7,0c2.2-0.1,3.9-1.8,3.9-4c0-2.3,0-4.6,0-6.9
			C115.6,148.2,114.2,146.5,112.1,146.4z M111.7,156.6c0,0.3-0.4,0.7-0.7,0.7c-2.1,0.1-4.1,0-6.3,0c0-2.4,0-4.6,0-7
			c2.3,0,4.5,0,6.9,0C111.8,152.4,111.8,154.5,111.7,156.6z"/>
		<path class="st0" d="M112.3,129.8c-2.7-0.2-5.3-0.2-8,0c-2,0.1-3.4,1.9-3.4,3.9c0,1.1,0,2.2,0,3.4c0,1.1,0,2.2,0,3.4
			c0.1,2.3,1.7,4,4,4.1c2.3,0.1,4.6,0.1,6.9,0c2.3-0.1,4-1.8,4-4c0.1-2.3,0.1-4.7,0-7C115.6,131.6,114.2,129.9,112.3,129.8z
			 M111.7,140.6c-2.3,0-4.6,0-6.9,0c0-2.3,0-4.5,0-6.9c2.3,0,4.5,0,6.9,0C111.7,135.9,111.7,138.2,111.7,140.6z"/>
		<path class="st0" d="M125.8,127c-0.8,0-1.7,0-2.5,0C124.1,127,125,127,125.8,127c1.1,0,2.3,0,3.4,0C128.1,127,126.9,127,125.8,127
			z"/>
		<path class="st0" d="M129.2,112.1c-2.3-0.1-4.6-0.1-6.9,0c-2.1,0.1-3.8,1.6-3.9,3.8c-0.1,2.4-0.1,4.9,0,7.3c0.1,2.2,1.7,3.7,4,3.8
			c0.3,0,0.6,0,0.8,0c0.8,0,1.7,0,2.5,0c1.1,0,2.3,0,3.4,0c2.4-0.1,4-1.7,4.1-4c0.1-2.3,0.1-4.6,0-6.9
			C133.2,113.8,131.5,112.2,129.2,112.1z M129.3,123c-2.3,0-4.5,0-6.9,0c0-2.3,0-4.5,0-6.9c2.3,0,4.5,0,6.9,0
			C129.3,118.4,129.3,120.6,129.3,123z"/>
		<path class="st0" d="M141.9,127c0.6,0,1.2,0,1.8,0c0.6,0,1.1,0,1.7,0c-0.6,0-1.1,0-1.7,0C143.1,127,142.5,127,141.9,127z"/>
		<path class="st0" d="M140.2,127c0.6,0,1.2,0,1.8,0c0.6,0,1.2,0,1.8,0c0.6,0,1.1,0,1.7,0c0.6,0,1.1,0,1.7,0c2.3-0.1,3.9-1.7,4-4
			c0.1-2.3,0.1-4.6,0-6.9c-0.1-2.3-1.7-3.9-4-4c-2.3-0.1-4.6-0.1-6.9,0c-2.2,0.1-3.9,1.8-4,4c-0.1,2.3-0.1,4.6,0,6.9
			C136.3,125.2,137.9,126.9,140.2,127z M140.2,116.1c2.3,0,4.5,0,6.9,0c0,2.3,0,4.5,0,6.9c-2.2,0-4.5,0-6.9,0
			C140.2,120.6,140.2,118.4,140.2,116.1z"/>
		<path class="st0" d="M100.8,123c0-1.2,0-2.3,0-3.5c0-1.1,0-2.2,0-3.3c0,1.1,0,2.2,0,3.3C100.8,120.7,100.8,121.8,100.8,123z"/>
		<path class="st0" d="M100.8,119.5c0,1.2,0,2.3,0,3.5c0.1,2.2,1.6,3.9,3.8,4c2.4,0.1,4.8,0.1,7.1,0c2.2-0.1,3.8-1.8,3.9-3.9
			c0-2.3,0-4.6,0-6.9c0-2.2-1.7-3.9-4-4c-2.3-0.1-4.6-0.1-6.9,0c-2.3,0.1-3.9,1.8-4,4.1C100.8,117.3,100.8,118.4,100.8,119.5z
			 M104.8,116.1c2.3,0,4.5,0,6.8,0c0,2.3,0,4.6,0,6.9c-2.2,0-4.5,0-6.8,0C104.8,120.7,104.8,118.4,104.8,116.1z"/>
		<path class="st0" d="M147.1,145.4c0,3.2,0,6.3,0,9.5C147.1,151.7,147.1,148.6,147.1,145.4c0-3.4,0-6.7,0-10.1
			C147.1,138.6,147.1,142,147.1,145.4z"/>
	</g>
</g>
</svg>
