<?xml version="1.0" encoding="utf-8"?>
<!-- Generator: Adobe Illustrator 24.0.0, SVG Export Plug-In . SVG Version: 6.00 Build 0)  -->
<svg version="1.1" id="Capa_1" xmlns="http://www.w3.org/2000/svg" xmlns:xlink="http://www.w3.org/1999/xlink" x="0px" y="0px"
	 viewBox="0 0 80 80" style="enable-background:new 0 0 80 80;" xml:space="preserve">
<style type="text/css">
	.st0{fill:#ACAEAF;}
	.st1{fill:#1C3247;}
	.st2{fill:#FE9900;}
</style>
<g>
	<path class="st0" d="M40.65,8.59c0.77,0.3,1.61,0.5,2.31,0.93c2.08,1.27,3.44,4.19,1.98,7.33c0.21,0.09,0.41,0.18,0.63,0.26
		c6.75,2.42,11.25,8.73,11.29,15.89c0.02,2.81,0.01,5.61,0.01,8.42c0,3.52,0.88,6.74,3.28,9.44c3.15,3.54,4.28,7.77,4.25,12.4
		c-0.01,1.34-0.76,2.11-2.09,2.11c-4.71,0-9.42,0-14.13,0c-0.23,0-0.45,0-0.67,0c-0.38,5.41-4.68,7.76-8.04,7.53
		c-3.65-0.25-6.94-3.1-7.12-7.53c-0.21,0-0.43,0-0.65,0c-4.69,0-9.38,0-14.07,0c-1.5,0-2.23-0.74-2.21-2.25
		c0.05-3.32,0.49-6.56,2.25-9.46c0.61-1,1.28-1.97,2.05-2.85c2.31-2.68,3.2-5.82,3.22-9.28c0.01-2.74,0.01-5.49,0.01-8.23
		c0.01-7.53,4.49-13.82,11.6-16.31c0.1-0.03,0.19-0.08,0.33-0.14c-0.5-1.12-0.76-2.26-0.55-3.47c0.43-2.43,2.07-4.14,4.47-4.68
		c0.12-0.03,0.24-0.08,0.35-0.12C39.65,8.59,40.15,8.59,40.65,8.59z M19.26,61.58c13.78,0,27.5,0,41.4,0
		c-0.25-1.26-0.43-2.47-0.74-3.65c-0.54-2.06-1.87-3.67-3.17-5.28c-2.2-2.71-3.38-5.83-3.52-9.28c-0.14-3.32-0.08-6.65-0.15-9.98
		c-0.02-0.94-0.09-1.88-0.25-2.81c-1.22-6.89-8.21-11.75-15.06-10.51c-6.58,1.19-11.05,6.56-11.06,13.26c0,2.78,0.03,5.57-0.02,8.35
		c-0.04,2.35-0.38,4.66-1.23,6.88c-0.77,1.98-2.02,3.65-3.35,5.27C20.27,56.07,19.36,58.63,19.26,61.58z M36.18,65.41
		c-0.12,1.95,1.63,3.72,3.68,3.74c2.08,0.02,3.84-1.72,3.76-3.74C41.14,65.41,38.66,65.41,36.18,65.41z M39.88,16.13
		c1.01,0.01,1.88-0.84,1.9-1.85c0.02-1.02-0.82-1.89-1.84-1.91c-1.04-0.03-1.93,0.84-1.93,1.88C38.02,15.26,38.87,16.12,39.88,16.13
		z"/>
	<path class="st1" d="M15.43,32.36c0.54-8.84,4.47-15.69,12.05-20.37c1.03-0.63,2.18-0.37,2.73,0.56c0.56,0.94,0.24,2.04-0.82,2.67
		c-4.54,2.74-7.63,6.63-9.26,11.67c-0.65,2-0.95,4.06-0.97,6.17c-0.01,1.03-0.76,1.81-1.73,1.89c-0.94,0.08-1.83-0.59-1.99-1.55
		C15.38,33.08,15.43,32.72,15.43,32.36z"/>
	<path class="st2" d="M64.38,32.35c0,0.33,0.04,0.67-0.01,1c-0.14,0.98-1.03,1.69-1.99,1.62c-1-0.08-1.74-0.87-1.75-1.95
		c-0.03-2.8-0.57-5.48-1.68-8.05c-1.8-4.16-4.65-7.41-8.54-9.74c-0.82-0.49-1.21-1.23-1.07-2.03c0.14-0.79,0.72-1.45,1.54-1.52
		c0.46-0.04,1.02,0.07,1.42,0.31c6.18,3.73,10.06,9.13,11.58,16.18c0.29,1.36,0.4,2.77,0.59,4.15
		C64.44,32.34,64.41,32.35,64.38,32.35z"/>
</g>
</svg>
