<?xml version="1.0" encoding="utf-8"?>
<!-- Generator: Adobe Illustrator 24.0.0, SVG Export Plug-In . SVG Version: 6.00 Build 0)  -->
<svg version="1.1" id="Capa_1" xmlns="http://www.w3.org/2000/svg" xmlns:xlink="http://www.w3.org/1999/xlink" x="0px" y="0px"
	 viewBox="0 0 200 200" style="enable-background:new 0 0 200 200;" xml:space="preserve">
<style type="text/css">
	.st0{fill:#ACAEAF;}
	.st1{fill:#1C3247;}
	.st2{fill:#FE9900;}
</style>
<g>
	<path class="st0" d="M118.2,6.1c0.3,0.1,0.5,0.3,0.8,0.3c6.2,1.6,10,6.5,10.1,12.9c0,5.4,0,10.8,0,16.3c0,26.9,0,53.9,0,80.8
		c0,0.7,0,1.4,0,2.4c0.8,0,1.5,0,2.2,0c12.4,0,24.7,0,37.1,0c7.9,0,14,4.6,15.6,11.9c0.3,1.5,0.4,3,0.4,4.5c0,13.9,0,27.8,0,41.7
		c0,10-6.4,16.3-16.4,16.3c-9.1,0-18.2,0-27.2,0c-0.4,0-0.7,0-1.1,0c-2.2-0.1-3.8-1.6-3.8-3.6c0-2.1,1.5-3.6,3.7-3.7
		c2.6-0.1,5.2,0,7.9,0c7,0,14,0,21,0c5.2,0,8.5-3.2,8.5-8.4c0-14.3,0-28.6,0-42.9c0-5.3-3.3-8.5-8.8-8.5c-19.6,0-39.1,0-58.7,0
		c-4.4,0-5.2-0.8-5.5-5.1c-0.5-7.4-3.1-13.7-9.8-17.7c-0.5-0.3-1.1-0.5-1.8-0.9c0,0.9-0.1,1.5-0.1,2.2c0,5.6,0,11.2,0,16.8
		c0,3.6-1.2,4.7-4.7,4.7c-2.4,0-4.9,0-7.3,0c-5,0.1-8.4,3.4-8.4,8.4c0,14.4,0,28.8,0,43.1c0,5.1,3.3,8.3,8.4,8.3
		c8.9,0,17.8,0,26.7,0c3.1,0,4.9,2.6,3.8,5.1c-0.6,1.4-1.8,2.2-3.3,2.2c-9.6,0-19.1,0.2-28.7-0.1C71.3,193,65,186.5,64.8,179
		c-0.2-10.1-0.1-20.2-0.1-30.3c0-0.7,0-1.4,0-2.4c-0.8,0-1.4-0.1-2.1-0.1c-9.4,0-18.8-0.2-28.1,0.1c-7.9,0.2-14.5-5.9-14-14.1
		c0.2-2.8,0-5.7,0-8.5c-4.8-0.8-5.9-1.5-5.9-3.9c0-2.3,1.1-3.1,5.8-3.9c0-7.1,0-14.2,0-21.5c-2.8-0.1-5.9,0-5.8-4.1
		c0.1-2.2,1.4-2.9,5.7-3.4c0-7.1,0-14.3,0-21.4c-4.5-0.6-5.8-1.5-5.8-3.9c0-2.3,1.1-3,5.8-3.8c0-7.1,0-14.2,0-21.5
		c-2.7-0.1-5.8,0-5.8-4c0-2.3,1.4-3.1,5.9-3.6c0-0.8,0-1.7,0-2.6c0-2.5,0-5,0-7.5c0.1-5.4,3.6-10.1,8.8-11.8
		c0.6-0.2,1.2-0.5,1.8-0.7C60.2,6.1,89.2,6.1,118.2,6.1z M64.7,138.8c0-1.4,0-2.7,0-3.9c0.1-9.6,6.5-16.1,16.2-16.2
		c1.4,0,2.7,0,4.2,0c0-1,0-1.8,0-2.5c0-6,0-12.1,0-18.1c0-3.4,1.8-5,5.2-4.3c2,0.4,4,1,5.9,1.9c8.9,4.4,13.7,11.7,15.1,21.4
		c0.1,0.5,0.5,1.4,0.7,1.4c3.3,0.1,6.5,0.1,9.9,0.1c0-0.9,0-1.5,0-2.1c0-32.1,0-64.2,0-96.3c0-4.8-2.1-6.9-6.9-6.9
		c-26.8,0-53.5,0-80.3,0c-0.5,0-1.1,0-1.6,0c-2.4,0.2-4.8,1.8-5,4.1c-0.3,3.7-0.1,7.5-0.1,11.2c4.1,0.3,5.7,1.3,5.7,3.6
		c0,0.8-0.2,2-0.8,2.3c-1.5,0.9-3.2,1.4-5,2.2c0,6.7,0,13.9,0,21c4.3,0.5,5.7,1.3,5.7,3.5c0,3.9-3,3.9-5.7,4c0,7.3,0,14.4,0,21.5
		c4.2,0.4,5.6,1.3,5.8,3.6c0.1,2.3-1.1,3.2-5.8,4.1c0,7.1,0,14.3,0,21.4c4.4,0.5,5.7,1.3,5.7,3.6c0,3.9-3,3.9-5.7,4
		c-0.1,0.4-0.1,0.6-0.1,0.7c0,2.8,0,5.6,0,8.4c0,4,2.2,6.2,6.2,6.2c7.2,0,14.4,0,21.6,0C58.6,138.8,61.5,138.8,64.7,138.8z"/>
	<path class="st1" d="M112.8,152.7c0,5.9,0,11.3,0,16.7c0,2.4-1.8,3.8-4,3.2c-1.5-0.4-2.2-1.6-2.2-3c0-9,0-17.9,0-26.9
		c0-1.5,0.8-2.6,2.3-3c1.5-0.4,2.7,0.2,3.6,1.5c3.8,5.6,7.7,11.1,11.5,16.7c0.4,0.5,0.8,1,1.5,2c0-1.1,0-1.7,0-2.3
		c-0.1-4.8-0.2-9.6-0.2-14.4c0-2.3,1.2-3.7,3.2-3.6c1.9,0,3,1.3,3,3.6c0.1,8.4,0.2,16.8,0.3,25.2c0,2.2-0.9,3.5-2.5,4
		c-1.9,0.5-3.1-0.5-4.1-1.9c-3.6-5.3-7.3-10.5-10.9-15.8C113.9,154,113.5,153.6,112.8,152.7z"/>
	<path class="st1" d="M161.3,159.2c-1.3,0-2.5,0-3.8,0c-2.3-0.1-3.7-1.3-3.6-3.2c0-1.9,1.3-3,3.6-3c2.5,0,5,0,7.5,0
		c1.7,0,2.8,0.8,3.1,2.5c1.4,7.7-4.7,15.9-12.4,16.9c-9.1,1.2-17.1-4.6-18.6-13.6c-1.5-8.8,4-17,12.9-19c4.3-1,8.3-0.4,12.1,2
		c2,1.2,2.6,2.9,1.6,4.6c-1,1.6-2.7,1.9-4.8,0.8c-4.7-2.6-9.9-1.8-13.3,2c-3.2,3.6-3.5,9.2-0.5,13c2.6,3.4,6.1,4.8,10.3,4
		C158.6,165.6,161.2,162.6,161.3,159.2z"/>
	<path class="st1" d="M89.4,145.7c0,2.4,0,4.7,0,7.2c2.4,0,4.8-0.1,7.2,0c2.3,0.1,3.6,1.9,2.9,4c-0.5,1.7-1.8,2.2-3.4,2.2
		c-2.2,0-4.4,0-6.7,0c0,2.4,0,4.6,0,7.1c2.5,0,5,0,7.5,0c1.5,0,2.8,0.4,3.4,1.9c0.8,1.9-0.3,4.1-2.4,4.2c-4,0.1-8,0.1-12.1,0
		c-1.8,0-2.7-1.4-2.7-3.6c0-7.2,0-14.4,0-21.6c0-1.5,0-2.9,0-4.4c0.1-2.1,1.2-3.3,3.3-3.3c3.6,0,7.2,0,10.8,0c2,0,3.4,1.3,3.4,3.1
		c0,1.9-1.3,3.1-3.5,3.1C94.6,145.8,92.1,145.7,89.4,145.7z"/>
	<path class="st0" d="M123.9,186c2,0,3.6,1.6,3.6,3.6c0,2.1-1.6,3.7-3.7,3.7c-2,0-3.5-1.6-3.5-3.7C120.3,187.6,121.9,186,123.9,186z
		"/>
	<path class="st2" d="M77.1,30.6c8.8,0,17.7,0,26.5,0c3.1,0,4.4,1.3,4.4,4.3c0,9.9,0,19.9,0,29.8c0,2.9-1.4,4.3-4.3,4.3
		c-17.9,0-35.7,0-53.6,0c-2.8,0-4.2-1.4-4.2-4.2c0-10,0-20,0-30c0-2.9,1.4-4.2,4.3-4.2C59.2,30.6,68.2,30.6,77.1,30.6z M53.4,61.5
		c15.9,0,31.5,0,47.2,0c0-7.9,0-15.7,0-23.5c-15.8,0-31.5,0-47.2,0C53.4,45.8,53.4,53.6,53.4,61.5z"/>
	<path class="st2" d="M76.7,53.4c-4.1,0-8.1,0-12.2,0c-2.4,0-3.9-1.5-3.9-3.6c0-2.1,1.5-3.6,4-3.6c3-0.1,6,0,8.9,0
		c5,0,10.1,0,15.1,0c2.4,0,3.8,1,4.1,2.8c0.5,2.5-1,4.4-3.7,4.4C84.8,53.4,80.8,53.4,76.7,53.4C76.7,53.4,76.7,53.4,76.7,53.4z"/>
</g>
</svg>
