<?xml version="1.0" encoding="utf-8"?>
<!-- Generator: Adobe Illustrator 24.0.0, SVG Export Plug-In . SVG Version: 6.00 Build 0)  -->
<svg version="1.1" id="Capa_1" xmlns="http://www.w3.org/2000/svg" xmlns:xlink="http://www.w3.org/1999/xlink" x="0px" y="0px"
	 viewBox="0 0 200 200" style="enable-background:new 0 0 200 200;" xml:space="preserve">
<style type="text/css">
	.st0{fill:#ACAEAF;}
	.st1{fill:#FE9900;}
	.st2{fill:#1C3247;}
</style>
<g>
	<path class="st0" d="M60.4,177.1c0.7,0,1.3,0,1.9,0c25,0,50,0,74.8,0c1.3,0,2.2-0.3,3.2-1.3c3.3-3.4,6.6-6.7,10-10
		c1-0.9,1.3-1.9,1.3-3.2c-0.1-2.7,0-5.5,0-8.3c1.9,0,3.6,0,5.7,0c0,2.2,0,4.3,0,6.5c-0.1,7.5,1,5-4.3,10.3c-3.3,3.4-6.7,6.7-10,10.2
		c-1,1.1-2.2,1.6-3.7,1.6c-26.8,0-53.8,0-80.7,0c-2.9,0-3.9-0.9-3.9-3.9c0-24.7,0-49.2,0-73.9c0-0.7,0-1.4,0-1.9
		c-1.7-0.4-3.3-0.6-4.6-1.3c-2.2-1-3.3-2.9-3.4-5.3c-0.1-1.3-0.6-1.7-1.7-2.2c-1.6-0.6-3.2-1.3-4.7-2c-1-0.4-1.7-0.6-2.7,0.3
		c-3,2.4-6.6,2.2-9.3-0.6c-1.9-1.9-3.7-3.7-5.6-5.6c-2.7-2.7-2.9-6.3-0.6-9.3c0.7-0.9,0.9-1.6,0.3-2.6c-0.4-0.7-0.9-1.6-1.1-2.4
		c-0.7-2.6-1.7-4.3-4.7-4.7c-2.7-0.4-4.3-3.3-4.4-6.2c0-2.7,0-5.5,0-8.2c0-3.7,2.4-6.5,6-7c1.3-0.1,1.9-0.7,2.2-1.9
		c0.6-1.6,1.3-3.2,2-4.7c0.4-1,0.4-1.7-0.3-2.6c-2.4-3.2-2.2-6.6,0.4-9.3c1.9-1.9,3.7-3.9,5.7-5.7c2.7-2.6,6.3-2.9,9.2-0.6
		c1,0.7,1.7,0.9,2.7,0.3c1.7-0.9,3.4-1.3,5-2.2c0.6-0.3,1.3-1.1,1.3-1.7c0.7-4,3.3-6.3,7.3-6.5c2.6,0,5.2,0,7.6,0
		c3.9,0,6.6,2.3,7,6.2c0.1,1.3,0.6,1.9,1.7,2.2c0.7,0.1,1.4,0.4,2,0.7c2.4,1.3,4.4,2.2,7.2,0.1c2.2-1.6,5-0.9,7.2,1.1
		c2.2,2,4.2,4,6.2,6.2c2.4,2.6,2.6,6.2,0.4,8.9c-0.7,1-0.9,1.7-0.3,2.9c0.7,1.6,1.3,3.3,2.2,4.9c0.3,0.6,0.9,1.3,1.3,1.4
		c5.2,1.3,6.6,2.9,6.9,8.2c0.7,0,1.3,0,2,0c15.9,0,31.9,0,47.8,0c3.6,0,4.3,0.7,4.3,4.3c0,13.2,0,26.3,0,39.5c0,0.6,0,1.1,0,1.9
		c-1.9,0-3.7,0-5.6,0c0-13.2,0-26.4,0-39.8c-30.4,0-60.7,0-91.2,0C60.4,99,60.4,137.9,60.4,177.1z M97.2,54.2
		c0.3-1.7-0.1-2.3-1.7-2.4c-2.7-0.3-4.6-1.7-5.6-4.3c-0.7-1.9-1.4-3.7-2.3-5.6c-1.3-2.9-1.3-5.6,0.7-8c0.9-1,0.7-1.7-0.3-2.6
		c-1.6-1.6-3.2-3-4.6-4.7c-1-1-1.7-1.1-2.9-0.1c-2.3,1.9-4.9,2-7.5,0.7c-1.9-0.9-3.7-1.6-5.6-2.3c-2.7-1-4.4-3-4.6-6
		c-0.1-1.3-0.7-1.7-2-1.7c-2.3,0-4.4,0-6.7,0c-1.3,0-1.9,0.4-2,1.9c-0.3,2.7-1.7,4.7-4.4,5.7c-1.9,0.7-3.9,1.6-5.7,2.4
		c-2.7,1.3-5.3,1.1-7.6-0.9c-1-0.9-1.9-0.7-2.7,0.3c-1.6,1.6-3,3.2-4.6,4.7c-1,0.9-1.1,1.7-0.1,2.7c1.9,2.3,2,5,0.9,7.8
		c-0.9,1.9-1.6,3.7-2.3,5.6c-1,2.7-3,4.3-5.9,4.6c-1.4,0.1-1.9,0.7-1.7,2c0,2.3,0,4.6,0,6.7c0,1.3,0.4,1.9,1.7,2
		c3,0.3,4.9,1.9,5.9,4.7c0.7,1.7,1.4,3.6,2.2,5.3c1.3,2.9,1.3,5.6-0.7,8c-0.9,1-0.7,1.7,0.3,2.6c1.6,1.6,3.2,3,4.6,4.7
		c1,1,1.7,1.1,2.9,0.1c2.3-1.9,4.7-2,7.3-0.9c2,0.9,4,1.7,6,2.6c2.6,1,4,2.9,4.3,5.6c0.1,1.7,1,2,2.4,1.7c0-4.9,0-9.6,0-14.2
		c-15.4-2.3-23.3-15.2-22.7-26.8c0.4-11.8,9.5-22.1,21.1-24.1c6-1,11.9-0.1,17.2,3C77.9,39.4,82,46,83.3,54.5
		C87.8,54.2,92.5,54.2,97.2,54.2z M77,54.2c-0.7-8.3-8.8-17.9-21.2-17.1C45,37.9,36.8,47.3,37.5,58.5C38,67.7,46.7,77,54.6,76.6
		c0-6,0-12.1,0-18.2c0-3.4,0.7-4.2,4.2-4.2C64.8,54.2,70.8,54.2,77,54.2z"/>
	<path class="st1" d="M97.1,91.4c-6.9-8.3-7.2-16.4-0.6-22.1c5.7-5.2,14.4-4.7,19.8,0.7c4.6,4.7,6.5,14.1-1.6,21.4c1.1,0,2.2,0,3,0
		c6,0.1,11.1,5,11.1,11.1c0.1,9.5,0,19.1,0,28.6c0,2.2-1.1,3.3-3.3,3.3c-13.1,0-26,0-39,0c-2.2,0-3.3-1.1-3.3-3.3
		c0-9.5,0-18.8,0-28.3c0-6.3,5-11.2,11.3-11.3C95.2,91.4,96.1,91.4,97.1,91.4z M123.1,128.4c0-8.5,0-16.8,0-25c0-4-2.3-6.3-6.3-6.3
		c-7.2,0-14.4,0-21.5,0c-4.2,0-6.3,2.3-6.3,6.5c0,7.8,0,15.5,0,23.3c0,0.6,0,1.1,0.1,1.7C100.3,128.4,111.6,128.4,123.1,128.4z
		 M114.5,79.9c0-4.7-3.9-8.5-8.5-8.5c-4.7,0-8.6,3.9-8.6,8.6c0,4.6,3.9,8.5,8.5,8.5C110.6,88.5,114.5,84.7,114.5,79.9z"/>
	<path class="st0" d="M172.5,97.9c4-0.3,8.5,4.3,9.8,7.2c1.6,3.4,0.7,6.9-2.4,10c-9.6,9.6-19.2,19.4-28.9,28.9
		c-0.9,0.9-2,1.4-3.2,1.7c-3.7,1-7.6,1.9-11.5,2.7c-2.9,0.7-4.6-1-3.9-3.9c0.9-4,1.9-8.2,2.9-12.2c0.1-0.9,0.7-1.6,1.3-2.3
		c9.8-9.9,19.7-19.7,29.4-29.6C167.7,98.7,169.9,97.9,172.5,97.9z M169.9,116.4c-1.9-1.9-3.9-3.9-5.6-5.6
		c-6.6,6.6-13.2,13.2-19.7,19.7c1.9,1.9,3.7,3.9,5.6,5.6C156.7,129.6,163.4,123,169.9,116.4z M174.5,112.2c1.3-1.3,3.4-2.4,2.6-4.4
		c-0.7-1.7-2.4-3.3-4-4c-2-0.9-3.2,1.3-4.4,2.6C170.5,108.2,172.3,110.2,174.5,112.2z M145.5,140.4c-1.7-1.7-3.3-3.3-5-5
		c-0.4,2.2-1,4.2-1.4,6.6C141.3,141.4,143.3,140.8,145.5,140.4z"/>
	<path class="st2" d="M118.8,148.4c1.7,1.6,3,2.7,4.6,4.3c-1,0.9-2,1.4-2.7,2.3c-5,4.9-9.9,9.9-14.9,14.9c-2,2-3.3,2-5.5,0
		c-2.4-2.4-4.9-4.9-7.2-7.2c1.4-1.4,2.6-2.6,4-3.9c1.7,1.9,3.6,3.9,5.6,5.9C108.3,159,113.6,153.7,118.8,148.4z"/>
</g>
</svg>
