<?xml version="1.0" encoding="utf-8"?>
<!-- Generator: Adobe Illustrator 24.0.0, SVG Export Plug-In . SVG Version: 6.00 Build 0)  -->
<svg version="1.1" id="Capa_1" xmlns="http://www.w3.org/2000/svg" xmlns:xlink="http://www.w3.org/1999/xlink" x="0px" y="0px"
	 viewBox="0 0 200 200" style="enable-background:new 0 0 200 200;" xml:space="preserve">
<style type="text/css">
	.st0{fill:#ACAEAF;}
	.st1{fill:#FE9900;}
	.st2{fill:#1C3247;}
</style>
<g>
	<path class="st0" d="M180.2,58.4c0,7.2,0,14.4,0,21.6c-0.7,1.5-1.3,3.2-2.2,4.7c0.7,1.5,1.3,3,2.2,4.3c0,7.4,0,14.7,0,21.9
		c-0.7,1.5-1.5,3-2,4.3c0.7,1.7,1.3,3.2,2,4.7c0,7.2,0,14.4,0,21.6c-0.7,1.5-1.3,3-2.2,4.5c0.7,1.5,1.3,3,2.2,4.5
		c0,7.2,0,14.4,0,21.6c-1.2,4.2-3.7,6.7-7.9,7.9c-42.3,0-84.4,0-126.7,0c-0.2-0.2-0.3-0.2-0.5-0.3c-7-1.5-11.9-6.3-12.9-13.5
		c-0.2-1.8,0-3.7,0-5.7c-1.2,0-1.8,0-2.7,0c-3.8-0.2-6.9-1.8-8.7-5.2c-0.5-1-0.8-2.2-1.3-3.3c0-1.2,0-2.3,0-3.5
		c0.2-0.5,0.5-1,0.7-1.5c1.3-3.8,4.8-6.3,8.9-6.5c1,0,2,0,3,0c0-4.7,0-9.2,0-13.9c-0.8,0-1.7,0-2.3,0c-3.8-0.2-6.9-1.8-8.7-5.2
		c-0.5-1-0.8-2.2-1.3-3.3c0-1.2,0-2.3,0-3.5c0.2-0.2,0.2-0.3,0.3-0.5c1.5-4.8,5-7.7,10.2-7.7c0.7,0,1.3,0,2,0c0-2.5,0-4.7,0-6.9
		c0-2.3,0-4.5,0-6.5c-2.2-0.3-4.3-0.5-6.2-1c-3.5-0.7-5.2-3.5-6.3-6.9c0-1.3,0-2.5,0-3.8c0.2-0.5,0.5-1,0.7-1.5
		c1.3-3.8,4.8-6.3,8.9-6.5c1,0,2,0,3,0c0-4.7,0-9.2,0-13.9c-0.8,0-1.7,0-2.3,0c-3.8-0.2-6.9-1.8-8.7-5.2c-0.5-1-0.8-2.2-1.3-3.3
		c0-1.2,0-2.3,0-3.5c0.2-0.5,0.5-1,0.7-1.5c1.3-3.8,4.8-6.3,8.9-6.5c1,0,2,0,2.8,0c0.2-0.2,0.2-0.3,0.2-0.3c0-1.2,0-2.3,0-3.5
		c0.2-5.8,2.8-10.5,8-13.4c1.7-1,3.7-1.3,5.5-2c42.3,0,84.4,0,126.7,0c4.2,1,6.7,3.7,7.9,7.9c0,7.2,0,14.4,0,21.6
		c-0.7,1.5-1.5,3-2.2,4.5C178.8,55.3,179.5,56.8,180.2,58.4z M38.6,73.1c1.7,0,3,0,4.5,0c6,0,10.5,4.3,10.5,10s-4.5,9.9-10.5,10
		c-1.5,0-3,0-4.5,0c0,4.7,0,9.2,0,13.9c1.7,0,3.2,0,4.8,0c5.7,0,10,4.5,10,10c0,5.5-4.3,10-10,10c-1.7,0-3.2,0-4.8,0
		c0,4.7,0,9.2,0,13.9c1.5,0,3,0,4.5,0c1.2,0,2.3,0.2,3.3,0.5c4.7,1.3,7.7,6,7,10.7c-0.7,5-4.7,8.7-9.7,8.9c-1.7,0-3.5,0-5.3,0
		c0,1,0,1.7,0,2.3c-0.5,6.5,4.3,10.9,10.7,10.9c31.7-0.2,63.7,0,95.4,0c6.7,0,10.5-3.8,10.5-10.5c0-42.3,0-84.7,0-127
		c0-6.5-3.8-10.4-10.4-10.4c-31.9,0-63.8,0-95.7,0c-6.3,0-11.9,4.5-10.2,13.2c1.3,0,2.8,0,4.2,0c1.2,0,2.5,0.2,3.7,0.5
		c4.5,1.5,7.5,6,6.9,10.7c-0.7,5-4.7,8.7-9.7,8.9c-1.7,0-3.5,0-5.2,0C38.6,63.9,38.6,68.5,38.6,73.1z M161.5,50.6c3.3,0,6.3,0,9.5,0
		c1.8,0,3-1.3,3-3.2c0-6,0-11.9,0-17.9c0-2.2-1.3-3.3-3.5-3.3c-3.5,0-7,0-10.7,0c-0.5,0-0.8,0-1.5,0.2c2.8,3.7,3.2,7.9,3.2,12
		C161.3,42.4,161.5,46.4,161.5,50.6z M158.3,173.9c4.5,0,8.5,0,12.5,0c1.8,0,3.2-1.3,3.2-3.2c0-6.2,0-12.2,0-18.4
		c0-1.5-0.8-2.8-2.3-2.8c-3.3-0.2-6.7,0-10.2,0c0,3.8,0,7.5,0,11.2C161.5,165.4,161.3,169.9,158.3,173.9z M161.5,56.9
		c0,8.4,0,16.4,0,24.6c3.2,0,6.2,0,9.2,0c2,0,3.2-1.3,3.2-3.3c0-6,0-12,0-18c0-1.8-1.2-3.2-3-3.2C167.8,56.9,164.6,56.9,161.5,56.9z
		 M161.5,143.1c3.3,0,6.5,0.2,9.7,0c1.7,0,2.7-1.3,2.7-3c0-6.2,0-12.4,0-18.4c0-1.5-1-2.8-2.5-3c-3.3-0.2-6.7,0-9.9,0
		C161.5,126.9,161.5,135,161.5,143.1z M161.5,87.8c0,8.2,0,16.4,0,24.6c3.2,0,6.3,0,9.5,0c1.7,0,2.8-1.3,3-3c0-6.2,0-12.2,0-18.4
		c0-1.8-1.2-3-3-3C167.8,87.7,164.6,87.8,161.5,87.8z M36.6,53.1c2.2,0,4.3,0,6.3,0c2.5,0,4.2-1.7,4.2-3.8c0-2.2-1.7-3.7-4.2-3.7
		c-4.3,0-8.7,0-13,0c-2.5,0-4.2,1.5-4.2,3.7c0,2.2,1.7,3.7,4.2,3.8C32.3,53.1,34.5,53.1,36.6,53.1z M36.6,86.8c2.2,0,4.5,0,6.7,0
		c2.3,0,4-1.7,4-3.8c0-2.2-1.7-3.7-4-3.7c-4.3,0-8.9,0-13.2,0c-2.3,0-4,1.5-4,3.7c0,2.2,1.7,3.8,4,3.8
		C32.3,86.8,34.5,86.8,36.6,86.8z M36.6,113.2c-2.2,0-4.3,0-6.5,0c-2.3,0-4,1.5-4,3.7c0,2.2,1.7,3.8,4,3.8c4.3,0,8.7,0,13.2,0
		c2.5,0,4.2-1.7,4.2-3.8s-1.7-3.7-4.2-3.7C41,113.2,38.8,113.2,36.6,113.2z M36.8,147c-2.2,0-4.3,0-6.5,0c-2.5,0-4.2,1.5-4.2,3.8
		c0,2.2,1.7,3.7,4.2,3.7c4.3,0,8.7,0,13,0c2.5,0,4.2-1.5,4.2-3.7s-1.7-3.7-4.2-3.8C41.2,147,39,147,36.8,147z"/>
	<path class="st1" d="M123,124.4c1.5-11.2-8.9-22.2-19.9-21.2c0,1.5,0,3,0,4.5c0,2.2-1.2,3.5-3,3.5c-2,0-3.2-1.3-3.2-3.7
		c0-1.5,0-2.8,0-4.3c-10-1-21.4,8.5-19.9,21.1c3,0,5.8,0,8.9,0c1.7,0,3,1.2,3.2,2.7s-0.7,3.3-2.2,3.3c-4.7,0.2-9.5,0.2-14.2,0
		c-0.7,0-2-1.5-2-2.3c-0.5-7.4,0.2-14.4,4.8-20.6c3-4,6.9-7,11.7-8.9c0.3-0.2,0.8-0.3,1.3-0.5c-4.2-4.7-4.7-10.2-3.8-15.9
		c1.2-7.4,7.9-12.9,15.4-12.9c7.5,0,14.2,5.5,15.4,12.9c0.8,5.7,0.3,11.2-3.7,15.9c0.5,0.2,0.8,0.3,1.2,0.5
		c9.9,3.8,16.5,13,16.7,23.7c0,1.7,0,3.3,0,5c0,2.2-1.2,3.5-3.3,3.5c-3.8,0-7.9,0-11.7,0c-1.8,0-3.3-1.3-3.3-3
		c0-1.8,1.3-3.2,3.3-3.2C117.2,124.4,120,124.4,123,124.4z M90.6,86.2c0,0.3,0,0.8,0,1.2c0,5,3.8,9,8.7,9.4c4.8,0.3,9.2-3,10-8
		c0.2-1.5,0.2-3.2,0-4.7c-0.5-5.7-5.8-9.5-11.4-8.4C93.3,77,90.6,80.7,90.6,86.2z"/>
	<path class="st2" d="M100,130.8c-1.7,0-3.2-1.5-3.2-3.2c0-1.7,1.5-3,3.2-3s3.2,1.5,3.2,3.2C103.1,129.4,101.6,130.8,100,130.8z"/>
</g>
</svg>
