<?xml version="1.0" encoding="utf-8"?>
<!-- Generator: Adobe Illustrator 24.0.0, SVG Export Plug-In . SVG Version: 6.00 Build 0)  -->
<svg version="1.1" id="Capa_1" xmlns="http://www.w3.org/2000/svg" xmlns:xlink="http://www.w3.org/1999/xlink" x="0px" y="0px"
	 viewBox="0 0 200 200" style="enable-background:new 0 0 200 200;" xml:space="preserve">
<style type="text/css">
	.st0{fill:#ACAEAF;}
	.st1{fill:#FE9900;}
	.st2{fill:#1C3247;}
</style>
<g>
	<path class="st0" d="M81.1,8.1c3.7,0.8,7.3,1.7,10.5,3.9c7.4,4.9,11.3,11.6,11.8,20.4c0.2,2.4,0,4.7,0,7.3c0.7,0,1.3,0,2,0
		c7.1,0,14.2,0,21.4,0c1.7,0,3,0.5,4.4,1.9c12,12,23.9,23.9,35.9,35.9c1.2,1.2,1.9,2.5,1.9,4.4c0,31.7,0,63.2,0,94.9
		c0,9.1-6.1,15.3-15.3,15.3c-35.7,0-71.5,0-107.1,0c-7.4,0-12.8-3.9-14.7-10.6c-0.3-1.5-0.5-3-0.5-4.6c0-40.6,0-81.1,0-121.7
		c0-9.1,6.1-15.2,15.2-15.2c2.2,0,4.6,0,7.1,0c0-2.2,0-4.4,0-6.6c0.2-12.1,8.3-21.9,20.1-24.6c0.7-0.2,1.5-0.3,2.2-0.5
		C77.4,8.1,79.3,8.1,81.1,8.1z M103.4,46.8c0,0.8,0,1.5,0,2.2c0,5.9,0,11.8,0,17.7C103.2,76,95.1,83.9,86,84.1
		c-10.3,0.3-18.5-7.8-18.7-18.2c0-5.7,0-11.3,0-17c0-0.7,0-1.2,0-2c-7.1,0-14,0-20.9,0c-5.4,0-8.3,2.9-8.3,8.3
		c0,40.5,0,80.9,0,121.4c0,5.4,2.9,8.3,8.3,8.3c35.6,0,71.3,0,106.9,0c5.4,0,8.3-2.9,8.3-8.3c0-30,0-60.2,0-90.2c0-0.7,0-1.2,0-1.9
		c-0.3,0-0.5-0.2-0.7-0.2c-6.7,0-13.3,0-20.1,0c-10.3,0-16.7-6.4-16.7-16.7c0-6.2,0-12.5,0-18.7c0-0.7,0-1.2,0-2c-1,0-1.7,0-2.4,0
		C115.9,46.8,109.8,46.8,103.4,46.8z M67.1,39.6c0-2.2,0-4.2,0-6.2c0.2-7.9,7.3-13.2,14.5-10.8c4.6,1.5,7.4,5.6,7.4,11.1
		c0,10.3,0,20.7,0,31c0,0.7,0,1.2-0.2,1.9c-0.3,1.7-1.9,2.7-3.5,2.7c-1.7,0-3-1.2-3.4-2.7c-0.2-0.8-0.2-1.7-0.2-2.5
		c0-10.1,0-20.1,0-30.2c0-2.9-1.3-4.6-3.7-4.6c-2.4,0-3.9,1.7-3.9,4.4c0,10.8,0,21.6,0,32.4c0,4.9,2.9,8.9,7.1,10.5
		C88.7,79.2,96,74,96,66.1c0-10.5,0-21.1,0-31.5c0-2.4-0.3-4.7-1-6.9c-3-9.9-15.3-15-24.6-10.3s-11.1,13.2-9.9,22.4
		C62.8,39.6,65,39.6,67.1,39.6z M131.6,52.4c0,0.2-0.2,0.3-0.2,0.3c0,5.2,0,10.5,0,15.7c0,5.2,3.4,8.6,8.6,8.6c4.9,0,9.8,0,14.7,0
		c0.5,0,0.8,0,1.3-0.2C147.9,68.6,139.8,60.5,131.6,52.4z"/>
	<path class="st1" d="M109.3,102.8c-8.8,0-17.7,0-26.5,0c-0.7,0-1.5,0-2.2-0.2c-1.5-0.3-2.7-1.9-2.7-3.4c0-1.5,1.2-3,2.7-3.4
		c0.7-0.2,1.3-0.2,2-0.2c17.9,0,35.7,0,53.6,0c0.8,0,1.5,0,2.4,0.3c1.5,0.5,2.4,1.7,2.2,3.4c0,1.7-0.8,2.7-2.4,3.2
		c-0.8,0.3-1.7,0.3-2.5,0.3C127.2,102.8,118.2,102.8,109.3,102.8z"/>
	<path class="st1" d="M109.6,121.6c8.8,0,17.5,0,26.3,0c0.7,0,1.3,0,2,0.2c1.9,0.3,3,1.7,2.9,3.5c0,1.9-1.2,3.2-3,3.5
		c-0.5,0.2-1.2,0.2-1.9,0.2c-17.7,0-35.6,0-53.3,0c-0.2,0-0.3,0-0.5,0c-2.5,0-4.2-1.5-4.2-3.5c0-2.2,1.7-3.5,4.4-3.5
		C91.4,121.6,100.5,121.6,109.6,121.6z"/>
	<path class="st2" d="M109.3,154.6c-8.8,0-17.5,0-26.3,0c-0.7,0-1.2,0-1.9,0c-1.9-0.3-3.2-1.9-3.2-3.5c0-1.7,1.3-3.2,3.2-3.5
		c0.5-0.2,1.2,0,1.9,0c17.7,0,35.2,0,52.9,0c0.8,0,1.5,0,2.4,0.2c1.7,0.3,2.7,1.7,2.7,3.4c0,1.7-1,3-2.7,3.4
		c-0.7,0.2-1.3,0.2-2.2,0.2C127.2,154.6,118.2,154.6,109.3,154.6z"/>
	<path class="st1" d="M62.4,99.1c0-2,1.7-3.5,3.5-3.5c1.9,0,3.5,1.7,3.5,3.7c0,1.9-1.7,3.5-3.5,3.5C63.9,102.8,62.4,101.1,62.4,99.1
		z"/>
	<path class="st1" d="M62.4,125.1c0-2,1.5-3.5,3.5-3.5c1.9,0,3.5,1.7,3.5,3.5c0,1.9-1.7,3.5-3.5,3.5
		C64.1,128.6,62.4,127.1,62.4,125.1z"/>
	<path class="st2" d="M62.4,150.9c0-2,1.7-3.5,3.5-3.5c1.9,0,3.5,1.7,3.5,3.5c0,1.9-1.7,3.5-3.5,3.5
		C63.9,154.4,62.4,152.9,62.4,150.9z"/>
</g>
</svg>
