<?xml version="1.0" encoding="utf-8"?>
<!-- Generator: Adobe Illustrator 24.0.0, SVG Export Plug-In . SVG Version: 6.00 Build 0)  -->
<svg version="1.1" id="Capa_1" xmlns="http://www.w3.org/2000/svg" xmlns:xlink="http://www.w3.org/1999/xlink" x="0px" y="0px"
	 viewBox="0 0 200 200" style="enable-background:new 0 0 200 200;" xml:space="preserve">
<style type="text/css">
	.st0{fill:#ACAEAF;}
	.st1{fill:#FE9900;}
</style>
<g>
	<path class="st0" d="M102.2,24.4c0.9,0.3,1.9,0.5,2.8,0.9c4.2,1.7,6.8,4.7,7.8,9.1c0.2,1,0.6,1.3,1.5,1.6c3.7,1.1,7.4,2.2,11.1,3.5
		c1.9,0.6,2.5,1.9,1.9,3.4c-0.6,1.5-2,1.9-3.8,1.3c-3.6-1.2-7.1-2.4-10.8-3.6c-2.3,5.7-6.1,9-12.1,9c-6,0-9.9-3.2-12.2-8.9
		c-2.5,0.7-5,1.4-7.5,2.1c-1.2,0.4-2.3,0.9-3.4,1.3c-1.7,0.7-3.2,0.2-3.7-1.2c-0.6-1.4,0-2.9,1.8-3.5c3.8-1.3,7.6-2.4,11.4-3.5
		c0.7-0.2,1.1-0.3,1.3-1.1c1.2-5.5,4.6-9,10.1-10.2c0.1,0,0.2-0.1,0.4-0.2C99.8,24.4,101,24.4,102.2,24.4z M93,37.1
		c0.1,4.4,3.4,7.6,7.7,7.5c4.2-0.1,7.3-3.5,7.3-7.9c-0.1-4-3.7-7.4-7.8-7.2C96.2,29.6,92.9,33,93,37.1z"/>
	<path class="st0" d="M98.7,175.6c-1.1-0.4-2.2-0.6-3.2-1.1c-4-1.8-6.4-4.9-7.3-9.2c-0.2-0.8-0.5-1.1-1.3-1.3
		c-3.8-1.1-7.5-2.2-11.2-3.5c-1.9-0.6-2.5-2-1.9-3.5c0.6-1.4,2-1.8,3.9-1.1c3.1,1,6.1,2,9.2,3c0.5,0.2,1,0.2,1.6,0.3
		c2.3-5.5,6.2-8.7,12.2-8.7c5.9,0,9.7,3.3,12.1,9c3.3-1,6.6-2.1,9.9-3.1c0.5-0.1,0.9-0.4,1.4-0.5c1.5-0.5,2.8,0,3.3,1.3
		c0.6,1.3,0,2.8-1.5,3.4c-2.3,0.9-4.6,1.7-6.9,2.5c-1.6,0.5-3.2,0.8-4.8,1.2c-0.4,0.1-1,0.5-1.1,0.9c-1.2,5.8-4.7,9.2-10.5,10.4
		c-0.1,0-0.2,0.1-0.3,0.1C101,175.6,99.8,175.6,98.7,175.6z M93,162.8c-0.1,4.1,3.1,7.6,7.3,7.7c4,0.1,7.6-3.2,7.7-7.1
		c0.2-4.3-3-7.8-7.2-7.9C96.5,155.3,93.2,158.4,93,162.8z"/>
	<path class="st0" d="M175.8,102.4c-0.4,1-0.7,2-1.2,3c-1.8,3.7-4.8,6.1-8.8,6.9c-1,0.2-1.3,0.6-1.6,1.5c-1.1,3.8-2.3,7.6-3.5,11.4
		c-0.4,1.3-1.4,1.9-2.7,1.8c-1.2-0.1-2-0.9-2.1-2.1c-0.1-0.6,0.2-1.3,0.4-2c1.1-3.5,2.3-7.1,3.5-10.7c-6.1-2.5-9.4-6.8-9-13.2
		c0.4-5.5,3.6-9.1,8.9-11.2c-1-3.3-2.1-6.6-3.1-9.9c-0.1-0.4-0.3-0.8-0.5-1.2c-0.6-1.6-0.1-2.9,1.2-3.5c1.4-0.6,2.8,0,3.4,1.6
		c1,2.5,1.8,5.1,2.6,7.6c0.5,1.4,0.3,3.3,1.2,4.3c0.8,1,2.6,1.2,3.9,1.8c3.5,1.6,5.8,4.3,6.9,8c0.1,0.4,0.3,0.7,0.4,1.1
		C175.8,99.2,175.8,100.8,175.8,102.4z M170.9,100c0-4-3.3-7.5-7.1-7.5c-4.5,0-7.9,3.2-7.9,7.5c0,4.3,3.4,7.5,7.9,7.5
		C167.5,107.5,170.9,104,170.9,100z"/>
	<path class="st1" d="M143.2,87.5c0,3.1,0,6.2,0,9.3c0,1.6-0.6,2.5-2,3.2c-5.6,2.7-11.1,5.6-16.7,8.3c-1,0.5-1.4,1-1.4,2.2
		c0.1,5.5,0,10.9,0.1,16.4c0,1.6-0.6,2.6-2,3.3c-6.5,3.2-12.9,6.5-19.4,9.6c-0.7,0.4-2,0.3-2.7-0.1c-6.4-3.1-12.7-6.4-19.1-9.5
		c-1.5-0.7-2.2-1.8-2.1-3.5c0.1-5.5,0-10.9,0-16.4c0-1-0.3-1.6-1.2-2c-5.6-2.8-11.2-5.6-16.9-8.4c-1.5-0.7-2.1-1.7-2.1-3.4
		c0-6.3,0-12.7,0-19c0-1.3,0.5-2.2,1.6-2.7c6.5-3.2,12.9-6.4,19.4-9.7c1.2-0.6,2.3-0.6,3.5,0c5.6,2.9,11.3,5.7,17,8.5
		c1,0.5,1.7,0.5,2.7,0c5.6-2.9,11.3-5.7,17-8.5c1.2-0.6,2.3-0.7,3.5-0.1c6.4,3.2,12.9,6.5,19.3,9.7c1.1,0.6,1.6,1.5,1.6,2.7
		C143.3,81,143.3,84.2,143.2,87.5C143.2,87.5,143.2,87.5,143.2,87.5z M62.8,81.5c0,4.8,0,9.3,0,13.7c0,0.4,0.5,1,1,1.2
		c4.3,2.2,8.7,4.4,13,6.5c0.3,0.1,0.6,0.2,1,0.3c0-4.6,0-9.1,0-13.6c0-0.4-0.5-0.9-0.8-1.1c-2.4-1.3-4.8-2.4-7.2-3.6
		C67.5,83.8,65.3,82.7,62.8,81.5z M103.1,133.5c0.3-0.1,0.4,0,0.5-0.1c4.6-2.3,9.2-4.6,13.8-6.9c0.4-0.2,0.7-0.9,0.7-1.4
		c0.1-2.7,0-5.3,0-8c0-1.7,0-3.5,0-5.4c-5,2.5-9.7,4.8-14.4,7.2c-0.3,0.1-0.6,0.6-0.6,0.8C103.1,124.3,103.1,128.9,103.1,133.5z
		 M83,103.2c0.3-0.1,0.5-0.1,0.6-0.1c4.5-2.3,9-4.5,13.5-6.8c0.4-0.2,0.8-1,0.8-1.5c0.1-3.5,0-7,0-10.5c0-0.9,0-1.7,0-2.8
		c-5,2.5-9.7,4.9-14.4,7.3c-0.3,0.1-0.5,0.7-0.5,1C83,94.2,83,98.6,83,103.2z M138.2,81.5c-5,2.5-9.8,4.9-14.5,7.3
		c-0.3,0.2-0.5,0.9-0.5,1.4c0,2.6,0,5.2,0,7.8c0,1.7,0,3.5,0,5.5c5-2.5,9.8-4.9,14.5-7.3c0.3-0.1,0.5-0.6,0.5-0.9
		C138.2,90.8,138.2,86.3,138.2,81.5z M97.9,133.7c0-4.8,0-9.3,0-13.7c0-0.4-0.6-1-1-1.2c-2.4-1.3-4.8-2.4-7.2-3.6
		c-2.2-1.1-4.4-2.2-6.8-3.4c0,0.8,0,1.3,0,1.8c0,3.3,0.1,6.6-0.1,9.9c-0.1,2.1,0.5,3.1,2.4,4C89.5,129.3,93.5,131.5,97.9,133.7z
		 M103.1,81.5c0,4.7,0,9.2,0,13.7c0,0.4,0.5,0.9,0.9,1.1c2.8,1.4,5.6,2.8,8.4,4.2c1.8,0.9,3.6,1.8,5.6,2.8c0.1-0.4,0.1-0.5,0.1-0.7
		c0-4.2,0-8.4,0-12.7c0-0.5-0.6-1.2-1-1.5c-3.9-2-7.8-3.9-11.7-5.9C104.7,82.3,104,82,103.1,81.5z M66,77.3
		c4.8,2.4,9.2,4.6,13.6,6.7c0.5,0.2,1.3,0.2,1.9-0.1c4.1-2,8.2-4.1,12.3-6.1c0.3-0.1,0.5-0.3,0.9-0.6c-4.7-2.3-9.2-4.6-13.7-6.8
		c-0.4-0.2-1.1,0-1.5,0.2c-2.8,1.3-5.5,2.7-8.3,4.1C69.5,75.5,67.9,76.3,66,77.3z M106.2,77.3c4.8,2.4,9.3,4.7,13.8,6.9
		c0.5,0.2,1.2,0,1.7-0.2c3.1-1.5,6.1-3.1,9.2-4.6c1.3-0.6,2.6-1.3,4.1-2.1c-4.8-2.4-9.4-4.7-13.9-7c-0.3-0.1-0.8-0.1-1.1,0
		C115.5,72.6,111,74.9,106.2,77.3z M114.9,107.6c-4.7-2.4-9.2-4.6-13.7-6.9c-0.4-0.2-1-0.1-1.3,0c-4.5,2.2-9,4.5-13.7,6.8
		c4.8,2.4,9.4,4.7,14.1,7c0.2,0.1,0.6,0,0.8-0.1C105.5,112.2,110.1,110,114.9,107.6z"/>
	<path class="st0" d="M41.4,87.9c0.8,0.3,1.4,0.6,2.1,1c4.4,2.5,6.7,6.3,6.7,11.3c-0.1,5.2-2.7,9.1-7.4,11.3c-1.2,0.5-1.4,1-1,2.2
		c1.1,3.2,2,6.4,3.1,9.7c0.4,1.1,0.5,2.3-0.5,2.9c-0.7,0.5-1.9,0.7-2.7,0.5c-0.6-0.2-1.3-1.1-1.5-1.8c-1.2-3.7-2.4-7.5-3.5-11.2
		c-0.2-0.8-0.5-1.2-1.4-1.4c-6-1.2-10.2-6.4-10.2-12.4c0-5.9,4.2-11.1,10.1-12.3c0.9-0.2,1.2-0.5,1.4-1.3c1-3.7,2.1-7.3,3.4-11
		c0.7-2.1,2.1-2.8,3.6-2.2c1.5,0.6,1.7,2,1.1,4c-1.1,3.1-2,6.3-3,9.4C41.5,87,41.5,87.5,41.4,87.9z M45.2,100c0-4.3-3.4-7.6-7.9-7.5
		c-3.8,0-7.2,3.6-7.2,7.6c0,4,3.4,7.5,7.2,7.5C41.8,107.5,45.2,104.3,45.2,100z"/>
	<path class="st0" d="M138.5,47.3c0.9,0.5,1.6,0.7,2.1,1.1c4.3,3.3,8,7.1,11.3,11.3c1.1,1.4,1,2.8-0.2,3.8c-1.1,0.9-2.6,0.7-3.7-0.7
		c-3.1-4-6.6-7.5-10.6-10.6c-1-0.8-1.5-1.8-0.9-3C137,48.5,137.9,48,138.5,47.3z"/>
	<path class="st0" d="M153.1,138.2c-0.5,0.9-0.7,1.6-1.1,2.1c-3.3,4.3-7,8-11.3,11.3c-1.3,1.1-2.9,1-3.8-0.2
		c-0.9-1.2-0.7-2.6,0.6-3.7c3.9-3.1,7.5-6.6,10.6-10.6c0.8-1.1,1.9-1.5,3.1-0.9C152,136.6,152.5,137.5,153.1,138.2z"/>
	<path class="st0" d="M50.6,135.6c0.9,0.6,1.7,0.9,2.2,1.5c3.2,4,6.7,7.5,10.7,10.7c1.3,1,1.5,2.5,0.6,3.6c-0.9,1.1-2.4,1.3-3.7,0.3
		c-4.3-3.3-8.2-7.2-11.5-11.5c-0.7-0.9-1-1.9-0.3-2.9C49,136.7,49.8,136.2,50.6,135.6z"/>
	<path class="st0" d="M64.9,50.1c-0.6,0.9-0.9,1.7-1.5,2.2C59.5,55.4,56,59,52.8,63c-1,1.3-2.5,1.4-3.6,0.6
		c-1.1-0.9-1.3-2.4-0.3-3.7c3.3-4.3,7.2-8.2,11.6-11.5c0.7-0.5,2-0.6,2.8-0.3C63.9,48.2,64.3,49.3,64.9,50.1z"/>
</g>
</svg>
