<?xml version="1.0" encoding="utf-8"?>
<!-- Generator: Adobe Illustrator 24.0.0, SVG Export Plug-In . SVG Version: 6.00 Build 0)  -->
<svg version="1.1" id="Capa_1" xmlns="http://www.w3.org/2000/svg" xmlns:xlink="http://www.w3.org/1999/xlink" x="0px" y="0px"
	 viewBox="0 0 198.4 198.4" style="enable-background:new 0 0 198.4 198.4;" xml:space="preserve">
<style type="text/css">
	.st0{fill:#ACAEAF;}
	.st1{fill:#1C3247;}
	.st2{fill:#FE9900;}
</style>
<g>
	<path class="st0" d="M17,144.7c0.6-2.1,1.1-4.4,2-6.4c3-7.1,8.5-11.4,15.9-13.4c3.2-0.8,6.4-1.6,9.6-2.3c0.9-0.2,1.2-0.6,1.3-1.5
		c0.2-1.8-0.4-2.9-2-4c-4.7-3.4-7.7-8.2-8-14c-0.4-6.7-0.5-13.5,0.2-20.2c0.9-9.5,9.7-17,19.3-17.3c6.1-0.3,11.8,0.8,16.6,5
		c0.6,0.5,1.2,1.1,1.8,1.7c5.1-12.8,14.2-20.2,28-20.2c13.6,0.1,22.6,7.5,27.5,19.9c2.1-1.4,4-3.2,6.3-4.2
		c11.5-5.3,27.6-1.5,31.4,14c0.2,0.6,0.3,1.3,0.3,1.9c0.1,7.2,0.9,14.5-0.4,21.7c-0.9,5.2-3.9,9.2-8.2,12.3
		c-1.1,0.8-1.9,3.3-1.3,4.4c0.2,0.3,0.7,0.5,1.1,0.6c3.1,0.8,6.2,1.5,9.3,2.3c11.2,2.8,18.2,11.6,18.2,23.2c0,2.9,0,5.7,0,8.6
		c0,2.7-1.3,3.9-4,3.9c-8,0-16,0-24.1,0c-0.6,0-1.2,0-1.7,0c0,4.9,0,9.6,0,14.5c0.7,0,1.3,0,1.9,0c5.8,0,11.7,0,17.5,0
		c2.7,0,4.5,2.2,3.4,4.4c-0.5,0.9-1.7,1.5-2.7,2.1c-0.5,0.3-1.2,0.1-1.8,0.1c-48.7,0-97.4,0-146.1,0c-0.7,0-1.3,0-2-0.1
		c-1.6-0.3-2.8-1.7-2.8-3.2c0-1.6,1.2-2.9,2.8-3.2c0.5-0.1,1.1-0.1,1.6-0.1c5.6,0,11.1,0,16.7,0c0.6,0,1.2,0,2,0c0-4.8,0-9.6,0-14.5
		c-0.4,0-1,0-1.6,0c-7.9,0-15.8,0-23.7,0c-2.1,0-3.6-0.6-4.4-2.7C17,153.5,17,149.1,17,144.7z M107.9,80c-4.3,3-8.8,5.6-13.8,6.6
		c-4.9,1-10,1.5-14.8,2.2c0,3.9-0.4,8.2,0.1,12.4c1.2,10,9.6,18,19.4,19c10.4,1.1,20-4.8,23.6-14.4c2.1-5.6,1.3-11.5,1.4-17.3
		c0-0.1-0.1-0.2-0.3-0.3C116.7,88.6,111.5,85.8,107.9,80z M63,145.2c-2.6,1.6-5.7,5.3-7.4,8.8c-3.3,6.7-2.2,13.8-2.4,20.9
		c13.4,0,26.6,0,39.6,0C82.9,165.1,73,155.2,63,145.2z M149.4,175c0-4.4,0.3-8.6-0.1-12.8c-0.6-7.2-4-12.9-9.5-17
		c-10,10-19.9,19.9-29.8,29.8C123,175,136.2,175,149.4,175z M123.7,81.7c0.8-7.6-3.8-16.2-11.3-20.3c-8.1-4.5-16.3-4.1-23.9,1.2
		c-6.5,4.5-9.5,11-9.5,19c7.3,0.4,14.1-0.7,20.4-4.1c4.3-2.3,8-5.4,11.2-9.1c1.5-1.7,3.4-1.8,4.8-0.5c1.4,1.3,1.5,3.1,0,4.9
		c-0.8,1-1.6,1.9-2.4,2.8C115.4,79.9,118.7,82.1,123.7,81.7z M72.4,94c-3.7-0.8-7.2-1.1-10.3-2.5c-3.4-1.5-6.2-1.6-9.6,0
		c-3.1,1.4-6.7,1.7-10.5,2.5c0.2,3,0.1,6.5,0.6,9.8c0.3,1.9,1.3,3.7,2.5,5.3c4,5.5,10.4,6.6,16.9,5.1c4.1-0.9,7-3.5,8.9-7.2
		C73,102.7,72.2,98.2,72.4,94z M130.5,94c0,2.3-0.1,4.9,0,7.4c0.5,7.1,5.5,12.4,12.2,13.2c5.7,0.7,10.9-0.3,14.9-5.1
		c3.9-4.8,3.1-10.4,3.1-15.5c-3.7-0.8-7.3-1.1-10.4-2.5c-3.4-1.5-6.1-1.5-9.5,0C137.7,92.9,134.1,93.2,130.5,94z M179.2,153.9
		c0-2.7,0.1-5.1,0-7.5c-0.5-6.6-3.7-11.6-9.8-14.1c-4.1-1.7-8.6-2.4-13.1-3.6c-1.3,5.2-2.5,10.2-3.9,15.2c-0.7,2.5-1.3,4.9,0.6,7.1
		c0.3,0.4,0.5,1,0.7,1.5c0.3,1.2,1,1.4,2.2,1.4c5.5-0.1,11.1,0,16.6,0C174.7,153.9,176.9,153.9,179.2,153.9z M23.3,153.9
		c1,0,1.6,0,2.2,0c6.9,0,13.8-0.1,20.8,0c1.8,0,2.7-0.4,3.2-2.2c0.3-0.9,1-1.7,1.3-2.7c0.3-0.8,0.5-1.7,0.3-2.5
		c-1-4.4-2.2-8.7-3.3-13.1c-0.4-1.6-0.8-3.1-1.2-4.8c-3.7,0.9-7.3,1.7-10.8,2.6c-6.2,1.8-10.3,5.8-11.7,12.2
		C23.4,146.9,23.6,150.3,23.3,153.9z M93.3,125.9c0,2.7-0.5,5.3,0.1,7.7c2.3,9.9,5,19.7,7.5,29.5c0.1,0.4,0.3,0.8,0.4,1.2
		c2.8-9.7,5.3-19.3,7.6-28.9c0.7-3,0.7-6.3,1-9.7C104.1,127.3,98.7,127.3,93.3,125.9z M72.3,86.9c0.1-5.3-1.9-9.5-6.2-12.4
		c-4.9-3.3-13-3.3-17.8,0c-4.3,2.9-6.3,7.1-6.2,12.4c4.2-0.1,8.1-0.9,11.6-3.1c2.5-1.6,4.6-1.6,7.1,0C64.2,86,68.1,86.8,72.3,86.9z
		 M160.8,86.9c-0.1-5.7-2.2-10.2-7.1-12.9c-5.7-3-11.6-2.9-17.1,0.6c-4.3,2.8-6.2,7.1-6.1,12.3c4.2-0.1,8.1-0.9,11.6-3.1
		c2.5-1.6,4.6-1.6,7.1,0C152.6,86,156.5,86.8,160.8,86.9z M70,141.5c8.4,8.5,16.8,16.8,25,25.1c-2.4-9.5-5-19.3-7.5-29.3
		C81.5,138.7,75.6,140.1,70,141.5z M107.8,166.6c8.4-8.4,16.7-16.7,25.1-25.1c-5.8-1.4-11.6-2.8-17.6-4.2
		C112.8,147.2,110.3,156.9,107.8,166.6z M86.4,127.6c0.6-4.2,0.6-4.4-2.5-6.6c-0.5-0.4-1-0.7-1.4-1.2c-2.3-2.6-4.6-5.2-6.3-7.1
		c-1.6,1.2-3.3,2.9-5.3,4.1c-2.1,1.2-2.4,2.7-2.1,4.8c0,0.2,0.1,0.3,0.1,0.6C74.7,124.1,80.9,124.5,86.4,127.6z M133.8,122.3
		c0.5-2.4,0.3-4.3-2.1-5.4c-0.8-0.4-1.5-1.2-2.1-1.8c-0.9-1-1.8-2.1-2.8-3.3c-2.5,4.5-5.8,8-10,10.7c-0.3,0.2-0.6,0.7-0.6,1
		c-0.1,1.3,0,2.6,0,4.2C121.8,124.5,128,124,133.8,122.3z M140.6,121.2c0.1,1.4,0,2.8,0.3,4.1c1.1,4.8,2.4,9.6,3.7,14.3
		c0.2,0.8,0.9,1.4,1.5,2.5c1.4-5.6,2.8-10.6,4.1-15.7c0.1-0.5,0.3-1,0.3-1.4c0-1.3,0-2.6,0-3.8C147.2,121.2,144,121.2,140.6,121.2z
		 M56.5,141.7c2.1-1.5,6.2-17.3,5.5-20.5c-3.2,0-6.4,0-9.8,0C52.3,128.2,55.3,134.7,56.5,141.7z M122.7,131.8c0,0.1,0.1,0.3,0.1,0.4
		c4.6,1.2,9.1,2.3,13.9,3.5c-0.6-2.4-1.2-4.6-1.8-6.9C130.8,129.9,126.7,130.9,122.7,131.8z M66.1,135.8c4.8-1.2,9.4-2.4,13.9-3.6
		c0-0.1,0-0.2,0-0.4c-4-1-8-2-12.2-3C67.3,131.2,66.7,133.4,66.1,135.8z"/>
	<path class="st1" d="M102.4,12.8c1.8,1,2.4,2.6,2.3,4.7c-0.1,4,0,8,0,12c0,2.5-1.4,4.1-3.4,4c-2-0.1-3.2-1.6-3.2-4c0-4,0.1-8,0-12
		c-0.1-2.1,0.5-3.6,2.3-4.7C101.1,12.8,101.7,12.8,102.4,12.8z"/>
	<path class="st2" d="M125.7,45.9c-2.8,0-4.4-2.6-3.2-4.8c0.3-0.5,0.7-1,1.1-1.4c3.9-3.9,7.8-7.9,11.8-11.7c0.8-0.8,2.1-1.5,3.1-1.5
		c2.5,0,4.1,3.1,2.4,4.9c-4.5,4.8-9.2,9.4-13.9,14C126.7,45.7,126,45.8,125.7,45.9z"/>
	<path class="st2" d="M64.8,26.5c1.2,0.7,2.1,1.1,2.8,1.8c3.9,3.8,7.7,7.6,11.5,11.5c1.6,1.6,1.7,3.6,0.3,5c-1.4,1.4-3.3,1.3-5-0.3
		c-3.9-3.8-7.7-7.7-11.5-11.5c-1.1-1.1-1.8-2.6-0.9-4C62.6,27.9,63.8,27.3,64.8,26.5z"/>
	<path class="st1" d="M101.4,38.4c1.8,0,3.3,1.4,3.3,3.2c0,1.7-1.5,3.2-3.3,3.3c-1.8,0-3.3-1.5-3.3-3.2
		C98.1,39.9,99.6,38.4,101.4,38.4z"/>
</g>
</svg>
