<?xml version="1.0" encoding="utf-8"?>
<!-- Generator: Adobe Illustrator 24.0.0, SVG Export Plug-In . SVG Version: 6.00 Build 0)  -->
<svg version="1.1" id="Capa_1" xmlns="http://www.w3.org/2000/svg" xmlns:xlink="http://www.w3.org/1999/xlink" x="0px" y="0px"
	 viewBox="0 0 200 200" style="enable-background:new 0 0 200 200;" xml:space="preserve">
<style type="text/css">
	.st0{fill:#ACAEAF;}
	.st1{fill:#1C3247;}
	.st2{fill:#FE9900;}
</style>
<g>
	<path class="st0" d="M37.7,179.4c-0.5-0.2-0.9-0.4-1.4-0.5c-4.6-1.6-7.6-6.2-6.9-10.9c0.7-5,4.8-8.7,9.9-8.8c0.7,0,1.4,0,2.2,0
		c-1.2-2.2-1.8-4.4-1.5-6.7c0.6-5,4.7-9,9.8-9c3.5-0.1,7.1,0,10.6,0c0.5,0,1,0,1.6,0c-2.1-3.8-2.2-7.5,0-11.3c-1.8,0-3.4,0-5.1,0
		c-8.1,0-12.9-7.6-9.3-15c0.1-0.2,0.1-0.4,0.3-0.8c-1.2,0-2.2,0-3.3,0c-4.3,0-7.6-1.8-9.5-5.7c-1.9-3.9-1.3-7.6,1.4-11
		c0.1-0.1,0.2-0.2,0.3-0.5c-2.2-1.5-3.8-3.4-4.5-6c-1.7-6.5,3-12.7,9.8-12.8c4.6-0.1,9.1,0,13.7,0c0.5,0,1.1,0,1.9,0
		c-2-3.7-2.2-7.4,0-11.1c-0.3-0.1-0.5-0.2-0.7-0.2c-5.7-0.7-9.7-5.1-9.4-10.6c0.3-5.5,4.7-9.7,10.5-9.7c7.8,0,15.7,0,23.5,0
		c1.2,0,1.9-0.4,2.6-1.4c9.6-14.3,23.1-21.3,40.2-20.3c17.2,1,29.8,9.6,37.6,25.1c0.4,0.7,0.7,1.7,0.4,2.4c-0.2,0.6-1.1,1.5-1.7,1.5
		c-0.8,0-1.8-0.5-2.3-1.1c-1-1.3-1.5-2.9-2.4-4.3c-8.4-13-20.4-19.6-35.9-19.2c-19.4,0.6-35.6,15.4-38.3,34.5
		c-3,22.1,12.2,42.3,34.3,45.5c21.4,3.1,41.8-11.9,45.2-33.2c0.8-4.9,0.7-9.7-0.2-14.5c-0.2-0.8-0.1-1.9,0.3-2.5
		c0.4-0.5,1.5-1,2.1-0.8c0.7,0.2,1.6,1.1,1.8,1.8c1.1,4.5,1.4,9,0.8,13.6c-1.9,16-9.9,27.9-24.1,35.6c-0.1,0-0.2,0.1-0.4,0.3
		c0.5,0.1,0.8,0.1,1.2,0.1c3.1,0,6.2,0,9.2,0c8.2,0,13,7.7,9.4,15.1c-0.1,0.2-0.2,0.3-0.3,0.7c4.2-0.3,7.8,0.5,10.5,3.8
		c1.6,2,2.3,4.4,2.2,6.9c-0.4,6-4.4,9.1-12.3,9.5c0.4,1.8,1.1,3.7,1.1,5.5c0,1.9-0.7,3.7-1.1,5.7c0.6,0.1,1.5,0.1,2.3,0.3
		c4.6,1,7.9,4.8,8.1,9.3c0.2,4.9-2.7,9-7.3,10.4c-0.4,0.1-0.7,0.3-1.1,0.4C121.7,179.4,79.7,179.4,37.7,179.4z M101.4,111.8
		c0-0.1,0.1-0.2,0.1-0.3c-0.1-0.1-0.3-0.1-0.4-0.2c-5-2.6-9.3-6-13.1-10.2c-0.3-0.3-0.9-0.6-1.4-0.6c-14,0-28,0-42,0
		c-3.6,0-6.2,2.5-6.1,5.8c0.1,3.2,2.6,5.5,6.2,5.5c5.4,0,10.7,0,16.1,0c1.6,0,2.5,0.9,2.5,2.3c0,1.3-0.9,2.1-2.5,2.2
		c-1.4,0-2.9,0-4.3,0c-3.2,0.1-5.6,2.5-5.6,5.6c0,3.2,2.5,5.6,6,5.7c8.5,0,17.1,0,25.6,0c0.3,0,0.6,0,1-0.1c-2.2-3.8-2.1-7.5,0-11.2
		c-0.9,0-1.6,0-2.3,0c-3.6,0-7.2,0-10.7,0c-1.5,0-2.5-1-2.5-2.2c0-1.3,1-2.2,2.4-2.3c0.4,0,0.8,0,1.2,0c9.4,0,18.8,0,28.2,0
		C100.4,111.8,100.9,111.8,101.4,111.8z M133.5,143.3c10,0,20,0,29.9,0c3.6,0,6.1-2.4,6-5.7c0-3.2-2.6-5.5-6.1-5.5
		c-16.7,0-33.4,0-50,0c-3.3,0-6.6,0-9.8,0c-2.7,0-4.8,1.6-5.6,3.9c-1.2,3.8,1.5,7.3,5.6,7.3C113.5,143.3,123.5,143.3,133.5,143.3z
		 M122.3,159.1c10.1,0,20.2,0,30.2,0c3.3,0,5.8-2.4,5.8-5.5c0.1-3.1-2.3-5.7-5.5-5.7c-20.3,0-40.6,0-60.9,0c-2.5,0-4.2,1.4-5.1,3.7
		c-1.4,3.8,1.4,7.5,5.6,7.5C102.4,159.1,112.4,159.1,122.3,159.1z M122.3,127.5c5.3,0,10.6,0,15.9,0c4.9,0,9.7,0,14.6,0
		c3,0,5.3-2.3,5.5-5.2c0.2-2.9-1.8-5.4-4.7-5.9c-0.7-0.1-1.4-0.1-2.1-0.1c-13.5,0-27,0-40.5,0c-6.2,0-12.3,0-18.5,0
		c-2.7,0-4.8,1.3-5.7,3.6c-1.5,3.8,1.2,7.7,5.5,7.7C102.3,127.6,112.3,127.5,122.3,127.5z M131.7,163.6c-10,0-20,0-29.9,0
		c-2.7,0-4.9,1.4-5.7,3.7c-1.3,3.8,1.4,7.5,5.7,7.5c11.2,0,22.3,0,33.5,0c8.7,0,17.5,0,26.2,0c2.8,0,4.9-1.4,5.7-3.7
		c1.4-3.8-1.4-7.6-5.6-7.6C151.7,163.6,141.7,163.6,131.7,163.6z M92.9,174.9c-2.2-3.8-2.1-7.5-0.1-11.3c-0.6,0-0.9,0-1.3,0
		c-17.2,0-34.4,0-51.5,0c-0.3,0-0.7,0-1,0c-3.7,0.4-6.1,4.1-4.8,7.6c0.9,2.3,3,3.6,5.8,3.6c14,0,28,0,42,0
		C85.5,174.9,89.1,174.9,92.9,174.9z M83.8,95.9c-1.5-3.3-3-6.5-4.4-9.7c-0.4-1.1-0.8-1.5-2.1-1.5c-11.4,0.1-22.8,0-34.2,0
		c-0.7,0-1.4,0-2.1,0.1c-2.1,0.4-3.6,1.6-4.3,3.7c-1.3,3.7,1.4,7.4,5.5,7.4c13.6,0,27.2,0,40.8,0C83.4,96,83.7,95.9,83.8,95.9z
		 M83.6,147.8c-4.7,0-9.2,0-13.7,0c-6.5,0-13,0-19.5,0c-3.6,0-6,2.5-5.9,5.8c0.1,3.2,2.6,5.4,6,5.4c10.6,0,21.2,0,31.9,0
		c0.4,0,0.7,0,1.2-0.1C81.5,155.3,81.5,151.6,83.6,147.8z M94.6,132.3c-0.2-0.1-0.3-0.2-0.4-0.2c-8,0-16-0.1-24,0
		c-2.6,0-4.7,2-5.2,4.4c-0.8,3.7,1.8,6.8,5.7,6.9c7.7,0,15.4,0,23.1,0c0.2,0,0.4,0,0.9-0.1C92.6,139.5,92.6,135.9,94.6,132.3z
		 M80.5,53.3c0,0-0.1-0.1-0.2-0.1c-7.7,0-15.5-0.1-23.2,0c-2.2,0-3.7,1.3-4.6,3.3c-1.6,3.7,1,7.7,5.1,7.8c6.4,0.1,12.8,0,19.2,0
		c0.2,0,0.5-0.1,0.5-0.1C78.4,60.5,79.5,56.9,80.5,53.3z M76.8,69c-3.7,0-7.4-0.1-11.1,0c-3,0.1-5.2,2.8-5,5.8
		c0.1,3,2.5,5.3,5.5,5.3c3.2,0.1,6.4,0,9.5,0c0.7,0,1.3,0,1.9,0C77.3,76.4,77.1,72.8,76.8,69z"/>
	<path class="st1" d="M120.7,43.3c-8.3,0.2-15.8,3.8-21.5,11.1c-0.4,0.5-0.7,1-1.2,1.3c-1,0.6-2,0.5-2.8-0.4c-0.9-1-0.8-2,0-3
		c2.8-3.9,6.3-7.1,10.6-9.4c20-10.9,44.3,0.7,48.3,23.2c3.2,18.2-10.2,36-28.5,37.9c-17.2,1.8-32.5-9.3-35.9-26.1
		c-1.1-5.4-0.8-10.7,0.8-15.9c0.6-1.9,1.6-2.7,3-2.2c1.4,0.5,1.8,1.6,1.3,3.6c-4,13.6,2.2,27.6,14.8,33.6c16.7,8,36.6-2.2,39.9-20.5
		C152.5,59.1,139.2,43.2,120.7,43.3z"/>
	<path class="st2" d="M119.5,53.8c0-1.7,0-3.3,0-4.9c0-1.9,0.9-3,2.3-3c1.4,0,2.2,1.1,2.2,3.1c0,1.5,0,3,0,4.3
		c2,0.6,3.8,1.1,5.6,1.7c1.1,0.4,1.9,1.3,1.6,2.7c-0.3,1.8-1.7,2.5-3.4,1.7c-2.5-1.3-5.2-1.7-7.9-1.1c-1.9,0.4-3.2,1.4-3.5,3.4
		c-0.3,2,0.4,3.7,2.2,4.7c1.4,0.8,2.9,1.4,4.4,2.1c0.9,0.4,1.7,0.7,2.6,1.1c6.2,2.7,7.5,8,6.1,13.6c-0.8,3.3-3,5.4-6.2,6.5
		c-0.4,0.1-0.9,0.3-1.3,0.4c0,0-0.1,0.1-0.2,0.2c0,1.3,0,2.8,0,4.2c0,1.7-1,2.7-2.3,2.7c-1.3,0-2.2-1-2.2-2.6c0-1.3,0.4-3-0.2-3.9
		c-0.5-0.8-2.4-0.7-3.4-1.3c-1.6-0.9-3.2-1.9-4.4-3.1c-0.6-0.6-0.8-2-0.6-2.8c0.5-1.8,2.1-2.2,3.5-0.8c2.1,2.2,4.6,3.2,7.6,2.9
		c2.6-0.2,4.4-1.4,5-3.5c0.8-2.5,0.1-5.2-1.9-6.6c-1.6-1.1-3.5-1.8-5.3-2.7c-1.2-0.6-2.4-1-3.5-1.6c-3.6-1.9-5.3-5.2-4.9-9.3
		c0.5-4.1,2.7-6.6,6.7-7.7C118.5,54.1,118.9,53.9,119.5,53.8z"/>
</g>
</svg>
