<?xml version="1.0" encoding="utf-8"?>
<!-- Generator: Adobe Illustrator 24.0.0, SVG Export Plug-In . SVG Version: 6.00 Build 0)  -->
<svg version="1.1" id="Capa_1" xmlns="http://www.w3.org/2000/svg" xmlns:xlink="http://www.w3.org/1999/xlink" x="0px" y="0px"
	 viewBox="0 0 200 200" style="enable-background:new 0 0 200 200;" xml:space="preserve">
<style type="text/css">
	.st0{fill:#ACAEAF;}
	.st1{fill:#FE9900;}
	.st2{fill:#1C3247;}
</style>
<g>
	<path class="st0" d="M102.3,14.9c1.4,0.3,2.7,0.6,3.9,1.1c7.4,3,11.7,8.6,12.2,16.6c0.5,7.5-3,13.4-9.6,17.2
		c-0.5,0.3-0.9,0.5-1.5,0.9c0.8,0.3,1.4,0.5,2,0.6c7.8,2,13.9,6.3,18.2,13.3c0.6,1.1,1.2,1.4,2.4,1.4c7.1,0,14,0,21.1,0
		c6.8,0,11.7,3.9,13.1,10.2c0.3,1.1,0.3,2.3,0.3,3.5c0,9,0,18.2,0,27.3c0,0.6,0,1.2,0,2.1c0.9-0.9,1.7-1.5,2.3-2.1
		c1.2-1.1,2.7-1.1,3.8,0c1.1,1.1,1.1,2.6-0.2,3.9c-2.3,2.3-4.5,4.4-6.9,6.5c-1.2,1.1-2.7,1.1-3.9-0.2c-2.3-2.3-4.4-4.5-6.5-6.9
		c-1.1-1.2-1.1-2.7,0-3.8c1.1-1.1,2.6-1.1,3.9,0.2c0.6,0.6,1.2,1.4,2,2.3c0-1.1,0.2-1.5,0.2-2c0-9.2,0-18.5,0-27.7
		c0-5.1-2.9-8.1-8-8.1c-6.8,0-13.4,0-20.3,0c0.3,1.5,0.9,3,0.9,4.5c0.2,5.9,0.3,11.6,0.3,17.5c0,1.7-1.2,2.6-3.5,2.6
		c-8,0-15.8,0-23.8,0c-0.6,0-1.2,0-2,0c0,4.4,0,8.7,0,13.4c0.8-0.8,1.4-1.4,2-1.8c1.4-1.2,2.9-1.2,4.1-0.2c1.1,1.1,0.9,2.7-0.3,3.9
		c-2.1,2.1-4.4,4.2-6.5,6.2c-1.5,1.4-2.9,1.2-4.2-0.2c-2.1-2.1-4.2-4.4-6.2-6.5c-1.2-1.4-1.2-3-0.2-4.1c1.2-1.1,2.7-0.9,3.9,0.3
		c0.6,0.6,1.1,1.2,2,1.7c0-4.2,0-8.4,0-12.8c-0.6,0-1.2,0-1.8,0c-8,0-15.8,0-23.8,0c-2.7,0-3.6-0.9-3.6-3.6c0-5.3,0.2-10.7,0.3-16
		c0-1.5,0.6-3.2,0.9-4.7c-0.2,0-0.2-0.2-0.3-0.2c-6.9,0-13.9-0.2-20.8,0c-4.4,0.2-7.1,3.2-7.1,7.5c0,9.6,0,19.3,0,28.9
		c0,0.3,0,0.6,0,1.2c0.8-0.8,1.4-1.4,2.1-2c1.4-1.2,2.9-1.2,3.9-0.2c1.1,1.1,1.1,2.7-0.2,3.9c-2.1,2.1-4.4,4.2-6.6,6.3
		c-1.4,1.2-2.9,1.2-4.1-0.2c-2.1-2.1-4.2-4.4-6.3-6.6c-1.2-1.4-1.2-2.7-0.2-3.9c1.1-1.1,2.7-1.1,3.9,0.3c0.6,0.6,1.1,1.2,2.1,1.7
		c0-0.6,0-1.1,0-1.7c0-9,0.2-18.2,0-27.3c-0.2-7.2,5-13.9,13.7-13.7c6.9,0.2,14,0,20.9,0c0.6,0,1.7-0.5,2-1.1
		c4.7-7.2,11.1-11.9,19.6-13.7c0.2,0,0.3-0.2,0.6-0.3c-0.6-0.3-1.2-0.6-1.7-0.9c-6.9-3.9-10.5-11.4-9.2-19.4
		c1.2-7.5,7.2-13.6,15.1-15.1c0.3,0,0.6-0.2,0.9-0.3C99.3,14.9,100.8,14.9,102.3,14.9z M114.5,89.9c0-0.8,0-1.2,0-1.8
		c0-3.6,0-7.2,0-10.8c0-1.8,1.2-2.9,2.7-2.9s2.6,1.1,2.6,2.9c0,2.7,0,5.4,0,8.1c0,1.5,0,3,0,4.5c2.4,0,4.5,0,6.8,0
		c0-3.6,0-7.2,0-10.7c-0.3-10.7-8-20.2-18.4-22.9c-0.5-0.2-0.9-0.2-1.4-0.2c0.2,0.9,0.2,1.8,0.3,2.6c0.8,5.1,1.4,10.2,2.1,15.5
		c0.3,1.7,0,3-1.2,4.2c-2,2.1-3.8,4.4-5.6,6.6c-1.7,2-3.3,2-5,0c-2-2.4-4.1-4.7-5.9-7.2c-0.6-0.8-1.1-2-0.9-3c0.3-3,0.8-5.9,1.2-8.9
		c0.5-3.3,0.9-6.5,1.4-9.8c-5.6,0.6-12.2,5-15.8,10.4c-4.8,7.2-4.1,15.2-3.9,23.3c2.3,0,4.5,0,6.8,0c0-0.8,0-1.5,0-2.1
		c0-3.6,0-7.1,0-10.7c0-1.4,0.6-2.3,2-2.6c1.2-0.3,2.3,0,2.9,1.1c0.3,0.6,0.5,1.5,0.5,2.3c0,3.5,0,6.9,0,10.2c0,0.6,0,1.2,0.2,1.8
		C95.4,89.9,104.9,89.9,114.5,89.9z M100.2,46.6c7.2,0,13.3-6,13.1-13.4c-0.2-7.2-6-13.1-13.4-13.1c-7.2,0-13.1,6-13.1,13.3
		C86.8,40.7,92.8,46.7,100.2,46.6z M98.7,55.6c-0.9,6.3-1.8,12.5-2.6,18.7c0,0.3,0,0.8,0.3,1.1c1.2,1.5,2.4,2.9,3.6,4.4
		c0.9-1.2,1.8-2.1,2.6-3c1.1-1.1,1.5-2.3,1.2-3.8c-0.5-1.8-0.5-3.6-0.8-5.4c-0.6-3.9-1.1-7.8-1.7-11.9
		C100.5,55.6,99.7,55.6,98.7,55.6z"/>
	<path class="st1" d="M15,170.2c0.5-1.8,0.8-3.6,1.5-5.4c2.7-7.1,7.7-11.9,14.9-14.3c0.3-0.2,0.8-0.3,1.2-0.5
		c-4.5-3-7.1-7.1-7.4-12.5c-0.2-4.2,1.4-8,4.4-11c6-6,15.7-5.7,21.4,0.5c5.1,5.6,6.2,16.3-3,22.6c2.7,1.5,5.7,2.9,8.1,4.7
		c6,4.7,8.7,11,8.9,18.5c0,2.9,0,5.7,0,8.6c0,1.7-0.5,2.7-2,3.5c-16.1,0-32.1,0-48.2,0C15,180.2,15,175.2,15,170.2z M59.5,179.9
		c0-3.2,0.2-6.2,0-9.3c-0.2-3.2-1.5-6-3.5-8.6c-5.4-7.4-15.1-8.9-23.6-6.2c-9.5,3-14.6,13.6-12,23.9c1.2,0,2.4,0,3.8,0
		c0-2.9,0-5.7,0-8.6c0-2.1,1.1-3.3,2.7-3.3s2.6,1.2,2.7,3.3c0,2.9,0,5.6,0,8.4c7.1,0,14,0,20.9,0c0-3.2-0.2-6.2,0.2-9
		c0-0.9,0.9-2,1.7-2.4c0.8-0.3,2,0,2.7,0.5c0.6,0.5,0.9,1.7,0.9,2.6c0.2,2.9,0,5.6,0,8.4C57.1,179.9,58.3,179.9,59.5,179.9z
		 M40,146.7c5.3,0,9.5-4.2,9.5-9.5c0-5.1-4.2-9.5-9.5-9.5s-9.6,4.2-9.5,9.6C30.5,142.5,34.8,146.7,40,146.7z"/>
	<path class="st2" d="M137,185.1c-1.5-0.8-2.1-2-2-3.5c0.2-4.5-0.2-9,0.6-13.4c1.7-9,7.4-14.9,16-17.8c0.3-0.2,0.5-0.2,0.9-0.5
		c-5-3.3-7.5-7.8-7.2-13.7c0.2-4.1,1.8-7.5,4.8-10.2c6-5.4,15.4-5,20.9,1.1c6.2,6.8,4.8,15.2-3.5,22.9c5.4,1.5,9.8,4.5,13,8.9
		c2.3,3,3.6,6.5,4.2,10.2c0,0.3,0.2,0.6,0.3,0.9c0,5,0,9.9,0,14.9C169.2,185.1,153.1,185.1,137,185.1z M179.9,179.9
		c0-2.6,0.2-5.1,0-7.5c-0.2-4.4-1.7-8.3-4.7-11.4c-6-6.5-13.7-7.4-21.5-5.1c-12.2,3.5-14.3,13.9-13,24.2c1.2,0,2.4,0,3.8,0
		c0-0.8,0-1.2,0-1.8c0-2.4,0-4.8,0-7.1c0-1.5,0.9-2.6,2.4-2.7c1.4-0.2,2.3,0.5,2.7,1.7c0.2,0.6,0.2,1.2,0.2,1.8c0,2.7,0,5.6,0,8.3
		c7.1,0,13.9,0,20.9,0c0-3,0-5.9,0-8.9c0-2,1.4-3.2,3-3c1.4,0.2,2.3,1.4,2.3,3c0,2.9,0,5.9,0,8.9
		C177.3,179.9,178.5,179.9,179.9,179.9z M160,146.7c5.3,0,9.5-4.1,9.5-9.3c0-5.3-4.2-9.6-9.5-9.5c-5.3,0-9.5,4.4-9.5,9.5
		C150.7,142.5,154.9,146.6,160,146.7z"/>
	<path class="st0" d="M76.7,185.1c-1.4-0.8-1.8-2-1.8-3.6c0.2-4.2-0.3-8.4,0.5-12.7c1.5-9.3,7.1-15.5,16.1-18.5
		c0.3-0.2,0.6-0.3,0.9-0.3c-9.9-6.9-8.1-18.1-3.2-23.2c5.9-5.9,15.5-5.9,21.4,0c5.3,5.3,6.8,16.4-3.2,23.2c4.1,1.2,7.7,3.2,10.5,6
		c4.2,4.4,6.6,9.5,6.9,15.5c0.2,3.5,0,6.9,0.2,10.2c0,1.5-0.8,2.4-1.8,3.2C107.9,185.1,92.2,185.1,76.7,185.1z M119.8,179.7
		c0-2.7,0-5.3,0-8c-0.2-4.2-1.7-7.8-4.4-10.8c-5.6-6.3-12.8-7.4-20.3-5.7c-13,2.7-15.8,13.4-14.3,24.6c1.2,0,2.4,0,3.8,0
		c0-2.7,0-5.3,0-7.8c0-2.7,0.9-3.9,2.7-3.9c1.8,0,2.6,1.4,2.6,4.1c0,2.6,0,5.1,0,7.7c7.1,0,13.9,0,20.8,0c0-1.2,0-2.4,0-3.5
		c0-2,0-3.9,0-5.9c0.2-1.5,1.4-2.6,2.7-2.6c1.4,0.2,2.4,1.1,2.4,2.7c0,0.6,0,1.4,0,2c0,2.4,0,4.7,0,7.2
		C117.2,179.7,118.3,179.7,119.8,179.7z M100.1,146.7c5.3,0,9.5-4.2,9.5-9.5c0-5.1-4.2-9.5-9.3-9.5c-5.3,0-9.6,4.4-9.6,9.6
		C90.6,142.5,94.8,146.7,100.1,146.7z"/>
</g>
</svg>
