<?xml version="1.0" encoding="utf-8"?>
<!-- Generator: Adobe Illustrator 24.0.0, SVG Export Plug-In . SVG Version: 6.00 Build 0)  -->
<svg version="1.1" id="Capa_1" xmlns="http://www.w3.org/2000/svg" xmlns:xlink="http://www.w3.org/1999/xlink" x="0px" y="0px"
	 viewBox="0 0 200 200" style="enable-background:new 0 0 200 200;" xml:space="preserve">
<style type="text/css">
	.st0{fill:#ACAEAF;}
	.st1{fill:#FE9900;}
</style>
<g>
	<path class="st0" d="M183,61.2c0,0.7,0,1.3,0,2c-1.4,2.7-4.1,2.1-6.6,2.2c0,0.7,0,1.4,0,2c0,14.3,0,28.6,0,43.1
		c0,4.5-0.7,5.2-5,5.2c-9.1,0-18.1,0-27.2,0c-0.6,0-1.1,0-2,0.1c2.7,3.9,2.2,8.1,2.2,12.5c0.8,0,1.4,0,2.1,0c10.7,0,21.2,0,31.8,0
		c2,0,3.5,0.4,4.6,2.2c0,0.7,0,1.3,0,2c-1.3,2.9-4.1,2.2-6.6,2.4c0,0.8,0,1.4,0,2.1c0,13.3,0,26.8,0,40.1c0,3.5-1.1,4.5-4.6,4.5
		c-18.5,0-37.2,0-55.7,0c-0.6,0-1.3,0-1.8-0.1c-1.7-0.3-2.8-1.7-2.7-3.4c0-1.7,1.3-2.8,2.9-3.1c0.6,0,1.1,0,1.8,0
		c11.9,0,24,0,35.9,0c0.7,0,1.3,0,2,0c0-8.1,0-16,0-24c-36,0-71.9,0-108,0c0,8,0,15.8,0,24c0.7,0,1.4,0,2,0c12.2,0,24.4,0,36.6,0
		c0.7,0,1.3,0,2,0c1.5,0.1,2.7,1.4,2.8,2.9c0.1,1.5-0.8,2.9-2.5,3.4c-0.6,0.1-1.3,0.1-2,0.1c-19.1,0-38,0-57.1,0
		c-3.4,0-4.5-1.1-4.5-4.5c0-13.5,0-26.9,0-40.2c0-0.6,0-1.3,0-2.1c-1.3,0-2.4,0-3.4,0c-1.7-0.1-2.9-1.3-3.1-2.9
		c-0.1-1.7,1-3.1,2.8-3.4c0.6-0.1,1.1,0,1.8,0c11.4,0,22.7,0,34.1,0c0.6,0,1.3,0,2,0c0-4.3-0.4-8.7,2.2-12.6c-1,0-1.5,0-2.1,0
		c-10,0-19.9,0-29.9,0c-3.5,0-4.3-1-4.3-4.5c0-14.6,0-29.2,0-43.9c0-0.6,0-1.3,0-2c-1.4-0.1-2.7,0-3.9-0.3c-1.7-0.3-2.8-1.8-2.7-3.4
		c0.1-1.7,1.4-2.8,3.1-2.9c2,0,3.9,0,6,0s4.2,0,6.5,0c-0.6-7.7,1.4-14.2,9.1-17.7c-2.1-3.1-2.2-6.6-2.1-10.1
		c0.1-6.5,5-11.6,11.5-12.2c6.2-0.7,12.2,3.5,13.3,9.7c0.8,4.3,0.8,8.6-1.7,12.5c7.3,3.8,9.4,9,8.8,16.3c0,0.6,0,1.1,0.1,1.7
		c3.1,0,5.9,0,9,0c-0.8-7.9,1.1-14.3,8.8-17.8c-2.1-3.1-2.2-6.5-2.1-10c0.1-6.5,5-11.6,11.6-12.3c6.2-0.6,12.1,3.6,13.3,9.8
		c0.8,4.2,0.7,8.6-1.7,12.3c0.1,0.1,0.3,0.3,0.4,0.4c5.9,2.9,8.7,7.7,8.4,14.2c0,1.1,0,2.2,0,3.2c2.9,0,5.7,0,8.6,0
		c0.1-3.6-0.3-7.3,1.4-10.7c1.7-3.4,4.3-5.7,7.9-7.2c-2.1-3.1-2.2-6.5-2.1-10c0.1-6.6,5-11.8,11.8-12.3c6.2-0.6,12.1,3.8,13.2,10.1
		c0.7,4.2,0.7,8.4-2,12.3c7.7,3.5,9.4,10.1,8.7,17.8c4.1,0,8,0.1,11.8,0C180.8,58.8,182.2,59.3,183,61.2z M154.5,81.4
		c-36,0-71.9,0-108,0c0,9.3,0,18.5,0,27.6c6.6,0,13,0,19.8,0c-1.7-3.1-1.7-6.3-1.4-9.5c0.4-6.2,5.6-11.4,11.8-11.6
		c6.6-0.3,12.2,4.1,13.2,10.4c0.6,3.6,0.4,7.4-1.3,10.9c8.6,0,17,0,25.5,0c-0.1-0.6-0.3-0.8-0.4-1.3c-1.4-3.8-1.4-7.7-0.3-11.5
		c1.8-5.7,7.6-9.4,13.5-8.6c6.3,0.8,10.8,5.9,11.2,12.3c0.1,3.1,0,6-1.5,9c6.2,0,12.1,0,18.1,0C154.5,99.7,154.5,90.6,154.5,81.4z
		 M170,65.4c-46.6,0-93,0-139.5,0c0,14.6,0,29,0,43.6c3.2,0,6.3,0,9.5,0c0-0.7,0-1.3,0-1.8c0-9.4,0-18.9,0-28.3
		c0-3.1,1.1-4.1,4.1-4.1c37.6,0,75.3,0,112.9,0c2.9,0,4.1,1.1,4.1,4.1c0,9.5,0,18.9,0,28.5c0,0.6,0,1.1,0,1.7c3.1,0,6,0,9,0
		C170,94.4,170,80,170,65.4z M40,174.9c0-0.7,0-1.3,0-1.8c0-8.1,0-16.3,0-24.4c0-2.9,1.1-4.2,4.1-4.2c37.6,0,75.3,0,112.9,0
		c2.9,0,4.1,1.1,4.1,4.1c0,8.1,0,16.4,0,24.5c0,0.6,0,1.1,0.1,1.7c3.1,0,5.9,0,8.8,0c0-13.5,0-26.6,0-40c-46.6,0-93,0-139.4,0
		c0,13.5,0,26.6,0,40.1C33.7,174.9,36.7,174.9,40,174.9z M90.4,128.1c0-1.7,0-3.2,0-4.8c0-4.5-3.2-7.7-7.6-7.7
		c-3.6-0.1-7.2-0.1-10.8,0c-3.6,0.1-6.9,2.5-7.3,6c-0.3,2.1,0,4.2,0,6.5C73.3,128.1,81.8,128.1,90.4,128.1z M138,128.1
		c0-1.7,0-3.2,0-4.6c0-4.5-3.1-7.7-7.6-7.9c-3.6-0.1-7.3-0.1-10.9,0c-3.6,0.1-6.7,2.5-7.2,5.9c-0.3,2.1,0,4.3,0,6.6
		C120.7,128.1,129.3,128.1,138,128.1z M87.2,58.8c8.7,0,17.2,0,25.8,0c0-2,0.1-3.8,0-5.6c-0.3-3.5-3.4-6.5-6.9-6.6
		c-3.9-0.1-8-0.1-11.9,0c-3.5,0.1-6.6,3.1-6.9,6.6C87.1,55,87.2,56.8,87.2,58.8z M160.7,58.8c0-1.8,0.1-3.5,0-5.2
		c-0.3-3.9-3.4-6.9-7.3-7c-3.8-0.1-7.6-0.1-11.4,0c-3.2,0.1-5.5,1.7-6.6,4.6c-1.1,2.4-0.6,5-0.6,7.6C143.5,58.8,152,58.8,160.7,58.8
		z M39.4,58.8c8.6,0,17.1,0,25.8,0c0-1.7,0-3.4,0-5c-0.1-3.9-3.4-7-7.2-7.2s-7.7-0.1-11.5,0c-3.6,0.1-6.7,2.8-7.2,6.3
		C39.3,54.7,39.4,56.7,39.4,58.8z M141.9,32.6c0,0.4,0,0.8,0,1.3c0.1,3.5,2.8,6.2,6.2,6.2c3.4,0,6.2-2.7,6.2-6.2c0-1,0-2.1,0-3.1
		c-0.3-3.6-3.5-6.3-7.2-5.7C143.6,25.7,141.9,28.2,141.9,32.6z M58.5,32.6c0-0.6,0-1.1,0-1.8c-0.1-3.2-2.8-5.7-6-5.7
		c-3.1,0-5.9,2.4-6.2,5.5c-0.1,1.4-0.1,2.7,0,4.1c0.3,3.5,3.8,6,7.3,5.3C56.8,39.3,58.5,36.9,58.5,32.6z M106.3,32.6
		c0-0.6,0-1.1,0-1.7c-0.1-3.2-2.8-5.9-6.2-5.9c-3.4,0-6,2.7-6.2,6c0,1.1,0,2.2,0,3.4c0.3,3.6,3.8,6.2,7.3,5.5
		C104.7,39.1,106.3,36.8,106.3,32.6z M71.1,101.5C71.2,101.5,71.2,101.5,71.1,101.5c0.1,0.6,0.1,1,0.1,1.4c0.1,3.4,2.5,5.7,5.6,6
		c3.4,0.3,6.2-1.8,6.6-5.2c0.1-1.5,0.1-3.1,0-4.6c-0.4-2.8-2.8-4.8-5.5-5c-2.9-0.1-5.5,1.5-6.3,4.2C71.2,99.4,71.2,100.6,71.1,101.5
		z M119.1,101.7L119.1,101.7c0.1,0.6,0.1,1.1,0.1,1.7c0.3,3.2,2.5,5.6,5.6,5.7c3.4,0.1,6-1.8,6.6-5.2c0.3-1.7,0.1-3.5-0.1-5.3
		c-0.6-2.7-3.1-4.5-5.7-4.5c-2.8,0-5.3,1.8-6,4.5C119.2,99.6,119.2,100.6,119.1,101.7z M94.8,115.7c2.7,3.9,2.2,8.3,2.2,12.3
		c2.9,0,5.7,0,8.6,0c0-4.3-0.4-8.6,2.2-12.3C103.3,115.7,99.3,115.7,94.8,115.7z"/>
	<path class="st1" d="M97.9,178.1c0-1.8,1.4-3.1,3.2-3.1s3.2,1.5,3.2,3.2c-0.1,1.8-1.5,3.1-3.2,3.1
		C99.1,181.2,97.9,179.9,97.9,178.1z"/>
</g>
</svg>
