<?xml version="1.0" encoding="utf-8"?>
<!-- Generator: Adobe Illustrator 24.0.0, SVG Export Plug-In . SVG Version: 6.00 Build 0)  -->
<svg version="1.1" id="Capa_1" xmlns="http://www.w3.org/2000/svg" xmlns:xlink="http://www.w3.org/1999/xlink" x="0px" y="0px"
	 viewBox="0 0 80 80" style="enable-background:new 0 0 80 80;" xml:space="preserve">
<style type="text/css">
	.st0{fill:#ACAEAF;}
	.st1{fill:#FE9900;}
	.st2{fill:#1C3247;}
</style>
<g>
	<path class="st0" d="M8.78,73.18c-0.74-0.4-0.97-1.02-0.97-1.86c0.02-12.58,0.02-25.17,0-37.75c0-0.71,0.2-1.25,0.71-1.76
		c3.94-3.91,7.86-7.84,11.77-11.78c0.51-0.51,1.04-0.73,1.76-0.72c2.76,0.03,5.53,0,8.29,0.02c0.47,0,0.8-0.13,1.13-0.46
		c5.01-5.03,10.04-10.05,15.06-15.07c1.06-1.06,1.63-1.06,2.7,0.01c3.25,3.25,6.49,6.49,9.74,9.74c0.96,0.96,0.96,1.61,0.01,2.56
		c-1.03,1.03-2.07,2.06-3.24,3.23c1.01,0,1.84,0.02,2.67-0.01c0.62-0.02,1.09,0.2,1.52,0.63c3.98,3.99,7.99,7.97,11.95,11.98
		c0.34,0.35,0.6,0.95,0.6,1.44c0.05,4.43,0.03,8.86,0.03,13.29c0,1.04-0.55,1.69-1.39,1.68c-0.83-0.01-1.35-0.66-1.35-1.71
		c0-3.79,0-7.58,0-11.37c0-0.24,0-0.49,0-0.77c-19.75,0-39.43,0-59.16,0c0,11.97,0,23.92,0,35.92c19.69,0,39.39,0,59.16,0
		c0-0.26,0-0.5,0-0.74c0-3.84,0-7.67,0-11.51c0-0.88,0.43-1.44,1.14-1.55c0.92-0.14,1.59,0.48,1.6,1.5c0.01,2.03,0,4.07,0,6.1
		c0,2.38-0.03,4.75,0.02,7.13c0.02,0.84-0.23,1.46-0.97,1.86C50.62,73.18,29.7,73.18,8.78,73.18z M28.29,22.07
		c-2,0-3.94-0.01-5.88,0.02c-0.21,0-0.46,0.18-0.62,0.34c-2.95,2.93-5.88,5.87-8.82,8.82c-0.11,0.11-0.2,0.25-0.33,0.41
		c18.38,0,36.67,0,55.02,0c-0.08-0.12-0.1-0.18-0.15-0.22c-3.04-3.04-6.07-6.07-9.12-9.09c-0.17-0.16-0.48-0.25-0.72-0.25
		c-1.21-0.03-2.42,0.03-3.63-0.03c-0.75-0.04-1.28,0.19-1.78,0.74c-0.82,0.9-1.72,1.73-2.73,2.72c1.11,0,2,0,2.88,0
		c0.59,0,1.19-0.03,1.78,0.02c0.78,0.07,1.33,0.71,1.28,1.43c-0.04,0.71-0.6,1.24-1.35,1.29c-0.16,0.01-0.32,0-0.48,0
		c-9,0-18,0-26.99,0c-0.21,0-0.41,0.01-0.62-0.01c-0.64-0.07-1.13-0.57-1.21-1.21c-0.07-0.59,0.3-1.2,0.89-1.39
		c0.3-0.09,0.63-0.11,0.94-0.12c1.22-0.01,2.44-0.01,3.71-0.01C29.73,24.28,27.95,23.86,28.29,22.07z M56.31,14.89
		c-2.84-2.84-5.65-5.65-8.37-8.36c-5.39,5.39-10.82,10.82-16.28,16.28c0.78,0.77,1.61,1.62,2.48,2.43c0.16,0.15,0.43,0.26,0.66,0.26
		c3.49,0.02,6.99,0.02,10.48,0c0.22,0,0.51-0.09,0.66-0.24C49.4,21.81,52.85,18.35,56.31,14.89z"/>
	<g>
		<path class="st0" d="M71.1,51.1c-0.75,0.01-1.34,0.62-1.33,1.37c0.01,0.73,0.64,1.35,1.36,1.35c0.76,0,1.39-0.66,1.37-1.42
			C72.47,51.65,71.86,51.09,71.1,51.1z"/>
		<path class="st1" d="M40.16,40.41c-6.67,0-12.07,5.39-12.06,12.06c0,6.61,5.4,12.03,12.02,12.06c6.63,0.03,12.09-5.41,12.1-12.05
			C52.23,45.81,46.83,40.41,40.16,40.41z M40.18,61.78c-5.12,0.01-9.33-4.19-9.33-9.31c0-5.15,4.16-9.31,9.3-9.32
			c5.16,0,9.33,4.15,9.33,9.29C49.49,57.56,45.3,61.77,40.18,61.78z"/>
	</g>
	<path class="st0" d="M71.1,51.1c0.76-0.01,1.37,0.55,1.4,1.3c0.03,0.76-0.61,1.42-1.37,1.42c-0.73,0-1.35-0.62-1.36-1.35
		C69.76,51.72,70.35,51.11,71.1,51.1z"/>
	<path class="st2" d="M38.97,52.83c1.29-1.29,2.56-2.57,3.83-3.84c0.19-0.19,0.38-0.39,0.58-0.58c0.63-0.58,1.41-0.6,1.96-0.06
		c0.57,0.55,0.56,1.35-0.04,2.01c-0.08,0.08-0.16,0.16-0.24,0.24c-1.63,1.63-3.26,3.26-4.89,4.89c-0.94,0.94-1.58,0.94-2.51,0.02
		c-0.83-0.82-1.65-1.64-2.47-2.47c-0.79-0.8-0.88-1.59-0.24-2.2c0.64-0.62,1.39-0.52,2.2,0.29c0.53,0.53,1.07,1.06,1.6,1.59
		C38.8,52.76,38.85,52.77,38.97,52.83z"/>
</g>
</svg>
