<?xml version="1.0" encoding="utf-8"?>
<!-- Generator: Adobe Illustrator 24.0.0, SVG Export Plug-In . SVG Version: 6.00 Build 0)  -->
<svg version="1.1" id="Capa_1" xmlns="http://www.w3.org/2000/svg" xmlns:xlink="http://www.w3.org/1999/xlink" x="0px" y="0px"
	 viewBox="0 0 198.4 198.4" style="enable-background:new 0 0 198.4 198.4;" xml:space="preserve">
<style type="text/css">
	.st0{fill:#ACAEAF;}
	.st1{fill:#FE9900;}
</style>
<path class="st0" d="M41.9,178.1c-0.2-0.1-0.4-0.2-0.6-0.3c-4.7-1.4-7.4-4.8-7.4-9.7c0-6.7,0-13.4,0-20.2c0-35.3,0-70.7,0-106
	c0-1.3,0.1-2.7,0.4-4c1.1-4.2,4.8-7,9.3-7c7.4,0,14.7,0,22.1,0c0.6,0,1.2,0,1.9,0c0-2,0-4,0-5.9c0-2.2,0.9-3.1,3.1-3.2
	c3.8,0,7.6,0,11.5,0c1,0,1.5-0.2,2-1.2c2.7-5.2,7.1-7.9,12.9-7.9c5.8,0,10.1,2.8,12.8,7.9c0.5,0.9,1,1.2,2,1.2c3.8-0.1,7.6,0,11.5,0
	c2.2,0,3.1,0.9,3.1,3.2c0,1.9,0,3.8,0,5.9c0.6,0,1.2,0,1.8,0c7.3,0,14.5,0,21.8,0c6.2,0,10.2,4,10.2,10.2c0,42.3,0,84.5,0,126.8
	c0,5.2-2.2,8-8,10.1C115.5,178.1,78.7,178.1,41.9,178.1z M67.8,36.1c-7.8,0-15.4,0-23,0c-4.1,0-5.6,1.5-5.6,5.7
	c0,41.8,0,83.7,0,125.5c0,4.1,1.5,5.6,5.7,5.6c34.9,0,69.7,0,104.6,0c4.2,0,5.8-1.5,5.8-5.7c0-9.1,0-18.2,0-27.3
	c0-32.8,0-65.5,0-98.3c0-4-1.6-5.6-5.5-5.6c-7.1,0-14.2,0-21.3,0c-0.6,0-1.1,0-1.6,0c-0.1,0.3-0.1,0.4-0.1,0.6c0,1.8,0,3.5,0,5.3
	c0,2.2-0.9,3.2-3.1,3.2c-17.5,0-35.1,0-52.6,0c-2.1,0-3-0.9-3-3.1C67.7,40.1,67.8,38.2,67.8,36.1z M73,39.8c16.2,0,32.2,0,48.2,0
	c0-4.3,0-8.5,0-12.8c-3.8,0-7.4,0-11.1,0c-3.1,0-3.2-0.1-4.3-3c-1.3-3.6-4.8-6.1-8.7-6.1c-3.9,0-7.4,2.4-8.7,6.1c-1,2.9-1.2,3-4.3,3
	c-3.7,0-7.4,0-11.1,0C73,31.4,73,35.6,73,39.8z"/>
<g>
	<path class="st0" d="M86.1,60.3c0.2,0.1,0.4,0.2,0.6,0.2c2.4,0.7,4.2,2.9,4.2,5.4c0,3.3,0.1,6.6,0,9.8c0,2.3-0.9,4.2-2.5,5.9
		c-1,1-0.6,3,0.7,3.5c1.8,0.6,3.6,1.1,5.6,1.7c0-0.4,0-0.6,0-0.9c0-1.5,0-3,0-4.5c0-2.1,1.6-3.7,3.6-3.7c7.9,0,15.7,0,23.6,0
		c2,0,3.6,1.6,3.6,3.6c0,5.2,0,10.4,0,15.6c0,2.1-1.6,3.6-3.7,3.7c-2.3,0-4.7,0-7,0c-0.3,0-0.6,0-1,0c0,1.2,0,2.3,0,3.5
		c0.3,0,0.7,0,1,0c7,0,14,0,20.9,0c1.8,0,3.1,0.5,3.9,2.2c0,1.9,0,3.8,0,5.7c-0.7,1.7-2.1,2.2-3.9,2.2c-23.9,0-47.7,0-71.6,0
		c-0.4,0-0.7,0-1.2,0c0,0.4,0,0.7,0,1.1c0,9.5,0,19,0,28.5c0,0.4,0.1,0.8-0.1,1.1c-0.3,0.4-0.7,0.8-1.1,0.9
		c-0.6,0.1-1.1-0.3-1.2-0.9c-0.1-0.3-0.1-0.7-0.1-1.1c0-9.5,0-18.9,0-28.4c0-0.4,0-0.7,0-1.1c-1.1,0-2.1,0-3.2,0
		c-1.9,0-3.1-1.2-3.1-3.1c0-1.3,0-2.6,0-3.8c0-1.9,1.2-3.1,3.1-3.1c3.9,0,7.7,0,11.6,0c0.3,0,0.6,0,1,0c0-0.6,0-1.1,0-1.7
		c0-1.1,0.4-1.7,1.2-1.7c0.8,0,1.3,0.5,1.3,1.7c0,0.5,0,1.1,0,1.6c2.7,0,5.3,0,8.1,0c0-4,0-7.9,0-12.1c-0.4,0.4-0.7,0.8-1,1.1
		c-1.1,1.2-2.4,1.3-3.7,0.3c-1.5-1.3-3-2.6-4.6-3.9c-0.2-0.2-0.7-0.3-1-0.2c-0.7,0.1-1.3,0.4-2,0.6c-2.6,0.8-4.1,2.8-4.2,5.5
		c0,1.6,0,3.2,0,4.8c0,0.9-0.5,1.5-1.2,1.5c-0.8,0-1.3-0.5-1.3-1.5c0-2-0.1-4,0.1-5.9c0.4-3.4,2.4-5.7,5.6-6.8
		c2.3-0.8,4.6-1.4,6.9-2.1c1-0.3,1.5-0.9,1.7-1.9c0.1-0.7,0-1.2-0.5-1.7c-1.7-1.6-2.6-3.7-2.6-6c0-3.2,0-6.5,0-9.7
		c0-2.8,1.8-4.9,4.5-5.6c0.1,0,0.3-0.1,0.4-0.1C80.6,60.3,83.4,60.3,86.1,60.3z M106.5,98.3c0-0.9,0-1.7,0-2.5c0-2.3,1.6-4,3.7-4
		c2.2,0,3.7,1.7,3.8,4c0,0.8,0,1.6,0,2.5c2.6,0,5.1,0,7.6,0c1.1,0,1.6-0.4,1.6-1.6c0-4.9,0-9.8,0-14.8c0-1.2-0.4-1.6-1.6-1.6
		c-7.5,0-15.1,0-22.6,0c-1.2,0-1.6,0.4-1.6,1.7c0,2.8,0,5.7,0,8.5c0,2.1,0,4.2,0,6.3c0,1,0.4,1.5,1.3,1.5
		C101.2,98.3,103.8,98.3,106.5,98.3z M97.2,106.7c-9.7,0-19.3,0-29,0c-3.4,0-6.8,0-10.3,0c-1.1,0-1.1,0-1.1,1.1c0,0.8,0,1.7,0,2.5
		c0,1.4,0,1.4,1.3,1.4c25.9,0,51.8,0,77.8,0c0.2,0,0.4,0,0.6,0c0.6,0.1,0.8-0.2,0.8-0.8c0-1,0-1.9,0-2.9c0-1.3,0-1.3-1.3-1.3
		C123.1,106.7,110.2,106.7,97.2,106.7z M99.9,100.8c-0.4,0-0.7,0-0.9,0c-2.7,0-4.1-1.5-4.2-4.2c0-1.5,0-2.9,0-4.4c0-0.9,0-1.7,0-2.5
		C93.7,89,92.9,89.1,92,90c-1.2,1.2-2.6,2.3-4,3.4c-1.3,1.1-2.6,1-3.7-0.3c-0.3-0.3-0.6-0.7-1-1.1c0,4.2,0,8.2,0,12.2
		c2.7,0,5.3,0,8,0c0-0.7,0-1.3,0-2c0-0.8,0.5-1.4,1.3-1.4c0.7,0,1.2,0.5,1.2,1.4c0,0.7,0,1.3,0,2c1.1,0,2.1,0,3.1,0c1,0,2,0,3,0
		C99.9,103,99.9,102,99.9,100.8z M88.7,74.5c-0.1,0-0.2,0-0.2-0.1c0-0.2,0-0.3,0-0.5c-0.1-0.5,0-1.3-0.3-1.5
		c-1.6-1.3-3.5-2.2-5.6-1.8c-2.3,0.5-4.5,1.3-6.7,2c-0.2,0.1-0.3,0.4-0.3,0.6c0,0.8,0,1.7,0,2.5c0.1,2.9,2.2,5.4,5.1,6
		c2.8,0.6,5.9-0.8,7.1-3.5C88.2,77.2,88.4,75.8,88.7,74.5z M75.6,70.1c1.6-0.5,3.1-1,4.6-1.5c1.9-0.6,3.8-0.8,5.7-0.2
		c0.8,0.3,1.6,0.6,2.5,1c0-1.2,0.1-2.5,0-3.7c-0.1-1.6-1.5-2.8-3.1-2.8c-2.2,0-4.4,0-6.7,0c-1.5,0-2.9,1.2-3,2.7
		C75.5,67,75.6,68.5,75.6,70.1z M111.5,104.2c0-2.9,0-5.6,0-8.4c0-1-0.4-1.6-1.2-1.6c-0.8,0-1.3,0.6-1.3,1.6c0,2.6,0,5.2,0,7.8
		c0,0.2,0,0.4,0.1,0.6C109.9,104.2,110.6,104.2,111.5,104.2z M106.4,100.8c-1.3,0-2.6,0-4,0c0,1.1,0,2.2,0,3.4c1.3,0,2.6,0,4,0
		C106.4,103.1,106.4,102,106.4,100.8z M78.8,83.9c-0.7,0.9-0.2,1.4,0.6,1.8c0.8,0.4,1.5,0.9,2.2,1.3c0.2,0.1,0.5,0.2,0.7,0.1
		c1.2-0.7,2.3-1.4,3.5-2c-0.1-0.4-0.2-0.8-0.4-1.2C83.2,84.6,81,84.7,78.8,83.9z M83.9,89c0.8,0.9,1.6,1.7,2.3,2.6
		c1.3-1.1,2.6-2.2,3.9-3.3c-1-0.4-1.8-0.8-2.6-1.1c-0.2-0.1-0.4,0-0.6,0.1C86,87.8,85,88.4,83.9,89z M73.9,88.3
		c1.3,1.1,2.5,2.2,3.8,3.3c0.8-0.9,1.5-1.7,2.3-2.6c-1-0.6-2-1.2-2.9-1.7c-0.1-0.1-0.4-0.1-0.5-0.1C75.8,87.5,74.9,87.9,73.9,88.3z"
		/>
	<path class="st1" d="M97.1,120.1c7.1,0,12.9,5.7,12.9,12.8c0,7.1-5.7,12.9-12.8,12.9c-7.1,0-12.9-5.8-12.9-12.9
		C84.3,125.8,90,120.1,97.1,120.1z M97.2,122.6c-5.7,0-10.4,4.6-10.4,10.3c0,5.8,4.6,10.4,10.3,10.4c5.7,0,10.4-4.6,10.4-10.3
		C107.5,127.2,102.9,122.6,97.2,122.6z"/>
	<path class="st0" d="M133.6,131.6c0,4.1,0,8.2,0,12.3c0,0.3,0.1,0.8-0.1,1c-0.3,0.4-0.8,0.8-1.2,0.8c-0.4,0-0.8-0.5-1.2-0.8
		c-0.1-0.2-0.1-0.5-0.1-0.8c0-8.3,0-16.6,0-24.9c0-0.3,0-0.6,0.1-0.8c0.1-0.6,0.5-0.9,1.1-0.9c0.6,0,1.1,0.3,1.2,0.9
		c0.1,0.3,0.1,0.7,0.1,1C133.6,123.4,133.6,127.5,133.6,131.6z"/>
	<path class="st1" d="M98.4,135.5c0,1.4,0,2.7,0,4.1c0,1-0.5,1.5-1.2,1.6c-0.8,0-1.3-0.5-1.3-1.5c0-2.8,0-5.6,0-8.3
		c0-1,0.5-1.5,1.3-1.5c0.8,0,1.2,0.5,1.2,1.6C98.4,132.7,98.4,134.1,98.4,135.5z"/>
	<path class="st1" d="M98.3,126c0,0.7-0.6,1.2-1.2,1.2c-0.7,0-1.2-0.6-1.2-1.3c0-0.7,0.6-1.2,1.3-1.2
		C97.9,124.8,98.4,125.3,98.3,126z"/>
</g>
</svg>
