<?xml version="1.0" encoding="utf-8"?>
<!-- Generator: Adobe Illustrator 24.0.0, SVG Export Plug-In . SVG Version: 6.00 Build 0)  -->
<svg version="1.1" id="Capa_1" xmlns="http://www.w3.org/2000/svg" xmlns:xlink="http://www.w3.org/1999/xlink" x="0px" y="0px"
	 viewBox="0 0 200 200" style="enable-background:new 0 0 200 200;" xml:space="preserve">
<style type="text/css">
	.st0{fill:#ACAEAF;}
	.st1{fill:#FE9900;}
	.st2{fill:#1C3247;}
</style>
<g>
	<path class="st0" d="M33.3,189.3c-1.1-0.5-2.4-0.9-3.4-1.6c-2.9-1.9-4.4-4.7-4.4-8.2c0-22.3,0-44.7,0-67c0-2.1,1-3.2,2.6-3.2
		c1.7,0,2.6,1.1,2.6,3.4c0,21.7,0,43.4,0,65.1c0,0.7,0,1.4,0.1,2.1c0.3,2.5,1.9,4.1,4.5,4.2c1.7,0,3.4,0,5,0c29,0,58,0,87,0
		c0.7,0,1.3,0,2,0c-6.7-4.5-14.3-7.7-18.7-15.2c-1,2.1-2.5,2.2-4.3,2.2c-6-0.1-11.9,0-17.9,0c-0.6,0-1.3,0-1.9-0.1
		c-1.3-0.3-2.2-1.3-1.9-2.5c0.2-0.9,1-1.8,1.8-2.4c0.5-0.4,1.3-0.2,2-0.2c6.7,0,13.4,0,20.2,0c-0.6-1.5-1-3.1-1.7-4.5
		c-0.2-0.4-1.1-0.8-1.6-0.8c-5.8-0.1-11.7,0-17.5-0.1c-0.9,0-1.9-0.3-2.5-0.9c-0.5-0.6-0.8-1.9-0.5-2.5c0.5-0.8,1.5-1.7,2.4-1.8
		c2.5-0.2,5-0.1,7.5-0.1c3.6,0,7.2,0,10.9,0c0-1.5,0-2.9,0-4.5c-0.7,0-1.3-0.1-1.9-0.1c-5.3,0-10.7,0-16,0c-1.4,0-2.5-0.4-3-1.8
		c-0.6-1.8,0.7-3.3,2.8-3.4c5.3,0,10.7,0,16,0c0.6,0,1.3,0,2,0c0-1.8,0-3.4,0-5.2c-0.6,0-1.3-0.1-1.9-0.1c-5,0-10.1,0-15.1,0
		c-0.6,0-1.2,0-1.7-0.1c-1.5-0.3-2.3-1.2-2.2-2.7c0.1-1.4,1-2.4,2.5-2.4c2.7-0.1,5.4,0,8.2,0c3.4,0,6.8,0,10.3,0c0-1.8,0-3.5,0-5.4
		c-0.7,0-1.3,0-1.9,0c-5.2,0-10.4,0-15.6,0c-2.2,0-3.4-0.9-3.4-2.5c0-1.7,1.3-2.7,3.5-2.7c5.2,0,10.3,0,15.5,0c0.6,0,1.2,0,2,0
		c0-1.8,0-3.5,0-5.3c-0.7,0-1.3,0-1.9,0c-5.3,0-10.5,0-15.8,0c-2,0-3.2-1-3.2-2.6c0-1.6,1.2-2.6,3.2-2.6c5.7,0,11.4-0.2,17,0
		c5.8,0.2,11.4-0.6,16.9-2.3c5.5-1.7,11.2-3,16.8-4.5c0.9-0.2,2-0.2,2.9,0c8.5,2.2,17,4.5,25.5,6.7c0.5,0.1,1.1,0.3,1.9,0.5
		c0-0.8,0.1-1.5,0.1-2.1c0-13.5,0-27.1,0-40.6c0-0.6,0-1.3,0.1-1.9c0.2-1.3,1-2.1,2.3-2.1c1.4-0.1,2.4,0.6,2.6,2
		c0.2,0.8,0.1,1.6,0.1,2.4c0,35.1,0,70.2,0,105.3c0,7.1-1.5,9.3-7.9,12C121.8,189.3,77.6,189.3,33.3,189.3z M110.8,119.9
		c0,0.6-0.1,1-0.1,1.5c0,10.2-0.1,20.4,0,30.6c0.1,9.9,4.5,17.4,13,22.5c4.9,2.9,9.8,5.7,14.7,8.6c0.9,0.5,1.6,0.6,2.5,0
		c4.8-2.8,9.6-5.6,14.4-8.4c8.8-5.2,13.3-12.9,13.3-23.2c0.1-10,0-19.9,0-29.9c0-1.3-0.3-1.8-1.6-2.1c-6.6-1.7-13.2-3.1-19.6-5.3
		c-5.3-1.8-10.3-1.7-15.6,0C125,116.4,117.9,118,110.8,119.9z M168.6,169.9c-4.6,6.8-12,9.8-18.5,14c4.8,0.1,9.6,0.2,14.3,0.1
		c2.2,0,4.1-1.5,4.2-3.6C168.7,176.9,168.6,173.4,168.6,169.9z"/>
	<path class="st0" d="M168.7,42c-46.1,0-91.9,0-138,0c0,0.8,0,1.5,0,2.3c0,18,0,36,0,54c0,2.8-0.8,4.1-2.7,4c-1.8-0.1-2.5-1.3-2.5-4
		c0-25.3,0-50.6,0-75.9c0-7.1,3.8-11,10.9-11c42.3,0,84.5,0,126.8,0c6.9,0,10.8,3.9,10.8,10.7c0,11.5,0,23,0,34.6c0,0.5,0,1-0.1,1.6
		c-0.2,1.5-1.1,2.3-2.6,2.2c-1.5,0-2.4-0.9-2.5-2.4c-0.1-2.4,0-4.9-0.1-7.3C168.7,47.9,168.7,45.1,168.7,42z M168.6,36.6
		c0-5.5,0.1-11-0.1-16.4c-0.1-2.3-2.1-3.6-4.9-3.6c-42.6,0-85.2,0-127.8,0c-3.3,0-5,1.7-5.1,5c0,4.6,0,9.1,0,13.7
		c0,0.4,0.1,0.8,0.1,1.3C76.7,36.6,122.6,36.6,168.6,36.6z"/>
	<path class="st1" d="M65.3,105.1c-15,0-27.2-12.1-27.2-27.1c0-15,12.1-27.2,27.1-27.2c15,0,27.2,12.2,27.2,27.1
		C92.4,92.8,80.3,105,65.3,105.1z M47,89.6c3-5,3-5,10-9.9C53.2,73.4,53.5,68,58,64c3.9-3.5,9.9-3.7,14.1-0.5c2.1,1.6,3.4,3.7,4,6.3
		c0.8,3.7-0.2,6.9-2.6,9.9c4.6,2.1,7.9,5.5,10.2,10c6.2-8.8,4.2-21.5-4.3-28.7c-8.6-7.2-21.3-6.7-29.4,1.2
		C41.2,70.8,42.1,83.2,47,89.6z M65.8,99.8c4.4,0,9-1.5,13-4.6c0.8-0.6,0.9-1.2,0.6-2.1c-2-5.8-7.7-9.8-13.9-9.8
		c-6.4,0-12.1,3.9-14.2,9.8c-0.4,1-0.2,1.6,0.7,2.2C55.8,98.2,60.2,99.8,65.8,99.8z M71.1,72.2c0-3.2-2.8-5.8-5.9-5.8
		c-3.1,0.1-5.7,2.7-5.7,5.8c0,3.2,2.7,5.9,5.8,5.9C68.5,78.1,71.2,75.4,71.1,72.2z"/>
	<path class="st1" d="M130.6,60.5c8.9,0,17.8,0,26.7,0c3.2,0,3.9,0.7,3.9,3.8c0,2.7,0,5.4,0,8.2c0,3-0.8,3.8-3.8,3.8
		c-17.4,0-34.7,0-52.1,0c-0.8,0-1.5,0-2.3,0c-2.3-0.1-3.2-0.9-3.2-3.1c0-3.1,0-6.2,0-9.4c0-2.4,0.9-3.3,3.3-3.3c5.5,0,11,0,16.5,0
		C123.3,60.5,127,60.5,130.6,60.5z M105.2,71c17,0,33.9,0,50.7,0c0-1.8,0-3.4,0-5.2c-16.9,0-33.8,0-50.7,0
		C105.2,67.6,105.2,69.2,105.2,71z"/>
	<path class="st2" d="M54.9,129.6c-4.5,0-9,0-13.5,0c-2.3,0-3.2-0.9-3.2-3.1c0-3.2,0-6.4,0-9.6c0-2.1,0.9-3,3-3c9.1,0,18.2,0,27.3,0
		c2,0,3,0.9,3,3c0.1,3.2,0.1,6.5,0,9.7c0,2.1-1,3-3.2,3C63.8,129.6,59.3,129.6,54.9,129.6z M43.4,124.2c7.7,0,15.2,0,22.7,0
		c0-1.8,0-3.4,0-5c-7.6,0-15.1,0-22.7,0C43.4,120.9,43.4,122.5,43.4,124.2z"/>
	<path class="st2" d="M54.7,150.7c-4.4,0-8.8,0-13.2,0c-2.5,0-3.3-0.9-3.3-3.3c0-3.1,0-6.3,0-9.4c0-2.1,0.9-3,3-3
		c9.1,0,18.2,0,27.3,0c2.1,0,3,0.9,3,2.9c0.1,3.2,0.1,6.5,0,9.7c0,2.1-1,3-3.2,3C63.7,150.7,59.2,150.7,54.7,150.7z M43.4,145.3
		c7.7,0,15.2,0,22.6,0c0-1.8,0-3.4,0-5c-7.6,0-15.1,0-22.6,0C43.4,142,43.4,143.6,43.4,145.3z"/>
	<path class="st2" d="M54.9,171c-4.5,0-8.9,0-13.4,0c-2.5,0-3.3-0.8-3.3-3.3c0-3.1,0-6.3,0-9.4c0-2,0.9-3,3-3c9.1,0,18.2,0,27.3,0
		c2,0,3,1,3,3c0.1,3.2,0.1,6.5,0,9.7c0,2.1-1,3-3.2,3C63.8,171,59.3,171,54.9,171z M66.1,165.7c0-1.8,0-3.4,0-5.1
		c-7.6,0-15.1,0-22.6,0c0,1.7,0,3.4,0,5.1C51,165.7,58.5,165.7,66.1,165.7z"/>
	<path class="st1" d="M120,86.8c-5.6,0-11.1,0-16.7,0c-2.2,0-3.4-0.9-3.4-2.6c0-1.7,1.2-2.6,3.4-2.6c11.2,0,22.4,0,33.7,0
		c2.6,0,4.1,2.1,2.8,3.9c-0.5,0.7-1.8,1.3-2.8,1.3C131.3,86.9,125.6,86.8,120,86.8z"/>
	<path class="st1" d="M112.9,97.3c-3.3,0-6.6,0-9.9,0c-2,0-3-0.9-3-2.5c0-1.6,1.1-2.6,3-2.6c6.7,0,13.4,0,20.1,0c1.9,0,3,1,3.1,2.6
		c0,1.7-1.1,2.6-3.2,2.6C119.6,97.3,116.2,97.3,112.9,97.3z"/>
	<path class="st0" d="M163.3,140.1c0,3.9,0,7.8,0,11.6c0,8-3.6,14.1-10.5,18.2c-3.7,2.2-7.4,4.3-11.1,6.5c-1.4,0.8-2.6,0.9-4,0
		c-3.8-2.3-7.7-4.4-11.5-6.7c-6.7-4-10.1-10-10.2-17.8c-0.1-8.3,0-16.7,0-25c0-2.4,0.5-3,2.8-3.6c6.4-1.7,12.8-3.5,19.3-5.1
		c1-0.2,2.1-0.3,3,0c6.6,1.7,13.2,3.5,19.8,5.2c1.7,0.5,2.5,1.5,2.4,3.3C163.3,131.1,163.3,135.6,163.3,140.1z M158.1,141.5
		c0-4-0.1-8,0-12c0-1.3-0.4-1.7-1.6-2c-5.3-1.3-10.5-2.8-15.8-4.2c-0.7-0.2-1.5-0.2-2.2,0c-5.4,1.4-10.7,2.9-16.1,4.3
		c-1.1,0.3-1.3,0.7-1.3,1.8c0,7.6-0.1,15.3,0,22.9c0.1,5.5,2.6,9.8,7.3,12.7c3.3,2.1,6.8,4,10.2,5.9c0.5,0.3,1.5,0.3,2,0
		c3.3-1.8,6.7-3.7,9.9-5.7c4.9-3,7.4-7.3,7.5-13.1C158.1,148.5,158.1,145,158.1,141.5z"/>
	<path class="st0" d="M137.6,26.6c0,2-1.5,3.5-3.5,3.5c-1.9,0-3.5-1.6-3.5-3.5c0-1.9,1.5-3.4,3.4-3.4
		C136,23.1,137.6,24.6,137.6,26.6z"/>
	<path class="st0" d="M146.4,23.2c2,0,3.5,1.5,3.4,3.5c0,1.9-1.5,3.4-3.4,3.4c-1.9,0-3.6-1.6-3.6-3.5
		C142.8,24.8,144.4,23.2,146.4,23.2z"/>
	<path class="st0" d="M155.2,26.6c0-2,1.5-3.5,3.5-3.4c1.9,0,3.4,1.6,3.4,3.4c0,1.9-1.6,3.5-3.5,3.5
		C156.7,30.2,155.2,28.6,155.2,26.6z"/>
</g>
</svg>
