<?xml version="1.0" encoding="utf-8"?>
<!-- Generator: Adobe Illustrator 24.0.0, SVG Export Plug-In . SVG Version: 6.00 Build 0)  -->
<svg version="1.1" id="Capa_1" xmlns="http://www.w3.org/2000/svg" xmlns:xlink="http://www.w3.org/1999/xlink" x="0px" y="0px"
	 viewBox="0 0 200 200" style="enable-background:new 0 0 200 200;" xml:space="preserve">
<style type="text/css">
	.st0{fill:#FE9900;}
	.st1{fill:none;}
	.st2{fill:#ACAEAF;}
	.st3{fill:#1C3247;}
</style>
<g>
	<path class="st0" d="M41.3,120.9c0,1.9,0,3.7,0,5.4c0,1.4,0,2.7,0,4.1c0-1.4,0-2.7,0-4.1C41.3,124.6,41.3,122.8,41.3,120.9z"/>
	<path class="st1" d="M125.5,47.1c2.9,0,3.9-1,3.9-3.7c0-7.3,0-14.6,0-21.8c0-2.7-1-3.7-3.7-3.7c-34.7,0-69.4,0-104.1,0
		c-2.7,0-3.7,1-3.7,3.7c0,7.1,0,14.3,0,21.4c0,3.2,0.9,4.1,4.1,4.1c17.2,0,34.4,0,51.6,0C90.9,47.1,108.1,47.1,125.5,47.1z
		 M123.4,41.1c-1.9,0-3.7,0-5.6,0c0-1.9,0-3.6,0-5.6c1.9,0,3.6,0,5.6,0C123.4,37.4,123.4,39.2,123.4,41.1z M117.8,23.7
		c1.9,0,3.6,0,5.6,0c0,1.9,0,3.7,0,5.6c-1.9,0-3.7,0-5.6,0C117.8,27.5,117.8,25.6,117.8,23.7z M41.3,36.7c0,0.5,0,0.9,0,1.4
		c0,2-1.2,3.2-3.2,3.2c-3.7,0-7.5,0-11.2,0c-2,0-3.2-1.2-3.2-3.2c0-3.7,0-7.5,0-11.2c0-2,1.2-3.2,3.2-3.2c3.7,0,7.5,0,11.2,0
		c2,0,3.2,1.2,3.2,3.2c0,1.9,0,3.7,0,5.6C41.3,33.9,41.3,35.3,41.3,36.7z M64.7,37.9c0,2.4-1,3.4-3.4,3.4c-3.6,0-7.1,0-10.9,0
		c-2.4,0-3.4-1-3.4-3.4c0-3.6,0-7.1,0-10.9c0-2.4,1-3.4,3.4-3.4c3.6,0,7.1,0,10.9,0c2.4,0,3.4,1,3.4,3.6c0,1.7,0,3.6,0,5.3
		C64.7,34.3,64.9,36,64.7,37.9z M70.7,23.7c13.6,0,27.2,0,40.8,0c0,1.9,0,3.7,0,5.6c-13.6,0-27.2,0-40.8,0
		C70.7,27.5,70.7,25.6,70.7,23.7z M70.7,35.5c13.6,0,27.2,0,41,0c0,1.9,0,3.7,0,5.6c-13.6,0-27.2,0-41,0
		C70.7,39.2,70.7,37.4,70.7,35.5z"/>
	<path class="st1" d="M132.3,70.5c9.9,0.2,19.7,0.5,29.3,2.6C152,71.2,142.2,70.7,132.3,70.5c-10.5,0.2-21.1,0.7-31.3,3.1
		C111.2,71.4,121.7,70.7,132.3,70.5z"/>
	<path class="st2" d="M188.3,84c0-3.9-1.4-7-4.6-8.8c-3.4-2-7.1-3.9-10.9-5.1c-11.7-3.7-23.8-4.8-36.1-5.1c-1.4,0-2.2-0.2-2.9-1.5
		c-1.5-2.7-4.1-4.3-7.1-4.4c-1,0-2,0-3.1,0c0-2,0-3.9,0-6c0.7,0,1.2,0,1.7,0c6.3,0,9.9-3.6,9.9-9.9c0-7.1,0-14.3,0-21.4
		c0-6.1-3.6-9.7-9.9-9.7c-16.2,0-32.5,0-48.7,0c-18.5,0-37.1,0-55.6,0c-5.3,0-9.2,3.6-9.2,8.7c0,8,0,15.8,0,23.8
		c0,4.8,3.9,8.5,8.5,8.7c1,0,2,0,3.1,0c0,2,0,3.9,0,6c-1,0-2,0-2.9,0c-4.8,0.2-8.7,3.9-8.7,8.7c0,8,0,15.8,0,23.8
		c0,4.8,3.9,8.5,8.5,8.7c1,0,2,0,3.2,0c0,1.2,0,2,0,2.9c0,1,0,1.9,0,2.9c-0.7,0-1.2,0-1.7,0c-6.6,0-10,3.4-10,10c0,7,0,14.1,0,21.1
		c0,6.3,3.6,9.9,9.9,9.9c17.4,0,34.9,0,52.2,0c0.7,0,1.5,0,2.4,0c0,7.3,0.2,14.3,0,21.3c-0.2,4.9,1.9,8.2,5.8,10.4
		c3.4,1.9,7,3.4,10.7,4.6c10.4,3.1,20.9,4.3,31.6,4.6c14.5,0.5,28.8-0.2,42.9-3.6c5.6-1.4,11.2-3.1,16-6.5c3.1-2.2,4.6-5.1,4.6-9
		C188.1,140.6,188.1,112.2,188.3,84z M132.3,70.5c9.9,0.2,19.7,0.5,29.3,2.6c2.2,0.5,4.4,1,6.6,1.5c4.1,1.2,8,2.9,11.6,4.8
		c3.2,1.7,3.2,3.7,0,5.8c-4.9,3.2-10.5,4.8-16.3,6c-15.1,3.1-30.6,3.6-45.9,2.4c-9-0.7-18.2-2-26.9-5.4c-2.4-0.9-4.6-2-6.6-3.6
		c-2.2-1.4-2-2.9,0-4.6c3.7-2.9,8.2-4.3,12.6-5.4c1.5-0.3,2.9-0.7,4.4-1C111.2,71.4,121.7,70.7,132.3,70.5z M82.4,91.3
		c4.9,1.7,9.9,3.7,15,4.9c13.8,3.4,27.9,4.1,42,3.6c11.2-0.5,22.3-1.5,33-4.9c3.2-1,6.3-2.6,9.7-3.7c0,6.8,0.2,13.6-0.2,20.4
		c0,1-1,2.6-2,3.1c-3.4,1.7-7,3.6-10.7,4.6c-12.1,3.6-24.7,4.4-37.3,4.4c-12.1,0-24.2-0.9-35.7-4.1c-4.1-1.2-8-3.1-11.9-4.9
		c-1.7-0.7-2.2-2.2-2.2-4.1C82.4,103.9,82.4,97.4,82.4,91.3z M22,47.1c-3.2,0-4.1-0.9-4.1-4.1c0-7.1,0-14.3,0-21.4
		c0-2.7,1-3.7,3.7-3.7c34.7,0,69.4,0,104.1,0c2.7,0,3.7,1,3.7,3.7c0,7.3,0,14.6,0,21.8c0,2.9-1,3.7-3.9,3.7c-17.4,0-34.7,0-51.9,0
		C56.4,47.1,39.2,47.1,22,47.1z M117.7,53.2c0,1.9,0,3.6,0,5.6c-3.7,0-7.5,0-11.6,0c0-1.9,0-3.7,0-5.6
		C109.8,53.2,113.7,53.2,117.7,53.2z M100,53.2c0,1.9,0,3.7,0,5.6c-17.5,0-35.1,0-52.6,0c0-1.9,0-3.7,0-5.6
		C64.7,53.2,82.3,53.2,100,53.2z M41.1,53c0,1.9,0,3.7,0,5.6c-3.7,0-7.5,0-11.6,0c0-1.9,0-3.7,0-5.6C33.4,53,37.2,53,41.1,53z
		 M76.5,141.1c-0.7,0-1.4,0-2,0c-17.5,0-35.1,0-52.4,0c-3.4,0-4.3-0.9-4.3-4.3c0-7.1,0-14.5,0-21.6c0-2.4,1-3.6,3.4-3.6
		c18.2,0,36.2,0,54.4,0c0.2,0,0.3,0,0.7,0C76.5,121.6,76.5,131.3,76.5,141.1z M29.7,105.8c0-1.9,0-3.7,0-5.6c3.9,0,7.7,0,11.6,0
		c0,1.9,0,3.7,0,5.6C37.5,105.8,33.6,105.8,29.7,105.8z M47.2,105.8c0-1.9,0-3.7,0-5.6c9.7,0,19.4,0,29.1,0c0,1.9,0,3.7,0,5.6
		C66.8,105.8,57.1,105.8,47.2,105.8z M81.2,75c-3.4,1.9-4.9,5.1-4.8,9c0.2,3.2,0,6.6,0,10c-0.7,0-1.4,0.2-1.9,0.2
		c-17.5,0-35.1,0-52.7,0c-3.2,0-4.1-0.9-4.3-4.1c0-7.1,0-14.1,0-21.3c0-3.1,0.9-3.9,3.9-3.9c32.8,0,65.7,0,98.5,0c1.2,0,2.4,0,3.4,0
		c-10.4,0.7-20.8,1.7-30.6,4.9C88.9,70.9,85,72.7,81.2,75z M182.1,170.1c0,1-1,2.6-2,3.1c-3.6,1.7-7.1,3.6-10.9,4.8
		c-12.1,3.6-24.5,4.4-37.1,4.4c-12.1,0-24.2-0.9-35.7-4.1c-4.1-1.2-8-3.1-11.7-4.8c-1.7-0.9-2.4-2.4-2.4-4.4c0.2-6.5,0-12.8,0-19.2
		c3.2,1.4,6.5,2.7,9.7,3.7c9.2,2.9,18.5,4.1,28.1,4.8c12.6,0.9,25,0.5,37.4-1.4c8.3-1.2,16.7-3.1,24.5-7.5
		C182.3,156.5,182.3,163.3,182.1,170.1z M180.1,143.9c-4.4,2.9-9.5,4.4-14.6,5.6c-13.6,3.1-27.4,3.7-41.2,3.2
		c-9.4-0.3-18.7-1.2-27.7-3.9c-4.1-1.2-7.8-3.1-11.7-4.8c-1.9-0.9-2.6-2.4-2.6-4.6c0.2-6.3,0-12.8,0-19.2
		c12.1,6.3,24.8,7.8,37.8,8.8c12.6,0.9,25,0.5,37.4-1.4c8.3-1.2,16.7-3.1,24.5-7.3c0,0.7,0.2,1.2,0.2,1.7c0,6,0,11.9,0,18
		C182.3,141.7,181.6,142.8,180.1,143.9z"/>
	<path class="st2" d="M64.7,27.1c0,1.7,0,3.6,0,5.3s0,3.6,0,5.3c0-1.7,0-3.6,0-5.3S64.9,29,64.7,27.1z"/>
	<path class="st2" d="M129.6,146.9c1.9,0,3.7,0,5.6,0c0-2,0-3.7,0-5.6c-2,0-3.9,0-5.6,0C129.6,143.2,129.6,145.1,129.6,146.9z"/>
	<path class="st2" d="M135.2,108.8c-1.9,0-3.7,0-5.6,0c0,2,0,3.9,0,5.8c1.9,0,3.7,0,5.6,0C135.2,112.6,135.2,110.9,135.2,108.8z"/>
	<path class="st2" d="M129.6,173.3c2,0,3.9,0,5.6,0c0-1.9,0-3.7,0-5.6c-1.9,0-3.7,0-5.6,0C129.6,169.6,129.6,171.4,129.6,173.3z"/>
	<path class="st2" d="M41.3,26.8c0,1.9,0,3.7,0,5.6c0,1.4,0,2.7,0,4.1c0-1.4,0-2.7,0-4.1C41.3,30.5,41.4,28.7,41.3,26.8z"/>
	<path class="st2" d="M41.3,32.4c0-1.9,0-3.7,0-5.6c0-2-1.2-3.2-3.2-3.2c-3.7,0-7.5,0-11.2,0c-2,0-3.2,1.2-3.2,3.2
		c0,3.7,0,7.5,0,11.2c0,2,1.2,3.2,3.2,3.2c3.7,0,7.5,0,11.2,0c2,0,3.1-1.2,3.2-3.2c0-0.5,0-0.9,0-1.4C41.3,35.3,41.3,33.9,41.3,32.4
		z M35.3,35.3c-1.9,0-3.7,0-5.8,0c0-1.9,0-3.7,0-5.6c1.9,0,3.7,0,5.8,0C35.3,31.4,35.3,33.3,35.3,35.3z"/>
	<path class="st2" d="M64.7,32.4c0-1.7,0-3.6,0-5.3c0-2.4-1-3.6-3.4-3.6c-3.6,0-7.1,0-10.9,0c-2.2,0-3.4,1.2-3.4,3.4
		c0,3.6,0,7.1,0,10.9c0,2.2,1.2,3.4,3.4,3.4c3.6,0,7.1,0,10.9,0c2.2,0,3.4-1.2,3.4-3.4C64.9,36,64.7,34.3,64.7,32.4z M58.8,35.3
		c-1.9,0-3.7,0-5.6,0c0-1.9,0-3.6,0-5.6c1.9,0,3.7,0,5.6,0C58.8,31.4,58.8,33.3,58.8,35.3z"/>
	<path class="st2" d="M111.7,23.7c-13.8,0-27.2,0-40.8,0c0,1.9,0,3.7,0,5.6c13.8,0,27.4,0,40.8,0C111.7,27.3,111.7,25.4,111.7,23.7z
		"/>
	<path class="st2" d="M111.7,35.5c-13.8,0-27.4,0-41,0c0,1.9,0,3.7,0,5.6c13.6,0,27.2,0,41,0C111.7,39.2,111.7,37.4,111.7,35.5z"/>
	<path class="st2" d="M123.4,23.7c-2,0-3.9,0-5.6,0c0,1.9,0,3.7,0,5.6c2,0,3.7,0,5.6,0C123.4,27.5,123.4,25.6,123.4,23.7z"/>
	<path class="st2" d="M117.8,41.1c2,0,3.7,0,5.6,0c0-1.9,0-3.7,0-5.6c-2,0-3.9,0-5.6,0C117.8,37.5,117.8,39.4,117.8,41.1z"/>
	<path class="st3" d="M64.7,73.9c0-2.2-1.2-3.2-3.2-3.4c-3.7,0-7.3,0-11.1,0c-2.2,0-3.2,1-3.4,3.2c0,3.7,0,7.3,0,11.1
		c0,2.2,1.2,3.2,3.2,3.4c3.7,0,7.3,0,11.1,0c2.2,0,3.2-1.2,3.4-3.4c0-0.9,0-1.9,0-2.7s0-1.9,0-2.7C64.7,77.5,64.9,75.8,64.7,73.9z
		 M58.8,82.3c-1.9,0-3.7,0-5.6,0c0-1.9,0-3.6,0-5.6c1.9,0,3.7,0,5.6,0C58.8,78.4,58.8,80.2,58.8,82.3z"/>
	<path class="st3" d="M64.7,73.9c0,1.7,0,3.6,0,5.3c0,0.9,0,1.9,0,2.7c0-0.9,0-1.9,0-2.7C64.7,77.5,64.9,75.8,64.7,73.9z"/>
	<path class="st3" d="M41.3,73.8c0-1.9-1.2-3.1-3.1-3.1c-3.7,0-7.7,0-11.4,0c-1.9,0-3.1,1.2-3.1,3.1c0,3.7,0,7.7,0,11.4
		c0,1.9,1.2,3.1,3.1,3.1c3.7,0,7.7,0,11.4,0c1.9,0,3.1-1.2,3.1-3.1c0-1.9,0-3.7,0-5.4C41.3,77.7,41.4,75.6,41.3,73.8z M35.3,82.3
		c-1.9,0-3.7,0-5.6,0c0-1.9,0-3.7,0-5.6c1.9,0,3.7,0,5.6,0C35.3,78.5,35.3,80.2,35.3,82.3z"/>
	<path class="st0" d="M41.3,126.5c0-1.9,0-3.7,0-5.4c0-2.2-1-3.4-3.2-3.4c-3.7,0-7.5,0-11.2,0c-2,0-3.2,1.2-3.2,3.2
		c0,3.7,0,7.5,0,11.2c0,2,1.2,3.2,3.2,3.2c3.7,0,7.5,0,11.2,0c2,0,3.1-1.2,3.2-3.2c0-0.5,0-0.9,0-1.4
		C41.3,129.2,41.3,127.9,41.3,126.5z M35.5,129.2c-1.9,0-3.7,0-5.8,0c0-1.7,0-3.6,0-5.6c1.9,0,3.7,0,5.8,0
		C35.5,125.5,35.5,127.2,35.5,129.2z"/>
	<path class="st0" d="M61.7,117.7c-3.7,0-7.7,0-11.4,0c-1.9,0-3.1,1.2-3.1,3.1c0,3.7,0,7.7,0,11.4c0,1.9,1.2,3.1,3.1,3.1
		c0.5,0,1,0,1.4,0c1.4,0,2.9,0,4.3,0s2.9,0,4.3,0c0.5,0,1,0,1.4,0c1.9,0,3.1-1.2,3.1-3.1c0-3.7,0-7.7,0-11.4
		C64.7,118.7,63.7,117.7,61.7,117.7z M58.8,129.2c-1.9,0-3.7,0-5.6,0c0-1.9,0-3.7,0-5.6c1.9,0,3.6,0,5.6,0
		C58.8,125.5,58.8,127.4,58.8,129.2z"/>
	<path class="st2" d="M56.1,135.2c-1.4,0-2.9,0-4.3,0C53.2,135.2,54.5,135.2,56.1,135.2c1.4,0,2.9,0,4.3,0
		C58.8,135.2,57.4,135.2,56.1,135.2z"/>
</g>
</svg>
