<?xml version="1.0" encoding="utf-8"?>
<!-- Generator: Adobe Illustrator 24.0.0, SVG Export Plug-In . SVG Version: 6.00 Build 0)  -->
<svg version="1.1" id="Capa_1" xmlns="http://www.w3.org/2000/svg" xmlns:xlink="http://www.w3.org/1999/xlink" x="0px" y="0px"
	 viewBox="0 0 80 80" style="enable-background:new 0 0 80 80;" xml:space="preserve">
<style type="text/css">
	.st0{fill:#ACAEAF;}
	.st1{fill:#1C3247;}
	.st2{fill:#FE9900;}
</style>
<g>
	<path class="st0" d="M4.21,57.02c0.32-0.55,0.79-0.76,1.44-0.74c0.9,0.04,1.81,0.01,2.79,0.01c0-0.39,0-0.7,0-1
		c0-10.95,0.07-21.9-0.03-32.85c-0.04-4.75,3.5-7.38,7.41-7.37c16.79,0.05,33.58,0.02,50.36,0.02c2.96,0,5.25,1.17,6.66,3.84
		c0.54,1.02,0.68,2.13,0.68,3.28c0,11.02,0,22.05,0,33.07c0,0.31,0,0.62,0,1.02c1.07,0,2.1,0,3.12,0c0.99,0.01,1.36,0.36,1.36,1.34
		c0.01,1.2,0.01,2.4,0,3.6c-0.02,2.89-2.08,5.12-4.96,5.37c-0.21,0.02-0.43,0.02-0.65,0.02c-20.87,0-41.74,0-62.61,0
		c-1.99,0-3.62-0.7-4.72-2.4c-0.37-0.57-0.57-1.25-0.85-1.88C4.21,60.57,4.21,58.79,4.21,57.02z M67.16,56.24c0-0.29,0-0.55,0-0.81
		c0-11.02,0-22.04,0-33.06c0-1-0.06-1.06-1.05-1.06c-16.69,0-33.38,0-50.07,0c-1,0-1.02,0.02-1.02,1c0,11.07,0,22.14,0,33.21
		c0,0.25,0,0.5,0,0.73C32.44,56.24,49.74,56.24,67.16,56.24z M6.35,58.49c0,1.16-0.04,2.24,0.01,3.32c0.06,1.35,1.12,2.5,2.47,2.71
		c0.42,0.07,0.86,0.08,1.29,0.08c20.65,0,41.3,0,61.95,0c0.34,0,0.67,0,1.01-0.04c1.34-0.15,2.48-1.04,2.65-2.36
		c0.16-1.22,0.03-2.47,0.03-3.68c-8.25,0-16.47,0-24.73,0c0,0.85,0.02,1.64,0,2.43c-0.02,0.85-0.47,1.3-1.29,1.3
		c-5.76,0.01-11.53,0.01-17.29,0c-0.89,0-1.25-0.39-1.27-1.29c-0.01-0.81,0-1.62,0-2.46C22.88,58.49,14.65,58.49,6.35,58.49z
		 M71.48,56.26c0-0.34,0-0.6,0-0.86c0-11.05,0-22.1,0-33.14c0-3.13-1.88-5.03-5.01-5.03c-16.96,0-33.91,0-50.87,0
		c-3.06,0-5,1.94-5,4.99c0,11.07,0,22.14,0,33.22c0,0.26,0,0.52,0,0.81c0.79,0,1.49,0,2.26,0c0-0.32,0-0.6,0-0.89
		c0-11.07,0-22.14,0-33.22c0-1.97,0.94-2.9,2.92-2.9c16.79,0,33.58,0,50.37,0c2.07,0,3.04,0.97,3.04,3.03c0,11.02,0,22.05,0,33.07
		c0,0.3,0,0.6,0,0.91C70,56.26,70.69,56.26,71.48,56.26z M48.83,60.05c0-0.56,0-1.05,0-1.55c-5.18,0-10.32,0-15.44,0
		c0,0.55,0,1.04,0,1.55C38.55,60.05,43.65,60.05,48.83,60.05z"/>
	<path class="st1" d="M45,38.83c0,7.35-5.99,13.32-13.34,13.3c-7.33-0.02-13.34-6.03-13.32-13.34c0.02-7.27,6.03-13.26,13.33-13.28
		C39.01,25.49,45,31.48,45,38.83z M40.76,45.36c3.18-4.11,3.04-10.76-1.59-14.88c-4.57-4.07-11.48-3.76-15.7,0.73
		c-4.24,4.51-3.49,10.97-0.83,14.1C27.8,40.74,35.6,40.75,40.76,45.36z M39.32,47c-4.31-4.19-11.31-3.86-15.22-0.01
		C27.77,50.73,34.86,51.27,39.32,47z"/>
	<path class="st2" d="M56.05,34.51c2.11,0,4.22,0,6.33,0c0.92,0,1.38,0.37,1.37,1.09c-0.01,0.7-0.48,1.07-1.41,1.07
		c-4.22,0-8.44,0-12.66,0c-0.53,0-1.08-0.07-1.24-0.63c-0.1-0.34-0.06-0.86,0.14-1.11c0.21-0.26,0.7-0.4,1.07-0.41
		C51.79,34.49,53.92,34.51,56.05,34.51z"/>
	<path class="st2" d="M56.04,40.99c2.16,0,4.32-0.01,6.47,0c0.9,0,1.42,0.6,1.2,1.36c-0.18,0.64-0.69,0.8-1.29,0.8
		c-2.28,0-4.55,0-6.83,0c-1.99,0-3.98,0.03-5.97-0.03c-0.41-0.01-0.95-0.28-1.17-0.6c-0.48-0.69,0.11-1.51,1.04-1.52
		C51.68,40.98,53.86,41,56.04,40.99z"/>
	<path class="st2" d="M56.05,47.48c2.11,0,4.22,0,6.33,0c0.93,0,1.38,0.37,1.37,1.08c-0.01,0.7-0.48,1.08-1.4,1.08
		c-4.22,0-8.44,0.02-12.66-0.02c-0.42,0-0.92-0.26-1.21-0.56c-0.18-0.19-0.17-0.82,0.01-1.03c0.26-0.29,0.75-0.51,1.15-0.52
		C51.78,47.45,53.92,47.48,56.05,47.48z"/>
	<path class="st2" d="M56.01,30.13c-2.04,0-4.07,0-6.11,0c-0.24,0-0.48,0-0.72-0.04c-0.54-0.1-0.84-0.45-0.86-0.99
		c-0.02-0.57,0.27-0.96,0.85-1.08c0.21-0.04,0.43-0.05,0.64-0.05c4.15,0,8.29,0,12.44,0c0.21,0,0.43,0,0.64,0.04
		c0.58,0.11,0.87,0.48,0.86,1.06c-0.01,0.58-0.33,0.94-0.91,1.02c-0.26,0.04-0.53,0.03-0.79,0.03
		C60.04,30.13,58.02,30.13,56.01,30.13z"/>
	<path class="st1" d="M26.83,35.45c0.01-2.71,2.23-4.91,4.91-4.88c2.71,0.03,4.89,2.22,4.89,4.92c0,2.68-2.23,4.89-4.93,4.88
		C29,40.37,26.82,38.16,26.83,35.45z M31.67,38.33c1.58,0.02,2.87-1.23,2.88-2.79c0-1.52-1.24-2.77-2.79-2.81
		c-1.56-0.04-2.87,1.24-2.87,2.79C28.88,37.06,30.13,38.32,31.67,38.33z"/>
</g>
</svg>
