<?xml version="1.0" encoding="utf-8"?>
<!-- Generator: Adobe Illustrator 24.0.0, SVG Export Plug-In . SVG Version: 6.00 Build 0)  -->
<svg version="1.1" id="Capa_1" xmlns="http://www.w3.org/2000/svg" xmlns:xlink="http://www.w3.org/1999/xlink" x="0px" y="0px"
	 viewBox="0 0 200 200" style="enable-background:new 0 0 200 200;" xml:space="preserve">
<style type="text/css">
	.st0{fill:#ACAEAF;}
	.st1{fill:#FE9900;}
	.st2{fill:#1C3247;}
</style>
<g>
	<path class="st0" d="M23.5,183.4c-1.3-0.6-2.7-1-3.8-1.8c-2.8-1.9-4.1-4.8-4.1-8.1c0-6.3,0-12.6,0-18.9c0-2.5,1-3.6,3.6-3.9
		c5.4-0.6,9.2-4.5,9.1-9.6c-0.1-5-3.8-8.9-9.1-9.4c-2.5-0.3-3.6-1.4-3.6-3.9c0-6.2,0-12.5,0-18.7c0-6,4-10.1,10.1-10.1
		c12,0,24,0,36,0c1.1,0,1.9-0.3,2.6-1.1c15-15.1,30-30.1,45.1-45.1c2.6-2.6,4-2.6,6.6,0C126,63,136.1,73.1,146.2,83.2
		c2.5,2.5,2.5,3.9,0,6.4c-3.1,3.1-6.1,6.1-9.5,9.5c2.5,0,4.6,0,6.8,0c2.4,0,5,0.6,7-0.2c2-0.8,3.5-3.1,5.2-4.8
		c4.8-4.7,9.5-9.5,14.2-14.2c2.3-2.3,2.2-3.8,0-6c-3.4-3.4-6.9-6.9-10.3-10.3c-0.7-0.7-1.2-0.9-2.1-0.4c-9.4,5.1-20.9-0.1-23.1-10.6
		c-0.8-3.7-0.4-7.3,1.5-10.6c0.6-1.1,0.5-1.7-0.4-2.5c-3.5-3.4-6.8-6.8-10.2-10.2c-2.3-2.3-3.8-2.2-6,0
		c-16.8,16.8-33.6,33.6-50.5,50.5c-0.4,0.4-0.8,0.8-1.3,1.2c-1.5,1.2-3.1,1.1-4.3-0.1c-1.2-1.2-1.3-2.8-0.1-4.3c0.3-0.4,0.6-0.7,1-1
		c16.9-16.9,33.8-33.8,50.7-50.7c4.9-4.8,10.3-4.8,15.1,0c4.2,4.1,8.3,8.3,12.4,12.5c2.2,2.2,2.3,3.4,0.4,5.9
		c-3.2,4.1-3,9.5,0.5,12.9c3.5,3.5,8.8,3.6,12.8,0.4c2.4-1.9,3.6-1.9,5.9,0.4c3.6,3.5,7.1,7.1,10.7,10.6c2.3,2.2,4.5,4.4,5.4,7.6
		c0,1.2,0,2.3,0,3.5c-0.8,3.1-2.9,5.3-5.1,7.4c-4,3.9-7.9,7.8-11.8,11.7c-0.4,0.4-0.7,0.8-1.3,1.5c3,0,5.7,0,8.3,0
		c2.5,0,4.6,0.7,6.6,2.3c1.8,1.5,2.6,3.5,3.3,5.6c0,7.4,0,14.8,0,22.2c-0.7,1.8-2,2.5-3.9,2.6c-5.1,0.4-8.8,4.5-8.8,9.5
		c0,4.9,3.7,8.9,8.7,9.4c1.8,0.2,3.1,0.8,4,2.3c0,7.5,0,15,0,22.5c-0.3,0.8-0.6,1.7-1,2.5c-1.4,3-4,4.5-7,5.5
		C121.2,183.4,72.4,183.4,23.5,183.4z M96.8,177.1c23.6,0,47.2,0,70.7,0c3,0,4.1-1.1,4.1-4.1c0-4.2-0.1-8.5,0-12.7
		c0.1-2.3,0-4.2-2.9-4.4c-0.1,0-0.3-0.1-0.4-0.2c-6.1-2.9-9.8-9-9.4-15.2c0.5-7,4.7-12.3,11.5-14.4c0.9-0.3,1.2-0.7,1.2-1.6
		c0-5,0-10,0-15.1c0-2.8-1.2-4-4-4c-47.3,0-94.5,0-141.8,0c-2.8,0-4,1.2-4,4c0,4.3,0.1,8.6,0,12.8c-0.1,2.3,0,4.2,2.9,4.4
		c0.1,0,0.3,0.1,0.4,0.2c6.1,2.9,9.8,9,9.4,15.2c-0.5,7-4.7,12.3-11.5,14.4c-0.9,0.3-1.2,0.7-1.2,1.6c0,4.8,0,9.6,0,14.4
		c0,3.7,0.9,4.6,4.6,4.6C50,177.1,73.4,177.1,96.8,177.1z M115.2,99c4,0,7.5,0,11.1,0c1,0,1.8-0.3,2.5-1c3.5-3.6,7.1-7.1,10.6-10.7
		c0.3-0.3,0.6-0.7,0.8-0.9c-9.3-9.3-18.5-18.5-27.3-27.4C99.6,72.4,86.2,85.8,73,99c10.6,0,21.5,0,32.5,0c0.6,0,1.3-0.5,1.7-0.9
		c4-3.9,7.9-7.9,11.9-11.9c2.1-2.1,4-2.4,5.5-0.9c1.4,1.5,1.1,3.3-0.9,5.4C120.9,93.3,118.2,96,115.2,99z"/>
	<path class="st0" d="M60.3,86.6c0,1.7-1.5,3.1-3.1,3.1c-1.6,0-3.1-1.5-3.1-3.2c0-1.7,1.5-3.1,3.2-3.1
		C58.9,83.5,60.3,84.9,60.3,86.6z"/>
	<path class="st1" d="M51.9,160.9c3.2,0,6.3,0,9.4,0c1.6,0,2.8,0.5,3.4,2c0.8,2-0.6,4.2-2.9,4.3c-4.4,0.1-8.9,0.1-13.3,0
		c-1.8,0-2.9-1.3-3.1-3c0-0.4,0-0.8,0-1.3c0-14.4,0-28.9,0-43.3c0-3.3,1-4.4,4.3-4.4c31.3,0,62.7,0,94,0c3.4,0,4.4,1,4.4,4.3
		c0,14.4,0,28.9,0,43.3c0,3.4-1,4.4-4.3,4.4c-17.4,0-34.9,0-52.3,0c-0.7,0-1.5,0-2.2-0.2c-1.4-0.5-2.1-1.5-2.1-3
		c0-1.4,0.8-2.4,2.1-2.8c0.7-0.2,1.6-0.2,2.3-0.2c16,0,32,0,48,0c0.6,0,1.3,0,2,0c0-13.1,0-26.1,0-39.3c-29.9,0-59.8,0-89.8,0
		C51.9,134.6,51.9,147.6,51.9,160.9z"/>
	<path class="st2" d="M96.8,152c-10,0-20.1,0-30.1,0c-0.5,0-1.1,0-1.6-0.1c-1.7-0.2-2.8-1.6-2.8-3.1c0-1.5,1.2-2.9,2.8-3.1
		c0.5-0.1,1.1-0.1,1.6-0.1c20.1,0,40.2,0,60.3,0c0.1,0,0.2,0,0.3,0c2.6,0,4.1,1.2,4.1,3.2c0,2-1.5,3.2-4.1,3.2
		C117.1,152,106.9,152,96.8,152z"/>
	<path class="st2" d="M80,164.1c0,1.7-1.5,3.1-3.2,3.1c-1.7-0.1-3.1-1.6-3-3.2c0.1-1.7,1.6-3.1,3.2-3.1
		C78.7,161,80.1,162.4,80,164.1z"/>
	<path class="st2" d="M81,130.4c1.7,0,3.1,1.4,3.2,3.1c0,1.7-1.3,3.2-3,3.2c-1.7,0-3.1-1.4-3.2-3.1C78,131.9,79.3,130.5,81,130.4z"
		/>
	<path class="st2" d="M115.6,133.6c0,1.7-1.4,3.2-3.1,3.1c-1.7,0-3.1-1.4-3.1-3.2c0-1.7,1.4-3.1,3.1-3.1
		C114.2,130.4,115.6,131.9,115.6,133.6z"/>
	<path class="st2" d="M65.5,130.4c1.7,0,3.1,1.6,3.1,3.2c0,1.7-1.6,3.1-3.2,3.1c-1.7,0-3.1-1.6-3.1-3.2
		C62.3,131.9,63.8,130.4,65.5,130.4z"/>
	<path class="st2" d="M99.9,133.6c0,1.7-1.5,3.1-3.2,3.1c-1.6,0-3.1-1.5-3.1-3.2c0-1.7,1.5-3.1,3.2-3.1
		C98.5,130.5,100,132,99.9,133.6z"/>
	<path class="st2" d="M131.3,133.6c0,1.6-1.5,3.1-3.2,3.1c-1.6,0-3.1-1.5-3.1-3.2c0-1.7,1.5-3.1,3.2-3.1
		C129.9,130.5,131.4,132,131.3,133.6z"/>
	<path class="st0" d="M114.6,76.8c0,1.7-1.5,3.1-3.2,3.1c-1.7,0-3.1-1.5-3.1-3.2c0-1.7,1.5-3.1,3.2-3.1
		C113.3,73.6,114.6,75,114.6,76.8z"/>
	<path class="st0" d="M103.5,87.7c0,1.7-1.3,3.2-3,3.2c-1.7,0-3.1-1.4-3.2-3.1c0-1.7,1.4-3.1,3.1-3.2
		C102.1,84.7,103.5,86,103.5,87.7z"/>
</g>
</svg>
