<?xml version="1.0" encoding="utf-8"?>
<!-- Generator: Adobe Illustrator 24.0.0, SVG Export Plug-In . SVG Version: 6.00 Build 0)  -->
<svg version="1.1" id="Capa_1" xmlns="http://www.w3.org/2000/svg" xmlns:xlink="http://www.w3.org/1999/xlink" x="0px" y="0px"
	 viewBox="0 0 200 200" style="enable-background:new 0 0 200 200;" xml:space="preserve">
<style type="text/css">
	.st0{fill:#ACAEAF;}
	.st1{fill:#1C3247;}
	.st2{fill:#FE9900;}
</style>
<g>
	<path class="st0" d="M157.5,124.8c0.4-3.6,0.9-3.9,4.3-3.9c4.3,0,8.7,0,12.9,0c2.2,0,3,0.9,3,3c0,14.8,0,29.7,0,44.5
		c0,2.2-0.9,3-3.2,3c-4.5,0-8.8,0-13.3,0c-1.6,0-3-0.3-3.6-1.7c-1.7,0.6-3.5,1-5.1,1.6c-0.3,0.1-0.7,0.4-0.9,0.7
		c-2.2,3.8-5.4,5.1-9.7,3.8c-0.4-0.1-1.2,0.1-1.6,0.4c-2.3,2.5-5.2,3.2-8.4,2.2c-0.9-0.3-1.3-0.1-1.9,0.4c-1.6,1.7-3.6,2.5-5.9,2.5
		c-33.5,0-66.8,0-100.3,0c-2.3,0-3.2-0.9-3.2-3.3c0-14.5,0-29,0-43.6c0-32.2,0-64.2,0-96.4c0-3.2,0.7-3.8,3.8-3.8c2,0,4.1,0,6.4,0
		c0-2.3,0-4.3,0-6.5c0-2.9,0.7-3.6,3.5-3.6c34.8,0,69.6,0,104.4,0c2.6,0,3.5,0.7,3.5,3.5c0,29.7,0,59.4,0,89.3
		c0,1.6,0.4,2.3,1.9,2.8C148.6,121.4,153,123.2,157.5,124.8z M81.7,146.2c-12.8,0-25.4,0-37.8,0c0-1.7,0-3.3,0-5.1
		c12.6,0,25.2,0,37.8,0c0-0.7,0-1.3,0-1.9c0-5.1,0-10.3,0-15.4c0-2,0.9-3,3-3c4.8,0,9.4,0,14.2,0c2,0,3,0.9,3,3c0,1.7,0,3.3,0,5.1
		c2,0.9,3.6,1,5.4-0.6c2.3-2,4.8-3.8,7.2-5.5c3.9-2.9,7.5-6.2,12.6-6.7c0-18,0-35.7,0-53.5c-0.7,0-1.3,0-1.7,0c-5.8,0-11.7,0-17.5,0
		c-2.5,0-3.3-0.9-3.3-3.3c0-5.9,0-11.9,0-17.7c0-0.6,0-1.2,0-1.6c-26.2,0-52.3,0-78.4,0c0,45.7,0,91.2,0,136.7c29.9,0,59.7,0,89.9,0
		c-4.2-4.2-8.1-8.1-12-12c-0.4-0.4-1.2-0.4-1.9-0.7c0,1.7,0,3.2,0,4.6c0,2.3-0.9,3.2-3.3,3.2c-4.5,0-8.8,0-13.3,0
		c-3,0-3.6-0.7-3.6-3.8C81.7,160.7,81.7,153.6,81.7,146.2z M36.1,34.6c0.7,0,1.3,0,2,0c22.6,0,45.1,0,67.7,0c1.6,0,2.6,0.4,3.8,1.6
		c7,7.1,14.1,14.2,21.2,21.2c1.2,1,1.6,2.2,1.6,3.8c0,17.7,0,35.4,0,53.1c0,0.6,0,1.2,0,1.7c1.7,0.6,3.3,1,4.9,1.4
		c0-29.3,0-58.6,0-87.7c-33.8,0-67.4,0-101,0C36.1,31.2,36.1,32.8,36.1,34.6z M102,138.2c0,7.1,0,13.8,0,20.9c3.5-1.2,5.1,1.4,7,3.3
		c4.2,4.2,8.6,8.6,12.8,12.8c0.6,0.6,1.6,1.3,2.3,1.4c0.9,0,1.9-0.4,2.6-1c0.3-0.3,0-1.4-0.4-2c-1.2-1.9-2.3-3.6-3.6-5.5
		c1.4-1,2.8-1.9,4.2-2.8c1.6,2.3,2.9,4.6,4.6,6.8c0.7,0.9,1.9,1.7,2.9,2c0.7,0.1,1.7-0.4,2.3-1c0.3-0.3,0-1.4-0.3-2
		c-1.2-1.9-2.3-3.6-3.6-5.7c1.4-1,2.8-1.9,4.2-2.8c1.6,2.3,2.9,4.6,4.5,6.7c0.7,1,1.9,1.7,3,2.2c0.6,0.1,1.7-0.6,2.3-1.2
		c0.3-0.3,0-1.3-0.4-1.9c-1.2-1.9-2.5-3.6-3.6-5.7c1.4-1,2.8-1.9,4.2-2.8c1.2,1.7,2.5,3.5,3.3,5.2c0.7,1.3,1.6,1.6,3,1
		c1.3-0.6,2-2.2,1.4-3.5c-0.3-0.6-0.7-1.2-1.2-1.6c-7.5-7.5-14.9-15.1-22.5-22.5c-0.1-0.1-0.4-0.4-0.7-0.6c-0.6,0.4-1,0.9-1.4,1.3
		c-2.5,1.7-4.6,3.9-7.2,5.2C113.7,148.5,104.6,145.1,102,138.2z M129.4,129.3c9.3,9.3,18.7,18.7,28.1,28.3c0-0.1,0.1-0.3,0.1-0.4
		c0-8.6,0-17.1,0-25.7c0-1.2-0.6-1.3-1.3-1.6c-7.4-2.6-14.8-5.4-22.2-8c-4.3-1.6-8.4-1-12.2,1.7c-4.5,3.3-8.8,6.7-13.3,10
		c-2.5,1.9-2.5,3.9,0,5.8c3.3,2.5,8.3,2.6,12.2-0.1c2-1.4,3.9-3.2,5.9-4.8c-0.4-0.6-0.9-1-1.3-1.4
		C126.9,131.7,127.9,130.7,129.4,129.3z M96.7,166.5c0-13.6,0-27,0-40.4c-3.3,0-6.7,0-10,0c0,13.5,0,27,0,40.4
		C90.2,166.5,93.4,166.5,96.7,166.5z M162.7,166.4c3.5,0,6.7,0,10,0c0-13.5,0-27,0-40.3c-3.3,0-6.7,0-10,0
		C162.7,139.5,162.7,152.9,162.7,166.4z M109.6,43.6c0,4.6,0,9.3,0,13.8c4.6,0,9.1,0,13.6,0C118.8,52.7,114.3,48.2,109.6,43.6z"/>
	<path class="st1" d="M92,80.3c8.8,0,17.8,0,26.7,0c2.8,0,3.5,0.7,3.5,3.5c0,2.9,0,5.8,0,8.7c0,2-0.9,3-3,3c-18.3,0-36.5,0-54.8,0
		c-2,0-3-0.9-3-3c0-3,0-6.1,0-9c0-2.3,0.9-3.2,3.2-3.2C73.7,80.3,82.8,80.3,92,80.3z M66.6,85.3c0,1.7,0,3.3,0,4.9
		c16.8,0,33.6,0,50.5,0c0-1.7,0-3.3,0-4.9C100.2,85.3,83.4,85.3,66.6,85.3z"/>
	<path class="st0" d="M68.9,166.5c0,1.7,0,3.3,0,5.1c-3.5,0.1-7,0.3-10-1.6c-0.4-0.3-1.2-0.3-1.6-0.1c-1.4,0.4-2.8,0.9-4.2,1.3
		c-3,1-4.2,0.3-4.5-3.5c-1,1-1.9,1.7-2.6,2.6c-0.9,1-1.9,1.7-3.3,1c-1.3-0.6-1.6-1.7-1.6-3c0-2.2,0-4.3,0-6.5c0-1.7-1-2.9-2.5-2.9
		c-1.6,0-2.6,1.2-2.6,2.9c0,3.2,0,6.4,0,9.6c-1.6,0-3.2,0-4.9,0c0-3.8-0.3-7.7,0.1-11.5c0.4-3.9,4.1-6.4,8-6.1s6.8,3.5,7,7.5
		c0,0.4,0,0.7,0,1.4c1.2-1,2-1.9,2.8-2.8c0.9-0.9,1.9-1.6,3.2-1c1.3,0.6,1.6,1.7,1.6,3c0,1,0,2.2,0,3.3c1.4-0.4,2.8-1,4.1-1.3
		c0.7-0.1,1.9-0.3,2.3,0.1c2.2,2,4.8,2.2,7.5,2C68,166.5,68.5,166.5,68.9,166.5z"/>
	<path class="st2" d="M122.1,70.2c0,1.7,0,3.2,0,4.9c-20.2,0-40.3,0-60.6,0c0-1.6,0-3.2,0-4.9C81.7,70.2,101.8,70.2,122.1,70.2z"/>
	<path class="st0" d="M41.2,50c1.9,0,3.3,0,5.2,0c-0.7,2.3,0.6,3.2,2.2,4.3c1.9,1.3,2.6,3.3,2.8,5.7c-1.7,0-3.2,0-4.9,0
		c-0.1-0.3-0.3-0.7-0.4-1c-0.7-1.2-1.6-1.6-2.9-1.3c-1.2,0.3-1.9,1.3-1.7,2.5c0,1.3,0.9,2.2,2.2,2.5c0.7,0.1,1.6,0.1,2.3,0.3
		c3,0.9,4.9,2.9,5.5,5.9c0.6,2.9-0.3,5.7-2.8,7.2c-1.6,1.2-2.6,2.2-2,4.2c-1.7,0-3.3,0-5.2,0c0.7-2.2-0.6-3.2-2.2-4.3
		c-1.9-1.3-2.6-3.3-2.8-5.7c1.7,0,3.2,0,4.9,0c0.1,0.3,0.3,0.7,0.4,1c0.7,1.2,1.6,1.6,2.9,1.3c1.2-0.3,1.9-1.3,1.7-2.5
		c0-1.3-0.9-2.2-2.2-2.5c-0.7-0.1-1.4-0.1-2.2-0.3c-3-0.9-5.1-2.9-5.7-5.9c-0.6-2.9,0.4-5.4,2.8-7.2c0.7-0.6,1.6-0.9,2-1.6
		C41.5,51.8,41.2,50.8,41.2,50z"/>
	<path class="st0" d="M76.6,121c0,1.6,0,3.2,0,4.9c-15.2,0-30.3,0-45.4,0c0-1.6,0-3.2,0-4.9C46.3,121,61.4,121,76.6,121z"/>
	<path class="st0" d="M71.5,100.7c0,1.7,0,3.2,0,4.9c-13.5,0-26.8,0-40.3,0c0-1.6,0-3.2,0-4.9C44.5,100.7,57.9,100.7,71.5,100.7z"/>
	<path class="st0" d="M71.5,131.1c0,1.7,0,3.2,0,4.9c-13.5,0-26.8,0-40.3,0c0-1.6,0-3.2,0-4.9C44.5,131.1,57.9,131.1,71.5,131.1z"/>
	<path class="st2" d="M96.7,60.1c0,1.7,0,3.2,0,4.9c-11.7,0-23.5,0-35.2,0c0-1.6,0-3.2,0-4.9C73.2,60.1,85,60.1,96.7,60.1z"/>
	<path class="st0" d="M31.1,115.6c0-1.7,0-3.2,0-4.9c10.9,0,21.7,0,32.8,0c0,1.6,0,3.2,0,4.9C53,115.6,42.1,115.6,31.1,115.6z"/>
	<path class="st2" d="M86.7,50c0,1.7,0,3.2,0,4.9c-8.4,0-16.7,0-25.2,0c0-1.6,0-3.2,0-4.9C69.9,50,78.2,50,86.7,50z"/>
</g>
</svg>
