<?xml version="1.0" encoding="utf-8"?>
<!-- Generator: Adobe Illustrator 24.0.0, SVG Export Plug-In . SVG Version: 6.00 Build 0)  -->
<svg version="1.1" id="Capa_1" xmlns="http://www.w3.org/2000/svg" xmlns:xlink="http://www.w3.org/1999/xlink" x="0px" y="0px"
	 viewBox="0 0 200 200" style="enable-background:new 0 0 200 200;" xml:space="preserve">
<style type="text/css">
	.st0{fill:#ACAEAF;}
	.st1{fill:#FE9900;}
</style>
<g>
	<path class="st0" d="M134.7,155.2c-2.6,5.5-4.9,11-7.6,16.4c-2.4,4.7-5.7,8.9-9.7,12.5c-8.6,7.6-19.3,7.6-27.8,0
		c-6.8-6.1-11-13.9-14.4-22.1c-0.9-2.2-1.7-4.5-2.5-6.5c-5.8,0.6-11.5,1.6-17.1,1.7c-4.6,0.1-9.4-0.3-13.9-1.4
		c-13.5-3.2-19.6-13.6-16.1-27c0.4-1.6,0.2-2.6-0.8-3.9c-3.1-3.8-3.2-9-0.7-13.1c2.6-4.1,7.3-6.2,12.1-5.4c0.7,0.1,1.7-0.2,2.2-0.7
		c1.2-1.1,2.2-2.5,3.3-3.9c-1.5-1.9-3.1-3.7-4.6-5.6c-5.2-6.7-9.7-13.7-11.7-22.1c-3.2-13.2,3.1-23.4,16.4-26.6
		c9.3-2.3,18.6-1.5,27.9,0.2c0.9,0.2,1.8,0.3,2.9,0.5c0.3-0.8,0.6-1.6,0.9-2.4c3.3-9,7.2-17.6,14-24.6c4.8-4.9,10.3-8.2,17.5-7.7
		c6,0.5,10.6,3.6,14.6,7.8c6.6,6.9,10.6,15.4,13.8,24.2c0.3,0.9,0.6,1.8,1,2.7c2.5-0.4,4.9-0.7,7.2-1.2c0.5-0.1,1.1-0.7,1.4-1.2
		c2.4-5.4,6.3-8,11.7-7.8c5,0.2,8.6,3.2,10.7,8.6c0.3,0.7,1.2,1.3,1.9,1.5c7.7,2.7,13.3,7.3,14.8,15.7c1.1,5.9-0.4,11.5-2.7,16.9
		c-3.1,7.2-7.6,13.4-12.6,19.3c-0.4,0.5-0.9,1-1.5,1.7c0.6,0.7,1.1,1.3,1.7,2c6.1,7.2,11.6,14.8,14.2,24c0.9,3.1,1.3,6.5,1.2,9.8
		c-0.3,7.6-4.5,13-11.3,16.3c-1.1,0.5-1.7,1.1-1.9,2.3c-1.2,5.3-5.2,8.7-10.5,9.3c-4.6,0.5-9.1-2.3-11.5-6.9
		c-0.3-0.7-1.2-1.4-1.9-1.5C141.6,156.1,138.1,155.7,134.7,155.2z M135.1,101.5c-0.3-5.3-0.5-10.8-0.9-16.2c0-0.7-0.5-1.6-1-2
		c-9-6.3-18.5-11.9-28.6-16.5c-0.7-0.3-1.8-0.3-2.5,0c-9.9,4.6-19.3,10-28.2,16.3c-0.7,0.5-1.3,1.5-1.3,2.3
		c-0.1,10.8-0.1,21.6,0,32.4c0,0.8,0.7,1.8,1.3,2.3c8.9,6.3,18.3,11.7,28.2,16.3c0.7,0.3,1.8,0.4,2.4,0c10-4.6,19.4-10,28.4-16.4
		c0.6-0.4,1.1-1.4,1.2-2.1C134.6,112.5,134.8,107,135.1,101.5z M127.4,49.6c-2.9-8.3-6.3-16.1-12.1-22.7c-2.3-2.6-4.9-4.7-8.1-5.8
		c-5.5-1.8-10,0.4-13.9,4.1c-5.5,5.2-8.8,11.7-11.6,18.6c-0.8,1.9-1.5,3.9-2.2,5.8c5.7,2,11.4,3.4,16.5,5.9
		c5.1,2.4,9.7,3.1,14.6-0.1c0.1-0.1,0.3-0.1,0.4-0.1C116.4,53.4,121.8,51.5,127.4,49.6z M127.4,153.5c-0.4-0.2-0.6-0.3-0.8-0.4
		c-7.4-2.6-14.7-5.3-22.1-7.9c-0.7-0.2-1.6-0.1-2.3,0.1c-2.2,0.8-4.3,1.8-6.5,2.6c-5.3,1.9-10.6,3.7-16.1,5.6
		c2.1,6.5,4.7,12.9,8.8,18.5c2.1,2.9,4.5,5.6,7.3,7.8c5.1,4,10.5,3.8,15.8,0c1.1-0.8,2.2-1.7,3.1-2.7
		C120.9,170.3,124.4,162.1,127.4,153.5z M70.1,54.7c-3.1-0.4-6.4-1.1-9.7-1.4c-6.8-0.6-13.5-0.7-20,1.9c-6.6,2.6-9.8,7.6-8.7,14.4
		c1.7,10.7,8.1,18.8,14.6,26.5c6.5-5.3,12.7-10.4,19-15.6c0.5-0.4,0.8-1.3,0.9-2C67.5,70.8,68.8,63,70.1,54.7z M160.5,106.9
		c-5,4.3-9.6,8.7-14.7,12.4c-3.4,2.5-5.3,5.2-5.7,9.6c-0.6,6.5-2.2,12.8-3.4,19.5c2.7,0.4,5.4,0.7,8.2,1.2c1.3,0.2,1.9-0.1,2.5-1.3
		c3-5.9,9.7-8.2,15.4-5.3c1.9,1,3.5,2.7,5.4,4.2c5.9-3,8.3-8.1,6.8-15.2C172.8,122.1,166.8,114.4,160.5,106.9z M70.1,148.3
		c-1.3-8.1-2.6-16-4-23.9c-0.2-0.9-0.9-1.8-1.6-2.4c-5.6-4.9-11.3-9.6-17-14.5c-0.3-0.2-0.6-0.5-1-0.7c-0.6,0.6-1,1.2-1.5,1.6
		c-1.5,1.3-1.6,2.5-0.6,4.4c2.7,5.2,0.8,11.8-4.4,14.7c-2.2,1.2-4.8,1.6-8.1,2.6c-0.1,2.2-0.6,5.3-0.2,8.2c0.9,6,5.4,8.9,10.8,10.3
		C51.9,151.2,61.1,150,70.1,148.3z M136.5,55c0.1,0.5,0.1,0.9,0.2,1.3c1.3,7,2.7,14,3.8,21.1c0.3,2,1.1,3.2,2.6,4.3
		c1.9,1.3,3.7,2.8,5.5,4.3c3.9,3.3,7.8,6.8,11.8,10.3c1.4-1.7,2.8-3.2,4.1-4.9c4.7-6.2,8.9-12.6,10.5-20.4c1.5-7.6-1.5-13-8.5-15.8
		c-1.3-0.5-2-0.4-2.8,0.9c-4.5,6.5-13.8,7.1-18.5,0.7c-2-2.8-3.9-3-6.6-2.3C137.9,54.7,137.3,54.8,136.5,55z M94.8,62.2
		c-5.9-2-11.6-3.8-17.6-5.8c-1.3,6.3-2.4,12.1-3.6,18.1C80.8,70.3,87.6,66.3,94.8,62.2z M94.8,140.9c-7.2-4.2-14-8.1-21.2-12.2
		c1.2,6.2,2.4,11.9,3.7,18.1C83.3,144.8,88.9,142.9,94.8,140.9z M112.1,140.9c5.9,2,11.6,3.8,17.6,5.8c1.2-6.2,2.4-12,3.6-18.1
		C126,132.9,119.2,136.8,112.1,140.9z M112.1,62.2c7.2,4.2,14,8.1,21.2,12.2c-1.2-6.1-2.4-11.9-3.6-18
		C123.6,58.4,118,60.2,112.1,62.2z M65,89.4c-4.8,4.2-9.2,8.1-13.8,12.2c4.7,4.2,9.1,8,13.8,12.1C65,105.4,65,97.7,65,89.4z
		 M142,89.6c0,4.2,0,8.1,0,12c0,3.9,0,7.7,0,11.8c2.3-1.9,4.5-3.7,6.6-5.6c2.3-2,4.4-4.1,6.8-6.3c-2.1-1.9-3.9-3.8-5.9-5.5
		C147.1,93.9,144.6,91.8,142,89.6z M34.1,113.1c-2.6,0-4.6,1.9-4.7,4.5c-0.1,2.6,1.9,4.6,4.4,4.7c2.7,0.1,4.8-2,4.8-4.6
		C38.7,115.2,36.6,113.2,34.1,113.1z M153.1,153.5c0,2.6,2.1,4.6,4.6,4.6c2.5,0,4.6-2.1,4.6-4.6c0-2.6-2.2-4.8-4.7-4.7
		C155,148.8,153,150.9,153.1,153.5z M158.6,49.5c0-2.6-2-4.6-4.5-4.6c-2.6,0-4.6,1.9-4.7,4.5c-0.1,2.7,2,4.7,4.6,4.7
		C156.6,54.1,158.6,52.1,158.6,49.5z"/>
	<path class="st1" d="M121,101.7c0,9.7-8,17.6-17.6,17.6c-9.8-0.1-17.7-8.1-17.6-17.9c0.1-9.6,8.2-17.6,17.8-17.5
		C113.3,84,121.1,91.9,121,101.7z M114,101.6c0-5.8-4.6-10.5-10.4-10.6c-5.8-0.1-10.7,4.8-10.7,10.6c0,5.8,4.9,10.7,10.7,10.6
		C109.3,112.1,114,107.4,114,101.6z"/>
</g>
</svg>
