<?xml version="1.0" encoding="utf-8"?>
<!-- Generator: Adobe Illustrator 24.0.0, SVG Export Plug-In . SVG Version: 6.00 Build 0)  -->
<svg version="1.1" id="Capa_1" xmlns="http://www.w3.org/2000/svg" xmlns:xlink="http://www.w3.org/1999/xlink" x="0px" y="0px"
	 viewBox="0 0 80 80" style="enable-background:new 0 0 80 80;" xml:space="preserve">
<style type="text/css">
	.st0{fill:#ACAEAF;}
	.st1{fill:#1C3247;}
	.st2{fill:#FE9900;}
</style>
<g>
	<path class="st0" d="M12.9,71.3c-0.7-0.4-1.4-0.6-2-1.1c-0.9-0.8-1.1-1.8-1.1-3c0-14.8,0-29.6,0-44.4c0-3.6,0-7.3,0-10.9
		c0-2.6,1.5-4.1,4.1-4.1c14.8,0,29.6,0,44.4,0c2.6,0,4.1,1.5,4.1,4.1c0,4.2,0,8.4,0,12.7c0,0.2,0,0.3,0,0.5
		c-0.1,0.7-0.6,1.2-1.2,1.2c-0.6,0-1.2-0.5-1.2-1.2c0-0.2,0-0.4,0-0.6c0-4.2,0-8.3,0-12.5c0-1.3-0.4-1.7-1.7-1.7
		c-14.7,0-29.5,0-44.2,0c-1.3,0-1.7,0.4-1.7,1.7c0,18.4,0,36.8,0,55.2c0,1.3,0.4,1.7,1.7,1.7c14.8,0,29.5,0,44.3,0
		c1.3,0,1.7-0.4,1.7-1.7c0-2.7,0-5.4,0-8.1c0-0.1,0-0.3,0-0.4c0-0.9,0.5-1.4,1.2-1.4c0.7,0,1.2,0.6,1.3,1.4c0,0.8,0,1.6,0,2.4
		c0,2.1,0,4.1,0,6.2c0,2.2-0.9,3.4-2.9,4c-0.1,0-0.1,0.1-0.2,0.1C43.9,71.3,28.4,71.3,12.9,71.3z"/>
	<path class="st0" d="M73.4,29.2c-0.9,2.7-2.6,5-4,7.5c-4,7-8,13.9-12,20.9c-0.3,0.4-0.6,0.9-1.1,1.2c-2.4,1.8-4.8,3.6-7.2,5.3
		c-0.3,0.2-0.8,0.4-1.2,0.4c-0.7,0-1.1-0.6-1-1.4c0.1-1.4,0.3-2.8,0.4-4.2c0.2-1.7,0.4-3.4,0.6-5.1c0.1-0.5,0.2-1,0.4-1.4
		c5.1-8.8,10.1-17.6,15.2-26.4c1.5-2.7,4.3-3.6,7-2.3c1.5,0.7,2.4,1.9,2.8,3.5c0,0.1,0.1,0.3,0.1,0.4C73.4,28.2,73.4,28.7,73.4,29.2
		z M55.5,55.7c4.2-7.3,8.4-14.5,12.5-21.7c-1.6-0.9-3.2-1.8-4.7-2.7C59.1,38.6,55,45.8,50.8,53C52.4,53.9,53.9,54.8,55.5,55.7z
		 M69.3,31.9c0.5-0.8,0.9-1.6,1.3-2.4c0.6-1.3,0.1-2.8-1.1-3.5c-1.2-0.7-2.8-0.4-3.6,0.8c-0.5,0.7-0.9,1.5-1.4,2.3
		C66.1,30,67.7,30.9,69.3,31.9z M49.5,60.6c1.4-1.1,2.8-2,4.2-3.1c-1.2-0.7-2.4-1.4-3.6-2.1C49.9,57.2,49.7,58.9,49.5,60.6z"/>
	<path class="st1" d="M36.1,14.4c6.3,0,11.4,5.1,11.4,11.4c0,6.3-5.1,11.5-11.4,11.4c-6.3,0-11.4-5.1-11.4-11.4
		C24.7,19.5,29.9,14.4,36.1,14.4z M28.7,30.7c0.6-0.5,1.2-0.9,1.8-1.4c0.6-0.5,1.3-0.9,2-1.3c-0.9-1.3-1-2.7-0.8-4.3
		c0.3-2.1,2.2-3.7,4.4-3.7c2.2,0,4.1,1.6,4.4,3.7c0.2,1.5,0.1,3-0.8,4.3c1.5,0.7,2.7,1.7,3.6,3c2.5-3.1,2.5-8.4-1.1-11.8
		c-3.5-3.3-8.9-3.2-12.3,0.1C26.4,22.9,26.6,28.1,28.7,30.7z M30.8,32.9c3.4,2.6,7.9,2.3,10.7,0c-1.2-2-3-3.1-5.3-3.1
		C33.8,29.8,32,30.9,30.8,32.9z M38.1,24.9C38.1,24.9,38.1,24.9,38.1,24.9c0-0.2,0-0.3,0-0.5c-0.1-1-0.8-1.8-1.8-1.9
		c-1-0.1-1.9,0.5-2.1,1.5c-0.1,0.6-0.1,1.2,0,1.7c0.2,0.9,1,1.5,1.9,1.5c0.9,0,1.7-0.7,1.9-1.6C38.1,25.5,38.1,25.2,38.1,24.9z"/>
	<path class="st2" d="M34,43.7c-2.8,0-5.5,0-8.3,0c-0.2,0-0.4,0-0.6,0c-0.6-0.1-1.1-0.6-1.1-1.2c0-0.6,0.5-1.1,1.1-1.2
		c0.2,0,0.4,0,0.6,0c5.5,0,11.1,0,16.6,0c0,0,0.1,0,0.1,0c1,0,1.6,0.5,1.6,1.2c0,0.8-0.6,1.2-1.6,1.2C39.7,43.7,36.8,43.7,34,43.7z"
		/>
	<path class="st2" d="M34,50.6c-2.8,0-5.5,0-8.3,0c-0.2,0-0.4,0-0.6,0C24.4,50.5,24,50,24,49.4c0-0.6,0.5-1.1,1.1-1.2
		c0.2,0,0.4,0,0.6,0c5.5,0,11.1,0,16.6,0c0,0,0.1,0,0.1,0c1,0,1.6,0.5,1.6,1.2c0,0.8-0.6,1.2-1.6,1.2C39.7,50.6,36.8,50.6,34,50.6z"
		/>
	<path class="st0" d="M34,55.1c2.8,0,5.6,0,8.4,0c0.2,0,0.5,0,0.7,0c0.6,0.1,1,0.6,1,1.2c0,0.6-0.4,1.1-1,1.2c-0.2,0-0.5,0-0.7,0
		c-5.6,0-11.2,0-16.8,0c-0.2,0-0.5,0-0.7-0.1c-0.6-0.1-0.9-0.6-0.9-1.2c0-0.5,0.4-1,0.9-1.2c0.2-0.1,0.5-0.1,0.7-0.1
		C28.4,55.1,31.2,55.1,34,55.1z"/>
	<path class="st0" d="M39.4,64.5c-1,0-2,0-3,0c-0.9,0-1.5-0.5-1.5-1.2c0-0.7,0.6-1.2,1.5-1.2c2.1,0,4.1,0,6.2,0
		c0.9,0,1.5,0.5,1.5,1.2c0,0.7-0.6,1.2-1.5,1.2C41.5,64.6,40.5,64.5,39.4,64.5z"/>
	<path class="st2" d="M19.9,41.2c0.7,0,1.2,0.5,1.2,1.2c0,0.7-0.5,1.2-1.2,1.3c-0.6,0-1.2-0.6-1.3-1.2
		C18.7,41.8,19.2,41.2,19.9,41.2z"/>
	<path class="st2" d="M19.9,50.6c-0.6,0-1.2-0.6-1.2-1.2c0-0.6,0.6-1.2,1.2-1.2c0.7,0,1.2,0.6,1.2,1.2
		C21.1,50.1,20.6,50.6,19.9,50.6z"/>
	<path class="st0" d="M21.1,56.3c0,0.7-0.5,1.2-1.2,1.2c-0.6,0-1.2-0.6-1.2-1.2c0-0.6,0.6-1.2,1.2-1.2
		C20.6,55.1,21.1,55.7,21.1,56.3z"/>
</g>
</svg>
