<?xml version="1.0" encoding="utf-8"?>
<!-- Generator: Adobe Illustrator 24.0.0, SVG Export Plug-In . SVG Version: 6.00 Build 0)  -->
<svg version="1.1" id="Capa_1" xmlns="http://www.w3.org/2000/svg" xmlns:xlink="http://www.w3.org/1999/xlink" x="0px" y="0px"
	 viewBox="0 0 200 200" style="enable-background:new 0 0 200 200;" xml:space="preserve">
<style type="text/css">
	.st0{fill:#1C3247;}
	.st1{fill:#ACAEAF;}
	.st2{fill:#FE9900;}
</style>
<g>
	<path class="st0" d="M149.6,187.3c-3.9-1.3-5.8-4.2-6.4-8.1c-0.8-5.5-3.1-10.3-6.5-14.7c-3.2-4.2-6.3-8.6-9.4-12.9
		c-0.3-0.4-0.5-0.7-0.8-1.1c-0.9-1.4-0.7-2.8,0.5-3.6c1.2-0.9,2.6-0.7,3.6,0.6c4.5,6.2,9.1,12.4,13.4,18.7c2.7,3.9,3.6,8.5,4.5,13
		c0.3,1.6,0.9,2.8,2.7,2.9c1.4,0.1,2.4-0.9,2.7-2.9c1.1-6.9,3.8-12.9,8.1-18.4c4-5.1,7.6-10.5,11.5-15.7
		c10.9-14.7,5.6-34.6-10.1-42.3c-10.1-4.9-22.4-3.2-30.7,4.2c-8.7,7.8-11.8,19.6-7.9,30.4c0.9,2.6,0.6,4-1.1,4.6
		c-1.6,0.6-2.8-0.3-3.7-2.9c-7.8-22,9-44.9,32.5-44.1c13,0.5,22.6,6.8,28.4,18.3c5.8,11.5,4.8,23-2.4,33.7c-4,6-8.3,11.8-12.7,17.6
		c-3.4,4.5-5.7,9.3-6.5,14.9c-0.6,4-2.6,6.6-6.5,7.8C151.7,187.3,150.6,187.3,149.6,187.3z"/>
	<path class="st1" d="M149.2,72.1c0.8,4.6,1.5,9,2.2,13.5c0.1,0.4,0.1,0.8,0.2,1.2c0.1,1.8-0.8,3-2.3,3.2c-1.4,0.1-2.5-0.9-2.8-2.6
		c-0.6-3.5-1.1-7-1.7-10.5c-0.2-1.4-0.8-2.7-0.9-4.1c-0.2-2-1.2-3-3.2-3.3c-6.7-1.2-13.3-2.5-20-3.7c-0.4-0.1-0.8-0.1-1.4-0.1
		c0.3,2.8,0.6,5.6,0.8,8.3c0.5,7.7,0.9,15.3,1.2,23c0,1,0.1,1.7,1,2.5c0.6,0.5,0.8,1.8,0.6,2.5c-0.2,0.7-1.1,1.3-1.9,1.7
		c-0.4,0.2-1.1,0.1-1.7,0.1c-12.7,0-25.3,0-38,0c-0.6,0-1.2,0-2,0c0.1,11.3,0.8,22.4,2.3,33.7c3.1,0.2,6.1,0.5,9,0.5
		c6.9,0,13.8-0.2,20.7-0.3c0.9,0,2.1,0.4,2.6,1c0.5,0.5,0.6,1.9,0.2,2.4c-0.5,0.8-1.7,1.5-2.6,1.5c-4.8,0.3-9.6,0.4-14.4,0.5
		c-4.8,0.1-9.7,0-14.8,0c0.2,1.3,0.5,3,0.8,4.7c1.5,7.9,3.5,15.8,6.8,23.2c0.7,1.6,1.7,2.4,3.5,2.3c3-0.2,6.1-0.1,9.1-0.1
		c1.1,0,1.6-0.4,2-1.4c3.5-6.9,5.3-14.4,6.9-21.9c0.2-1,0.4-2.1,0.7-3.2c0.4-1.6,1.6-2.5,3.1-2.1c1.3,0.3,2.1,1.6,1.8,3.2
		c-1.5,7.9-3.3,15.8-6.6,23.3c-0.1,0.3-0.2,0.6-0.4,1.2c5.3-1.4,10.8-1.5,14.4-6.2c0.5-0.6,1-1.2,1.6-1.7c1.2-1.1,2.8-1,3.7,0.2
		c2.7,3.3,3,4.9,1.1,6.2c-0.4,0.3-0.9,0.5-1.4,0.7c-43.8,20-95.4-4.7-107.2-51.4c-3.6-14.1-3.1-28.2,1.2-42.1
		c0.6-1.9,1.8-2.8,3.3-2.4c1.6,0.4,2.2,1.9,1.6,3.8c-1.7,5.8-2.9,11.6-3.2,17.6c0,0.4,0,0.9,0,1.4c5.9,0,11.7,0,17.6,0
		c0.2-2-0.4-4.7,2.8-4.8c1.7,0,2.2,1.1,2.4,4.7c8.5,0,17,0,25.9,0c0-1.3,0-2.7,0-4.1c0.1-2.6,0.1-5.2,0.3-7.8
		c0.1-1.7,1.2-2.7,2.7-2.7c1.5,0.1,2.4,1.1,2.4,2.9c-0.1,3.3-0.2,6.6-0.3,9.8c0,0.6,0,1.2,0,1.9c12.3,0,24.5,0,36.5,0
		c0-4.4,0.2-8.8,0-13.1c-0.4-6.3-1.1-12.5-1.6-18.7c-0.1-1-0.2-1.8-1.6-1.9c-10-0.7-20-0.8-30,0.1c-0.3,0-0.5,0.1-1,0.2
		c-0.3,2.8-0.6,5.7-1,8.5c-0.1,0.7-0.1,1.5-0.3,2.2c-0.3,1.6-1.4,2.4-2.8,2.3c-1.4-0.2-2.3-1.3-2.2-2.9c0.2-2.5,0.5-5.1,0.8-7.6
		c0.1-0.6,0-1.2,0-2c-1.8,0.2-3.5,0.5-5.2,0.7c-0.6,0.1-1.1,0.2-1.7,0.2c-1.6,0.1-2.7-0.9-2.9-2.3c-0.1-1.3,0.8-2.5,2.2-2.7
		c1.9-0.3,3.8-0.5,5.7-0.8c0.9-0.1,1.8-0.2,2.8-0.4c1.7-10.3,3.7-20.4,8.1-30.3c-1.8,0.4-3.4,0.7-4.9,1.1c-1.2,0.3-2.4,0.7-3.6,1
		c-1.8,0.5-3.1-0.1-3.6-1.6c-0.5-1.5,0.3-2.8,2.2-3.4c8.6-2.5,17.3-3.7,26.3-3.2c35.8,1.9,65.2,27.4,72.2,62.6c0.4,2,0.6,4,0.9,6
		c0.2,1.9-0.6,3.1-2.1,3.3c-1.5,0.2-2.6-0.9-3-2.8c-0.7-3.8-1.4-7.5-2.2-11.3c-0.2-0.7-0.7-1.6-1.4-1.9c-5.4-2.6-10.9-5.1-16.4-7.6
		C149.6,72,149.4,72.1,149.2,72.1z M48.5,103.6c0,0.7,0,1.3,0,1.9c0.4,8.5,1.5,16.9,3.6,25.1c0.3,1.1,0.7,1.6,1.8,1.8
		c5.9,1.2,11.8,2.5,17.7,3.6c1.5,0.3,3.1,0.4,4.5,0.5c-0.7-11.1-1.4-22-2.1-33C65.6,103.6,57.2,103.6,48.5,103.6z M82.6,59.3
		c10.2,0,20.4,0,30.7,0c-0.7-3.4-1.3-6.8-2-10.2c-1.4-6.3-3.2-12.6-6-18.5c-0.6-1.2-1.2-1.8-2.7-1.8c-3.2,0.1-6.4,0.1-9.7,0
		c-1.1,0-1.8,0.4-2.2,1.4c-0.9,2.2-2,4.3-2.8,6.5C85.4,44.2,83.8,51.7,82.6,59.3z M77.3,142.1c-7.7-1.4-15.2-2.7-22.8-4.1
		c3.8,10.7,9.1,20.4,17,28.7c3.8,4,8.9,4.1,13.9,5.6C81,162.3,78.9,152.2,77.3,142.1z M141.4,64c-3.7-10.4-8.9-19.8-16.3-28.1
		c-4-4.4-9.2-4.7-14.5-6.1c4.3,9.9,6.4,20.1,8,30.1C126.2,61.2,133.7,62.6,141.4,64z M25.9,103.6c-0.1,0.2-0.1,0.4-0.1,0.5
		c0.2,5.7,1.1,11.3,2.8,16.8c0.2,0.6,0.8,1.1,1.3,1.4c5.2,2.5,10.4,4.9,15.6,7.3c0.4,0.2,0.8,0.2,0.9,0.2
		c-1.1-8.7-2.2-17.4-3.4-26.3C37.5,103.6,31.7,103.6,25.9,103.6z M164.1,72.2c-3.2-10.9-20.8-30.6-30.2-33.6
		c6,8.1,10.2,17,13.2,26.5c0.1,0.4,0.7,0.9,1.1,1.1C153.5,68.2,158.8,70.2,164.1,72.2z M61.8,163.2c-0.1-0.2-0.2-0.4-0.3-0.5
		c-5.6-7.7-9.6-16.2-12.5-25.2c-0.4-1.1-0.9-1.6-2-2c-3.1-1.1-6.2-2.2-9.2-3.4c-2.1-0.8-4-1.8-6.4-2.9
		C37.9,144.1,48,155.3,61.8,163.2z"/>
	<path class="st2" d="M42.8,13.7c10.7,0.4,18.9,5.1,23.9,14.5c5,9.4,4.4,18.9-1.5,27.8c-3.1,4.7-6.4,9.2-9.8,13.6
		c-3,3.9-5,8.2-5.9,13.1c-0.9,5.1-5.7,7.5-9.9,5.1c-1.7-1-2.9-2.4-3.2-4.4c-0.8-6-3.7-11-7.4-15.7c-3-3.8-5.8-7.7-8.4-11.7
		c-5.9-8.9-6.6-18.4-1.6-27.8C23.9,18.8,32.1,14.2,42.8,13.7z M42.1,18.8c-1.3,0.2-3.1,0.3-4.8,0.8c-14.8,3.9-21.2,21.1-12.5,33.7
		c3.1,4.5,6.3,9,9.6,13.3c3.5,4.5,5.8,9.4,6.7,15c0.1,1,0.4,2,1.6,2c1.4,0,1.6-1,1.8-2c0.9-5.7,3.4-10.7,6.9-15.2
		c3.4-4.4,6.7-8.8,9.7-13.5c4.7-7.2,5-14.9,0.9-22.5C57.9,22.8,51.2,19.2,42.1,18.8z"/>
	<path class="st0" d="M168.7,128.2c0,9.6-7.9,17.4-17.4,17.4c-9.7-0.1-17.5-7.9-17.5-17.5c0-9.6,7.9-17.5,17.5-17.4
		C161,110.7,168.7,118.5,168.7,128.2z M163.6,128c0-6.9-5.6-12.3-12.5-12.3c-6.7,0.1-12.3,5.7-12.2,12.4c0.1,6.8,5.6,12.3,12.3,12.3
		C158.1,140.5,163.6,134.9,163.6,128z"/>
	<path class="st1" d="M178.6,39.1c0.2,6.2-3.2,11.9-7.5,17.2c-0.9,1.1-2.1,1.2-3.3,0.4c-1.2-0.8-1.4-2.2-0.6-3.4c1-1.5,2-2.8,3-4.3
		c5.9-8.7,3.9-20.3-4.6-26.5c-8.3-6.1-19.9-4.4-26.4,3.8c-0.9,1.1-1.7,2-3.3,1.5c-1.9-0.6-2.3-2.6-0.9-4.4c3.7-4.9,8.6-7.9,14.6-9.2
		C164.4,11,178.8,22.8,178.6,39.1z"/>
	<path class="st1" d="M155.1,25.7c4.3,0.2,8,2.5,10.2,6.9c2.1,4.4,1.6,8.7-1.2,12.6c-1.3,1.8-2.8,2.2-4.1,1.2c-1.3-1-1.3-2.4,0-4.1
		c2.3-3.2,2-7.2-0.9-9.8c-2.8-2.5-6.9-2.4-9.7,0.2c-0.2,0.2-0.4,0.4-0.6,0.6c-1.1,0.9-2.6,0.9-3.5-0.1c-0.9-1-1-2.4,0-3.5
		C147.7,27.1,150.8,25.7,155.1,25.7z"/>
	<path class="st2" d="M43.1,26.4c0.4,0,1.1,0,1.9,0.1c1.4,0.2,2.3,1.4,2.2,2.7c-0.1,1.3-1.2,2.2-2.7,2.3c-1.5,0.1-3.1,0-4.5,0.4
		c-5,1.5-7.7,6.8-6.1,11.7c1.6,5,7,7.7,11.9,6c4.9-1.7,7.5-6.9,5.9-11.9c-0.1-0.3-0.3-0.6-0.4-1c-0.5-1.6,0.1-3,1.5-3.5
		c1.3-0.5,2.5,0.2,3.2,1.7c3.2,7-0.2,15.7-7.4,18.9c-5.4,2.4-11.6,1.3-15.9-2.7c-4.2-4-5.6-10.3-3.5-15.7
		C31.5,30.1,36.7,26.5,43.1,26.4z"/>
</g>
</svg>
