<?xml version="1.0" encoding="utf-8"?>
<!-- Generator: Adobe Illustrator 24.0.0, SVG Export Plug-In . SVG Version: 6.00 Build 0)  -->
<svg version="1.1" id="Capa_1" xmlns="http://www.w3.org/2000/svg" xmlns:xlink="http://www.w3.org/1999/xlink" x="0px" y="0px"
	 viewBox="0 0 198.4 198.4" style="enable-background:new 0 0 198.4 198.4;" xml:space="preserve">
<style type="text/css">
	.st0{fill:#ACAEAF;}
	.st1{fill:#FE9900;}
	.st2{fill:#1C3247;}
</style>
<g>
	<path class="st0" d="M24.1,185.5c-1.9-0.8-4.1-1.4-5.8-2.5c-3.6-2.4-5.2-6.1-5.3-10.4c-0.1-2.7,0-5.4,0-8.1c0-2.6,1.4-3.9,4-3.9
		s5.3,0,8.3,0c-6.6-6.3-9.9-13.7-9.4-22.5c0.5-8.9,4.6-15.9,11.8-21.1c10.8-7.7,26.2-6,35.4,3.4c9.1,9.3,12,27.4-1.5,40.2
		c0.8,0,1.4,0,2,0c10,0,20,0,30,0c0.8,0,1.6,0,2.3,0.2c1.5,0.4,2.5,1.8,2.5,3.2c0,1.5-1.2,2.9-2.8,3.2c-0.7,0.1-1.5,0.1-2.2,0.1
		c-23.8,0-47.7,0-71.5,0c-0.7,0-1.3,0-2.1,0c0,2.3-0.2,4.5,0.1,6.6c0.4,2.7,2.8,4.6,5.5,4.8c0.5,0,1,0,1.5,0c44.1,0,88.2,0,132.3,0
		c0.6,0,1.1,0,1.4,0c-0.4-3.8-0.8-7.5-1.2-11.4c-0.4,0-1,0-1.6,0c-10.8,0-21.6,0-32.5,0c-0.6,0-1.2,0-1.8-0.1
		c-1.6-0.3-2.7-1.5-2.8-3.1c-0.1-1.6,0.8-2.9,2.5-3.3c0.7-0.2,1.4-0.2,2.2-0.2c12.2,0,24.3,0,36.5,0c3.5,0,4.7,1.1,4.7,4.6
		c0,2.4,0,4.7,0,7.1c0,3.8,2.6,6.5,6.1,6.5s6-2.7,6-6.5c0-15.6,0-31.2,0-46.8c0-26.4,0-52.8,0-79.3c0-7.5-4-11.5-11.5-11.5
		c-4.3,0-8.5,0-12.8,0c-0.5,0-1.1,0-1.9,0c0,1.7,0.1,3.3,0,4.8c-0.3,5.3-4.5,9.3-9.8,9.4c-5.2,0.2-9.6-3.7-10.1-8.8
		c-0.2-1.7-0.2-3.5-0.3-5.3c-18.7,0-37.5,0-56.5,0c0,1.6,0.1,3.2,0,4.7c-0.3,5.3-4.5,9.3-9.8,9.4c-5.2,0.2-9.6-3.7-10.1-8.8
		c-0.2-1.7-0.2-3.5-0.3-5.3c-0.3,0-0.7-0.1-1.1-0.1c-4.2,0-8.4,0-12.6,0c-6.2,0.1-10.5,4.3-10.5,10.4c0,3.5,0,7,0,10.8
		c0.9,0,1.6,0,2.3,0c39.1,0,78.3,0,117.4,0c0.8,0,1.6,0,2.3,0.2c1.6,0.4,2.6,1.7,2.5,3.3c0,1.5-1,2.8-2.6,3.1
		c-0.8,0.2-1.6,0.2-2.3,0.2c-39.1,0-78.3,0-117.4,0c-0.7,0-1.3,0-2.2,0c0,0.7,0,1.4,0,2c0,12,0,24,0,36c0,0.7,0,1.5-0.2,2.2
		c-0.4,1.7-1.7,2.7-3.4,2.6c-1.6-0.1-2.9-1.3-3.1-3c-0.1-0.6,0-1.1,0-1.7c0-18.3,0-36.6,0-54.9c0-10.7,7.2-17.9,18-17.9
		c4.3,0,8.6,0,13,0c0.1-2.1,0.1-4.1,0.3-6.1c0.5-5,5.1-8.8,10.1-8.7c5.1,0.1,9.4,4.1,9.8,9.1c0.1,1.8,0,3.7,0,5.6
		c19,0,37.7,0,56.5,0c0.1-2,0.1-3.9,0.3-5.8c0.6-5.1,5-9,10.1-8.9c5.2,0.1,9.5,4.2,9.8,9.5c0.1,1.7,0,3.4,0,5.3c4,0,7.7-0.1,11.5,0
		c3,0.1,6.1,0,9,0.7c6.6,1.7,10.5,6.3,12.2,12.8c0.1,0.3,0.2,0.6,0.3,0.9c0,44,0,88,0,132c-0.9,2-1.5,4.1-2.6,5.9
		c-1.9,3-5.1,4.4-8.5,5.2C124.1,185.5,74.1,185.5,24.1,185.5z M64.2,139.7c0-11.5-9.3-20.9-20.8-20.9s-20.8,9.4-20.9,20.9
		c0,11.5,9.4,20.9,20.8,20.9C54.9,160.6,64.2,151.2,64.2,139.7z M68.9,31.2c0-2.5,0-4.9,0-7.4c0-2.4-1.4-3.9-3.3-3.9
		s-3.3,1.4-3.4,3.7c-0.1,5-0.1,10,0,15c0,2.4,1.5,3.7,3.5,3.6c1.9-0.1,3.1-1.5,3.2-3.8C68.9,36,68.9,33.6,68.9,31.2z M145.6,31.2
		c0-2.5,0-4.9,0-7.4c0-2.4-1.4-3.9-3.3-3.9c-1.9,0-3.3,1.4-3.4,3.7c-0.1,5-0.1,10,0,15c0,2.4,1.5,3.7,3.5,3.6
		c1.9-0.1,3.1-1.5,3.2-3.8C145.7,36,145.6,33.6,145.6,31.2z"/>
	<path class="st1" d="M107.8,93.3c0-7,5.7-12.8,12.6-12.8c7-0.1,12.9,5.8,12.9,12.8s-5.8,12.7-12.7,12.8
		C113.6,106.1,107.8,100.3,107.8,93.3z M114.5,93.3c0,3.3,2.7,6,6,6s6.1-2.8,6.1-6.1c0-3.3-2.7-6-6-6
		C117.2,87.2,114.5,89.9,114.5,93.3z"/>
	<path class="st0" d="M107.8,128.2c0-7,5.8-12.7,12.7-12.7c7,0,12.7,5.7,12.8,12.7c0,7-5.9,12.9-12.8,12.8
		C113.4,141,107.7,135.2,107.8,128.2z M126.5,128.5c0.1-3.3-2.4-6.1-5.7-6.3c-3.3-0.2-6.2,2.4-6.3,5.8c-0.1,3.3,2.4,6.1,5.7,6.3
		C123.5,134.5,126.4,131.9,126.5,128.5z"/>
	<path class="st1" d="M44.9,93.2c0-7,5.8-12.7,12.8-12.7c6.9,0,12.7,5.8,12.8,12.7c0,7-5.9,12.9-12.9,12.8
		C50.6,106,44.9,100.2,44.9,93.2z M51.7,93.2c0,3.3,2.7,6,5.9,6.1c3.3,0.1,6.1-2.7,6.2-6c0-3.3-2.7-6-6-6.1
		C54.4,87.2,51.7,89.9,51.7,93.2z"/>
	<path class="st0" d="M139.2,93c0.2-7,6.1-12.7,13-12.5c7,0.2,12.7,6.1,12.6,12.9c-0.2,7.1-6.1,12.9-13.1,12.6
		C144.6,105.8,139,100,139.2,93z M152.1,87.2c-3.3-0.1-6.1,2.5-6.2,5.8c-0.1,3.4,2.5,6.2,5.9,6.3c3.3,0.1,6.2-2.6,6.2-6
		C158,90.1,155.4,87.3,152.1,87.2z"/>
	<path class="st0" d="M139.2,128.3c0-7,5.7-12.8,12.7-12.8c7-0.1,12.9,5.8,12.9,12.8c0,7-5.8,12.7-12.8,12.7
		C145,141.1,139.2,135.3,139.2,128.3z M151.9,134.3c3.3,0,6-2.7,6.1-6c0.1-3.3-2.7-6.1-6-6.1s-6,2.7-6,6
		C145.8,131.5,148.6,134.3,151.9,134.3z"/>
	<path class="st1" d="M101.8,93.2c0,7-5.7,12.8-12.7,12.8s-12.9-5.9-12.8-12.9s5.9-12.7,12.8-12.7C96.1,80.5,101.8,86.3,101.8,93.2z
		 M95.1,93.2c0-3.3-2.7-6-6-6S83,90,83,93.3c0,3.3,2.7,6,6,6C92.4,99.3,95.1,96.6,95.1,93.2z"/>
	<path class="st0" d="M101.8,128.3c0,7-5.7,12.8-12.7,12.8s-12.9-5.9-12.8-12.9c0.1-7,5.9-12.7,12.8-12.7
		C96.1,115.5,101.8,121.3,101.8,128.3z M95.1,128.3c0-3.4-2.7-6.1-6-6.1s-6,2.7-6,6c-0.1,3.3,2.7,6.1,6.1,6.1
		C92.4,134.3,95.1,131.6,95.1,128.3z"/>
	<path class="st0" d="M168.2,62.6c-1.8,0-3.3-1.6-3.3-3.4c0-1.8,1.6-3.3,3.4-3.3c1.8,0,3.3,1.6,3.3,3.4
		C171.5,61.1,169.9,62.6,168.2,62.6z"/>
	<path class="st0" d="M111,160.6c1.8,0,3.3,1.5,3.4,3.3c0,1.8-1.5,3.3-3.3,3.4c-1.8,0-3.3-1.4-3.3-3.3
		C107.8,162.2,109.3,160.7,111,160.6z"/>
	<path class="st2" d="M39.5,142.7c3.7-3.7,7-7,10.3-10.4c0.4-0.4,0.9-0.9,1.4-1.2c1.4-0.9,3-0.8,4.2,0.3c1.1,1.1,1.5,3,0.4,4.1
		c-4.7,4.9-9.5,9.7-14.4,14.4c-1.2,1.1-2.8,0.8-4-0.3c-2.2-2-4.3-4.1-6.3-6.3c-1.3-1.4-1.2-3.3,0-4.6c1.3-1.3,3.2-1.4,4.7-0.1
		C37.1,139.9,38.2,141.3,39.5,142.7z"/>
</g>
</svg>
