<?xml version="1.0" encoding="utf-8"?>
<!-- Generator: Adobe Illustrator 24.0.0, SVG Export Plug-In . SVG Version: 6.00 Build 0)  -->
<svg version="1.1" id="Capa_1" xmlns="http://www.w3.org/2000/svg" xmlns:xlink="http://www.w3.org/1999/xlink" x="0px" y="0px"
	 viewBox="0 0 200 200" style="enable-background:new 0 0 200 200;" xml:space="preserve">
<style type="text/css">
	.st0{fill:#ACAEAF;}
	.st1{fill:#1C3247;}
	.st2{fill:#FE9900;}
</style>
<g>
	<path class="st0" d="M52.2,109.7c0-6.4,0-12.6,0-18.8c1.9-0.6,3.8-1.2,5.7-1.8c0.4-0.1,0.8-0.2,1.2-0.4c1.2-0.5,3.4-6.3,2.8-7.5
		c-0.9-1.7-1.8-3.4-2.6-5.1c-0.2-0.5-0.1-1.4,0.3-1.7c4.3-4.4,8.7-8.8,13.2-13.2c0.3-0.3,1.3-0.4,1.7-0.2c1.7,0.8,3.4,1.8,5.1,2.6
		c0.5,0.2,1.3,0.1,1.9,0.1c0.3,0,0.5-0.3,0.8-0.3c3.8-0.7,5.6-3.2,6.1-6.9c0.1-0.8,0.5-1.6,0.8-2.5c1.3,0,2.5,0,3.7,0
		c1.2,0,2.4,0,3.7,0c0-1.9,0-3.6,0-5.5c-11.1,0-22.1,0-33.3,0c0,5.5,0,11,0,16.5c-16.8,0-33.5,0-50.2,0c0-12.9,0-25.8,0-38.8
		c16.6,0,33.3,0,50,0c0,5.4,0,10.9,0,16.5c11.2,0,22.2,0,33.5,0c0-0.6,0-1.2,0-1.8c0-5.7,0-11.4,0-17.1c0-5.3,3.5-8.9,8.8-8.9
		c23.8,0,47.6,0,71.5,0c5.4,0,8.9,3.5,8.9,9c0,20,0,40.1,0,60.1c0,5.5-3.5,9-9.1,9c-9.3,0-18.6,0-27.9,0c-0.6,0-1.3,0-2,0
		c0,6.3,0,12.5,0,18.7c-2.2,0.7-4.2,1.4-6.2,2c-0.3,0.1-0.6,0.1-0.8,0.2c-1.1,0.5-3.1,6.5-2.6,7.6c0.8,1.7,1.8,3.3,2.5,5
		c0.2,0.5,0.1,1.4-0.2,1.7c-4.3,4.4-8.7,8.8-13.2,13.2c-0.3,0.3-1.2,0.3-1.7,0.2c-0.4,0-0.7-0.4-1.1-0.5c-5.2-2.7-5.2-2.7-10.4-0.2
		c-0.5,0.2-0.9,0.8-1.1,1.4c-0.8,2.1-1.4,4.3-2.2,6.5c-1.3,0-2.5,0-3.7,0c-1.2,0-2.4,0-3.7,0c0,1.9,0,3.6,0,5.5
		c11.1,0,22.1,0,33.3,0c0-5.5,0-10.9,0-16.5c16.8,0,33.5,0,50.2,0c0,12.9,0,25.8,0,38.8c-16.6,0-33.3,0-50,0c0-5.4,0-10.9,0-16.5
		c-11.2,0-22.2,0-33.5,0c0,0.6,0,1.2,0,1.8c0,5.7,0,11.4,0,17.1c0,5.3-3.5,8.9-8.8,8.9c-23.8,0-47.6,0-71.5,0c-5.4,0-8.9-3.5-8.9-9
		c0-20,0-40.1,0-60.1c0-5.5,3.5-9,9.1-9c9.3,0,18.6,0,27.9,0C50.7,109.7,51.4,109.7,52.2,109.7z M166.4,87.4c3.4,0,6.8,0,10.1,0
		c3.1,0,3.9-0.8,3.9-3.9c0-19.7,0-39.4,0-59.1c0-3.1-0.8-4-3.9-4c-23.4,0-46.8,0-70.2,0c-3.2,0-4,0.8-4,4c0,19.6,0,39.3,0,58.9
		c0,0.5-0.2,1.2,0.1,1.5c0.6,0.9,1.4,2.3,2.2,2.3c3.9,0.2,7.8,0.1,11.8,0.1c1.4-9.2,6.2-15.7,13.7-19.6c-1-2.5-2.4-4.7-2.5-7
		c-0.1-2.8-1.2-4.8-2.7-6.9c-0.3-0.5-0.7-1-0.9-1.5c-5.5-9.3,0-21.4,10.6-23.1c3.9-0.6,8-0.6,12-0.3c9.1,0.6,15.6,9.3,14,18.3
		c-0.6,3.3-2.3,5.9-4.1,8.5c-0.4,0.7-1.2,1.4-1.1,2.1c0.1,3.6-0.8,6.8-3.3,9.6C160.3,71.8,165.1,78.3,166.4,87.4z M83,182.3
		c3.4,0,6.6,0,9.8,0c3.2,0,4-0.8,4-4c0-19.6,0-39.3,0-58.9c0-3.2-0.8-4-4-4c-23.4,0-46.7,0-70.1,0c-3.2,0-4,0.8-4,4
		c0,19.6,0,39.3,0,58.9c0,0.5-0.2,1.2,0.1,1.5c0.6,0.9,1.4,2.3,2.2,2.3c3.9,0.2,7.7,0.1,11.6,0.1c0.2-6.2,2.2-11.5,5.6-15.7
		c-1-2.9-2.5-5.3-2.6-7.8c-0.3-6.3-0.5-12.7,0.2-19c1.2-10.7,11-18.8,21.9-18.8c10.9,0,20.6,8.1,21.9,18.8c0.6,5,0.2,10.1,0.4,15.1
		c0.1,4.1-0.5,7.9-3.2,11.1C81.7,173.3,82.3,174.8,83,182.3z M76.1,109.7c4.5,0,8.9,0.2,13.3,0c10.3-0.6,13.8,2.9,13.1,13
		c-0.1,1.1,0,2.3,0,3.4c15.7-1.3,26.6-18.4,20.7-33.2c-5.6,0-11.2,0-16.8,0c-6.1,0-9.4-3.3-9.4-9.3c0-2.4,0-4.7,0-7.1
		C82.3,77.7,70.2,93.5,76.1,109.7z M180.4,143.3c-13.1,0-26,0-38.8,0c0,9.3,0,18.5,0,27.7c13,0,25.9,0,38.8,0
		C180.4,161.8,180.4,152.6,180.4,143.3z M57.7,31.8c-13,0-26,0-38.8,0c0,9.3,0,18.5,0,27.7c13,0,25.9,0,38.8,0
		C57.7,50.2,57.7,41,57.7,31.8z M141.5,93.1c-4.2,0-8.2,0-12.3,0c2.4,9.3,1,17.8-4.3,25.6c-5.4,7.8-13,12.1-22.4,13.2
		c0,3.8,0,7.5,0,11.1c3.4,0.3,3.6,0.4,4.3-2.7c0.6-2.8,1.9-4.6,4.8-4.9c0.7-0.1,1.5-0.4,2.1-0.8c3.4-2.5,6.7-2.4,10,0.1
		c0.3,0.3,1.4,0.1,1.7-0.3c2.5-2.4,4.9-4.8,7.3-7.2c0.7-0.7,0.8-1.3,0.3-2.1c-0.8-1.3-1.5-2.6-2.1-4c-0.2-0.5-0.2-1.2,0-1.7
		c1.1-2.9,2.3-5.8,3.6-8.7c0.2-0.5,0.8-1.1,1.3-1.4c1.4-0.6,3-0.9,4.4-1.5c0.4-0.2,1-0.7,1-1.1C141.5,102.4,141.5,97.8,141.5,93.1z
		 M96.8,59.7c-3.4-0.4-3.6-0.4-4.3,2.6c-0.6,2.7-1.8,4.6-4.8,4.9c-0.8,0.1-1.6,0.4-2.3,0.9c-3.4,2.5-6.6,2.2-9.9-0.2
		c-0.3-0.3-1.4-0.1-1.7,0.2c-2.5,2.4-5,4.9-7.4,7.4c-0.3,0.4-0.5,1.2-0.3,1.7c0.5,1.3,1.2,2.5,1.9,3.7c0.6,0.9,0.6,1.7,0,2.7
		c-0.9,1.7-2,3.4-2.3,5.2c-0.6,3.4-2.6,5-5.8,5.5c-1.7,0.2-2.2,1.1-2.1,2.8c0.2,3.7,0,7.3,0.1,11c0,0.5,0.1,1,0.1,1.5
		c4.1,0,8.1,0,12.2,0c-2.4-9.3-1-17.9,4.4-25.7c5.4-7.8,13-12,22.4-13.2C96.8,67,96.8,63.4,96.8,59.7z M160.6,87.4
		c-0.4-5.9-5.9-13.3-10.7-14.4c-0.5,5.3-3.5,8.7-8,8.9c-2.1,0.1-3.9-0.5-5.5-1.7c-2.4-1.8-3.3-4.3-3.4-7.3
		c-5.5,2.1-10.7,9.3-10.6,14.5C135.1,87.4,147.8,87.4,160.6,87.4z M133.1,55.9c0,1.2,0,2.4,0,3.7c0.1,3.2,2.4,5.5,5.5,5.6
		c1.9,0.1,3.8,0.1,5.7,0c3-0.1,5.3-2.4,5.5-5.4c0.1-1.3,0-2.6,0-3.8c0-6.4,0.6-5.2-5.1-8.4c-2.3-1.3-4.2-1.3-6.5,0
		C132.5,50.6,133.1,49.3,133.1,55.9z M49.4,147.9c0,1.2,0,2.4,0,3.7c0.1,3.2,2.4,5.5,5.5,5.6c1.9,0.1,3.8,0.1,5.7,0
		c3-0.1,5.3-2.4,5.5-5.4c0.1-1.3,0-2.6,0-3.8c0-6.5,0.6-5.2-5.1-8.4c-2.3-1.3-4.2-1.3-6.5,0C48.8,142.7,49.5,141.4,49.4,147.9z
		 M60.6,126.9c0,1.9-0.1,3.6,0,5.3c0,0.5,0.5,1.1,1,1.4c1.8,1,3.6,1.8,5.4,2.8c3.1,1.6,4.7,4.2,4.7,7.7c0,1.6-0.1,3.3,0,4.9
		c0.2,3.9-0.3,7.5-3.3,10.5c1.5,0.9,2.9,1.7,4.7,2.9c0.5-1.9,1.2-3.6,1.3-5.3c0.2-3.4,0.1-6.8,0-10.3c0-2.3,0-4.5-0.4-6.8
		C73,133.3,67.1,127.6,60.6,126.9z M55,126.9c-6.4,0.6-12.8,6.4-13.5,13.1c-0.6,6-0.4,12.2-0.3,18.2c0,1.3,0.9,2.6,1.4,4
		c1.7-1.1,3.1-1.9,4.5-2.8c-2.6-2.7-3.4-5.9-3.3-9.4c0.1-1.9,0-3.8,0-5.7c0-3.7,1.7-6.4,5-8.1c1.7-0.9,3.4-1.7,5.1-2.6
		c0.4-0.2,1-0.8,1-1.2C55.1,130.6,55,128.7,55,126.9z M38.3,182.1c5.1,0,10,0,15.2,0c-2.4-5.3-4.6-10.4-7-15.7
		C41.2,170.4,38.5,175.6,38.3,182.1z M77.3,182.2c-0.2-6.6-2.9-11.7-8.2-15.8c-2.4,5.4-4.7,10.5-7,15.8
		C67.4,182.2,72.3,182.2,77.3,182.2z M128.3,48.2c1.3-2.6,3.4-3.8,5.7-4.8c1.3-0.6,2.5-1.2,3.7-1.9c0.4-0.2,0.9-0.8,0.9-1.2
		c0.1-1.9,0-3.8,0-5.8c-4-0.2-7.1,1.1-9.3,4.3C127.4,41.5,126.9,44.6,128.3,48.2z M144.3,34.5c0,1.8,0.1,3.4,0,5
		c-0.1,1.2,0.3,1.8,1.4,2.4c3.2,1.7,6.9,2.6,8.9,6.3c1.3-3.3,1-6.3-0.8-9C151.7,35.8,148.5,34.3,144.3,34.5z M51.5,163.8
		c1.7,4.5,1.7,4.5,6.2,4.5c1.2,0,2.3,0.1,3.5,0c0.5-0.1,1.1-0.5,1.4-0.9c0.6-1.1,1-2.3,1.6-3.5C59.9,162.4,55.7,162.4,51.5,163.8z
		 M138.7,70.9c0.1,1.9-0.6,3.9,1.4,4.9c0.8,0.4,2.1,0.4,2.9,0c1.9-1,1.3-3,1.3-4.9C142.4,70.9,140.6,70.9,138.7,70.9z M55.9,174
		c0.7,1.4,1.2,2.6,1.9,4.1c0.7-1.6,1.2-2.8,1.8-4.1C58.3,174,57.3,174,55.9,174z"/>
	<path class="st0" d="M174.9,148.9c-9.3,0-18.5,0-27.7,0c0,1.9,0,3.6,0,5.4c9.3,0,18.4,0,27.7,0
		C174.9,152.5,174.9,150.8,174.9,148.9z M147.1,165.4c1.9,0,3.6,0,5.4,0c0-1.9,0-3.6,0-5.4c-1.9,0-3.6,0-5.4,0
		C147.1,161.9,147.1,163.6,147.1,165.4z M158.3,165.4c1.9,0,3.7,0,5.4,0c0-1.9,0-3.6,0-5.3c-1.9,0-3.6,0-5.4,0
		C158.3,161.9,158.3,163.6,158.3,165.4z M174.8,165.5c0-1.9,0-3.7,0-5.4c-1.8,0-3.6,0-5.3,0c0,1.8,0,3.6,0,5.4
		C171.3,165.5,173,165.5,174.8,165.5z"/>
	<path class="st0" d="M138.7,70.9c2,0,3.7,0,5.5,0c0,1.9,0.6,3.8-1.3,4.9c-0.8,0.4-2.1,0.4-2.9,0C138.1,74.8,138.8,72.8,138.7,70.9z
		"/>
	<path class="st0" d="M113.5,31.6c-1.9,0-3.6,0-5.4,0c0-1.8,0-3.5,0-5.4c1.7,0,3.5,0,5.4,0C113.5,27.9,113.5,29.7,113.5,31.6z"/>
	<path class="st0" d="M174.9,26.2c0,1.8,0,3.5,0,5.4c-1.8,0-3.5,0-5.4,0c0-1.7,0-3.5,0-5.4C171.2,26.2,173,26.2,174.9,26.2z"/>
	<path class="st0" d="M24.5,121c1.8,0,3.5,0,5.3,0c0,1.8,0,3.6,0,5.4c-1.8,0-3.5,0-5.3,0C24.5,124.7,24.5,122.9,24.5,121z"/>
	<path class="st0" d="M85.8,126.4c0-1.8,0-3.5,0-5.4c1.8,0,3.5,0,5.4,0c0,1.7,0,3.5,0,5.4C89.4,126.4,87.7,126.4,85.8,126.4z"/>
	<path class="st1" d="M174.9,148.9c0,1.8,0,3.6,0,5.4c-9.2,0-18.4,0-27.7,0c0-1.7,0-3.5,0-5.4C156.3,148.9,165.5,148.9,174.9,148.9z
		"/>
	<path class="st1" d="M147.1,165.4c0-1.8,0-3.5,0-5.4c1.8,0,3.5,0,5.4,0c0,1.8,0,3.5,0,5.4C150.8,165.4,149,165.4,147.1,165.4z"/>
	<path class="st1" d="M158.3,165.4c0-1.8,0-3.5,0-5.3c1.8,0,3.6,0,5.4,0c0,1.8,0,3.5,0,5.3C162,165.4,160.2,165.4,158.3,165.4z"/>
	<path class="st1" d="M174.8,165.5c-1.8,0-3.5,0-5.3,0c0-1.8,0-3.6,0-5.4c1.8,0,3.5,0,5.3,0C174.8,161.8,174.8,163.5,174.8,165.5z"
		/>
	<path class="st2" d="M52.1,37.3c0,1.8,0,3.6,0,5.4c-9.3,0-18.5,0-27.7,0c0-1.8,0-3.5,0-5.4C33.6,37.3,42.8,37.3,52.1,37.3z"/>
	<path class="st2" d="M24.4,48.5c1.8,0,3.5,0,5.4,0c0,1.8,0,3.5,0,5.4c-1.8,0-3.5,0-5.4,0C24.4,52.1,24.4,50.4,24.4,48.5z"/>
	<path class="st2" d="M41,48.5c0,1.8,0,3.5,0,5.4c-1.8,0-3.5,0-5.4,0c0-1.8,0-3.5,0-5.4C37.3,48.5,39.1,48.5,41,48.5z"/>
	<path class="st2" d="M52.1,53.9c-1.8,0-3.6,0-5.4,0c0-1.8,0-3.6,0-5.4c1.8,0,3.5,0,5.4,0C52.1,50.3,52.1,52,52.1,53.9z"/>
</g>
</svg>
