<?xml version="1.0" encoding="utf-8"?>
<!-- Generator: Adobe Illustrator 24.0.0, SVG Export Plug-In . SVG Version: 6.00 Build 0)  -->
<svg version="1.1" id="Capa_1" xmlns="http://www.w3.org/2000/svg" xmlns:xlink="http://www.w3.org/1999/xlink" x="0px" y="0px"
	 viewBox="0 0 200 200" style="enable-background:new 0 0 200 200;" xml:space="preserve">
<style type="text/css">
	.st0{fill:#ACAEAF;}
	.st1{fill:#FE9900;}
	.st2{fill:#1C3247;}
</style>
<g>
	<path class="st0" d="M163.4,27c3.2,0.9,6.1,2.4,7.4,5.6c0.7,1.7,1.1,3.7,1.1,5.5c0.1,32.4,0,64.8,0,97.3c0,0.1,0,0.3,0,0.4
		c0,6.3-3.9,10.6-10.2,10.7c-17.1,0.1-34.2,0-51.3,0c-0.1,0-0.3-0.1-0.5-0.1c0-1.6,0-3.1,0-4.9c0.7,0,1.3,0,1.9,0
		c16.4,0,32.9,0,49.3,0c3.2,0,5.1-1.3,5.8-3.8c0.1-0.6,0.2-1.3,0.2-1.9c0-32.7,0-65.4,0-98.1c0-3.7-2-5.7-5.7-5.7
		c-37.7,0-75.3,0-113,0c-3.9,0-5.8,1.9-5.8,5.9c0,19,0,37.9,0,56.9c0,0.6,0,1.2,0,1.9c-1.7,0-3.2,0-5,0c0-0.6,0-1.3,0-1.9
		c0-18.4,0.1-36.8,0-55.3c0-5.7,1.4-10.4,8.4-12.5C85,27,124.2,27,163.4,27z"/>
	<path class="st1" d="M79.7,165.3c-1.5,0.6-2.9,1.1-4.2,1.7c-0.4,0.2-0.7,0.8-0.7,1.2c-0.1,1.7,0,3.4,0,5.1c0,2-0.9,3-2.9,3
		c-4.7,0-9.3,0-14,0c-2,0-2.9-1-2.9-3c0-1.6-0.1-3.2,0-4.8c0.1-1-0.3-1.5-1.3-1.7c-0.2-0.1-0.5-0.1-0.7-0.2
		c-2.2-1.7-3.8-0.8-5.3,1.2c-0.6,0.8-1.4,1.5-2.2,2.2c-1.1,1-2.5,1.1-3.5,0c-3.5-3.5-7.1-7-10.5-10.5c-1.2-1.2-1-2.5,0.2-3.7
		c1.2-1.3,2.5-2.4,3.7-3.7c0.3-0.4,0.3-1.1,0.3-1.6c0-0.4-0.4-0.7-0.4-1.1c-0.4-2.6-2.1-3.1-4.3-2.8c-1.1,0.1-2.2,0.1-3.3,0
		c-1.6-0.1-2.4-1-2.4-2.6c0-4.9,0-9.7,0-14.6c0-1.8,1-2.7,2.9-2.7c1.7-0.1,3.4,0,5.1,0c0.7,0,1.1-0.2,1.4-0.9
		c1.6-3.8,1.6-3.8-1.3-6.8c-3.3-3.3-3.3-3.7,0-7c2.7-2.7,5.5-5.5,8.3-8.2c1.7-1.7,2.9-1.7,4.7,0c0.3,0.3,0.8,0.6,1,1
		c1.8,2.7,3.9,3.2,6.8,1.5c0.7-0.5,1.1-0.8,1-1.6c-0.1-1.7,0-3.3,0-5c0-1.9,1-2.9,2.9-2.9c4.7,0,9.4,0,14.1,0c1.9,0,2.8,0.9,2.9,2.9
		c0,1.6,0,3.2,0,4.8c0,0.7-0.1,1.6,0.9,1.6c1.6,0,2.9,2.6,4.8,0.8c1.2-1.1,2.3-2.4,3.5-3.5c1.4-1.3,2.6-1.3,4,0
		c3.4,3.3,6.8,6.7,10.1,10.1c1.3,1.3,1.3,2.6,0,4c-1.1,1.2-2.3,2.3-3.5,3.5c-0.2,0.2-0.6,0.5-0.6,0.6c0.4,1.5,0.9,3,1.5,4.4
		c0.1,0.3,0.8,0.6,1.3,0.6c1.6,0.1,3.3,0,5,0c2.1,0.1,3,1,3,3.1c0,4.6,0,9.2,0,13.9c0,2-0.9,2.9-3,3c-1.7,0.1-3.3,0.1-5,0
		c-0.8,0-1.4,0.2-1.6,1.1c-0.1,0.4-0.3,0.8-0.4,1.2c-1,2.5-1,2.5,0.9,4.4c0.8,0.8,1.7,1.6,2.5,2.5c1.2,1.3,1.3,2.6,0,3.9
		c-3.4,3.4-6.8,6.8-10.2,10.2c-1.3,1.3-2.6,1.2-4-0.1C82.4,168.2,81.1,166.7,79.7,165.3z M30.1,141.5c1.8,0,3.5,0,5.2,0
		c2,0,2.5,0.5,3.2,2.3c0.8,2.1,1.7,4.1,2.6,6.2c0.8,1.7,0.7,2.6-0.7,3.9c-1.2,1.2-2.5,2.4-3.6,3.5c2.4,2.4,4.7,4.7,7.1,7.2
		c1.1-1.2,2.4-2.5,3.6-3.8c1-1.1,2.2-1.2,3.6-0.6c2,0.9,4.1,1.8,6.2,2.6c2.1,0.8,2.5,1.3,2.5,3.5c0,1.7,0,3.4,0,5c3.4,0,6.6,0,10,0
		c0-1.8,0-3.6,0-5.3c0-1.5,0.6-2.5,2.1-3.1c2.2-0.8,4.4-1.7,6.6-2.7c1.4-0.6,2.5-0.5,3.6,0.6c1.2,1.3,2.5,2.6,3.5,3.7
		c2.4-2.4,4.7-4.7,7.2-7.2c-1.1-1.1-2.4-2.3-3.6-3.5c-1.1-1.1-1.3-2.3-0.6-3.7c0.9-1.9,1.7-3.9,2.5-5.9c0.9-2.4,1.3-2.7,3.8-2.7
		c1.6,0,3.2,0,4.8,0c0-3.4,0-6.6,0-9.7c-0.2-0.1-0.3-0.2-0.3-0.2c-1.6,0-3.1,0-4.7-0.1c-2.3,0-2.8-0.4-3.6-2.6
		c-0.7-1.9-1.5-3.8-2.3-5.6c-0.9-2.1-0.9-2.7,0.8-4.4c1.1-1.2,2.3-2.3,3.3-3.3c-2.4-2.4-4.7-4.7-7.1-7.1c-1.1,1.1-2.3,2.4-3.5,3.6
		c-1.4,1.4-2.1,1.5-3.9,0.7c-2-0.9-4.1-1.8-6.2-2.6c-1.9-0.7-2.3-1.3-2.4-3.3c0-1.7,0-3.4,0-5.1c-3.4,0-6.6,0-9.9,0
		c0,1.8,0,3.6,0,5.3c0,1.6-0.7,2.5-2.1,3.1c-2.2,0.8-4.3,1.7-6.4,2.7c-1.5,0.7-2.7,0.5-3.8-0.7c-1.2-1.3-2.4-2.5-3.3-3.6
		c-2.5,2.5-4.8,4.8-7.3,7.2c1.1,1,2.3,2.2,3.4,3.3c1.4,1.4,1.5,2.2,0.7,4c-0.9,2-1.7,4.1-2.5,6.2c-0.7,1.7-1.3,2.2-3.1,2.2
		c-1.7,0-3.5,0-5.3,0C30.1,134.9,30.1,138.1,30.1,141.5z"/>
	<path class="st0" d="M47.5,51.7c0-1.7,0-3.2,0-4.8c38.1,0,76.2,0,114.3,0c0,1.6,0,3.1,0,4.8C123.7,51.7,85.7,51.7,47.5,51.7z"/>
	<path class="st0" d="M52.3,41.8c-1.6,0-3.1,0-4.8,0c0-1.6,0-3.2,0-4.8c1.6,0,3.2,0,4.8,0C52.3,38.6,52.3,40.2,52.3,41.8z"/>
	<path class="st0" d="M57.5,41.8c0-1.7,0-3.2,0-4.8c1.6,0,3.1,0,4.8,0c0,1.6,0,3.1,0,4.8C60.7,41.8,59.1,41.8,57.5,41.8z"/>
	<path class="st0" d="M67.4,41.8c0-1.6,0-3.1,0-4.7c1.6,0,3.2,0,4.8,0c0,1.6,0,3.1,0,4.7C70.7,41.8,69.1,41.8,67.4,41.8z"/>
	<path class="st1" d="M47.4,136.3c0.2-9.9,8.1-17.4,17.9-17.2c9.5,0.2,17.2,8.2,16.9,17.8c-0.2,9.7-8.2,17.2-18,17
		C54.9,153.7,47.2,145.6,47.4,136.3z M52.4,136.6c0.1,6.9,5.7,12.4,12.5,12.3c6.8,0,12.5-5.8,12.4-12.5c-0.1-6.8-5.7-12.4-12.5-12.3
		C57.9,124.2,52.4,129.8,52.4,136.6z"/>
	<g>
		<path class="st2" d="M77,65c-0.1-0.3-0.1-0.6-0.2-0.8c-0.8-2.9-3.4-4.9-6.4-4.9c-3.9,0-7.9,0-11.8,0c-3.6,0-6.6,3-6.6,6.6
			c0,3.9,0,7.8,0,11.8c0,3.4,2.6,6.2,6,6.6l12.9,0l0.4-0.1c0.3-0.1,0.6-0.1,0.8-0.2c2.6-0.7,4.5-3,4.9-5.8l0-0.1l0-12.9L77,65z
			 M73.3,73.6c0,1.3,0,2.7,0,4c0,1.5-0.9,2.6-2.3,2.9c-0.2,0-0.4,0.1-0.7,0.1c-3.8,0-7.6,0-11.5,0c-1.6,0-2.7-1-3-2.5
			c0-0.2,0-0.3,0-0.5V66.1c0-1.6,1-2.7,2.6-3c0.1,0,0.2,0,0.3,0l2.9,0c1.3,0,2.7,0,4,0c1.6,0,3.2,0,4.7,0c1.4,0,2.6,0.9,2.8,2.3
			c0.1,0.2,0.1,0.5,0.1,0.7L73.3,73.6z"/>
		<path class="st2" d="M70,67.1c-0.7-0.2-1.4,0-1.9,0.5c-1.8,1.7-3.5,3.4-5.3,5.2c-0.1,0.1-0.2,0.2-0.3,0.3l-1.4-1.4
			c-0.6-0.6-1.2-0.6-1.6-0.6c-0.7,0.1-1.3,0.6-1.5,1.3c-0.2,0.7-0.1,1.4,0.5,2l2.6,2.6c0.5,0.4,1,0.7,1.5,0.7c0.5,0,1-0.2,1.4-0.7
			l6.7-6.6c0.5-0.5,0.7-1.2,0.6-1.9C71.2,67.8,70.7,67.3,70,67.1z M62.7,74.4L62.7,74.4L62.7,74.4C62.7,74.4,62.7,74.4,62.7,74.4z"
			/>
		<path class="st2" d="M114.1,65c-0.1-0.3-0.1-0.6-0.2-0.8c-0.8-2.9-3.4-4.9-6.4-4.9c-3.9,0-7.9,0-11.8,0c-3.6,0-6.6,3-6.6,6.6
			c0,3.9,0,7.8,0,11.8c0,3.4,2.6,6.2,6,6.6l12.9,0l0.4-0.1c0.3-0.1,0.6-0.1,0.8-0.2c2.6-0.7,4.5-3,4.9-5.8l0-0.1l0-12.9L114.1,65z
			 M110.4,73.6c0,1.3,0,2.7,0,4c0,1.5-0.9,2.6-2.3,2.9c-0.2,0-0.4,0.1-0.7,0.1c-3.8,0-7.6,0-11.5,0c-1.6,0-2.7-1-3-2.5
			c0-0.2,0-0.3,0-0.5V66.1c0-1.6,1-2.7,2.6-3c0.1,0,0.2,0,0.3,0l2.9,0c1.3,0,2.7,0,4,0c1.6,0,3.2,0,4.7,0c1.4,0,2.6,0.9,2.8,2.3
			c0.1,0.2,0.1,0.5,0.1,0.7L110.4,73.6z"/>
		<path class="st2" d="M107.1,67.1c-0.7-0.2-1.4,0-1.9,0.5c-1.8,1.7-3.5,3.4-5.3,5.2c-0.1,0.1-0.2,0.2-0.3,0.3l-1.4-1.4
			c-0.6-0.6-1.2-0.6-1.6-0.6c-0.7,0.1-1.3,0.6-1.5,1.3c-0.2,0.7-0.1,1.4,0.5,2l2.6,2.6c0.5,0.4,1,0.7,1.5,0.7c0.5,0,1-0.2,1.4-0.7
			l6.7-6.6c0.5-0.5,0.7-1.2,0.6-1.9C108.3,67.8,107.8,67.3,107.1,67.1z M99.8,74.4L99.8,74.4L99.8,74.4
			C99.8,74.4,99.8,74.4,99.8,74.4z"/>
		<path class="st2" d="M132.2,84.3l12.9,0l0.4-0.1c0.3-0.1,0.6-0.1,0.8-0.2c2.6-0.7,4.5-3,4.9-5.8l0-0.1l0-12.9l-0.1-0.3
			c-0.1-0.3-0.1-0.6-0.2-0.8c-0.8-2.9-3.4-4.9-6.4-4.9c-3.9,0-7.9,0-11.8,0c-3.6,0-6.6,3-6.6,6.6c0,3.9,0,7.8,0,11.8
			C126.3,81.1,128.8,83.9,132.2,84.3z M130,77.5V66.1c0-1.6,1-2.7,2.6-3c0.1,0,0.2,0,0.3,0l2.9,0c1.3,0,2.7,0,4,0c1.6,0,3.2,0,4.7,0
			c1.4,0,2.6,0.9,2.8,2.3c0.1,0.2,0.1,0.5,0.1,0.7l0,7.4c0,1.3,0,2.7,0,4c0,1.5-0.9,2.6-2.3,2.9c-0.2,0-0.4,0.1-0.7,0.1
			c-3.8,0-7.6,0-11.5,0c-1.6,0-2.7-1-3-2.5C130,77.8,130,77.7,130,77.5z"/>
		<path class="st2" d="M135.4,76.9c0.5,0.4,1,0.7,1.5,0.7c0.5,0,1-0.2,1.4-0.7l6.7-6.6c0.5-0.5,0.7-1.2,0.6-1.9
			c-0.2-0.7-0.7-1.2-1.3-1.4c-0.7-0.2-1.4,0-1.9,0.5c-1.8,1.7-3.5,3.4-5.3,5.2c-0.1,0.1-0.2,0.2-0.3,0.3l-1.4-1.4
			c-0.6-0.6-1.2-0.6-1.6-0.6c-0.7,0.1-1.3,0.6-1.5,1.3c-0.2,0.7-0.1,1.4,0.5,2L135.4,76.9z M136.9,74.4L136.9,74.4L136.9,74.4
			C136.9,74.4,136.9,74.4,136.9,74.4z"/>
		<path class="st2" d="M151.2,102.1c-0.1-0.3-0.1-0.6-0.2-0.8c-0.8-2.9-3.4-4.9-6.4-4.9c-3.9,0-7.9,0-11.8,0c-3.6,0-6.6,3-6.6,6.6
			c0,3.9,0,7.8,0,11.8c0,3.4,2.6,6.2,6,6.6l12.9,0l0.4-0.1c0.3-0.1,0.6-0.1,0.8-0.2c2.6-0.7,4.5-3,4.9-5.8l0-0.1l0-12.9L151.2,102.1
			z M147.5,110.7c0,1.3,0,2.7,0,4c0,1.5-0.9,2.6-2.3,2.9c-0.2,0-0.4,0.1-0.7,0.1c-3.8,0-7.6,0-11.5,0c-1.6,0-2.7-1-3-2.5
			c0-0.2,0-0.3,0-0.5v-11.4c0-1.6,1-2.7,2.6-3c0.1,0,0.2,0,0.3,0l2.9,0c1.3,0,2.7,0,4,0c1.6,0,3.2,0,4.7,0c1.4,0,2.6,0.9,2.8,2.3
			c0.1,0.2,0.1,0.5,0.1,0.7L147.5,110.7z"/>
		<path class="st2" d="M144.2,104.2c-0.7-0.2-1.4,0-1.9,0.5c-1.8,1.7-3.5,3.4-5.3,5.2c-0.1,0.1-0.2,0.2-0.3,0.3l-1.4-1.4
			c-0.6-0.6-1.2-0.6-1.6-0.6c-0.7,0.1-1.3,0.6-1.5,1.3c-0.2,0.7-0.1,1.4,0.5,2l2.6,2.6c0.5,0.4,1,0.7,1.5,0.7c0.5,0,1-0.2,1.4-0.7
			l6.7-6.6c0.5-0.5,0.7-1.2,0.6-1.9C145.4,104.9,144.9,104.4,144.2,104.2z M136.9,111.5L136.9,111.5L136.9,111.5
			C136.9,111.5,136.9,111.5,136.9,111.5z"/>
	</g>
</g>
</svg>
