<?xml version="1.0" encoding="utf-8"?>
<!-- Generator: Adobe Illustrator 24.0.0, SVG Export Plug-In . SVG Version: 6.00 Build 0)  -->
<svg version="1.1" id="Capa_1" xmlns="http://www.w3.org/2000/svg" xmlns:xlink="http://www.w3.org/1999/xlink" x="0px" y="0px"
	 viewBox="0 0 80 80" style="enable-background:new 0 0 80 80;" xml:space="preserve">
<style type="text/css">
	.st0{fill:none;}
	.st1{fill:#ACAEAF;}
	.st2{fill:#FE9900;}
	.st3{fill:#1C3247;}
</style>
<g>
	<path class="st0" d="M21.4,23.6c3.7,0,7.3,0,11,0c2.7,0,5.4,0,8.1,0c-2.7,0-5.4,0-8.1,0C28.7,23.7,25.1,23.7,21.4,23.6z"/>
	<path class="st0" d="M21.2,28.4c2.1,0,4.2,0,6.3,0c1.2,0,2.4,0,3.6,0c-1.2,0-2.4,0-3.6,0C25.4,28.4,23.3,28.4,21.2,28.4z"/>
	<path class="st1" d="M70.4,34.4c0-1.3,0-2.7,0-4c0-1.8-0.7-3.2-2.3-4.1c-0.5-0.3-1.1-0.4-1.7-0.6c0-0.2,0-0.4,0-0.6
		c0-2.3,0-4.6,0-6.9c0-1-0.3-1.3-1.3-1.3c-1.4,0-2.8,0-4.1,0c-0.2,0-0.4,0-0.7,0c0-0.3,0-0.5,0-0.8c0-2.4,0-4.9,0-7.3
		c0-1-0.2-1.2-1.2-1.2c-12.5,0-25,0-37.5,0c-1.1,0-1.3,0.2-1.3,1.3c0,2.4,0,4.9,0,7.3c0,0.2,0,0.4,0,0.7c-1.6,0-3.1,0-4.6,0
		c-1.3,0-1.5,0.3-1.5,1.5c0,4.5,0,9.1,0,13.6c0,0.2,0,0.5,0,0.8c-0.3,0-0.5,0-0.7,0c-2.7,0.1-4.6,1.9-4.6,4.6c0,9.8,0,19.6,0,29.4
		c0,0.7,0.2,1.5,0.5,2.1c0.9,1.8,2.4,2.5,4.4,2.5c16,0,32,0,48,0c1.4,0,2.8,0,4.1,0c1.1,0,2-0.3,2.9-0.9c1.3-1,1.8-2.4,1.8-4.1
		C70.4,55.8,70.4,45.1,70.4,34.4z M22.2,9.3c12,0,24,0,36.1,0c0,5.4,0,10.9,0,16.4c-1.4,0-2.7,0-4.2,0c0-0.4,0-0.8,0-1.1
		c0-2.1,0-4.2,0-6.3c0-1.2-0.3-1.5-1.5-1.5c-9.9,0-19.7,0-29.6,0c-0.3,0-0.5,0-0.8,0C22.2,14.3,22.2,11.8,22.2,9.3z M61,66.5
		c0,2-1,3-3,3c-14.7,0-29.5,0-44.2,0c-2,0-3-1-3-3c0-9.6,0-19.2,0-28.8c0-2,1-3,3-3c1,0,2,0,3,0c0.8,0,1.2-0.4,1.2-1
		c0-0.6-0.4-0.9-1.2-0.9c-0.2,0-0.4,0-0.6,0c0-4.7,0-9.3,0-14c12,0,24,0,36.1,0c0,2.3,0,4.6,0,7c-0.3,0-0.5,0-0.7,0
		c-2.9,0-5.7,0-8.6,0c-2.8,0-4.5,1.6-4.8,4.4c-0.2,1.7-1.1,2.6-2.9,2.6c-4.6,0-9.1,0-13.7,0c-0.2,0-0.3,0-0.5,0
		c-0.7,0-1.2,0.4-1.1,1c0,0.6,0.4,0.9,1.1,0.9c4.8,0,9.7,0,14.5,0c2.5,0,4.2-1.7,4.5-4.2c0.2-2,1.1-2.8,3.1-2.8c5,0,10,0,15,0
		c2,0,3,1,3,3C61,42.6,61,54.6,61,66.5z M65.5,69.5c-1.1-0.1-2.2,0-3.3,0c0.3-0.7,0.5-1.4,0.8-2.2c0.6,0,1.3,0,2,0
		c1.1,0,1.4-0.3,1.4-1.4c0-2.8,0-5.6,0-8.4c0-5.3,0-10.5,0-15.8c0-1-0.3-1.5-1-1.5c-0.7,0-1,0.4-1,1.4c0,7.6,0,15.3,0,22.9
		c0,0.3,0,0.5,0,0.8c-0.5,0-1,0-1.5,0c0-0.3,0-0.5,0-0.8c0-11.3,0-22.6,0-33.8c0-2-0.6-3.5-2.4-4.5c-0.1-0.1-0.3-0.3-0.3-0.4
		c0-2.3,0-4.7,0-7.1c1.4,0,2.8,0,4.2,0c0,0.3,0,0.5,0,0.8c0,5.8,0,11.5,0,17.3c0,0.3,0,0.5,0.1,0.8c0.1,0.5,0.4,0.7,0.9,0.7
		c0.4,0,0.8-0.2,0.9-0.7c0.1-0.3,0.1-0.5,0.1-0.8c0-2.8,0-5.5,0-8.3c0-0.2,0-0.5,0-0.7c1-0.1,2,0.9,2.2,2.1c0,0.3,0,0.5,0,0.8
		c0,11.9,0,23.9,0,35.8C68.5,68.5,67.3,69.6,65.5,69.5z"/>
	<path class="st2" d="M56.9,37.9c-3.1,0-6.3,0-9.4,0c-3.2,0-6.3,0-9.5,0c-1.1,0-1.4,0.3-1.4,1.4c0,2.1,0,4.2,0,6.3
		c0,1,0.3,1.3,1.4,1.3c6.3,0,12.7,0,19,0c1,0,1.3-0.3,1.3-1.4c0-2.1,0-4.1,0-6.2C58.3,38.2,58,37.9,56.9,37.9z M56.4,44.9
		c-5.9,0-11.8,0-17.8,0c0-1.7,0-3.3,0-5c5.9,0,11.8,0,17.8,0C56.4,41.6,56.4,43.2,56.4,44.9z"/>
	<path class="st3" d="M20.7,23.6c0.1,0.1,0.5,0.1,0.7,0.1c3.7,0,7.3,0,11,0c2.7,0,5.4,0,8.1,0c1.1,0,2.2,0,3.3,0c0.6,0,1-0.4,1-0.9
		c0-0.5-0.4-0.9-1-1c-0.1,0-0.3,0-0.4,0c-7.3,0-14.7,0-22,0c-0.2,0-0.5-0.1-0.6,0.1c-0.3,0.2-0.7,0.5-0.7,0.8
		C20.1,22.9,20.4,23.3,20.7,23.6z"/>
	<path class="st3" d="M21.2,28.4c2.1,0,4.2,0,6.3,0c1.2,0,2.4,0,3.6,0c1,0,2,0,2.9,0c0.3,0,0.7-0.3,0.8-0.5c0.1-0.2,0.1-0.7-0.1-0.9
		c-0.2-0.2-0.7-0.4-1-0.4c-3.3,0-6.7,0-10,0c-0.9,0-1.8,0-2.6,0c-0.6,0-1,0.4-1.1,0.9C20,28,20.5,28.4,21.2,28.4z"/>
</g>
</svg>
