<?xml version="1.0" encoding="utf-8"?>
<!-- Generator: Adobe Illustrator 24.0.0, SVG Export Plug-In . SVG Version: 6.00 Build 0)  -->
<svg version="1.1" id="Capa_1" xmlns="http://www.w3.org/2000/svg" xmlns:xlink="http://www.w3.org/1999/xlink" x="0px" y="0px"
	 viewBox="0 0 283.5 283.5" style="enable-background:new 0 0 283.5 283.5;" xml:space="preserve">
<style type="text/css">
	.st0{fill:#ACAEAF;}
	.st1{fill:#FE9900;}
</style>
<g>
	<path class="st0" d="M122.4,258.1c-1.9-0.7-3.9-1.2-5.7-2.1c-9.1-4.6-12.5-15.8-7.6-24.7c0.3-0.6,0.7-1.2,1.2-2.1
		c-1.7-0.1-3.2-0.1-4.7-0.2C93,228,83.9,219.3,82,206.9c-4.8-30.8-9.6-61.6-14.4-92.5c-2.2-13.8-4.3-27.7-6.4-41.5
		c-0.7-4.7-3.3-7-8-7c-8.2,0-16.4-0.1-24.6,0c-2.2,0-4-0.5-5.2-2.5c0-0.9,0-1.7,0-2.6c1.2-1.8,2.9-2.3,5.1-2.3
		c8.3,0.1,16.6,0,24.9,0c8.3,0,13.9,5,15.1,13.1c1.6,10.8,3.4,21.5,5,32.3c0.2,1.4,0.7,1.7,2,1.7c5.1-0.1,10.2,0,15.3,0
		c0.5,0,0.9-0.1,1.5-0.2c0-1,0-1.8,0-2.6c0-16.8,0-33.6,0-50.4c0-7.7,4.4-12.1,12.1-12.1c20.1,0,40.1,0,60.2,0.1
		c2.2,0,4.4,0.2,6.5,0.8c18.9,5.8,37.8,11.7,56.8,17.5c5,1.6,6.9,5.2,5.4,10.2c-2.1,6.9-4.3,13.8-6.4,20.7c-1.6,5.2-3.2,10.5-4.9,16
		c4,0,7.8,0,11.5,0c4.8,0.1,7.7,3,7.7,7.7c0,23.9,0.1,47.9-0.1,71.8c0,3.1-0.7,6.4-2,9.2c-4.1,8.9-11.5,12.8-21.2,12.8
		c-41.8,0-83.6,0-125.4,0c-0.9,0-1.7,0.1-2.6,0.1c0.1,0.5,0.1,0.7,0.1,0.9c2.3,8.4,9.3,13.5,18.6,13.5c42.2,0,84.3,0,126.5,0
		c0.9,0,1.7,0,2.5,0c2.1,0.1,3.5,1.5,3.6,3.5c0.1,1.9-1.3,3.5-3.4,3.7c-1.3,0.1-2.5,0.1-3.8,0.1c-4.7,0-9.4,0-14.5,0
		c0.5,0.8,0.7,1.2,1,1.7c6.1,10.5,0.5,23.8-11.3,26.8c-0.5,0.1-1.1,0.3-1.6,0.5c-1.8,0-3.7,0-5.5,0c-0.8-0.3-1.6-0.5-2.4-0.8
		c-9.2-2.8-14.6-12-12.4-21.3c0.5-2.3,1.7-4.5,2.6-6.8c-16.6,0-33.2,0-50.1,0c0.4,0.7,0.7,1.2,1,1.6c5.7,9.8,1.1,22.2-9.5,26.1
		c-1.2,0.4-2.4,0.7-3.6,1.1C125.8,258.1,124.1,258.1,122.4,258.1z M233.7,113.3c-53.1,0-106,0-158.9,0c0.7,4.9,1.5,9.6,2.2,14.3
		c3.6,23.4,7.3,46.9,10.9,70.3c0.3,1.7,0.8,2.3,2.6,2.3c42.4-0.1,84.9,0,127.3-0.1c9.9,0,15.8-6,15.8-15.9c0-22.9,0-45.8,0-68.7
		C233.7,114.8,233.7,114.1,233.7,113.3z M178,51.1c-5.7,18.3-11.3,36.4-16.9,54.6c0.7,0.1,1.2,0.1,1.7,0.1c16.6,0,33.1,0,49.7,0
		c1.4,0,1.9-0.5,2.3-1.8c3.3-10.9,6.7-21.9,10.1-32.8c0.5-1.7,1-3.3,1.6-5.1C210.2,61.1,194.2,56.2,178,51.1z M114.1,105.8
		c7.9,0,15.5,0,23.2-0.1c0.5,0,1.2-0.8,1.4-1.4c1.2-3.6,2.2-7.2,3.4-10.7c1.3-4.3,2.7-8.6,4.1-13.2c-1,0-1.7,0-2.4,0
		c-5.9,0-11.8,0-17.6,0c-3.6,0-4.8-1.2-4.8-4.9c0-4,0-7.9,0-11.9c0-3.8,1.1-5,4.9-5c8.3,0,16.6,0,24.9,0c0.6,0,1.7-0.1,1.9-0.5
		c1.2-3.4,2.2-6.8,3.3-10.3c-14.3,0-28.1,0-42.1,0C114.1,67.2,114.1,86.3,114.1,105.8z M145.9,105.8c2.1,0,3.7-0.1,5.3,0
		c1.8,0.2,2.4-0.5,2.9-2.2c5.4-17.6,10.8-35.1,16.3-52.7c0.2-0.6,0.3-1.3,0.5-1.9c-4.9-2.2-7-1.9-8.7,3.7
		c-4.3,14.5-8.9,28.9-13.4,43.3C147.8,99.2,146.9,102.3,145.9,105.8z M106.6,47.9c-6-0.6-7.2,0.4-7.2,6.2c0,16.3,0,32.7,0,49
		c0,0.8,0,1.7,0,2.6c2.5,0,4.8,0,7.2,0C106.6,86.3,106.6,67.2,106.6,47.9z M204.6,229.2c-6,0-10.8,4.9-10.8,10.8c0,6,5,10.9,11,10.9
		c6,0,10.8-5,10.7-11.1C215.5,233.8,210.6,229.1,204.6,229.2z M125,229.2c-6.1,0-11,4.8-11,10.8c0,5.9,4.9,10.8,10.8,10.9
		c6,0.1,11-4.9,11-10.9C135.7,234,131,229.2,125,229.2z M128.6,73.2c6.4,0,12.6,0,18.8,0c0.4,0,1-0.4,1.1-0.7c0.7-2,1.3-4.1,1.9-6.4
		c-7.5,0-14.6,0-21.8,0C128.6,68.4,128.6,70.7,128.6,73.2z"/>
	<path class="st1" d="M197.5,178.3c0,3.5,0.1,6.7,0,10c0,1.1-0.3,2.7-1,3.3c-1,0.8-2.7,1.3-3.8,0.9c-1-0.4-2.1-2-2.3-3.1
		c-0.3-2.8-0.1-5.7-0.1-8.5c0-0.8,0-1.5,0-2.4c-9.8,0-19.3,0-29.1,0c0,3.6,0.1,7.2,0,10.7c-0.1,2.6-2.2,4.3-4.6,3.5
		c-1.9-0.6-2.6-2-2.6-3.9c0-3.4,0-6.8,0-10.3c-9.7,0-19.2,0-29,0c0,3.5,0.1,7,0,10.5c-0.1,2.9-2.4,4.6-4.8,3.7
		c-1.6-0.6-2.4-1.9-2.4-3.6c0-3.5,0-6.9,0-10.7c-1.8,0-3.4,0-5,0c-4.3,0-8.5,0-12.8,0c-2.5,0-3.9-1.3-4-3.5c-0.1-2.2,1.4-3.7,4-3.7
		c5.8-0.1,11.6,0,17.6,0c0-9.6,0-19.1,0-29c-0.7,0-1.5,0-2.2,0c-7.4,0-14.9,0-22.3,0c-1.8,0-3.2-0.5-4-2.2c-1.2-2.5,0.7-5,3.8-5
		c7.4,0,14.9,0,22.3,0c0.8,0,1.5,0,2.6,0c0-3.7,0-7.2,0-10.7c0-2.4,1.5-3.8,3.7-3.8c2.1,0,3.5,1.5,3.5,3.9c0.1,3.4,0,6.8,0,10.4
		c9.6,0,19.1,0,29,0c0-1.9,0-3.9,0-5.8c0-1.6-0.1-3.3,0-4.9c0.1-2.2,1.6-3.6,3.7-3.6c2.1,0,3.5,1.4,3.5,3.7c0.1,3.5,0,6.9,0,10.6
		c9.6,0,19.2,0,29.1,0c0-2.1,0-4.2,0-6.4c0-1.4,0-2.8,0-4.2c0.1-2.3,1.5-3.7,3.6-3.7c2.1,0,3.5,1.4,3.6,3.7c0.1,2.8,0,5.5,0,8.3
		c0,0.8,0,1.5,0,2.5c1.6,0,3,0,4.4,0c5.6,0,11.2,0,16.8,0c2.6,0,4.1,1.4,4.1,3.6c0,2.2-1.5,3.6-4,3.7c-6.2,0-12.5,0-18.7,0
		c-0.8,0-1.5,0-2.4,0c0,9.7,0,19.2,0,29c2.3,0,4.5,0,6.6,0c4.7,0,9.5,0,14.2,0c2.7,0,4.3,1.4,4.3,3.6c0,2.3-1.5,3.6-4.3,3.6
		c-6.2,0-12.3,0-18.5,0C199.2,178.3,198.5,178.3,197.5,178.3z M161.3,142.2c0,9.6,0,19.2,0,28.7c9.7,0,19.2,0,28.8,0
		c0-9.6,0-19.2,0-28.7C180.4,142.2,170.9,142.2,161.3,142.2z M153.8,170.9c0-9.7,0-19.2,0-28.7c-9.7,0-19.2,0-28.7,0
		c0,9.7,0,19.2,0,28.7C134.7,170.9,144.2,170.9,153.8,170.9z"/>
	<path class="st0" d="M184.7,64.7c1.3,0.4,3.1,0.9,4.8,1.4c7.4,2.3,14.7,4.6,22.1,6.8c3.6,1.1,4.4,2.6,3.3,6.2c-1.2,4-2.5,8-3.7,12
		c-0.9,2.8-2.6,3.7-5.4,2.8c-8.9-2.7-17.7-5.5-26.5-8.3c-2.7-0.9-3.6-2.5-2.8-5.2c1.3-4.3,2.7-8.7,4-13
		C181.2,65.4,182.4,64.6,184.7,64.7z M207.2,79.2c-7.1-2.2-13.9-4.3-20.8-6.4c-0.7,2.4-1.4,4.6-2.1,6.9c7,2.2,13.8,4.3,20.7,6.4
		C205.8,83.7,206.5,81.6,207.2,79.2z"/>
</g>
</svg>
