<?xml version="1.0" encoding="utf-8"?>
<!-- Generator: Adobe Illustrator 24.0.0, SVG Export Plug-In . SVG Version: 6.00 Build 0)  -->
<svg version="1.1" id="Capa_1" xmlns="http://www.w3.org/2000/svg" xmlns:xlink="http://www.w3.org/1999/xlink" x="0px" y="0px"
	 viewBox="0 0 198.4 198.4" style="enable-background:new 0 0 198.4 198.4;" xml:space="preserve">
<style type="text/css">
	.st0{fill:#ACAEAF;}
	.st1{fill:#FE9900;}
</style>
<path class="st0" d="M41.9,178.1c-0.2-0.1-0.4-0.2-0.6-0.3c-4.7-1.4-7.4-4.8-7.4-9.7c0-6.7,0-13.4,0-20.2c0-35.3,0-70.7,0-106
	c0-1.3,0.1-2.7,0.4-4c1.1-4.2,4.8-7,9.3-7c7.4,0,14.7,0,22.1,0c0.6,0,1.2,0,1.9,0c0-2,0-4,0-5.9c0-2.2,0.9-3.1,3.1-3.2
	c3.8,0,7.6,0,11.5,0c1,0,1.5-0.2,2-1.2c2.7-5.2,7.1-7.9,12.9-7.9c5.8,0,10.1,2.8,12.8,7.9c0.5,0.9,1,1.2,2,1.2c3.8-0.1,7.6,0,11.5,0
	c2.2,0,3.1,0.9,3.1,3.2c0,1.9,0,3.8,0,5.9c0.6,0,1.2,0,1.8,0c7.3,0,14.5,0,21.8,0c6.2,0,10.2,4,10.2,10.2c0,42.3,0,84.5,0,126.8
	c0,5.2-2.2,8-8,10.1C115.5,178.1,78.7,178.1,41.9,178.1z M67.8,36.1c-7.8,0-15.4,0-23,0c-4.1,0-5.6,1.5-5.6,5.7
	c0,41.8,0,83.7,0,125.5c0,4.1,1.5,5.6,5.7,5.6c34.9,0,69.7,0,104.6,0c4.2,0,5.8-1.5,5.8-5.7c0-9.1,0-18.2,0-27.3
	c0-32.8,0-65.5,0-98.3c0-4-1.6-5.6-5.5-5.6c-7.1,0-14.2,0-21.3,0c-0.6,0-1.1,0-1.6,0c-0.1,0.3-0.1,0.4-0.1,0.6c0,1.8,0,3.5,0,5.3
	c0,2.2-0.9,3.2-3.1,3.2c-17.5,0-35.1,0-52.6,0c-2.1,0-3-0.9-3-3.1C67.7,40.1,67.8,38.2,67.8,36.1z M73,39.8c16.2,0,32.2,0,48.2,0
	c0-4.3,0-8.5,0-12.8c-3.8,0-7.4,0-11.1,0c-3.1,0-3.2-0.1-4.3-3c-1.3-3.6-4.8-6.1-8.7-6.1c-3.9,0-7.4,2.4-8.7,6.1c-1,2.9-1.2,3-4.3,3
	c-3.7,0-7.4,0-11.1,0C73,31.4,73,35.6,73,39.8z"/>
<g>
	<path class="st0" d="M71.2,138c-0.1,0-0.1-0.1-0.2-0.1c-2.2-0.6-3.4-2.2-3.1-4.5c0.4-2.6,1-5.2,1.5-7.7c0.5-2.8,1.1-5.5,1.7-8.3
		c0.6-2.8,2.3-4.6,5-5.5c3.5-1.2,7-2.4,10.5-3.6c0.4-0.2,0.6-0.4,0.7-0.9c0.1-1.3-0.2-2.2-1.5-3c-3.2-2.2-5-5.3-5.7-9.2
		c0-0.2-0.1-0.4-0.1-0.6c-1.4,0-2.6-0.4-3.5-1.5c-1-1.1-1.3-2.3-0.8-3.8c0.1-0.3,0.2-0.7,0.2-1c0.1-2.3,0-4.7,0.2-7
		c0.2-2.4,1-4.7,2.2-6.8c0.3-0.6,0.9-0.7,1.5-0.5c0.5,0.3,0.7,0.8,0.4,1.5c-0.6,1.4-1.2,2.8-1.6,4.2c-0.7,2.3-0.5,4.7-0.5,7.2
		c0.7-0.1,1.3-0.2,1.8-0.3c0.6-1,1-2,1.7-2.7c1.2-1.4,2.8-1.8,4.6-1.6c2.6,0.3,5.2,0.2,7.7-0.5c2-0.6,3.8-1.5,5.5-2.8
		c0.3-0.2,0.5-0.4,0.8-0.6c1-0.7,2.3-0.5,2.9,0.5c0.9,1.4,2,2.3,3.7,2.6c0.9,0.1,1.3,0.8,1.3,1.8c0,1.1,0,2.1,0,3.2
		c0.7,0.1,1.2,0.2,1.8,0.3c0,0,0.1-0.1,0.1-0.1c0-2.8,0.1-5.5-0.1-8.3c-0.2-2.3-1.1-4.3-3.3-5.4c-0.2-0.1-0.4-0.3-0.5-0.5
		c-3.9-4.3-8.8-5.6-14.4-4.9c-3.1,0.4-5.8,1.7-8.2,3.8c-0.1,0.1-0.3,0.2-0.4,0.3c-0.5,0.4-1.1,0.4-1.5-0.1c-0.4-0.5-0.3-1.1,0.2-1.5
		c1-0.8,2-1.7,3.1-2.3c6.8-3.7,13.5-3.5,20.1,0.8c0.4,0.3,0.8,0.6,1.1,0.9c1,0.9,2,1.7,3.1,2.6c1.8,1.6,2.8,3.7,3,6
		c0.2,3.1,0.1,6.2,0.2,9.4c0,0.7,0.1,1.4,0.3,2.1c0.6,2.3-1.2,4.7-3.7,4.9c-0.2,0-0.4,0-0.5,0c-0.4,1.3-0.7,2.5-1.1,3.7
		c-1,2.7-2.8,4.9-5.2,6.4c-0.5,0.3-0.6,0.6-0.6,1.1c0.1,2.7-0.5,2,2.1,2.9c0.4,0.1,0.9,0.2,1.3,0.2c7.1,0,14.2,0,21.3,0
		c0.4,0,0.9,0,1.3,0.1c1.1,0.2,2,1.2,2.1,2.4c0.1,1.4,0,2.8,0,4.2c0,0.7-0.4,1.1-1,1.2c-0.6,0-1.1-0.4-1.1-1.1c0-1.2,0-2.4,0-3.6
		c0-0.8-0.1-1-0.9-1c-9.8,0-19.6,0-29.4,0c-0.8,0-1,0.2-1,1c0,6.3,0,12.5,0,18.8c0,0.8,0.2,0.9,1,0.9c9.8,0,19.5,0,29.3,0
		c0.9,0,1-0.1,1-1.1c0-3.1,0-6.2,0-9.3c0-1.2,0.3-1.7,1.1-1.7c0.7,0,1.1,0.5,1.1,1.7c0,3.4,0,6.9,0,10.4c0.1,0,0.2,0.1,0.4,0.1
		c2.3,0.1,3.4,2,2.5,4.1c-0.5,1.1-1.5,1.7-2.6,2.1c-9.1,0-18.1,0-27.2,0c-0.5-0.4-0.9-0.8-0.6-1.4c0.2-0.7,0.8-0.7,1.4-0.7
		c0.2,0,0.3,0,0.5,0c8.2,0,16.4,0,24.7,0c0.5,0,1.1-0.1,1.4-0.4c0.3-0.3,0.4-0.8,0.6-1.3c-0.4-0.1-0.7-0.3-1.1-0.3
		c-11.8,0-23.6,0-35.4,0c-0.1,0-0.3,0-0.4,0c-0.6,0-0.8,0.3-0.6,0.9c0.3,0.7,0.8,1,1.5,1c1,0,2,0,3,0c0.6,0,1.2,0.1,1.4,0.7
		c0.3,0.7-0.2,1.1-0.6,1.4C89,138,80.1,138,71.2,138z M101.3,80.1c-0.1,0-0.1,0-0.1,0c-0.1,0.1-0.2,0.1-0.2,0.2
		c-4.4,3.6-9.5,4.7-15.1,4c-2.3-0.3-3.8,1-3.8,3.3c0,2,0,3.9,0,5.9c0,1.9,0.5,3.6,1.4,5.2c2.1,4.1,7.2,6.7,12.2,6.1
		c4.8-0.6,8.9-4.4,9.9-9c0.8-3.9,0.2-8,0.3-12c0-0.1-0.2-0.4-0.4-0.4C103.6,82.9,102.3,81.7,101.3,80.1z M79.8,135.8
		c3.7,0,7.3,0,11,0c-0.4-1-0.5-2,0.2-3c0.7-1,1.7-1.1,2.7-1.1c0-5.6,0-11.2,0-16.5c-1.5-0.4-3-0.7-4.3-1.3c-1.4-0.6-2-2-2.2-3.6
		c-3.6,1.3-7.2,2.5-10.8,3.8c-1.7,0.6-2.8,1.8-3.1,3.6c-0.4,2.1-0.8,4.1-1.3,6.2c-0.2,1.1-0.4,2.2-0.6,3.3c2.2,0,4.2,0,6.3,0
		c0-0.4,0-0.8,0-1.2c0-0.8,0.4-1.2,1.1-1.2c0.6,0,1,0.5,1,1.2c0,0.4,0,0.9,0,1.3C79.8,130,79.8,132.9,79.8,135.8z M70.8,129.3
		c-0.3,1.5-0.6,2.8-0.8,4.3c-0.2,1.3,0.3,2.1,1.5,2.2c2,0.1,4,0,6,0c0-2.2,0-4.3,0-6.5C75.3,129.3,73.1,129.3,70.8,129.3z
		 M89.3,106.2c0,1.2,0,2.3,0,3.4c0,0.2,0,0.5,0,0.7c0.1,0.9,0.5,1.6,1.4,1.9c0.9,0.3,1.9,0.4,2.9,0.7c0-0.4,0-0.6,0-0.8
		c0-2.2,1.1-3.2,3.3-3.2c0.7,0,1.4,0,2,0c0-1,0-1.9,0-2.8C95.7,107.3,92.5,107.3,89.3,106.2z M108,92.3c0.9,0,1.7-0.3,2.1-1.1
		c0.4-0.6,0.3-1.2-0.2-1.8c-0.5-0.6-1.1-0.9-1.9-0.8C108,89.9,108,91.1,108,92.3z M79.8,88.6c-0.9,0-1.6,0.3-2,1
		c-0.4,0.6-0.4,1.2,0,1.7c0.5,0.7,1.2,1,2,1C79.8,91.1,79.8,89.9,79.8,88.6z"/>
	<path class="st1" d="M114.9,121.4c0,1.9-1.6,3.5-3.5,3.5c-1.9,0-3.5-1.6-3.5-3.5c0-2,1.6-3.5,3.5-3.5
		C113.3,117.9,114.9,119.4,114.9,121.4z M110,121.3c0,0.8,0.6,1.4,1.3,1.4c0.8,0,1.4-0.6,1.4-1.4c0-0.7-0.6-1.4-1.3-1.4
		C110.6,120,110,120.6,110,121.3z"/>
	<path class="st1" d="M110,121.3c0-0.8,0.6-1.4,1.4-1.3c0.7,0,1.3,0.6,1.3,1.4c0,0.8-0.7,1.4-1.4,1.4
		C110.6,122.7,110,122.1,110,121.3z"/>
</g>
</svg>
