<?xml version="1.0" encoding="utf-8"?>
<!-- Generator: Adobe Illustrator 24.0.0, SVG Export Plug-In . SVG Version: 6.00 Build 0)  -->
<svg version="1.1" id="Capa_1" xmlns="http://www.w3.org/2000/svg" xmlns:xlink="http://www.w3.org/1999/xlink" x="0px" y="0px"
	 viewBox="0 0 80 80" style="enable-background:new 0 0 80 80;" xml:space="preserve">
<style type="text/css">
	.st0{fill:#1C3247;}
	.st1{fill:#FE9900;}
	.st2{fill:#ACAEAF;}
</style>
<g>
	<path class="st0" d="M9.74,19.15c0.83-0.21,1.66-0.42,2.49-0.64c0.48-0.13,0.66-0.58,0.41-1.03c-0.41-0.73-0.83-1.45-1.27-2.22
		c1.47-1.47,2.93-2.94,4.41-4.38c0.1-0.1,0.42-0.09,0.58,0c0.61,0.31,1.2,0.68,1.8,1.02c0.5,0.28,0.93,0.11,1.09-0.45
		c0.19-0.66,0.38-1.33,0.53-2C19.84,9.11,19.99,9,20.32,9c1.88,0.01,3.77,0.02,5.65,0c0.39,0,0.5,0.17,0.58,0.49
		c0.16,0.65,0.34,1.29,0.51,1.94c0.15,0.56,0.58,0.74,1.08,0.47c0.62-0.35,1.22-0.73,1.86-1.05c0.15-0.07,0.46-0.04,0.57,0.06
		c1.38,1.34,2.74,2.71,4.08,4.09c0.12,0.12,0.14,0.46,0.06,0.62c-0.29,0.58-0.64,1.13-0.96,1.69c-0.38,0.65-0.22,1.04,0.5,1.23
		c0.76,0.21,1.52,0.42,2.31,0.64c0,2.09,0.01,4.14-0.02,6.19c0,0.15-0.23,0.37-0.4,0.42c-0.61,0.2-1.25,0.35-1.87,0.51
		c-0.74,0.2-0.9,0.57-0.53,1.22c0.33,0.58,0.69,1.15,0.99,1.74c0.07,0.14,0.08,0.43-0.01,0.53c-1.44,1.48-2.91,2.95-4.38,4.43
		c-0.75-0.43-1.45-0.84-2.16-1.24c-0.55-0.31-0.95-0.14-1.12,0.47c-0.22,0.78-0.43,1.57-0.65,2.39c-2.09,0-4.17,0.01-6.24-0.02
		c-0.13,0-0.33-0.22-0.38-0.37c-0.21-0.66-0.36-1.33-0.55-2c-0.17-0.61-0.58-0.79-1.13-0.48c-0.71,0.4-1.41,0.81-2.07,1.19
		c-1.55-1.55-3.07-3.08-4.64-4.65c0.37-0.64,0.77-1.34,1.17-2.04c0.34-0.6,0.18-0.99-0.48-1.17c-0.78-0.22-1.57-0.43-2.36-0.65
		C9.74,23.5,9.74,21.32,9.74,19.15z M16.23,13.24c-0.44,0.46-0.91,0.97-1.39,1.46c-0.9,0.91-0.94,0.93-0.24,2.01
		c0.42,0.65,0.59,1.23,0.13,1.92c-0.19,0.29-0.33,0.64-0.41,0.98c-0.1,0.44-0.36,0.59-0.77,0.69c-0.57,0.13-1.34,0.16-1.61,0.54
		c-0.29,0.4-0.13,1.16-0.14,1.76c-0.01,1.54-0.01,1.55,1.49,1.93c0.53,0.13,0.83,0.36,1.12,0.89c0.69,1.28,0.72,2.39-0.26,3.5
		c-0.23,0.25-0.15,0.46,0.09,0.69c0.59,0.56,1.17,1.14,1.73,1.73c0.24,0.26,0.46,0.35,0.74,0.1c1.08-0.96,2.18-0.97,3.44-0.25
		c0.5,0.29,0.79,0.53,0.92,1.09c0.36,1.53,0.39,1.53,1.97,1.52c0.58,0,1.32,0.17,1.7-0.12c0.38-0.29,0.43-1.04,0.55-1.61
		c0.1-0.44,0.35-0.6,0.72-0.82c1.3-0.78,2.5-0.8,3.67,0.22c0.09,0.08,0.39,0.08,0.47,0c0.75-0.71,1.48-1.46,2.21-2.18
		c-0.4-0.72-1.03-1.36-1.07-2.03c-0.04-0.7,0.47-1.43,0.78-2.14c0.08-0.19,0.3-0.38,0.5-0.45c0.63-0.21,1.27-0.37,1.94-0.55
		c0-0.9-0.05-1.76,0.02-2.61c0.04-0.61-0.16-0.91-0.75-0.95c-1.2-0.08-1.93-0.69-2.17-1.89c-0.04-0.2-0.21-0.38-0.23-0.58
		c-0.03-0.26-0.07-0.57,0.04-0.79c0.28-0.58,0.63-1.12,0.91-1.6c-0.82-0.83-1.6-1.61-2.41-2.42c-0.51,0.3-1.06,0.63-1.63,0.93
		c-0.17,0.09-0.41,0.17-0.57,0.12c-1.34-0.49-2.77-0.92-2.74-2.77c0-0.06-0.01-0.14-0.04-0.18c-0.11-0.1-0.23-0.26-0.35-0.26
		c-1.02-0.02-2.04-0.01-3.08-0.01c-0.18,0.67-0.33,1.3-0.54,1.91c-0.08,0.21-0.29,0.43-0.5,0.53c-0.66,0.31-1.36,0.82-2.01,0.77
		c-0.68-0.05-1.32-0.65-1.98-1.01C16.41,13.28,16.37,13.27,16.23,13.24z"/>
	<path class="st1" d="M9.74,48.17c0.27,0.02,0.54,0.06,0.81,0.06c8.38,0,16.75,0,25.13,0c0.27,0,0.54,0,0.85,0c0,0.71,0,1.37,0,2.07
		c-8.95,0-17.87,0-26.79,0C9.74,49.59,9.74,48.88,9.74,48.17z"/>
	<path class="st1" d="M9.74,40c1.95-0.01,3.89-0.02,5.84-0.02c6.72,0,13.44,0,20.15,0c0.25,0,0.5,0,0.79,0c0,0.68,0,1.32,0,2
		c-0.16,0.02-0.32,0.05-0.48,0.05c-8.69,0-17.37,0-26.06,0c-0.08,0-0.17-0.01-0.25-0.02C9.74,41.34,9.74,40.67,9.74,40z"/>
	<path class="st1" d="M9.74,44.15c1.17-0.01,2.34-0.03,3.51-0.04c2.7-0.01,5.4,0,8.1,0c0.23,0,0.45,0,0.73,0c0,0.69,0,1.33,0,2.05
		c-4.12,0-8.23,0-12.34,0C9.74,45.49,9.74,44.82,9.74,44.15z"/>
	<path class="st2" d="M73.98,72.97c-13.26,0-26.48,0-39.75,0c0.01-0.14,0-0.24,0.03-0.34c0.78-2.58,1.51-5.18,2.35-7.74
		c0.95-2.91,3.05-4.5,6.02-5.03c1.94-0.34,3.87-0.69,5.8-1.04c0.16-0.03,0.32-0.08,0.65-0.16c-0.2-0.29-0.29-0.56-0.49-0.69
		c-2.33-1.53-3.83-3.63-4.53-6.33c-0.05-0.19-0.26-0.42-0.45-0.49c-1.89-0.71-2.91-2.06-2.92-4.1c-0.02-2.89-0.04-5.78,0.07-8.67
		c0.18-4.78,3.56-9.34,8.06-10.95c5.15-1.83,9.7-0.79,13.67,2.94c0.24,0.22,0.51,0.44,0.81,0.56c2.73,1.13,4.15,3.2,4.21,6.12
		c0.07,3.35,0.03,6.7,0.01,10.05c-0.01,1.93-1.08,3.36-2.86,4.01c-0.21,0.08-0.45,0.31-0.51,0.52c-0.7,2.7-2.21,4.8-4.53,6.33
		c-0.2,0.13-0.3,0.4-0.52,0.72c1.79,0.33,3.4,0.61,4.99,0.92c0.99,0.19,1.99,0.32,2.94,0.63c2.15,0.71,3.71,2.14,4.43,4.29
		c0.92,2.73,1.69,5.51,2.53,8.27C74.01,72.84,73.99,72.88,73.98,72.97z M65.41,43.52c0-2.34,0.08-4.64-0.02-6.93
		c-0.08-1.79-1.12-3.04-2.78-3.68c-0.59-0.23-1.08-0.51-1.49-0.97c-0.21-0.23-0.45-0.43-0.69-0.64c-5.11-4.62-13.47-2.97-16.55,3.2
		c-1.45,2.92-1.03,5.99-1.12,9.1c0.38-0.15,0.69-0.26,1.02-0.39c0-0.2,0-0.39,0-0.57c0.01-0.18,0.02-0.36,0.03-0.53
		c0.08-0.03,0.12-0.05,0.16-0.06c0.1-0.01,0.21-0.02,0.31-0.01c2.95,0.11,5.38-0.98,7.37-3.13c0.48-0.52,0.97-1.01,1.47-1.53
		c0.61,0.73,1.09,1.41,1.68,2c1.79,1.79,3.96,2.67,6.49,2.66c1.02,0,2.04,0,3.13,0C64.3,42.86,64.42,43.48,65.41,43.52z
		 M61.22,61.12c-0.87,2.61-1.69,5.05-2.53,7.57c-1.54-1.55-3.03-3.04-4.63-4.64c-1.55,1.55-3.04,3.05-4.56,4.57
		c-0.83-2.48-1.65-4.94-2.49-7.45c-1.6,0.3-3.17,0.54-4.71,0.89c-1.83,0.42-3.09,1.56-3.69,3.34c-0.5,1.48-0.92,3-1.38,4.5
		c-0.1,0.32-0.18,0.63-0.29,1c11.47,0,22.87,0,34.37,0c-0.65-2.06-1.23-4.09-1.96-6.07c-0.45-1.22-1.41-2.15-2.67-2.5
		C64.91,61.82,63.08,61.52,61.22,61.12z M45.9,44.08c0,1.98-0.09,3.92,0.02,5.86c0.22,4.16,3.76,7.44,8.03,7.56
		c4.15,0.11,7.88-3,8.3-7.1c0.21-2.03,0.09-4.09,0.11-6.14c0-0.03-0.05-0.06-0.12-0.15c-3.57,0.17-6.7-0.93-9.21-3.59
		C49.9,43.12,49.21,43.47,45.9,44.08z M59.19,60.67c-1.58,0.21-2.33,1.48-3.4,2.02c0.7,0.71,1.37,1.38,2.05,2.06
		C58.25,63.48,58.69,62.16,59.19,60.67z M49.03,60.69c0.49,1.46,0.92,2.77,1.34,4.02c0.69-0.68,1.36-1.33,2.05-2.01
		c-0.8-0.6-1.61-1.24-2.47-1.83C49.75,60.73,49.43,60.76,49.03,60.69z M56.93,59.27c-1.03,0.11-1.93,0.29-2.84,0.29
		c-0.9,0-1.79-0.18-2.81-0.3c0.99,0.74,1.9,1.42,2.83,2.12C55.04,60.68,55.95,60,56.93,59.27z M64.44,48.94
		c0.78-0.54,1.06-1.18,0.97-1.99c-0.07-0.62-0.35-1.1-0.97-1.46C64.44,46.67,64.44,47.74,64.44,48.94z M43.77,45.45
		c-0.72,0.51-1.03,1.1-0.98,1.86c0.04,0.67,0.32,1.21,0.98,1.58C43.77,47.75,43.77,46.67,43.77,45.45z"/>
	<path class="st2" d="M70.83,22.93c0.34-0.4,0.68-0.79,1.07-1.24c0.48,0.56,0.9,1.06,1.29,1.51c-1.16,1.15-2.41,2.4-3.63,3.61
		c-1.18-1.18-2.44-2.43-3.67-3.66c0.41-0.42,0.86-0.88,1.36-1.39c0.37,0.36,0.77,0.74,1.24,1.18c0.02-0.21,0.06-0.36,0.06-0.51
		c-0.08-1.71,0.05-3.46-0.3-5.11c-0.75-3.59-4.04-6.14-7.7-6.21c-2.11-0.04-4.22-0.01-6.39-0.01c0-0.69,0-1.34,0-2
		c0.03-0.02,0.06-0.06,0.1-0.06c2.76,0.07,5.57-0.19,8.25,0.3c4.93,0.89,8.06,5.12,8.11,10.28c0.01,1.08,0,2.16,0,3.23
		C70.69,22.87,70.76,22.9,70.83,22.93z"/>
	<path class="st2" d="M12.65,59.06c-0.34,0.42-0.67,0.85-1.05,1.32c-0.54-0.61-0.97-1.11-1.37-1.56c1.18-1.18,2.43-2.43,3.65-3.64
		c1.2,1.19,2.44,2.43,3.65,3.64c-0.41,0.41-0.87,0.87-1.41,1.4c-0.28-0.35-0.64-0.78-0.99-1.22c-0.06,0.04-0.13,0.08-0.19,0.13
		c-0.02,0.15-0.05,0.3-0.05,0.46c0.06,1.61-0.08,3.25,0.23,4.81c0.74,3.76,3.83,6.29,7.66,6.52c0.1,0.01,0.2,0.03,0.34,0.04
		c0,0.66,0,1.3,0,1.99c-1.47,0.06-2.87-0.24-4.17-0.87c-3.99-1.94-6.02-5.15-6.1-9.59c-0.02-1.1,0-2.21,0-3.31
		C12.78,59.14,12.71,59.1,12.65,59.06z"/>
	<path class="st1" d="M24.21,46.14c0-0.68,0-1.3,0-1.98c4.1,0,8.18,0,12.31,0c0,0.65,0,1.3,0,1.98
		C32.42,46.14,28.34,46.14,24.21,46.14z"/>
	<path class="st2" d="M47.91,9.01c0,0.74,0,1.36,0,2.03c-0.67,0-1.32,0-2.05,0c0-0.59-0.02-1.17,0.01-1.75
		c0.01-0.1,0.2-0.27,0.31-0.27C46.74,9,47.3,9.01,47.91,9.01z"/>
	<path class="st2" d="M52.01,11.06c-0.69,0-1.33,0-2.01,0c0-0.67,0-1.31,0-2c0.66,0,1.31,0,2.01,0
		C52.01,9.72,52.01,10.36,52.01,11.06z"/>
	<path class="st2" d="M25.24,73c0-0.73,0-1.37,0-2.04c0.67,0,1.31,0,2.05,0c0,0.57,0.02,1.15-0.02,1.73
		c-0.01,0.11-0.22,0.29-0.35,0.3C26.39,73.02,25.84,73,25.24,73z"/>
	<path class="st2" d="M29.37,72.93c0-0.66,0-1.29,0-1.97c0.66,0,1.29,0,1.98,0c0,0.64,0,1.27,0,1.97
		C30.72,72.93,30.08,72.93,29.37,72.93z"/>
	<path class="st0" d="M26.3,26.54c0.42,0.54,0.81,1.05,1.21,1.56c-2.25,2-6.6,2.28-9.43-0.54c-2.76-2.75-2.86-7.15-0.21-10.03
		c2.6-2.83,7.07-3.09,9.97-0.58c2.89,2.5,3.39,6.91,1.07,9.76c-0.53-0.39-1.06-0.78-1.58-1.17c1.92-3,0.71-5.96-1.24-7.33
		c-2.01-1.42-4.98-1.13-6.65,0.68c-1.75,1.89-1.88,4.73-0.38,6.68C20.55,27.49,23.58,28.42,26.3,26.54z"/>
</g>
</svg>
