<?xml version="1.0" encoding="utf-8"?>
<!-- Generator: Adobe Illustrator 24.0.0, SVG Export Plug-In . SVG Version: 6.00 Build 0)  -->
<svg version="1.1" id="Capa_1" xmlns="http://www.w3.org/2000/svg" xmlns:xlink="http://www.w3.org/1999/xlink" x="0px" y="0px"
	 viewBox="0 0 200 200" style="enable-background:new 0 0 200 200;" xml:space="preserve">
<style type="text/css">
	.st0{fill:#ACAEAF;}
	.st1{fill:#1C3247;}
	.st2{fill:#FE9900;}
</style>
<g>
	<path class="st0" d="M67.7,66.4c0.6,1.9,1.1,3.6,1.7,5.4c-11.3,3.4-22.4,7-33.6,10.4c0,0.1,0,0.3,0,0.4c0.7,0.3,1.6,0.6,2.3,0.7
		C58.4,89.7,78.7,96,99,102.1c0.9,0.3,2,0.3,3,0c20.7-6.3,41.3-12.7,61.9-19c0.4-0.1,0.9-0.3,1.7-0.7c-11.7-3.6-22.9-7-34.1-10.6
		c0.6-1.9,1.1-3.6,1.7-5.6c4.4,1.3,8.7,2.6,12.9,4c9.7,3,19.4,6,29.1,9c3,0.9,3.4,1.4,3.4,4.7c0,25.1,0,50.1,0,75.3
		c0,3.1-0.4,3.7-3.3,4.7c-24.1,7.4-48.3,14.9-72.4,22.3c-1.6,0.4-3,0.4-4.6,0c-24-7.4-48.1-14.9-72.3-22.3c-3.3-1-3.6-1.4-3.6-4.9
		c0-25.1,0-50.1,0-75.3c0-3,0.4-3.6,3.3-4.4c13.6-4.1,27.1-8.3,40.7-12.6C66.7,66.7,67.1,66.7,67.7,66.4z M28.1,86.4
		c0,0.6,0,1,0,1.3c0,23.1,0,46.3,0,69.3c0,1.1,0.4,1.6,1.6,2c17.1,5.3,34.3,10.6,51.4,15.9c5.4,1.7,10.9,3.4,16.4,5.1
		c0-24.1,0-48,0-72.1C74.4,100.7,51.4,93.7,28.1,86.4z M103.4,179.8c0.4-0.1,0.9-0.1,1.3-0.3c22.1-6.9,44.3-13.7,66.6-20.4
		c1.3-0.4,1.6-1,1.6-2.1c0-23,0-45.9,0-68.9c0-0.6,0-1-0.1-1.7c-23.1,7.1-46.1,14.3-69.1,21.3C103.4,132,103.4,155.8,103.4,179.8z"
		/>
	<path class="st0" d="M68.5,45c0-16.7,12.7-30.6,29.4-31.9c16.3-1.3,31.3,10.4,33.7,26.6c1.4,8.9-0.6,17.1-4.6,25
		c-5.9,11.7-14.6,20.9-24.9,28.7c-1.1,0.9-2.4,1.1-3.7,0.1C86.2,84.1,76,73,70.8,57.8c-1.4-4.1-1.9-8.6-2.7-12.9
		C68.2,45,68.4,45,68.5,45z M100.7,88c4.3-4.3,8.6-8.3,12.4-12.7c6.9-7.9,11.9-16.6,13.1-27c2.3-18.9-15.9-34-33.9-28.1
		c-13.4,4.3-20.7,18-17.1,32.4C79,67.5,89,78,100.7,88z"/>
	<path class="st0" d="M80.1,119.8c0,2.3,0,4.4,0,6.7c0,2.7-1.6,3.9-4.1,3.1c-9.4-2.9-18.7-5.7-28.1-8.6c-1.7-0.6-2.6-1.7-2.4-3.4
		c0-4.4,0-8.9,0-13.4c0-2.6,1.6-3.9,4.1-3.1c9.4,2.9,18.7,5.7,28,8.6c1.7,0.6,2.6,1.7,2.4,3.4C80.1,115.4,80.1,117.7,80.1,119.8z
		 M51.2,116.1c7.7,2.4,15.3,4.7,23,7.1c0-2.9,0-5.6,0-8.4c-7.6-2.3-15.3-4.7-23-7.1C51.2,110.5,51.2,113.2,51.2,116.1z"/>
	<path class="st1" d="M75.2,161.5c2,0.6,3.7,1.1,5.7,1.7c-0.6,1.9-1.1,3.7-1.7,5.6c-2-0.6-3.7-1.1-5.7-1.7
		C74.1,165.1,74.7,163.4,75.2,161.5z"/>
	<path class="st1" d="M90.8,172.4c-2-0.6-3.9-1.1-5.7-1.9c0.6-1.9,1.1-3.6,1.7-5.6c1.9,0.6,3.7,1.1,5.7,1.7
		C92,168.8,91.4,170.4,90.8,172.4z"/>
	<path class="st1" d="M62,163.5c0.6-1.9,1.1-3.6,1.7-5.4c2,0.6,3.7,1.1,5.7,1.7c-0.6,1.9-1.1,3.6-1.7,5.6
		C65.8,164.7,64,164.1,62,163.5z"/>
	<path class="st0" d="M120.5,119.8c0-2.3,0-4.4,0-6.7c0-1.7,0.7-2.9,2.4-3.4c9.3-2.9,18.7-5.9,28-8.7c2.6-0.9,4.3,0.4,4.3,3.3
		c0,4.4,0,8.9,0,13.4c0,1.7-0.7,2.9-2.4,3.4c-9.4,2.9-19,5.9-28.4,8.7c-2.1,0.7-3.9-0.6-3.9-3C120.5,124.5,120.5,122.1,120.5,119.8z
		 M126.4,123.1c7.9-2.4,15.4-4.7,23-7.1c0-2.9,0-5.6,0-8.4c-7.6,2.3-14.9,4.6-22.1,6.9c-0.3,0.1-0.7,0.7-0.7,1.1
		C126.4,118.1,126.4,120.5,126.4,123.1z"/>
	<path class="st2" d="M150.4,160c-0.6-2-1.1-3.7-1.7-5.6c2-0.6,3.7-1.1,5.7-1.7c0.6,1.9,1.1,3.6,1.7,5.6
		C154.2,158.8,152.4,159.4,150.4,160z"/>
	<path class="st2" d="M161.9,156.4c-0.6-1.9-1.1-3.6-1.7-5.6c1.9-0.6,3.7-1.1,5.7-1.9c0.6,1.9,1.1,3.6,1.7,5.6
		C165.8,155.2,163.9,155.8,161.9,156.4z"/>
	<path class="st2" d="M137.1,158c2-0.6,3.7-1.1,5.7-1.7c0.6,1.9,1.1,3.6,1.7,5.6c-2,0.6-3.7,1.1-5.7,1.7
		C138.2,161.7,137.7,160,137.1,158z"/>
	<g>
		<path class="st0" d="M100.4,27.5c-9.6,0-17.3,7.9-17.3,17.4s7.9,17.4,17.3,17.4c9.6,0,17.3-7.9,17.3-17.4
			C117.7,35.2,109.8,27.4,100.4,27.5z M100.4,56.4c-6.4,0-11.6-5.1-11.6-11.6c0-6.3,5.1-11.6,11.4-11.6c6.4,0,11.7,5.1,11.7,11.6
			S106.8,56.4,100.4,56.4z"/>
	</g>
</g>
</svg>
