<?xml version="1.0" encoding="utf-8"?>
<!-- Generator: Adobe Illustrator 24.0.0, SVG Export Plug-In . SVG Version: 6.00 Build 0)  -->
<svg version="1.1" id="Capa_1" xmlns="http://www.w3.org/2000/svg" xmlns:xlink="http://www.w3.org/1999/xlink" x="0px" y="0px"
	 viewBox="0 0 200 200" style="enable-background:new 0 0 200 200;" xml:space="preserve">
<style type="text/css">
	.st0{fill:#ACAEAF;}
	.st1{fill:#FE9900;}
	.st2{fill:#1C3247;}
</style>
<g>
	<path class="st0" d="M142,15.3c1.5,0.9,2,2.2,2,3.9c0,17.3,0,34.6,0,52c0,0.7,0,1.3,0,1.8c2.5,1,4.7,1.9,7,2.8
		c0.3,0.1,0.8,0.2,1.1,0.2c5.2-0.8,8.9,1.5,11.6,5.7c2.2,3.3,2.9,7.2,3.1,11.1c0.5,6.2-0.1,12.4-1.2,18.5c-0.2,1.1,0,1.8,0.7,2.7
		c4.4,5.5,1.8,13.5-5,15.4c-0.9,0.3-1.4,0.7-1.7,1.6c-1.1,3.4-2.9,6.4-5.2,9.2c-0.4,0.4-0.5,1.3-0.4,1.9c0.8,2.4,2,3.9,5,4.1
		c4.3,0.3,8.6,1.2,12.8,1.8c8.1,1.2,13.9,7.2,14.3,15.3c0.4,7.6,0.1,15.3,0.1,22.9c0,0.6,0,1.1,0,1.8c-1.9,0-3.7,0-5.7,0
		c0-0.6-0.1-1.2-0.1-1.8c0-7,0-13.9,0-20.9c0-6.6-3.4-10.7-9.9-11.7c-4.1-0.7-8.2-1.2-12.5-1.8c-0.3,0.5-0.6,1.1-0.8,1.6
		c-5,10.4-9.9,20.8-14.9,31.2c-0.7,1.4-1.5,2.7-3.3,2.7c-1.8,0-2.7-1.1-3.4-2.5c-5.5-10.4-11.1-20.8-16.6-31.3
		c-0.7-1.3-1.3-1.8-2.8-1.5c-3.7,0.7-7.4,1.1-11.2,1.7c-6,1-9.5,5.1-9.5,11.2c0,7.2,0,14.4-0.1,21.6c0,0.5-0.1,1-0.1,1.7
		c-0.7,0-1.3,0-1.9,0c-24.4,0-48.7,0-73.1,0c-3.4,0-4.3-0.8-4.3-4.3c0-54.7,0-109.4,0-164.1c0-1.8,0.3-3.3,2-4.3
		C59.7,15.3,100.9,15.3,142,15.3z M90.1,165.4c-0.9,0-1.6,0-2.2,0c-17.1,0-34.2,0-51.3,0c-5.4,0-8.7-3.3-8.7-8.7c0-3.8,0-7.5,0-11.3
		c0-5.1,3.3-8.3,8.3-8.4c19.9,0,39.8,0,59.7,0c5.1,0,8.3,3.2,8.4,8.3c0,0.8,0,1.6,0,2.5c4.6-0.7,8.9-1.5,13.2-1.8
		c2.7-0.2,3.9-1.5,4.6-3.8c0.2-0.5,0.1-1.4-0.3-1.8c-2.4-3-4.2-6.2-5.3-9.9c-0.2-0.5-0.7-1-1.2-1.2c-6.8-2.2-9.4-8.5-5.8-14.5
		c0.9-1.5,1-2.9,0.9-4.4c-0.3-4-0.9-8.1-0.8-12.1c0.3-11.9,8.7-22.1,20.3-25c2.6-0.7,5.4-0.8,8.1-1.2c0-16.9,0-33.9,0-50.9
		c-38.6,0-77.2,0-115.8,0c0,53.7,0,107.3,0,161c22.6,0,45,0,67.6,0c0-0.3,0.1-0.6,0.1-0.9C90.2,176.1,90.1,170.8,90.1,165.4z
		 M145.4,103.9c-8.5,4.1-13.1,5.3-21.5,5.7c-2.4,0.1-2.4,0.1-2.8,2.6c-0.4,2.9-0.9,3.4-3.7,3.8c-2.2,0.3-3.8,2.1-3.7,4.1
		c0.1,2.1,1.7,3.7,4,3.8c2.6,0.2,3.3,0.9,4,3.2c0.8,2.3,1.5,4.7,2.7,6.8c5.6,9.5,17.1,11.4,24.9,3.4c2.9-3,4.7-6.4,5.7-10.3
		c0.7-2.6,1.2-3,3.8-3.1c2.2-0.1,3.9-1.6,4.1-3.7c0.2-2.1-1.3-3.9-3.5-4.3c-3.2-0.6-3.4-0.7-3.8-3.8c-0.2-1.1-0.6-1.3-1.6-1.4
		c-3.1-0.3-5.5-1.8-7.2-4.4C146.3,105.5,145.9,104.8,145.4,103.9z M160.6,107.3c0.8-5.5,1.1-10.6,0.5-15.8c-0.3-2.7-0.9-5.3-2.6-7.5
		c-1.2-1.5-2.8-2.8-4.7-2.4c-2.1,0.4-3.8,0.1-5.6-0.9c-9.5-4.8-20.6-2.8-27.3,4.7c-5.6,6.3-5.9,13.7-4.5,21.8
		c0.5-2.2,1.3-3.5,3.5-3.5c8.8,0.3,17.1-1.2,24.6-6.1c2-1.3,4.4-0.4,5.5,1.9c0.2,0.5,0.4,1,0.6,1.6c1,2.8,2.9,4.3,6,4
		C158.2,104.9,159.6,105.4,160.6,107.3z M66.2,142.7c-9.8,0-19.6,0-29.3,0c-2.5,0-3.1,0.6-3.1,3c0,3.6,0,7.2,0,10.8c0,2.3,0.7,3,3,3
		c17.6,0,35.2,0,52.8,0c1,0,1.5-0.3,1.8-1.3c1-2.8,2.6-5.4,5.1-7c2.1-1.3,2.6-2.9,2.3-5c0-0.1,0-0.2,0-0.3c0-2.9-0.5-3.4-3.3-3.4
		C85.6,142.7,75.9,142.7,66.2,142.7z M139.2,178.3c2-4.1,3.8-7.9,5.6-11.7c0.2-0.3,0.3-0.9,0.2-1.1c-1.8-2.3-3.7-4.6-5.6-6.9
		c-2,2.5-3.9,4.7-5.7,7c-0.3,0.4-0.5,1.1-0.3,1.4C135.1,170.8,137.1,174.4,139.2,178.3z M134.4,155.5c-3.2-2.4-6.1-4.6-9.1-6.9
		c-1.3,0.7-1.2,1.7-0.4,2.9c0.8,1.3,1.4,2.7,2.2,4c0.9,1.8,1.9,3.5,2.9,5.4C131.6,159,133,157.2,134.4,155.5z M147.9,160
		c1.5-3,2.8-5.9,4.2-8.7c0.7-1.4,0.3-2.1-0.7-2.7c-2.5,2.2-5,4.3-7.5,6.5C145.2,156.7,146.5,158.3,147.9,160z M132.3,147.2
		c2.4,1.4,4.4,2.5,6.5,3.7c0.2,0.1,0.6,0.1,0.8,0c2.2-1.1,4.2-2.5,5.6-4.3C141.1,146.8,137,147,132.3,147.2z"/>
	<path class="st0" d="M56.4,153.9c12.3,0,24.5,0,36.6,0c0-1.9,0-3.7,0-5.5c-12.3,0-24.4,0-36.6,0C56.4,150.2,56.4,152,56.4,153.9z
		 M50.5,148.3c-3.8,0-7.4,0-11.1,0c0,1.9,0,3.7,0,5.6c3.7,0,7.4,0,11.1,0C50.5,152,50.5,150.2,50.5,148.3z"/>
	<path class="st1" d="M66.3,77.5c9.7,0,19.5,0,29.2,0c5.7,0,8.9,3.2,9,8.8c0,8.3,0,16.5,0,24.8c0,5.6-3.3,8.9-8.9,8.9
		c-19.6,0-39.1,0-58.7,0c-5.6,0-8.8-3.3-8.8-8.8c0-8.3,0-16.6,0-25c0-5.6,3.2-8.8,8.8-8.8C46.6,77.5,56.4,77.5,66.3,77.5z
		 M66.1,114.3c9.7,0,19.5,0,29.2,0c2.8,0,3.4-0.6,3.4-3.4c0-8.1,0-16.2,0-24.3c0-2.7-0.6-3.3-3.2-3.3c-19.5,0-39,0-58.5,0
		c-2.5,0-3.2,0.7-3.2,3.2c0,8.1,0,16.2,0,24.3c0,3,0.6,3.5,3.6,3.5C46.9,114.3,56.5,114.3,66.1,114.3z"/>
	<path class="st0" d="M76.8,30.3c1.4,1.4,2.7,2.8,4,4.2c-2.5,2.5-5.1,5.1-7.7,7.6c-0.7,0.7-0.9,1.3-0.5,2.3
		c1.7,4.4,0.1,9.3-3.9,11.8c-4,2.5-9.1,2-12.4-1.3c-3.3-3.3-3.9-8.5-1.4-12.4c2.5-3.9,7.4-5.6,11.8-3.9c1,0.4,1.6,0.3,2.3-0.5
		C71.6,35.5,74.2,32.9,76.8,30.3z M59.6,46.9c1.3-1,2.4-1.9,3.9-3.1c-3,0.3-4.6,2.1-4.4,4.4c0.2,2.3,2.2,4,4.5,3.9
		c2.1-0.2,3.7-1.8,3.3-4.2c-0.9,1.2-1.8,2.4-2.8,3.6C62.6,49.9,61.4,48.6,59.6,46.9z"/>
	<path class="st0" d="M73.2,66.3c0,1.9,0,3.7,0,5.5c-15,0-30,0-45,0c0-1.8,0-3.6,0-5.5C43,66.3,58,66.3,73.2,66.3z"/>
	<path class="st0" d="M37.8,57.8c-5.5,0-9.9-4.5-9.8-10.1c0-5.4,4.5-9.8,9.9-9.8c5.5,0,10,4.5,10,10C47.8,53.4,43.3,57.8,37.8,57.8z
		 M37.9,52c2.3,0,4.2-2,4.2-4.2c0-2.3-2-4.2-4.2-4.2c-2.3,0-4.1,1.9-4.1,4.2C33.7,50.2,35.6,52.1,37.9,52z"/>
	<path class="st0" d="M78.9,47.9c0-5.5,4.4-10,9.9-10c5.5,0,10,4.5,10,10c0,5.4-4.4,9.9-9.9,9.9C83.4,57.8,78.9,53.4,78.9,47.9z
		 M88.9,52c2.3,0,4.2-2,4.1-4.2c0-2.3-2-4.2-4.3-4.1c-2.3,0-4.1,2-4.1,4.3C84.7,50.2,86.6,52.1,88.9,52z"/>
	<path class="st0" d="M124.2,47.9c0,5.5-4.5,9.9-10,9.9c-5.4,0-9.8-4.5-9.9-9.9c0-5.5,4.5-10,10-10
		C119.8,37.9,124.2,42.4,124.2,47.9z M118.4,47.9c0-2.3-1.8-4.2-4.1-4.3c-2.2,0-4.2,1.9-4.3,4.1c0,2.3,1.9,4.2,4.1,4.2
		C116.5,52.1,118.4,50.2,118.4,47.9z"/>
	<path class="st0" d="M50.6,131.2c0-1.9,0-3.6,0-5.5c14.1,0,28.2,0,42.3,0c0,1.8,0,3.5,0,5.5C78.9,131.2,64.9,131.2,50.6,131.2z"/>
	<path class="st0" d="M28.1,32.3c0-1.9,0-3.7,0-5.6c10.3,0,20.5,0,30.9,0c0,1.8,0,3.6,0,5.6C48.7,32.3,38.4,32.3,28.1,32.3z"/>
	<path class="st0" d="M44.8,125.7c0,1.9,0,3.6,0,5.5c-5.6,0-11.1,0-16.7,0c0-1.8,0-3.6,0-5.5C33.6,125.7,39.1,125.7,44.8,125.7z"/>
	<path class="st0" d="M33.6,171c0,1.9,0,3.6,0,5.5c-1.9,0-3.6,0-5.5,0c0-1.8,0-3.6,0-5.5C29.9,171,31.7,171,33.6,171z"/>
	<path class="st0" d="M36.6,170.9c1.8,0,3.6,0,5.4,0c0,1.8,0,3.6,0,5.6c-1.8,0-3.5,0-5.4,0C36.6,174.7,36.6,172.9,36.6,170.9z"/>
	<path class="st0" d="M50.5,171c0,1.9,0,3.7,0,5.6c-1.8,0-3.6,0-5.5,0c0-1.8,0-3.6,0-5.6C46.9,171,48.6,171,50.5,171z"/>
	<path class="st0" d="M58.9,176.6c-1.9,0-3.6,0-5.4,0c0-1.9,0-3.7,0-5.6c1.8,0,3.5,0,5.4,0C58.9,172.8,58.9,174.6,58.9,176.6z"/>
	<path class="st0" d="M67.5,171c0,1.9,0,3.7,0,5.6c-1.8,0-3.6,0-5.4,0c0-1.9,0-3.7,0-5.6C63.9,171,65.6,171,67.5,171z"/>
	<path class="st0" d="M56.4,153.9c0-1.9,0-3.6,0-5.5c12.2,0,24.4,0,36.6,0c0,1.8,0,3.6,0,5.5C80.8,153.9,68.7,153.9,56.4,153.9z"/>
	<path class="st0" d="M50.5,148.3c0,1.9,0,3.7,0,5.6c-3.7,0-7.4,0-11.1,0c0-1.9,0-3.7,0-5.6C43.1,148.3,46.8,148.3,50.5,148.3z"/>
	<path class="st0" d="M93,94.5c0-2,0-3.8,0-5.6c-17.9,0-35.7,0-53.6,0c0,1.9,0,3.7,0,5.6C57.3,94.5,75.1,94.5,93,94.5z M39.4,105.8
		c13.2,0,26.3,0,39.4,0c0-1.9,0-3.7,0-5.5c-13.2,0-26.3,0-39.4,0C39.4,102.2,39.4,104,39.4,105.8z"/>
	<path class="st2" d="M93,94.5c-17.9,0-35.7,0-53.6,0c0-1.9,0-3.7,0-5.6c17.9,0,35.7,0,53.6,0C93,90.7,93,92.5,93,94.5z"/>
	<path class="st2" d="M39.4,105.8c0-1.8,0-3.6,0-5.5c13.1,0,26.2,0,39.4,0c0,1.8,0,3.6,0,5.5C65.7,105.8,52.6,105.8,39.4,105.8z"/>
</g>
</svg>
