<?xml version="1.0" encoding="utf-8"?>
<!-- Generator: Adobe Illustrator 24.0.0, SVG Export Plug-In . SVG Version: 6.00 Build 0)  -->
<svg version="1.1" id="Capa_1" xmlns="http://www.w3.org/2000/svg" xmlns:xlink="http://www.w3.org/1999/xlink" x="0px" y="0px"
	 viewBox="0 0 198.4 198.4" style="enable-background:new 0 0 198.4 198.4;" xml:space="preserve">
<style type="text/css">
	.st0{fill:#ACAEAF;}
	.st1{fill:#FE9900;}
	.st2{fill:#1C3247;}
</style>
<g>
	<path class="st0" d="M151.3,153.5c2,0,3.7,0,5.9,0c-0.3,5.3,0.1,10.6-0.9,15.7c-1.8,9.3-9.9,15.4-19.5,15.4c-14.5,0-29,0-43.4,0
		c-13.5,0-27,0-40.4,0c-12.3,0-20.9-8.5-20.9-20.8c0-42.8,0-85.7,0-128.5c0-12.3,8.5-20.9,20.8-20.9c27.7,0,55.4,0,83.2,0
		c12.3,0,20.8,8.5,20.9,20.8c0,18,0,35.9,0,53.9c0,0.6,0,1.1,0,1.8c-1.9,0-3.7,0-5.7,0c0-0.7,0-1.4,0-2.1c0-18.1,0-36.2,0-54.3
		c0-7.1-4.6-12.8-11.3-14.1c0,0.7,0,1.3,0,1.9c0,5.6,0,11.2,0,16.8c0,1.5-0.3,2.7-1.8,3.3c-1.5,0.6-2.6-0.1-3.6-1.1
		c-1.9-1.9-3.8-3.9-5.9-6c-1.6,1.6-3.1,3.1-4.6,4.6c-0.6,0.6-1.2,1.2-1.8,1.7c-0.9,0.9-2,1.3-3.2,0.7c-1.2-0.5-1.7-1.5-1.7-2.8
		c0-3.9,0-7.8,0-11.7c0-2.5,0-5.1,0-7.9c-0.7,0-1.3,0-1.9,0c-20.9,0-41.7,0-62.6,0c-8.9,0-14.9,6-14.9,14.9c0,43,0,86.1,0,129.1
		c0,8.8,6.1,14.9,14.9,14.9c27.8,0,55.7,0,83.5,0c9,0,15-6,15-15C151.3,160.5,151.3,157.1,151.3,153.5z M134.2,20.2
		c-3.9,0-7.5,0-11.2,0c0,4.2,0,8.3,0,12.9c1.2-1.3,2.1-2.3,3.1-3.2c1.8-1.8,3.2-1.8,5,0c1,0.9,1.9,1.9,3.1,3
		C134.2,28.5,134.2,24.4,134.2,20.2z"/>
	<path class="st1" d="M74.4,56.9c0.3-3.7,0.3-7.2,1-10.6c2.2-9.5,11.6-16,21.1-14.8c10,1.2,17.6,9.2,17.8,19.1c0.1,2.1,0,4.1,0,6.2
		c1,0.2,2,0.4,2.8,0.7c3.7,1.3,6.1,5.2,5.6,9.1c-0.5,4-3.8,7.2-7.8,7.4c-1.1,0.1-1.6,0.4-2,1.5c-1.2,3.3-3.3,6.1-6,8.4
		c-0.6,0.5-1,1.4-1.1,2.2c-0.2,1.5,0,3.1-0.1,4.6c-0.1,1.1,0.4,1.6,1.4,2.1c2.8,1.2,5.6,2.3,8.2,3.7c10.2,5.3,15.4,13.7,15.9,25.1
		c0,1,0,2,0,3c0,2.3-1,3.4-3.3,3.4c-0.3,0-0.6,0-0.9,0c-21.8,0-43.6,0-65.4,0c-3.3,0-4.1-0.8-4.1-4.2C57.5,112,62.1,103,72.3,97.1
		c3-1.7,6.3-3,9.5-4.4c1.1-0.5,1.4-1,1.5-2.2c0.2-3.5,0-6.5-3.3-9c-1.9-1.5-2.8-4.3-4.1-6.5c-0.3-0.4-0.8-1-1.3-1
		c-4.9-0.5-8.2-3.8-8.3-8.3c-0.1-4.6,3-8,8-8.8C74.3,57,74.4,56.9,74.4,56.9z M89.5,107.2c-2.4,1.9-4.7,3.8-7,5.6
		c-2.2,1.7-4.4,1-5-1.8c-0.6-3-1.2-6-1.8-9c-6.7,2.2-13.1,12.8-12.1,20.2c20.7,0,41.4,0,62.1,0c0.7-8.8-6-18-12.2-20.2
		c-0.6,2.9-1.2,5.8-1.8,8.7c-0.7,3.3-2.7,4-5.4,1.9c-2.2-1.7-4.4-3.5-6.7-5.4c-0.8,1.7-1.4,3.2-2.4,4.6c-0.6,0.9-1.8,1.8-2.7,1.8
		c-0.9,0-2.1-1-2.7-1.9C90.9,110.4,90.3,108.8,89.5,107.2z M108.4,57.2c-3.6-0.6-7.2,0-10.6,1.5c-5.5,2.5-11.1,4.5-17.5,3.8
		c0,2.2-0.1,4.3,0,6.3c0.2,7.1,5.9,13,13,13.6c7.2,0.6,14-4.3,15-11.4C108.9,66.6,108.4,62,108.4,57.2z M108.7,51.4c0-0.6,0-1,0-1.4
		c-0.5-5.7-4.5-10.7-10.1-12.4c-5.7-1.7-11.7,0.4-15.3,5c-3.2,4.2-3,9-2.8,14c3.9,0.7,7.6,0,11.1-1.6C97,52.7,102.5,50.8,108.7,51.4
		z M100.2,87.8c-3.8,0-7.5,0-11.2,0c0,1.6-0.5,3.7,0.1,5.3c1.5,3.8,3.5,7.4,5.5,11.4c1.4-2.8,2.5-5.4,3.9-7.7
		C100.3,93.9,100.5,90.9,100.2,87.8z M82.3,105.7c1.5-1.2,2.7-2.1,3.9-3.2c0.3-0.3,0.5-0.9,0.3-1.3c-0.5-1.2-1.2-2.4-1.8-3.5
		c-3.9,1.2-3.9,1.2-3.1,5C81.8,103.6,82,104.5,82.3,105.7z M106.9,105.7c0.2-1.2,0.4-2.1,0.6-3c0.8-3.7,0.8-3.7-2.7-4.9
		c-0.1,0-0.2,0-0.5,0c-0.7,1.3-1.3,2.7-2.1,4.2C103.8,103.2,105.2,104.4,106.9,105.7z M74.7,62.7c-2,0.4-2.9,1.4-2.8,2.9
		c0.1,1.5,1,2.4,2.8,2.5C74.7,66.4,74.7,64.6,74.7,62.7z M114.6,62.7c0,1.9,0,3.7,0,5.6c1.7-0.4,2.7-1.3,2.7-2.9
		C117.2,63.8,116.2,62.9,114.6,62.7z"/>
	<path class="st0" d="M134.4,151.9c0.3-5.5,0.6-11.3,1-17.1c0.1-0.8,0.3-1.6,0.7-2.3c8.9-15.4,17.7-30.8,26.6-46.1
		c2.7-4.7,8.1-6.7,13.1-5.2c5,1.5,8.4,6.2,8,11.4c-0.1,1.8-0.8,3.7-1.7,5.3c-8.7,15.3-17.6,30.6-26.4,45.9c-0.5,0.8-1.3,1.6-2.1,2.1
		c-4.7,3.1-9.4,6.2-14,9.3c-1.2,0.8-2.4,1.6-3.9,0.7C134.3,155,134.2,153.6,134.4,151.9z M142.1,133.4c3.3,1.9,6.5,3.8,9.8,5.7
		c6.7-11.6,13.2-22.9,19.9-34.4c-3.3-1.9-6.5-3.8-9.8-5.7C155.3,110.6,148.8,121.9,142.1,133.4z M174.7,99.8c1.1-1.9,2.1-3.5,3-5.3
		c1.3-2.6,0.3-5.7-2.2-7.2c-2.5-1.5-5.8-0.9-7.5,1.6c-1.1,1.6-2,3.4-3.1,5.3C168.1,96,171.3,97.8,174.7,99.8z M140.8,139.2
		c-0.2,3-0.3,5.7-0.5,8.7c2.6-1.7,4.8-3.2,7.3-4.8C145.3,141.8,143.2,140.6,140.8,139.2z"/>
	<path class="st0" d="M57.8,150.5c0-1.9,0-3.6,0-5.5c13.2,0,26.3,0,39.5,0c0,1.7,0,3.5,0,5.5C84.2,150.5,71,150.5,57.8,150.5z"/>
	<path class="st2" d="M69.1,139.1c0-1.9,0-3.6,0-5.5c9.4,0,18.7,0,28.1,0c0,1.8,0,3.5,0,5.5C87.9,139.1,78.6,139.1,69.1,139.1z"/>
	<path class="st0" d="M128.5,161.9c-9.4,0-18.7,0-28.1,0c0-1.8,0-3.6,0-5.5c9.3,0,18.7,0,28.1,0
		C128.5,158.1,128.5,159.9,128.5,161.9z"/>
	<path class="st2" d="M63.3,133.7c0,1.8,0,3.6,0,5.5c-1.8,0-3.6,0-5.5,0c0-1.8,0-3.6,0-5.5C59.6,133.7,61.3,133.7,63.3,133.7z"/>
</g>
</svg>
