<?xml version="1.0" encoding="utf-8"?>
<!-- Generator: Adobe Illustrator 24.0.0, SVG Export Plug-In . SVG Version: 6.00 Build 0)  -->
<svg version="1.1" id="Capa_1" xmlns="http://www.w3.org/2000/svg" xmlns:xlink="http://www.w3.org/1999/xlink" x="0px" y="0px"
	 viewBox="0 0 200 200" style="enable-background:new 0 0 200 200;" xml:space="preserve">
<style type="text/css">
	.st0{fill:#ACAEAF;}
	.st1{fill:#1C3247;}
	.st2{fill:#FE9900;}
</style>
<g>
	<path class="st0" d="M114.6,191.4c-3.5-0.8-6.9-1.8-9.8-3.9c-6.2-4.5-9.6-10.5-9.8-18.2c0-0.5,0-1.1,0-1.6c0-0.1-0.1-0.2-0.2-0.4
		c-1.1,0-2.2,0-3,0c-1,2.2-1.9,4.2-2.9,6.5c2.2,2.5,3.1,5.6,2.1,9.2c-1.1,4-4.8,7-9.1,7c-16.7,0.1-33.3,0.2-50,0
		c-12.2-0.2-22.4-10.5-23.1-22.7c-0.7-12.7,8.1-23.7,20.4-25.5c0.4-0.1,0.8-0.1,1.3-0.2c-0.4-3.3,0.4-6.2,2.6-8.6
		c-3.1-3.8-3.7-7.8-1.2-12c2.6-4.3,6.9-4.8,11.6-4.3c0-1.1,0-1.9,0-2.7c0-28.8,0-57.6,0-86.4c0-6.7,2.4-12,8.2-15.6
		c2.5-1.5,5.2-2.4,8.1-2.4c21,0,42-0.1,62.9,0c4.7,0,8.7,2.1,11.9,5.5c5.2,5.5,10.3,10.9,15.5,16.4c3.3,3.4,4.8,7.5,4.8,12.2
		c0,7.7,0,15.4,0,23.1c0,0.6,0,1.3,0,2.2c0.9,0,1.7,0,2.5,0c5.1,0.2,10.4-0.2,15.4,0.7c9.6,1.7,16.8,10.3,17.4,20.1
		c0,0.8,0.1,1.5,0.1,2.3c0,25.5,0,51,0,76.5c0,10.7-6.3,19.3-16.1,22.1c-1.1,0.3-2.1,0.6-3.2,0.9
		C152.3,191.4,133.4,191.4,114.6,191.4z M49.4,116.3c1,0,1.7,0,2.5,0c10,0,19.9,0,29.9,0c4.9,0,8.7,3.3,9.5,8.1
		c0.6,3.2-0.6,5.9-2.6,8.3c1.8,2,3,4.3,2.7,6.9c-0.3,2.4-1.4,4.6-2.2,7.2c3.2,4.1,3.2,7.9-0.4,13c1.5,2.7,4,1.1,6.3,1.6
		c0-0.9,0-1.6,0-2.3c0-22.4,0-44.8,0-67.2c0-2,0.1-4,0.6-6c2.4-10.3,11.3-17.1,22.2-17.2c9.8-0.1,19.6,0,29.3,0c0.7,0,1.4,0,2,0
		c0-9.6,0-19,0-28.5c-0.9,0-1.5,0-2.2,0c-5.9,0-11.9,0-17.8,0c-2.8,0-3.7-0.9-3.7-3.7c0-6.5,0-13,0-19.6c0-0.6,0-1.2,0-2
		c-0.9,0-1.6,0-2.2,0c-20.5,0-41,0.1-61.5-0.1c-6.9-0.1-12.5,4.5-12.5,12.5c0.2,28.9,0.1,57.7,0.1,86.6
		C49.4,114.7,49.4,115.4,49.4,116.3z M185.1,130.2c0-12.8,0-25.6,0-38.4c0-10.5-7.2-17.6-17.7-17.6c-16.5,0-32.9,0-49.4,0
		c-10.4,0-17.6,7.3-17.6,17.7c0,25.5,0,51.1,0,76.6c0,1,0,2,0.2,3c1.5,8.8,8.3,14.5,17.3,14.5c16.4,0,32.7-0.2,49.1,0.1
		c10.5,0.2,18.6-7.7,18.3-18.2C184.9,155.4,185.1,142.8,185.1,130.2z M42.9,184.6c10.6,0,19-8.5,19-19.1c0-10.3-8.6-18.9-18.9-18.9
		c-10.5,0-19.1,8.6-19.1,19C23.9,176.1,32.4,184.6,42.9,184.6z M60.9,122c-6.7,0-13.5,0-20.2,0c-2.8,0-4.5,1.5-4.5,3.9
		c0,2.4,1.8,3.9,4.5,3.9c13.4,0,26.9,0,40.3,0c2.8,0,4.5-1.5,4.6-3.9c0-2.4-1.8-4-4.6-4C74.3,122,67.6,122,60.9,122z M61,135.6
		c-6.8,0-13.6,0-20.4,0c-2.6,0-4.2,1.5-4.4,3.7c-0.1,1.3,0.2,2.1,1.8,2c5-0.2,10-0.2,14.6,2c0.3,0.1,0.6,0.1,0.9,0.1
		c9.4,0,18.7,0,28.1,0c2.2,0,3.8-1.5,4-3.5c0.2-2.4-1.6-4.3-4.3-4.3C74.5,135.6,67.8,135.6,61,135.6z M59.3,184.2c0,0,0,0.1,0.1,0.1
		c7.4,0,14.8,0,22.2,0c2.3,0,4-1.7,4-3.9c0-2.2-1.7-3.9-4.1-3.9c-5.2-0.1-10.4,0-15.6,0c-0.5,0-1.1,0.2-1.4,0.5
		C62.7,179.3,61,181.7,59.3,184.2z M61.3,149.2c1.4,2.5,2.7,4.8,4.1,7.1c0.3,0.4,1,0.8,1.5,0.8c4.8,0.1,9.6,0.1,14.4,0
		c2.6,0,4.3-1.6,4.3-3.9c0-2.2-1.8-3.9-4.3-4c-2.4-0.1-4.8,0-7.3,0C69.8,149.2,65.6,149.2,61.3,149.2z M67,170.5
		c0.3,0.1,0.5,0.1,0.6,0.1c4.5,0,9,0,13.5,0c2.7,0,4.5-1.6,4.5-3.9c0-2.3-1.8-3.9-4.5-3.9c-3.8-0.1-7.6,0-11.4,0c-0.8,0-1.6,0-2.4,0
		C67.2,165.5,67.1,167.9,67,170.5z M145.5,34.5c-4.8-5.1-9.4-9.9-14.1-14.9c0,5.2,0,10,0,14.9C136,34.5,140.5,34.5,145.5,34.5z
		 M14.6,168.9c0.2,4.2,1,4.8,5,4.3c-0.3-1.4-0.6-2.8-0.9-4.3C17.3,168.9,16,168.9,14.6,168.9z M14.4,163.2c4.3,0.6,5.1-0.1,4.7-4
		C14.8,159,15.2,158.4,14.4,163.2z M25.4,148.6c-0.1-0.2-0.2-0.3-0.3-0.5c-2.2,1.7-4.4,3.4-7,5.3c2.5,0.6,3.9,0.3,4.8-1.6
		C23.5,150.6,24.6,149.7,25.4,148.6z M25.2,183.1c0.1-0.1,0.2-0.2,0.3-0.4c-0.7-0.8-1.5-1.6-2-2.6c-0.9-1.6-2.1-1.7-4.2-1.2
		C21.5,180.5,23.3,181.8,25.2,183.1z"/>
	<path class="st1" d="M79.3,108c0,0.7,0,1.4-0.1,2c-0.2,1.5-1,2.4-2.5,2.4c-1.6,0-2.5-1-2.5-2.5c0.1-1.7-0.7-2.1-2.1-2.6
		c-1.5-0.5-2.8-1.4-4.1-2.3c-0.6-0.4-1-1-1.3-1.7c-0.5-1.3-0.2-2.5,1-3.3c1.1-0.8,2-0.3,2.8,0.6c1.9,2.2,4.2,3,7,2.6
		c2.5-0.3,3.9-1.4,4.3-3.3c0.4-2.4,0.3-4.7-1.9-6.2c-1.2-0.8-2.6-1.3-4-2c-1.2-0.5-2.4-1-3.6-1.5c-3.6-1.7-5.3-4.6-5-8.6
		c0.2-3.8,2.1-6.4,5.8-7.8c0.5-0.2,0.8-0.9,1.1-1.5c0.1-0.2,0-0.6,0-0.9c0.1-1.7,1.2-2.8,2.6-2.8c1.4,0,2.4,1.1,2.5,2.7
		c0,0.5,0,1.1,0,1.7c1.1,0.3,2.1,0.4,3.1,0.8c1,0.3,2,0.7,2.9,1.4c1.1,0.8,1.2,2,0.4,3.2c-0.7,1.1-1.6,1.3-2.9,0.9
		c-2-0.6-4.1-1.2-6.1-1.3c-2.5-0.1-4,1.3-4.3,3.1c-0.4,2.3,0.5,3.8,2.9,4.9c1.8,0.8,3.8,1.4,5.6,2.3c5.8,2.7,8,9.3,5,15
		C84.6,105.6,82.9,106.9,79.3,108z"/>
	<path class="st2" d="M109.1,59.3c7.1,0,14.2,0,21.3,0c0.6,0,1.3,0,1.9,0.1c1.4,0.3,2.2,1.2,2.1,2.6c0,1.3-0.8,2.2-2.1,2.5
		c-0.6,0.1-1.2,0.1-1.8,0.1c-14.5,0-28.9,0-43.4,0c-0.4,0-0.7,0-1.1,0c-1.7-0.1-2.8-1.2-2.8-2.7c0-1.4,1.1-2.6,2.8-2.7
		c3.7-0.1,7.5,0,11.2,0C101.3,59.3,105.2,59.3,109.1,59.3z"/>
	<path class="st2" d="M90.7,46c7.6,0,15.3,0,22.9,0c0.9,0,2.1,0.3,2.7,0.9c0.5,0.5,0.8,1.8,0.5,2.5c-0.3,0.7-1.2,1.3-2,1.7
		c-0.4,0.2-1,0.1-1.6,0.1c-15.1,0-30.2,0-45.3,0c-0.4,0-0.8,0-1.2,0c-1.5-0.1-2.6-1.3-2.6-2.7c0-1.4,1.1-2.6,2.6-2.6
		c1.6-0.1,3.2,0,4.8,0C77.9,46,84.3,46,90.7,46z"/>
	<path class="st2" d="M71,64.6c-1.3,0-2.6,0-3.9,0c-1.8-0.1-3-1.1-3-2.6c0-1.5,1.1-2.7,2.9-2.7c2.7-0.1,5.4-0.1,8.2,0
		c1.8,0.1,2.8,1.1,2.8,2.6c0,1.6-1,2.6-2.9,2.7c-0.1,0-0.2,0-0.4,0C73.5,64.7,72.3,64.7,71,64.6z"/>
	<path class="st1" d="M128.3,51.3c-1.1,0-2.3,0.1-3.4,0c-1.5-0.1-2.6-1.3-2.5-2.7c0.1-1.5,0.9-2.5,2.4-2.6c2.4-0.1,4.9-0.1,7.3,0
		c1.5,0.1,2.4,1.1,2.3,2.7c0,1.5-0.9,2.4-2.4,2.6C130.8,51.4,129.6,51.3,128.3,51.3C128.3,51.3,128.3,51.3,128.3,51.3z"/>
	<path class="st0" d="M142.8,80.3c8.1,0,16.1,0,24.2,0c6.5,0,10.1,3.6,10.1,10.1c0,2.7,0,5.5,0,8.2c-0.1,5.8-3.9,9.5-9.7,9.5
		c-9.2,0-18.4,0-27.6,0c-0.7,0-1.6,0.1-2-0.3c-0.7-0.7-1.6-1.8-1.5-2.7c0.1-0.8,1.2-1.7,2-2.3c0.4-0.3,1.3-0.1,1.9-0.1
		c8.8,0,17.7,0,26.5,0c3.8,0,4.9-1.2,5-5c0-2.7,0-5.3,0-8c-0.1-2.7-1.3-4.1-4.1-4.1c-16.5,0-33.1,0-49.6,0c-2.8,0-4.1,1.3-4.1,4.2
		c0,3,0,5.9,0,8.9c0,2.5,1.4,4,4,4c2.9,0.1,5.8,0,8.7,0c2.1,0,3.3,1,3.3,2.6c0,1.6-1.2,2.7-3.3,2.7c-3,0-6,0.1-9.1,0
		c-5.3-0.1-9-3.9-9-9.2c0-3,0-5.9,0-8.9c0-6.1,3.6-9.7,9.7-9.7C126.4,80.3,134.6,80.3,142.8,80.3z"/>
	<path class="st0" d="M177.3,158.1c0,4.6,0,9.1,0,13.7c0,5.1-3.2,8.2-8.2,8.2c-1.5,0-3,0-4.4,0c-4.4-0.1-7.7-3.4-7.7-7.7
		c-0.1-9.5,0-19,0-28.4c0-3.7,2.6-6.6,6.3-6.9c2.6-0.2,5.2-0.2,7.8,0c3.7,0.3,6.1,3.1,6.2,6.8C177.3,148.5,177.3,153.3,177.3,158.1
		C177.3,158.1,177.3,158.1,177.3,158.1z M171.9,158.2c0-4.6,0-9.1,0-13.7c0-1.7-0.7-2.4-2.3-2.3c-1.8,0-3.5,0-5.3,0
		c-1.3,0-2,0.7-2,2c0,9.3,0,18.6,0,27.9c0,1.7,0.9,2.5,2.7,2.6c1.2,0,2.5,0,3.7,0c2.5,0,3.2-0.7,3.2-3.2
		C171.9,167,171.9,162.6,171.9,158.2z"/>
	<path class="st0" d="M152.9,147c0,1.5,0.1,3.1,0,4.6c-0.1,3.2-2.4,5.5-5.6,5.6c-3.1,0.1-6.2,0.1-9.2,0c-3.2-0.1-5.4-2.3-5.6-5.5
		c-0.1-3.1-0.1-6.2,0-9.2c0.1-3.2,2.2-5.4,5.3-5.6c3.2-0.2,6.4-0.2,9.6,0c3.4,0.2,5.3,2.5,5.4,5.8C153,144.1,152.9,145.6,152.9,147z
		 M138,142.3c0,3.2,0,6.3,0,9.5c3,0,5.9,0,8.8,0c0.3,0,0.8-0.6,0.8-0.9c0.1-2.8,0-5.7,0-8.6C144.3,142.3,141.3,142.3,138,142.3z"/>
	<path class="st0" d="M142.7,180c-1.5,0-3,0-4.4,0c-3.2-0.1-5.5-2.3-5.6-5.4c-0.1-3.1-0.1-6.3,0-9.4c0.1-3.3,2.2-5.4,5.5-5.5
		c3.1-0.1,6.2-0.1,9.2,0c3.4,0.1,5.5,2.4,5.6,5.9c0,2.9,0.1,5.8,0,8.7c-0.1,3.4-2.4,5.7-5.8,5.8C145.6,180,144.1,180,142.7,180z
		 M138,174.6c3,0,5.8,0,8.6,0c0.3,0,0.9-0.6,1-0.9c0.1-2.8,0-5.7,0-8.6c-3.3,0-6.4,0-9.6,0C138,168.3,138,171.3,138,174.6z"/>
	<path class="st0" d="M128.8,169.8c0,1.5,0,3,0,4.4c-0.1,3.2-2.3,5.6-5.4,5.7c-3.2,0.1-6.4,0.1-9.6,0c-3.1-0.1-5.3-2.5-5.4-5.5
		c-0.1-3.1-0.1-6.2,0-9.2c0.1-3.2,2.1-5.4,5.3-5.6c3.2-0.2,6.5-0.2,9.8,0c3.2,0.2,5.2,2.4,5.3,5.6
		C128.9,166.8,128.8,168.3,128.8,169.8z M123.5,165.1c-3.3,0-6.3,0-9.5,0c0,3.2,0,6.3,0,9.6c2.9,0,5.8,0,8.6-0.1
		c0.3,0,0.9-0.8,0.9-1.2C123.5,170.7,123.5,168,123.5,165.1z"/>
	<path class="st0" d="M108.5,147c0-1.6,0-3.2,0-4.8c0.1-2.7,2-5,4.7-5.2c3.6-0.2,7.3-0.2,11,0c2.7,0.2,4.6,2.6,4.7,5.4
		c0.1,3.1,0.1,6.2,0,9.2c-0.1,3.1-2.3,5.5-5.5,5.6c-3.1,0.1-6.3,0.1-9.4,0c-3.2-0.1-5.4-2.5-5.5-5.6
		C108.4,150,108.5,148.5,108.5,147C108.5,147,108.5,147,108.5,147z M123.4,151.8c0-3.3,0-6.3,0-9.4c-3.2,0-6.3,0-9.4,0
		c0,3.2,0,6.3,0,9.4C117.2,151.8,120.2,151.8,123.4,151.8z"/>
	<path class="st0" d="M142.5,133.2c-1.6,0-3.2,0.1-4.8,0c-2.7-0.2-4.9-2.2-5-4.8c-0.2-3.5-0.2-7,0-10.5c0.1-2.8,2.5-4.9,5.3-5
		c3.1-0.1,6.3-0.1,9.4,0c3,0.1,5.4,2.4,5.5,5.4c0.1,3.1,0.1,6.3,0,9.4c-0.1,3.1-2.3,5.3-5.4,5.5
		C145.8,133.3,144.2,133.2,142.5,133.2C142.5,133.2,142.5,133.2,142.5,133.2z M138,127.7c3.3,0,6.4,0,9.5,0c0-3.2,0-6.3,0-9.4
		c-3.2,0-6.3,0-9.5,0C138,121.5,138,124.5,138,127.7z"/>
	<path class="st0" d="M177.2,123.1c0,1.7,0.1,3.3,0,5c-0.2,2.8-2.3,4.9-5,5.1c-3.4,0.1-6.8,0.1-10.1,0c-2.9-0.1-5-2.5-5.1-5.4
		c-0.1-3.1-0.1-6.3,0-9.4c0.1-3,2.4-5.4,5.4-5.5c3.1-0.1,6.3-0.1,9.4,0c3.1,0.1,5.3,2.4,5.4,5.4
		C177.3,119.9,177.3,121.5,177.2,123.1C177.3,123.1,177.3,123.1,177.2,123.1z M171.8,118.3c-3.3,0-6.4,0-9.5,0c0,3.2,0,6.3,0,9.4
		c3.2,0,6.3,0,9.5,0C171.8,124.5,171.8,121.5,171.8,118.3z"/>
	<path class="st0" d="M128.8,123.1c0,1.5,0,3.1,0,4.6c-0.1,3-2.3,5.3-5.3,5.4c-3.3,0.1-6.5,0.1-9.8,0c-3-0.1-5.2-2.4-5.3-5.4
		c-0.1-3.1-0.1-6.3,0-9.4c0.1-3,2.4-5.4,5.4-5.5c3.1-0.1,6.3-0.1,9.4,0c3.1,0.1,5.4,2.5,5.5,5.6C128.8,120,128.8,121.6,128.8,123.1z
		 M123.4,118.3c-3.2,0-6.3,0-9.4,0c0,3.2,0,6.3,0,9.4c3.2,0,6.3,0,9.4,0C123.4,124.5,123.4,121.4,123.4,118.3z"/>
	<path class="st0" d="M49.8,157.4c0,2-1.8,3.2-3.6,2.6c-0.9-0.3-1.9-0.7-2.9-0.7c-0.6,0-1.2,0.6-1.8,1c0.4,0.5,0.7,1.2,1.2,1.6
		c0.9,0.5,1.9,0.9,2.9,1.3c2.7,1.2,4.5,3.1,4.6,6.2c0.2,3.2-0.7,5.8-3.8,7.4c-0.4,0.2-0.7,0.7-0.8,1.2c-0.4,1.3-1.3,2-2.6,2.1
		c-1.3,0.1-2.2-0.7-2.7-1.9c-0.3-0.6-0.8-1-1.3-1.4c-1-0.9-2.2-1.6-3-2.6c-0.9-1.2-0.5-2.5,0.7-3.5c1.1-0.9,2.2-0.7,3.3,0.3
		c0.7,0.6,1.6,1.2,2.4,1.2c0.8,0,1.9-0.5,2.3-1.1c0.5-1,0.2-2.1-1-2.7c-1.2-0.6-2.5-1-3.7-1.6c-3.4-1.6-4.7-4.6-3.6-8.1
		c0.3-0.9,0.8-1.8,1.4-2.4c1.1-1.1,2.4-1.9,3-3.6c0.7-1.9,3.8-1.6,4.5,0.4c0.4,1.1,1,1.4,1.9,1.7C48.6,155.1,49.6,156,49.8,157.4z"
		/>
</g>
</svg>
