<svg id="Grupo_23" data-name="Grupo 23" xmlns="http://www.w3.org/2000/svg" xmlns:xlink="http://www.w3.org/1999/xlink" width="72.491" height="72.46" viewBox="0 0 72.491 72.46">
  <defs>
    <clipPath id="clip-path">
      <rect id="Rectángulo_31" data-name="Rectángulo 31" width="72.491" height="72.46" fill="#aab7c4"/>
    </clipPath>
  </defs>
  <g id="Grupo_22" data-name="Grupo 22" clip-path="url(#clip-path)">
    <path id="Trazado_35" data-name="Trazado 35" d="M241.582,41.441c-1.031,1.551-2.049,3.111-3.1,4.649a1.381,1.381,0,0,1-2.093.388q-2.2-1.485-4.361-3.024a1.408,1.408,0,1,1,1.584-2.326c.469.294.921.616,1.381.925l.158-.1c-.289-.962-.519-1.948-.877-2.884Q227.8,22.139,210,18.9c-1.282-.231-1.871-1.386-1.136-2.309a1.5,1.5,0,0,1,1.528-.508A33.349,33.349,0,0,1,237.64,40.365c.11.4.216.8.365,1.351.289-.419.5-.718.7-1.021.934-1.38,1.858-1.414,2.874-.1Z" transform="translate(-169.092 -13.013)" fill="#aab7c4"/>
    <path id="Trazado_36" data-name="Trazado 36" d="M121.1,90.716a5.17,5.17,0,0,1-1.444,3.239c-.559.577-1.138,1.133-1.7,1.7a1.682,1.682,0,0,0-.01,2.747c.568.567,1.149,1.122,1.7,1.7a4.424,4.424,0,0,1,.683,5.478q-1.4,2.42-2.875,4.8a4.688,4.688,0,0,1-5.185,2.156c-.781-.179-1.557-.376-2.337-.561a1.913,1.913,0,0,0-2.631,1.5c-.219.722-.424,1.45-.656,2.168a4.469,4.469,0,0,1-4.121,3.239c-2.168.075-4.342.074-6.509,0a4.472,4.472,0,0,1-4.127-3.23c-.244-.764-.456-1.538-.691-2.305a1.854,1.854,0,0,0-2.382-1.419c-.831.169-1.649.4-2.476.586A4.688,4.688,0,0,1,81,110.272q-1.378-2.27-2.727-4.558a4.451,4.451,0,0,1,.743-5.752c.55-.553,1.115-1.09,1.655-1.651a1.644,1.644,0,0,0,0-2.554c-.576-.593-1.178-1.16-1.755-1.751a4.427,4.427,0,0,1-.717-5.529q1.427-2.446,2.916-4.857a4.637,4.637,0,0,1,5.007-2.112c.944.206,1.878.457,2.824.647a1.805,1.805,0,0,0,2.2-1.293c.253-.786.46-1.586.707-2.374a4.575,4.575,0,0,1,4.424-3.329q2.972-.028,5.945,0a4.575,4.575,0,0,1,4.407,3.259c.252.786.463,1.585.709,2.374a1.819,1.819,0,0,0,2.29,1.352c.923-.189,1.834-.434,2.754-.636a4.63,4.63,0,0,1,4.971,2.051c1.039,1.661,2.056,3.337,3.006,5.05a12.406,12.406,0,0,1,.727,2.108M84.108,97.054a4.578,4.578,0,0,1-1.313,3.151c-.578.59-1.173,1.164-1.753,1.753a1.66,1.66,0,0,0-.307,2.35q1.317,2.223,2.658,4.433a1.926,1.926,0,0,0,2.392,1.005c.826-.19,1.645-.415,2.472-.6a4.648,4.648,0,0,1,5.623,3.3c.234.767.455,1.538.687,2.306a1.669,1.669,0,0,0,1.649,1.311q3.041.05,6.084,0a1.671,1.671,0,0,0,1.653-1.306c.235-.767.455-1.538.689-2.305a4.644,4.644,0,0,1,5.684-3.288c.826.19,1.645.412,2.473.6a1.877,1.877,0,0,0,2.255-.89q1.422-2.325,2.8-4.679a1.584,1.584,0,0,0-.267-2.126c-.572-.6-1.175-1.163-1.753-1.753a4.484,4.484,0,0,1-.024-6.523c.576-.593,1.182-1.156,1.754-1.751a1.608,1.608,0,0,0,.272-2.184q-1.362-2.32-2.759-4.62a1.883,1.883,0,0,0-2.237-.929c-.8.182-1.6.391-2.4.581a4.645,4.645,0,0,1-5.817-3.361c-.218-.723-.425-1.449-.656-2.167A1.746,1.746,0,0,0,102.132,78q-2.866-.02-5.732,0a1.765,1.765,0,0,0-1.861,1.419c-.269.855-.489,1.726-.787,2.571a4.542,4.542,0,0,1-5.031,3.005c-1-.162-1.976-.439-2.963-.665a1.9,1.9,0,0,0-2.342.963q-1.357,2.241-2.693,4.494a1.647,1.647,0,0,0,.281,2.3c.609.626,1.243,1.228,1.851,1.855a4.481,4.481,0,0,1,1.253,3.118" transform="translate(-62.877 -60.93)" fill="#fc7e00"/>
    <path id="Trazado_37" data-name="Trazado 37" d="M3.583,200.5c-.379.544-.66.971-.966,1.38a1.42,1.42,0,0,1-1.987.43,1.4,1.4,0,0,1-.322-2.055Q1.751,198.114,3.244,196a1.355,1.355,0,0,1,2.034-.41q2.2,1.418,4.356,2.9a1.41,1.41,0,1,1-1.546,2.357c-.543-.326-1.072-.678-1.608-1.016-.013-.008-.04.007-.1.02a27.174,27.174,0,0,0,2.457,7.712c4.782,9.5,12.383,15.241,22.874,17.084.139.025.281.036.418.071a1.4,1.4,0,0,1,1.155,1.608A1.33,1.33,0,0,1,31.7,227.5a29.314,29.314,0,0,1-4.011-.813q-19.451-5.924-24.016-25.8c-.016-.069-.033-.137-.095-.386" transform="translate(0 -158.358)" fill="#aab7c4"/>
    <path id="Trazado_38" data-name="Trazado 38" d="M201.88,236.948c.434.3.818.551,1.189.821a1.414,1.414,0,1,1-1.546,2.362q-2.143-1.379-4.255-2.8a1.4,1.4,0,0,1-.407-2.1q1.387-2.14,2.822-4.249a1.432,1.432,0,0,1,2.019-.525,1.452,1.452,0,0,1,.312,2.12c-.289.459-.591.91-.886,1.366a.99.99,0,0,0-.027.194c.658-.14,1.282-.255,1.9-.407a30.515,30.515,0,0,0,22.916-25.081c.194-1.236,1.116-1.843,2.074-1.363a1.491,1.491,0,0,1,.736,1.75,33.437,33.437,0,0,1-26.581,27.785,1.562,1.562,0,0,0-.263.128" transform="translate(-159.378 -167.942)" fill="#aab7c4"/>
    <path id="Trazado_39" data-name="Trazado 39" d="M43.711,6.309c-1.633.579-3.324,1.032-4.889,1.758C28.74,12.739,22.676,20.547,20.773,31.546c-.179,1.032-.758,1.56-1.641,1.448-.859-.109-1.316-.831-1.171-1.849A33.427,33.427,0,0,1,42.776,3.729c.182-.044.361-.1.67-.194-.5-.34-.923-.616-1.332-.913A1.414,1.414,0,1,1,43.7.288q2.069,1.36,4.106,2.769a1.429,1.429,0,0,1,.377,2.207q-1.438,2.062-2.917,4.095a1.424,1.424,0,0,1-2.089.435,1.447,1.447,0,0,1-.208-2.079c.275-.407.563-.8.846-1.207l-.106-.2" transform="translate(-14.542 0)" fill="#aab7c4"/>
    <path id="Trazado_40" data-name="Trazado 40" d="M145.62,155.015a10.9,10.9,0,0,1-1.394-21.707,10.535,10.535,0,0,1,9.594,3.743c.733.824.738,1.662.067,2.242s-1.462.431-2.211-.4a7.635,7.635,0,0,0-7.823-2.631,7.826,7.826,0,0,0-6.036,5.85,8.034,8.034,0,0,0,4.031,9.124,7.876,7.876,0,0,0,9.671-1.712c.142-.158.271-.328.418-.481a1.393,1.393,0,0,1,2.021-.151,1.415,1.415,0,0,1,.122,1.98,10.74,10.74,0,0,1-6.7,4.012,8.854,8.854,0,0,1-.91.122c-.281.02-.566,0-.848,0" transform="translate(-109.214 -108.018)" fill="#1c3247"/>
    <path id="Trazado_41" data-name="Trazado 41" d="M167.795,176.885c1.433-1.441,2.727-2.745,4.024-4.045a1.416,1.416,0,0,1,1.542-.42,1.187,1.187,0,0,1,.913,1.132,1.921,1.921,0,0,1-.407,1.21c-1.628,1.7-3.3,3.366-4.983,5.016a1.359,1.359,0,0,1-2.073-.009q-1.249-1.2-2.447-2.452a1.377,1.377,0,0,1-.034-2.023,1.362,1.362,0,0,1,2.017.027c.49.47.926,1,1.447,1.565" transform="translate(-132.901 -139.738)" fill="#1c3247"/>
    <path id="Trazado_42" data-name="Trazado 42" d="M236.434,186.2a1.415,1.415,0,0,1-1.4-1.4,1.476,1.476,0,0,1,1.465-1.424,1.435,1.435,0,0,1,1.356,1.448,1.419,1.419,0,0,1-1.423,1.374" transform="translate(-190.577 -148.693)" fill="#1c3247"/>
  </g>
</svg>
