<?xml version="1.0" encoding="utf-8"?>
<!-- Generator: Adobe Illustrator 24.0.0, SVG Export Plug-In . SVG Version: 6.00 Build 0)  -->
<svg version="1.1" id="Capa_1" xmlns="http://www.w3.org/2000/svg" xmlns:xlink="http://www.w3.org/1999/xlink" x="0px" y="0px"
	 viewBox="0 0 226.8 226.8" style="enable-background:new 0 0 226.8 226.8;" xml:space="preserve">
<style type="text/css">
	.st0{fill:#ACAEAF;}
	.st1{fill:#FE9900;}
	.st2{fill:#1C3247;}
</style>
<g>
	<path class="st0" d="M208.2,202.9c-1,1.7-2.6,2.2-4.5,2.2c-60,0-120.1,0-180.1,0c-3.7,0-4.6-0.9-4.6-4.6c0-3.5,0-7,0-10.5
		c0-2.7,1.1-3.8,3.8-3.8c3.1,0,6.3,0,9.4,0c57.1,0,114.2,0,171.3,0c2,0,3.6,0.3,4.8,2C208.2,193.1,208.2,198,208.2,202.9z
		 M201.8,192.6c-58.9,0-117.7,0-176.5,0c0,2.1,0,4,0,6c58.9,0,117.7,0,176.5,0C201.8,196.6,201.8,194.7,201.8,192.6z"/>
	<path class="st1" d="M142,95.7c-1-1.5-2-3-3-4.5c-6.8-10.2-13.6-20.4-20.4-30.6c-0.7-1-1.2-1.4-2.5-1.1c-3.5,0.9-6.8,0.1-10-2
		c-3.6,3-7.2,6-10.8,9c-2.3,1.9-4.6,3.9-7,5.8c-1,0.8-1.3,1.4-0.8,2.8c2.3,6.9-1.6,14-8.5,16c-6.8,2-13.9-2.1-15.6-9
		c-0.4-1.8-0.3-3.8-0.5-5.9c-0.2-0.1-0.6-0.4-1.1-0.6c-3.3-1.7-6.7-3.1-9.9-5c-2.8-1.6-4.9-2.2-8,0.2c-4.3,3.4-10.9,2.2-14.9-1.7
		c-4.1-4-5.1-10.3-2.3-15.3c2.8-4.9,8.5-7.4,14.1-6c5.4,1.3,9.6,6.2,9.4,11.8c-0.1,2.6,0.8,3.7,3,4.7c4.3,1.9,8.5,4.2,12.8,6.3
		c5.1-4.9,10.8-5.7,17-2c6.3-5.3,12.6-10.5,19-15.8c-1.1-2.7-1.6-5.6-0.8-8.5c1.4-5.2,4.8-8.4,10-9.5c4.9-1,10,1.3,12.8,5.5
		c2.8,4.2,2.8,9.8-0.2,13.9c-0.8,1.2-0.8,1.9,0,3c7.5,11.1,14.9,22.2,22.2,33.3c0.8,1.1,1.4,1.5,2.8,1.1c1.3-0.3,2.8-0.3,4.2-0.1
		c1.1,0.1,1.5-0.2,2-1.1c8.2-15.1,16.5-30.3,24.8-45.4c0.6-1.1,0.3-1.7-0.4-2.5c-3.4-4.1-3.9-9.8-1.3-14.3c2.5-4.5,7.7-7,12.6-6.3
		c5.5,0.8,9.5,4.4,10.8,9.7c2.1,8.5-5.4,16.7-14.1,15.4c-1.3-0.2-1.7,0.2-2.2,1.2c-8.2,15.1-16.4,30.2-24.6,45.2
		c-0.5,0.9-0.7,1.5,0.1,2.4c4.4,5.2,4.1,12.6-0.6,17.2c-4.6,4.6-12,4.9-17,0.7c-5.2-4.4-6-11.7-1.9-17.3
		C141.6,96.3,141.7,96,142,95.7z M189.5,28.4c-3.6-0.1-6.4,2.6-6.5,6.1c-0.1,3.5,2.6,6.4,6.1,6.5c3.5,0.1,6.4-2.8,6.4-6.2
		C195.6,31.4,192.9,28.5,189.5,28.4z M157.7,104.1c0-3.5-2.8-6.3-6.4-6.2c-3.4,0-6.2,2.8-6.2,6.2c0,3.4,2.9,6.4,6.3,6.4
		C154.9,110.4,157.7,107.6,157.7,104.1z M37.9,66.2c3.5,0,6.3-2.8,6.2-6.4c0-3.4-2.8-6.2-6.2-6.2c-3.5,0-6.4,2.9-6.4,6.3
		C31.5,63.4,34.4,66.2,37.9,66.2z M75.6,85.1c3.5,0,6.4-2.8,6.4-6.3c0-3.4-2.9-6.4-6.4-6.3c-3.4,0-6.2,2.8-6.2,6.2
		C69.4,82.3,72.1,85.1,75.6,85.1z M119.8,47.3c0-3.5-2.8-6.3-6.3-6.3c-3.4,0-6.2,2.8-6.3,6.2c0,3.5,2.7,6.4,6.2,6.4
		C117,53.6,119.8,50.9,119.8,47.3z"/>
	<path class="st0" d="M205,129.2c0,16.3,0,32.6,0,49c0,4-0.8,4.8-4.9,4.8c-7.5,0-15,0-22.5,0c-3,0-4.1-1.1-4.1-4.1c0-33,0-66,0-99.1
		c0-3,1.1-4,4-4c7.8,0,15.6,0,23.5,0c3.1,0,4.1,1,4.1,4.1C205,96.3,205,112.7,205,129.2z M179.9,82.1c0,31.6,0,63,0,94.5
		c6.3,0,12.4,0,18.7,0c0-31.5,0-62.9,0-94.5C192.3,82.1,186.2,82.1,179.9,82.1z"/>
	<path class="st2" d="M97.7,135.7c0-14.2,0-28.5,0-42.7c0-3.8,0.9-4.7,4.7-4.7c7.6,0,15.1,0,22.7,0c3.1,0,4.2,1,4.2,4.1
		c0,28.8,0,57.6,0,86.5c0,3-1.1,4.1-4.1,4.1c-7.8,0-15.5,0-23.3,0c-3.1,0-4.2-1.1-4.2-4.3C97.7,164.4,97.7,150,97.7,135.7z
		 M104.2,94.7c0,27.4,0,54.6,0,81.9c6.3,0,12.4,0,18.7,0c0-27.3,0-54.6,0-81.9C116.6,94.7,110.5,94.7,104.2,94.7z"/>
	<path class="st0" d="M53.6,142.1c0,12.1,0,24.3,0,36.4c0,3.4-1,4.4-4.4,4.4c-7.6,0-15.3,0-22.9,0c-3.2,0-4.3-1-4.3-4.1
		c0-24.6,0-49.2,0-73.7c0-3.2,1-4.2,4.2-4.2c7.7,0,15.4,0,23.1,0c3.1,0,4.2,1.1,4.2,4.2C53.6,117.5,53.6,129.8,53.6,142.1z
		 M28.6,107.3c0,23.1,0,46.2,0,69.2c6.3,0,12.5,0,18.6,0c0-23.2,0-46.2,0-69.2C40.9,107.3,34.8,107.3,28.6,107.3z"/>
	<path class="st0" d="M59.9,151.4c0-9.1,0-18.2,0-27.4c0-3.1,1-4.2,4.1-4.2c7.8,0,15.6,0,23.5,0c2.9,0,3.9,1.1,4,3.9
		c0,18.4,0,36.8,0,55.3c0,2.9-1.1,4-4.1,4c-7.8,0-15.5,0-23.3,0c-3.1,0-4.2-1-4.2-4.2C59.9,169.6,59.9,160.5,59.9,151.4z M85,176.6
		c0-16.9,0-33.6,0-50.3c-6.3,0-12.5,0-18.6,0c0,16.9,0,33.6,0,50.3C72.6,176.6,78.7,176.6,85,176.6z"/>
	<path class="st0" d="M167.2,164.1c0,5,0,10,0,15c0,2.7-1.1,3.8-3.8,3.8c-7.9,0-15.9,0-23.8,0c-2.7,0-3.8-1.1-3.8-3.8
		c0-10.1,0-20.2,0-30.3c0-2.6,1.1-3.7,3.7-3.7c8,0,16,0,24,0c2.7,0,3.8,1.1,3.8,3.8C167.2,154,167.2,159.1,167.2,164.1z
		 M160.8,176.6c0-8.4,0-16.7,0-25c-6.3,0-12.5,0-18.7,0c0,8.4,0,16.7,0,25C148.3,176.6,154.4,176.6,160.8,176.6z"/>
</g>
</svg>
