<?xml version="1.0" encoding="utf-8"?>
<!-- Generator: Adobe Illustrator 24.0.0, SVG Export Plug-In . SVG Version: 6.00 Build 0)  -->
<svg version="1.1" id="Capa_1" xmlns="http://www.w3.org/2000/svg" xmlns:xlink="http://www.w3.org/1999/xlink" x="0px" y="0px"
	 viewBox="0 0 80 80" style="enable-background:new 0 0 80 80;" xml:space="preserve">
<style type="text/css">
	.st0{fill:#ACAEAF;}
	.st1{fill:#FE9900;}
	.st2{fill:#1C3247;}
</style>
<g id="NfX1wv.tif_1_">
	<g>
		<path class="st0" d="M28.1,8.6c0.8,0,1.5,0,2.3,0c0.1,0,0.3,0.1,0.4,0.1c6,0.9,10.1,4.2,12.1,10c0.7,2,0.8,4.1,0.7,6.2
			c0,1.2,0,2.4-0.2,3.6c-0.2,1.4-0.5,2.9-1.8,3.7c-1.1,0.6-1.3,1.5-1.5,2.6c-0.6,2.8-2.1,5-4.4,6.6c-0.6,0.5-0.5,1.2,0.1,1.6
			c0.6,0.4,1.2,0.9,1.8,1.3c0.2,0.2,0.5,0.3,0.8,0.4c2.8,0.1,5.3,1,7.4,2.8c0.1,0.1,0.2,0.2,0.4,0.3c0.1-0.7,0.1-1.3,0.2-1.9
			c0.1-1.6,0.9-2.3,2.5-2.3c5,0,10,0,15.1,0c1.3,0,2.7,0,4,0c1.3,0,2.1,0.9,2.1,2.2c0,0.5-0.1,1-0.1,1.4c-0.6,7.2-1.2,14.4-1.8,21.7
			c-0.1,1.2-0.3,1.4-1.6,1.4c-18.6,0-37.1,0-55.7,0c-1.2,0-2-0.4-2.4-1.5c0-4.8,0-9.6,0-14.5c0.1-0.3,0.1-0.5,0.2-0.8
			c1.1-5.1,5.5-8.8,10.9-9c0.5,0,0.8-0.1,1.1-0.5c0.5-0.4,1-0.8,1.6-1.1c0.7-0.4,0.8-1.1,0.2-1.6c-2.7-2-4.2-4.7-4.6-8
			c0-0.2-0.2-0.4-0.4-0.5c-0.8-0.4-1.5-0.9-1.8-1.7c-0.4-0.9-0.8-1.9-0.9-2.9c-0.2-1.9-0.2-3.7-0.1-5.6c0.2-6,4.1-11.3,9.8-13.2
			C25.8,9.1,27,8.9,28.1,8.6z M48.7,45.6c-0.6,7.5-1.3,15-1.9,22.6c6.5,0,13,0,19.5,0c0.6-7.5,1.3-15,1.9-22.6
			C61.7,45.6,55.3,45.6,48.7,45.6z M41.8,26.8c0,0-0.1,0-0.1,0c0-0.3,0-0.7-0.1-1c-0.1-0.3-0.3-0.6-0.5-0.7
			c-0.4-0.2-0.5,0.2-0.6,0.5c-0.2,0.5-0.6,0.7-1.1,0.6c-0.5-0.1-0.8-0.4-0.8-0.9c0-0.2,0-0.4,0-0.7c0-1.4-0.6-2.5-1.5-3.4
			c-1-1-2.2-1.6-3.6-2c-0.2-0.1-0.5,0-0.8,0.1c-1.2,0.5-2.4,1.2-3.6,1.6c-2.6,0.9-5.2,1.4-7.9,1.6c-1,0.1-1.1,0.2-1.1,1.1
			c0,0.5,0,1,0,1.6c0,0.5-0.3,0.9-0.9,1c-0.5,0.1-0.9-0.2-1.1-0.6c-0.1-0.2-0.4-0.3-0.6-0.5c-0.2,0.2-0.5,0.5-0.5,0.7
			c-0.2,1.5,0,3.1,0.7,4.5c0.2,0.3,0.5,0.7,0.9,0.8c1.1,0.4,1.5,1.1,1.6,2.2c0.3,4.5,4.3,8.2,8.7,8.3c5,0.2,9.1-3.5,9.5-8.6
			c0.1-0.9,0.5-1.6,1.4-1.9c0.6-0.2,1-0.6,1.2-1.1C41.3,28.8,41.6,27.8,41.8,26.8z M23.3,68.2c-1.3-2.4-1.9-5-2.3-7.7
			c-0.7-4.4-0.9-8.8-1-13.2c0-0.2,0-0.4,0-0.6c-0.4,0-0.7,0-1,0c-4.6,0.4-8.2,4.4-8.2,8.9c0,4,0,8.1,0,12.1c0,0.2,0,0.3,0,0.5
			C15,68.2,19.1,68.2,23.3,68.2z M18,22.9c0.3-1.7,1.2-2.4,2.8-2.5c0.5,0,1.1-0.1,1.6-0.1c3.3-0.4,6.6-1.1,9.5-2.9
			c0.5-0.3,1.2-0.4,1.7-0.3c2.8,0.6,5,2.1,6.3,4.6c0.2,0.4,0.3,0.8,0.5,1.3c0.4,0,0.8,0,1.2,0c-0.3-4.5-2.2-8.1-6.1-10.4
			c-4.3-2.5-8.6-2.5-12.8,0.2c-3.7,2.3-5.5,5.8-5.8,10.2C17.3,22.9,17.6,22.9,18,22.9z M45.2,63.1c0-0.1,0.1-0.1,0.1-0.2
			c0.3-3.9,0.7-7.9,1-11.8c0-0.3-0.1-0.6-0.3-0.9c-1.3-1.6-2.9-2.7-4.8-3.2c-0.8-0.2-1.6-0.3-2.5-0.5c0,0.3-0.1,0.5-0.1,0.6
			c-0.1,2.3-0.1,4.7-0.3,7c-0.2,3.3-0.6,6.6-1.5,9.8c-0.4,1.4-1,2.8-1.5,4.2c1,0,2.1,0,3.2,0c0-0.9,0-1.8,0-2.7
			c0-1.6,0.8-2.4,2.4-2.4C42.3,63.1,43.7,63.1,45.2,63.1z M31.6,68.2c-0.4-4.8-0.8-9.6-1.2-14.4c-0.6,0-1.1,0-1.6,0
			c-0.5,0-0.6,0.2-0.7,0.6c-0.2,3.3-0.5,6.6-0.8,9.8c-0.1,1.3-0.2,2.6-0.3,3.9C28.6,68.2,30,68.2,31.6,68.2z M25.3,50.8
			c-0.7,1.2-1.1,1.3-2.3,0.5c-0.3-0.2-0.5-0.4-0.8-0.7c0,0.3,0,0.5,0,0.6c0.2,2.6,0.4,5.2,0.7,7.7c0.3,2.3,0.7,4.6,1.5,6.8
			c0.1,0.4,0.3,0.8,0.5,1.1c0.1-0.1,0.2-0.2,0.2-0.3c0.3-4.1,0.6-8.2,1-12.3C26.3,53,25.8,51.9,25.3,50.8z M33.3,50.8
			c-0.3,1-0.9,1.8-0.8,2.8c0.3,3.7,0.6,7.4,0.9,11.1c0.1,0.7,0.1,1.3,0.2,2c0.1,0,0.1,0,0.2,0c2.1-5.1,2.3-10.6,2.7-16.2
			c-0.4,0.3-0.6,0.5-0.9,0.7C34.5,52.1,34,52,33.3,50.8z M25.3,42.8c-0.1,0-0.1,0.1-0.2,0.1c0.1,0.3,0.2,0.7,0.4,0.9
			c0.8,1,1.8,1.5,2.9,1.9c0.3,0.1,0.6,0.3,0.9,0.2c1.5-0.3,2.8-0.9,3.7-2.1c0.2-0.2,0.2-0.6,0.4-0.9c0,0-0.1-0.1-0.1-0.1
			C30.7,43.8,28,43.8,25.3,42.8z M31.8,48.9c-1.9-1.1-3.2-1.1-5,0c0.3,0.8,0.6,1.7,1,2.5c0.1,0.1,0.3,0.3,0.5,0.3c0.7,0,1.3,0,2,0
			c0.2,0,0.4-0.2,0.5-0.3C31.1,50.7,31.5,49.8,31.8,48.9z M40.7,65.2c0,1,0,2,0,3c1.4,0,2.7,0,4.2,0c0.1-1,0.2-2,0.2-3
			C43.5,65.2,42.1,65.2,40.7,65.2z M32.8,46.9c0.7,0.7,1.5,1.4,2.3,2.2c0.4-0.6,0.8-1.3,1.1-2c0.5-1.2,0.2-1.7-0.9-2.2
			c-0.1,0-0.2-0.1-0.2-0.1C34.2,45.6,33.5,46.3,32.8,46.9z M23.5,44.8c-0.2,0.2-0.6,0.3-0.9,0.6c-0.2,0.2-0.5,0.5-0.5,0.7
			c0.1,1.2,0.6,2.2,1.5,2.9c0.8-0.7,1.5-1.4,2.2-2.1C25.1,46.3,24.4,45.6,23.5,44.8z"/>
		<path class="st1" d="M68.9,8.6c1.2,0.5,1.6,1.3,1.6,2.6c0,5.9,0,11.7,0,17.6c0,1.6-0.8,2.4-2.4,2.4c-1,0-2,0-3,0
			c-0.3,0-0.6,0.1-0.8,0.3c-1.3,1.2-2.5,2.5-3.8,3.7c-1.4,1.4-3.2,1.4-4.6,0c-1.3-1.2-2.5-2.5-3.8-3.7c-0.2-0.2-0.6-0.3-0.9-0.4
			c-1,0-2.1,0-3.1,0c-1.4,0-2.3-0.9-2.3-2.3c0-5.9,0-11.8,0-17.6c0-1.3,0.4-2.2,1.6-2.7C54.5,8.6,61.7,8.6,68.9,8.6z M47.8,29.2
			c0.8,0,1.5,0.1,2.2,0c1.7-0.2,3.1,0.3,4.2,1.7c0.8,1.1,1.9,1.9,2.9,2.9c0.7,0.7,1.2,0.7,1.9,0c1.4-1.3,2.7-2.7,4-4
			c0.4-0.4,0.8-0.6,1.4-0.6c1.1,0,2.2,0,3.3,0c0.2,0,0.4,0,0.6,0c0-6.2,0-12.3,0-18.4c-6.9,0-13.7,0-20.5,0
			C47.8,16.9,47.8,23,47.8,29.2z"/>
		<path class="st0" d="M57.5,59c-2.2,0-3.9-2-3.5-4.2c0.4-2.3,2.4-4,4.6-4c2.3,0,3.9,1.9,3.6,4.1C61.9,57.2,59.8,59,57.5,59z
			 M57.5,56.9c1.3,0,2.5-1.1,2.6-2.3c0.1-1.1-0.6-1.9-1.7-1.8c-1.2,0.1-2.4,1.1-2.5,2.4C55.9,56.2,56.6,56.9,57.5,56.9z"/>
		<path class="st0" d="M57,63.1c-0.7,0-1.3,0-2,0c-0.6,0-1-0.4-1.1-1c0-0.6,0.4-1,1-1c1.4,0,2.7,0,4.1,0c0.6,0,1,0.5,1,1
			c0,0.6-0.4,1-1.1,1C58.4,63.1,57.7,63.1,57,63.1z"/>
		<path class="st2" d="M64.3,25.1c0.4,0,0.7,0,1.1,0c0.6,0,1,0.5,1,1c0,0.5-0.4,0.9-0.9,1c-0.2,0-0.4,0-0.5,0c-4.5,0-9,0-13.5,0
			c-1.2,0-1.5-0.3-1.5-1.5c0-3.8,0-7.6,0-11.4c0-0.2,0-0.4,0-0.7c0.1-0.5,0.5-0.9,1-0.8c0.5,0,0.9,0.4,1,1c0,0.2,0,0.4,0,0.6
			c0,3.3,0,6.7,0,10c0,0.2,0,0.5,0,0.7c0.7,0,1.3,0,2.1,0c0-0.4,0-0.8,0-1.3c0-0.9,0-1.8,0-2.8c0-0.7,0.4-1.1,1-1.1
			c0.6,0,1,0.4,1,1.1c0,1.1,0,2.2,0,3.3c0,0.2,0,0.4,0,0.7c0.7,0,1.3,0,2,0c0-0.2,0-0.4,0-0.6c0-2.3,0-4.7,0-7c0-0.2,0-0.4,0-0.7
			c0.1-0.5,0.4-0.8,0.9-0.9c0.5,0,0.9,0.2,1,0.7c0.1,0.2,0.1,0.5,0.1,0.7c0,2.3,0,4.7,0,7c0,0.2,0,0.4,0,0.7c0.7,0,1.4,0,2.1,0
			c0-1.4,0-2.8,0-4.2c0-0.6,0-1.2,0-1.9c0-0.7,0.4-1.1,1-1.1c0.6,0,1,0.4,1,1.1c0,1.8,0,3.6,0,5.4C64.3,24.6,64.3,24.8,64.3,25.1z"
			/>
	</g>
</g>
</svg>
