<?xml version="1.0" encoding="utf-8"?>
<!-- Generator: Adobe Illustrator 24.0.0, SVG Export Plug-In . SVG Version: 6.00 Build 0)  -->
<svg version="1.1" id="Capa_1" xmlns="http://www.w3.org/2000/svg" xmlns:xlink="http://www.w3.org/1999/xlink" x="0px" y="0px"
	 viewBox="0 0 200 200" style="enable-background:new 0 0 200 200;" xml:space="preserve">
<style type="text/css">
	.st0{fill:#ACAEAF;}
	.st1{fill:#FE9900;}
	.st2{fill:#1C3247;}
</style>
<g>
	<path class="st0" d="M9.9,136.8c0.7-2,1.2-4,2.1-5.9c1.8-3.8,5-6.4,8.9-8.1c1.2-0.5,2.5-1.2,3.6-1.7c5.9-2,11.1-5.1,15-10.1
		c0.2-0.2,0.3-0.5,0.7-0.7c2.3-0.8,1.7-2.6,1.7-4.3c0-0.5-0.5-1-0.8-1.3c-5.4-4-8.9-9.2-10.6-15.8c-0.2-0.8-0.5-1.3-1.5-1.3
		c-2.1-0.2-3.8-1.2-5.1-3c-2.5-3.5-2-9.4,1-12.5c0.5-0.5,0.7-1.7,0.5-2.3c-1.3-6.8-0.3-13.2,2.8-19.3c2.3-4.6,5.6-8.3,9.9-11.2
		c1-0.7,1.5-1.3,1.7-2.6c1-7.4,6.9-13.5,14-14.7c8.4-1.2,15.7,2.5,19,9.6c0.8,1.7,1,3.5,1.5,5.1c0.2,0.8,0.7,1.7,1.2,2.1
		c7.3,5.1,12,12,13.2,20.8c0.5,3.3,0,6.8-0.2,10.2c0,1,0,1.7,0.8,2.5c3.3,3.1,3.3,10.1-0.2,13.2c-1,0.8-2.1,1.7-3.3,1.8
		c-2,0.3-2.3,1.2-2.8,2.8c-1.7,5.9-5,10.7-9.9,14.5c-2,1.5-1.8,4.1,0.2,5.6c2.1,1.8,4.1,4.1,6.3,6.1c0.7,0.7,1.5,1.3,2.5,1.7
		c4,1.8,8.3,3.5,12.2,5.4c6.8,3.5,9.9,9.2,9.7,16.7c-0.3,11.7-1,23.6-1.5,35.3c0,0.2,0,0.3,0,0.5c-0.2,1.8-1.2,3-2.6,2.8
		c-1.5,0-2.6-1.3-2.5-3c0.2-3.5,0.3-6.9,0.5-10.6c0.3-8.6,0.8-17.2,1.2-25.7c0.2-2.3-0.3-4.5-1.8-6.8c-2.8,3.5-5.6,6.8-8.1,10.2
		c-1.8,2.5-2.1,5.4-2.1,8.6c0,7.8,0,15.4,0,23.1c0,2.6-0.8,4-2.6,4s-2.6-1.3-2.6-4.1c0-8.4,0-16.7,0.2-25.1c0-4.8,2-8.9,5.1-12.5
		c2.1-2.6,4.5-5.3,6.9-8.3c-4.5-2-8.7-4-13.2-5.9c-0.3,0.5-0.7,1-1,1.7c-2.1,3.5-4.3,7.1-6.6,10.6c-2.3,3.6-5.4,4.1-8.7,1.3
		c-1.3-1.2-2.6-2.3-4.5-3.8c0,1,0,1.7,0,2.3c0,13.2,0,26.6,0,39.8c0,2.6-0.8,4-2.5,4c-1.8,0-2.6-1.3-2.6-4.1c0-13.2,0-26.4,0-39.6
		c0-0.7,0-1.3,0-2.3c-1.7,1.3-3,2.5-4.1,3.5c-3.5,3-6.6,2.5-9.1-1.5c-2.5-4-4.8-7.8-7.3-11.9c-4.5,2-8.7,3.8-13.4,5.9
		c1.3,1.5,2.5,2.8,3.5,4.3c2.1,3,4.8,5.8,6.4,8.9c1.3,2.5,2,5.6,2,8.4c0.3,8.4,0.2,17,0.2,25.4c0,1.5-0.5,2.6-2,2.8
		c-0.8,0.2-2.1-0.3-2.6-1c-0.5-0.5-0.7-1.7-0.7-2.6c0-7.6-0.2-15.4,0-22.9c0-4.6-1.3-8.7-4.5-12.2c-2-2.1-3.8-4.6-5.8-6.9
		c-1.3,2.3-1.8,4.6-1.7,6.9c0.3,9.2,0.8,18.5,1.2,27.9c0.2,2.5,0.2,5,0.3,7.4c0.2,2.3-0.8,3.6-2.5,3.6s-2.6-1.2-2.8-3.6
		c-0.3-6.4-0.5-12.9-0.8-19.3c-0.2-3.6-0.3-7.3-0.5-10.9c0-0.5-0.2-1.2-0.3-1.7C9.9,141.2,9.9,138.9,9.9,136.8z M34.8,71.7
		c0.7-0.7,1.5-1.5,2.1-2.1c1.2-1.2,2.5-1.2,3.6-0.2c1.2,1,1.3,2.5,0.2,3.8c-0.8,1-1.8,2.1-3,3c-2.5,2.1-3.6,2.1-6.3,0
		c-0.7-0.5-2-0.8-2.6-0.5c-1.8,1-1.3,2.8-1.2,4.5c0.2,1.3,1,2.1,2.5,2.3c3.1,0.3,4.6,1.7,5.3,4.6c0.8,3.5,2.3,6.4,4.3,9.2
		c5.6,7.4,17.2,10.4,25.6,6.6c6.9-3.1,11.2-8.4,13-15.8c0.7-2.8,2.3-4.3,5.3-4.6c2.1-0.2,3-1.7,2.6-4.6c-0.3-2-1.5-2.8-3.5-2.1
		c-2.3,0.8-4,0.2-5.4-1.5c-1-1-2.1-1.2-3.5-1.2c-9.1,0-18-1.2-26.1-5.4c-3.8-2-7.1-4.5-9.7-7.8c-0.5-0.7-0.8-2-0.5-2.8
		c0.2-0.7,1.3-1.5,2-1.5c0.8,0,2,0.7,2.6,1.3c2.3,1.8,4.5,4,6.9,5.4c7.4,4.3,15.5,5.4,23.9,5.4c2.8,0,5.3,0.2,7.4,2.3
		c1,1,2.5,0.3,2.8-1c1-5.3,0.5-10.6-1.8-15.4c-7.6-15.5-28.4-20.1-41.8-9.1c-7.6,6.4-10.9,14.5-8.9,24.4c0.2,0.5,0.5,1,0.8,1.3
		C32.5,70.9,33.6,71.2,34.8,71.7z M47.2,108.5c0,0.7,0,1.7,0,2.5c0,1-0.2,2.3,0.5,2.8c3,3.1,6.1,6.3,9.2,9.4c2.6-2.6,5-5.3,7.6-7.4
		c2.6-2.1,2-4.8,2-7.1c-3.3,0.5-6.4,1.2-9.7,1.2C53.6,109.7,50.5,109,47.2,108.5z M46,132.8c2.5-2.1,4.6-4,6.8-5.8
		c-3.6-3.6-7.3-7.3-10.6-10.6c-1.2,1.2-2.6,2.3-4,3.6C40.7,124.2,43.2,128.3,46,132.8z M67.8,132.8c2.8-4.5,5.3-8.6,7.6-12.4
		c-1.5-1.5-2.8-2.8-4-4.1c-3.5,3.5-6.9,6.9-10.6,10.6C63,128.7,65.3,130.7,67.8,132.8z M68.5,35.3C67,30,61.5,26.5,55.9,27
		c-5.1,0.5-9.9,4.3-10.2,8.3C53.1,32.6,60.7,32.6,68.5,35.3z"/>
	<path class="st0" d="M183.5,122.4c-3,3.1-6.1,6.1-8.9,9.4c-2,2.1-2.3,5-2.3,7.9c0,11.7,0,23.4,0,35.2c0,2.6-0.8,4-2.6,4.1
		c-1.8,0-2.6-1.3-2.6-4.1c0-11.6,0-23.1,0-34.7c0-5.8,2-10.4,5.9-14.4c2.8-2.6,5.4-5.3,8.4-8.4c-1.7-1.2-3.1-2.3-4.8-3
		c-4.3-1.8-8.7-3.5-13.4-5.3c-0.3,0.5-0.7,1-1.2,1.5c-2.8,4.1-5.4,8.1-8.1,12.2c-3,4.6-5.3,5.4-10.9,4.1c0,0.5,0,1,0,1.5
		c0.7,15.5,1.3,31.2,2,46.7c0.2,2.5-1.2,4-3,3.6c-1.7-0.3-2.3-1.5-2.3-3c-0.3-6.8-0.7-13.4-1-20.1c-0.3-8.1-0.7-16.2-1-24.4
		c0-0.2,0-0.5-0.2-0.8c-1.8,0-3.5,0-5.3,0c-0.2,2.6-0.3,5.3-0.3,7.9c-0.5,11.9-1,23.8-1.5,35.8c0,0.8-0.2,1.8-0.3,2.6
		c-0.3,1.5-1.3,2.1-2.6,2c-1.3-0.2-2.3-1-2.3-2.5c0-2,0-4,0.2-5.9c0.7-14.2,1.3-28.4,2-42.6c0-0.3,0-0.5,0-0.8
		c-1.5,0.2-2.8,0.7-4.3,0.5c-2.6-0.2-4.6-1.7-6.1-4c-2.8-4.5-5.8-8.7-8.7-13.2c-0.3-0.5-0.7-1-1.2-1.5c-4.8,2-9.6,3.8-14.5,5.8
		c-0.7,0.2-1.2,0.7-1.7,0.8c-1.3,0.5-2.5,0-3.1-1.2s-0.5-2.5,0.7-3.3c1.2-0.8,2.5-1.5,3.8-2.1c1.5-0.7,3.1-1.3,4.8-1.8
		c6.4-1.8,11.6-5.3,16.2-10.2c1.8-2,2.5-3.5,2.1-5.8c-0.2-1-0.5-2.1-1-2.8c-2.6-3.3-4.5-6.8-5.4-10.9c-0.2-1-0.7-1.5-1.8-1.7
		c-2.3-0.2-4.1-1.5-5.3-3.6c-2.3-4-1.3-9.7,2.3-12.5c1-0.8,0.7-1.5,0.5-2.3c-1.2-5.1-1.7-10.4-1.3-15.7c0.3-6.6,4.3-11.1,10.7-12.5
		c0.7-0.2,1.3-0.5,1.8-0.8c11.9-8.1,24.8-9.1,37.8-3.6c8.9,3.8,13.5,11.4,14.4,20.8c0.5,4.6-0.2,9.2-0.3,13.7c0,0.7,0.2,1.5,0.5,2.1
		c2.1,3.6,2.3,7.3,0.2,10.7c-0.8,1.5-2.6,3-4.1,3.1c-2.3,0.3-2.8,1.7-3.3,3.5c-1,3.6-2.8,6.8-5.3,9.6c-1.7,2-0.5,4.3-0.7,6.6
		c0,0.2,0.5,0.3,0.7,0.5c0.5,0.3,1,0.7,1.3,1c4.5,5.8,10.4,8.7,17.2,10.7c3.6,1.2,7.1,2.5,9.9,5.3c3.1,3.3,5.1,7.1,5.1,11.7
		c0,6.9-0.3,13.9-0.7,20.6c-0.3,9.9-0.8,19.8-1.3,29.7c0,0.3,0,0.8,0,1.2c-0.2,1.5-1.2,2.3-2.6,2.3c-1.3,0-2.3-0.8-2.5-2.3
		c-0.2-0.8,0-1.7,0-2.5c0.7-15.7,1.3-31.4,2-47.2c0-1.5,0-3,0-4.3C184,122.6,183.8,122.4,183.5,122.4z M162.9,58.4
		c0.2-3.1,0.5-6.6,0.3-9.9c-0.2-4.5-1.3-8.6-4-12.4c-3.6-5.1-8.9-7.6-14.9-8.6c-9.6-1.5-18.5,0-26.4,5.9c-0.7,0.5-1.7,0.8-2.5,1
		c-4.3,0.8-6.9,3.5-6.8,7.8c0,4.5,0.7,9.1,1,13.5c0.2,2.5,1.3,3.8,3.5,4.3c0.8-0.7,1.7-1.3,2.3-2.1c1.2-1.2,2.3-1.3,3.6-0.3
		c1.2,0.8,1.3,2.5,0.2,3.8c-1,1.2-2,2.3-3.1,3.3c-2.3,2-3.6,1.8-5.9,0c-0.7-0.5-2.3-0.8-3-0.3c-1.7,1-1.2,2.8-1,4.5
		c0.2,1.3,1.2,1.8,2.5,2c3,0.3,4.6,1.7,5.3,4.5c1,4.8,3.3,8.6,6.8,11.9c7.9,7.4,21.8,7.4,29.5-0.2c3.5-3.3,5.8-7.3,6.8-12
		c0.5-2.3,2-3.8,4.3-4.1c3-0.5,3.8-1.7,3.5-4.8c-0.3-1.7-1.3-2.5-3-2.3c-4,0.3-5-0.2-6.4-4c-0.2-0.5-0.5-1-0.7-1.7
		c-0.3-1.3-1-1.5-2.1-1.2c-5.6,1.2-11.2,1.3-17,0.7c-7.3-0.8-13.7-3.3-18.7-8.9c-1.5-1.7-1.7-3.1-0.3-4.3c1.3-1.2,2.6-0.8,4.3,0.7
		c1.5,1.5,3.1,2.8,5,4c5.3,3,11.1,3.8,16.8,3.5c4.1-0.2,8.1-0.8,12.2-1.5c1.8-0.2,3,0.3,3.6,2c0.5,1.3,1.2,2.5,1.7,4
		C160.1,58.9,161.1,59,162.9,58.4z M149.7,94.2c-9.7,5.4-19.3,5.4-28.9,0c-0.7,4.1-0.5,4.6,2.3,7.1c4,3.5,7.9,6.9,12,10.6
		c4.1-3.6,7.9-7.3,12.2-10.6C150,99.5,150.2,97.2,149.7,94.2z M154.6,101.9c-5.1,4.5-10.4,9.1-15.7,13.7c2,2,3.8,3.8,5.8,5.6
		c1.7,1.5,3,1.3,4.1-0.5c2.1-3.1,4.1-6.3,6.3-9.4c1.2-1.8,2.5-3.6,3.6-5.4C157.4,104.6,156.1,103.3,154.6,101.9z M131.4,115.5
		c-5.3-4.6-10.4-9.1-15.4-13.5c-1.5,1.5-2.8,2.8-4.3,4.1c3.3,4.8,6.6,9.9,9.9,14.7c1,1.5,2.5,1.8,3.6,0.7
		C127.2,119.6,129.2,117.6,131.4,115.5z M137.5,125c0.5-2.6,0-4.5-2.3-5.6c-2.1,1.3-2.8,3.3-2.3,5.6C134.5,125,136,125,137.5,125z"
		/>
	<path class="st1" d="M115.7,137.4c1.7,0,3.1,0,4.8,0s2.6,1,2.6,2.5c0,1.5-0.8,2.6-2.5,2.6c-3.3,0.2-6.8,0.2-10.1,0
		c-1.7,0-2.5-1.3-2.3-2.6c0.2-1.7,1.2-2.5,2.6-2.5C112.4,137.3,114,137.4,115.7,137.4z"/>
	<path class="st2" d="M43.4,149c1.2,0,2.5,0,3.6,0c1.5,0,2.5,1,2.5,2.5c0.2,1.5-0.8,2.6-2.1,2.6c-2.6,0.2-5.4,0.2-8.1,0
		c-1.5,0-2.3-1.2-2.3-2.6c0-1.3,1.2-2.3,2.6-2.5C40.9,149,42.2,149,43.4,149L43.4,149z"/>
</g>
</svg>
