<?xml version="1.0" encoding="utf-8"?>
<!-- Generator: Adobe Illustrator 24.0.0, SVG Export Plug-In . SVG Version: 6.00 Build 0)  -->
<svg version="1.1" id="Capa_1" xmlns="http://www.w3.org/2000/svg" xmlns:xlink="http://www.w3.org/1999/xlink" x="0px" y="0px"
	 viewBox="0 0 200 200" style="enable-background:new 0 0 200 200;" xml:space="preserve">
<style type="text/css">
	.st0{fill:#ACAEAF;}
	.st1{fill:#1C3247;}
	.st2{fill:#FE9900;}
</style>
<g>
	<path class="st0" d="M138.5,121.8c-1.8,2.4-3.5,4.7-5.2,7c-0.2,0.3-0.1,0.9,0,1.2c0.2,0.5,0.6,0.9,0.9,1.3c1.7,2.5,1.4,4.8-1,6.6
		c-2.2,1.7-4.5,3.3-6.8,4.9c-2.7,1.9-4.8,1.5-6.8-1.1c-0.5-0.6-0.9-1.2-1.3-1.8c-3,1-5.9,1.9-9.1,3c0,0.9,0,1.8,0,2.8
		c-0.1,2.5-1.7,4.2-4.1,4.2c-3.2,0.1-6.4,0.1-9.5,0c-2.4-0.1-4.1-1.8-4.2-4.2c0-0.9,0-1.9,0-2.8c-2.9-1-5.7-2-8.6-2.9
		c-0.2-0.1-0.7,0.2-0.9,0.5c-0.5,0.6-0.9,1.2-1.4,1.8c-1.6,1.9-3.7,2.3-5.7,0.9c-2.6-1.8-5.2-3.7-7.7-5.6c-2.1-1.6-2.3-3.9-0.8-6.1
		c1.5-2.2,1.5-2.2-0.1-4.3c-1.3-1.7-2.5-3.6-3.9-5.5c-0.7,0.2-1.6,0.5-2.4,0.7c-2.8,0.8-4.9-0.2-5.8-3c-0.9-2.7-1.8-5.5-2.7-8.3
		c-0.9-2.8,0.2-4.8,3-5.8c0.5-0.2,0.9-0.4,1.4-0.5c0.9-0.2,1-0.7,1-1.5c-0.1-2.4-0.1-4.7,0-7.1c0-0.8-0.1-1.3-1-1.5
		c-0.7-0.2-1.5-0.4-2.2-0.7c-1.9-0.8-3-2.7-2.4-4.7c0.9-3.3,2-6.6,3.2-9.9c0.7-1.9,2.6-2.8,4.7-2.4c1.1,0.2,2.1,0.6,3.1,0.9
		c1.8-2.4,3.6-4.7,5.3-7.1c0.2-0.2,0-0.8-0.1-1.1c-0.3-0.6-0.8-1.2-1.2-1.8c-1.3-2.1-1-4.3,0.9-5.9c2.5-1.9,5.1-3.8,7.7-5.6
		c2-1.4,4.2-1,5.8,1c0.6,0.7,1.1,1.5,1.7,2.2c2.9-0.9,5.7-1.7,8.5-2.6c0.3-0.1,0.6-0.7,0.6-1.1c0.3-5.5,1.1-6.2,6.6-6.2
		c2.2,0,4.4,0,6.6,0c3,0,4.6,1.7,4.7,4.7c0,0.8,0,1.5,0,2.3c3,1,5.9,1.9,9,2.9c0.6-0.7,1.2-1.6,1.8-2.4c1.6-1.9,3.7-2.2,5.7-0.9
		c2.6,1.8,5.2,3.7,7.7,5.6c2,1.5,2.3,3.8,0.9,5.9c-0.5,0.8-1.1,1.6-1.7,2.4c1.9,2.6,3.7,5,5.6,7.7c0.7-0.2,1.6-0.5,2.5-0.8
		c2.6-0.8,4.7,0.3,5.6,2.9c1,2.8,1.9,5.7,2.8,8.6c0.8,2.6-0.3,4.6-2.9,5.6c-0.5,0.2-0.9,0.4-1.4,0.5c-1.1,0.2-1.2,0.7-1.2,1.7
		c0.1,2.2,0.1,4.5,0,6.7c0,0.9,0,1.6,1.1,1.8c0.7,0.1,1.5,0.4,2.2,0.8c1.8,0.9,2.8,2.7,2.3,4.6c-0.9,3.3-2,6.6-3.2,9.9
		c-0.8,2.1-2.9,2.9-5.2,2.3C140.3,122.4,139.4,122.1,138.5,121.8z M77.1,138.4c0.6-0.8,1-1.4,1.5-2.1c1.5-1.9,3.1-2.3,5.4-1.5
		c3.1,1.1,6.2,2.1,9.3,3.1c2.1,0.7,3.3,2,3.4,4.3c0,0.9,0,1.7,0,2.6c2.5,0,4.9,0,7.3,0c0-0.7,0-1.3,0-1.9c0-3.1,1.1-4.3,4-5.2
		c2.8-0.8,5.6-1.7,8.4-2.8c2.6-1,4.3-0.6,5.9,1.6c0.4,0.6,0.9,1.2,1.4,1.9c2.1-1.5,3.9-2.9,5.9-4.3c-0.6-0.8-1.1-1.5-1.6-2.2
		c-1.2-1.8-1.1-3.6,0.2-5.3c2-2.7,4-5.5,6-8.2c1.2-1.7,2.7-2.3,4.7-1.8c0.9,0.2,1.9,0.5,2.9,0.8c0.8-2.4,1.5-4.6,2.2-7
		c-1-0.4-1.9-0.6-2.7-0.9c-1.9-0.7-2.8-2.2-2.8-4.2c0-3.5,0-7,0-10.5c0-2,1-3.5,2.8-4.2c0.9-0.3,1.7-0.6,2.7-0.9
		c-0.8-2.4-1.5-4.7-2.3-6.9c-1.1,0.3-2.1,0.6-3,0.9c-1.9,0.4-3.3-0.2-4.4-1.7c-2.1-2.8-4.1-5.7-6.2-8.5c-1.2-1.6-1.2-3.4-0.1-5.1
		c0.5-0.8,1.1-1.5,1.6-2.4c-2-1.5-3.9-2.9-5.9-4.3c-0.5,0.6-0.8,1.1-1.2,1.6c-1.9,2.6-3.4,2.9-6.4,1.8c-2.8-1.1-5.7-1.9-8.6-2.8
		c-2.2-0.7-3.4-2-3.5-4.4c0-0.8,0-1.7,0-2.5c-2.6,0-4.9,0-7.3,0c0,1,0,1.9,0,2.7c-0.1,2.1-1.3,3.5-3.2,4.1c-3.2,1-6.4,2.1-9.7,3.2
		c-2,0.7-3.8,0.2-5.1-1.5c-0.5-0.7-1-1.4-1.6-2.2c-2,1.5-4,2.9-5.9,4.3c0.4,0.6,0.7,1,1,1.5c1.9,2.7,1.8,4.3-0.3,6.9
		c-1.8,2.2-3.4,4.6-5,6.9c-1.5,2.3-3.1,2.9-5.7,2.1c-0.7-0.2-1.4-0.4-2.2-0.7c-0.8,2.4-1.5,4.6-2.2,6.9c0.7,0.2,1.3,0.4,1.9,0.6
		c2.9,1,3.7,2.3,3.7,5.4c-0.1,3.1,0,6.1,0,9.2c0,2.5-0.9,3.9-3.2,4.7c-0.7,0.3-1.5,0.5-2.3,0.8c0.8,2.4,1.5,4.6,2.3,6.9
		c1-0.3,1.9-0.6,2.8-0.8c2.1-0.5,3.6,0.2,4.8,1.9c1.9,2.7,3.9,5.4,5.9,8.1c1.3,1.7,1.4,3.5,0.2,5.3c-0.5,0.8-1,1.5-1.6,2.3
		C73.2,135.6,75.1,137,77.1,138.4z"/>
	<path class="st0" d="M166.1,49.9c-4.2,0-8.3,0-12.5,0c-2.3,0-3.2-0.9-3.2-3.2c0-8.4,0-16.8,0-25.2c0-2.3,0.9-3.2,3.2-3.2
		c8.4,0,16.8,0,25.2,0c2.3,0,3.2,0.9,3.2,3.2c0,8.4,0,16.8,0,25.2c0,2.3-0.9,3.2-3.3,3.2C174.5,49.9,170.3,49.9,166.1,49.9z
		 M176.6,44.6c0-7.1,0-14,0-20.9c-7,0-13.9,0-20.9,0c0,7,0,14,0,21c6.7,0,13.2,0,19.8,0C175.9,44.6,176.2,44.6,176.6,44.6z"/>
	<path class="st0" d="M37.2,150.1c2.4,0,4.8,0,7.2,0c1.3,0,2.2,0.5,2.8,1.6c2.4,4.2,4.8,8.4,7.2,12.5c0.7,1.2,0.6,2.3,0,3.4
		c-2.4,4.1-4.8,8.3-7.1,12.4c-0.7,1.2-1.6,1.7-2.9,1.7c-4.8,0-9.5,0-14.3,0c-1.3,0-2.3-0.5-3-1.7c-2.4-4.1-4.7-8.3-7.1-12.4
		c-0.7-1.2-0.7-2.3,0-3.5c2.4-4.1,4.7-8.2,7.1-12.3c0.7-1.2,1.7-1.8,3.1-1.8C32.5,150.1,34.9,150.1,37.2,150.1z M37.2,176.3
		c0,0,0,0.1,0,0.1c1.7,0,3.4,0.1,5.1,0c0.5,0,1.3-0.4,1.5-0.8c1.8-2.9,3.5-5.8,5.1-8.8c0.2-0.5,0.2-1.3,0-1.7
		c-1.6-2.9-3.3-5.8-5-8.7c-0.3-0.5-1.2-0.9-1.8-1c-2.8-0.1-5.7,0.1-8.5-0.1c-1.9-0.1-2.9,0.5-3.6,2.2c-0.5,1.1-1.2,2.1-1.8,3.1
		c-1,1.8-2.7,3.5-2.7,5.3c0,1.8,1.7,3.5,2.7,5.3c1,1.7,1.6,4.1,3.1,4.9C32.8,177,35.2,176.3,37.2,176.3z"/>
	<path class="st0" d="M55.7,36.6c0-1.7,0-3.4,0-5.1c28.9,0,57.7,0,86.6,0c0,1.6,0,3.3,0,5.1C113.6,36.6,84.7,36.6,55.7,36.6z"/>
	<path class="st0" d="M37.1,142.1c-1.7,0-3.4,0-5.1,0c0-28.1,0-56.1,0-84.2c1.6,0,3.3,0,5.1,0C37.1,85.9,37.1,114,37.1,142.1z"/>
	<path class="st0" d="M163.7,57.9c1.7,0,3.4,0,5.1,0c0,28.1,0,56,0,84.2c-1.6,0-3.3,0-5.1,0C163.7,114.1,163.7,86.1,163.7,57.9z"/>
	<path class="st1" d="M34.6,49.9c-4.2,0-8.3,0-12.5,0c-2.9,0-4-1.8-2.7-4.3c4.2-8.4,8.4-16.8,12.5-25.2c0.6-1.2,1.4-2,2.8-2
		c1.3,0,2,0.8,2.6,2c4.2,8.4,8.4,16.8,12.5,25.2c1.3,2.6,0.1,4.3-2.7,4.3C42.9,49.9,38.8,49.9,34.6,49.9z M34.6,26.8
		c-3,6.1-5.9,11.8-8.8,17.7c6,0,11.7,0,17.7,0C40.5,38.6,37.6,32.9,34.6,26.8z"/>
	<path class="st1" d="M150.4,166c0-8.7,7.1-15.9,15.7-15.9c8.7,0,15.8,7,15.9,15.8c0.1,8.7-7.1,15.9-15.7,15.9
		C157.5,181.7,150.4,174.7,150.4,166z M176.7,165.9c0-5.8-4.7-10.6-10.6-10.5c-5.7,0-10.5,4.7-10.5,10.5c0,5.8,4.7,10.6,10.5,10.6
		C172,176.5,176.7,171.8,176.7,165.9z"/>
	<path class="st0" d="M63.6,168.5c0-1.5,0-2.8,0-4.2c0-0.3,0-0.5,0.1-0.9c26.3,0,52.4,0,78.8,0c0,1.6,0,3.3,0,5.1
		C116.2,168.5,90,168.5,63.6,168.5z"/>
	<path class="st2" d="M68.8,99.9c0-17.4,14.2-31.5,31.7-31.5c17.2,0,31.4,14.2,31.5,31.4c0.1,17.5-14,31.8-31.3,31.9
		C83,131.7,68.9,117.6,68.8,99.9z M74.1,100.1c0,14.4,11.8,26.3,26.3,26.3c14.4,0.1,26.3-11.8,26.3-26.3c0-14.6-11.7-26.4-26.1-26.5
		C85.9,73.6,74.1,85.4,74.1,100.1z"/>
	<path class="st2" d="M113.4,113.1c-1.7,0-3.3,0-5.1,0c0-8.8,0-17.4,0-26.2c1.7,0,3.3,0,5.1,0C113.4,95.6,113.4,104.3,113.4,113.1z"
		/>
	<path class="st2" d="M87.3,92.2c1.7,0,3.3,0,5.1,0c0,6.9,0,13.9,0,20.9c-1.7,0-3.3,0-5.1,0C87.3,106.1,87.3,99.3,87.3,92.2z"/>
	<path class="st2" d="M97.9,97.4c1.7,0,3.4,0,5.1,0c0,5.2,0,10.3,0,15.6c-1.6,0-3.3,0-5.1,0C97.9,107.9,97.9,102.7,97.9,97.4z"/>
</g>
</svg>
