<?xml version="1.0" encoding="utf-8"?>
<!-- Generator: Adobe Illustrator 24.0.0, SVG Export Plug-In . SVG Version: 6.00 Build 0)  -->
<svg version="1.1" id="Capa_1" xmlns="http://www.w3.org/2000/svg" xmlns:xlink="http://www.w3.org/1999/xlink" x="0px" y="0px"
	 viewBox="0 0 200 200" style="enable-background:new 0 0 200 200;" xml:space="preserve">
<style type="text/css">
	.st0{fill:#ACAEAF;}
	.st1{fill:#1C3247;}
	.st2{fill:#FE9900;}
	.st3{fill:none;}
</style>
<g>
	<path class="st0" d="M152.4,18.2c0.9,0.5,2,0.8,2.9,1.4c2.6,1.7,4,4.2,4.2,7.3c0,0.5,0,0.9,0,1.4c0,50,0,99.9,0,149.9
		c0,0.5,0,0.9,0,1.2c-0.2,2.9-3.1,4.6-5.7,3.1c-2.3-1.4-4.5-2.8-6.6-4.3c-0.8-0.6-1.4-0.6-2.3,0c-2.9,2-5.9,3.9-9,5.7
		c-0.8,0-1.5,0-2.3,0c-3.1-2-6-4-9.1-5.9c-0.5-0.3-1.2-0.3-1.7,0c-3.1,1.9-6.2,3.9-9.1,5.9c-0.8,0-1.5,0-2.3,0c-3.1-2-6-4-9.1-5.9
		c-0.5-0.3-1.2-0.3-1.7,0c-3.1,1.9-6.2,3.9-9.3,5.9c-0.8,0-1.5,0-2.3,0c-3.1-2-6-4-9.1-5.9c-0.5-0.3-1.2-0.3-1.7,0
		c-3.1,1.9-6.2,3.9-9.1,5.9c-0.8,0-1.5,0-2.3,0c-3.1-2-6-3.9-9.1-5.9c-0.8-0.5-1.4-0.3-2,0.2c-2.2,1.4-4.3,2.8-6.3,4.2
		c-1.4,0.9-2.8,1.1-4.3,0.3c-1.4-0.8-1.9-2.2-1.9-3.7c0-6.5,0-13,0-19.5c0-1.9,0.9-3.1,2.5-3.1c1.5,0,2.5,1.1,2.5,2.9
		c0,5.4,0,10.7,0,16.1c0,0.5,0,1.1,0,1.9c2.2-1.4,4.2-2.6,6-3.9c1.9-1.2,3.6-1.2,5.4,0c2.5,1.7,4.9,3.1,7.4,4.8c0.8,0.5,1.2,0.5,2,0
		c2.3-1.5,4.8-2.9,7.3-4.6c2-1.4,3.9-1.4,5.9,0c2.3,1.5,4.8,2.9,7.1,4.6c0.9,0.6,1.4,0.5,2.3,0c2.5-1.7,4.9-3.2,7.4-4.8
		c1.7-1.1,3.2-1.1,4.9,0c2.3,1.5,4.8,2.9,7.1,4.5c1.2,0.8,2,0.9,3.2,0c2.3-1.7,4.6-3.1,7.1-4.6c1.7-1.1,3.2-1.1,4.9,0
		c2.5,1.7,5.1,3.2,7.6,4.9c0.8,0.5,1.4,0.6,2.2,0c2.5-1.7,4.9-3.2,7.4-4.8c1.9-1.2,3.4-1.2,5.2,0s3.9,2.5,6,3.9c0-0.8,0-1.2,0-1.9
		c0-49.1,0-98.3,0-147.4c0-3.6-1.4-5.1-4.9-5.1c-32.3,0-64.5,0-96.8,0c-3.4,0-4.9,1.5-4.9,4.9c0,39.4,0,78.6,0,117.9
		c0,0.6,0,1.2,0,1.9c-0.2,1.4-0.9,2.2-2.3,2.2c-1.2,0-2.3-0.9-2.5-2.3c0-0.5,0-1.1,0-1.5c0-38.9,0-77.7,0-116.6
		c0-5.6,1.7-9.6,7.1-11.3C84.3,18.2,118.3,18.2,152.4,18.2z"/>
	<path class="st1" d="M72.7,61.5c0-21.8,23.5-35.7,42.6-25.2c0.3,0.2,0.6,0.3,0.8,0.5c1.4,0.9,1.7,2,1.1,3.2c-0.6,1.2-2,1.5-3.4,0.9
		c-2.5-1.1-4.9-2.3-7.6-2.8c-13-2.9-25.8,5.9-28.4,19.5c-2.5,12.7,6.8,25.6,19.6,27.6c10,1.5,18.2-1.9,23.8-10.3
		c5.6-8.3,5.6-17.1,0.6-25.9c-0.3-0.6-0.6-1.1-0.8-1.7c-0.2-1.2,0.3-2.2,1.5-2.6c1.4-0.5,2.3,0,3.1,1.1c2.3,3.6,3.9,7.6,4.5,11.9
		c2,15-7.7,29-22.5,32.1C89.6,93.6,72.6,79.9,72.7,61.5z"/>
	<path class="st1" d="M101.5,79.8c-10.2,0-18.1-11.1-13-20.7c2.9-5.4,6.6-10.2,10.8-14.7c1.4-1.4,3.1-1.4,4.5,0
		c4.2,4.5,7.9,9.1,10.8,14.5C119.8,68.8,111.6,79.9,101.5,79.8z M101.5,49.2c-3.6,4-6.8,8-9.1,12.8c-0.9,1.9-1.1,3.7-0.5,5.7
		c1.2,3.9,3.7,6.3,7.7,7.1c3.9,0.8,7.3-0.5,9.7-3.7c2.3-3.1,2.6-6.5,0.8-10C107.8,56.7,104.9,52.9,101.5,49.2z"/>
	<path class="st2" d="M116.3,103.4c-8,0-15.9,0-23.9,0c-0.5,0-1.1,0-1.5,0c-1.2-0.2-2-0.9-2.2-2.2c-0.2-1.4,0.6-2.2,1.9-2.5
		c0.6-0.2,1.2-0.2,1.7-0.2c16.1,0,32.1,0,48.3,0c0.6,0,1.2,0,1.9,0.2c1.2,0.3,1.9,1.2,1.7,2.5c-0.2,1.2-0.8,2-2,2.2
		c-0.5,0-1.1,0-1.5,0C132.5,103.4,124.5,103.4,116.3,103.4z"/>
	<path class="st2" d="M116.3,118c-8,0-16.2,0-24.2,0c-0.6,0-1.4,0.2-1.7-0.2c-0.6-0.6-1.4-1.4-1.7-2.2c-0.3-1.1,0.5-2,1.5-2.3
		c0.6-0.2,1.2-0.2,1.9-0.2c16.2,0,32.4,0,48.6,0c0.2,0,0.5,0,0.6,0c1.7,0.2,2.8,1.1,2.8,2.5s-1.1,2.3-2.9,2.3
		C132.9,118,124.6,118,116.3,118z"/>
	<path class="st0" d="M116.3,132.5c-8,0-16.2,0-24.2,0c-0.6,0-1.4,0.2-1.9-0.2c-0.6-0.5-1.4-1.4-1.4-2c0-0.8,0.8-1.7,1.4-2.3
		c0.3-0.3,1.2-0.3,1.9-0.3c16.4,0,32.6,0,48.9,0c0.2,0,0.5,0,0.6,0c1.5,0.2,2.6,1.1,2.6,2.5c0,1.4-1.1,2.3-2.8,2.3
		c-6.2,0-12.2,0-18.4,0C120.8,132.5,118.6,132.5,116.3,132.5z"/>
	<path class="st0" d="M109,147.1c-5.6,0-11.3,0-16.8,0c-0.5,0-1.1,0-1.5,0c-1.1-0.2-1.9-0.9-2-2c-0.2-1.2,0.3-2.2,1.5-2.5
		c0.6-0.2,1.2-0.2,1.9-0.2c11.4,0,22.7,0,34.1,0c0.3,0,0.5,0,0.8,0c1.5,0.2,2.6,1.1,2.6,2.5c0,1.4-1.1,2.3-2.8,2.3
		C121.1,147.1,115,147.1,109,147.1z"/>
	<path class="st0" d="M70.1,165.9c-2.8,0-5.7,0-8.5,0c-1.9,0-3.1-0.9-3.1-2.3c0-1.5,1.1-2.5,2.9-2.5c5.9,0,11.6,0,17.4,0
		c1.9,0,2.9,0.9,2.9,2.5c0,1.4-1.1,2.3-2.9,2.3C76,165.9,73,165.9,70.1,165.9z"/>
	<path class="st0" d="M132.5,165.9c-2.9,0-5.9,0-8.6,0c-1.9,0-2.8-0.9-2.9-2.3c0-1.5,1.1-2.5,2.9-2.5c5.9,0,11.6,0,17.4,0
		c1.9,0,2.9,0.9,2.9,2.5s-1.1,2.3-3.1,2.3C138.4,165.9,135.4,165.9,132.5,165.9z"/>
	<g>
		<path class="st3" d="M72.4,125.1c0,3.9,0,7.9,0,11.9c2.9-1.1,4.8-3.9,4.5-6.8C76.8,127.6,75.2,125.8,72.4,125.1z"/>
		<path class="st0" d="M72.4,119.7c0-3.9,0-7.6,0-11.6c1.1,0.6,2,1.1,2.9,1.5c1.1,0.8,2.2,0.8,3.2-0.2c1.1-1.1,1.1-2.8-0.3-3.7
			c-1.9-1.1-3.7-2-5.9-2.9c-0.3-3.4-0.9-4.5-2.5-4.3c-3.2,0.3-2.3,2.9-2.6,4.9c-0.5,0.2-0.8,0.3-1.1,0.3c-4.2,1.5-6.3,4.5-6.8,8.8
			c-0.3,3.9,1.4,6.8,4.8,8.6c0.8,0.5,1.7,0.8,2.5,1.4c0.3,0.2,0.8,0.6,0.8,1.1c0,4.6,0,9.1,0,14.2c-1.9-0.8-3.4-1.4-4.8-2.2
			c-1.7-0.9-3.1-0.8-3.9,0.5c-0.8,1.4-0.5,2.8,1.4,3.7c2.3,1.1,4.6,2,7.3,3.1c0,0.6-0.2,1.5,0,2.3c0.2,1.4,1.1,2.2,2.5,2
			c1.4-0.2,2.2-0.9,2.3-2.3c0-0.9,0-1.9,0-2.8c6-2,9.3-5.9,9.4-11.3C82,124.5,78,121.4,72.4,119.7z M67.3,117.4
			c-1.9-0.8-3.1-1.9-2.9-3.7c0-2.2,0.8-3.9,2.9-4.9C67.3,111.7,67.3,114.5,67.3,117.4z M72.4,137c0-4,0-7.9,0-11.9
			c2.8,0.6,4.3,2.5,4.5,5.1C77.1,133.2,75.2,135.9,72.4,137z"/>
	</g>
</g>
</svg>
