<?xml version="1.0" encoding="utf-8"?>
<!-- Generator: Adobe Illustrator 24.0.0, SVG Export Plug-In . SVG Version: 6.00 Build 0)  -->
<svg version="1.1" id="Capa_1" xmlns="http://www.w3.org/2000/svg" xmlns:xlink="http://www.w3.org/1999/xlink" x="0px" y="0px"
	 viewBox="0 0 200 200" style="enable-background:new 0 0 200 200;" xml:space="preserve">
<style type="text/css">
	.st0{fill:#1C3247;}
	.st1{fill:#ACAEAF;}
	.st2{fill:#FE9900;}
</style>
<g>
	<path class="st0" d="M186.9,47.7c-1.9,0-3.7,0-5.7,0c0-3.8,0-7.5,0-11.5c-4,0-7.7,0-11.5,0c0-1.9,0-3.8,0-5.7c1.2,0,2.4,0,3.5,0
		c3.4,0,6.6,0,10,0c1.6,0,2.9,0.4,3.8,2.1C186.9,37.6,186.9,42.7,186.9,47.7z"/>
	<path class="st0" d="M186.9,167.6c-0.7,1.5-1.9,2.1-3.5,2.1c-4.6,0-9,0-13.7,0c0-1.9,0-3.8,0-5.7c3.8,0,7.5,0,11.3,0
		c0-3.8,0-7.7,0-11.5c2.1,0,4,0,5.9,0C186.9,157.4,186.9,162.4,186.9,167.6z"/>
	<path class="st1" d="M42.1,47.9c2.9,0,5.6,0,8.5,0c0,26.9,0,53.9,0,80.8c-2.8,0-5.6,0-8.5,0C42.1,101.9,42.1,74.9,42.1,47.9z"/>
	<path class="st1" d="M123.2,47.9c2.9,0,5.6,0,8.5,0c0,26.9,0,53.9,0,80.8c-2.8,0-5.6,0-8.5,0C123.2,101.9,123.2,74.9,123.2,47.9z"
		/>
	<path class="st1" d="M79.7,48c0,26.9,0,53.9,0,80.8c-2.8,0-5.6,0-8.4,0c0-26.9,0-53.7,0-80.8C73.9,48,76.7,48,79.7,48z"/>
	<path class="st1" d="M152.3,47.9c2.8,0,5.6,0,8.4,0c0,26.9,0,53.9,0,80.8c-2.8,0-5.4,0-8.4,0C152.3,101.9,152.3,74.9,152.3,47.9z"
		/>
	<path class="st1" d="M97.2,48c1.9,0,3.7,0,5.6,0c0,31.8,0,63.6,0,95.4c-1.9,0-3.7,0-5.6,0C97.2,111.6,97.2,79.8,97.2,48z"/>
	<path class="st1" d="M33.3,143.3c-1.9,0-3.7,0-5.6,0c0-31.8,0-63.6,0-95.4c1.9,0,3.7,0,5.6,0C33.3,79.7,33.3,111.5,33.3,143.3z"/>
	<path class="st1" d="M172.3,143.3c-1.9,0-3.7,0-5.6,0c0-31.8,0-63.5,0-95.3c1.8,0,3.7,0,5.6,0C172.3,79.7,172.3,111.5,172.3,143.3z
		"/>
	<path class="st1" d="M140.6,47.9c1.9,0,3.7,0,5.6,0c0,26.9,0,53.9,0,81c-1.8,0-3.7,0-5.6,0C140.6,101.9,140.6,74.9,140.6,47.9z"/>
	<path class="st1" d="M111.6,47.9c1.9,0,3.7,0,5.6,0c0,26.9,0,53.9,0,80.8c-1.8,0-3.7,0-5.6,0C111.6,101.9,111.6,74.9,111.6,47.9z"
		/>
	<path class="st1" d="M65.2,128.8c-2.1,0-3.8,0-5.7,0c0-26.9,0-53.9,0-81c1.6,0,3.2,0,4.7,0c0.3,0,0.7,0.6,0.9,0.9
		c0.1,0.3,0,0.7,0,1.2c0,25.6,0,51.2,0,76.9C65.2,127.4,65.2,128,65.2,128.8z"/>
	<path class="st1" d="M85.6,48c1.9,0,3.7,0,5.6,0c0,26.9,0,53.7,0,80.8c-1.8,0-3.7,0-5.6,0C85.6,101.9,85.6,74.9,85.6,48z"/>
	<path class="st0" d="M30.5,30.5c0,2.1,0,3.8,0,5.7c-3.8,0-7.5,0-11.5,0c0,4,0,7.7,0,11.5c-2.1,0-3.8,0-5.9,0c0-3.1,0-6.2,0-9.1
		c0-8.5-0.6-8.1,8.2-8.1C24.3,30.5,27.3,30.5,30.5,30.5z"/>
	<path class="st0" d="M18.9,163.7c4,0,7.7,0,11.5,0c0,1.9,0,3.8,0,5.9c-2.7,0-5.3,0-8,0c-2.1,0-4.1,0-6.3,0c-1.8,0-2.9-1-2.9-2.7
		c-0.1-4.9,0-9.7,0-14.7c1.9,0,3.7,0,5.7,0C18.9,156.1,18.9,159.8,18.9,163.7z"/>
	<path class="st2" d="M39.3,143.3c0-2.8,0-5.6,0-8.5c1.9,0,3.7,0,5.6,0c0,2.8,0,5.6,0,8.5C43,143.3,41.2,143.3,39.3,143.3z"/>
	<path class="st2" d="M50.8,143.3c0-2.8,0-5.6,0-8.4c1.8,0,3.7,0,5.6,0c0,2.8,0,5.6,0,8.4C54.6,143.3,52.7,143.3,50.8,143.3z"/>
	<path class="st2" d="M62.4,134.7c1.9,0,3.7,0,5.6,0c0,2.9,0,5.6,0,8.5c-1.9,0-3.7,0-5.6,0C62.4,140.6,62.4,137.8,62.4,134.7z"/>
	<path class="st2" d="M131.9,143.3c0-2.8,0-5.6,0-8.4c1.9,0,3.7,0,5.6,0c0,2.8,0,5.6,0,8.4C135.8,143.3,134,143.3,131.9,143.3z"/>
	<path class="st2" d="M149.2,134.9c0,2.9,0,5.6,0,8.5c-1.9,0-3.7,0-5.6,0c0-2.8,0-5.6,0-8.5C145.3,134.9,147.1,134.9,149.2,134.9z"
		/>
	<path class="st2" d="M160.6,143.3c-1.9,0-3.7,0-5.6,0c0-2.8,0-5.6,0-8.5c1.8,0,3.7,0,5.6,0C160.6,137.7,160.6,140.5,160.6,143.3z"
		/>
	<path class="st2" d="M74.1,134.9c1.9,0,3.7,0,5.6,0c0,2.9,0,5.6,0,8.5c-1.9,0-3.7,0-5.6,0C74.1,140.6,74.1,137.8,74.1,134.9z"/>
	<path class="st2" d="M91.2,143.3c-1.9,0-3.7,0-5.6,0c0-2.8,0-5.6,0-8.5c1.8,0,3.7,0,5.6,0C91.2,137.7,91.2,140.5,91.2,143.3z"/>
	<path class="st2" d="M114.4,143.4c-1.9,0-3.7,0-5.6,0c0-2.8,0-5.6,0-8.5c1.8,0,3.7,0,5.6,0C114.4,137.7,114.4,140.3,114.4,143.4z"
		/>
	<path class="st2" d="M126,143.4c-1.9,0-3.7,0-5.6,0c0-2.8,0-5.6,0-8.5c1.9,0,3.7,0,5.6,0C126,137.7,126,140.5,126,143.4z"/>
</g>
</svg>
