<?xml version="1.0" encoding="utf-8"?>
<!-- Generator: Adobe Illustrator 24.0.0, SVG Export Plug-In . SVG Version: 6.00 Build 0)  -->
<svg version="1.1" id="Capa_1" xmlns="http://www.w3.org/2000/svg" xmlns:xlink="http://www.w3.org/1999/xlink" x="0px" y="0px"
	 viewBox="0 0 200 200" style="enable-background:new 0 0 200 200;" xml:space="preserve">
<style type="text/css">
	.st0{fill:#ACAEAF;}
	.st1{fill:#FE9900;}
	.st2{fill:#1C3247;}
</style>
<g>
	<path class="st0" d="M136.7,182.2c-0.6-2.6-1.3-5.2-2-8c-2.5,1.5-4.8,2.8-7.2,4.2c-4.6-4.6-9.1-9.1-13.6-13.7
		c-0.3-0.3-0.3-1.1-0.1-1.5c1.1-2,2.3-4,3.6-6.2c-2.7-0.7-5.3-1.4-7.9-2.1c0-6.7,0-13.4,0-20.1c2.6-0.7,5.1-1.4,7.9-2.1
		c-1.4-2.5-2.8-4.7-4.3-7.3c0.7-0.6,1.4-1.2,2.1-1.9c3.8-3.8,7.6-7.5,11.3-11.3c0.7-0.7,1.2-0.8,2-0.3c1.9,1.2,3.9,2.3,6,3.6
		c0.7-2.8,1.4-5.3,2.1-7.9c6.8,0,13.4,0,20.2,0c0.7,2.6,1.3,5.1,2.1,7.9c2.1-1.2,4-2.3,5.8-3.4c1-0.6,1.6-0.6,2.4,0.3
		c4.3,4.4,8.7,8.8,13.2,13.2c-1.4,2.4-2.7,4.7-4.2,7.1c2.8,0.7,5.3,1.4,7.9,2.1c0,6.7,0,13.3,0,20.2c-2.5,0.7-5.1,1.3-7.9,2.1
		c1.4,2.5,2.8,4.8,4,6.9c-4.8,4.8-9.5,9.5-14.3,14.3c-2.1-1.3-4.4-2.6-7-4.1c-0.7,2.9-1.3,5.5-1.9,8.1
		C150.2,182.2,143.4,182.2,136.7,182.2z M173.6,163.3c-1-1.7-1.9-3.2-2.8-4.8c-0.2-0.4-0.4-1.1-0.2-1.6c1.7-4.5,1.7-4.5,6.4-5.7
		c0.2-0.1,0.4-0.1,0.6-0.1c0.9-0.1,1.2-0.6,1.2-1.5c-0.1-3.2-0.1-6.4,0-9.5c0-1-0.4-1.3-1.3-1.5c-1.4-0.3-2.7-0.6-4.1-1
		c-0.5-0.2-1.1-0.5-1.3-0.9c-2.1-4.3-2.1-4.3,0.3-8.4c0.1-0.2,0.2-0.5,0.4-0.7c0.7-0.8,0.4-1.4-0.3-2.1c-2.1-2-4.1-4-6-6.1
		c-1-1.1-1.8-1.4-2.9-0.4c-2.6,2.3-5.3,2.7-8.2,0.7c-0.5-0.4-1.1-0.9-1.4-1.5c-0.5-1.4-0.7-2.9-1.2-4.3c-0.1-0.4-0.6-0.9-1-0.9
		c-3.7-0.1-7.3,0-11,0c-0.2,0.7-0.5,1.3-0.5,2c-0.3,3.2-1.7,5.4-5,6c-0.1,0-0.2,0.1-0.3,0.1c-0.7,0-1.5,0.1-2-0.1
		c-1.6-0.8-3.1-1.8-4.5-2.6c-2.9,2.8-5.6,5.6-8.5,8.4c0.2,0.4,0.4,0.9,0.7,1.3c2.2,2.6,2.7,5.4,0.7,8.4c-0.4,0.5-0.9,1.1-1.4,1.3
		c-1.7,0.6-3.5,0.9-5.3,1.4c0,4,0,7.9,0,11.9c1.9,0.5,3.6,0.9,5.4,1.4c0.5,0.1,1,0.5,1.2,0.9c2.1,4.2,2.1,4.2-0.4,8.4
		c-0.2,0.3-0.3,0.6-0.5,0.8c-0.5,0.7-0.4,1.2,0.2,1.8c2.3,2.2,4.5,4.5,6.7,6.7c0.6,0.7,1.1,0.8,1.9,0.3c1.2-0.8,2.6-1.6,3.9-2.3
		c0.4-0.2,1-0.3,1.4-0.2c4.4,1.6,4.4,1.7,5.6,6.2c0.1,0.3,0.2,0.5,0.2,0.8c0.1,0.9,0.6,1.2,1.5,1.2c3-0.1,5.9-0.1,8.9,0
		c1.4,0.1,2.1-0.4,2.2-1.8c0.3-3.2,1.6-5.7,5.2-6.3c0.1,0,0.2-0.1,0.3-0.1c0.6,0,1.3-0.1,1.7,0.1c1.4,0.7,2.7,1.6,4.1,2.3
		c0.4,0.2,1.1,0.2,1.3-0.1C168.4,168.6,171,166,173.6,163.3z"/>
	<path class="st0" d="M18.7,112.7c1.9,0,3.9,0.1,5.8,0.1c15.1,0,30.2,0,45.4,0c0.6,0,1.3,0,2,0c0.1,0.4,0.2,0.7,0.2,1
		c0,22.8,0,45.6,0,68.4c-17.8,0-35.5,0-53.3,0C18.7,159.1,18.7,135.9,18.7,112.7z M66.7,118.3c-14.2,0-28.3,0-42.5,0
		c0,19.5,0,39,0,58.5c14.2,0,28.3,0,42.5,0C66.7,157.3,66.7,137.8,66.7,118.3z"/>
	<path class="st1" d="M133.4,102.1c-21.3,0-42.5,0-63.8,0c0-0.5-0.1-0.9-0.1-1.4c0-4.1,0-8.2,0-12.3c0-5.9,3.4-10.7,8.9-12.8
		c3.7-1.4,7.4-2.8,11.2-4.2c1.4-0.5,1.7-2,0.9-3.1c-1.3-1.9-2.5-3.8-3.9-5.7c-0.3-0.4-0.8-0.7-1.2-0.9c-4.9-1.6-7.8-5.3-7.8-10.4
		c0-4.9-0.2-10,0.4-14.8c1.6-11.3,12-19.7,23.5-19.7c11.6,0,22,8.5,23.5,19.8c0.7,5.4,0.6,11.1,0.3,16.6c-0.3,4.3-3.2,7.1-7.4,8.6
		c-0.7,0.2-1.3,0.9-1.8,1.5c-1.1,1.5-2,3.2-3.2,4.6c-1.4,1.7-1.2,2.9,0.8,3.7c3.6,1.3,7.2,2.6,10.7,4c5.8,2.2,9,6.9,9,13
		c0,4,0,8,0,12C133.4,101,133.4,101.5,133.4,102.1z M120.2,41.7c0-7.5-3-13.6-9.9-17.3c-6.9-3.7-13.8-3-20.2,1.7
		c-5.1,3.7-8.3,11.1-7.1,15.7c2-0.3,3.9-0.9,5.8-1c4.4-0.2,8-1.8,11.1-4.9c0.5-0.5,0.8-1.3,1.2-1.9c1.3,0.9,1.7,1.6,2.3,2.2
		c2.6,2.5,5.7,4,9.2,4.5C115,41,117.5,41.3,120.2,41.7z M89.2,95.2c-1.8-5.4-3.6-10.6-5.4-16c-1.8,0.7-3.5,1.3-5,2.1
		c-1.9,1-3.4,2.6-3.7,4.7c-0.4,3.5-0.4,7.1-0.6,10.8c18.1,0,35.7,0,53.4,0c0-3.3,0.2-6.6-0.1-9.8c-0.2-2.4-1.6-4.4-3.7-5.5
		c-1.6-0.9-3.3-1.4-5.2-2.2c-1.8,5.4-3.6,10.7-5.4,16c-3.8-1.9-7.3-3.6-10.9-5.5c-1-0.5-1.7-0.5-2.7,0
		C96.5,91.6,92.9,93.4,89.2,95.2z M112,46c-3.7-0.5-6.9-1.7-9.8-3.7c-0.3-0.2-1.1-0.3-1.4-0.1c-3,2.1-6.4,3.3-10.1,3.8
		c0,3.7,0,7.4,0,11c0.1,5.7,4.6,10.2,10.2,10.5c5.5,0.2,10.5-3.9,11-9.5C112.3,54.1,112,50.1,112,46z M88.9,77.4
		c1.2,3.5,2.3,6.8,3.5,10.3c1.9-0.9,3.6-1.8,5.3-2.7c-1.8-3.1-3.6-6-5.4-8.9C91.1,76.5,90.1,76.9,88.9,77.4z M110.6,87.7
		c1.2-3.6,2.3-6.9,3.4-10.3c-1.2-0.5-2.3-0.9-3.4-1.3c-1.8,3-3.6,6-5.4,9C107,86,108.7,86.8,110.6,87.7z M101.4,80.9
		c1.8-3.1,3.5-5.9,5.5-9.1c-3.8,1.3-7.2,1.1-10.9,0.1C97.9,75.1,99.6,77.9,101.4,80.9z M85.3,47.1c-3.4,2.3-3.3,6.7,0,8.7
		C85.3,52.9,85.3,50.1,85.3,47.1z M117.5,55.9c1.8-1.1,2.5-2.6,2.6-4.4c0.1-1.9-1-3.6-2.6-4.2C117.5,50.1,117.5,52.9,117.5,55.9z"/>
	<path class="st2" d="M42.7,107.4c0-0.7,0-1.3,0-1.8c0-15,0-30,0-45c0-5.9,3.2-9.1,9.1-9.1c3.5,0,7.1,0,10.6,0
		c-1.9-1.9-3.9-3.8-5.8-5.7c1.6-1.6,2.8-2.8,4-3.9c4.1,4,8.2,8.2,12.3,12.2c-4.1,4-8.2,8.1-12.3,12.2c-1-1.1-2.2-2.3-3.6-3.7
		c1.7-1.7,3.7-3.5,5.7-5.4c-0.1-0.1-0.1-0.2-0.2-0.4c-4.1,0-8.1-0.1-12.2,0c-1.2,0-2,1-2.2,2.2c-0.1,0.6,0,1.2,0,1.8
		c0,14.9,0,29.7,0,44.6c0,0.6,0,1.3,0,2C46.3,107.4,44.6,107.4,42.7,107.4z"/>
	<path class="st2" d="M146.7,92.5c0-0.5,0.1-1,0.1-1.5c0-10.1,0-20.2,0-30.3c0-3.2-0.7-3.8-3.9-3.8c-3.9,0-7.8,0-11.9,0
		c0-1.8,0-3.4,0-5.3c0.4,0,0.8-0.1,1.2-0.1c3.8,0,7.6,0,11.5,0c5.2,0.1,8.5,3.4,8.6,8.6c0,10.2,0,20.4,0,30.7c0,0.6,0,1.2,0,1.7
		c1.9-1.9,3.7-3.8,5.6-5.7c1.6,1.6,2.8,2.8,3.9,3.9c-4.1,4-8.2,8.2-12.3,12.3c-4-4-8.1-8.1-12.1-12.1c1.1-1.1,2.3-2.3,3.6-3.5
		c1.6,1.7,3.4,3.7,5.2,5.6C146.3,92.8,146.5,92.7,146.7,92.5z"/>
	<path class="st2" d="M74,144.8c4-4,8.1-8.1,12.2-12.2c1.1,1.1,2.3,2.3,3.7,3.6c-2,1.9-3.9,3.7-6.2,5.9c7,0,13.5,0,20.1,0
		c0,1.9,0,3.6,0,5.4c-6.5,0-13.1,0-20,0c2.3,2.1,4.2,3.9,6.3,5.8c-1.6,1.4-2.9,2.5-4.1,3.6C82.2,153,78.1,148.8,74,144.8z"/>
	<path class="st0" d="M168.1,144.9c0,11.8-9.6,21.3-21.4,21.3c-11.8-0.1-21.4-9.7-21.3-21.4c0.1-11.7,9.7-21.2,21.4-21.3
		C158.6,123.5,168.1,133.1,168.1,144.9z M146.8,128.9c-8.9,0-16,7.1-16,16c0,8.8,7.2,15.9,15.9,16c8.8,0,16.1-7.2,16.1-16
		C162.8,136.1,155.6,128.9,146.8,128.9z"/>
	<path class="st0" d="M29.5,128.7c0-1.8,0-3.4,0-5.2c10.6,0,21.1,0,31.8,0c0,1.7,0,3.4,0,5.2C50.7,128.7,40.2,128.7,29.5,128.7z"/>
	<path class="st0" d="M29.5,144.9c10.6,0,21.2,0,31.8,0c0,1.7,0,3.4,0,5.2c-10.6,0-21.1,0-31.8,0C29.5,148.4,29.5,146.8,29.5,144.9z
		"/>
	<path class="st0" d="M61.3,155.6c0,1.8,0,3.4,0,5.1c-10.6,0-21.2,0-31.9,0c0-1.7,0-3.4,0-5.1C40,155.6,50.6,155.6,61.3,155.6z"/>
	<path class="st0" d="M40.1,139.4c0-1.8,0-3.4,0-5.2c7.1,0,14.1,0,21.2,0c0,1.7,0,3.4,0,5.2C54.3,139.4,47.3,139.4,40.1,139.4z"/>
	<path class="st0" d="M29.4,171.4c0-1.7,0-3.4,0-5.1c7.1,0,14.1,0,21.2,0c0,1.7,0,3.4,0,5.1C43.5,171.4,36.5,171.4,29.4,171.4z"/>
	<path class="st0" d="M29.5,134.2c1.7,0,3.4,0,5.1,0c0,1.7,0,3.4,0,5.2c-1.7,0-3.4,0-5.1,0C29.5,137.7,29.5,136,29.5,134.2z"/>
	<path class="st0" d="M56.2,166.3c1.8,0,3.4,0,5.1,0c0,1.7,0,3.4,0,5.1c-1.7,0-3.4,0-5.1,0C56.2,169.7,56.2,168.1,56.2,166.3z"/>
	<path class="st0" d="M146.7,155.5c-5.9,0-10.7-4.9-10.6-10.7c0.1-5.8,4.9-10.6,10.7-10.6c5.9,0,10.7,4.8,10.7,10.7
		C157.4,150.8,152.7,155.5,146.7,155.5z M141.5,144.9c0,2.9,2.5,5.3,5.4,5.3c2.9,0,5.3-2.5,5.3-5.4c0-2.9-2.5-5.3-5.4-5.2
		C143.8,139.6,141.5,142,141.5,144.9z"/>
</g>
</svg>
