<?xml version="1.0" encoding="utf-8"?>
<!-- Generator: Adobe Illustrator 24.0.0, SVG Export Plug-In . SVG Version: 6.00 Build 0)  -->
<svg version="1.1" id="Capa_1" xmlns="http://www.w3.org/2000/svg" xmlns:xlink="http://www.w3.org/1999/xlink" x="0px" y="0px"
	 viewBox="0 0 80 80" style="enable-background:new 0 0 80 80;" xml:space="preserve">
<style type="text/css">
	.st0{fill:#ACAEAF;}
	.st1{fill:#FE9900;}
	.st2{fill:#1C3247;}
</style>
<g>
	<path class="st0" d="M41.1,5.6c0.4,0.3,0.8,0.6,1.2,0.9c4.7,5,9.5,9.9,14.2,14.9c0.5,0.5,0.7,1.1,0.7,1.8c0,4,0,8,0,12
		c0,0.2,0,0.5,0,0.7c1.4,0.5,2.8,0.9,4.1,1.5c6.4,3,10.3,8,11.6,14.9c1.6,8.7-3,17.7-11,21.6c-9.3,4.5-20.2,1.5-25.8-7.2
		c-0.3-0.4-0.5-0.5-1-0.5c-5.9,0-11.8,0-17.7,0c-3.7,0-6.7-2-7.8-5.3c-0.3-0.9-0.4-1.8-0.4-2.7c0-14.9,0-29.7,0-44.6
		c0-4.1,2.7-7.2,6.6-7.9c0.1,0,0.2-0.1,0.2-0.1C24.4,5.6,32.7,5.6,41.1,5.6z M36.9,43.6c-0.4,0-0.7,0-0.9,0c-4.7,0-9.5,0-14.2,0
		c-0.3,0-0.5,0-0.8,0c-0.9-0.1-1.4-0.6-1.4-1.4c0-0.8,0.5-1.4,1.3-1.5c0.2,0,0.5,0,0.8,0c5.7,0,11.4,0,17.1,0c0.7,0,1.2-0.2,1.7-0.6
		c3.5-2.7,7.4-4.3,11.8-4.4c0.7,0,1.3,0,1.9,0c0-3.9,0-7.6,0-11.4c-0.3,0-0.6,0-0.8,0c-2.4,0-4.7,0-7.1,0c-0.7,0-1.4,0-2.1-0.2
		c-3.1-0.8-4.9-3.2-4.9-6.5c0-2.7,0-5.5,0-8.3c0-0.2,0-0.5,0-0.7c-0.2,0-0.4,0-0.6,0c-7.1,0-14.2,0-21.3,0c-0.5,0-1.1,0.1-1.6,0.2
		c-2.4,0.7-3.7,2.5-3.7,5.2c0,14.6,0,29.3,0,43.9c0,0.6,0.1,1.2,0.2,1.7c0.6,2.4,2.5,3.7,5.2,3.7c5.3,0,10.7,0,16,0
		c0.2,0,0.4,0,0.7,0c-1.5-4-1.8-8-0.9-12.1c-0.3,0-0.6,0-0.8,0c-3.6,0-7.3,0-10.9,0c-1.4,0-2-0.5-2-1.5c0-1,0.7-1.4,2-1.4
		c4,0,8,0,12,0c0.5,0,0.8-0.1,1-0.6c0.4-0.9,0.9-1.7,1.3-2.5C36.3,44.7,36.6,44.2,36.9,43.6z M53.1,73.1c9.5,0,17.2-7.8,17.2-17.2
		c0-9.5-7.8-17.3-17.3-17.2c-9.5,0-17.2,7.8-17.2,17.3C35.9,65.4,43.6,73.1,53.1,73.1z M42.2,10.8c0,0.3,0,0.4,0,0.5
		c0,2.1,0,4.2,0,6.2c0,2.2,1.5,3.7,3.8,3.7c1.9,0,3.7,0,5.6,0c0.2,0,0.3,0,0.6,0C48.8,17.8,45.6,14.3,42.2,10.8z"/>
	<path class="st1" d="M28.5,33.4c2.4,0,4.9,0,7.3,0c1,0,1.6,0.6,1.6,1.4c0,0.8-0.6,1.5-1.6,1.5c-0.2,0-0.3,0-0.5,0
		c-3.1,0-6.2,0-9.3,0c-1.6,0-3.2,0-4.8,0c-0.6,0-1.2-0.3-1.4-0.9c-0.2-0.5-0.2-1.2,0.2-1.5c0.4-0.3,0.9-0.5,1.4-0.5
		C23.7,33.3,26.1,33.4,28.5,33.4z"/>
	<path class="st2" d="M54.5,54.5c1.4,0,2.6,0,3.9,0c0.3,0,0.6,0,0.9,0.1c0.7,0.1,1.2,0.7,1.2,1.4c0,0.7-0.5,1.3-1.1,1.4
		c-0.7,0.1-1.5,0.1-2.2,0.1c-0.8,0-1.7,0-2.6,0c0,1.3,0,2.5,0,3.7c0,0.3,0,0.6-0.1,1c-0.1,0.7-0.7,1.2-1.4,1.2
		c-0.7,0-1.3-0.5-1.4-1.3c-0.1-1.1-0.1-2.2-0.1-3.3c0-0.4,0-0.9,0-1.4c-1.3,0-2.6,0-3.9,0c-0.3,0-0.7,0-1-0.1
		c-0.7-0.2-1.1-0.7-1.1-1.4c0-0.7,0.4-1.3,1.1-1.4c0.7-0.1,1.5-0.1,2.2-0.1c0.9,0,1.7,0,2.7,0c0-1.2,0-2.4,0-3.6
		c0-0.4,0-0.8,0.1-1.2c0.1-0.7,0.7-1.1,1.3-1.1c0.7,0,1.3,0.4,1.4,1.1c0.1,0.6,0.1,1.3,0.1,1.9C54.5,52.5,54.5,53.4,54.5,54.5z"/>
</g>
</svg>
