<?xml version="1.0" encoding="utf-8"?>
<!-- Generator: Adobe Illustrator 24.0.0, SVG Export Plug-In . SVG Version: 6.00 Build 0)  -->
<svg version="1.1" id="Capa_1" xmlns="http://www.w3.org/2000/svg" xmlns:xlink="http://www.w3.org/1999/xlink" x="0px" y="0px"
	 viewBox="0 0 300 300" style="enable-background:new 0 0 300 300;" xml:space="preserve">
<style type="text/css">
	.st0{fill:#ACAEAF;}
	.st1{fill:#FE9900;}
</style>
<g>
	<path class="st0" d="M45.8,266.5c-2.9-1.5-4-3.2-3.5-5.4c0.6-2.5,2.4-3.7,5.8-3.7c8.6,0,17.2,0,26.1,0c0-6.7,0-13.3,0-20.2
		c-0.6,0-1.5,0-2.3,0c-10.9,0-21.8,0-32.7,0c-4.7,0-6.2-1.5-6.2-6.2c0.1-5.4-0.3-10.9,0.4-16.2c1.7-13.6,11.1-23.8,24.4-27.1
		c4.4-1.1,8.7-2.2,13.1-3.1c1.6-0.3,1.8-1.1,1.9-2.5c0.2-2.4-0.6-3.8-2.6-5.2c-6.6-4.8-10.8-11.4-11.2-19.6
		c-0.5-9.3-0.6-18.8,0.2-28.1c1.2-13,13.5-23.5,26.6-24c8.5-0.4,16.4,1.1,23.1,6.8c0.9,0.7,1.7,1.5,2.7,2.4c7-17.6,19.5-28,38.6-28
		c19.1,0,31.7,10.4,38.7,28c4.1-4.2,8.8-7.2,14.4-8.4c19.3-4.1,33.9,5.7,37.7,21.5c0.2,0.9,0.5,1.8,0.5,2.7c0,9.6,0.5,19.2-0.3,28.8
		c-0.7,7.9-5.3,14.1-11.9,18.7c-1.3,0.9-2.3,4.8-1.5,6.1c0.3,0.4,1,0.6,1.6,0.7c3.8,0.9,7.7,1.9,11.6,2.8
		c14.6,3.5,23.6,12.4,26.2,27.3c0,0.2,0.2,0.4,0.3,0.6c0,6.1,0,12.2,0,18.3c-1.1,2.8-3.2,3.7-6.1,3.7c-11-0.1-21.9,0-32.9,0
		c-0.8,0-1.6,0-2.2,0c0,6.9,0,13.5,0,20.2c8.9,0,17.5,0,26.2,0c3.4,0,5.2,1.2,5.7,3.7c0.5,2.2-0.6,4-3.5,5.4
		C185,266.5,115.4,266.5,45.8,266.5z M119.4,137c0,6.1-0.5,12.1,0.1,17.9c1.4,12.8,11.5,23.3,24.1,25.9c12.7,2.7,25.7-2.9,32.8-13.6
		c6.2-9.4,4.8-19.8,4.9-30.3c-9.7,0.4-17-3.5-22-11.4C144.2,134.7,141.5,135.5,119.4,137z M83.3,257.2c18.6,0,37,0,55.1,0
		c-13.7-13.7-27.5-27.5-41.4-41.4c-5.5,3.9-9.4,9.4-11.8,16C82.3,240,83.7,248.5,83.3,257.2z M203.8,216c-14,14-27.8,27.7-41.2,41.2
		c17.7,0,36,0,54.8,0c-0.3-7-0.1-14-1.1-20.8C215.1,227.7,210.3,220.9,203.8,216z M181.4,127.5c-0.3-12.4-5.3-22.1-16-28.1
		c-10.9-6.1-22-5.6-32.5,1.3c-9.4,6.3-13.8,15.4-13.9,26.9c9.8,0.6,19-0.9,27.7-5.3c6.3-3.2,11.5-7.6,16.2-12.9
		c2.1-2.4,4.9-2.5,6.9-0.7c1.9,1.9,1.9,4.3-0.1,6.7c-1.1,1.3-2.2,2.5-3.3,3.7C169.7,125.5,174.6,128.3,181.4,127.5z M67.9,144.1
		c0,3.9-0.1,7.6,0,11.2c0.2,3.8,1.5,7.3,3.8,10.3c5.6,7.4,14.6,9.2,23.8,7c5.6-1.3,9.6-4.8,12.2-9.9c3.1-5.9,2-12.3,2.2-18.7
		c-7.3-0.3-13.9-1.9-20.2-5.2c-0.5-0.3-1.4-0.2-1.9,0.1C81.6,142.3,75,143.9,67.9,144.1z M233,144.8c-5.4-1.2-10.5-1.7-14.8-3.6
		c-4.7-2-8.5-2.1-13.2,0c-4.4,2-9.5,2.4-14.2,3.4c0,3.9-0.3,8.1,0.1,12.3c0.4,4.7,2.8,8.6,6.4,11.8c5.4,4.8,11.8,5.5,18.5,4.5
		c8-1.2,13.8-5.7,15.8-13.6C232.8,154.8,232.6,149.6,233,144.8z M258.2,228c0-3.6,0.2-6.9,0-10.2c-0.6-9.2-5.1-16.2-13.6-19.7
		c-5.7-2.3-11.9-3.4-18.1-5c-1.9,7.3-3.5,14.2-5.5,21.1c-1,3.5-1.7,6.7,0.9,9.8c0.4,0.5,0.6,1.2,0.8,1.9c0.4,1.6,1.4,2.2,3.1,2.1
		c6.9-0.1,13.9-0.1,20.8-0.1C250.4,228,254.2,228,258.2,228z M41.7,228c11.8,0,22.9,0,34.1,0c0.4,0,1.1-0.2,1.1-0.5
		c1.2-3.9,4.7-7,3-12.1c-2.5-7.2-3.9-14.7-5.9-22.3c-5.8,1.5-11.4,2.6-16.9,4.4c-7.3,2.5-12.2,7.6-13.9,15.1
		C42,217.5,42.1,222.6,41.7,228z M138.5,188.9c0.2,4.2-0.1,8.1,0.8,11.7c3.2,13.3,6.7,26.6,10.1,39.9c0.2,0.7,0.4,1.3,0.8,2.4
		c0.4-1.2,0.6-1.8,0.7-2.5c3.2-12.7,6.7-25.3,9.6-38.1c1-4.2,0.9-8.7,1.4-13.5C154,191,146.6,191.1,138.5,188.9z M109.6,134.9
		c0.9-6.2-2.8-14-8.7-17.3c-8.1-4.7-16.6-4.8-24.5,0.2c-6.1,3.8-8.8,9.8-8.6,17.2c5.8-0.2,11.2-1.2,15.9-4.2c3.6-2.3,6.7-2.3,10.3,0
		C98.7,133.7,104.1,134.8,109.6,134.9z M232.6,134.9c0-7.6-2.7-13.7-9.1-17.5c-8.1-4.7-16.6-4.6-24.5,0.4c-6,3.8-8.5,9.8-8.4,17
		c6-0.2,11.5-1.4,16.3-4.5c3.2-2,6-2.1,9.3,0C221,133.5,226.5,134.7,232.6,134.9z M141.4,246c-3.5-13.6-7-27.2-10.6-41.1
		c-8.4,2-16.5,4-24.6,5.9C118.2,222.7,129.8,234.3,141.4,246z M193.9,210.8c-7.9-1.9-16-3.9-24.4-5.9c-3.5,13.7-7,27.3-10.4,40.6
		C170.7,234,182.2,222.4,193.9,210.8z M115,169.9c-3.2,2.9-6.3,5.6-9.4,8.4c-0.3,0.3-0.7,0.8-0.7,1.3c-0.1,1.4,0,2.9,0,4.3
		c8.3,2.5,16.9,3.2,24.7,7.7c0-2.2,0.1-3.9,0-5.6c0-0.6-0.4-1.3-0.9-1.6C122.8,180.6,118.2,175.6,115,169.9z M170.8,190.7
		c8.3-2.3,16.4-4.6,24.5-6.9c0.5-2.8,0.7-5.6-2.8-7.1c-0.4-0.2-0.7-0.5-1.1-0.9c-2-2.1-3.9-4.1-6-6.3c-3.4,6-8,11-13.8,14.7
		c-0.5,0.3-0.9,1.1-0.9,1.6C170.7,187.7,170.8,189.4,170.8,190.7z M204.6,182.5c0.1,1.8-0.1,3.9,0.4,5.7c1.6,6.6,3.3,13.2,5,19.7
		c0.3,1.1,1.2,2.1,1.8,3.1c2.6-8,4.6-15.8,6.5-23.6c0.4-1.6,0.1-3.4,0.1-4.9C213.7,182.5,209.3,182.5,204.6,182.5z M81.7,182.5
		c0.4,9.9,4.3,18.9,6.2,28.5c2.9-2,8.5-24,7.6-28.5C91,182.5,86.6,182.5,81.7,182.5z M199.2,202.8c-0.9-3.4-1.7-6.4-2.5-9.6
		c-5.8,1.4-11.3,2.8-16.9,4.1c0,0.2,0,0.4,0,0.6C186.2,199.5,192.6,201.1,199.2,202.8z M120.5,197.8c0-0.2,0-0.4,0-0.5
		c-5.6-1.4-11.2-2.7-16.9-4.1c-0.8,3.3-1.6,6.4-2.4,9.6C107.8,201.1,114.2,199.5,120.5,197.8z"/>
	<path class="st1" d="M200.7,50.9c4.1-0.1,6.4,3.5,4.9,6.4c-0.4,0.7-0.9,1.4-1.5,2c-5.5,5.6-11.1,11.1-16.7,16.6
		c-0.9,0.9-2.2,1.6-3.5,1.9c-1.8,0.4-3.5-0.4-4.1-2.1c-0.5-1.4-0.3-3-0.1-4.5c0.1-0.6,0.8-1.2,1.4-1.8c5.5-5.5,11-11,16.5-16.5
		C198.6,52,200,51.4,200.7,50.9z"/>
	<path class="st1" d="M121,72.5c-0.1,3.9-3.2,6-6.1,4.9c-0.4-0.2-0.9-0.4-1.2-0.7c-5.9-5.9-12-11.7-17.7-17.8
		c-2.1-2.2-0.8-5.9,2-6.9c1.8-0.6,3.5-0.2,4.8,1.2c5.6,5.5,11.1,11.1,16.6,16.7C120.3,70.6,120.7,71.9,121,72.5z"/>
	<path class="st1" d="M145.6,46.2c0-3,0-6.1,0-9.1c0.1-3.1,2-5.2,4.7-5.1c2.6,0.1,4.4,2.1,4.4,5.1c0.1,6.2,0.1,12.3,0,18.5
		c0,3.1-2.1,5.2-4.7,5.1c-2.6-0.1-4.4-2.1-4.5-5.1C145.6,52.5,145.6,49.4,145.6,46.2z"/>
	<path class="st1" d="M150.3,67.6c2.5,0,4.5,2.1,4.4,4.6c-0.1,2.4-2.2,4.5-4.6,4.4c-2.4-0.1-4.5-2.2-4.5-4.6
		C145.7,69.5,147.8,67.6,150.3,67.6z"/>
</g>
</svg>
