<?xml version="1.0" encoding="utf-8"?>
<!-- Generator: Adobe Illustrator 24.0.0, SVG Export Plug-In . SVG Version: 6.00 Build 0)  -->
<svg version="1.1" id="Capa_1" xmlns="http://www.w3.org/2000/svg" xmlns:xlink="http://www.w3.org/1999/xlink" x="0px" y="0px"
	 viewBox="0 0 200 200" style="enable-background:new 0 0 200 200;" xml:space="preserve">
<style type="text/css">
	.st0{fill:#ACAEAF;}
	.st1{fill:#FE9900;}
</style>
<g>
	<path class="st0" d="M18.3,155.2c0-33.6,0-67.3,0-100.9c0-0.2,0.2-0.2,0.2-0.3c1.9-6.3,5.5-9,12.1-9c8.2,0,16.5,0,24.7,0
		c0.6,0,1.1,0,2,0c0-3.3-0.2-6.5,0-9.6c0.5-8.5,7.6-15.3,16.1-15.3c15.1-0.2,30.3-0.2,45.4,0c6.8,0,12.9,4.4,15.1,10.9
		c0.8,2.2,0.9,4.6,1.1,6.8c0.2,2.4,0,4.7,0,7.2c0.8,0,1.4,0,2,0c8.4,0,16.5,0,24.9,0c1.1,0,2,0,3.2,0.2c5.5,1.1,9,5.5,9,11.5
		c0,30.4,0,61,0,91.4c0,1.1,0.3,2.2,0.9,3.2c2.5,3.9,5.2,7.9,7.7,11.8c5.7,9.1,0.8,20.8-9.8,23.2c-0.3,0-0.6,0.2-0.9,0.3
		c-21,0-41.9,0-62.9,0c-0.3-0.2-0.6-0.3-1.1-0.3c-8.2-1.9-13.4-9.9-11.7-18.1c0.3-1.3,0.8-2.4,1.1-3.8c-0.8,0-1.4,0-2,0
		c-21.7,0-43.5,0-65.2,0c-5.4,0-9.3-2.5-11.2-6.9C18.8,156.7,18.5,156,18.3,155.2z M96,50.7c-21.9,0-44,0-65.9,0
		c-4.3,0-6.3,2.2-6.3,6.5c0,9.6,0,19.2,0,28.8c0,7.4,4.7,12,12,12c40.2,0,80.4,0,120.4,0c7.4,0,12.1-4.6,12.1-12.1
		c0-9.5,0-18.9,0-28.5c0-4.6-2-6.6-6.6-6.6C139.8,50.7,117.9,50.7,96,50.7z M23.8,99.2c0,0.8,0,1.4,0,1.9c0,17,0,34.2,0,51.2
		c0,4.6,2,6.6,6.6,6.6c23,0,46.2,0,69.2,0c1.3,0,1.9-0.5,2.5-1.4c8.4-12.8,16.7-25.5,25.1-38.3c6.6-10.2,19.9-10.1,26.6,0
		c4.4,6.8,8.8,13.6,13.2,20.3c0.3,0.5,0.6,0.9,1.1,1.6c0-14.2,0-27.9,0-41.8c-5.7,3.6-6.9,3.9-13.7,3.9c-13.2,0-26.5,0-39.7,0
		c-0.6,0-1.3,0-2,0c0,0.6,0,1.3,0,1.7c0,3.9,0,7.9,0,11.8c0,5-3.5,8.5-8.5,8.5c-5.4,0-10.9,0-16.2,0c-5,0-8.5-3.5-8.5-8.5
		c0-3.9,0-7.9,0-11.8c0-0.6,0-1.1,0-1.7c-0.9,0-1.6,0-2.2,0c-13.7,0-27.6,0-41.3,0c-1.1,0-2.2,0-3.3-0.2
		C29.3,102.8,26.5,101.4,23.8,99.2z M140.4,181.2c9.6,0,19.2,0,28.8,0c3.9,0,6.9-1.6,8.8-5c1.9-3.5,1.6-6.9-0.5-10.1
		c-9.6-14.7-19.2-29.5-28.8-44.1c-4.1-6.3-12.4-6.3-16.5,0c-9.8,14.7-19.4,29.5-28.8,44.3c-0.9,1.4-1.6,3.3-1.6,5
		c-0.3,5.5,4.1,9.9,9.9,10.1C121.2,181.2,130.8,181.2,140.4,181.2z M68.3,45c0-2.5,0-4.9,0-7.2c0-4.6,2-6.6,6.6-6.6
		c14,0,28,0,42.1,0c4.7,0,6.8,2,6.8,6.8c0,2.4,0,4.7,0,7.1c1.9,0,3.6,0,5.5,0c0-3,0-5.8,0-8.7c-0.2-6-4.9-10.7-10.7-10.7
		c-15-0.2-30.1,0-45.1,0c-4.9,0-9.3,3.3-10.2,8.2c-0.6,3.6-0.5,7.4-0.6,11.2C64.6,45,66.4,45,68.3,45z M118.2,36.8
		c-14.8,0-29.5,0-44.3,0c0,2.8,0,5.5,0,8.2c14.8,0,29.5,0,44.3,0C118.2,42.2,118.2,39.5,118.2,36.8z M85,103.5c0,4.7,0,9.5,0,14.2
		c0,1.4,1.1,2.4,2.7,2.4c5.5,0,11.2,0,16.7,0c1.6,0,2.7-0.9,2.7-2.4c0.2-4.7,0-9.5,0-14.2C99.6,103.5,92.4,103.5,85,103.5z"/>
	<path class="st1" d="M143.3,142.4c0,4.4,0,8.7,0,13.1c0,2.2-1.1,3.5-2.8,3.5c-1.7,0-2.7-1.3-2.7-3.5c0-8.8,0-17.6,0-26.3
		c0-2.2,1.1-3.5,2.8-3.5c1.7,0,2.7,1.3,2.8,3.5C143.3,133.6,143.3,138,143.3,142.4z"/>
	<path class="st1" d="M137.8,168.6c0-0.5,0-0.9,0-1.4c0.2-1.4,1.3-2.5,2.7-2.5c1.4,0,2.7,0.9,2.8,2.4c0.2,0.9,0.2,2,0,3.2
		c-0.2,1.7-1.3,2.8-2.8,2.8s-2.7-1.1-2.7-2.8C137.8,169.5,137.8,169,137.8,168.6L137.8,168.6z"/>
</g>
</svg>
