<?xml version="1.0" encoding="utf-8"?>
<!-- Generator: Adobe Illustrator 24.0.0, SVG Export Plug-In . SVG Version: 6.00 Build 0)  -->
<svg version="1.1" id="Capa_1" xmlns="http://www.w3.org/2000/svg" xmlns:xlink="http://www.w3.org/1999/xlink" x="0px" y="0px"
	 viewBox="0 0 198.4 198.4" style="enable-background:new 0 0 198.4 198.4;" xml:space="preserve">
<style type="text/css">
	.st0{fill:#ACAEAF;}
	.st1{fill:#FE9900;}
	.st2{fill:#1C3247;}
</style>
<g>
	<path class="st0" d="M32.9,176.6c-1.1-0.8-1.4-1.8-1.4-3.2c0.1-3.3-0.1-6.6,0.2-9.8c0.5-6,3.5-10.5,8.4-13.8
		c0.4-0.2,0.7-0.5,1.2-0.8c-0.5-0.3-0.8-0.6-1.2-0.9c-4.6-3.4-7.2-8-7.2-13.8c-0.1-9.6,0-19.1,0-28.7c0-6.5,2.7-11.5,8.2-15.1
		c0.2-0.1,0.3-0.2,0.6-0.4c-5.7-4.2-8.5-9.7-7-16.7c1.5-7,6.2-11,13.2-12.6c0-2.9,0-5.7,0-8.6c0-1.4,0-2.8,0-4.3
		c0-1.5,0.9-2.4,2.2-2.4c1.3,0,2.1,0.9,2.2,2.5c0,3.4,0,6.9,0,10.3c0,0.8,0,1.6,0,2.5c6.9,1.5,11.6,5.5,13.2,12.4
		c1.5,7-1.2,12.5-7,16.8c0.7,0.5,1.3,0.9,1.9,1.4c3.8,3,6.1,6.8,6.7,11.7c0.1,0.8,0.2,1.2,1.2,1.2c11.7,0,23.4,0,35.2,0
		c0.1,0,0.3-0.1,0.5-0.1c0-0.2,0-0.4-0.1-0.5c-4.3-8.9-0.4-18.5,7.4-23.3c8.9-5.5,21-4.1,27.9,3.4c5.2,5.6,6.4,12.1,3.6,19.2
		c-0.2,0.4-0.3,0.8-0.5,1.4c2.4,0,4.7,0,6.9,0c0.3,0,0.7-0.6,1-1c0.1-0.3,0-0.7,0-1c0-23.3,0-46.6,0-69.9c0-2.1,0-2.1-2.1-2.1
		c-16.6,0-33.3,0-49.9,0c-0.5,0-0.9,0-1.4,0c-0.1,0.2-0.2,0.3-0.4,0.5c0.2,0.1,0.5,0.1,0.7,0.2c11.2,9.5,8,25.9-6,31.3
		c-2.4,0.9-5,1.1-7.6,1.6c-1.6,0.3-3.3,0.4-4.9,0.8c-2.8,0.7-5.5,1.6-8.3,2.4c-2.2,0.6-3.6-0.7-3.1-2.9c0.4-1.6,1.5-3.3,1.2-4.8
		c-0.3-1.4-2-2.4-3-3.6c-5.8-7.4-4.9-17.5,2.1-24.1c0.4-0.4,0.9-0.8,1.6-1.4c-1.3,0-2.3,0-3.3,0c-4,0-7.9,0-11.9,0
		c-1.2,0-1.7,0.4-1.6,1.6c0.1,1.7,0,3.3,0,5c0,1.7-0.9,2.8-2.2,2.8c-1.3,0-2.2-1-2.2-2.7c0-2,0-3.9,0-5.9c0.1-3,2.2-5.1,5.2-5.2
		c3.2,0,6.5,0,9.7,0c28.5,0,57,0,85.5,0c4.3,0,6.2,1.9,6.2,6.2c0,23.5,0,47,0,70.5c0,4.3-1.8,6.2-6.2,6.2c-2.8,0-5.6,0-8.4,0
		c-2.1,0-2.9,1.1-2.3,3.1c0.3,1.1,0.8,2.1,0.9,3.2c0.1,0.8,0.1,2.1-0.4,2.5c-0.6,0.5-1.8,0.7-2.6,0.5c-2.8-0.7-5.4-1.7-8.2-2.3
		c-2.2-0.5-4.5-0.7-6.8-0.9c-4.6-0.5-8.6-2.3-12.1-5.2c-0.6-0.5-1.5-0.9-2.2-0.9c-12.5-0.1-24.9,0-37.4,0c-0.5,0-1,0-1.6,0
		c0,0.8,0,1.4,0,1.9c0,7.3-0.1,14.6,0,21.9c0.1,6.8-2.4,12.2-8.1,16c-0.1,0.1-0.2,0.2-0.1,0.1c1.9,1.7,3.8,3.3,5.4,5.1
		c2.7,3.1,4,6.9,4,11.1c0,2.9,0,5.8,0,8.7c0,1.3-0.4,2.3-1.5,2.9C55.7,176.6,44.3,176.6,32.9,176.6z M72.5,61.9
		c1-0.3,1.8-0.5,2.5-0.7c3-1,6-1.7,9.3-1.7c3.7,0,7-1.5,9.9-4c6.7-5.7,6.8-14.9,0.3-20.8C87.7,28.6,76.3,29,70,35.5
		c-3.5,3.7-4.8,8-3.5,13c0.8,3.2,2.8,5.8,5.5,7.7c1.2,0.9,1.6,1.9,1.1,3.3C72.9,60.2,72.8,60.9,72.5,61.9z M133.2,112.8
		c-0.1-0.3-0.1-0.6-0.2-0.8c-1.1-2.3-0.5-3.8,1.6-5.5c6.9-5.6,6.9-15,0.2-20.8c-6.4-5.5-16.7-5.6-23.2-0.2c-5.9,5-6.9,13.1-2.2,18.9
		c2.8,3.5,6.5,5.7,10.9,6c4.2,0.3,8.3,1,12.3,2.4C132.7,112.8,132.9,112.8,133.2,112.8z M62.7,122.4c0-0.5,0.1-0.7,0.1-0.9
		c0-5.3,0-10.6,0-15.9c0-1.1-0.1-2.2-0.3-3.2c-1.5-6.4-7.3-10.6-13.9-9.9c-6.3,0.7-11.2,6.1-11.2,12.7c0,5.4,0,10.9,0,16.3
		c0,0.3,0,0.5,0.1,0.9C44.8,115.1,55.5,115.3,62.7,122.4z M62.8,134.1c0-7-5.8-12.7-12.8-12.7c-7,0-12.7,5.8-12.7,12.8
		c0,7,5.8,12.7,12.8,12.7C57.1,146.8,62.8,141.1,62.8,134.1z M64.1,172.1c0-2.5,0-4.9,0-7.2c-0.1-5.9-4.1-11.2-9.8-13
		c-5.7-1.8-11.9,0.2-15.5,4.9c-3.6,4.6-2.8,9.9-2.8,15.3C45.4,172.1,54.7,172.1,64.1,172.1z M38.7,76.6c0,6.3,5.1,11.5,11.4,11.4
		c6.2,0,11.3-5.2,11.3-11.4c0-6.3-5.1-11.4-11.4-11.4C43.7,65.3,38.7,70.3,38.7,76.6z"/>
	<path class="st0" d="M84.1,176.6c-1.1-0.7-1.5-1.8-1.5-3.1c0.1-3.4-0.1-6.9,0.2-10.3c0.6-6,3.7-10.5,8.8-13.7
		c0.2-0.1,0.5-0.3,0.7-0.5c-11.2-7.5-9.8-20.6-3.5-26.9c6.8-6.9,17.8-6.8,24.6,0.1c6.2,6.4,7.5,19.3-3.5,26.8c1,0.7,2,1.4,2.9,2.1
		c4.4,3.7,6.6,8.4,6.7,14.1c0.1,2.7,0,5.5,0,8.2c0,1.3-0.3,2.4-1.5,3.1C106.9,176.6,95.5,176.6,84.1,176.6z M88.5,134.1
		c0,7,5.7,12.8,12.7,12.8c7,0,12.7-5.7,12.7-12.7c0-7-5.7-12.8-12.7-12.8C94.2,121.3,88.5,127.1,88.5,134.1z M115.2,172.1
		c0-2.6,0.1-5.1,0-7.5c-0.3-5.8-4.1-10.7-9.5-12.6c-5.4-1.8-11.2-0.2-15.1,4.1c-4.2,4.7-3.5,10.4-3.4,16
		C96.5,172.1,105.8,172.1,115.2,172.1z"/>
	<path class="st0" d="M135.3,176.6c-1.1-0.7-1.6-1.6-1.5-2.9c0.1-2.9,0-5.8,0-8.7c0.2-6.3,2.9-11.3,8.1-14.9c0.5-0.4,1-0.7,1.7-1.1
		c-5.5-3.6-8.5-8.6-8.4-15.1c0-4.8,1.9-8.9,5.4-12.2c7.1-6.7,18.1-6.2,24.6,1c6.3,7.1,6.3,19.4-4,26.2c0.2,0.2,0.5,0.4,0.7,0.5
		c5.9,3.8,8.9,9.2,9,16.2c0,2.6,0,5.2,0,7.8c0,1.3-0.3,2.4-1.4,3.2c-5.4,0-10.8,0-16.2,0c-1.1-0.6-1.9-1.5-1.4-2.9
		c0.4-1.4,1.6-1.6,2.8-1.5c0.4,0,0.8,0,1.2,0c3.5,0,6.9,0,10.5,0c0-2.8,0.2-5.5,0-8.2c-0.6-6.6-5.5-11.7-12.2-12.6
		c-6.1-0.9-12.3,2.7-14.8,8.6c-1.7,4-0.9,8.1-1.1,12.2c1.6,0,3.1,0,4.5,0c1.2,0,2.4,0.1,2.9,1.4c0.5,1.4-0.3,2.2-1.2,3
		C141.4,176.6,138.3,176.6,135.3,176.6z M139.6,134.1c0,7,5.7,12.7,12.7,12.7c7,0,12.7-5.7,12.7-12.7c0-7-5.7-12.8-12.7-12.7
		C145.3,121.4,139.6,127.1,139.6,134.1z"/>
	<path class="st1" d="M94.2,45.8c0,1.3-1.1,2.4-2.4,2.4c-1.4,0-2.5-1.2-2.4-2.6c0-1.4,1.1-2.4,2.5-2.3
		C93.2,43.4,94.3,44.5,94.2,45.8z"/>
	<path class="st1" d="M73.6,43.3c1.3,0,2.4,1.1,2.4,2.5c0,1.3-1.1,2.4-2.4,2.5c-1.4,0-2.5-1.1-2.5-2.6
		C71.1,44.3,72.2,43.3,73.6,43.3z"/>
	<path class="st1" d="M82.6,48.2c-1.3,0-2.4-1.1-2.4-2.5c0-1.4,1.1-2.5,2.6-2.4c1.3,0.1,2.4,1.2,2.3,2.5
		C85.1,47.2,83.9,48.3,82.6,48.2z"/>
	<path class="st2" d="M123,94.4c1.3,0,2.5,1,2.5,2.3c0.1,1.3-1,2.5-2.3,2.5c-1.4,0.1-2.6-1-2.6-2.4C120.6,95.5,121.7,94.4,123,94.4z
		"/>
	<path class="st2" d="M134.7,96.9c0,1.3-1.1,2.4-2.5,2.4c-1.4,0-2.5-1.1-2.5-2.5c0.1-1.3,1.2-2.4,2.5-2.3
		C133.6,94.4,134.7,95.5,134.7,96.9z"/>
	<path class="st2" d="M116.4,96.8c0,1.3-1,2.4-2.4,2.5c-1.4,0.1-2.5-0.9-2.6-2.3c-0.1-1.4,1-2.6,2.4-2.6
		C115.2,94.4,116.4,95.4,116.4,96.8z"/>
</g>
</svg>
