<?xml version="1.0" encoding="utf-8"?>
<!-- Generator: Adobe Illustrator 24.0.0, SVG Export Plug-In . SVG Version: 6.00 Build 0)  -->
<svg version="1.1" id="Capa_1" xmlns="http://www.w3.org/2000/svg" xmlns:xlink="http://www.w3.org/1999/xlink" x="0px" y="0px"
	 viewBox="0 0 200 200" style="enable-background:new 0 0 200 200;" xml:space="preserve">
<style type="text/css">
	.st0{fill:#ACAEAF;}
	.st1{fill:#FE9900;}
</style>
<g>
	<path class="st0" d="M183.5,76.1c0-3.4-2.2-5.6-5.6-5.6c-1.7,0-3.3,0-5.2,0c0-18,0-35.8,0-53.6c-23.3,0-46.4,0-69.7,0
		c0,17.9,0,35.6,0,53.5c-1.8,0-3.4,0-5.4,0c0-17.9,0-35.7,0-53.5c-23.3,0-46.4,0-69.6,0c0,17.9,0,35.7,0,53.6c-2,0-3.7-0.1-5.5,0
		c-2.9,0.1-5.1,2.3-5.2,5.2c-0.1,2-0.1,3.9,0,5.9c0.1,2.7,2.3,4.8,4.9,5c0.7,0.1,1.5,0,2.2,0c4.1,0,8.1,0,12.3,0
		c-1.1,4.5-0.9,8.8,0.7,13c1.6,4.2,4.3,7.5,7.9,10.1c-0.1,0.2-0.1,0.3-0.1,0.3c-0.2,0.1-0.3,0.1-0.5,0.2
		c-16,6.1-25.1,17.5-27.3,34.5c-0.8,6.7,1,12.2,7.2,15.7c0.4,0.2,0.7,1.1,0.7,1.6c0.1,4.4,0,8.8,0,13.3c0,2.6,0,5.2,0,7.9
		c24.2,0,48.2,0,72.3,0c0-0.5,0-1,0-1.4c0-11.2,0-22.4,0-33.6c-0.1-16.3-9.9-30.8-25-37.1c-1-0.4-2-0.8-3.2-1.2
		c7.7-6,10.7-13.6,8.8-23.2c0.8,0,1.4,0,2.1,0c32,0,64.1,0,96.1,0c0.6,0,1.1,0,1.7,0c2.9-0.1,5.1-2.3,5.2-5.3
		C183.5,79.5,183.5,77.8,183.5,76.1z M130,22.2c5.3,0,10.5,0,15.9,0c0,1.7,0,3.4,0,5.2c-5.2,0-10.5,0-15.9,0
		C130,25.6,130,23.9,130,22.2z M108.6,22.2c5.3,0,10.5,0,15.9,0c0,3.5,0,6.9,0,10.5c9,0,17.8,0,26.8,0c0-3.5,0-7,0-10.5
		c5.4,0,10.6,0,16,0c0,16,0,32,0,48.1c-5.3,0-10.5,0-15.9,0c0-3.5,0-6.9,0-10.5c-9,0-17.8,0-26.9,0c0,3.6,0,7,0,10.5
		c-5.3,0-10.6,0-15.9,0C108.6,54.3,108.6,38.3,108.6,22.2z M145.8,65.1c0,1.7,0,3.4,0,5.2c-5.2,0-10.5,0-15.9,0c0-1.7,0-3.3,0-5.2
		C135.3,65.1,140.5,65.1,145.8,65.1z M54.9,22.2c5.3,0,10.5,0,15.9,0c0,1.7,0,3.3,0,5.2c-5.2,0-10.5,0-15.9,0
		C54.9,25.6,54.9,23.9,54.9,22.2z M33.5,22.2c5.3,0,10.5,0,15.9,0c0,3.5,0,7,0,10.5c9,0,17.8,0,26.8,0c0-3.5,0-7,0-10.5
		c5.4,0,10.6,0,16,0c0,16,0,32,0,48.2c-5.3,0-10.6,0-15.9,0c0-3.5,0-7,0-10.5c-9,0-17.8,0-26.8,0c0,3.5,0,7,0,10.5
		c-5.4,0-10.6,0-16,0C33.5,54.3,33.5,38.3,33.5,22.2z M70.9,65.2c0,1.7,0,3.4,0,5.2c-5.3,0-10.5,0-15.9,0c0-1.7,0-3.4,0-5.2
		C60.3,65.2,65.5,65.2,70.9,65.2z M38.4,81.2c-5.2,0-10.4,0-15.7,0c0-1.9,0-3.5,0-5.2c6.7,0,13.4,0,20.2,0c-1.2,1.6-2.4,3.2-3.7,4.8
		C39.1,81,38.7,81.2,38.4,81.2z M41.3,177.7c-3.6,0-7,0-10.5,0c0-5.3,0-10.5,0-15.9c3.4,0,6.9,0,10.5,0
		C41.3,167.1,41.3,172.3,41.3,177.7z M78.9,177.7c-10.6,0-21.2,0-32,0c0-5.3,0-10.5,0-16c3.2,0,6.4,0.1,9.5,0c4.5-0.1,8.1-3.3,9-7.8
		c0.8-4.1-1.5-8.5-5.5-10.1c-1.3-0.5-2.7-0.8-4.1-0.8c-2.9-0.1-5.9,0-9,0c0-4.6,0-8.9,0-13.4c3.1,0,6.2,0,9.2,0c3.1,0,6.1,0,9.4,0
		c0,4.4,0,8.8,0,13.4c4.6,0,8.9,0,13.4,0C78.9,154.6,78.9,166.1,78.9,177.7z M71,137.4c0-1.3,0-2.5,0-3.7c1.2,1.3,2.4,2.5,3.6,3.7
		C73.6,137.4,72.4,137.4,71,137.4z M91.9,142.7c0.2,1.2,0.4,2.4,0.4,3.7c0,10.4,0,20.8,0,31.4c-2.7,0-5.2,0-8,0c0-0.6,0-1.2,0-1.8
		c0-11.8,0-23.6,0-35.4c0-0.8-0.4-1.8-1-2.4c-4.3-4.4-8.6-8.7-13-13.1c-0.4-0.4-1.1-0.9-1.7-0.9c-9-0.1-18,0-27.1,0
		c0,6.3,0,12.4,0,18.7c-2.7,0-5.3,0-8,0c0,1.8,0,3.5,0,5.4c0.6,0,1.1,0,1.7,0c6.9,0,13.7,0,20.6,0c3.2,0,5.2,2.8,4,5.6
		c-0.7,1.6-2,2.5-3.7,2.5c-8.7,0-17.3,0.1-26,0c-4.3-0.1-7.5-3.7-7.5-8.1c-0.2-16.3,12.1-31.2,28.1-34.1
		C70.5,110.5,88.4,123,91.9,142.7z M57.5,108c-8.8,0-16.1-7.3-16-16.1c0-8.9,7.3-16.1,16.1-16.1c8.8,0,16.1,7.3,16,16.1
		C73.6,100.8,66.3,108,57.5,108z M178,81.2c-0.7,0-1.3,0-1.9,0c-32.8,0-65.5,0-98.3,0c-1.2,0-2-0.2-2.7-1.4c-0.8-1.4-2-2.5-3.1-3.9
		c35.3,0,70.6,0,106,0C178,77.7,178,79.4,178,81.2z"/>
	<path class="st1" d="M103.2,183.1c26.8,0,53.4,0,80.2,0c0-21.4,0-42.8,0-64.2c-26.8,0-53.5,0-80.2,0
		C103.2,140.4,103.2,161.8,103.2,183.1z M135.4,124.2c5.3,0,10.5,0,15.9,0c0,1.7,0,3.3,0,5.2c-5.3,0-10.5,0-15.9,0
		C135.4,127.7,135.4,126,135.4,124.2z M108.6,124.2c7.1,0,14.1,0,21.3,0c0,3.4,0,6.9,0,10.5c9,0,17.9,0,26.8,0c0-3.5,0-6.9,0-10.5
		c7.2,0,14.2,0,21.4,0c0,17.7,0,35.5,0,53.5c-23.2,0-46.3,0-69.4,0C108.6,159.9,108.6,142.1,108.6,124.2z"/>
	<path class="st1" d="M146,161.6c8.9,0,17.7,0,26.6,0c0-1.7,0-3.4,0-5.2c-9,0-17.8,0-26.6,0C146,158.2,146,159.9,146,161.6z"/>
	<path class="st1" d="M146.1,172.3c1.7,0,3.4,0,5.1,0c0-1.8,0-3.5,0-5.2c-1.7,0-3.3,0-5.1,0C146.1,168.9,146.1,170.6,146.1,172.3z"
		/>
	<path class="st1" d="M156.8,172.3c1.8,0,3.5,0,5.2,0c0-1.8,0-3.4,0-5.1c-1.8,0-3.5,0-5.2,0C156.8,168.9,156.8,170.6,156.8,172.3z"
		/>
	<path class="st1" d="M167.5,172.4c1.8,0,3.5,0,5.2,0c0-1.8,0-3.5,0-5.2c-1.8,0-3.4,0-5.2,0C167.5,169,167.5,170.6,167.5,172.4z"/>
</g>
</svg>
