<?xml version="1.0" encoding="utf-8"?>
<!-- Generator: Adobe Illustrator 24.0.0, SVG Export Plug-In . SVG Version: 6.00 Build 0)  -->
<svg version="1.1" id="Capa_1" xmlns="http://www.w3.org/2000/svg" xmlns:xlink="http://www.w3.org/1999/xlink" x="0px" y="0px"
	 viewBox="0 0 200 200" style="enable-background:new 0 0 200 200;" xml:space="preserve">
<style type="text/css">
	.st0{fill:#ACAEAF;}
	.st1{fill:#FE9900;}
	.st2{fill:#1C3247;}
</style>
<g>
	<path class="st0" d="M194,140.6c0,2.6,0,5.2,0,7.8c-0.7,3.2-3.1,4.7-6,5.5c-2.2,0.6-3,2-4.1,4c-1.9,3.5-1.7,6.6,0.1,10
		c1.2,2.1,0.7,4.4-1,6.2c-1.4,1.5-3,3-4.5,4.5c-2,2-4.5,2.4-6.9,1.1c-3-1.7-5.8-2.2-8.7-0.1c-0.2,0.2-0.5,0.3-0.8,0.3
		c-2.1,0.4-3.2,1.7-3.8,3.8c-0.8,2.9-2.2,5.4-5.5,6.1c-2.6,0-5.2,0-7.8,0c-2.8-0.7-4.4-2.5-5.2-5.2c-0.1-0.4-0.4-0.9-0.5-1.3
		c-0.5-1.8-1.7-2.5-3.3-3.4c-3.7-1.9-7-2.1-10.6,0c-2,1.2-4.2,0.6-5.8-1c-0.9-0.9-1.9-1.1-3.1-1.1c-31,0-61.9,0-92.9,0
		c-6.3,0-10-3.7-10-9.9c0-49.6,0-99.2,0-148.8c0-6.1,3.7-9.8,9.7-9.8c43.7,0,87.3,0,131,0c0.8,0,1.7,0,2.5,0.2
		c4.6,1,7.3,4.6,7.3,9.8c0,24.2,0,48.3,0,72.5c0,5.6,0,11.3,0,16.9c0,0.6,0.2,1.5,0.7,1.8c1.3,0.9,2.6,1.4,4.2,0.4
		c1-0.6,2.1-1,3.2-1.4c2.3-0.9,4.4-0.7,6.2,1c1.7,1.6,3.3,3.2,4.9,4.9c1.6,1.8,2.2,4,1,6c-2,3.5-2,6.6-0.1,10.1
		c1,1.8,1.8,3.2,3.8,3.8C190.8,135.9,193.3,137.3,194,140.6z M112.7,171.6c0.7-2.2,1.1-4.2,1.9-6c1-2,0.7-3.6,0-5.7
		c-1.2-3.8-3.4-5.9-7.2-6.9c-2.1-0.6-3.4-2.2-3.5-4.4c-0.1-2.7-0.1-5.5,0.1-8.3c0.1-2,1.4-3.3,3.2-4.1c0.9-0.4,1.8-0.8,2.8-1.1
		c2-0.5,2.8-1.9,3.7-3.7c1.9-3.6,1.9-6.8-0.1-10.3c-1.1-1.9-0.7-4.1,0.8-5.7c1.7-1.9,3.5-3.7,5.4-5.3c1.6-1.4,3.5-1.6,5.5-0.9
		c0.9,0.3,1.8,0.6,2.6,1.1c1.9,1.2,3.6,0.7,5.7,0c3.7-1.2,5.8-3.3,6.9-7c0.4-1.3,1.9-2.9,3.1-3.2c2.5-0.6,5.2-0.5,7.8-0.6
		c2.9-0.1,5.2,1.2,6.4,4c0-21.4,0-42.7,0-64.1c-46.2,0-92.2,0-138.4,0c0,0.7,0,1.3,0,1.9c0,42.1,0,84.2,0,126.2
		c0,3.3,0.9,4.3,4.3,4.3c29.1,0,58.3,0,87.4,0C111.8,171.6,112.5,171.6,112.7,171.6z M19.4,33c46.2,0,92.3,0,138.5,0
		c0-4.5,0-8.9,0-13.3c0-3.8-0.8-4.6-4.5-4.6c-43.1,0-86.3,0-129.4,0c-0.5,0-1.1,0-1.6,0c-1.7,0.1-2.9,1.2-2.9,3
		C19.4,23,19.4,27.9,19.4,33z M178.5,119.2c-0.1-0.2-0.1-0.3-0.2-0.5c-1.2-1.2-2.4-2.4-3.6-3.6c-0.2-0.2-0.9,0-1.3,0.2
		c-1.7,0.7-3.3,1.6-5,2.1c-1,0.3-2.3,0.2-3.3-0.2c-2.8-1-5.5-2.1-8.1-3.4c-1-0.5-1.9-1.4-2.6-2.3c-0.5-0.6-0.6-1.5-0.9-2.3
		c-1.6-4-1.6-3.9-5.9-3.8c-1.1,0-1.7,0.3-2.1,1.4c-0.5,1.6-1.2,3-1.8,4.6c-0.5,1.4-1.4,2.1-2.9,2.6c-2.1,0.7-4.2,1.2-6,2.4
		c-2.6,1.6-4.8,1.5-7.4,0.2c-4.2-2-4.3-1.9-7.3,1.6c-0.3,0.4-0.5,1.3-0.3,1.8c0.6,1.7,1.5,3.2,2,4.9c0.3,1.1,0.2,2.5-0.1,3.7
		c-0.9,2.7-2.1,5.4-3.3,7.9c-0.5,1-1.4,1.9-2.3,2.6c-0.6,0.5-1.5,0.6-2.3,0.9c-4.2,1.7-4.2,1.7-3.9,6.2c0,0.1,0,0.1,0,0.2
		c0.3,0.5,0.6,1.1,1,1.4c1.6,0.8,3.4,1.3,5,2.1c0.9,0.5,1.9,1.4,2.3,2.4c1.3,2.7,2.5,5.6,3.5,8.4c0.3,0.9,0.3,2,0.1,3
		c-0.1,0.9-0.7,1.7-1.1,2.6c-1.6,3.8-1.6,3.8,1.4,6.7c0.9,0.8,1.6,1.2,2.7,0.5c1.4-0.8,2.9-1.2,4.3-1.9c1.3-0.6,2.6-0.5,3.9,0.2
		c1.9,1,3.8,2.1,5.8,2.6c3.2,0.7,4.7,2.5,5.7,5.5c1.4,4,1.5,3.9,5.9,3.8c1,0,1.6-0.3,2-1.3c0.5-1.6,1.2-3,1.8-4.6
		c0.5-1.5,1.5-2.2,3-2.7c2-0.6,4-1.1,5.7-2.2c2.8-1.8,5.3-1.8,8-0.1c0.2,0.2,0.5,0.2,0.8,0.4c2.8,1.2,2.7,1.1,5-1
		c1.5-1.4,2.1-2.6,0.9-4.5c-0.5-0.8-0.7-1.9-1.2-2.7c-1-1.8-0.9-3.4,0.2-5.1c1-1.7,1.9-3.5,2.3-5.3c0.6-3,2.4-4.5,5.2-5.5
		c4.4-1.5,4.4-1.6,3.9-6.3c-0.1-0.5-0.6-1.3-1.1-1.5c-1.5-0.8-3.1-1.4-4.7-1.9c-1.5-0.5-2.2-1.5-2.7-2.9c-0.8-2.4-1.7-4.8-2.9-7
		c-0.9-1.8-1.2-3.3-0.2-5.1c0.7-1.3,1.2-2.7,1.8-4C178.2,119.8,178.3,119.5,178.5,119.2z"/>
	<path class="st1" d="M61.6,63.1c0.2,9.7-7.9,18-17.8,18.2c-9.9,0.1-18.2-7.9-18.3-17.8c-0.1-9.9,7.8-18.2,17.8-18.3
		C53.2,45,61.4,53,61.6,63.1z M55.5,63.4c0.2-6.7-5.2-12.1-11.9-12.2c-6.5-0.1-12,5.3-12.2,11.8c-0.1,6.5,5.2,12.1,11.8,12.3
		C49.8,75.5,55.4,70.2,55.5,63.4z"/>
	<path class="st0" d="M61.6,147.4c0.2,9.7-7.9,18-17.8,18.2c-9.9,0.2-18.2-7.9-18.3-17.8c-0.1-9.9,7.9-18.2,17.8-18.3
		C53.2,129.3,61.4,137.3,61.6,147.4z M55.5,147.7c0.1-6.6-5.2-12.2-11.9-12.2c-6.5-0.1-12,5.3-12.1,11.9c-0.1,6.5,5.2,12,11.8,12.2
		C49.8,159.8,55.4,154.4,55.5,147.7z"/>
	<path class="st1" d="M43.5,123.4c-10,0-18.1-8.1-18.1-18c0-9.9,8.2-18.1,18.1-18c10.1,0,18.1,8.2,18,18.2
		C61.5,115.5,53.4,123.4,43.5,123.4z M55.5,105.5c0.1-6.5-5.1-12-11.6-12.2c-6.7-0.1-12.3,5.1-12.4,11.8
		c-0.2,6.6,5.2,12.2,11.8,12.3C50,117.5,55.4,112.3,55.5,105.5z"/>
	<path class="st0" d="M111.1,60.2c-12,0-24.1,0-36.1,0c-0.6,0-1.2,0-1.8,0c-1.5-0.2-2.6-1.5-2.6-2.9c0-1.4,1-2.7,2.5-3
		c0.6-0.1,1.2-0.1,1.8-0.1c24.3,0,48.5,0,72.8,0c0.5,0,1.1,0,1.6,0c1.6,0.2,2.6,1.5,2.6,3.1c-0.1,1.5-1.1,2.7-2.6,2.8
		c-0.6,0.1-1.2,0-1.8,0C135.3,60.2,123.2,60.2,111.1,60.2z"/>
	<path class="st0" d="M102.1,96.3c9.1,0,18.1,0,27.2,0c0.8,0,1.5,0,2.3,0.2c1.4,0.3,2.2,1.3,2.2,2.8c0,1.5-0.7,2.5-2.1,2.9
		c-0.7,0.2-1.4,0.2-2.1,0.2c-18.2,0-36.4,0-54.7,0c-0.5,0-1.1,0-1.6-0.1c-1.6-0.2-2.7-1.5-2.7-3c0-1.5,1.1-2.6,2.6-2.9
		c0.6-0.1,1.3-0.1,1.9-0.1C84.1,96.3,93.1,96.3,102.1,96.3z"/>
	<path class="st0" d="M99.2,72.2c-8.3,0-16.7,0-25,0c-2.1,0-3.5-1.1-3.5-2.9c-0.1-1.7,1.3-3.1,3.3-3.1c3.4,0,6.8,0,10.2,0
		c13.3,0,26.6,0,39.8,0c2.2,0,3.4,0.9,3.7,2.5c0.3,2-1,3.5-3.3,3.5c-7.1,0-14.1,0-21.2,0C101.9,72.2,100.5,72.2,99.2,72.2z"/>
	<path class="st0" d="M90.3,108.4c5,0,10.1,0,15.1,0c0.6,0,1.2,0,1.8,0.1c1.5,0.2,2.3,1.2,2.5,2.6c0.2,1.5-0.5,2.6-2,3.1
		c-0.7,0.2-1.5,0.2-2.3,0.2c-10.1,0-20.3,0-30.4,0c-0.4,0-0.7,0-1.1,0c-2-0.1-3.4-1.4-3.3-3.1c0.1-1.7,1.3-2.8,3.4-2.9
		C79.4,108.4,84.9,108.4,90.3,108.4z"/>
	<path class="st0" d="M85.6,156.5c-3.8,0-7.6,0-11.4,0c-2.1,0-3.4-1.2-3.5-2.9c-0.1-1.8,1.4-3.1,3.5-3.1c7.7,0,15.4,0,23.1,0
		c2.2,0,3.5,1.2,3.5,3.1c-0.1,1.8-1.3,2.9-3.5,2.9C93.3,156.5,89.4,156.5,85.6,156.5z"/>
	<path class="st0" d="M84.1,144.5c-3.3,0-6.6,0-9.9,0c-2.2,0-3.6-1.1-3.7-2.9c-0.1-1.9,1.4-3.1,3.7-3.1c6.6,0,13.1,0,19.7,0
		c2.2,0,3.6,1.1,3.7,2.9c0.1,1.9-1.4,3.1-3.7,3.1C90.7,144.5,87.4,144.5,84.1,144.5z"/>
	<path class="st0" d="M136.7,27.1c-3.8,0-7.5,0-11.3,0c-2.2,0-3.6-1.1-3.6-2.9c0-1.8,1.4-3.1,3.7-3.1c7.6,0,15.1,0,22.7,0
		c2.2,0,3.6,1.1,3.6,3c0,1.9-1.3,3-3.7,3C144.3,27.1,140.5,27.1,136.7,27.1z"/>
	<path class="st0" d="M29.9,27.1c-3,0-4.5-1-4.5-3c0-2,1.5-3,4.5-3c0.6,0,1.2,0,1.8,0c1.7,0.2,2.9,1.5,2.8,3.1
		c-0.1,1.6-1.3,2.8-3,2.9C31,27.1,30.5,27.1,29.9,27.1z"/>
	<path class="st0" d="M60,27.1c-3,0-4.4-0.9-4.4-3c0-2,1.4-3,4.5-3c0.5,0,1.1,0,1.6,0c1.8,0.2,3,1.5,2.9,3.1c-0.1,1.6-1.2,2.7-3,2.9
		C61.1,27.1,60.5,27.1,60,27.1z"/>
	<path class="st0" d="M44.9,27.1c-0.4,0-0.7,0-1.1,0c-2.1-0.1-3.3-1.2-3.3-3c0-1.7,1.3-2.9,3.3-3c0.9,0,1.8,0,2.6,0
		c1.9,0.1,3,1.3,3,3c0,1.8-1.2,2.9-3.2,3C45.9,27.1,45.4,27.1,44.9,27.1z"/>
	<path class="st0" d="M172.9,144.4c0,13.4-10.7,24.2-24,24.2c-13.4,0-24.1-10.6-24.1-24c0-13.3,10.6-24,24-24.1
		C162.1,120.4,172.9,131.2,172.9,144.4z M148.8,162.5c10.1,0,18.1-8.1,18-18.2c0-9.9-8.1-17.9-18-17.9c-10.1,0-18.1,8.1-18,18.2
		C130.9,154.6,138.9,162.6,148.8,162.5z"/>
	<path class="st2" d="M49.9,59.9c-0.4,1.8-5.5,8.7-7,9.1c-2,0.6-3-0.7-4.2-1.9c-1-1-1.5-2.1-1-3.5c0.6-1.4,1.7-2,3.2-2
		c0.4,0,0.9-0.4,1.2-0.7c0.8-0.9,1.4-1.9,2.2-2.8c0.9-1.1,2.2-1.4,3.3-0.7C48.6,58,49.1,59.1,49.9,59.9z"/>
	<path class="st2" d="M49.5,102.4c0,1.5-5.1,8.4-6.6,8.9c-1.3,0.4-2.4,0-3.3-1c-1.1-1.1-2.6-2.2-1.9-4c0.3-0.8,1.1-2,1.7-2
		c2.6,0,3.4-2.1,4.7-3.6c0.5-0.6,1.3-1.1,2-1.2C47.9,99,49.5,100.5,49.5,102.4z"/>
	<path class="st0" d="M148.8,156.5c-6.7,0-12-5.4-12-12.1c0-6.6,5.4-11.9,12-11.9c6.7,0,12,5.4,12,12.1
		C160.8,151.2,155.5,156.5,148.8,156.5z M154.9,144.4c0-3.3-2.8-6-6.1-5.9c-3.3,0-6,2.8-5.9,6.2c0.1,3.2,2.7,5.8,6,5.8
		C152.2,150.5,154.9,147.8,154.9,144.4z"/>
</g>
</svg>
