<?xml version="1.0" encoding="utf-8"?>
<!-- Generator: Adobe Illustrator 24.0.0, SVG Export Plug-In . SVG Version: 6.00 Build 0)  -->
<svg version="1.1" id="Capa_1" xmlns="http://www.w3.org/2000/svg" xmlns:xlink="http://www.w3.org/1999/xlink" x="0px" y="0px"
	 viewBox="0 0 80 80" style="enable-background:new 0 0 80 80;" xml:space="preserve">
<style type="text/css">
	.st0{fill:#ACAEAF;}
	.st1{fill:#FE9900;}
	.st2{fill:#1C3247;}
</style>
<g>
	<path class="st0" d="M6.83,23.93c0.3-1.32,0.49-2.67,0.91-3.95c2.34-7.04,9.42-11.74,16.71-11.17c7.77,0.61,14,6.25,15.24,13.8
		c1.51,9.18-4.75,17.73-13.97,19.11c-9.1,1.35-17.79-5.33-18.77-14.43c-0.02-0.19-0.08-0.37-0.12-0.55
		C6.83,25.8,6.83,24.86,6.83,23.93z M32.13,36.2c4.16-3.17,6.66-9.54,4.39-15.69c-2.2-5.96-8.31-9.88-15.03-9.06
		c-5.93,0.73-11.16,5.82-11.97,11.85c-0.66,4.93,2.01,11.59,5.13,12.83c1.11-3.95,3.7-6.26,7.92-6.99
		c-4.07-0.83-5.83-4.09-5.53-6.98c0.34-3.22,3.01-5.67,6.19-5.73c3.27-0.06,5.94,2.24,6.46,5.58c0.5,3.22-1.62,6.07-5.44,7.15
		C28.42,29.86,31,32.19,32.13,36.2z M23.46,39.33c1.96-0.02,3.91-0.44,5.77-1.28c0.39-0.17,0.54-0.36,0.47-0.81
		c-0.5-3.24-3.15-5.56-6.35-5.55c-3.17,0.01-5.81,2.35-6.29,5.55c-0.06,0.4,0.04,0.61,0.41,0.78
		C19.35,38.88,21.32,39.32,23.46,39.33z M23.39,26.6c2.09-0.01,3.8-1.72,3.81-3.81c0-2.09-1.71-3.81-3.8-3.82
		c-2.12-0.01-3.85,1.72-3.84,3.84C19.57,24.9,21.3,26.61,23.39,26.6z"/>
	<path class="st0" d="M54.06,73.95c-1.3-0.29-2.63-0.48-3.88-0.89c-7.08-2.33-11.8-9.4-11.24-16.73c0.6-7.76,6.23-13.98,13.8-15.24
		c9.41-1.57,18.19,5.12,19.17,14.61c0.93,9.04-5.57,17.11-14.63,18.14c-0.14,0.02-0.28,0.07-0.42,0.11
		C55.93,73.95,54.99,73.95,54.06,73.95z M64.2,68.23c3.46-2.44,6.44-8.24,4.81-14.35c-1.68-6.3-7.29-10.56-13.81-10.48
		c-6.25,0.08-11.82,4.51-13.34,10.61c-1.57,6.32,1.63,11.99,4.86,14.21c1.11-3.96,3.7-6.29,7.83-7c-3.91-1.27-5.9-3.94-5.41-7.15
		c0.5-3.25,3.09-5.56,6.26-5.58c3.06-0.02,5.77,2.21,6.3,5.16c0.31,1.76-0.03,3.37-1.04,4.84c-1.02,1.47-2.46,2.32-4.22,2.71
		C60.5,61.93,63.07,64.26,64.2,68.23z M55.48,71.41c2.06-0.02,4.03-0.46,5.91-1.31c0.35-0.16,0.45-0.35,0.4-0.73
		c-0.44-3.22-3.11-5.59-6.31-5.6c-3.2-0.01-5.87,2.35-6.34,5.57c-0.06,0.41,0.06,0.61,0.43,0.77C51.45,70.95,53.41,71.4,55.48,71.41
		z M59.28,54.87c0-2.1-1.7-3.81-3.79-3.82c-2.1-0.01-3.82,1.68-3.84,3.77c-0.02,2.12,1.71,3.86,3.82,3.86
		C57.56,58.67,59.27,56.96,59.28,54.87z"/>
	<path class="st1" d="M28,57.91c-0.38,4.99,2.46,8.99,7.05,9.99c0.56,0.12,1.13,0.15,1.7,0.19c0.83,0.05,1.38,0.54,1.39,1.27
		c0.01,0.73-0.55,1.28-1.37,1.28c-3.54,0.01-7.08,0.07-10.62-0.02c-5.87-0.15-10.8-5.2-10.91-11.07c-0.01-0.52,0-1.05,0-1.63
		c-0.42,0-0.78-0.01-1.13,0c-0.56,0.01-1-0.19-1.27-0.69c-0.29-0.53-0.15-1.02,0.2-1.48c1.82-2.42,3.64-4.85,5.46-7.27
		c0.65-0.86,1.29-1.73,1.95-2.59c0.72-0.94,1.59-0.95,2.3-0.02c2.48,3.28,4.94,6.58,7.41,9.86c0.34,0.46,0.5,0.94,0.21,1.48
		c-0.28,0.53-0.74,0.73-1.32,0.71C28.71,57.91,28.37,57.91,28,57.91z M26.65,55.32c-1.69-2.25-3.35-4.47-5.06-6.74
		c-1.71,2.28-3.37,4.49-5.04,6.72c1.02,0.4,1.22,0.69,1.22,1.73c0,0.66,0,1.32,0,1.97c0.03,5.78,4.7,10.09,11.76,8.99
		c-0.12-0.11-0.23-0.21-0.33-0.31c-1.75-1.61-3.01-3.54-3.45-5.88c-0.28-1.53-0.23-3.12-0.34-4.68
		C25.35,56.21,25.64,55.55,26.65,55.32z"/>
	<path class="st2" d="M50.82,24.82c0.59-5.48-3.28-9.96-8.72-10.18c-0.86-0.03-1.43-0.56-1.4-1.31c0.02-0.73,0.58-1.23,1.42-1.23
		c3.48-0.01,6.96-0.05,10.44,0.03c1.08,0.02,2.17,0.31,3.24,0.58c0.85,0.21,1.19,0.92,0.95,1.65c-0.23,0.68-0.92,1.02-1.72,0.75
		c-1.86-0.64-3.76-0.43-5.76-0.33c0.14,0.11,0.3,0.2,0.43,0.32c2.41,2.26,3.66,5.04,3.73,8.35c0.02,0.7-0.03,1.4,0.01,2.1
		c0.05,0.93-0.19,1.63-1.24,1.87c1.69,2.25,3.34,4.45,5.05,6.74c1.69-2.25,3.35-4.46,5.05-6.73c-1.07-0.24-1.29-0.97-1.25-1.91
		c0.04-0.89,0-1.78-0.01-2.67c-0.01-0.87,0.42-1.41,1.16-1.46c0.77-0.05,1.32,0.46,1.38,1.34c0.04,0.67,0.01,1.35,0.01,2.11
		c0.39,0,0.72,0.01,1.06,0c0.6-0.03,1.09,0.16,1.38,0.72c0.29,0.57,0.09,1.06-0.27,1.53c-1.93,2.56-3.84,5.12-5.77,7.68
		c-0.55,0.73-1.08,1.47-1.65,2.18c-0.65,0.83-1.55,0.85-2.18,0c-2.51-3.32-4.99-6.64-7.49-9.97c-0.33-0.44-0.46-0.91-0.2-1.42
		c0.27-0.53,0.73-0.74,1.31-0.72C50.11,24.83,50.45,24.82,50.82,24.82z"/>
	<path class="st2" d="M60.17,18.58c-0.7,0-1.28-0.6-1.27-1.3c0.02-0.68,0.59-1.24,1.27-1.23c0.7,0,1.29,0.6,1.27,1.3
		C61.42,18.02,60.85,18.58,60.17,18.58z"/>
</g>
</svg>
