<?xml version="1.0" encoding="utf-8"?>
<!-- Generator: Adobe Illustrator 24.0.0, SVG Export Plug-In . SVG Version: 6.00 Build 0)  -->
<svg version="1.1" id="Capa_1" xmlns="http://www.w3.org/2000/svg" xmlns:xlink="http://www.w3.org/1999/xlink" x="0px" y="0px"
	 viewBox="0 0 200 200" style="enable-background:new 0 0 200 200;" xml:space="preserve">
<style type="text/css">
	.st0{fill:#1C3247;}
	.st1{fill:#ACAEAF;}
	.st2{fill:#FE9900;}
</style>
<g>
	<path class="st0" d="M182.5,101c-0.6,0.5-1.2,1.1-1.9,1.3c-1.2,0.4-2.4,0-2.9-1.3c-0.4-1.3-0.2-2.5,1-3.2c1.2-0.7,2.3-0.5,3.2,0.6
		c0.2,0.2,0.4,0.5,0.6,0.8C182.5,99.7,182.5,100.3,182.5,101z"/>
	<path class="st1" d="M105.2,17.3c0.3,0.2,0.7,0.3,1,0.5c1.1,0.7,1.5,1.7,1.1,2.9c-0.4,1.1-1.2,1.8-2.4,1.7c-1.3-0.1-2.1-0.7-2.4-2
		c-0.2-1.3,0.3-2.2,1.5-2.7c0.3-0.1,0.6-0.2,0.9-0.4C104.9,17.3,105,17.3,105.2,17.3z"/>
	<path class="st1" d="M94.8,182.7c-0.8-0.7-1.8-1.2-2.2-2.1c-0.6-1.2,0.3-2.5,1.6-2.9c1.2-0.4,2.6,0.2,3.1,1.4
		c0.5,1.2,0,2.5-1.1,3.2c-0.3,0.2-0.7,0.3-1,0.5C95,182.7,94.9,182.7,94.8,182.7z"/>
	<path class="st0" d="M170.1,58.7c1.4,0,2.5,1.2,2.5,2.6c0,1.3-1.1,2.4-2.5,2.4c-1.4,0-2.5-1.2-2.4-2.6
		C167.7,59.8,168.8,58.7,170.1,58.7z"/>
	<path class="st1" d="M97.4,20c0,1.3-1.2,2.4-2.5,2.5c-1.4,0-2.6-1.2-2.5-2.6c0.1-1.3,1.2-2.4,2.6-2.4C96.3,17.5,97.4,18.7,97.4,20z
		"/>
	<path class="st1" d="M117.4,21.1c0,1.3-1.1,2.5-2.4,2.5c-1.3,0.1-2.6-1.1-2.6-2.5c0-1.3,1.1-2.5,2.4-2.5
		C116.2,18.6,117.4,19.8,117.4,21.1z"/>
	<path class="st1" d="M68.3,27.3c0.1,1.4-1.1,2.6-2.5,2.6c-1.4,0-2.5-1-2.5-2.4c-0.1-1.4,1.1-2.5,2.5-2.6C67.2,25,68.3,26,68.3,27.3
		z"/>
	<path class="st0" d="M28,70.5c0,1.3-1.1,2.5-2.4,2.6c-1.3,0.1-2.5-1-2.6-2.3c-0.1-1.4,1.1-2.6,2.5-2.7C26.8,68,28,69.1,28,70.5z"/>
	<path class="st1" d="M127.2,176.3c0,1.3-1.1,2.5-2.4,2.5c-1.4,0-2.6-1.1-2.6-2.5c0-1.3,1.1-2.4,2.5-2.5
		C126.1,173.8,127.2,174.9,127.2,176.3z"/>
	<path class="st1" d="M84.9,176.3c1.3,0,2.5,1,2.5,2.4c0.1,1.4-1,2.6-2.4,2.7c-1.3,0-2.5-1-2.5-2.4
		C82.5,177.5,83.5,176.3,84.9,176.3z"/>
	<path class="st0" d="M174.5,127.1c1.4,0,2.4,1.1,2.4,2.5c0,1.4-1.1,2.5-2.5,2.5c-1.4,0-2.6-1.2-2.5-2.6
		C172,128.1,173.1,127.1,174.5,127.1z"/>
	<path class="st0" d="M174.4,67.8c1.4,0,2.5,1.2,2.5,2.6c0,1.3-1.1,2.4-2.5,2.4c-1.4,0-2.5-1.2-2.5-2.6
		C171.9,68.9,173.1,67.8,174.4,67.8z"/>
	<path class="st0" d="M24.9,120c0,1.4-1.1,2.5-2.4,2.5c-1.4,0-2.5-1.2-2.5-2.6c0-1.4,1.2-2.4,2.5-2.4
		C23.9,117.5,24.9,118.7,24.9,120z"/>
	<path class="st0" d="M23,90c0,1.4-1.1,2.5-2.4,2.5c-1.3,0-2.5-1.1-2.5-2.4c0-1.4,1.1-2.6,2.5-2.6C22,87.5,23,88.6,23,90z"/>
	<path class="st1" d="M117.5,178.8c0,1.4-1.1,2.5-2.4,2.5c-1.4,0-2.5-1-2.5-2.4c0-1.4,1.1-2.6,2.5-2.6
		C116.4,176.3,117.5,177.4,117.5,178.8z"/>
	<path class="st1" d="M84.9,23.7c-1.3,0-2.5-1.2-2.5-2.5c0-1.4,1.2-2.6,2.6-2.5c1.3,0.1,2.4,1.2,2.4,2.6
		C87.3,22.6,86.2,23.7,84.9,23.7z"/>
	<path class="st1" d="M136.4,27.3c0,1.4-1,2.5-2.4,2.5c-1.4,0-2.6-1.1-2.5-2.5c0-1.4,1.1-2.5,2.5-2.4
		C135.3,24.9,136.4,26,136.4,27.3z"/>
	<path class="st0" d="M25.5,132.1c-1.4,0-2.5-1.2-2.4-2.6c0.1-1.4,1.2-2.4,2.5-2.3c1.4,0,2.5,1.2,2.5,2.6
		C28,131,26.9,132.1,25.5,132.1z"/>
	<path class="st1" d="M77.7,23.7c0,1.3-1.2,2.5-2.5,2.5c-1.4,0-2.6-1.2-2.5-2.6c0.1-1.3,1.3-2.4,2.6-2.4
		C76.5,21.3,77.7,22.4,77.7,23.7z"/>
	<path class="st1" d="M75.3,173.8c1.4,0,2.4,1.1,2.4,2.5c0,1.4-1.2,2.6-2.6,2.5c-1.3-0.1-2.4-1.2-2.4-2.6
		C72.9,174.8,74,173.8,75.3,173.8z"/>
	<path class="st0" d="M181.9,110.1c0,1.3-1.1,2.5-2.4,2.5c-1.3,0-2.5-1.1-2.5-2.4c0-1.5,1.1-2.6,2.5-2.6
		C180.8,107.6,181.9,108.7,181.9,110.1z"/>
	<path class="st0" d="M24.9,80.2c0,1.4-1.1,2.4-2.5,2.4c-1.4,0-2.4-1-2.5-2.4c0-1.5,1.1-2.6,2.5-2.5C23.9,77.7,24.9,78.8,24.9,80.2z
		"/>
	<path class="st0" d="M180,120c0,1.4-1.1,2.5-2.5,2.4c-1.4,0-2.4-1.1-2.4-2.5c0-1.4,1.2-2.6,2.6-2.5C179,117.5,180,118.6,180,120z"
		/>
	<path class="st0" d="M180,80c0,1.4-1.1,2.4-2.5,2.4c-1.4,0-2.4-1.1-2.4-2.5c0-1.4,1.2-2.6,2.6-2.5C179,77.5,180,78.6,180,80z"/>
	<path class="st1" d="M32.3,138.8c0,1.4-1.1,2.4-2.5,2.4c-1.4,0-2.4-1.1-2.4-2.5c0-1.4,1.2-2.6,2.6-2.5
		C31.3,136.3,32.4,137.4,32.3,138.8z"/>
	<path class="st1" d="M134.2,170.1c1.4,0,2.4,1.1,2.4,2.5c0,1.4-1.1,2.4-2.5,2.4c-1.4,0-2.6-1.2-2.5-2.6
		C131.7,171.1,132.8,170.1,134.2,170.1z"/>
	<path class="st0" d="M22.4,100.1c0,1.4-1.1,2.5-2.4,2.5c-1.4,0-2.6-1.1-2.5-2.6c0-1.3,1.2-2.4,2.5-2.4
		C21.3,97.6,22.4,98.7,22.4,100.1z"/>
	<path class="st0" d="M170.1,141.1c-1.3,0-2.4-1.1-2.4-2.5c0-1.3,1.1-2.5,2.4-2.5c1.4,0,2.5,1.1,2.5,2.5
		C172.6,140.1,171.5,141.1,170.1,141.1z"/>
	<path class="st1" d="M122.2,23.6c0-1.4,1.1-2.4,2.5-2.4c1.4,0,2.5,1.2,2.5,2.6c-0.1,1.4-1.2,2.4-2.6,2.3
		C123.1,26.1,122.1,25,122.2,23.6z"/>
	<path class="st0" d="M181.9,89.7c0,1.4-1,2.5-2.4,2.5c-1.4,0.1-2.6-1-2.6-2.5c0-1.4,1-2.4,2.4-2.5
		C180.7,87.3,181.8,88.4,181.9,89.7z"/>
	<path class="st1" d="M68.4,172.6c0,1.4-1,2.5-2.4,2.5c-1.4,0-2.5-1-2.5-2.4c-0.1-1.4,1.1-2.6,2.5-2.6
		C67.3,170.1,68.4,171.2,68.4,172.6z"/>
	<path class="st1" d="M107.5,180.1c0,1.4-1.1,2.4-2.5,2.4c-1.4,0-2.4-1.1-2.4-2.5c0-1.4,1.2-2.6,2.6-2.5
		C106.5,177.6,107.5,178.8,107.5,180.1z"/>
	<path class="st0" d="M20.5,107.7c1.4,0,2.5,0.9,2.5,2.4c0.1,1.4-0.9,2.5-2.3,2.6c-1.4,0.1-2.6-1-2.6-2.4
		C18.1,108.8,19.1,107.7,20.5,107.7z"/>
	<path class="st1" d="M29.9,58.9c1.4,0,2.4,1.1,2.4,2.5c0,1.4-1.2,2.5-2.6,2.4c-1.4-0.1-2.4-1.2-2.3-2.6
		C27.4,60,28.5,58.9,29.9,58.9z"/>
	<g>
		<path class="st1" d="M75.2,26.2c1.3,0,2.5-1.2,2.5-2.5c0-1.3-1.1-2.5-2.5-2.5c-1.3,0-2.5,1.1-2.6,2.4C72.6,25,73.8,26.3,75.2,26.2
			z"/>
		<path class="st1" d="M65.8,29.9c1.4,0,2.6-1.2,2.5-2.6c0-1.3-1.2-2.4-2.5-2.4c-1.4,0-2.6,1.2-2.5,2.6
			C63.4,28.9,64.5,29.9,65.8,29.9z"/>
		<path class="st0" d="M25.6,73c1.3-0.1,2.4-1.3,2.4-2.6c0-1.3-1.2-2.4-2.5-2.4c-1.4,0-2.6,1.3-2.5,2.7C23.1,72,24.3,73.1,25.6,73z"
			/>
		<path class="st1" d="M94.9,22.4c1.3,0,2.5-1.1,2.5-2.5c0-1.3-1.1-2.5-2.4-2.5c-1.4,0-2.5,1-2.6,2.4C92.3,21.2,93.5,22.5,94.9,22.4
			z"/>
		<path class="st1" d="M84.9,23.7c1.3,0,2.5-1.1,2.5-2.4c0-1.3-1.1-2.5-2.4-2.6c-1.4-0.1-2.6,1.1-2.6,2.5
			C82.4,22.5,83.5,23.7,84.9,23.7z"/>
		<path class="st0" d="M22.4,82.6c1.4,0,2.4-1.1,2.5-2.4c0-1.4-1-2.5-2.4-2.5c-1.4,0-2.5,1-2.5,2.5C20,81.6,21,82.6,22.4,82.6z"/>
		<path class="st0" d="M20.6,92.5c1.3,0,2.4-1.1,2.4-2.5c0-1.4-1-2.5-2.4-2.5c-1.4,0-2.6,1.2-2.5,2.6C18.1,91.4,19.3,92.6,20.6,92.5
			z"/>
		<path class="st0" d="M29.9,58.9c-1.4,0-2.5,1-2.5,2.4c-0.1,1.4,0.9,2.5,2.3,2.6c1.4,0.1,2.6-1,2.6-2.4
			C32.3,60.1,31.2,59,29.9,58.9z"/>
		<path class="st0" d="M27.4,138.7c0,1.4,1,2.5,2.4,2.5c1.4,0,2.5-1,2.5-2.4c0-1.4-1-2.5-2.3-2.6C28.6,136.1,27.4,137.2,27.4,138.7z
			"/>
		<path class="st0" d="M172.6,61.3c0-1.4-1.1-2.6-2.5-2.6c-1.3,0-2.4,1.1-2.5,2.4c0,1.4,1.1,2.6,2.4,2.6
			C171.4,63.7,172.5,62.7,172.6,61.3z"/>
		<path class="st0" d="M170.1,141.1c1.4,0,2.4-1,2.5-2.4c0-1.4-1.1-2.6-2.5-2.5c-1.3,0-2.4,1.2-2.4,2.5
			C167.7,140,168.8,141.1,170.1,141.1z"/>
		<path class="st0" d="M171.9,70.3c0,1.4,1.1,2.6,2.5,2.6c1.3,0,2.4-1.1,2.5-2.4c0-1.4-1.1-2.6-2.5-2.6
			C173.1,67.8,171.9,68.9,171.9,70.3z"/>
		<path class="st0" d="M175.1,79.9c0,1.4,1,2.5,2.4,2.5c1.4,0,2.5-1,2.5-2.4c0-1.4-1-2.5-2.3-2.6C176.2,77.3,175.1,78.5,175.1,79.9z
			"/>
		<path class="st0" d="M176.9,89.8c0,1.4,1.1,2.5,2.6,2.5c1.4-0.1,2.4-1.2,2.4-2.5c0-1.4-1.1-2.4-2.5-2.4
			C178,87.3,176.9,88.4,176.9,89.8z"/>
		<path class="st1" d="M124.5,26.1c1.4,0,2.5-1,2.6-2.3c0.1-1.4-1-2.6-2.5-2.6c-1.4,0-2.4,1.1-2.5,2.4
			C122.1,25,123.1,26.1,124.5,26.1z"/>
		<path class="st0" d="M20,102.6c1.3,0,2.4-1.1,2.4-2.5c0-1.4-1.1-2.5-2.4-2.5c-1.3,0-2.5,1.1-2.5,2.4
			C17.4,101.4,18.6,102.6,20,102.6z"/>
		<path class="st1" d="M115,23.7c1.3-0.1,2.4-1.2,2.4-2.5c0-1.4-1.2-2.5-2.6-2.5c-1.3,0.1-2.4,1.2-2.4,2.5
			C112.4,22.6,113.6,23.7,115,23.7z"/>
		<path class="st1" d="M134.1,29.9c1.4,0,2.4-1.2,2.4-2.5c0-1.4-1.1-2.4-2.5-2.5c-1.4,0-2.4,1-2.5,2.4
			C131.5,28.7,132.7,29.9,134.1,29.9z"/>
		<path class="st0" d="M179.4,107.6c-1.4,0-2.5,1.1-2.5,2.6c0,1.3,1.2,2.4,2.5,2.4c1.3,0,2.4-1.2,2.4-2.5
			C181.9,108.7,180.8,107.6,179.4,107.6z"/>
		<path class="st1" d="M134.2,170.1c-1.4,0-2.5,1-2.6,2.4c-0.1,1.4,1.1,2.6,2.5,2.6c1.4,0,2.5-1.1,2.5-2.4
			C136.6,171.3,135.5,170.1,134.2,170.1z"/>
		<path class="st1" d="M124.7,173.8c-1.4,0-2.5,1.1-2.5,2.5c0,1.4,1.2,2.6,2.6,2.5c1.3,0,2.4-1.2,2.4-2.5
			C127.2,174.9,126.1,173.8,124.7,173.8z"/>
		<path class="st0" d="M20.7,112.6c1.4-0.1,2.4-1.2,2.3-2.6c-0.1-1.4-1.1-2.4-2.5-2.4c-1.4,0-2.4,1.1-2.4,2.5
			C18.1,111.6,19.3,112.7,20.7,112.6z"/>
		<path class="st1" d="M115,176.3c-1.4,0-2.5,1.2-2.5,2.6c0,1.4,1.2,2.4,2.5,2.4c1.4,0,2.4-1.1,2.4-2.5
			C117.5,177.4,116.4,176.3,115,176.3z"/>
		<path class="st0" d="M174.5,127.1c-1.4,0-2.5,1-2.5,2.4c-0.1,1.4,1.1,2.6,2.5,2.6c1.4,0,2.5-1.1,2.5-2.5
			C177,128.2,175.9,127.1,174.5,127.1z"/>
		<path class="st0" d="M177.7,117.5c-1.4-0.1-2.6,1.1-2.6,2.5c0,1.4,1.1,2.5,2.4,2.5c1.4,0,2.4-1.1,2.5-2.4
			C180,118.6,179,117.5,177.7,117.5z"/>
		<path class="st1" d="M75.3,173.8c-1.4,0-2.5,1-2.5,2.4c0,1.4,1,2.5,2.4,2.6c1.4,0.1,2.6-1.1,2.6-2.5
			C77.8,174.9,76.7,173.9,75.3,173.8z"/>
		<path class="st0" d="M28.1,129.7c0.1-1.4-1.1-2.6-2.5-2.6c-1.4,0-2.5,1-2.5,2.3c-0.1,1.4,1,2.6,2.4,2.6
			C26.9,132.1,28,131,28.1,129.7z"/>
		<path class="st0" d="M24.9,120c0-1.4-1-2.5-2.4-2.5c-1.3,0-2.5,1-2.5,2.4c0,1.4,1.1,2.6,2.5,2.6C23.8,122.5,24.9,121.4,24.9,120z"
			/>
		<path class="st1" d="M105.2,177.6c-1.4-0.1-2.6,1.1-2.6,2.5c0,1.4,1.1,2.4,2.4,2.5c1.4,0,2.5-1,2.5-2.4
			C107.5,178.8,106.5,177.6,105.2,177.6z"/>
		<path class="st1" d="M65.9,170.1c-1.4,0-2.5,1.2-2.5,2.6c0.1,1.4,1.1,2.4,2.5,2.4c1.4,0,2.4-1.1,2.4-2.5
			C68.4,171.2,67.3,170.1,65.9,170.1z"/>
		<path class="st1" d="M84.9,176.3c-1.4,0-2.5,1.2-2.4,2.7c0.1,1.3,1.2,2.4,2.5,2.4c1.4,0,2.5-1.2,2.4-2.7
			C87.4,177.3,86.3,176.3,84.9,176.3z"/>
		<path class="st1" d="M162.2,142.4c-5.1-1.1-9.8,0.1-13.7,3c-3-3-5.9-5.9-8.8-8.9c9-10.1,14-22,14.2-35.9
			c0.2-13.9-4.6-26-13.4-36.3c3.1-3.1,6-6,9-9c9.4,5.6,18.7,1.4,22.8-4.7c4.6-6.8,3.6-16.1-2.5-21.6c-6.2-5.6-15.5-5.9-21.8-0.6
			c-5.9,4.9-8.8,14.4-2.7,23.1c-2.9,2.9-5.8,5.8-8.6,8.6c-24.6-19-49.1-19-73.6,0c-2.8-2.8-5.6-5.7-8.5-8.6
			c6.1-8.6,3.2-18.1-2.6-22.9c-6.2-5.2-15.4-5.1-21.6,0.3c-6.2,5.5-7.5,14.7-3,21.7c3.9,5.9,13.1,10.7,22.9,5c3,3,6,6,9,9
			c0,0-0.2,0.2-0.4,0.5c-3.1,3.7-5.7,7.6-7.8,12c-0.9,1.9,0.1,3.7,1.9,3.8c1.5,0.1,2.2-0.9,2.8-2.1c10.1-20.2,30.6-30.6,52.8-26.9
			c26.6,4.5,44.8,31.5,39.1,58c-5.5,25.5-28.7,42.3-54.4,38.6c-20.3-2.9-33.7-14.8-40.3-34.2c-2.5-7.4-2.7-15.1-1.4-22.8
			c0.4-2.2-0.3-3.5-1.9-3.8c-1.6-0.3-2.6,0.7-3,2.8c-2.8,16.9,1.3,31.9,12.3,45c0.4,0.5,0.8,1,1.1,1.3c-3,3-5.9,5.9-8.8,8.8
			c-9.3-6.6-18.9-2.8-23.3,2.8c-5,6.4-4.8,15.4,0.6,21.5c5.4,6.1,14.4,7.3,21.3,2.9c7.7-4.9,9.5-13.1,5.1-23.2c3-3,6-6,9-9
			c10.1,8.7,22,13.4,35.5,13.4c13.6,0,25.5-4.7,35.7-13.5c3,3,6,6,9,9c-4.4,9.8-2.8,18,4.7,23.1c6.7,4.5,15.9,3.5,21.4-2.4
			c5.6-6,6.1-15,1.2-21.5C169.4,145.4,166.1,143.3,162.2,142.4z M158.6,29.6c6.3,0,11.6,5.3,11.6,11.6c0,6.4-5.3,11.7-11.7,11.7
			c-6.4,0-11.6-5.2-11.6-11.6C146.9,34.9,152.2,29.6,158.6,29.6z M41.5,52.9c-6.4,0.1-11.8-5.1-11.8-11.6c0-6.4,5.3-11.8,11.7-11.7
			c6.4,0,11.6,5.2,11.6,11.6C53.1,47.7,48,52.9,41.5,52.9z M41.3,170.4c-6.4-0.1-11.7-5.5-11.5-11.9c0.1-6.5,5.5-11.6,12-11.4
			c6.4,0.2,11.4,5.4,11.3,11.8C52.9,165.3,47.6,170.5,41.3,170.4z M158.6,170.4c-6.4,0-11.7-5.3-11.6-11.7c0-6.4,5.2-11.6,11.6-11.6
			c6.5,0,11.7,5.3,11.7,11.7C170.2,165.1,165,170.4,158.6,170.4z"/>
	</g>
	<g>
		<path class="st2" d="M129.1,121.6c-1.4-5.9-4.3-10.9-8.8-14.9c-2.2-2-4.8-3.6-7.2-5.4c2.4-3,3.9-6.6,4-10.8c0-6.1,0.1-12.3,0-18.4
			c-0.1-6-4.7-10.7-10.7-10.9c-4.2-0.1-8.5-0.1-12.7,0C87.6,61.3,83,66,82.9,72c-0.1,6.2,0,12.4,0,18.6c0,3.6,1.2,6.8,3.3,9.8
			c0.3,0.4,0.5,0.7,0.8,1.2c-0.5,0.3-1,0.5-1.4,0.8c-7.7,4.4-12.6,10.9-14.8,19.5c-1,4,0.5,8.1,4,10.3c4,2.5,8.3,4.2,12.9,5.3
			c1.3,0.3,2.5-0.5,2.9-1.7c0.4-1.2-0.2-2.5-1.5-3c-0.4-0.2-0.9-0.3-1.4-0.4c-3.1-1.3-6.3-2.4-9.4-3.8c-2.3-1-3.2-3.1-2.7-5.3
			c2-8.1,6.9-14,14.5-17.4c0.7-0.3,1.7-0.2,2.3,0.1c5,2.2,10,2.3,15,0c0.7-0.3,1.7-0.4,2.4-0.1c7.3,3.2,12.1,8.8,14.3,16.5
			c0.9,3.1,0,5-2.8,6.5c-6.5,3.4-13.5,5.1-20.9,5.3c-1.8,0-2.9,1-2.9,2.5c0,1.4,1.1,2.4,2.8,2.4c8.7,0,16.8-2.1,24.3-6.4
			C128.5,130.2,130.2,125.9,129.1,121.6z M87.9,71.4c0.3-3,2.8-5.2,5.8-5.2c4.1-0.1,8.3-0.1,12.4,0c3.2,0.1,5.6,2.3,6,5.5
			c0.1,0.5,0.1,1.1,0.1,1.6c0,1.7,0,3.3,0,5c-1.7-0.7-3.3-1.4-4.9-1.8c-3.6-1.1-7.2-0.8-10.8,0.4c-2.8,1-5.7,1.9-8.6,2.8
			C87.9,76.8,87.7,74.1,87.9,71.4z M111.7,93.2c-1.5,6-7,9.7-13.3,9c-5.7-0.6-10.3-5.5-10.7-11.6c-0.1-1.6-0.1-3.1,0-4.7
			c0-0.5,0.5-1.1,1-1.3c3.3-1.2,6.7-2.3,10.1-3.3c4.7-1.4,8.9-0.1,12.7,2.8c0.3,0.2,0.5,0.8,0.6,1.2c0.1,0.9,0,1.8,0,2.7
			c0.1,0,0.1,0,0.2,0C112.2,89.8,112.2,91.6,111.7,93.2z"/>
	</g>
</g>
</svg>
