<?xml version="1.0" encoding="utf-8"?>
<!-- Generator: Adobe Illustrator 24.0.0, SVG Export Plug-In . SVG Version: 6.00 Build 0)  -->
<svg version="1.1" id="Capa_1" xmlns="http://www.w3.org/2000/svg" xmlns:xlink="http://www.w3.org/1999/xlink" x="0px" y="0px"
	 viewBox="0 0 200 200" style="enable-background:new 0 0 200 200;" xml:space="preserve">
<style type="text/css">
	.st0{fill:#ACAEAF;}
	.st1{fill:#F39717;}
	.st2{fill:#1D3347;}
</style>
<g>
	<path class="st0" d="M6.9,141.8c0.8-0.7,1.5-1.5,2.4-2c8.4-4.9,16.8-9.7,25.3-14.6c2.7-1.5,3.9-1.2,5.5,1.5c0.6,1.1,1.3,2.2,2,3.5
		c0.7-0.4,1.2-0.7,1.8-1c6.6-3.8,13.2-7.5,19.7-11.3c4.2-2.4,8.6-3.2,13.3-2.7c10.7,1.1,21.4,2,32.1,3.1c8.3,0.9,16.6,1.8,24.9,2.9
		c4.5,0.6,5.5,1.4,7.5,5.4c8.2-3.2,16.5-6.4,24.7-9.5c2.9-1.1,5.9-2.2,8.8-3.3c4.9-1.9,9.3-0.7,12.3,3.4c2.9,4,2.8,9.4-0.4,13.2
		c-0.6,0.8-1.4,1.5-2.2,2.1c-17,12.5-34,24.9-50.9,37.4c-4.8,3.5-9.6,6.9-15.6,7.7c-3.2,0.4-6.6,0.5-9.7-0.3
		c-12.6-3.3-25.1-7-37.7-10.5c-1.4-0.4-2.8-0.8-4.2-0.9c-1.1-0.1-2.2,0.2-3.8,0.4c1.3,2.2,2.3,4,3.3,5.8c1.5,2.6,1.1,3.8-1.4,5.2
		c-8.3,4.8-16.5,9.5-24.8,14.3c-3.5,2-4.3,1.8-6.3-1.7c-8.9-15.4-17.8-30.8-26.7-46.2C6.9,143,6.9,142.4,6.9,141.8z M60.1,161.6
		c3.7-2.7,7.5-1.8,11.4-0.7c12.6,3.5,25.1,7.1,37.6,10.6c3.7,1,7.4,1.1,10.8-0.4c3.3-1.5,6.5-3.2,9.4-5.3
		c17.3-12.6,34.6-25.3,51.9-38c0.3-0.2,0.7-0.5,0.9-0.8c1.7-1.8,1.9-4.4,0.6-6.4c-1.4-2-3.2-2.6-5.7-1.6
		c-11.8,4.6-23.6,9.3-35.4,13.8c-1.9,0.7-3.3,1.8-4.6,3.4c-1.2,1.6-2.6,3.2-4.2,4.4c-1.2,0.9-2.8,1.5-4.3,1.7
		c-3.5,0.4-7,0.3-10.5,0.7c-9.6,0.9-19.1,1.9-28.7,2.9c-1.5,0.1-2.7-0.8-3.1-2.1c-0.3-1.5,0.4-2.9,1.9-3.4c0.7-0.2,1.4-0.4,2.1-0.4
		c12.4-1.1,24.7-2.1,37.1-3.2c1-0.1,2.1-0.5,2.7-1.2c1.8-1.9,3.4-4,5-6c1.1-1.5,0.9-2.2-1-2.5c-2.7-0.5-5.4-0.9-8.1-1.2
		c-16.6-1.7-33.3-3.3-49.9-5c-3.6-0.4-6.8,0.3-9.9,2.1c-5.6,3.3-11.2,6.5-16.8,9.7c-1.4,0.8-2.9,1.6-4.4,2.5
		C50,144,55,152.7,60.1,161.6z M60.2,173.2C52,159,44,145,35.9,131c-7.5,4.3-14.8,8.5-22.3,12.8c8.1,14.1,16.2,28.1,24.3,42.2
		C45.4,181.7,52.7,177.5,60.2,173.2z"/>
	<path class="st0" d="M187.5,10.3c1.5,1,1.8,2.4,1.8,4.1c0,24,0,48,0,72c0,3.3-0.8,4.1-4.1,4.1c-14,0-27.9,0-41.9,0
		c-1.3,0-2,0.4-2.6,1.5c-3.7,6.6-7.5,13.1-11.3,19.6c-1.8,3.1-4.1,3.1-5.9,0.1c-3.7-6.5-7.5-12.9-11.2-19.4
		c-0.7-1.2-1.4-1.7-2.9-1.7c-13.9,0.1-27.8,0-41.7,0c-3.3,0-4.1-0.8-4.1-4.1c0-24.1,0-48.1,0-72.2c0-1.8,0.4-3.1,2-4
		C106.3,10.3,146.9,10.3,187.5,10.3z M183.5,16.1c-38.1,0-76.1,0-114,0c0,22.9,0,45.8,0,68.7c0.9,0,1.6,0,2.3,0
		c13.3,0,26.6,0,39.9,0c2.2,0,3.5,0.8,4.5,2.7c3,5.4,6.2,10.8,9.3,16.2c0.3,0.5,0.6,0.9,1,1.5c0.4-0.7,0.7-1.2,1-1.7
		c3.1-5.3,6.2-10.5,9.1-15.9c1.1-2,2.5-2.8,4.8-2.8c13.3,0.1,26.6,0,39.9,0c0.7,0,1.4,0,2.1,0C183.5,61.8,183.5,39,183.5,16.1z"/>
	<path class="st1" d="M99.6,74.6c-13.3-0.1-24.1-11-24-24.3c0.1-13.4,10.9-24.1,24.4-24.1c13.3,0.1,24.1,10.9,24,24.2
		C124,63.9,113,74.7,99.6,74.6z M99.8,68.9c10.2,0,18.5-8.2,18.5-18.4c0-10.2-8.2-18.5-18.4-18.5c-10.4,0-18.6,8.3-18.6,18.7
		C81.4,60.7,89.7,68.9,99.8,68.9z"/>
	<path class="st0" d="M154.4,25.2c6.5,0,12.9,0,19.4,0c2.3,0,3.5,1,3.5,2.9c0,1.8-1.3,2.8-3.6,2.8c-12.9,0-25.9,0-38.8,0
		c-1.4,0-2.8-0.3-3.2-1.7c-0.3-0.8-0.3-2.2,0.2-2.8c0.6-0.7,1.9-1.2,2.9-1.2C141.3,25.2,147.8,25.2,154.4,25.2z"/>
	<path class="st0" d="M154.3,55c6.3,0,12.6,0,18.9,0c0.7,0,1.3,0,1.9,0.1c1.4,0.3,2.1,1.2,2.2,2.6c0,1.4-0.7,2.4-2,2.8
		c-0.7,0.2-1.4,0.2-2.1,0.2c-12.5,0-25,0-37.6,0c-0.2,0-0.4,0-0.5,0c-2.4,0-3.7-1.1-3.7-2.9c0-1.8,1.4-2.8,3.8-2.8
		C141.5,55,147.9,55,154.3,55z"/>
	<path class="st0" d="M154.4,40.1c6.5,0,13.1,0,19.6,0c1.5,0,2.7,0.5,3.2,2c0.5,1.7-0.4,3.3-2.2,3.6c-0.9,0.2-1.8,0.1-2.7,0.1
		c-12.1,0-24.2,0-36.3,0c-0.5,0-1.1,0-1.6,0c-1.9-0.1-3.2-1.4-3.1-3c0.1-1.6,1.3-2.7,3.2-2.7C141.1,40.1,147.7,40.1,154.4,40.1z"/>
	<path class="st0" d="M154.3,75.6c-6.5,0-12.9,0-19.4,0c-0.9,0-2.1-0.3-2.8-0.9c-1.6-1.3-0.9-3.9,1.1-4.6c0.7-0.2,1.5-0.2,2.3-0.2
		c12.5,0,25,0,37.6,0c0.4,0,0.7,0,1.1,0c2,0.1,3.2,1.2,3.1,2.9c0,1.7-1.2,2.8-3.2,2.8C167.5,75.6,160.9,75.6,154.3,75.6z"/>
	<path class="st2" d="M96.1,52.8c4.4-3.6,8.7-7.2,13.1-10.6c0.8-0.6,2-1,2.9-0.9c0.8,0.1,1.9,1.1,2,1.9c0.1,1-0.3,2.4-1,3.1
		c-3.1,2.8-6.5,5.4-9.7,8.1c-1.8,1.5-3.7,3-5.5,4.5c-1.9,1.5-3.4,1.3-4.8-0.6c-1.7-2.3-3.4-4.7-5.1-7c-1.2-1.7-1.1-3.4,0.3-4.4
		c1.4-1,3.1-0.6,4.3,1C93.7,49.4,94.9,51,96.1,52.8z"/>
</g>
</svg>
