<?xml version="1.0" encoding="utf-8"?>
<!-- Generator: Adobe Illustrator 24.0.0, SVG Export Plug-In . SVG Version: 6.00 Build 0)  -->
<svg version="1.1" id="Capa_1" xmlns="http://www.w3.org/2000/svg" xmlns:xlink="http://www.w3.org/1999/xlink" x="0px" y="0px"
	 viewBox="0 0 200 200" style="enable-background:new 0 0 200 200;" xml:space="preserve">
<style type="text/css">
	.st0{fill:#ACAEAF;}
	.st1{fill:#1C3247;}
	.st2{fill:#FE9900;}
</style>
<g>
	<path class="st0" d="M190.9,163c-1,1.9-2.6,2.5-4.8,2.5c-9.5-0.1-18.9,0-28.4-0.1c-1.1,0-2.5-0.5-3.4-1.1c-1.1-0.8-1.3-2.2-0.8-3.6
		c0.6-1.5,1.8-2.3,3.4-2.3c4.7,0,9.5,0,14.2,0c4.1,0,8.3,0,12.6,0c0-8,0-15.9,0-24c-0.7,0-1.4,0-2.1,0c-13,0-26,0-39.1,0
		c-4.2,0-5.2-1-5.2-5.2c0-19.7,0-39.3,0-59c0-4.1,1-5.1,5.2-5.1c13,0,26,0,39.1,0c0.7,0,1.4,0,2.2,0c0-8,0-15.9,0-23.9
		c-26.6,0-53.3,0-80.1,0c0,10.6,0,21.3,0,32c15.9,2.9,23,15.9,23,26.5c0,10.7-7.1,23.6-23,26.5c0,10.6,0,21.3,0,32.1
		c0.7,0,1.3,0,1.9,0c6.3,0,12.7,0,19,0c2.9,0,4.8,2.7,3.4,5c-0.6,0.9-1.9,1.5-2.9,2c-0.5,0.2-1.2,0.1-1.8,0.1
		c-36.4,0-72.8,0-109.2,0c-4,0-5-1-5-5C9,120,9,79.5,9,39c0-3.9,1.1-4.9,5-4.9c57.4,0,114.7,0,172.1,0c2.2,0,3.8,0.6,4.8,2.5
		C190.9,78.7,190.9,120.9,190.9,163z M16.2,65.2c0.9,0,1.6,0,2.3,0c13.1,0,26.3,0,39.4,0c3.7,0,4.8,1.1,4.8,4.8
		c0,19.8,0,39.6,0,59.3c0,4.1-1,5.2-5.1,5.2c-13.1,0-26.2,0-39.3,0c-0.7,0-1.4,0-2.1,0c0,8.1,0,16,0,23.8c26.8,0,53.4,0,80.1,0
		c0-10.8,0-21.4,0-32c-15.4-2.8-22.9-15.2-23-26c-0.1-6.1,1.7-11.7,5.4-16.6c4.4-5.8,10.4-9.2,17.5-10.4c0-10.8,0-21.4,0-32.1
		c-26.8,0-53.4,0-80.1,0C16.2,49.2,16.2,57,16.2,65.2z M16.2,80.2c4.6,0,9,0,13.4,0c3.4,0,4.6,1.2,4.6,4.6c0,9.8,0,19.7,0,29.5
		c0,4-1,5-5.1,5c-4.3,0-8.6,0-12.9,0c0,2.8,0,5.3,0,7.9c13.1,0,26.1,0,39.2,0c0-18.3,0-36.6,0-54.9c-13.1,0-26.1,0-39.2,0
		C16.2,75,16.2,77.5,16.2,80.2z M183.7,119.3c-0.7,0-1.2,0-1.8,0c-4.1,0-8.2,0-12.3,0c-2.6,0-4-1.4-4-4c0-10.4,0-20.7,0-31.1
		c0-2.7,1.4-4,4.1-4c4.1,0,8.2,0,12.3,0c0.6,0,1.1-0.1,1.7-0.1c0-2.7,0-5.2,0-7.7c-13.1,0-26.2,0-39.2,0c0,18.4,0,36.6,0,54.8
		c13.1,0,26.2,0,39.2,0C183.7,124.5,183.7,122,183.7,119.3z M27.1,87.4c-3.7,0-7.2,0-10.8,0c0,8.3,0,16.5,0,24.7c3.7,0,7.2,0,10.8,0
		C27.1,103.8,27.1,95.7,27.1,87.4z M172.9,87.4c0,8.3,0,16.5,0,24.7c3.7,0,7.3,0,10.8,0c0-8.3,0-16.4,0-24.7
		C180.1,87.4,176.6,87.4,172.9,87.4z M96.4,80.7c-11.8,1.8-19.1,15.1-14.7,25.5c4.7-2.7,9.3-5.4,14-8.1c0.3-0.2,0.7-0.7,0.7-1.1
		C96.4,91.6,96.4,86.2,96.4,80.7z M103.5,80.7c0,5.5,0,10.9,0,16.3c0,0.4,0.3,0.9,0.6,1.1c4.7,2.8,9.4,5.5,14.1,8.2
		C122.4,96,115.8,82.9,103.5,80.7z M103.6,118.9c4.5-0.9,8.2-3,11.2-6.5c-3.8-2.2-7.4-4.3-11.2-6.4
		C103.6,110.5,103.6,114.6,103.6,118.9z M96.3,106c-3.8,2.2-7.4,4.3-11.2,6.4c3.1,3.5,6.7,5.6,11.2,6.5
		C96.3,114.6,96.3,110.4,96.3,106z"/>
	<path class="st1" d="M140.8,165.5c-2,0-3.6-1.7-3.5-3.6c0.1-1.9,1.7-3.4,3.5-3.4c2,0,3.6,1.7,3.5,3.6
		C144.3,163.9,142.7,165.5,140.8,165.5z"/>
	<path class="st2" d="M48.4,99.8c0,2-1.7,3.6-3.7,3.5c-1.9-0.1-3.4-1.7-3.4-3.6c0-2,1.7-3.6,3.7-3.5C46.9,96.3,48.5,98,48.4,99.8z"
		/>
	<path class="st2" d="M155,96.2c1.9,0,3.5,1.5,3.6,3.4c0.1,2-1.5,3.7-3.5,3.7c-2,0-3.6-1.6-3.6-3.6C151.5,97.8,153.1,96.3,155,96.2z
		"/>
</g>
</svg>
