<?xml version="1.0" encoding="utf-8"?>
<!-- Generator: Adobe Illustrator 24.0.0, SVG Export Plug-In . SVG Version: 6.00 Build 0)  -->
<svg version="1.1" id="Capa_1" xmlns="http://www.w3.org/2000/svg" xmlns:xlink="http://www.w3.org/1999/xlink" x="0px" y="0px"
	 viewBox="0 0 200 200" style="enable-background:new 0 0 200 200;" xml:space="preserve">
<style type="text/css">
	.st0{fill:#ACAEAF;}
	.st1{fill:#FE9900;}
	.st2{fill:#1C3247;}
</style>
<g>
	<path class="st0" d="M182.8,92.9c0,8.4,0,16.8,0,25.2c-1.4,4.2-4.1,6.7-8.5,6.7c-16.4,0-32.8,0-49.2,0c-5,0-8.5-3.6-8.5-8.5
		c0-3.9,0-7.7,0-11.6c0-0.6,0-1.1,0-1.7c-3.8,0-7.3,0-11.1,0c0,0.7,0,1.4,0,2c0,10.9,0,22,0,32.9c0,2.9,0,5.9,0,8.7
		c0,1.5,0.6,2.8,2.1,2.9c2.9,0.1,5.9,0,8.8,0c0-2.7,0-5.3,0-7.8c0-4.9,3.4-8.4,8.3-8.5c5.6-0.1,11.1-0.1,16.7,0
		c4.5,0.1,7.6,3.1,8.1,7.4c0.4,3.1,1,3.6,4.2,3.6c6.7,0,13.4,0,20.2,0c4.5,0,7.1,2,8.5,6.2c0,0.1,0.1,0.3,0.3,0.4
		c0,8.4,0,16.8,0,25.2c-1,3.5-3.2,5.7-6.7,6.7c-17.5,0-35.2,0-52.7,0c-5.5-2.2-6.7-4.2-6.7-10.4c0-5,0-10.1,0-15c0-0.7,0-1.4,0-2.2
		c-2.7,0-5,0-7.4,0c-5.7,0-9.1-3.4-9.1-9.2c0-13.7,0-27.5,0-41.2c0-0.7,0-1.3,0-2c-3.8,0-7.3,0-11.1,0c0,0.7,0,1.3,0,1.8
		c0,8.7-0.1,17.5,0.1,26.2c0.1,4.8-1.8,7.8-5.7,9.9c-1.3,0.7-2.5,1.3-3.8,1.8c-8.5,3.4-17.5,4.2-26.6,4.2c-9,0-17.8-1-26.3-4.2
		c-4.1-1.5-7.7-3.6-9.4-8.1c0-23.5,0-46.9,0-70.5c1.1-3.8,3.8-6.2,7.1-8c1.5-0.8,3.1-1.5,4.8-2.1c15.3-4.9,30.7-5,46.1-0.7
		c3.8,1.1,7.3,2.7,10.2,5.2c2.1,1.8,3.5,3.9,3.5,6.9c0,9.9,0,19.9,0,29.7c0,0.6,0,1.3,0,2c3.8,0,7.3,0,11.1,0c0-0.7,0-1.4,0-2
		c0-13.9,0-27.7,0-41.5c0-5.3,3.5-8.8,8.8-8.8c1.4,0,2.8,0,4.2,0c1.1,0,2.4,0,3.5,0c0-6,0-11.6,0-17.4c0-5.9,1.4-8,6.7-10.2
		c6.6,0,13.2,0,19.7,0c3.8,1.3,6.3,3.6,6.6,7.8c0.3,2.5,1,3.2,3.6,3.2c6.7,0,13.6,0,20.3,0c0.7,0,1.5,0,2.2,0.1
		c3.8,0.7,5.7,3.2,6.9,6.6c0,8.4,0,16.8,0,25.2c-1.7,5-5.2,6.7-10.4,6.7c-15.7-0.1-31.2,0-46.9,0c-5.6,0-9-3.5-9-9
		c0-2.5,0-4.9,0-7.6c-2.5,0-4.8,0-7,0c-3.1,0-3.9,0.8-3.9,3.9c0,13.7,0,27.5,0,41.2c0,0.6,0,1.1,0,1.7c3.8,0,7.3,0,11.1,0
		c0-0.7,0-1.3,0-1.8c0-3.8,0-7.7,0-11.5c0-5.2,3.5-8.7,8.7-8.7c5.3,0,10.5,0,15.8,0c4.8,0,8,2.9,8.7,7.7c0.4,2.8,1,3.4,3.9,3.4
		c6.7,0,13.6,0,20.3,0c4.5,0,7.3,2.1,8.7,6.3C182.5,92.6,182.6,92.8,182.8,92.9z M149.6,61.4c8,0,16,0,24,0c2.9,0,3.8-0.8,3.8-3.8
		c0-6.7,0-13.4,0-20.2c0-2.8-1-3.6-3.6-3.6c-7,0-13.9,0-20.9,0c-4.8,0-8-2.9-8.5-7.7c-0.3-2.5-1.1-3.4-3.8-3.4c-4.9,0-9.7,0-14.6,0
		c-2.9,0-3.8,0.8-3.8,3.9c0,10.2,0,20.6,0,30.8c0,3.1,0.8,3.9,3.9,3.9C133.9,61.4,141.7,61.4,149.6,61.4z M149.6,119.4
		c8,0,16.1,0,24.1,0c2.7,0,3.6-1,3.6-3.6c0-6.7,0-13.4,0-20.2c0-2.9-0.8-3.8-3.9-3.8c-6.9,0-13.7,0-20.7,0c-4.8,0-8-2.9-8.5-7.7
		c-0.3-2.5-1.1-3.2-3.6-3.4c-4.9,0-9.8,0-14.7,0c-2.9,0-3.8,1-3.8,3.8c0,10.4,0,20.7,0,31.2c0,2.8,1,3.8,3.8,3.8
		C133.8,119.4,141.7,119.4,149.6,119.4z M149.6,177.4c8,0,16,0,24,0c2.8,0,3.6-1,3.6-3.6c0-6.7,0-13.4,0-20.2c0-2.8-0.8-3.8-3.8-3.8
		c-6.7,0-13.6,0-20.3,0c-5.2,0-8.4-2.8-9-8c-0.3-2.2-1.1-3.1-3.5-3.1c-5,0-9.9,0-15,0c-2.7,0-3.6,1-3.6,3.6c0,10.5,0,20.9,0,31.4
		c0,2.8,1,3.6,3.6,3.6C133.8,177.4,141.7,177.4,149.6,177.4z M83.5,74c-9.7,5.3-19.9,6.7-30.4,6.7s-20.7-1.4-30.4-6.6
		c0,4.8,0,9.4,0,13.9c0,1.4,0.4,2.5,1.5,3.1c1.8,1,3.5,2.1,5.5,2.8c13.7,4.3,27.7,4.5,41.7,1.4c3.4-0.7,6.6-2.2,9.7-3.8
		c1-0.4,2.1-1.8,2.1-2.8C83.6,84,83.5,79,83.5,74z M83.5,97.3c-20.3,7.6-40.5,7.6-60.8,0c0,4.2,0,8.5,0,12.9c0,1.4,0.4,2.5,1.5,3.1
		c2.4,1.3,4.6,2.7,7.1,3.4c13.4,3.8,27,3.8,40.5,0.7c3.1-0.7,6.2-2.1,9.1-3.5c1-0.6,2.2-2,2.2-2.9C83.6,106.2,83.5,101.6,83.5,97.3z
		 M22.7,119.2c0,4.2,0,8.4,0,12.7c0,1.4,0.4,2.7,1.7,3.2c2.2,1.1,4.5,2.5,6.9,3.2c13.2,3.8,26.5,3.8,39.8,1.1
		c3.6-0.7,7.1-1.8,10.4-3.9c1.4-0.8,2.2-2,2.1-3.8c-0.1-3.5,0-6.9,0-10.4c0-0.8,0-1.7,0-2.2C63.2,127,43,127,22.7,119.2z M53.1,56.1
		c-2,0-3.9-0.1-5.7,0c-6.2,0.4-12.2,1.3-17.9,3.8c-2,0.8-3.9,2.2-5.6,3.6c-1.5,1.3-1.4,2.7,0,4.1c1.3,1.1,2.8,2.2,4.3,2.9
		c5.9,2.8,12.3,3.9,18.8,4.3c9.2,0.7,18.3,0.1,27.3-2.8c2.9-1,5.7-2.1,8-4.3c1.7-1.7,1.8-3.2,0-4.6c-1.8-1.4-3.8-2.7-5.9-3.5
		C68.9,56.8,61.1,56.1,53.1,56.1z"/>
	<path class="st1" d="M130.4,44.9c-1.5,0-2.8-1.3-2.8-2.8c0-1.5,1.4-2.8,2.8-2.7c1.4,0,2.7,1.3,2.7,2.7
		C133.1,43.6,131.9,44.9,130.4,44.9z"/>
	<path class="st1" d="M133.1,53.1c0,1.5-1.1,2.8-2.7,2.8s-2.8-1.3-2.8-2.8c0-1.4,1.3-2.7,2.7-2.7C131.8,50.3,133.1,51.6,133.1,53.1z
		"/>
	<path class="st2" d="M133.1,100.1c0,1.5-1.3,2.7-2.8,2.7c-1.4,0-2.7-1.3-2.7-2.7c0-1.5,1.3-2.8,2.8-2.8
		C131.9,97.4,133.1,98.5,133.1,100.1z"/>
	<path class="st2" d="M133.1,111.1c0,1.5-1.3,2.8-2.7,2.8c-1.5,0-2.8-1.3-2.8-2.8c0-1.4,1.3-2.7,2.7-2.7
		C131.8,108.3,133.1,109.4,133.1,111.1z"/>
	<path class="st1" d="M130.4,166.3c1.5,0,2.7,1.3,2.7,2.8c0,1.5-1.3,2.7-2.7,2.7c-1.5,0-2.8-1.3-2.8-2.8
		C127.6,167.6,128.9,166.3,130.4,166.3z"/>
	<path class="st1" d="M130.4,155.2c1.5,0,2.7,1.1,2.7,2.8c0,1.4-1.3,2.7-2.7,2.7c-1.5,0-2.8-1.3-2.8-2.7
		C127.6,156.5,128.9,155.2,130.4,155.2z"/>
	<path class="st0" d="M31.1,89c-1.5,0-2.8-1.3-2.8-2.7c0-1.4,1.1-2.7,2.7-2.8c1.5-0.1,2.8,1,2.9,2.7C33.7,87.7,32.6,89,31.1,89z"/>
	<path class="st0" d="M30.9,111.1c-1.5,0-2.8-1.3-2.8-2.8c0-1.4,1.3-2.7,2.7-2.7c1.5,0,2.8,1.3,2.8,2.8
		C33.7,109.9,32.5,111.1,30.9,111.1z"/>
	<path class="st0" d="M33.7,130.5c0,1.5-1.1,2.8-2.8,2.7c-1.5,0-2.7-1.1-2.7-2.7s1.3-2.8,2.7-2.8C32.5,127.7,33.7,128.9,33.7,130.5z
		"/>
</g>
</svg>
