<?xml version="1.0" encoding="utf-8"?>
<!-- Generator: Adobe Illustrator 24.0.0, SVG Export Plug-In . SVG Version: 6.00 Build 0)  -->
<svg version="1.1" id="Capa_1" xmlns="http://www.w3.org/2000/svg" xmlns:xlink="http://www.w3.org/1999/xlink" x="0px" y="0px"
	 viewBox="0 0 200 200" style="enable-background:new 0 0 200 200;" xml:space="preserve">
<style type="text/css">
	.st0{fill:#ACAEAF;}
	.st1{fill:#1C3247;}
	.st2{fill:#FE9900;}
</style>
<g>
	<path class="st0" d="M137.2,182.4c-2.8-1.2-3.8-3.3-3.7-6.2c0.1-6.6,0-13.3,0-19.9c0-0.6,0-1.2,0-2c-0.8,0-1.6-0.1-2.3-0.1
		c-3.3-0.2-5.6-2.5-5.7-5.8c-0.1-5.5,0-10.9,0-16.4c0-5.8,3-10,8.5-11.9c0.2-0.1,0.5-0.2,0.7-0.3c-2-6.7-0.8-11.4,3.8-14.7
		c4-2.8,9.4-2.8,13.4,0.1c4.5,3.3,5.7,8,3.8,14.2c2,1.3,4.1,2.4,5.7,3.9c2.3,2.1,3.4,4.9,3.4,8.1c0,5.6,0,11.3,0,16.9
		c0,3.5-2.4,5.8-5.8,5.9c-0.6,0-1.3,0-2,0c0,0.7-0.1,1.3-0.1,1.9c0,6.7-0.1,13.4,0,20.1c0.1,3-0.9,5.1-3.7,6.2
		C147.9,182.4,142.5,182.4,137.2,182.4z M152.1,177.6c0-4.8,0-9.4,0-14c0-9.2,0-18.4,0-27.5c0-2,1-3.1,2.5-3.1
		c1.5,0.1,2.3,1.1,2.3,3.1c0,2.4,0,4.7,0,7.1c0,2,0,4,0,6c2.5,0.4,3.1,0.2,3.1-1.2c0-5.7,0.1-11.4-0.1-17.1c-0.2-4.9-5.8-8-10-5.9
		c-3.2,1.6-6.5,1.4-9.8-0.1c-0.7-0.3-1.4-0.5-2.1-0.5c-4.6-0.1-7.7,2.9-7.7,7.6c0,5,0,10,0,15c0,2.5,0.5,2.8,3.1,2.1
		c0-0.6,0-1.2,0-1.9c0-3.9,0-7.7,0-11.6c0-1.6,1-2.6,2.4-2.6c1.3,0,2.2,1,2.4,2.5c0,0.5,0,1.1,0,1.6c0,12.8,0,25.5,0,38.3
		c0,0.7,0,1.3,0,2c1.6,0,3,0,4.5,0c0-0.7,0-1.4,0-2c0-6,0-11.9,0-17.9c0-0.5,0-1.1,0.1-1.6c0.2-1.4,1-2.2,2.4-2.2
		c1.3,0,2.2,0.8,2.4,2.2c0.1,0.5,0.1,1.1,0.1,1.6c0,6.1,0,12.1,0,18.2c0,0.6,0,1.1,0,1.7C149.2,177.6,150.5,177.6,152.1,177.6z
		 M145.2,121.3c3.7,0,6.7-3,6.7-6.6c0-3.7-3-6.8-6.7-6.8c-3.7,0-6.7,3-6.7,6.6C138.5,118.2,141.5,121.3,145.2,121.3z"/>
	<path class="st0" d="M147.2,17.6c0.2,0.1,0.5,0.2,0.7,0.3c7.1,1.9,10.6,8.8,8,15.6c-0.1,0.2-0.2,0.5-0.3,0.8
		c0.4,0.1,0.7,0.3,1.1,0.4c5,1.8,8.2,6.1,8.2,11.5c0,5.4,0,10.7,0,16.1c0,4.1-2.3,6.4-6.5,6.5c-0.4,0-0.8,0-1.5,0c0,0.7,0,1.3,0,1.8
		c0,6.8,0,13.6,0,20.4c0,4.1-1.8,5.9-5.8,5.9c-3.9,0-7.8,0-11.8,0c-4.1,0-5.8-1.8-5.9-5.9c0-6.8,0-13.5,0-20.3c0-0.6,0-1.2,0-2
		c-0.7,0-1.4,0-2,0c-3.5-0.1-6-2.5-6-6c0-5,0.2-10-0.1-15c-0.3-6.4,2.9-11.4,9.3-13.5c-0.3-0.9-0.6-1.8-0.8-2.7
		c-1.3-6.1,2.2-12,8.3-13.7c0.3-0.1,0.7-0.2,1-0.4C144.6,17.6,145.9,17.6,147.2,17.6z M156.9,64c1.4-0.3,3.1,0.7,3.1-1.5
		c0.1-5.6,0.1-11.3,0-16.9c-0.2-4.9-5.5-8-10-6c-3.3,1.5-6.5,1.4-9.8-0.1c-0.7-0.3-1.4-0.6-2.1-0.6c-4.5-0.1-7.7,3-7.7,7.6
		c0,4.9,0,9.9,0,14.8c0,2.7,0.3,2.9,3.1,2.4c0-4.1,0-8.3,0-12.5c0-2.6,0.8-3.8,2.5-3.7c1.6,0,2.4,1.2,2.4,3.7c0,12.9,0,25.9,0,38.8
		c0,0.7,0.1,1.3,0.1,2c1.5,0,2.9,0,4.4,0c0-0.7,0-1.3,0-1.9c0-6,0-12,0-18c0-0.6,0-1.2,0.1-1.8c0.3-1.3,1.1-1.9,2.4-1.9
		c1.2,0,2,0.7,2.2,1.9c0.1,0.6,0.1,1.2,0.1,1.8c0,6.1,0,12.1,0,18.2c0,0.6,0,1.1,0,1.8c1.6,0,3,0,4.5,0c0-0.7,0-1.4,0-2
		c0-12.9,0-25.7,0-38.6c0-0.6,0-1.3,0.1-1.9c0.3-1.3,1.1-2,2.4-1.9c1.3,0,2.1,0.8,2.3,2.1c0.1,0.7,0.1,1.4,0.1,2.1
		C156.9,55.7,156.9,59.7,156.9,64z M138.5,29.1c0,3.6,3,6.7,6.6,6.7c3.7,0.1,6.8-3,6.8-6.7c0-3.6-3-6.7-6.6-6.7
		C141.6,22.4,138.5,25.4,138.5,29.1z"/>
	<path class="st0" d="M46.7,182.4c-2.7-1.2-3.7-3.3-3.6-6.3c0.2-6.6,0-13.3,0-20c0-0.6,0-1.2,0-2c-0.8,0-1.5,0-2.2,0
		c-3.4-0.1-5.8-2.5-5.8-5.8c0-5.7-0.1-11.4,0-17.1c0.1-4.9,3.2-9.2,7.8-11c0.4-0.2,0.9-0.3,1.4-0.5c-2.2-6.1-1.2-11.2,4.3-15
		c4-2.7,9.3-2.4,13.1,0.6c4.3,3.2,5.3,7.7,3.5,14.2c1.4,0.8,3,1.3,4.2,2.3c2.9,2.1,4.8,5,4.9,8.7c0.2,6,0.2,12,0.1,18
		c-0.1,3.3-2.5,5.5-5.9,5.6c-0.6,0-1.3,0-2,0c0,0.9,0,1.6,0,2.3c0,6.6-0.1,13.2,0,19.8c0,3-1,5.1-3.8,6.2
		C57.4,182.4,52,182.4,46.7,182.4z M43.1,149.2c0-0.5,0-1.1,0-1.7c0-4,0-7.9,0-11.9c0-1.5,0.9-2.5,2.3-2.6c1.3,0,2.4,0.9,2.5,2.4
		c0,0.5,0,1,0,1.4c0,12.9,0,25.9,0,38.8c0,0.6,0,1.2,0,1.8c1.6,0,3,0,4.5,0c0-1.8,0-3.5,0-5.2c0-5.3,0-10.5,0-15.8
		c0-1.6,1-2.7,2.4-2.7c1.4,0,2.4,1,2.5,2.6c0,0.4,0,0.9,0,1.3c0,6,0,12,0,18c0,0.6,0,1.1,0,1.7c1.6,0,2.9,0,4.5,0c0-0.7,0-1.3,0-2
		c0-12.9,0-25.9,0-38.8c0-0.5,0-1.1,0-1.6c0.1-1.2,0.9-2,2.1-2.1c1.2-0.1,2.1,0.4,2.5,1.5c0.2,0.5,0.2,1.2,0.2,1.7
		c0,3.8,0,7.5,0,11.3c0,0.6,0,1.1,0,1.7c3,0.3,3.1,0.2,3.1-2.5c0-2.5,0-4.9,0-7.4c0-2.9,0.1-5.8-0.1-8.7c-0.4-4.7-5.9-7.7-9.9-5.6
		c-3.2,1.6-6.5,1.4-9.8,0c-0.6-0.3-1.3-0.5-2-0.6c-4.8-0.2-7.9,2.9-7.9,7.7c0,4.9,0,9.8,0,14.6C39.9,149.5,40.2,149.7,43.1,149.2z
		 M54.8,121.3c3.8,0,6.8-3,6.7-6.7c0-3.7-2.9-6.6-6.6-6.7c-3.7,0-6.8,3-6.8,6.7C48.1,118.3,51.1,121.2,54.8,121.3z"/>
	<path class="st1" d="M101.8,17.6c1.1,0.4,2.3,0.7,3.3,1.2c5.3,2.5,7.7,8.6,5.8,14.1c-0.2,0.4-0.3,0.9-0.5,1.4
		c0.6,0.2,1.2,0.4,1.7,0.6c4.6,2,7.1,5.5,7.6,10.5c0.2,1.8-0.7,2.9-2.1,3.1c-1.5,0.2-2.5-0.8-2.7-2.6c-0.4-4.2-3.4-7-7.6-6.9
		c-0.7,0-1.5,0.2-2.1,0.5c-3.3,1.5-6.6,1.6-10,0.1c-4.1-1.9-9,0.6-9.9,5.1c-0.2,1.2-0.2,2.5-0.2,3.7c0,4.3,0,8.6,0,12.9
		c0,2.7,0.2,2.9,3.2,2.6c0-2.9,0-5.8,0-8.8c0-1.4,0-2.9,0-4.3c0-2,0.9-3.1,2.4-3.2c1.5,0,2.4,1.1,2.4,3.1c0,13.1,0,26.3,0,39.4
		c0,0.6,0,1.2,0,1.9c1.5,0,2.9,0,4.5,0c0-0.6,0-1.1,0-1.7c0-6.3,0-12.6,0-18.8c0-1.3,0.3-2.5,1.7-3c1.7-0.6,3.1,0.6,3.1,2.6
		c0,4.5,0,9,0,13.5c0,2.4,0,4.8,0,7.4c1.5,0,2.9,0,4.5,0c0-0.6,0-1.2,0-1.9c0-12.9,0-25.9,0-38.8c0-0.4,0-0.9,0-1.3
		c0.1-1.5,1-2.5,2.4-2.5c1.4,0,2.4,1,2.4,2.6c0,4,0,7.9,0,11.9c0,0.6,0,1.2,0,1.7c2.9,0.4,3.2,0.2,3.2-2.4c0-1.3,0-2.7,0-4
		c0.1-1.5,0.9-2.4,2.3-2.4c1.4-0.1,2.5,0.9,2.5,2.3c0.1,2,0.1,4.1,0,6.1c-0.2,3-2.6,5.2-5.6,5.4c-0.7,0-1.4,0-2.4,0
		c0,0.6,0,1.2,0,1.7c0,7,0,14,0,20.9c0,3.6-1.9,5.5-5.4,5.5c-4.2,0-8.4,0-12.6,0c-3.6,0-5.5-2-5.5-5.6c0-6.9,0-13.7,0-20.6
		c0-0.6,0-1.2,0-1.9c-0.7,0-1.4,0-2,0c-3.4-0.1-5.9-2.3-6-5.7c-0.1-5.8-0.2-11.6,0-17.4c0.2-5.5,3.3-9.1,8.4-11
		c0.2-0.1,0.5-0.2,0.4-0.2c-0.2-2.5-0.8-5-0.5-7.2c0.7-4.8,3.7-7.8,8.3-9.3c0.4-0.1,0.8-0.3,1.2-0.4
		C99.4,17.6,100.6,17.6,101.8,17.6z M106.7,29.1c0-3.7-3-6.7-6.6-6.7c-3.7,0-6.7,3-6.7,6.7c0,3.7,3,6.7,6.6,6.7
		C103.6,35.9,106.7,32.8,106.7,29.1z"/>
	<path class="st2" d="M56.7,17.6c0.3,0.1,0.6,0.3,0.9,0.3c6.8,1.8,10.4,8.6,8.1,15.2c-0.1,0.3-0.3,0.7-0.4,1.2
		c0.6,0.2,1.1,0.4,1.6,0.6c4.5,1.9,7.3,5.3,7.6,10.1c0.3,6,0.2,12.1,0.1,18.2c-0.1,3.2-2.6,5.4-5.8,5.5c-0.6,0-1.3,0-2.1,0
		c0,0.7,0,1.3,0,1.8c0,6.9,0,13.7,0,20.6c0,3.9-1.9,5.7-5.7,5.8c-4.1,0-8.2,0-12.2,0c-3.7,0-5.5-1.9-5.5-5.6c0-2.6,0-5.3,0-7.9
		c0-1.8,0.9-2.8,2.4-2.8c1.5,0,2.4,1,2.5,2.8C48,86.2,48,89,48,91.8c0,0,0,0.1,0.1,0.3c1.3,0,2.7,0,4.3,0c0-0.6,0-1.2,0-1.7
		c0-6.3,0-12.6,0-18.8c0-2.1,0.8-3.1,2.4-3.1c1.6,0,2.4,1.1,2.4,3.2c0,6.2,0,12.5,0,18.7c0,0.6,0,1.2,0,1.8c1.5,0,2.9,0,4.5,0
		c0-0.7,0-1.3,0-2c0-12.9,0-25.8,0-38.6c0-0.5,0-1,0-1.4c0.1-1.4,1-2.4,2.2-2.5c1.3-0.1,2.4,0.9,2.5,2.3c0.1,1.4,0,2.8,0,4.2
		c0,3.2,0,6.4,0,9.6c2.7,0.7,3.1,0.3,3.1-2.3c0-4.9,0-9.9,0-14.8c-0.1-4.6-3.2-7.7-7.7-7.7c-0.7,0-1.5,0.3-2.1,0.6
		c-3.3,1.5-6.5,1.6-9.8,0.1c-4.5-2-9.8,0.9-10.1,5.8c-0.3,5.7-0.2,11.5-0.1,17.2c0,2.1,1.8,1.1,3.1,1.3c0-3.3,0-6.4,0-9.6
		c0-1.5,0-3,0-4.5c0.1-1.4,0.9-2.2,2.2-2.3c1.4-0.1,2.2,0.7,2.5,2c0.1,0.4,0.1,0.7,0.1,1.1c0,6.8,0,13.6,0,20.4c0,0.5,0,1-0.1,1.4
		c-0.4,1.2-1.3,1.8-2.6,1.7c-1.2-0.1-2-0.9-2.1-2.1c-0.1-1.1,0-2.1,0-3.4c-0.8,0-1.5,0-2.2,0c-3.3-0.1-5.8-2.5-5.8-5.8
		c0-5.7-0.1-11.4,0-17.1c0.1-4.8,3.2-9.1,7.7-10.9c0.5-0.2,1-0.4,1.3-0.5c-0.3-2.2-0.8-4.3-0.7-6.4c0.3-5.1,3.8-9,8.8-10.2
		c0.3-0.1,0.6-0.2,0.9-0.3C54.3,17.6,55.5,17.6,56.7,17.6z M61.5,29.1c0-3.7-3-6.8-6.7-6.7c-3.7,0-6.6,3-6.7,6.7
		c0,3.7,3.1,6.8,6.8,6.8C58.5,35.8,61.5,32.8,61.5,29.1z"/>
	<path class="st0" d="M91.8,182.4c-2.8-1.4-3.6-3.7-3.6-6.7c0.1-7.1,0-14.2,0-21.5c-0.7,0-1.3,0-1.9,0c-3.5-0.1-6-2.3-6-5.8
		c-0.1-5.7-0.2-11.4,0-17.1c0.2-5.9,3.6-9.7,9.2-11.6c-2.2-6.2-1.1-11.4,4.6-15.1c3.9-2.5,9.1-2.2,12.7,0.7
		c4.9,3.8,5.7,8.8,3.6,14.3c1.5,0.8,3,1.4,4.3,2.3c3.2,2.3,4.9,5.5,5,9.5c0.1,5.6,0.1,11.3,0,16.9c0,3.4-2.5,5.8-5.9,5.9
		c-0.6,0-1.3,0-2.1,0c0,1.5,0,2.7,0,4c0,1.7-0.9,2.7-2.3,2.7c-1.5,0-2.5-1-2.5-2.7c0-7.5,0-14.9,0-22.4c0-1.7,1-2.8,2.5-2.8
		c1.4,0,2.4,1.1,2.4,2.9c0,3.9,0,7.8,0,11.8c0,0.5,0,1.1,0,1.5c2.9,0.6,3.2,0.3,3.2-2.3c0-4.9,0-9.8,0-14.7c0-4.8-3.2-7.9-7.9-7.7
		c-0.7,0-1.4,0.3-2,0.5c-3.3,1.5-6.6,1.6-9.8,0.1c-4.5-2.1-9.3,1.3-9.9,5.1c-0.2,1.2-0.2,2.5-0.2,3.7c0,4.3,0,8.6,0,12.9
		c0,2.7,0.2,2.9,3.2,2.5c0-3.4,0-6.8,0-10.2c0-1,0-2,0-3.1c0-1.8,1-2.9,2.5-2.9c1.4,0,2.3,1.1,2.3,2.9c0,12.7,0,25.3,0,38
		c0,1.2,0,2.3,0,3.6c1.5,0,2.9,0,4.5,0c0-0.5,0-1.1,0-1.6c0-6.1,0-12.2,0-18.4c0-0.4,0-0.9,0-1.3c0.1-1.5,1.2-2.5,2.5-2.4
		c1.3,0.1,2.2,1,2.3,2.5c0,2.7,0,5.4,0,8c0,4.3,0,8.7,0,13.2c1.5,0,2.9,0,4.5,0c0-2.5,0-5,0-7.5c0-1.4,0.6-2.4,2-2.7
		c1.5-0.3,2.7,0.7,2.8,2.4c0.1,2.7,0.1,5.5,0,8.2c-0.1,2.3-1.7,3.6-3.5,4.6C102.7,182.4,97.2,182.4,91.8,182.4z M106.7,114.6
		c0-3.7-3-6.8-6.7-6.8c-3.7,0-6.6,3-6.6,6.6c0,3.7,2.9,6.7,6.5,6.7C103.7,121.3,106.7,118.4,106.7,114.6z"/>
</g>
</svg>
