<?xml version="1.0" encoding="utf-8"?>
<!-- Generator: Adobe Illustrator 24.0.0, SVG Export Plug-In . SVG Version: 6.00 Build 0)  -->
<svg version="1.1" id="Capa_1" xmlns="http://www.w3.org/2000/svg" xmlns:xlink="http://www.w3.org/1999/xlink" x="0px" y="0px"
	 viewBox="0 0 200 200" style="enable-background:new 0 0 200 200;" xml:space="preserve">
<style type="text/css">
	.st0{fill:#ACAEAF;}
	.st1{fill:#FE9900;}
</style>
<g>
	<path class="st0" d="M183.5,111.6c-15.7,0-31.5,0-47.2,0c-22.3,0-44.6,0-67,0c-0.6,0-1.3,0-2.1,0c0-11.8,0-23.5,0-35.3
		c-6.3-0.3-11.8-2.5-17-5.8c-1.3-0.8-3.3-0.4-5.2-0.6c0,3,0,5.7,0,8.4c-9.3,0-18.4,0-27.7,0c0-20.3,0-40.6,0-60.8
		c9.2,0,18.4,0,27.6,0c0,1.7,0,3.4,0,5.2c2.7,0.5,5,0.3,7.3-0.7c3.3-1.5,6.6-3,9.9-4.4c13.3,0,26.6,0,39.9,0
		c0.2,0.1,0.4,0.2,0.6,0.3c5.7,0.8,10.5,3.4,14.5,7.5c4.4,4.5,8.9,8.8,13.3,13.3c0.8,0.8,1.6,1.1,2.7,1.1c10.7,0,21.4,0,32.1,0
		c6.1,0,12.2,0,18.3-0.1C183.5,63.6,183.5,87.6,183.5,111.6z M94.3,32.9c1.9,1.9,3.7,3.9,5.7,5.7c0.5,0.5,1.4,0.9,2.1,0.9
		c6.7,0.1,13.4,0,20.1,0c0.4,0,0.8-0.1,1.4-0.2c-3.5-3.5-6.9-6.7-10.1-10.1c-4.2-4.4-9.3-6.4-15.4-6.4c-9.9,0.1-19.9,0.1-29.8,0
		c-4.1-0.1-7.9,0.7-11.4,2.8c-3.4,2-7,3.1-11,2.7c-0.2,0-0.5,0.1-0.7,0.1c0,12,0,23.9,0,36c1.4,0,2.6,0.1,3.8,0
		c1.7-0.2,3.1,0.5,4.5,1.3c2.3,1.4,4.8,2.7,7.3,3.7c2,0.7,4.1,0.9,6.4,1.4c0-4.5,0-8.6-0.1-12.7c0-0.4-0.6-1-1.1-1.3
		c-2-1.3-4.1-2.5-6.3-3.8c1.4-1.7,2.5-3.1,3.7-4.5c3.3,3,6.9,4.7,11.3,4.5c4.3-0.1,7.8-2.2,10.9-5.2c5.4,5.4,10.6,10.7,15.9,15.9
		c2.5,2.5,5.9,2.7,8.2,0.5c2.4-2.3,2.2-5.7-0.4-8.3c-2.1-2.1-4.1-4.1-6.2-6.2c-4.3-4.3-8.6-8.5-12.9-12.8
		C91.7,35.6,92.9,34.3,94.3,32.9z M72.8,105.9c35.1,0,70.1,0,105,0c0-20.3,0-40.5,0-60.7c-23.7,0-47.3,0-71.5,0
		c1.7,1.6,3.1,2.9,4.4,4.3c0.8,0.9,1.7,1.2,2.8,1.2c14.3,0,28.7,0,43,0c0.6,0,1.2,0,2,0c-0.3,4.2,0.4,7.8,3.3,10.7
		c2.9,2.9,6.6,3.4,10.4,3.1c0,7.5,0,14.7,0,22.1c-9.5-0.3-14.2,4.4-13.9,13.8c-22.2,0-44.2,0-66.4,0c0.3-4-0.3-7.6-3.2-10.4
		c-2.9-2.9-6.6-3.5-10.5-3.3c0-7.5,0-14.7,0-22.2c4.5,0.3,8.5-0.6,11.3-4.2c-1.6-1.6-3.2-3.2-4.8-4.8c-3.6,2.3-7.7,3.2-12.1,3.1
		C72.8,74.4,72.8,90.2,72.8,105.9z M83.9,81.3c0.5,0.1,0.9,0.3,1.2,0.4c6.2,1.7,10.2,5.7,11.9,11.8c0.4,1.3,0.9,1.5,2.1,1.5
		c17.5,0,34.9,0,52.4,0c0.6,0,1.1,0,1.7,0c1.8-7.5,6.4-12,13.6-13.7c0-3.9,0-7.7,0-11.4c-7.4-1.8-11.9-6.3-13.6-13.6
		c-12.3,0-24.5,0-37,0c1.2,3,0.9,5.9-0.1,8.9c3.1-2.4,6.5-3.6,10.4-3.3c3.9,0.3,7.2,1.9,9.7,4.9c4.2,5,4.4,12.4,0.4,17.5
		c-4,5.2-11.1,7-17,4.2c-3.6-1.7-6.1-4.5-7.4-8.4c-1.3-3.8-0.7-7.5,1.1-11.3c-6.5,4.5-12.7,2.6-16.4-1.8c-0.9-1.1-1.7-2.2-2.7-3.3
		c-3.1,3.6-6.4,5.4-10.3,6.2C83.9,73.8,83.9,77.5,83.9,81.3z M39.4,72.8c0-16.6,0-33.2,0-49.7c-5.6,0-11,0-16.3,0
		c0,16.6,0,33.1,0,49.7C28.5,72.8,33.9,72.8,39.4,72.8z M133.6,75.6c0-4.6-3.6-8.2-8.2-8.3c-4.6,0-8.4,3.6-8.4,8.3
		c0,4.6,3.8,8.4,8.4,8.3C130,83.9,133.6,80.2,133.6,75.6z"/>
	<path class="st1" d="M183.5,183.6c-9.1,0-18.3,0-27.6,0c0-1.3,0-2.6,0-4.2c-2,0.8-3.7,1.3-5.3,2.1c-3.5,1.6-7,2.2-10.9,2.1
		c-11.6-0.1-23.1-0.1-34.7,0c-3.5,0-6.7-0.9-9.7-2.7c-16.3-9.8-32.7-19.6-49.1-29.4c-5.1-3.1-7.1-8.7-5-13.9
		c2.5-6.2,9.6-8.7,15.7-5.5c9.1,4.8,18.1,9.7,27.1,14.6c0.3,0.2,0.7,0.3,1.1,0.6c1.8-4.7,5.6-6.5,10.1-7.7c9.5-2.4,19-5.1,28.5-7.6
		c2.6-0.7,5.3-0.9,8-1c3-0.2,5.9,0,8.9-0.1c3.4-0.1,6.4,0.8,9.2,2.6c1.9,1.2,3.8,2.3,6,3.6c0-3.1,0-5.9,0-9c9.4,0,18.6,0,27.7,0
		C183.5,146.6,183.5,165.1,183.5,183.6z M128.8,153.7c-10.5,2.8-20.7,5.7-31.1,8.1c-6.1,1.4-10.8-1.7-12.9-7.6
		c-0.2-0.5-0.6-1-1.1-1.2c-9.8-5.3-19.6-10.6-29.4-15.9c-3-1.6-6.2-0.7-7.7,2c-1.5,2.7-0.6,5.9,2.3,7.6c16.7,10,33.3,20,50.1,29.9
		c1.5,0.9,3.4,1.4,5.1,1.4c12.7,0.1,25.4,0.1,38.1,0c1.2,0,2.4-0.2,3.5-0.6c3-1.1,6-2.4,9.1-3.5c0.8-0.3,1.1-0.8,1.1-1.7
		c0-9.1,0-18.3-0.1-27.4c0-0.6-0.5-1.4-1-1.8c-2.9-1.8-5.8-3.6-8.8-5.2c-1-0.6-2.2-1.2-3.3-1.2c-5-0.1-10-0.5-14.9,0.3
		c-6.9,1.2-13.7,3.4-20.5,5.2c-4.4,1.2-8.8,2.3-13.1,3.5c-3.1,0.9-4.8,3.8-4.1,6.8c0.7,2.9,3.5,4.6,6.5,3.9
		c6.6-1.6,13.1-3.4,19.6-5.1c3.7-1,7.4-2,11.2-3C127.9,150.2,128.3,151.8,128.8,153.7z M177.9,178c0-14.8,0-29.4,0-44.1
		c-5.5,0-11,0-16.4,0c0,14.8,0,29.4,0,44.1C166.9,178,172.3,178,177.9,178z"/>
</g>
</svg>
