<?xml version="1.0" encoding="utf-8"?>
<!-- Generator: Adobe Illustrator 24.0.0, SVG Export Plug-In . SVG Version: 6.00 Build 0)  -->
<svg version="1.1" id="Capa_1" xmlns="http://www.w3.org/2000/svg" xmlns:xlink="http://www.w3.org/1999/xlink" x="0px" y="0px"
	 viewBox="0 0 200 200" style="enable-background:new 0 0 200 200;" xml:space="preserve">
<style type="text/css">
	.st0{fill:#ACAEAF;}
	.st1{fill:#1C3247;}
	.st2{fill:#FE9900;}
</style>
<g>
	<path class="st0" d="M161.5,16c0.3,0.2,0.6,0.3,0.9,0.3c4.6,1.4,7.9,5.3,7.9,10.2c0,19.1,0,38.1,0,57.3c0,3.6-1.7,6.4-4.3,8.7
		c3.4,2.6,4.5,6,4.5,10.2c0,18.1,0,36.2,0,54.4c0,7.6-4.3,11.9-11.9,11.9c-28.2,0-56.4,0-84.6,0c-2.3,0-3.7,1.5-3.7,3.9
		c0,6.4,0,12.9,0,19.2c-15.3,0-30.7,0-46,0c0-0.8,0-1.5,0-2.2c0-22.6,0-45.2,0-67.8c0-2.6,0.8-4.8,2.6-6.7c5-5.4,9.9-10.8,14.9-16.3
		c0.3-0.5,0.8-0.9,1.1-1.4c1.1-1.7,2.3-3.6,3.4-5.4c-2.6-2-4-5-4-8.7c0-18.9,0-37.8,0-56.7c0-5.3,3.1-9,8.2-10.5
		c0.2,0,0.5-0.2,0.6-0.3C88,16,124.7,16,161.5,16z M46.3,30.6c0,0.8,0,1.4,0,2c0,16.7,0,33.3,0,50c0,5.3,2.6,7.9,7.9,7.9
		c34.8,0,69.7,0,104.4,0c5.3,0,7.7-2.6,7.7-7.7c0-16.7,0-33.5,0-50.2c0-0.6,0-1.2,0-1.9C126.4,30.6,86.4,30.6,46.3,30.6z
		 M60.2,154.8c35.3,0,70.6,0,106.2,0c0-0.6,0-1.1,0-1.4c0-17.2,0-34.5,0-51.7c0-4.5-2.8-7.3-7.3-7.3c-35.2,0-70.2,0-105.3,0
		c-4.6,0-7.4,2.8-7.4,7.4c0,5.7,0,11.3,0,17c0,1.1,0,2.2,0,3.9c0.8-0.9,1.1-1.2,1.5-1.7c3.1-3.6,6-7.1,9.1-10.7
		c3.6-4,9.1-4.5,13.2-1.1c3.9,3.3,4.5,8.2,1.4,12.5c-3.4,4.8-6.8,9.6-10.2,14.4c-0.8,1.1-0.9,2-0.8,3.3c0.3,2,0.5,4,0.5,6
		C60.8,148.6,60.5,151.7,60.2,154.8z M42.9,167.9c0.6-0.3,1.1-0.6,1.7-0.8c5.1-2.3,8.5-6.2,10.5-11.3c2.3-5.7,2-11.6,1.1-17.5
		c-0.2-1.2,0-2.2,0.6-3.3c3.9-5.3,7.7-10.7,11.5-16.1c2.2-3.1,0.6-7.1-3.1-7.9c-2.2-0.5-4,0.2-5.6,1.9c-3.1,3.7-6.2,7.3-9.4,11
		c-2.9,3.3-5.6,6.8-9.4,9.3c-2.2,1.4-3.6,4.2-5.6,6.5c-0.8-0.3-1.9-0.8-3.1-1.2c1.7-4.5,4.5-7.9,8.5-10.1c1.1-0.6,1.4-1.2,1.4-2.5
		c0-6.7,0-13.3,0-20c0-0.5-0.2-0.8-0.2-1.5c-4.2,4.6-8.1,9-12.1,13.2c-1.1,1.2-1.5,2.5-1.5,4.2c0,17,0,34.1,0,51.3
		c0,0.6,0,1.1,0.2,1.7c12.7,0,25.1,0,37.6,0c0.2-2,0.2-4,0.3-6c-3.6,0-7.3,0.2-11,0c-3.4-0.3-6.7,0.2-9.4,2.2
		c-0.3,0.3-0.8,0.3-1.4,0.5C44,170.3,43.5,169.2,42.9,167.9z M46.4,26.2c40,0,79.9,0,119.9,0c-0.6-4.2-3.1-6-7.3-6
		c-35.2,0-70.2,0-105.3,0c-0.5,0-0.8,0-1.2,0C49.2,20.3,46.8,22.8,46.4,26.2z M166.2,159c-0.6,0-1.4,0-2,0c-27.9,0-55.6,0-83.5,0
		c-7,0-13.9,0-20.9,0c-0.6,0-1.4,0.2-1.7,0.5c-1.1,1.7-2.2,3.4-3.3,5.4c0.6,0,1.2,0,1.9,0c33.9,0,67.8,0,101.9,0c0.6,0,1.2,0,1.9,0
		C163.4,164.5,165.9,162.2,166.2,159z M66.1,187.8c0-2.8,0-5.7,0-8.7c-12.5,0-24.9,0-37.6,0c0,2.9,0,5.7,0,8.7
		C41,187.8,53.4,187.8,66.1,187.8z"/>
	<path class="st0" d="M149.9,38.3c0,1.2,0,2.5,0,3.9c-8.4,0-16.7,0-25.2,0c0,2.3,0,4.3,0,6.7c8.4,0,16.7,0,25.2,0c0,1.4,0,2.6,0,4
		c-8.4,0-16.7,0-25.2,0c0,2.3,0,4.3,0,6.5c0.6,0,1.2,0.2,1.9,0.2c7,0,14.1,0,21.1,0c2.5,0,2.5,0,2.5,2.5c0,0.5,0,0.9-0.2,1.5
		c-19.4,0-38.6,0-57.6,0c-0.2,2.5-0.2,4.8-0.6,7.1c-2,10.1-11,17.2-20.9,16.9C60.1,86.9,51.6,79.3,50.3,69
		c-1.1-8.5,2.2-15.3,9.1-20.1c7-4.6,14.4-4.8,22-0.9c0.9,0.5,2.2,0.8,3.3,0.9c11.2,0,22.5,0,33.6,0c0.6,0,1.4,0,2,0
		c0-2.3,0-4.3,0-6.5c-17.5,0-34.8,0-52.5,0c0-1.4,0-2.6,0-3.9C95.2,38.3,122.5,38.3,149.9,38.3z M88.1,66.3c0-9.3-7.6-17-16.9-17
		c-9.4,0-17,7.6-17.2,16.9c0,9.4,7.6,17,16.9,17.2C80.4,83.4,88.1,75.8,88.1,66.3z M87.6,53c0.9,1.7,2,3.3,2.8,5
		c0.5,1.4,1.2,1.5,2.5,1.5c8.5,0,17.2,0,25.7,0c0.6,0,1.2,0,1.7-0.2c0-2.2,0-4.3,0-6.4C109.3,53,98.5,53,87.6,53z"/>
	<path class="st1" d="M149.7,69.1c0,1.4,0,2.5,0,3.9c-9.1,0-18.1,0-27.1,0c0-1.2,0-2.5,0-3.9C131.6,69.1,140.6,69.1,149.7,69.1z"/>
	<path class="st1" d="M149.7,79.3c0,1.2,0,2.5,0,3.7c-9.1,0-18.1,0-27.3,0c0-1.2,0-2.5,0-3.7C131.6,79.3,140.6,79.3,149.7,79.3z"/>
	<path class="st2" d="M140.9,120.5c-2.5,0-4.8,0-7.1,0c0,6.2,0,12.1,0,18.1c1.7,0,3.3,0,5,0c0,3.4,0,6.8,0,10.2
		c-19.4,0-38.7,0-58.4,0c0-3.3,0-6.7,0-10.1c1.7,0,3.3,0,5,0c0-6,0-12.1,0-18.1c-2.3,0-4.6,0-7.1,0c0-2.9,0-5.6,0-8.4
		c0-0.3,0.5-0.9,0.9-0.9c10.1-3.6,20-7.1,30-10.5c0.5-0.2,1.2-0.2,1.9,0.2c9.6,3.4,19.2,7,28.8,10.4c0.9,0.3,1.2,0.8,1.2,1.7
		C140.9,115.3,140.9,117.8,140.9,120.5z M136.6,116.4c0.6-1.5,0-2.2-1.4-2.6c-8.1-2.8-16.1-5.7-24.2-8.7c-0.8-0.3-1.7-0.3-2.5,0
		c-8.4,2.9-16.7,5.9-25.2,8.8c-1.4,0.5-1.7,1.2-1.2,2.5C100.5,116.4,118.5,116.4,136.6,116.4z M89.5,120.5c0,6,0,12.1,0,18
		c3.6,0,7,0,10.5,0c0-6,0-12.1,0-18C96.3,120.5,92.9,120.5,89.5,120.5z M104.2,120.7c0,6.2,0,12.1,0,18c3.6,0,7,0,10.5,0
		c0-6,0-12.1,0-18C111.2,120.7,107.8,120.7,104.2,120.7z M119.1,120.7c0,6.2,0,12.1,0,18c3.6,0,7,0,10.5,0c0-6,0-11.9,0-18
		C125.9,120.7,122.5,120.7,119.1,120.7z M84.4,144.9c16.9,0,33.6,0,50.5,0c0-0.8,0-1.4-0.2-1.9c-16.9,0-33.6,0-50.3,0
		C84.4,143.6,84.4,144.2,84.4,144.9z"/>
	<path class="st0" d="M62.6,181.1c0,1.2,0,2.5,0,3.7c-0.9,0-1.9,0-2.9,0c0-1.2,0-2.5,0-3.7C60.7,181.1,61.6,181.1,62.6,181.1z"/>
	<path class="st0" d="M79.7,62.3c-0.9,0-2,0-2.9,0c-0.6-3.7-3.4-5.3-7.9-4.3c-1.5,0.3-2.6,1.2-2.8,2.8c-0.2,1.7,1.1,2.3,2.3,2.8
		c2,0.6,3.9,1.1,5.9,1.7c0.6,0.2,1.4,0.5,2,0.6c2.3,0.9,4.2,2.3,4.2,5.1c0,2.9-1.2,5.1-4,6.4c-0.9,0.5-2,0.6-3.3,0.9
		c-0.2,0.6-0.2,1.4-0.3,2.2c-1.1,0-2,0-3.3,0c-0.2-0.8-0.2-1.4-0.3-2.2c-4-0.9-6.7-3.1-7.1-7.9c0.9,0,1.9-0.3,2.6,0
		c0.6,0.3,0.9,1.2,1.4,1.9c0.9,0.8,1.9,2.2,2.8,2.2c1.9,0.3,4,0,5.9-0.3c1.4-0.3,2.3-1.7,1.9-3.1c-0.2-0.8-1.2-1.9-2-2.2
		c-2.3-0.9-5-1.4-7.4-2.2c-2.2-0.8-4-2-4.6-4.3c-0.8-3.6,1.2-6.7,5-7.7c0.6-0.2,1.2-0.3,1.9-0.5c0-0.9,0-1.7,0-2.6
		c1.1,0,2.2,0,3.4,0c0,0.9,0.2,1.9,0.2,2.8C78.3,56.3,80.2,58.4,79.7,62.3z"/>
</g>
</svg>
