<?xml version="1.0" encoding="utf-8"?>
<!-- Generator: Adobe Illustrator 24.0.0, SVG Export Plug-In . SVG Version: 6.00 Build 0)  -->
<svg version="1.1" id="Capa_1" xmlns="http://www.w3.org/2000/svg" xmlns:xlink="http://www.w3.org/1999/xlink" x="0px" y="0px"
	 viewBox="0 0 200 200" style="enable-background:new 0 0 200 200;" xml:space="preserve">
<style type="text/css">
	.st0{fill:#ACAEAF;}
	.st1{fill:#1C3247;}
	.st2{fill:#FE9900;}
</style>
<g>
	<path class="st0" d="M163.8,131.1c-5.2,5.6-10.3,11.1-15.2,16.6c-1.8,1.9-3.4,3.8-5.2,5.8c-1.9,1.9-3.7,2.1-5.5,0
		c-3.2-3.4-6.3-6.9-9.5-10.4c-1.5-1.6-1.5-3.4-0.1-4.8c1.4-1.2,3.3-1.1,4.8,0.5c2.5,2.7,4.9,5.4,7.6,8.4c0.4-0.5,0.8-1.1,1.1-1.5
		c9.1-9.9,18.3-19.8,27.3-29.8c1-1,1.9-1.8,3.3-1.5c2.6,0.4,3.6,3.3,1.8,5.4c-1.9,2.3-4.1,4.5-6.2,6.7c3.4,4.4,5.5,9.3,6.6,14.7
		c3.8,19-9.6,38.3-28.6,41.1c-4,0.5-8.1,0.4-12.1,0.4c-33.5,0.1-66.9,0.1-100.4,0.1c-0.7,0-1.5,0-2.2-0.1c-1.4-0.3-2.2-1.2-2.3-2.7
		c-0.1-0.7,0-1.2,0-1.9c0-51.4,0-102.7,0-154.1c0-0.5,0-1.2,0-1.8c0.1-1.6,1.2-2.7,2.9-3c0.5-0.1,1.1,0,1.6,0c25.1,0,50.3,0,75.3,0
		c1.9,0,3.3,0.5,4.7,1.9c12.8,12.4,25.7,24.7,38.5,36.9c1.1,1.1,1.6,2.2,1.6,3.8c0,18.3,0,36.5,0,54.7c0,3-1.5,4.3-4.5,3.6
		c-7.7-1.6-15.1-1.4-22.2,2.5c-10.7,5.8-16.6,18.1-14.6,30.1c2.2,12.5,12.1,21.8,24.3,23.5c15.5,2.1,29.5-8.4,32-23.9
		C170,144.7,168.3,137.7,163.8,131.1z M147.3,64.1c-0.7,0-1.4,0-1.9,0c-7.1,0-14.3,0-21.3,0c-1.2,0-2.3,0-3.6-0.3
		c-8-1.5-13.3-8-13.3-16.3c0-6.7,0-13.5,0-20.2c0-0.5,0-1.1,0-1.8c-24,0-47.8,0-71.7,0c0,50.3,0,100.5,0,150.6c28.3,0,56.4,0,84.7,0
		c-13.3-10-17.7-26.2-12.6-39.8c6.9-18.1,20.9-25.1,39.7-23.3C147.3,96.9,147.3,80.6,147.3,64.1z M113.5,29.8c0,6.3,0,12.2,0,18.1
		c0,5.2,3.6,9.5,8.8,9.8c6.5,0.3,13,0.1,19.5,0.1c0.1,0,0.1-0.1,0.4-0.3C132.9,48.3,123.4,39.2,113.5,29.8z"/>
	<path class="st1" d="M91.4,123.7c-0.4,1.4-0.7,2.6-1.1,3.8c-3.3,9.3-12.5,14.7-22.5,13.3c-9.2-1.2-16.8-9.6-17.2-18.8
		c-0.5-10.2,5.8-19,15.2-21.3c1.5-0.4,2.2-0.8,2.1-2.5c-0.1-2.3,1.2-3.4,3.6-3.4c12.2-0.1,23.8,10,25,22.2c0.1,0.8,0.1,1.6,0.3,2.6
		c0.1,2.7-1.1,4-3.8,4C92.4,123.7,92,123.7,91.4,123.7z M67.8,106.8c-6.7,1.2-11.5,8-10.8,15.1c0.5,7,6.7,12.6,13.6,12.8
		c7,0,13.5-4.9,14.1-11c-4.1,0-8.2,0-12.2,0c-3.7,0-4.5-0.8-4.5-4.7C67.8,115.1,67.8,111.1,67.8,106.8z M74.3,117.3
		c5.4,0,10.4,0,15.7,0c-0.5-7.3-8.1-15.2-15.7-15.5C74.3,106.8,74.3,111.9,74.3,117.3z"/>
	<path class="st2" d="M72.1,82.5c-6.2,0-12.5,0-18.7,0c-2.5,0-4-1.8-3.4-3.8c0.3-1.4,1.5-2.3,3.3-2.3c3,0,6.2,0,9.2,0
		c9.3,0,18.7,0,27.9,0c0.8,0,1.6,0.1,2.3,0.4c1.4,0.5,1.9,2.1,1.6,3.6c-0.3,1.4-1.5,2.3-3.2,2.3c-5.2,0-10.4,0-15.7,0
		C74.3,82.5,73.2,82.5,72.1,82.5z"/>
	<path class="st0" d="M118.5,82.5c-3.7,0-7.4,0-11.1,0c-2.3,0-3.7-1.2-3.7-3.2c0-1.9,1.4-3.2,3.7-3.2c7.6,0,15.1,0,22.5,0
		c2.2,0,3.7,1.4,3.6,3.2c0,1.9-1.4,3-3.6,3C126,82.6,122.3,82.5,118.5,82.5z"/>
	<path class="st0" d="M121.5,103c-3,0-5.9,0-8.9,0c-2.2,0-3.6-1.2-3.6-3.2c0-1.8,1.4-3.2,3.6-3.2c6,0,11.9,0,18,0
		c2.2,0,3.6,1.2,3.6,3.2c0,1.9-1.4,3.2-3.7,3.2C127.5,103,124.5,103,121.5,103z"/>
	<path class="st2" d="M62.4,55.9c3,0,5.9,0,8.9,0c2.2,0,3.4,1.4,3.4,3.2c0,1.8-1.4,3-3.4,3.2c-6,0-12.1,0-18.1,0
		c-2.2,0-3.4-1.2-3.4-3.2c0-1.9,1.4-3,3.6-3.2C56.4,55.9,59.4,55.9,62.4,55.9z"/>
	<path class="st0" d="M62.2,151.7c3,0,6,0,9.1,0c2.2,0,3.6,1.2,3.6,3.2c0,1.9-1.4,3.2-3.4,3.2c-6,0-12.1,0-18.1,0
		c-2.1,0-3.3-1.2-3.4-3.2c0-1.9,1.2-3.2,3.4-3.2C56.3,151.7,59.3,151.7,62.2,151.7z"/>
	<path class="st0" d="M89.4,151.7c1.2,0,2.5,0,3.7,0c1.8,0.1,3,1.4,3,3.2c0,1.6-1.2,3-3,3.2c-2.6,0.1-5.2,0.1-7.7,0
		c-1.8,0-3-1.5-3-3.2c0-1.6,1.2-2.9,3-3C86.6,151.7,88,151.7,89.4,151.7z"/>
	<path class="st2" d="M89.2,62.2c-1.2,0-2.6,0.1-3.8,0c-1.8-0.1-3-1.5-3-3.2c0-1.6,1.4-3,3.2-3c2.5,0,4.9,0,7.4,0
		c1.9,0,3.2,1.4,3.2,3.2c0,1.8-1.2,3-3.2,3.2C91.7,62.3,90.5,62.2,89.2,62.2L89.2,62.2z"/>
</g>
</svg>
