<?xml version="1.0" encoding="utf-8"?>
<!-- Generator: Adobe Illustrator 24.0.0, SVG Export Plug-In . SVG Version: 6.00 Build 0)  -->
<svg version="1.1" id="Capa_1" xmlns="http://www.w3.org/2000/svg" xmlns:xlink="http://www.w3.org/1999/xlink" x="0px" y="0px"
	 viewBox="0 0 200 200" style="enable-background:new 0 0 200 200;" xml:space="preserve">
<style type="text/css">
	.st0{fill:#ACAEAF;}
	.st1{fill:#1C3247;}
	.st2{fill:#FE9900;}
</style>
<g>
	<path class="st0" d="M188,22.1c0,51.9,0,103.9,0,155.8c-0.8,1.7-1.4,3.6-2.4,5.2c-1.7,2.7-4.5,4-7.6,4.8c-51.8,0-103.7,0-155.5,0
		c-7.7-1.9-10-7.6-10-14.1c0.2-31.1,0.1-62.3,0.1-93.4c0-18.7,0-37.4,0-56.1c0-5.8,3.3-10.2,8.8-11.8c0.3-0.1,0.5-0.2,0.7-0.3
		c52.1,0,104.1,0,156.2,0c1.5,0.7,3.2,1.2,4.6,2.1C185.8,16.1,187.2,18.9,188,22.1z M182.2,41.6c-54.7,0-109.1,0-163.7,0
		c0,0.8,0,1.5,0,2.2c0,43.6,0,87.3,0,130.9c0,5.3,2,7.4,7.4,7.4c49.7,0,99.3,0,149,0c5.3,0,7.4-2,7.4-7.3c0-43.6,0-87.3,0-130.9
		C182.2,43.1,182.2,42.4,182.2,41.6z M18.5,35.4c54.6,0,109.1,0,163.7,0c0-3.4,0-6.8,0-10.1c0-5.3-2-7.3-7.4-7.3
		c-49.6,0-99.3,0-148.9,0c-0.6,0-1.3,0-1.9,0c-2.9,0.2-5.3,2.5-5.4,5.4C18.4,27.4,18.5,31.3,18.5,35.4z"/>
	<path class="st0" d="M164.5,29.7c2.8,0,5.6,0,8.4,0c2.1,0,3.5-1.2,3.5-2.9c0-1.7-1.4-2.9-3.3-2.9c-5.6,0-11.2,0-16.7,0
		c-2,0-3.3,1.2-3.2,3c0,1.8,1.2,2.9,3.3,2.9C159,29.7,161.8,29.7,164.5,29.7z M28.7,29.7c0.4,0,0.8,0,1.2,0c1.9-0.1,3.2-1.2,3.2-2.8
		c0-1.6-1.2-2.9-3.1-3c-0.9,0-1.8-0.1-2.7,0c-1.7,0.1-3,1.4-2.9,3c0,1.6,1.2,2.8,3,2.9C27.8,29.7,28.3,29.7,28.7,29.7z M57.9,29.7
		c0.4,0,0.8,0,1.2,0c1.9-0.1,3.1-1.2,3.2-2.8c0-1.7-1.2-2.9-3.1-3c-0.9,0-1.8-0.1-2.7,0c-1.8,0.1-2.9,1.3-2.9,2.9
		c0,1.6,1.2,2.8,3,2.9C57,29.7,57.5,29.7,57.9,29.7z M43.5,29.7C43.5,29.7,43.5,29.7,43.5,29.7c0.5,0,0.9,0,1.4,0
		c1.7-0.1,2.8-1.2,2.9-2.8c0-1.6-1-2.8-2.7-3c-1.1-0.1-2.3-0.1-3.4,0c-1.6,0.2-2.7,1.5-2.6,3c0.1,1.5,1.1,2.6,2.7,2.7
		C42.3,29.7,42.9,29.7,43.5,29.7z"/>
	<path class="st1" d="M103.1,131c-0.9,1.1-1.7,2-2.6,2.9c-1.9,1.7-4.1,2.3-6.5,1.3c-1.6-0.7-3.1-0.8-4.4,0.5
		c-1.4,1.3-1.3,2.9-0.7,4.6c1,2.5,0.5,4.8-1.4,6.6c-8.2,8.3-16.4,16.6-24.7,24.7c-6.2,6-16.1,5.9-21.9,0.2c-6.2-6.1-6.5-16.5-0.4-23
		c4.6-5,9.6-9.7,14.3-14.5c3.1-3.2,6.3-6.3,9.4-9.5c2.3-2.4,4.8-3.2,7.9-1.8c1.5,0.6,2.8,0.3,3.9-0.8c1.1-1.1,1.3-2.5,0.8-3.8
		c-1.4-3.3-0.5-6,2.1-8.3c0.5-0.4,1.1-0.9,1.6-1.3c-0.2-0.4-0.3-0.6-0.5-0.8c-4.6-4.7-9.3-9.3-14-13.9c-0.5-0.4-1.4-0.7-2.1-0.5
		C51.2,96.2,38.9,88,36.4,75c-0.3-1.8-0.4-3.8-0.3-5.6c0.2-2.4,1.7-4.1,4-4.9c2.3-0.8,4.4-0.3,6.2,1.4c2.5,2.4,4.9,4.9,7.4,7.4
		c2.1,2.1,3.4,2.1,5.5,0c1.1-1.1,2.2-2.2,3.3-3.3c1.4-1.5,1.4-3.1,0-4.5c-2.4-2.5-4.9-4.9-7.4-7.4c-2.2-2.2-2.8-4.7-1.7-7.2
		c1.1-2.5,3.3-3.7,6.4-3.7c14.6,0.2,25.4,13.8,22.6,28.1c-0.1,0.7,0,1.7,0.5,2.1c6.3,6.4,12.7,12.8,19.1,19.2
		c0.1,0.1,0.3,0.2,0.5,0.3c0.4-0.4,0.9-0.8,1.3-1.3c9.7-9.7,19.4-19.5,29.2-29.2c1.4-1.4,2.5-2.9,2.9-4.9c0.5-2.6,1.9-4.4,4.1-5.8
		c3.4-2.2,6.6-4.7,9.9-7c3.2-2.2,5.8-2,8.6,0.7c1.4,1.4,2.8,2.7,4.1,4.1c2.5,2.5,2.7,5.3,0.7,8.2c-2.7,3.8-5.4,7.6-8.1,11.5
		c-1.1,1.5-2.6,2.4-4.4,2.7c-2.3,0.5-4.1,1.6-5.8,3.3c-9.5,9.7-19.2,19.3-28.8,28.9c-0.4,0.4-0.9,0.9-1.7,1.8
		c0.7,0.5,1.4,0.8,1.9,1.3c5.9,5.8,11.7,11.7,17.6,17.6c0.8,0.8,1.5,1.1,2.7,0.8c14.2-2.9,27.9,8.2,27.9,22.7c0,3.1-1.3,5.3-3.8,6.3
		c-2.7,1.1-5,0.3-7-1.7c-2.4-2.4-4.7-4.8-7.1-7.2c-1.8-1.8-3.3-1.8-5.2,0c-1.1,1.1-2.2,2.2-3.3,3.3c-1.6,1.7-1.6,3.2,0,4.9
		c2.4,2.4,4.8,4.8,7.3,7.3c2.1,2.1,2.7,4.6,1.7,7c-1,2.4-3.2,3.7-6.2,3.7c-14.7-0.2-25.5-13.5-22.7-28c0.1-0.7,0-1.7-0.4-2.1
		C113.1,141.1,108.2,136.2,103.1,131z M42.2,70c-0.1,0.6-0.1,0.8-0.1,1c-0.3,11.3,10.8,19.6,22.1,16.5c2.2-0.6,3.6-0.2,5.2,1.4
		c17.9,18,35.9,36,53.9,54c1.5,1.5,1.9,2.8,1.3,4.9c-2,7.1-0.2,13.2,5.3,18.2c3.3,3,7.2,4.3,12,4.3c-0.6-0.7-1-1.1-1.3-1.5
		c-2.1-2.2-4.3-4.4-6.4-6.7c-3.7-4-3.7-9.1,0.1-13c1.2-1.2,2.3-2.4,3.5-3.5c3.9-3.8,8.9-3.8,12.9-0.2c2.3,2.2,4.6,4.4,6.9,6.6
		c0.3,0.3,0.7,0.6,1.2,1c0.7-11.5-11.1-20.5-22.4-17.2c-2,0.6-3.4,0.2-4.9-1.2c-18-18.1-36-36.1-54-54.1c-1.5-1.5-1.9-2.8-1.3-4.9
		c3-10.1-3.5-20.5-13.8-22.3c-1-0.2-2-0.1-3-0.2c2.5,3.1,5.1,5.7,7.6,8.5c3.4,3.8,3.3,8.8-0.2,12.5c-1.1,1.2-2.2,2.3-3.4,3.4
		c-4.2,4.2-9.4,4.2-13.6,0C47.3,75.2,44.9,72.7,42.2,70z M84.5,112.8c-0.2,0.3-0.4,0.6-0.7,0.9c-1.2,1-1.6,2-1.1,3.8
		c1,3.4,0,6.6-2.6,9.1c-2.7,2.5-5.9,3.3-9.3,2.1c-1.2-0.4-1.8-0.2-2.6,0.7c-6.5,6.5-13,13-19.5,19.5c-1.4,1.4-2.8,2.7-4.1,4.1
		c-3.7,4.2-3.5,10.7,0.3,14.5c3.7,3.6,10.1,3.6,14-0.3c8.1-8,16-16.1,24-24.2c0.3-0.3,0.5-1,0.3-1.4c-1.3-3.8-0.6-7.3,2.3-10.1
		c2.8-2.8,6.2-3.4,10-2.2c0.5,0.1,1.2-0.1,1.6-0.4c0.8-0.5,1.4-1.2,2-1.7C94.1,122.4,89.4,117.7,84.5,112.8z M110.9,105.6
		c0.4-0.5,0.8-1,1.2-1.5c9.7-9.7,19.4-19.4,29-29.2c2.2-2.2,4.6-3.9,7.7-4.5c0.6-0.1,1.4-0.4,1.8-0.8c2.8-3.8,5.4-7.6,8.1-11.4
		c-1.7-1.7-3.3-3.2-5-4.9c-3.4,2.4-7,4.9-10.4,7.5c-0.8,0.6-1.5,1.6-1.8,2.5c-0.7,3-2.2,5.2-4.4,7.4c-9.8,9.6-19.4,19.4-29.1,29.1
		c-0.5,0.5-1,1-1.4,1.4C108.2,102.7,109.4,104.1,110.9,105.6z"/>
	<path class="st0" d="M164.5,29.7c-2.7,0-5.5,0-8.2,0c-2.1,0-3.3-1.1-3.3-2.9c0-1.8,1.2-2.9,3.2-3c5.6,0,11.2,0,16.7,0
		c2,0,3.3,1.2,3.3,2.9c0,1.7-1.3,2.9-3.5,2.9C170.1,29.7,167.3,29.7,164.5,29.7z"/>
	<path class="st2" d="M28.7,29.7c-0.5,0-0.9,0-1.4,0c-1.8-0.1-3-1.3-3-2.9c0-1.6,1.2-2.8,2.9-3c0.9-0.1,1.8-0.1,2.7,0
		c1.8,0.1,3.1,1.4,3.1,3c0,1.6-1.3,2.8-3.2,2.8C29.5,29.7,29.1,29.7,28.7,29.7z"/>
	<path class="st2" d="M57.9,29.7c-0.5,0-0.9,0-1.4,0c-1.8-0.1-3-1.2-3-2.9c0-1.6,1.1-2.8,2.9-2.9c0.9-0.1,1.8-0.1,2.7,0
		c1.9,0.1,3.1,1.3,3.1,3c0,1.7-1.3,2.8-3.2,2.8C58.7,29.7,58.3,29.7,57.9,29.7z"/>
	<path class="st2" d="M43.5,29.7c-0.6,0-1.1,0-1.7,0c-1.6-0.1-2.7-1.2-2.7-2.7c-0.1-1.6,1-2.9,2.6-3c1.1-0.1,2.3-0.1,3.4,0
		c1.7,0.2,2.7,1.4,2.7,3c0,1.6-1.1,2.7-2.9,2.8C44.4,29.7,43.9,29.7,43.5,29.7C43.5,29.7,43.5,29.7,43.5,29.7z"/>
	<path class="st1" d="M74.6,140.4c-0.6,1-0.9,1.9-1.5,2.4c-5.7,5.8-11.5,11.6-17.3,17.3c-1.5,1.5-3.1,1.6-4.4,0.3
		c-1.3-1.2-1.2-3,0.3-4.5c5.7-5.7,11.5-11.5,17.2-17.2c1-1,2.3-1.6,3.5-0.8C73.3,138.5,73.9,139.6,74.6,140.4z"/>
</g>
</svg>
