<?xml version="1.0" encoding="utf-8"?>
<!-- Generator: Adobe Illustrator 24.0.0, SVG Export Plug-In . SVG Version: 6.00 Build 0)  -->
<svg version="1.1" id="Capa_1" xmlns="http://www.w3.org/2000/svg" xmlns:xlink="http://www.w3.org/1999/xlink" x="0px" y="0px"
	 viewBox="0 0 198.4 198.4" style="enable-background:new 0 0 198.4 198.4;" xml:space="preserve">
<style type="text/css">
	.st0{fill:#ACAEAF;}
	.st1{fill:#FE9900;}
	.st2{fill:#1C3247;}
</style>
<path class="st0" d="M41.9,178.1c-0.2-0.1-0.4-0.2-0.6-0.3c-4.7-1.4-7.4-4.8-7.4-9.7c0-6.7,0-13.4,0-20.2c0-35.3,0-70.7,0-106
	c0-1.3,0.1-2.7,0.4-4c1.1-4.2,4.8-7,9.3-7c7.4,0,14.7,0,22.1,0c0.6,0,1.2,0,1.9,0c0-2,0-4,0-5.9c0-2.2,0.9-3.1,3.1-3.2
	c3.8,0,7.6,0,11.5,0c1,0,1.5-0.2,2-1.2c2.7-5.2,7.1-7.9,12.9-7.9c5.8,0,10.1,2.8,12.8,7.9c0.5,0.9,1,1.2,2,1.2c3.8-0.1,7.6,0,11.5,0
	c2.2,0,3.1,0.9,3.1,3.2c0,1.9,0,3.8,0,5.9c0.6,0,1.2,0,1.8,0c7.3,0,14.5,0,21.8,0c6.2,0,10.2,4,10.2,10.2c0,42.3,0,84.5,0,126.8
	c0,5.2-2.2,8-8,10.1C115.5,178.1,78.7,178.1,41.9,178.1z M67.8,36.1c-7.8,0-15.4,0-23,0c-4.1,0-5.6,1.5-5.6,5.7
	c0,41.8,0,83.7,0,125.5c0,4.1,1.5,5.6,5.7,5.6c34.9,0,69.7,0,104.6,0c4.2,0,5.8-1.5,5.8-5.7c0-9.1,0-18.2,0-27.3
	c0-32.8,0-65.5,0-98.3c0-4-1.6-5.6-5.5-5.6c-7.1,0-14.2,0-21.3,0c-0.6,0-1.1,0-1.6,0c-0.1,0.3-0.1,0.4-0.1,0.6c0,1.8,0,3.5,0,5.3
	c0,2.2-0.9,3.2-3.1,3.2c-17.5,0-35.1,0-52.6,0c-2.1,0-3-0.9-3-3.1C67.7,40.1,67.8,38.2,67.8,36.1z M73,39.8c16.2,0,32.2,0,48.2,0
	c0-4.3,0-8.5,0-12.8c-3.8,0-7.4,0-11.1,0c-3.1,0-3.2-0.1-4.3-3c-1.3-3.6-4.8-6.1-8.7-6.1c-3.9,0-7.4,2.4-8.7,6.1c-1,2.9-1.2,3-4.3,3
	c-3.7,0-7.4,0-11.1,0C73,31.4,73,35.6,73,39.8z"/>
<g>
	<path class="st1" d="M72.9,90.6c0-0.5,0-0.8,0-1.2c0-6.3,0-12.6,0-18.9c0-3.3,1.9-5.2,5.2-5.2c13.3,0,26.7,0,40,0
		c3.4,0,5.2,1.9,5.2,5.3c0,9.4,0,18.8,0,28.2c0,0.4,0,0.7,0,1.3c1,0,1.9,0,2.8,0c3.2,0,5.1,1.9,5.1,5.1c0,9.2,0,18.4,0,27.6
		c0,3.1-2,5.1-5,5.1c-10.8,0-21.6,0-32.5,0c-1.3,0-1.9-0.5-2-1.5c-0.1-0.8,0.5-1.5,1.3-1.6c0.4-0.1,0.8,0,1.2,0
		c10.4,0,20.9,0,31.3,0c2,0,2.5-0.4,2.5-2.4c0-8.9,0-17.9,0-26.8c0-1.9-0.4-2.3-2.3-2.3c-9.1,0-18.2,0-27.3,0
		c-2.3,0-3.9-0.9-5.1-2.9c-1.1-1.8-2.2-3.6-3.3-5.4c-0.5-0.8-1.1-1.2-2.1-1.2c-5.9,0-11.9,0-17.8,0c-1.5,0-2,0.5-2,2
		c0,4.3,0,8.6,0,12.9c0,0.3,0,0.7,0,1c-0.1,0.9-0.8,1.4-1.6,1.4c-0.8-0.1-1.4-0.5-1.5-1.4c0-0.2,0-0.4,0-0.6c0-4.5,0-9.1,0-13.6
		c0-3,2-4.9,5-5C70.9,90.6,71.9,90.6,72.9,90.6z M76.1,90.6c0.5,0,0.8,0,1.1,0c3.6,0,7.1,0.1,10.7,0c2.3,0,3.9,0.8,5.1,2.8
		c1,1.8,2.2,3.6,3.3,5.4c0.5,0.9,1.3,1.3,2.3,1.3c6.9,0,13.7,0,20.6,0c0.3,0,0.7,0,1,0c0-0.4,0-0.7,0-1c0-9.4,0-18.9,0-28.3
		c0-1.8-0.5-2.3-2.2-2.3c-13.2,0-26.5,0-39.7,0c-1.7,0-2.2,0.5-2.2,2.2c0,6.3,0,12.6,0,18.9C76.1,89.9,76.1,90.1,76.1,90.6z"/>
	<path class="st2" d="M66.5,134.2c-5.2-6.9-3.4-15.5,2.2-20c5.7-4.6,13.7-4.1,18.9,1c5.1,5,5.6,13.1,1.3,18.8
		c-4.2,5.5-12.9,7.8-20,2.5c-1.2,1.2-2.5,2.4-3.7,3.6c-0.1,0.1-0.1,0.4,0,0.6c0.6,2,0.1,3.7-1.3,5.2c-2.2,2.1-4.3,4.3-6.5,6.5
		c-1.4,1.3-3,1.7-4.9,1.1c-1.8-0.6-2.8-1.9-3.1-3.8c-0.2-1.5,0.2-2.8,1.2-3.9c2.3-2.3,4.6-4.6,6.9-6.9c1.3-1.2,2.9-1.5,4.5-1
		c0.6,0.2,0.9,0.1,1.3-0.3C64.3,136.4,65.4,135.3,66.5,134.2z M77.7,136.4c6.1,0,11.1-4.9,11.1-11c0-6-5-11-11-11
		c-6.2,0-11.2,5-11.1,11.1C66.7,131.5,71.6,136.4,77.7,136.4z M62.5,142.2c-0.4-0.5-0.7-1.1-1.2-1.3c-0.7-0.4-1.4-0.1-1.9,0.4
		c-2.1,2.1-4.3,4.2-6.4,6.4c-0.8,0.8-0.8,1.7-0.2,2.4c0.7,0.7,1.6,0.7,2.4-0.1c2.2-2.1,4.3-4.3,6.5-6.4
		C62,143.2,62.2,142.7,62.5,142.2z"/>
	<path class="st2" d="M98.1,77.9c-4.5,0-8.9,0-13.4,0c-0.3,0-0.7,0-1,0c-0.8-0.1-1.3-0.7-1.3-1.4c0-0.7,0.3-1.3,1.1-1.5
		c0.3-0.1,0.7-0.1,1-0.1c9.1,0,18.2,0,27.4,0c0.3,0,0.6,0,0.8,0.1c0.8,0.2,1.3,0.8,1.3,1.6c0,0.8-0.6,1.4-1.5,1.5c-0.5,0-1,0-1.6,0
		C106.6,77.9,102.4,77.9,98.1,77.9z"/>
	<path class="st1" d="M98.2,82.7c4.4,0,8.9,0,13.3,0c0.2,0,0.4,0,0.6,0c1.1,0,1.8,0.7,1.7,1.6c0,0.9-0.7,1.5-1.7,1.5
		c-2.5,0-5.1,0-7.6,0c-6.6,0-13.3,0-19.9,0c-0.2,0-0.5,0-0.7,0c-0.9-0.1-1.6-0.7-1.6-1.6c0-0.9,0.7-1.5,1.6-1.6c0.2,0,0.5,0,0.7,0
		C89.2,82.7,93.7,82.7,98.2,82.7z"/>
	<path class="st1" d="M106.1,90.6c2,0,4,0,6,0c1.2,0,1.9,0.6,1.9,1.6c0,0.9-0.7,1.6-1.9,1.6c-4,0-8,0-12,0c-1.2,0-1.9-0.6-1.9-1.6
		c0-1,0.7-1.5,1.9-1.6C102.1,90.6,104.1,90.6,106.1,90.6z"/>
</g>
</svg>
