<?xml version="1.0" encoding="utf-8"?>
<!-- Generator: Adobe Illustrator 24.0.0, SVG Export Plug-In . SVG Version: 6.00 Build 0)  -->
<svg version="1.1" id="Capa_1" xmlns="http://www.w3.org/2000/svg" xmlns:xlink="http://www.w3.org/1999/xlink" x="0px" y="0px"
	 viewBox="0 0 200 200" style="enable-background:new 0 0 200 200;" xml:space="preserve">
<style type="text/css">
	.st0{fill:#ACAEAF;}
	.st1{fill:#FE9900;}
	.st2{fill:#1C3247;}
</style>
<g>
	<path class="st0" d="M102.8,37.6c0,3.2-0.1,6.1,0.1,9c0,0.6,0.7,1.3,1.2,1.7c11.5,8.4,23.1,16.8,34.7,25.3c0.5,0.3,1,0.7,1.4,1
		c1.6,1.2,1.9,2.8,1,4.1c-1,1.4-2.6,1.6-4.3,0.4c-0.9-0.6-1.7-1.2-2.8-2c0,2.9,0,5.5,0,8.5c0.6,0,1.3,0,2,0c12.9,0,25.9,0,38.8,0
		c3.5,0,4.3,0.7,4.3,4.2c0,25.1,0,50.3,0,75.4c0,0.7,0,1.4,0,2.3c1,0,1.8,0,2.7,0c1.8,0.1,2.9,1.1,3,2.8c0.1,3.8,0.1,7.5,0,11.3
		c0,1.7-1.1,2.7-2.8,2.8c-0.5,0-1.1,0-1.6,0c-53.6,0-107.1,0-160.7,0c-3.7,0-4.4-0.7-4.4-4.4c0-2.9,0-5.8,0-8.7c0-3,0.9-3.9,3.9-3.9
		c0.5,0,1,0,1.8,0c0-0.8,0-1.5,0-2.2c0-25.2,0-50.4,0-75.6c0-3.4,0.8-4.2,4.1-4.2c13,0,26,0,39,0c0.6,0,1.3,0,2,0c0-2.8,0-5.5,0-8.5
		c-1,0.7-1.7,1.2-2.5,1.8c-1.9,1.4-3.6,1.3-4.6-0.2c-1-1.5-0.6-3,1.3-4.3c11.1-8.1,22.1-16.2,33.3-24.1c2.8-2,4-3.9,3.8-7.4
		c-0.3-8.1-0.1-16.1-0.1-24.2c0-2.8,0.9-3.7,3.7-3.7c7.9,0,15.9,0,23.8,0c2.6,0,3.5,1,3.6,3.5c0,5.1,0,10.2,0,15.4
		c0,2.8-0.9,3.7-3.7,3.7c-6.5,0-13.1,0-19.6,0C104.3,37.6,103.6,37.6,102.8,37.6z M128.1,167.6c0-0.4,0.1-0.7,0.1-1
		c0-30.8,0-61.6,0-92.4c0-0.7-0.5-1.5-1.1-2c-3.3-2.5-6.6-4.9-10-7.3c-5.7-4.1-11.4-8.3-17.2-12.5c-0.4,0.3-0.8,0.6-1.2,0.8
		c-8.6,6.2-17.1,12.5-25.7,18.7c-1,0.7-1.4,1.5-1.4,2.7c0,30.3,0,60.6,0,91c0,0.6,0,1.2,0,1.9c3,0,5.7,0,8.5,0c0-0.8,0-1.5,0-2.2
		c0-7.9-0.1-15.8,0-23.7c0.2-10.5,8.8-19,19.3-19.2c11-0.2,20,8.4,20.2,19.5c0.1,7.9,0,15.8,0,23.7c0,0.6,0,1.3,0,2
		C122.6,167.6,125.3,167.6,128.1,167.6z M26.6,91.4c0,25.5,0,50.8,0,76.1c13.2,0,26.3,0,39.3,0c0-25.4,0-50.7,0-76.1
		C52.8,91.4,39.8,91.4,26.6,91.4z M134,91.4c0,25.5,0,50.8,0,76.1c13.2,0,26.3,0,39.3,0c0-25.4,0-50.7,0-76.1
		C160.2,91.4,147.1,91.4,134,91.4z M20.9,178.8c52.8,0,105.4,0,158,0c0-1.9,0-3.7,0-5.5c-52.7,0-105.3,0-158,0
		C20.9,175.2,20.9,177,20.9,178.8z M97.1,128.5c-0.4,0.1-0.6,0.1-0.9,0.1c-6,1.6-10.3,7.1-10.3,13.4c-0.1,8.1,0,16.1,0,24.2
		c0,0.4,0.1,0.9,0.1,1.3c3.8,0,7.5,0,11.1,0C97.1,154.4,97.1,141.5,97.1,128.5z M114,167.6c0-9,0.2-17.9-0.1-26.8
		c-0.2-6.2-5.5-11.6-11.1-12.3c0,13,0,26,0,39C106.6,167.6,110.2,167.6,114,167.6z M122.5,20.8c-6.6,0-13.1,0-19.6,0
		c0,3.8,0,7.5,0,11.1c6.6,0,13,0,19.6,0C122.5,28.2,122.5,24.5,122.5,20.8z"/>
	<path class="st0" d="M114.1,85.7c0,7.8-6.4,14.2-14.2,14.1c-7.8,0-14.1-6.4-14.1-14.2c0-7.7,6.4-14,14.1-14
		C107.7,71.5,114.1,77.9,114.1,85.7z M99.9,77.2c-4.6,0-8.4,3.8-8.5,8.4c0,4.7,3.8,8.6,8.5,8.6c4.6,0,8.4-3.8,8.5-8.4
		C108.5,81.1,104.7,77.2,99.9,77.2z"/>
	<path class="st1" d="M46.3,97c3.6,0,7.2,0,10.8,0c2.3,0,3.3,1,3.3,3.4c0,7.2,0,14.4,0,21.6c0,2.3-1,3.3-3.4,3.4
		c-7.2,0-14.4,0-21.5,0c-2.3,0-3.3-1-3.3-3.4c0-7.2,0-14.4,0-21.6c0-2.3,1-3.3,3.3-3.3C39.1,97,42.7,97,46.3,97z M37.9,119.5
		c5.7,0,11.2,0,16.7,0c0-5.7,0-11.2,0-16.7c-5.6,0-11.2,0-16.7,0C37.9,108.3,37.9,113.8,37.9,119.5z"/>
	<path class="st2" d="M46.2,162c-3.5,0-7.1,0-10.6,0c-2.4,0-3.5-1-3.5-3.4c0-7.1,0-14.2,0-21.4c0-2.4,1-3.5,3.4-3.5
		c7.1,0,14.2,0,21.4,0c2.4,0,3.5,1,3.5,3.4c0,7.1,0,14.2,0,21.4c0,2.5-1,3.5-3.6,3.5C53.3,162,49.7,162,46.2,162z M54.7,139.5
		c-5.7,0-11.2,0-16.7,0c0,5.7,0,11.2,0,16.7c5.6,0,11.2,0,16.7,0C54.7,150.6,54.7,145.1,54.7,139.5z"/>
	<path class="st1" d="M153.7,97c3.5,0,7.1,0,10.6,0c2.4,0,3.5,1,3.5,3.4c0,7.1,0,14.2,0,21.4c0,2.4-1,3.5-3.4,3.5
		c-7.1,0-14.2,0-21.4,0c-2.4,0-3.5-1-3.5-3.4c0-7.1,0-14.2,0-21.4c0-2.5,1-3.5,3.6-3.5C146.6,97,150.1,97,153.7,97z M145.2,119.5
		c5.7,0,11.2,0,16.7,0c0-5.7,0-11.2,0-16.7c-5.6,0-11.2,0-16.7,0C145.2,108.3,145.2,113.8,145.2,119.5z"/>
	<path class="st2" d="M167.8,147.8c0,3.6,0,7.2,0,10.8c0,2.3-1,3.4-3.3,3.4c-7.2,0-14.4,0-21.5,0c-2.3,0-3.4-1-3.4-3.3
		c0-7.2,0-14.4,0-21.6c0-2.3,1-3.4,3.3-3.4c7.2,0,14.4,0,21.5,0c2.3,0,3.3,1,3.4,3.3C167.8,140.7,167.8,144.3,167.8,147.8z
		 M145.2,156.2c5.7,0,11.2,0,16.7,0c0-5.7,0-11.2,0-16.7c-5.6,0-11.2,0-16.7,0C145.2,145.1,145.2,150.6,145.2,156.2z"/>
</g>
</svg>
