<?xml version="1.0" encoding="utf-8"?>
<!-- Generator: Adobe Illustrator 24.0.0, SVG Export Plug-In . SVG Version: 6.00 Build 0)  -->
<svg version="1.1" id="Capa_1" xmlns="http://www.w3.org/2000/svg" xmlns:xlink="http://www.w3.org/1999/xlink" x="0px" y="0px"
	 viewBox="0 0 226.8 226.8" style="enable-background:new 0 0 226.8 226.8;" xml:space="preserve">
<style type="text/css">
	.st0{fill:#ACAEAF;}
	.st1{fill:#FE9900;}
	.st2{fill:#1C3247;}
</style>
<g>
	<path class="st0" d="M10.3,179.9c2.7-7.7,9.3-6.7,15.6-6.6c0-1.1,0-1.9,0-2.8c0-29.7,0-59.5,0-89.2c0-7.2,4.1-12.6,10.6-14.2
		c1.5-0.4,3.2-0.5,4.8-0.5c23.5,0,47,0,70.5,0c0.5,0,0.9,0,1.4,0c2,0.2,3.1,1.2,3.2,2.9c0,1.8-1.1,2.9-3.2,3c-1.3,0.1-2.7,0-4,0
		c-22.7,0-45.4,0-68.1,0c-4.6,0-7.7,2-8.8,5.8C32,79.3,32,80.2,32,81c0,30.2,0,60.3,0,90.5c0,0.5,0,1,0,1.7c2.6,0,4.9,0,7.6,0
		c0-0.9,0-1.7,0-2.5c0-27.7,0-55.4,0-83c0-5.3,2-7.4,7.4-7.4c24.8,0,49.7,0,74.5,0c0.9,0,1.7,0,2.9,0c0-0.9,0-1.7,0-2.4
		c0-14.8,0-29.7,0-44.5c0-5.4,2.5-7.9,7.8-7.9c11,0,22,0.7,32.3,5c4.1,1.7,7.2,1.8,11.3,0c9.5-4.1,19.7-4.9,29.9-5
		c0.5,0,1.1,0,1.6,0c4.1-0.5,7,1.1,8.6,4.9c0,18.7,0,37.4,0,56.2c-1.7,5.3-5.4,7.7-10.9,7.5c-1.8-0.1-3.6,0-5.4,0.2
		c-4.3,0.4-8.6,1-12.8,1.5c0,26.1,0,51.8,0,77.5c2.5,0,4.9,0,7.5,0c0-0.9,0-1.7,0-2.5c0-21.2,0-42.5,0-63.7c0-0.7-0.1-1.5,0.1-2.2
		c0.3-1.6,1.4-2.6,3.1-2.6c1.7,0.1,2.7,1.1,2.8,2.8c0.1,0.7,0,1.3,0,2c0,21.2,0,42.5,0,63.7c0,0.8,0,1.6,0,2.5c1.7,0,3.1,0.1,4.4,0
		c5.4-0.5,9.2,1.5,11.2,6.7c0,1.5,0,2.9,0,4.4c-0.9,4.1-2.4,7.9-5.4,11c-4.3,4.4-9.5,6.1-15.6,6c-54.6-0.1-109.1,0-163.7,0
		c-0.8,0-1.6,0-2.4-0.1c-8.1-0.4-15-5.6-17.6-13.3c-0.4-1.2-0.7-2.4-1-3.6C10.3,182.9,10.3,181.4,10.3,179.9z M180.6,97.4
		c-1.7,0.7-3.2,1.2-4.7,1.9c-3.7,1.8-7.3,1.8-11,0.1c-5.3-2.5-11-3.9-16.8-4.5c-5.4-0.5-10.8-0.8-16.2-1c-4.5-0.2-6.9-2.2-7.4-6.8
		c0-0.3-0.1-0.5-0.2-0.8c-26.2,0-52.4,0-78.6,0c0,29,0,57.8,0,86.8c45,0,89.9,0,134.9,0C180.6,148,180.6,122.9,180.6,97.4z
		 M84.5,179.4c-0.3-0.1-0.5-0.1-0.7-0.1c-21.5,0-43,0-64.5,0c-2.2,0-3.2,1.1-3,3.3c0.3,4.5,2.4,8,6.1,10.5c2.7,1.8,5.8,2.2,9,2.2
		c54.4,0,108.9,0,163.3,0c0.7,0,1.5,0,2.2,0c6.5-0.3,11.5-4.6,12.7-11c0.7-3.8-0.2-4.9-4-4.9c-20.6,0-41.1,0-61.7,0
		c-0.7,0-1.5,0-2.2,0c-0.2,0.7-0.4,1.2-0.7,1.8c-2,5.5-7.1,9.2-12.9,9.2c-10.1,0.1-20.2,0.1-30.3,0c-5.9-0.1-10.9-3.8-12.9-9.2
		C84.9,180.5,84.7,180,84.5,179.4z M173.3,93.5c3.5-1.1,6.7-2.2,10-3c7.5-1.9,15.2-2.5,22.9-2.6c2.7-0.1,3.8-1.2,3.8-3.8
		c0-17,0-33.9,0-50.9c0-1.3-0.4-1.8-1.7-1.7c-4.1,0.2-8.3,0.2-12.4,0.6c-7.1,0.6-14,2-20.5,5c-1.5,0.7-2.1,1.6-2.1,3.3
		c0.1,17,0,34.1,0,51.1C173.3,92.1,173.3,92.8,173.3,93.5z M167.3,93.8c0-1.1,0-1.9,0-2.7c0-16,0-32.1,0-48.1c0-5.2,0-5.3-5-7.2
		c-9.8-3.7-20.1-4.4-30.4-4.4c-1.3,0-1.3,0.7-1.3,1.7c0,17.6,0,35.3,0,52.9c0,1.2,0.3,1.8,1.7,1.8C144.1,87.9,155.8,88.9,167.3,93.8
		z M135.4,179.5c-14.9,0-29.6,0-44.5,0c1.6,3.1,3.9,4.8,7.1,4.8c10.1,0.1,20.2,0.1,30.3,0C131.5,184.2,133.8,182.6,135.4,179.5z"/>
	<path class="st1" d="M148.6,129.8c0,1.2,0,2.4,0,3.6c-0.1,2.6-1.4,4.4-3.7,5.5c-1.6,0.8-3.4,4.9-2.8,6.6c0.9,2.5,0.5,4.7-1.3,6.7
		c-1.7,1.7-3.3,3.5-5.1,5.1c-1.9,1.8-4.2,2.3-6.7,1.4c-1.7-0.6-5.8,1.1-6.6,2.8c-1.1,2.4-3,3.7-5.7,3.7c-2.4,0-4.8,0-7.2,0
		c-2.6,0-4.4-1.3-5.6-3.6c-0.9-1.7-4.9-3.4-6.7-2.8c-2.3,0.8-4.5,0.5-6.4-1.2c-1.9-1.7-3.7-3.5-5.4-5.4c-1.8-1.9-2.1-4.1-1.3-6.5
		c0.6-1.7-1.1-5.8-2.7-6.6c-2.4-1.1-3.7-3-3.8-5.7c0-2.3,0-4.7,0-7c0-2.8,1.3-4.7,3.8-5.9c1.6-0.7,3.2-5,2.6-6.6
		c-0.8-2.4-0.5-4.6,1.3-6.5c1.7-1.8,3.4-3.6,5.2-5.3c1.9-1.8,4.1-2.2,6.5-1.3c1.8,0.6,5.9-1.1,6.7-2.9c1.1-2.2,2.8-3.5,5.4-3.6
		c2.5-0.1,5-0.1,7.4,0c2.7,0,4.6,1.3,5.7,3.7c0.8,1.6,5,3.3,6.6,2.7c2.4-0.9,4.6-0.6,6.5,1.2c1.8,1.7,3.6,3.4,5.3,5.2
		c1.8,1.9,2.2,4,1.4,6.5c-0.6,1.8,1.1,5.9,2.8,6.7c2.3,1.1,3.6,2.9,3.7,5.5C148.6,127.2,148.6,128.5,148.6,129.8
		C148.6,129.8,148.6,129.8,148.6,129.8z M116.7,100.4c-2.2,0-4.1,0-6,0c-0.5,0-1.3,0.4-1.4,0.7c-0.5,2.4-2.2,3.4-4.3,4
		c-1.2,0.4-2.4,0.8-3.5,1.5c-2.3,1.4-4.5,1.6-6.5,0c-1.8,1.7-3.5,3.3-5.3,5.1c2,2.2,1.5,4.4,0.2,6.6c-0.5,0.9-0.9,1.8-1.2,2.8
		c-0.7,2.7-1.8,4.9-4.8,5.2c0,2.6,0,4.9,0,7.3c2.8,0.3,4,2,4.6,4.4c0.3,1.1,0.7,2.3,1.4,3.3c1.4,2.3,1.8,4.6,0.2,6.6
		c1.7,1.8,3.3,3.5,5,5.4c2.2-2,4.4-1.5,6.6-0.2c0.9,0.5,1.9,1,3,1.2c2.6,0.7,4.7,1.8,5,4.8c2.5,0,4.9,0,7.3,0c0.3-2.7,2-4,4.4-4.7
		c1.2-0.3,2.4-0.8,3.5-1.4c2.3-1.4,4.5-1.7,6.5,0c1.8-1.7,3.5-3.3,5.3-5.1c-2-2.2-1.5-4.4-0.2-6.6c0.5-0.9,1-1.9,1.2-2.9
		c0.7-2.6,1.9-4.7,4.8-5c0-2.5,0-4.9,0-7.3c-2.7-0.3-4-1.9-4.7-4.3c-0.3-1.2-0.8-2.4-1.4-3.5c-1.3-2.3-1.7-4.5-0.2-6.3
		c-1.7-1.9-3.3-3.7-5-5.5c-2,1.8-4,1.5-6.2,0.3c-1.3-0.7-2.7-1.3-4.1-1.7C118.5,104.4,117,103.1,116.7,100.4z"/>
	<path class="st0" d="M199.9,54.7c3.2,0.4,4.6,1.2,4.8,3.2c0.1,2.1-1.4,2.9-4.6,3.3c-5.7,0.7-11.4,1.6-17,2.6
		c-2.5,0.4-4.6-1.2-3.9-3.5c0.3-1,1.6-2.1,2.6-2.3C187.8,56.8,193.8,55.8,199.9,54.7z"/>
	<path class="st0" d="M199.6,41.4c0.7,0,1.3,0,2,0c1.7,0.1,2.8,1,3,2.7c0.2,1.7-0.7,2.9-2.4,3.2c-2.1,0.3-4.3,0.3-6.4,0.6
		c-4.1,0.6-8.2,1.3-12.2,2.1c-2.4,0.4-3.9-0.1-4.4-1.9c-0.5-1.9,0.5-3.5,2.9-3.9c5.8-1.1,11.7-2.1,17.5-3.1
		C199.6,41.2,199.6,41.3,199.6,41.4z"/>
	<path class="st0" d="M182,79c-1.5,0-2.7-0.8-3-2.4c-0.3-1.6,0.3-2.9,1.9-3.3c3.2-0.8,6.5-1.5,9.8-2c1.7-0.3,2.8,0.8,3.1,2.4
		c0.3,1.6-0.4,2.9-2,3.3C188.7,77.8,185.4,78.3,182,79z"/>
	<path class="st0" d="M140.8,54.8c5.9,1,11.7,2,17.5,3.1c2.4,0.5,3.5,2.1,2.9,3.9c-0.5,1.7-2,2.3-4.4,1.9
		c-5.7-0.9-11.5-1.7-17.2-2.5c-2.5-0.3-3.9-1.3-3.9-3.2c0-2,1.5-3,4.2-2.9c0.3,0,0.5,0,0.8,0C140.8,55,140.8,54.9,140.8,54.8z"/>
	<path class="st0" d="M135.8,73.1c0.1-1.6,1.4-3.1,3.2-2.9c6.7,0.9,13.4,1.8,20,2.9c1.9,0.3,2.7,1.9,2.4,3.6
		c-0.4,1.6-1.8,2.5-3.7,2.2c-6.3-0.9-12.7-1.8-19-2.8C136.9,75.9,135.7,74.6,135.8,73.1z"/>
	<path class="st0" d="M140.8,41.1c5.7,1,11.5,1.9,17.2,2.9c0.9,0.2,2.1,0.5,2.4,1.1c0.5,1,0.8,2.4,0.6,3.4c-0.4,1.4-1.8,1.8-3.3,1.5
		c-4.6-0.8-9.2-1.6-13.8-2.4c-1.4-0.2-2.9-0.2-4.4-0.3c-2.4-0.2-3.9-1.5-3.7-3.3c0.2-1.8,1.6-2.8,4-2.7c0.3,0,0.7,0,1,0
		C140.8,41.4,140.8,41.2,140.8,41.1z"/>
	<path class="st2" d="M131.6,129.7c0,10.2-8.3,18.5-18.5,18.5c-10.1,0-18.4-8.3-18.4-18.4c0-10.1,8.2-18.4,18.3-18.5
		C123.2,111.3,131.6,119.5,131.6,129.7z M100.7,129.8c0,6.8,5.6,12.4,12.4,12.4c6.8,0,12.4-5.5,12.5-12.3c0-6.9-5.6-12.5-12.5-12.5
		C106.3,117.4,100.7,123,100.7,129.8z"/>
</g>
</svg>
