<?xml version="1.0" encoding="utf-8"?>
<!-- Generator: Adobe Illustrator 24.0.0, SVG Export Plug-In . SVG Version: 6.00 Build 0)  -->
<svg version="1.1" id="Capa_1" xmlns="http://www.w3.org/2000/svg" xmlns:xlink="http://www.w3.org/1999/xlink" x="0px" y="0px"
	 viewBox="0 0 200 200" style="enable-background:new 0 0 200 200;" xml:space="preserve">
<style type="text/css">
	.st0{fill:#ACAEAF;}
	.st1{fill:#1C3247;}
	.st2{fill:#FE9900;}
</style>
<g>
	<g>
		<path class="st0" d="M21.9,155.1c1.3-2.6,3.9-1.7,6.2-2c0-0.8,0-1.5,0-2.2c0-25.3,0-50.6,0-75.9c0-3.4,0.8-6.4,3.2-8.9
			c2.2-2.2,4.8-3.5,8-3.5c8.6,0,17.2,0,25.8,0c1.6,0,2.7,0.9,2.7,2.2c0,1.4-1.1,2.3-2.8,2.3c-8.1,0-16.3,0-24.4,0
			c-5.1,0-7.8,2.6-7.8,7.7c0,25.5,0,51,0,76.5c0,0.5,0,1.1,0,1.8c2.1,0,3.9,0,5.8,0c1.3,0,2.5,0,3.8,0c2.1,0,3.1,0.8,3.1,2.3
			c0,1.5-1,2.3-3.1,2.3c-5.2,0-10.3,0-15.5,0c-1.1,4.2,1.6,8.1,5.8,8.5c0.5,0,0.9,0,1.4,0c43.8,0,87.7,0,131.5,0
			c4,0,6.6-1.9,7.3-5.2c0.2-1,0.1-2.1,0.2-3.3c-0.9,0-1.6,0-2.3,0c-38.8,0-77.5,0-116.3,0c-0.7,0-1.3,0-2-0.1
			c-1.2-0.2-1.9-1.1-1.8-2.3c0.1-1.2,0.8-2,2.1-2.1c0.6,0,1.1,0,1.7,0c36.7,0,73.5,0,110.2,0c2,0,2,0,2-2c0-17.4,0-34.8,0-52.1
			c0-0.6,0-1.2,0.1-1.8c0.2-1.3,1-2,2.3-2c1.2,0,2,0.7,2.2,1.9c0.1,0.6,0.1,1.2,0.1,1.8c0,17.4,0,34.8,0,52.1c0,0.6,0,1.3,0,2
			c2.3,0.3,4.9-0.6,6.2,2c0,2.1,0,4.2,0,6.4c-1.7,7-6.9,9.4-13.4,9.4c-43.2-0.1-86.3-0.1-129.5-0.1c-0.7,0-1.3,0-2,0
			c-4.5-0.3-7.8-2.5-9.7-6.6c-0.4-0.9-0.6-1.8-0.9-2.7C21.9,159.4,21.9,157.2,21.9,155.1z"/>
		<path class="st0" d="M41.9,76.3c0,22.7,0,45.2,0,67.7c38.5,0,76.9,0,115.4,0c0-22.5,0-45,0-67.7c-0.5,0-1,0-1.6,0
			c-7.7,0-15.5,0-23.2,0c-0.6,0-1.1,0-1.6-0.2c-1.2-0.4-1.7-1.2-1.6-2.4c0.1-1.1,0.8-1.8,2-1.9c0.4,0,0.8,0,1.2,0
			c8.8,0,17.5,0,26.3,0c2.6,0,3.3,0.6,3.3,3.2c0,23.5,0,47,0,70.5c0,2.7-0.6,3.3-3.4,3.3c-39.4,0-78.8,0-118.1,0
			c-2.7,0-3.3-0.6-3.3-3.3c0-23.4,0-46.9,0-70.3c0-2.7,0.6-3.3,3.3-3.3c8.8,0,17.6,0,26.4,0c0.5,0,0.9,0,1.4,0c1.1,0.2,1.8,0.9,2,2
			c0.1,1.1-0.4,2-1.5,2.3c-0.6,0.2-1.2,0.2-1.8,0.2c-7.8,0-15.6,0-23.4,0C43.1,76.3,42.5,76.3,41.9,76.3z"/>
		<path class="st0" d="M71.9,59.9c0.5-11.3,5.5-19.9,15.7-24.9c10.2-4.9,20-3.7,29.2,3c0.4,0.3,0.8,0.6,1.2,1
			c0.9,0.9,1.1,2.2,0.3,3.1c-0.8,1-2.1,1.1-3.2,0.3c-0.2-0.1-0.4-0.3-0.6-0.5C100.9,31,81,38,77,55c-3,12.7,5.5,25.4,18.8,27.9
			c12.4,2.4,25-6.5,27-19c0.8-4.9,0.1-9.6-2.1-14.1c-0.6-1.1-0.5-2.2,0.4-3c0.9-0.7,1.9-0.8,2.8-0.1c0.4,0.3,0.7,0.7,0.9,1.2
			c8.2,16-2,36.3-19.7,39.5c-16.2,2.9-30.8-7.8-33-24.2C72,62,72,60.9,71.9,59.9z"/>
		<path class="st1" d="M95.5,58.6c4-4,7.8-7.8,11.6-11.6c2.3-2.3,3.6-2.3,5.9,0c1.4,1.4,2.9,2.8,4.3,4.3c1.7,1.7,1.7,3.2,0,4.9
			c-5.6,5.6-11.2,11.2-16.8,16.8c-2.9,2.8-6.9,2.8-9.8,0c-3-2.9-5.9-5.8-8.8-8.8c-1.6-1.6-1.6-3.2,0-4.8c1.6-1.7,3.3-3.3,4.9-4.9
			c1.6-1.5,3.2-1.5,4.8,0.1c0.7,0.6,1.3,1.3,1.9,1.9C94.1,57.1,94.8,57.8,95.5,58.6z M86.1,61.7c0.1,0.2,0.2,0.3,0.2,0.4
			c2.4,2.4,4.7,4.7,7.1,7.1c1.7,1.7,2.7,1.7,4.5,0c4.9-4.9,9.7-9.7,14.6-14.6c0.3-0.3,0.5-0.6,0.7-0.7c-1.1-1.1-2.1-2.2-3.1-3.3
			c-3.4,3.4-6.7,6.6-10,10c-3.9,4.1-4.9,4.3-8.8,0c-0.6-0.7-1.2-1.5-1.8-2.3C88.1,59.7,87.1,60.7,86.1,61.7z"/>
		<path class="st0" d="M147.5,62.6c3.9,0,7.9,0,11.8,0c6.7,0,11.5,4.6,11.7,11.3c0.1,4.5,0.1,9,0,13.5c0,1.7-0.9,2.6-2.3,2.6
			c-1.4,0-2.2-0.9-2.3-2.6c0-4.1,0-8.3,0-12.4c0-5.1-2.7-7.8-7.7-7.8c-7.8,0-15.6,0-23.4,0c-0.4,0-0.8,0-1.2,0
			c-1.5-0.1-2.5-1.1-2.4-2.4c0.1-1.2,1-2.1,2.5-2.1c3.9,0,7.9,0,11.8,0C146.6,62.6,147.1,62.6,147.5,62.6z"/>
	</g>
	<g>
		<path class="st1" d="M51,121.7c0.3-0.7,0.8-1.1,1.5-1.2c2.2-0.4,4.4-0.9,6.6-1.3c0.2,0,0.5-0.1,0.7-0.2c3.9-2.4,7.8-4.8,11.7-7.3
			c0.1,0,0.1-0.1,0.2-0.2c-0.1-0.2-0.2-0.3-0.3-0.5c-1.2-1.9-2.4-3.9-3.6-5.8c-2-3.3-0.6-7.2,3.2-8.3c4.4-1.3,8.7-2.5,13.1-3.8
			c2.4-0.7,4.8,0.6,5.5,3c0.7,2.4-0.6,4.8-3.1,5.5c-2.8,0.8-5.5,1.6-8.3,2.4c-0.1,0-0.3,0.1-0.4,0.1c1.9,3,3.7,6,5.6,9
			c-0.5-1.9-0.4-3.8,0.6-5.5c1-1.8,2.5-2.9,4.5-3.3c3.1-0.6,6.2,1,7.5,3.8c1.3,2.9,0.4,6.3-2.1,8.1c-2.4,1.8-6.1,2-8.9-0.6
			c0,0.1,0.1,0.2,0.1,0.3c1.2,1.9,2.4,3.9,3.6,5.8c0.2,0.3,0.3,0.3,0.6,0.3c3.6,0,7.1-0.6,10.5-1.4c0.4-0.1,0.8-0.1,1.2,0
			c0.6,0.2,1,0.8,1,1.4c0,0.7-0.5,1.2-1.1,1.4c-1.7,0.4-3.5,0.8-5.3,1.1c-3.4,0.6-6.7,0.7-10.1,0.4c-2.9-0.3-5.8-0.8-8.8-1.3
			c-3.3-0.6-6.6-1.3-9.9-1.6c-4.3-0.4-8.5,0-12.7,1.1c-0.3,0.1-0.6,0.2-0.9,0.2c-1.2,0.3-1.7,0.1-2.3-1C51,122.2,51,122,51,121.7z
			 M85.2,122c0,0,0-0.1,0.1-0.1c-0.1-0.2-0.2-0.3-0.3-0.5c-3.5-5.7-7-11.4-10.6-17.1c-0.7-1.1-0.3-2.1,0.9-2.5
			c2.5-0.7,4.9-1.4,7.4-2.1c1-0.3,2.1-0.6,3.1-0.9c0.6-0.2,1-0.8,1-1.4c0-0.6-0.4-1.2-1-1.3c-0.4-0.1-0.8,0-1.2,0.1
			c-4.2,1.2-8.5,2.4-12.7,3.7c-1.9,0.6-2.6,2.2-1.5,3.9c1.5,2.4,3,4.9,4.5,7.3c0.6,1,0.5,1.8-0.6,2.5c-2.7,1.7-5.4,3.4-8.2,5.1
			c-0.2,0.1-0.3,0.2-0.6,0.4c0.3,0,0.5,0,0.7,0.1c1.6,0.2,3.3,0.3,4.9,0.6c3.2,0.5,6.3,1.2,9.5,1.8C82.2,121.6,83.7,121.8,85.2,122z
			 M89.8,107.2c-2.1,0-3.7,1.7-3.7,3.7c0,2.1,1.7,3.7,3.7,3.7c2,0,3.7-1.7,3.7-3.7C93.5,108.9,91.9,107.2,89.8,107.2z"/>
		<path class="st1" d="M51,128.7c0.3-0.7,0.8-1,1.5-1.2c4.1-1.1,8.2-1.7,12.5-1.6c3.2,0.1,6.3,0.6,9.5,1.2c3.2,0.6,6.4,1.2,9.7,1.7
			c5.2,0.7,10.3,0.2,15.4-1.1c0.2-0.1,0.4-0.1,0.7-0.2c0.8-0.2,1.6,0.3,1.8,1.1c0.2,0.8-0.3,1.6-1.1,1.8c-1.5,0.4-3,0.7-4.5,1
			c-2.9,0.5-5.8,0.7-8.7,0.6c-3.3-0.1-6.6-0.6-9.8-1.2c-3.2-0.6-6.3-1.2-9.5-1.7c-5-0.7-10-0.2-14.9,1.1c-0.5,0.1-1,0.2-1.4,0
			c-0.4-0.1-0.6-0.6-0.9-1C51,129.2,51,128.9,51,128.7z"/>
	</g>
	<g>
		<path class="st0" d="M118.9,131.4c-1.2,0-2.3,0-3.5,0c-1.5,0-2.3-0.7-2.3-2.2c0-2.4,0-4.8,0-7.2c0-1.5,0.7-2.3,2.2-2.3
			c2.4,0,4.8,0,7.2,0c1.5,0,2.3,0.7,2.3,2.2c0,2.4,0,4.8,0,7.2c0,1.6-0.7,2.3-2.3,2.3C121.3,131.4,120.1,131.4,118.9,131.4z
			 M120.9,127.5c0-1.3,0-2.5,0-3.8c-1.3,0-2.5,0-3.7,0c0,1.3,0,2.5,0,3.8C118.4,127.5,119.6,127.5,120.9,127.5z"/>
		<path class="st2" d="M134.5,131.4c-1.2,0-2.3,0-3.5,0c-1.5,0-2.3-0.7-2.3-2.2c0-2.4,0-4.8,0-7.2c0-1.5,0.7-2.3,2.2-2.3
			c2.4,0,4.8,0,7.2,0c1.5,0,2.3,0.7,2.3,2.2c0,2.4,0,4.8,0,7.2c0,1.6-0.7,2.3-2.3,2.3C136.8,131.4,135.7,131.4,134.5,131.4z
			 M136.4,123.7c-1.3,0-2.5,0-3.8,0c0,1.3,0,2.5,0,3.7c1.3,0,2.5,0,3.8,0C136.4,126.2,136.4,125,136.4,123.7z"/>
		<path class="st2" d="M116.3,110c-0.9-0.8-1.7-1.5-2.4-2.3c-1-1-1-2.2-0.2-3c0.8-0.8,1.9-0.7,2.9,0.2c0.7,0.7,1.4,1.4,2.2,2.1
			c0,0,0.1,0,0.3,0.1c0.6-0.7,1.3-1.4,2.1-2.2c1-1,2.2-1.1,3-0.2c0.8,0.8,0.7,2-0.3,3c-0.7,0.7-1.5,1.4-2.4,2.2
			c0.9,0.9,1.7,1.5,2.5,2.3c1,1,1.1,2.2,0.3,3c-0.8,0.8-2,0.8-3-0.2c-0.7-0.7-1.4-1.5-2.4-2.6c-0.8,0.9-1.4,1.8-2.1,2.5
			c-1,1-2.1,1.1-3,0.3c-0.9-0.9-0.8-2,0.3-3.1C114.7,111.5,115.5,110.8,116.3,110z"/>
		<path class="st0" d="M137.1,110c0.9,0.9,1.7,1.6,2.5,2.3c1,1,1,2.1,0.2,2.9c-0.8,0.9-2,0.8-3-0.2c-0.7-0.7-1.4-1.5-2.3-2.4
			c-0.8,0.9-1.5,1.7-2.3,2.4c-1,1-2.2,1-3,0.2c-0.8-0.8-0.7-1.9,0.2-2.9c0.7-0.7,1.5-1.4,2.4-2.3c-0.9-0.9-1.7-1.6-2.4-2.3
			c-1-1-1.1-2.2-0.2-3c0.8-0.8,2-0.7,3,0.3c0.7,0.7,1.4,1.4,2.1,2c0,0,0.1,0,0.4,0.3c0.7-0.8,1.3-1.6,2.1-2.3c1-1,2.1-1.1,3-0.3
			c0.8,0.8,0.8,2-0.2,3C138.8,108.5,138.1,109.1,137.1,110z"/>
	</g>
</g>
</svg>
