<svg id="Grupo_25" data-name="Grupo 25" xmlns="http://www.w3.org/2000/svg" xmlns:xlink="http://www.w3.org/1999/xlink" width="66.667" height="53.296" viewBox="0 0 66.667 53.296">
  <defs>
    <clipPath id="clip-path">
      <rect id="Rectángulo_32" data-name="Rectángulo 32" width="66.667" height="53.296" fill="#afbbc7"/>
    </clipPath>
  </defs>
  <g id="Grupo_24" data-name="Grupo 24" clip-path="url(#clip-path)">
    <path id="Trazado_43" data-name="Trazado 43" d="M66.667,47.781a2.609,2.609,0,0,1-2.86,1.837C61.2,49.566,58.6,49.6,56,49.605c-.572,0-1.043-.145-1.195-.767-.165-.675.292-1.186,1.074-1.189,2.322-.009,4.644,0,6.966,0a8.353,8.353,0,0,0,1.363-.024c.192-.032.372-.3.5-.5.069-.109.013-.3.013-.449V8.907c0-.959,0-.959-.966-.96H60.738v.887q0,15.948,0,31.9a4.865,4.865,0,0,1-.118,1.291A2.264,2.264,0,0,1,58.2,43.606H31.954v4.04H50.635a5.762,5.762,0,0,1,.586.007.9.9,0,0,1,.9.927.918.918,0,0,1-.83,1,3.3,3.3,0,0,1-.649.022H31.92c0,.475.008.92,0,1.365a2.208,2.208,0,0,1-2.287,2.316q-10.839.02-21.678,0a2.245,2.245,0,0,1-2.32-2.432c-.015-2.152,0-4.305,0-6.458v-.79c-1.037,0-2.028,0-3.019,0A2.324,2.324,0,0,1,0,41Q0,21.79,0,2.58A2.29,2.29,0,0,1,2.562,0q27.8,0,55.6,0a2.292,2.292,0,0,1,2.579,2.561c.009,1.106,0,2.211,0,3.428H62.58c.434,0,.871.032,1.3-.006A2.516,2.516,0,0,1,66.667,7.73ZM31.921,41.65H57.827c.956,0,.957,0,.957-.978q0-18.882,0-37.764c0-.95,0-.951-.98-.951H2.929c-.975,0-.976,0-.976.95q0,18.914,0,37.829a1.471,1.471,0,0,0,.016.516c.061.152.223.371.346.375,1.095.029,2.191.017,3.313.017v-.879c0-3.761-.005-7.522,0-11.283a2.3,2.3,0,0,1,2.445-2.523q10.708-.021,21.416,0a2.257,2.257,0,0,1,2.425,2.459c.008,3.413,0,6.826,0,10.24V41.65m-1.953-9.507c0-.825,0-1.561,0-2.3,0-.935,0-.937-.932-.937H8.529a1.289,1.289,0,0,0-.514.022c-.167.079-.4.255-.407.4-.036.924-.019,1.85-.019,2.815H8.46q6.315,0,12.629,0a2.887,2.887,0,0,1,.833.086.87.87,0,0,1,.639,1.006.883.883,0,0,1-.837.849,5.259,5.259,0,0,1-.65.012H7.582v.682c0,5.24.01,10.48-.013,15.72,0,.66.195.853.852.849,4.253-.027,8.506-.014,12.76-.014H21.9c0-1.952-.013-3.8,0-5.644a2.3,2.3,0,0,1,2.406-2.431c.5-.014,1,0,1.5,0h4.116V34.1h-.739c-1,0-2,.053-2.992-.033a1.256,1.256,0,0,1-.9-.651,1.238,1.238,0,0,1,.3-1.015,1.348,1.348,0,0,1,.9-.247c1.125-.027,2.251-.011,3.47-.011m-1.6,13.108a.532.532,0,0,0-.12-.029c-.929,0-1.859-.011-2.788,0-1.859.014-1.588-.221-1.606,1.632-.009.982,0,1.965,0,2.914l4.516-4.513m1.591,1.66-4.492,4.422c1.351,0,2.712.011,4.072-.017a.56.56,0,0,0,.4-.369c.03-1.38.018-2.761.018-4.036" transform="translate(0 0)" fill="#afbbc7"/>
    <path id="Trazado_44" data-name="Trazado 44" d="M79.824,33.746V30.681H42.747c-1.066,0-1.516-.3-1.5-.993.014-.66.48-.964,1.482-.964H79.7c1.55,0,2.1.559,2.1,2.127,0,1.044.009,2.087,0,3.131a1.642,1.642,0,0,1-1.742,1.765c-.152.005-.3,0-.456,0H34.557c-1.675,0-2.216-.544-2.217-2.226,0-.978-.011-1.957,0-2.935A1.685,1.685,0,0,1,34.2,28.726c1.063-.011,2.126-.008,3.189,0,.763.005,1.207.367,1.217.968.01.635-.425.983-1.247.986-.994,0-1.988,0-3.025,0v3.066Z" transform="translate(-26.711 -23.723)" fill="#1c3247"/>
    <path id="Trazado_45" data-name="Trazado 45" d="M235.906,86.544a5.13,5.13,0,0,1,3.55,3.817A8.594,8.594,0,0,1,239.6,92.3a1.726,1.726,0,0,1-1.942,1.92q-5.335.01-10.67,0c-.217,0-.434.007-.651,0a1.731,1.731,0,0,1-1.756-1.794c-.117-2.985.835-4.528,3.69-5.915a5,5,0,0,1-.887-4.4,4.836,4.836,0,0,1,1.91-2.712,4.893,4.893,0,0,1,6.166.455,4.994,4.994,0,0,1,.448,6.693m1.661,5.686a3.133,3.133,0,0,0-2.858-3.873c-1.751-.067-3.51-.069-5.261,0a3.128,3.128,0,0,0-2.82,3.869Zm-2.541-8.8a2.941,2.941,0,0,0-2.911-2.971,2.952,2.952,0,0,0-.039,5.9,2.942,2.942,0,0,0,2.949-2.933" transform="translate(-185.507 -64.855)" fill="#fc7e00"/>
    <path id="Trazado_46" data-name="Trazado 46" d="M38.218,95.866c-1.343,0-2.686.008-4.029,0a1.657,1.657,0,0,1-1.858-1.84q-.022-2.148,0-4.3a1.663,1.663,0,0,1,1.844-1.857q4.094-.011,8.189,0a1.621,1.621,0,0,1,1.807,1.81c.011,1.433.009,2.865,0,4.3-.007,1.284-.59,1.878-1.859,1.887-1.365.01-2.73,0-4.094,0m3.951-6H34.322v4.012h7.847Z" transform="translate(-26.697 -72.579)" fill="#afbbc7"/>
    <path id="Trazado_47" data-name="Trazado 47" d="M131.252,95.293H118.2a3.9,3.9,0,0,1-.65-.017.968.968,0,0,1-.066-1.907,2.693,2.693,0,0,1,.647-.031q6.215,0,12.43,0h.687l.122-.188a7.855,7.855,0,0,1-.767-.659.966.966,0,1,1,1.371-1.361q1.27,1.216,2.486,2.488a.931.931,0,0,1,0,1.4q-1.215,1.271-2.485,2.489a.961.961,0,0,1-1.4-.009.944.944,0,0,1,.067-1.395,6.422,6.422,0,0,1,.751-.584l-.152-.225" transform="translate(-96.414 -75.029)" fill="#fc7e00"/>
    <path id="Trazado_48" data-name="Trazado 48" d="M230.5,184.356q3.088,0,6.176,0a3.384,3.384,0,0,1,.711.045.773.773,0,0,1,.692.878,1.788,1.788,0,0,1-.631.936c-.18.147-.54.093-.82.093q-6.176.007-12.352,0c-.13,0-.26,0-.39,0-.719-.041-1.122-.408-1.109-1.006s.419-.941,1.156-.944c2.188-.009,4.377,0,6.566,0" transform="translate(-184.023 -152.286)" fill="#afbbc7"/>
    <path id="Trazado_49" data-name="Trazado 49" d="M230.44,209.856q3.25,0,6.5,0c.52,0,.951.134,1.12.685a.932.932,0,0,1-.738,1.225,3.655,3.655,0,0,1-.711.046q-6.176,0-12.351,0c-.108,0-.217,0-.325,0-.763-.035-1.183-.4-1.163-1.019.019-.589.426-.93,1.167-.932,2.167-.008,4.334,0,6.5,0" transform="translate(-184.02 -173.35)" fill="#afbbc7"/>
    <path id="Trazado_50" data-name="Trazado 50" d="M199.48,186.8c-.762-.01-1.229-.3-1.209-.865.012-.319.216-.85.425-.9a3.625,3.625,0,0,1,1.668.011c.206.052.4.589.406.907.007.583-.475.855-1.291.845" transform="translate(-163.782 -152.771)" fill="#afbbc7"/>
    <path id="Trazado_51" data-name="Trazado 51" d="M199.514,209.863c.814,0,1.283.286,1.25.877-.018.317-.233.831-.453.888a3.293,3.293,0,0,1-1.61,0c-.219-.058-.429-.574-.445-.892-.028-.59.439-.869,1.258-.868" transform="translate(-163.769 -173.357)" fill="#afbbc7"/>
    <path id="Trazado_52" data-name="Trazado 52" d="M73.7,219.076q-2.99,0-5.981,0c-.838,0-1.251-.336-1.241-.981.01-.616.424-.969,1.21-.97q6.013-.011,12.027,0c.759,0,1.214.382,1.225.972.012.612-.45.978-1.259.98q-2.99.006-5.981,0" transform="translate(-54.917 -179.35)" fill="#afbbc7"/>
    <path id="Trazado_53" data-name="Trazado 53" d="M70.159,250.616c-.868,0-1.736.014-2.6,0-.694-.014-1.067-.369-1.069-.961a.947.947,0,0,1,1.06-.981q2.6-.029,5.206,0a.951.951,0,0,1,1.069.972c0,.594-.371.955-1.061.97-.867.019-1.735,0-2.6,0" transform="translate(-54.922 -205.402)" fill="#afbbc7"/>
  </g>
</svg>
