<?xml version="1.0" encoding="utf-8"?>
<!-- Generator: Adobe Illustrator 24.0.0, SVG Export Plug-In . SVG Version: 6.00 Build 0)  -->
<svg version="1.1" id="Capa_1" xmlns="http://www.w3.org/2000/svg" xmlns:xlink="http://www.w3.org/1999/xlink" x="0px" y="0px"
	 viewBox="0 0 200 200" style="enable-background:new 0 0 200 200;" xml:space="preserve">
<style type="text/css">
	.st0{fill:#1C3247;}
	.st1{fill:#FE9900;}
	.st2{fill:#ACAEAF;}
</style>
<g>
	<circle class="st0" cx="21.8" cy="106.9" r="13"/>
	<circle class="st1" cx="175.2" cy="95" r="9.8"/>
	<g>
		<path class="st2" d="M140.2,20.5c2.2,0,4.4,0,6.8,0c1.2,0.2,2.6,0.5,3.8,0.7c14.6,3.3,25.1,14.9,27.1,29.9
			c1.8,14-5.7,28.2-18.7,34.9c-0.5,0.2-0.9,0.5-1.4,0.7c0.1,0.4,0.1,0.5,0.1,0.7c2.8,11.1,2.5,22-0.9,32.9c-0.5,1.7-1.8,2.6-3.2,2.1
			c-1.4-0.5-1.8-1.7-1.5-3.4c0.5-1.7,1-3.3,1.4-5c0.5-3,0.9-5.9,1.4-9c-0.9,0-1.4-0.1-1.8-0.1c-6.6,0-13.3,0-19.9,0
			c-1.4,0-1.6,0.5-1.7,1.7c-0.6,5.9-1.2,11.8-2,17.6c-0.5,3.1-1.4,6-2.1,8.7c4.1,2.5,8.1,4.9,12.3,7.4c3.1-3.2,5.9-6.9,8.2-11
			c0.9-1.5,2.2-2,3.4-1.2c1.2,0.7,1.5,2.1,0.6,3.6c-11.1,20.8-36.7,33.3-60,29.4c-1.1-0.2-1.6,0-2.1,1.2
			c-3.8,9.6-10.6,16.4-20.3,19.9c-2.7,1-5.8,1.5-8.6,2.2c-2.1,0-4.3,0-6.4,0c-1.4-0.2-2.7-0.5-4.1-0.7
			c-14.6-3.2-25.2-14.9-27.2-29.9c-1.8-14.3,5.8-28.4,18.9-35.1c0.4-0.2,0.7-0.4,1.1-0.6c-0.1-0.2-0.1-0.5-0.1-0.7
			c-2.8-11.4-2.5-22.8,1.4-34c0.6-1.8,1.7-2.6,3.2-2.1c1.5,0.5,1.8,1.7,1.4,3.6c-0.6,2-1.2,3.9-1.6,6c-0.6,3-1,6-1.4,9.2
			c7.9,0,15.3,0,22.6,0c0.2,0,0.9-0.7,0.9-1.1c0.2-9,1.6-17.7,4.1-26.3c0.1-0.4-0.1-1-0.5-1.2c-3.8-2.2-7.8-4.4-12.1-6.8
			c-2.2,3.1-4.7,6.4-7.1,9.8c-1.1,1.5-2.3,2-3.6,1.2c-1.2-0.7-1.5-2.1-0.5-3.8C62,51.9,86.4,40.2,109.5,43.9
			c1.1,0.2,1.6-0.1,2.1-1.2c3.7-9.2,10.2-15.9,19.4-19.6C133.7,21.9,137,21.4,140.2,20.5z M131.4,56c-1.1-5.4-0.7-11-0.5-16.4
			c0.2-4.2,3.7-7.1,8-7.3c3.1,0,6,0,9.1,0c4.6,0,8.1,3.3,8.1,7.9c0,5.3,0.6,10.5-0.6,15.7c0.2,0.1,0.6,0.1,0.9,0.2
			c7,1.5,10.8,6.2,10.8,13.4c0,1.1,0,2.3,0,3.7c8.4-10,9.5-28.9-4.3-40.7c-13-11.2-32.9-9-43.2,4.8c-9.7,12.8-6,29.2,0.4,35.7
			C119,64.1,122,57.8,131.4,56z M81.3,167.8c8.5-10.6,9.2-28.7-3.4-40.2c-12.3-11.2-31.1-10.2-42.2,2c-11.3,12.6-8.7,29.8-1.4,38
			c-0.7-9,2.1-15.4,11.6-17.2c-0.1-0.9-0.5-1.6-0.5-2.3c-0.1-4.7-0.4-9.2-0.1-13.9c0.2-4.2,3.7-7.3,7.9-7.4c4.9-0.1,9.8,0,14.6,0
			c1.7,0,2.7,0.9,2.7,2.5c-0.1,7,0.6,14.2-0.6,21.3c0.1,0,0.4,0.1,0.5,0.1c6.3,1,10.3,5.4,11,11.7C81.4,164.1,81.3,165.7,81.3,167.8
			z M136.3,84.2c4.3,1.1,8.5,1.1,12.8,0.4c1.1-0.2,1.5-0.6,1.5-1.7c-0.1-3.1,0-6.2,0-9.2c0-1.8,0.9-2.8,2.3-2.8s2.3,1,2.3,2.7
			c0,1.6,0,3.3,0,4.9c0,1.4,0,2.6,0,3.9c0.1,0.1,0.4,0.1,0.5,0.2c2-1.2,3.9-2.5,5.9-3.8c0.4-0.2,0.5-0.9,0.6-1.4c0-3,0.1-6,0-9
			c-0.1-3.3-2.1-6.2-5.2-7.1c-1.8-0.6-3.9-1.2-5.8,0.1c-4.8,3.6-10.7,3.6-15.5,0c-0.4-0.2-0.7-0.5-1.1-0.6c-5.2-1-9.7,2.6-10,7.8
			c-0.1,3,0,5.9,0,8.7c0,0.4,0.1,1,0.4,1.1c2.1,1.4,4.1,2.7,6.5,4.3c0-1.1,0-1.7,0-2.3c0-2.5,0-5,0-7.5c0-1.4,0.7-2.2,2.1-2.3
			c1.4-0.1,2.1,0.5,2.5,1.7c0.1,0.5,0.1,1.1,0.1,1.6C136.3,77.4,136.3,80.7,136.3,84.2z M45.3,177.2c0.1-0.1,0.2-0.2,0.4-0.4
			c0-3,0-5.8,0-8.7c0-1.1,0.4-2.1,1.5-2.6c1.7-0.7,3.3,0.5,3.3,2.6c0,3.2,0,6.3,0,9.5c0,1,0.2,1.5,1.4,1.6c3,0.1,5.8,0.6,8.7,0.4
			c4.2-0.2,4.2-0.5,4.2-4.7c0-2.3,0-4.7,0-7c0-1.5,1.1-2.5,2.5-2.5c1.2,0,2.2,1,2.3,2.3c0,0.9,0,1.8,0,2.7c0,2.2,0,4.4,0,7
			c2.3-1.5,4.3-2.6,6.2-3.9c0.4-0.2,0.7-1,0.7-1.6c0.1-2.8,0.1-5.8,0-8.6c-0.1-3.6-2.2-6.5-5.5-7.4c-1.8-0.5-3.8-1-5.5,0.2
			c-4.9,3.6-10.6,3.6-15.5,0c-0.4-0.2-0.7-0.5-1.1-0.6c-5.2-1.1-9.8,2.7-10,7.9c0,2.8,0,5.7,0,8.5c0,0.5,0.2,1.2,0.6,1.5
			C41.4,174.7,43.5,175.9,45.3,177.2z M74.3,100c0.4,0.1,0.6,0.1,0.9,0.1c7.3,0,14.5,0,21.9,0c1.2,0,1.2-0.6,1.2-1.5
			c0-6.8,0-13.7,0-20.4c0-0.4-0.1-0.9-0.1-1C91.5,76.2,85,75,78.2,73.9C75.7,82.1,74.4,90.9,74.3,100z M126.9,105.1
			c-8,0-15.9,0-23.7,0c0,7.8,0,15.4,0,22.8c6.6,1.1,13.2,2.2,19.8,3.3C125.4,122.9,126.7,114.1,126.9,105.1z M102.9,100
			c8,0,15.9,0,24.1,0c-0.5-4.9-1-9.7-1.6-14.5c0-0.4-0.6-0.9-1-1.1c-3.3-2.2-6.3-4.9-8.7-8.1c-0.4-0.4-1.1-0.7-1.7-0.6
			c-3.2,0.2-6.3,0.7-9.5,1c-1.2,0.1-1.7,0.5-1.7,1.8c0.1,6.6,0,13.3,0,19.9C102.9,98.9,102.9,99.4,102.9,100z M74,105.1
			c0.5,4.9,1,9.6,1.5,14.2c0.1,0.5,0.6,1.1,1,1.5c3.3,2.2,6.3,4.9,8.7,8.1c0.4,0.4,1.1,0.7,1.7,0.6c3.2-0.2,6.4-0.7,9.7-1
			c1.4-0.1,1.6-0.6,1.6-1.7c0-6.8,0-13.4,0-20.2c0-0.5-0.1-1-0.1-1.5C90.1,105.1,82.3,105.1,74,105.1z M103.1,133.1
			c0,7.9,0,15.6,0,23.4c6.8-0.5,14.5-10.2,18-20.3C118.1,134.7,108.3,133,103.1,133.1z M79.8,68.8c6.2,2,12.1,3,18.2,3.1
			c0-8,0-15.7,0-23.9C87.9,51.5,83.9,59.9,79.8,68.8z M131,87.6c0.2,3.8,0.5,7.4,0.6,11c0,1.4,0.6,1.6,1.7,1.6c6.6,0,13.4,0,20.1,0
			c0.5,0,0.9-0.1,1.7-0.1c-0.6-3.9-1.2-7.6-1.7-11.6C145.6,90.7,138.2,90.3,131,87.6z M47.7,116.5c7.8-2.2,15.1-1.8,22.5,0.7
			c-0.4-4.3-0.6-8.2-0.9-12.3c-7.8,0-15.3,0-23.4,0C46.6,108.9,47.2,112.6,47.7,116.5z M49.9,140.8c0,2.1-0.1,4.1,0,5.9
			c0.4,3.7,3,6.5,6.6,7.1c3.3,0.6,6.8-1.2,8.2-4.4c1.4-2.8,0.7-5.7,0.7-8.6C60.2,140.8,55.2,140.8,49.9,140.8z M135.5,47.7
			c-0.2,3.9-0.4,8,3.7,10.5c2.8,1.7,5.7,1.7,8.4-0.1c3.2-2.1,3.9-5.3,3.6-8.9c-0.1-0.1-0.2-0.1-0.4-0.1c-3.4,0.1-6.8-0.5-9.6-2.6
			c-0.2-0.1-0.7-0.1-1-0.1C138.7,46.7,137.3,47.2,135.5,47.7z M112.6,71.1c-3.2-6.4-4.2-12.8-3.7-19.6c0-0.2-0.1-0.7-0.4-0.9
			c-1.7-0.9-3.4-1.7-5.4-2.7c0,8.4,0,16.1,0,24.1C106.3,71.7,109.3,71.4,112.6,71.1z M98,133c-3.2,0.4-6.3,0.6-9.5,1
			c3.2,6.4,4.2,12.8,3.7,19.4c0,0.2,0,0.7,0.2,0.9c1.7,1.2,3.4,2.2,5.7,2.5C98,148.8,98,141,98,133z M75.4,67.4
			c2.6-6.5,5.7-12.2,10-17.1c-7.5,2.1-14.2,5.7-20.4,11C68.5,63.4,71.8,65.3,75.4,67.4z M115.8,154.7c7.5-2.1,14.2-5.7,20.4-11
			c-3.6-2.1-6.9-4.1-10.3-6.2C123.2,144.1,120.2,149.7,115.8,154.7z M135.7,42.8c1.2-0.5,2.3-0.7,3.3-1.4c2.1-1.2,2.6-1.2,4.4,0.4
			c2.2,2.1,4.8,2.6,7.9,2.1c0-1.2,0-2.3,0-3.4c-0.1-2.2-1.5-3.4-3.6-3.4c-2.5,0-5,0-7.5,0C136.4,37.2,135.2,38.5,135.7,42.8z
			 M49.9,135.7c5.3,0,10.5,0,15.6,0c0-1.5,0-2.7,0-4.2c-4.2,0-8.4-0.1-12.4,0C51,131.8,49.9,133.2,49.9,135.7z"/>
	</g>
</g>
</svg>
