<?xml version="1.0" encoding="utf-8"?>
<!-- Generator: Adobe Illustrator 24.0.0, SVG Export Plug-In . SVG Version: 6.00 Build 0)  -->
<svg version="1.1" id="Capa_1" xmlns="http://www.w3.org/2000/svg" xmlns:xlink="http://www.w3.org/1999/xlink" x="0px" y="0px"
	 viewBox="0 0 80 80" style="enable-background:new 0 0 80 80;" xml:space="preserve">
<style type="text/css">
	.st0{fill:#ACAEAF;}
	.st1{fill:#FE9900;}
	.st2{fill:#1C3247;}
</style>
<g id="_x35_0tAFi.tif_1_">
	<g>
		<path class="st0" d="M74.3,51.1c-0.2,0.6-0.3,1.1-0.6,1.7c-1.2,2.5-3.2,3.8-6,3.8c-0.7,0-1.5,0-2.3,0c0,0.8,0,1.5,0,2.2
			c0,3.9-2.6,6.5-6.5,6.5c-15.1,0-30.3,0-45.4,0c-3.9,0-6.5-2.6-6.5-6.6c0-8.6,0-17.2,0-25.8c0-3.9,2.6-6.5,6.5-6.6
			c1.9,0,3.8,0,5.8,0c0-0.7,0-1.4,0-2c0-1.5,0.3-2.9,1.2-4.1c1.4-1.8,3.2-2.6,5.5-2.6c8.6,0,17.1,0,25.7,0c1.6,0,3.2,0,4.7,0
			c1,0,1.6,0.5,1.6,1.3c0,0.8-0.6,1.3-1.6,1.3c-10.1,0-20.2,0-30.3,0c-0.6,0-1.2,0.1-1.8,0.3c-1.4,0.5-2.2,1.6-2.3,3.1
			c-0.1,0.9,0,1.7,0,2.7c0.3,0,0.6,0,0.9,0c11.9,0,23.9,0,35.8,0c2.9,0,5.1,1.2,6.3,3.9c0.4,0.9,0.5,2,0.5,2.9c0,6.6,0,13.2,0,19.8
			c0,0.3,0,0.6,0,1c1.2-0.1,2.4,0,3.5-0.2c1.7-0.3,2.8-1.9,2.8-3.6c0-4,0-8,0-12c0-4.6,0-9.2,0-13.8c0-2.4-1.3-3.9-3.7-4.1
			c-0.9-0.1-1.4-0.6-1.3-1.4c0-0.8,0.6-1.2,1.5-1.2c2.9,0,5.4,2.1,6,5c0,0.2,0.1,0.3,0.1,0.5C74.3,32.5,74.3,41.8,74.3,51.1z
			 M36.2,62.6c7.6,0,15.1,0,22.7,0c2.5,0,3.9-1.4,3.9-3.9c0-8.5,0-17.1,0-25.6c0-0.5,0-0.9-0.2-1.4C62.1,30,60.7,29,58.7,29
			c-4.3,0-8.6,0-12.9,0c-10.8,0-21.6,0-32.3,0c-2.5,0-3.9,1.4-3.9,3.9c0,8.6,0,17.2,0,25.8c0,0.3,0,0.7,0.1,1
			c0.3,1.8,1.7,2.9,3.7,2.9C21,62.7,28.6,62.6,36.2,62.6z"/>
		<path class="st0" d="M63.6,19c0,0.7-0.6,1.3-1.3,1.3c-0.7,0-1.3-0.6-1.3-1.3c0-0.7,0.6-1.3,1.4-1.3C63.1,17.7,63.6,18.3,63.6,19z"
			/>
		<path class="st1" d="M26.3,47.7c0.5,0.4,1,0.8,1.5,1.1c1.1,0.9,1.7,2,1.8,3.4c0.2,1.5,0.4,3,0.5,4.4c0.1,1.2-0.4,1.7-1.5,1.7
			c-4.4,0-8.8,0-13.1,0c-1.1,0-1.6-0.6-1.5-1.7c0.2-1.5,0.3-3.1,0.5-4.6c0.2-1.9,1.4-3,2.9-4c0.1-0.1,0.3-0.2,0.4-0.3
			c-0.9-1.4-1.2-2.9-0.7-4.5c0.3-1.2,1-2.1,2-2.8c1.9-1.4,4.6-1.2,6.4,0.3C27.4,42.6,27.7,45.1,26.3,47.7z M27.3,55.7
			c-0.1-1.1-0.2-2.2-0.4-3.2c-0.2-1.3-1.5-2.5-2.8-2.6c-1.4,0-2.8,0-4.3,0c-1.1,0-2.5,1.1-2.7,2.2c-0.2,1.2-0.3,2.4-0.5,3.7
			C20.2,55.7,23.7,55.7,27.3,55.7z M24.6,44.7c0-1.4-1.2-2.5-2.6-2.5c-1.4,0-2.5,1.1-2.5,2.5c0,1.4,1.1,2.5,2.5,2.6
			C23.4,47.3,24.6,46.1,24.6,44.7z"/>
		<path class="st0" d="M46.7,50.6c3.4,0,6.7,0,10.1,0c1.3,0,1.8,0.4,1.8,1.8c0,1.4,0,2.9,0,4.3c0,1.2-0.5,1.7-1.7,1.7
			c-6.8,0-13.6,0-20.4,0c-1.2,0-1.7-0.5-1.7-1.7c0-1.4,0-2.8,0-4.3c0-1.3,0.4-1.8,1.8-1.8C40,50.6,43.3,50.6,46.7,50.6z M37.5,55.7
			c6.2,0,12.2,0,18.4,0c0-0.8,0-1.6,0-2.4c-6.1,0-12.2,0-18.4,0C37.5,54.1,37.5,54.9,37.5,55.7z"/>
		<path class="st2" d="M46.2,33.6c3.3,0,6.5,0,9.8,0c0.7,0,1.2,0.2,1.4,0.8c0.3,0.8-0.2,1.6-1,1.8c-0.2,0-0.4,0-0.6,0
			c-6.4,0-12.8,0-19.2,0c-0.2,0-0.3,0-0.5,0c-0.7-0.1-1.2-0.6-1.2-1.3c0-0.7,0.5-1.2,1.2-1.3c0.3,0,0.7,0,1,0
			C40.1,33.6,43.2,33.6,46.2,33.6z"/>
		<path class="st2" d="M43.2,44.5c2.2,0,4.5,0,6.7,0c1,0,1.6,0.5,1.6,1.3c0,0.8-0.6,1.3-1.6,1.3c-4.5,0-9,0-13.5,0
			c-0.9,0-1.4-0.4-1.5-1.1c-0.1-0.6,0.1-1.2,0.7-1.4c0.3-0.1,0.6-0.1,0.9-0.1C38.7,44.5,41,44.5,43.2,44.5z"/>
		<path class="st2" d="M40.3,41.7c-1.3,0-2.6,0-3.9,0c-1,0-1.6-0.5-1.6-1.3c0-0.8,0.6-1.3,1.6-1.3c2.7,0,5.3,0,8,0
			c0.9,0,1.6,0.6,1.5,1.3c0,0.8-0.6,1.3-1.5,1.3C43.1,41.7,41.7,41.7,40.3,41.7z"/>
		<path class="st0" d="M18.2,36.2c-0.9,0-1.8,0-2.8,0c-1,0-1.5-0.5-1.5-1.3c0-0.8,0.6-1.3,1.5-1.3c1.9,0,3.7,0,5.6,0
			c0.9,0,1.5,0.5,1.5,1.3c0,0.8-0.6,1.3-1.5,1.3C20.1,36.2,19.1,36.2,18.2,36.2z"/>
		<path class="st2" d="M50.2,41.6c-0.7,0-1.3-0.5-1.3-1.2c0-0.7,0.6-1.3,1.3-1.3c0.7,0,1.3,0.6,1.3,1.3C51.5,41.1,51,41.6,50.2,41.6
			z"/>
	</g>
</g>
</svg>
