<?xml version="1.0" encoding="utf-8"?>
<!-- Generator: Adobe Illustrator 24.0.0, SVG Export Plug-In . SVG Version: 6.00 Build 0)  -->
<svg version="1.1" id="Capa_1" xmlns="http://www.w3.org/2000/svg" xmlns:xlink="http://www.w3.org/1999/xlink" x="0px" y="0px"
	 viewBox="0 0 80 80" style="enable-background:new 0 0 80 80;" xml:space="preserve">
<style type="text/css">
	.st0{fill:#ACAEAF;}
	.st1{fill:#1C3247;}
	.st2{fill:#FE9900;}
</style>
<g>
	<path class="st0" d="M18.4,74.2c-0.7-0.2-1.4-0.4-2.1-0.7c-2.6-1.2-4-3.1-4-6c0-15.8,0-31.6,0-47.5c0-4,3.1-7.1,7-7.2
		c2.1,0,4.2,0,6.4,0c0-0.8,0-1.6,0-2.3c0-1.3,0.5-1.8,1.8-1.8c1.5,0,2.9,0,4.4,0c0.4,0,0.6-0.1,0.7-0.4c1.4-3.1,3.9-4.6,7.3-4.6
		c3.4,0,5.9,1.4,7.3,4.6c0.1,0.2,0.4,0.4,0.6,0.4c1.4,0,2.8,0,4.1,0c0.4,0,0.8,0,1.2,0.1c0.8,0.2,1.1,0.6,1.1,1.4c0,0.8,0,1.7,0,2.6
		c0.8,0,1.6,0,2.3,0c1.7,0,3.5-0.1,5.2,0.1c3.4,0.4,5.9,3.4,5.9,6.8c0,16,0,32,0,47.9c0,3.1-2.3,5.7-5.5,6.3c-0.2,0-0.3,0.1-0.5,0.1
		C47.2,74.2,32.8,74.2,18.4,74.2z M25.8,16.3c-0.2-0.1-0.2-0.1-0.3-0.1c-1.9,0-3.8,0-5.6,0c-2.7,0-4.2,1.5-4.2,4.2
		c0,15.6,0,31.2,0,46.8c0,0.2,0,0.4,0,0.6c0,1,0.5,1.8,1.3,2.4c0.8,0.6,1.7,0.7,2.7,0.7c13.6,0,27.1,0,40.7,0c0.4,0,0.8,0,1.2-0.1
		c1.8-0.3,2.9-1.5,2.9-3.4c0-15.7,0-31.4,0-47.1c0-2.4-1.6-4-3.9-4c-1.4,0-2.8,0-4.2,0c-0.6,0-1.2,0-1.8,0c-0.1,0.1-0.1,0.2-0.1,0.2
		c0,1.1,0,2.3,0,3.4c0,1.6-0.7,2.2-2.2,2.2c-8.1,0-16.2,0-24.2,0c-1.5,0-2.1-0.6-2.1-2.1C25.7,18.8,25.8,17.5,25.8,16.3z M50.9,12
		c-1.4,0-2.8,0-4.2,0c-1.4,0-1.9-0.4-2.3-1.7c-0.6-2.2-2.6-3.7-4.8-3.5c-2,0.1-3.7,1.6-4.2,3.7C35,11.6,34.5,12,33.3,12
		c-0.4,0-0.9,0-1.3,0c-0.9,0-1.9,0-2.8,0c0,2.3,0,4.5,0,6.7c7.3,0,14.5,0,21.7,0C50.9,16.5,50.9,14.3,50.9,12z"/>
	<path class="st1" d="M48,31.4c3.1,0,6.3,0,9.4,0c1,0,1.6,0.5,1.9,1.2c0.3,0.9-0.3,1.9-1.3,2.1c-0.3,0.1-0.6,0.1-0.9,0.1
		c-6.1,0-12.1,0-18.2,0c-0.3,0-0.5,0-0.8,0c-0.9-0.1-1.5-0.8-1.5-1.7c0-0.9,0.6-1.6,1.5-1.6c0.6,0,1.2,0,1.8,0
		C42.7,31.4,45.3,31.4,48,31.4z"/>
	<path class="st1" d="M48.1,58.2c3.1,0,6.1,0,9.2,0c0.3,0,0.7,0,1,0.1c0.7,0.2,1.1,0.9,1.1,1.6c0,0.7-0.5,1.4-1.3,1.5
		c-0.3,0.1-0.6,0.1-0.9,0.1c-6.1,0-12.2,0-18.3,0c-0.3,0-0.6,0-0.8-0.1c-0.8-0.1-1.3-0.8-1.4-1.6c0-0.8,0.5-1.5,1.3-1.7
		c0.3-0.1,0.6-0.1,0.9-0.1C41.9,58.2,45,58.2,48.1,58.2z"/>
	<path class="st2" d="M48,44.8c3.1,0,6.3,0,9.4,0c1,0,1.7,0.5,1.9,1.4c0.2,1-0.5,1.9-1.6,2c-0.4,0-0.7,0-1.1,0c-6,0-12,0-18,0
		c-1.2,0-1.9-0.6-1.9-1.6c0-1,0.7-1.7,1.8-1.7c2.2,0,4.5,0,6.7,0C46.2,44.8,47.1,44.8,48,44.8z"/>
	<path class="st2" d="M25.9,46.2c1.7-1.6,3.3-3.2,5-4.8c0.3-0.3,0.7-0.5,1.1-0.7c0.7-0.2,1.5,0.2,1.9,0.9c0.4,0.7,0.3,1.4-0.4,2
		c-1.9,1.8-3.8,3.6-5.7,5.4c-0.3,0.3-0.6,0.6-0.9,0.8c-0.7,0.6-1.6,0.6-2.2-0.1c-1.2-1.2-2.3-2.3-3.5-3.5c-0.7-0.7-0.6-1.8,0-2.4
		c0.7-0.6,1.6-0.6,2.4,0.1c0.4,0.4,0.7,0.8,1.1,1.1C25.1,45.4,25.5,45.8,25.9,46.2z"/>
	<path class="st1" d="M25.9,32.7c1.7-1.6,3.4-3.3,5.1-4.9c0.7-0.7,1.4-0.8,2.1-0.4c1,0.6,1.3,1.8,0.4,2.6c-2.2,2.1-4.4,4.2-6.7,6.3
		c-0.7,0.6-1.6,0.6-2.2-0.1c-1.1-1.1-2.3-2.3-3.4-3.4c-0.8-0.8-0.8-1.9-0.1-2.5c0.7-0.6,1.7-0.5,2.5,0.2c0.7,0.7,1.4,1.4,2.1,2.1
		C25.8,32.7,25.8,32.7,25.9,32.7z"/>
	<path class="st1" d="M26,59.5c1.7-1.6,3.4-3.2,5.1-4.9c0.7-0.7,1.6-0.8,2.3-0.2c0.8,0.6,1,1.7,0.2,2.5c-2.2,2.1-4.4,4.2-6.7,6.3
		c-0.7,0.7-1.6,0.6-2.3-0.1c-1.1-1.1-2.2-2.2-3.3-3.4c-0.8-0.8-0.8-1.9-0.1-2.5c0.7-0.7,1.7-0.5,2.5,0.2
		C24.4,58.1,25.2,58.8,26,59.5z"/>
</g>
</svg>
