<svg id="Grupo_26" data-name="Grupo 26" xmlns="http://www.w3.org/2000/svg" xmlns:xlink="http://www.w3.org/1999/xlink" width="64.527" height="60.324" viewBox="0 0 64.527 60.324">
  <defs>
    <clipPath id="clip-path">
      <rect id="Rectángulo_33" data-name="Rectángulo 33" width="64.527" height="60.324" fill="#aab7c4"/>
    </clipPath>
  </defs>
  <g id="Grupo_26-2" data-name="Grupo 26" clip-path="url(#clip-path)">
    <path id="Trazado_54" data-name="Trazado 54" d="M64.527,55.546a13.8,13.8,0,0,1-.972,2.294,5.594,5.594,0,0,1-8.739.721c-2.373-2.354-4.725-4.73-7.086-7.1-.163-.164-.327-.327-.49-.492-.845-.854-.874-1.348-.1-2.334-.838-.839-1.676-1.689-2.532-2.52a.518.518,0,0,0-.43-.067c-1.184.351-1.182.357-1.182,1.618,0,1.515.01,3.031,0,4.546A3.833,3.833,0,0,1,39.023,56.2q-17.517.017-35.034,0A3.849,3.849,0,0,1,0,52.163Q0,28.109,0,4.055A3.894,3.894,0,0,1,4.06,0Q21.514,0,38.968,0a3.874,3.874,0,0,1,4.023,4.012c.013,1.389.008,2.778,0,4.167,0,.891-.474,1.435-1.226,1.448-.779.013-1.282-.545-1.289-1.462-.01-1.347,0-2.694,0-4.041a1.4,1.4,0,0,0-1.579-1.6Q21.5,2.524,4.11,2.53a1.413,1.413,0,0,0-1.586,1.6q0,23.991,0,47.982c0,1.1.527,1.572,1.728,1.572q16.6,0,33.207,0c.588,0,1.177.015,1.764-.018a1.218,1.218,0,0,0,1.211-1.083c.043-1.824.016-3.649.016-5.476a12.2,12.2,0,1,1,.024-24.3c0-1.051-.01-2.1,0-3.141a1.26,1.26,0,0,1,1.153-1.4A1.208,1.208,0,0,1,42.984,19.5q.036,1.7,0,3.409a.606.606,0,0,0,.477.676,12.068,12.068,0,0,1,6.925,16.14.661.661,0,0,0,.173.867c.77.745,1.509,1.521,2.252,2.277,1.262-.741,1.511-.71,2.521.3,2.154,2.157,4.285,4.339,6.47,6.463A8.22,8.22,0,0,1,64.527,53.9ZM39.275,25.378a9.577,9.577,0,1,0,9.593,9.5,9.516,9.516,0,0,0-9.593-9.5M49.711,49.823c2.367,2.386,4.737,4.825,7.168,7.2a3.078,3.078,0,0,0,4.27-4.427c-2.333-2.387-4.709-4.731-7.07-7.092-.024-.024-.073-.023-.041-.014l-4.328,4.331m-2.857-5.141,2.054,2.059,2.067-2.049-2.1-2.1-2.026,2.089" transform="translate(0 0)" fill="#aab7c4"/>
    <path id="Trazado_55" data-name="Trazado 55" d="M40.343,228.081c0-1.136-.009-2.272,0-3.408a1.23,1.23,0,0,1,1.368-1.365q3.433-.015,6.865,0a1.233,1.233,0,0,1,1.342,1.336q.022,3.439,0,6.879a1.266,1.266,0,0,1-1.378,1.378q-3.433.018-6.865,0a1.242,1.242,0,0,1-1.332-1.349c-.014-1.157,0-2.314,0-3.471m2.574,2.254h4.44v-4.492h-4.44Z" transform="translate(-33.548 -185.704)" fill="#aab7c4"/>
    <path id="Trazado_56" data-name="Trazado 56" d="M45.2,138.516c1.113,0,2.225-.009,3.338,0a1.244,1.244,0,0,1,1.378,1.362q.019,3.439,0,6.879a1.254,1.254,0,0,1-1.343,1.352q-3.432.028-6.865,0a1.253,1.253,0,0,1-1.368-1.382q-.014-3.439,0-6.879a1.209,1.209,0,0,1,1.332-1.332c1.175-.014,2.351,0,3.527,0m2.167,2.569H42.912v4.474H47.37Z" transform="translate(-33.545 -115.192)" fill="#aab7c4"/>
    <path id="Trazado_57" data-name="Trazado 57" d="M40.345,58.423c0-1.136-.009-2.272,0-3.408a1.209,1.209,0,0,1,1.308-1.36q3.464-.029,6.928,0a1.238,1.238,0,0,1,1.342,1.4q.015,3.376,0,6.752a1.3,1.3,0,0,1-1.445,1.448q-3.338.023-6.676,0c-1-.006-1.454-.489-1.46-1.488-.007-1.115,0-2.23,0-3.345M47.374,60.7V56.214H42.913v4.521c1.385,0,2.724,0,4.062,0,.121,0,.242-.017.4-.028" transform="translate(-33.55 -44.609)" fill="#1c3247"/>
    <path id="Trazado_58" data-name="Trazado 58" d="M132.1,56.168c-2.014,0-4.029.006-6.043,0a1.28,1.28,0,0,1-1.445-1.03,1.218,1.218,0,0,1,1.22-1.478c1.09-.032,2.182-.014,3.273-.014q4.406,0,8.813,0a5.248,5.248,0,0,1,.753.032,1.241,1.241,0,0,1,.155,2.408,3.206,3.206,0,0,1-.809.081c-1.972.006-3.945,0-5.917,0" transform="translate(-103.607 -44.607)" fill="#1c3247"/>
    <path id="Trazado_59" data-name="Trazado 59" d="M130.181,88.065c-1.406,0-2.812.007-4.218,0a1.265,1.265,0,1,1-.044-2.516c2.833-.014,5.666-.007,8.5,0a1.283,1.283,0,0,1,1.272.76,1.047,1.047,0,0,1-.19,1.283,1.936,1.936,0,0,1-1.1.459c-1.4.053-2.811.021-4.217.021" transform="translate(-103.574 -71.137)" fill="#1c3247"/>
    <path id="Trazado_60" data-name="Trazado 60" d="M128.393,141.217c-.84,0-1.68.013-2.519,0a1.26,1.26,0,1,1,.009-2.515q2.551-.023,5.1,0a1.259,1.259,0,1,1-.009,2.514c-.861.016-1.722,0-2.582,0" transform="translate(-103.574 -115.337)" fill="#aab7c4"/>
    <path id="Trazado_61" data-name="Trazado 61" d="M128.371,257.731c-.818,0-1.637.016-2.455,0a1.26,1.26,0,1,1-.026-2.51q2.518-.031,5.037,0a1.259,1.259,0,1,1,.026,2.51c-.86.024-1.721.005-2.581.006" transform="translate(-103.566 -212.235)" fill="#aab7c4"/>
    <path id="Trazado_62" data-name="Trazado 62" d="M126.278,173.292a5.134,5.134,0,0,1-.824-.1,1.21,1.21,0,0,1-.9-1.276,1.226,1.226,0,0,1,1.132-1.148,11.108,11.108,0,0,1,1.38-.006,1.228,1.228,0,0,1,1.209,1.2,1.26,1.26,0,0,1-1.074,1.277,8.372,8.372,0,0,1-.921.049" transform="translate(-103.578 -141.997)" fill="#aab7c4"/>
    <path id="Trazado_63" data-name="Trazado 63" d="M126.44,223.326c.209,0,.419-.012.628,0a1.246,1.246,0,0,1,.131,2.48,6.718,6.718,0,0,1-1.564,0,1.226,1.226,0,0,1-1.08-1.326,1.254,1.254,0,0,1,1.258-1.159c.209-.011.419,0,.628,0v0" transform="translate(-103.58 -185.721)" fill="#aab7c4"/>
    <path id="Trazado_64" data-name="Trazado 64" d="M241.73,75.533a1.22,1.22,0,0,1,1.217,1.252,1.252,1.252,0,0,1-1.238,1.245,1.283,1.283,0,0,1-1.263-1.3,1.251,1.251,0,0,1,1.284-1.2" transform="translate(-199.963 -62.815)" fill="#aab7c4"/>
    <path id="Trazado_65" data-name="Trazado 65" d="M201.174,189.867c1.607-1.612,3.161-3.173,4.717-4.733a8.59,8.59,0,0,1,.634-.612,1.249,1.249,0,0,1,1.664.055,1.262,1.262,0,0,1,.126,1.666,3.291,3.291,0,0,1-.341.37q-2.826,2.835-5.655,5.667c-.826.826-1.445.83-2.26.017q-1.317-1.313-2.626-2.634a1.276,1.276,0,0,1-.133-1.941,1.294,1.294,0,0,1,1.9.151c.642.634,1.272,1.282,1.975,1.993" transform="translate(-163.759 -153.213)" fill="#fc7e00"/>
  </g>
</svg>
