<?xml version="1.0" encoding="utf-8"?>
<!-- Generator: Adobe Illustrator 24.0.0, SVG Export Plug-In . SVG Version: 6.00 Build 0)  -->
<svg version="1.1" id="Capa_1" xmlns="http://www.w3.org/2000/svg" xmlns:xlink="http://www.w3.org/1999/xlink" x="0px" y="0px"
	 viewBox="0 0 200 200" style="enable-background:new 0 0 200 200;" xml:space="preserve">
<style type="text/css">
	.st0{fill:#ACAEAF;}
	.st1{fill:#FE9900;}
	.st2{fill:#1C3247;}
</style>
<g>
	<path class="st0" d="M166.5,70.9c-0.2,0.2-0.3,0.4-0.5,0.5c-0.7,0.2-1.5,0.6-2.1,0.4c-0.5-0.2-1.1-1-1.2-1.6
		c-0.2-1.1-0.1-2.2-0.1-3.4c0-1.4-0.3-1.7-1.8-1.8c-0.3,0-0.5,0-0.8,0c-34.1,0-68.3,0-102.4,0c-0.5,0-1.1,0-1.7,0
		c0,20.3,0,40.4,0,60.7c0.5,0,0.9,0,1.4,0c34.4,0,68.8,0,103.2,0c1.9,0,2.1-0.2,2.1-2.2c0-14.2,0-28.5,0-42.7c0-0.3,0-0.6,0-0.9
		c-0.1-1.1,0.1-2.1,1.2-2.6c1.2-0.5,1.9,0.2,2.6,1c0,15.8,0,31.6,0,47.4c-1.2,3-3.4,3.9-6.5,3.9c-39.9-0.1-79.8,0-119.7,0
		c-4.2,0-6-1.9-6-6.1c0-1.1,0-2.2,0-3.4c0-1.2,0.8-2,1.9-2.1c1.1,0,2,0.8,2,2.1c0,1.4,0,2.8,0,4.1c0,0.8,0.4,1.4,1.2,1.4
		c4.2,0,8.3,0,12.7,0c0-0.6,0-1,0-1.5c0-19.2,0-38.5,0-57.7c0-1.3-0.4-1.6-1.6-1.6c-3.4,0.1-6.7,0-10.1,0c-2,0-2.2,0.2-2.2,2.2
		c0,14.2,0,28.5,0,42.7c0,0.5,0,1-0.1,1.4c-0.2,1-0.9,1.6-1.9,1.5c-1,0-1.6-0.6-1.8-1.5c-0.1-0.4-0.1-0.8-0.1-1.2
		c0-14.5,0-28.9,0-43.4c0-3.7,2-5.7,5.7-5.7c40.3,0,80.6,0,120.9,0c2.9,0,4.8,1.3,5.7,4.1C166.5,67.1,166.5,69,166.5,70.9z"/>
	<path class="st0" d="M96.9,87c-9.7,0-19.4,0-29.1,0c-3.6,0-5-1.4-5-5c0-2,0-4,0-6c0-2.3,1.5-3.9,3.8-4.1c0.4,0,0.8,0,1.2,0
		c19.5,0,38.9,0,58.4,0c1.1,0,2.4,0.4,3.4,0.9c1.1,0.6,1.6,1.8,1.6,3.1c0,2.2,0,4.4,0,6.6c0,2.8-1.6,4.4-4.4,4.4
		c-5.6,0-11.2,0-16.8,0C105.6,87,101.2,87,96.9,87z M127.2,76c-20.2,0-40.3,0-60.4,0c0,2.4,0,4.8,0,7.1c20.2,0,40.3,0,60.4,0
		C127.2,80.7,127.2,78.4,127.2,76z"/>
	<path class="st0" d="M97,90.7c10.4,0,20.8,0,31.1,0c2.1,0,3,0.6,3,2c0,1.4-0.9,1.9-3,1.9c-20.8,0-41.5,0-62.3,0c-0.2,0-0.3,0-0.5,0
		c-1.7,0-2.5-0.7-2.5-2c0-1.3,0.8-1.9,2.5-1.9C75.9,90.7,86.4,90.7,97,90.7z"/>
	<path class="st1" d="M122.9,111.3c0.9-1.7,1.6-3.2,2.5-4.7c0.4-0.6,1.2-1.3,1.8-1.3c0.6,0,1.4,0.7,1.9,1.3c0.6,0.8,1,1.9,1.6,2.9
		c0.2-0.3,0.4-0.6,0.5-0.8c1.1-1.6,3.2-1.6,4.2,0.1c0.8,1.4,1.6,2.9,2.3,4.3c0.4,0.8,0.9,1.1,1.8,1.1c4.4,0,8.8,0,13.2,0
		c0.5,0,1,0,1.4,0.1c1,0.2,1.5,0.9,1.4,1.9c0,1-0.6,1.6-1.5,1.8c-0.4,0.1-0.9,0.1-1.3,0.1c-4.8,0-9.6,0-14.5,0
		c-1.7,0-2.8-0.6-3.4-2.1c-0.4-0.9-0.9-1.7-1.5-2.7c-0.2,0.4-0.4,0.7-0.5,0.9c-1.1,1.6-3.2,1.5-4.2-0.1c-0.5-0.8-0.9-1.7-1.4-2.7
		c-0.6,1.2-1.2,2.3-1.8,3.4c-1.2,2.2-3.2,2.3-4.7,0.3c-0.5-0.7-0.9-1.3-1.5-2.2c-0.9,1.5-1.6,2.9-2.4,4.3c-0.8,1.3-2.4,1.5-3.1,0.4
		c-0.4-0.6-0.5-1.6-0.2-2.2c1-2.2,2.2-4.3,3.5-6.3c1-1.8,3-1.8,4.2-0.2C121.8,109.6,122.3,110.4,122.9,111.3z"/>
	<path class="st0" d="M93,102.1c-9.1,0-18.2,0-27.2,0c-2.1,0-3-0.6-3-2c0-1.3,0.9-1.9,2.9-1.9c18.2,0,36.3,0,54.5,0
		c0.5,0,1,0,1.4,0.1c1,0.2,1.5,0.9,1.5,2c-0.1,1-0.6,1.6-1.6,1.7c-0.5,0.1-0.9,0.1-1.4,0.1C111.1,102.1,102.1,102.1,93,102.1z"/>
	<path class="st0" d="M149.2,102.5c-0.3,2.8-0.7,3.6-2,3.6c-1.3,0-1.8-0.8-2-3.1c-1.7-0.7-3.4-1.3-5-2.2c-1.3-0.7-1.6-2.2-0.6-3.1
		c0.9-0.8,1.8-0.7,2.7-0.1c1.5,1,3.2,1.3,4.9,1.2c2.2-0.1,3.9-1.5,4.4-3.7c0.4-1.8-0.5-3.5-2.3-4.2c-1.7-0.7-3.4-1.3-5-2.1
		c-3.6-1.7-4.9-3.8-4.5-7.2c0.3-2.7,1.8-4.7,4.4-5.8c0.8-0.3,1.1-0.6,1.1-1.5c-0.1-1.4,0.7-2.3,1.9-2.3c1.2,0,2,0.9,1.9,2.3
		c0,0.9,0.3,1.1,1.1,1.4c1,0.4,2,0.9,3,1.5c1.1,0.7,1.3,2,0.6,2.9c-0.7,0.9-1.8,1-2.8,0.2c-1.3-0.9-2.7-1.4-4.2-1.2
		c-1.6,0.2-2.7,1.1-3,2.6c-0.3,1.6,0.1,2.3,1.7,3.2c1.4,0.7,2.9,1.4,4.4,1.9c3.9,1.5,5.8,3.9,5.8,7.3c0,3.6-2.2,6.7-5.8,8
		C149.6,102.3,149.4,102.4,149.2,102.5z"/>
	<path class="st0" d="M87.5,109.6c-7.2,0-14.4,0-21.6,0c-0.5,0-1,0-1.4,0c-1-0.1-1.6-0.8-1.7-1.8c0-1.1,0.6-1.8,1.6-2
		c0.4-0.1,0.8-0.1,1.2-0.1c14.6,0,29.2,0,43.8,0c0.5,0,1,0,1.5,0.1c0.9,0.3,1.3,0.9,1.3,1.9c0,0.9-0.5,1.6-1.4,1.8
		c-0.5,0.1-1,0.1-1.5,0.1C102,109.6,94.7,109.6,87.5,109.6z"/>
	<path class="st0" d="M62.8,117.9c0-0.6,0-1.2,0-1.8c0.1-1,0.7-1.7,1.7-1.7c1-0.1,1.9,0.4,2,1.5c0.1,1.4,0.1,2.8,0,4.1
		c-0.1,1-0.9,1.5-1.9,1.5c-1-0.1-1.7-0.7-1.8-1.7C62.8,119.1,62.8,118.5,62.8,117.9z"/>
	<path class="st0" d="M69.5,117.8c0-0.6-0.1-1.2,0-1.8c0.1-1,0.7-1.6,1.7-1.7c1-0.1,1.9,0.4,2,1.4c0.2,1.4,0.2,2.8,0,4.2
		c-0.1,1-0.9,1.5-2,1.4c-1-0.1-1.6-0.6-1.7-1.6C69.5,119.1,69.5,118.5,69.5,117.8z"/>
	<path class="st0" d="M76.3,117.8c0-0.6-0.1-1.2,0-1.8c0.1-1,0.7-1.6,1.7-1.6c1-0.1,1.9,0.4,2,1.4c0.2,1.4,0.2,2.8,0,4.2
		c-0.1,1-1,1.5-2,1.4c-1-0.1-1.6-0.7-1.7-1.6C76.2,119.1,76.3,118.5,76.3,117.8z"/>
	<g>
		<path class="st2" d="M148.7,141.4c-0.8-3.2-3.4-5-6.9-5c-13.8,0-27.6,0-41.4,0c-0.5,0-1.1-0.3-1.6-0.4c-1-0.3-1.9-1-2.8-1
			c-6.9-0.1-13.8-0.1-20.7,0c-0.9,0-1.8,0.6-2.6,0.9c-0.5,0.2-1.1,0.6-1.6,0.6c-2.7,0.1-5.3,0-8,0c-4.1,0-5.4,0.8-7,4.8
			c-0.8,0-1.7-0.1-2.6,0c-1.1,0.1-1.7,0.9-1.6,2c0.1,1.1,0.7,1.7,1.8,1.8c0.8,0,1.6,0,2.5,0c0.9,3.9,3.6,5,7.2,4.8
			c2.4-0.1,4.7,0,7.1,0c0.9,0,1.7,0.1,2.5,0.8c0.5,0.5,1.4,0.7,2.1,0.7c7.1,0,14.1,0.1,21.2,0c0.8,0,1.5-0.5,2.3-0.7
			c0.7-0.2,1.3-0.7,2-0.7c9.3,0,18.5,0,27.8,0c0.5,0,0.9,0,1.3,0.1c0.3,2.4-0.2,3.1-2.5,3.1c-5.1,0-10.2,0-15.4,0
			c-0.4,0-0.9,0-1.3,0.1c-1,0.2-1.5,0.8-1.6,1.8c0,1,0.4,1.7,1.4,1.9c0.4,0.1,0.9,0.1,1.4,0.1c5.2,0,10.4,0,15.6,0
			c0.5,0,1,0,1.5-0.1c2.6-0.4,4.4-2.4,4.7-4.9c0.1-0.6,0.1-1.2,0.1-2c2.5,0,4.9,0,7.2,0c0.8,0,1.6,0,2.4-0.1
			C147.1,149.1,149.7,145.2,148.7,141.4z M71.4,145.8c-1.1,0-2.1,0-3.1,0c-2.1,0-4.3,0-6.4,0c-1.3,0-1.8-0.5-1.8-1.8
			c-0.1-3.6,0-3.7,3.5-3.7c2.2,0,4.4,0,6.6,0c0.4,0,0.8,0,1.2,0C71.4,142.2,71.4,143.9,71.4,145.8z M95.8,147.2
			c-6.8,0-13.6,0-20.4,0c0-2.8,0-5.6,0-8.4c6.8,0,13.6,0,20.4,0C95.8,141.7,95.8,144.4,95.8,147.2z M123.8,145.8c-8,0-15.9,0-23.9,0
			c0-1.8,0-3.6,0-5.4c8,0,15.9,0,23.9,0C123.8,142.2,123.8,143.9,123.8,145.8z M135.2,145.7c-2.5,0-5,0-7.5,0c0-1.8,0-3.5,0-5.4
			c2.5,0,5,0,7.5,0C135.2,142.2,135.2,143.9,135.2,145.7z M142.6,145.8c-1.1,0.1-2.1,0-3.3,0c0-1.9,0-3.6,0-5.5c1.2,0,2.4-0.1,3.5,0
			c1.4,0.2,2.4,1.4,2.3,2.8C145,144.6,144.1,145.6,142.6,145.8z"/>
	</g>
</g>
</svg>
