<?xml version="1.0" encoding="utf-8"?>
<!-- Generator: Adobe Illustrator 24.0.0, SVG Export Plug-In . SVG Version: 6.00 Build 0)  -->
<svg version="1.1" id="Capa_1" xmlns="http://www.w3.org/2000/svg" xmlns:xlink="http://www.w3.org/1999/xlink" x="0px" y="0px"
	 viewBox="0 0 200 200" style="enable-background:new 0 0 200 200;" xml:space="preserve">
<style type="text/css">
	.st0{fill:#ACAEAF;}
	.st1{fill:#FE9900;}
</style>
<g>
	<path class="st0" d="M173.8,130.9c0.3,0.1,0.4,0.1,0.5,0.1c4.2-0.3,4.6,1,4.6,4.8c-0.1,14,0,28,0,42.1c0,2.8-0.8,3.6-3.5,3.6
		c-26.2,0-52.4,0-78.6,0c-2.8,0-3.6-0.7-3.6-3.5c0-8.3,0-16.6,0-24.9c0-0.6,0-1.1,0-1.8c-13.5,0-26.8,0-40.3,0c0,2.2,0,4.5,0,6.7
		c0,2.5-0.8,3.3-3.3,3.3c-6.2,0-12.4,0-18.6,0c-2.5,0-3.3-0.8-3.3-3.3c0-2.2,0-4.4,0-6.8c-0.9,0-1.7,0-2.4,0c-1.6-0.1-2.5-1-2.6-2.6
		c0-0.4,0-0.8,0-1.3c0-39.4,0-78.9,0-118.3c0-3.2,0.6-3.9,3.8-3.9c31,0,62.1,0,93.1,0c3.2,0,3.9,0.6,3.9,3.8c0,23.3,0,46.5,0,69.8
		c0,0.6,0,1.2,0,1.9c1.7,0,3.3,0,5,0c0-2.2,0-4.5,0-6.7c0-2.5,0.8-3.3,3.3-3.3c12.9,0,25.8,0,38.8,0c2.5,0,3.3,0.8,3.3,3.3
		c0,11.7,0,23.4,0,35.1C173.8,129.7,173.8,130.3,173.8,130.9z M173.7,136.2c-25.2,0-50.4,0-75.4,0c0,13.5,0,26.8,0,40.1
		c25.2,0,50.3,0,75.4,0C173.7,163,173.7,149.6,173.7,136.2z M88.1,95.9c0,2.3,0,4.5,0,6.7c0,2.5-0.8,3.3-3.3,3.3
		c-7.9,0-15.7,0-23.6,0c-2.5,0-3.3-0.8-3.3-3.3c0-2.2,0-4.5,0-6.7c-6.9,0-13.5,0-20.1,0c0,13.4,0,26.7,0,40.1c18.5,0,36.9,0,55,0
		c0.4-1.5,0.4-3.3,1.3-4.1c0.9-0.9,2.6-0.8,4.1-1.2c0-0.4,0-1,0-1.6c0-8.3,0-16.7,0-25c0-2.5,0.8-3.3,3.3-3.3c2.2,0,4.5,0,6.7,0
		c0-1.8,0-3.3,0-5C101.5,95.9,94.9,95.9,88.1,95.9z M93.1,141.2c-0.8,0-1.4,0-2,0c-18.3,0-36.6,0-55,0c-2.7,0-3.5-0.8-3.5-3.5
		c0-14.5,0-29.1,0-43.6c0-2.5,0.8-3.3,3.3-3.3c24.7,0,49.4,0,74,0c2.5,0,3.3,0.8,3.3,3.3c0,2.2,0,4.5,0,6.7c1.8,0,3.3,0,4.9,0
		c0-23.5,0-46.9,0-70.4c-30.2,0-60.4,0-90.5,0c0,38.7,0,77.2,0,115.7c21.8,0,43.6,0,65.3,0C93.1,144.5,93.1,142.9,93.1,141.2z
		 M143.7,105.8c0,1.8,0,3.4,0,5.1c6.7,0,13.3,0,20,0c0,1.7,0,3.3,0,5.1c-6.7,0-13.4,0-20,0c0,1.7,0,3.3,0,5c6.7,0,13.3,0,20,0
		c0,1.8,0,3.4,0,5.1c-6.7,0-13.3,0-20,0c0,1.7,0,3.3,0,4.9c8.4,0,16.7,0,25,0c0-11.8,0-23.4,0-35.1c-11.8,0-23.4,0-35.1,0
		c0,1.7,0,3.3,0,5c10.1,0,20.1,0,30.1,0c0,1.7,0,3.3,0,4.9C156.9,105.8,150.4,105.8,143.7,105.8z M138.5,106c-11.8,0-23.5,0-35.1,0
		c0,8.4,0,16.7,0,25c11.8,0,23.5,0,35.1,0C138.5,122.6,138.5,114.3,138.5,106z M63,100.7c6.7,0,13.4,0,20,0c0-1.7,0-3.3,0-4.9
		c-6.7,0-13.3,0-20,0C63,97.5,63,99.1,63,100.7z M32.7,156.2c5.1,0,10,0,15,0c0-1.7,0-3.2,0-4.8c-5,0-10,0-15,0
		C32.7,153,32.7,154.5,32.7,156.2z"/>
	<path class="st1" d="M136,156.3c-3.2,0-6.4,0-9.6,0c-2.1,0-3-0.9-3-3c0-3,0-6.1,0-9.1c0-2.1,0.9-3,3-3c6.4,0,12.8,0,19.2,0
		c2.1,0,3,0.9,3,3c0,3,0,6.1,0,9.1c0,2.1-0.9,3-3,3C142.4,156.3,139.2,156.3,136,156.3z M128.5,151.1c5.1,0,10,0,14.9,0
		c0-1.7,0-3.3,0-4.8c-5,0-9.9,0-14.9,0C128.5,147.9,128.5,149.5,128.5,151.1z"/>
	<path class="st0" d="M73.1,35.3c12.2,0,24.4,0,36.5,0c2.9,0,3.6,0.7,3.6,3.6c0,14.4,0,28.8,0,43.2c0,2.9-0.7,3.6-3.6,3.6
		c-24.5,0-48.9,0-73.4,0c-2.9,0-3.6-0.7-3.6-3.6c0-14.4,0-28.8,0-43.2c0-2.9,0.7-3.6,3.6-3.6C48.5,35.3,60.8,35.3,73.1,35.3z
		 M37.8,40.4c0,13.5,0,26.8,0,40.2c23.5,0,46.9,0,70.4,0c0-13.4,0-26.8,0-40.1c-6.7,0-13.4,0-20.1,0c0,2.3,0,4.5,0,6.7
		c0,2.4-0.9,3.3-3.2,3.3c-7.9,0-15.9,0-23.8,0c-2.4,0-3.2-0.9-3.3-3.2c0-2.2,0-4.5,0-6.8C51.1,40.4,44.5,40.4,37.8,40.4z M63,45.3
		c6.7,0,13.4,0,20,0c0-1.7,0-3.3,0-4.9c-6.7,0-13.3,0-20,0C63,42.1,63,43.6,63,45.3z"/>
	<path class="st1" d="M108.3,115.8c0-1.7,0-3.2,0-4.8c8.3,0,16.6,0,25,0c0,1.6,0,3.1,0,4.8C125.1,115.8,116.8,115.8,108.3,115.8z"/>
	<path class="st1" d="M133.4,121.1c0,1.6,0,3.2,0,4.8c-8.3,0-16.6,0-25.1,0c0-1.6,0-3.2,0-4.8C116.7,121.1,125.1,121.1,133.4,121.1z
		"/>
</g>
</svg>
