<?xml version="1.0" encoding="utf-8"?>
<!-- Generator: Adobe Illustrator 24.0.0, SVG Export Plug-In . SVG Version: 6.00 Build 0)  -->
<svg version="1.1" id="Capa_1" xmlns="http://www.w3.org/2000/svg" xmlns:xlink="http://www.w3.org/1999/xlink" x="0px" y="0px"
	 viewBox="0 0 200 200" style="enable-background:new 0 0 200 200;" xml:space="preserve">
<style type="text/css">
	.st0{fill:#FE9900;}
	.st1{fill:#ACAEAF;}
	.st2{fill:#1C3247;}
</style>
<g>
	<path class="st0" d="M179.3,127.4c-1.6,0-3.2,0-5,0c0,13.4,0,26.7,0,40.1c-1.7,0-3.3,0-5,0c0-13.3,0-26.6,0-40.1c-1.8,0-3.4,0-5,0
		c-0.3,0-0.6,0.2-0.7,0.4c-1.8,3.7-4.8,4.8-8.7,4.6c-0.2,0-0.4,0-0.7,0.1c0,4.1,0,8.2,0,12.4c3.2,0,6.5,0,9.9,0c0,5.1,0,10,0,15.1
		c-1.6,0-3.1,0-4.9,0c0,5.9,0,11.7,0,17.5c-1.8,0-3.3,0-5,0c0-5.8,0-11.5,0-17.4c-8.4,0-16.7,0-25.1,0c0,5.8,0,11.5,0,17.4
		c-1.7,0-3.3,0-5,0c0-5.8,0-11.5,0-17.5c-1.8,0-3.3,0-5,0c0-5.1,0-10,0-15c3.3,0,6.5,0,9.9,0c0-4.3,0-8.4,0-12.6c-0.9,0-1.7,0-2.5,0
		c-2.9-0.1-5.1-1.5-6.5-4c-0.4-0.7-0.8-1.1-1.7-1c-1.4,0.1-2.7,0-4.2,0c0,13.4,0,26.7,0,40.1c-1.8,0-3.3,0-5,0c0-13.3,0-26.6,0-40
		c-1.7,0-3.3,0-5,0c0-5.1,0-10,0-15.1c4.9,0,9.8,0,14.8,0c0.1-0.7,0.3-1.3,0.4-1.9c0.8-3.3,3.6-5.7,7-5.7c10.2-0.1,20.4-0.1,30.6,0
		c4,0,6.7,2.9,7.4,7.5c5,0,10,0,15,0C179.3,117.4,179.3,122.4,179.3,127.4z M141.6,109.9c-4.8,0-9.6,0-14.4,0
		c-2.3,0-3.1,0.9-3.1,3.1c0,3.8,0,7.5,0,11.3c0,2.3,0.9,3.1,3.1,3.1c9.6,0,19.3,0,28.9,0c2.3,0,3.1-0.9,3.1-3.1c0-3.8,0-7.5,0-11.3
		c0-2.3-0.9-3.1-3.1-3.1C151.2,109.8,146.4,109.9,141.6,109.9z M149.1,132.6c-5.1,0-10,0-14.9,0c0,4.2,0,8.3,0,12.4c5,0,10,0,14.9,0
		C149.1,140.7,149.1,136.7,149.1,132.6z M124.1,155c11.8,0,23.4,0,35,0c0-1.7,0-3.3,0-4.8c-11.7,0-23.3,0-35,0
		C124.1,151.8,124.1,153.3,124.1,155z M118.9,122.4c0-1.7,0-3.3,0-4.9c-3.3,0-6.6,0-9.9,0c0,1.7,0,3.3,0,4.9
		C112.4,122.4,115.6,122.4,118.9,122.4z M164.3,122.3c3.4,0,6.7,0,9.9,0c0-1.7,0-3.2,0-4.8c-3.3,0-6.6,0-9.9,0
		C164.3,119.1,164.3,120.7,164.3,122.3z"/>
	<path class="st1" d="M33.6,97.2c0-25.1,0-50.1,0-75.2c43.5,0,86.9,0,130.5,0c0,25,0,50,0,75.2C120.7,97.2,77.2,97.2,33.6,97.2z
		 M124.1,72.3c8.5,0,16.7,0,25.1,0c0,3.3,0,6.6,0,9.8c3.4,0,6.7,0,9.9,0c0-18.4,0-36.7,0-55.1c-40.2,0-80.3,0-120.4,0
		c0,18.4,0,36.7,0,55.1c28.5,0,56.9,0,85.4,0C124.1,78.8,124.1,75.6,124.1,72.3z M38.7,92.2c40.2,0,80.3,0,120.4,0
		c0-1.7,0-3.3,0-4.8c-40.2,0-80.3,0-120.4,0C38.7,88.9,38.7,90.5,38.7,92.2z M144.1,77.3c-5.1,0-10,0-14.9,0c0,1.7,0,3.2,0,4.8
		c5,0,9.9,0,14.9,0C144.1,80.5,144.1,78.9,144.1,77.3z"/>
	<path class="st2" d="M88.9,167.6c-1.8,0-3.4,0-5,0c0-13.4,0-26.6,0-40.1c-1.8,0-3.4,0-5.1,0c-0.2,0-0.5,0.3-0.7,0.5
		c-1.7,3.4-4.6,4.7-8.3,4.5c-0.3,0-0.6,0-1,0c0,4.2,0,8.3,0,12.5c3.3,0,6.5,0,9.8,0c0,5.1,0,10,0,15.1c-1.6,0-3.2,0-4.9,0
		c0,5.9,0,11.6,0,17.5c-1.7,0-3.3,0-5,0c0-5.8,0-11.6,0-17.4c-8.4,0-16.7,0-25.1,0c0,5.8,0,11.6,0,17.4c-1.7,0-3.3,0-5,0
		c0-5.7,0-11.5,0-17.5c-1.8,0-3.3,0-5,0c0-5.1,0-10,0-15c3.2,0,6.5,0,9.9,0c0-4.3,0-8.4,0-12.6c-0.9,0-1.8,0-2.7,0
		c-2.9-0.2-5-1.6-6.5-4.1c-0.2-0.4-0.9-0.8-1.4-0.9c-1.4-0.1-2.8,0-4.4,0c0,13.4,0,26.7,0,40.1c-1.8,0-3.3,0-5,0c0-13.3,0-26.6,0-40
		c-1.7,0-3.3,0-5,0c0-5.1,0-10,0-15.1c5,0,9.9,0,14.8,0c1-5.4,3.6-7.6,9-7.6c9.3,0,18.6,0,27.9,0c5,0,7.8,2.4,8.5,7.5
		c4.9,0,9.9,0,14.9,0c0,5.1,0,10,0,15.1c-1.6,0-3.2,0-4.9,0C88.9,140.8,88.9,154.1,88.9,167.6z M56.2,109.9c-4.8,0-9.6,0-14.4,0
		c-2.2,0-3.1,0.9-3.1,3.2c0,3.8,0,7.6,0,11.5c0,2,0.9,3,3,3c9.7,0,19.5,0,29.2,0c2,0,3-0.9,3-3c0-3.8,0-7.6,0-11.5
		c0-2.2-0.9-3.1-3.2-3.1C65.8,109.8,61,109.9,56.2,109.9z M63.6,145c0-4.1,0-8.3,0-12.4c-5,0-9.9,0-14.8,0c0,4.2,0,8.3,0,12.4
		C53.8,145,58.6,145,63.6,145z M73.7,150.2c-11.8,0-23.4,0-35,0c0,1.7,0,3.2,0,4.8c11.7,0,23.3,0,35,0
		C73.7,153.4,73.7,151.8,73.7,150.2z M23.6,122.3c3.4,0,6.6,0,9.9,0c0-1.7,0-3.3,0-4.8c-3.3,0-6.6,0-9.9,0
		C23.6,119.1,23.6,120.7,23.6,122.3z M88.8,117.5c-3.3,0-6.6,0-9.9,0c0,1.7,0,3.3,0,4.8c3.4,0,6.6,0,9.9,0
		C88.8,120.6,88.8,119.1,88.8,117.5z"/>
</g>
</svg>
