<?xml version="1.0" encoding="utf-8"?>
<!-- Generator: Adobe Illustrator 24.0.0, SVG Export Plug-In . SVG Version: 6.00 Build 0)  -->
<svg version="1.1" id="Capa_1" xmlns="http://www.w3.org/2000/svg" xmlns:xlink="http://www.w3.org/1999/xlink" x="0px" y="0px"
	 viewBox="0 0 200 200" style="enable-background:new 0 0 200 200;" xml:space="preserve">
<style type="text/css">
	.st0{fill:#ACAEAF;}
	.st1{fill:#FE9900;}
	.st2{fill:#1C3247;}
</style>
<g>
	<path class="st0" d="M177.3,178.1c-13.5,0-26.8,0-40.2,0c0-18.4,0-36.9,0-55.4c5.8,0,11.6,0,17.5,0c0-1.9,0-3.5,0-5.2
		c0-2.2,0-4.5,0-6.7c0-0.7-0.1-1.2-1-1.4c-2.9-1-4.8-3-5.9-5.9c-0.1-0.4-0.6-0.9-1-0.9c-6.5,0-13.2,0-19.8,0c0,0.7,0,1.3,0,1.9
		c0,8.3-0.1,16.4,0,24.6c0,3.2-1.3,5.4-3.8,6.9c-3.3,2.2-6.9,3.3-10.9,4.1c-4.8,0.9-9.7,1.6-14.5,2.3c-0.3,0-0.7,0.1-1.3,0.1
		c0,2.2,0,4.2,0,6.4c0,0.9-0.3,1.3-1.2,1.4c-1.4,0.3-2.9,0.7-4.5,1.2c-2.2,0.6-2.9,2.2-1.7,4.1c1,1.6,1.9,3.2,2.8,4.8
		c-4.5,4.5-9,9-13.6,13.6c-1.4-0.9-3.2-1.9-4.9-2.9c-1.6-0.9-3.3-0.1-3.8,1.6c-0.4,1.6-0.7,3.3-1.3,4.9c-0.1,0.4-0.7,1-1.2,1
		c-5.6,0-11.3,0-17.1,0c-0.4,0-1.2-0.6-1.3-1c-0.4-1.4-0.9-3-1.2-4.5c-0.6-2.3-2.2-2.9-4.2-1.7c-1.4,0.9-3,1.7-4.5,2.6
		c-0.1,0-0.1,0.1-0.1,0c-4.5-4.5-9-9-13.6-13.6c0.9-1.4,1.9-3.3,2.9-5.1c0.9-1.6,0.1-3.3-1.6-3.8c-1.6-0.4-3.3-0.7-4.9-1.3
		c-0.4-0.1-1-0.7-1-1.2c0-5.6,0-11.3,0-17.1c0-0.4,0.6-1.2,1-1.2c1.4-0.4,3-0.9,4.5-1.2c2.2-0.6,2.9-2.2,1.7-4.2
		c-0.9-1.6-1.9-3.2-2.8-4.6c4.5-4.5,9-9,13.6-13.6c0.4,0.3,1.2,0.6,2.2,1.2c0-0.7,0-1.3,0-1.9c0-11.7,0-23.6,0-35.3
		c0-3.2,1.2-5.5,3.8-6.9c2.9-1.4,6.1-2.9,9.3-3.8c12.2-3,24.5-3.8,36.9-3c8.3,0.4,16.5,1.2,24.6,3.6c2.6,0.7,5.1,1.9,7.5,3.2
		c2.6,1.4,3.9,3.8,3.8,6.9c-0.1,8.3,0,16.4,0,24.6c0,0.6,0,1.2,0,1.9c2.8,0,5.5,0,8.1,0c3.8,0,7.5,0,11.1,0c0.9,0,1.3-0.1,1.6-1
		c1-2.8,3-4.6,5.8-5.8c0.4-0.1,1-0.7,1-1.2c0-4.1,0-8,0-12.2c-5.9,0-11.7,0-17.5,0c0-18.5,0-36.9,0-55.4c13.3,0,26.8,0,40.2,0
		c0,18.4,0,36.8,0,55.3c-5.8,0-11.6,0-17.5,0c0,2,0,3.9,0,5.9c0,2,0,4.1,0,5.9c0,0.7,0.1,1.2,1,1.4c4.2,1.7,6.7,5.2,6.7,9.4
		s-2.5,7.7-6.5,9.4c-0.4,0.1-1,0.7-1,1.2c0,4.1,0,8,0,12.2c5.9,0,11.7,0,17.5,0C177.3,141,177.3,159.4,177.3,178.1z M31.8,121.2
		c0.7,1.3,1.6,2.6,2.3,4.1c0.3,0.6,0.3,1.3,0.1,2c-0.6,1.6-1.2,3.2-2,4.8c-0.3,0.6-0.9,1.2-1.4,1.3c-1.6,0.6-3.2,0.9-4.8,1.3
		c0,3.9,0,7.5,0,11.1c0.9,0.3,1.7,0.6,2.5,0.7c2.3,0.3,4.1,1.2,4.3,3.8c0.1,1,1,2,1.3,3c0.1,0.6,0.1,1.3,0,1.9
		c-0.7,1.4-1.6,2.9-2.3,4.1c2.8,2.8,5.4,5.4,8,8.1c0.6-0.3,1.4-0.7,2-1.2c1.9-1.6,3.8-1.9,5.9-0.3c0.7,0.6,1.7,0.9,2.6,1
		c1,0.3,1.4,0.9,1.6,1.7c0.3,1.6,0.7,3,1.2,4.5c3.8,0,7.5,0,11.1,0c0.4-1.6,0.9-3.3,1.3-4.9c0.1-0.4,0.6-1,1.2-1.3
		c1.6-0.7,3.3-1.4,5.1-2.2c0.4-0.1,1.2-0.1,1.7,0c1.6,0.7,3,1.7,4.2,2.5c2.8-2.8,5.4-5.4,8-8c-0.7-1.3-1.6-2.6-2.3-4.1
		c-0.3-0.6-0.3-1.3-0.1-2c0.6-1.6,1.2-3.2,2-4.8c0.3-0.6,0.9-1.2,1.4-1.3c1.6-0.6,3.2-0.9,4.6-1.3c0-3.9,0-7.5,0-11.1
		c-0.9-0.3-1.7-0.6-2.5-0.6c-2.5-0.1-3.9-1.3-4.5-3.9c-0.1-1-0.9-1.9-1.3-2.9c-0.1-0.6-0.1-1.3,0.1-1.9c0.7-1.4,1.6-2.9,2.3-4.1
		c-2.8-2.8-5.4-5.4-8-8.1c-0.6,0.3-1.4,0.7-2,1.2c-1.9,1.6-3.8,1.9-5.9,0.4c-0.9-0.6-2-0.7-2.9-1.2c-0.6-0.3-1-0.9-1.2-1.3
		c-0.6-1.6-0.9-3.2-1.3-4.8c-3.8,0-7.4,0-11.1,0c-0.4,1.6-0.9,3.3-1.3,4.9c-0.1,0.4-0.6,1-1.2,1.3c-1.6,0.7-3.3,1.4-5.1,2
		c-0.4,0.1-1.2,0.1-1.7-0.1c-1.6-0.7-3-1.7-4.2-2.5C37,116,34.4,118.6,31.8,121.2z M121.8,76.1c-12.2,5.1-25,5.9-37.8,5.9
		c-12.9,0-25.6-0.9-37.9-5.9c0,4.2,0,8.4,0,12.5c0,1.3,0.4,2.2,1.4,2.6c2.2,0.9,4.2,1.9,6.4,2.6c7.7,2.2,15.5,3,23.5,3.3
		c11,0.4,22,0,32.7-2.5c3.3-0.7,6.7-2.2,10-3.3c0.7-0.3,1.6-1.2,1.6-1.7C121.8,85.1,121.8,80.6,121.8,76.1z M172.2,71.9
		c0-15.2,0-30.3,0-45.2c-10.1,0-20.1,0-30.1,0c0,15.2,0,30.1,0,45.2C152.1,71.9,162.1,71.9,172.2,71.9z M172.3,127.7
		c-10.1,0-20.1,0-30.1,0c0,15.1,0,30.1,0,45.2c10.1,0,20.1,0,30.1,0c0-0.4,0-0.7,0-1C172.3,157.2,172.3,142.5,172.3,127.7z
		 M78.8,106.7c0.4,0.4,0.9,0.7,1.2,1.2c3,3,6.1,6.2,9.3,9.3c0.4,0.4,1.2,0.9,1.7,0.9c6.4-0.7,12.7-1.3,19-2.5
		c3.3-0.6,6.7-2.2,9.8-3.5c1.4-0.6,2.2-1.7,2-3.5c-0.1-3.6,0-7.1,0-10.7c0-0.4,0-0.9-0.1-1.3c-12.2,5.1-25,5.9-37.8,5.9
		c-12.9,0-25.6-0.9-37.6-5.9c0,4.5,0,9,0,13.3c0.1,0,0.3,0.1,0.4,0.1c0.3-0.6,0.9-1,1-1.6c0.4-1.6,0.9-3.2,1.3-4.9
		c0.1-0.9,0.4-1.2,1.3-1.2c5.6,0,11.3,0,16.9,0c1,0,1.3,0.3,1.4,1.2c0.3,1.6,0.7,3.2,1.2,4.8c0.4,1.7,2.3,2.5,3.8,1.6
		C75.3,108.9,76.9,107.7,78.8,106.7z M83.6,77.2c9.1,0,18-0.6,26.6-2.6c2.9-0.7,5.6-1.6,8.4-2.6c1.2-0.4,2.2-1.6,3.2-2.3
		c-1-0.9-2-1.9-3.2-2.5c-1-0.6-2.3-1-3.5-1.3c-9.3-2.8-19-3.6-28.7-3.8c-10.9-0.1-21.7,0.4-32.3,3.5c-1.9,0.6-3.8,1.2-5.5,2
		c-0.9,0.4-1.6,1.3-2.5,2c0.9,0.7,1.6,1.7,2.5,2.2c1.7,0.9,3.5,1.4,5.4,2C63.8,76.4,73.9,77,83.6,77.2z M96.6,137.4
		c4.9-0.9,9.7-1.4,14.3-2.5c3.2-0.7,6.1-2,9.1-3.2c0.7-0.3,1.6-1.2,1.6-1.9c0.1-4.3,0.1-8.7,0.1-13.2c-1.4,0.6-2.9,1.3-4.2,1.7
		c-7.8,2.9-15.9,3.9-24.2,4.3c-2.2,0.1-3.5,0.7-4.3,2.8c-0.6,1.4,0,3.2,1.6,3.6c2,0.6,3.9,1,5.9,1.6
		C96.6,132.9,96.6,134.9,96.6,137.4z M162.2,99.9c0-2.8-2.2-5.1-4.9-5.1s-5.1,2.2-5.2,4.9c-0.1,2.8,2.2,5.2,5.1,5.2
		C159.9,105,162.2,102.6,162.2,99.9z"/>
	<path class="st0" d="M56.4,67c0,1.7,0,3.3,0,4.9c1.7,0,3.2,0,4.8,0c0-1.7,0-3.2,0-4.9C59.6,67,58,67,56.4,67z M71.3,67.2
		c-1.7,0-3.2,0-4.9,0c0,1.7,0,3.3,0,4.8c1.7,0,3.3,0,4.9,0C71.3,70.2,71.3,68.8,71.3,67.2z M76.5,67c0,1.7,0,3.3,0,4.9
		c1.7,0,3.3,0,4.8,0c0-1.7,0-3.2,0-4.9C79.7,67,78.2,67,76.5,67z M91.4,71.9c0-1.7,0-3.3,0-4.9c-1.7,0-3.3,0-4.8,0
		c0,1.7,0,3.2,0,4.9C88.2,71.9,89.8,71.9,91.4,71.9z M101.6,71.9c0-1.7,0-3.3,0-4.9c-1.7,0-3.3,0-4.8,0c0,1.7,0,3.2,0,4.9
		C98.4,71.9,100,71.9,101.6,71.9z M106.8,67c0,1.7,0,3.3,0,4.9c1.7,0,3.3,0,4.9,0c0-1.7,0-3.2,0-4.9C110.1,67,108.5,67,106.8,67z"/>
	<path class="st0" d="M36.1,140.1c0-12.6,10.3-22.7,22.9-22.6c12.5,0,22.6,10.3,22.6,22.7c0,12.6-10.3,22.7-22.9,22.6
		C46.1,162.9,36,152.6,36.1,140.1z M76.4,140.1c0-9.7-8-17.7-17.7-17.7s-17.7,8-17.7,17.7s8,17.7,17.7,17.7
		C68.5,157.8,76.4,150,76.4,140.1z"/>
	<path class="st0" d="M101.7,86.3c1.7-0.3,3.2-0.4,4.9-0.6c0.3,1.6,0.6,3.2,0.7,4.9c-1.6,0.3-3.3,0.4-5.1,0.7
		C102,89.6,101.8,88,101.7,86.3z"/>
	<path class="st0" d="M117.5,88.5c-1.7,0.4-3.3,0.9-5.1,1.3c-0.3-1.6-0.7-3.2-1-4.9c1.6-0.4,3-0.7,4.6-1.2
		C116.6,85.3,117,86.7,117.5,88.5z"/>
	<path class="st0" d="M92,91.8c0-1.6,0-3,0-4.8c1.4,0,3-0.1,4.8-0.3c0.1,1.7,0.1,3.3,0.3,5.1C95.3,91.8,93.7,91.8,92,91.8z"/>
	<path class="st1" d="M147.2,36.6c0-1.7,0-3.2,0-4.9c6.7,0,13.3,0,20,0c0,1.6,0,3.2,0,4.9C160.5,36.6,154,36.6,147.2,36.6z"/>
	<path class="st1" d="M147.2,46.8c0-1.7,0-3.2,0-4.9c6.7,0,13.3,0,20,0c0,1.6,0,3.2,0,4.9C160.5,46.8,154,46.8,147.2,46.8z"/>
	<path class="st1" d="M147.2,56.7c0-1.6,0-3.2,0-4.8c6.7,0,13.3,0,20,0c0,1.6,0,3.2,0,4.8C160.5,56.7,153.8,56.7,147.2,56.7z"/>
	<path class="st1" d="M147.2,66.9c0-1.6,0-3.2,0-4.8c6.7,0,13.3,0,20,0c0,1.6,0,3.2,0,4.8C160.6,66.9,154,66.9,147.2,66.9z"/>
	<path class="st2" d="M147.2,152.9c6.7,0,13.3,0,20,0c0,4.9,0,10,0,15.1c-6.7,0-13.2,0-20,0C147.2,162.9,147.2,157.8,147.2,152.9z
		 M152.2,162.9c3.3,0,6.7,0,9.8,0c0-1.7,0-3.3,0-4.9c-3.3,0-6.7,0-9.8,0C152.2,159.5,152.2,161.1,152.2,162.9z"/>
	<path class="st2" d="M147.2,132.8c6.7,0,13.3,0,20,0c0,1.6,0,3.2,0,4.9c-6.7,0-13.3,0-20,0C147.2,135.9,147.2,134.5,147.2,132.8z"
		/>
	<path class="st2" d="M167.1,142.9c0,1.7,0,3.2,0,4.9c-6.7,0-13.3,0-20,0c0-1.6,0-3.2,0-4.9C153.8,142.9,160.5,142.9,167.1,142.9z"
		/>
	<path class="st0" d="M56.4,67c1.6,0,3.2,0,4.8,0c0,1.6,0,3.2,0,4.9c-1.6,0-3.2,0-4.8,0C56.4,70.4,56.4,68.8,56.4,67z"/>
	<path class="st0" d="M71.3,67.2c0,1.6,0,3.2,0,4.8c-1.6,0-3.2,0-4.9,0c0-1.6,0-3.2,0-4.8C68.1,67.2,69.7,67.2,71.3,67.2z"/>
	<path class="st0" d="M76.5,67c1.6,0,3.2,0,4.8,0c0,1.6,0,3.2,0,4.9c-1.6,0-3.2,0-4.8,0C76.5,70.4,76.5,68.8,76.5,67z"/>
	<path class="st0" d="M91.4,71.9c-1.6,0-3.2,0-4.8,0c0-1.6,0-3.2,0-4.9c1.6,0,3.2,0,4.8,0C91.4,68.6,91.4,70.2,91.4,71.9z"/>
	<path class="st0" d="M101.6,71.9c-1.6,0-3.2,0-4.8,0c0-1.6,0-3.2,0-4.9c1.6,0,3.2,0,4.8,0C101.6,68.6,101.6,70.2,101.6,71.9z"/>
	<path class="st0" d="M106.8,67c1.7,0,3.2,0,4.9,0c0,1.6,0,3.2,0,4.9c-1.6,0-3.2,0-4.9,0C106.8,70.4,106.8,68.8,106.8,67z"/>
	<path class="st0" d="M116,124.2c0.4,1.6,0.9,3.2,1.4,4.8c-1.7,0.4-3.2,0.9-5.1,1.3c-0.4-1.6-0.7-3.2-1.2-4.9
		C113,124.9,114.4,124.6,116,124.2z"/>
	<path class="st0" d="M101.7,126.8c1.6-0.1,3.2-0.4,4.9-0.6c0.3,1.6,0.6,3.2,0.7,4.9c-1.6,0.1-3.2,0.4-5.1,0.7
		C102,130.1,101.8,128.6,101.7,126.8z"/>
	<path class="st0" d="M58.8,127.5c6.9,0,12.6,5.8,12.6,12.7s-5.8,12.6-12.7,12.5c-6.8,0-12.5-5.8-12.5-12.6
		C46.2,133.2,51.9,127.5,58.8,127.5z M51.2,140.1c0,4.2,3.3,7.7,7.5,7.7c4.1,0,7.5-3.3,7.7-7.4c0-4.2-3.3-7.7-7.5-7.7
		C54.6,132.6,51.3,135.9,51.2,140.1z"/>
</g>
</svg>
