<?xml version="1.0" encoding="utf-8"?>
<!-- Generator: Adobe Illustrator 24.0.0, SVG Export Plug-In . SVG Version: 6.00 Build 0)  -->
<svg version="1.1" id="Capa_1" xmlns="http://www.w3.org/2000/svg" xmlns:xlink="http://www.w3.org/1999/xlink" x="0px" y="0px"
	 viewBox="0 0 200 200" style="enable-background:new 0 0 200 200;" xml:space="preserve">
<style type="text/css">
	.st0{fill:#ACAEAF;}
	.st1{fill:#1C3247;}
	.st2{fill:#FE9900;}
</style>
<g>
	<path class="st0" d="M57.6,22.3c1.6,0.4,3.4,0.8,5,1.4c6.5,2.6,10.4,7.5,10.9,14.4c0.4,5.9,0.1,11.9-0.1,17.7
		c-0.1,4-2.2,7.1-4.9,9.9c-0.4,0.4-0.4,1.2-0.7,1.9c0,0.1,0,0.3,0,0.3c-0.3,5.2,3.1,7.6,7.2,9.5c3.3,1.5,6.5,2.9,9.9,4.4
		c6.1,2.7,9.1,7.5,9.1,14c0,2.3,0,4.5,0,7.1c1.1,0,2.2,0,3.3,0c5.2,0,7.9,3.1,7.1,8.3c-1.8,10.4-3.5,20.6-5.5,30.8
		c-0.8,4.2-4.4,7.2-8.7,7.2c-18.5,0-37.1,0-55.7,0c-3.7,0-5.9-1.8-6.8-5.3c-0.4-1.9-1-3.8-1.4-5.6c-0.7-2.6,0.4-4,3-4
		c3.8,0,7.6,0,11.4,0c1.1,0,1.4-0.3,1.5-1.4c1.2-7.5,2.6-15.1,4-22.6c0.5-3.1,2.2-5.5,5-6.8c0.4-0.1,1-0.5,1-1c0-3.5,0-7.1,0-11
		c-1.6,1.2-3,2.2-4.4,3.3c-0.8,0.5-1.6,1.2-2.5,1.8c-2.2,1.5-3.8,1-4.6-1.5c-1.2-3.7-2.3-7.4-3.5-11c-0.1-0.5-0.4-1.1-0.7-1.9
		c-4,1.8-8,3.4-11.7,5.5c-3,1.6-4.1,4.8-4.1,8.2c0,10.4,0,20.6,0,30.9c0,0.5,0,1.1,0,1.6c-0.3,1.4-1,2.2-2.5,2.3
		c-1.4,0-2.5-1-2.6-2.3c0-0.4,0-0.8,0-1.2c0-10.2,0-20.4,0-30.7c0-7,3.1-11.9,9.5-14.6c3.4-1.4,6.8-2.7,9.9-4.5c2-1.1,4-2.7,5.7-4.4
		c0.4-0.4,0.4-1.2,0.5-1.9c0.1-1.1,0.4-2.2,0.4-3.1c0-0.7-0.1-1.5-0.5-1.9c-3.1-3.1-5-6.8-5.2-11.2c-0.3-5.6-0.4-11.2,0.1-16.8
		c0.8-8.3,6.5-13.8,14.7-15.3c0.4,0,0.7-0.3,1.1-0.3C54,22.3,55.9,22.3,57.6,22.3z M76.3,108.1c-7,0-14,0-21,0c-2.3,0-3.4,1-3.8,3.1
		c-1.8,10.1-3.5,20-5.2,30.1c-0.4,2.3,0.1,2.9,2.3,2.9c13.8,0,27.4,0,41.2,0c2.5,0,3.8-1.1,4.2-3.5c1.8-10.1,3.5-20,5.3-30.1
		c0.4-2.2,0-2.5-2.2-2.5C90.2,108.1,83.3,108.1,76.3,108.1z M41.3,44.2c0,2.5,0.1,4.8,0,7.2c-0.4,6.8,3.3,11.3,8.7,14.3
		c3.5,2,7.5,1.8,11-0.5c6.7-4.2,8.7-10.5,7.5-18.3c-6.8,1.2-12.8-0.5-17.3-6.1C47.8,44.1,46.5,44.5,41.3,44.2z M73.3,82.2
		c-0.3,0.8-0.5,1.4-0.7,2c-1.2,3.7-2.3,7.4-3.5,11c-0.7,2.3-2.5,2.9-4.4,1.5c-1.9-1.4-4-2.9-5.9-4.2c-0.3-0.3-0.7-0.4-1.1-0.7
		c0,3.7,0,7.2,0,10.9c10.5,0,20.9,0,31.3,0c0-3,0.1-5.7,0-8.6c-0.3-3.3-1.9-5.7-4.8-7.2C80.7,85.4,77,83.9,73.3,82.2z M41.6,38.9
		c3.4,0.7,5.5-0.3,7.1-3.7c0.5-1.1,1.2-1.9,2.5-1.9c1.4,0,2,1,2.6,2c2.6,5.5,8.2,8,14,6.7c0.4-0.1,0.8-0.7,0.8-1
		c0.5-5.5-2.7-10.6-7.8-12.5c-3.3-1.2-6.5-1.4-9.8-0.5C45.4,29.1,41.4,33.6,41.6,38.9z M55.1,82.6c2.5-2.7,4.6-5.5,7.1-7.9
		c1.4-1.4,1.5-2.7,0.8-4.4c-5.3,2.5-10.6,2.5-16.4-0.3c0.1,1.5,0,2.9,0.5,3.5C49.6,76.8,52.2,79.7,55.1,82.6z M44.8,90.8
		c2.2-1.6,4.2-3.1,6.3-4.6c-2.6-2.9-5-5.7-7.6-8.6c-0.7,1.1-2.5,1.1-2,2.9C42.7,83.7,43.7,87.1,44.8,90.8z M66.2,77.6
		c-2.5,2.9-4.9,5.6-7.5,8.6c2,1.5,4.1,3,6.3,4.6c1-3,1.9-6,2.9-8.9C68.7,79.4,68.7,79.4,66.2,77.6z M32.2,139.6
		c0.3,1.2,0.4,2.5,0.8,3.4c0.1,0.4,0.8,1.1,1.2,1.1c2.3,0.1,4.6,0,6.8,0c0.1-1.6,0.1-3,0.3-4.5C38.2,139.6,35.3,139.6,32.2,139.6z"
		/>
	<path class="st0" d="M177.4,187.7c-1.4-1-1.6-2.2-1.6-3.8c0.1-5.3,0-10.6,0-15.9s-2.6-9-7.4-10.8c-7.2-2.7-14.4-5.7-21.9-8
		c-8.2-2.6-16.4-2.3-24.4,1.2c-5.5,2.5-11.2,4.6-16.6,6.8c-4.6,1.9-7,5.3-7.1,10.4c-0.1,5.5,0,11,0,16.5c0,1.6-0.4,2.9-1.9,3.7
		c-0.5,0-1.1,0-1.6,0c-1.4-0.8-1.8-2-1.8-3.5c0.1-5.3,0-10.6,0-15.9c0-7.6,3.7-12.9,10.8-15.8c5.7-2.3,11.3-4.6,17-7
		c1-0.4,1.4-1,1.5-2c0.1-2.6,0.5-5,0.7-7.6c0-0.5-0.3-1.4-0.7-1.8c-4.1-4.1-6.1-9-6.1-14.7c0-4.4,0-8.7,0-13.1
		c0-12.8,8.6-21.1,21.4-20.7c8.2,0.1,14.7,3.3,18.4,10.9c1.1,2.3,1.8,5,1.9,7.6c0.3,6,0.1,12.1-0.1,18.1c-0.1,4.5-2.3,8.3-5.6,11.6
		c-0.8,0.8-1.2,1.6-1.1,3c0.4,2.5,0.5,4.9,0.7,7.4c0,1.2,0.5,1.8,1.6,2.2c5.5,2,10.9,4.1,16.5,6.1c6,2.2,9.5,6.4,10.8,12.7
		c0,0.1,0.1,0.4,0.3,0.5c0,7.5,0,14.9,0,22.4C179.8,187.7,178.7,187.7,177.4,187.7z M121.3,112.5L121.3,112.5c0,2.5,0,4.9,0,7.2
		c0,4.5,1.8,8.2,5,11.2c1.1,1,2.3,1.5,3.8,1.5c4.6,0,9.1-0.1,13.8,0c1.8,0,3.1-0.5,4.4-1.8c2.5-2.5,4.4-5.3,4.5-8.9
		c0.3-5.9,0.4-11.9,0.1-17.7c-0.3-6.1-3.5-10.6-9.5-12.4c-2.7-0.8-5.9-1-8.7-0.8c-7.6,0.5-12.8,6.4-13.1,14
		C121.2,107.5,121.3,109.9,121.3,112.5z M146.6,143.8c-0.1-1.8-0.4-3.4-0.5-4.9c-0.1-1.1-0.7-1.5-1.6-1.5c-5,0-9.9,0-15,0
		c-0.5,0-1.5,0.7-1.6,1.2c-0.3,1.4-0.3,3-0.5,4.6C134,142.1,140.2,142.3,146.6,143.8z"/>
	<path class="st0" d="M181,69.7c-0.1,0.4-0.4,0.8-0.5,1.2c-1.4,3.3-3.7,5.2-7.4,5.3c-1,0-2,0-3,0c-18.3,0-36.4,0-54.7,0
		c-6.1,0-9.3-3.1-9.3-9.3c0-2,0.5-4.4-0.4-5.9c-0.8-1.4-3.3-1.9-4.9-2.9c-2.3-1.2-4.6-2.5-7.1-3.5c-2-1.1-3.1-2.7-3.1-5
		c0-2.3,1.1-4,3.1-5c3.8-1.9,7.5-4,11.3-5.7c0.8-0.4,1.1-0.8,1.1-1.8c0-1.6,0.1-3.4,0-5c-0.3-4.9,1.5-8.3,6.1-10.1
		c20.9,0,41.7,0,62.6,0c3.3,1.2,5.2,3.5,6.1,6.8C181,42.6,181,56.2,181,69.7z M95.4,49.9c0.7,0.4,1.2,0.7,1.6,1
		c4,2,7.9,4.1,11.9,6.1c1.6,0.8,2.5,1.9,2.3,3.8c-0.1,2.3,0,4.5,0,6.8c0,2.7,1,3.7,3.7,3.7c19.1,0,38.2,0,57.2,0
		c2.6,0,3.7-1,3.7-3.5c0-12.3,0-24.4,0-36.7c0-2.5-1.1-3.5-3.5-3.5c-19.2,0-38.4,0-57.7,0c-2.3,0-3.4,1.1-3.4,3.4c0,2.7-0.1,5.5,0,8
		c0.1,2-0.7,3.1-2.5,4.1c-4,1.9-7.9,4-11.7,6C96.6,49.3,96.1,49.5,95.4,49.9z"/>
	<path class="st0" d="M30.9,119.2c0-2.7,0-5.3,0-8c0-1.9,1-3,2.6-3c1.6,0,2.6,1.1,2.6,3c0,5.5,0,10.9,0,16.5c0,1.9-1.1,3-2.6,3
		c-1.5,0-2.5-1.1-2.5-3C30.8,124.9,30.9,122,30.9,119.2z"/>
	<path class="st1" d="M77.7,126c0,1.4-1.2,2.6-2.6,2.6c-1.4,0-2.6-1.2-2.6-2.6s1.2-2.6,2.6-2.6C76.6,123.4,77.7,124.6,77.7,126z"/>
	<path class="st2" d="M144.2,40.4c-6.4,0-12.7,0-19.1,0c-1.9,0-2.9-0.8-3-2.3c-0.1-1.5,0.7-2.5,2-2.7c0.4-0.1,1-0.1,1.5-0.1
		c12.3,0,24.5,0,36.8,0c1.4,0,2.7,0.1,3.3,1.8c0.7,1.9-0.5,3.4-2.7,3.4C156.7,40.4,150.5,40.4,144.2,40.4z"/>
	<path class="st2" d="M144.1,46.7c6.4,0,12.7,0,19.1,0c2,0,3,1.1,2.9,2.9c-0.1,1.2-0.8,2-1.9,2.3c-0.4,0.1-1,0.1-1.5,0.1
		c-12.3,0-24.7,0-36.9,0c-2,0-3.1-0.7-3.4-2c-0.3-1.8,0.8-3.1,2.7-3.1c6,0,12,0,17.9,0C143.2,46.7,143.6,46.7,144.1,46.7z"/>
	<path class="st2" d="M136.3,63.3c-3.7,0-7.4,0-11.2,0c-1.9,0-2.9-1-2.9-2.5c0-1.6,1-2.7,3-2.7c7.4,0,14.7,0,22.1,0c1.9,0,3,1,3,2.6
		c0,1.6-1.1,2.6-3,2.6C143.5,63.3,140,63.3,136.3,63.3z"/>
</g>
</svg>
