<?xml version="1.0" encoding="utf-8"?>
<!-- Generator: Adobe Illustrator 24.0.0, SVG Export Plug-In . SVG Version: 6.00 Build 0)  -->
<svg version="1.1" id="Capa_1" xmlns="http://www.w3.org/2000/svg" xmlns:xlink="http://www.w3.org/1999/xlink" x="0px" y="0px"
	 viewBox="0 0 198.4 198.4" style="enable-background:new 0 0 198.4 198.4;" xml:space="preserve">
<style type="text/css">
	.st0{fill:#ACAEAF;}
	.st1{fill:#FE9900;}
	.st2{fill:#1C3247;}
</style>
<path class="st0" d="M41.9,178.1c-0.2-0.1-0.4-0.2-0.6-0.3c-4.7-1.4-7.4-4.8-7.4-9.7c0-6.7,0-13.4,0-20.2c0-35.3,0-70.7,0-106
	c0-1.3,0.1-2.7,0.4-4c1.1-4.2,4.8-7,9.3-7c7.4,0,14.7,0,22.1,0c0.6,0,1.2,0,1.9,0c0-2,0-4,0-5.9c0-2.2,0.9-3.1,3.1-3.2
	c3.8,0,7.6,0,11.5,0c1,0,1.5-0.2,2-1.2c2.7-5.2,7.1-7.9,12.9-7.9c5.8,0,10.1,2.8,12.8,7.9c0.5,0.9,1,1.2,2,1.2c3.8-0.1,7.6,0,11.5,0
	c2.2,0,3.1,0.9,3.1,3.2c0,1.9,0,3.8,0,5.9c0.6,0,1.2,0,1.8,0c7.3,0,14.5,0,21.8,0c6.2,0,10.2,4,10.2,10.2c0,42.3,0,84.5,0,126.8
	c0,5.2-2.2,8-8,10.1C115.5,178.1,78.7,178.1,41.9,178.1z M67.8,36.1c-7.8,0-15.4,0-23,0c-4.1,0-5.6,1.5-5.6,5.7
	c0,41.8,0,83.7,0,125.5c0,4.1,1.5,5.6,5.7,5.6c34.9,0,69.7,0,104.6,0c4.2,0,5.8-1.5,5.8-5.7c0-9.1,0-18.2,0-27.3
	c0-32.8,0-65.5,0-98.3c0-4-1.6-5.6-5.5-5.6c-7.1,0-14.2,0-21.3,0c-0.6,0-1.1,0-1.6,0c-0.1,0.3-0.1,0.4-0.1,0.6c0,1.8,0,3.5,0,5.3
	c0,2.2-0.9,3.2-3.1,3.2c-17.5,0-35.1,0-52.6,0c-2.1,0-3-0.9-3-3.1C67.7,40.1,67.8,38.2,67.8,36.1z M73,39.8c16.2,0,32.2,0,48.2,0
	c0-4.3,0-8.5,0-12.8c-3.8,0-7.4,0-11.1,0c-3.1,0-3.2-0.1-4.3-3c-1.3-3.6-4.8-6.1-8.7-6.1c-3.9,0-7.4,2.4-8.7,6.1c-1,2.9-1.2,3-4.3,3
	c-3.7,0-7.4,0-11.1,0C73,31.4,73,35.6,73,39.8z"/>
<g>
	<path class="st1" d="M93.1,139.5c-1.3-0.2-2.6-0.3-3.9-0.6c-7.4-1.4-13.7-4.9-18.8-10.5c-4.5-4.9-7.2-10.7-8.1-17.3
		c-1.3-9.1,0.8-17.5,6.4-24.9c5-6.7,11.7-11,19.9-12.6c9.7-1.9,18.6,0.1,26.6,6c0.3,0.2,0.5,0.4,0.8,0.6c0-0.3,0.1-0.4,0.1-0.6
		c0-1.4,0-2.7,0-4.1c0-1.5,0.5-2.8,1.5-3.9c2.1-2.2,4.3-4.4,6.5-6.5c0.5-0.5,1-0.6,1.6-0.4c0.6,0.2,0.9,0.7,0.9,1.4
		c0.2,2.4,0.4,4.8,0.5,7.1c0,0.2,0,0.4,0.1,0.7c1.4,0.1,2.7,0.2,4.1,0.3c1.2,0.1,2.5,0.2,3.7,0.3c0.7,0,1.2,0.3,1.4,1
		c0.2,0.7,0,1.2-0.4,1.7c-2.1,2.1-4.2,4.2-6.3,6.3c-1.2,1.1-2.6,1.7-4.2,1.7c-1.5,0-2.9,0-4.5,0c0.1,0.2,0.2,0.3,0.3,0.5
		c5.1,6.5,7.5,13.9,7.2,22.2c-0.6,15.2-12.2,28.5-27.2,31.2c-1.3,0.2-2.6,0.4-4,0.6C95.9,139.5,94.5,139.5,93.1,139.5z M115.3,83.6
		C104.4,73.5,86,72.7,73.9,84.6c-12,11.7-12.1,30.9-0.2,43c11.7,11.9,31.1,12,43,0.1c12-12,11.5-30.6,0.9-41.9
		c-1.1,1.1-2.2,2.2-3.3,3.4c0.1,0.1,0.2,0.2,0.3,0.3c5.4,6.4,7.3,13.7,5.7,21.9c-2.9,14.3-17.3,23.2-31.5,19.6
		c-15-3.8-23.2-20.5-17.1-34.7c0.8-1.8,1.9-3.4,2.9-5.1c0.5-0.8,1.4-0.9,2-0.4c0.7,0.5,0.8,1.3,0.3,2.1c-0.1,0.2-0.2,0.4-0.4,0.5
		c-3.3,4.9-4.6,10.3-3.7,16.1c1.9,12.6,13.6,21.1,26.1,19c15.4-2.5,23.8-20,15.9-33.5c-0.8-1.4-1.8-2.6-2.6-3.9
		c-1.2,1.2-2.3,2.3-3.5,3.4c0,0.1,0.1,0.2,0.2,0.3c2.5,3.1,3.9,6.6,4.1,10.5c0.1,2.2-0.2,4.3-0.9,6.4c-0.2,0.7-0.9,1.2-1.5,1.1
		c-0.6-0.1-1.2-0.6-1.3-1.2c0-0.3,0-0.7,0.1-1.1c0.8-2.6,0.9-5.1,0.3-7.7c-0.5-2.3-1.6-4.4-3-6.1c-1.1,1.1-2.3,2.3-3.4,3.4
		c3.6,5,2,10.9-1.8,14c-4,3.2-9.7,2.9-13.4-0.6c-3.7-3.5-4.2-9.2-1.2-13.3c2.8-3.9,8.7-5.8,13.9-2.4c1.1-1.1,2.3-2.3,3.4-3.4
		c-3-2.3-6.5-3.4-10.4-3.1c-9.2,0.8-15.5,9.7-13.2,18.7c2.4,9.1,12.4,13.7,20.9,9.7c0.4-0.2,0.8-0.3,1.2-0.3c0.7,0,1.1,0.5,1.2,1.2
		c0.1,0.7-0.2,1.3-0.9,1.6c-3.2,1.6-6.5,2.2-10,1.7c-9.8-1.2-16.8-10-15.7-19.8c1.6-13.5,17.3-20.4,28.3-12.4
		c0.3,0.2,0.6,0.4,0.8,0.6c1.1-1.1,2.2-2.2,3.4-3.4c0,0,0-0.1-0.1-0.1c-3.7-3.1-8-4.9-12.9-5.3c-3.1-0.2-6.2,0.2-9.1,1.2
		c-0.6,0.2-1.3,0.2-1.8-0.3c-0.8-0.8-0.4-2.1,0.8-2.5c5.6-1.9,11.2-1.9,16.9,0c3.1,1.1,5.9,2.7,8.4,4.8
		C113.1,85.8,114.2,84.7,115.3,83.6z M99,100.1c-2.9-2-7.3-1.2-9.5,1.7c-2.4,3.1-1.8,7.5,1.2,10c3,2.5,7.4,2.1,10-0.8
		c2.5-2.8,2.1-7,0.4-8.8c-0.1,0.1-0.2,0.2-0.3,0.2c-1.4,1.4-2.9,2.9-4.3,4.3c-0.6,0.6-1.5,0.6-2.1,0c-0.6-0.6-0.6-1.4,0-2.1
		c0.4-0.4,0.8-0.8,1.2-1.2C96.7,102.4,97.8,101.3,99,100.1z M123.9,69.5c-0.1,0.1-0.2,0.1-0.3,0.1c-1.3,1.3-2.7,2.6-3.9,4
		c-0.4,0.5-0.6,1.2-0.7,1.9c-0.1,0.5,0,1.1,0,1.7c0,0.9,0,1.8,0,2.9c1.8-1.8,3.5-3.5,5.2-5.2c0.1-0.1,0.1-0.4,0.1-0.5
		C124.2,72.8,124,71.2,123.9,69.5z M121.2,82c0,0.1,0.1,0.2,0.1,0.2c1.4,0,2.8,0,4.1,0c0.9,0,1.7-0.3,2.3-0.9
		c1.2-1.2,2.4-2.4,3.6-3.6c0.1-0.1,0.2-0.2,0.3-0.4c-1.7-0.1-3.3-0.2-4.9-0.3c-0.2,0-0.5,0-0.6,0.2C124.5,78.7,122.9,80.3,121.2,82z
		"/>
	<path class="st2" d="M79.6,86.8c0-0.8,0.6-1.5,1.4-1.5c0.8,0,1.5,0.7,1.5,1.5c0,0.8-0.7,1.4-1.4,1.4C80.2,88.2,79.6,87.6,79.6,86.8
		z"/>
	<path class="st2" d="M107.6,118.2c-0.8-0.1-1.4-0.7-1.3-1.5c0.1-0.8,0.8-1.4,1.6-1.3c0.8,0.1,1.4,0.7,1.3,1.6
		C109.1,117.7,108.5,118.3,107.6,118.2z"/>
</g>
</svg>
