<?xml version="1.0" encoding="utf-8"?>
<!-- Generator: Adobe Illustrator 24.0.0, SVG Export Plug-In . SVG Version: 6.00 Build 0)  -->
<svg version="1.1" id="Capa_1" xmlns="http://www.w3.org/2000/svg" xmlns:xlink="http://www.w3.org/1999/xlink" x="0px" y="0px"
	 viewBox="0 0 200 200" style="enable-background:new 0 0 200 200;" xml:space="preserve">
<style type="text/css">
	.st0{fill:#ACAEAF;}
	.st1{fill:#FE9900;}
	.st2{fill:#1C3247;}
</style>
<g>
	<path class="st0" d="M21.1,181.2c-1-0.7-2-1.5-1.9-2.9c0.1-1.5,1.3-2.5,3.1-2.5c3.4,0,6.7,0,10.4,0c0-0.7,0-1.4,0-2
		c0-24.2,0-48.3,0-72.5c0-3.8,1.2-6.7,4.7-8.4c1-0.5,2.1-0.6,3.4-1c0-0.6,0-1.3,0-2.1c0-4.3,0-8.5,0-12.8c0-5.5,2.5-8.4,8.1-9.3
		c0-0.5,0-1.1,0-1.6c0-4.3,0-8.7,0-13c0-5.9,2.1-8.6,8.1-9.8c0-0.6,0-1.2,0-1.8c0-5-0.1-10,0.2-15c0.2-4,3.3-6.9,7.3-7.3
		c0.4,0,0.7,0,1.1,0c23.1,0,46.2,0,69.3,0c4.2,0,7.3,2.3,8.3,6c0.3,1.1,0.3,2.2,0.3,3.3c0,4.4,0,8.8,0,13.1c0,0.6,0,1.1,0,1.7
		c0.9,0.2,1.6,0.3,2.3,0.5c3.5,1,5.7,4,5.8,7.8c0.1,4.7,0,9.5,0,14.2c0,0.6,0,1.1,0,1.8c0.7,0.1,1.3,0.2,1.9,0.3
		c3.8,1,6.2,4.1,6.2,8.5c0,4.7,0,9.4,0,14.1c0,1.1,0.2,1.6,1.4,1.7c3.6,0.5,6.4,3.6,6.6,7.2c0.1,0.8,0.1,1.6,0.1,2.4
		c0,23.9,0,47.8,0,71.7c0,0.7,0,1.4,0,2.3c3,0,5.8,0,8.6,0c0.7,0,1.4,0,2.1,0c1.4,0,2.2,0.9,2.9,1.9c0,1.2,0,2.3,0,3.5
		C127.9,181.2,74.5,181.2,21.1,181.2z M162.2,175.8c0-0.6,0.1-1.1,0.1-1.5c0-24.4,0-48.7,0-73.1c0-2.9-0.9-3.7-3.9-3.7
		c-38.8,0-77.6,0-116.4,0c-3.1,0-3.9,0.8-3.9,3.8c0,24.3,0,48.5,0,72.8c0,0.6,0,1.1,0,1.7C79.6,175.8,120.8,175.8,162.2,175.8z
		 M46.3,92c2.2,0,4.4-0.1,6.5,0c1.3,0.1,1.9-0.3,2.3-1.7c1.6-5.4,7.1-9.2,12.7-9.2c5.8,0,11.1,3.9,12.7,9.4c0.4,1.2,1,1.5,2.1,1.5
		c23.3,0,46.5,0,69.8,0c0.6,0,1.1-0.1,1.8-0.1c0-5.2,0-10.2,0-15.2c0-2.7-0.9-3.6-3.6-3.6c-33.6,0-67.3,0-100.9,0
		c-2.6,0-3.5,0.9-3.5,3.5c0,4.6,0,9.3,0,13.9C46.2,91,46.2,91.5,46.3,92z M54.3,67.8c2.4,0,4.7-0.1,6.9,0c1.1,0.1,1.5-0.4,1.9-1.4
		c1.7-5.7,7-9.5,12.8-9.4c5.8,0,11.1,3.8,12.7,9.3c0.4,1.2,0.9,1.5,2.1,1.5c17.9,0,35.8,0,53.6,0c0.6,0,1.1-0.1,1.6-0.1
		c0.1-0.3,0.1-0.4,0.1-0.5c0-4.7,0-9.5,0-14.2c0-3.4-0.7-4.1-4.1-4.1c-27.9,0-55.8,0-83.7,0c-0.5,0-1,0-1.4,0
		c-1.5,0.1-2.6,1.1-2.6,2.6C54.3,56.8,54.3,62.2,54.3,67.8z M137.8,43.5c0.1-0.3,0.2-0.5,0.2-0.6c0-5.1,0.1-10.2,0-15.3
		c0-2.1-1.1-3-3.4-3c-22.9,0-45.8,0-68.7,0c-2.5,0-3.4,1-3.5,3.4c0,3.3,0,6.5,0,9.8c0,1.8,0,3.7,0,5.7c2.3,0,4.5-0.1,6.6,0
		c1.3,0.1,1.9-0.4,2.3-1.7c1.7-5.4,6.9-9.1,12.7-9.1c5.9,0,11.1,3.8,12.8,9.3c0.3,1.1,0.8,1.5,2.1,1.5c12.5-0.1,25,0,37.5,0
		C136.8,43.5,137.3,43.5,137.8,43.5z M68.6,67.6c5,0,9.8,0,14.8,0c-1.3-3.5-4.4-5.5-8.1-5.2C72.1,62.7,69.2,64.9,68.6,67.6z
		 M76.6,43.5c2.6,0,5,0,7.4,0c2.5,0,4.9,0,7.4,0c-0.8-3.1-3.8-5.3-7.2-5.4C80.7,38,77.6,40.1,76.6,43.5z M75.1,91.9
		c-0.7-3-4.1-5.4-7.5-5.3c-3.4,0.1-6.6,2.4-7.2,5.3C65.4,91.9,70.2,91.9,75.1,91.9z"/>
	<path class="st0" d="M100.1,167.7c-15.7,0-31.3,0-47,0c-0.6,0-1.2,0-1.7,0c-1.5-0.1-2.3-1-2.5-2.4c-0.2-1.4,0.8-2.5,2.2-2.8
		c0.5-0.1,1-0.1,1.6-0.1c31.6,0,63.3,0,94.9,0c0.7,0,1.4,0,2,0.2c1.2,0.4,1.9,1.4,1.8,2.7c-0.1,1.3-0.8,2.2-2.1,2.4
		c-0.7,0.1-1.4,0.1-2,0.1C131.6,167.7,115.9,167.7,100.1,167.7z"/>
	<path class="st0" d="M100.3,148.8c15.7,0,31.3,0,47,0c0.7,0,1.4,0,2,0.1c1.3,0.2,2,1.1,2.1,2.4c0.1,1.4-0.6,2.3-1.9,2.7
		c-0.6,0.2-1.2,0.2-1.9,0.2c-31.6,0-63.3,0-94.9,0c-0.6,0-1.3,0-1.9-0.2c-1.3-0.3-1.9-1.3-1.9-2.6c0-1.4,0.8-2.3,2.2-2.5
		c0.7-0.1,1.4-0.1,2-0.1C68.9,148.8,84.6,148.8,100.3,148.8z"/>
	<path class="st1" d="M65.3,108.3c9,0.1,16.1,7.5,16,16.5c-0.2,8.8-7.6,15.9-16.4,15.8c-8.9-0.1-16.1-7.6-16-16.6
		C49.1,115.3,56.5,108.2,65.3,108.3z M65.1,113.7c-5.9,0-10.7,4.9-10.7,10.8c0,5.9,4.9,10.8,10.7,10.8c5.9,0,10.8-4.9,10.8-10.9
		C75.8,118.5,71,113.7,65.1,113.7z"/>
	<path class="st2" d="M120.4,127.2c-9,0-17.9,0-26.9,0c-0.6,0-1.3,0-1.9-0.1c-1.4-0.2-2.1-1.1-2.2-2.5c-0.1-1.3,0.6-2.2,1.9-2.6
		c0.6-0.2,1.2-0.2,1.9-0.2c18.2,0,36.4,0,54.6,0c0.6,0,1.3,0,1.9,0.2c1.3,0.4,1.9,1.3,1.8,2.6c-0.1,1.3-0.8,2.2-2.1,2.4
		c-0.6,0.1-1.3,0.1-1.9,0.1C138.5,127.2,129.5,127.2,120.4,127.2z"/>
	<path class="st2" d="M120.6,135.3c9,0,17.9,0,26.9,0c0.5,0,1.1,0,1.6,0c1.4,0.2,2.3,1.2,2.4,2.5c0.1,1.4-0.9,2.5-2.3,2.7
		c-0.5,0.1-1.1,0.1-1.6,0.1c-18.1,0-36.2,0-54.2,0c-0.1,0-0.2,0-0.3,0c-2.3,0-3.6-1-3.6-2.7c0-1.7,1.2-2.7,3.5-2.7
		C102.2,135.3,111.4,135.3,120.6,135.3z"/>
	<path class="st2" d="M120.6,108.3c8.9,0,17.7,0,26.6,0c0.5,0,1.1,0,1.6,0c1.7,0.1,2.8,1.1,2.8,2.6c0,1.4-1,2.5-2.6,2.7
		c-0.5,0.1-1.1,0.1-1.6,0.1c-17.9,0-35.8,0-53.8,0c-0.7,0-1.5,0-2.2-0.2c-1.3-0.3-2-1.2-1.9-2.6c0-1.4,0.8-2.3,2.2-2.5
		c0.6-0.1,1.3-0.1,1.9-0.1C102.5,108.3,111.5,108.3,120.6,108.3z"/>
</g>
</svg>
