<?xml version="1.0" encoding="utf-8"?>
<!-- Generator: Adobe Illustrator 24.0.0, SVG Export Plug-In . SVG Version: 6.00 Build 0)  -->
<svg version="1.1" id="Capa_1" xmlns="http://www.w3.org/2000/svg" xmlns:xlink="http://www.w3.org/1999/xlink" x="0px" y="0px"
	 viewBox="0 0 80 80" style="enable-background:new 0 0 80 80;" xml:space="preserve">
<style type="text/css">
	.st0{fill:#ACAEAF;}
	.st1{fill:#FE9900;}
	.st2{fill:#1C3247;}
</style>
<g>
	<path class="st0" d="M67.7,62.5c-0.3-0.5-0.6-0.9-0.9-1.3c-0.4-0.6-0.3-1.2,0.2-1.5c0.5-0.3,1.1-0.2,1.4,0.3
		c0.6,0.9,1.2,1.7,1.8,2.6c1.5,2.4,0.2,5.7-2.5,6.2c-0.3,0.1-0.6,0.1-0.9,0.1c-17.8,0-35.5,0-53.3,0c-2.3,0-3.8-1.5-3.8-3.9
		c0-1.2,0.3-2.2,1-3.2c1-1.4,2-2.9,3-4.3c0.4-0.6,0.9-0.8,1.6-0.8c16.1,0,32.3,0,48.4,0c0.3,0,0.5,0,0.9,0c0-0.3,0-0.5,0-0.7
		c0-10.1,0-20.2,0-30.3c0-1.2-0.3-1.5-1.5-1.5c-0.8,0-1.5,0-2.3,0c-0.7,0-1.1-0.4-1.1-1c0-0.6,0.5-1,1.1-1c0.9,0,1.8,0,2.7,0
		c1.8,0,3.1,1.3,3.1,3.1c0,3.8,0,7.6,0,11.4c0,6.9,0,13.7,0,20.6c0,1.2-0.3,1.5-1.5,1.5c-16.4,0-32.8,0-49.1,0
		c-0.5,0-0.8,0.1-1.1,0.6c-0.7,1.1-1.4,2.1-2.2,3.2C31.1,62.5,49.4,62.5,67.7,62.5z M11.9,64.6c-0.2,1.6,0.4,2.3,1.9,2.3
		c17.6,0,35.3,0,52.9,0c1.5,0,2.1-0.7,1.9-2.3C49.7,64.6,30.8,64.6,11.9,64.6z"/>
	<path class="st1" d="M56,23.3c1.3,0.2,1.4,0.2,1.6,1.5c0.3,1.6,0.6,3.2,0.9,4.9c0.1,0.8-0.3,1.3-1.1,1.3c-1.6,0-3.3,0-4.9,0
		c-0.8,0-1.2-0.5-1.1-1.2c0.3-1.9,0.7-3.7,1-5.5c0.1-0.8,0.8-0.9,1.5-0.8c0-1.9,0-3.7,0-5.6c-0.2,0-0.3,0.1-0.5,0.1
		c-1.3,0.6-2.7,1.2-4,1.8C49.1,19.8,49,20,49,20.3c0,2.1,0,4.2,0,6.3c0,0.9-0.2,1.2-1.1,1.5c-2.7,1-5.5,2-8.3,2.9
		c-0.4,0.1-1,0.1-1.4,0c-2.8-0.9-5.5-1.9-8.3-2.9c-0.9-0.3-1-0.5-1-1.4c0-2,0-4,0-6c0-0.7-0.2-1-0.8-1.2c-1.8-0.7-3.5-1.5-5.3-2.3
		c-0.5-0.2-0.9-0.5-0.9-1c0-0.6,0.4-0.8,0.9-1.1c5.1-2.3,10.3-4.5,15.4-6.8c0.5-0.2,0.9-0.2,1.4,0c5.1,2.3,10.2,4.5,15.4,6.8
		c0.6,0.3,0.9,0.7,0.9,1.4c0,2.1,0,4.1,0,6.2C56,22.9,56,23.1,56,23.3z M25.6,16.1c0.2,0.1,0.3,0.1,0.3,0.2
		c4.2,1.9,8.4,3.7,12.6,5.6c0.3,0.1,0.7,0.1,0.9,0c4.1-1.8,8.2-3.6,12.3-5.4c0.2-0.1,0.3-0.2,0.5-0.3c-0.1-0.1-0.2-0.1-0.2-0.1
		c-4.2-1.9-8.5-3.8-12.7-5.6c-0.2-0.1-0.6-0.1-0.9,0.1c-3.9,1.7-7.7,3.4-11.6,5.1C26.5,15.7,26.1,15.8,25.6,16.1z M31,20.7
		c0,1.9,0,3.6,0,5.3c0,0.2,0.3,0.4,0.5,0.5c2.3,0.8,4.7,1.7,7,2.5c0.2,0.1,0.5,0.1,0.7,0c2.4-0.8,4.9-1.7,7.3-2.6
		c0.1-0.1,0.3-0.2,0.3-0.4c0-1.7,0-3.5,0-5.3c-0.3,0.1-0.5,0.2-0.7,0.3c-2.2,1-4.4,1.9-6.5,2.9c-0.5,0.2-1,0.2-1.5,0
		c-0.7-0.4-1.5-0.7-2.3-1C34.4,22.2,32.8,21.5,31,20.7z M56.3,28.9c-0.2-1.2-0.4-2.3-0.6-3.5c-0.5,0-0.9,0-1.4,0
		c-0.2,1.2-0.4,2.3-0.6,3.5C54.6,28.9,55.4,28.9,56.3,28.9z"/>
	<path class="st0" d="M13.9,39.5c0-4.7,0-9.3,0-14c0-2.1,1.2-3.3,3.3-3.4c2.7,0,5.5-0.1,8.2-0.1c0.3,0,0.6,0,0.8,0.1
		c0.3,0.3,0.5,0.7,0.5,1c0,0.5-0.4,0.8-1,0.8c-1.7,0-3.4,0.1-5.1,0.1c-1.1,0-2.3,0-3.4,0c-1,0-1.3,0.3-1.3,1.4c0,9.3,0,18.6,0,28
		c0,0.2,0,0.4,0,0.6c-0.1,0.6-0.5,1-1,1c-0.5,0-0.9-0.4-1-1c0-0.2,0-0.4,0-0.6C13.9,49,13.9,44.3,13.9,39.5z"/>
	<path class="st2" d="M46.9,37.1c-3.4,0-6.8,0-10.2,0c-0.2,0-0.5,0.1-0.7-0.1c-0.3-0.2-0.6-0.5-0.7-0.9c-0.1-0.4,0.2-0.8,0.6-1
		c0.3-0.1,0.5-0.1,0.8-0.1c6.8,0,13.5,0,20.3,0c0.1,0,0.3,0,0.4,0c0.6,0,1.1,0.5,1.1,1c0,0.6-0.4,1-1.1,1c-2.7,0-5.5,0-8.2,0
		C48.5,37.1,47.7,37.1,46.9,37.1z"/>
	<path class="st0" d="M46.9,48.2c-3.4,0-6.8,0-10.2,0c-0.3,0-0.6,0.1-0.7-0.1c-0.3-0.2-0.6-0.6-0.6-0.9c-0.1-0.5,0.2-0.8,0.6-1
		c0.3-0.1,0.5-0.1,0.8-0.1c6.7,0,13.5,0,20.2,0c0.1,0,0.2,0,0.3,0c0.7,0,1.2,0.5,1.2,1.1c0,0.6-0.5,1-1.2,1
		C53.9,48.2,50.4,48.1,46.9,48.2z"/>
	<path class="st0" d="M25.2,52.6c-0.8,0-1.6,0-2.4,0c-0.7,0-1.1-0.4-1.1-1.1c0-1.6,0-3.2,0-4.8c0-0.7,0.4-1.1,1.1-1.1
		c1.6,0,3.3,0,4.9,0c0.7,0,1.1,0.4,1.1,1.1c0,1.6,0,3.2,0,4.8c0,0.8-0.4,1.1-1.1,1.1C26.8,52.6,26,52.6,25.2,52.6z M23.7,50.5
		c1,0,2,0,3,0c0-1,0-2,0-2.9c-1,0-2,0-3,0C23.7,48.5,23.7,49.5,23.7,50.5z"/>
	<path class="st0" d="M44,51.9c-2.5,0-5,0-7.5,0c-0.4,0-0.8-0.2-1-0.5c-0.5-0.5-0.1-1.4,0.6-1.5c0.2,0,0.4,0,0.6,0
		c4.9,0,9.9,0,14.8,0c0.1,0,0.3,0,0.4,0c0.6,0.1,1,0.5,1,1c0,0.6-0.4,1-1,1c-0.7,0-1.4,0-2.2,0C47.8,51.9,45.9,51.9,44,51.9z"/>
	<path class="st2" d="M44.1,38.8c2.5,0,5,0,7.5,0c0.6,0,1,0.2,1.2,0.8c0.1,0.6-0.3,1.1-0.9,1.2c-0.3,0-0.5,0-0.8,0
		c-4.7,0-9.5,0-14.2,0c-0.2,0-0.4,0-0.6,0c-0.6-0.1-1-0.5-1-1c0-0.6,0.4-1,1-1c1.6,0,3.2,0,4.8,0C42.1,38.8,43.1,38.8,44.1,38.8z"/>
	<path class="st2" d="M23.6,36.4c0,1.3,0,2.6,0,3.8c0,0.8-0.4,1.3-1,1.3c-0.6,0-1-0.5-1-1.3c0-1.5,0-3,0-4.5c0-0.9,0.4-1.3,1.3-1.3
		c1.5,0,3,0,4.6,0c0.8,0,1.3,0.4,1.3,1c0,0.6-0.5,1-1.3,1C26.2,36.5,25,36.4,23.6,36.4z"/>
	<path class="st2" d="M27.6,39.1c1-1,1.9-1.9,2.9-2.9c0.6-0.6,1.2-0.6,1.6-0.2c0.5,0.5,0.4,1.1-0.2,1.7c-1.1,1.1-2.2,2.2-3.3,3.3
		c-0.7,0.7-1.1,0.6-1.8,0c-0.6-0.5-1.1-1.1-1.7-1.7c-0.5-0.5-0.5-1.1-0.1-1.5c0.4-0.4,1-0.4,1.5,0.1C26.9,38.3,27.2,38.7,27.6,39.1z
		"/>
</g>
</svg>
