<?xml version="1.0" encoding="utf-8"?>
<!-- Generator: Adobe Illustrator 24.0.0, SVG Export Plug-In . SVG Version: 6.00 Build 0)  -->
<svg version="1.1" id="Capa_1" xmlns="http://www.w3.org/2000/svg" xmlns:xlink="http://www.w3.org/1999/xlink" x="0px" y="0px"
	 viewBox="0 0 200 200" style="enable-background:new 0 0 200 200;" xml:space="preserve">
<style type="text/css">
	.st0{fill:#ACAEAF;}
	.st1{fill:#1C3247;}
	.st2{fill:none;}
	.st3{fill:#FE9900;}
</style>
<g>
	<path class="st0" d="M48.8,184.3c-2.4-0.9-4.9-1.7-6.1-4.1c-0.9-1.7-1.5-3.7-1.7-5.8c-0.3-3.1-0.2-6.3,0-9.5c0-2.4,1.2-3.7,3.2-3.7
		c2,0,3.2,1.4,3.2,3.7c0,3.1,0,6,0,9c0,2.7,1.2,3.9,3.9,3.9c37.6,0,75.1,0,112.7,0c2.9,0,3.9-1.2,3.9-4.4c0-33.4,0-66.6,0-99.9
		c0-14.1,0-28.4,0-42.6c0-3.4-1-4.4-4.4-4.4c-37.3,0-74.4,0-111.7,0c-3.4,0-4.4,1-4.4,4.4c0,3.2,0,6.3,0,9.5c0,1.4-0.5,2.6-1.9,3.1
		C44.4,44,43.2,44,42.3,43c-0.7-0.7-1.2-1.7-1.2-2.7c-0.2-3.6-0.2-7.3,0-10.9c0.2-5.3,4.1-9,9.4-9.4c0.7,0,1.4,0,1.9,0
		c36.6,0,73.4,0,110,0c7.3,0,9.4,1.4,12.1,8c0,49.4,0,98.8,0,148.1c-0.3,0.9-0.7,1.7-1,2.6c-1.4,3.1-3.9,4.6-7,5.4
		C126.9,184.3,88,184.3,48.8,184.3z"/>
	<path class="st0" d="M166.1,184.3c3.1-1,5.6-2.4,7-5.4c0.3-0.9,0.7-1.7,1-2.6c0,2.7,0,5.3,0,8C171.6,184.3,168.8,184.3,166.1,184.3
		z"/>
	<path class="st1" d="M110.6,150.2c-12.3,0-24.5,0-36.8,0c-0.5,0-1,0-1.5,0c-1.9-0.2-3.1-1.5-3.1-3.1c0-1.7,1.2-2.9,2.9-3.2
		c0.3,0,0.9,0,1.4,0c24.9,0,49.7,0,74.7,0c0.2,0,0.2,0,0.3,0c2.4,0,3.9,1.2,4.1,3.2c0,1.9-1.5,3.2-3.9,3.2c-4.6,0-9,0-13.6,0
		C126.6,150.2,118.6,150.2,110.6,150.2z"/>
	<path class="st0" d="M104.1,166.9c-10.2,0-20.4,0-30.6,0c-0.7,0-1.4,0-1.9-0.2c-1.5-0.3-2.6-1.5-2.6-3.1c0-1.5,1-2.9,2.6-3.2
		c0.5-0.2,1-0.2,1.5-0.2c20.6,0,41,0,61.6,0c0.5,0,1.2,0,1.7,0.2c1.5,0.3,2.6,1.7,2.6,3.1c0,1.5-1,2.7-2.6,3.1
		c-0.7,0.2-1.2,0.2-1.9,0.2C124.6,166.9,114.3,166.9,104.1,166.9z"/>
	<path class="st0" d="M149.1,160.5c1.7,0,3.2,1.4,3.2,3.1s-1.4,3.2-3.1,3.2s-3.2-1.4-3.2-3.1C145.8,162,147.4,160.6,149.1,160.5z"/>
	<path class="st0" d="M48.1,119.4c0,1.7-1.5,3.2-3.2,3.2s-3.2-1.5-3.2-3.2s1.5-3.2,3.2-3.1C46.8,116.2,48.3,117.7,48.1,119.4z"/>
	<g>
		<path class="st2" d="M94.4,94.6c-7.7,0-13.5,3.7-17.2,10.4c9.5,8.2,25.2,8.2,34.7,0C108,98.1,102.3,94.4,94.4,94.6z"/>
		<path class="st0" d="M126.1,44c-20.3-16.3-48.9-14.3-66.7,3.6c-9.5,9.5-14.5,21.3-14.5,34.7c-0.2,16.2,6.6,29.3,19.1,39.7
			c-0.3,0.3-0.7,0.7-0.9,1c-11.9,11.9-23.7,23.7-35.6,35.6c-0.3,0.3-0.7,0.7-1.2,1c-3.2,2.6-8.2,1-9.4-2.9c-0.9-2.6,0-4.6,1.9-6.5
			c6-6,11.9-11.9,17.9-17.9c0.9-0.9,1.5-2.2,1.5-3.2c0-0.9-1-2-1.9-2.6c-1.4-0.7-2.7,0-3.9,1.2c-6,6.1-12.1,12.1-18,18.2
			c-0.5,0.5-0.9,1-1.4,1.5c-5.3,6.5-2.2,16.7,5.6,19.2c5.3,1.7,9.7,0.3,13.6-3.6c11.9-11.9,24-24,35.9-35.9c0.5-0.5,0.9-1,1.2-1.5
			c25.4,14.5,54.1,4.9,67.4-15.7C150.8,87.8,145.3,59.7,126.1,44z M94.6,126.2c-24-0.2-43.4-19.6-43.4-43.4s19.8-43.6,43.6-43.4
			c23.8,0.2,43.4,19.6,43.4,43.6C138.2,106.8,118.4,126.4,94.6,126.2z"/>
		<path class="st3" d="M94.6,48.3C75.5,48.4,60,63.9,60.2,83c0.2,19.1,15.7,34.6,34.6,34.6c19.1-0.2,34.6-15.7,34.6-34.6
			C129.3,63.8,113.5,48.1,94.6,48.3z M77.2,104.8c3.9-6.6,9.5-10.2,17.2-10.4c7.8,0,13.6,3.6,17.5,10.2
			C102.4,113,86.8,113,77.2,104.8z M89.5,74.5c1.9-2,4.1-2.9,6.8-2.2c2.7,0.7,4.6,2.6,4.9,5.3c0.3,1.7,0.3,3.4,0,5.1
			c-0.5,3.4-3.7,5.6-7.2,5.4C90.7,87.8,88,85,88,81.5c0-0.5,0-0.9,0-1.5C87.8,78.1,88.1,76.2,89.5,74.5z M116.7,100
			c-3.1-4.6-7.2-7.8-12.1-10c3.7-4.8,4.1-10,2.4-15.5c-1.5-5.3-7.3-9.2-12.8-8.9c-6.3,0.5-11.4,4.8-12.4,10.7
			c-0.9,5.4-0.2,8.9,2.7,13.3c-2.4,1.5-4.8,2.7-6.6,4.4c-2,1.7-3.6,3.7-5.4,5.6c-7.2-8-9.4-24.7,1.7-36.4
			c10.7-11.4,28.8-11.7,40.2-0.7C125.6,73.8,124.7,90.5,116.7,100z"/>
	</g>
</g>
</svg>
