<?xml version="1.0" encoding="utf-8"?>
<!-- Generator: Adobe Illustrator 24.0.0, SVG Export Plug-In . SVG Version: 6.00 Build 0)  -->
<svg version="1.1" id="Capa_1" xmlns="http://www.w3.org/2000/svg" xmlns:xlink="http://www.w3.org/1999/xlink" x="0px" y="0px"
	 viewBox="0 0 80 80" style="enable-background:new 0 0 80 80;" xml:space="preserve">
<style type="text/css">
	.st0{fill:#ACAEAF;}
	.st1{fill:#1C3247;}
	.st2{fill:#FE9900;}
</style>
<g>
	<path class="st0" d="M11.71,12.91c0.21-0.47,0.37-0.99,0.65-1.41c0.71-1.04,1.75-1.5,2.99-1.5c15.36,0,30.73-0.01,46.09,0
		c2.15,0,3.62,1.49,3.64,3.64c0.02,1.92,0.01,3.85,0,5.77c0,0.86-0.44,1.4-1.13,1.42c-0.71,0.02-1.19-0.54-1.19-1.42
		c-0.01-1.84,0-3.69,0-5.53c0-1.14-0.4-1.54-1.55-1.54c-15.21,0-30.42,0-45.63,0c-1.14,0-1.55,0.4-1.55,1.54c0,17.3,0,34.61,0,51.91
		c0,1.14,0.4,1.55,1.54,1.55c15.21,0,30.42,0,45.63,0c1.15,0,1.55-0.4,1.55-1.54c0-0.89-0.01-1.79,0-2.68
		c0.01-0.84,0.49-1.38,1.19-1.37c0.67,0.02,1.13,0.55,1.14,1.36c0.01,0.93,0.01,1.86,0,2.8c-0.01,1.91-0.89,3.09-2.71,3.66
		c-0.07,0.02-0.14,0.07-0.2,0.1c-15.85,0-31.7,0-47.55,0c-0.3-0.12-0.61-0.22-0.91-0.35c-1.11-0.5-1.66-1.45-2-2.56
		C11.71,48.8,11.71,30.86,11.71,12.91z"/>
	<path class="st0" d="M11.71,66.75c0.34,1.11,0.89,2.06,2,2.56c0.3,0.13,0.61,0.24,0.91,0.35c-0.97,0-1.94,0-2.91,0
		C11.71,68.69,11.71,67.72,11.71,66.75z"/>
	<path class="st0" d="M46.68,33.07c-0.07-1.58,0.57-2.7,1.84-3.52c0.3-0.19,0.51-0.69,0.55-1.07c0.23-2.12,1.3-3.24,3.41-3.41
		c0.59-0.05,0.96-0.3,1.27-0.77c1.03-1.58,2.8-2.07,4.47-1.22c0.58,0.3,1.07,0.29,1.64-0.01c1.63-0.84,3.43-0.35,4.42,1.19
		c0.34,0.52,0.74,0.79,1.37,0.81c2.03,0.05,3.36,1.74,3.31,3.37c-0.02,0.58,0.27,0.96,0.76,1.28c1.64,1.06,2.1,2.78,1.22,4.5
		c-0.29,0.56-0.27,1.04,0.01,1.59c0.86,1.68,0.39,3.44-1.2,4.46c-0.55,0.35-0.78,0.8-0.81,1.44c-0.09,1.83-1.44,3.15-3.25,3.23
		c-1.03,0.05-1.77,0.83-1.77,1.88c0,3.32-0.01,6.64,0.01,9.96c0,0.6-0.1,1.15-0.7,1.41c-0.62,0.27-1.12-0.02-1.55-0.48
		c-0.85-0.88-1.71-1.75-2.65-2.7c-0.8,0.81-1.54,1.57-2.28,2.33c-0.14,0.14-0.28,0.27-0.41,0.41c-0.41,0.45-0.9,0.71-1.5,0.44
		c-0.57-0.25-0.71-0.76-0.71-1.35c0.01-3.36,0.01-6.72,0-10.08c0-0.99-0.77-1.78-1.76-1.83c-1.82-0.09-3.14-1.39-3.27-3.23
		C49.09,41.5,49.04,41.27,49,41c-0.25,0-0.48,0-0.71,0c-7.15,0-14.29,0-21.44,0c-1.07,0-1.62-0.39-1.62-1.15
		c-0.01-0.77,0.54-1.18,1.6-1.18c6.45,0,12.9,0,19.34,0c0.23,0,0.46,0,0.74,0c-0.39-1.15-0.25-2.19,0.42-3.26c-0.33,0-0.55,0-0.77,0
		c-6.56,0-13.13,0-19.69,0c-1.1,0-1.66-0.41-1.64-1.19c0.02-0.76,0.56-1.14,1.64-1.14c6.35,0,12.7,0,19.05,0
		C46.15,33.07,46.38,33.07,46.68,33.07z M69.14,32.48c-0.23-0.27-0.43-0.64-0.75-0.84c-1.1-0.71-1.68-1.68-1.75-2.98
		c-0.05-0.9-0.37-1.24-1.25-1.26c-1.32-0.04-2.28-0.64-2.97-1.74c-0.43-0.68-0.92-0.82-1.63-0.44c-1.18,0.63-2.32,0.63-3.5,0
		c-0.71-0.38-1.21-0.25-1.64,0.43c-0.69,1.1-1.65,1.7-2.97,1.75c-0.88,0.03-1.21,0.37-1.26,1.26c-0.07,1.3-0.63,2.29-1.75,2.98
		c-0.7,0.43-0.84,0.91-0.45,1.62c0.64,1.19,0.63,2.36-0.01,3.55c-0.37,0.69-0.24,1.17,0.42,1.59c1.11,0.69,1.68,1.66,1.77,2.96
		c0.07,0.98,0.37,1.23,1.35,1.29c1.18,0.06,2.12,0.58,2.77,1.57c0.6,0.91,0.96,1,1.93,0.52c1.04-0.52,2.09-0.52,3.14,0
		c0.97,0.48,1.34,0.39,1.93-0.52c0.64-0.98,1.56-1.49,2.71-1.57c1.09-0.08,1.32-0.28,1.41-1.41c0.1-1.21,0.64-2.13,1.67-2.78
		c0.79-0.5,0.91-0.94,0.49-1.75c-0.6-1.14-0.6-2.26,0.01-3.39C68.93,33.09,69,32.85,69.14,32.48z M56.52,47.53c0,2.16,0,4.43,0,6.86
		c0.54-0.57,0.98-1.05,1.43-1.5c0.81-0.81,1.36-0.8,2.18,0.01c0.46,0.45,0.91,0.91,1.44,1.43c0-2.39,0-4.65,0-6.78
		c-0.73-0.27-1.39-0.54-2.07-0.73c-0.29-0.08-0.65-0.08-0.94,0.01C57.87,47.01,57.22,47.28,56.52,47.53z"/>
	<path class="st0" d="M57.17,17.94c-12.54,0-25,0-37.53,0c0,0.24,0,0.47,0,0.69c0,7.32,0,14.64,0,21.96c0,0.21,0.01,0.43-0.02,0.64
		c-0.09,0.61-0.58,1.04-1.15,1.03c-0.57,0-1.05-0.44-1.14-1.05c-0.03-0.19-0.02-0.39-0.02-0.58c0-7.8,0-15.61,0-23.41
		c0-1.26,0.37-1.63,1.63-1.63c12.97,0,25.94,0,38.92,0c1.28,0,1.64,0.36,1.64,1.62c0,0.74,0,1.48,0,2.21c0,0.95-0.42,1.51-1.15,1.52
		c-0.73,0.01-1.17-0.55-1.18-1.49C57.16,18.97,57.17,18.49,57.17,17.94z"/>
	<path class="st0" d="M19.64,61.72c12.53,0,24.99,0,37.53,0c0-0.41-0.01-0.81,0-1.21c0.02-0.8,0.5-1.33,1.17-1.32
		c0.68,0,1.14,0.53,1.16,1.34c0.01,0.72,0.01,1.44,0,2.15c-0.01,0.95-0.44,1.39-1.4,1.39c-2.37,0.01-4.74,0-7.11,0
		c-10.66,0-21.32,0-31.98,0c-1.36,0-1.7-0.34-1.7-1.68c0-4,0-8,0-12c0-0.17-0.01-0.35,0.01-0.52c0.07-0.66,0.53-1.09,1.14-1.1
		c0.64-0.01,1.11,0.44,1.17,1.13c0.02,0.29,0.01,0.58,0.01,0.87c0,3.42,0,6.83,0,10.25C19.64,61.23,19.64,61.44,19.64,61.72z"/>
	<path class="st1" d="M40.32,44.26c2.15,0,4.31-0.01,6.46,0c1.03,0,1.65,0.79,1.28,1.62c-0.26,0.57-0.76,0.71-1.35,0.71
		c-2.66-0.01-5.31,0-7.97,0c-1.63,0-3.26,0.01-4.89,0c-0.82-0.01-1.31-0.47-1.31-1.17c0-0.72,0.51-1.15,1.38-1.16
		C36.06,44.26,38.19,44.26,40.32,44.26z"/>
	<path class="st1" d="M40.82,53.57c-0.37,0.42-0.62,0.75-0.92,1.02c-0.54,0.49-1.21,0.48-1.67,0c-0.43-0.45-0.43-1.11,0.04-1.63
		c0.32-0.36,0.67-0.71,1.04-1.02c0.91-0.78,2.13-0.79,3.02,0.02c0.52,0.47,0.95,1.02,1.54,1.67c0.35-0.41,0.6-0.73,0.88-1.02
		c0.39-0.41,0.79-0.8,1.19-1.2c0.68-0.67,1.37-0.75,1.88-0.23c0.53,0.54,0.44,1.19-0.24,1.88c-0.62,0.62-1.23,1.24-1.85,1.85
		c-1.21,1.2-2.5,1.2-3.71-0.02C41.62,54.51,41.26,54.07,40.82,53.57z"/>
	<path class="st2" d="M32.27,26.08c-0.87,0-1.75,0.01-2.62,0c-0.81-0.01-1.33-0.46-1.34-1.15c-0.01-0.68,0.51-1.17,1.31-1.18
		c1.78-0.01,3.57-0.01,5.35,0c0.79,0.01,1.33,0.5,1.31,1.18c-0.01,0.67-0.54,1.14-1.35,1.15C34.06,26.09,33.16,26.08,32.27,26.08z"
		/>
	<path class="st2" d="M25.14,26.07c-0.6,0.02-1.16-0.52-1.18-1.13c-0.01-0.6,0.52-1.16,1.13-1.18c0.6-0.01,1.16,0.52,1.18,1.13
		C26.28,25.5,25.75,26.06,25.14,26.07z"/>
	<path class="st1" d="M18.48,44.27c0.6,0,1.15,0.56,1.15,1.16c0,0.6-0.56,1.15-1.16,1.15c-0.61,0-1.15-0.56-1.15-1.16
		C17.32,44.81,17.87,44.27,18.48,44.27z"/>
	<path class="st2" d="M59.01,35.77c1.29-1.29,2.47-2.49,3.68-3.66c0.26-0.25,0.63-0.46,0.98-0.55c0.45-0.12,0.9,0.11,1.04,0.54
		c0.12,0.36,0.01,0.8,0,1.2c0,0.05-0.05,0.1-0.1,0.14c-1.59,1.59-3.16,3.19-4.77,4.76c-0.48,0.47-1.08,0.45-1.57-0.01
		c-0.82-0.77-1.61-1.57-2.38-2.38c-0.48-0.51-0.45-1.18,0-1.62c0.44-0.43,1.13-0.46,1.63,0.01C58.02,34.67,58.47,35.2,59.01,35.77z"
		/>
</g>
</svg>
