<?xml version="1.0" encoding="utf-8"?>
<!-- Generator: Adobe Illustrator 24.0.0, SVG Export Plug-In . SVG Version: 6.00 Build 0)  -->
<svg version="1.1" id="Capa_1" xmlns="http://www.w3.org/2000/svg" xmlns:xlink="http://www.w3.org/1999/xlink" x="0px" y="0px"
	 viewBox="0 0 200 200" style="enable-background:new 0 0 200 200;" xml:space="preserve">
<style type="text/css">
	.st0{fill:#1C3247;}
	.st1{fill:#FE9900;}
	.st2{fill:#ACAEAF;}
</style>
<g>
	<g>
		<path class="st0" d="M91,98c0.3-0.9,1-1.3,1.9-1.5c2.8-0.5,5.5-1.1,8.3-1.6c0.3-0.1,0.6-0.1,0.9-0.3c4.8-3,9.7-6,14.5-9
			c0.1-0.1,0.2-0.1,0.3-0.2c-0.1-0.2-0.2-0.4-0.3-0.6c-1.5-2.4-3-4.8-4.5-7.3c-2.5-4.1-0.7-9,3.9-10.3c5.4-1.6,10.9-3.1,16.3-4.7
			c3-0.9,6,0.8,6.9,3.7c0.9,3-0.8,6-3.8,6.9c-3.4,1-6.9,2-10.3,3c-0.2,0-0.3,0.1-0.5,0.2c2.3,3.8,4.6,7.5,6.9,11.2
			c-0.6-2.4-0.5-4.7,0.7-6.9c1.2-2.2,3.1-3.6,5.6-4.1c3.9-0.8,7.8,1.2,9.3,4.7c1.6,3.6,0.5,7.8-2.6,10.1c-3,2.2-7.6,2.5-11.1-0.8
			c0.1,0.1,0.1,0.3,0.2,0.4c1.5,2.4,3,4.8,4.5,7.2c0.2,0.3,0.4,0.4,0.8,0.4c4.4-0.1,8.8-0.7,13.1-1.8c0.5-0.1,1-0.1,1.4,0
			c0.8,0.2,1.2,1,1.2,1.8c0,0.8-0.6,1.5-1.4,1.7c-2.2,0.5-4.3,1-6.5,1.4c-4.2,0.7-8.4,0.9-12.6,0.5c-3.6-0.4-7.3-1-10.9-1.7
			c-4.1-0.7-8.2-1.7-12.3-2c-5.3-0.4-10.6,0.1-15.8,1.4c-0.4,0.1-0.7,0.2-1.1,0.3c-1.5,0.4-2.1,0.1-2.8-1.2C91,98.6,91,98.3,91,98z
			 M133.6,98.4c0-0.1,0-0.1,0.1-0.2c-0.1-0.2-0.2-0.4-0.4-0.6c-4.4-7.1-8.8-14.2-13.2-21.2c-0.9-1.4-0.4-2.7,1.2-3.1
			c3.1-0.9,6.1-1.8,9.2-2.7c1.3-0.4,2.6-0.7,3.9-1.1c0.8-0.2,1.3-0.9,1.2-1.7c0-0.8-0.5-1.5-1.3-1.6c-0.5-0.1-1,0-1.5,0.1
			c-5.3,1.5-10.5,3-15.8,4.6c-2.4,0.7-3.2,2.8-1.9,4.9c1.9,3,3.7,6,5.6,9.1c0.8,1.3,0.6,2.3-0.7,3.1c-3.4,2.1-6.8,4.2-10.2,6.3
			c-0.2,0.1-0.4,0.3-0.8,0.5c0.4,0,0.7,0.1,0.9,0.1c2.1,0.2,4.1,0.4,6.1,0.7c3.9,0.7,7.9,1.5,11.8,2.2
			C129.8,97.9,131.7,98.1,133.6,98.4z M139.3,80c-2.6,0-4.6,2.1-4.6,4.6c0,2.6,2.1,4.6,4.7,4.6c2.5,0,4.6-2.1,4.6-4.6
			C143.9,82,141.9,80,139.3,80z"/>
		<path class="st0" d="M91,106.7c0.3-0.9,1-1.3,1.9-1.5c5.1-1.4,10.3-2.1,15.5-1.9c4,0.1,7.9,0.8,11.8,1.5c4,0.7,8,1.5,12,2.1
			c6.5,0.9,12.9,0.3,19.2-1.3c0.3-0.1,0.6-0.1,0.8-0.2c1.1-0.2,2,0.4,2.2,1.4c0.2,1-0.4,2-1.4,2.2c-1.9,0.4-3.7,0.9-5.6,1.2
			c-3.6,0.6-7.2,0.9-10.9,0.8c-4.1-0.1-8.2-0.8-12.2-1.5c-3.9-0.7-7.9-1.5-11.8-2.1c-6.3-0.9-12.5-0.2-18.6,1.4
			c-0.6,0.2-1.3,0.2-1.8,0c-0.5-0.2-0.8-0.8-1.1-1.2C91,107.3,91,107,91,106.7z"/>
	</g>
	<path class="st1" d="M53.1,176.3c-1.2-0.7-1.7-1.8-1.6-3.2c0-0.4,0-0.8,0-1.2c0-3.9,0-4-3.7-5.3c-0.3-0.1-0.9,0-1.2,0.3
		c-1.2,1.1-2.3,2.3-3.4,3.4c-1.3,1.2-2.5,1.2-3.7,0c-3.1-3-6.1-6-9.1-9.1c-1.2-1.3-1.2-2.4,0-3.7c1-1,2-2,3-3
		c0.2-0.2,0.5-0.3,0.5-0.6c0.6-1.6-0.9-2.6-1.2-4c-0.1-0.3-0.7-0.7-1-0.7c-1.5-0.1-3.1,0-4.6,0c-2,0-2.7-0.8-2.8-2.8
		c0-4.2,0-8.4,0-12.6c0-1.9,0.8-2.7,2.7-2.8c1.5,0,3.1,0,4.6,0c0.4,0,1-0.4,1.1-0.8c1.6-3.4,1.5-3.5-1.1-6.1c-3.1-3.1-3.1-3.3,0-6.4
		c2.5-2.5,5-5,7.5-7.5c1.5-1.5,2.6-1.5,4.1,0c1.1,1,2.1,2.2,3.2,3.2c0.3,0.3,1.2,0.4,1.4,0.2c1.1-0.9,3.2-0.2,3.4-2.2
		c0.1-1.5,0-3.1,0-4.6c0-1.8,0.9-2.7,2.7-2.7c4.2,0,8.5,0,12.7,0c1.8,0,2.6,0.8,2.6,2.6c0,1.6,0,3.2,0,4.8c0,0.4,0.4,0.8,0.8,1.1
		c0.2,0.2,0.7,0.2,1,0.4c2,1.5,3.5,0.7,4.8-1.1c0.5-0.7,1.2-1.2,1.8-1.8c1.2-1.2,2.4-1.2,3.6-0.1c3.1,3.1,6.2,6.2,9.3,9.3
		c1.1,1.1,1.1,2.3-0.1,3.5c-1.1,1.2-2.2,2.3-3.4,3.4c-0.5,0.5-0.7,0.9-0.3,1.5c0.2,0.4,0.4,0.8,0.6,1.2c1,2.3,1,2.3,3.6,2.3
		c1,0,1.9,0,2.9,0c1.8,0.1,2.6,0.9,2.7,2.6c0,4.3,0,8.6,0,12.9c0,1.7-0.9,2.6-2.6,2.6c-1.6,0.1-3.2,0-4.8,0.1
		c-0.4,0-1.1,0.5-1.1,0.9c-0.2,1.4-2.1,2.5-0.8,4c1,1.2,2.2,2.2,3.3,3.3c1.3,1.4,1.3,2.5,0,3.8c-3,3-6,6-9,9c-1.3,1.3-2.5,1.2-3.8,0
		c-1-1-2.1-1.9-3-3c-0.7-0.8-1.3-0.9-2.1-0.3c-0.2,0.1-0.5,0.3-0.7,0.3c-2.3,0.3-2.7,1.8-2.4,3.8c0.1,0.8,0,1.6,0,2.4
		c0.1,1.4-0.4,2.4-1.7,3C63,176.3,58,176.3,53.1,176.3z M65.1,171.8c0-1.7,0-3.3,0-4.9c0-1.4,0.6-2.3,2-2.8c2-0.7,3.9-1.6,5.9-2.4
		c1.5-0.7,2.2-0.6,3.4,0.6c1.1,1.1,2.2,2.3,3.2,3.3c2.2-2.2,4.3-4.3,6.6-6.5c-1.1-1-2.2-2.1-3.3-3.2c-1.2-1.2-1.3-1.9-0.6-3.5
		c0.8-1.7,1.5-3.5,2.2-5.2c0.8-2.2,1.1-2.5,3.6-2.5c1.4,0,2.9,0,4.3,0c0-3.1,0-6,0-9.1c-1.7,0-3.4,0-5,0c-1.4,0-2.2-0.6-2.7-1.9
		c-0.7-2-1.6-3.9-2.4-5.9c-0.7-1.5-0.6-2.2,0.6-3.4c1.1-1.1,2.3-2.2,3.4-3.2c-2.3-2.3-4.4-4.4-6.6-6.6c-1,1-2,2.2-3.1,3.2
		c-1.3,1.3-2,1.4-3.7,0.7c-1.8-0.8-3.6-1.6-5.5-2.3c-1.8-0.7-2.2-1.2-2.2-3.1c0-1.5,0-3.1,0-4.6c-3.1,0-6.1,0-9.1,0
		c0,1.7,0,3.2,0,4.7c0,1.8-0.4,2.3-2.1,2.9c-1.8,0.7-3.7,1.5-5.5,2.3c-1.8,0.8-2.4,0.7-3.8-0.7c-1.1-1.1-2.1-2.2-3.1-3.2
		c-2.2,2.2-4.3,4.3-6.5,6.5c1.1,1,2.2,2.1,3.3,3.2c1.2,1.2,1.2,1.9,0.6,3.5c-0.8,1.8-1.6,3.6-2.3,5.5c-0.7,1.9-1.1,2.2-3.2,2.3
		c-1.5,0-3,0-4.5,0c0,3.1,0,6,0,9.1c1.6,0,3.1,0,4.7,0c1.9,0,2.4,0.4,3,2.1c0.7,1.9,1.5,3.7,2.3,5.5c0.7,1.7,0.7,2.4-0.6,3.7
		c-1.1,1.1-2.3,2.2-3.4,3.2c2.3,2.3,4.4,4.4,6.6,6.6c1.1-1.1,2.2-2.3,3.3-3.5c1-1,2-1.2,3.4-0.6c1.9,0.9,3.9,1.7,5.9,2.4
		c1.3,0.5,2,1.3,2,2.8c0,1.6,0,3.2,0,4.9C59.1,171.8,62,171.8,65.1,171.8z"/>
	<path class="st2" d="M37.1,99.9c-1.8,0-3.4,0-5.2,0c0-0.6,0-1.1,0-1.6c0-19.9,0-39.8,0-59.7c0-7.3,4.3-11.6,11.6-11.6
		c39.2,0,78.3,0,117.5,0c7.3,0,11.6,4.2,11.6,11.5c0,34.1,0,68.2,0,102.3c0,5.6-2.7,9.5-7.8,10.8c-1.1,0.3-2.3,0.4-3.5,0.4
		c-17.5,0-34.9,0-52.4,0c-0.4,0-0.9-0.1-1.4-0.1c0-1.7,0-3.3,0-5.1c0.7,0,1.3,0,1.9,0c17.2,0,34.4,0,51.6,0c3.4,0,5.4-1.3,6.1-4
		c0.2-0.6,0.2-1.3,0.2-2c0-34.3,0-68.6,0-102.9c0-3.8-2.1-5.8-5.9-5.8c-39.5,0-79,0-118.4,0c-4,0-6,2.1-6,6.2c0,19.8,0,39.6,0,59.4
		C37.1,98.5,37.1,99.1,37.1,99.9z"/>
	<path class="st2" d="M162.1,47.9c0,1.7,0,3.3,0,5c-39.9,0-79.7,0-119.7,0c0-1.7,0-3.3,0-5C82.3,47.9,122.2,47.9,162.1,47.9z"/>
	<path class="st2" d="M63.3,94c-4.9,0-9.8,0-14.6,0c-2.8,0-3.6-0.9-3.6-3.7c0-8,0-16,0-23.9c0-2.9,0.8-3.7,3.6-3.7
		c3.7,0,7.4,0,11.1,0c1.4,0,2.6,0.3,3.4,1.4c2.3,3.3,5.4,4.4,9.3,3.8c1.9-0.3,3.9-0.1,5.8,0c2.3,0,3.3,1,3.3,3.2c0,6.5,0,13,0,19.5
		c0,2.3-1,3.3-3.4,3.3C73.2,94,68.3,94,63.3,94z M50.4,88.7c8.7,0,17.3,0,25.9,0c0-5.2,0-10.3,0-15.5c-1.8,0-3.6,0-5.4,0
		c-7.4-0.1-5.1,0.7-10.3-4.2c-0.4-0.4-0.9-0.9-1.3-0.9c-2.9-0.1-5.9,0-8.9,0C50.4,75,50.4,81.8,50.4,88.7z"/>
	<path class="st2" d="M47.4,42.5c-1.8,0-3.3,0-5,0c0-1.7,0-3.3,0-5.1c1.6,0,3.2,0,5,0C47.4,39.1,47.4,40.8,47.4,42.5z"/>
	<path class="st2" d="M52.8,42.5c0-1.7,0-3.3,0-5c1.7,0,3.3,0,5.1,0c0,1.7,0,3.3,0,5C56.2,42.5,54.6,42.5,52.8,42.5z"/>
	<path class="st2" d="M68.3,42.5c-1.7,0-3.3,0-5,0c0-1.7,0-3.3,0-5.1c1.7,0,3.3,0,5,0C68.3,39.1,68.3,40.7,68.3,42.5z"/>
	<path class="st1" d="M44.7,140.1c0-8.7,7.1-15.9,15.9-15.9c8.7,0,15.8,7,15.9,15.7c0.1,8.7-7,15.9-15.8,15.9
		C51.8,155.9,44.7,148.9,44.7,140.1z M60.6,128.8c-6.2,0-11.3,5.1-11.3,11.3c0,6.2,5.1,11.3,11.3,11.3c6.2,0,11.3-5.1,11.3-11.3
		C71.9,133.9,66.7,128.8,60.6,128.8z"/>
</g>
</svg>
