<?xml version="1.0" encoding="utf-8"?>
<!-- Generator: Adobe Illustrator 24.0.0, SVG Export Plug-In . SVG Version: 6.00 Build 0)  -->
<svg version="1.1" id="Capa_1" xmlns="http://www.w3.org/2000/svg" xmlns:xlink="http://www.w3.org/1999/xlink" x="0px" y="0px"
	 viewBox="0 0 80 80" style="enable-background:new 0 0 80 80;" xml:space="preserve">
<style type="text/css">
	.st0{fill:#ACAEAF;}
	.st1{fill:#FE9900;}
</style>
<g>
	<path class="st0" d="M5.16,72.79c0.47-0.99,1.4-0.82,2.32-0.84c-0.16-4.45,1.47-7.95,5.4-10.32c-1.71-2.05-2.36-4.34-1.57-6.91
		c0.47-1.55,1.43-2.79,2.77-3.69c2.75-1.86,6.38-1.53,8.77,0.83c1.96,1.93,3.44,5.75,0.21,9.79c3.89,2.31,5.56,5.82,5.4,10.29
		c0.4,0,0.73,0,1.12,0c0-2.08,0.23-4.09,1.21-5.95c0.97-1.84,2.37-3.25,4.22-4.35c-1.64-1.98-2.32-4.17-1.64-6.67
		c0.44-1.62,1.39-2.89,2.74-3.87c2.58-1.88,6.17-1.65,8.72,0.64c1.42,1.28,2.17,2.94,2.23,4.88c0.05,1.91-0.66,3.54-1.91,5.02
		c1.86,1.09,3.29,2.5,4.26,4.37c0.95,1.85,1.25,3.82,1.17,5.92c0.38,0,0.71,0,1.14,0c-0.15-4.41,1.49-7.94,5.43-10.3
		c-1.57-1.84-2.26-3.91-1.75-6.28c0.37-1.73,1.34-3.1,2.74-4.18c2.56-1.96,6.36-1.73,8.89,0.62c2.13,1.98,3.45,5.96,0.28,9.85
		c3.87,2.32,5.57,5.81,5.39,10.34c0.43,0,0.81-0.02,1.19,0c0.63,0.05,1.08,0.5,1.12,1.08c0.04,0.57-0.38,1.08-0.99,1.2
		c-0.22,0.04-0.45,0.03-0.68,0.03c-22.17,0-44.34,0-66.5,0.01c-0.72,0-1.28-0.19-1.66-0.82C5.16,73.25,5.16,73.02,5.16,72.79z
		 M54.12,71.91c5.43,0,10.82,0,16.22,0c0-0.56,0.04-1.06-0.01-1.56c-0.27-3.21-1.84-5.55-4.75-6.93c-0.27-0.13-0.67-0.14-0.95-0.05
		c-1.63,0.56-3.24,0.56-4.87-0.01c-0.21-0.08-0.5-0.1-0.7-0.03C55.79,64.55,53.59,68.36,54.12,71.91z M48.19,71.93
		c0.36-3.74-1.52-7.13-4.72-8.52c-0.28-0.12-0.67-0.15-0.95-0.05c-1.63,0.56-3.24,0.56-4.87-0.01c-0.25-0.09-0.58-0.07-0.82,0.02
		c-1.36,0.55-2.46,1.45-3.32,2.63c-1.29,1.76-1.69,3.76-1.54,5.92C37.41,71.93,42.78,71.93,48.19,71.93z M26.05,71.93
		c0.55-3.54-1.59-7.31-4.85-8.57c-0.24-0.09-0.58-0.07-0.83,0.02c-1.61,0.55-3.2,0.55-4.8-0.01c-0.22-0.08-0.5-0.13-0.71-0.06
		c-3.23,1.12-5.56,5.15-4.96,8.62C15.26,71.93,20.64,71.93,26.05,71.93z M13.33,56.83c0,2.55,2.11,4.65,4.65,4.64
		c2.54-0.01,4.65-2.13,4.64-4.67c-0.01-2.55-2.11-4.63-4.66-4.62C15.39,52.18,13.33,54.26,13.33,56.83z M40.1,52.18
		c-2.56-0.01-4.65,2.06-4.66,4.62c-0.01,2.55,2.08,4.66,4.63,4.67c2.53,0.01,4.65-2.09,4.66-4.64
		C44.74,54.27,42.66,52.19,40.1,52.18z M62.19,52.18c-2.55,0.01-4.65,2.11-4.64,4.65c0.01,2.54,2.13,4.65,4.66,4.64
		c2.55-0.01,4.63-2.11,4.62-4.67C66.83,54.23,64.76,52.17,62.19,52.18z"/>
	<path class="st1" d="M28.44,32.39c0.17-4.26,1.98-7.5,5.45-9.86c-1.61-2.09-2.31-4.39-1.76-6.98c0.41-1.92,1.39-3.5,2.93-4.7
		c3.12-2.44,7.44-2.33,10.36,0.23c3.33,2.93,3.65,6.8,0.91,11.46c3.43,2.33,5.28,5.58,5.42,9.84c0.68,0,1.33,0,1.98,0
		c2.4,0.01,3.82,1.42,3.83,3.81c0.01,3.8,0.02,7.59-0.02,11.39c0,0.45-0.22,0.99-0.53,1.3c-0.21,0.21-0.84,0.24-1.11,0.08
		c-0.32-0.21-0.62-0.7-0.64-1.09c-0.07-1.63-0.03-3.27-0.03-4.91c0-0.39,0-0.77,0-1.22c-10.07,0-20.13,0-30.28,0
		c0,0.22,0,0.46,0,0.7c0,1.75,0,3.5,0,5.25c0,0.89-0.42,1.4-1.13,1.42c-0.73,0.02-1.19-0.51-1.19-1.43c-0.01-3.89-0.01-7.77,0-11.66
		c0.01-2.18,1.46-3.6,3.65-3.64C26.98,32.38,27.68,32.39,28.44,32.39z M55.22,39.34c0-1,0-1.95,0-2.9c0-1.4-0.33-1.73-1.72-1.73
		c-8.93,0-17.87,0-26.8,0c-0.2,0-0.41,0-0.61,0.01c-0.6,0.04-1.05,0.37-1.08,0.95c-0.07,1.21-0.02,2.43-0.02,3.67
		C35.07,39.34,45.09,39.34,55.22,39.34z M49.33,32.35c0.21-3.05-1.98-6.78-4.7-8.03c-0.17-0.08-0.44-0.04-0.61,0.04
		c-2.61,1.35-5.21,1.37-7.83,0.03c-0.21-0.11-0.61-0.1-0.78,0.03c-0.83,0.62-1.71,1.22-2.39,1.99c-1.48,1.66-2.21,3.65-2.22,5.94
		C37,32.35,43.15,32.35,49.33,32.35z M40.08,23.04c3.19,0,5.82-2.61,5.82-5.8c0-3.16-2.65-5.82-5.81-5.82
		c-3.16,0-5.81,2.65-5.82,5.82C34.26,20.42,36.89,23.04,40.08,23.04z"/>
</g>
</svg>
