<?xml version="1.0" encoding="utf-8"?>
<!-- Generator: Adobe Illustrator 24.0.0, SVG Export Plug-In . SVG Version: 6.00 Build 0)  -->
<svg version="1.1" id="Capa_1" xmlns="http://www.w3.org/2000/svg" xmlns:xlink="http://www.w3.org/1999/xlink" x="0px" y="0px"
	 viewBox="0 0 200 200" style="enable-background:new 0 0 200 200;" xml:space="preserve">
<style type="text/css">
	.st0{fill:#ACAEAF;}
	.st1{fill:#FE9900;}
</style>
<g>
	<path class="st0" d="M142.9,17.3c1.4,0.8,1.7,2,1.7,3.5c0,27.4,0,54.9,0,82.3c0,0.6,0,1.3,0,1.7c3.3,1,6.5,1.6,9.5,2.8
		c16.1,6.3,26.2,22.6,24.5,39.6c-1.7,17.7-14.7,31.8-32.1,34.8c-1,0.2-2,0.4-3,0.6c-2.4,0-4.7,0-7.1,0c-2.4-0.5-4.7-0.9-7-1.5
		c-4.4-1.1-8.4-3.2-12.1-5.8c-0.8-0.6-1.9-0.9-2.9-0.9c-18.9-0.1-37.8,0-56.7,0c-0.6,0-1.3,0-1.9-0.1c-1.3-0.2-2-1-2.1-2.3
		c0-1.3,0.7-2.1,1.9-2.4c0.6-0.1,1.3-0.1,1.9-0.1c17,0,34,0,51.1,0c0.6,0,1.3,0,2.3,0c-6.9-8.2-10-17.4-9.6-27.9c-0.7,0-1.3,0-1.9,0
		c-5.9,0-11.8,0-17.7,0c-2,0-3.1-0.9-3.2-2.4c0-1.5,1.1-2.4,3.1-2.4c6.1,0,12.2,0,18.4,0c0.6,0,1.2,0,1.7,0c0.6-2.2,1.1-4.3,1.7-6.5
		c-3.1,0-6.1,0-9.1,0c-4.3,0-8.6,0-12.9,0c-1.9,0-3-0.9-3-2.4c0-1.5,1.1-2.4,3-2.4c7.7,0,15.4,0,23,0c0.6,0,1.5-0.4,1.8-0.9
		c7.3-12,18-18.6,32-19.6c0.4,0,0.9-0.1,1.4-0.1c0-27.5,0-55,0-82.7c-0.5,0-1.1,0-1.7,0c-6.2,0-12.4,0-18.5,0
		c-1.4,0-2.6-0.1-3.2-1.5c-0.6-1.4,0.2-2.4,1.3-3.3C126,17.3,134.5,17.3,142.9,17.3z M173.9,143.9c0.1-18.7-15.1-34-33.8-34.1
		c-18.8-0.1-34.1,15.2-34.1,34.2c0,18.5,15.2,33.8,33.7,33.9C158.6,177.9,173.9,162.7,173.9,143.9z"/>
	<path class="st0" d="M109.7,17.3c0.3,0.3,0.6,0.5,0.7,0.8c0.2,0.8,0.6,1.8,0.4,2.5c-0.2,0.6-1.2,1.1-1.9,1.5
		c-0.4,0.2-1.1,0.1-1.6,0.1c-26.2,0-52.3,0-78.5,0c-0.6,0-1.3,0-2,0c0,49.1,0,98.1,0,147.3c0.6,0,1.2,0.1,1.8,0.1
		c5.5,0,11.1,0,16.6,0c0.6,0,1.5-0.1,1.9,0.2c0.7,0.6,1.5,1.6,1.5,2.3c-0.1,0.8-1,1.5-1.8,2.1c-0.3,0.3-1,0.1-1.6,0.1
		c-6.6,0-13.2,0-19.8,0c-2.8,0-3.5-0.7-3.5-3.4c0-50.1,0-100.2,0-150.3c0-1.5,0.3-2.6,1.7-3.4C52.4,17.3,81.1,17.3,109.7,17.3z"/>
	<path class="st1" d="M99.6,48.6c5.7,0,11.5,0,17.2,0c0.5,0,1.2-0.2,1.6,0.1c0.8,0.5,1.6,1.2,1.9,2c0.4,1.1-0.3,2.1-1.5,2.5
		c-0.6,0.2-1.3,0.2-1.9,0.2c-11.6,0-23.3,0-34.9,0c-0.4,0-0.9,0-1.3,0c-1.4-0.2-2.3-1.2-2.2-2.5c0.1-1.3,1-2.2,2.4-2.3
		c2.1-0.1,4.3,0,6.4,0C91.5,48.6,95.5,48.6,99.6,48.6z"/>
	<path class="st0" d="M99.4,91.9c-6,0-12,0-18,0c-1.9,0-3-1.1-2.9-2.7c0.1-1.3,1.2-2.1,2.7-2.1c4.7,0,9.4,0,14.2,0
		c7.3,0,14.6,0,21.9,0c0.9,0,2,0.4,2.5,1c0.5,0.5,0.6,1.8,0.3,2.3c-0.4,0.7-1.4,1.4-2.2,1.5c-2.3,0.2-4.6,0.1-6.9,0.1
		C107.1,91.9,103.3,91.9,99.4,91.9z"/>
	<path class="st0" d="M91.7,98.4c3.3,0,6.6,0,10,0c1.8,0,2.8,0.9,2.9,2.3c0,1.5-1.1,2.5-2.9,2.5c-6.8,0-13.5,0-20.3,0
		c-1.8,0-2.9-1-2.9-2.5c0.1-1.4,1.1-2.3,2.9-2.3C84.8,98.4,88.3,98.4,91.7,98.4z"/>
	<path class="st1" d="M91.5,59.9c3.4,0,6.8,0,10.1,0c1.8,0,2.9,0.9,2.9,2.3c0,1.5-1.1,2.5-2.9,2.5c-6.7,0-13.5,0-20.2,0
		c-1.8,0-2.9-1-2.9-2.5c0.1-1.4,1.1-2.3,2.9-2.3C84.8,59.9,88.2,59.9,91.5,59.9z"/>
	<path class="st0" d="M111.2,144.7c0.1,0.8,0.1,2.1,0.3,3.4c3.1,22.1,28.8,32.5,46.3,18.8c4-3.1,7-7.1,8.9-11.9
		c0.6-1.5,0.2-2.8-1.1-3.4c-1.3-0.6-2.5-0.1-3.3,1.5c-0.1,0.3-0.3,0.6-0.4,0.9c-4.5,10.2-15.1,15.8-26.3,13.9
		c-10.6-1.8-18.7-10.9-19.5-21.9c-0.9-12.1,7.6-23.2,19.4-25.2c12.3-2.2,24.1,5,27.4,16.8c0.6,2.1,0.7,4.3,1,6.5
		c0.2,1.6,1.1,2.7,2.5,2.7c1.4,0,2.4-1,2.4-2.7c0-1.2-0.1-2.4-0.3-3.5c-2-15.3-15.4-26-31-24.9C122.9,116.5,111.2,129.4,111.2,144.7
		z M136.4,137.7c0-2.6,1.5-4.1,4.1-4.1c2.4-0.1,3.3,1.6,4.1,3.5c0.6,1.4,1.8,2.1,3,1.6c1.3-0.4,1.9-1.7,1.5-3.1
		c-0.7-2.3-1.9-4.6-4.1-5.6c-2-0.9-3-2-2.7-4.2c0.1-1.2-1-2.1-2.1-2c-0.8,0.1-1.8,0.8-2.4,1.5c-0.4,0.4-0.3,1.3-0.3,2
		c0.1,1.2-0.2,2-1.5,2.6c-3.4,1.6-4.9,5-4.4,9.4c0.4,3.5,2.6,6.1,6.2,7c1.1,0.3,2.3,0.4,3.5,0.6c2.5,0.4,3.8,1.8,3.6,3.9
		c-0.2,2.5-1.8,4.1-4.2,4.2c-2.7,0.1-4.3-1.5-5.7-3.6c-1-1.5-2.3-1.9-3.5-1.2c-1.2,0.7-1.6,2.3-0.6,3.7c1,1.4,2,2.9,3.4,3.8
		c2,1.3,3.9,2.3,3.4,5.3c-0.2,1.2,1.1,2.1,2.5,1.9c1.3-0.1,2-0.9,2.2-2.2c0-0.4,0.1-0.9,0-1.3c-0.2-1.2,0.3-1.7,1.5-2.2
		c3.7-1.3,6.1-5.2,5.9-9.3c-0.2-3.8-2.6-6.6-6.7-7.6c-1.1-0.3-2.2-0.4-3.3-0.6C137.3,141.2,136.3,140.1,136.4,137.7z"/>
	<path class="st0" d="M111.2,144.7c0-15.3,11.7-28.2,26.2-29.2c15.7-1.1,29,9.6,31,24.9c0.2,1.2,0.2,2.4,0.3,3.5
		c0,1.6-1,2.7-2.4,2.7c-1.4,0-2.3-1-2.5-2.7c-0.3-2.2-0.4-4.4-1-6.5c-3.3-11.8-15.1-19-27.4-16.8c-11.7,2.1-20.3,13.2-19.4,25.2
		c0.8,11,8.9,20.1,19.5,21.9c11.2,1.9,21.7-3.6,26.3-13.9c0.1-0.3,0.2-0.6,0.4-0.9c0.7-1.5,2-2,3.3-1.5c1.3,0.6,1.8,1.9,1.1,3.4
		c-1.9,4.7-4.9,8.7-8.9,11.9c-17.6,13.7-43.2,3.3-46.3-18.8C111.3,146.8,111.2,145.6,111.2,144.7z"/>
	<path class="st0" d="M136.4,137.7c0,2.4,0.9,3.6,3.3,4c1.1,0.2,2.2,0.3,3.3,0.6c4.1,1,6.5,3.8,6.7,7.6c0.2,4.1-2.1,8-5.9,9.3
		c-1.2,0.4-1.7,0.9-1.5,2.2c0.1,0.4,0,0.9,0,1.3c-0.1,1.3-0.9,2.1-2.2,2.2c-1.4,0.1-2.7-0.7-2.5-1.9c0.4-3-1.4-4-3.4-5.3
		c-1.4-0.9-2.4-2.4-3.4-3.8c-1-1.4-0.6-2.9,0.6-3.7c1.2-0.8,2.5-0.3,3.5,1.2c1.3,2.1,3,3.7,5.7,3.6c2.5-0.1,4-1.6,4.2-4.2
		c0.2-2.1-1-3.5-3.6-3.9c-1.2-0.2-2.3-0.3-3.5-0.6c-3.6-0.9-5.8-3.5-6.2-7c-0.5-4.3,1-7.8,4.4-9.4c1.3-0.6,1.6-1.3,1.5-2.6
		c0-0.7-0.1-1.6,0.3-2c0.6-0.7,1.5-1.4,2.4-1.5c1.1-0.1,2.2,0.8,2.1,2c-0.3,2.3,0.7,3.3,2.7,4.2c2.2,1,3.4,3.2,4.1,5.6
		c0.4,1.5-0.2,2.7-1.5,3.1c-1.3,0.4-2.5-0.2-3-1.6c-0.8-1.9-1.6-3.5-4.1-3.5C137.8,133.6,136.4,135,136.4,137.7z"/>
	<g>
		<path class="st1" d="M81.4,64.7c6.7,0,13.5,0,20.2,0c1.8,0,3-1,2.9-2.5c0-1.4-1.1-2.3-2.9-2.3c-3.4,0-6.7,0-10.1,0
			c-3.4,0-6.8,0-10.1,0c-1.8,0-2.9,0.9-2.9,2.3C78.5,63.7,79.6,64.7,81.4,64.7z"/>
		<path class="st1" d="M57.6,43.1c3.6,0,7.2,0,10.8,0C64.8,43.1,61.2,43.1,57.6,43.1c-3.5,0-7.1,0-10.6,0
			C50.6,43.1,54.1,43.1,57.6,43.1z"/>
		<path class="st1" d="M80.8,53.4c0.4,0.1,0.9,0,1.3,0c11.6,0,23.3,0,34.9,0c0.6,0,1.3,0,1.9-0.2c1.2-0.4,1.9-1.4,1.5-2.5
			c-0.3-0.8-1.2-1.5-1.9-2c-0.4-0.3-1-0.1-1.6-0.1c-5.7,0-11.5,0-17.2,0c-4.1,0-8.2,0-12.2,0c-2.1,0-4.3,0-6.4,0
			c-1.4,0-2.4,1-2.4,2.3C78.5,52.2,79.4,53.2,80.8,53.4z"/>
		<path class="st0" d="M117.3,87.1c-7.3-0.1-14.6,0-21.9,0c-4.7,0-9.4,0-14.2,0c-1.6,0-2.6,0.8-2.7,2.1c-0.2,1.5,1,2.7,2.9,2.7
			c6,0,12,0,18,0c3.9,0,7.7,0,11.6,0c2.3,0,4.6,0.1,6.9-0.1c0.8-0.1,1.8-0.8,2.2-1.5c0.3-0.6,0.2-1.8-0.3-2.3
			C119.3,87.5,118.2,87.1,117.3,87.1z"/>
		<path class="st0" d="M101.7,98.4c-3.3,0-6.6,0-10,0c-3.4,0-6.9,0-10.3,0c-1.8,0-2.9,0.9-2.9,2.3c-0.1,1.5,1.1,2.5,2.9,2.5
			c6.8,0,13.5,0,20.3,0c1.8,0,3-1,2.9-2.5C104.5,99.3,103.4,98.4,101.7,98.4z"/>
		<path class="st0" d="M57.6,147.5c-3.5,0-7.1,0-10.6,0C50.6,147.5,54.1,147.5,57.6,147.5c3.6,0,7.3,0,10.9,0
			C64.9,147.5,61.3,147.5,57.6,147.5z"/>
		<path class="st0" d="M68.5,120.1c-7.2,0-14.4,0-21.6,0c-2.1,0-2.9,0.9-2.9,3c0,7.1,0,14.3,0,21.4c0,2.2,0.8,3,3,3
			c3.5,0,7.1,0,10.6,0c3.6,0,7.3,0,10.9,0c1.9,0,2.8-0.9,2.8-2.8c0-7.3,0-14.5,0-21.8C71.4,121,70.4,120.1,68.5,120.1z M66.4,142.6
			c-5.8,0-11.6,0-17.4,0c0-5.8,0-11.7,0-17.6c5.8,0,11.5,0,17.4,0C66.4,130.8,66.4,136.6,66.4,142.6z"/>
		<path class="st1" d="M47,70.5c7.1,0,14.3,0,21.4,0c2.1,0,3-0.9,3-3c0-7.2,0-14.3,0-21.5c0-2.1-0.9-2.9-2.9-3c-3.6,0-7.2,0-10.8,0
			c-3.5,0-7.1,0-10.6,0c-2.2,0-3,0.8-3,3c0,7.1,0,14.2,0,21.3C44,69.6,44.8,70.5,47,70.5z M48.9,48c5.9,0,11.6,0,17.5,0
			c0,5.9,0,11.6,0,17.5c-5.8,0-11.6,0-17.5,0C48.9,59.8,48.9,54,48.9,48z"/>
		<path class="st0" d="M44,106.2c0-3.7,0-7.3,0-11c0-3.5,0-7.1,0-10.6c0,3.5,0,7.1,0,10.6C44,98.9,44,102.5,44,106.2z"/>
		<path class="st0" d="M44,95.2c0,3.7,0,7.3,0,11c0,1.9,0.9,2.8,2.8,2.8c7.2,0,14.5,0,21.7,0c1.9,0,2.9-0.9,2.9-2.9
			c0-7.2,0-14.4,0-21.6c0-2.1-0.9-2.9-3-2.9c-7.1,0-14.3,0-21.4,0c-2.2,0-3,0.8-3,3C44,88.1,44,91.7,44,95.2z M48.9,86.5
			c5.8,0,11.6,0,17.5,0c0,5.8,0,11.7,0,17.6c-5.8,0-11.6,0-17.5,0C48.9,98.2,48.9,92.4,48.9,86.5z"/>
		<path class="st0" d="M51,132c0.9-1,2.4-1,3.6,0.1c0.5,0.4,0.7,1,1.3,1.8c1.8-1.9,3.2-3.4,4.7-4.8c1.4-1.4,2.7-1.5,3.8-0.4
			c1,1,0.9,2.5-0.4,3.8c-1.9,1.9-3.8,3.9-5.8,5.8c-1.5,1.5-2.7,1.5-4.2,0c-1-0.9-1.9-1.9-2.8-2.9C50.2,134.3,50.1,132.9,51,132z"/>
		<path class="st1" d="M63.9,55.4c-1.9,2-3.8,3.9-5.8,5.8c-1.5,1.5-2.7,1.4-4.2,0c-1-0.9-1.9-1.9-2.8-2.9c-1-1.1-1-2.5-0.1-3.5
			c1-1,2.3-1,3.4,0c0.5,0.5,0.9,1.1,1.5,1.8c1.7-1.7,3.1-3.3,4.6-4.8c1.3-1.3,2.7-1.4,3.8-0.4C65.4,52.7,65.3,54.1,63.9,55.4z"/>
		<path class="st0" d="M64,93.9c-1.9,2-3.8,3.9-5.8,5.8c-1.5,1.5-2.7,1.5-4.2,0c-1-0.9-1.9-1.9-2.8-2.9c-1-1.1-1-2.5-0.1-3.5
			c1-1,2.4-1,3.6,0.1c0.5,0.4,0.8,1,1.3,1.8c1.8-1.9,3.2-3.4,4.7-4.9c1.4-1.4,2.7-1.5,3.8-0.4C65.4,91.2,65.3,92.6,64,93.9z"/>
		<path class="st0" d="M54,138.3c1.5,1.4,2.7,1.4,4.2,0c1.9-1.9,3.9-3.9,5.8-5.8c1.3-1.3,1.4-2.8,0.4-3.8c-1.1-1.1-2.4-1-3.8,0.4
			c-1.5,1.5-2.9,3-4.7,4.8c-0.5-0.7-0.8-1.3-1.3-1.8C53.5,131,52,131,51,132c-0.9,1-0.9,2.4,0.2,3.5C52.1,136.4,53.1,137.3,54,138.3
			z"/>
		<path class="st1" d="M60.6,52c-1.5,1.5-2.9,3-4.6,4.8c-0.6-0.7-1-1.3-1.5-1.8c-1.2-1-2.5-1-3.4,0c-0.9,1-0.9,2.3,0.1,3.5
			c0.9,1,1.9,1.9,2.8,2.9c1.5,1.4,2.7,1.4,4.2,0c2-1.9,3.9-3.9,5.8-5.8c1.3-1.3,1.4-2.8,0.4-3.8C63.3,50.6,61.9,50.7,60.6,52z"/>
		<path class="st0" d="M60.6,90.5c-1.5,1.5-2.9,3-4.7,4.9c-0.5-0.8-0.8-1.4-1.3-1.8c-1.2-1.1-2.6-1.1-3.6-0.1
			c-0.9,0.9-0.9,2.4,0.1,3.5c0.9,1,1.9,1.9,2.8,2.9c1.5,1.4,2.7,1.4,4.2,0c2-1.9,3.9-3.9,5.8-5.8c1.3-1.3,1.4-2.8,0.4-3.8
			C63.3,89,61.9,89.1,60.6,90.5z"/>
	</g>
</g>
</svg>
