<?xml version="1.0" encoding="utf-8"?>
<!-- Generator: Adobe Illustrator 24.0.0, SVG Export Plug-In . SVG Version: 6.00 Build 0)  -->
<svg version="1.1" id="Capa_1" xmlns="http://www.w3.org/2000/svg" xmlns:xlink="http://www.w3.org/1999/xlink" x="0px" y="0px"
	 viewBox="0 0 200 200" style="enable-background:new 0 0 200 200;" xml:space="preserve">
<style type="text/css">
	.st0{fill:#ACAEAF;}
	.st1{fill:#FE9900;}
	.st2{fill:#1C3247;}
</style>
<g>
	<path class="st0" d="M172.3,181.4c-48,0-96,0-144,0c-7.2-1.8-9.3-7.1-9.3-13c0.2-28.8,0.1-57.7,0.1-86.5c0-17.3,0-34.6,0-51.9
		c0-5.4,3-9.4,8.2-10.9c0.2-0.1,0.5-0.2,0.7-0.3c48.2,0,96.4,0,144.6,0c1.4,0.7,2.9,1.2,4.2,2c2.6,1.7,3.9,4.3,4.7,7.2
		c0,48.1,0,96.2,0,144.3c-0.7,1.6-1.3,3.3-2.2,4.8C177.7,179.5,175.1,180.6,172.3,181.4z M129,91c-1.6,0-3-0.2-4.4,0
		c-3.1,0.5-5.3-0.6-6.5-3.5c-1.1-2.6-2.8-4.6-5.4-5.7c-1.6-0.7-3.4-1-5.1-1.4c-3.1-0.7-5.1-3.6-4.2-6.7c0.4-1.3,1.3-2.4,2.2-3.4
		c10.6-11.6,27.5-14.3,41.3-6.9c14.4,7.8,21.7,24.6,17.3,40.2c-0.8,2.9-3,4.5-5.8,4.3c-1.8-0.1-3-1.2-4.1-2.4
		c-2.9-3.4-6.5-5.1-11.1-4.2c-3.1,0.6-5-0.7-6.4-3.7c-0.7-1.5-1.7-2.7-2.8-4.4c-5.5,10.4-10.8,20.3-16.1,30.3
		c8.2,1.8,15.8,4.6,22.9,8.9c7.2,4.3,13.2,9.9,17.6,17c7.3-1.1,8.9-0.8,15.1,3.2c0.8,0.5,1.6,0.8,2.6,1.3c0-36.2,0-72.1,0-108.1
		c-50.5,0-100.9,0-151.3,0c0,36,0,71.9,0,108.2c1.3-0.7,2.4-1.2,3.3-1.9c4-3,8.5-3.9,13.3-2.8c0.8,0.2,1.2,0,1.6-0.7
		c3.7-6,8.7-10.8,14.6-14.6c16.3-10.6,34.2-13.7,53.2-11.6c1.2,0.1,1.7-0.2,2.2-1.2c4.6-8.7,9.2-17.4,13.9-26
		C127.4,93.9,128.1,92.6,129,91z M24.5,160.1c0,2.8,0,5.9,0,9.1c0,4.8,1.9,6.8,6.7,6.8c46.1,0,92.2,0,138.2,0c0.5,0,1,0,1.4,0
		c2.6-0.2,4.9-2,5.1-4.6c0.2-3.9,0.1-7.9,0.1-11.3c-2.7-1.5-5-2.8-7.4-4.1c-0.8-0.5-1.7-0.9-2.6-1.2c-3.6-1.1-6.7-0.1-9.7,2.1
		c-5.5,3.9-12.3,3.9-17.8,0.1c-5.1-3.5-8.6-3.6-13.6,0c-5.5,3.8-12.3,3.8-17.8,0c-5-3.5-8.5-3.5-13.5,0c-5.5,3.8-12.4,3.8-17.8,0
		c-5.1-3.6-8.6-3.5-13.8,0.1c-3.2,2.2-6.8,3.1-10.7,2.6c-3-0.3-5.5-1.7-7.9-3.4c-3.6-2.5-7.8-2.5-11.3-0.4
		C29.8,157.3,27.3,158.5,24.5,160.1z M176,40.2c0.1-0.3,0.1-0.4,0.1-0.5c0-3,0-6,0-9.1c0-4.7-2-6.6-6.7-6.6c-46.1,0-92.2,0-138.3,0
		c-0.5,0-1,0-1.4,0c-2.6,0.1-4.9,1.9-5.1,4.4c-0.3,3.9-0.1,7.8-0.1,11.7C75.1,40.2,125.5,40.2,176,40.2z M109.4,127.7
		c-1-0.1-1.8-0.3-2.6-0.3c-6.8-0.5-13.5-0.3-20.2,0.9c-11.2,2-21.5,6-30.4,13.4c-3.6,2.9-6.6,6.3-9.1,10.5c0.6,0.4,1,0.7,1.5,1
		c3.8,1.9,7.4,1.5,10.9-1c5.8-4.2,12.8-4.3,18.5-0.3c4.8,3.3,8.6,3.3,13.4,0c5.5-3.9,12.4-3.9,17.9,0c4.9,3.4,8.6,3.4,13.5,0
		c3.9-2.7,8.2-3.6,12.7-2.3c2.2,0.6,4.2,1.8,6.2,3.1c3.8,2.5,9,2.4,11.9-0.6c-1.7-2.1-3.3-4.4-5.2-6.5c-8.8-9.3-20-14.1-32.3-16.6
		c-0.4-0.1-1.2,0.4-1.4,0.8c-1.2,2.1-2.4,4.4-3.5,6.6c-1,1.8-2.4,2.3-3.9,1.6c-1.4-0.8-1.8-2.3-0.9-4.1
		C107.3,131.6,108.3,129.8,109.4,127.7z M140.3,92.6c3.3-7.7,5.8-15.2,3.6-23.8c-8.5,3-13.4,9.4-17.9,16.5
		C132,85.4,136.5,87.9,140.3,92.6z M150.1,72.7c0.5,8.2-1.9,15.5-5.3,22.8c5.7,0.2,10.2,2.6,13.9,6.8
		C162,91.2,157.4,78.6,150.1,72.7z M121.2,82c2.4-3.1,4.5-6.3,7.2-9c2.6-2.7,5.7-5,8.6-7.4c-10.8-2.9-22.8,2.1-28.2,9.4
		C113.9,75.7,118.2,78,121.2,82z"/>
	<path class="st1" d="M73.1,71.2c0.9,2.4,1.6,4.4,2.5,6.4c0.1,0.3,0.7,0.7,1.1,0.7c1.5,0.1,3,0,4.4,0c1.7,0,2.9,1.2,2.9,2.7
		c0,1.5-1.2,2.7-2.9,2.7c-1.8,0.1-3.6,0-5.3,0c-0.4,1.3-0.7,2.4-1.2,3.4c-0.4,1.1-1,2.1-1.7,3.5c1.1,1,2.3,2.2,3.5,3.3
		c1.5,1.5,1.6,3.1,0.4,4.3c-1.2,1.1-2.7,1-4.2-0.5c-1.1-1.1-2.3-2.2-3.4-3.3c0,0-0.1,0,0.1,0c-2.2,0.8-4.2,1.5-6.2,2.4
		c-0.4,0.1-0.7,0.7-0.7,1.1c-0.1,1.4,0,2.9-0.1,4.3c-0.1,1.9-1.1,3.1-2.7,3.1c-1.6,0-2.6-1.1-2.7-3.1c-0.1-1.6,0.5-3.6-0.2-4.8
		c-0.6-1.1-2.7-1.3-4.1-1.9c-0.8-0.3-1.5-0.8-2.6-1.4c-1.1,1.2-2.2,2.5-3.4,3.7c-1.4,1.4-3,1.5-4.2,0.4c-1.2-1.2-1.1-2.7,0.4-4.2
		c1.1-1.1,2.2-2.3,3.3-3.4c0.1-0.1,0.1-0.2,0.1-0.1c-0.9-2.3-1.8-4.4-2.8-6.8c-1.4,0-3.1,0-4.8,0c-2,0-3.2-1.1-3.3-2.7
		c0-1.6,1.2-2.7,3.2-2.7c1.6,0,3.5,0.5,4.7-0.2c1-0.6,1.2-2.6,1.8-4c0.4-0.9,0.9-1.7,1.5-2.8c-1.2-1.1-2.4-2.2-3.6-3.4
		c-1.4-1.4-1.5-3-0.3-4.2c1.2-1.1,2.8-1,4.2,0.4c1.1,1.1,2,2.8,3.3,3.1c1.2,0.3,2.7-1,4.1-1.5c0.9-0.3,1.8-0.6,2.9-0.9
		c0-1.6,0-3.3,0-5c0-2,1-3.2,2.7-3.2c1.6,0,2.7,1.2,2.7,3.2c0,1.6,0,3.3,0,4.8c2.3,1,4.5,1.9,7,2.9c1-1.1,2.1-2.3,3.3-3.5
		c1.3-1.3,2.9-1.4,4.1-0.3c1.2,1.2,1.1,2.8-0.3,4.2C75.4,69.2,74.1,70.3,73.1,71.2z M59.7,91.8c6.1,0,10.9-4.8,10.8-10.9
		c0-5.9-4.9-10.8-10.9-10.8c-5.9,0-10.8,4.9-10.8,10.9C48.9,87,53.7,91.8,59.7,91.8z"/>
	<path class="st2" d="M159.8,34.9c-2.5,0-5.1,0-7.6,0c-2,0-3.1-1-3.1-2.6c0-1.7,1.1-2.8,3.1-2.8c5.1,0,10.2,0,15.3,0
		c1.9,0,3.2,1.2,3.1,2.8c-0.1,1.6-1.3,2.6-3.2,2.6C165,34.9,162.4,34.9,159.8,34.9z"/>
	<path class="st0" d="M34,34.9c-2.7,0-4-0.9-4-2.7c0-1.8,1.3-2.7,4-2.7c0.5,0,1.1,0,1.6,0c1.5,0.2,2.6,1.4,2.5,2.8
		c0,1.4-1.1,2.5-2.7,2.6C34.9,34.9,34.5,34.9,34,34.9z"/>
	<path class="st0" d="M61,34.9c-2.7,0-4-0.9-4-2.7c0-1.8,1.3-2.7,4-2.7c0.5,0,1,0,1.4,0c1.6,0.2,2.7,1.3,2.6,2.8
		c-0.1,1.4-1.1,2.5-2.7,2.6C62,34.9,61.5,34.9,61,34.9z"/>
	<path class="st0" d="M47.6,34.9c-0.5,0-1,0-1.4,0c-1.6-0.1-2.6-1.1-2.6-2.6c0-1.5,1-2.6,2.5-2.7c0.9-0.1,1.8-0.1,2.7,0
		c1.8,0.1,2.9,1.2,2.8,2.7c0,1.6-1.1,2.6-2.9,2.7C48.3,34.9,47.9,34.9,47.6,34.9C47.6,34.9,47.6,34.9,47.6,34.9z"/>
</g>
</svg>
