<?xml version="1.0" encoding="utf-8"?>
<!-- Generator: Adobe Illustrator 24.0.0, SVG Export Plug-In . SVG Version: 6.00 Build 0)  -->
<svg version="1.1" id="Capa_1" xmlns="http://www.w3.org/2000/svg" xmlns:xlink="http://www.w3.org/1999/xlink" x="0px" y="0px"
	 viewBox="0 0 198.4 198.4" style="enable-background:new 0 0 198.4 198.4;" xml:space="preserve">
<style type="text/css">
	.st0{fill:#ACAEAF;}
	.st1{fill:#1C3247;}
	.st2{fill:#FE9900;}
</style>
<g>
	<path class="st0" d="M89.5,160.2c-5.3-0.8-10.4-1.4-15.3-2.4c-3.7-0.8-7.2-2.1-10.7-3.3c-2-0.7-2.9-2.5-2.2-4.3
		c0.7-1.8,2.5-2.6,4.6-1.8c6.5,2.6,13.3,4.2,20.3,4.7c1.1,0.1,2.2,0.1,3.3,0.2c0-4.8,0-9.5,0-14.2c-30.1,0.2-56.4-29.8-47.6-63.4
		C49.2,47.2,79.6,31,107.3,41c15.3,5.5,25.7,16.2,30.9,31.6c5.2,15.4,2.8,30.1-5.8,44c3.2,0,6.1,0,9.1,0c1.9,0,3.7-0.1,5.6,0
		c1.5,0.1,2.1-0.5,2.6-1.7c4.9-11.2,6.6-22.8,5-35c-0.1-0.6-0.1-1.2-0.2-1.8c0-1.7,1.1-3.1,2.7-3.4c1.7-0.3,3.3,0.8,3.6,2.5
		c0.4,2.8,0.8,5.6,0.9,8.4c0.4,10.2-1.3,20-5.1,29.4c-0.1,0.3-0.2,0.6-0.3,0.9c0,0.1,0,0.2,0,0.5c0.6,0,1.1,0,1.7,0
		c5.2,0,10.4,0,15.5,0c5.2,0,8.9,3.6,8.9,8.8c0,15.5,0,31,0,46.5c0,5.2-3.6,8.8-8.9,8.8c-25,0-50,0-75.1,0c-5.3,0-8.9-3.6-8.9-8.9
		C89.5,167.9,89.5,164,89.5,160.2z M96,147.1c0,0.6,0,1.1,0,1.6c0,7.5,0,15,0,22.6c0,2.4,0.5,3,2.9,3c24.6,0,49.3,0,73.9,0
		c2.4,0,3-0.5,3-3c0-7.5,0-15,0-22.6c0-0.5,0-1,0-1.6C149.2,147.1,122.7,147.1,96,147.1z M107.4,76.2c-11.4,0-22.6,0-33.8,0
		c-1.1,8.4-1,21.3,0.2,24.6c11.2,0,22.4,0,33.6,0C108.4,92.5,108.4,84.4,107.4,76.2z M106.2,69.4c-1.1-5.4-2.7-10.6-5.2-15.5
		c-1.6-3-3.4-5.8-6.3-7.8c-2.8-2-5.5-2.1-8.3-0.1c-1.6,1.2-3.1,2.7-4.3,4.4c-3.7,5.1-5.6,10.9-7,16.9c-0.2,0.7-0.2,1.3-0.4,2
		C85.3,69.4,95.7,69.4,106.2,69.4z M175.8,129.7c0-1.2,0-2.2,0-3.2c0-2.9-0.4-3.3-3.3-3.3c-24.4,0-48.8,0-73.2,0
		c-0.5,0-1.1-0.2-1.4,0.1c-0.7,0.4-1.6,1-1.7,1.6c-0.2,1.6-0.1,3.2-0.1,4.8C122.7,129.7,149.1,129.7,175.8,129.7z M66.6,100.9
		c0-8.4,0-16.5,0-24.8c-5.9,0-12,0-18.2,0c-2.3,8-2.4,15.8-0.2,23.7c0.1,0.4,0.6,1,1,1C55,100.9,60.9,100.9,66.6,100.9z M114.3,76.1
		c0,8.3,0,16.5,0,24.8c5.7,0,11.6,0,17.4-0.1c0.4,0,0.9-0.8,1.1-1.3c1.2-4.6,1.8-9.2,1.3-13.9c-0.3-3.2-1-6.4-1.4-9.5
		C126.3,76.1,120.2,76.1,114.3,76.1z M89.5,132.2c0-2.5,0-4.8,0-7.1c0.1-4.7,3.7-8.3,8.5-8.4c1.6,0,3.3,0,4.9,0c0.4,0,1-0.2,1-0.5
		c0.9-2.8,1.7-5.7,2.5-8.6c-10.8,0-21.2,0-32.1,0c1.4,4.3,2.5,8.5,4.3,12.5c1.3,3.1,3.3,5.9,5.2,8.6C85.1,130.4,87,131.7,89.5,132.2
		z M175.8,136.4c-26.6,0-53.2,0-79.7,0c0,1.4,0,2.7,0,4.1c26.6,0,53.1,0,79.7,0C175.8,139,175.8,137.8,175.8,136.4z M75.8,47.4
		c-7.8,1.1-22.6,14.3-24.5,22.1c5.5,0,11.1,0,16.5,0c1.1-3.9,2-7.7,3.4-11.3C72.4,54.4,74.2,50.9,75.8,47.4z M113.2,69.4
		c5.5,0,11,0,16.7,0c-5.5-10.8-13.7-18.1-24.9-22.2c1.6,3.7,3.4,7.2,4.8,10.8C111.2,61.7,112.1,65.5,113.2,69.4z M75.9,129.6
		c-3.9-6.6-6.3-13.8-7.8-21.2c-0.1-0.4-0.9-0.9-1.3-0.9c-3.8-0.1-7.5,0-11.3,0c-1.4,0-2.9,0-4.6,0C56.5,118.3,64.7,125.7,75.9,129.6
		z M130,107.9c-0.1-0.2-0.2-0.3-0.4-0.5c-5.3,0-10.6,0-15.8,0c-0.3,0-0.9,0.3-1,0.6c-0.7,2.8-1.4,5.6-2,8.6c4.3,0,8.4,0,12.5,0
		c0.4,0,0.9-0.2,1.1-0.5C126.3,113.4,128.2,110.6,130,107.9z"/>
	<path class="st0" d="M19.2,88.7c-0.1-35.1,25.3-65,60.1-70.6c17.4-2.8,33.6,0.6,48.6,9.7c1.4,0.8,2.3,1.9,2.1,3.6
		c-0.2,1.4-1.1,2.6-2.5,2.7c-1,0.1-2.3-0.3-3.2-0.8c-7.2-4.3-14.9-7.4-23.3-8.6c-22-3.2-41,2.9-56.7,18.6
		C33.7,53.7,27.8,66.6,26.1,81.4c-1.2,10.5,0.2,20.6,4,30.5c0.2,0.5,0.4,1,0.6,1.5c0.6,1.9-0.1,3.6-1.8,4.3c-1.7,0.7-3.6,0-4.2-2
		c-1.3-3.8-2.8-7.6-3.6-11.5c-1.1-5.1-1.5-10.3-2.2-15.5C18.9,88.7,19,88.7,19.2,88.7z"/>
	<path class="st1" d="M149.9,22.3c0.3-3.8,1.2-5.2,3.3-5.2c2.2,0,3.2,1.4,3.4,5.2c0.7,0,1.5,0,2.2,0c4.5,0.2,8.1,4,7.9,8.5
		c-0.1,1.8-1.3,3.2-3,3.3c-1.7,0.1-3.1-1-3.5-2.8c-0.5-2.4-0.6-2.5-3-2.5c-2.2,0-4.5,0-6.7,0c-2.9,0-4.9,2-4.9,4.6
		c0,2.6,2,4.4,4.8,4.5c2.4,0.1,4.9-0.1,7.3,0.3c5.4,0.9,9.1,5.5,9.1,11c0,5.5-3.6,10-9,11.1c-0.4,0.1-0.9,0.2-1.5,0.3
		c0,2.4,0,5-3.4,5.1c-2.1,0.1-2.9-1.2-3.3-5.2c-0.8,0-1.6,0-2.4,0c-4.5-0.1-8-3.7-8.2-8.2c-0.1-2.2,1.2-3.8,3.1-3.9
		c1.8-0.1,3.2,1.2,3.4,3.4c0.1,1.5,0.8,2.1,2.3,2.1c2.6,0,5.1,0,7.7,0c2.7-0.1,4.6-2,4.7-4.7c0-2.7-1.9-4.7-4.7-4.8
		c-1.7,0-3.4,0-5.1,0c-6.1,0-10.9-4.3-11.5-10.1c-0.5-5.8,3.4-10.9,9.5-12C149.1,22.4,149.4,22.4,149.9,22.3z"/>
	<path class="st2" d="M41.8,131.8c1.4,0.2,2.7,0.2,4,0.5c3.7,0.9,6.2,4.3,6.1,8.1c-0.1,1.9-1.2,3.2-2.9,3.3
		c-1.7,0.2-3.1-0.9-3.5-2.7c-0.6-2.5-0.6-2.5-3.2-2.5c-2.2,0-4.4,0-6.5,0c-2.8,0-4.8,2-4.8,4.5c0,2.6,2,4.5,4.7,4.6
		c2.3,0.1,4.7-0.2,7,0.2c5.5,0.8,9.4,5.3,9.5,10.8c0.1,5.7-3.5,10.2-9.1,11.4c-0.4,0.1-0.8,0.2-1.3,0.3c-0.6,4-1.4,5.3-3.6,5.2
		c-2.1-0.1-3-1.4-3.2-5.2c-0.7,0-1.5,0-2.2,0c-4.5-0.1-8-3.3-8.4-7.8c-0.2-2.4,1-4.1,3-4.3c1.6-0.1,3.6,1.2,3.5,3.5
		c-0.1,1.4,0.8,2.1,2.2,2c2.6,0,5.2,0,7.8,0c2.7-0.1,4.6-2.1,4.6-4.7c0-2.7-1.9-4.6-4.6-4.7c-1.7-0.1-3.5,0-5.2,0
		c-6.1,0-10.9-4.4-11.4-10.2c-0.5-5.8,3.4-10.8,9.4-11.9c0.4-0.1,0.8-0.1,1.2-0.2c0.5-3.9,1.3-5.2,3.5-5.2
		C40.6,126.8,41.4,128,41.8,131.8z"/>
	<path class="st1" d="M117,152.9c4.1,0,8.3,0,12.4,0c2.4,0,3.9,1.2,3.9,3.2c0,2-1.5,3.3-3.9,3.3c-8.4,0-16.8,0-25.1,0
		c-2.4,0-3.9-1.2-3.9-3.2c0-2,1.5-3.3,3.9-3.3C108.5,152.9,112.7,152.9,117,152.9z"/>
</g>
</svg>
