<?xml version="1.0" encoding="utf-8"?>
<!-- Generator: Adobe Illustrator 24.0.0, SVG Export Plug-In . SVG Version: 6.00 Build 0)  -->
<svg version="1.1" id="Capa_1" xmlns="http://www.w3.org/2000/svg" xmlns:xlink="http://www.w3.org/1999/xlink" x="0px" y="0px"
	 viewBox="0 0 200 200" style="enable-background:new 0 0 200 200;" xml:space="preserve">
<style type="text/css">
	.st0{fill:#ACAEAF;}
	.st1{fill:#1C3247;}
	.st2{fill:#FE9900;}
</style>
<g>
	<path class="st0" d="M16.4,46.3c1.2-2.5,3.4-3.2,5.9-3c2.5,0.2,5,0,7.7,0c0-2.3,0-4.3,0-6.4c0-0.9,0-2,0-2.9
		c0.2-2.7,1.8-4.1,4.3-4.3c2.5,0,4.8,0,7.3,0c0.5,0,1.2,0,2,0c0-2.9,0-5.5,0-8.2c0-3.9,1.4-5.5,5.4-5.5c31.4,0,62.8,0,94.3,0
		c3.7,0,5.4,1.6,5.4,5.4c0,29.5,0,58.7,0,88.2c0,0.7,0,1.4,0,2.3c4.5,0.7,8.6,2,12.3,4.1c7,3.9,12,9.6,15,17.1
		c0.9,2.1,0.5,3.6-1.1,4.1c-1.6,0.7-2.9,0-3.7-2.1c-4.1-10-11.4-15.9-22-17.9c-15.5-3-31.2,8.7-33,24.5
		c-1.8,15.9,8.2,29.5,23.9,32.3c15.4,2.7,30.9-8.9,32.7-24.5c0.2-0.9,0.2-1.8,0.4-2.7c0.2-1.6,1.2-2.7,2.7-2.7s2.7,1.2,2.5,2.9
		c-0.2,4.1-1.1,8-2.7,11.8c-0.5,1.1-0.9,2.1-1.4,3.2c5.2,4.5,10.2,9.1,15.2,13.6c2.5,2.1,3.7,4.8,3.7,8c0,3.9-2.3,7.1-6.1,8.6
		c-0.5,0.2-1.1,0.4-1.6,0.7c-1.2,0-2.5,0-3.7,0c-2.9-0.9-5.2-2.9-7.3-4.8c-4.6-4.1-9.3-8.2-13.9-12.5c-0.4,0.2-0.5,0.2-0.7,0.4
		c-14.5,6.8-29.1,4.1-40.3-7.5c-0.4-0.4-0.7-0.7-1.1-0.7c-3.6,0-7.1,0-10.9,0c0,2.9,0,5.4,0,8c0,4.1-1.4,5.5-5.5,5.5
		c-26.6,0-53.2,0-79.8,0c-2.7,0-4.6-0.7-5.7-3.2C16.4,134,16.4,90.1,16.4,46.3z M143.3,21.2c-31.6,0-63,0-94.4,0
		c0,42.5,0,84.8,0,127.3c4.5,0,8.9,0,13.2,0c6.4,0,12-4.6,12.9-11.1c0.4-2.5,0.2-5.2,0.4-7.7c0-2.1,0.9-3,3-3c5.2,0,10.5,0,15.7,0
		c2,0,3,0.9,3,2.5c0,1.6-1.1,2.7-3,2.7c-3.9,0-7.7,0-11.6,0c-0.5,0-1.2,0-2,0c0.5,6.4-1.1,12-5.5,16.6c12.1,0,23.9,0,35.9,0
		c-0.4-5.7,0.5-11.1,2.7-16.6c-2.5,0-4.8,0-7.1,0c-2,0-3-1.1-3-2.7c0-1.6,1.1-2.5,3-2.5c2.9,0,5.7,0,8.4,0c1.1,0,1.8-0.4,2.3-1.2
		c4.5-6.1,10.4-10.4,17.5-12.3c2.7-0.7,5.5-1.1,8.4-1.8C143.3,81.5,143.3,51.3,143.3,21.2z M102.1,167.4c-0.7,0-1.4,0-2.1,0
		c-21.6,0-43.2,0-64.8,0c-3.7,0-5.4-1.6-5.4-5.4c0-3.9,0-7.9,0-12c0-7.7,0-15.4,0-23c0-2,1.1-3,2.7-2.9c1.6,0,2.5,1.1,2.5,2.9
		c0,0.5,0,1.1,0,1.6c0,10.5,0,20.9,0,31.4c0,0.7,0,1.2,0.2,2c26.6,0,53,0,79.4,0c-0.9-2.3-2-4.5-2.7-6.8c-0.4-1.2-0.9-1.6-2.3-1.6
		c-20.7,0-41.6,0-62.3,0c-3.4,0-3.9-0.5-3.9-4.1c0-37.5,0-75,0-112.5c0-0.7,0-1.4,0-2.1c-2.9,0-5.7,0-8.4,0c0,0.9,0,1.8,0,2.5
		c0,25.5,0,51.1,0,76.6c0,0.7,0,1.4-0.2,2.3c-0.2,1.2-1.1,2-2.5,2c-1.4,0-2.3-0.7-2.5-2.1c-0.2-0.7-0.2-1.4-0.2-2.3
		c0-21.1,0-42.1,0-63.2c0-0.5,0.2-1.1,0-1.6c-0.2-0.4-0.5-0.9-0.9-0.9c-2.5,0-4.8,0-7.3,0c0,42.5,0,85,0,127.3c27,0,53.7,0,80.5,0
		C102.1,172.9,102.1,170.2,102.1,167.4z M165.3,172.7c1.1,0.9,2.3,2,3.6,3.2c3.7,3.4,7.5,6.8,11.4,10.2c2.1,1.8,4.8,1.8,6.4-0.2
		c1.6-1.8,1.4-4.6-0.5-6.4c-0.7-0.7-1.4-1.2-2.1-2c-4.3-3.7-8.6-7.5-12.5-11.1C169.4,168.6,167.4,170.8,165.3,172.7z"/>
	<path class="st1" d="M144.4,167.6c-12.1,0-22.1-9.8-22.1-22.1c0-11.8,10-22,21.8-22.1c12.3,0,22.3,9.8,22.5,22
		C166.5,157.6,156.7,167.6,144.4,167.6z M144.4,162.4c9.3,0,17-7.5,17-16.8c0-9.3-7.7-17-17-17c-9.1,0-16.8,7.7-16.8,16.8
		C127.4,154.7,134.9,162.4,144.4,162.4z"/>
	<path class="st2" d="M106.4,62.4c8.6,0,17,0,25.5,0c0-8.4,0-17,0-25.5c-8.4,0-16.8,0-25.5,0c0,1.6,0,3.2,0,5c0,2-1.1,3.2-2.7,3
		c-1.6,0-2.5-1.2-2.5-3c0-2,0-3.7,0-5.7c0-2.9,1.8-4.5,4.5-4.5c8.9,0,18,0,27,0c2.7,0,4.5,1.6,4.5,4.5c0,9.1,0,18,0,27.1
		c0,2.9-1.8,4.5-4.6,4.5c-8.9,0-17.9,0-26.8,0c-2.9,0-4.6-1.8-4.6-4.6c0-2.5,0-5,0-7.7c0-2,0.9-3,2.5-3c1.6,0,2.7,1.1,2.7,3
		C106.6,57.8,106.4,60.1,106.4,62.4z"/>
	<path class="st0" d="M84.1,114.2c-8.4,0-16.8,0-25.2,0c-0.7,0-1.2,0-2-0.2c-1.2-0.2-2-1.1-2.1-2.3c0-1.4,0.7-2.3,2-2.5
		c0.5-0.2,1.2-0.2,2-0.2c16.8,0,33.6,0,50.3,0c0.7,0,1.2,0,2,0.2c1.4,0.4,2,1.2,2,2.7c0,1.2-0.9,2.1-2.1,2.3c-0.5,0.2-1.2,0-2,0
		C100.7,114.2,92.3,114.2,84.1,114.2z"/>
	<path class="st0" d="M78.5,94.5c6.8,0,13.4,0,20.2,0c0.9,0,2,0.4,2.7,0.9c1.4,1.2,0.7,3.6-1.1,4.1c-0.7,0.2-1.4,0.2-2,0.2
		c-13,0-26.2,0-39.3,0c-0.4,0-0.5,0-0.9,0c-2,0-3.2-1.1-3-2.7c0-1.6,1.1-2.5,3-2.5C64.8,94.5,71.6,94.5,78.5,94.5z"/>
	<path class="st0" d="M95.9,85.4c-5.5,0-10.9,0-16.4,0c-0.7,0-1.4,0.2-1.8-0.2c-0.7-0.5-1.6-1.4-2-2.3c-0.4-1.2,0.5-2.1,1.8-2.5
		c0.7-0.2,1.4-0.2,2-0.2c10.9,0,21.8,0,32.8,0c2.9,0,4.1,0.9,4.1,2.7s-1.2,2.5-4.1,2.5C106.9,85.4,101.4,85.4,95.9,85.4z"/>
	<path class="st2" d="M75,63.7c-5.7,0-11.2,0-17,0c-2.1,0-3.4-0.9-3.2-2.7c0-1.6,1.2-2.5,3.2-2.5c11.2,0,22.7,0,33.9,0
		c2,0,3.2,1.1,3.2,2.5c0,1.6-1.2,2.7-3.2,2.7C86.4,63.7,80.7,63.7,75,63.7z"/>
	<path class="st2" d="M75,36c5.7,0,11.2,0,17,0c2.1,0,3.4,0.9,3.4,2.5c0,1.6-1.2,2.7-3.4,2.7c-11.2,0-22.5,0-33.7,0
		c-2.1,0-3.4-1.1-3.2-2.7c0-1.6,1.1-2.5,3.2-2.5C63.7,36,69.4,36,75,36z"/>
	<path class="st2" d="M75.1,52.4c-5.4,0-10.9,0-16.2,0c-0.7,0-1.2,0-2-0.2c-1.2-0.2-2-1.1-2.1-2.3c0-1.4,0.7-2.3,2-2.5
		c0.5-0.2,1.1-0.2,1.8-0.2c10.9,0,21.8,0,32.8,0c0.4,0,0.9,0,1.2,0c1.6,0.2,2.7,1.2,2.7,2.7c0,1.4-1.1,2.5-2.7,2.5c-2.5,0-5,0-7.7,0
		C81.8,52.4,78.4,52.4,75.1,52.4z"/>
	<path class="st0" d="M122.6,99.7c-3.6,0-7.1,0-10.7,0c-0.7,0-1.4,0-2-0.2c-1.2-0.4-1.8-1.2-1.8-2.5c0-1.2,0.7-2.1,2-2.3
		c0.5-0.2,1.1-0.2,1.8-0.2c7.3,0,14.6,0,22.1,0c0.4,0,0.5,0,0.9,0c1.6,0.2,2.7,1.1,2.9,2.5c0,1.4-1.1,2.7-2.9,2.7
		c-2.5,0-5.2,0-7.7,0C125.5,99.7,124.1,99.7,122.6,99.7z"/>
</g>
</svg>
