<?xml version="1.0" encoding="utf-8"?>
<!-- Generator: Adobe Illustrator 24.0.0, SVG Export Plug-In . SVG Version: 6.00 Build 0)  -->
<svg version="1.1" id="Capa_1" xmlns="http://www.w3.org/2000/svg" xmlns:xlink="http://www.w3.org/1999/xlink" x="0px" y="0px"
	 viewBox="0 0 200 200" style="enable-background:new 0 0 200 200;" xml:space="preserve">
<style type="text/css">
	.st0{fill:#FE9900;}
	.st1{fill:#1C3247;}
	.st2{fill:#ACAEAF;}
</style>
<g>
	<path class="st0" d="M133,151.6c-0.2-0.1-0.3-0.2-0.5-0.4c-0.7-0.5-1.1-1.2-0.9-2.1c0.2-0.9,0.8-1.4,1.8-1.6c0.6-0.1,1.2,0,1.8,0
		c3.8,0,7.5,0,11.3,0c0.4,0,0.7,0,1.2,0c0-1.3,0-2.5,0-3.7c0-3.2,0-6.4,0-9.7c0-1.5,0.4-2.3,1.4-2.6c1-0.3,1.7,0,2.6,1.3
		c0,6.2,0,12.5,0,18.7C145.5,151.6,139.3,151.6,133,151.6z"/>
	<path class="st1" d="M151.7,67.2c-0.1,0.2-0.2,0.3-0.4,0.5c-0.5,0.7-1.2,1.1-2.1,0.9c-1-0.2-1.5-0.9-1.6-1.9c-0.1-0.6,0-1.3,0-1.9
		c0-3.7,0-7.4,0-11.1c0-0.4,0-0.7,0-1.2c-0.5,0-0.8,0-1.2,0c-4.1,0-8.1,0-12.2,0c-0.3,0-0.7,0-1,0c-1-0.2-1.7-1-1.7-1.9
		c0-1,0.7-1.8,1.8-2c0.3-0.1,0.7,0,1,0c4.8,0,9.7,0,14.5,0c1.3,0,2.2,0.3,2.9,1.4C151.7,55.6,151.7,61.4,151.7,67.2z"/>
	<path class="st1" d="M50,151.6c-1.1-0.6-1.4-1.6-1.4-2.9c0-4.8,0-9.7,0-14.5c0-0.4,0-0.8,0.1-1.2c0.2-0.9,1-1.6,2-1.6
		c0.9,0,1.7,0.6,1.9,1.5c0.1,0.4,0.1,0.8,0.1,1.2c0,4.1,0,8.1,0,12.2c0,0.4,0,0.7,0,1.2c1.2,0,2.4,0,3.5,0c3.3,0,6.6,0,9.9,0
		c1.5,0,2.3,0.4,2.6,1.4c0.3,1,0,1.7-1.3,2.6C61.6,151.6,55.8,151.6,50,151.6z"/>
	<path class="st2" d="M74,90.8c0.1-4.2,0.2-8,1.5-11.7c2.2-6.1,6.2-10.8,11.8-13.9c9.1-5,18.2-4.7,27.1,0.7c0.2,0.1,0.5,0.3,0.6,0.5
		c0.7,0.7,0.9,1.7,0.4,2.5c-0.5,0.8-1.5,1.2-2.4,0.8c-0.4-0.1-0.7-0.4-1.1-0.6c-8.1-4.7-16.3-4.7-24.1,0.4
		c-5.9,3.8-9.3,9.3-9.6,16.5c-0.1,2.5-0.1,5.1-0.2,7.7c0,0.7,0,1.3,0,2c0,1.4-0.9,2.3-2.1,2.3c-1.1,0-1.9-0.9-2-2.2
		C74,94,74,92.2,74,90.8z"/>
	<path class="st2" d="M82,100c0-3.9,0-7.9,0-11.8c0-2.4,0.4-4.7,1.3-6.9c0.5-1.4,1.6-2,2.7-1.6c1.2,0.4,1.6,1.5,1.1,2.9
		c-0.7,2-1,4-1,6.1c0,7.7,0,15.4,0,23.1c0,6.9,4.5,12.5,11.2,14c0.9,0.2,1.8,0.2,2.7,0.3c1.4,0.1,2.3,1,2.2,2.1
		c-0.1,1.2-1,1.9-2.4,1.9c-9.3-0.1-17.3-7.8-17.7-17.2C81.9,108.7,82.1,104.3,82,100C82.1,100,82,100,82,100z"/>
	<path class="st2" d="M99.9,138.4c-10.7-0.7-18.8-5.6-23.6-15.5c-1.6-3.3-2.2-6.8-2.3-10.4c0-1.4,0.8-2.3,1.9-2.4
		c1.2,0,2,0.8,2.1,2.2c0.1,4.4,1.2,8.5,3.8,12.1c3.8,5.4,8.9,8.6,15.4,9.6c5.3,0.8,10.3-0.4,14.8-3.2c0.2-0.1,0.4-0.3,0.6-0.4
		c1.1-0.5,2.2-0.3,2.8,0.6c0.6,1,0.4,2.1-0.7,2.8c-3.4,2.3-7.1,3.7-11.2,4.2C102.3,138.2,101.2,138.3,99.9,138.4z"/>
	<path class="st2" d="M100.7,146.4c-13.2-0.3-23.4-5.9-30.3-17.3c-0.7-1.2-1.3-2.4-1.8-3.7c-0.6-1.3-0.2-2.5,0.9-3
		c1.1-0.5,2.2,0,2.7,1.3c1.7,4,4,7.5,7.2,10.4c7.1,6.5,15.4,9.2,24.9,7.8c2.3-0.3,4.6-1.2,6.9-1.8c0.2-0.1,0.4-0.1,0.6-0.2
		c1.3-0.4,2.4,0.1,2.7,1.2c0.4,1.1-0.2,2.1-1.4,2.6C109.2,145.4,105,146.3,100.7,146.4z"/>
	<path class="st2" d="M118.3,96.2c0,3.1,0,6.2,0,9.4c0,0.7-0.4,1.5-0.8,2c-1,0.9-2.6,0.4-3-0.9c-0.1-0.4-0.2-0.9-0.2-1.4
		c0-5.8,0-11.6,0-17.3c0-6.8-4.5-12.3-11.1-13.8c-2.5-0.6-5-0.4-7.4,0.4c-0.4,0.1-0.8,0.3-1.2,0.4c-1.1,0.3-2.1-0.2-2.4-1.3
		c-0.3-0.9,0.1-2,1.1-2.4c1-0.4,2.1-0.8,3.2-1.1c10.9-2.4,21.5,5.7,21.9,16.9C118.4,90.1,118.3,93.2,118.3,96.2
		C118.3,96.2,118.3,96.2,118.3,96.2z"/>
	<path class="st2" d="M130.4,91.7c0.1-4.5-0.3-9.5-2-14.4c-2.6-7.4-7.5-12.8-14.4-16.3c-0.6-0.3-1.3-0.6-1.9-0.9
		c-1.2-0.6-1.6-1.7-1.1-2.7c0.5-1,1.7-1.5,2.8-0.9c2.4,1.3,5,2.5,7.2,4.2c8.3,6.2,12.5,14.7,13.2,24.9c0.3,4.2,0.2,8.5,0.2,12.7
		c0,1.3-0.8,2.2-2,2.2c-1.2,0-2-0.8-2-2.2C130.4,96.2,130.4,94.3,130.4,91.7z"/>
	<path class="st2" d="M65.9,90.6c-0.2-5,0.4-10,2.2-14.7c3.5-9,9.7-15.5,18.5-19.4c1.2-0.5,2.3-0.2,2.8,0.9c0.5,1.1,0.1,2.2-1.2,2.8
		c-3.2,1.4-6.1,3.3-8.6,5.7c-5.5,5.2-8.7,11.5-9.4,18.9c-0.3,3.4-0.2,6.8-0.2,10.3c0,0.3,0,0.7,0,1c-0.1,1.2-0.9,2-2,2
		c-1.1,0-1.9-0.8-2-2c-0.1-1.2,0-2.3,0-3.5C65.9,91.8,65.9,91.2,65.9,90.6z"/>
	<path class="st2" d="M90.1,96.5c0-3-0.1-5.9,0-8.9C90.2,81.5,96,76.9,102,78c4.4,0.8,7.7,4.5,8.2,9c0,0.2,0,0.5,0,0.7
		c0,1.2-0.8,2.1-1.9,2.2c-1.1,0.1-1.9-0.8-2.2-2c-0.3-1.2-0.6-2.5-1.2-3.6c-1.4-2.1-4.1-3-6.5-2.3c-2.5,0.7-4.2,2.9-4.4,5.6
		c-0.1,1.4,0,2.9,0,4.3c0,4.4,0,8.9,0,13.3c0,0.3,0,0.7,0,1c-0.2,1-1,1.7-1.9,1.7c-1,0-1.9-0.7-2-1.8c-0.1-0.6,0-1.2,0-1.8
		C90.1,101.8,90.1,99.2,90.1,96.5C90.1,96.5,90.1,96.5,90.1,96.5z"/>
	<path class="st2" d="M126.4,102.5c0,3.2,0,6.3,0,9.5c0,5.2-1.4,9.9-4.2,14.3c-0.5,0.7-1,1.3-1.9,1.3c-1.6,0.1-2.5-1.6-1.7-3.1
		c0.6-1.2,1.3-2.3,1.9-3.4c1.4-2.9,1.9-6.1,1.9-9.3c0-6.6,0-13.3,0-19.9c0-0.3,0-0.6,0-0.9c0.1-1.2,0.9-2,2-2c1.1,0,1.9,0.8,2,2
		c0.1,1.3,0,2.7,0,4C126.4,97.5,126.4,100,126.4,102.5z"/>
	<path class="st2" d="M110.1,106.5c0,2.4,0.2,4.9,0,7.3c-0.5,4.3-4.2,7.7-8.7,8.2c-4.2,0.5-8.6-2-10.3-5.9c-0.5-1.2-0.2-2.2,0.8-2.8
		c1-0.5,2.1-0.2,2.7,0.9c0.9,1.7,2.1,3,4.1,3.5c3.9,1,7.6-1.8,7.6-5.8c0-3.7,0-7.5,0-11.2c0-0.3,0-0.6,0-0.9c0.1-1.2,0.9-2,2-2
		c1.1,0,2,0.9,2,2.1c0,2.1,0,4.3,0,6.4C110.2,106.5,110.1,106.5,110.1,106.5z"/>
	<path class="st0" d="M52.6,52.4c0,4.5,0,8.9,0,13.3c0,0.4,0,0.8-0.1,1.2c-0.2,0.9-1,1.6-1.9,1.6c-0.9,0-1.7-0.7-1.9-1.6
		c-0.1-0.4-0.1-0.7-0.1-1.1c0-4.9,0-9.8,0-14.7c0-2,0.7-2.7,2.7-2.7c4.9,0,9.8,0,14.7,0c0.3,0,0.6,0,0.9,0c1.1,0.2,1.8,1,1.8,2
		c0,1-0.7,1.8-1.8,2c-0.6,0.1-1.1,0-1.7,0C61.1,52.4,56.9,52.4,52.6,52.4z"/>
	<path class="st2" d="M134.4,111.7c-0.1,10.6-4,19.4-12,26.4c-0.4,0.3-0.8,0.6-1.3,0.8c-0.9,0.2-1.7-0.1-2.2-0.9
		c-0.5-0.9-0.4-1.7,0.3-2.4c1.3-1.4,2.8-2.7,4-4.1c3.6-4.2,5.9-9.2,6.7-14.7c0.3-2.2,0.3-4.5,0.4-6.7c0-0.4,0-0.8,0-1.2
		c0.2-1,1-1.8,2-1.8c1,0,1.8,0.8,2,1.8c0,0.1,0,0.2,0,0.3C134.4,110,134.4,110.9,134.4,111.7z"/>
	<path class="st2" d="M102.2,100.1c0,3.8,0,7.7,0,11.5c0,0.6-0.2,1.3-0.5,1.8c-0.9,1.2-2.8,0.9-3.3-0.6c-0.1-0.4-0.2-0.9-0.2-1.4
		c0-7.6,0-15.2,0-22.8c0-0.2,0-0.5,0-0.7c0.1-1.2,0.9-2,2-2c1.1,0,1.9,0.8,2,2c0.1,1.1,0,2.3,0,3.4
		C102.2,94.3,102.2,97.2,102.2,100.1z"/>
	<path class="st2" d="M125.8,83c0,1-0.6,1.8-1.6,2c-0.8,0.2-1.7-0.3-2.2-1.1c0-0.1-0.1-0.2-0.1-0.3c-0.7-3-1.9-5.7-3.5-8.3
		c-0.6-1-0.2-2.1,0.7-2.6c0.9-0.5,2-0.4,2.6,0.5c2,2.9,3.3,6,4,9.5C125.8,82.8,125.8,82.9,125.8,83z"/>
	<path class="st2" d="M118.2,115.5c-0.7,1.8-1.3,3.6-2.2,5.3c-0.7,1.3-1.7,2.5-2.7,3.7c-0.8,1-2,1.2-2.9,0.4c-0.9-0.7-1.1-2-0.2-2.9
		c1.9-2.1,3.2-4.5,3.9-7.3c0.3-1.1,1.2-1.6,2.2-1.5C117.3,113.5,117.9,114.4,118.2,115.5z"/>
	<path class="st2" d="M69.9,108.1c0,1.2,0,2.5,0,3.7c0,1.4-0.9,2.3-2,2.3c-1.2,0-2-0.9-2-2.3c0-2.5,0-5,0-7.5c0-1.4,0.8-2.3,2-2.3
		c1.2,0,2,0.9,2,2.3C70,105.6,69.9,106.8,69.9,108.1z"/>
	<path class="st2" d="M100.2,57.7c-0.9,0.1-1.9,0.1-2.8,0.2c-1.5,0.1-2.4-0.7-2.5-1.9c-0.1-1.2,0.8-2.1,2.3-2.1c2,0,4.1,0,6.1,0
		c1.4,0,2.2,0.9,2.2,2.1c0,1.2-1,1.9-2.4,1.9c-0.5,0-1-0.1-1.5-0.1C101.1,57.7,100.6,57.7,100.2,57.7
		C100.2,57.7,100.2,57.7,100.2,57.7z"/>
	<path class="st2" d="M75.9,106c-1.1,0-2-1-1.9-2.1c0-1.1,1-2,2.1-1.9c1.1,0,2,1,1.9,2.1C77.9,105.2,77,106.1,75.9,106z"/>
</g>
</svg>
