<?xml version="1.0" encoding="utf-8"?>
<!-- Generator: Adobe Illustrator 24.0.0, SVG Export Plug-In . SVG Version: 6.00 Build 0)  -->
<svg version="1.1" id="Capa_1" xmlns="http://www.w3.org/2000/svg" xmlns:xlink="http://www.w3.org/1999/xlink" x="0px" y="0px"
	 viewBox="0 0 200 200" style="enable-background:new 0 0 200 200;" xml:space="preserve">
<style type="text/css">
	.st0{fill:#ACAEAF;}
	.st1{fill:#1C3247;}
	.st2{fill:#FE9900;}
</style>
<g>
	<path class="st0" d="M137.5,188.4c-1.5-0.3-3-0.6-4.5-1c-5.5-1.3-10.3-4-14.3-7.9c-0.9-0.9-1.8-1.2-2.8-1.2c-23.7,0-47.3,0-71,0
		c-9.2,0-16.2-6.1-17.7-15.2c-0.1-1-0.1-2.1-0.1-3.1c0-35.1,0-70.4,0-105.5c0-4.6,1.5-8.6,4.6-12c7.4-8.3,14.9-16.8,22.3-25.1
		c3.4-3.9,7.7-5.8,12.9-5.8c21.4,0,42.7,0,64.1,0c10.6,0,18,7.6,18,18c0,31.1,0,62.3,0,93.4c0,1.5,0.3,2.2,1.9,2.7
		c14.3,4.6,23.2,18.3,21.9,33.9c-1.2,14-12.8,26.2-27.1,28.3c-0.6,0.1-1,0.3-1.6,0.4C141.9,188.4,139.7,188.4,137.5,188.4z
		 M64.1,18.8c0,0.7,0,1.5,0,2.1c0,7.3,0,14.4,0,21.7c0,6.2-3.6,9.8-9.8,9.8c-6.1,0-12.2,0-18.3,0c-0.6,0-1.2,0-1.9,0.1
		c0,0.9,0,1.6,0,2.4c0,35,0,69.9,0,104.7c0,7.6,4.2,11.8,11.8,11.8c21.6,0,43.1,0,64.7,0c0.6,0,1.2,0,1.9,0
		c-5.2-11.2-5.2-22,1.3-32.3c6.5-10.3,16.2-15,28.3-15.2c0-0.6,0.1-1,0.1-1.5c0-30.9,0-62,0-93c0-6.7-4.5-11-11-11
		c-21.4,0-42.7,0-64.1,0C66.1,18.5,65.2,18.7,64.1,18.8z M166,156.1c0-14-11.3-25.1-25.1-25.1c-14,0-25.4,11.5-25.3,25.4
		c0.1,13.8,11.5,25.1,25.3,25C154.7,181.5,166,170.1,166,156.1z M57.1,24.8c-0.1,0-0.3-0.1-0.4-0.1c-6.1,6.8-12.2,13.7-18.6,20.8
		c6,0,11.5,0,17,0c1.3,0,1.9-0.9,1.9-2.1C57.1,37.1,57.1,31,57.1,24.8z"/>
	<path class="st1" d="M89.1,71.3c-8.6,0-17.3,0-25.9,0c-0.7,0-1.3,0-2.1-0.1c-1.6-0.3-2.8-1.6-2.8-3.3c0-1.5,0.9-2.8,2.5-3.3
		c0.6-0.1,1.3-0.3,2.1-0.3c17.6,0,35.1,0,52.7,0c0.4,0,1,0,1.5,0.1c1.9,0.4,3,1.8,2.8,3.7c-0.1,1.8-1.5,3-3.4,3.1
		c-3,0.1-5.8,0-8.8,0C101.6,71.5,95.4,71.3,89.1,71.3z"/>
	<path class="st1" d="M89.4,89.9c8.9,0,17.7,0,26.6,0c2.5,0,4,1.3,4,3.4c0,1.6-0.9,2.7-2.4,3.1c-0.7,0.1-1.6,0.3-2.4,0.3
		c-17.3,0-34.7,0-51.9,0c-3.1,0-4.8-1.2-4.8-3.4s1.5-3.4,4.8-3.4C71.9,89.9,80.6,89.9,89.4,89.9z"/>
	<path class="st0" d="M96.1,122.2c-6.4,0-12.8,0-19.2,0c-0.6,0-1.3,0-1.9-0.1c-1.6-0.3-2.8-1.6-2.8-3.3c0-1.5,0.9-3,2.5-3.3
		c0.7-0.1,1.6-0.3,2.4-0.3c12.6,0,25.3,0,37.9,0c0.6,0,1.2,0,1.8,0.1c2.1,0.3,3.3,1.6,3.1,3.6c-0.1,1.8-1.5,3-3.4,3.1
		c-0.7,0-1.5,0-2.2,0C108.2,122.2,102.2,122.2,96.1,122.2z"/>
	<path class="st0" d="M81.5,140.8c6.1,0,12.3,0,18.4,0c0.6,0,1.3,0,1.9,0.1c1.6,0.3,2.8,1.6,2.8,3.3c0,1.5-0.9,2.8-2.5,3.3
		c-0.7,0.1-1.5,0.3-2.2,0.3c-12.3,0-24.5,0-36.9,0c-0.7,0-1.5,0-2.2-0.3c-1.5-0.4-2.5-1.8-2.5-3.3c0-1.6,1.2-3,2.8-3.3
		c0.6-0.1,1.2-0.1,1.9-0.1C69.3,140.8,75.4,140.8,81.5,140.8z"/>
	<path class="st0" d="M61.9,115.3c1.8,0,3.4,1.6,3.4,3.4c0,1.8-1.6,3.4-3.4,3.3c-1.9,0-3.4-1.5-3.4-3.4
		C58.5,116.8,60,115.3,61.9,115.3z"/>
	<path class="st2" d="M145.6,156.4c2.1,1.9,4,3.9,6,5.8c0.4,0.4,0.9,0.9,1.3,1.3c1.2,1.5,1,3.4-0.3,4.6c-1.2,1.2-3.1,1.3-4.6,0
		c-1.5-1.2-2.7-2.7-4-4c-1-1-2.1-2.2-3.1-3.4c-2.4,2.4-4.6,4.6-6.8,6.8c-1.2,1.2-2.7,1.8-4.3,1c-2.2-1-2.5-3.7-0.7-5.7
		c1.8-1.9,3.7-3.7,5.7-5.7c0.4-0.4,0.7-0.9,1.3-1.5c-1.9-1.9-3.9-3.7-5.8-5.5c-0.4-0.4-0.9-0.9-1.3-1.3c-1.3-1.6-1.3-3.6,0-4.9
		c1.3-1.3,3.3-1.3,4.8,0.1c1.9,1.8,3.7,3.7,5.7,5.7c0.4,0.4,0.7,1,1.2,1.6c2.5-2.5,4.6-4.8,6.8-6.8c0.9-0.7,2.1-1.5,3.1-1.5
		c1,0.1,2.2,1,2.8,1.9c0.9,1.3,0.3,2.8-0.7,3.9c-1.8,1.9-3.7,3.7-5.7,5.7C146.5,155.4,146.2,155.8,145.6,156.4z"/>
</g>
</svg>
