<?xml version="1.0" encoding="utf-8"?>
<!-- Generator: Adobe Illustrator 24.0.0, SVG Export Plug-In . SVG Version: 6.00 Build 0)  -->
<svg version="1.1" id="Capa_1" xmlns="http://www.w3.org/2000/svg" xmlns:xlink="http://www.w3.org/1999/xlink" x="0px" y="0px"
	 viewBox="0 0 198.4 198.4" style="enable-background:new 0 0 198.4 198.4;" xml:space="preserve">
<style type="text/css">
	.st0{fill:#ACAEAF;}
	.st1{fill:#FE9900;}
	.st2{fill:#1C3247;}
</style>
<g>
	<path class="st0" d="M42.8,185.7c-0.1-0.1-0.3-0.2-0.4-0.3c-4.5-1.5-6.6-4.4-6.6-9.2c0-23.2,0-46.4,0-69.7c0-22.3,0-44.5,0-66.8
		c0-3.4,1-6.1,3.4-8.4c5.2-5,10.2-10.1,15.3-15.3c2.1-2.2,4.6-3.2,7.7-3.2c30.3,0,60.6,0,90.9,0c5.9,0,9.5,3.6,9.5,9.5
		c0,51.3,0,102.6,0,153.8c0,4.9-2.5,8-7,9.5C117.9,185.7,80.4,185.7,42.8,185.7z M41.6,38.8c0,0.7-0.1,1.2-0.1,1.7
		c0,45.1,0,90.3,0,135.4c0,3,1,3.9,3.9,3.9c35.8,0,71.5,0,107.3,0c3.1,0,4-0.9,4-4c0-51.1,0-102.1,0-153.2c0-3.1-0.9-4.1-4-4.1
		c-29.7,0-59.5,0-89.2,0c-0.6,0-1.2,0-1.8,0c0,3.8,0,7.2,0,10.7c0,5.9-3.5,9.5-9.4,9.5C48.8,38.8,45.3,38.8,41.6,38.8z M46,33.1
		c2.5,0,4.8,0.1,7.2,0c1.3,0,2.5-0.7,2.6-2c0.2-2.6,0.1-5.3,0.1-7.8C52.6,26.5,49.4,29.7,46,33.1z"/>
	<path class="st1" d="M53.1,65c-0.3-9.3,7.4-17.3,17-17.6c9.2-0.3,17.2,7.3,17.6,16.7C88,73.6,80.4,81.7,70.8,82
		C61.3,82.3,53.4,74.8,53.1,65z M58.9,64.6c-0.1,6.3,5,11.5,11.4,11.6c6.3,0.1,11.5-5.1,11.7-11.4c0.1-6.3-5-11.5-11.3-11.7
		C64.2,53.1,58.9,58.2,58.9,64.6z"/>
	<path class="st0" d="M53.1,108.2c-0.4-9.3,7.3-17.3,17-17.6c9.2-0.3,17.2,7.3,17.6,16.6c0.4,9.5-7.2,17.6-16.8,17.9
		C61.3,125.5,53.5,118,53.1,108.2z M58.9,107.7c-0.1,6.3,4.9,11.6,11.2,11.7c6.2,0.2,11.6-4.9,11.8-11.2c0.2-6.3-5-11.7-11.4-11.8
		C64.2,96.3,59,101.3,58.9,107.7z"/>
	<path class="st0" d="M53.1,151.4c-0.3-9.3,7.4-17.3,17-17.5c9.2-0.2,17.2,7.4,17.5,16.7c0.3,9.5-7.3,17.6-16.8,17.9
		C61.3,168.6,53.4,161.1,53.1,151.4z M58.9,150.9c-0.1,6.3,5,11.6,11.3,11.7c6.3,0.1,11.6-5,11.7-11.3c0.2-6.3-5-11.7-11.4-11.7
		C64.1,139.5,59,144.6,58.9,150.9z"/>
	<path class="st2" d="M112.1,50.3c5.1,0,10.1,0,15.2,0c2.2,0,3.6,1.2,3.5,2.9c-0.1,1.7-1.4,2.8-3.5,2.8c-10.2,0-20.3,0-30.5,0
		c-2.1,0-3.4-1.1-3.4-2.9c0-1.8,1.3-2.9,3.4-2.9C101.9,50.3,107,50.3,112.1,50.3z"/>
	<path class="st2" d="M126.5,67.6c-5.1,0-10.1,0-15.2,0c-2.2,0-3.4-1-3.5-2.8c0-1.9,1.2-2.9,3.5-2.9c10.1,0,20.2,0,30.4,0
		c2.2,0,3.4,1.1,3.5,2.8c0,1.8-1.3,2.9-3.5,2.9C136.6,67.6,131.5,67.6,126.5,67.6z"/>
	<path class="st0" d="M112.2,93.5c5.1,0,10.1,0,15.2,0c2.1,0,3.5,1.1,3.5,2.8c0,1.8-1.3,2.9-3.5,2.9c-10.1,0-20.2,0-30.3,0
		c-2.3,0-3.6-1.1-3.6-2.9c0-1.8,1.3-2.8,3.6-2.8C102.1,93.5,107.1,93.5,112.2,93.5z"/>
	<path class="st0" d="M126.5,110.8c-5.1,0-10.1,0-15.2,0c-2.3,0-3.5-1.1-3.5-2.9c0-1.8,1.3-2.8,3.5-2.8c10.1,0,20.2,0,30.4,0
		c2.2,0,3.6,1.1,3.5,2.9c0,1.8-1.3,2.8-3.5,2.8C136.7,110.8,131.6,110.8,126.5,110.8z"/>
	<path class="st0" d="M112,136.7c5.1,0,10.1,0,15.2,0c2.3,0,3.6,1.1,3.6,2.8c0,1.8-1.4,2.9-3.6,2.9c-10.1,0-20.2,0-30.3,0
		c-2.3,0-3.6-1.1-3.5-2.9c0-1.8,1.3-2.8,3.5-2.8C101.9,136.7,107,136.7,112,136.7z"/>
	<path class="st0" d="M126.5,154c-5.1,0-10.1,0-15.2,0c-2.2,0-3.4-1-3.5-2.8c0-1.9,1.2-2.9,3.5-2.9c10.1,0,20.2,0,30.4,0
		c2.2,0,3.4,1.1,3.5,2.8c0,1.8-1.3,2.9-3.5,2.9C136.6,154,131.5,154,126.5,154z"/>
	<path class="st2" d="M107.8,79.1c-3.7,0-7.3,0-11,0c-2.2,0-3.4-1.1-3.4-2.9c0-1.8,1.3-2.9,3.4-2.9c7.3,0,14.6,0,21.9,0
		c2.1,0,3.4,1.1,3.4,2.9c0,1.8-1.2,2.8-3.4,2.8C115.1,79.1,111.4,79.1,107.8,79.1z"/>
	<path class="st0" d="M107.6,122.3c-3.6,0-7.2,0-10.8,0c-2.2,0-3.4-1-3.4-2.8c0-1.8,1.3-2.9,3.4-2.9c7.3,0,14.6,0,21.9,0
		c2.2,0,3.4,1.1,3.4,2.9c0,1.8-1.2,2.9-3.4,2.9C115.1,122.3,111.4,122.3,107.6,122.3z"/>
	<path class="st0" d="M107.8,165.5c-3.7,0-7.3,0-11,0c-2.2,0-3.4-1.1-3.4-2.9c0-1.7,1.3-2.9,3.5-2.9c7.3,0,14.6,0,21.9,0
		c2.1,0,3.4,1.1,3.4,2.9c0,1.8-1.2,2.8-3.4,2.8C115.1,165.5,111.4,165.5,107.8,165.5z"/>
	<path class="st2" d="M141,50.3c0.4,0,0.8,0,1.2,0c1.8,0.1,2.9,1.2,3,2.8c0.1,1.7-1.1,2.9-3,3c-0.9,0-1.8,0-2.7,0
		c-1.7-0.1-2.9-1.3-2.9-2.9c0-1.6,1.2-2.8,2.9-2.9C140,50.3,140.5,50.3,141,50.3z"/>
	<path class="st2" d="M97.7,67.6c-0.5,0-1,0-1.5,0c-1.6-0.1-2.8-1.3-2.8-2.8c0-1.5,1.1-2.8,2.7-2.9c0.9-0.1,1.9-0.1,2.9,0
		c1.8,0.1,3,1.3,3,2.9c0,1.7-1.2,2.7-3.1,2.8C98.5,67.6,98.1,67.6,97.7,67.6C97.7,67.6,97.7,67.6,97.7,67.6z"/>
	<path class="st0" d="M140.9,99.3c-2.9,0-4.3-0.9-4.3-2.9c0-2,1.3-2.9,4.2-2.9c0.5,0,1,0,1.5,0c1.7,0.1,2.8,1.2,2.8,2.8
		c0.1,1.6-1.1,2.8-2.8,3C141.9,99.3,141.4,99.3,140.9,99.3z"/>
	<path class="st0" d="M97.6,110.8c-0.4,0-0.8,0-1.2,0c-1.8-0.1-2.9-1.2-3-2.8c-0.1-1.6,1.2-2.9,3-3c0.8,0,1.7,0,2.5,0
		c1.9,0.1,3.1,1.2,3.1,2.9c0,1.7-1.2,2.8-3.1,2.9C98.5,110.8,98,110.8,97.6,110.8z"/>
	<path class="st0" d="M140.9,142.4c-0.6,0-1.1,0.1-1.7,0c-1.6-0.2-2.7-1.5-2.6-3c0.1-1.5,1.2-2.6,2.7-2.7c0.9-0.1,1.9,0,2.9,0
		c1.8,0.1,3.1,1.2,3,2.9c0,1.6-1.2,2.7-2.9,2.8C141.8,142.5,141.4,142.5,140.9,142.4C140.9,142.5,140.9,142.4,140.9,142.4z"/>
	<path class="st0" d="M97.7,154c-2.9,0-4.3-0.9-4.2-2.9c0-2,1.4-2.9,4.3-2.9c0.5,0,1,0,1.5,0c1.7,0.1,2.9,1.3,2.8,3
		c0,1.5-1.2,2.7-2.8,2.8C98.7,154,98.2,154,97.7,154z"/>
	<path class="st1" d="M68.1,63.4c0.5-0.4,1.1-0.8,1.5-1.3c0.5-0.5,0.8-1.2,1.2-1.8c1-1.4,2.7-1.7,4-0.9c1.3,0.9,1.7,2.5,0.8,4
		c-1.1,1.9-2.3,3.7-3.5,5.6c-0.1,0.1-0.2,0.3-0.3,0.4c-1.1,1.3-2.6,1.4-4.1,0.4c-2.9-2-3.8-3.6-2.7-5.2c0.6-0.8,1.6-1.3,2.5-1.9
		C67.7,63,67.9,63.2,68.1,63.4z"/>
	<path class="st0" d="M76.3,104.6c-0.3,0.9-0.3,1.4-0.5,1.7c-1.3,2.1-2.6,4.2-4,6.2c-1,1.4-2.6,1.4-4,0.5c-2.8-1.9-3.8-3.6-2.7-5.2
		c0.5-0.7,1.7-1.4,2.6-1.4c1.2,0,1.7-0.4,2.2-1.3c0.4-0.7,0.8-1.7,1.4-2c0.9-0.5,2.2-0.9,3-0.6C75.1,102.8,75.7,104,76.3,104.6z"/>
</g>
</svg>
