<?xml version="1.0" encoding="utf-8"?>
<!-- Generator: Adobe Illustrator 24.0.0, SVG Export Plug-In . SVG Version: 6.00 Build 0)  -->
<svg version="1.1" id="Capa_1" xmlns="http://www.w3.org/2000/svg" xmlns:xlink="http://www.w3.org/1999/xlink" x="0px" y="0px"
	 viewBox="0 0 200 200" style="enable-background:new 0 0 200 200;" xml:space="preserve">
<style type="text/css">
	.st0{fill:#FE9900;}
	.st1{fill:#ACAEAF;}
	.st2{fill:#1C3247;}
</style>
<g>
	<path class="st0" d="M133,180.2c-0.2-1.2-1-2.3-1.6-3.5c0.1-0.1,0.6-0.3,1-0.5c29.3-12.4,50.2-41.5,50.5-75.2c0-2.7-1-4.2-3.1-4.3
		c-2-0.1-3.3,1.4-3.4,4.1c0,0.7,0,1.3-0.1,2c-0.5,4.4-0.6,8.8-1.6,13c-6,26.2-21.6,44.3-46.1,54.9c-0.5,0.2-1,0.3-1.7,0.6
		c0.3-0.5,0.5-0.8,0.6-1.1c1.3-2.1,1-3.9-0.6-5c-1.7-1.1-3.5-0.6-4.9,1.5c-1.7,2.6-3.5,5.2-5.2,7.9c-1.9,3-1.1,5.1,2.3,6
		c3.2,0.8,6.5,1.7,9.7,2.6c0.6,0,1.3,0,1.9,0C132,182.5,133.3,181.7,133,180.2z"/>
	<path class="st0" d="M69.5,23.1c-0.2,0.1-0.4,0.2-0.6,0.3C41,35.9,24,57.1,18.7,87.4c-0.7,4-0.7,8.2-1,12.3c-0.1,2,1.2,3.4,3,3.5
		c1.9,0.1,3.2-1.2,3.4-3.3c0.1-0.8,0-1.6,0.1-2.4c0.3-3.1,0.3-6.3,0.9-9.4c4.5-25.7,18.6-44.4,41.6-56.4c2.2-1.1,4.5-2,7.1-3.2
		c-0.4,0.7-0.5,0.9-0.6,1.2c-1.3,2.2-1.2,4,0.5,5.1c1.7,1.1,3.5,0.5,5-1.7c1.7-2.6,3.4-5.2,5.1-7.7c1.9-3,1.1-5.1-2.4-6
		c-3.2-0.8-6.5-1.7-9.7-2.6c-0.6,0-1.3,0-1.9,0C66.9,18.8,66.8,20.7,69.5,23.1z"/>
	<path class="st0" d="M177.2,69c-1.8-3.5-3.4-7.1-5.4-10.5c-2.4-4-5.2-7.7-7.9-11.5c-1.1-1.5-3.1-1.7-4.5-0.6
		c-1.5,1.1-1.7,3-0.6,4.6c0.4,0.6,0.9,1.1,1.3,1.7c4.6,5.8,8.2,12.2,11,19.1c0.2,0.4,0.3,0.9,0.5,1.5c-0.4-0.2-0.6-0.3-0.8-0.4
		c-2.3-1.4-4.1-1.3-5.3,0.5c-1.1,1.7-0.5,3.5,1.7,5c2.6,1.7,5.2,3.4,7.7,5.1c3,1.9,5.1,1.1,6-2.4c0.8-3.2,1.7-6.5,2.6-9.7
		c0-0.7,0-1.3,0-2C181.4,66.5,179.5,66.4,177.2,69z"/>
	<path class="st1" d="M153.6,85.7c-2,0-4,0-5.9,0c-1.3-3-2.5-6-3.7-9c0,0,0.1-0.1,0.1-0.2c1.2-1.2,2.4-2.5,3.7-3.7
		c2-2.1,2.1-3.7,0.1-5.7c-4.9-4.9-9.8-9.8-14.7-14.7c-1.9-1.9-3.6-1.9-5.5,0c-1.4,1.4-2.7,2.8-3.9,4c-3.2-1.3-6.2-2.6-9.1-3.8
		c0-2,0-3.9,0-5.9c0-2.3-1.3-3.6-3.5-3.6c-7.2,0-14.4,0-21.6,0c-2.3,0-3.5,1.3-3.5,3.5c0,2,0,4,0,5.9c-3,1.3-6,2.5-9.1,3.8
		c-1.2-1.2-2.4-2.6-3.7-3.9c-2-2.1-3.7-2.1-5.7-0.1c-4.9,4.9-9.8,9.8-14.7,14.7c-1.9,1.9-1.9,3.6,0,5.5c1.4,1.4,2.8,2.7,4,3.9
		c-1.3,3.2-2.6,6.2-3.8,9.1c-2,0-3.9,0-5.9,0c-2.3,0-3.6,1.3-3.6,3.5c0,7.2,0,14.4,0,21.6c0,2.3,1.3,3.5,3.5,3.5c2,0,4,0,5.9,0
		c1.3,3,2.5,6,3.8,9.2c-1.2,1.2-2.6,2.5-4,3.8c-1.9,1.9-1.9,3.6-0.1,5.5c4.9,5,9.9,9.9,14.8,14.8c1.9,1.9,3.6,1.9,5.5,0
		c1.4-1.4,2.7-2.8,3.9-4c3.2,1.3,6.2,2.6,9.1,3.8c0,2,0,3.9,0,5.9c0,2.3,1.2,3.6,3.5,3.6c7.2,0,14.4,0,21.6,0c2.3,0,3.5-1.3,3.5-3.5
		c0-2,0-4,0-5.9c3-1.3,6-2.5,9.2-3.8c1.2,1.2,2.5,2.6,3.8,4c1.9,1.9,3.6,1.9,5.5,0.1c5-4.9,9.9-9.9,14.8-14.8c1.9-1.9,1.9-3.6,0-5.5
		c-1.4-1.4-2.8-2.7-4-3.9c1.3-3.2,2.6-6.2,3.8-9.1c1,0,2,0,2.9,0c1,0,1.9,0,2.9,0c2.3,0,3.6-1.3,3.6-3.5c0-7.2,0-14.4,0-21.6
		C157.2,86.9,155.9,85.7,153.6,85.7z M150.6,107.8c-1.6,0-3.2,0-4.8,0c-2.5,0-3.3,0.8-4.1,3.1c-1.4,3.6-2.9,7.2-4.5,10.8
		c-0.9,2.1-1,3.2,0.6,4.8c1.1,1.1,2.4,2.2,3.5,3.3c-3.8,3.8-7.5,7.4-11.4,11.2c-0.9-1-2-2.3-3.2-3.4c-1.5-1.5-2.7-1.5-4.7-0.6
		c-3.6,1.6-7.2,3.1-10.9,4.5c-2.2,0.8-3,1.7-3,4c0,1.6,0,3.1,0,4.8c-5.2,0-10.3,0-15.6,0c0-1.6,0-3.3,0-4.9c0-2.2-0.8-3.1-2.9-3.9
		c-3.7-1.4-7.4-3-11-4.6c-1.9-0.8-3.1-0.8-4.6,0.7c-1.2,1.2-2.3,2.4-3.4,3.6c-3.8-3.8-7.4-7.5-11.4-11.5c1-0.9,2.2-1.8,3.4-3
		c1.8-1.7,1.8-2.9,0.7-5.1c-1.6-3.4-3-6.9-4.3-10.5c-0.9-2.5-1.7-3.3-4.3-3.3c-1.5,0-3,0-4.6,0c0-5.2,0-10.3,0-15.7c1.7,0,3.3,0,5,0
		c2.2,0,3-0.8,3.8-2.8c1.5-3.8,3-7.5,4.7-11.2c0.8-1.8,0.7-3-0.6-4.4c-0.6-0.6-1.2-1.3-1.8-1.8c-0.6-0.6-1.3-1.1-1.9-1.6
		c3.9-3.9,7.5-7.5,11.5-11.5c1,1.1,2,2.4,3.2,3.6c1.6,1.6,2.8,1.6,4.8,0.7c3.5-1.6,7.1-3.1,10.7-4.5c2.3-0.9,3.1-1.7,3.1-4.1
		c0-1.6,0-3.1,0-4.8c5.3,0,10.4,0,15.6,0c0,1.6,0,3.2,0,4.7c0,2.5,0.8,3.3,3,4.1c3.7,1.4,7.3,2.9,10.9,4.5c1.9,0.9,3.2,0.9,4.7-0.7
		c1.2-1.2,2.3-2.5,3.3-3.6c3.9,3.9,7.6,7.5,11.5,11.4c-1.2,1.1-2.5,2.2-3.7,3.4c-1.5,1.5-1.6,2.7-0.7,4.7c1.6,3.6,3.1,7.2,4.5,10.9
		c0.9,2.3,1.7,3,4.1,3c1.5,0,2.9,0,4.4,0c0.1,0,0.2,0.1,0.4,0.2C150.6,97.4,150.6,102.5,150.6,107.8z"/>
	<path class="st0" d="M100.2,176.3c-0.6-0.1-1.2,0-1.8-0.1c-4.7-0.5-9.4-0.7-14-1.7c-22.8-5.1-39.8-18.1-51.1-38.5
		c-1.6-2.9-2.9-6-4.3-9c0.8,0,1.2,0.3,1.7,0.6c1.6,0.9,3.5,0.6,4.5-0.9c1-1.5,0.7-3.4-0.8-4.5c-3.1-2.2-6.3-4.2-9.5-6.2
		c-1.9-1.2-4.1-0.3-4.7,1.8c-1.1,3.7-2,7.4-2.9,11.2c-0.4,1.5,0.4,2.8,1.8,3.5c1.4,0.7,2.7,0.3,3.8-0.8c0.2-0.3,0.4-0.6,0.7-0.9
		c0.2,0.4,0.4,0.8,0.5,1.1c10.2,23.1,27.1,38.9,51.1,47c8,2.7,16.3,3.9,24.7,3.9c2.2,0,3.6-1.2,3.7-3.1
		C103.7,177.8,102.3,176.5,100.2,176.3z"/>
	<path class="st0" d="M99.5,23.5c0.8,0.2,1.6,0.2,2.4,0.2c8.1,0.1,16,1.5,23.6,4.3c4,1.5,7.8,3.4,11.7,5.2c1.5,0.7,3,0.5,4-0.6
		c1-1,1.2-2.7,0.4-3.9c-0.5-0.7-1.2-1.2-2-1.6c-11.3-6.1-23.3-9.4-36.1-10c-1.1,0-2.2,0-3.2,0c-0.2,0-0.4,0-0.6,0.1
		c-1.5,0.3-2.6,1.6-2.6,3.1C97.1,21.9,98,23.2,99.5,23.5z"/>
	<path class="st0" d="M150.8,42c1.8,0.1,3.4-1.4,3.4-3.2c0-1.7-1.4-3.2-3.2-3.2c-1.8,0-3.2,1.3-3.3,3.1
		C147.7,40.4,149,41.9,150.8,42z"/>
	<path class="st2" d="M128.1,99.9c0-4.4,0-8.9,0-13.3c0-1.8-0.6-3.1-2.2-4c-7.7-4.4-15.5-8.9-23.2-13.4c-1.7-1-3.1-1-4.8,0
		c-7.6,4.5-15.2,8.9-22.9,13.2c-1.8,1-2.5,2.3-2.5,4.3c0.1,8.8,0.1,17.6,0,26.4c0,2.1,0.8,3.4,2.6,4.4c7.6,4.3,15.2,8.7,22.8,13.2
		c1.8,1,3.2,1,5,0c7.6-4.5,15.2-8.9,22.9-13.2c1.7-1,2.4-2.3,2.4-4.2c0-2.2,0-4.4,0-6.7C128.1,104.4,128.1,102.2,128.1,99.9z
		 M97.1,122.6c-0.5-0.2-0.9-0.4-1.2-0.6c-5.2-3-10.4-6-15.6-9c-0.5-0.3-1.2-1.1-1.2-1.6c-0.1-6.3-0.1-12.7,0-19
		c0-0.2,0.1-0.4,0.1-0.8c1.2,0.7,2.3,1.3,3.4,2c4.4,2.6,8.9,5.1,13.3,7.7c0.5,0.3,1.1,1,1.1,1.5C97.1,109.3,97.1,115.9,97.1,122.6z
		 M101.6,95.5c-0.9,0.5-1.6,0.6-2.5,0c-5.5-3.2-11-6.4-16.8-9.7c5.9-3.4,11.6-6.7,17.4-10c0.3-0.2,1-0.2,1.3,0
		c5.7,3.3,11.4,6.6,17.3,10c-0.5,0.3-0.9,0.6-1.2,0.8C111.9,89.6,106.7,92.5,101.6,95.5z M121.6,111c0,0.6-0.4,1.5-0.9,1.8
		c-5.4,3.2-10.9,6.4-16.4,9.5c-0.1,0.1-0.3,0.1-0.6,0.2c0-0.4-0.1-0.7-0.1-1.1c0-6.1,0-12.2,0-18.4c0-0.6,0.4-1.4,0.8-1.7
		c5.4-3.2,10.9-6.4,16.4-9.5c0.2-0.1,0.4-0.1,0.7-0.3c0,0.5,0.1,0.9,0.1,1.3C121.6,99,121.7,105,121.6,111z"/>
	<path class="st1" d="M128.1,99.9c0,2.2,0,4.4,0,6.7C128.1,104.4,128.1,102.2,128.1,99.9c0-4.4,0-8.9,0-13.3
		C128.1,91,128.1,95.5,128.1,99.9z"/>
</g>
</svg>
