<?xml version="1.0" encoding="utf-8"?>
<!-- Generator: Adobe Illustrator 24.0.0, SVG Export Plug-In . SVG Version: 6.00 Build 0)  -->
<svg version="1.1" id="Capa_1" xmlns="http://www.w3.org/2000/svg" xmlns:xlink="http://www.w3.org/1999/xlink" x="0px" y="0px"
	 viewBox="0 0 226.8 226.8" style="enable-background:new 0 0 226.8 226.8;" xml:space="preserve">
<style type="text/css">
	.st0{fill:#ACAEAF;}
	.st1{fill:#FE9900;}
</style>
<g>
	<path class="st0" d="M211.2,149.9c0,1.3,0,2.5,0,3.8c-1.9,5.4-5.9,7-11.5,7c-33-0.1-66-0.1-98.9-0.1c-25.2,0-50.4,0-75.6,0
		c-5.6,0-9.5-3.6-9.6-8.7c0-5.2,4-8.9,9.6-8.9c1.7,0,3.4,0,5.1,0c0.1-0.4,0.2-0.5,0.2-0.7c0-10.7,0-21.4,0-32.1
		c0-0.6-0.7-1.3-1.3-1.7c-3-1.7-4.7-4.2-4.8-7.7c-0.1-3.6,1.4-6.3,4.6-7.9c1.3-0.6,1.5-1.3,1.5-2.6c0-17.3,0-34.6,0-52
		c0-0.6-0.1-1.2-0.1-1.9c-2.7-0.1-5.2-0.1-7.7-0.4c-4-0.6-6.9-4.1-7.1-8.1c-0.2-3.9,2.3-7.6,6.1-8.7c1.5-0.4,3.1-0.5,4.7-0.5
		c58,0,116,0,174,0c0.9,0,1.8,0,2.7,0.1c3.6,0.3,6,2.2,7.5,5.4c0.2,0.5,0.5,1,0.7,1.5c0,1.1,0,2.3,0,3.4c-1.9,6.3-6.7,7.7-12.6,7.2
		c0,1.2,0,2.1,0,3c0,2.1,0.1,4.2-0.1,6.3c-0.1,1.7-1.3,2.7-2.9,2.7c-1.5,0-2.6-1.1-2.8-2.8c-0.1-0.8,0-1.5,0-2.3c0-2.3,0-4.5,0-6.8
		c-10,0-19.6,0-29.3,0c0,0.4,0,0.7,0,1c1.9,11.2,4.5,22.3,8.6,32.9c2.8,7.2,6.1,14.1,10.9,20.2c0.4,0.5,0.9,1.1,1.4,1.1
		c2.8,0.1,5.5,0.1,8.4,0.1c0-1,0-1.7,0-2.3c0-9.7,0-19.3,0-29c0-0.6,0-1.2,0-1.7c0.2-1.6,1.2-2.6,2.8-2.6c1.5,0,2.5,0.9,2.8,2.3
		c0.1,0.7,0.1,1.4,0.1,2.1c0,10,0,20,0,30c0,1.1,0.3,1.8,1.4,2.3c3.2,1.6,4.9,4.4,4.8,8c-0.1,4.1-2.4,6.7-6,8.2
		c0,11.3,0,22.5,0,33.9c1.2,0,2.2,0,3.3,0c3,0,5.5,1,7.3,3.4C210,147.5,210.5,148.7,211.2,149.9z M166.2,94.8
		c-0.9-0.6-1.6-1.2-2.4-1.8c-6.8-5-12.6-10.9-17.6-17.6c-8.3-11-14.3-23.3-18.3-36.5c-0.6-2.1-1.5-2.7-3.7-2.6
		c-6.9,0.2-13.8,0.1-20.6,0c-1.3,0-1.9,0.3-2.3,1.6c-2.6,8.9-6.3,17.5-10.8,25.6C84,75.1,75.7,85.2,64.9,93.2
		c-0.7,0.6-1.5,1.1-2.3,1.8c1.9,2.5,2.5,5.2,1.7,8.1c-0.8,2.9-2.8,4.7-4.9,5.7c2.5,5.7,5.2,11.1,7.1,16.7c1.8,5.6,2.8,11.6,4.2,17.5
		c29.2,0,58.6,0,88.2,0c1.1-12.2,4.7-23.5,11.2-33.9C164.9,106.6,162.2,101.1,166.2,94.8z M36.3,91.7c8.4,0.9,9.4,0.5,13.5-6.5
		c0.2-0.3,0.3-0.5,0.5-0.8c6.1-10.6,9.9-22.1,12.6-34c1.1-4.6,1.9-9.2,2.9-13.9c-10,0-19.7,0-29.5,0C36.3,54.9,36.3,73.2,36.3,91.7z
		 M113.3,154.9c29,0,58.1,0,87.1,0c0.8,0,1.5,0,2.3-0.1c1.6-0.2,2.5-1.2,2.7-2.8c0.1-1.6-0.7-2.7-2.3-3.1c-0.8-0.2-1.8-0.2-2.7-0.2
		c-58.1,0-116.1,0-174.2,0c-0.6,0-1.1,0-1.7,0c-1.9,0.1-3.2,1.4-3.3,3.1c0,1.7,1.3,2.9,3.2,3.1c0.6,0,1.3,0,1.9,0
		C55.4,154.9,84.4,154.9,113.3,154.9z M113.4,24.4c-29,0-57.9,0-86.9,0c-0.8,0-1.7,0-2.5,0.1c-1.6,0.2-2.5,1.2-2.6,2.8
		c-0.1,1.6,0.7,2.7,2.3,3.1c0.7,0.2,1.4,0.2,2.1,0.2c58.4,0,116.9,0,175.3,0c0.8,0,1.5-0.1,2.3-0.3c1.5-0.4,2.2-1.6,2.1-3
		c-0.1-1.5-0.9-2.5-2.5-2.7c-0.8-0.1-1.6-0.1-2.5-0.1C171.4,24.4,142.4,24.4,113.4,24.4z M71.5,36.5c-3.3,19.5-8.2,38.3-19.3,55.7
		c2.2-0.3,4-0.3,5.4-0.9c1.7-0.7,3.1-2,4.6-3.1C76.1,77.5,85.3,63.5,92,47.5c1.5-3.6,2.7-7.2,4.1-11.1
		C87.7,36.5,79.6,36.5,71.5,36.5z M176.5,91.6c-10.9-16.9-15.7-35.8-19-55.1c-8.2,0-16.2,0-24.3,0c0.1,0.5,0.2,0.8,0.3,1.1
		c2.7,8.9,6.5,17.4,11.3,25.4c6.4,10.7,14.4,19.8,24.6,27C171.5,91.6,173.7,92.2,176.5,91.6z M192.8,109.4c-1.6,0-3.1,0.1-4.5,0
		c-1.3-0.1-1.8,0.4-2.1,1.6c-1.4,6-3.1,12-4.3,18.1c-0.9,4.5-1.2,9.1-1.7,13.7c4.5,0,8.6,0,12.6,0
		C192.8,131.7,192.8,120.7,192.8,109.4z M48.8,142.9c-0.3-3.1-0.4-6-0.8-8.9c-1-8-2.5-15.8-5.3-23.4c-0.2-0.5-0.7-1.1-1.1-1.2
		c-1.7-0.1-3.5-0.1-5.3-0.1c0,11.3,0,22.4,0,33.5C40.4,142.9,44.5,142.9,48.8,142.9z M48.5,109.7c3.6,10.8,5.3,21.9,6,33.2
		c3.5,0,6.7,0,9.9,0c-1.1-11.2-4.5-21.4-10.3-30.9C52.7,109.7,51.2,108.9,48.5,109.7z M180.5,109.6c-0.1-0.2-0.2-0.4-0.3-0.5
		c-1.4,0.4-3.3,0.4-4,1.3c-6.9,9.7-10.4,20.7-11.6,32.6c3.3,0,6.5,0,9.9,0C175.2,131.5,176.9,120.4,180.5,109.6z M184.2,103.7
		C184.2,103.7,184.2,103.7,184.2,103.7c3.7,0,7.5,0,11.2,0c2.3,0,3.6-1.2,3.5-3.1c-0.1-1.8-1.3-3-3.5-3c-7.3,0-14.6,0-21.9,0
		c-2.2,0-3.6,1.2-3.6,3.1c0,1.9,1.3,3.1,3.6,3.1C177.1,103.7,180.7,103.7,184.2,103.7z M44.5,103.7c3.7,0,7.4,0,11,0
		c2.1,0,3.4-1.2,3.5-3c0.1-1.8-1.3-3.1-3.3-3.1c-7.4,0-14.7-0.1-22.1,0c-2.3,0-3.6,1.2-3.6,3.1c0,1.9,1.3,3,3.6,3
		C37.3,103.7,40.9,103.7,44.5,103.7z"/>
	<path class="st1" d="M211.2,202.2c-0.4,0.9-0.7,1.7-1.2,2.6c-1.5,2.6-3.7,4.1-6.8,4.4c-0.9,0.1-1.9,0.1-2.9,0.1
		c-46.6,0-93.2,0-139.8,0c-0.8,0-1.5,0-2.3-0.1c-1.6-0.2-2.6-1.1-2.6-2.7c0-1.7,0.9-2.6,2.5-2.8c0.8-0.1,1.6-0.1,2.5-0.1
		c46.5,0,93.1,0,139.6,0c0.9,0,1.8,0,2.7-0.1c1.5-0.2,2.4-1.3,2.5-2.7c0.1-1.5-0.6-2.6-2.1-3c-0.7-0.2-1.5-0.3-2.3-0.3
		c-58.5,0-116.9,0-175.4,0c-0.7,0-1.4,0-2.1,0.2c-1.6,0.4-2.4,1.5-2.3,3.1c0.1,1.6,1,2.6,2.6,2.8c0.7,0.1,1.4,0.1,2.1,0.1
		c5.8,0,11.6,0,17.4,0c0.8,0,1.9-0.1,2.4,0.3c0.8,0.7,1.9,1.8,1.8,2.7c0,0.9-1.3,1.8-2,2.6c-0.2,0.2-0.6,0.1-0.9,0.1
		c-7,0-14,0.1-21-0.1c-3.7-0.1-6.2-2.2-7.5-5.5c-1.3-3.3-0.6-6.4,1.7-9.1c1.9-2.2,4.5-2.9,7.4-2.9c4.2,0,8.4,0,12.8,0
		c0-2.6,0-5,0-7.5c0-2.2,0-4.3,0-6.5c0.1-5.7,3.5-9.4,9.2-9.6c4.7-0.2,9.4-0.2,14.1,0c5.7,0.2,9.1,3.9,9.1,9.6c0,4.6,0,9.1,0,13.9
		c2.6,0,5,0,7.7,0c0-3.9,0.2-7.8,0-11.6c-0.5-8.3,3.8-12.4,11.9-11.9c3.6,0.2,7.1,0,10.7,0c6.2,0.1,9.8,3.7,9.9,9.9
		c0,4.5,0,9,0,13.6c2.6,0,5,0,7.7,0c0-4.6,0-9.2,0-13.8c0-2.3,0.5-4.4,1.9-6.3c1.9-2.4,4.5-3.5,7.5-3.5c4.5,0,9-0.1,13.6,0
		c5.9,0.1,9.4,3.8,9.4,9.7c0,4.6,0,9.1,0,13.8c2.6,0,5,0,7.7,0c0-0.6,0-1.2,0-1.8c0-4,0-8,0-12c0-5.8,3.5-9.5,9.3-9.7
		c4.6-0.1,9.3-0.1,13.9,0c5.7,0.2,9.2,3.9,9.2,9.6c0,4.6,0,9.2,0,14c1.5,0,3,0,4.4,0c2.1,0,4.2,0,6.3,0c5,0,8.1,2.6,9.6,7.2
		C211.2,199.9,211.2,201.1,211.2,202.2z M64.8,191.5c0-4.9,0.1-9.7,0-14.5c0-2-1.2-3.2-3.3-3.3c-4.8-0.1-9.5-0.1-14.3,0
		c-2,0-3.3,1.2-3.3,3c-0.1,4.9,0,9.8,0,14.7C50.9,191.5,57.7,191.5,64.8,191.5z M104.9,191.5c0-4.9,0.1-9.7,0-14.5
		c0-1.9-1.1-3.2-3.1-3.3c-5-0.1-9.9-0.1-14.9,0c-1.7,0-2.9,1.2-2.9,3c-0.1,4.9,0,9.8,0,14.7C91,191.5,97.8,191.5,104.9,191.5z
		 M145.1,191.5c0-4.1,0-8.2,0-12.3c0-4.9-0.6-5.6-5.7-5.6c-2.9,0-5.9,0-8.8,0c-6.3,0-6.5,0.3-6.5,6.6c0,3.7,0,7.5,0,11.2
		C131.2,191.5,138,191.5,145.1,191.5z M185.2,191.5c0-4.9,0.1-9.7,0-14.5c0-1.9-1.1-3.2-3.1-3.3c-5-0.1-9.9-0.1-14.9,0
		c-1.7,0-2.9,1.2-2.9,3c-0.1,4.9,0,9.8,0,14.7C171.2,191.5,178.1,191.5,185.2,191.5z"/>
</g>
</svg>
