<?xml version="1.0" encoding="utf-8"?>
<!-- Generator: Adobe Illustrator 24.0.0, SVG Export Plug-In . SVG Version: 6.00 Build 0)  -->
<svg version="1.1" id="Capa_1" xmlns="http://www.w3.org/2000/svg" xmlns:xlink="http://www.w3.org/1999/xlink" x="0px" y="0px"
	 viewBox="0 0 198.4 198.4" style="enable-background:new 0 0 198.4 198.4;" xml:space="preserve">
<style type="text/css">
	.st0{fill:#ACAEAF;}
	.st1{fill:#FE9900;}
	.st2{fill:#1C3247;}
</style>
<path class="st0" d="M41.9,178.1c-0.2-0.1-0.4-0.2-0.6-0.3c-4.7-1.4-7.4-4.8-7.4-9.7c0-6.7,0-13.4,0-20.2c0-35.3,0-70.7,0-106
	c0-1.3,0.1-2.7,0.4-4c1.1-4.2,4.8-7,9.3-7c7.4,0,14.7,0,22.1,0c0.6,0,1.2,0,1.9,0c0-2,0-4,0-5.9c0-2.2,0.9-3.1,3.1-3.2
	c3.8,0,7.6,0,11.5,0c1,0,1.5-0.2,2-1.2c2.7-5.2,7.1-7.9,12.9-7.9c5.8,0,10.1,2.8,12.8,7.9c0.5,0.9,1,1.2,2,1.2c3.8-0.1,7.6,0,11.5,0
	c2.2,0,3.1,0.9,3.1,3.2c0,1.9,0,3.8,0,5.9c0.6,0,1.2,0,1.8,0c7.3,0,14.5,0,21.8,0c6.2,0,10.2,4,10.2,10.2c0,42.3,0,84.5,0,126.8
	c0,5.2-2.2,8-8,10.1C115.5,178.1,78.7,178.1,41.9,178.1z M67.8,36.1c-7.8,0-15.4,0-23,0c-4.1,0-5.6,1.5-5.6,5.7
	c0,41.8,0,83.7,0,125.5c0,4.1,1.5,5.6,5.7,5.6c34.9,0,69.7,0,104.6,0c4.2,0,5.8-1.5,5.8-5.7c0-9.1,0-18.2,0-27.3
	c0-32.8,0-65.5,0-98.3c0-4-1.6-5.6-5.5-5.6c-7.1,0-14.2,0-21.3,0c-0.6,0-1.1,0-1.6,0c-0.1,0.3-0.1,0.4-0.1,0.6c0,1.8,0,3.5,0,5.3
	c0,2.2-0.9,3.2-3.1,3.2c-17.5,0-35.1,0-52.6,0c-2.1,0-3-0.9-3-3.1C67.7,40.1,67.8,38.2,67.8,36.1z M73,39.8c16.2,0,32.2,0,48.2,0
	c0-4.3,0-8.5,0-12.8c-3.8,0-7.4,0-11.1,0c-3.1,0-3.2-0.1-4.3-3c-1.3-3.6-4.8-6.1-8.7-6.1c-3.9,0-7.4,2.4-8.7,6.1c-1,2.9-1.2,3-4.3,3
	c-3.7,0-7.4,0-11.1,0C73,31.4,73,35.6,73,39.8z"/>
<g>
	<path class="st1" d="M136.3,98.2c-0.3,2-0.5,4-1,5.9c-2.3,8.7-7.4,15.2-15.3,19.4c-5.4,2.9-11.1,3.9-17.1,3.3
		c-4.8-0.5-9.2-2-13.2-4.6c-0.5-0.3-1-0.6-1.5-1c-0.2,0.2-0.4,0.3-0.6,0.5c-1.2,1.2-2.3,2.4-3.6,3.5c-0.6,0.6-0.8,1-0.6,1.9
		c0.4,1.4,0.1,2.8-0.9,4c-0.2,0.2-0.3,0.4-0.5,0.6c-4.6,4.6-9.2,9.2-13.8,13.8c-3.6,3.6-9.3,3.2-12.2-0.9c-2.2-3.1-2-7.4,0.6-10.1
		c4.7-4.8,9.5-9.6,14.3-14.4c1.4-1.4,3.1-1.7,5-1.1c0.2,0.1,0.6,0,0.8-0.2c1.5-1.5,3.1-3,4.6-4.6c-0.7-1.1-1.4-2.2-2-3.4
		c-2.9-5.4-4.2-11.2-3.6-17.3c0.8-7.7,4-14.3,9.7-19.5c4.2-3.9,9.1-6.3,14.7-7.4c1.4-0.3,2.8-0.4,4.2-0.6c1.1,0,2.2,0,3.4,0
		c1.4,0.2,2.7,0.3,4.1,0.6c5.7,1.2,10.7,3.7,15,7.7c5.2,4.9,8.2,10.9,9.2,18c0.1,0.8,0.2,1.6,0.3,2.4
		C136.3,96,136.3,97.1,136.3,98.2z M106,69.4c-14.9,0-27.1,12.1-27.2,27.1c-0.1,14.9,12.1,27.2,27.1,27.3
		c14.9,0.1,27.2-12.2,27.2-27.2C133.1,81.6,121,69.5,106,69.4z M62.3,144.9c1.6,0,2.7-0.6,3.7-1.6c4.6-4.6,9.1-9.1,13.7-13.7
		c1-1,0.9-1.8,0-2.8c-1.3-1.3-2.5-2.5-3.8-3.8c-1.3-1.3-1.9-1.3-3.2,0c-4.4,4.4-8.8,8.8-13.2,13.2c-0.3,0.3-0.6,0.6-0.8,0.9
		c-1.2,1.5-1.4,3.2-0.6,5C59,143.9,60.5,144.8,62.3,144.9z M79,121.5c0.7,0.7,1.4,1.4,2.1,2.1c1.4-1.4,2.9-2.9,4.4-4.4
		c-0.7-0.7-1.4-1.4-2.1-2.1C81.9,118.5,80.4,120,79,121.5z"/>
	<path class="st2" d="M106.2,117.4c10.3,0,19.3-8,20.4-18.5C127.8,87.8,120,77.6,109,76c-4.3-0.6-8.5,0-12.4,2
		c-0.2,0.1-0.5,0.2-0.7,0.3c-0.9,0.3-1.7,0-2.1-0.8c-0.4-0.8-0.1-1.7,0.8-2.1c1.2-0.6,2.4-1.2,3.7-1.6c9.5-2.9,17.9-0.9,24.8,6.1
		c5.4,5.4,7.6,12.2,6.5,19.8c-1,7.6-4.9,13.4-11.4,17.3c-4.2,2.6-8.9,3.7-13.8,3.4c-6.5-0.4-12-3-16.3-7.9
		c-4.6-5.1-6.6-11.2-6.1-18.1c0.2-3.2,1.2-6.2,2.6-9.1c0.4-0.9,1.1-1.3,1.8-1.1c1.1,0.2,1.6,1.3,1.1,2.4c-0.5,1.3-1.3,2.6-1.6,4
		c-2.2,8.2-0.2,15.4,6,21.3C95.9,115.6,100.6,117.2,106.2,117.4z"/>
	<path class="st2" d="M91.7,80.8c0,0.8-0.8,1.6-1.6,1.6c-0.8,0-1.6-0.8-1.6-1.6c0-0.8,0.8-1.6,1.6-1.5C91,79.2,91.7,80,91.7,80.8z"
		/>
</g>
</svg>
