<?xml version="1.0" encoding="utf-8"?>
<!-- Generator: Adobe Illustrator 24.0.0, SVG Export Plug-In . SVG Version: 6.00 Build 0)  -->
<svg version="1.1" id="Capa_1" xmlns="http://www.w3.org/2000/svg" xmlns:xlink="http://www.w3.org/1999/xlink" x="0px" y="0px"
	 viewBox="0 0 80 80" style="enable-background:new 0 0 80 80;" xml:space="preserve">
<style type="text/css">
	.st0{fill:#ACAEAF;}
	.st1{fill:#FE9900;}
	.st2{fill:#1C3247;}
</style>
<g>
	<path class="st0" d="M6.61,37.52c4.12-5.1,8.24-10.21,12.37-15.31c0.73-0.9,1.24-0.98,2.23-0.35c2.02,1.28,4.03,2.59,6.08,3.84
		c0.61,0.38,1.29,0.68,1.99,0.89c1.99,0.59,3.99,1.11,5.99,1.63c0.31,0.08,0.69,0.08,1-0.01c2.1-0.58,4.19-1.2,6.29-1.79
		c0.41-0.11,0.85-0.18,1.27-0.18c2.77-0.02,5.53,0,8.3-0.02c0.36,0,0.77-0.12,1.08-0.31c2.14-1.33,4.27-2.7,6.4-4.06
		c0.98-0.62,1.52-0.53,2.22,0.37c3.57,4.64,7.14,9.28,10.71,13.92c0.71,0.92,0.64,1.51-0.25,2.28c-1.9,1.64-3.8,3.27-5.69,4.91
		c-0.24,0.2-0.44,0.47-0.58,0.76c-1.28,2.64-2.54,5.29-3.79,7.95c-0.1,0.21-0.13,0.55-0.03,0.75c1.51,3.19-0.34,6.45-3.88,6.79
		c-0.06,0.01-0.12,0.03-0.18,0.05c-0.3,3.06-2.28,4.5-4.72,4.67c-0.06,1.23-0.45,2.35-1.34,3.25c-0.89,0.9-1.99,1.34-3.3,1.38
		c-0.15,2.02-1.04,3.58-2.96,4.33c-1.93,0.75-3.64,0.24-5.17-1.21c-1.33,1.54-2.92,2.42-4.98,1.92c-2.05-0.49-3.17-1.88-3.57-3.94
		c-0.42-0.02-0.85-0.02-1.27-0.07c-2.15-0.27-3.75-1.89-3.99-4.05c-0.04-0.34-0.05-0.58-0.52-0.64c-2.55-0.29-4.19-2.2-4.15-4.76
		c0-0.15,0-0.29,0-0.46c-0.36-0.09-0.69-0.15-1.02-0.27c-2.89-0.99-4.01-4.52-2.2-7.02c0.29-0.4,0.26-0.63-0.02-0.99
		c-1.71-2.28-3.39-4.59-5.12-6.85c-0.4-0.52-0.93-0.96-1.43-1.39c-1.66-1.45-3.34-2.87-5.01-4.32c-0.27-0.23-0.5-0.52-0.74-0.78
		C6.61,38.12,6.61,37.82,6.61,37.52z M38.96,63.3c0.03,0.03,0.06,0.07,0.1,0.08c2.79,0.45,4.59,3.53,3.39,6.37
		c-0.05,0.13-0.03,0.4,0.05,0.45c0.47,0.28,0.94,0.63,1.46,0.74c0.79,0.16,1.56-0.33,1.92-1.03c0.38-0.74,0.29-1.64-0.32-2.29
		c-0.83-0.88-1.69-1.73-2.54-2.59c-0.15-0.15-0.31-0.3-0.46-0.46c-0.62-0.66-0.67-1.4-0.13-1.96c0.53-0.54,1.33-0.51,1.95,0.11
		c0.97,0.96,1.92,1.93,2.87,2.9c0.56,0.57,1.22,0.81,2,0.62c1.56-0.39,2.01-2.22,0.84-3.44c-1.64-1.69-3.31-3.35-4.97-5.02
		c-0.24-0.25-0.5-0.48-0.71-0.76c-0.39-0.51-0.33-1.22,0.09-1.66c0.45-0.46,1.18-0.53,1.71-0.14c0.17,0.13,0.32,0.29,0.47,0.44
		c1.72,1.73,3.44,3.47,5.15,5.21c0.58,0.59,1.26,0.92,2.1,0.69c1.56-0.42,1.99-2.24,0.8-3.44c-2.56-2.6-5.14-5.19-7.7-7.79
		c-0.26-0.26-0.53-0.51-0.75-0.8c-0.42-0.54-0.34-1.24,0.14-1.7c0.44-0.43,1.15-0.48,1.66-0.1c0.21,0.15,0.38,0.35,0.57,0.53
		c2.61,2.64,5.22,5.29,7.84,7.92c0.97,0.98,2.2,1.04,3.04,0.19c0.83-0.84,0.76-2.04-0.19-2.99c-4.98-4.98-9.96-9.96-14.95-14.93
		c-0.22-0.22-0.58-0.37-0.89-0.4c-1.55-0.14-3.1-0.21-4.65-0.35c-0.45-0.04-0.69,0.05-0.92,0.46c-0.96,1.76-1.95,3.51-2.96,5.24
		c-1.07,1.84-3.12,2.7-5.09,2.2c-3-0.76-4.4-4.03-2.87-6.78c1.49-2.7,3.04-5.37,4.56-8.06c0.13-0.22,0.24-0.45,0.4-0.74
		c-1.22-0.33-2.38-0.66-3.55-0.94c-0.17-0.04-0.47,0.15-0.6,0.31c-3.74,4.53-7.46,9.07-11.19,13.61c-0.17,0.21-0.34,0.43-0.51,0.65
		c1.69,2.28,3.35,4.51,5.01,6.75c1.44-1.14,2.97-1.47,4.63-0.89c1.7,0.59,2.61,1.88,3.01,3.57c3.14-0.39,5.43,1.46,5.65,4.57
		C37.89,57.98,39.38,60.64,38.96,63.3z M60.08,50.41c1.16-2.42,2.28-4.75,3.37-7.1c0.09-0.19-0.05-0.57-0.2-0.77
		c-3.47-4.44-6.97-8.87-10.44-13.31c-0.24-0.31-0.49-0.41-0.87-0.41c-2.64,0.02-5.27,0-7.91,0.01c-0.34,0-0.69,0.06-1.02,0.15
		c-2.41,0.68-4.79,1.45-7.22,2.05c-1.24,0.3-1.98,0.93-2.56,2.05c-1.22,2.35-2.6,4.63-3.9,6.94c-0.54,0.97-0.41,1.94,0.32,2.6
		c0.97,0.89,2.43,0.62,3.13-0.6c1.16-2.02,2.31-4.05,3.44-6.09c0.37-0.66,0.87-0.96,1.63-0.9c2.15,0.17,4.31,0.31,6.46,0.44
		c0.65,0.04,1.13,0.3,1.58,0.76c4.53,4.55,9.07,9.08,13.61,13.62C59.67,50.03,59.84,50.18,60.08,50.41z M25.74,27.83
		c-1.78-1.13-3.5-2.23-5.26-3.34c-3.61,4.47-7.18,8.9-10.77,13.34c1.55,1.33,3.05,2.62,4.59,3.94
		C18.12,37.11,21.9,32.51,25.74,27.83z M65.32,40.96c1.56-1.34,3.06-2.63,4.58-3.95c-3.23-4.19-6.42-8.34-9.63-12.51
		c-1.78,1.13-3.5,2.23-5.26,3.35C58.47,32.24,61.87,36.56,65.32,40.96z M26.94,62.71c0.19-0.08,0.65-0.14,0.93-0.39
		c1.19-1.12,2.38-2.26,3.48-3.48c0.69-0.76,0.54-1.95-0.18-2.65c-0.72-0.7-1.9-0.76-2.65-0.06c-1.13,1.06-2.23,2.17-3.3,3.3
		c-0.57,0.6-0.63,1.37-0.29,2.12C25.27,62.31,25.9,62.68,26.94,62.71z M34.23,60.32c-0.23,0.11-0.72,0.2-1.03,0.49
		c-1.15,1.07-2.27,2.19-3.35,3.33c-0.69,0.74-0.6,1.95,0.09,2.65c0.72,0.73,1.88,0.86,2.64,0.16c1.17-1.08,2.3-2.22,3.39-3.39
		c0.55-0.6,0.61-1.37,0.24-2.12C35.85,60.72,35.24,60.38,34.23,60.32z M40.21,67.62c-0.01-0.51-0.35-1.12-1.07-1.48
		c-0.75-0.38-1.49-0.31-2.11,0.22c-0.68,0.59-1.33,1.23-1.92,1.92c-0.56,0.65-0.59,1.43-0.19,2.18c0.39,0.73,1.04,1.07,1.87,1.03
		C37.99,71.42,40.2,69.12,40.21,67.62z M26.19,53.67c-0.01-0.62-0.36-1.24-1.08-1.59c-0.74-0.36-1.49-0.32-2.12,0.23
		c-0.68,0.59-1.33,1.23-1.92,1.92c-0.54,0.62-0.58,1.38-0.22,2.12c0.36,0.73,0.98,1.08,1.77,1.09
		C23.87,57.45,26.18,55.1,26.19,53.67z"/>
	<path class="st1" d="M57.19,13.51c-0.28,0.47-0.42,0.84-0.67,1.11c-2.87,2.9-5.76,5.78-8.65,8.66c-0.64,0.64-1.4,0.67-1.95,0.12
		c-0.56-0.56-0.54-1.3,0.1-1.95c2.88-2.89,5.77-5.77,8.65-8.66c0.46-0.46,1.01-0.7,1.57-0.36C56.63,12.66,56.87,13.12,57.19,13.51z"
		/>
	<path class="st1" d="M23.8,12.12c0.46,0.26,0.82,0.39,1.07,0.63c2.93,2.9,5.85,5.82,8.75,8.74c0.61,0.61,0.61,1.36,0.06,1.9
		c-0.54,0.53-1.3,0.53-1.9-0.07c-2.92-2.91-5.84-5.83-8.75-8.75c-0.44-0.44-0.65-0.99-0.3-1.52C22.98,12.68,23.43,12.44,23.8,12.12z
		"/>
	<path class="st2" d="M41.1,18.78c0,1.17,0.01,2.33,0,3.5c-0.01,0.92-0.54,1.51-1.33,1.49c-0.76-0.02-1.26-0.59-1.26-1.5
		c-0.01-2.33-0.01-4.66,0-6.99c0-0.87,0.55-1.47,1.3-1.47c0.75,0,1.29,0.6,1.3,1.47C41.11,16.45,41.1,17.62,41.1,18.78z"/>
	<path class="st2" d="M39.8,8.61c0.73,0,1.31,0.6,1.3,1.32c-0.01,0.69-0.6,1.26-1.29,1.27c-0.7,0-1.28-0.56-1.3-1.26
		C38.49,9.22,39.08,8.61,39.8,8.61z"/>
</g>
</svg>
