<?xml version="1.0" encoding="utf-8"?>
<!-- Generator: Adobe Illustrator 24.0.0, SVG Export Plug-In . SVG Version: 6.00 Build 0)  -->
<svg version="1.1" id="Capa_1" xmlns="http://www.w3.org/2000/svg" xmlns:xlink="http://www.w3.org/1999/xlink" x="0px" y="0px"
	 viewBox="0 0 200 200" style="enable-background:new 0 0 200 200;" xml:space="preserve">
<style type="text/css">
	.st0{fill:#ACAEAF;}
	.st1{fill:#1C3247;}
	.st2{fill:#FE9900;}
</style>
<g>
	<path class="st0" d="M148.2,193.5c-1.3-0.3-2.7-0.5-4-0.9c-5-1.2-9.3-3.7-13.1-7.1c-0.8-0.7-2-1.1-3-1.2c-28.4-0.1-56.7,0-85.1-0.1
		c-0.8,0-1.6,0-2.3-0.1c-2.4-0.2-3.9-1.8-4.1-4.2c-0.1-1.1,0-2.3,0-3.4c0-1.1,0-2.2,0-3.6c-2.2,0-4.1,0-6.1,0
		c-3.4,0-5.1-1.7-5.1-5.1c0-0.7,0-1.3,0-2c0-32.1,0-64.3,0-96.4c0-0.8,0-1.7,0-2.8c-1.4,0-2.7,0-4,0c-3.5-0.1-5.2-1.8-5.2-5.2
		c0-15.7,0-31.4,0-47.1c0-3.4,1.8-5.1,5.2-5.1c11.6,0,23.3,0,34.9,0c3.9,0,5.4,1.5,5.6,5.4c0,0.2,0.1,0.5,0.1,0.9c0.8,0,1.5,0,2.3,0
		c26.7,0,53.4,0,80.1,0c0.7,0,1.3,0,2,0c2.7,0.2,4.4,1.9,4.5,4.6c0,2.1,0,4.3,0,6.7c2,0,3.7,0,5.5,0c4.2,0,5.7,1.5,5.7,5.8
		c0,19,0,37.9,0,56.9c0,14.9,0,29.9,0,44.8c0,1.6,0.4,2.4,1.9,3.1c7.8,3.7,13.1,9.8,15.7,18c0.6,2,0,3.5-1.5,4
		c-1.6,0.5-2.9-0.3-3.6-2.3c-3.8-11.1-13.1-17.5-24.5-17.1c-11.9,0.4-22,10.5-22.7,22.5c-0.7,12.5,8,23.6,19.9,25.4
		c12.8,1.9,24.3-5.6,27.5-18.1c0.4-1.5,1-2.8,2.7-2.9c2-0.1,3.1,1.6,2.6,3.9c-1.6,6.7-5.1,12.2-10.5,16.5c-4.2,3.3-8.9,5.4-14.2,6.1
		c-0.3,0-0.7,0.2-1,0.3C152.3,193.5,150.2,193.5,148.2,193.5z M156.5,32.2c-0.9,0-1.6,0-2.3,0c-23.5,0-46.9,0-70.4,0
		c-0.8,0-1.6,0-2.3-0.2c-1.3-0.4-1.9-1.4-1.8-2.8c0.1-1.4,1-2.2,2.3-2.3c0.7-0.1,1.3,0,2,0c19.7,0,39.5,0,59.2,0c0.7,0,1.4,0,2,0
		c0-2.1,0-3.9,0-5.8c-27.8,0-55.5,0-83.3,0c0,1.9,0,3.8,0,5.8c0.7,0,1.4,0,2,0c2,0,4,0,5.9,0c1.5,0.1,2.3,0.9,2.5,2.4
		c0.2,1.5-0.6,2.5-2.1,2.9c-0.6,0.2-1.3,0.1-2,0.1c-2.1,0-4.3,0-6.5,0c0,9.8,0,19.2,0,28.7c0,4.2-1.6,5.8-5.9,5.8
		c-2.2,0-4.3,0-6.5,0c-2.4,0-4.9,0-7.4,0c0,37.5,0,74.7,0,112c27.9,0,55.7,0,83.5,0c-12.4-23.4,7.7-48.3,30.9-44
		C156.5,100.6,156.5,66.5,156.5,32.2z M36.4,167.5c0-33.7,0-67.2,0-100.6c-2,0-3.8,0-5.6,0c0,33.6,0,67.1,0,100.6
		C32.7,167.5,34.5,167.5,36.4,167.5z M21.6,14.7c0,11.8,0,23.5,0,35.1c2.4-2,4.8-4,7.1-5.9c-6-7.3-3.3-15.5,1.2-19.4
		c5.2-4.5,13-4.5,18.1,0c4.5,3.9,7.1,12.1,1.2,19.4c2.4,2,4.8,4,7.1,6c0-11.7,0-23.4,0-35.1C44.6,14.7,33.1,14.7,21.6,14.7z
		 M22.1,61.2c11.3,0,22.3,0,33.6,0c-1.7-5.9-4.9-10.4-10.5-12.9c-1-0.4-2.3-0.4-3.4-0.4c-1.8,0-3.7,0.4-5.3,0c-2-0.5-3.5,0-5.1,0.9
		C26.6,51.6,23.6,55.8,22.1,61.2z M39,26.4c-4.6,0-8.2,3.6-8.3,8.1c-0.1,4.6,3.7,8.4,8.3,8.4c4.6,0,8.2-3.7,8.2-8.2
		C47.2,30,43.6,26.4,39,26.4z"/>
	<path class="st0" d="M174.6,99.3c1.8,0,3.4,0,5.4,0c0-0.7,0-1.3,0-1.9c0-6.4,0-12.8,0-19.2c0-2,1-3.2,2.7-3.2
		c1.7,0,2.7,1.1,2.7,3.1c0,4.5,0,9,0,13.5s0.1,9,0,13.5c-0.1,2-0.5,4-1.1,5.9c-1,3.2-2.4,6.4-3.6,9.6c-0.6,1.7-1.6,2.8-3.5,2.8
		c-1.9,0-2.8-1.2-3.4-2.9c-1.2-3.3-2.6-6.6-3.7-9.9c-0.5-1.6-0.9-3.3-0.9-4.9c-0.1-23.4,0-46.9,0-70.3c0-4.9,3.4-8.5,8.1-8.5
		c4.7,0,8.1,3.5,8.2,8.4c0,9.7,0,19.4,0,29.1c0,2.1-1,3.3-2.7,3.3c-1.7,0-2.7-1.2-2.7-3.3c0-9.5,0-19.1,0-28.6
		c0-1.3-0.2-2.5-1.5-3.2c-1.6-0.8-3.5,0.1-3.9,1.9c-0.1,0.5-0.1,1-0.1,1.4c0,20.6,0,41.1,0,61.7C174.5,98.1,174.5,98.6,174.6,99.3z
		 M174.5,104.8c-0.2,3.5,1.6,6.2,2.8,9.1c0.9-3,3-5.7,2.6-9.1C178.1,104.8,176.4,104.8,174.5,104.8z"/>
	<path class="st0" d="M148,168.7c4.7-4.7,9.3-9.3,13.8-13.8c0.5-0.5,0.9-1,1.5-1.3c1.2-0.7,2.3-0.5,3.3,0.4c1,1,1,2.1,0.3,3.3
		c-0.3,0.5-0.7,0.8-1.1,1.2c-5,5-10.1,10.1-15.1,15.1c-2.1,2.1-3.2,2.1-5.3,0c-3-3-5.9-5.9-8.9-8.9c-1.6-1.6-1.7-3.2-0.5-4.4
		c1.2-1.2,2.7-1,4.2,0.5C142.9,163.5,145.4,166,148,168.7z"/>
	<path class="st1" d="M99.1,103.6c-14,0-28,0-41.9,0c-0.7,0-1.3,0-2-0.1c-1.4-0.2-2.2-1-2.3-2.4c-0.1-1.4,0.6-2.4,2-2.8
		c0.6-0.2,1.3-0.2,2-0.2c28.3,0,56.6,0,85,0c0.7,0,1.3,0,2,0.2c1.4,0.4,2.1,1.4,2,2.8c-0.1,1.3-0.9,2.2-2.3,2.4
		c-0.7,0.1-1.3,0.1-2,0.1C127.3,103.6,113.2,103.6,99.1,103.6z"/>
	<path class="st0" d="M99.1,89.9c-14,0-28,0-41.9,0c-0.7,0-1.3,0-2-0.1c-1.4-0.2-2.3-1.1-2.3-2.5c-0.1-1.4,0.7-2.4,2.1-2.7
		c0.6-0.1,1.2-0.1,1.8-0.1c28.3,0,56.6,0,84.9,0c0.7,0,1.3,0,2,0.2c1.3,0.3,2,1.3,2,2.6c-0.1,1.4-0.9,2.3-2.3,2.5
		c-0.6,0.1-1.3,0.1-2,0.1C127.3,89.9,113.2,89.9,99.1,89.9z"/>
	<path class="st1" d="M99.3,117.2c-14.1,0-28.3,0-42.4,0c-0.6,0-1.4,0.2-1.8-0.1c-0.8-0.6-2-1.4-2.1-2.3c-0.1-0.8,0.7-2,1.5-2.7
		c0.5-0.5,1.6-0.4,2.4-0.4c28.2,0,56.5,0,84.7,0c0.3,0,0.6,0,0.9,0c2.1,0.1,3.3,1.2,3.2,2.8c-0.1,1.6-1.2,2.5-3.3,2.5
		C128,117.2,113.6,117.2,99.3,117.2z"/>
	<path class="st2" d="M65.1,153.4c-2.6,0-5.2,0-7.7,0c-3.1,0-4.5-1.4-4.5-4.5c0-4,0-7.9,0-11.9c0-2.8,1.5-4.3,4.2-4.3
		c5.4,0,10.8,0,16.2,0c2.8,0,4.2,1.5,4.2,4.2c0.1,5.6,0,9.2,0,12.2c0,2.8-1.4,4.1-4.3,4.2C70.5,153.4,67.8,153.4,65.1,153.4z
		 M58.3,147.9c4.6,0,9.1,0,13.6,0c0-3.3,0-6.5,0-9.7c-4.6,0-9.1,0-13.6,0C58.3,141.4,58.3,144.6,58.3,147.9z"/>
	<path class="st0" d="M99.3,61.3c7.4,0,14.7,0,22.1,0c1.3,0,2.5,0.5,2.8,1.8c0.2,0.9-0.1,2.1-0.7,2.7c-0.5,0.6-1.7,0.8-2.6,0.9
		c-4.5,0.1-9,0-13.5,0c-9.7,0-19.4,0-29.1,0c-0.6,0-1.2,0-1.8-0.1c-1.5-0.2-2.5-1.4-2.5-2.8c0.1-1.4,1.2-2.5,2.8-2.5
		c3.7,0,7.4,0,11.1,0C91.8,61.3,95.5,61.3,99.3,61.3z"/>
	<path class="st2" d="M73.2,165.4c0,0-19.5,0.5-16.9,0c-2.2,0-3.5-1-3.5-2.7c0-1.7,1.2-2.7,3.4-2.7c11.3,0,22.6,0,34,0
		c2.4,0,3.9,1.6,3.2,3.5c-0.5,1.4-1.7,1.9-3.1,1.9C84.5,165.4,78.8,165.4,73.2,165.4z"/>
	<path class="st0" d="M99.4,47.7c4.1,0,8.3,0,12.4,0c2.2,0,3.3,1,3.3,2.7c0,1.7-1.2,2.7-3.3,2.7c-8.4,0-16.8,0-25.2,0
		c-2.1,0-3.3-1-3.3-2.7c0-1.7,1.1-2.7,3.3-2.7C90.9,47.7,95.2,47.7,99.4,47.7z"/>
</g>
</svg>
