<?xml version="1.0" encoding="utf-8"?>
<!-- Generator: Adobe Illustrator 24.0.0, SVG Export Plug-In . SVG Version: 6.00 Build 0)  -->
<svg version="1.1" id="Capa_1" xmlns="http://www.w3.org/2000/svg" xmlns:xlink="http://www.w3.org/1999/xlink" x="0px" y="0px"
	 viewBox="0 0 198.4 198.4" style="enable-background:new 0 0 198.4 198.4;" xml:space="preserve">
<style type="text/css">
	.st0{fill:#ACAEAF;}
	.st1{fill:#FE9900;}
	.st2{fill:#1C3247;}
</style>
<path class="st0" d="M41.9,178.1c-0.2-0.1-0.4-0.2-0.6-0.3c-4.7-1.4-7.4-4.8-7.4-9.7c0-6.7,0-13.4,0-20.2c0-35.3,0-70.7,0-106
	c0-1.3,0.1-2.7,0.4-4c1.1-4.2,4.8-7,9.3-7c7.4,0,14.7,0,22.1,0c0.6,0,1.2,0,1.9,0c0-2,0-4,0-5.9c0-2.2,0.9-3.1,3.1-3.2
	c3.8,0,7.6,0,11.5,0c1,0,1.5-0.2,2-1.2c2.7-5.2,7.1-7.9,12.9-7.9c5.8,0,10.1,2.8,12.8,7.9c0.5,0.9,1,1.2,2,1.2c3.8-0.1,7.6,0,11.5,0
	c2.2,0,3.1,0.9,3.1,3.2c0,1.9,0,3.8,0,5.9c0.6,0,1.2,0,1.8,0c7.3,0,14.5,0,21.8,0c6.2,0,10.2,4,10.2,10.2c0,42.3,0,84.5,0,126.8
	c0,5.2-2.2,8-8,10.1C115.5,178.1,78.7,178.1,41.9,178.1z M67.8,36.1c-7.8,0-15.4,0-23,0c-4.1,0-5.6,1.5-5.6,5.7
	c0,41.8,0,83.7,0,125.5c0,4.1,1.5,5.6,5.7,5.6c34.9,0,69.7,0,104.6,0c4.2,0,5.8-1.5,5.8-5.7c0-9.1,0-18.2,0-27.3
	c0-32.8,0-65.5,0-98.3c0-4-1.6-5.6-5.5-5.6c-7.1,0-14.2,0-21.3,0c-0.6,0-1.1,0-1.6,0c-0.1,0.3-0.1,0.4-0.1,0.6c0,1.8,0,3.5,0,5.3
	c0,2.2-0.9,3.2-3.1,3.2c-17.5,0-35.1,0-52.6,0c-2.1,0-3-0.9-3-3.1C67.7,40.1,67.8,38.2,67.8,36.1z M73,39.8c16.2,0,32.2,0,48.2,0
	c0-4.3,0-8.5,0-12.8c-3.8,0-7.4,0-11.1,0c-3.1,0-3.2-0.1-4.3-3c-1.3-3.6-4.8-6.1-8.7-6.1c-3.9,0-7.4,2.4-8.7,6.1c-1,2.9-1.2,3-4.3,3
	c-3.7,0-7.4,0-11.1,0C73,31.4,73,35.6,73,39.8z"/>
<g>
	<path class="st0" d="M66.6,117.3c0-9.2,0-18.5,0-27.7c0.3-0.7,0.5-1.6,1-2.2c1-1.5,2.5-2,4.2-2c3.1,0,6.2,0,9.4,0
		c0.2,0,0.4,0,0.7,0c0-0.3,0-0.5,0-0.7c0-3.3,0-6.7,0-10c0-0.2,0-0.4,0-0.7c0.6,0,1.3,0,1.9,0c0,0.2,0,0.5,0,0.7
		c0,6.8,0,13.6,0,20.4c0,0.1,0,0.3,0,0.4c0,0.9-0.4,1.2-1.2,1.2c-0.8,0-1.6,0-2.3,0c-0.1,0-0.3,0-0.5,0C79.8,97,79.9,97,80,97
		c4.9,3,9.9,5.9,14.8,8.9c0.3,0.2,0.5,0.1,0.8-0.1c4.8-2.9,9.7-5.8,14.5-8.7c0.1-0.1,0.3-0.2,0.5-0.3c-1,0-1.8,0-2.6,0
		c-1.2,0-1.5-0.3-1.5-1.5c0-6.9,0-13.7,0-20.6c0-0.2,0-0.5,0-0.7c0.6,0,1.3,0,1.9,0c0,0.2,0,0.4,0,0.7c0,3.3,0,6.7,0,10
		c0,0.2,0,0.4,0,0.7c0.3,0,0.5,0,0.7,0c3.1,0,6.2,0,9.4,0c1.4,0,2.6,0.4,3.6,1.3c0.9,0.8,1.3,1.8,1.5,2.9c0,9.2,0,18.5,0,27.7
		c-0.2,1.1-0.7,2.1-1.5,2.9c-1,0.9-2.3,1.3-3.6,1.3c-4.8,0-9.6,0-14.5,0c-0.2,0-0.4,0-0.7,0c0.6,1.2,1.1,2.2,1.6,3.3
		c0.2,0.4,0.4,0.5,0.8,0.5c5.5,0,11,0,16.5,0c0.6,0,1.1,0.1,1.3,0.7c0,0.4,0,0.7,0,1.1c0,0-0.1,0-0.1,0.1c-0.4,2.2-2,3.2-4.1,3.6
		c-0.9,0.1-1.8,0.2-2.7,0.2c-14.5,0-28.9,0-43.4,0c-1.3,0-2.7-0.1-3.9-0.5c-1.4-0.5-2.4-1.5-2.8-2.9c0-0.1-0.1-0.3-0.1-0.4
		c0-0.4,0-0.7,0-1.1c0.3-0.6,0.7-0.7,1.3-0.7c5.1,0,10.2,0,15.2,0c0.6,0,1.3,0.2,1.8-0.1c0.4-0.3,0.6-1,0.9-1.6
		c0.3-0.7,0.7-1.4,1.1-2.1c-0.3,0-0.5,0-0.8,0c-4.8,0-9.6,0-14.4,0c-1.4,0-2.6-0.4-3.6-1.3C67.3,119.4,66.9,118.4,66.6,117.3z
		 M117.9,113.8c0-7.6,0-15.1,0-22.7c-3.2,0-6.3,0-9.4,0c0,1.3,0,2.5,0,3.8c0.2,0,0.4,0,0.6,0c1.6,0,3.2,0,4.7,0c0.5,0,1,0.1,1.2,0.7
		c0.2,0.6-0.2,0.9-0.6,1.2c-6.2,3.7-12.4,7.4-18.6,11.1c-0.5,0.3-0.9,0.3-1.4,0c-6.2-3.7-12.4-7.4-18.6-11.1
		c-0.5-0.3-0.8-0.6-0.6-1.2c0.1-0.5,0.5-0.7,1.2-0.7c1.6,0,3.2,0,4.8,0c0.2,0,0.4,0,0.6,0c0-1.3,0-2.5,0-3.7c-3.2,0-6.3,0-9.4,0
		c0,7.6,0,15.1,0,22.7C87.5,113.8,102.7,113.8,117.9,113.8z M81.8,87.3c-0.2,0-0.4,0-0.5,0c-3.2,0-6.4,0-9.6,0
		c-2.1,0-3.2,1.2-3.2,3.2c0,8.6,0,17.2,0,25.8c0,2.1,1.1,3.2,3.2,3.2c15.6,0,31.2,0,46.8,0c0.4,0,0.8,0,1.2-0.1
		c1.3-0.4,2.1-1.5,2.1-3c0-8.6,0-17.2,0-25.8c0-2.2-1.1-3.3-3.3-3.3c-3.1,0-6.2,0-9.4,0c-0.2,0-0.4,0-0.6,0c0,0.7,0,1.3,0,1.9
		c0.3,0,0.5,0,0.7,0c3.1,0,6.2,0,9.2,0c1.1,0,1.4,0.3,1.4,1.4c0,7.9,0,15.8,0,23.7c0,1.1-0.3,1.4-1.4,1.4c-15.5,0-31.1,0-46.6,0
		c-1.1,0-1.4-0.3-1.4-1.4c0-7.9,0-15.8,0-23.7c0-1.1,0.3-1.4,1.4-1.4c3.1,0,6.2,0,9.3,0c0.2,0,0.4,0,0.7,0
		C81.8,88.5,81.8,88,81.8,87.3z M68.7,127.2c0.3,1.1,1.2,1.5,2.1,1.6c1,0.2,2,0.2,2.9,0.2c14.3,0,28.6,0,42.9,0c0.4,0,0.8,0,1.2,0
		c1-0.1,2-0.1,2.8-0.7c0.5-0.3,0.8-0.6,0.9-1.2C103.9,127.2,86.4,127.2,68.7,127.2z M103.1,125.2c-0.6-1.1-1.1-2.2-1.6-3.2
		c-0.2-0.4-0.4-0.6-0.9-0.6c-3.4,0-6.7,0.1-10.1,0c-1.1,0-1.8,0.2-2.1,1.3c-0.3,0.8-0.8,1.6-1.2,2.5
		C92.5,125.2,97.8,125.2,103.1,125.2z"/>
	<path class="st1" d="M99.3,88.3c1.4,0.3,2.6,0.9,3.4,2c0.5,0.7,0.9,1.5,0.9,2.4c0,1.3,0,2.7,0,4.1c-0.6,0-1.2,0-1.8,0
		c0-0.6,0-1.3,0-1.9c0-0.6,0-1.3-0.1-1.9c-0.2-1.6-1.4-2.7-3-2.8c-2.4-0.1-4.9-0.1-7.3,0c-1.8,0-3,1.4-3,3.3c0,1.1,0,2.2,0,3.3
		c-0.6,0-1.2,0-1.9,0c0.1-1.7-0.2-3.4,0.3-5.1c0.6-1.7,1.7-2.7,3.4-3.2c0.2-0.1,0.4-0.1,0.6-0.1c0-0.1,0-0.1,0-0.1
		c-2.2-2-2.7-4.5-2.1-7.3c0.5-2.2,1.6-3.9,3.8-4.6c2.3-0.7,4.6-0.7,6.7,0.8c1.6,1.2,2.2,2.9,2.4,4.8C102,84.3,101.5,86.4,99.3,88.3z
		 M96.5,82c-1.6,1.8-3.7,2.2-5.9,2.4c0.5,1.4,1.4,2.4,2.6,3.1c0.7,0.3,1.5,0.7,2.2,0.7c1.8-0.1,4-2.1,4.4-3.9c0-0.1,0-0.4-0.1-0.4
		C98.6,83.3,97.5,82.6,96.5,82z M90.5,82.5c1.3-0.1,2.6-0.3,3.7-1c0.3-0.2,0.6-0.5,0.8-0.8c0.6-1,0.9-1.1,2-0.5
		c0.9,0.5,1.8,1,2.7,1.6c-0.2-2.5-2.1-4-4.8-3.9C91.9,78,90.6,79.9,90.5,82.5z"/>
	<path class="st2" d="M112.3,110.1c-0.7,0-1.2,0-1.9,0c0-0.6,0-1.2,0-1.9c0.6,0,1.2,0,1.9,0c0-0.7,0-1.2,0-1.9c0.6,0,1.2,0,1.9,0
		c0,0.6,0,1.2,0,1.8c0.6,0,1.2,0,1.9,0c0,0.7,0,1.3,0,1.9c-0.6,0-1.2,0-1.8,0c0,0.6,0,1.2,0,1.8c-0.7,0-1.3,0-1.9,0
		C112.3,111.3,112.3,110.7,112.3,110.1z"/>
</g>
</svg>
