<?xml version="1.0" encoding="utf-8"?>
<!-- Generator: Adobe Illustrator 24.0.0, SVG Export Plug-In . SVG Version: 6.00 Build 0)  -->
<svg version="1.1" id="Capa_1" xmlns="http://www.w3.org/2000/svg" xmlns:xlink="http://www.w3.org/1999/xlink" x="0px" y="0px"
	 viewBox="0 0 200 200" style="enable-background:new 0 0 200 200;" xml:space="preserve">
<style type="text/css">
	.st0{fill:#ACAEAF;}
	.st1{fill:#FE9900;}
	.st2{fill:none;}
	.st3{fill:#1C3247;}
</style>
<g>
	<path class="st0" d="M46.9,132.1c-4.5,0-8.2-3.7-8.2-8.2c0-4.5,3.7-8.2,8.2-8.3c4.5-0.1,8.4,3.8,8.3,8.3
		C55.1,128.5,51.4,132.1,46.9,132.1z M46.7,126.6c1.5,0.1,2.8-0.9,2.9-2.4c0.2-1.5-0.9-2.9-2.4-3c-1.4-0.1-2.8,1-2.9,2.4
		C44.1,125.2,45.1,126.4,46.7,126.6z"/>
	<path class="st1" d="M47,88.1c-4.5,0-8.2-3.7-8.3-8.2c-0.1-4.5,3.6-8.3,8.1-8.3c4.5-0.1,8.4,3.7,8.4,8.2
		C55.2,84.3,51.4,88.1,47,88.1z M49.6,79.8c0-1.5-1.2-2.6-2.7-2.6c-1.5,0-2.7,1.2-2.7,2.8c0,1.5,1.2,2.6,2.7,2.6
		C48.4,82.5,49.6,81.3,49.6,79.8z"/>
	<path class="st1" d="M82.6,79.8c0,4.5-3.6,8.2-8.2,8.3c-4.5,0-8.4-3.8-8.3-8.3c0-4.5,3.8-8.2,8.3-8.2
		C78.9,71.6,82.6,75.3,82.6,79.8z M77.1,79.8c0-1.5-1.3-2.7-2.8-2.6c-1.4,0.1-2.6,1.3-2.6,2.7c0,1.5,1.2,2.6,2.7,2.6
		C75.9,82.5,77.1,81.3,77.1,79.8z"/>
	<path class="st0" d="M82.6,123.9c0,4.5-3.7,8.2-8.2,8.2c-4.6,0-8.4-3.8-8.3-8.3c0.1-4.5,3.9-8.2,8.3-8.2
		C79,115.7,82.6,119.4,82.6,123.9z M77.1,123.9c0-1.5-1.3-2.7-2.8-2.7c-1.4,0.1-2.6,1.3-2.6,2.7c0,1.4,1.2,2.7,2.7,2.7
		C75.9,126.6,77.1,125.4,77.1,123.9z"/>
	<path class="st0" d="M74.4,93.7c4.6,0,8.2,3.6,8.2,8.1c0,4.6-3.7,8.4-8.3,8.3c-4.5,0-8.2-3.8-8.2-8.3
		C66.2,97.3,69.8,93.7,74.4,93.7z M77.1,101.9c0-1.5-1.2-2.8-2.7-2.8c-1.4,0-2.7,1.2-2.7,2.7c0,1.5,1.2,2.8,2.7,2.8
		C75.9,104.6,77.1,103.4,77.1,101.9z"/>
	<path class="st0" d="M46.9,93.7c4.5,0,8.2,3.6,8.3,8.1c0,4.5-3.8,8.4-8.3,8.3c-4.5,0-8.2-3.8-8.2-8.3
		C38.6,97.3,42.3,93.7,46.9,93.7z M46.9,99.1c-1.5,0-2.7,1.3-2.7,2.8c0,1.4,1.3,2.7,2.7,2.6c1.5,0,2.7-1.3,2.7-2.8
		C49.5,100.3,48.3,99.1,46.9,99.1z"/>
	<path class="st1" d="M93.7,79.8c0-4.5,3.7-8.2,8.2-8.3c4.6,0,8.3,3.7,8.3,8.3c-0.1,4.5-3.8,8.2-8.3,8.2
		C97.4,88.1,93.7,84.4,93.7,79.8z M101.9,82.5c1.5,0,2.8-1.3,2.8-2.7c0-1.4-1.3-2.6-2.7-2.6c-1.5,0-2.8,1.2-2.8,2.7
		C99.2,81.3,100.4,82.5,101.9,82.5z"/>
	<g>
		<path class="st2" d="M99,102.4c13-15.7,30-19.9,49.6-15.2c0-8.8,0-17.7,0-26.5c-40.3,0-80.5,0-120.8,0c0,31.2,0,62.3,0,93.4
			c22,0,43.8,0,65.7,0C85.1,135.6,86.1,118.1,99,102.4z"/>
		<path class="st2" d="M148.6,41.1c0-1.4-1-2.4-2.4-2.4c-2.8-0.1-5.6,0-8.3,0c-0.1,0.2-0.2,0.3-0.2,0.4c0,1.5,0,2.9,0,4.4
			c0,2.4-1,3.4-3.4,3.4c-3.2,0-6.4,0-9.7,0c-2.5,0-3.4-1-3.4-3.6c0-1.5,0-3.1,0-4.6c-3.8,0-7.4,0-11,0c0,1.7,0,3.2,0,4.8
			c-0.1,2.4-1,3.3-3.3,3.4c-3.3,0.1-6.5,0-9.8,0c-2.4,0-3.3-1-3.4-3.5c0-1.5,0-3.1,0-4.7c-3.8,0-7.4,0-11,0c0,1.6,0,3.1,0,4.6
			c0,2.5-0.9,3.5-3.5,3.5c-3.2,0-6.3,0-9.5,0c-2.5,0-3.5-1-3.5-3.5c0-1.5,0-3.1,0-4.7c-2,0-3.7,0-5.5,0c-1.8,0-3.6,0-5.5,0
			c0,1.8,0,3.4,0,5c0,2.1-1,3.2-3.1,3.2c-3.4,0.1-6.9,0.1-10.3,0c-2.1,0-3.1-1.1-3.1-3.3c0-1.6,0-3.2,0-5c-2.7,0-5.1,0-7.5,0
			c-2.4,0-3.4,1-3.4,3.4c0,3.6,0,7.3,0,10.9c0,0.7,0,1.4,0,2.1c40.5,0,80.7,0,121,0C148.7,50.3,148.7,45.7,148.6,41.1z"/>
		<path class="st2" d="M49.6,41.2c0-2.9,0.1-5.6,0-8.4c0-1.5-1.2-2.5-2.6-2.5c-1.4,0-2.6,0.9-2.6,2.3c-0.1,2.8,0,5.7,0,8.6
			C46,41.2,47.7,41.2,49.6,41.2z"/>
		<path class="st2" d="M104.6,41.2c0-2.9,0.1-5.6,0-8.4c-0.1-1.6-1.2-2.5-2.7-2.5c-1.4,0-2.6,0.9-2.7,2.5c-0.1,2.8,0,5.5,0,8.4
			C101.1,41.2,102.8,41.2,104.6,41.2z"/>
		<path class="st2" d="M132.2,41.2c0-2.8,0-5.5,0-8.1c0-1.6-1-2.6-2.4-2.7c-1.4-0.1-2.8,0.6-2.8,2c-0.2,2.9,0,5.9,0,8.8
			C128.6,41.2,130.3,41.2,132.2,41.2z"/>
		<path class="st2" d="M77.1,41.2c0-2.9,0.1-5.8,0-8.6c-0.1-1.5-1.3-2.3-2.7-2.3c-1.4,0-2.5,1-2.6,2.4c-0.1,2.8,0,5.6,0,8.5
			C73.6,41.2,75.3,41.2,77.1,41.2z"/>
		<path class="st2" d="M135,90.9c-22.7-0.1-41.4,18.5-41.3,41.3c0,22.8,18.4,41.2,41.2,41.3c22.7,0.1,41.2-18.4,41.3-41.2
			C176.3,109.5,157.8,91,135,90.9z M134.9,167.9c-19.7,0-35.9-16.2-35.8-35.8c0.1-19.7,16-35.6,35.7-35.7
			c19.6-0.2,35.8,16.1,35.8,35.8C170.8,151.8,154.6,167.9,134.9,167.9z"/>
		<path class="st2" d="M95.7,159.6c-18.4,0-36.8,0-55.3,0c-0.6,0-1.1,0-1.6,0c0,2,0,3.7,0,5.4c21,0,41.8,0,62.9,0
			c-1.3-1.6-2.5-2.9-3.5-4.3C97.5,159.9,96.7,159.6,95.7,159.6z"/>
		<path class="st0" d="M179.6,118.5c-3.9-12.5-11.7-21.8-23.3-27.9c-1.6-0.8-2.1-1.7-2.1-3.4c0.1-15,0.1-30,0-45.1
			c0-5.7-3.4-9.1-9.1-9.1c-1.9,0-3.8,0-5.8,0c-0.5,0-1,0-1.5,0c-1.6-5.9-4.3-8.4-8.7-8.2c-4.2,0.1-7.1,3-8.1,8.2
			c-3.4,0-6.8,0-10.2,0c-0.3,0-0.7-0.6-0.8-1c-0.7-4-3.8-6.9-7.7-7.1c-3.9-0.2-7.5,2.2-8.3,6.1c-0.4,2.1-1.4,2.2-3,2.1
			c-2.7-0.1-5.5,0-8.4,0c-0.3-2.7-1.2-5.1-3.5-6.5c-1.4-0.9-3.1-1.5-4.8-1.6c-4.3-0.3-6.6,2.1-8.5,8.1c-3.5,0-7.1,0-10.6,0
			c-1.4-5.6-4.3-8.3-8.7-8.1c-4.2,0.1-7.1,3-8.1,8.2c-2.5,0-5,0-7.5,0c-4.5,0.1-7.8,2.5-8.6,6.6c-0.2,0.8-0.2,1.7-0.2,2.5
			c0,37.9,0,75.9,0,113.8c0,2.8,0.9,3.7,3.7,3.7c2.3,0,4.7,0,7.2,0c0,2.3,0,4.4,0,6.6c0,3.7,0.7,4.4,4.5,4.4c23.1,0,46.2,0,69.4,0
			c1,0,2.1,0.3,2.9,0.8c27.7,17.7,64.6,1.9,71-30.3c0.4-1.8,0.6-3.7,0.9-5.5c0-2.4,0-4.8,0-7.2C181,125.3,180.6,121.8,179.6,118.5z
			 M126.9,32.4c0.1-1.4,1.4-2.2,2.8-2c1.4,0.1,2.4,1.1,2.4,2.7c0.1,2.6,0,5.3,0,8.1c-1.9,0-3.6,0-5.3,0
			C126.8,38.3,126.7,35.3,126.9,32.4z M99.2,32.8c0.1-1.6,1.2-2.5,2.7-2.5c1.4,0,2.6,0.9,2.7,2.5c0.1,2.8,0,5.6,0,8.4
			c-1.8,0-3.6,0-5.4,0C99.2,38.4,99.1,35.6,99.2,32.8z M71.7,32.8c0.1-1.4,1.2-2.4,2.6-2.4c1.4,0,2.6,0.8,2.7,2.3
			c0.1,2.8,0,5.7,0,8.6c-1.7,0-3.4,0-5.3,0C71.7,38.3,71.6,35.5,71.7,32.8z M44.3,32.7c0.1-1.4,1.3-2.3,2.6-2.3c1.5,0,2.6,1,2.6,2.5
			c0.1,2.7,0,5.5,0,8.4c-1.9,0-3.5,0-5.3,0C44.2,38.3,44.2,35.5,44.3,32.7z M27.7,52.8c0-3.6,0-7.3,0-10.9c0-2.4,1-3.4,3.4-3.4
			c2.4,0,4.9,0,7.5,0c0,1.8,0,3.4,0,5c0,2.2,1,3.2,3.1,3.3c3.4,0.1,6.9,0.1,10.3,0c2.1,0,3.1-1.1,3.1-3.2c0-1.6,0-3.2,0-5
			c1.9,0,3.7,0,5.5,0c1.8,0,3.5,0,5.5,0c0,1.7,0,3.2,0,4.7c0,2.5,1,3.5,3.5,3.5c3.2,0,6.3,0,9.5,0c2.5,0,3.5-1,3.5-3.5
			c0-1.5,0-3,0-4.6c3.7,0,7.3,0,11,0c0,1.6,0,3.1,0,4.7c0,2.5,0.9,3.4,3.4,3.5c3.3,0,6.5,0,9.8,0c2.3,0,3.3-1,3.3-3.4
			c0-1.6,0-3.1,0-4.8c3.7,0,7.2,0,11,0c0,1.5,0,3.1,0,4.6c0,2.6,0.9,3.5,3.4,3.6c3.2,0,6.4,0,9.7,0c2.4,0,3.4-1,3.4-3.4
			c0-1.5,0-2.9,0-4.4c0-0.1,0.1-0.2,0.2-0.4c2.7,0,5.5-0.1,8.3,0c1.4,0.1,2.4,1,2.4,2.4c0.1,4.6,0,9.2,0,13.9c-40.3,0-80.6,0-121,0
			C27.7,54.3,27.7,53.6,27.7,52.8z M27.7,154.1c0-31.1,0-62.2,0-93.4c40.3,0,80.5,0,120.8,0c0,8.9,0,17.7,0,26.5
			C129,82.5,112,86.7,99,102.4c-12.9,15.7-14,33.2-5.6,51.6C71.6,154.1,49.7,154.1,27.7,154.1z M38.8,165.1c0-1.7,0-3.5,0-5.4
			c0.5,0,1.1,0,1.6,0c18.4,0,36.8,0,55.3,0c1.1,0,1.8,0.3,2.5,1.2c1,1.4,2.2,2.7,3.5,4.3C80.6,165.1,59.7,165.1,38.8,165.1z
			 M134.9,173.4c-22.8-0.1-41.2-18.5-41.2-41.3c0-22.8,18.6-41.4,41.3-41.3c22.8,0.1,41.2,18.7,41.1,41.3
			C176.1,155,157.6,173.5,134.9,173.4z"/>
		<path class="st0" d="M134.9,96.4c-19.8,0.2-35.6,16-35.7,35.7c-0.1,19.6,16.1,35.8,35.8,35.8c19.7,0,35.8-16.1,35.8-35.8
			C170.7,112.4,154.5,96.2,134.9,96.4z M160,137.7c0.8,0,1.6,0,2.3,0c0.7,0,1.4,0,2.2,0c-1.7,11.6-12.2,23.3-26.8,24.5
			c0-1.6,0-3,0-4.5c0-2.3-1.1-3.6-2.8-3.5c-1.7,0-2.7,1.3-2.7,3.5c0,1.5,0,3,0,4.5c-14.3-1.2-25-12.6-26.8-24.5c1.6,0,3.1,0.1,4.6,0
			c2.1-0.1,3.3-1.6,2.8-3.4c-0.4-1.6-1.6-2.1-3.1-2.1c-1.6,0-3.2,0-4.8,0c-0.9-13.9,11.4-29.1,27.3-29.9c0,1.5,0,3,0,4.5
			c0,2.2,1.1,3.4,2.8,3.4c1.7,0,2.7-1.3,2.7-3.3c0-1.5,0-3,0-4.5c13,0.3,27.5,12.6,27.4,29.9c-1.6,0-3.3,0-4.9,0
			c-1.8,0-2.9,0.8-3.1,2.2C156.7,136.2,157.9,137.5,160,137.7z"/>
		<path class="st3" d="M150.3,118.7c-0.7,0.4-1.4,0.9-2,1.5c-4.2,3.5-8.4,7-12.8,10.6c-1.2-1.8-2.3-3.6-3.5-5.2
			c-0.5-0.7-1.3-1.5-2-1.6c-0.9-0.1-2.1,0.3-2.7,0.9c-1,0.9-0.8,2.2-0.1,3.3c1.6,2.4,3.2,4.8,4.8,7.3c1.7,2.5,3,2.7,5.4,0.8
			c5-4.2,10.1-8.4,15.1-12.6c0.4-0.4,0.9-0.8,1.2-1.2c0.7-1.1,0.6-2.2-0.2-3.2C152.7,118.4,151.5,118,150.3,118.7z"/>
	</g>
</g>
</svg>
