<?xml version="1.0" encoding="utf-8"?>
<!-- Generator: Adobe Illustrator 24.0.0, SVG Export Plug-In . SVG Version: 6.00 Build 0)  -->
<svg version="1.1" id="Capa_1" xmlns="http://www.w3.org/2000/svg" xmlns:xlink="http://www.w3.org/1999/xlink" x="0px" y="0px"
	 viewBox="0 0 200 200" style="enable-background:new 0 0 200 200;" xml:space="preserve">
<style type="text/css">
	.st0{fill:#ACAEAF;}
	.st1{fill:#FE9900;}
	.st2{fill:#1C3247;}
</style>
<g>
	<path class="st0" d="M137.6,37.5c1.1,0,1.9,0,2.6,0c10.6,0,21.4,0,32,0c8.2,0,12.8,4.6,12.8,12.8c0,33.3,0,66.5,0,99.8
		c0,8.2-4.8,12.8-12.8,12.8c-19,0-37.7,0-56.7,0c-0.7,0-1.5,0-2.4,0c0,3.9,0,7.4,0,11.3c2.4,0,5,0,7.4,0c3.5,0,7.2,0,10.8,0
		c4.6,0,8,3.2,8.2,7.4c0,4.5-3.2,7.6-8,7.6c-19,0-37.7,0-56.7,0c-2.4,0-4.8,0-7.1,0c-4.6-0.2-7.8-3.3-7.8-7.8c0-4.3,3.3-7.4,8-7.4
		c6.1,0,12.3,0,18.4,0c0-3.7,0-7.4,0-11.3c-0.9,0-1.7,0-2.4,0c-19,0-38.1,0-57.1,0c-6.1,0-10.8-3.2-12.1-8.7
		c-0.4-1.3-0.4-2.8-0.4-4.3c0-33.3,0-66.5,0-99.8c0-8,4.6-12.8,12.6-12.8c7.6,0,15.2,0,23,0c0.7,0,1.5,0,2.4,0c0-3.5,0-6.9,0-10
		c0-2.8,0.4-3.2,3.2-3.2c2,0,3.9,0,6.3,0c0-2.4,0-4.8,0-7.2c0-1.3,0-2.6,0-3.9c0-1.5,0.7-2.2,2.2-2.2c0.4,0,0.7,0,1.1,0
		c18,0,35.9,0,53.9,0c1.7,0,3,0.4,4.1,1.7c4.3,4.5,8.9,8.7,13.2,13.4c0.7,0.7,1.3,2.2,1.3,3.3C137.6,31.7,137.6,34.5,137.6,37.5z
		 M137.6,52.7c0,0.9,0,1.7,0,2.4c0,17.7,0,35.3,0,53.1c0,3-0.4,3.3-3.3,3.3c-3.2,0-6.3,0-9.5,0c-2.6,0-5.2,0-8.2,0
		c0,2.2,0,4.3,0,6.3c0,2.8-0.4,3.2-3.2,3.2c-19.3,0-38.8,0-58.2,0c-3,0-3.2-0.4-3.2-3.2c0-21,0-41.8,0-62.8c0-0.7,0-1.5,0-2.2
		c-7.6,0-15.2,0-22.7,0c0,27.9,0,55.6,0,83.3c46.8,0,93.7,0,140.3,0c0-3.2,0-6.1,0-9.3c-0.7,0-1.3,0-2,0c-5.2,0-10.6,0-15.8,0
		c-1.5,0-3-0.2-3-2c0-1.7,1.5-1.9,2.8-1.9c4.3,0,8.5,0,13,0c1.7,0,3.3,0,5,0c0-2,0-3.7,0-5.8c-1.9,0-3.7,0-5.6,0
		c-4.3,0-8.5,0-12.8,0c-1.3,0-2.4-0.4-2.4-1.9c0-1.7,1.1-2,2.4-2c0.4,0,0.9,0,1.3,0c5,0,9.8,0,14.9,0c0.7,0,1.3,0,2-0.2
		c0-1.9,0-3.7,0-5.6c-0.7,0-1.5,0-2.2,0c-5.2,0-10.2,0-15.4,0c-1.5,0-3.2,0-3.2-2c0-1.9,1.5-1.9,3-1.9c5,0,10,0,15.1,0
		c0.9,0,1.7,0,2.6,0c0-2,0-3.7,0-5.8c-0.7,0-1.3,0-2,0c-5.4,0-10.6,0-16,0c-1.5,0-2.8-0.2-2.8-1.9c0-1.7,1.5-1.9,2.8-1.9
		c4.6,0,9.3,0,13.9,0c1.3,0,2.6,0,3.9,0c0-2,0-3.7,0-5.8c-0.9,0-1.5,0-2.2,0c-5,0-10,0-15.1,0c-1.5,0-3.3,0.4-3.3-1.9
		c0-2.2,1.9-1.9,3.3-1.9c3.7,0,7.6,0,11.3,0c2,0,3.9,0,5.9,0c0-10.8,0-21.6,0-32.2C159,52.7,148.4,52.7,137.6,52.7z M137.6,48.8
		c0.7,0,1.5,0,2.2,0c10.2,0,20.4,0,30.7,0c2.6,0,3.2,0.6,3.2,3c0,28.4,0,56.9,0,85.3c0,2.4-0.4,3-3,3c-47.4,0-95,0-142.4,0
		c-2.4,0-3-0.4-3-3c0-28.4,0-56.9,0-85.3c0-2.4,0.6-3,3-3c7.1,0,14.3,0,21.4,0c0.7,0,1.3,0,2.2,0c0-2.6,0-5,0-7.6
		c-0.7,0-1.5,0-2.2,0c-7.6,0-15.2,0-22.7,0c-6.1,0-9.1,3-9.1,9.1c0,33.3,0,66.3,0,99.6c0,6.1,3,9.1,9.1,9.1c48.5,0,96.8,0,145.3,0
		c5.9,0,9.1-3.2,9.1-9.1c0-33.3,0-66.5,0-99.8c0-5.9-3.2-9.1-9.1-9.1c-10.8,0-21.7,0-32.5,0c-0.6,0-1.3,0-2,0.2
		C137.6,43.8,137.6,46.2,137.6,48.8z M65.5,14.6c0,31,0,62.1,0,92.9c22.9,0,45.5,0,68.2,0c0-26,0-51.8,0-77.9c-0.7,0-1.3,0-2,0
		c-3.3,0-6.9,0-10.2,0c-2.4,0-3-0.6-3-3c0-1.5,0-2.8,0-4.3c0-2.6,0-5.2,0-8C100.6,14.6,83.2,14.6,65.5,14.6z M56,28
		c0,29.7,0,59.5,0,89c19,0,37.9,0,56.7,0c0-1.9,0-3.5,0-5.6c-0.9,0-1.7,0-2.6,0c-15.1,0-29.9,0-45,0c-3.3,0-3.5-0.2-3.5-3.5
		c0-25.8,0-51.7,0-77.3c0-0.7,0-1.7,0-2.6C59.6,28,57.9,28,56,28z M99.7,178.1c-10.6,0-21.2,0-31.8,0c-2.8,0-4.5,1.5-4.5,3.7
		s1.7,3.7,4.3,3.9c0.4,0,0.6,0,0.9,0c20.4,0,41.1,0,61.5,0c0.7,0,1.7,0,2.4-0.2c1.9-0.4,3-2,2.8-3.9c-0.2-1.7-1.3-3.2-3.2-3.5
		c-0.6-0.2-1.3,0-1.9,0C120.3,178,110.1,178.1,99.7,178.1z M109,162.9c-6.3,0-12.6,0-18.8,0c0,3.7,0,7.4,0,11.2c6.3,0,12.5,0,18.8,0
		C109,170.3,109,166.8,109,162.9z M130.4,25.9c-2.6-2.6-5.4-5.4-8-8c0,2.4,0,5.2,0,8c2.6,0,5,0,7.4,0
		C130.2,25.9,130.4,25.9,130.4,25.9z"/>
	<path class="st0" d="M103.4,149.3c0,2-1.7,3.9-3.7,3.9c-2,0-3.9-1.7-3.9-3.7c0-2,1.7-3.9,3.7-3.9
		C101.6,145.6,103.2,147.5,103.4,149.3z"/>
	<path class="st1" d="M91,52.5c-5.4,0-11,0-16.4,0c-0.4,0-0.7,0-1.1,0c-1.3,0-2.4-0.6-2.2-2c0-1.3,0.9-1.9,2.2-1.9
		c11.7,0,23.4,0,35.3,0c1.3,0,2.2,0.6,2.2,2c0,1.3-0.9,1.9-2.2,1.9C102.7,52.5,96.7,52.5,91,52.5z"/>
	<path class="st1" d="M91,79.3c5.8,0,11.3,0,17.1,0c1.5,0,2.8,0.2,2.8,1.9c0,1.7-1.3,1.9-2.8,1.9c-11.3,0-22.9,0-34.2,0
		c-1.5,0-2.8-0.2-2.8-1.9c0-1.7,1.3-1.9,2.8-1.9C79.6,79.3,85.2,79.3,91,79.3z"/>
	<path class="st0" d="M91,25.9c5.8,0,11.3,0,17.1,0c1.5,0,2.8,0.2,2.6,2c0,1.7-1.3,1.9-2.6,1.9c-11.5,0-23,0-34.4,0
		c-1.5,0-2.8-0.4-2.6-2c0-1.5,1.3-1.9,2.6-1.9C79.4,25.9,85.2,25.9,91,25.9z"/>
	<path class="st0" d="M91,44.9c-5.8,0-11.5,0-17.1,0c-1.3,0-2.6-0.2-2.6-1.9c0-1.5,1.1-2,2.6-2c11.5,0,23.2,0,34.8,0
		c1.3,0,2.6,0.4,2.6,2c0,1.7-1.3,1.9-2.6,1.9C102.5,44.9,96.7,44.9,91,44.9z"/>
	<path class="st1" d="M91,56.4c5.8,0,11.5,0,17.1,0c1.5,0,2.8,0.2,2.6,1.9c0,1.7-1.3,1.9-2.6,1.9c-11.5,0-23,0-34.6,0
		c-1.3,0-2.6-0.4-2.6-1.9c0-1.7,1.1-1.9,2.6-1.9C79.4,56.4,85.2,56.4,91,56.4z"/>
	<path class="st1" d="M90.8,75.4c-5.6,0-11.3,0-16.9,0c-1.5,0-2.8-0.2-2.8-1.9s1.3-2,2.8-2c11.5,0,23,0,34.4,0c2,0,3.3,1.5,2.4,2.8
		c-0.4,0.6-1.7,0.9-2.4,0.9C102.3,75.4,96.5,75.4,90.8,75.4z"/>
	<path class="st0" d="M91.2,33.6c5.6,0,11.3,0,16.9,0c1.3,0,2.8,0.2,2.8,1.9c0,1.7-1.5,1.9-2.8,1.9c-11.3,0-22.7,0-34.2,0
		c-0.2,0-0.4,0-0.6,0c-1.3,0-2.2-0.6-2.2-1.9c0-1.5,0.9-1.9,2.2-1.9C79.3,33.6,85.2,33.6,91.2,33.6z"/>
	<path class="st1" d="M91.2,64c5.4,0,11,0,16.4,0c0.6,0,1.5-0.2,1.9,0.2c0.6,0.4,1.3,1.1,1.3,1.9c0,0.6-0.7,1.3-1.5,1.7
		c-0.4,0.2-1.1,0.2-1.7,0.2c-11.2,0-22.3,0-33.5,0c-0.6,0-1.1,0.2-1.5,0c-0.7-0.4-1.7-1.1-1.7-1.7c0-0.6,0.9-1.3,1.5-1.9
		c0.4-0.4,1.1-0.2,1.7-0.2C80,64,85.6,64,91.2,64z"/>
	<path class="st2" d="M117.5,100.1c-2.6,0-5.2,0-7.8,0c-1.3,0-2.4-0.4-2.4-1.9c0-1.7,1.1-2,2.4-2c5.2,0,10.6,0,15.8,0
		c1.3,0,2.6,0.4,2.6,2c0,1.5-1.1,1.9-2.6,1.9C122.7,100.1,120.1,100.1,117.5,100.1z"/>
	<path class="st2" d="M117.7,88.7c2.6,0,5.2,0,8,0c1.3,0,2.4,0.4,2.4,1.9c0,1.5-1.1,1.9-2.4,1.9c-5.4,0-10.6,0-16,0
		c-1.3,0-2.4-0.4-2.4-1.9c0-1.5,1.1-1.9,2.4-1.9C112.3,88.7,114.9,88.7,117.7,88.7z"/>
</g>
</svg>
