<?xml version="1.0" encoding="utf-8"?>
<!-- Generator: Adobe Illustrator 24.0.0, SVG Export Plug-In . SVG Version: 6.00 Build 0)  -->
<svg version="1.1" id="Capa_1" xmlns="http://www.w3.org/2000/svg" xmlns:xlink="http://www.w3.org/1999/xlink" x="0px" y="0px"
	 viewBox="0 0 200 200" style="enable-background:new 0 0 200 200;" xml:space="preserve">
<style type="text/css">
	.st0{fill:#ACAEAF;}
	.st1{fill:#FE9900;}
	.st2{fill:#1C3247;}
</style>
<g>
	<path class="st0" d="M169.5,138.8c-1.1,0.4-2,0.8-3.1,1.2c-2.5,1-4.9,1.8-7.5,2.7c0-4.5,0-8.9,0-13.1c0-1.1,0.3-1.9,1.2-2.7
		c12-10.4,12-28.3,0-38.6c-1-0.8-1.2-1.5-1.2-2.7c0-20.3,0-40.7,0-61.1c0-2.6-0.8-3.4-3.3-3.4c-35.1,0-70.1,0-105.2,0
		c-2.5,0-3.3,0.8-3.3,3.3c0,2.3,0,4.5,0,7c-0.7,0-1.4,0-1.9,0c-5.2,0-10.2,0-15.4,0c-4.9,0-8.1,3.3-8.2,8.2c0,11.5,0,23.1,0,34.5
		c0,4.9,3.1,8.2,8.1,8.2c5.2,0,10.4,0,15.6,0c0.5,0,1.1,0,1.6,0c0,10.2,0,20.3,0,30.6c-0.7,0-1.2,0-1.9,0c-6.8,0-13.5,0-20.3,0
		c-2.3,0-3.1,0.8-3.1,3.1c0,16,0,31.8,0,47.8c0,8.6,6.7,15.3,15.4,15.3c39.6,0,79,0,118.6,0c2.3,0,3.1-1,3.1-3.1c0-4.5,0-8.9,0-13.4
		c0-1.1,0.3-1.6,1.2-2.2c4.8-2.5,9.6-5,14.2-7.6c1.2-0.7,2.5-1.6,3.3-2.9c2-2.6,1.9-6.3,0.1-8.7C176,138.4,172.8,137.7,169.5,138.8z
		 M164,107.7c0,11.2-9.1,20.3-20.3,20.3c-11.2,0-20.3-9.1-20.3-20.5c0-11.2,9.3-20.3,20.3-20.2C154.9,87.3,164,96.5,164,107.7z
		 M30.2,77.1c-2.7,0-3.5-0.8-3.5-3.5c0-11.2,0-22.5,0-33.7c0-2.7,0.8-3.5,3.5-3.5c9.8,0,19.7,0,29.5,0s19.7,0,29.5,0
		c2.7,0,3.5,0.8,3.5,3.5c0,11.2,0,22.5,0,33.7c0,2.7-0.8,3.5-3.5,3.5C69.6,77.1,50,77.1,30.2,77.1z M47.1,163.5c0,4.4-2,7.5-5.9,9.4
		c-3.8,1.8-7.5,1.2-10.6-1.4c-2.3-1.8-3.7-4.2-3.7-7.1c-0.1-15.4,0-30.8,0-46.4c0.4,0,0.8,0,1.1,0c6.3,0,12.7,0,19.1,0
		c0,0.5,0.1,1,0.1,1.4C47.1,133.9,47.1,148.7,47.1,163.5z M153.7,173.7c-35.1,0-70,0-105.2,0c1.9-2.5,3.3-5,3.5-7.9
		c0.1-1.1,0.1-2.2,0.1-3.3c0-26.1,0-52.1,0-78.1c0-0.7,0-1.2,0-2.2c0.7,0,1.2,0,1.9,0c11.7,0,23.6,0,35.3,0c5.3,0,8.5-3.1,8.5-8.5
		c0-11.3,0-22.7,0-33.8c0-5.5-3-8.5-8.5-8.5c-11.7,0-23.6,0-35.3,0c-0.5,0-1.1,0-1.8,0c0-1.6,0-3.3,0-4.9c33.7,0,67.6,0,101.4,0
		c0,19.2,0,38.5,0,57.9c-6.7-2.7-13.2-2.9-19.8-0.1c-4.9,2-8.9,5.3-11.7,9.8c-5.6,8.9-5.2,20.3,1.1,28.8c5.2,7,16.4,13.6,30.4,8.3
		c0,3.4,0,6.7,0,10.2c-0.3-0.7-0.5-1.4-1-1.9c-1.5-2.5-3.8-4-6.7-3.8c-5.7,0.3-11.2-0.5-16.6-2.3c-4.4-1.5-9.1-1.8-13.6-2.6
		c-0.8-0.1-1.6-0.1-2.6-0.3c0-0.8,0-1.6,0-2.5c-0.1-1.6-1-2.6-2.6-2.6c-5,0-10.1,0-15.1,0c-1.8,0-2.6,1.1-2.6,3c0,6,0,11.9,0,17.9
		c0,0.5,0,1.2,0,1.9c-7.6,0-15.1,0-22.8,0c0,1.8,0,3.4,0,5c7.5,0,15,0,22.7,0c0,1.8,0,3.3,0,5c-11.7,0-23.5,0-35.3,0
		c0,1.8,0,3.3,0,5c11.7,0,23.5,0,35.3,0c0.4,2.2,1.8,2.7,3.8,2.6c4.4-0.1,8.7,0,13,0c2.9,0,3.7-0.7,3.7-3.7c0-0.4,0-0.7,0.1-1.5
		c2.3,0.7,4.5,1.1,6.7,1.8c4,1.4,7.8,2.9,11.7,4.4c6.1,2.3,12,1.9,17.7-1.2c1.4-0.8,2.7-1.5,4.4-2.3
		C153.7,167.2,153.7,170.4,153.7,173.7z M108,130.6c0,10.1,0,20.2,0,30.3c-3.3,0-6.6,0-10,0c0-10.1,0-20.2,0-30.3
		C101.4,130.6,104.7,130.6,108,130.6z M174.1,145.7c-0.4,1-1.2,1.8-2,2.3c-8.5,4.6-16.9,9.1-25.4,13.8c-4.2,2.3-8.6,2.5-13.2,0.8
		c-5.2-1.9-10.5-3.8-15.8-5.6c-1.4-0.4-2.9-0.5-4.4-0.8c0-6.7,0-13.4,0-20.2c7.1,0.3,13.8,1.6,20.3,4.1c1.4,0.5,2.7,0.7,4.1,0.8
		c2.6,0.1,5.3,0,7.9,0c1.9,0,3,1,3,2.5s-1.1,2.6-3,2.6c-4.9,0-9.7,0-14.7,0c0,1.8,0,3.3,0,5c2.9,0,5.9,0,8.7,0
		c5,0,10.2,0.4,15.1-1.2c5.3-1.9,10.5-3.8,15.8-5.7c0.4-0.1,0.7-0.3,1.1-0.4C173.2,143,174.6,144.2,174.1,145.7z"/>
	<path class="st1" d="M110.6,97.6c-17.7,0-35.3,0-53.2,0c0,1.8,0,3.3,0,4.9c17.7,0,35.5,0,53.2,0C110.6,100.7,110.6,99.2,110.6,97.6
		z"/>
	<path class="st0" d="M105.4,107.8c-16.1,0-32.1,0-48.2,0c0,1.6,0,3.3,0,4.9c16.1,0,32.1,0,48.2,0
		C105.4,110.9,105.4,109.4,105.4,107.8z"/>
	<path class="st1" d="M148.7,41.5c-15.1,0-30.3,0-45.4,0c0,1.8,0,3.4,0,4.9c15.3,0,30.3,0,45.4,0C148.7,44.7,148.7,43.2,148.7,41.5z
		"/>
	<path class="st1" d="M113,87.3c-12.7,0-25.2,0-37.9,0c0,1.6,0,3.3,0,4.9c12.7,0,25.4,0,37.9,0C113,90.6,113,89,113,87.3z"/>
	<path class="st0" d="M148.7,31.4c-10.1,0-20.2,0-30.3,0c0,1.6,0,3.3,0,4.9c10.2,0,20.3,0,30.3,0C148.7,34.5,148.7,33,148.7,31.4z"
		/>
	<path class="st0" d="M87.7,117.9c-10.1,0-20.2,0-30.3,0c0,1.6,0,3.3,0,4.9c10.2,0,20.2,0,30.3,0C87.7,121.2,87.7,119.5,87.7,117.9z
		"/>
	<path class="st2" d="M51,53.3c1.9-4.1,1.4-7.6-1.5-10.1c-2.6-2.3-6.4-2.5-9.3-0.5c-3.3,2.3-4,5.6-2.2,10.6c-3.8,3-5.5,5.2-6,8.9
		c-0.3,2.5-0.3,4.9-0.1,7.5c0,1.4,1.1,2.2,2.5,2.2c6.8,0,13.5,0,20.3,0c1.5,0,2.5-1.1,2.6-2.7c0-1.1,0-2.2,0-3.1
		C57.6,60.7,55.6,56.5,51,53.3z M44.7,46.5c1.4,0,2.5,1.2,2.5,2.6c0,1.4-1.2,2.5-2.6,2.5c-1.4,0-2.5-1.2-2.5-2.6
		C42.1,47.7,43.2,46.5,44.7,46.5z M52,66.9c-5,0-10,0-15,0c-0.4-3.4,0.1-6.4,3-8.6c2.6-1.9,5.5-2,8.2-0.5C51.8,59.8,52.5,63,52,66.9
		z"/>
	<path class="st0" d="M84.8,41.5c-6.4,0-13,0-19.4,0c-2,0-3,1-3,3c0,3,0,6,0,9c0,2.3,1,3.1,3.1,3.1c3.1,0,6.4,0,9.6,0
		c1.6,0,3.3,0,4.8,0c1.6,0,3.3,0,4.8,0c2,0,3-1,3-3c0-3.1,0-6.1,0-9.3C87.8,42.4,86.8,41.5,84.8,41.5z M82.6,51.6c-4.9,0-10,0-15,0
		c0-1.6,0-3.3,0-4.9c5,0,10,0,15,0C82.6,48.2,82.6,49.8,82.6,51.6z"/>
	<path class="st0" d="M65,71.9c7.6,0,15.1,0,22.7,0c0-1.8,0-3.3,0-4.9C80,67,72.5,67,65,67C65,68.6,65,70.3,65,71.9z"/>
	<path class="st2" d="M139.1,96.6c-2.6,1.6-3.5,4.4-2.9,7.4c0.5,3,2.5,5,5.5,5.9c0.8,0.3,1.6,0.1,2.3,0.4c1.2,0.3,2,1.1,2,2.5
		c0,1.2-0.7,2.2-1.8,2.5c-1.2,0.4-2.3-0.1-2.9-1.4c-0.1-0.4-0.3-0.7-0.4-1.1c-1.6,0-3.3,0-4.9,0c0.1,2.3,1,4.5,2.7,5.7
		c1.6,1.1,2.9,2.2,2.2,4.4c1.8,0,3.4,0,5.2,0c-0.4-1.9,0.3-3,1.9-4.1c2.6-1.6,3.5-4.4,2.9-7.4c-0.5-3-2.5-5-5.5-5.9
		c-0.8-0.3-1.6-0.1-2.3-0.4c-1.2-0.3-2-1.1-2-2.5c0-1.2,0.7-2.2,1.8-2.5c1.2-0.4,2.3,0.1,2.9,1.4c0.1,0.4,0.3,0.7,0.4,1.1
		c1.6,0,3.3,0,4.9,0c-0.1-2.6-1.1-4.8-3.1-6c-1.6-1-2.2-2-1.9-3.8c0-0.1-0.1-0.1-0.1-0.3c-1.5,0-3.1,0-4.9,0
		C141.6,94.4,140.8,95.5,139.1,96.6z"/>
</g>
</svg>
