<?xml version="1.0" encoding="utf-8"?>
<!-- Generator: Adobe Illustrator 24.0.0, SVG Export Plug-In . SVG Version: 6.00 Build 0)  -->
<svg version="1.1" id="Capa_1" xmlns="http://www.w3.org/2000/svg" xmlns:xlink="http://www.w3.org/1999/xlink" x="0px" y="0px"
	 viewBox="0 0 80 80" style="enable-background:new 0 0 80 80;" xml:space="preserve">
<style type="text/css">
	.st0{fill:#ACAEAF;}
	.st1{fill:#FE9900;}
</style>
<g>
	<path class="st0" d="M54.78,70.49c-0.19,0-0.39,0-0.58,0c-0.48-0.26-0.67-0.7-0.8-1.2c-3.84-14.77-7.69-29.54-11.55-44.31
		c-0.04-0.16-0.1-0.32-0.14-0.49c-0.04,0.01-0.09,0.02-0.13,0.03c0,0.25,0,0.5,0,0.75c0,14.55,0,29.11,0.01,43.66
		c0,0.63-0.09,1.18-0.66,1.56c-9.82,0-19.64,0-29.45,0c-0.59-0.32-0.71-0.84-0.71-1.47c0.01-16.22,0.01-32.44,0.01-48.66
		c0-1.27,0.28-1.55,1.53-1.55c4.54,0,9.08,0,13.62,0c0.23,0,0.46,0,0.75,0c0-0.27,0-0.48,0-0.69c0-1.92,0-3.84,0-5.76
		c0-1.2,0.29-1.49,1.46-1.49c3.98,0,7.95,0,11.93,0c1.23,0,1.51,0.28,1.51,1.51c0,3.43,0,6.87,0,10.3c0,0.19,0.02,0.39,0.03,0.53
		c0.39-0.18,0.7-0.37,1.05-0.46c4.73-1.28,9.47-2.54,14.2-3.8c0.99-0.26,1.41-0.02,1.66,0.96c3.61,13.85,7.22,27.7,10.84,41.55
		c0.32,1.23,0.68,2.45,1.03,3.67c0,0.23,0,0.47,0,0.7c-0.28,0.46-0.71,0.65-1.22,0.79c-2.97,0.78-5.94,1.57-8.91,2.37
		C58.42,69.48,56.6,69.99,54.78,70.49z M28.69,58.54c3.63,0,7.22,0,10.85,0c0-11.59,0-23.14,0-34.7c-3.64,0-7.24,0-10.85,0
		C28.69,35.42,28.69,46.96,28.69,58.54z M26.63,25.82c-4.64,0-9.24,0-13.83,0c0,9.94,0,19.84,0,29.73c4.63,0,9.22,0,13.83,0
		C26.63,45.62,26.63,35.72,26.63,25.82z M46.33,34.28c1.93,7.4,3.84,14.74,5.76,22.11c4.36-1.16,8.65-2.31,12.98-3.46
		c-1.93-7.41-3.84-14.75-5.76-22.1C54.95,31.98,50.69,33.12,46.33,34.28z M26.63,62.6c-4.64,0-9.24,0-13.83,0c0,1.99,0,3.94,0,5.88
		c4.63,0,9.22,0,13.83,0C26.63,66.5,26.63,64.55,26.63,62.6z M56.75,21.04c-4.35,1.16-8.64,2.31-12.98,3.46
		c0.37,1.41,0.72,2.75,1.08,4.14c4.36-1.16,8.66-2.31,12.98-3.46C57.47,23.77,57.11,22.43,56.75,21.04z M67.09,60.67
		c-4.35,1.16-8.63,2.3-12.97,3.46c0.36,1.4,0.72,2.76,1.08,4.15c4.35-1.16,8.64-2.31,12.98-3.46
		C67.81,63.42,67.46,62.08,67.09,60.67z M52.6,58.31c0.35,1.33,0.67,2.59,1.01,3.9c4.35-1.16,8.63-2.3,12.98-3.46
		c-0.35-1.33-0.68-2.59-1.02-3.9C61.24,56.01,56.97,57.15,52.6,58.31z M39.55,16.8c0-1.33,0-2.6,0-3.91c-3.63,0-7.22,0-10.85,0
		c0,1.31,0,2.6,0,3.91C32.32,16.8,35.9,16.8,39.55,16.8z M28.69,68.47c3.63,0,7.22,0,10.85,0c0-1.31,0-2.6,0-3.89
		c-3.64,0-7.24,0-10.85,0C28.69,65.9,28.69,67.17,28.69,68.47z M26.64,20.85c-4.65,0-9.25,0-13.84,0c0,1.01,0,1.96,0,2.91
		c4.63,0,9.22,0,13.84,0C26.64,22.79,26.64,21.85,26.64,20.85z M26.62,60.53c0-1.01,0-1.97,0-2.91c-4.64,0-9.25,0-13.84,0
		c0,0.99,0,1.93,0,2.91C17.4,60.53,21.98,60.53,26.62,60.53z M39.52,21.79c0-1.02,0-1.97,0-2.93c-3.64,0-7.22,0-10.82,0
		c0,0.99,0,1.95,0,2.93C32.32,21.79,35.91,21.79,39.52,21.79z M58.33,27.1c-4.36,1.16-8.66,2.31-12.98,3.47
		c0.17,0.64,0.32,1.19,0.48,1.79c4.35-1.16,8.64-2.31,12.96-3.46C58.64,28.29,58.5,27.75,58.33,27.1z M39.54,60.62
		c-3.64,0-7.25,0-10.84,0c0,0.66,0,1.27,0,1.89c3.64,0,7.23,0,10.84,0C39.54,61.85,39.54,61.24,39.54,60.62z"/>
	<path class="st1" d="M19.74,28.77c1.22,0,2.44-0.01,3.67,0c0.93,0.01,1.26,0.33,1.26,1.27c0.01,2.46,0.01,4.93,0,7.39
		c0,0.92-0.36,1.27-1.27,1.27c-2.46,0.01-4.93,0.01-7.39,0c-0.91,0-1.27-0.37-1.27-1.28c-0.01-2.46-0.01-4.93,0-7.39
		c0-0.91,0.36-1.25,1.28-1.26C17.26,28.76,18.5,28.77,19.74,28.77z M22.65,30.81c-2.01,0-3.95,0-5.88,0c0,2,0,3.94,0,5.88
		c1.98,0,3.91,0,5.88,0C22.65,34.71,22.65,32.77,22.65,30.81z"/>
</g>
</svg>
