<?xml version="1.0" encoding="utf-8"?>
<!-- Generator: Adobe Illustrator 24.0.0, SVG Export Plug-In . SVG Version: 6.00 Build 0)  -->
<svg version="1.1" id="Capa_1" xmlns="http://www.w3.org/2000/svg" xmlns:xlink="http://www.w3.org/1999/xlink" x="0px" y="0px"
	 viewBox="0 0 80 80" style="enable-background:new 0 0 80 80;" xml:space="preserve">
<style type="text/css">
	.st0{fill:#ACAEAF;}
	.st1{fill:#FE9900;}
	.st2{fill:#1C3247;}
</style>
<g>
	<path class="st0" d="M45.01,74.63c-0.34-0.43-0.81-0.82-1.01-1.31c-0.87-2.13-1.76-4.27-2.44-6.46c-0.37-1.19-0.38-2.51-0.43-3.78
		c-0.07-1.78-0.02-3.57-0.02-5.35c0-0.24,0-0.48,0-0.79c-0.4,0-0.75,0-1.1,0c-1.83,0-3.65,0.01-5.48,0c-0.98,0-1.56-0.5-1.56-1.32
		c0-0.81,0.58-1.31,1.56-1.32c1.94-0.01,3.87,0,5.81,0c0.24,0,0.47,0,0.67,0c0.11-0.81,0.13-1.57,0.33-2.28
		c0.47-1.65,1.99-2.77,3.73-2.86c1.68-0.09,3.31,0.88,3.92,2.49c0.74,1.97,1.37,3.99,2.05,5.99c0.22,0.67,0.55,1.24,1.22,1.56
		c1.41,0.69,3.02-0.2,3.17-1.76c0.03-0.26,0.02-0.53,0.02-0.79c0-13.49,0.01-26.99-0.01-40.48c0-2.32,0.2-4.53,1.9-6.46
		C57,9.67,56.8,9.64,56.59,9.64c-12.77,0-25.53,0-38.3,0c-3.25,0-5.38,2.13-5.38,5.38c0,16.02,0,32.05,0,48.07
		c0,1.3,0.45,1.76,1.74,1.76c5.46,0,10.92,0,16.38,0c1.23,0,1.83,0.43,1.84,1.31c0.01,0.88-0.6,1.34-1.81,1.34
		c-5.48,0-10.96,0-16.44,0c-2.71,0-4.35-1.64-4.35-4.37c0-16.07,0-32.14,0-48.21c0-3.84,2.32-6.85,5.95-7.71
		c0.63-0.15,1.31-0.2,1.96-0.21C33.06,7,47.94,7,62.82,7c4.63,0,7.93,3.32,7.94,7.96c0.01,3.43,0,6.87,0,10.3
		c0,2.68-1.65,4.32-4.32,4.33c-2.53,0-5.06,0-7.59,0c-0.24,0-0.47,0-0.69,0c-0.19,0.81-0.01,1.36,0.57,1.93
		c1.57,1.54,3.16,3.08,4.54,4.78c2.81,3.45,4.09,7.49,4.1,11.92c0,4.95,0.03,9.91-0.03,14.86c-0.04,3.7-0.94,7.23-2.52,10.57
		c-0.18,0.39-0.6,0.66-0.92,0.98c-0.22,0-0.44,0-0.66,0c-1.03-0.58-1.21-1.13-0.74-2.22c0.06-0.14,0.13-0.28,0.19-0.42
		c1.24-2.9,1.98-5.92,2.01-9.08c0.04-4.91,0.05-9.81,0.01-14.72c-0.01-1.31-0.17-2.64-0.45-3.92c-0.84-3.92-3.13-6.95-6.17-9.62
		c0,0.33,0,0.56,0,0.79c0,6.31,0,12.63,0,18.94c0,0.95,0.03,1.89-0.01,2.84c-0.08,1.93-0.93,3.42-2.68,4.31
		c-1.64,0.83-3.28,0.72-4.83-0.27c-1.01-0.64-1.63-1.58-2-2.7c-0.62-1.88-1.24-3.75-1.87-5.63c-0.22-0.66-0.66-1.11-1.38-1.15
		c-0.62-0.03-1.13,0.25-1.38,0.83c-0.13,0.31-0.17,0.68-0.17,1.03c-0.01,3.21-0.01,6.42-0.01,9.64c0,1.81,0.36,3.53,1.07,5.19
		c0.56,1.31,1.1,2.63,1.64,3.96c0.46,1.13,0.27,1.64-0.8,2.19C45.45,74.63,45.23,74.63,45.01,74.63z M58.09,26.94
		c2.96,0,5.82,0.01,8.68-0.01c0.83-0.01,1.35-0.55,1.35-1.4c0.01-3.68,0.08-7.35-0.02-11.02c-0.09-3.16-2.85-5.29-5.92-4.76
		c-2.39,0.42-4.07,2.5-4.08,5.12c-0.02,3.85,0,7.7,0,11.55C58.09,26.57,58.09,26.72,58.09,26.94z"/>
	<path class="st1" d="M22.92,14.13c0.95,0,1.89-0.02,2.84,0c1.46,0.03,2.58,0.95,2.64,2.41c0.09,2.08,0.09,4.18,0,6.26
		c-0.07,1.46-1.18,2.39-2.64,2.41c-1.89,0.02-3.78,0.02-5.68,0c-1.58-0.02-2.68-1.07-2.7-2.64c-0.03-1.94-0.03-3.87,0-5.81
		c0.03-1.57,1.13-2.61,2.7-2.64C21.03,14.12,21.98,14.13,22.92,14.13z M25.77,22.57c0-1.96,0-3.86,0-5.75c-1.94,0-3.82,0-5.71,0
		c0,1.94,0,3.84,0,5.75C21.99,22.57,23.85,22.57,25.77,22.57z"/>
	<path class="st1" d="M17.37,35.53c0-0.9-0.01-1.8,0-2.71c0.03-1.77,1.08-2.83,2.85-2.84c1.8-0.01,3.61-0.01,5.41,0
		C27.3,30,28.4,31,28.45,32.66c0.06,1.91,0.06,3.83,0,5.74c-0.05,1.66-1.15,2.66-2.82,2.67c-1.83,0.01-3.65,0.01-5.48,0
		c-1.68-0.01-2.74-1.08-2.78-2.77C17.36,37.38,17.37,36.45,17.37,35.53z M20.06,32.66c0,1.93,0,3.83,0,5.74c1.93,0,3.81,0,5.72,0
		c0-1.93,0-3.83,0-5.74C23.85,32.66,21.96,32.66,20.06,32.66z"/>
	<path class="st1" d="M17.37,51.31c0-0.88-0.01-1.76,0-2.64c0.03-1.77,1.08-2.83,2.85-2.84c1.8-0.01,3.61-0.01,5.41,0
		c1.67,0.01,2.77,1.01,2.82,2.67c0.06,1.91,0.06,3.83,0,5.74c-0.05,1.66-1.15,2.66-2.82,2.67c-1.8,0.01-3.61,0.01-5.41,0
		c-1.76-0.01-2.82-1.07-2.85-2.84C17.36,53.16,17.37,52.24,17.37,51.31z M25.79,48.51c-1.96,0-3.84,0-5.73,0c0,1.94,0,3.83,0,5.73
		c1.93,0,3.82,0,5.73,0C25.79,52.33,25.79,50.44,25.79,48.51z"/>
	<path class="st2" d="M41.91,38.44c2.33,0,4.66,0,6.99,0c0.22,0,0.44-0.01,0.66,0.03c0.7,0.11,1.15,0.64,1.15,1.31
		c-0.01,0.65-0.45,1.15-1.12,1.27c-0.17,0.03-0.35,0.03-0.53,0.03c-4.82,0-9.63,0-14.45,0c-0.93,0-1.48-0.37-1.61-1.04
		c-0.18-0.92,0.45-1.59,1.52-1.59C36.98,38.43,39.44,38.44,41.91,38.44z"/>
	<path class="st2" d="M44.94,22.59c1.43,0,2.86-0.01,4.29,0c0.92,0.01,1.48,0.54,1.47,1.33c-0.01,0.72-0.52,1.28-1.31,1.29
		c-3.01,0.02-6.03,0.02-9.04,0c-0.82-0.01-1.35-0.58-1.34-1.33c0.01-0.74,0.55-1.28,1.38-1.29C41.91,22.57,43.43,22.59,44.94,22.59z
		"/>
	<path class="st2" d="M34.24,22.6c0.69-0.02,1.32,0.58,1.33,1.28c0.02,0.7-0.57,1.32-1.27,1.34c-0.7,0.02-1.31-0.57-1.32-1.28
		C32.96,23.23,33.53,22.62,34.24,22.6z"/>
	<path class="st0" d="M38.66,66.19c-0.01,0.69-0.64,1.31-1.33,1.29c-0.69-0.01-1.3-0.64-1.29-1.33c0.01-0.69,0.64-1.3,1.33-1.29
		C38.05,64.87,38.67,65.5,38.66,66.19z"/>
</g>
</svg>
