<?xml version="1.0" encoding="utf-8"?>
<!-- Generator: Adobe Illustrator 24.0.0, SVG Export Plug-In . SVG Version: 6.00 Build 0)  -->
<svg version="1.1" id="Capa_1" xmlns="http://www.w3.org/2000/svg" xmlns:xlink="http://www.w3.org/1999/xlink" x="0px" y="0px"
	 viewBox="0 0 200 200" style="enable-background:new 0 0 200 200;" xml:space="preserve">
<style type="text/css">
	.st0{fill:#ACAEAF;}
	.st1{fill:#FE9900;}
	.st2{fill:#1C3247;}
</style>
<g>
	<path class="st0" d="M183,81.9c-2.2,5.1-4,6.4-9.6,6.4c-6.8,0-13.6,0-20.3,0c-5.6,0-8.7-3.1-8.7-8.7c0-2.1,0-4.2,0-6.4
		c-1.7,0-3.2,0-4.7,0c-5.6,0-11.2,0-16.8,0c-0.4,0-0.9,0-1.3,0c-1.7-0.1-2.7-1.2-2.6-2.7c0-1.5,1.1-2.5,2.8-2.5c4.7,0,9.4,0,14,0
		c2.8,0,5.6,0,8.6,0c0-2.8,0.2-5.5,0-8.2c-0.5-7.1,3.5-10.8,10.2-10.2c2.1,0.2,4.2,0,6.3,0c1.5-5.6-2.2-10.4-7.9-10.4
		c-25.7,0-51.3,0-77,0c-0.5,0-1.1,0-1.6,0c-1.7-0.1-2.8-1.2-2.8-2.7c0.1-1.5,1.1-2.4,2.8-2.5c1.8,0,3.6,0,5.3,0
		c24.3,0,48.5,0.1,72.8,0c7.4,0,12.1,4.7,13.3,9.4c0.5,2,0.5,4,0.8,6.3c2.1,0,4.3,0.1,6.5,0c4.9-0.4,8.3,1.4,10.1,6.2
		C183,64.4,183,73.1,183,81.9z M177.8,68.9c0-3.7,0-7.3,0-11c0-2.2-0.9-3.2-3.1-3.2c-7.4,0-14.7,0-22.1,0c-2.1,0-3.1,0.9-3.1,3.1
		c0,7.4,0,14.9,0,22.3c0,2.1,0.9,3,3,3c7.4,0,14.8,0,22.3,0c2.1,0,3-1,3-3.1C177.8,76.3,177.8,72.6,177.8,68.9z"/>
	<path class="st0" d="M150.7,182.8c-1.4-0.8-2.9-1.4-4.1-2.4c-1.7-1.5-2.2-3.6-2.2-5.9c0-2.4,0-4.7,0-7.2c-1.9,0-3.5,0-5.2,0
		c-1.8,0-2.8-1-2.8-2.6c0-1.5,1-2.5,2.7-2.5c1.7,0,3.3,0,5.2,0c0-0.7,0.1-1.2,0.1-1.8c0-2.6,0-5.3,0-7.9c0.1-5.1,3.2-8.2,8.3-8.3
		c2.7,0,5.5,0,8.2,0c1.2-6.5-2.3-10.8-8.6-10.8c-10.3,0-20.7,0-31,0c-2,0-3-0.8-3.2-2.2c-0.2-1.6,0.9-2.9,2.7-2.9
		c2.2-0.1,4.4,0,6.6,0c8.2,0,16.5,0.1,24.7,0c8.4-0.2,14.8,6.2,14.2,14.2c0,0.5,0,1.1,0,1.8c2.9,0,5.8,0,8.6,0c2.4,0,4.5,0.7,6,2.5
		c0.9,1.1,1.4,2.5,2.1,3.8c0,8.7,0,17.5,0,26.2c-1.1,3-3.1,5.1-6.1,6.1C168.1,182.8,159.4,182.8,150.7,182.8z M177.8,163.5
		c0-3.7,0-7.3,0-11c0-2.3-0.9-3.2-3.1-3.2c-7.4,0-14.7,0-22.1,0c-2.2,0-3.1,0.9-3.1,3.1c0,7.4,0,14.7,0,22.1c0,2.2,0.9,3.1,3.2,3.1
		c7.3,0,14.6,0,21.9,0c2.2,0,3.1-0.9,3.2-3.1C177.8,170.9,177.8,167.2,177.8,163.5z"/>
	<path class="st0" d="M50,17.2c1.3,0.7,2.7,1.3,3.9,2.2c1.8,1.5,2.5,3.7,2.4,6.1c0,2.7,0,5.5,0,8.4c1.8,0,3.4,0,5,0
		c2,0,3.2,1.1,3.2,2.7c-0.1,1.5-1.2,2.5-3.1,2.6c-1.6,0-3.2,0-5,0c0,2.7,0,5.2,0,7.7c0,5.9-3,9-8.9,9c-7,0-14.1,0-21.1,0
		c-5.4,0-8.5-3.2-8.5-8.5c0-6.7,0.2-13.5-0.1-20.2c-0.2-4.9,1.5-8.2,6.2-9.9C32.5,17.2,41.2,17.2,50,17.2z M51.1,36.5
		c0-3.6,0-7.1,0-10.7c0-2.7-0.8-3.5-3.5-3.5c-7.2,0-14.3,0-21.5,0c-2.4,0-3.3,0.9-3.3,3.3c0,7.2,0,14.4,0,21.7
		c0,2.4,0.9,3.4,3.3,3.4c7.2,0,14.4,0,21.6,0c2.5,0,3.3-0.9,3.3-3.5C51.1,43.6,51.1,40.1,51.1,36.5z"/>
	<path class="st0" d="M176.9,182.8c3-1,5.1-3.1,6.1-6.1c0,2,0,4.1,0,6.1C181,182.8,178.9,182.8,176.9,182.8z"/>
	<path class="st1" d="M126.1,123.1c-2.3-0.8-4.2-1.4-6.1-2.2c-1.3-0.6-2.2-0.4-3.3,0.4c-2.1,1.5-4.5,2.6-6.7,3.9
		c-0.5,0.3-1.1,1-1.3,1.5c-0.4,1.8-0.7,3.6-1,5.4c-0.3,2-1.2,2.7-3.1,2.8c-2.9,0-5.8,0-8.7,0c-1.8,0-2.7-0.8-3-2.5
		c-0.3-1.9-0.6-3.7-1-5.6c-0.1-0.6-0.7-1.2-1.2-1.6c-2.4-1.5-4.9-2.9-7.3-4.3c-0.5-0.3-1.3-0.4-1.8-0.3c-1.8,0.5-3.5,1.3-5.3,1.9
		c-1.9,0.6-2.8,0.3-3.8-1.3c-1.4-2.5-2.9-4.9-4.3-7.4c-1-1.8-0.9-2.8,0.7-4.1c1.4-1.2,2.9-2.4,4.3-3.7c0.4-0.4,0.7-1.2,0.7-1.8
		c0.1-2.8,0.1-5.7,0-8.5c0-0.6-0.3-1.4-0.7-1.8c-1.4-1.3-2.9-2.4-4.3-3.7c-1.5-1.3-1.7-2.3-0.8-4c1.4-2.5,2.9-5.1,4.3-7.6
		c1-1.7,2-2,3.8-1.4c2,0.7,4,2.1,5.9,2c1.8-0.1,3.4-1.9,5.1-2.9c0.4-0.2,0.8-0.6,1.3-0.7c2.8-0.6,3.9-2.4,3.9-5.1
		c0-0.9,0.3-1.8,0.5-2.7c0.4-2.2,1.2-2.9,3.3-2.9c2.7,0,5.5,0,8.2,0c2.1,0,2.9,0.7,3.3,2.7c0.3,1.8,0.6,3.6,1,5.4
		c0.1,0.6,0.7,1.2,1.3,1.6c2.4,1.5,4.9,2.9,7.4,4.3c0.5,0.3,1.3,0.4,1.8,0.3c1.8-0.6,3.6-1.3,5.5-2c1.5-0.6,2.7-0.1,3.6,1.3
		c1.5,2.6,3,5.2,4.5,7.8c0.8,1.5,0.5,2.7-0.7,3.7c-1.5,1.2-3,2.4-4.4,3.8c-0.4,0.4-0.7,1.2-0.7,1.8c-0.1,2.8-0.1,5.7,0,8.5
		c0,0.6,0.2,1.4,0.7,1.8c1.4,1.3,3,2.5,4.4,3.8c1.4,1.2,1.6,2.2,0.7,3.8c-1.5,2.6-2.9,5.2-4.5,7.7
		C127.7,122.1,126.8,122.5,126.1,123.1z M97.7,70.3c-0.3,1.9-0.7,3.7-1,5.6c-0.2,1.7-1,2.8-2.8,3.3c-3.2,0.9-6.1,2.5-8.4,4.9
		c-1.3,1.3-2.6,1.5-4.2,0.8c-1.8-0.7-3.6-1.3-5.4-2c-0.8,1.3-1.4,2.5-2.1,3.5c-0.5,0.8-0.3,1.2,0.3,1.7c1.4,1.1,2.6,2.2,4,3.3
		c1,0.8,1.4,1.9,1.1,3.2c-0.9,3.6-0.9,7.1,0,10.7c0.3,1.3,0,2.3-1,3.2c-1.4,1.1-2.7,2.3-4.1,3.5c-0.3,0.3-0.5,1-0.4,1.3
		c0.6,1.3,1.4,2.6,2.2,3.9c1.9-0.7,3.7-1.3,5.4-2c1.6-0.7,2.8-0.4,4.1,0.8c2.3,2.3,5.1,4,8.3,4.8c1.9,0.5,2.8,1.6,3,3.5
		c0.2,1.8,0.6,3.7,1,5.5c1.8,0,3.4,0,5.2,0c0.3-1.9,0.7-3.8,1-5.7c0.2-1.6,1-2.6,2.6-3.1c3.4-0.9,6.3-2.7,8.8-5.1
		c1.1-1,2.2-1.3,3.5-0.7c1.9,0.7,3.8,1.4,5.8,2.1c0.9-1.5,1.7-3,2.6-4.5c-1.7-1.4-3.1-2.7-4.7-4c-1.2-1-1.3-2.1-1.2-3.6
		c0.3-3,0.6-6,0.2-9c-0.4-2.6,0.1-4.2,2.2-5.8c3.9-3,3.8-3.1,1-7.2c0,0-0.1-0.1-0.2-0.2c-1.8,0.6-3.7,1.2-5.5,2
		c-1.5,0.6-2.6,0.3-3.8-0.8c-2.4-2.3-5.3-4.1-8.6-5c-1.8-0.5-2.6-1.5-2.8-3.3c-0.2-1.9-0.6-3.7-1-5.6
		C101.2,70.3,99.5,70.3,97.7,70.3z"/>
	<path class="st0" d="M39.6,111.8c2.8,0,5.5,0,8.1,0c5.4,0,8.5,3.2,8.6,8.5c0,2.6,0,5.1,0,7.9c0.8,0,1.3,0,1.9,0
		c6.3,0,12.6,0,18.9,0c0.4,0,0.8,0,1.1,0c1.9,0,3.1,1,3.1,2.6c0,1.6-1.1,2.6-3,2.6c-5.8,0-11.6,0-17.4,0c-1.4,0-2.9,0-4.5,0
		c0,2.8,0,5.4,0,8.1c0,1.1,0,2.3-0.3,3.4c-0.9,3.4-3.9,5.6-7.6,5.6c-7.6,0.1-15.2,0.1-22.8,0c-4.6,0-7.9-3.4-7.9-8
		c0-7.5,0-15,0-22.5c0-4.7,3.2-8,8-8.1c2.8-0.1,5.7,0,8.7,0c0-0.8,0-1.4,0-2.1c0-7.8-0.1-15.6,0-23.4c0.1-9.4,6.2-16.6,15.4-18.1
		c1-0.2,2-0.2,3.1-0.2c8.9,0,17.9,0,26.8,0c0.4,0,0.8,0,1.1,0c1.2,0.2,2,0.9,2.1,2.1c0.2,1.3-0.3,2.3-1.5,2.7
		c-0.6,0.2-1.4,0.3-2,0.3c-8.7,0-17.4,0-26.1,0c-8.2,0-13.6,5.4-13.6,13.5c0,7.8,0,15.6,0,23.4C39.6,110.6,39.6,111,39.6,111.8z
		 M22.8,131c0,3.7,0,7.4,0,11.2c0,2.1,1,3.1,3.1,3.1c7.4,0,14.7,0,22.1,0c2.1,0,3.1-1,3.1-3.1c0-7.4,0-14.8,0-22.1
		c0-2.1-0.9-3.1-3.1-3.1c-7.4,0-14.7,0-22.1,0c-2.2,0-3.1,1-3.1,3.2C22.8,123.8,22.8,127.4,22.8,131z"/>
	<path class="st0" d="M98.3,167.6c2.1,1.6,4.2,3.1,6.3,4.7c0.5,0.4,1,0.7,1.3,1.1c0.8,1,0.8,2.1,0,3.1c-0.8,1-1.8,1.3-3,0.8
		c-0.3-0.2-0.7-0.4-1-0.6c-4.4-3.2-8.9-6.5-13.3-9.8c-1.8-1.3-1.7-3.2,0-4.6c4.4-3.2,8.8-6.4,13.1-9.7c1.6-1.2,3.2-1.1,4.1,0.2
		c0.9,1.3,0.5,2.8-1.1,4c-2.2,1.6-4.4,3.2-6.5,5.2c0.6,0,1.1,0,1.7,0c8.8,0,17.5,0,26.3,0c0.6,0,1.2,0,1.7,0.2
		c1.2,0.4,1.9,1.3,1.8,2.5c-0.1,1.3-0.9,2.2-2.2,2.4c-0.5,0.1-1,0-1.5,0c-8.8,0-17.5,0-26.3,0c-0.5,0-1,0-1.5,0
		C98.4,167.4,98.4,167.5,98.3,167.6z"/>
	<path class="st2" d="M162.4,71c1.7-2.7,3.2-5.4,4.8-8c0.3-0.5,0.5-0.9,0.9-1.4c0.9-1.2,2.3-1.4,3.4-0.6c1.2,0.8,1.6,2.1,0.9,3.2
		c-2.3,4-4.7,8-7.2,11.9c-0.8,1.3-2.2,1.3-3.4,0.6c-2-1.2-3.9-2.4-5.8-3.7c-1.4-0.9-1.7-2.4-0.8-3.6c0.8-1.2,2.3-1.5,3.7-0.6
		C160,69.4,161.2,70.2,162.4,71z"/>
	<path class="st2" d="M162.4,165.6c1.8-3,3.5-5.8,5.2-8.6c1.1-1.7,2.5-2.2,3.9-1.3c1.3,0.9,1.6,2.3,0.5,4c-2.1,3.5-4.2,7-6.4,10.5
		c-1.2,1.9-2.4,2.2-4.3,1c-1.8-1.1-3.5-2.3-5.3-3.4c-1.5-1-1.9-2.4-1.1-3.7c0.8-1.3,2.3-1.5,3.8-0.6
		C160,164,161.2,164.8,162.4,165.6z"/>
	<path class="st2" d="M35.7,38.6c1.6-2.6,3.1-5.2,4.7-7.8c0.3-0.5,0.5-0.9,0.8-1.4c0.9-1.3,2.3-1.6,3.5-0.9c1.2,0.7,1.6,2.2,0.9,3.5
		c-0.4,0.9-1,1.7-1.5,2.5c-1.7,2.8-3.4,5.6-5.1,8.4c-1.2,1.9-2.4,2.2-4.3,1.1c-1.8-1.1-3.6-2.2-5.3-3.4c-1.5-1-1.9-2.4-1.1-3.7
		c0.8-1.3,2.3-1.5,3.8-0.6C33.3,37.1,34.4,37.8,35.7,38.6z"/>
	<g>
		<path class="st1" d="M100.6,84.5c-8.4-0.2-15.4,6.6-15.6,15.2c-0.2,8.4,6.7,15.6,15.3,15.7c8.4,0.1,15.4-6.8,15.6-15.3
			C115.9,91.8,109.1,84.7,100.6,84.5z M100.4,110.3c-5.6,0-10.3-4.7-10.3-10.3c0-5.6,4.6-10.2,10.2-10.3c5.6-0.1,10.3,4.6,10.4,10.2
			C110.6,105.6,106,110.3,100.4,110.3z"/>
	</g>
	<path class="st2" d="M35.7,133.2c1.6-2.6,3.1-5.1,4.6-7.7c0.3-0.5,0.6-1,0.9-1.5c0.9-1.2,2.3-1.6,3.5-0.8c1.2,0.7,1.6,2.2,0.8,3.5
		c-0.9,1.6-1.9,3.1-2.8,4.7c-1.3,2.1-2.5,4.2-3.9,6.3c-1.1,1.8-2.4,2.1-4.2,0.9c-1.8-1.1-3.5-2.3-5.3-3.4c-1.5-1-1.9-2.4-1.1-3.7
		c0.8-1.3,2.3-1.5,3.8-0.6C33.3,131.6,34.4,132.4,35.7,133.2z"/>
</g>
</svg>
