<?xml version="1.0" encoding="utf-8"?>
<!-- Generator: Adobe Illustrator 27.1.0, SVG Export Plug-In . SVG Version: 6.00 Build 0)  -->
<svg version="1.1" id="Capa_1" xmlns="http://www.w3.org/2000/svg" xmlns:xlink="http://www.w3.org/1999/xlink" x="0px" y="0px"
	 viewBox="0 0 500 500" style="enable-background:new 0 0 500 500;" xml:space="preserve">
<style type="text/css">
	.st0{fill:#ACAEAF;}
	.st1{fill:#1C3247;}
	.st2{fill:#FE9900;}
	.st3{opacity:0.63;fill:#FF2B00;}
	.st4{fill:#FC7E00;}
	.st5{fill:#264763;}
	.st6{fill:#335F7F;}
	.st7{fill:#3C7AA0;}
	.st8{fill:#4597BF;}
	.st9{fill:#EA7D06;}
	.st10{fill:#F48521;}
	.st11{fill:#F78D37;}
	.st12{fill:#F7964D;}
	.st13{fill:#EA8806;}
	.st14{fill:#F28F19;}
	.st15{fill:#EF922E;}
	.st16{fill:#F49D47;}
	.st17{fill:#FFFFFF;}
</style>
<g>
	<path class="st0" d="M249.3,54.9c2.2,1.7,4.5,3.2,6.4,5.2c26.2,27.4,52.4,55,78.7,82.4c2.8,2.9,4.1,6.1,4.1,10.2
		c-0.1,22.2,0,44.5,0,66.7c0,1.4,0,2.8,0,3.7c7.9,2.8,15.6,4.9,22.8,8.3c35.5,16.6,57.3,44.3,64.6,82.7c9.1,48.3-16.8,98.2-61,119.5
		c-51.7,24.9-111.9,8.2-143.1-39.8c-1.4-2.2-2.9-3-5.5-3c-32.6,0.1-65.3,0.1-97.9,0c-20.7,0-37.1-11-43.2-29.3
		c-1.6-4.7-2.5-9.9-2.5-14.9c-0.1-82.4-0.1-164.9-0.1-247.3c0-22.4,14.7-39.8,36.8-43.9c0.5-0.1,0.9-0.4,1.3-0.6
		C156.8,54.9,203,54.9,249.3,54.9z M226.3,265.7c-2.3,0-3.8,0-5.2,0c-26.3,0-52.6,0-78.9,0c-1.4,0-2.8,0-4.2-0.1
		c-4.8-0.5-7.7-3.5-7.8-7.8c-0.1-4.3,2.7-7.5,7.4-8.2c1.4-0.2,2.8-0.2,4.2-0.2c31.5,0,63-0.1,94.5,0.1c3.6,0,6.4-0.9,9.3-3.2
		c19.2-15.2,41-23.6,65.5-24.5c3.6-0.1,7.2,0,10.8,0c0-21.4,0-42.3,0-63.4c-1.7,0-3.1,0-4.5,0c-13.1,0-26.2,0.1-39.3-0.1
		c-3.9,0-7.9-0.2-11.7-1.2c-17-4.5-27-17.9-27.2-35.9c-0.1-15.2,0-30.5,0-45.7c0-1.3-0.1-2.7-0.2-4c-1.3-0.1-2.2-0.2-3.1-0.2
		c-39.4,0-78.8,0-118.2,0c-2.9,0-5.9,0.3-8.6,1.1c-13.2,3.7-20.5,14-20.5,28.9c0,81.2,0,162.3,0,243.5c0,3.1,0.3,6.4,1.1,9.4
		c3.6,13.3,13.7,20.4,28.9,20.5c29.6,0.1,59.2,0,88.8,0c1.2,0,2.4-0.1,4-0.2c-8.4-22.2-10-44.3-4.8-67.2c-1.8,0-3.2,0-4.6,0
		c-20.2,0-40.4,0-60.6,0c-7.5,0-11.3-2.8-11.3-8.2c0-5.3,3.7-8,11.1-8c22.2,0,44.5-0.1,66.7,0.1c2.9,0,4.5-0.7,5.7-3.6
		c2.1-4.7,4.9-9.2,7.5-13.7C222.6,271.2,224.2,268.9,226.3,265.7z M315.6,429c52.6-0.1,95.4-43,95.4-95.6
		c0-52.8-43.1-95.8-95.8-95.6c-52.7,0.3-95.5,43.3-95.3,95.7C220.3,386.3,263.2,429.1,315.6,429z M255.6,83.6
		c-0.1,1.6-0.2,2.3-0.2,3c0,11.5-0.1,23.1,0,34.6c0.1,12.5,8.4,20.6,20.9,20.6c10.3,0.1,20.6,0,30.8,0c0.9,0,1.9-0.1,3.5-0.2
		C292.2,122.2,274.2,103.2,255.6,83.6z"/>
	<path class="st2" d="M179.3,208.7c13.5,0,26.9-0.1,40.4,0c5.3,0,8.9,3.3,9,7.9c0.1,4.7-3.6,8.1-9.1,8.3c-0.9,0-1.8,0-2.7,0
		c-17.1,0-34.3,0-51.4,0c-8.9,0-17.8,0-26.7,0c-3.6,0-6.5-1.5-8-4.8c-1.3-3-1.2-6.4,1.4-8.4c2.1-1.6,5.2-2.7,7.9-2.8
		C153.2,208.6,166.2,208.7,179.3,208.7z"/>
	<path class="st2" d="M179.3,167.7c13.5,0,26.9-0.1,40.4,0c5.3,0,8.9,3.3,9,7.9c0.1,4.7-3.6,8.1-9.1,8.3c-0.9,0-1.8,0-2.7,0
		c-17.1,0-34.3,0-51.4,0c-8.9,0-17.8,0-26.7,0c-3.6,0-6.5-1.5-8-4.8c-1.3-3-1.2-6.4,1.4-8.4c2.1-1.6,5.2-2.7,7.9-2.8
		C153.2,167.6,166.2,167.7,179.3,167.7z"/>
</g>
<path class="st1" d="M361.6,313.9c-0.1,0.1-0.2,0.2-0.2,0.4c-0.7,1-1.6,1.9-2.5,2.8c-15.4,15.4-30.9,30.9-46.3,46.3
	c-5.8,5.8-10.9,5.8-16.6,0c-7.2-7.2-14.3-14.4-21.4-21.7c-1-1.1-2.1-2.1-3.1-3.2c-3.9-3.9-4.5-8.8-1.7-12.8
	c3.4-4.9,9.8-5.7,14.5-1.7c0.2,0.2,0.5,0.4,0.7,0.6c5.7,5.6,11.2,11.3,16.8,17c0.7,0.8,1.4,1.6,2.5,2.8c3.2-3.3,6.2-6.3,9.2-9.3
	c10.7-10.8,21.5-21.5,32.2-32.3c2.8-2.8,5.9-4.4,9.8-3.5c2.7,0.6,4.9,2.2,6.2,4.3C363.5,306.7,363.7,310.6,361.6,313.9z"/>
</svg>
