<?xml version="1.0" encoding="utf-8"?>
<!-- Generator: Adobe Illustrator 24.0.0, SVG Export Plug-In . SVG Version: 6.00 Build 0)  -->
<svg version="1.1" id="Capa_1" xmlns="http://www.w3.org/2000/svg" xmlns:xlink="http://www.w3.org/1999/xlink" x="0px" y="0px"
	 viewBox="0 0 200 200" style="enable-background:new 0 0 200 200;" xml:space="preserve">
<style type="text/css">
	.st0{fill:#ACAEAF;}
	.st1{fill:#FE9900;}
	.st2{fill:#1C3247;}
</style>
<g>
	<path class="st0" d="M85.3,167.1c0-5.3,0-10.4,0-15.7c-0.7,0-1.4,0-2,0c-16.3,0-32.6,0-48.9,0C25.4,151.4,20,146,20,137
		c0-25.2,0.2-50.5-0.1-75.7c-0.1-9.1,6.6-15.2,14.5-14.6c0.4,0,0.7,0,1.3,0c0-2.5,0-4.8,0-7.1c0-5.3,3.2-8.6,8.5-8.6
		c36.2,0,72.4,0,108.6,0c5.3,0,8.5,3.2,8.5,8.6c0,2.3,0,4.6,0,7.1c0.9,0,1.8,0,2.6,0c7.3,0.1,13.1,5.7,13.1,13.1
		c0,26.2,0,52.3,0,78.5c0,7.4-5.8,13-13.3,13.1c-16.7,0-33.4,0-50,0c-0.6,0-1.3,0-2,0c0,5.3,0,10.4,0,15.7c0.6,0,1.2,0,1.7,0
		c6,0,12,0,18,0c0.5,0,1,0,1.5,0c1.4,0.3,2.3,1.1,2.3,2.6c0,1.4-0.9,2.3-2.3,2.6c-0.5,0.1-1.1,0-1.6,0c-21.8,0-43.6,0-65.4,0
		c-0.2,0-0.3,0-0.5,0c-2.2,0-3.4-0.9-3.4-2.6c0-1.7,1.2-2.6,3.4-2.6c6,0,12.1,0,18.1,0C84,167.1,84.6,167.1,85.3,167.1z M41,125.1
		c38.4,0,76.7,0,114.9,0c0-22.7,0-45.3,0-67.8c-38.4,0-76.6,0-114.9,0C41,79.9,41,102.4,41,125.1z M25.2,130.5
		c0.2,3.6-0.6,7.1,0.6,10.6c1.1,3.3,4,5,8,5c43.1,0,86.2,0,129.4,0c0.4,0,0.9,0,1.3,0c3.3-0.2,6.4-2.5,6.9-5.7
		c0.5-3.2,0.4-6.6,0.5-9.9C122.8,130.5,74.2,130.5,25.2,130.5z M40.9,51.8c38.5,0,76.7,0,115.1,0c0-4,0-7.8,0-11.7
		c0-3.2-0.7-3.9-3.9-3.9c-35.7,0-71.5,0-107.2,0c-0.4,0-0.9,0-1.3,0c-1.6,0.1-2.6,1-2.6,2.6C40.9,43.1,40.9,47.4,40.9,51.8z
		 M171.8,125.2c0-0.7,0-1.3,0-1.8c0-20.9,0-41.7,0-62.6c0-6.3-4-9.6-10.4-8.7c0,24.3,0,48.6,0,73c0.3,0,0.6,0.1,0.9,0.1
		C165.3,125.2,168.4,125.2,171.8,125.2z M35.6,52.1c-6.4-0.9-10.4,2.4-10.4,8.7c0,20.9,0,41.7,0,62.6c0,0.6,0,1.1,0,1.7
		c3.6,0,7,0,10.4,0C35.6,100.7,35.6,76.4,35.6,52.1z M90.8,151.4c0,5.3,0,10.4,0,15.5c5.3,0,10.4,0,15.5,0c0-5.2,0-10.3,0-15.5
		C101.1,151.4,96,151.4,90.8,151.4z"/>
	<path class="st1" d="M123,75.8c-1.4,0-2.8,0-4.2,0c-1.7,0-2.5-0.8-2.5-2.5c0-2.8,0-5.7,0-8.5c0-1.6,0.9-2.4,2.5-2.4
		c2.8,0,5.7,0,8.5,0c1.6,0,2.4,0.9,2.4,2.5c0,2.8,0,5.7,0,8.5c0,1.6-0.9,2.4-2.5,2.4C125.8,75.8,124.4,75.8,123,75.8z M125.1,66.9
		c-1.5,0-2.9,0-4.3,0c0,1.5,0,2.9,0,4.3c1.5,0,2.9,0,4.3,0C125.1,69.8,125.1,68.4,125.1,66.9z"/>
	<path class="st2" d="M134.1,69.1c0-1.4,0-2.9,0-4.3c0-1.5,0.9-2.3,2.4-2.4c2.9,0,5.8,0,8.6,0c1.5,0,2.3,0.9,2.4,2.4
		c0,2.9,0,5.8,0,8.6c0,1.5-0.9,2.3-2.4,2.4c-2.9,0-5.8,0-8.6,0c-1.5,0-2.3-0.9-2.4-2.4C134.1,72,134.1,70.5,134.1,69.1z M143,66.9
		c-1.5,0-2.9,0-4.3,0c0,1.5,0,2.9,0,4.3c1.5,0,2.9,0,4.3,0C143,69.8,143,68.4,143,66.9z"/>
	<path class="st1" d="M122.5,80.3c1.4,0,2.9,0,4.3,0c1.5,0,2.3,0.9,2.4,2.4c0,2.9,0,5.8,0,8.6c0,1.5-0.9,2.3-2.4,2.4
		c-2.9,0-5.8,0-8.6,0c-1.5,0-2.3-0.9-2.3-2.4c0-2.9,0-5.8,0-8.6c0-1.5,0.9-2.3,2.4-2.4C119.6,80.2,121,80.3,122.5,80.3z M120.3,84.7
		c0,1.5,0,2.9,0,4.3c1.5,0,2.9,0,4.3,0c0-1.5,0-2.9,0-4.3C123.1,84.7,121.8,84.7,120.3,84.7z"/>
	<path class="st0" d="M143.9,87c1,0.9,1.9,1.7,2.7,2.6c1.1,1.2,1.2,2.5,0.2,3.4c-0.9,0.9-2.2,0.8-3.3-0.3c-0.9-0.8-1.6-1.7-2.6-2.8
		c-1,1-1.8,1.9-2.6,2.7c-1.2,1.2-2.5,1.2-3.4,0.3c-1-1-0.9-2.3,0.3-3.4c0.8-0.8,1.7-1.6,2.9-2.7c-1.1-0.9-2.1-1.6-2.9-2.5
		c-1.2-1.2-1.3-2.5-0.3-3.4c1-1,2.3-0.9,3.4,0.2c0.8,0.8,1.6,1.7,2.5,2.7c1-1,1.8-1.8,2.6-2.6c1.2-1.2,2.5-1.3,3.4-0.4
		c1,1,0.9,2.3-0.3,3.5C145.7,85.2,144.9,86,143.9,87z"/>
	<path class="st0" d="M108.3,69.1c1,0.9,1.9,1.7,2.7,2.6c1.1,1.2,1.2,2.5,0.2,3.4c-0.9,0.9-2.2,0.8-3.3-0.3
		c-0.9-0.8-1.6-1.7-2.6-2.8c-1,1-1.8,1.9-2.6,2.7c-1.2,1.2-2.5,1.2-3.4,0.3c-1-1-0.9-2.3,0.3-3.4c0.8-0.8,1.7-1.6,2.9-2.7
		c-1.1-0.9-2.1-1.6-2.9-2.5c-1.2-1.2-1.3-2.5-0.3-3.4c1-1,2.3-0.9,3.4,0.2c0.8,0.8,1.6,1.7,2.5,2.7c1-1,1.8-1.8,2.6-2.6
		c1.2-1.2,2.5-1.3,3.4-0.4c1,1,0.9,2.3-0.3,3.5C110.1,67.4,109.3,68.2,108.3,69.1z"/>
	<path class="st0" d="M98.5,140.9c-1.7,0-3.4,0-5.1,0c-1.7,0-2.8-1.1-2.8-2.6c0-1.5,1.1-2.6,2.8-2.6c3.4,0,6.8,0,10.1,0
		c1.7,0,2.8,1.1,2.8,2.6c0,1.5-1.1,2.6-2.8,2.6C101.9,140.9,100.2,140.9,98.5,140.9z"/>
	<path class="st0" d="M98.5,46.7c-4.1,0-8.3,0-12.4,0c-2.1,0-3.3-1-3.3-2.6c0-1.6,1.2-2.6,3.3-2.6c8.3,0,16.6,0,24.9,0
		c2.1,0,3.3,1,3.3,2.6c0,1.6-1.2,2.6-3.3,2.6C106.8,46.7,102.6,46.7,98.5,46.7z"/>
	<path class="st0" d="M53.9,46.7c-0.9,0-1.7,0.1-2.6,0c-1.5-0.1-2.6-1.3-2.5-2.7c0-1.4,1.1-2.4,2.5-2.5c1.8-0.1,3.6-0.1,5.4,0
		c1.5,0.1,2.5,1.1,2.5,2.5c0,1.4-1,2.6-2.5,2.7C55.8,46.7,54.9,46.7,53.9,46.7z"/>
	<path class="st0" d="M143,46.7c-0.9,0-1.9,0.1-2.8,0c-1.4-0.1-2.4-1.2-2.4-2.6c0-1.4,1-2.5,2.5-2.6c1.8-0.1,3.7-0.1,5.6,0
		c1.4,0.1,2.4,1.2,2.4,2.6c0,1.4-1,2.5-2.5,2.6C144.8,46.7,143.9,46.7,143,46.7z"/>
	<g>
		<path class="st2" d="M48.2,104.1c0.3-0.8,0.9-1.3,1.8-1.5c2.7-0.5,5.4-1.1,8-1.6c0.3-0.1,0.6-0.1,0.8-0.3
			c4.7-2.9,9.4-5.9,14.2-8.8c0.1-0.1,0.2-0.1,0.3-0.2c-0.1-0.2-0.2-0.4-0.3-0.6c-1.5-2.4-2.9-4.7-4.4-7.1c-2.5-4-0.7-8.7,3.8-10.1
			c5.3-1.5,10.6-3.1,15.9-4.6c2.9-0.8,5.9,0.8,6.7,3.6c0.8,2.9-0.8,5.8-3.7,6.7c-3.4,1-6.7,1.9-10.1,2.9c-0.2,0-0.3,0.1-0.5,0.2
			c2.3,3.7,4.5,7.3,6.7,10.9c-0.6-2.3-0.5-4.6,0.7-6.7c1.2-2.1,3-3.5,5.4-4c3.8-0.8,7.6,1.2,9.1,4.6c1.6,3.5,0.5,7.6-2.5,9.9
			c-2.9,2.2-7.4,2.4-10.8-0.7c0.1,0.1,0.1,0.3,0.2,0.4c1.5,2.3,2.9,4.7,4.4,7c0.2,0.3,0.4,0.4,0.8,0.4c4.3-0.1,8.6-0.7,12.8-1.7
			c0.4-0.1,1-0.1,1.4,0c0.7,0.2,1.2,1,1.2,1.7c0,0.8-0.5,1.5-1.4,1.7c-2.1,0.5-4.2,1-6.4,1.3c-4.1,0.7-8.2,0.9-12.3,0.5
			c-3.6-0.4-7.1-1-10.6-1.6c-4-0.7-8-1.6-12-2c-5.2-0.4-10.3,0.1-15.4,1.4c-0.4,0.1-0.7,0.2-1,0.3c-1.4,0.4-2.1,0.1-2.7-1.2
			C48.2,104.7,48.2,104.4,48.2,104.1z M89.7,104.4c0-0.1,0-0.1,0.1-0.2c-0.1-0.2-0.2-0.4-0.4-0.6c-4.3-6.9-8.5-13.8-12.8-20.7
			c-0.9-1.4-0.4-2.6,1.1-3c3-0.9,6-1.7,9-2.6c1.3-0.4,2.5-0.7,3.8-1.1c0.8-0.2,1.2-0.9,1.2-1.7c0-0.7-0.5-1.5-1.2-1.6
			c-0.5-0.1-1,0-1.4,0.1c-5.1,1.5-10.3,3-15.4,4.4c-2.3,0.7-3.1,2.7-1.8,4.8c1.8,2.9,3.6,5.9,5.5,8.8c0.8,1.3,0.6,2.2-0.7,3
			c-3.3,2.1-6.6,4.1-9.9,6.2c-0.2,0.1-0.4,0.3-0.8,0.5c0.4,0,0.7,0,0.9,0.1c2,0.2,4,0.4,6,0.7c3.8,0.7,7.7,1.5,11.5,2.1
			C86.1,104,87.9,104.2,89.7,104.4z M95.3,86.5c-2.5,0-4.5,2-4.5,4.5c0,2.5,2,4.5,4.5,4.5c2.5,0,4.5-2,4.5-4.5
			C99.8,88.5,97.8,86.5,95.3,86.5z"/>
		<path class="st2" d="M48.2,112.6c0.3-0.8,1-1.2,1.8-1.5c5-1.4,10-2.1,15.2-1.9c3.9,0.1,7.7,0.8,11.5,1.5c3.9,0.7,7.8,1.5,11.7,2
			c6.3,0.8,12.5,0.3,18.7-1.3c0.3-0.1,0.5-0.1,0.8-0.2c1-0.2,1.9,0.4,2.2,1.4c0.2,0.9-0.4,1.9-1.4,2.2c-1.8,0.4-3.6,0.9-5.5,1.2
			c-3.5,0.6-7,0.9-10.6,0.8c-4-0.1-8-0.8-11.9-1.5c-3.8-0.7-7.7-1.5-11.5-2c-6.1-0.9-12.2-0.2-18.1,1.4c-0.6,0.2-1.2,0.2-1.7,0
			c-0.5-0.2-0.7-0.8-1.1-1.2C48.2,113.1,48.2,112.9,48.2,112.6z"/>
	</g>
</g>
</svg>
