<?xml version="1.0" encoding="utf-8"?>
<!-- Generator: Adobe Illustrator 24.0.0, SVG Export Plug-In . SVG Version: 6.00 Build 0)  -->
<svg version="1.1" id="Capa_1" xmlns="http://www.w3.org/2000/svg" xmlns:xlink="http://www.w3.org/1999/xlink" x="0px" y="0px"
	 viewBox="0 0 200 200" style="enable-background:new 0 0 200 200;" xml:space="preserve">
<style type="text/css">
	.st0{fill:#ACAEAF;}
	.st1{fill:#FE9900;}
</style>
<g>
	<path class="st0" d="M94.8,94.3c-1.8,0-3.5,0-5.4,0c0-0.8,0-1.4,0-2.1c0-2.4-1-3.4-3.4-3.4c-8.9,0-17.8,0-26.7,0
		c-4.7,0-9.4,0-14.2,0c0,0.6-0.1,1.2-0.1,1.7c0,3.9,0,7.8,0,11.7c0,5.3-3.5,8.8-8.8,8.9c-4.3,0-8.6,0-12.8,0c-0.1,0-0.2,0-0.6,0.1
		c0,0.6,0,1.2,0,1.8c0,20.3,0,40.6,0,60.9c0,3.2,0.8,4,4,4c19.6,0,39.1,0,58.7,0c3.2,0,4-0.8,4-4c0-2.2,0-4.4,0-6.6
		c0-0.1-0.1-0.2-0.1-0.4c-1.7-0.2-3-0.3-4.1,1.7c-1.7,3.3-5.8,4.5-9.4,3.3c-3.5-1.1-5.9-4.5-5.7-8.2c0.1-3.6,2.6-6.8,6.1-7.7
		c3.6-1,7.5,0.5,9.2,3.8c0.7,1.3,1.5,1.5,2.9,1.5c5.9-0.1,11.8,0,17.9,0c0-3.2,0-6.4,0-9.5c0-2.2,0-4.4,0-6.6c0-2.4,1-3.4,3.4-3.4
		c4.3,0,8.7,0,13.2,0c0-0.5,0.1-1,0.1-1.5c0-3.7,0-7.4,0-11.1c0-3.3,0.8-4,4.1-4c4.1,0,8.2,0,12.5,0c0-2.3,0-4.6,0-6.8
		c0-2.2,0-4.4,0-6.6c0-2.3,1-3.3,3.3-3.3c4.4,0,8.8,0,13.4,0c0-4.1,0-8,0-11.9c0-0.6,0-1.3,0-1.9c0.1-1.8,1.1-2.9,2.8-2.9
		c5.5,0,11,0,16.5,0c1.7,0,2.8,1.1,2.9,2.8c0,0.5,0,1,0,1.6c0,21,0,42,0,63c0,0.7,0,1.4,0,2.2c1.9,0,3.6,0,5.4,0c0,1.9,0,3.6,0,5.6
		c-29.5,0-59.1,0-88.8,0c0,2.7,0,5.3,0,7.8c0,5.4-3.5,8.9-8.9,8.9c-20,0-39.9,0-59.9,0c-5.5,0-9-3.5-9-9c0-21.1,0-42.1,0-63.2
		c0-2.8,1-5.1,3-7.1c6-6,12-11.9,17.9-18c2-2,4.3-3,7.1-3c13.3,0,26.6,0.2,39.9-0.1C91.1,83.1,95.9,87.1,94.8,94.3z M161.7,97.3
		c0,21.4,0,42.6,0,63.9c3.7,0,7.3,0,10.9,0c0-21.3,0-42.6,0-63.9C168.9,97.3,165.4,97.3,161.7,97.3z M145,114c0,15.8,0,31.5,0,47.1
		c3.7,0,7.3,0,10.9,0c0-15.8,0-31.4,0-47.1C152.3,114,148.7,114,145,114z M128.4,161.2c3.7,0,7.3,0,10.9,0c0-10.2,0-20.3,0-30.5
		c-3.7,0-7.2,0-10.9,0 M111.7,147.4c0,4.7,0,9.2,0,13.7c3.7,0,7.3,0,10.9,0c0-4.6,0-9.2,0-13.7C118.9,147.4,115.3,147.4,111.7,147.4
		z M27.2,105.5c3.2,0,6.5,0.1,9.7-0.1c0.8-0.1,2.2-1.2,2.3-2c0.2-3.4,0.1-6.9,0.1-10C35.2,97.5,31.2,101.5,27.2,105.5z M78.1,166.8
		c1.5,0,2.8-1.2,2.8-2.7c0.1-1.6-1.2-2.9-2.8-2.9c-1.5,0-2.7,1.2-2.8,2.7C75.4,165.5,76.7,166.8,78.1,166.8z"/>
	<path class="st0" d="M130.8,84.7c-6,6-12,11.9-17.8,17.9c-2.1,2.2-4.2,3.2-7.3,3c-3.5-0.3-7-0.1-10.8-0.1c0,16.7,0,33.3,0,50
		c-1.9,0-3.7,0-5.6,0c0-16.6,0-33.2,0-50c-1.9,0-3.7-0.1-5.4,0.1c-0.5,0-1,0.8-1.3,1.3c-2.1,3.5-6.4,5.1-10.2,3.6
		c-3.7-1.4-5.9-5.4-5.2-9.2c0.8-4.2,4.4-7.1,8.6-6.9c3.1,0.2,5.5,1.7,7,4.4c0.4,0.8,0.9,1.1,1.9,1.1c7.3,0,14.6,0,21.9,0
		c0.6,0,1.3-0.2,1.7-0.6c5.8-5.8,11.6-11.6,17.4-17.5c0.1-0.1,0.1-0.2,0.1-0.3c-17.7-13.5-18.2-38.6-5-53.3
		c12.3-13.7,33.2-16,48.2-5.2c15.1,10.9,19.4,31.6,10.1,47.8C169.8,86.8,149.1,94.1,130.8,84.7z M144.9,22.3
		c-11.9,0-23.9,10.4-27,23.3c-3.3,13.6,3.3,27.8,15.9,34.3c11.8,6.1,25.4,2.9,31.8-2.9c-6.5-7.3-12.9-14.5-19.3-21.9
		c-0.8-0.9-1.3-2.3-1.4-3.5c-0.1-9.2-0.1-18.3-0.1-27.5C144.9,23.6,144.9,23,144.9,22.3z M178,49.8c-1.4-17.1-16.5-27.4-27.4-27.4
		c0,9.1,0,18.2,0,27.4C159.8,49.8,168.8,49.8,178,49.8z M153.9,55.5c5.5,6.2,10.7,12.1,16,18.1c4.7-5.3,7.4-11.2,8.1-18.1
		C170,55.5,162.1,55.5,153.9,55.5z M75.4,100c-1.5,0-2.7,1.3-2.7,2.8c0,1.5,1.2,2.8,2.7,2.8c1.6,0,2.9-1.3,2.8-2.9
		C78.2,101.2,76.9,100,75.4,100z"/>
	<path class="st1" d="M79.6,53.4c4.2-3.6,8.4-7.2,12.5-10.8c0.3-0.3,0.4-1.2,0.3-1.8c-0.7-3.5,0.2-6.4,2.9-8.5
		c2.7-2.2,5.8-2.5,8.9-0.9c3.1,1.6,4.6,4.3,4.5,7.8c-0.2,5.4-5.5,9.2-10.8,7.5c-1.1-0.3-1.8-0.2-2.6,0.5c-4.4,3.9-9,7.7-13.4,11.6
		c-0.6,0.5-1,1.2-1.3,2c-1.2,3.4-3.6,5.4-7.1,5.8c-3.6,0.4-6.4-1.2-8.2-4.4c-0.5-0.8-0.9-1.1-1.9-1.1c-3.1,0.1-6.2,0-9.4,0
		c-0.9,0-1.4,0.2-1.9,1.1c-2,3.7-5.8,5.3-9.8,4.1c-1-0.3-1.5-0.1-2.1,0.6c-2.1,2.1-4.1,4.2-6.3,6.3c-0.8,0.8-0.9,1.5-0.6,2.6
		c1,3.5-0.4,7.1-3.4,9.1c-3,2-6.9,1.8-9.7-0.4c-2.9-2.3-3.9-6.1-2.6-9.5c1.3-3.4,4.5-5.5,8.1-5.4c0.2,0,0.4,0,0.5,0
		c2.5,1.3,3.9-0.2,5.3-1.9c0.8-0.9,1.7-1.7,2.6-2.6c1.7-1.7,3.3-3,2.5-6.2c-1-3.6,2-7.3,5.6-8.5c3.7-1.2,7.8,0.4,9.7,3.8
		c0.6,1.1,1.2,1.4,2.4,1.4c3.1-0.1,6.1,0,9.2-0.1c0.5,0,1.1-0.3,1.4-0.6C69,48.8,74.6,48.2,79.6,53.4z M103.2,38.7
		c0-1.5-1.3-2.7-2.7-2.7c-1.6,0-2.8,1.3-2.8,2.9c0.1,1.5,1.3,2.7,2.8,2.7C102,41.5,103.2,40.2,103.2,38.7z M47.7,58.2
		c0-1.5-1.3-2.7-2.8-2.7c-1.6,0-2.8,1.4-2.7,2.9c0.1,1.5,1.4,2.7,2.9,2.6C46.5,60.9,47.7,59.7,47.7,58.2z M75.4,58.3
		c0-1.5-1.2-2.8-2.7-2.8c-1.6-0.1-2.9,1.2-2.9,2.8c0,1.5,1.3,2.7,2.7,2.7C74.1,61,75.4,59.8,75.4,58.3z M25.5,75
		c-1.5,0-2.8,1.2-2.8,2.7c-0.1,1.6,1.2,2.9,2.8,2.9c1.5,0,2.7-1.3,2.7-2.7C28.2,76.2,27,75,25.5,75z"/>
	<path class="st0" d="M80.9,136.1c-11.1,0-22.1,0-33.1,0c0-1.8,0-3.5,0-5.4c11,0,22,0,33.1,0C80.9,132.5,80.9,134.2,80.9,136.1z"/>
	<path class="st0" d="M31.1,144.6c9.2,0,18.3,0,27.6,0c0,1.8,0,3.5,0,5.4c-9.2,0-18.3,0-27.6,0C31.1,148.3,31.1,146.5,31.1,144.6z"
		/>
	<path class="st0" d="M31.1,122.2c0-1.8,0-3.6,0-5.4c5.5,0,10.9,0,16.4,0c0,1.7,0,3.5,0,5.4C42.1,122.2,36.7,122.2,31.1,122.2z"/>
	<path class="st0" d="M64.4,150c0-1.9,0-3.6,0-5.4c5.5,0,10.9,0,16.4,0c0,1.7,0,3.5,0,5.4C75.4,150,70,150,64.4,150z"/>
	<path class="st0" d="M47.8,163.9c0-1.8,0-3.6,0-5.4c5.5,0,10.9,0,16.4,0c0,1.7,0,3.5,0,5.4C58.8,163.9,53.3,163.9,47.8,163.9z"/>
	<path class="st0" d="M67,122.2c-4.6,0-9,0-13.7,0c0-1.7,0-3.5,0-5.4c4.5,0,9,0,13.7,0C67,118.6,67,120.4,67,122.2z"/>
	<path class="st0" d="M31.1,130.7c3.7,0,7.2,0,10.9,0c0,1.8,0,3.5,0,5.4c-3.6,0-7.2,0-10.9,0C31.1,134.3,31.1,132.6,31.1,130.7z"/>
	<path class="st0" d="M42,158.6c0,1.8,0,3.6,0,5.4c-3.6,0-7.2,0-10.9,0c0-1.7,0-3.5,0-5.4C34.7,158.6,38.3,158.6,42,158.6z"/>
	<path class="st0" d="M61.5,108.3c-2.7,0-5.3,0-8.1,0c0-1.8,0-3.5,0-5.4c2.7,0,5.3,0,8.1,0C61.5,104.6,61.5,106.4,61.5,108.3z"/>
	<path class="st0" d="M80.9,116.8c0,1.8,0,3.5,0,5.3c-2.7,0-5.4,0-8.2,0c0-1.8,0-3.5,0-5.3C75.4,116.8,78.1,116.8,80.9,116.8z"/>
	<path class="st0" d="M78.1,166.8c-1.5,0-2.7-1.3-2.7-2.8c0-1.5,1.3-2.7,2.8-2.7c1.6,0,2.8,1.3,2.8,2.9
		C80.9,165.7,79.6,166.9,78.1,166.8z"/>
</g>
</svg>
