<?xml version="1.0" encoding="utf-8"?>
<!-- Generator: Adobe Illustrator 24.0.0, SVG Export Plug-In . SVG Version: 6.00 Build 0)  -->
<svg version="1.1" id="Capa_1" xmlns="http://www.w3.org/2000/svg" xmlns:xlink="http://www.w3.org/1999/xlink" x="0px" y="0px"
	 viewBox="0 0 200 200" style="enable-background:new 0 0 200 200;" xml:space="preserve">
<style type="text/css">
	.st0{fill:#ACAEAF;}
	.st1{fill:#FE9900;}
</style>
<g>
	<path class="st0" d="M119.9,18c2.8,1.8,3.2,3,2.2,6.3c-0.9,2.6-1.7,5.2-2.6,8.1c0.8,0,1.3,0,1.9,0c5,0,10,0,15,0
		c7.6,0,13.9,5.6,14.9,13.1c0.2,1.2,0.3,2.4,0.3,3.7c0,38.6,0,77.3,0,115.9c0,5.1-1.5,9.5-5.3,13.1c-2.1,2-4.7,3-7.5,3.7
		c-25.6,0-51.2,0-76.7,0c-2.2-1-4.6-1.7-6.6-3.1c-4.3-3.2-6.1-7.8-6.1-13.1c0-39.1,0-78.1,0-117.2c0-7.7,4.5-13.9,11.1-15.6
		c1.4-0.4,2.8-0.5,4.3-0.5c5.5-0.1,11,0,16.7,0c-0.6-2-1.2-3.9-1.8-5.7c-0.3-0.9-0.6-1.7-0.9-2.6c-1-3.2-0.6-4.4,2.2-6.1
		C93.9,18,106.9,18,119.9,18z M143.8,107.2c0-19.2,0-38.4,0-57.6c0-1.1-0.1-2.1-0.2-3.2c-0.7-3.9-3.6-6.3-7.5-6.3
		c-5.1,0-10.2,0-15.3,0c-3.8,0-3.8,0-5,3.6c-0.9,2.9-2,3.6-5,3.6c-6.1,0-12.1,0-18.2,0c-6.2,0-6.2,0-8.1-5.9c-0.3-1-0.8-1.4-1.9-1.4
		c-6,0.1-12,0.1-18.1,0c-2.9,0-5,1.2-6.2,3.7c-0.7,1.6-1.2,3.6-1.2,5.4C57,87.9,57,126.5,57,165.1c0,1,0.1,2,0.3,3
		c0.7,3.8,3.6,6.1,7.4,6.1c23.8,0,47.6,0,71.4,0c3.6,0,6.1-1.8,7.1-5.2c0.4-1.3,0.5-2.7,0.5-4.1
		C143.8,145.7,143.8,126.5,143.8,107.2z M87.3,25.8c1.4,4.5,2.8,8.8,4.3,13.2c0.1,0.3,0.7,0.7,1,0.7c5.4,0,10.9,0,16.4,0
		c1.5-4.7,3-9.2,4.5-13.9C104.7,25.8,96.1,25.8,87.3,25.8z"/>
	<path class="st1" d="M100.4,99.2c1.9-3.5,2.9-6.9,3.1-10.6c0.2-3.5,2.7-4.8,5.9-3.6c2.9,1.1,6,1.8,9,2.8c1.7,0.5,3.3,1.1,4.9,2
		c4.1,2.2,6.1,5.8,6.2,10.5c0.1,3.4,0.1,6.8,0.2,10.2c0,3.2-1.4,4.7-4.5,4.7c-16.5,0-33,0-49.5,0c-3.2,0-4.6-1.5-4.5-4.6
		c0-3.4,0.1-6.7,0.2-10.1c0.1-5.1,2.4-8.8,6.9-11c2.4-1.1,5-1.7,7.5-2.6c2-0.7,4-1.2,5.9-2c2.9-1.1,5.4,0.4,5.6,3.5
		C97.5,92.2,98.4,95.7,100.4,99.2z M111.2,93.7c-2.2,4.8-4.2,9.3-6.2,13.7c5.4,0,11.1,0,16.8,0c0-2.6,0.1-5.1,0-7.6
		c-0.1-1.5-1-2.8-2.4-3.3C116.5,95.4,113.6,94.5,111.2,93.7z M89.6,93.7c-2.4,0.8-5.3,1.5-7.9,2.6c-1.1,0.5-2.3,1.8-2.5,2.8
		c-0.4,2.7-0.1,5.5-0.1,8.3c5.7,0,11.3,0,16.7,0C93.8,102.9,91.8,98.5,89.6,93.7z"/>
	<path class="st1" d="M100.4,83.5c-8.4,0-15.3-6.8-15.3-15.2c-0.1-8.4,6.8-15.3,15.2-15.4c8.5,0,15.4,6.8,15.4,15.3
		C115.7,76.6,108.8,83.4,100.4,83.5z M100.4,60.6c-4.2,0-7.6,3.4-7.7,7.6c0,4.2,3.4,7.6,7.6,7.6c4.2,0,7.6-3.4,7.7-7.6
		C108,64,104.6,60.6,100.4,60.6z"/>
	<path class="st0" d="M100.3,157c-7.4,0-14.7,0-22.1,0c-1.6,0-2.9-0.6-3.7-2.1c-0.7-1.3-0.6-2.6,0.2-3.8c0.8-1.3,2.1-1.8,3.5-1.8
		c2.8,0,5.5,0,8.3,0c11.6,0,23.2,0,34.8,0c0.6,0,1.3,0,1.9,0.1c2,0.4,3.4,2.1,3.2,4.1c-0.2,1.9-1.7,3.4-3.8,3.4
		c-5.5,0-11.1,0-16.6,0C104.2,157,102.3,157,100.3,157z"/>
	<path class="st0" d="M100.3,134.5c-7,0-14,0-20.9,0c-0.7,0-1.4,0-2.1-0.1c-1.9-0.3-3.2-1.9-3.1-3.9c0.1-1.8,1.4-3.3,3.2-3.6
		c0.6-0.1,1.3-0.1,1.9-0.1c14.1,0,28.1,0,42.2,0c0.6,0,1.3,0,1.9,0.1c1.8,0.3,3.2,1.8,3.2,3.6c0,1.9-1.2,3.5-3,3.8
		c-0.7,0.1-1.4,0.1-2.1,0.1C114.4,134.5,107.4,134.5,100.3,134.5z"/>
</g>
</svg>
