<?xml version="1.0" encoding="utf-8"?>
<!-- Generator: Adobe Illustrator 24.0.0, SVG Export Plug-In . SVG Version: 6.00 Build 0)  -->
<svg version="1.1" id="Capa_1" xmlns="http://www.w3.org/2000/svg" xmlns:xlink="http://www.w3.org/1999/xlink" x="0px" y="0px"
	 viewBox="0 0 200 200" style="enable-background:new 0 0 200 200;" xml:space="preserve">
<style type="text/css">
	.st0{fill:#ACAEAF;}
	.st1{fill:#1C3247;}
	.st2{fill:#FE9900;}
</style>
<g>
	<path class="st0" d="M167.4,156c1.9,0.2,3.8,0.2,5.3,0.5c4.9,1.1,8.5,5.3,8.6,10.2c0.2,6.6,0,13,0,19.6c0,0.2,0,0.3-0.2,0.6
		c-1.7,0-3.4,0-5.5,0c0-0.6,0-1.3,0-1.9c0-5.6,0-11.3,0-16.9c0-4.1-2.2-6.3-6.3-6.3c-8.9,0-17.7,0-26.6,0c-4.1,0-6.3,2.2-6.3,6.4
		c0,6.1,0,12.4,0,18.7c-1.9,0-3.6,0-5.6,0c0-20.5,0-40.9,0-61.4c-4.7,0-9.2,0-14.1,0c0,1.6,0,3.1,0,4.7c0.2,6.1-1.4,11.6-5.2,16.6
		c-0.3,0.3-0.5,0.8-0.5,1.3c0,2.7,0,5.3,0,8.3c1.1,0,2.2,0,3.1,0c5.8,0.2,10.7,4.9,10.8,10.7c0.2,6.6,0,13.3,0,20.1
		c-1.9,0-3.6,0-5.6,0c0-0.6,0-1.3,0-1.9c0-5.6,0-11.3,0-16.9c0-4.1-2.2-6.3-6.3-6.3c-8.9,0-17.7,0-26.6,0c-4.1,0-6.3,2.2-6.3,6.3
		c0,6.3,0,12.5,0,18.8c-1.9,0-3.6,0-5.6,0c0-2,0-3.9,0-6c0-4.4,0-8.6,0-13c0-7.1,4.7-11.8,11.9-11.9c0.6,0,1.3,0,2,0c0-3,0-6,0-8.8
		c0-0.3-0.2-0.5-0.3-0.8c-3.8-4.9-5.3-10.5-5.2-16.8c0-1.4,0-3,0-4.5c-4.7,0-9.2,0-14,0c0,20.5,0,40.9,0,61.4c-1.9,0-3.6,0-5.6,0
		c0-0.6,0-1.3,0-1.9c0-5.6,0-11.3,0-16.9c0-4.1-2.2-6.3-6.3-6.3c-8.9,0-17.7,0-26.6,0c-4.1,0-6.3,2.2-6.3,6.3c0,6.3,0,12.5,0,18.8
		c-1.9,0-3.6,0-5.6,0c0-1.4,0-3,0-4.4c0-4.9,0-9.6,0-14.4c0-7.2,4.7-11.9,11.9-12.1c0.6,0,1.3,0,2,0c0-3,0-5.8,0-8.6
		c0-0.3-0.3-0.8-0.5-1.1c-3.3-4.4-5-9.4-5-14.9c0-3.4-0.2-6.7,0.3-10.2c0.9-6,6.1-10.2,12.1-10.2c3.6,0,7.2-0.2,10.8,0.3
		c6,0.9,10.2,6.1,10.3,12.2c0,3.8,0,7.5-0.3,11.1c-0.5,4.2-2,8-4.7,11.4c-0.3,0.3-0.5,0.8-0.6,1.3c0,2.8,0,5.6,0,8.2
		c3,0.5,5.6,0.9,8.5,1.4c0-2.4,0-4.9,0-7.5c0-8.8,0-17.4,0-26.2c0-2.7,0.3-3.1,2.8-4.1c0-7.8,0-15.7,0-23.5
		c0-10.2,4.7-16.1,14.4-18.7c2.7-0.6,5.2-1.3,8-2c0-1.1,0.2-2,0-3.1c0-0.6-0.3-1.3-0.8-1.6c-3-2.4-5.2-5.3-6.6-8.9
		c-0.2,0.2-0.9-0.3-1.6-0.3c-2.4,0-4.4-0.5-6.3-1.7c-5.6-3.9-5.8-12.2-0.2-16c1.1-0.8,1.4-1.6,1.4-2.8c0-4.4-0.2-8.9,0.3-13.3
		c0.9-7.7,8-13.5,15.7-13.8c5-0.2,10.2-0.2,15.2,0c4.9,0.2,8.2,2.8,10,7.2c0.3,0.9,0.8,1.6,1.7,1.9c4.5,1.6,7.4,5.6,7.4,10.5
		c0,2.7,0,5.3,0,8c0,0.6,0.5,1.6,0.9,1.9c3.8,2.7,5.5,6.9,4.1,11.1c-1.3,4.1-5,6.9-9.6,6.9c-1.6,0-2,0.5-2.8,1.7
		c-1.3,2.5-2.7,5-4.7,6.7c-1.9,1.7-2.5,3.4-1.9,6c1.9,0.3,3.8,0.8,5.6,1.3c5.3,1.1,9.1,4.2,11.1,9.2c1.1,2.8,2.4,5.8,3.4,8.6
		c0.2,0.5,0.5,1.1,0.8,1.7c2.4-1.3,4.7-2.7,7.1-3.9c4.4-2.5,8.9-5,13.3-7.4c5.2-2.8,10.7-1.4,13.5,3.3c2.7,4.5,1.1,10.8-3.8,13.6
		c-8.6,4.9-17.2,9.6-26,14.1c-4.2,2.2-8.5,1.4-12.2-1.7c-0.5-0.3-0.9-0.8-1.6-1.4c0,2.5,0,4.5,0,7.1c3.3,0,6.4,0,9.7,0
		c3.4,0,4.2,0.8,4.2,4.2c0,10.5,0,21,0,31.5c0,0.6,0,1.3,0,1.7c2.8-0.5,5.5-0.9,8.5-1.4c0-2.7,0-5.5,0-8.3c0-0.3-0.3-0.8-0.5-1.1
		c-3.3-4.2-4.9-9.1-5-14.4c-0.2-3.4-0.2-6.9,0.3-10.3c0.9-6.1,6.3-10.3,12.4-10.3c3.6,0,7.2-0.2,10.7,0.3c6,0.9,10.2,6.1,10.2,12.2
		c0,4.9,0.6,9.7-1.1,14.4c-1.1,2.8-2.7,5.5-3.9,8.2c-0.2,0.5-0.5,0.9-0.5,1.4C167.2,150.5,167.4,153.3,167.4,156z M85.9,43.9
		c0,3.9,0,7.7,0,11.4c0.2,7.7,6.4,14,14,14c7.7,0,14-6.1,14-14c0-3.9,0-8,0-11.9c0-0.5-0.2-1.1-0.5-1.4c-1.6-1.7-3.1-3.4-4.9-5.2
		C102.5,43.7,94.5,44.5,85.9,43.9z M147.5,94c-4.9,2.7-9.4,5.2-14,7.7c-3.3,1.7-4.4,1.4-5.8-2.2c-1.6-4.1-3.3-8-4.9-12.1
		c-0.8-2.2-2.4-3.8-4.5-4.9c-2.4,2.4-4.7,4.7-7.1,7.1c-1.4,1.4-2.8,2.4-5,0.9c-0.2,0.9-0.6,1.7-0.5,2.5c0.5,5.6,0.9,11.4,1.6,17.1
		c0,0.5,0.5,1.3,0.9,1.6c3.3,1.4,5.8,3.6,7.4,6.9c0.2,0.3,0.5,0.6,1.1,1.3c0-5,0-9.4,0-13.8c0-1.4,0.3-2.7,1.9-3.3
		c1.4-0.6,2.5,0.2,3.4,1.1c1.7,1.7,3.4,3.4,5.2,5.2c2.2,2.2,4.5,2.5,7.2,1.1c1.9-0.9,3.6-1.9,5.3-3c3.8-2,7.7-4.2,11.6-6.4
		C150.1,98.7,148.7,96.6,147.5,94z M80.4,39.3c1.3-0.3,2.5-0.9,3.6-0.9c3-0.2,5.8,0,8.8,0c5.2-0.2,9.4-2.2,12.7-6.3
		c2.2-2.8,3.4-2.8,6-0.3c2.7,2.7,5.3,5.3,8.3,8.3c0-2.7,0-5,0-7.4c-0.2-2.8-2.2-5-5-5.3c-2.5-0.3-3-0.8-3.3-3.3c-0.3-3-2.7-5-5.5-5
		c-4.9,0-9.7-0.2-14.6,0c-5.6,0.2-10.3,4.7-10.7,10.3C80.2,32.6,80.4,36.2,80.4,39.3z M55.1,129.2c0-2,0-3.4,0-4.9
		c-0.2-4.2-3.1-7.2-7.4-7.4c-2.5,0-5.2,0-7.7,0c-4.2,0-7.4,3.1-7.4,7.5c0,2.2,0,4.4,0,6.6c0,3.9,1.1,7.4,3,10.7c1.3,2,3,3.1,5.5,3.3
		c1.7,0,3.4,0,5,0c3,0,5-1.3,6.4-3.9C54.7,137,55.3,132.9,55.1,129.2z M111.3,129.2c0-2,0-3.4,0-4.9c-0.2-4.2-3.1-7.2-7.4-7.4
		c-2.5,0-5.2,0-7.7,0c-4.2,0-7.4,3.1-7.4,7.5c0,2.2,0,4.4,0,6.6c0,3.9,1.1,7.4,3,10.7c1.3,2,3,3.1,5.5,3.3c1.7,0,3.4,0,5,0
		c3,0,5-1.3,6.4-3.9C110.8,137,111.4,132.9,111.3,129.2z M144.8,128.7c-0.3,4.1,0.5,8.6,2.8,12.7c1.3,2,3,3.3,5.3,3.4c0.9,0,2,0,3,0
		c6.4,0.3,7.8-1.1,10.3-7.4c0.2-0.5,0.3-0.9,0.3-1.4c0.2-4.4,0.6-8.8,0.5-13c-0.2-3.4-3.3-6.1-6.7-6.1c-2.8-0.2-5.8-0.2-8.6,0
		c-3.9,0.2-6.7,3.1-6.9,7.1C144.8,125.4,144.8,126.8,144.8,128.7z M93.7,90.9c-2.4,1.4-3.8,0.5-5-0.9c-1.9-2-3.9-3.8-5.8-5.8
		c-0.8-0.9-1.7-0.9-2.8-0.6c-4.9,1.6-8.2,5.8-8.2,11.1c0,8,0,16,0,24c0,0.3,0.2,0.8,0.2,1.1c1.9,0,3.6,0,5.5,0c0-6.6,0-13,0-19.4
		c1.9,0,3.6,0,5.6,0c0,6.6,0,13,0,19.6c0.3-0.2,0.5-0.2,0.6-0.2c0.2-0.2,0.3-0.3,0.3-0.6c1.6-3.3,4.1-5.6,7.4-7.1
		c0.5-0.2,0.9-0.9,0.9-1.6c0.6-5.6,1.1-11.3,1.6-16.9C94.2,92.8,93.9,92,93.7,90.9z M38.4,156.1c3.8,0,7.4,0,11,0c0-2,0-3.9,0-5.6
		c-3.8,0-7.4,0-11,0C38.4,152.2,38.4,154.1,38.4,156.1z M105.5,150.5c-3.8,0-7.4,0-11,0c0,1.9,0,3.8,0,5.6c3.8,0,7.4,0,11,0
		C105.5,154.1,105.5,152.2,105.5,150.5z M150.6,150.6c0,1.7,0,3.6,0,5.5c3.8,0,7.4,0,11,0c0-2,0-3.8,0-5.5c-1.9,0-3.6,0-5.5,0
		C154.4,150.6,152.5,150.6,150.6,150.6z M152.3,91.4c1.4,2.5,2.8,4.9,4.1,7.2c1.4-0.9,2.7-1.4,3.8-2.4c1.7-1.6,2-3.9,0.8-5.6
		c-1.3-1.7-3.3-2-5.5-0.9C154.5,90.1,153.6,90.8,152.3,91.4z M80.2,55.2c0-2.8,0-5.5,0-8.3c-2-0.3-3.8,0.2-4.9,2
		c-0.9,1.4-0.9,2.8,0,4.2C76.5,54.9,78.2,55.5,80.2,55.2z M119.7,55.2c2.4,0.3,4.1-0.3,5-2.2c0.8-1.6,0.6-3.1-0.5-4.4
		c-1.3-1.6-2.8-1.9-4.7-1.6C119.7,49.7,119.7,52.3,119.7,55.2z M100.1,94.7c-0.2,0-0.3,0-0.5,0c-0.5,5.5-0.9,11-1.6,16.5
		c1.3,0,2.4,0,3.4,0C101.2,105.5,100.8,100.2,100.1,94.7z M105.6,74.4c-3.9,0-7.5,0-11.1,0c0,0.2,0,0.9,0.2,1.1
		c1.7,0.6,3.6,1.7,5.3,1.7c1.9,0,3.6-1.1,5.5-1.7C105.6,75.4,105.5,74.8,105.6,74.4z M111.7,81.3c0-0.2,0-0.3,0-0.5
		c-2,0.2-4.2,0.3-6.3,0.5c1.3,1.4,2,2.5,2.8,3.4C109.5,83.4,110.6,82.3,111.7,81.3z M88.5,80.9c0,0.2,0,0.5,0,0.6
		c1.1,1.1,2,2.2,2.8,3c1.1-0.9,2.2-1.9,3.3-2.7c0-0.2,0-0.5-0.2-0.6C92.4,81,90.6,81,88.5,80.9z M97.6,87.1c0.5,1.1,1.1,2.2,2.5,1.7
		c0.9-0.3,1.7-0.9,2.7-1.4c-1.3-1.1-2-1.9-3-2.8C99.2,85.4,98.4,86.2,97.6,87.1z"/>
	<path class="st1" d="M144.2,66.5c-0.6-0.2-0.9-0.3-1.4-0.3c-3.8-1.1-6.3-4.2-6.3-8c0-7.5,0-15,0-22.6c0-4.5,3.6-8.3,8.3-8.3
		c11.3,0,22.7,0,34,0c4.5,0,8.2,3.8,8.2,8.3c0,7.5,0,15,0,22.6c0,4.7-3.8,8.3-8.5,8.3c-4.7,0-9.4,0-14.3,0c-0.9,0-2,0.5-2.8,0.9
		c-4.7,3.9-9.4,7.8-14.1,11.8c-1.3,0.9-2.4,1.7-3.9,0.8s-1.6-2.4-1.1-3.9C142.9,73,143.6,69.7,144.2,66.5z M149.2,70.2
		c0.8-0.5,1.1-0.8,1.6-1.1c2.7-2.4,5.5-4.5,8.2-6.9c1.1-0.9,2.4-1.4,3.8-1.4c5,0,10.2,0,15.2,0c2.2,0,3.3-1.1,3.3-3.1
		c0-7.2,0-14.4,0-21.8c0-2-1.1-3.1-3.1-3.1c-11,0-21.9,0-32.9,0c-2,0-3.1,1.1-3.1,3.1c0,7.2,0,14.4,0,21.8c0,2,1.1,3.1,3.1,3.1
		c0.6,0,1.3,0,1.9,0c2.5,0,3.6,1.4,3.1,3.9C150,66.5,149.7,68,149.2,70.2z"/>
	<path class="st2" d="M55.8,52.5c0.6,3.4,1.3,6.7,2,9.9c0.3,1.4,0.2,2.7-1.3,3.6c-1.4,0.8-2.5,0.3-3.6-0.6
		c-4.9-4.1-9.7-8.2-14.6-12.1c-0.6-0.5-1.6-0.9-2.5-0.9c-4.7-0.2-9.4,0-14,0c-5.2,0-8.8-3.6-8.8-8.8c0-7.2,0-14.4,0-21.8
		c0-5.2,3.6-8.6,8.8-8.8c11,0,21.9,0,32.9,0c5.2,0,8.8,3.6,8.8,8.8c0,7.1,0,14.1,0,21.2c0,5-2.2,7.8-6.9,9.1
		C56.2,52.3,56.1,52.3,55.8,52.5z M50.3,56c0.2,0,0.3-0.2,0.3-0.2c-0.3-1.7-0.6-3.4-0.9-5.2c-0.5-2.4,0.6-3.8,3-3.8
		c0.6,0,1.1,0,1.7,0c2.5,0,3.4-0.9,3.4-3.6c0-7.1,0-14,0-21c0-2.5-0.9-3.4-3.6-3.4c-10.8,0-21.5,0-32.3,0c-2.5,0-3.4,0.9-3.4,3.4
		c0,7.1,0,14,0,21c0,2.5,0.9,3.4,3.4,3.4c5,0,10-0.2,15,0c1.3,0,2.7,0.6,3.6,1.3C44,50.6,47.1,53.3,50.3,56z"/>
	<path class="st1" d="M147.8,49.7c1.9,0,3.6,0,5.3,0c0,1.9,0,3.6,0,5.3c-1.7,0-3.4,0-5.3,0C147.8,53.3,147.8,51.6,147.8,49.7z"/>
	<path class="st1" d="M159.1,49.7c1.9,0,3.6,0,5.3,0c0,1.7,0,3.6,0,5.5c-1.7,0-3.4,0-5.3,0C159.1,53.3,159.1,51.6,159.1,49.7z"/>
	<path class="st1" d="M170.2,55.2c0-1.9,0-3.6,0-5.3c1.7,0,3.6,0,5.5,0c0,1.7,0,3.6,0,5.3C173.8,55.2,172.1,55.2,170.2,55.2z"/>
	<path class="st2" d="M29.7,41.1c-1.9,0-3.6,0-5.3,0c0-1.7,0-3.6,0-5.3c1.7,0,3.4,0,5.3,0C29.7,37.5,29.7,39.2,29.7,41.1z"/>
	<path class="st2" d="M41,35.7c0,1.9,0,3.6,0,5.3c-1.7,0-3.6,0-5.5,0c0-1.7,0-3.4,0-5.3C37.3,35.7,39.2,35.7,41,35.7z"/>
	<path class="st2" d="M46.7,41.1c0-1.9,0-3.6,0-5.3c1.7,0,3.6,0,5.5,0c0,1.7,0,3.4,0,5.3C50.4,41.1,48.6,41.1,46.7,41.1z"/>
</g>
</svg>
