<?xml version="1.0" encoding="utf-8"?>
<!-- Generator: Adobe Illustrator 24.0.0, SVG Export Plug-In . SVG Version: 6.00 Build 0)  -->
<svg version="1.1" id="Capa_1" xmlns="http://www.w3.org/2000/svg" xmlns:xlink="http://www.w3.org/1999/xlink" x="0px" y="0px"
	 viewBox="0 0 200 200" style="enable-background:new 0 0 200 200;" xml:space="preserve">
<style type="text/css">
	.st0{fill:#1C3247;}
	.st1{fill:#ACAEAF;}
	.st2{fill:#FE9900;}
</style>
<g>
	<path class="st0" d="M122.4,141.8c0-8.9,0-17.9,0-26.8c0-3,0.9-3.8,3.8-3.9c9.5,0,19.1,0,28.6,0c1.7,0,2.8,0.5,3.9,1.8
		c4.2,5.1,8.5,10.2,12.7,15.4c0.7,0.9,1.2,2.2,1.2,3.3c0.1,12.5,0.1,25,0,37.5c0,2.7-0.9,3.7-3.7,3.7c-14.3,0-28.6,0-43,0
		c-2.7,0-3.7-0.9-3.7-3.7C122.4,160,122.4,150.9,122.4,141.8z M153.1,116.9c-8.5,0-16.8,0-25,0c0,16.8,0,33.5,0,50.1
		c13.1,0,26,0,38.9,0c0-11.2,0-22.3,0-33.5c-2.5,0-4.9,0-7.4,0c-6.5,0-6.5,0-6.5-6.4C153.1,123.8,153.1,120.4,153.1,116.9z
		 M158.8,121.9c0,2.3,0,4.2,0,6c1.6,0,3.2,0,5,0C162.1,125.8,160.6,124,158.8,121.9z"/>
	<path class="st1" d="M133,94.4c-5.2,0-10.4,0-15.5,0c-2.2,0-3.5-1.1-3.5-2.8c0-1.7,1.3-2.8,3.5-2.8c9.7,0,19.4,0,29.2,0
		c12,0,20.4-8.4,20.5-20.5c0-4.6,0.2-9.2-2.1-13.5c-3.6-6.7-9.1-10.3-16.6-10.8c-0.3,0-0.6,0-0.9,0c-1.7-0.2-2.8-1.3-2.8-2.8
		c0-1.6,1.2-2.8,2.9-2.8c6.1,0,11.5,2,16.2,6c5.8,5,8.8,11.4,8.8,19.1c0,3.8,0,7.8-0.7,11.5c-2.3,11.1-12.5,19.3-23.9,19.4
		C143,94.4,138,94.4,133,94.4C133,94.4,133,94.4,133,94.4z"/>
	<path class="st1" d="M27.3,119.6c0-4.5,0-9.1,0-13.6c0.1-9.8,7.3-17.1,17.1-17.2c7.2,0,14.3,0,21.5,0c2.2,0,3.5,1.4,3.3,3.2
		c-0.2,1.5-1.4,2.4-3.3,2.4c-6.9,0-13.7,0-20.6,0c-7.8,0-12.4,4.5-12.4,12.3c0,8.7,0,17.5,0,26.2c0,6.8,4.2,11.3,11,11.8
		c1.9,0.1,3.1,1.3,3,3c-0.1,1.6-1.4,2.7-3.3,2.6c-8.5-0.1-16-7.4-16.2-16.1C27.3,129.4,27.4,124.5,27.3,119.6
		C27.4,119.6,27.4,119.6,27.3,119.6z"/>
	<path class="st2" d="M91.6,105.6c-7.6,0-14-6.2-14-13.8c0-7.8,6.2-14.2,14-14.2c7.6,0,13.9,6.3,13.9,13.9
		C105.6,99.3,99.4,105.6,91.6,105.6z M83.3,91.6c0,4.6,3.7,8.4,8.3,8.4c4.6,0.1,8.5-3.7,8.5-8.4c0-4.6-3.7-8.4-8.3-8.4
		C87.1,83.2,83.3,86.9,83.3,91.6z"/>
	<path class="st1" d="M41.4,27.2c7.7,0,13.9,6.4,13.9,14.1c0,7.6-6.3,13.9-14,13.9c-7.8,0-14-6.4-14-14.2
		C27.4,33.3,33.8,27.1,41.4,27.2z M41.4,49.6c4.6-0.1,8.3-3.8,8.3-8.4c0-4.6-3.8-8.4-8.5-8.4c-4.5,0-8.3,3.9-8.3,8.4
		C33,45.9,36.8,49.6,41.4,49.6z"/>
	<path class="st2" d="M136.3,41.2c0,7.7-6.3,14-14,14c-7.7,0-13.9-6.4-13.9-14.1c0-7.6,6.3-13.9,13.9-13.9
		C130.1,27.2,136.3,33.5,136.3,41.2z M114,41.2c0,4.7,3.9,8.4,8.5,8.4c4.6-0.1,8.3-3.8,8.3-8.4c0-4.6-3.8-8.4-8.5-8.4
		C117.7,32.8,114,36.7,114,41.2z"/>
	<path class="st1" d="M69.1,161.6c-7.7-0.1-13.9-6.4-13.8-14.2c0.1-7.6,6.4-13.8,14-13.8c7.8,0,14,6.4,13.9,14.3
		C83.1,155.5,76.8,161.7,69.1,161.6z M69.4,139.2c-4.6-0.1-8.5,3.7-8.5,8.3c0,4.6,3.7,8.4,8.2,8.5c4.6,0.1,8.4-3.6,8.5-8.2
		C77.7,143.2,74,139.3,69.4,139.2z"/>
	<path class="st1" d="M82,38.4c4.8,0,9.7,0,14.5,0c2.2,0,3.5,1.1,3.5,2.8c0,1.7-1.3,2.8-3.5,2.8c-9.8,0-19.6,0-29.3,0
		c-2.2,0-3.5-1.1-3.5-2.8c0-1.7,1.3-2.8,3.5-2.8C72.1,38.4,77.1,38.4,82,38.4z"/>
	<path class="st1" d="M102.8,150.4c-2.6,0-5.2,0-7.9,0c-2.1,0-3.3-1.1-3.3-2.8c0-1.7,1.2-2.8,3.3-2.8c5.2,0,10.5,0,15.7,0
		c2.1,0,3.3,1.1,3.3,2.8c0,1.7-1.2,2.8-3.3,2.8C108.1,150.4,105.4,150.4,102.8,150.4z"/>
	<path class="st0" d="M147.3,147.6c-2.6,0-5.1,0-7.7,0c-2.1,0-3.3-1.1-3.3-2.8c0-1.7,1.2-2.8,3.3-2.8c5.2,0,10.5,0,15.7,0
		c2.1,0,3.3,1.1,3.3,2.8c0,1.7-1.3,2.8-3.3,2.8C152.7,147.6,150,147.6,147.3,147.6z"/>
	<path class="st0" d="M147.4,158.8c-2.6,0-5.2,0-7.9,0c-2,0-3.3-1.2-3.2-2.9c0-1.6,1.3-2.7,3.2-2.7c5.3,0,10.6,0,15.9,0
		c2,0,3.3,1.2,3.2,2.9c0,1.6-1.2,2.7-3.2,2.7C152.8,158.8,150.1,158.8,147.4,158.8z"/>
</g>
</svg>
