<?xml version="1.0" encoding="utf-8"?>
<!-- Generator: Adobe Illustrator 24.0.0, SVG Export Plug-In . SVG Version: 6.00 Build 0)  -->
<svg version="1.1" id="Capa_1" xmlns="http://www.w3.org/2000/svg" xmlns:xlink="http://www.w3.org/1999/xlink" x="0px" y="0px"
	 viewBox="0 0 283.5 283.5" style="enable-background:new 0 0 283.5 283.5;" xml:space="preserve">
<style type="text/css">
	.st0{fill:#ACAEAF;}
	.st1{fill:#FE9900;}
	.st2{fill:#1C3247;}
</style>
<g>
	<path class="st0" d="M187.5,11.2c1.5,1.3,3.2,2.5,4.6,3.9c13.6,13.6,27.2,27.2,40.9,40.8c2.1,2.1,3.1,4.4,3.1,7.4
		c0,66.7,0,133.3,0,200c0,5.5-1.8,7.3-7.3,7.3c-58.2,0-116.4,0-174.7,0c-5.5,0-7.2-1.7-7.2-7.3c0-81.6,0-163.2,0-244.8
		c0-3.2,0.8-5.8,3.9-7.2C96.3,11.2,141.9,11.2,187.5,11.2z M57.4,260c56.2,0,112.1,0,168,0c0-64.6,0-129.1,0-193.7
		c-1.2,0-2.1,0-3.1,0c-11.5,0-23,0-34.4,0c-5,0-6.9-1.9-6.9-6.8c0-11.6,0-23.3,0-34.9c0-0.9,0-1.8,0-2.8c-41.4,0-82.4,0-123.6,0
		C57.4,101.2,57.4,180.5,57.4,260z M191.4,55.6c8.8,0,17.5,0,25.9,0c-8.6-8.6-17.3-17.3-25.9-25.9C191.4,38.2,191.4,46.8,191.4,55.6
		z"/>
	<path class="st0" d="M141.4,179.3c-4.8,5.9-9.4,11.4-13.9,17.2c-2.1,2.7-4.5,3.9-8,3.8c-13.1-0.2-26.2-0.1-39.2,0
		c-2.5,0-4.8-0.4-6-2.8c-1.3-2.6-0.2-4.7,1.4-6.7c11.8-14.5,23.6-29.1,35.4-43.7c0.6-0.8,1.3-1.6,2-2.5c-0.7-0.9-1.3-1.7-2-2.5
		C99.5,127.5,87.7,113,76,98.5c-0.3-0.3-0.5-0.7-0.8-1c-1.4-1.8-1.9-3.8-0.9-5.9c1-2.1,2.9-2.9,5.2-2.9c8.8,0,17.6,0,26.3,0
		c4.9,0,9.8,0.1,14.7,0c2.7-0.1,4.6,0.9,6.3,3c4.7,5.9,9.5,11.8,14.5,17.9c0.6-0.7,1.2-1.3,1.7-1.9c4.4-5.4,8.8-10.7,13-16.1
		c1.6-2,3.5-2.9,6.1-2.9c13.3,0.1,26.7,0.1,40,0c2.6,0,5,0.3,6.3,2.8c1.3,2.7,0.1,4.8-1.6,6.9c-11.8,14.5-23.5,29-35.2,43.5
		c-0.6,0.8-1.2,1.6-2,2.6c0.7,0.8,1.3,1.7,2,2.5c11.7,14.5,23.5,29,35.2,43.5c0.4,0.5,0.9,1,1.2,1.6c2.3,3.6,0.3,8-4,8.1
		c-14.4,0.1-28.9,0.1-43.3-0.1c-1.5,0-3.3-1.3-4.4-2.5C151.4,191.7,146.5,185.6,141.4,179.3z M192.9,190c-0.5-0.7-0.7-1-0.9-1.3
		c-23.8-29.4-47.6-58.9-71.5-88.3c-0.6-0.8-1.9-1.4-2.9-1.4c-8.4-0.1-16.9-0.1-25.3-0.1c-0.6,0-1.3,0.1-2.3,0.2
		c0.8,1,1.3,1.7,1.9,2.4c3.2,3.9,6.4,7.9,9.6,11.8c20.2,25,40.4,50,60.7,74.9c0.6,0.7,1.5,1.5,2.3,1.5
		C173.8,190,183.1,190,192.9,190z M162.9,136.3c10.1-12.4,19.9-24.6,29.8-36.9c-0.5-0.2-0.7-0.4-1-0.4c-9.1,0-18.2,0-27.3,0
		c-0.6,0-1.4,0.3-1.7,0.8c-4.9,6-9.8,12-14.7,18.1C153,124,157.9,130.1,162.9,136.3z M119.9,152.7c-10.1,12.5-20,24.7-30.2,37.3
		c8.8,0,17-0.2,25.2,0.1c3.4,0.1,5.5-0.9,7.5-3.7c3.9-5.3,8.2-10.2,12.3-15.4C129.8,164.9,125,158.9,119.9,152.7z"/>
	<path class="st1" d="M113.2,251.9c-12.9,0-25.8,0-38.7,0c-0.9,0-1.9,0-2.8-0.1c-2.6-0.3-4.5-2.4-4.6-4.9c-0.1-2.4,1.8-4.7,4.4-5.2
		c0.9-0.2,1.8-0.1,2.8-0.1c26.2,0,52.3,0,78.5,0c1,0,2,0,3,0.2c2.5,0.5,4.1,2.7,4,5.2c-0.1,2.5-1.9,4.4-4.4,4.8
		c-0.9,0.1-1.9,0.1-2.8,0.1C139.4,251.9,126.3,251.9,113.2,251.9z"/>
	<path class="st2" d="M177.9,251.9c-1.1,0-2.2,0-3.3-0.2c-2.5-0.3-4.3-2.3-4.4-4.8c-0.1-2.5,1.5-4.8,3.9-5.1c2.6-0.3,5.2-0.3,7.8,0
		c2.6,0.3,4.2,2.7,4,5.3c-0.2,2.5-2,4.4-4.5,4.6c-1.2,0.1-2.4,0-3.5,0C177.9,251.8,177.9,251.9,177.9,251.9z"/>
</g>
</svg>
