<?xml version="1.0" encoding="utf-8"?>
<!-- Generator: Adobe Illustrator 24.0.0, SVG Export Plug-In . SVG Version: 6.00 Build 0)  -->
<svg version="1.1" id="Capa_1" xmlns="http://www.w3.org/2000/svg" xmlns:xlink="http://www.w3.org/1999/xlink" x="0px" y="0px"
	 viewBox="0 0 200 200" style="enable-background:new 0 0 200 200;" xml:space="preserve">
<style type="text/css">
	.st0{fill:#ACAEAF;}
	.st1{fill:#FE9900;}
</style>
<g>
	<path class="st0" d="M46.3,132.7c0.7,0.9,1.5,1.8,2.1,2.6c1.5-1.5,2.7-2.8,4.1-4.2c-9.2-15.9-8.7-31.8,1.8-47.6c-1.5,0-2.8,0-4.1,0
		c-5.9,0-11.8,0-17.6,0c-8.4,0-14.4-6-14.5-14.4c0-10.9,0-21.8,0-32.7c0-8.4,6-14.4,14.4-14.4c4.4,0,8.7,0,13.1,0
		c0.9,0,1.4-0.2,1.8-1.1c3.1-6.5,8.2-10.1,15.4-10c7.2,0.1,12.3,3.7,15.3,10.2c0.1,0.3,0.3,0.5,0.5,0.9c4.6,0,9.3,0,13.9,0
		c9.1,0,14.9,5.9,14.9,15c0,5.6,0,11.2,0,16.8c0,0.6,0,1.3,0,1.8c5.6,0,10.9,0,16.3,0c1,0,1.5-0.3,1.9-1.2c3.1-6.4,8.2-9.9,15.3-9.9
		c7.1,0,12.1,3.6,15.2,9.9c0.4,0.9,0.9,1.3,1.9,1.2c4.4-0.1,8.7,0,13.1,0c8.4,0,14.4,6,14.4,14.4c0,10.9,0,21.8,0,32.7
		c0,8.3-6.1,14.5-14.3,14.3c-3.1-0.1-5.7,0.7-8.2,2.5c-5,3.5-10.1,6.8-15.2,10.2c-0.4,0.2-0.8,0.5-1.3,0.8c0-4.6,0-8.9,0-13.5
		c-0.7,0-1.2,0-1.8,0c-4.7,0-9.3,0.1-14,0c-1.5,0-2,0.5-2.4,1.9c-4.9,17.1-16.1,27.6-33.7,31c-9.9,1.9-19.2-0.1-27.9-5
		c-0.6-0.3-1.1-0.6-1.7-1c-1.2,1.3-2.4,2.7-3.9,4.3c0.8,0.5,1.8,1.2,2.9,1.9c-0.1,0.2-0.3,0.3-0.4,0.5c-0.1,0.2-0.2,0.4-0.4,0.5
		c-7.9,7.9-15.7,15.8-23.6,23.6c-7,6.8-18.3,4.1-21.1-5.1c-1.4-4.5-0.7-8.7,2.6-12C29.4,149.2,37.7,141.1,46.3,132.7z M124.3,108.6
		c0-20-16.4-36.3-36.4-36.3c-20,0-36.3,16.4-36.3,36.4c0,20,16.4,36.3,36.4,36.3C108,145,124.3,128.6,124.3,108.6z M151.4,74.3
		c6.2,2.7,11,6.9,14.2,12.8c3.2,5.9,3.7,12.2,3.2,18.9c-13.1,0-26,0-39,0c0,1.9,0,3.6,0,5.6c7.5,0,14.9,0,22.4,0c0,2.9,0,5.6,0,8.7
		c2.5-1.7,5-3.1,7.1-4.8c3.7-3,7.6-4.4,12.5-4c4.6,0.3,8.2-3.5,8.3-8.1c0.1-11.3,0.1-22.6,0-33.9c0-4.2-3.1-7.8-7.2-8.1
		c-5-0.3-10-0.1-15.1-0.1C157.7,66.5,155.5,70.8,151.4,74.3z M34.9,72.3c-0.3-6.1-0.1-11.8,2.5-17.3c3.1-6.6,8.2-11.3,15-14.3
		c-4.2-3.5-6.2-7.8-6.5-13c-0.2-0.1-0.3-0.2-0.4-0.2c-4.3,0-8.6,0-12.9,0c-5.5,0-9,3.5-9,8.9c0,10.8,0,21.7,0,32.5
		c0,5.3,3.5,8.9,8.9,8.9c8.6,0,17.1,0,25.7,0c0.5,0,1.1,0.1,1.5-0.2c2.3-1.7,4.5-3.5,7-5.4C56,72.3,45.6,72.3,34.9,72.3z M73.2,40.7
		c11.2,5.3,17,13.9,17.6,26.1c0.9,0.1,1.8,0.2,2.7,0.3c1,0.1,1.9,0.3,2.8,0.4c1.3-4.6,1.8-5.4,4.9-8.6c0.4-0.4,0.6-1.1,0.6-1.7
		c0-7,0-14,0-21c0-5-3.6-8.6-8.6-8.6c-3.4,0-6.8,0-10.1,0c-1.2,0-2.4,0-3.6,0C79.4,33,77.3,37.3,73.2,40.7z M45.9,140.8
		c-6.9,6.8-13.8,13.6-20.6,20.5c-1.6,1.6-2,3.8-1.5,6c0.6,2.6,2.2,4.4,4.8,5.2c2.8,0.9,5.2,0.1,7.2-1.9c6.4-6.4,12.8-12.8,19.2-19.2
		c0.3-0.3,0.5-0.6,0.7-0.8C52.5,147.4,49.2,144.1,45.9,140.8z M73.9,27.8c0.1-6.2-4.8-11.3-11-11.4c-6.1-0.1-11.2,4.8-11.4,10.8
		c-0.1,6.2,4.7,11.4,10.9,11.5C68.7,38.9,73.8,34,73.9,27.8z M141,72.3c6.2,0,11.2-5.1,11.2-11.2c0-6.1-5-11.1-11.1-11.1
		c-6.2,0-11.2,5-11.3,11.1C129.8,67.3,134.9,72.3,141,72.3z M124.2,61.2c-5,0-10-0.2-14.9,0.1c-3.5,0.2-6.3,3-7.2,6.4
		c-0.3,1.2,0.1,1.5,1.1,2.1c3.5,1.9,7.1,3.7,10.4,5.9c2.4,1.6,4.4,3.9,6.3,5.6c3.5-2.5,6.9-4.9,10.3-7.3
		C125.8,69.3,124.7,67,124.2,61.2z M56.3,45.5c-8.7,2-16.4,11.8-15.7,21.1c4.6,0,9.2,0,14,0C55.2,59.6,55.7,52.6,56.3,45.5z
		 M85,66.6c0.8-8.7-7.7-20.1-15.7-21c0.6,7,1.1,14,1.7,21C75.8,66.6,80.4,66.6,85,66.6z M147.5,79.1c0.6,7.2,1.1,14.2,1.7,21.2
		c2.5,0,4.8,0,7.2,0c2.3,0,4.6,0,6.9,0C163.9,91.2,156.3,81,147.5,79.1z M134.5,79c-4.4,1.3-7.8,3.6-10.5,6.9
		c-0.3,0.3-0.2,1.1,0,1.5c1.6,4,3.2,8,4.8,11.9c0.2,0.4,0.7,0.9,1.1,0.9c0.9,0.1,1.9,0,2.9,0C133.4,93.1,134,86.1,134.5,79z
		 M143.6,100.2c-0.2-2.1-0.3-4-0.4-5.9c-0.4-5.1-0.8-10.2-1.3-15.3c0-0.4-0.5-0.7-0.7-1.1c-0.3,0.4-0.7,0.7-0.9,1.1
		c-0.1,0.1-0.1,0.3-0.1,0.5c-0.5,6.3-1,12.6-1.5,19c0,0.5,0,1.1,0,1.7C140.3,100.2,141.8,100.2,143.6,100.2z M65.3,66.7
		c-0.6-7.1-1.1-14-1.7-20.9c0-0.5-0.6-0.9-0.9-1.4c-0.3,0.5-0.8,0.9-0.9,1.4c-0.4,4.4-0.7,8.8-1.1,13.2c-0.2,2.5-0.4,5.1-0.6,7.7
		C62,66.7,63.6,66.7,65.3,66.7z M60.1,140.6c-1.3-1.4-2.7-2.9-4-4.3c-1,1.1-2.1,2.1-3,3.1c1.4,1.4,2.7,2.8,4.1,4.2
		C58.3,142.5,59.3,141.4,60.1,140.6z"/>
	<path class="st1" d="M158,133.8c8.1,0,16.2,0,24.3,0c5.6,0,9.1,3.5,9.1,9c0,10.8,0,21.5,0,32.3c0,5.5-3.5,9-8.9,9
		c-16.4,0-32.8,0-49.2,0c-5.4,0-8.9-3.5-8.9-8.8c0-10.9,0-21.8,0-32.7c0-5.3,3.6-8.8,8.9-8.8C141.4,133.8,149.7,133.8,158,133.8z
		 M157.8,178.5c8.1,0,16.2,0,24.3,0c2.7,0,3.7-0.9,3.7-3.7c0-10.6,0-21.2,0-31.8c0-2.7-0.9-3.7-3.7-3.7c-16.2,0-32.4,0-48.6,0
		c-2.7,0-3.7,0.9-3.7,3.7c0,10.6,0,21.2,0,31.8c0,2.7,0.9,3.7,3.7,3.7C141.6,178.5,149.7,178.5,157.8,178.5z"/>
	<path class="st0" d="M57.2,108.6c0-16.9,13.9-30.7,30.9-30.6c16.9,0,30.7,13.9,30.6,30.9c-0.1,16.9-13.9,30.6-30.8,30.6
		C70.9,139.4,57.2,125.5,57.2,108.6z M62.8,108.5c0,13.8,11.2,25.2,24.9,25.3c13.9,0.1,25.3-11.2,25.4-25
		c0-13.8-11.2-25.2-24.9-25.3C74.2,83.4,62.8,94.7,62.8,108.5z"/>
	<path class="st0" d="M174.5,66.8c0,1.9,0,3.6,0,5.4c-1.8,0-3.5,0-5.4,0c0-1.7,0-3.5,0-5.4C170.8,66.8,172.6,66.8,174.5,66.8z"/>
	<path class="st0" d="M169.1,78c1.8,0,3.5,0,5.4,0c0,1.8,0,3.6,0,5.4c-1.8,0-3.5,0-5.4,0"/>
	<path class="st0" d="M29.3,38.6c0-1.8,0-3.5,0-5.4c1.8,0,3.6,0,5.4,0c0,1.8,0,3.5,0,5.4C33,38.6,31.2,38.6,29.3,38.6z"/>
	<path class="st0" d="M29.3,44.5c1.8,0,3.5,0,5.4,0c0,1.7,0,3.5,0,5.4c-1.7,0-3.5,0-5.4,0C29.3,48.1,29.3,46.3,29.3,44.5z"/>
	<path class="st1" d="M180.1,167.3c0,2,0,3.7,0,5.5c-14.8,0-29.6,0-44.5,0c0-9.2,0-18.4,0-27.7c1.8,0,3.5,0,5.4,0
		c0,7.3,0,14.7,0,22.2c2,0,3.7,0,5.6,0c0-1.8,0-3.5,0-5.4c1.9,0,3.7,0,5.6,0c0,1.8,0,3.5,0,5.4c1.9,0,3.6,0,5.6,0c0-3.6,0-7.3,0-11
		c2,0,3.7,0,5.6,0c0,3.7,0,7.2,0,10.9c1.9,0,3.7,0,5.6,0c0-5.5,0-11,0-16.6c1.9,0,3.6,0,5.5,0c0,5.5,0,11,0,16.6
		C176.4,167.3,178.1,167.3,180.1,167.3z"/>
</g>
</svg>
