<?xml version="1.0" encoding="utf-8"?>
<!-- Generator: Adobe Illustrator 24.0.0, SVG Export Plug-In . SVG Version: 6.00 Build 0)  -->
<svg version="1.1" id="Capa_1" xmlns="http://www.w3.org/2000/svg" xmlns:xlink="http://www.w3.org/1999/xlink" x="0px" y="0px"
	 viewBox="0 0 200 200" style="enable-background:new 0 0 200 200;" xml:space="preserve">
<style type="text/css">
	.st0{fill:#ACAEAF;}
	.st1{fill:#FE9900;}
</style>
<g>
	<path class="st0" d="M101.1,9.7c3.6,0.6,7.3,1,10.9,1.8c2.5,0.6,4.9,1.7,7.2,2.7c1.8,0.8,2.3,2.2,1.6,3.7c-0.7,1.4-2.2,1.9-3.9,1
		c-6.2-3-12.8-4.2-19.6-3.7C80.7,16.4,66,29.7,63.4,46.1c-1.7,10.2,0.4,19.6,6.2,28.2c0.4,0.5,1,1.1,1.5,1.2
		c8.2,0.9,10,1.8,14.9,7.5c1.9-1.8,3.8-3.6,5.7-5.5c-0.6-1.9-1.3-4-2-6.2c-3.3,0.2-6.5,2.4-9.8,0.4c-2.8-1.7-3.7-4.8-5.2-7.4
		c-3-5.3,1.5-8.1,4.3-11.4c-1.8-2.8-5.3-4.5-5.2-8.3c0.1-3.3,2.3-5.7,3.9-8.4c3.1-5.2,7.7-2.5,11.9-1.9c1.5-2.9,1.2-6.8,4.6-8.7
		c2.9-1.6,6.1-0.8,9.2-0.8c6.1,0,6,5.4,7.6,9.4c3.3-0.2,6.5-2.4,9.7-0.4c2.8,1.7,3.8,4.9,5.3,7.6c2.9,5.3-1.6,8-4.4,11.4
		c1.1,1.2,2.2,2.4,3.3,3.6c2.3,2.5,2.6,5.1,0.9,8.1c-0.9,1.6-1.8,3.2-2.7,4.7c-1.7,2.7-4.1,3.8-7.2,3.1c-1.6-0.3-3.2-0.7-4.9-1.1
		c-0.4,1.1-0.7,2.2-1.1,3.2c-0.3,1.1-0.7,2.1-1,3.1c1.9,1.8,3.8,3.6,5.8,5.5c0.4-0.5,0.9-1.2,1.4-1.8c3.4-3.7,7.6-5.7,12.6-5.7
		c1.2,0,1.8-0.4,2.4-1.3c10.2-14.6,8.7-34.7-3.7-47.5c-0.3-0.3-0.7-0.7-1-1c-1-1.2-0.9-2.7,0.1-3.7c1-1,2.5-1.1,3.6,0
		c1.6,1.7,3.2,3.4,4.6,5.3c10.3,14,11.1,32.6,2.2,47.5c-0.4,0.7-0.8,1.3-1.2,2.1c5.1,2.6,8.4,6.6,9.5,12.2c1.1,5.6-0.5,10.6-4.3,15
		c0.4,0.2,0.8,0.4,1.1,0.5c7.4,2.1,12.2,9.2,11.4,17c-0.2,1.5-1.2,2.5-2.6,2.5c-1.4,0-2.5-1-2.6-2.5c-0.1-1.2,0-2.4-0.2-3.5
		c-0.8-4.9-4.5-8.4-9.5-8.6c-5.6-0.2-11.3-0.1-16.9-0.1c0,0.2-0.1,0.3-0.1,0.4c2.8,3.7,3.6,7.9,3.4,12.5c-0.2,3.5-0.1,7.1,0,10.6
		c0,0.6,0.4,1.4,0.8,1.6c6.2,2.5,8.8,10,5.6,15.8c0,0.1,0,0.2,0,0.6c2.3,0,4.5,0,6.8,0c1.5,0,3.1-0.1,4.6,0c1.8,0.2,3.1-0.4,4.3-1.8
		c0.7-0.9,1.2-1.6,1.1-2.8c-0.1-3.9,0-7.8,0-11.6c0-2.2,1-3.4,2.7-3.4c1.7,0,2.6,1.3,2.6,3.5c0,2.5,0,4.9,0,7.7
		c0.7-0.6,1.2-1,1.6-1.5c5.2-5.2,10.6-10.4,15.7-15.7c6.8-7.2,17.7-3.6,19.5,4.9c0,0.2,0.2,0.4,0.3,0.6c0,1.3,0,2.6,0,3.9
		c-0.9,2.4-2,4.6-3.9,6.5c-9.4,9.4-18.8,18.8-28.2,28.2c-2.3,2.3-4.9,3.9-8,4.9c-13.1,4-26.2,8.1-39.3,12.2
		c-5.2,1.6-10.4,1.6-15.7,1.1c-1.7-0.2-2.6-1.3-2.6-2.8c0.1-1.5,1.1-2.5,2.8-2.5c1,0,2,0,3,0.1c4,0.5,7.8-0.1,11.6-1.3
		c10.5-3.2,20.9-6.5,31.4-9.7c12.3-3.9,8.9-1.8,18.3-11.2c7.7-7.6,15.3-15.3,22.9-22.9c1.7-1.7,2.7-3.6,2.1-6
		c-0.5-2.2-1.9-3.7-4.1-4.4c-2.4-0.7-4.4,0.1-6.1,1.8c-8.5,8.5-17,16.9-25.4,25.5c-1.3,1.4-2.7,2-4.6,1.9C129,156,113,156,97.1,156
		c-3.1,0-6-0.1-7.8,2.9c0,0-0.1,0.1-0.1,0.1c-1.2,0.9-2.7,0.9-3.7-0.1c-1-1-1-2.5,0-3.7c0.9-1,2-1.9,2.8-2.9c1.1-1.3,2.4-1.7,4-1.7
		c9.3,0.1,18.5,0,27.8,0c0.8,0,1.6,0,2.5-0.1c3.5-0.6,5.6-3.9,4.7-7.3c-0.7-2.6-3-4.3-6.1-4.4c-8.6,0-17.1,0-25.7-0.1
		c-1.1,0-2.4-0.5-3.3-1.2c-2.1-1.4-3.9-3.2-6-4.7c-6.1-4.3-12.9-5.7-20.2-4.1c-5.4,1.1-9.7,4.4-13.8,7.7c-0.9,0.7-1.2,1.4-1.2,2.5
		c0,12.9,0,25.8,0,38.6c0,0.6,0,1.1,0,1.7c4.4,0.3,8.5,0.5,12.6,0.8c6.4,0.4,12.9,0.8,19.3,1.3c1.9,0.1,3,1.3,2.8,2.9
		c-0.2,1.5-1.4,2.4-3.2,2.3c-5.7-0.3-11.5-0.8-17.2-1.1c-8.4-0.4-16.8-0.7-25.1-1.1c-0.6,0-1.2,0.1-1.8,0.1
		c-0.5,4.7-0.5,4.7-2.5,5.8c-7.7,0-15.5,0-23.2,0c-1.5-0.6-2.5-1.4-2.5-3.2c0-18.8,0-37.5,0-56.3c0-2,1-3,2.9-3c7.4,0,14.8,0,22.2,0
		c1.9,0,2.9,1,3,2.9c0,0.9,0,1.7,0,2.6c3.1,0,5.9,0,8.9,0c0-4.7,0-9.4,0-14c0.1-7,4.5-12.8,11.2-14.8c0.4-0.1,0.8-0.3,1.3-0.4
		c-7.8-8.9-5.5-21.8,5.2-27.3c-0.2-0.3-0.4-0.7-0.6-1c-3.9-6.2-6.1-12.9-6.6-20.2c-1.6-20.4,12.6-39.9,32.5-44.5
		c3-0.7,6.1-1,9.2-1.4C99.9,9.7,100.5,9.7,101.1,9.7z M91.2,65.4c1.5,0.1,2.6,0.8,3,2.3c0.6,2.1,1.3,4.1,1.9,6.2
		c0.3,1.1,0.8,1.6,2,1.5c1.5-0.1,3.1-0.1,4.6,0c1.1,0,1.6-0.4,1.9-1.4c0.6-2.1,1.2-4.2,1.9-6.2c0.6-2,1.9-2.7,3.9-2.2
		c2.1,0.4,4.1,0.9,6.2,1.4c1.1,0.3,1.8,0.1,2.3-0.9c0.7-1.3,1.4-2.6,2.2-3.8c0.6-1,0.6-1.8-0.3-2.6c-1.5-1.5-2.9-3.1-4.3-4.7
		c-1.4-1.6-1.4-2.9,0-4.5c1.5-1.6,3-3.1,4.4-4.8c0.4-0.5,0.5-1.5,0.3-2.1c-0.7-1.5-1.6-2.9-2.4-4.3c-0.5-0.9-1.1-1-2-0.8
		c-2,0.5-4.1,0.9-6.2,1.4c-2.2,0.5-3.4-0.2-4.1-2.4c-0.6-2-1.3-3.9-1.8-5.9c-0.3-1.1-0.8-1.6-2-1.5c-1.5,0.1-2.9,0.1-4.4,0
		c-1.2-0.1-1.8,0.3-2.1,1.5c-0.5,2-1.2,4.1-1.9,6.1c-0.7,2-1.9,2.7-3.9,2.2c-2.1-0.5-4.2-0.9-6.3-1.4c-1-0.2-1.5,0-2,0.8
		c-0.7,1.4-1.5,2.8-2.4,4.1c-0.6,0.9-0.5,1.6,0.2,2.3c1.5,1.5,2.9,3.1,4.3,4.7c1.6,1.7,1.6,3,0,4.8c-1.4,1.5-2.7,3.1-4.2,4.5
		c-0.8,0.8-0.9,1.5-0.3,2.5c0.8,1.2,1.5,2.5,2.2,3.8c0.5,1.1,1.2,1.4,2.4,1C86.5,66.4,88.9,66,91.2,65.4z M15.5,184.9
		c0.6,0,1.2,0,1.8,0c4.6,0,9.2-0.1,13.7,0c1.5,0,2-0.4,2-1.9c-0.1-16,0-32,0-48c0-0.6,0-1.1,0-1.7c-6,0-11.7,0-17.5,0
		C15.5,150.5,15.5,167.6,15.5,184.9z M119.6,133.5c0.1-0.3,0.2-0.4,0.2-0.6c0-4.4,0-8.8,0-13.2c0-6-4.1-10.3-10.1-10.5
		c-6.2-0.1-12.4-0.1-18.6,0c-5,0.1-9,3.4-9.8,8.2c-0.4,2-0.2,4.1-0.2,6.1c0,0.3,0.4,0.8,0.8,1c4.8,1.6,8.7,4.7,12.6,7.9
		c0.6,0.5,1.3,1,2,1C104,133.6,111.8,133.5,119.6,133.5z M128.9,104c6.4,0,11.5-5.2,11.6-11.5c0-6.4-5.2-11.7-11.6-11.6
		c-6.4,0-11.5,5.2-11.5,11.5C117.2,98.8,122.4,104,128.9,104z M71.9,104c6.4,0,11.5-5.1,11.5-11.5c0-6.5-5.1-11.7-11.6-11.6
		c-6.3,0-11.5,5.2-11.6,11.5C60.2,98.7,65.5,104,71.9,104z M100.4,104c6.4,0,11.6-5.1,11.6-11.5c0.1-6.4-5.2-11.7-11.6-11.7
		c-6.4,0-11.6,5.2-11.6,11.7C88.8,98.8,94,104,100.4,104z M52.5,129.6c7-5.4,14.6-7.3,23.3-6.5c-0.5-5.1,0.3-9.7,3.7-13.8
		c-6.1,0-11.7-0.2-17.3,0.1c-5.1,0.2-9.1,4-9.5,9C52.3,121.9,52.5,125.6,52.5,129.6z M38.4,138.9c0,13.5,0,26.8,0,40.2
		c2.5,0,4.8,0,7.2,0c0-13.4,0-26.8,0-40.2C43.2,138.9,40.9,138.9,38.4,138.9z"/>
	<path class="st0" d="M24.2,139.1c1.6,0,2.8,1.2,2.9,2.7c0.1,1.5-1.3,3-2.9,3c-1.5,0-2.8-1.3-2.8-2.8
		C21.4,140.4,22.6,139.1,24.2,139.1z"/>
	<path class="st0" d="M27.1,153.3c0,1.5-1.3,2.8-2.8,2.8c-1.6,0-2.9-1.3-2.8-2.9c0.1-1.6,1.3-2.8,2.9-2.7
		C25.8,150.5,27.1,151.8,27.1,153.3z"/>
	<g>
		<path class="st1" d="M100.3,44.4c-4.6,0-8.3,3.8-8.3,8.3c0,4.6,3.9,8.4,8.4,8.4c4.5-0.1,8.3-3.8,8.3-8.3
			C108.7,48.2,104.9,44.3,100.3,44.4z M100.4,55.8c-1.7,0-3.1-1.5-3.1-3.2c0.1-1.6,1.5-3,3.1-2.9c1.6,0,3,1.4,3,3.1
			C103.4,54.4,102,55.8,100.4,55.8z"/>
	</g>
</g>
</svg>
