<?xml version="1.0" encoding="utf-8"?>
<!-- Generator: Adobe Illustrator 24.0.0, SVG Export Plug-In . SVG Version: 6.00 Build 0)  -->
<svg version="1.1" id="Capa_1" xmlns="http://www.w3.org/2000/svg" xmlns:xlink="http://www.w3.org/1999/xlink" x="0px" y="0px"
	 viewBox="0 0 200 200" style="enable-background:new 0 0 200 200;" xml:space="preserve">
<style type="text/css">
	.st0{fill:#ACAEAF;}
	.st1{fill:#FE9900;}
	.st2{fill:#1C3247;}
</style>
<g>
	<path class="st0" d="M168.6,77.4c0-5.3,0-10.1,0-15.1c0-2.1-1.2-3.2-3.5-3.2c-3.9,0-7.9,0-11.8,0c-12.3,0-24.7,0-37,0
		c-0.8,0-1.4,0-2.3,0c0,6.1,0,12.1,0,18.3c0.6,0,1.4,0,2,0c12,0,24.1,0,36,0c0.6,0,1.4,0,2,0c1.7,0.3,2.6,1.4,2.6,3
		s-0.9,2.6-2.6,2.9c-0.6,0.2-1.2,0-2,0c-12,0-24.1,0-36,0c-0.8,0-1.4,0-2.3,0c0,2.6-0.2,5.1,0.2,7.6c0,0.6,1.1,1.4,1.7,1.5
		c1.4,0.3,2.7,0,3.9,0.2c3.2,0,5.6,1.4,7,4.1c1.5,2.9,1.2,5.6-0.8,8.2c-5,6.7-9.8,13.2-14.8,19.8c-0.3,0.3-0.5,0.8-1.1,1.4
		c2.7,0,5,0,7.4,0c2,0,3.8,0,5.8,0c5,0.2,8.9,4.2,8.9,9.1c0,5-3.9,8.9-8.8,9.2c-1.5,0-3.2,0-4.7,0c-2,0-3.2-1.4-3.2-3.2
		c0-1.7,1.4-2.9,3.2-2.9c1.4,0,2.7,0,3.9,0c2.1,0,3.6-1.4,3.5-3.2c0-1.8-1.4-2.9-3.5-2.9c-8.5,0-17.1,0-25.6,0c-5.3,0-10.6,0-15.9,0
		c-2.6,0-3.9,1.2-3.9,3.2c0,1.8,1.5,3,3.9,3c9.1,0,18.2,0,27.3,0c1.2,0,2.7,0.6,3.3,1.5c1.5,2-0.2,4.5-2.9,4.5c-5.5,0-10.9,0-16.4,0
		c-3.9,0-8,0-12,0c-5.3,0-9.4-4.1-9.4-9.2c0-5.1,4.1-9.1,9.5-9.1c3.9,0,7.9,0,11.8,0c0.2,0,0.3,0,0.6-0.2c-0.5-0.6-0.8-1.2-1.2-1.7
		c-4.7-6.2-9.2-12.4-13.9-18.6c-2.1-2.7-3-5.6-1.4-8.8c1.7-3.2,4.4-4.4,7.9-4.2c5.5,0.2,5.1,0.5,5-5c0-1.4,0-2.6,0-4.1
		c-0.9,0-1.5,0-2.3,0c-15.4,0-30.9,0-46.3,0c-3.2,0-3.9,0.5-4.5,3.6c-5.6,23.6-11.1,47.4-16.7,71c-0.8,3.3,0.5,4.7,3.8,4.7
		c1.5,0,2.9,0,4.4,0c2.3,0,3.6,1.2,3.6,3c0,1.8-1.4,3-3.5,3c-2,0-3.8,0-5.8,0c-5-0.2-8.9-3.9-9.1-8.9c0-0.5,0-1.1,0-1.5
		c0-35.7,0-71.5,0-107.2c0-6.8,3.6-10.5,10.5-10.5c5.6,0,11.4,0,17,0c3.2,0,5.6,1.1,7.9,3.2c2.6,2.6,5.1,5.1,7.7,7.6
		c0.8,0.8,2,1.4,3,1.4c9.8,0.2,19.5,0,29.4,0c0.3,0,0.5,0,0.9-0.2c0-4.1,0-8.3,0-12.4c0-5.9,2.9-8.9,8.9-8.9c2,0,3.8,0.2,5.8,0
		c6.4-0.6,10.3,3.2,9.8,10c-0.3,3.8,0,7.4,0,11.5c0.9,0,1.7,0,2.3,0c16.1,0,32.1,0,48.3,0c6.5,0,10.1,3.6,10.1,10.1
		c0,4.7,0,9.4,0,14.4c1.8,0,3.6,0.2,5.3,0c7.3-0.5,11.1,5.9,10,11.8c-4.5,23.9-8.8,48-13,71.9c-0.9,4.8-4.4,7.7-9.4,7.7
		c-40,0-80,0-120,0c-2.4,0-3.8-1.2-3.8-3c0-2,1.4-3,3.9-3c39.4,0,78.9,0,118.3,0c3.9,0,4.5-0.5,5.1-4.4c4.2-23.5,8.5-47,12.7-70.6
		c0.6-3-0.6-4.4-3.8-4.4c-5.6,0-11.1,0-16.7,0c-2.4,0-3.8-1.1-3.9-3c0-2,1.4-3.2,3.9-3.2C165.1,77.4,166.8,77.4,168.6,77.4z
		 M19.3,131.4c0.2,0,0.2,0,0.3,0c0.2-0.5,0.3-0.9,0.5-1.4c3.5-14.8,7-29.5,10.3-44.4c1.4-5.6,4.5-8.2,10.3-8.2c15.4,0,31,0,46.5,0
		c0.8,0,1.5,0,2.3,0c0-6.2,0-12.3,0-18.3c-10,0-20,0-29.8,0c-3,0-5.6-1.1-7.7-3.2c-2.4-2.6-5-5.1-7.6-7.4c-0.9-0.9-2.4-1.5-3.6-1.5
		c-5.6-0.2-11.2,0-16.8,0c-3.6,0-4.4,0.9-4.4,4.5c0,21.2,0,42.4,0,63.5C19.3,120.5,19.3,125.9,19.3,131.4z M107.7,65.9L107.7,65.9
		c0-8.5,0-17.1,0-25.6c0-1.8-0.6-2.6-2.4-2.6c-2.1,0.2-4.4,0-6.5,0c-3.3,0-3.3,0-3.3,3.3c0,16.5,0,33,0,49.5c0,5-3.2,8.2-8.2,8.2
		c-1.1,0-2.1-0.2-3,0c-0.8,0.2-2,0.3-2.3,0.9c-0.3,0.5,0.2,1.7,0.6,2.3c5.6,7.7,11.4,15.3,17.1,22.9c1.4,1.8,2.1,1.8,3.6,0
		c3.5-4.7,7-9.2,10.5-13.9c2.3-3,4.7-6.2,7-9.4c0.3-0.5,0.6-1.5,0.5-1.8c-0.3-0.5-1.2-0.9-1.8-0.9c-1.1-0.2-2.1,0-3.2,0
		c-5.3,0-8.3-3-8.3-8.5C107.7,82.3,107.7,74.1,107.7,65.9z"/>
	<path class="st0" d="M37.5,169.1c-1.7,0-3-1.5-3-3.2c0-1.7,1.5-3,3.2-3s3,1.5,3,3.2C40.5,167.7,39.1,169.1,37.5,169.1z"/>
	<path class="st1" d="M27.6,53.1c2,0,3.8,1.7,3.8,3.6c0.2,2.1-1.7,3.9-3.8,3.9s-3.9-1.8-3.8-3.8C23.8,54.9,25.5,53.1,27.6,53.1z"/>
	<path class="st2" d="M39.9,53.1c2,0,3.8,1.7,3.8,3.8c0,2.1-1.8,3.9-3.9,3.8c-2.1,0-3.8-1.8-3.8-3.9C36.1,54.7,37.9,53.1,39.9,53.1z
		"/>
</g>
</svg>
