<?xml version="1.0" encoding="utf-8"?>
<!-- Generator: Adobe Illustrator 24.0.0, SVG Export Plug-In . SVG Version: 6.00 Build 0)  -->
<svg version="1.1" id="Capa_1" xmlns="http://www.w3.org/2000/svg" xmlns:xlink="http://www.w3.org/1999/xlink" x="0px" y="0px"
	 viewBox="0 0 80 80" style="enable-background:new 0 0 80 80;" xml:space="preserve">
<style type="text/css">
	.st0{fill:#ACAEAF;}
	.st1{fill:#FE9900;}
	.st2{fill:#1C3247;}
</style>
<g>
	<path class="st0" d="M13.74,52.82c-0.09-2.1,0.23-4.05,1.32-5.8c1.83-2.97,4.52-4.55,8-4.64c2.75-0.07,5.5-0.04,8.26-0.01
		c5.23,0.07,9.3,4.16,9.38,9.4c0.01,0.42,0,0.84,0,1.38c0.87,0,1.7,0,2.53,0c1.29,0,2.58,0,3.88,0c1.06,0.01,1.68,0.5,1.68,1.35
		c0,0.84-0.62,1.35-1.68,1.35c-8.17,0-16.34,0-24.52,0c-2.42,0-4.83,0.01-7.25,0c-4.09-0.02-6.99-2.91-6.99-7.02
		c-0.01-7.92-0.01-15.84,0-23.76c0.01-4.05,2.91-6.96,6.95-6.97c6.99-0.01,13.99-0.02,20.98,0.03c0.51,0,1.18,0.29,1.5,0.67
		c0.6,0.72,0.04,1.81-0.92,1.97c-0.27,0.05-0.56,0.03-0.84,0.03c-6.82,0-13.65,0-20.47,0c-2.87,0-4.5,1.62-4.5,4.48
		c0,7.84,0,15.67,0,23.51C11.05,50.78,11.96,52.19,13.74,52.82z M19.13,53.11c0-0.48,0-0.87,0-1.26c0-0.39-0.01-0.79,0-1.18
		c0.02-0.98,0.56-1.58,1.37-1.56c0.79,0.02,1.3,0.6,1.32,1.54c0.01,0.81,0,1.61,0,2.45c3.63,0,7.17,0,10.79,0
		c0-0.82-0.01-1.6,0-2.38c0.01-1,0.52-1.6,1.33-1.61c0.82-0.01,1.35,0.59,1.36,1.58c0.01,0.8,0,1.61,0,2.4c0.96,0,1.81,0,2.68,0
		c0-0.62,0.03-1.18,0-1.74c-0.21-3.36-3-6.16-6.35-6.26c-2.94-0.08-5.89-0.09-8.84,0c-4.03,0.13-7.04,4.06-6.25,8.03
		C17.37,53.11,18.2,53.11,19.13,53.11z"/>
	<path class="st1" d="M43.4,28.92c-2.75-0.4-4.04-1.9-4.04-4.57c0-3.34-0.01-6.68,0-10.03c0.01-2.63,1.69-4.31,4.32-4.32
		C48.88,10,54.07,10,59.27,10c2.69,0,4.35,1.68,4.35,4.37c0.01,3.37,0.01,6.74,0,10.11c0,2.73-1.67,4.38-4.42,4.39
		c-2.64,0-5.28-0.02-7.92,0.02c-0.41,0.01-0.88,0.17-1.21,0.41c-1.44,1.02-2.85,2.1-4.26,3.16c-0.5,0.38-1.01,0.62-1.63,0.31
		c-0.65-0.32-0.8-0.88-0.78-1.54C43.41,30.48,43.4,29.73,43.4,28.92z M46.17,28.82c1.01-0.75,1.9-1.48,2.86-2.11
		c0.44-0.29,1.02-0.5,1.54-0.51c2.92-0.05,5.84-0.02,8.76-0.03c1.03,0,1.59-0.48,1.59-1.43c0.02-3.54,0.02-7.08,0-10.61
		c0-0.9-0.53-1.42-1.43-1.42c-5.34-0.01-10.67-0.01-16.01,0c-0.9,0-1.42,0.53-1.43,1.42c-0.02,3.54-0.02,7.08,0,10.61
		c0,0.9,0.53,1.38,1.42,1.43C45.91,26.32,45.91,26.32,46.17,28.82z"/>
	<path class="st0" d="M56.92,58.39c2.15,0.16,4.34,0.09,6.43,0.53c3.94,0.84,6.83,4.54,6.99,8.57c0.06,1.46,0.03,2.92,0.02,4.38
		c-0.01,0.92-0.57,1.51-1.36,1.5c-0.79-0.01-1.31-0.6-1.33-1.52c-0.05-1.71,0.07-3.44-0.17-5.12c-0.46-3.12-3.2-5.41-6.35-5.47
		c-2.83-0.05-5.67-0.05-8.5,0c-3.59,0.06-6.47,3-6.54,6.6c-0.03,1.29,0,2.58-0.01,3.87c-0.01,1.03-0.55,1.66-1.39,1.64
		c-0.81-0.03-1.33-0.63-1.3-1.64c0.08-2.04-0.05-4.13,0.36-6.1c0.85-4.07,4.6-6.96,8.76-7.07c1.46-0.04,2.92-0.01,4.38-0.01
		C56.91,58.49,56.91,58.44,56.92,58.39z"/>
	<path class="st2" d="M35.31,31.59c-0.01,4.46-3.63,8.07-8.1,8.07c-4.44,0-8.09-3.66-8.07-8.1c0.02-4.46,3.64-8.07,8.11-8.07
		C31.68,23.48,35.31,27.13,35.31,31.59z M27.24,36.96c2.94-0.01,5.36-2.41,5.37-5.34c0.01-2.98-2.39-5.42-5.37-5.44
		c-2.98-0.01-5.41,2.41-5.41,5.39C21.83,34.55,24.25,36.97,27.24,36.96z"/>
	<path class="st2" d="M64.97,47.7c0.02,4.47-3.58,8.11-8.04,8.14c-4.46,0.03-8.13-3.6-8.14-8.03c-0.01-4.5,3.62-8.14,8.12-8.14
		C61.32,39.67,64.95,43.29,64.97,47.7z M62.27,47.73c-0.01-2.98-2.45-5.39-5.43-5.37c-2.97,0.02-5.37,2.46-5.35,5.45
		c0.02,2.93,2.45,5.33,5.39,5.33C59.86,53.14,62.28,50.71,62.27,47.73z"/>
	<path class="st0" d="M55.53,34.26c0-0.87-0.02-1.74,0.01-2.61c0.02-0.86,0.59-1.42,1.35-1.41c0.76,0.01,1.32,0.57,1.33,1.44
		c0.02,1.74,0.02,3.48,0,5.22c-0.01,0.86-0.59,1.42-1.35,1.42c-0.76-0.01-1.31-0.58-1.33-1.44C55.52,36,55.53,35.13,55.53,34.26z"/>
	<path class="st0" d="M51.49,70c0,0.65,0.02,1.29,0,1.94c-0.03,0.86-0.58,1.43-1.34,1.43c-0.76,0-1.32-0.57-1.34-1.43
		c-0.02-1.29-0.02-2.58,0-3.87c0.02-0.86,0.57-1.43,1.34-1.42c0.77,0,1.31,0.56,1.34,1.43C51.5,68.7,51.49,69.35,51.49,70z"/>
	<path class="st0" d="M64.97,70.01c0,0.65,0.02,1.29-0.01,1.94c-0.03,0.85-0.6,1.42-1.36,1.41c-0.76-0.01-1.31-0.58-1.32-1.44
		c-0.02-1.29-0.02-2.58,0-3.87c0.02-0.86,0.59-1.42,1.36-1.41c0.76,0.01,1.3,0.58,1.33,1.44C64.98,68.72,64.97,69.37,64.97,70.01z"
		/>
	<path class="st1" d="M47.44,19.5c-0.04,0.73-0.68,1.31-1.41,1.28c-0.73-0.04-1.31-0.68-1.27-1.41c0.04-0.73,0.68-1.31,1.41-1.27
		C46.89,18.14,47.47,18.78,47.44,19.5z"/>
	<path class="st1" d="M51.5,20.78c-0.73,0.01-1.35-0.6-1.35-1.33c-0.01-0.73,0.59-1.35,1.33-1.35c0.73-0.01,1.35,0.6,1.36,1.33
		C52.84,20.15,52.23,20.77,51.5,20.78z"/>
	<path class="st1" d="M58.22,19.4c0.02,0.73-0.57,1.36-1.3,1.38c-0.73,0.02-1.36-0.57-1.38-1.3c-0.02-0.73,0.57-1.36,1.3-1.38
		C57.57,18.08,58.2,18.67,58.22,19.4z"/>
</g>
</svg>
