<?xml version="1.0" encoding="utf-8"?>
<!-- Generator: Adobe Illustrator 24.0.0, SVG Export Plug-In . SVG Version: 6.00 Build 0)  -->
<svg version="1.1" id="Capa_1" xmlns="http://www.w3.org/2000/svg" xmlns:xlink="http://www.w3.org/1999/xlink" x="0px" y="0px"
	 viewBox="0 0 200 200" style="enable-background:new 0 0 200 200;" xml:space="preserve">
<style type="text/css">
	.st0{fill:#ACAEAF;}
	.st1{fill:#FE9900;}
	.st2{fill:#1C3247;}
</style>
<g>
	<path class="st0" d="M21,189.6c-1.6-0.8-2.2-2-2.2-3.8c0-53.5,0-107,0-160.5c0-2.8,1-3.7,3.9-3.7c2.5,0,5,0,7.7,0
		c0-2.7,0-5.2,0-7.8c0-2.8,1-3.8,3.8-3.8c38,0,76,0,114,0c2.7,0,3.8,1,3.8,3.6c0,21.7,0,43.4,0,65.1c0,0.2-0.1,0.3-0.1,0.7
		c-1.8,0-3.6,0-5.7,0c0-21.1,0-42.2,0-63.4c-36.8,0-73.3,0-110,0c0,1.9,0,3.7,0,5.7c0.7,0,1.4,0,2.1,0c24.8,0,49.7,0,74.5,0
		c1.9,0,3.3,0.6,4.6,1.9c7.1,7.2,14.2,14.3,21.3,21.3c1.1,1.1,1.7,2.2,1.7,3.7c0,8,0,15.9,0,23.9c0,0.4-0.1,0.8-0.1,1.3
		c-1.9,0-3.7,0-5.7,0c0-7.6,0-15.2,0-23.1c-0.8,0-1.5,0-2.1,0c-5.6,0-11.2,0-16.8,0c-3.4,0-4.3-0.9-4.3-4.2c0-5.6,0-11.2,0-16.8
		c0-0.6,0-1.3,0-2c-29,0-57.9,0-86.8,0c0,52.1,0,104.1,0,156.3c31.9,0,63.6,0,95.6,0c0,2.1,0,3.9,0,5.8
		C87.2,189.6,54.1,189.6,21,189.6z M129.6,44.7c-4-4-8.2-8.2-12.1-12.1c0,3.7,0,7.9,0,12.1C121.8,44.7,126,44.7,129.6,44.7z"/>
	<path class="st1" d="M136.8,189.6c-8.5-4.9-17-9.8-25.5-14.6c-6.3-3.6-11.2-8.5-14.2-15.2c-2-4.5-2.9-9.2-2.9-14.1
		c0-14.9,0-29.7,0-44.6c0-3.3,0.8-4.2,4.2-4.1c8.8,0.2,17.2-1.4,24.9-5.9c4.4-2.6,8.2-5.9,11.6-9.8c2-2.3,3.7-2.2,5.7,0.1
		c6.3,7.2,13.9,12.3,23.3,14.3c4.2,0.9,8.7,1,13,1.3c3.4,0.2,4.2,0.8,4.2,4.3c0,14.8,0,29.6,0,44.4c0,13.1-5.8,22.9-17.2,29.5
		c-8.4,4.9-16.9,9.7-25.3,14.6C138,189.6,137.4,189.6,136.8,189.6z M100,102.7c0,2.9,0,5.6,0,8.3c0,11.7-0.1,23.4,0,35.1
		c0.1,9.7,4,17.5,12.3,22.6c8,5,16.4,9.5,24.6,14.1c0.5,0.3,1.4,0.1,2-0.3c7.5-4.2,14.9-8.5,22.4-12.7c9.4-5.4,14-13.5,14.1-24.3
		c0-13.6,0-27.2,0-40.9c0-0.6,0-1.2,0-2c-14.9,0.1-27.4-5.2-37.7-15.8C127.4,97.5,114.9,102.8,100,102.7z"/>
	<path class="st0" d="M30.5,62.1c0-2,0-3.7,0-5.7c25.1,0,50,0,75.1,0c0,1.9,0,3.7,0,5.7C80.6,62.1,55.7,62.1,30.5,62.1z"/>
	<path class="st0" d="M105.7,68c0,1.8,0,3.7,0,5.6c-25,0-50,0-75,0c0-1.8,0-3.7,0-5.6C55.6,68,80.6,68,105.7,68z"/>
	<path class="st0" d="M30.5,85.3c0-2,0-3.8,0-5.7c25.1,0,50,0,75.1,0c0,1.9,0,3.7,0,5.7C80.6,85.3,55.7,85.3,30.5,85.3z"/>
	<path class="st0" d="M30.5,96.8c0-1.9,0-3.7,0-5.6c19.2,0,38.4,0,57.7,0c0,1.8,0,3.6,0,5.6C69.1,96.8,49.9,96.8,30.5,96.8z"/>
	<path class="st0" d="M30.6,108.4c0-1.9,0-3.7,0-5.6c19.2,0,38.4,0,57.7,0c0,1.9,0,3.7,0,5.6C69.1,108.4,49.9,108.4,30.6,108.4z"/>
	<path class="st0" d="M30.5,120c0-1.9,0-3.7,0-5.6c19.3,0,38.5,0,57.8,0c0,1.9,0,3.7,0,5.6C69.1,120,49.9,120,30.5,120z"/>
	<path class="st0" d="M30.5,154.7c0-1.9,0-3.7,0-5.6c19.3,0,38.5,0,57.8,0c0,1.9,0,3.7,0,5.6C69.1,154.7,49.9,154.7,30.5,154.7z"/>
	<path class="st0" d="M88.3,160.7c0,2,0,3.7,0,5.6c-19.2,0-38.4,0-57.7,0c0-1.8,0-3.7,0-5.6C49.8,160.7,69,160.7,88.3,160.7z"/>
	<path class="st0" d="M88.3,172.3c0,1.9,0,3.7,0,5.6c-19.3,0-38.5,0-57.7,0c0-1.9,0-3.7,0-5.6C49.8,172.3,69,172.3,88.3,172.3z"/>
	<path class="st0" d="M68.1,38.9c0-2,0-3.7,0-5.5c12.5,0,25,0,37.5,0c0,1.8,0,3.6,0,5.5C93.1,38.9,80.6,38.9,68.1,38.9z"/>
	<path class="st0" d="M39.2,33.3c0,1.6,0.1,3.2,0,4.7c0,0.4-0.7,0.9-1,0.9c-1.5,0.1-3,0-4.6,0c0-2,0-3.8,0-5.7
		C35.3,33.3,37.1,33.3,39.2,33.3z"/>
	<path class="st0" d="M50.7,33.3c0,0.4,0.1,0.6,0.1,0.9c0.2,5.1-0.4,5.5-5.7,4.6c0-0.2-0.1-0.4-0.1-0.6c0-1.6,0-3.1,0-4.8
		C46.8,33.3,48.6,33.3,50.7,33.3z"/>
	<path class="st0" d="M56.6,38.8c0-1.9,0-3.7,0-5.6c1.9,0,3.7,0,5.7,0c0,1.9,0,3.6,0,5.6C60.4,38.8,58.6,38.8,56.6,38.8z"/>
	<path class="st1" d="M105.8,137.4c0.1-17.6,14.3-31.7,31.8-31.7c17.7,0,32,14.4,31.8,32.1c-0.2,17.6-14.5,31.7-32,31.6
		C119.9,169.2,105.7,154.9,105.8,137.4z M163.7,137.3c-0.3-14.7-12.2-26.2-26.7-25.9c-14.3,0.3-25.7,12.3-25.5,26.5
		c0.3,14.2,12.2,25.9,26.2,25.6C152.3,163.3,164,151.4,163.7,137.3z"/>
	<path class="st2" d="M126.9,145.4c1.4-1.4,2.7-2.7,4.3-4.3c1.5,1.7,3.1,3.5,4.9,5.5c2.5-8.4,4.9-16.3,7.4-24.4
		c1.9,0.6,3.6,1.1,5.5,1.6c-1,3.4-2,6.7-3,9.9c-1.8,6-3.6,12.1-5.4,18.1c-1,3.4-3.2,4-5.8,1.4C132.2,150.7,129.6,148,126.9,145.4z"
		/>
</g>
</svg>
