<?xml version="1.0" encoding="utf-8"?>
<!-- Generator: Adobe Illustrator 24.0.0, SVG Export Plug-In . SVG Version: 6.00 Build 0)  -->
<svg version="1.1" id="Capa_1" xmlns="http://www.w3.org/2000/svg" xmlns:xlink="http://www.w3.org/1999/xlink" x="0px" y="0px"
	 viewBox="0 0 80 80" style="enable-background:new 0 0 80 80;" xml:space="preserve">
<style type="text/css">
	.st0{fill:#ACAEAF;}
	.st1{fill:#FE9900;}
</style>
<g>
	<path class="st0" d="M69.1,43.6c-5.8,0-11.6,0-17.3,0c-8.2,0-16.4,0-24.6,0c-0.2,0-0.5,0-0.8,0c0-4.3,0-8.6,0-12.9
		c-0.6-0.1-1.1-0.1-1.6-0.2c-1.4-0.3-2.8-0.7-4-1.6c-0.8-0.6-1.6-0.5-2.5-0.5c0,1,0,2,0,3c-3.4,0-6.7,0-10.1,0c0-7.4,0-14.9,0-22.3
		c3.4,0,6.7,0,10.1,0c0,0.6,0,1.2,0,1.9c0.8,0.2,1.6,0.2,2.4-0.2c0.1,0,0.2-0.1,0.3-0.2C23,9.3,25.3,8.9,27.8,9
		c3.3,0.1,6.7,0,10.1,0c2.7,0,5,0.9,6.8,2.8c1.6,1.7,3.3,3.3,5,5c0.2,0.2,0.5,0.3,0.7,0.3c6.2,0,12.3,0,18.5,0c0.1,0,0.1,0,0.2,0
		C69.1,25.9,69.1,34.7,69.1,43.6z M25,20.4c1.2,1.1,2.5,1.7,4.1,1.7c1.6-0.1,2.9-0.8,4-1.9c2,2,3.9,3.9,5.8,5.8c0.9,0.9,2.2,1,3,0.2
		c0.9-0.9,0.8-2.1-0.1-3.1c-0.8-0.8-1.5-1.5-2.3-2.3c-1.6-1.6-3.2-3.1-4.7-4.7c0.5-0.5,1-1,1.5-1.5c0.7,0.7,1.4,1.4,2.1,2.1
		c0.2,0.2,0.5,0.3,0.8,0.3c2.5,0,4.9,0,7.4,0c0.1,0,0.3,0,0.5-0.1c-1.3-1.3-2.5-2.5-3.7-3.7c-1.6-1.6-3.4-2.4-5.6-2.3
		c-3.7,0-7.3,0.1-11,0c-1.5,0-2.9,0.2-4.2,1c-1.2,0.7-2.6,1.1-4,1c-0.1,0-0.2,0-0.3,0.1c0,4.4,0,8.8,0,13.2c0.5,0,1,0,1.4,0
		c0.6-0.1,1.1,0.2,1.7,0.5c0.9,0.5,1.8,1,2.7,1.4c0.7,0.3,1.5,0.3,2.4,0.5c0-1.7,0-3.2,0-4.7c0-0.2-0.2-0.4-0.4-0.5
		c-0.7-0.5-1.5-0.9-2.3-1.4C24.1,21.5,24.5,21,25,20.4z M35.5,39.5c0.1-1.5-0.1-2.8-1.2-3.9c-1.1-1.1-2.4-1.3-3.8-1.2
		c0-2.7,0-5.4,0-8.1c1.7,0.1,3.1-0.2,4.2-1.6c-0.6-0.6-1.2-1.2-1.8-1.7c-1.3,0.9-2.8,1.2-4.5,1.2c0,5.8,0,11.6,0,17.4
		c12.9,0,25.7,0,38.6,0c0-7.5,0-14.8,0-22.3c-8.7,0-17.4,0-26.1,0c0,0-0.1,0.1-0.1,0.1c0.5,0.5,1,0.9,1.5,1.4
		c0.3,0.3,0.6,0.5,1.1,0.5c5.2,0,10.5,0,15.7,0c0.2,0,0.5,0,0.8,0c-0.1,1.5,0.1,2.8,1.2,3.9c1.1,1.1,2.4,1.3,3.9,1.2
		c0,2.7,0,5.4,0,8.1c-1.5-0.1-2.8,0.1-3.9,1.2c-1.1,1.1-1.3,2.4-1.2,3.9C51.8,39.5,43.7,39.5,35.5,39.5z M36.2,26.1
		c-1,1.2-2.2,1.9-3.7,2.2c0,1.4,0,2.8,0,4.2c0.2,0,0.3,0.1,0.4,0.1c2.2,0.6,3.7,2.1,4.4,4.3c0.2,0.5,0.4,0.6,0.8,0.6
		c6.4,0,12.7,0,19.1,0c0.2,0,0.4,0,0.7,0c0.6-2.7,2.3-4.4,5-5c0-1.3,0-2.5,0-3.7c0-0.4-0.1-0.5-0.5-0.6c-1.9-0.5-3.3-1.7-4.1-3.5
		c-0.2-0.4-0.3-0.9-0.5-1.3c-4.5,0-9,0-13.6,0c0.4,1.1,0.3,2.2-0.1,3.3c3.3-1.8,5.6-1.6,7.4,0.5c1.6,1.8,1.7,4.5,0.2,6.4
		c-1.4,1.9-4.1,2.6-6.2,1.6c-1.3-0.6-2.3-1.6-2.8-3c-0.5-1.4-0.3-2.8,0.4-4.2c-2.4,1.5-4.1,1.2-6-0.7C36.9,26.8,36.6,26.5,36.2,26.1
		z M10.1,29.3c2,0,4,0,6,0c0-6.1,0-12.2,0-18.2c-2,0-4,0-6,0C10.1,17.2,10.1,23.2,10.1,29.3z M47.7,27.3c-1.7,0-3,1.3-3,3
		c0,1.7,1.4,3.1,3.1,3.1c1.7,0,3-1.4,3-3.1C50.7,28.6,49.4,27.3,47.7,27.3z"/>
	<path class="st1" d="M38.9,70c-2.4-0.8-4.4-2.3-6.5-3.6c-4.6-2.7-9.2-5.5-13.8-8.2c-2.5-1.5-2.8-4.8-0.6-6.6
		c1.3-1.1,3.1-1.3,4.7-0.4c3.3,1.8,6.6,3.6,9.9,5.4c0.1,0.1,0.2,0.1,0.4,0.2c0.7-1.8,2.1-2.4,3.8-2.9c3.5-0.9,6.9-1.9,10.3-2.7
		c1-0.2,2-0.3,2.9-0.4c1.1-0.1,2.2,0,3.3,0c1.2,0,2.3,0.3,3.3,0.9c0.7,0.4,1.4,0.9,2.2,1.3c0-1.1,0-2.2,0-3.3c3.4,0,6.8,0,10.2,0
		c0,6.8,0,13.6,0,20.4c-3.4,0-6.7,0-10.1,0c0-0.5,0-1-0.1-1.5c-1.4,0.5-2.8,1-4.1,1.5C49.5,70,44.2,70,38.9,70z M49,58.9
		C48.9,59,48.9,59,48.8,59c-3.7,1-7.4,2-11.1,2.9c-2.3,0.5-4-0.6-4.8-2.8c-0.1-0.2-0.3-0.4-0.5-0.5c-1.3-0.7-2.6-1.4-4-2.2
		c-2.3-1.2-4.5-2.4-6.8-3.6c-1.3-0.7-2.8,0-3.1,1.4c-0.2,0.9,0.2,1.7,1.2,2.3c6.1,3.6,12.1,7.2,18.2,10.9c0.7,0.4,1.3,0.6,2.1,0.6
		c4.1,0,8.3,0,12.4,0c1.4,0,2.8-0.2,4.1-0.8c0.6-0.3,1.2-0.5,1.8-0.7c0.4-0.1,0.6-0.4,0.6-0.8c0-2.8-0.1-5.6,0-8.4
		c0.1-1.5-0.4-2.3-1.7-3c-3.2-1.8-2.2-1.5-5.8-1.5c-1.2,0-2.5,0-3.7,0.3c-2.4,0.5-4.8,1.3-7.2,1.9c-1.4,0.4-2.9,0.8-4.3,1.2
		c-1.1,0.3-1.8,1.4-1.5,2.5c0.2,1.1,1.3,1.7,2.4,1.5c2.7-0.7,5.4-1.4,8.1-2.1c1.1-0.3,2.1-0.6,3.2-0.9C48.7,57.7,48.8,58.4,49,58.9z
		 M61,51.7c0,5.4,0,10.8,0,16.2c2,0,4,0,6,0c0-5.4,0-10.8,0-16.2C65,51.7,63,51.7,61,51.7z"/>
</g>
</svg>
