<?xml version="1.0" encoding="utf-8"?>
<!-- Generator: Adobe Illustrator 24.0.0, SVG Export Plug-In . SVG Version: 6.00 Build 0)  -->
<svg version="1.1" id="Capa_1" xmlns="http://www.w3.org/2000/svg" xmlns:xlink="http://www.w3.org/1999/xlink" x="0px" y="0px"
	 viewBox="0 0 80 80" style="enable-background:new 0 0 80 80;" xml:space="preserve">
<style type="text/css">
	.st0{fill:#ACAEAF;}
	.st1{fill:#FE9900;}
</style>
<g>
	<path class="st0" d="M44.04,74.34c-3.62-0.96-7.23-1.92-10.85-2.88c-2.74-0.73-5.45-1.54-8.21-2.17c-1.13-0.26-2.34-0.15-3.51-0.17
		c-0.12,0-0.29,0.21-0.37,0.36c-0.7,1.31-1.77,2-3.27,1.99c-1.66-0.01-3.32,0.01-4.97,0c-2.15-0.01-3.62-1.47-3.62-3.62
		c-0.01-4.47-0.01-8.94,0-13.42c0-2.14,1.48-3.62,3.62-3.64c1.66-0.01,3.32-0.01,4.97,0c1.46,0.01,2.56,0.65,3.23,1.96
		c0.16,0.32,0.34,0.43,0.69,0.44c1.24,0.05,2.41-0.15,3.57-0.63c1.82-0.75,3.73-1.21,5.72-1.26c3.16-0.08,5.86,1.15,8.28,3.07
		c0.31,0.24,0.65,0.46,0.9,0.76c0.69,0.83,1.53,1.05,2.59,1.01c1.83-0.08,3.67,0.01,5.5-0.03c1.56-0.04,2.93,0.34,4.08,1.48
		c0.73-0.37,1.45-0.73,2.16-1.1c2.71-1.39,5.43-2.78,8.14-4.18c1.48-0.76,3-0.9,4.54-0.2c3.14,1.43,3.6,5.71,0.81,7.93
		c-1.55,1.23-3.21,2.33-4.84,3.47c-0.62,0.43-1.39,0.29-1.81-0.27c-0.43-0.58-0.32-1.39,0.31-1.85c1.44-1.05,2.94-2.04,4.35-3.14
		c0.49-0.38,0.95-0.96,1.12-1.53c0.43-1.45-0.9-2.7-2.44-2.37c-0.34,0.07-0.66,0.21-0.97,0.37c-3.2,1.64-6.39,3.29-9.6,4.92
		c-0.35,0.18-0.49,0.34-0.45,0.78c0.29,2.91-1.83,5.34-4.76,5.38c-3.8,0.05-7.59,0.02-11.39,0.01c-0.89,0-1.48-0.54-1.49-1.31
		c0-0.8,0.58-1.3,1.54-1.3c3.69,0,7.37,0,11.06,0c1.3,0,2.24-0.73,2.43-1.84c0.24-1.37-0.79-2.59-2.24-2.6
		c-2.29-0.02-4.58-0.03-6.87,0c-1.16,0.02-2.11-0.33-2.95-1.14c-1.4-1.36-2.96-2.51-4.83-3.17c-2.43-0.87-4.83-0.55-7.17,0.29
		c-1.73,0.62-3.44,1.25-5.33,1.08c-0.08-0.01-0.16,0.04-0.26,0.07c0,3.52,0,7.02,0,10.51c0.07,0.04,0.11,0.07,0.14,0.07
		c2.92-0.28,5.64,0.68,8.39,1.42c4.33,1.17,8.67,2.32,12.99,3.52c2.04,0.56,3.93,0.32,5.7-0.83c1.15-0.75,2.26-1.55,3.4-2.33
		c0.47-0.32,0.98-0.37,1.48-0.06c0.47,0.29,0.69,0.74,0.59,1.28c-0.05,0.26-0.17,0.58-0.37,0.73c-2.04,1.53-4.03,3.14-6.55,3.86
		c-0.35,0.1-0.7,0.19-1.06,0.28C45.43,74.34,44.73,74.34,44.04,74.34z M18.78,61.18c0-2.18,0-4.36,0-6.53
		c0-0.94-0.27-1.22-1.18-1.22c-1.53,0-3.05,0-4.58,0c-0.89,0-1.18,0.29-1.18,1.17c0,4.38,0,8.76,0,13.14c0,0.86,0.28,1.14,1.13,1.14
		c1.53,0.01,3.05,0,4.58,0c1.01,0,1.24-0.22,1.24-1.21C18.79,65.49,18.78,63.34,18.78,61.18z"/>
	<path class="st1" d="M30.68,34.46c-0.39-0.03-0.81-0.01-1.21-0.1c-1.3-0.27-2.26-1.4-2.3-2.75c-0.04-1.59-0.04-3.19,0-4.78
		c0.05-1.61,1.29-2.77,2.95-2.79c0.49-0.01,0.7-0.15,0.86-0.63c0.35-1.01,0.79-1.98,1.23-2.95c0.16-0.34,0.19-0.54-0.1-0.85
		c-1.38-1.44-1.34-3.06,0.08-4.49c0.95-0.96,1.91-1.92,2.87-2.87c1.33-1.32,3.02-1.35,4.35-0.04c0.33,0.32,0.54,0.32,0.95,0.13
		c0.96-0.46,1.95-0.86,2.95-1.22c0.4-0.15,0.58-0.3,0.59-0.76c0.02-1.87,1.23-3.03,3.1-3.04c1.4-0.01,2.79-0.01,4.19,0
		c1.84,0.01,3.06,1.18,3.08,3c0,0.49,0.19,0.65,0.61,0.81c1,0.37,1.98,0.78,2.95,1.23c0.37,0.17,0.58,0.19,0.89-0.12
		c1.34-1.32,3.02-1.31,4.35-0.01c1.01,0.99,2.02,2,3.01,3.01c1.28,1.31,1.31,2.99,0.04,4.31c-0.3,0.31-0.36,0.53-0.16,0.95
		c0.47,0.98,0.86,2,1.25,3.01c0.13,0.34,0.24,0.53,0.66,0.54c2.01,0.05,3.13,1.21,3.13,3.22c0,1.35,0.01,2.7,0,4.06
		c-0.01,1.86-1.2,3.08-3.06,3.1c-0.41,0-0.59,0.13-0.74,0.52c-0.38,1.04-0.81,2.07-1.27,3.07c-0.17,0.36-0.14,0.56,0.14,0.84
		c1.33,1.38,1.32,3.05-0.02,4.4c-0.97,0.98-1.94,1.95-2.92,2.92c-1.37,1.35-3.02,1.38-4.4,0.05c-0.27-0.26-0.46-0.33-0.84-0.16
		c-1.02,0.48-2.08,0.89-3.13,1.3c-0.32,0.12-0.47,0.25-0.48,0.64c-0.05,2.01-1.21,3.14-3.21,3.15c-1.35,0.01-2.71,0.01-4.06,0
		c-1.87-0.02-3.08-1.2-3.1-3.05c-0.01-0.4-0.1-0.6-0.51-0.75c-1.04-0.38-2.06-0.81-3.07-1.27c-0.35-0.16-0.55-0.15-0.85,0.12
		c-1.43,1.36-3.05,1.33-4.45-0.06c-0.97-0.97-1.95-1.94-2.92-2.92c-1.31-1.32-1.32-3.01-0.02-4.35c0.3-0.3,0.31-0.52,0.14-0.89
		C31.68,36.85,31.2,35.68,30.68,34.46z M54.28,44.9c1.19-0.59,2.23-1.07,3.24-1.62c1.02-0.55,1.42-0.53,2.25,0.3
		c0.25,0.25,0.5,0.49,0.74,0.74c0.26,0.29,0.5,0.29,0.77,0.01c0.97-0.98,1.94-1.95,2.92-2.91c0.29-0.28,0.25-0.51-0.03-0.77
		c-0.33-0.31-0.66-0.64-0.97-0.97c-0.52-0.55-0.6-1.07-0.21-1.72c0.96-1.58,1.65-3.26,2.1-5.05c0.19-0.76,0.63-1.06,1.43-1.08
		c0.44-0.01,0.87-0.01,1.31,0c0.38,0.01,0.57-0.13,0.56-0.53c-0.01-1.37-0.01-2.75,0-4.12c0-0.41-0.21-0.53-0.57-0.52
		c-0.46,0.01-0.92,0.02-1.37-0.01c-0.76-0.04-1.17-0.35-1.36-1.09c-0.45-1.79-1.14-3.47-2.1-5.05c-0.39-0.65-0.31-1.16,0.22-1.72
		c0.31-0.33,0.64-0.66,0.97-0.97c0.28-0.26,0.29-0.49,0.01-0.77c-0.98-0.96-1.95-1.93-2.92-2.91c-0.28-0.29-0.5-0.26-0.77,0.02
		c-0.31,0.33-0.64,0.66-0.97,0.97c-0.56,0.52-1.08,0.61-1.72,0.22c-1.58-0.96-3.26-1.65-5.05-2.1c-0.76-0.19-1.07-0.62-1.1-1.42
		c-0.01-0.46-0.01-0.92,0-1.37c0.01-0.36-0.16-0.5-0.52-0.5c-1.37,0.01-2.75,0.01-4.12,0c-0.41,0-0.53,0.19-0.52,0.56
		c0.01,0.46,0.02,0.92,0,1.37c-0.03,0.68-0.34,1.18-1.02,1.35c-1.84,0.44-3.56,1.16-5.17,2.15c-0.57,0.35-1.13,0.26-1.62-0.2
		c-0.37-0.34-0.69-0.74-1.08-1.04c-0.14-0.11-0.53-0.14-0.64-0.03c-1.03,0.98-2.03,1.98-3.01,3.01c-0.11,0.12-0.11,0.5,0,0.64
		c0.27,0.36,0.64,0.66,0.95,0.99c0.59,0.61,0.67,1.12,0.24,1.83c-0.95,1.56-1.63,3.22-2.07,4.99c-0.19,0.75-0.59,1.06-1.35,1.1
		c-0.48,0.03-0.96,0.01-1.44,0.01c-0.35,0-0.52,0.14-0.52,0.51c0.01,1.37,0.01,2.75,0,4.12c0,0.39,0.16,0.55,0.55,0.54
		c0.46-0.01,0.92-0.01,1.37,0c0.75,0.03,1.19,0.34,1.37,1.07c0.45,1.81,1.15,3.51,2.13,5.11c0.37,0.59,0.26,1.17-0.22,1.67
		c-0.32,0.33-0.64,0.66-0.97,0.97c-0.31,0.28-0.31,0.52,0,0.82c0.75,0.73,1.48,1.48,2.23,2.22c1.19,1.17,0.86,1.2,2.06,0.01
		c0.98-0.97,1.28-0.98,2.51-0.31c0.97,0.52,1.97,0.97,3.08,1.51c0-1.8-0.02-3.4,0.01-5.01c0.01-0.51-0.12-0.8-0.61-1.06
		c-6.56-3.47-8.17-12.2-3.29-17.79c1.05-1.21,2.23-2.29,3.82-2.76c1.23-0.36,2.29,0.25,2.63,1.48c0.11,0.39,0.16,0.82,0.16,1.23
		c0,2.2-0.03,4.41-0.04,6.61c0,0.35,0.03,0.7,0.1,1.04c0.25,1.1,1.31,2.02,2.34,2.08c0.9,0.05,2.02-0.74,2.38-1.76
		c0.14-0.38,0.2-0.81,0.21-1.21c0.02-1.92,0.01-3.84,0.01-5.76c0-0.63-0.05-1.27,0.04-1.89c0.21-1.48,1.39-2.2,2.82-1.78
		c0.31,0.09,0.62,0.22,0.9,0.38c3.95,2.21,6.33,7.24,5.52,11.7c-0.69,3.82-2.74,6.68-6.16,8.54c-0.19,0.1-0.42,0.36-0.43,0.55
		C54.26,41.2,54.28,42.95,54.28,44.9z M43.95,21.04c-0.17,0.1-0.25,0.15-0.34,0.21c-2.69,1.96-4.06,4.62-3.82,7.93
		c0.26,3.61,2.16,6.2,5.47,7.67c0.89,0.4,1.26,0.94,1.24,1.89c-0.03,2.99,0.01,5.97-0.03,8.96c-0.01,0.68,0.22,0.86,0.87,0.84
		c1.18-0.04,2.36-0.04,3.53,0c0.6,0.02,0.79-0.18,0.79-0.78c-0.03-2.99,0.01-5.97-0.02-8.96c-0.01-0.97,0.32-1.55,1.26-1.95
		c4.23-1.79,6.42-6.42,5.12-10.78c-0.63-2.12-1.88-3.78-3.74-4.99c-0.05,0.06-0.08,0.08-0.08,0.09c0,1.81,0.01,3.62,0,5.43
		c0,0.74,0.01,1.49-0.1,2.22c-0.4,2.65-2.74,4.56-5.17,4.48c-2.51-0.08-4.71-2.11-4.89-4.63c-0.18-2.36-0.08-4.75-0.1-7.12
		C43.95,21.41,43.95,21.27,43.95,21.04z"/>
	<path class="st0" d="M57.63,67.17c-0.72,0-1.28-0.54-1.3-1.26c-0.02-0.73,0.57-1.34,1.3-1.34c0.69,0,1.29,0.58,1.31,1.27
		C58.96,66.57,58.37,67.17,57.63,67.17z"/>
</g>
</svg>
