<?xml version="1.0" encoding="utf-8"?>
<!-- Generator: Adobe Illustrator 24.0.0, SVG Export Plug-In . SVG Version: 6.00 Build 0)  -->
<svg version="1.1" id="Capa_1" xmlns="http://www.w3.org/2000/svg" xmlns:xlink="http://www.w3.org/1999/xlink" x="0px" y="0px"
	 viewBox="0 0 200 200" style="enable-background:new 0 0 200 200;" xml:space="preserve">
<style type="text/css">
	.st0{fill:#ACAEAF;}
	.st1{fill:#FE9900;}
</style>
<g>
	<path class="st0" d="M119.4,29c1.9,0.2,3.7,0.4,5.6,0.7c18.2,3.1,31.5,13,40,29.3c3.1,5.9,4.8,12.3,5.5,18.9
		c0.1,1.5-0.5,2.5-1.8,2.6c-1.1,0.1-2-0.6-2.3-2.1c0-0.2-0.1-0.4-0.1-0.5c-0.5-2.5-0.8-5-1.4-7.4c-3-11.3-9.2-20.4-18.5-27.4
		c-5.9-4.5-12.5-7.4-19.8-8.9c-10.5-2.1-20.7-1.1-30.5,3.3c-10.5,4.6-18.5,12.1-23.9,22.2c-4.4,8.1-6.3,16.9-5.9,26.1
		c0.4,8.9,3,17.1,7.7,24.5C79,118,85.5,124,93.7,128.1c8.7,4.4,17.9,6.2,27.5,5.2c15.3-1.6,27.4-8.7,36.3-21.1
		c5-7,7.9-14.8,8.8-23.3c0-0.2,0.1-0.5,0.1-0.7c0.3-1.4,1.2-2.2,2.3-2c1.2,0.2,1.9,1.1,1.7,2.6c-0.2,1.6-0.3,3.3-0.7,4.9
		c-3.7,17-13,29.9-28.5,38c-10.5,5.5-21.7,7.2-33.4,5.3c-10.2-1.6-19.2-5.8-27-12.5c-0.4-0.3-0.8-0.6-1.2-1
		c-0.1-0.1-0.2-0.1-0.6-0.5c-0.6,0.8-1.2,1.5-1.8,2.2c-0.6,0.7-1.3,1.3-2.2,2.1c0.8,0.7,1.5,1.2,2.2,1.8c2.9,2.9,2.9,5.9,0,8.8
		c-7.7,7.7-15.4,15.4-23.1,23.1c-2.1,2.1-4.3,4.3-6.4,6.4c-3.7,3.6-8.1,3.7-11.8,0c-1.5-1.5-3-2.9-4.4-4.5c-2.5-2.8-2.5-7.1-0.1-10
		c0.4-0.5,0.9-1,1.4-1.5c9.6-9.6,19.2-19.2,28.8-28.8c3.2-3.2,6-3.2,9.3,0.1c0.5,0.5,0.9,1.1,1.4,1.8c1.5-1.6,2.7-3,4.1-4.5
		c-0.2-0.2-0.5-0.7-0.9-1.1c-6.3-7.3-10.5-15.6-12.2-25.1c-2.9-15.4,0.1-29.5,9.2-42.2c7-9.9,16.4-16.6,28-20.1
		c3.8-1.2,7.9-1.5,11.9-2.3c0.4-0.1,0.9-0.1,1.4-0.2C115.5,29,117.5,29,119.4,29z M50.8,139.4c0,0-0.1,0-0.2,0.1
		c-5.2,5.2-10.5,10.4-15.7,15.7c-1.6,1.7-1.5,3.9,0.1,5.6c1.2,1.3,2.5,2.5,3.7,3.7c2.2,2.2,4.1,2.2,6.3,0c4.1-4.1,8.1-8.1,12.2-12.2
		c1.1-1.1,2.3-2.1,3.3-3.1C57.1,145.8,53.9,142.6,50.8,139.4z M59.8,130.1c3.3,3.3,6.5,6.5,9.8,9.7c1.6-1.6,3.3-3.4,5.1-5.1
		c0.8-0.8,0.7-1.5,0-2.3c-2.5-2.5-4.9-4.9-7.4-7.4c-0.8-0.8-1.5-0.8-2.3,0C63.2,126.8,61.5,128.5,59.8,130.1z M66.1,143.3
		c-3.2-3.2-6.4-6.4-9.6-9.6c-0.8,0.8-1.7,1.7-2.4,2.4c3.2,3.2,6.4,6.4,9.5,9.5C64.4,144.9,65.3,144,66.1,143.3z"/>
	<path class="st1" d="M161.6,83.5c-0.1,25.1-20.5,45.2-45.6,45.1c-24.4-0.1-45-20.6-44.8-44.7c0.2-25.5,20.2-45.7,45.1-45.6
		C141.4,38.4,161.7,58.7,161.6,83.5z M83.1,107.2c1.2-1,2.3-2.1,3.5-2.9c1.2-0.8,2.6-1.4,4-1.9c4.9-2,9.9-3.9,14.9-5.8
		c1-0.4,1.8-0.7,1.5-2c-0.2-0.9,0.3-2-0.7-2.8c-2.5-2-4-4.6-4.8-7.7c-0.2-0.9-0.6-1.4-1.6-1.7c-4.2-1.2-6.4-5.9-4.4-9.7
		c0.7-1.4,0.9-2.7,0.9-4.2c0-0.8,0-1.7,0-2.5c0.1-9.2,4.7-15.9,13-19.2c1.8-0.7,3-0.5,3.5,0.8c0.5,1.3-0.2,2.3-2,3
		c-0.1,0-0.2,0.1-0.3,0.1c-3.6,1.4-6.3,3.7-8.2,7.1c-1.9,3.4-2.2,7-1.7,10.9c0.3-0.1,0.4-0.4,0.6-0.7c0.7-1.2,1.8-1.7,3.1-1.6
		c6.3,0.3,12.2-1.4,17.6-4.7c1.9-1.1,3.3-0.9,4.8,0.7c1.7,1.9,3.4,3.8,5,5.7c0.9-6.4-1.8-12.7-7.5-16.1c-1.2-0.7-2.7-1.2-4-1.8
		c-1.4-0.6-2.1-1.5-1.7-2.7c0.4-1.2,1.5-1.7,3-1.3c0.1,0,0.2,0.1,0.3,0.1c7.3,2.4,12,7.4,13.6,14.9c0.6,2.8,0.4,5.8,0.6,8.6
		c0,0.6,0.1,1.3,0.4,1.8c2.5,4.4,0.6,9.4-4.3,10.7c-0.8,0.2-1.1,0.6-1.3,1.4c-0.5,2.5-1.7,4.8-3.5,6.6c-1.3,1.3-1.8,2.5-1.7,4.3
		c0.1,0.9,0.3,1.4,1.2,1.7c4.7,1.8,9.4,3.7,14.1,5.4c3.1,1.1,6,2.5,8.2,5c0.1,0.1,0.2,0.1,0.4,0.1c11.7-15.9,10.3-40.1-6.7-54.8
		c-15.3-13.3-39.4-13.6-54.9,1.3C73.1,68.2,71.2,91.2,83.1,107.2z M105.1,70.7c0,3.8-0.3,7.4,0.1,11c0.7,7,7.8,11.4,14.5,9.3
		c4.8-1.5,7.7-5.5,7.8-10.8c0.1-3.1-0.1-6.3,0-9.4c0.1-2.5-2-3.4-3.3-4.8c-0.2-0.3-1.8,0.6-2.7,0.9c-0.1,0-0.2,0.1-0.4,0.2
		C116.2,69.5,110.9,70.8,105.1,70.7z M85.5,110.4c6.8,7.5,14.8,11.9,24.4,13.5c0.5-2.8,1-5.4,1.4-8.1c0.1-0.8-0.2-1.6-0.3-2.5
		c-3.3,1.3-4.5,0.8-5.9-2c-0.6-1.2-1.2-2.4-1.8-3.6c-0.8-1.6-1.6-3.2-2.5-4.9c-3.6,1.4-7.1,2.6-10.5,4.1
		C88.6,107.8,87.2,109.2,85.5,110.4z M122.3,113.4c-1,1.2-0.5,6.9,0.8,10.5c9.5-1.7,17.4-6.1,24.1-13.5c-1.5-1.1-2.7-2.5-4.2-3.2
		c-3.6-1.6-7.3-2.9-11-4.4c-1.5,3-2.9,5.8-4.3,8.7C126.4,114.2,125,114.7,122.3,113.4z M121.7,94.7c-3.5,1.2-7,1.1-10.7,0.1
		c0.1,0.9-0.1,1.7,0.2,2.2c1.6,2.2,3.4,4.3,5.2,6.5c1.6-1.9,3-3.8,4.5-5.5C121.7,97,122.1,96,121.7,94.7z M128.1,101.4
		c-1.1-0.4-2.1-0.8-3-1.2c-0.2-0.1-0.7,0-0.8,0.1c-1.6,1.9-3.2,3.9-4.9,6c1.6,1.2,3.1,2.2,4.6,3.3
		C125.4,106.8,126.7,104.2,128.1,101.4z M108.8,109.6c1.6-1.1,3.1-2.2,4.6-3.3c-1.6-2-3.1-3.9-4.7-5.8c-0.2-0.2-0.7-0.4-1-0.3
		c-1,0.3-1.9,0.7-3,1.2C106.1,104.1,107.4,106.7,108.8,109.6z M114,124.4c1.7,0,3.2,0,4.8,0c-0.5-2.7-0.9-5.4-1.4-8.4
		c-0.8,0.3-2,0.5-2,0.8C114.8,119.3,114.5,121.7,114,124.4z M118.8,111c-2.4-2-2.6-2-4.9,0.3c0.7,0.3,1.3,0.8,1.9,0.8
		C116.8,112.1,118.2,112.7,118.8,111z M131.7,78.4c1.5-0.6,2-1.6,1.9-2.8c0-1.2-0.6-2.2-1.9-2.6C131.7,74.8,131.7,76.5,131.7,78.4z
		 M100.9,73.1c-1.4,0.7-2.1,1.7-1.9,3.1c0.1,1.1,0.7,1.9,1.9,2.3C100.9,76.6,100.9,74.9,100.9,73.1z"/>
</g>
</svg>
