<?xml version="1.0" encoding="utf-8"?>
<!-- Generator: Adobe Illustrator 24.0.0, SVG Export Plug-In . SVG Version: 6.00 Build 0)  -->
<svg version="1.1" id="Capa_1" xmlns="http://www.w3.org/2000/svg" xmlns:xlink="http://www.w3.org/1999/xlink" x="0px" y="0px"
	 viewBox="0 0 80 80" style="enable-background:new 0 0 80 80;" xml:space="preserve">
<style type="text/css">
	.st0{fill:#FE9900;}
	.st1{fill:#ACAEAF;}
	.st2{fill:#1C3247;}
</style>
<g>
	<path class="st0" d="M23.4,13.8c0-1,0-1.9,0-2.9c0-0.9,0.4-1.3,1.2-1.3c10.3,0,20.5,0,30.8,0c0.8,0,1.2,0.4,1.2,1.2
		c0,0.9,0,1.9,0,2.9c1,0,1.9,0,2.8,0c1,0,1.3,0.4,1.3,1.3c0,9.5,0,19,0,28.5c0,1-0.4,1.3-1.3,1.3c-13,0-26,0-38.9,0
		c-0.9,0-1.3-0.4-1.3-1.3c0-9.5,0-19,0-28.6c0-0.9,0.4-1.3,1.3-1.3C21.4,13.8,22.4,13.8,23.4,13.8z M41,38.7c4.5,0,9,0,13.4,0
		c0-9,0-18,0-26.9c-4.5,0-9,0-13.4,0C41,20.8,41,29.8,41,38.7z M38.9,11.8c-1.8,0-3.4,0-5.2,0c0,0.3,0,0.5,0,0.7c0,2.1,0,4.2,0,6.3
		c0,0.5-0.1,0.9-0.7,1.2c-0.5,0.2-0.9,0-1.3-0.4c-0.4-0.4-0.7-0.9-1.1-1.3c-0.5,0.6-0.9,0.9-1.3,1.3c-0.3,0.4-0.7,0.6-1.3,0.4
		c-0.5-0.2-0.7-0.7-0.7-1.2c0-2.1,0-4.1,0-6.2c0-0.3,0-0.5,0-0.8c-0.7,0-1.4,0-2,0c0,9,0,17.9,0,26.9c4.5,0,9,0,13.4,0
		C38.9,29.7,38.9,20.8,38.9,11.8z M21.3,42.9c12.5,0,24.9,0,37.3,0c0-9,0-17.9,0-26.9c-0.7,0-1.3,0-2,0c0,0.3,0,0.6,0,0.8
		c0,7.5,0,15.1,0,22.6c0,1.2-0.3,1.5-1.5,1.5c-10.1,0-20.2,0-30.3,0c-1.2,0-1.5-0.3-1.5-1.5c0-7.6,0-15.1,0-22.7c0-0.2,0-0.5,0-0.7
		c-0.7,0-1.4,0-2,0C21.3,24.9,21.3,33.9,21.3,42.9z M31.6,11.8c-0.7,0-1.4,0-2,0c0,1.5,0,3.1,0,4.7c0.7-0.7,1.3-0.7,2,0
		C31.6,14.8,31.6,13.3,31.6,11.8z"/>
	<path class="st1" d="M60.2,49.9c0.4-1.5,0.8-2.9,1.2-4.3c0.4-1.6,0.8-3.2,1.3-4.8c0.7-2.4,2.9-3.7,5.1-3.1c2.3,0.6,3.5,2.9,2.9,5.3
		c-1.1,4.2-2.3,8.4-3.4,12.6c-0.3,1.2-0.7,2.4-1,3.6c-0.3,1.3-1,2.3-2,3.1c-1.5,1.3-3,2.6-4.5,3.8c-0.8,0.7-1.2,1.6-1.2,2.7
		c0,0.6,0,1.3,0,1.9c0,0.7-0.4,1.2-1.1,1.1c-0.6,0-1-0.4-1-1.1c0-0.8,0-1.6,0-2.5c0.1-1.6,0.8-2.8,2-3.8c1.4-1.2,2.8-2.4,4.2-3.6
		c0.8-0.6,1.3-1.4,1.5-2.4c1.4-5.3,2.8-10.6,4.3-16c0.1-0.4,0.2-0.9,0.1-1.4c-0.2-0.9-1-1.5-1.8-1.6c-1,0-1.9,0.6-2.2,1.7
		c-0.5,1.6-0.9,3.3-1.3,4.9c-0.3,1.3-0.7,2.6-1,3.9c-0.3,1-0.5,1.9-0.3,2.9c0.2,1.7-0.5,3.1-2,3.9c-1.9,1.2-3.9,2.3-5.8,3.4
		c-0.6,0.4-1.2,0.2-1.5-0.3c-0.3-0.5-0.1-1.1,0.5-1.5c1.9-1.1,3.7-2.1,5.6-3.2c0.7-0.4,1.1-0.9,1.2-1.7c0.1-0.8-0.1-1.5-0.8-1.9
		c-0.7-0.5-1.5-0.6-2.2-0.2c-1.1,0.6-2.1,1.2-3.1,1.8c-1.3,0.8-2.6,1.5-3.9,2.3c-2.4,1.5-3.7,3.6-3.7,6.5c0,2.7,0,5.5,0,8.2
		c0,0.2,0,0.4,0,0.6c-0.1,0.6-0.5,1-1,1c-0.5,0-1-0.4-1-1c0-3.4-0.1-6.9,0.1-10.3c0.2-2.8,1.7-5,4.1-6.5c2.5-1.6,5-3,7.6-4.5
		C57.4,49,58.8,49.1,60.2,49.9z"/>
	<path class="st1" d="M19.7,49.9c1.7-1,3.4-0.8,5,0.3c2.1,1.3,4.2,2.5,6.3,3.7c3.2,1.9,4.8,4.7,4.8,8.5c0,2.7,0,5.5,0,8.2
		c0,0.1,0,0.2,0,0.3c0,0.7-0.4,1.1-1,1.1c-0.6,0-1-0.4-1-1.1c0-2.9,0-5.8,0-8.6c0-1.1-0.2-2.2-0.7-3.3c-0.6-1.4-1.6-2.4-2.9-3.2
		c-2.3-1.3-4.6-2.7-6.9-4c-1.2-0.7-2.4-0.4-3,0.6c-0.6,1-0.2,2.3,0.9,2.9c1.8,1,3.6,2.1,5.4,3.1c0.1,0.1,0.3,0.1,0.4,0.2
		c0.5,0.4,0.6,0.9,0.4,1.4c-0.3,0.5-0.9,0.7-1.4,0.4c-2.1-1.2-4.1-2.3-6.2-3.6c-1.5-0.9-2.1-2.7-1.7-4.4c0.1-0.3,0.1-0.6,0-0.9
		c-0.9-3.4-1.8-6.7-2.7-10.1c-0.1-0.4-0.3-0.8-0.6-1.1c-0.6-0.7-1.7-0.9-2.5-0.4c-0.8,0.5-1.2,1.4-1,2.4c0.8,3,1.6,6.1,2.4,9.1
		c0.6,2.4,1.3,4.8,1.9,7.1c0.3,1,0.7,1.8,1.5,2.4c1.4,1.2,2.8,2.4,4.2,3.5c1.4,1.2,2.2,2.7,2.1,4.6c0,0.6,0,1.2,0,1.8
		c0,0.7-0.5,1.2-1.1,1.1c-0.6,0-1-0.5-1-1.1c0-0.6,0-1.3,0-1.9c0-1.1-0.4-2-1.3-2.7c-1.5-1.3-3-2.6-4.5-3.8c-0.9-0.8-1.6-1.8-1.9-3
		c-1.5-5.5-2.9-10.9-4.4-16.4c-0.6-2.4,0.6-4.7,2.9-5.3c2.2-0.6,4.5,0.8,5.1,3.1c0.8,2.8,1.5,5.7,2.3,8.5
		C19.6,49.5,19.7,49.7,19.7,49.9z"/>
	<path class="st2" d="M47.8,13.8c1.1,0,2.3,0,3.4,0c0.8,0,1.2,0.4,1.2,1c0,0.6-0.5,1-1.2,1c-2.3,0-4.6,0-6.9,0c-0.8,0-1.2-0.4-1.2-1
		c0-0.6,0.5-1,1.2-1C45.5,13.8,46.6,13.8,47.8,13.8z"/>
	<path class="st2" d="M47.8,20.1c-1.1,0-2.3,0-3.4,0c-0.8,0-1.2-0.4-1.2-1c0-0.6,0.5-1,1.2-1c2.3,0,4.6,0,6.9,0c0.8,0,1.2,0.4,1.2,1
		c0,0.6-0.5,1-1.2,1C50.1,20.1,48.9,20.1,47.8,20.1z"/>
	<path class="st1" d="M47.8,22.2c1.1,0,2.3,0,3.4,0c0.8,0,1.2,0.4,1.2,1c0,0.6-0.5,1-1.2,1c-2.3,0-4.6,0-6.9,0c-0.8,0-1.2-0.4-1.2-1
		c0-0.6,0.5-1,1.2-1C45.5,22.1,46.6,22.2,47.8,22.2z"/>
	<path class="st1" d="M47.8,28.4c-1.1,0-2.3,0-3.4,0c-0.8,0-1.3-0.4-1.3-1.1c0-0.6,0.5-1,1.2-1c2.3,0,4.6,0,6.9,0
		c0.8,0,1.2,0.4,1.2,1c0,0.6-0.5,1-1.2,1C50.1,28.4,48.9,28.4,47.8,28.4z"/>
	<path class="st1" d="M47.7,32.5c-1.1,0-2.3,0-3.4,0c-0.8,0-1.2-0.4-1.2-1c0-0.6,0.5-1,1.2-1c2.3,0,4.6,0,6.9,0c0.8,0,1.2,0.4,1.2,1
		c0,0.6-0.5,1-1.3,1.1C50,32.5,48.9,32.5,47.7,32.5z"/>
	<path class="st1" d="M47.8,36.7c-1.1,0-2.3,0-3.4,0c-0.8,0-1.2-0.4-1.2-1c0-0.6,0.5-1,1.2-1c2.3,0,4.6,0,6.9,0c0.8,0,1.2,0.4,1.2,1
		c0,0.6-0.5,1-1.2,1C50.1,36.7,48.9,36.7,47.8,36.7z"/>
	<path class="st2" d="M32.2,22.2c1.1,0,2.3,0,3.4,0c0.8,0,1.2,0.4,1.2,1.1c0,0.6-0.5,1-1.2,1c-2.3,0-4.6,0-6.9,0
		c-0.8,0-1.2-0.4-1.2-1.1c0-0.6,0.5-1,1.2-1C29.9,22.1,31,22.2,32.2,22.2z"/>
	<path class="st2" d="M32.2,28.4c-1.1,0-2.3,0-3.4,0c-0.8,0-1.2-0.4-1.2-1c0-0.6,0.5-1,1.2-1c2.3,0,4.6,0,6.9,0c0.8,0,1.2,0.4,1.2,1
		c0,0.6-0.5,1-1.2,1C34.5,28.4,33.3,28.4,32.2,28.4z"/>
	<path class="st1" d="M32.2,30.5c1.1,0,2.3,0,3.4,0c0.8,0,1.2,0.4,1.2,1c0,0.6-0.5,1-1.2,1c-2.3,0-4.6,0-6.9,0c-0.8,0-1.2-0.4-1.2-1
		c0-0.6,0.5-1,1.2-1C29.9,30.5,31,30.5,32.2,30.5z"/>
	<path class="st1" d="M32.2,34.6c1.1,0,2.3,0,3.4,0c0.8,0,1.2,0.4,1.2,1c0,0.6-0.5,1-1.2,1c-2.3,0-4.6,0-6.9,0c-0.8,0-1.2-0.4-1.2-1
		c0-0.6,0.5-1,1.2-1C29.9,34.6,31,34.6,32.2,34.6z"/>
</g>
</svg>
