<?xml version="1.0" encoding="utf-8"?>
<!-- Generator: Adobe Illustrator 24.0.0, SVG Export Plug-In . SVG Version: 6.00 Build 0)  -->
<svg version="1.1" id="Capa_1" xmlns="http://www.w3.org/2000/svg" xmlns:xlink="http://www.w3.org/1999/xlink" x="0px" y="0px"
	 viewBox="0 0 226.8 226.8" style="enable-background:new 0 0 226.8 226.8;" xml:space="preserve">
<style type="text/css">
	.st0{fill:#ACAEAF;}
	.st1{fill:#FE9900;}
</style>
<g>
	<path class="st0" d="M198.3,13.8c1.8,1,2.3,2.6,2.3,4.6c0,26.1,0,52.2,0,78.3c0,3.5-1.1,4.6-4.6,4.6c-29.4,0-58.8,0-88.2,0
		c-1.5,0-2.4,0.3-3.2,1.8c-2.9,5.1-9.4,6.7-14.5,3.9c-4.5-2.4-9-4.9-13.4-7.3c-0.6-0.3-1.1-0.6-2-1c0,1,0,1.8,0,2.6
		c0,6.3,0,12.7,0,19c0,2.9-1.1,4.1-4,4.1c-11.1,0-22.3,0-33.4,0c-2.9,0-4-1.1-4-4.1c0-1.3,0-2.6,0-3.7c-1.8-0.1-3.5,0-5-0.3
		c-3.7-0.8-6.9-4.1-6.9-7.8c-0.1-8.6-0.9-17.1,0.7-25.7c1.1-6,3.5-11.5,7-16.5c3.1-4.4,7.4-6.7,12.6-6.9c7.7-0.3,15.4-0.3,23.2-0.1
		c4.8,0.1,8.6,2.4,11.8,5.9c0.6,0.7,1.2,1.4,2.1,2.4c0-1.1,0-1.8,0-2.5c0-15.6,0-31.2,0-46.7c0-2,0.5-3.6,2.3-4.6
		C120,13.8,159.1,13.8,198.3,13.8z M122.2,60.7c-0.4,0.7-0.8,1.2-1.1,1.8c-5.4,8.1-10.8,16.2-16.4,24.2c-1.1,1.7-1.9,3-0.1,4.7
		c0.4,0.4,0.8,1.1,0.9,1.7c0.3,1.4,1.1,1.7,2.5,1.7c28,0,56,0,84,0c0.6,0,1.3-0.1,1.8-0.1c0-24.9,0-49.6,0-74.3
		c-36.3,0-72.4,0-108.6,0c0,0.7-0.1,1.4-0.1,2c0,18,0,36,0,54c0,1,0.3,2.5,1,2.9c3.7,2.3,7.6,4.3,11.5,6.4
		c6.5-9.6,12.8-19,19.3-28.6C118.7,58.3,120.4,59.5,122.2,60.7z M68.1,117.8c0-2,0-3.9,0-5.8c0-7.5,0.1-15,0.1-22.6
		c0-3.1,1.1-4.6,3.3-4.6c2.1,0,3.1,1.5,3.2,4.5c0,0.3-0.1,0.6,0,0.8c0.2,0.5,0.5,1.3,0.9,1.5c5.9,3.3,11.8,6.6,17.7,9.7
		c3,1.6,6.4-0.7,6.5-4.1c0-2.2-1.2-3.6-3.1-4.6c-4.6-2.5-9.2-5-13.8-7.5c-1-0.6-2-1.5-2.7-2.5c-2.5-3.8-4.8-7.6-7.3-11.4
		c-2.1-3.3-5-5.4-9-5.5c-6.9-0.1-13.9-0.1-20.8,0c-3.7,0.1-6.9,1.3-9.1,4.6c-2.9,4.4-5.4,9.2-5.8,14.4c-0.6,7.5-0.6,15-0.7,22.5
		c0,1.8,1.2,2.9,2.8,2.9c1.6,0,2.7-1.1,2.8-2.9c0.1-1.4,0-2.9,0-4.3c0-5.6,0-11.3,0-16.9c0-2.1,1.4-3.5,3.2-3.4
		c1.8,0,3.1,1.4,3.2,3.5c0,0.5,0,1,0,1.6c0,9.4,0,18.7,0,28.1c0,0.7,0,1.4,0,2.1C49.2,117.8,58.5,117.8,68.1,117.8z"/>
	<path class="st0" d="M82.9,201.1c0-3.5-0.3-7,0.1-10.4c0.7-7.4,4.8-12.8,10.9-16.9c13.9-9.2,33.1-7,43.7,5.1
		c3.5,4.1,5.2,8.9,5.3,14.2c0.1,5.9,0,11.8,0,17.7c0,3-1.5,4.2-4.5,3.9c-1-0.1-2-0.2-2.9-0.2c-16,0-32.1,0-48.1,0
		c-3.8,0-4.8-1-4.7-4.8c0-1.4,0.1-2.9,0.1-4.3c0-1.4,0-2.9,0-4.3C82.7,201.1,82.8,201.1,82.9,201.1z M89.5,208c15.4,0,31,0,46.8,0
		c0-5.2,0-10.2,0-15.2c0-4-1.5-7.4-4.3-10.2c-10.6-10.6-28.1-10.4-38.5,0.1c-2.2,2.3-3.8,5-3.9,8.1C89.3,196.4,89.5,202.1,89.5,208z
		"/>
	<path class="st0" d="M44.3,214.5c-8.2,0-16.4,0-24.5,0c-3.4,0-4.5-1.1-4.4-4.4c0.1-5.4,0.3-10.9,0.3-16.3c0-7.7,3.1-13.8,9.1-18.5
		c12.1-9.6,30.2-9.5,42.2,0.3c5.7,4.6,8.7,10.5,8.7,17.9c0,5.8,0,11.5,0,17.3c0,3.1-1.5,4.4-4.6,4c-0.8-0.1-1.7-0.2-2.5-0.2
		C60.4,214.5,52.4,214.5,44.3,214.5z M69,208c0-5.6,0.1-10.9-0.1-16.3c-0.1-3.6-1.7-6.7-4.2-9.3c-9.7-9.6-25.1-10.6-36.3-1.8
		c-4.1,3.2-6.3,7.5-6.3,12.7c-0.1,4.4-0.1,8.9-0.2,13.3c0,0.4,0.1,0.9,0.2,1.3C37.7,208,53.3,208,69,208z"/>
	<path class="st0" d="M150.1,201.3c0-3.5-0.3-7,0.1-10.4c0.8-8.2,5.5-13.9,12.4-18c12.5-7.3,28.1-6.1,38.9,2.9
		c5.6,4.6,8.4,10.6,8.4,17.8c0,5.7,0,11.4,0,17.1c0,3.1-1.5,4.4-4.6,4c-0.9-0.1-1.8-0.2-2.7-0.2c-16,0-32.1,0-48.1,0
		c-4.1,0-4.9-0.9-4.8-5c0-2.7,0-5.5,0-8.2C149.8,201.3,150,201.3,150.1,201.3z M203.4,208c0-5.2,0-10.3,0-15.3c0-4-1.5-7.4-4.3-10.2
		c-9.6-9.6-25.1-10.7-36.3-1.9c-4.1,3.2-6.3,7.4-6.3,12.7c0,3.1-0.1,6.1-0.2,9.2c0,1.8,0,3.6,0,5.5C172.1,208,187.6,208,203.4,208z"
		/>
	<path class="st0" d="M71.5,37.2c0,10.1-8,18.3-18,18.3c-10,0.1-18.2-8-18.2-18.1c-0.1-10.1,8-18.2,18-18.3
		C63.2,19,71.4,27.1,71.5,37.2z M53.5,25.6c-6.5-0.1-11.8,5.1-11.9,11.6c-0.1,6.4,5.1,11.9,11.5,12c6.4,0.1,11.8-5.1,11.9-11.6
		C65.2,31.1,59.9,25.6,53.5,25.6z"/>
	<path class="st0" d="M62.1,146.3c0,9.3-7.4,16.7-16.7,16.7c-9.2,0-16.7-7.5-16.6-16.8c0.1-9.2,7.5-16.6,16.6-16.6
		C54.6,129.6,62.1,137,62.1,146.3z M35.3,146.3c0,5.6,4.5,10.3,10.1,10.4c5.5,0.1,10.2-4.6,10.3-10.2c0-5.6-4.5-10.3-10.1-10.3
		C39.9,136,35.3,140.6,35.3,146.3z"/>
	<path class="st0" d="M163.2,146.1c0.2-9.4,7.7-16.6,17.2-16.4c8.9,0.2,16.3,7.9,16.1,16.9c-0.2,9.4-7.7,16.7-17.1,16.5
		C170.3,162.9,163,155.3,163.2,146.1z M169.6,146.4c0,5.6,4.7,10.3,10.3,10.2c5.6-0.1,10.2-4.7,10.1-10.3c0-5.6-4.6-10.2-10.3-10.2
		C174.2,136.1,169.6,140.8,169.6,146.4z"/>
	<path class="st0" d="M129.3,146.4c0,9.3-7.5,16.7-16.8,16.6c-9.2-0.1-16.6-7.6-16.5-16.9c0.1-9.3,7.6-16.6,16.9-16.5
		C122,129.7,129.3,137.2,129.3,146.4z M122.8,146.4c0-5.6-4.5-10.3-10.2-10.3c-5.6,0-10.2,4.6-10.2,10.2c0,5.6,4.6,10.3,10.2,10.3
		C118.2,156.6,122.8,152,122.8,146.4z"/>
	<path class="st1" d="M183.6,86.7c-2.2,0-4.1,0-6.2,0c0-18.6,0-37.1,0-55.8c2.1,0,4.1,0,6.2,0C183.6,49.5,183.6,68,183.6,86.7z"/>
	<path class="st1" d="M140.5,86.7c-2.2,0-4.1,0-6.2,0c0-11,0-21.8,0-32.8c2.1,0,4.1,0,6.2,0C140.5,64.8,140.5,75.7,140.5,86.7z"/>
	<path class="st1" d="M159.9,55.9c2.2,0,4.2,0,6.3,0c0,10.3,0,20.4,0,30.7c-2.1,0-4.2,0-6.3,0C159.9,76.4,159.9,66.2,159.9,55.9z"/>
	<path class="st1" d="M147.4,65.6c2.1,0,4.1,0,6.2,0c0,7,0,13.9,0,21c-2,0-4,0-6.2,0C147.4,79.7,147.4,72.8,147.4,65.6z"/>
</g>
</svg>
