<svg id="Grupo_28" data-name="Grupo 28" xmlns="http://www.w3.org/2000/svg" xmlns:xlink="http://www.w3.org/1999/xlink" width="66.343" height="64.176" viewBox="0 0 66.343 64.176">
  <defs>
    <clipPath id="clip-path">
      <rect id="Rectángulo_46" data-name="Rectángulo 46" width="66.343" height="64.176" fill="#aab7c4"/>
    </clipPath>
  </defs>
  <g id="Grupo_27" data-name="Grupo 27" clip-path="url(#clip-path)">
    <path id="Trazado_66" data-name="Trazado 66" d="M532.159,486.236a32.4,32.4,0,0,1-1.19,4.61c-2.306,5.543-6.464,8.981-12.412,9.863-6.454.957-11.693-1.374-15.575-6.623a16.052,16.052,0,0,1-.8-17.138,15.465,15.465,0,0,1,10.609-7.713c6.4-1.251,11.76.728,15.92,5.764a15.212,15.212,0,0,1,3.338,8.082,3.161,3.161,0,0,0,.114.435Zm-16.049-15.249a13.91,13.91,0,1,0,13.9,13.946,13.94,13.94,0,0,0-13.9-13.946" transform="translate(-465.817 -436.743)" fill="#fc7e00"/>
    <path id="Trazado_67" data-name="Trazado 67" d="M57.755,29.923H55.632V29.1q0-11.661.008-23.321a3.242,3.242,0,0,0-1.774-3.255,3.991,3.991,0,0,0-1.684-.351Q28.893,2.142,5.6,2.16a3.205,3.205,0,0,0-3.46,3.549c-.011,4.837,0,9.674,0,14.511q0,15.871-.006,31.743A3.247,3.247,0,0,0,3.986,55.3a4.97,4.97,0,0,0,1.949.333q13.183.031,26.366.014h.846v2.107c-.21.012-.4.032-.585.032q-13.442,0-26.884,0A5.315,5.315,0,0,1,.216,53.808,6.243,6.243,0,0,1,.01,52.146Q-.006,28.889,0,5.633A5.368,5.368,0,0,1,5.627.006q23.257-.014,46.513,0a5.373,5.373,0,0,1,5.643,5.608q.019,11.887,0,23.775c0,.167-.019.335-.031.534" transform="translate(0 0)" fill="#aab7c4"/>
    <rect id="Rectángulo_34" data-name="Rectángulo 34" width="49.165" height="2.064" transform="translate(4.307 8.599)" fill="#aab7c4"/>
    <path id="Trazado_68" data-name="Trazado 68" d="M73.259,379.916l1.513,1.5-2.528,2.52a20.544,20.544,0,0,1,.71,2.659,5.262,5.262,0,0,1-5,5.812,5.337,5.337,0,1,1,2.183-10.047.619.619,0,0,0,.879-.148c.735-.784,1.5-1.54,2.239-2.295m-4.3,4.309a3.069,3.069,0,0,0-3.874.945,3.251,3.251,0,0,0,.363,4.19,3.2,3.2,0,0,0,4.194.219,3.036,3.036,0,0,0,.787-3.943L68.569,387.7l-1.681-1.576,2.073-1.9" transform="translate(-58.043 -353.884)" fill="#aab7c4"/>
    <path id="Trazado_69" data-name="Trazado 69" d="M73.237,567.684l1.519,1.431-2.567,2.546a20.547,20.547,0,0,1,.717,2.67,5.273,5.273,0,0,1-4.926,5.82A5.34,5.34,0,1,1,70.091,570.1a.623.623,0,0,0,.881-.144c.741-.778,1.515-1.526,2.265-2.275m-6.44,6.2,2.158-1.908a3.1,3.1,0,0,0-3.966,1.009,3.223,3.223,0,0,0,.532,4.219,3.184,3.184,0,0,0,4.2.016,2.942,2.942,0,0,0,.677-3.762l-1.961,2.1-1.64-1.677" transform="translate(-57.996 -528.786)" fill="#aab7c4"/>
    <path id="Trazado_70" data-name="Trazado 70" d="M73.252,192.593l1.561,1.529c-.764.766-1.53,1.553-2.321,2.314a.54.54,0,0,0-.131.767,5.338,5.338,0,1,1-9.149-.378,5.275,5.275,0,0,1,6.775-1.88.814.814,0,0,0,1.195-.194c.666-.759,1.4-1.461,2.071-2.158m-2.758,5.7-1.962,2.154-1.671-1.669,2.044-1.973A3.139,3.139,0,0,0,65,198a3.2,3.2,0,0,0,4.576,4.318,3.146,3.146,0,0,0,.916-4.028" transform="translate(-58.064 -179.397)" fill="#aab7c4"/>
    <rect id="Rectángulo_35" data-name="Rectángulo 35" width="18.118" height="2.058" transform="translate(18.241 30.009)" fill="#aab7c4"/>
    <rect id="Rectángulo_36" data-name="Rectángulo 36" width="18.118" height="2.06" transform="translate(18.241 17.167)" fill="#aab7c4"/>
    <rect id="Rectángulo_37" data-name="Rectángulo 37" width="14.872" height="2.072" transform="translate(27.863 21.441)" fill="#aab7c4"/>
    <path id="Trazado_71" data-name="Trazado 71" d="M279.12,624.595v2.11h-13.9a17.444,17.444,0,0,1,.025-1.756c.014-.134.338-.335.521-.338,1.6-.027,3.194-.016,4.792-.016h8.56" transform="translate(-247.039 -581.796)" fill="#aab7c4"/>
    <rect id="Rectángulo_38" data-name="Rectángulo 38" width="10.631" height="2.063" transform="translate(38.562 17.16)" fill="#aab7c4"/>
    <rect id="Rectángulo_39" data-name="Rectángulo 39" width="8.484" height="2.05" transform="translate(27.865 34.286)" fill="#aab7c4"/>
    <rect id="Rectángulo_40" data-name="Rectángulo 40" width="7.406" height="2.064" transform="translate(18.213 34.287)" fill="#aab7c4"/>
    <rect id="Rectángulo_41" data-name="Rectángulo 41" width="7.42" height="2.063" transform="translate(18.218 47.134)" fill="#aab7c4"/>
    <rect id="Rectángulo_42" data-name="Rectángulo 42" width="7.406" height="2.067" transform="translate(18.214 21.445)" fill="#aab7c4"/>
    <rect id="Rectángulo_43" data-name="Rectángulo 43" width="4.193" height="2.069" transform="translate(38.541 30.004)" fill="#aab7c4"/>
    <rect id="Rectángulo_44" data-name="Rectángulo 44" width="4.214" height="2.055" transform="translate(27.879 47.119)" fill="#aab7c4"/>
    <path id="Trazado_72" data-name="Trazado 72" d="M125.674,62.847h2.1c0,.617.019,1.213-.017,1.8-.007.115-.227.3-.358.309-.554.035-1.112.015-1.721.015Z" transform="translate(-117.063 -58.541)" fill="#1c3247"/>
    <path id="Trazado_73" data-name="Trazado 73" d="M187.822,65.333v-2.1h2.12c0,.58.016,1.175-.014,1.767a.439.439,0,0,1-.287.316c-.594.031-1.191.015-1.82.015" transform="translate(-174.952 -58.902)" fill="#1c3247"/>
    <rect id="Rectángulo_45" data-name="Rectángulo 45" width="2.061" height="2.061" transform="translate(4.308 4.319)" fill="#1c3247"/>
    <path id="Trazado_74" data-name="Trazado 74" d="M610.786,592.1l1.908-.949,1.447,2.869,11.711-11.727,1.514,1.609c-.084.09-.225.248-.375.4q-5.993,6-11.988,11.989c-1.013,1.012-1.667.9-2.313-.385-.626-1.249-1.251-2.5-1.9-3.8" transform="translate(-568.935 -542.393)" fill="#fc7e00"/>
  </g>
</svg>
