<?xml version="1.0" encoding="utf-8"?>
<!-- Generator: Adobe Illustrator 24.0.0, SVG Export Plug-In . SVG Version: 6.00 Build 0)  -->
<svg version="1.1" id="Capa_1" xmlns="http://www.w3.org/2000/svg" xmlns:xlink="http://www.w3.org/1999/xlink" x="0px" y="0px"
	 viewBox="0 0 198.4 198.4" style="enable-background:new 0 0 198.4 198.4;" xml:space="preserve">
<style type="text/css">
	.st0{fill:#ACAEAF;}
	.st1{fill:#FE9900;}
	.st2{fill:#1C3247;}
</style>
<path class="st0" d="M41.9,178.1c-0.2-0.1-0.4-0.2-0.6-0.3c-4.7-1.4-7.4-4.8-7.4-9.7c0-6.7,0-13.4,0-20.2c0-35.3,0-70.7,0-106
	c0-1.3,0.1-2.7,0.4-4c1.1-4.2,4.8-7,9.3-7c7.4,0,14.7,0,22.1,0c0.6,0,1.2,0,1.9,0c0-2,0-4,0-5.9c0-2.2,0.9-3.1,3.1-3.2
	c3.8,0,7.6,0,11.5,0c1,0,1.5-0.2,2-1.2c2.7-5.2,7.1-7.9,12.9-7.9c5.8,0,10.1,2.8,12.8,7.9c0.5,0.9,1,1.2,2,1.2c3.8-0.1,7.6,0,11.5,0
	c2.2,0,3.1,0.9,3.1,3.2c0,1.9,0,3.8,0,5.9c0.6,0,1.2,0,1.8,0c7.3,0,14.5,0,21.8,0c6.2,0,10.2,4,10.2,10.2c0,42.3,0,84.5,0,126.8
	c0,5.2-2.2,8-8,10.1C115.5,178.1,78.7,178.1,41.9,178.1z M67.8,36.1c-7.8,0-15.4,0-23,0c-4.1,0-5.6,1.5-5.6,5.7
	c0,41.8,0,83.7,0,125.5c0,4.1,1.5,5.6,5.7,5.6c34.9,0,69.7,0,104.6,0c4.2,0,5.8-1.5,5.8-5.7c0-9.1,0-18.2,0-27.3
	c0-32.8,0-65.5,0-98.3c0-4-1.6-5.6-5.5-5.6c-7.1,0-14.2,0-21.3,0c-0.6,0-1.1,0-1.6,0c-0.1,0.3-0.1,0.4-0.1,0.6c0,1.8,0,3.5,0,5.3
	c0,2.2-0.9,3.2-3.1,3.2c-17.5,0-35.1,0-52.6,0c-2.1,0-3-0.9-3-3.1C67.7,40.1,67.8,38.2,67.8,36.1z M73,39.8c16.2,0,32.2,0,48.2,0
	c0-4.3,0-8.5,0-12.8c-3.8,0-7.4,0-11.1,0c-3.1,0-3.2-0.1-4.3-3c-1.3-3.6-4.8-6.1-8.7-6.1c-3.9,0-7.4,2.4-8.7,6.1c-1,2.9-1.2,3-4.3,3
	c-3.7,0-7.4,0-11.1,0C73,31.4,73,35.6,73,39.8z"/>
<g>
	<path class="st1" d="M56.9,96.2c0.6-1.9,2-2.7,4-2.6c1.3,0.1,2.6,0,3.7,0c1.2-2.9,2.4-5.8,3.6-8.8C67.4,84,66.4,83,65.4,82
		c-1.7-1.7-1.7-3.5,0-5.1c2.4-2.4,4.8-4.8,7.2-7.2c1.6-1.6,3.4-1.6,5,0c1,1,2.1,2.1,3,3c3-1.2,5.8-2.4,8.8-3.6c0-1.3,0-2.7,0-4.2
		c0-2.2,1.3-3.5,3.5-3.5c3.4,0,6.8,0,10.2,0c2.3,0,3.6,1.3,3.6,3.6c0,1.4,0,2.8,0,4.1c2.9,1.2,5.8,2.4,8.8,3.6
		c0.8-0.8,1.9-1.9,2.9-2.9c1.7-1.7,3.4-1.7,5.1,0c2.4,2.4,4.8,4.8,7.2,7.2c1.6,1.6,1.6,3.4,0,5c-1,1-2,2-3.1,3
		c0.7,1.4,1.4,2.8,2,4.2c0.6,1.4,1.1,2.9,1.6,4.5c1.3,0,2.8,0,4.2,0c2.4,0,3.6,1.3,3.6,3.7c0,3.4,0,6.7,0,10.1
		c0,2.2-1.3,3.5-3.5,3.5c-1.4,0-2.8,0-4.2,0c0,0-0.1,0,0,0c-1.2,2.9-2.4,5.8-3.6,8.7c0,0,0.2,0.2,0.4,0.4c0.9,0.9,1.9,1.8,2.8,2.8
		c1.3,1.4,1.4,3.2,0,4.6c-2.5,2.6-5.1,5.2-7.7,7.7c-1.3,1.3-3.2,1.3-4.5,0c-1.1-1.1-2.2-2.2-3.2-3.2c-3,1.2-5.8,2.4-8.8,3.6
		c0,1.1-0.1,2.4,0,3.7c0.1,2-0.7,3.3-2.6,4c-4.1,0-8.1,0-12.2,0c-1.9-0.7-2.7-2-2.6-4c0.1-1.3,0-2.6,0-3.8c-3-1.2-5.8-2.4-8.7-3.6
		c0.1-0.1,0.1-0.1,0.1,0c-1,1-2,2-3.1,3c-1.6,1.5-3.4,1.5-4.9,0c-2.4-2.4-4.9-4.9-7.3-7.3c-1.5-1.5-1.5-3.4,0-4.9
		c1.1-1.1,2.1-2.1,3-3c-1.2-3-2.4-5.8-3.6-8.8c-1.1,0-2.5-0.1-3.8,0c-2,0.1-3.3-0.7-4-2.6C56.9,104.3,56.9,100.2,56.9,96.2z
		 M75.1,132.7c0.1-0.1,0.3-0.3,0.5-0.5c1.2-1.2,2.4-2.4,3.6-3.6c0.7-0.7,1.3-0.8,2.1-0.3c3.1,1.9,6.3,3.3,9.8,4.1
		c0.9,0.2,1.3,0.8,1.3,1.8c0,1.7,0,3.4,0,5c0,0.3,0,0.5,0,0.8c3.7,0,7.2,0,10.9,0c0-1.9,0-3.7,0-5.5c0-1.4,0.4-1.8,1.7-2.1
		c3.2-0.8,6.2-2,9-3.7c1.3-0.8,1.8-0.7,2.9,0.4c1.3,1.3,2.5,2.5,3.7,3.7c2.6-2.6,5.1-5.1,7.7-7.7c-0.1-0.1-0.3-0.3-0.5-0.5
		c-1.2-1.2-2.3-2.3-3.5-3.5c-0.7-0.7-0.8-1.4-0.3-2.2c0.2-0.4,0.5-0.8,0.7-1.2c1.5-2.6,2.5-5.3,3.2-8.1c0.3-1.3,0.8-1.7,2.1-1.7
		c0.5,0,0.9,0,1.4,0c1.4,0,2.8,0,4.1,0c0-3.7,0-7.3,0-10.9c-1.8,0-3.6,0-5.4,0c-1.4,0-1.9-0.3-2.2-1.7c-0.7-3.2-2-6.2-3.7-9
		c-0.8-1.3-0.7-1.8,0.4-2.9c1.3-1.3,2.5-2.5,3.7-3.7c-2.6-2.6-5.1-5.1-7.7-7.7c-1.2,1.2-2.5,2.5-3.8,3.8c-1,1-1.5,1-2.7,0.3
		c-2.8-1.7-5.9-3-9.1-3.8c-1.4-0.3-1.7-0.8-1.7-2.2c0-1.8,0-3.6,0-5.4c-3.7,0-7.2,0-10.9,0c0,1.9,0,3.8,0,5.7c0,1-0.4,1.6-1.3,1.8
		c-3.5,0.8-6.8,2.2-9.9,4.1c-0.7,0.5-1.4,0.3-2.1-0.3c-1.1-1.1-2.2-2.1-3.2-3.2c-0.3-0.3-0.5-0.6-0.7-0.8c-2.7,2.7-5.2,5.2-7.8,7.8
		c1.3,1.2,2.6,2.6,3.9,3.9c0.7,0.7,0.8,1.4,0.3,2.2c-1.9,3-3.2,6.2-4,9.7c-0.2,1-0.8,1.4-1.8,1.4c-1.7,0-3.4,0-5,0
		c-0.3,0-0.5,0-0.7,0c0,3.7,0,7.3,0,10.9c1.9,0,3.8,0,5.7,0c1.1,0,1.7,0.4,1.9,1.5c0.8,3.3,2,6.4,3.8,9.3c0.7,1.2,0.7,1.7-0.3,2.7
		c-1.3,1.3-2.6,2.6-3.8,3.8C70,127.6,72.6,130.1,75.1,132.7z"/>
	<path class="st1" d="M121.4,102.3c-0.1,12-9.3,22.1-21.3,23.2c-12.6,1.1-23.6-7.6-25.4-20.2C73,92.9,81.8,81.1,94.3,79.2
		c5-0.7,9.7,0,14.2,2.2c0.2,0.1,0.4,0.2,0.6,0.3c1,0.5,1.3,1.4,0.8,2.3c-0.5,0.8-1.3,1-2.3,0.6c-1.9-0.7-3.7-1.6-5.7-2.1
		c-11-2.4-22.1,5.2-23.9,16.4c-1.8,11.3,5.7,21.6,17.1,23.3c11.1,1.7,21.7-6.5,22.9-17.7c0.4-3.8-0.2-7.4-1.8-10.9
		c-0.1-0.1-0.1-0.2-0.2-0.4c-0.4-0.9-0.1-1.8,0.7-2.2c0.8-0.4,1.7-0.1,2.1,0.8c1,2,1.7,4.2,2.1,6.4
		C121.1,99.7,121.2,101,121.4,102.3z"/>
	<path class="st2" d="M95.6,98.7c2.3-2.4,4.6-4.6,6.9-6.9c0.2-0.2,0.5-0.5,0.7-0.7c0.9-0.8,1.7-0.9,2.6,0c1.8,1.8,3.6,3.6,5.4,5.4
		c0.9,0.9,0.8,1.7,0,2.6c-4.8,4.8-9.5,9.5-14.3,14.3c-0.9,0.9-1.7,0.8-2.6,0c-3.3-3.3-6.5-6.5-9.8-9.8c-0.9-0.9-0.9-1.7,0-2.6
		c1.8-1.8,3.6-3.6,5.4-5.4c0.9-0.9,1.8-0.9,2.7,0C93.6,96.7,94.6,97.7,95.6,98.7z M107.8,97.9c-1.1-1.1-2.2-2.2-3.4-3.4
		c-2.4,2.4-4.8,4.9-7.3,7.3c-1.1,1.1-1.9,1.1-3,0c-1-1-1.9-1.9-2.8-2.8c-1.2,1.2-2.3,2.3-3.4,3.4c2.6,2.6,5.1,5.2,7.7,7.7
		C99.7,106,103.8,101.9,107.8,97.9z"/>
	<path class="st1" d="M115.2,87.2c0,0.9-0.7,1.6-1.5,1.6c-0.9,0-1.7-0.7-1.6-1.6c0-0.9,0.7-1.6,1.6-1.6
		C114.5,85.6,115.2,86.3,115.2,87.2z"/>
</g>
</svg>
