<?xml version="1.0" encoding="utf-8"?>
<!-- Generator: Adobe Illustrator 24.0.0, SVG Export Plug-In . SVG Version: 6.00 Build 0)  -->
<svg version="1.1" id="Capa_1" xmlns="http://www.w3.org/2000/svg" xmlns:xlink="http://www.w3.org/1999/xlink" x="0px" y="0px"
	 viewBox="0 0 80 80" style="enable-background:new 0 0 80 80;" xml:space="preserve">
<style type="text/css">
	.st0{fill:#ACAEAF;}
	.st1{fill:#1C3247;}
	.st2{fill:#FE9900;}
</style>
<g>
	<g>
		<path class="st0" d="M7.55,66.86c0-16.27,0-32.55,0-48.82c0.03-0.03,0.07-0.06,0.08-0.1c0.71-2.19,1.96-3.1,4.25-3.1
			c2.71,0,5.41,0,8.12,0c0.23,0,0.45,0,0.72,0c0-0.5-0.01-0.92,0-1.34c0.05-2.1,1.74-3.76,3.82-3.77c2.08-0.01,3.78,1.64,3.85,3.74
			c0.01,0.44,0,0.88,0,1.33c6.94,0,13.8,0,20.71,0c0-0.44-0.01-0.84,0-1.24c0.04-2.14,1.72-3.82,3.82-3.83c2.11,0,3.8,1.67,3.84,3.8
			c0.01,0.42,0,0.84,0,1.31c0.3,0,0.53,0,0.76,0c2.68,0,5.37,0,8.05,0c2.79,0,4.35,1.56,4.35,4.35c0,11.73,0,23.47-0.01,35.2
			c0,0.49,0.11,0.87,0.42,1.27c5.29,6.65,2.29,16.42-5.81,18.96c-0.74,0.23-1.52,0.36-2.28,0.54c-0.81,0-1.62,0-2.43,0
			c-0.1-0.03-0.2-0.08-0.3-0.1c-3.36-0.44-6.05-2.03-8.14-4.67c-0.15-0.19-0.49-0.33-0.74-0.33c-2.79-0.02-5.58-0.01-8.37-0.01
			c-1.04,0-2.09,0-3.13,0c-0.53,0-1.03-0.21-1.16-0.73c-0.1-0.41-0.09-0.99,0.14-1.29c0.23-0.31,0.79-0.51,1.21-0.51
			c3.24-0.04,6.48-0.02,9.71-0.02c0.22,0,0.44-0.02,0.62-0.03c-0.26-1.21-0.51-2.36-0.77-3.55c-0.25,0-0.5,0-0.76,0
			c-10.89,0-21.77,0-32.66,0c-1.43,0-1.8-0.37-1.8-1.83c0-9.71,0-19.43,0-29.14c0-1.36,0.39-1.76,1.74-1.76c15.55,0,31.1,0,46.66,0
			c1.32,0,1.72,0.4,1.72,1.72c0,5.92,0,11.84,0,17.76c0,0.25,0,0.51,0,0.68c1.23,0.52,2.4,1,3.53,1.47c0-8.39,0-16.79,0-25.21
			c-0.33,0-0.6,0-0.88,0c-15.59,0-31.19,0-46.78,0c-0.26,0-0.51,0.02-0.77-0.02c-0.65-0.09-1.12-0.64-1.12-1.27
			c0.01-0.64,0.49-1.17,1.14-1.25c0.23-0.03,0.47-0.01,0.7-0.01c15.64,0,31.27,0,46.91,0c0.27,0,0.54,0,0.84,0c0-2.09,0-4.08,0-6.08
			c0-1.09-0.51-1.58-1.62-1.58c-2.81,0-5.62,0-8.44,0c-0.16,0-0.33,0-0.55,0c0,0.46,0.01,0.86,0,1.26
			c-0.04,2.18-1.73,3.86-3.86,3.85c-2.1-0.01-3.77-1.7-3.8-3.85c-0.01-0.41,0-0.83,0-1.23c-6.96,0-13.81,0-20.71,0
			c0,0.48,0.01,0.92,0,1.36c-0.07,2.06-1.76,3.7-3.81,3.71c-2.08,0.01-3.79-1.65-3.85-3.73c-0.01-0.44,0-0.88,0-1.38
			c-0.3,0-0.53,0-0.76,0c-2.66,0-5.33,0-7.99,0c-1.46,0-1.87,0.4-1.87,1.85c0,15.46,0,30.93,0,46.39c0,1.46,0.4,1.86,1.86,1.86
			c5.58,0,11.16,0,16.74,0c0.86,0,1.45,0.54,1.45,1.28c-0.01,0.72-0.58,1.26-1.4,1.27c-5.79,0.01-11.59,0.01-17.38-0.01
			c-1.66,0-3.07-1.08-3.62-2.66C7.7,67.21,7.62,67.04,7.55,66.86z M61,53.7c-5.22,0-9.47,4.25-9.46,9.47c0,5.19,4.24,9.43,9.42,9.45
			c5.22,0.01,9.49-4.22,9.5-9.44C70.46,57.95,66.21,53.7,61,53.7z M32.67,41.28c0-2.54,0-5.02,0-7.48c-2.32,0-4.59,0-6.87,0
			c0,2.52,0,4.99,0,7.48C28.11,41.28,30.37,41.28,32.67,41.28z M44.81,33.79c0,2.54,0,5,0,7.48c2.31,0,4.58,0,6.89,0
			c0-2.51,0-4.99,0-7.48C49.39,33.79,47.12,33.79,44.81,33.79z M25.78,61.33c2.33,0,4.6,0,6.89,0c0-2.51,0-4.99,0-7.47
			c-2.32,0-4.59,0-6.89,0C25.78,56.36,25.78,58.82,25.78,61.33z M25.81,43.87c0,2.5,0,4.93,0,7.35c2.33,0,4.6,0,6.86,0
			c0-2.48,0-4.91,0-7.35C30.36,43.87,28.1,43.87,25.81,43.87z M51.71,51.23c0-2.47,0-4.89,0-7.33c-2.32,0-4.61,0-6.9,0
			c0,2.46,0,4.88,0,7.33C47.11,51.23,49.38,51.23,51.71,51.23z M23.17,33.8c-2.34,0-4.61,0-6.87,0c0,2.52,0,4.99,0,7.46
			c2.31,0,4.58,0,6.87,0C23.17,38.76,23.17,36.3,23.17,33.8z M35.33,33.78c0,2.54,0,5.01,0,7.48c2.31,0,4.58,0,6.84,0
			c0-2.52,0-4.99,0-7.48C39.87,33.78,37.62,33.78,35.33,33.78z M61.2,41.28c0-2.53,0-5.01,0-7.48c-2.31,0-4.58,0-6.85,0
			c0,2.51,0,4.99,0,7.48C56.65,41.28,58.9,41.28,61.2,41.28z M23.16,53.87c-2.35,0-4.61,0-6.87,0c0,2.52,0,4.99,0,7.46
			c2.32,0,4.58,0,6.87,0C23.16,58.82,23.16,56.36,23.16,53.87z M35.32,53.85c0,2.53,0,5.01,0,7.48c2.31,0,4.58,0,6.84,0
			c0-2.51,0-4.99,0-7.48C39.87,53.85,37.62,53.85,35.32,53.85z M23.14,51.25c0-2.49,0-4.92,0-7.35c-2.32,0-4.58,0-6.85,0
			c0,2.47,0,4.91,0,7.35C18.59,51.25,20.84,51.25,23.14,51.25z M42.17,51.25c0-2.48,0-4.92,0-7.35c-2.31,0-4.57,0-6.85,0
			c0,2.47,0,4.9,0,7.35C37.61,51.25,39.86,51.25,42.17,51.25z M61.22,43.89c-2.32,0-4.58,0-6.87,0c0,2.47,0,4.9,0,7.38
			c1.17,0,2.3,0.02,3.42,0c1.14-0.02,2.28-0.08,3.45-0.13C61.22,48.7,61.22,46.32,61.22,43.89z M44.82,53.86c0,2.52,0,5,0,7.49
			c1.45,0,2.85,0,4.26,0c0.05-0.18,0.1-0.34,0.13-0.51c0.32-1.7,0.95-3.28,2.02-4.63c0.6-0.75,0.53-1.5,0.48-2.35
			C49.4,53.86,47.13,53.86,44.82,53.86z M25.83,16.11c0-0.81,0.01-1.61,0-2.42c-0.01-0.83-0.52-1.39-1.25-1.4
			c-0.75-0.01-1.29,0.56-1.3,1.42c-0.01,1.61-0.01,3.23,0,4.84c0.01,0.83,0.52,1.39,1.25,1.4c0.75,0.02,1.29-0.56,1.3-1.42
			C25.84,17.73,25.83,16.92,25.83,16.11z M51.66,16.12c0,0.81-0.01,1.61,0,2.42c0.01,0.83,0.52,1.39,1.25,1.41
			c0.75,0.02,1.3-0.56,1.3-1.41c0.01-1.61,0.01-3.23,0-4.84c-0.01-0.83-0.52-1.39-1.25-1.41c-0.75-0.02-1.29,0.56-1.3,1.41
			C51.65,14.51,51.66,15.32,51.66,16.12z"/>
		<path class="st1" d="M13.96,25.07c0.71,0.01,1.28,0.62,1.25,1.32c-0.03,0.68-0.61,1.23-1.29,1.22c-0.7-0.01-1.28-0.62-1.25-1.32
			C12.7,25.62,13.29,25.06,13.96,25.07z"/>
		<path class="st1" d="M34.02,67.51c0.68,0.01,1.26,0.61,1.25,1.28c-0.01,0.7-0.63,1.3-1.34,1.26c-0.69-0.03-1.23-0.61-1.21-1.31
			C32.75,68.04,33.32,67.49,34.02,67.51z"/>
	</g>
	<path class="st2" d="M65.69,67.15h-5.65c-0.79,0-1.43-0.64-1.43-1.43v-7.41c0-0.79,0.64-1.43,1.43-1.43s1.43,0.64,1.43,1.43v5.98
		h4.22c0.79,0,1.43,0.64,1.43,1.43C67.11,66.51,66.47,67.15,65.69,67.15z"/>
</g>
</svg>
