<?xml version="1.0" encoding="utf-8"?>
<!-- Generator: Adobe Illustrator 24.0.0, SVG Export Plug-In . SVG Version: 6.00 Build 0)  -->
<svg version="1.1" id="Capa_1" xmlns="http://www.w3.org/2000/svg" xmlns:xlink="http://www.w3.org/1999/xlink" x="0px" y="0px"
	 viewBox="0 0 200 200" style="enable-background:new 0 0 200 200;" xml:space="preserve">
<style type="text/css">
	.st0{fill:#ACAEAF;}
	.st1{fill:#FE9900;}
	.st2{fill:#1C3247;}
</style>
<g>
	<path class="st0" d="M129.1,196.2c-3.7-0.7-7.4-1.2-10.9-2.2c-3.9-1.2-7.4-2.9-11.1-4.4c-2.5-1.2-3.2-2.7-2.2-4.4
		c0.8-1.7,2.4-1.8,4.7-0.5c8.1,4.4,16.8,6.2,26.1,6.1c24.2-0.5,45.7-19.7,49.1-43.5c4-27.9-13.3-53-40.7-58.8
		c-27.9-6.1-56.3,13.3-61,41.4c-3,18.8,2.5,34.8,16.5,47.7c0.3,0.3,0.7,0.5,1,0.8c1,1.2,1.2,2.7,0.2,3.7c-1,1.2-2.7,1.3-3.9,0.2
		c-2.7-2.5-5.2-5.2-7.6-8.1c-1-1.2-2-1.8-3.5-1.8c-21.4,0-42.5,0-63.9,0c-5.5,0-7.9-2.2-7.9-7.7c0-48.9,0-97.8,0-146.9
		c0-3.9,1.3-6.7,5-8.1c35.6,0,71.1,0,106.8,0c3.7,1.5,5,4.2,4.9,8.2c-0.2,3.4,0,6.9,0,10.4c0,2.9-0.8,4-2.7,4s-2.7-1.3-2.7-4.2
		c0-3.5,0-6.9,0-10.4c0-2.7,0-2.7-2.5-2.7c-32.6,0-65.1,0-97.7,0c-1.2,0-2.4,0-3.7,0c-1.5-0.2-2,0.5-1.8,2c0,0.3,0,0.7,0,0.8
		c0,48.8,0,97.5,0,146.1c0,2.9,0,2.9,2.9,2.9c20,0,39.8,0,59.8,0c0.7,0,1.3,0,2,0c-1.5-3.5-2.7-6.7-4.2-10.1
		c-0.2-0.3-1.2-0.7-1.8-0.7c-14.3,0-28.7,0-43,0c-0.5,0-1.2,0-1.7,0c-1.5-0.2-2.5-1.3-2.5-2.9c0.2-1.5,1-2.4,2.5-2.5
		c0.5,0,1,0,1.7,0c13.6,0,27.4,0,41,0c0.7,0,1.3,0,2,0c-0.3-2.5-0.7-5-1.2-7.7c-0.7,0-1.3,0-2,0c-13.3,0-26.6,0-39.8,0
		c-0.8,0-1.5,0-2.4-0.2c-1.2-0.3-1.8-1.3-1.8-2.5c0-1.3,0.7-2.2,2-2.5c0.7-0.2,1.5-0.2,2.4-0.2c13.1,0,26.2,0,39.3,0
		c0.7,0,1.3,0,2.4,0c0.2-2.2,0.3-4.2,0.5-6.4c-0.7,0-1.2-0.2-1.7-0.2c-4.2-0.2-6.7-2.7-6.7-6.9c0-4.2,0-8.4,0-12.8
		c0-6.9,0-14,0-20.8c0-5,2.5-7.4,7.6-7.4c9.9,0,20,0,29.9,0c2.2,0,4,0.5,5.5,2c0.3,0.3,1,0.3,1.3,0.3c3.9-1.2,7.6-2.2,11.8-3.5
		c0-0.3,0-1.2,0-1.8c0-12.8,0-25.7,0-38.5c0-0.7,0-1.2,0-1.8c0.3-1.5,1.3-2.4,2.9-2.4c1.5,0.2,2.5,1,2.5,2.5c0,0.7,0,1.2,0,1.8
		c0,12.4,0,25,0,37.5c0,0.7,0,1.5,0,2.4c0.8,0,1.7,0,2.4,0c28.6-0.7,53.5,20.5,57.5,48.9c4.4,31.8-17.7,60.7-49.3,64.9
		c-0.8,0.2-1.7,0.3-2.7,0.5C135.1,196.2,132.1,196.2,129.1,196.2z M78.1,125.8c4.2-16.1,13.4-28.2,27.9-36.8c-1,0-1.5-0.2-2-0.2
		c-9.2,0-18.3,0-27.6,0c-2.4,0-2.4,0-2.4,2.5c0,10.4,0,20.7,0,31.1C73.9,126.1,74.1,126.1,78.1,125.8z"/>
	<path class="st0" d="M71.9,71.8c-11.9,0-23.7,0-35.6,0c-4.4,0-5.9-1.5-5.9-5.9c0-2,0-4.2,0-6.2c0-3.5,1.7-5.2,5.2-5.2
		c6.2,0,12.6,0,18.8,0c17.7,0,35.1,0,52.8,0c4.5,0,6.1,1.5,6.1,6.1c0,2,0,4,0,6.1c0,3.4-1.8,5.2-5.2,5.2
		C96.1,71.8,84,71.8,71.9,71.8z M36.1,60c0,2.2,0,4.2,0,6.1c24,0,47.7,0,71.8,0c0-2,0-4,0-6.1C83.9,60,60,60,36.1,60z"/>
	<path class="st1" d="M45.5,103.6c-3.9,0-7.7,0-11.6,0c-2.2,0-3.4-1-3.4-2.7c0-1.8,1.2-2.9,3.5-2.9c7.9,0,15.6,0,23.5,0
		c2.2,0,3.4,1,3.4,2.7c0,1.7-1.2,2.7-3.5,2.9C53.6,103.6,49.6,103.6,45.5,103.6z"/>
	<path class="st1" d="M45.7,90.3c-4,0-7.9,0-11.9,0c-2,0-3.2-1-3.2-2.7s1.2-2.9,3.2-2.9c7.9,0,16,0,23.9,0c2,0,3.2,1,3.2,2.7
		c0,1.7-1.2,2.7-3.4,2.9C53.8,90.3,49.7,90.3,45.7,90.3z"/>
	<path class="st1" d="M45.9,111.3c3.9,0,7.9,0,11.8,0c2,0,3.2,1,3.2,2.5c0,1.7-1.2,2.9-3.2,2.9c-7.9,0-16,0-23.9,0
		c-2,0-3.4-1.2-3.2-2.9c0-1.7,1.2-2.7,3.2-2.7C37.8,111.3,41.8,111.3,45.9,111.3z"/>
	<path class="st1" d="M45.7,130c-4,0-7.9,0-11.9,0c-2,0-3.2-1-3.2-2.7s1.2-2.9,3.2-2.9c7.9,0,16,0,23.9,0c2,0,3.2,1,3.2,2.7
		s-1.2,2.7-3.2,2.9C53.8,130,49.7,130,45.7,130z"/>
	<path class="st0" d="M132.6,93c11.9,0.2,21.7,3.5,30.3,10.6c1.8,1.5,1.8,3.7,0.2,4.9c-1.3,0.8-2.5,0.3-3.7-0.7
		c-5.4-4.4-11.4-7.2-18.2-8.6c-21.9-4.5-44,10.9-47.4,33c-3.5,22.4,10.8,42.5,33.1,46.7c22.2,4.2,44.2-12.3,46.9-34.6
		c1.2-10.3-1-19.7-6.7-28.1c-1.3-1.8-1.2-3.5,0.3-4.4c1.5-1,2.9-0.5,4.2,1.3c18.8,27.1,2.9,65.4-29.8,71.1
		c-26.1,4.5-50.4-13.4-53.6-39.7c-3-24.5,14.5-47.6,38.8-50.9C129.3,93.3,131.4,93.1,132.6,93z"/>
	<path class="st2" d="M136.3,134.3c1.8-1,3.4-1.8,4.9-2.7c1.8-1,3.4-0.7,4.2,0.8s0.3,2.9-1.5,3.9c-2.9,1.7-5.5,3.4-8.4,4.9
		c-2.5,1.3-4.5,0.2-4.5-2.7c0-6.1,0-12.1,0-18.2c0-2,1.2-3.4,2.9-3.4c1.7,0,2.7,1.3,2.7,3.4C136.3,124.8,136.3,129.3,136.3,134.3z"
		/>
	<path class="st2" d="M136.3,169c0,0.7,0,1.3,0,2c-0.2,1.5-1,2.5-2.5,2.5c-1.5,0.2-2.7-0.8-2.9-2.4c-0.2-1.7-0.2-3.2,0-4.9
		c0.2-1.3,1.3-2.2,2.7-2.2c1.5,0,2.5,1,2.5,2.5C136.3,167.5,136.3,168.3,136.3,169z"/>
	<path class="st2" d="M136.3,109.1c0,0.7,0,1.5,0,2.2c-0.2,1.5-1,2.4-2.4,2.5c-1.5,0.2-2.7-0.7-2.9-2.2c-0.2-1.7-0.2-3.2,0-4.9
		c0.2-1.5,1.2-2.4,2.9-2.2c1.5,0.2,2.4,1,2.5,2.5C136.3,107.8,136.3,108.4,136.3,109.1L136.3,109.1z"/>
	<path class="st2" d="M163.4,141.7c-0.7,0-1.5,0-2.2,0c-1.5-0.2-2.4-1.2-2.4-2.5c0-1.3,0.7-2.5,2-2.7c1.8-0.2,3.7-0.2,5.4,0
		c1.3,0.2,2,1.3,2,2.7c-0.2,1.3-1,2.4-2.4,2.5C164.9,141.7,164.2,141.7,163.4,141.7z"/>
	<path class="st2" d="M103.9,141.7c-0.7,0-1.5,0-2.2,0c-1.5-0.2-2.4-1-2.5-2.4c-0.2-1.5,0.5-2.7,2-2.9c1.7-0.2,3.5-0.2,5.2,0
		c1.5,0.2,2.2,1.3,2,2.9c-0.2,1.5-1,2.4-2.4,2.5C105.2,141.7,104.5,141.7,103.9,141.7z"/>
</g>
</svg>
