<?xml version="1.0" encoding="utf-8"?>
<!-- Generator: Adobe Illustrator 24.0.0, SVG Export Plug-In . SVG Version: 6.00 Build 0)  -->
<svg version="1.1" id="Capa_1" xmlns="http://www.w3.org/2000/svg" xmlns:xlink="http://www.w3.org/1999/xlink" x="0px" y="0px"
	 viewBox="0 0 80 80" style="enable-background:new 0 0 80 80;" xml:space="preserve">
<style type="text/css">
	.st0{fill:#ACAEAF;}
	.st1{fill:#1C3247;}
	.st2{fill:#FE9900;}
</style>
<g>
	<path class="st0" d="M6.4,66.01c0-16.81,0-33.62,0-50.43c0.03-0.03,0.07-0.06,0.08-0.1c0.74-2.26,2.02-3.2,4.39-3.2
		c2.79,0,5.59,0,8.38,0c0.23,0,0.47,0,0.75,0c0-0.52-0.01-0.95,0-1.39c0.05-2.17,1.8-3.88,3.94-3.89c2.15-0.01,3.91,1.7,3.97,3.86
		c0.01,0.45,0,0.91,0,1.38c7.17,0,14.26,0,21.4,0c0-0.46-0.01-0.87,0-1.29C49.36,8.74,51.09,7,53.26,7c2.18,0,3.92,1.72,3.97,3.93
		c0.01,0.43,0,0.87,0,1.35c0.31,0,0.55,0,0.79,0c2.77,0,5.54,0,8.32,0c2.88,0,4.5,1.61,4.5,4.49c0,12.12,0,24.24-0.01,36.36
		c0,0.51,0.11,0.9,0.44,1.31c5.46,6.86,2.37,16.96-6,19.59c-0.77,0.24-1.57,0.38-2.35,0.56c-0.84,0-1.67,0-2.51,0
		c-0.1-0.03-0.2-0.09-0.31-0.1c-3.47-0.45-6.25-2.09-8.41-4.83c-0.16-0.2-0.51-0.34-0.77-0.34c-2.88-0.02-5.77-0.01-8.65-0.02
		c-1.08,0-2.16,0-3.23,0c-0.55,0-1.06-0.22-1.19-0.75c-0.1-0.42-0.09-1.02,0.15-1.33c0.24-0.32,0.81-0.53,1.25-0.53
		c3.34-0.04,6.69-0.02,10.03-0.02c0.23,0,0.46-0.02,0.64-0.03c-0.27-1.25-0.53-2.44-0.8-3.67c-0.26,0-0.52,0-0.78,0
		c-11.24,0-22.49,0-33.73,0c-1.48,0-1.86-0.39-1.86-1.89c0-10.03,0-20.06,0-30.1c0-1.41,0.4-1.81,1.8-1.81c16.06,0,32.13,0,48.19,0
		c1.36,0,1.77,0.41,1.77,1.77c0,6.12,0,12.23,0,18.35c0,0.26,0,0.52,0,0.7c1.27,0.53,2.47,1.03,3.64,1.52c0-8.67,0-17.34,0-26.04
		c-0.34,0-0.62,0-0.91,0c-16.11,0-32.22,0-48.32,0c-0.26,0-0.53,0.02-0.79-0.02c-0.67-0.09-1.16-0.66-1.15-1.32
		c0.01-0.66,0.5-1.21,1.18-1.29c0.24-0.03,0.48-0.01,0.73-0.01c16.15,0,32.3,0,48.46,0c0.28,0,0.55,0,0.87,0c0-2.15,0-4.22,0-6.28
		c0-1.13-0.52-1.63-1.67-1.64c-2.9,0-5.81,0-8.71,0c-0.17,0-0.34,0-0.57,0c0,0.48,0.01,0.89,0,1.3c-0.04,2.25-1.79,3.99-3.99,3.98
		c-2.17-0.01-3.89-1.76-3.93-3.97c-0.01-0.43,0-0.86,0-1.27c-7.19,0-14.26,0-21.4,0c0,0.49,0.01,0.95,0,1.41
		c-0.07,2.13-1.82,3.82-3.94,3.83c-2.15,0.01-3.92-1.7-3.98-3.86c-0.01-0.46,0-0.91,0-1.42c-0.31,0-0.55,0-0.78,0
		c-2.75,0-5.5,0-8.25,0c-1.51,0-1.93,0.41-1.93,1.91c0,15.97,0,31.95,0,47.92c0,1.5,0.42,1.92,1.92,1.92c5.77,0,11.53,0,17.3,0
		c0.89,0,1.5,0.56,1.49,1.33c-0.01,0.74-0.6,1.31-1.45,1.31c-5.99,0.01-11.97,0.01-17.96-0.01c-1.72-0.01-3.17-1.12-3.73-2.75
		C6.55,66.37,6.47,66.19,6.4,66.01z M61.6,52.41c-5.39,0-9.78,4.39-9.78,9.78c0,5.36,4.38,9.75,9.73,9.76
		c5.4,0.01,9.8-4.36,9.81-9.75C71.37,56.81,66.99,52.42,61.6,52.41z M32.34,39.59c0-2.63,0-5.18,0-7.73c-2.4,0-4.74,0-7.09,0
		c0,2.6,0,5.16,0,7.73C27.64,39.59,29.97,39.59,32.34,39.59z M44.88,31.85c0,2.62,0,5.16,0,7.73c2.39,0,4.73,0,7.12,0
		c0-2.59,0-5.15,0-7.73C49.61,31.85,47.26,31.85,44.88,31.85z M25.23,60.3c2.41,0,4.76,0,7.12,0c0-2.6,0-5.15,0-7.72
		c-2.39,0-4.74,0-7.12,0C25.23,55.16,25.23,57.7,25.23,60.3z M25.25,42.27c0,2.58,0,5.09,0,7.59c2.4,0,4.75,0,7.09,0
		c0-2.56,0-5.07,0-7.59C29.95,42.27,27.62,42.27,25.25,42.27z M52.01,49.87c0-2.55,0-5.05,0-7.58c-2.4,0-4.76,0-7.13,0
		c0,2.54,0,5.04,0,7.58C47.25,49.87,49.6,49.87,52.01,49.87z M22.52,31.86c-2.42,0-4.76,0-7.1,0c0,2.6,0,5.16,0,7.71
		c2.39,0,4.73,0,7.1,0C22.52,36.98,22.52,34.44,22.52,31.86z M35.09,31.84c0,2.62,0,5.18,0,7.73c2.39,0,4.73,0,7.07,0
		c0-2.6,0-5.15,0-7.73C39.78,31.84,37.46,31.84,35.09,31.84z M61.81,39.59c0-2.62,0-5.18,0-7.73c-2.39,0-4.73,0-7.08,0
		c0,2.6,0,5.15,0,7.73C57.11,39.59,59.44,39.59,61.81,39.59z M22.52,52.59c-2.42,0-4.76,0-7.1,0c0,2.6,0,5.16,0,7.7
		c2.39,0,4.73,0,7.1,0C22.52,57.71,22.52,55.17,22.52,52.59z M35.08,52.57c0,2.62,0,5.17,0,7.73c2.39,0,4.73,0,7.07,0
		c0-2.6,0-5.15,0-7.73C39.78,52.57,37.46,52.57,35.08,52.57z M22.5,49.88c0-2.57,0-5.08,0-7.59c-2.39,0-4.74,0-7.07,0
		c0,2.56,0,5.07,0,7.59C17.8,49.88,20.12,49.88,22.5,49.88z M42.15,49.88c0-2.57,0-5.08,0-7.6c-2.38,0-4.72,0-7.07,0
		c0,2.55,0,5.06,0,7.6C37.45,49.88,39.77,49.88,42.15,49.88z M61.83,42.28c-2.39,0-4.74,0-7.1,0c0,2.55,0,5.06,0,7.62
		c1.21,0,2.37,0.02,3.53,0c1.18-0.02,2.36-0.08,3.56-0.13C61.83,47.25,61.83,44.8,61.83,42.28z M44.89,52.58c0,2.61,0,5.16,0,7.73
		c1.49,0,2.94,0,4.4,0c0.05-0.19,0.11-0.35,0.14-0.52c0.33-1.75,0.98-3.39,2.08-4.78c0.62-0.78,0.55-1.55,0.49-2.43
		C49.63,52.58,47.28,52.58,44.89,52.58z M25.28,13.59c0-0.83,0.01-1.67,0-2.5c-0.01-0.85-0.54-1.43-1.29-1.45
		c-0.78-0.02-1.34,0.58-1.34,1.46c-0.01,1.67-0.01,3.33,0,5c0.01,0.86,0.54,1.43,1.29,1.45c0.78,0.02,1.33-0.58,1.34-1.46
		C25.29,15.26,25.28,14.42,25.28,13.59z M51.96,13.6c0,0.83-0.01,1.67,0,2.5c0.01,0.86,0.54,1.44,1.29,1.45
		c0.77,0.02,1.34-0.58,1.35-1.46c0.01-1.67,0.01-3.33,0-5c-0.01-0.86-0.54-1.43-1.29-1.45c-0.78-0.02-1.34,0.58-1.35,1.46
		C51.95,11.93,51.96,12.77,51.96,13.6z"/>
	<path class="st1" d="M13.02,22.85c0.73,0.01,1.33,0.64,1.3,1.37c-0.03,0.7-0.64,1.27-1.34,1.26c-0.73-0.01-1.33-0.64-1.3-1.37
		C11.71,23.41,12.32,22.83,13.02,22.85z"/>
	<path class="st1" d="M33.73,66.68c0.7,0.01,1.3,0.63,1.3,1.32c-0.01,0.73-0.65,1.34-1.38,1.31c-0.72-0.03-1.27-0.63-1.25-1.36
		C32.42,67.23,33.02,66.66,33.73,66.68z"/>
	<path class="st2" d="M61.3,63.1c1.31-1.31,2.54-2.54,3.77-3.76c0.17-0.17,0.34-0.35,0.54-0.49c0.53-0.38,1.24-0.3,1.69,0.15
		c0.46,0.46,0.52,1.16,0.11,1.68c-0.3,0.38-0.66,0.71-1,1.05c-1.29,1.29-2.58,2.58-3.87,3.87c-0.87,0.87-1.51,0.87-2.36,0.02
		c-0.8-0.79-1.59-1.58-2.38-2.38c-0.66-0.67-0.7-1.41-0.13-1.98c0.55-0.57,1.33-0.54,1.98,0.1C60.18,61.91,60.7,62.47,61.3,63.1z"/>
</g>
</svg>
