<?xml version="1.0" encoding="utf-8"?>
<!-- Generator: Adobe Illustrator 24.0.0, SVG Export Plug-In . SVG Version: 6.00 Build 0)  -->
<svg version="1.1" id="Capa_1" xmlns="http://www.w3.org/2000/svg" xmlns:xlink="http://www.w3.org/1999/xlink" x="0px" y="0px"
	 viewBox="0 0 200 200" style="enable-background:new 0 0 200 200;" xml:space="preserve">
<style type="text/css">
	.st0{fill:#ACAEAF;}
	.st1{fill:#1C3247;}
	.st2{fill:#FE9900;}
</style>
<g>
	<path class="st0" d="M10.5,183.1c0-16.6,0-32.7,0-48.9c0.2-0.1,0.3-0.2,0.4-0.2c3.4,0.5,6.1-0.9,8.7-2.8c4.6-3.3,9.2-6.6,14.9-7.7
		c2.9-0.6,5.9-0.8,8.9-1c3.3-0.2,6.7,0,10.2,0c0-34.5,0-68.9,0-103.5c21.1,0,42.1,0,63.1,0c1.4-4.7,2.9-5.8,7.6-5.8
		c10.7,0,21.3,0,32,0c7,0,13.5,1.9,19.2,5.9c1.3,0.9,2.6,1.7,3.9,2.6c2.8,1.9,5.4,4.1,9.3,2.8c0,15.5,0,30.8,0,46.1
		c-0.1,0-0.3,0.2-0.4,0.2c-3.4-0.5-6.3,0.9-9.3,2.4c-4.3,2.1-8.9,3.8-13.3,5.7c-0.8,0.3-1.6,0.3-2.6,0.5c0,29.7,0,59.3,0,89.2
		c-18.4,0-36.7,0-55,0c0.7,6.3-0.4,8.3-5.6,11.2c0,1.7,0.2,3.3,0,4.7c-0.7,4.3-4.3,7.1-8.8,7.1c-11,0-22,0-33.1,0
		c-6.9,0-13.9,0-20.8,0c-4.6,0-8.9-1-13-3.1c-1.6-0.8-3.2-1.6-4.8-2.4C18.2,184.3,14.9,181.9,10.5,183.1z M59.4,162.6
		c32.6,0,65.1,0,97.6,0c0-40.3,0-80.5,0-120.6c-1.9,0-3.7,0-5.6,0c0,1.9,0,3.7,0,5.6c-5.8,0-11.5,0-17.1,0c0-1.9,0-3.7,0-5.6
		c2.8,0,5.4,0,8.1,0c2.7,0,5.4,0,7.6,0c-1.9-1.1-4.7-2-6.2-3.9c-3.4-4.2-7.4-5.1-12.5-4.9c-5.4,0.3-9.5-2.5-12.3-7.1
		c-0.6-1.1-1.2-1.5-2.5-1.5c-18.4,0-36.8,0-55.2,0c-0.6,0-1.2,0.1-1.7,0.1c0,32.6,0,65.1,0,97.7c5.5,0,10.9,0,16.3,0
		c4.7,0,7.2,3,6.5,7.5c-1.1,7.4-7,12.5-14.5,12.6c-2.7,0-5.5,0-8.3,0C59.4,149.3,59.4,155.9,59.4,162.6z M65.1,174.2
		c0.8,0,1.4,0,2.1,0c10.4,0,20.7,0,31.1,0c0.5,0,1.1,0.1,1.6,0c1.5-0.3,2.5-1.2,2.5-2.8c0-1.6-0.9-2.5-2.5-2.8c-0.6-0.1-1.2,0-1.8,0
		c-14.1,0-28.3,0-42.4,0c-0.7,0-1.4,0-2.2,0c0-7.4,0-14.5,0-21.8c-4.3,3.3-9,4.9-14.2,4.5c0-2,0-3.8,0-5.7c5.7,0.4,10-2.2,13.6-6.2
		c0.4-0.5,0.9-1,1.4-1.4c0.7-0.4,1.5-0.9,2.3-1c3.8-0.1,7.7,0,11.5-0.1c4.8-0.1,8.6-4.1,8.3-8.6c-0.6,0-1.3,0-1.9,0
		c-10.4,0-20.8,0.1-31.3,0c-6,0-11.4,1.6-16.4,5c-3.5,2.4-7,4.7-10.6,7.1c0,12.1,0,24.4,0,36.6c4.3,2.1,8.5,4.2,12.7,6.4
		c3.4,1.8,7,2.6,10.9,2.6c17.5,0,35.1,0,52.6,0c0.6,0,1.2,0.1,1.8-0.1c1.5-0.3,2.4-1.3,2.4-2.9c0-1.5-0.9-2.4-2.4-2.7
		c-0.5-0.1-1.1-0.1-1.6-0.1c-8.5,0-17,0-25.5,0c-0.6,0-1.3,0-2,0C65.1,178,65.1,176.3,65.1,174.2z M162.8,73.5
		c7.5-1.5,13.4-6.1,20.1-8.7c0-11.4,0-22.8,0-34.1c-0.8-0.4-1.5-0.7-2.1-1.1c-3.1-2-6.1-4-9.1-6.1c-4.7-3.1-9.8-4.6-15.4-4.6
		c-10.6,0-21.2,0-31.8,0c-0.6,0-1.2,0-2.5,0c0.9,2,1.4,3.8,2.4,5.2c1.9,2.7,4.8,3.5,8,3.4c2.8-0.1,5.8-0.7,8.2,0.2
		c2.4,0.9,4.1,3.5,6,5.5c2,2,4.4,3,7.2,3c2.9-0.1,5.8,0,8.9,0C162.8,48.6,162.8,60.9,162.8,73.5z"/>
	<path class="st1" d="M151.2,111.1c0,15.3,0,30.5,0,45.8c-17.2,0-34.3,0-51.5,0c0-15.2,0-30.4,0-45.8
		C116.8,111.1,133.9,111.1,151.2,111.1z M105.4,151.1c13.5,0,26.8,0,40,0c0-11.5,0-22.9,0-34.3c-13.4,0-26.7,0-40,0
		C105.4,128.3,105.4,139.6,105.4,151.1z"/>
	<path class="st0" d="M65.1,70.6c0-13.4,0-26.7,0-40c17.2,0,34.3,0,51.5,0c0,13.3,0,26.6,0,40C99.6,70.6,82.4,70.6,65.1,70.6z
		 M111,36.3c-13.5,0-26.8,0-40,0c0,9.6,0,19.1,0,28.5c13.4,0,26.7,0,40,0C111,55.3,111,45.9,111,36.3z"/>
	<path class="st2" d="M151.2,88.1c0,1.9,0,3.7,0,5.5c-28.7,0-57.3,0-86,0c0-1.8,0-3.6,0-5.5C93.8,88.1,122.4,88.1,151.2,88.1z"/>
	<path class="st2" d="M151.2,76.6c0,1.9,0,3.7,0,5.5c-24.9,0-49.7,0-74.6,0c0-1.8,0-3.6,0-5.5C101.5,76.6,126.3,76.6,151.2,76.6z"/>
	<path class="st2" d="M151.2,99.6c0,1.9,0,3.7,0,5.5c-17.2,0-34.3,0-51.5,0c0-1.8,0-3.6,0-5.5C116.8,99.6,134,99.6,151.2,99.6z"/>
	<path class="st0" d="M122.6,59c0-1.8,0-3.6,0-5.5c9.5,0,19,0,28.6,0c0,1.8,0,3.6,0,5.5C141.8,59,132.3,59,122.6,59z"/>
	<path class="st0" d="M122.6,70.6c0-1.9,0-3.7,0-5.5c9.5,0,18.9,0,28.5,0c0,1.8,0,3.6,0,5.5C141.8,70.6,132.3,70.6,122.6,70.6z"/>
	<path class="st0" d="M93.7,111.1c0,1.9,0,3.7,0,5.5c-9.5,0-18.9,0-28.5,0c0-1.8,0-3.6,0-5.5C74.6,111.1,84.1,111.1,93.7,111.1z"/>
	<path class="st0" d="M65.1,156.8c0-1.9,0-3.7,0-5.5c9.6,0,19,0,28.6,0c0,1.9,0,3.6,0,5.5C84.2,156.8,74.8,156.8,65.1,156.8z"/>
	<path class="st0" d="M122.7,42c1.9,0,3.6,0,5.5,0c0,1.8,0,3.7,0,5.6c-1.8,0-3.6,0-5.5,0C122.7,45.7,122.7,43.8,122.7,42z"/>
	<path class="st0" d="M70.7,76.5c0,1.8,0,3.6,0,5.5c-1.8,0-3.6,0-5.5,0c0-1.8,0-3.6,0-5.5C67,76.5,68.7,76.5,70.7,76.5z"/>
	<path class="st0" d="M70.7,105.1c-1.8,0-3.6,0-5.5,0c0-1.8,0-3.6,0-5.6c1.8,0,3.6,0,5.5,0C70.7,101.4,70.7,103.1,70.7,105.1z"/>
	<path class="st0" d="M82.2,99.6c0,1.8,0,3.6,0,5.5c-1.9,0-3.7,0-5.6,0c0-1.8,0-3.6,0-5.5C78.4,99.6,80.2,99.6,82.2,99.6z"/>
	<path class="st0" d="M88.2,99.5c1.8,0,3.6,0,5.5,0c0,1.8,0,3.6,0,5.6c-1.8,0-3.6,0-5.5,0C88.2,103.3,88.2,101.5,88.2,99.5z"/>
	<path class="st0" d="M93.7,128.3c0,1.9,0,3.7,0,5.5c-1.8,0-3.6,0-5.5,0c0-1.8,0-3.6,0-5.5C90,128.3,91.8,128.3,93.7,128.3z"/>
	<path class="st0" d="M88.1,145.4c0-1.9,0-3.6,0-5.5c1.8,0,3.6,0,5.6,0c0,1.7,0,3.6,0,5.5C91.9,145.4,90.1,145.4,88.1,145.4z"/>
	<path class="st1" d="M119.6,146.3c-2.4-2.4-4.9-4.9-7.5-7.5c1.3-1.2,2.6-2.4,4.3-3.9c0.9,1.1,1.9,2.4,3,3.7
		c6.2-6.2,12.2-12.2,18.2-18.2c1.4,1.5,2.7,2.8,3.9,4C134.2,131.7,126.9,139,119.6,146.3z"/>
</g>
</svg>
