<?xml version="1.0" encoding="utf-8"?>
<!-- Generator: Adobe Illustrator 24.0.0, SVG Export Plug-In . SVG Version: 6.00 Build 0)  -->
<svg version="1.1" id="Capa_1" xmlns="http://www.w3.org/2000/svg" xmlns:xlink="http://www.w3.org/1999/xlink" x="0px" y="0px"
	 viewBox="0 0 200 200" style="enable-background:new 0 0 200 200;" xml:space="preserve">
<style type="text/css">
	.st0{fill:#ACAEAF;}
	.st1{fill:#FE9900;}
	.st2{fill:#1C3247;}
</style>
<g>
	<path class="st0" d="M100,34c24.5,0,49.2,0,73.7,0c10,0,16.3,6.2,16.3,16.2c0,33.2,0,66.4,0,99.6c0,10-6.2,16.2-16.2,16.2
		c-49.2,0-98.3,0-147.5,0c-9.9,0-16.2-6.2-16.2-16.1c0-33.2,0-66.5,0-99.7c0-9.9,6.3-16.2,16.2-16.2C50.8,34,75.5,34,100,34z
		 M183.9,64.1c-56.1,0-112,0-167.9,0c0,0.8,0,1.5,0,2.1c0,27.8,0,55.6,0,83.4c0,6.8,3.5,10.3,10.3,10.3c49.2,0,98.2,0,147.4,0
		c6.8,0,10.3-3.5,10.3-10.3c0-27.9,0-55.8,0-83.7C183.9,65.5,183.9,64.9,183.9,64.1z M16,57.9c56.1,0,112,0,167.9,0
		c0-0.8,0-1.5,0-2.3c0.7-13.2-2.4-15.8-15.5-15.6c-47.3,0.3-94.5,0.1-141.9,0.1c-0.7,0-1.5,0-2.3,0c-4.4,0.3-8,3.8-8.3,8.2
		C15.9,51.4,16,54.5,16,57.9z"/>
	<path class="st1" d="M50.2,82.8c-0.3-2.4-0.6-4.2-0.8-5.9c-0.1-1,0-1.5,1.1-2c4.1-1.5,8-3.2,12.1-4.9c1-0.4,1.5-0.4,2.1,0.6
		c1.3,1.8,2.4,4.1,4.1,4.9c1.7,0.8,4.1,0.1,6.2,0.3c1.5,0.1,2.4-0.3,3.2-1.5c0.8-1.4,1.8-2.7,3-3.8c0.4-0.4,1.3-0.7,1.8-0.4
		c4.2,1.7,8.3,3.4,12.4,5.2c0.6,0.3,1,1.3,1,1.8c-0.1,1.8-0.6,3.7-0.7,5.6c0,0.6,0.3,1.4,0.7,1.8c1.3,1.4,2.5,2.7,3.9,3.9
		c0.6,0.4,1.4,0.8,2.3,0.8c1.7,0,3.5-0.4,5.2-0.7c1.1-0.1,1.7,0,2.1,1.1c1.5,3.9,3.2,8,4.9,12c0.4,1,0.6,1.7-0.6,2.3
		c-4.2,2.1-5.9,5.4-5.2,10.3c0.3,1.5,0.6,2.5,1.8,3.5c1.5,1.1,3.8,2.3,4.2,3.7c0.4,1.4-1.1,3.4-1.8,5.2c-1.1,2.7-2.3,5.4-3.4,8.2
		c-0.4,1-0.8,1.1-1.8,1.1c-2.3-0.3-4.8-1.3-6.8-0.6c-2,0.7-3.4,3-4.9,4.6c-0.4,0.4-0.7,1.1-0.7,1.7c0.1,1.8,0.4,3.7,0.7,5.6
		c0.1,1,0,1.5-1.1,2c-4.1,1.5-8,3.2-12.1,4.9c-1,0.4-1.5,0.4-2.1-0.6c-1.3-1.8-2.4-4.1-4.1-4.9c-1.7-0.8-4.1-0.1-6.2-0.3
		c-1.5-0.1-2.4,0.3-3.2,1.5c-0.8,1.4-1.8,2.7-3,3.8c-0.4,0.4-1.3,0.7-1.8,0.4c-4.2-1.7-8.3-3.4-12.4-5.1c-0.4-0.1-1-1.1-1-1.7
		c0.1-1.8,0.6-3.7,0.6-5.6c0-0.7-0.4-1.7-0.8-2.3c-1.1-1.4-2.5-2.7-3.8-3.8c-0.6-0.4-1.4-0.8-2.3-0.8c-1.7,0-3.4,0.4-5.1,0.7
		c-1.3,0.1-1.8,0-2.4-1.3c-1.5-3.9-3.1-7.9-4.8-11.7c-0.4-1-0.6-1.7,0.6-2.3c4.2-2.1,5.9-5.5,5.2-10.3c-0.3-1.5-0.6-2.5-1.8-3.5
		c-1.5-1.1-3.8-2.1-4.2-3.7c-0.4-1.4,1.1-3.4,1.8-5.2c1.1-2.7,2.3-5.2,3.2-7.9c0.4-1.1,1-1.4,2.1-1.3c1.8,0.3,3.5,0.6,5.4,0.7
		c0.7,0,1.5-0.4,2-0.8c1.4-1.1,2.7-2.5,3.8-3.8C49.7,83.9,50,83.1,50.2,82.8z M84.1,147.3c1.5-0.6,2.8-1.3,4.4-1.7s2.1-1.3,1.5-2.8
		c-0.3-1.1-0.3-2.4-0.4-3.5c-0.1-1,0.1-1.7,1-2.4c2.5-2.4,5.1-4.8,7.3-7.3c0.7-0.7,1.3-1.3,2.4-1c1.8,0.3,4.4,1.1,5.5,0.3
		c1.4-1,1.7-3.5,2.4-5.4c0-0.1,0-0.3,0-0.4c-1.4-1.1-3-2.1-4.4-3.4c-0.4-0.4-0.8-1.3-0.8-2c-0.1-3.7-0.1-7.3,0-11
		c0-0.7,0.3-1.5,0.8-2c1.4-1.3,3-2.4,4.5-3.5c-0.8-2.1-1.7-4.1-2.5-6.2c-2,0.3-3.8,0.4-5.5,0.7c-1,0.1-1.7-0.1-2.4-1
		c-2.4-2.5-4.8-5.1-7.3-7.5c-0.7-0.7-1.3-1.3-1-2.4c0.3-1.8,1.1-4.4,0.3-5.5c-1-1.4-3.5-1.7-5.4-2.4c-0.1,0-0.3,0-0.4,0
		c-1.1,1.4-2.1,3-3.4,4.4c-0.4,0.4-1.3,0.8-2,0.8c-3.7,0.1-7.3,0.1-11,0c-0.7,0-1.5-0.4-2.1-1c-1.3-1.4-2.3-3-3.5-4.4
		c-2.1,0.8-4.1,1.7-6.2,2.5c0.3,2,0.4,3.8,0.7,5.5c0.1,1-0.1,1.7-1,2.4c-2.5,2.4-5.1,4.8-7.5,7.3c-0.7,0.7-1.3,1.3-2.4,1
		c-1.8-0.3-4.2-1.1-5.6-0.3c-1.4,0.8-1.7,3.4-2.4,5.1c0,0.1,0,0.4-0.1,0.6c1.4,1.1,3,2.3,4.4,3.4c0.4,0.4,0.8,1.3,0.8,2
		c0.1,3.7,0.1,7.3,0,11c0,0.7-0.4,1.5-1,2.1c-1.4,1.3-3,2.3-4.4,3.5c0.8,2.1,1.7,4.1,2.5,6.2c1.8-0.3,3.7-0.4,5.4-0.7
		c1.1-0.1,2,0.1,2.7,1.1c1.1,1.5,2.4,3.4,3.9,4.5c3.8,2.4,5.2,5.5,3.8,9.7c-0.1,0.3,0.3,1.1,0.7,1.3c1.7,0.8,3.5,1.5,5.4,2.3
		c1.3-1.5,2.3-3.1,3.5-4.5c0.4-0.4,1.3-0.8,2-0.8c3.7-0.1,7.3-0.1,11,0c0.7,0,1.5,0.4,2.1,1C81.8,144.2,82.8,145.8,84.1,147.3z"/>
	<path class="st0" d="M135.9,70c0,3.9,0,7.6,0,11.4c0,2.3,1.1,3.5,3,3.7c1.8,0,3.1-1.4,3.1-3.7c0-3.7,0-7.3,0-11.3
		c3.8,0,7.6,0,11.4,0c0.3,0,0.7,0.4,1,0.7c8,8.7,7.2,22.5-2,30.3c-1.1,1-1.5,1.8-1.5,3.2c0.1,5.2,0,10.4,0,15.8c0,1.1,0.3,2,1.3,2.7
		c9.4,7.7,10.4,21.3,2.4,30.3c-0.4,0.4-1.1,0.8-1.7,1c-3.5,0.1-7,0-10.8,0c0-3.2,0-6.3,0-9.4c0-0.8,0-1.7,0-2.7c-0.1-1.8-1.4-3-3-3
		c-1.7,0-3,1.3-3,3c0,3.5,0,7,0,10.4c0,0.4,0,0.8,0,1.5c-3.8,0-7.5,0-11.1,0c-0.6,0-1.1-0.6-1.5-1c-8-9-7-22.5,2.3-30.1
		c1-0.8,1.4-1.5,1.3-2.8c0-5.4,0-10.7,0-16.1c0-1.1-0.4-2-1.3-2.7c-9.3-7.6-10.4-21.1-2.4-30.1c0.4-0.4,1-1,1.4-1
		C128.4,70,132.1,70,135.9,70z M148,76.2c0,1.7,0,3.4,0,5.2c0,5.5-3.8,9.6-8.9,9.6c-5.2,0-9-4.1-9-9.6c0-1.8,0-3.5,0-5.1
		c-2.7-1-3.7,0.4-4.5,2.3c-3.4,7-0.8,15.2,6.1,19.3c1.1,0.7,1.5,1.4,1.5,2.8c-0.1,7.3-0.1,14.7,0,22c0,1.7-0.4,2.8-2,3.7
		c-6.6,4.1-8.9,12.4-5.5,19.4c1,2,2.1,2.7,4.4,2.1c0-1.8,0-3.7,0-5.5c0-5.2,3.9-9.3,9-9.3c5.1,0,8.9,3.9,9,9.3c0,1.8,0,3.7,0,5.5
		c2.3,0.7,3.5-0.1,4.5-2.1c3.4-7,1.1-15.4-5.8-19.6c-1.3-0.7-1.7-1.5-1.7-3c0.1-7.5,0.1-14.9,0-22.3c0-1.5,0.4-2.3,1.7-3.1
		c6.8-4.2,9.2-12.3,5.8-19.3C151.5,76.6,150.6,75.3,148,76.2z"/>
	<path class="st0" d="M171.8,46.2c0,2,0,3.8,0,5.8c-23.9,0-47.8,0-71.7,0c0-1.8,0-3.8,0-5.8C123.9,46.2,147.9,46.2,171.8,46.2z"/>
	<path class="st2" d="M28.1,46c2,0,3.8,0,5.8,0c0,2,0,3.8,0,5.8c-2,0-3.8,0-5.8,0C28.1,50,28.1,48.1,28.1,46z"/>
	<path class="st2" d="M45.9,46c0,2,0,3.8,0,5.8c-1.8,0-3.8,0-5.8,0c0-1.8,0-3.8,0-5.8C41.9,46,43.9,46,45.9,46z"/>
	<path class="st2" d="M52.1,46c2,0,3.8,0,5.8,0c0,2,0,3.8,0,5.8c-2,0-3.8,0-5.8,0C52.1,50,52.1,48.1,52.1,46z"/>
	<path class="st1" d="M72.9,130c-10,0-18-8-18-18c0-9.9,8.2-18,18-18c10,0,18,8.2,18,18.2C91,122,82.8,130,72.9,130z M73.1,123.9
		c6.6,0,12-5.5,12-12.1c0-6.6-5.5-12-12.1-11.8c-6.5,0-11.8,5.5-11.8,12C61,118.6,66.5,124.1,73.1,123.9z"/>
</g>
</svg>
