<?xml version="1.0" encoding="utf-8"?>
<!-- Generator: Adobe Illustrator 24.0.0, SVG Export Plug-In . SVG Version: 6.00 Build 0)  -->
<svg version="1.1" id="Capa_1" xmlns="http://www.w3.org/2000/svg" xmlns:xlink="http://www.w3.org/1999/xlink" x="0px" y="0px"
	 viewBox="0 0 198.4 198.4" style="enable-background:new 0 0 198.4 198.4;" xml:space="preserve">
<style type="text/css">
	.st0{fill:#ACAEAF;}
	.st1{fill:#FE9900;}
</style>
<path class="st0" d="M41.9,178.1c-0.2-0.1-0.4-0.2-0.6-0.3c-4.7-1.4-7.4-4.8-7.4-9.7c0-6.7,0-13.4,0-20.2c0-35.3,0-70.7,0-106
	c0-1.3,0.1-2.7,0.4-4c1.1-4.2,4.8-7,9.3-7c7.4,0,14.7,0,22.1,0c0.6,0,1.2,0,1.9,0c0-2,0-4,0-5.9c0-2.2,0.9-3.1,3.1-3.2
	c3.8,0,7.6,0,11.5,0c1,0,1.5-0.2,2-1.2c2.7-5.2,7.1-7.9,12.9-7.9c5.8,0,10.1,2.8,12.8,7.9c0.5,0.9,1,1.2,2,1.2c3.8-0.1,7.6,0,11.5,0
	c2.2,0,3.1,0.9,3.1,3.2c0,1.9,0,3.8,0,5.9c0.6,0,1.2,0,1.8,0c7.3,0,14.5,0,21.8,0c6.2,0,10.2,4,10.2,10.2c0,42.3,0,84.5,0,126.8
	c0,5.2-2.2,8-8,10.1C115.5,178.1,78.7,178.1,41.9,178.1z M67.8,36.1c-7.8,0-15.4,0-23,0c-4.1,0-5.6,1.5-5.6,5.7
	c0,41.8,0,83.7,0,125.5c0,4.1,1.5,5.6,5.7,5.6c34.9,0,69.7,0,104.6,0c4.2,0,5.8-1.5,5.8-5.7c0-9.1,0-18.2,0-27.3
	c0-32.8,0-65.5,0-98.3c0-4-1.6-5.6-5.5-5.6c-7.1,0-14.2,0-21.3,0c-0.6,0-1.1,0-1.6,0c-0.1,0.3-0.1,0.4-0.1,0.6c0,1.8,0,3.5,0,5.3
	c0,2.2-0.9,3.2-3.1,3.2c-17.5,0-35.1,0-52.6,0c-2.1,0-3-0.9-3-3.1C67.7,40.1,67.8,38.2,67.8,36.1z M73,39.8c16.2,0,32.2,0,48.2,0
	c0-4.3,0-8.5,0-12.8c-3.8,0-7.4,0-11.1,0c-3.1,0-3.2-0.1-4.3-3c-1.3-3.6-4.8-6.1-8.7-6.1c-3.9,0-7.4,2.4-8.7,6.1c-1,2.9-1.2,3-4.3,3
	c-3.7,0-7.4,0-11.1,0C73,31.4,73,35.6,73,39.8z"/>
<g>
	<path class="st0" d="M64.9,107.7c0.3-1.2,0.5-2.4,0.9-3.5c1.7-4.3,4.9-7,9.4-8c0.5-0.1,0.7-0.3,0.7-0.8c1.1-8.7,5.5-15.1,13.2-19.1
		c3.7-1.9,7.7-2.7,11.8-2.5c5.1,0.3,9.7,2,13.7,5.1c4.1,3.2,6.8,7.3,8.3,12.3c0.2,0.6,0.4,0.8,1,1c7.3,2.1,12,9.6,10.7,17.1
		c-1.1,6.4-5.6,11.1-11.9,12.5c-0.5,0.1-1.1,0.2-1.6,0.2c-3.4,0-6.8,0-10.2,0c0-1.4,0-2.8,0-4.3c0.3,0,0.5,0,0.7,0
		c2.6,0,5.2,0,7.7,0c5.5,0,9.9-3.6,10.9-9c1.2-5.7-2.8-11.6-8.5-12.6c-1.6-0.3-2.4-1.1-2.8-2.7c-2.1-8.1-7.4-13.1-15.6-14.8
		c-7.8-1.6-16.1,2.2-20.3,9c-1.8,2.9-2.8,6.1-2.9,9.5c0,0.3,0,0.5-0.1,0.8c-0.1,1.6-0.9,2.3-2.4,2.3c-3.2,0.2-5.7,1.6-7.3,4.4
		c-3.3,5.6,0.7,12.9,7.2,13.1c3.5,0.1,6.9,0,10.4,0c0.3,0,0.5,0,0.9,0c0,1.5,0,2.9,0,4.4c-0.2,0-0.5,0-0.7,0c-3.3,0-6.6,0-9.9,0
		c-6.7,0-11.9-4.3-13.3-10.9c-0.1-0.4-0.1-0.7-0.2-1.1C64.9,109.4,64.9,108.6,64.9,107.7z"/>
	<path class="st1" d="M110.1,109.5c-1,1-2,2-3,3c-1.5-1.6-3.2-3.2-4.8-4.8c-0.1,0-0.1,0.1-0.2,0.1c0,6.9,0,13.8,0,20.8
		c-1.5,0-2.9,0-4.4,0c0-6.9,0-13.8,0-20.8c-1.7,1.7-3.3,3.4-4.9,4.9c-1.2-1.2-2.2-2.2-3.2-3.2c0.9-0.9,1.9-1.9,2.9-2.9
		c1.9-1.9,3.7-3.7,5.6-5.6c1.2-1.2,2.4-1.2,3.6,0c2.7,2.7,5.4,5.4,8.1,8.1C109.9,109.3,110.1,109.4,110.1,109.5z"/>
</g>
</svg>
