<?xml version="1.0" encoding="utf-8"?>
<!-- Generator: Adobe Illustrator 24.0.0, SVG Export Plug-In . SVG Version: 6.00 Build 0)  -->
<svg version="1.1" id="Capa_1" xmlns="http://www.w3.org/2000/svg" xmlns:xlink="http://www.w3.org/1999/xlink" x="0px" y="0px"
	 viewBox="0 0 80 80" style="enable-background:new 0 0 80 80;" xml:space="preserve">
<style type="text/css">
	.st0{fill:#ACAEAF;}
	.st1{fill:#1C3247;}
	.st2{fill:#FE9900;}
</style>
<g id="WdEu08.tif_1_">
	<g>
		<path class="st0" d="M50.1,71.8c-7,0-14,0-21,0c0,0-0.1-0.1-0.1-0.1c-3.1-0.8-4.5-2.7-4.5-5.8c0-6.4,0-12.7,0-19.1
			c0-0.3,0-0.5,0-0.8c-0.3,0-0.6,0-0.8,0c-3.7,0-7.3,0-11,0c-2,0-3.6-0.9-4.6-2.5c-0.4-0.6-0.6-1.3-0.8-2c0-9.9,0-19.8,0-29.6
			c0-0.1,0.1-0.1,0.1-0.2C8.1,8.7,10,7.1,13,7.1c4.8,0,9.6,0,14.3,0c0.6,0,1.1,0.2,1.5,0.6c2.7,2.7,5.3,5.3,8,8
			c0.4,0.4,0.6,0.9,0.6,1.5c0,5,0,10,0,15c0,0.2,0,0.5,0,0.7c1.5,0,2.9,0,4.3,0c0-0.3,0-0.6,0-0.9c0-6.4,0-12.8,0-19.3
			c0-3.4,2.3-5.7,5.7-5.7c4.8,0,9.6,0,14.3,0c0.6,0,1.1,0.2,1.5,0.6c2.7,2.7,5.4,5.4,8.1,8c0.4,0.4,0.6,0.9,0.6,1.5
			c0,7.7,0,15.3,0,23c0,3.4-2.3,5.7-5.7,5.7c-3.6,0-7.2,0-10.8,0c-0.2,0-0.5,0-0.8,0c0,0.4,0,0.6,0,0.9c0,6.5,0,13,0,19.5
			c0,2.4-1.1,4.1-3.3,5.1C51,71.6,50.5,71.7,50.1,71.8z M43.9,35.2c-4.6,0-9.2,0-13.7,0c-2.2,0-3.5,1.3-3.5,3.6c0,9.1,0,18.2,0,27.3
			c0,2.3,1.3,3.6,3.6,3.6c6.2,0,12.4,0,18.7,0c2.3,0,3.6-1.3,3.6-3.6c0-7.2,0-14.3,0-21.5c0-0.2,0-0.5,0-0.8c-1.1,0-2,0-3,0
			c-3.3,0-5.6-2.3-5.6-5.6C43.9,37.2,43.9,36.2,43.9,35.2z M54.6,43.8c0.4,0,0.6,0,0.8,0c3.6,0,7.1,0,10.7,0c2.3,0,3.6-1.3,3.6-3.6
			c0-7.2,0-14.4,0-21.5c0-0.2,0-0.4,0-0.7c-1.1,0-2.1,0.1-3.1,0c-0.9-0.1-1.8-0.2-2.6-0.6c-1.9-0.9-2.8-2.6-2.9-4.7
			c0-1.1,0-2.2,0-3.3c-0.3,0-0.5,0-0.8,0c-4.3,0-8.6,0-12.9,0c-2.3,0-3.6,1.3-3.6,3.6c0,6.4,0,12.9,0,19.3c0,0.2,0,0.5,0,0.8
			c1.4-0.4,2.1,0.5,2.9,1.3c2.2,2.2,4.5,4.5,6.7,6.7C54.2,41.8,55,42.5,54.6,43.8z M26.7,9.3c-0.3,0-0.5,0-0.7,0
			c-4.3,0-8.6,0-12.9,0c-2.3,0-3.6,1.3-3.6,3.6c0,9.1,0,18.2,0,27.3c0,2.3,1.3,3.6,3.6,3.6c3.6,0,7.2,0,10.8,0c0.2,0,0.5,0,0.7,0
			c0-1.9,0-3.6,0-5.4c0-2.6,1.8-4.9,4.4-5.2c1.6-0.2,3.2-0.1,4.8-0.1c0.5,0,1,0,1.5,0c0-5.1,0-10.1,0-15.1c-1.1,0-2.1,0-3.1,0
			c-3.2,0-5.5-2.4-5.5-5.5C26.6,11.4,26.7,10.4,26.7,9.3z M33.7,15.7c-1.6-1.6-3.1-3.1-4.6-4.6c0,0-0.1-0.1-0.2-0.1
			C28.3,14.4,30.1,16.2,33.7,15.7z M67.9,15.7c-1.5-1.5-3.1-3.1-4.6-4.5C62.9,14,64.1,16.2,67.9,15.7z M50.6,41.6
			c-1.5-1.5-3.1-3.1-4.6-4.6C45.7,40.7,47.7,42,50.6,41.6z"/>
		<path class="st0" d="M65.5,56.7c-0.3,0-0.6,0-0.8,0c-1.5,0-3,0-4.5,0c-0.7,0-1.1,0.5-1.1,1.1c0,0.6,0.4,1.1,1.1,1.1
			c2.2,0,4.3,0,6.5,0c0.6,0,1.1-0.4,1.1-1.1c0-2.2,0-4.3,0-6.5c0-0.6-0.5-1.1-1.1-1.1c-0.6,0-1,0.4-1.1,1.1c0,0.2,0,0.4,0,0.7
			C65.5,53.5,65.5,55.1,65.5,56.7z"/>
		<path class="st0" d="M65.5,56.7c0-1.6,0-3.2,0-4.7c0-0.2,0-0.4,0-0.7c0-0.6,0.5-1.1,1.1-1.1c0.6,0,1.1,0.4,1.1,1.1
			c0,2.2,0,4.3,0,6.5c0,0.6-0.4,1.1-1.1,1.1c-2.2,0-4.3,0-6.5,0c-0.6,0-1.1-0.5-1.1-1.1c0-0.6,0.4-1.1,1.1-1.1c1.5,0,3,0,4.5,0
			C64.9,56.7,65.1,56.7,65.5,56.7z"/>
		<path class="st0" d="M13.7,56.7c1.8,0,3.4,0,5.1,0c0.9,0,1.4,0.4,1.4,1.1c0,0.7-0.5,1-1.4,1c-2,0-3.9,0-5.9,0
			c-0.9,0-1.3-0.4-1.3-1.3c0-2,0-4,0-6c0-0.8,0.4-1.3,1.1-1.3c0.7,0,1.1,0.5,1.1,1.4C13.7,53.3,13.7,55,13.7,56.7z"/>
		<path class="st0" d="M36.3,52.4c0,0.6-0.5,1.1-1.1,1.1c-0.6,0-1.1-0.5-1.1-1.1c0-0.6,0.5-1.1,1-1.1C35.8,51.3,36.3,51.8,36.3,52.4
			z"/>
		<path class="st0" d="M38.5,52.4c0-0.6,0.5-1,1.1-1c0.6,0,1.1,0.5,1,1.1c0,0.6-0.5,1.1-1.1,1C39,53.5,38.5,52.9,38.5,52.4z"/>
		<path class="st0" d="M43.9,51.3c0.6,0,1.1,0.5,1.1,1c0,0.6-0.5,1.1-1,1.1c-0.6,0-1.1-0.5-1.1-1C42.8,51.9,43.3,51.4,43.9,51.3z"/>
		<path class="st1" d="M60.1,24.4c-1.3,0-2.7,0-4,0c-0.8,0-1.3-0.4-1.3-1.1c0-0.7,0.5-1.1,1.3-1.1c2.7,0,5.4,0,8.1,0
			c0.8,0,1.3,0.4,1.3,1.1c0,0.7-0.5,1.1-1.4,1.1C62.8,24.4,61.4,24.4,60.1,24.4z"/>
		<path class="st1" d="M53.6,30.9c-1.3,0-2.7,0-4,0c-0.8,0-1.3-0.4-1.3-1.1c0-0.7,0.5-1,1.3-1c2.7,0,5.4,0,8.2,0
			c0.8,0,1.3,0.4,1.3,1.1c0,0.6-0.5,1-1.3,1.1C56.3,30.9,54.9,30.9,53.6,30.9z"/>
		<path class="st1" d="M60.1,35.2c1.3,0,2.7,0,4,0c0.8,0,1.3,0.4,1.3,1.1c0,0.7-0.5,1.1-1.3,1.1c-2.7,0-5.5,0-8.2,0
			c-0.8,0-1.3-0.4-1.3-1.1c0-0.7,0.5-1.1,1.3-1.1C57.3,35.2,58.7,35.2,60.1,35.2z"/>
		<path class="st1" d="M52.5,15.8c1,0,2,0,3,0c0.8,0,1.3,0.4,1.3,1.1c0,0.7-0.5,1.1-1.3,1.1c-2,0-4,0-6.1,0c-0.8,0-1.3-0.4-1.3-1.1
			c0-0.7,0.5-1.1,1.3-1.1C50.5,15.8,51.5,15.8,52.5,15.8z"/>
		<path class="st1" d="M50.3,24.4c-0.3,0-0.7,0-1,0c-0.6,0-1.1-0.5-1.1-1.1c0-0.6,0.4-1.1,1.1-1.1c0.7,0,1.4,0,2.2,0
			c0.6,0,1.1,0.5,1.1,1.1c0,0.6-0.4,1-1.1,1.1C51.1,24.4,50.7,24.4,50.3,24.4z"/>
		<path class="st1" d="M63.3,30.8c-0.3,0-0.7,0-1,0c-0.6,0-1.1-0.5-1.1-1.1c0-0.6,0.4-1.1,1.1-1.1c0.7,0,1.4,0,2.2,0
			c0.6,0,1.1,0.5,1.1,1.1c0,0.6-0.4,1-1.1,1.1C64,30.9,63.6,30.8,63.3,30.8z"/>
		<path class="st2" d="M25.5,24.4c-1.3,0-2.7,0-4,0c-0.8,0-1.3-0.4-1.3-1.1c0-0.7,0.5-1.1,1.3-1.1c2.7,0,5.5,0,8.2,0
			c0.8,0,1.3,0.4,1.3,1.1c0,0.7-0.5,1.1-1.3,1.1C28.3,24.4,26.9,24.4,25.5,24.4z"/>
		<path class="st2" d="M19.1,28.7c1.4,0,2.7,0,4.1,0c0.8,0,1.3,0.4,1.3,1.1c0,0.7-0.5,1.1-1.3,1.1c-2.7,0-5.5,0-8.2,0
			c-0.8,0-1.3-0.4-1.3-1.1c0-0.7,0.5-1.1,1.3-1.1C16.4,28.7,17.7,28.7,19.1,28.7z"/>
		<path class="st2" d="M18,15.8c1,0,2,0,3,0c0.8,0,1.3,0.4,1.3,1.1c0,0.7-0.5,1.1-1.3,1.1c-2,0-4,0-6.1,0c-0.8,0-1.3-0.4-1.3-1.1
			c0-0.7,0.5-1.1,1.3-1.1C16,15.8,17,15.8,18,15.8z"/>
		<path class="st2" d="M16.9,35.2c0.7,0,1.4,0,2.1,0c0.7,0,1.1,0.5,1.1,1.1c0,0.6-0.4,1.1-1.1,1.1c-1.4,0-2.8,0-4.2,0
			c-0.7,0-1.1-0.5-1.1-1.1c0-0.6,0.4-1.1,1.1-1.1C15.5,35.1,16.2,35.2,16.9,35.2z"/>
		<path class="st2" d="M15.8,24.4c-0.3,0-0.7,0-1,0c-0.6,0-1.1-0.5-1.1-1.1c0-0.6,0.4-1.1,1.1-1.1c0.7,0,1.4,0,2.2,0
			c0.6,0,1.1,0.5,1.1,1.1c0,0.6-0.4,1-1.1,1.1C16.6,24.4,16.2,24.4,15.8,24.4z"/>
		<path class="st2" d="M28.8,30.8c-0.4,0-0.7,0-1.1,0c-0.6,0-1.1-0.5-1-1.1c0-0.6,0.4-1,1-1c0.7,0,1.5,0,2.2,0
			c0.6,0,1.1,0.5,1.1,1.1c0,0.6-0.4,1-1,1C29.5,30.9,29.2,30.8,28.8,30.8z"/>
	</g>
</g>
</svg>
