<?xml version="1.0" encoding="utf-8"?>
<!-- Generator: Adobe Illustrator 24.0.0, SVG Export Plug-In . SVG Version: 6.00 Build 0)  -->
<svg version="1.1" id="Capa_1" xmlns="http://www.w3.org/2000/svg" xmlns:xlink="http://www.w3.org/1999/xlink" x="0px" y="0px"
	 viewBox="0 0 200 200" style="enable-background:new 0 0 200 200;" xml:space="preserve">
<style type="text/css">
	.st0{fill:#ACAEAF;}
	.st1{fill:#FE9900;}
	.st2{fill:#1C3247;}
</style>
<g>
	<path class="st0" d="M11.1,28.6c0.3-1.1,0.6-2.2,1.1-3.2c2.2-5.2,7.1-8.4,13.1-8.4c25.4,0,50.8,0,76.2,0c12.9,0,26,0,39,0
		c0.6,0,1.3,0,2.1,0c0,7.4,0,14.7,0,21.9c18.1,1.9,28.7,18.1,27.4,33.1c0.5,0.2,0.9,0.3,1.6,0.5c5.7,1.9,9.5,6.9,9.5,12.9
		c0,29.3,0,58.5,0,87.9c0,7.6-6,13.6-13.6,13.6c-18.3,0-36.6,0-54.9,0c-6.3,0-11-3.8-13.4-10.9c-6.2,0-12.3,0-18.6,0
		c-0.8-2.2-1.4-4.4-2.2-6.5c-0.2-0.6-0.8-1.1-1.4-1.4c-0.3-0.3-0.9-0.3-1.4-0.6c-2.5-1.7-4.9-1.3-7.4,0.3c-3,1.9-3.2,1.7-5.7-0.9
		c-3.6-3.6-7.3-7.3-10.9-10.9c-0.8-0.8-1.1-1.4-0.3-2.4c0.2-0.2,0.2-0.5,0.3-0.6c2.7-5.2,2.7-5.2,0.3-10.4c-0.2-0.5-0.8-0.9-1.3-1.1
		c-2.1-0.8-4.3-1.4-6.3-2.1c0-6.8,0-13.6,0-20.4c2.1-0.6,4.1-1.3,6.2-2.1c0.6-0.3,1.3-0.9,1.6-1.6c0.8-1.7,1.4-3.5,2.2-5.4
		c-5.2,0-10.3,0-15.5,0c0,7.3,0,14.4,0,21.6c-0.5,0-0.8,0.2-1.3,0.2c-4.1,0-8.4,0-12.5,0c-6.5,0-11.8-4.4-13.4-10.7
		c0-0.3-0.2-0.6-0.3-0.9C11.1,89.8,11.1,59.2,11.1,28.6z M38.5,38.9c0,22.1,0,43.9,0,65.6c20.2,0,40.2,0,60.1,0c0-0.3,0-0.3,0-0.5
		c0-6.2,0-12.1,0-18.3c0-6.3,3.8-11.4,9.8-13.4c0.5-0.2,0.8-0.3,1.3-0.5c-0.6-8.4,1.6-15.6,6.8-22.1c5.4-6.5,12.1-9.9,20.4-10.9
		c0-5.5,0-11,0-16.6c-0.6,0-1.1,0-1.6,0c-36.8,0-73.4,0-110.1,0c-5,0-8.8,3.5-8.8,8.2s3.8,8.2,8.8,8.2C29.7,39,34,38.9,38.5,38.9z
		 M111,77.7c-4.1,0.6-6.6,3.9-6.6,8.4c0,28.7,0,57.4,0,86.1c0,6,3.3,9.3,9.3,9.3c17.5,0,35,0,52.5,0c6.2,0,9.3-3.3,9.3-9.5
		c0-28.4,0-56.8,0-85.2c0-0.6,0-1.3,0-1.9c-0.3-3.8-3.3-6.9-6.6-7.1c-0.6,1.6-1.3,3.3-2.1,5.2c1.3,0,2.2,0,3,0c0,9.1,0,18.3,0,27.3
		c-20,0-40.1,0-60.1,0c0-9.1,0-18.1,0-27.3c1.1,0,2.1,0,3,0C112.2,81,111.6,79.3,111,77.7z M164.4,69c0-13.6-11-24.6-24.6-24.6
		s-24.8,11-24.8,24.6s11,24.6,24.6,24.6C153.4,93.8,164.6,82.7,164.4,69z M32.9,126.6c0-27.4,0-54.7,0-82.2
		c-5.5-0.3-11.2,1.1-16.2-2.8c0,0.9,0,1.6,0,2.2c0,20.5,0,40.9,0,61.4c0,4.4,0,8.8,0,13.3c0,4.4,3.3,8,7.6,8.2
		C27,126.7,29.9,126.6,32.9,126.6z M98.7,152.6c0-14.2,0-28.2,0-42.4c-7.7,0-15.3,0-22.9,0c-0.6,0-1.3,0.5-1.7,0.9
		c-6.5,6-9.1,13.4-7.9,22.2C68.4,148.2,84.8,158,98.7,152.6z M98.7,158.4c-13.3,2.8-24.5-0.5-32.3-11.4c-8.8-12.1-7.7-24.6,0.6-36.9
		c-2.4,0-4.6,0-6.8,0c-0.9,1.9-2.2,3.8-2.7,5.8c-0.8,4.1-3,6.2-7.1,6.6c-0.9,0.2-1.1,0.6-1.1,1.6c0,2.1,0,4.3,0,6.3
		c0,1.6-0.5,3.6,0.3,4.7s2.8,1.3,4.4,1.7c1.3,0.3,1.9,0.9,2.2,2.2c0.3,1.4,0.6,3,1.6,4.1c2.4,3.3,2.2,6.5-0.3,9.5
		c-0.6,0.8-0.3,1.4,0.3,2.1c1.4,1.3,2.7,2.7,4.1,4.1c1.3,1.3,2.4,3.2,3.9,3.3c1.4,0.3,3-1.3,4.6-2.1c0.9-0.5,1.6-0.6,2.5,0
		c1.4,0.8,2.8,1.7,4.4,2.1c3.9,0.6,5.8,3,6.3,6.8c0.2,1.1,0.8,1.4,1.9,1.4c3.8,0,7.6,0,11.5,0c0.5,0,0.9,0,1.4-0.2
		C98.7,166.3,98.7,162.4,98.7,158.4z M115.2,104.7c16.6,0,32.8,0,49.2,0c0-5.5,0-10.9,0-16.7c-0.8,0.5-1.6,0.6-2.1,1.1
		c-12.6,13.6-32.5,13.6-45.1,0c-0.5-0.5-1.3-0.6-2.1-1.1C115.2,93.8,115.2,99.1,115.2,104.7z"/>
	<g>
		<path class="st0" d="M82.2,77.2c0-1.9,0-3.6,0-5.2c-1.9,0-3.6,0-5.2,0c0,1.9,0,3.5,0,5.2C78.8,77.2,80.4,77.2,82.2,77.2z"/>
		<path class="st0" d="M93.1,77.2c0-1.9,0-3.6,0-5.2c-1.9,0-3.6,0-5.2,0c0,1.9,0,3.5,0,5.2C89.7,77.2,91.4,77.2,93.1,77.2z"/>
		<path class="st0" d="M93.1,61c-16.4,0-32.8,0-49.2,0c0,1.7,0,3.5,0,5.2c16.4,0,32.8,0,49.2,0C93.1,64.4,93.1,62.7,93.1,61z"/>
		<path class="st0" d="M71.2,77.2c0-1.9,0-3.6,0-5.2c-9.1,0-18.1,0-27.1,0c0,1.7,0,3.5,0,5.2C53.2,77.2,62.2,77.2,71.2,77.2z"/>
		<path class="st0" d="M44.1,99.1c16.4,0,32.8,0,49.2,0c0-1.7,0-3.5,0-5.2c-16.4,0-32.8,0-49.2,0C44.1,95.7,44.1,97.2,44.1,99.1z"/>
		<path class="st0" d="M44.1,88.2c16.4,0,32.7,0,49.1,0c0-1.7,0-3.5,0-5.2c-16.4,0-32.8,0-49.1,0C44.1,84.8,44.1,86.5,44.1,88.2z"/>
		<path class="st1" d="M44.1,28.1c0,9.1,0,18.1,0,27.1c18.3,0,36.4,0,54.6,0c0-9.1,0-18.1,0-27.1C80.4,28.1,62.2,28.1,44.1,28.1z
			 M93.1,49.8c-14.5,0-29,0-43.5,0c0-5.4,0-10.7,0-16.2c14.5,0,29,0,43.5,0C93.1,39,93.1,44.4,93.1,49.8z"/>
	</g>
	<path class="st2" d="M44.1,66.2c0-1.7,0-3.5,0-5.2c16.4,0,32.8,0,49.2,0c0,1.7,0,3.5,0,5.2C76.9,66.2,60.5,66.2,44.1,66.2z"/>
	<path class="st0" d="M93.1,82.9c0,1.7,0,3.5,0,5.2c-16.4,0-32.7,0-49.1,0c0-1.7,0-3.5,0-5.2C60.5,82.9,76.7,82.9,93.1,82.9z"/>
	<path class="st0" d="M44.1,99.1c0-1.7,0-3.5,0-5.2c16.4,0,32.8,0,49.2,0c0,1.7,0,3.5,0,5.2C76.9,99.1,60.5,99.1,44.1,99.1z"/>
	<path class="st2" d="M44.1,77.2c0-1.9,0-3.5,0-5.2c9,0,18,0,27.1,0c0,1.7,0,3.5,0,5.2C62.2,77.2,53.2,77.2,44.1,77.2z"/>
	<path class="st2" d="M93.1,77.2c-1.9,0-3.5,0-5.2,0c0-1.7,0-3.5,0-5.2c1.7,0,3.5,0,5.2,0C93.1,73.6,93.1,75.3,93.1,77.2z"/>
	<path class="st2" d="M82.2,77.2c-1.7,0-3.5,0-5.2,0c0-1.7,0-3.5,0-5.2c1.7,0,3.5,0,5.2,0C82.2,73.6,82.2,75.3,82.2,77.2z"/>
	<path class="st0" d="M153.7,175.8c0-12.8,0-25.4,0-38.2c5.4,0,10.7,0,16.2,0c0,12.6,0,25.4,0,38.2
		C164.6,175.8,159.1,175.8,153.7,175.8z M164.4,170.4c0-9.1,0-18.1,0-27.1c-1.9,0-3.6,0-5.2,0c0,9.1,0,18.1,0,27.1
		C161,170.4,162.5,170.4,164.4,170.4z"/>
	<path class="st0" d="M126.1,132.1c-5.5,0-10.7,0-16.2,0c0-5.4,0-10.7,0-16.2c5.4,0,10.7,0,16.2,0
		C126.1,121.1,126.1,126.6,126.1,132.1z M115.2,126.6c1.9,0,3.6,0,5.4,0c0-1.9,0-3.6,0-5.2c-1.9,0-3.6,0-5.4,0
		C115.2,123.1,115.2,124.7,115.2,126.6z"/>
	<path class="st0" d="M148,132.1c-5.5,0-10.7,0-16.2,0c0-5.4,0-10.7,0-16.2c5.4,0,10.7,0,16.2,0C148,121.1,148,126.6,148,132.1z
		 M142.5,126.6c0-1.7,0-3.5,0-5.4c-1.7,0-3.5,0-5.2,0c0,1.9,0,3.6,0,5.4C139,126.6,140.6,126.6,142.5,126.6z"/>
	<path class="st0" d="M169.8,132.1c-5.4,0-10.7,0-16.2,0c0-5.5,0-10.9,0-16.2c5.4,0,10.7,0,16.2,0
		C169.8,121.1,169.8,126.4,169.8,132.1z M164.4,121.2c-1.9,0-3.6,0-5.2,0c0,1.9,0,3.6,0,5.2c1.9,0,3.5,0,5.2,0
		C164.4,124.8,164.4,123.1,164.4,121.2z"/>
	<path class="st0" d="M109.9,153.9c0-5.5,0-10.7,0-16.2c5.4,0,10.7,0,16.2,0c0,5.4,0,10.7,0,16.2
		C120.7,153.9,115.4,153.9,109.9,153.9z M120.6,143.1c-1.9,0-3.6,0-5.2,0c0,1.9,0,3.6,0,5.2c1.9,0,3.5,0,5.2,0
		C120.6,146.6,120.6,145,120.6,143.1z"/>
	<path class="st0" d="M148,137.6c0,5.5,0,10.7,0,16.2c-5.4,0-10.7,0-16.2,0c0-5.4,0-10.7,0-16.2C137.1,137.6,142.5,137.6,148,137.6z
		 M137.1,143.1c0,1.9,0,3.6,0,5.4c1.7,0,3.5,0,5.2,0c0-1.9,0-3.6,0-5.4C140.6,143.1,139,143.1,137.1,143.1z"/>
	<path class="st0" d="M126.1,159.6c0,5.5,0,10.7,0,16.2c-5.4,0-10.7,0-16.2,0c0-5.4,0-10.7,0-16.2
		C115.2,159.6,120.6,159.6,126.1,159.6z M120.6,170.4c0-1.9,0-3.6,0-5.4c-1.9,0-3.5,0-5.2,0c0,1.9,0,3.6,0,5.4
		C117.1,170.4,118.8,170.4,120.6,170.4z"/>
	<path class="st0" d="M131.8,159.6c5.4,0,10.7,0,16.2,0c0,5.5,0,10.9,0,16.2c-5.4,0-10.7,0-16.2,0
		C131.8,170.4,131.8,165.1,131.8,159.6z M142.5,165.1c-1.7,0-3.5,0-5.2,0c0,1.9,0,3.6,0,5.2c1.9,0,3.6,0,5.2,0
		C142.5,168.5,142.5,166.8,142.5,165.1z"/>
	<path class="st0" d="M142.7,88.2c-1.9,0-3.6,0-5.5,0c0-1.6,0.2-3.2,0-4.6c0-0.6-0.5-1.3-0.9-1.6c-2.8-1.6-4.3-3.9-4.4-7.3
		c1.7,0,3.5,0,5.4,0c0.3,1.7,1.1,2.7,3,2.7c1.3,0,2.1-0.6,2.5-1.7c0.3-1.3-0.2-2.2-1.3-2.7c-1.6-0.8-3.3-1.6-4.9-2.5
		c-3-1.4-4.7-3.8-4.7-7.1s1.7-5.5,4.6-7.1c0.5-0.3,0.8-0.9,0.9-1.6c0.2-1.4,0-3,0-4.6c1.7,0,3.5,0,5.5,0c0,1.3,0,2.7,0,4.1
		c0,1.1,0.2,1.7,1.4,2.4c2.8,1.4,4.1,3.8,4.1,7.1c-1.7,0-3.5,0-5.4,0c-0.3-1.7-1.1-2.7-3-2.7c-1.3,0-2.1,0.6-2.5,1.7
		c-0.3,1.3,0.2,2.2,1.3,2.7c1.4,0.8,3,1.6,4.4,2.2c3.2,1.4,5,3.8,5.2,7.3c0,3.5-1.6,5.8-4.7,7.4c-0.3,0.2-0.8,0.8-0.8,1.3
		C142.5,84.9,142.7,86.5,142.7,88.2z"/>
</g>
</svg>
