<?xml version="1.0" encoding="utf-8"?>
<!-- Generator: Adobe Illustrator 24.0.0, SVG Export Plug-In . SVG Version: 6.00 Build 0)  -->
<svg version="1.1" id="Capa_1" xmlns="http://www.w3.org/2000/svg" xmlns:xlink="http://www.w3.org/1999/xlink" x="0px" y="0px"
	 viewBox="0 0 200 200" style="enable-background:new 0 0 200 200;" xml:space="preserve">
<style type="text/css">
	.st0{fill:#ACAEAF;}
	.st1{fill:#FE9900;}
	.st2{fill:#1C3247;}
</style>
<g>
	<path class="st0" d="M30.1,186c-1.3-0.8-1.7-2-1.7-3.6c0.1-3,0-6,0-9.1c0-2,1-3.1,2.5-3.1c1.5,0,2.5,1.2,2.5,3.2c0,2.5,0,4.9,0,7.4
		c19.6,0,39,0,58.6,0c0-27.5,0-54.9,0-82.5c-19.5,0-38.9,0-58.6,0c0,0.7,0,1.3,0,2c0,20.3,0,40.5,0,60.8c0,2.7-0.8,4-2.6,3.9
		c-1.7,0-2.5-1.3-2.5-3.9c0-21.4,0-42.8,0-64.1c0-3.2,0.7-3.8,3.8-3.8c20.4,0,40.7,0,61.1,0c3.1,0,3.8,0.7,3.8,3.9
		c0,28.3,0,56.6,0,85c0,1.6-0.3,3-1.6,3.9C73.7,186,51.9,186,30.1,186z"/>
	<path class="st0" d="M171.8,14c1.3,1,1.6,2.2,1.6,3.8c0,28.4,0,56.9,0,85.3c0,2.9-0.8,3.7-3.7,3.7c-11.4,0-22.8,0-34.3,0
		c-0.5,0-1,0-1.5-0.1c-1.3-0.2-2-1-2.1-2.3c-0.1-1.2,0.5-2.2,1.8-2.5c0.7-0.2,1.4-0.2,2.2-0.2c10.1,0,20.3,0,30.4,0
		c0.7,0,1.3,0,2.1,0c0-27.6,0-55,0-82.5c-19.5,0-39,0-58.5,0c0,27.5,0,54.9,0,82.5c4.2,0,8.3,0,12.5,0c0.7,0,1.5,0,2.2,0.2
		c1.2,0.3,1.8,1.3,1.7,2.5c-0.1,1.3-0.8,2.1-2.1,2.2c-1,0.1-2,0.1-3,0.1c-4.4,0-8.7,0-13.1,0c-2.4,0-3.2-0.9-3.3-3.2
		c0-28.8,0-57.5,0-86.3c0-1.4,0.6-2.4,1.7-3.2C128.1,14,150,14,171.8,14z"/>
	<path class="st0" d="M106.3,186c-1.3-0.8-1.7-2-1.7-3.6c0-20.5,0-41.1,0-61.6c0-2.9,0.8-3.7,3.7-3.7c20.4,0,40.8,0,61.2,0
		c3,0,3.8,0.8,3.8,3.8c0,20.4,0,40.8,0,61.2c0,1.6-0.4,2.8-1.6,3.8C150,186,128.1,186,106.3,186z M168.3,122.3
		c-19.6,0-39.1,0-58.6,0c0,19.6,0,39,0,58.5c19.6,0,39,0,58.6,0C168.3,161.3,168.3,141.9,168.3,122.3z"/>
	<path class="st1" d="M62.8,83.5c-10.2,0-20.4,0-30.6,0c-3.1,0-3.8-0.7-3.8-3.7c0-20.4,0-40.8,0-61.3c0-3,0.8-3.8,3.8-3.8
		c20.4,0,40.9,0,61.3,0c3,0,3.8,0.8,3.8,3.8c0,20.4,0,40.7,0,61.1c0,3.1-0.8,3.9-3.9,3.9C83.1,83.5,72.9,83.5,62.8,83.5z M51.8,60.8
		c-12.3-5.9-13.6-19.5-8.3-27.4C49.1,25,60.5,22.4,69,27.8c4.2,2.7,7,6.5,8.1,11.4c1.4,6.3-0.3,11.9-4.4,16.9
		c4.2,7.2,8.3,14.4,12.5,21.6c0.2,0.3,0.6,0.7,1,0.8c1.9,0.1,3.9,0,5.9,0c0-19.6,0-39.1,0-58.6c-19.5,0-39,0-58.5,0
		c0,19.6,0,39,0,58.6c2.5,0,4.8,0,7.2,0c0.4,0,1.1-0.4,1.3-0.8C45.3,72.1,48.5,66.5,51.8,60.8z M63.6,50.4
		c-5.5,9.5-10.8,18.7-16.1,28c10.9,0,21.5,0,32.3,0C74.4,69,69.1,59.8,63.6,50.4z M54.5,56.1c0.3-0.4,0.6-0.9,0.9-1.4
		c1.9-3.3,3.8-6.6,5.7-9.9c1.6-2.8,3.6-2.7,5.3,0c1.2,2.1,2.4,4.2,3.7,6.4c3.4-4.2,3.5-10.7,0.3-15.3c-3.3-4.9-9.5-7.1-15-5.4
		c-5.8,1.8-9.7,7-9.7,13C45.6,49.2,49.3,54.5,54.5,56.1z"/>
	<path class="st0" d="M139.1,56c-6.8,0-13.6,0-20.5,0c-1.9,0-2.9-0.7-3.1-2.1c-0.2-1.3,0.7-2.5,2.1-2.8c0.5-0.1,1-0.1,1.5-0.1
		c13.3,0,26.6,0,39.9,0c0.3,0,0.6,0,0.8,0c1.7,0.1,2.8,1.1,2.8,2.5c0,1.5-1.1,2.5-2.9,2.5C152.8,56,145.9,56,139.1,56z"/>
	<path class="st0" d="M139,81.2c-6.7,0-13.4,0-20.1,0c-0.8,0-1.8-0.1-2.4-0.5c-0.6-0.5-1.1-1.6-1-2.3c0.1-0.7,0.9-1.5,1.6-1.9
		c0.5-0.3,1.4-0.3,2.1-0.3c13.2,0,26.4,0,39.6,0c0.3,0,0.6,0,0.8,0c1.8,0.1,2.9,1.1,2.9,2.6c0,1.5-1.1,2.5-3,2.5
		C152.7,81.2,145.9,81.2,139,81.2z"/>
	<path class="st0" d="M62.8,130.2c6.6,0,13.2,0,19.8,0c0.6,0,1.1,0,1.7,0.1c1.3,0.2,2,1,2.1,2.3c0.1,1.3-0.5,2.2-1.8,2.5
		c-0.6,0.2-1.3,0.2-2,0.2c-13.2,0-26.4,0-39.6,0c-0.4,0-0.8,0-1.2,0c-1.6-0.1-2.6-1.2-2.6-2.5c0-1.4,1.1-2.5,2.8-2.5
		C48.9,130.2,55.8,130.2,62.8,130.2z"/>
	<path class="st0" d="M62.8,155.4c6.8,0,13.5,0,20.3,0c0.8,0,1.8,0.2,2.5,0.7c1.4,1.1,0.9,3.4-0.9,4c-0.7,0.2-1.4,0.2-2.1,0.2
		c-13.2,0-26.4,0-39.6,0c-0.3,0-0.6,0-0.8,0c-1.8-0.1-3-1.1-3-2.5c0-1.5,1.1-2.5,3-2.5C49,155.4,55.9,155.4,62.8,155.4z"/>
	<path class="st0" d="M139.1,38.4c6.5,0,13.1,0,19.6,0c0.6,0,1.1,0,1.7,0.1c1.4,0.2,2.1,1,2.2,2.4c0,1.3-0.7,2.2-2,2.5
		c-0.5,0.1-1.1,0.1-1.7,0.1c-13.2,0-26.4,0-39.6,0c-0.4,0-0.8,0-1.2,0c-1.6-0.2-2.6-1.2-2.6-2.5c0-1.4,1.1-2.5,2.8-2.5
		C125.2,38.4,132.1,38.5,139.1,38.4C139.1,38.5,139.1,38.4,139.1,38.4z"/>
	<path class="st0" d="M139.1,63.6c6.5,0,13,0,19.5,0c0.6,0,1.1,0,1.7,0c1.5,0.1,2.3,1,2.3,2.4c0,1.4-0.8,2.3-2.2,2.5
		c-0.5,0.1-1,0.1-1.5,0.1c-13.2,0-26.4,0-39.6,0c-0.4,0-0.8,0-1.2,0c-1.6-0.2-2.6-1.2-2.6-2.5c0-1.4,1.1-2.5,2.8-2.5
		C125.2,63.6,132.1,63.6,139.1,63.6C139.1,63.6,139.1,63.6,139.1,63.6z"/>
	<path class="st0" d="M62.6,122.6c-6.5,0-13,0-19.5,0c-0.6,0-1.2,0-1.8-0.1c-1.3-0.2-2-1-2.1-2.3c-0.1-1.2,0.5-2.2,1.8-2.5
		c0.5-0.1,1.1-0.2,1.7-0.2c13.4,0,26.8,0,40.1,0c0.5,0,1,0,1.5,0.1c1.4,0.3,2.1,1.2,2,2.5c0,1.3-0.8,2.2-2.2,2.3
		c-0.6,0.1-1.1,0.1-1.7,0.1C75.9,122.6,69.3,122.6,62.6,122.6z"/>
	<path class="st0" d="M62.7,147.8c-6.5,0-13.1,0-19.6,0c-0.6,0-1.2,0-1.8-0.1c-1.3-0.2-2.1-1.2-1.9-2.3c0.1-0.9,1-1.7,1.7-2.4
		c0.4-0.4,1.3-0.2,2-0.2c13.2,0,26.4,0,39.6,0c0.6,0,1.2,0,1.8,0.2c1.3,0.3,1.9,1.2,1.9,2.4c0,1.3-0.7,2.3-2.1,2.4
		c-1.2,0.1-2.3,0.1-3.5,0.1C74.7,147.8,68.7,147.8,62.7,147.8z"/>
	<path class="st0" d="M125.6,27.4c2.5,0,4.9,0,7.4,0c1.7,0,2.8,1,2.9,2.4c0.1,1.5-1,2.6-2.9,2.6c-4.9,0.1-9.7,0-14.6,0
		c-1.8,0-3-1.1-3-2.5c0-1.5,1.1-2.5,3-2.5C120.8,27.3,123.2,27.4,125.6,27.4z"/>
	<path class="st0" d="M152.4,88.5c2.4,0,4.8,0,7.2,0c1.9,0,3,0.9,3,2.4c0,1.5-1.1,2.6-3,2.6c-4.8,0-9.5,0-14.3,0
		c-2,0-3.1-0.9-3.1-2.5c0-1.6,1.1-2.5,3.1-2.5C147.7,88.5,150,88.5,152.4,88.5z"/>
	<path class="st0" d="M49.4,111.5c-2.4,0-4.8,0-7.2,0c-1.8,0-3-1-3-2.5c0-1.5,1.1-2.5,2.9-2.5c4.9,0,9.7,0,14.6,0
		c1.8,0,2.9,1.1,2.9,2.6c0,1.5-1.2,2.4-3,2.4C54.2,111.5,51.8,111.5,49.4,111.5z"/>
	<path class="st0" d="M76.1,172.6c-2.4,0-4.8,0-7.2,0c-1.9,0-2.9-0.9-2.9-2.5c0-1.5,1-2.5,2.9-2.5c4.9,0,9.7-0.1,14.6,0
		c1.8,0,2.9,1.1,2.9,2.6c0,1.5-1.1,2.4-3,2.4C80.9,172.7,78.5,172.6,76.1,172.6z"/>
	<path class="st2" d="M131.4,159.7c0-4.5,0-8.8,0-13.2c-1.2,0-2.3,0-3.7,0c0,0.9,0,1.9,0,2.9c-0.1,2.4-0.9,3.3-3.2,3.3
		c-2,0-3.9,0-5.9,0c-2.1-0.1-3.1-1-3.1-3.1c0-5.1,0-10.2,0-15.3c0-2.1,1-3,3.2-3c13.6,0,27.2,0,40.8,0c2.2,0,3.1,0.9,3.1,3.1
		c0,5.1,0,10.2,0,15.3c0,2.2-0.9,3-3.1,3.1c-2,0-3.9,0-5.9,0c-2.3,0-3.2-1-3.2-3.3c0-0.9,0-1.9,0-2.9c-1.3,0-2.4,0-3.7,0
		c0,4.4,0,8.7,0,13.2c0.4,0,0.9,0.1,1.3,0.1c1.8,0.1,2.7,1,2.7,2.7c0.1,2.2,0.1,4.5,0,6.7c0,1.8-1,2.7-2.7,2.7c-6,0-12,0-18,0
		c-1.7,0-2.6-0.9-2.7-2.6c-0.1-2.3-0.1-4.6,0-6.9c0.1-1.8,1-2.5,2.8-2.7C130.5,159.7,130.9,159.7,131.4,159.7z M145.6,164.9
		c-3.3-0.3-4-0.9-4-3c0-5.9,0-11.9,0-17.8c0-1.8,0.9-2.7,2.7-2.8c2.8-0.1,5.6-0.1,8.4,0c1.8,0,2.7,1,2.7,2.7c0,1.2,0,2.3,0,3.4
		c0.8,0,1.4,0,2,0c0-3.8,0-7.4,0-11.1c-12.3,0-24.5,0-36.7,0c0,3.8,0,7.4,0,11.2c0.7,0,1.3,0,2.1,0c0-1.2,0-2.3,0-3.4
		c0.1-1.9,0.9-2.8,2.8-2.8c2.7,0,5.5,0,8.2,0c1.8,0,2.8,0.9,2.8,2.7c0.1,6,0,12.1,0,18.1c0,1.6-0.9,2.5-2.5,2.7
		c-0.5,0.1-1,0.1-1.6,0.1c0,0.7,0,1.3,0,1.9c4.4,0,8.8,0,13.1,0C145.6,166.1,145.6,165.6,145.6,164.9z"/>
</g>
</svg>
