<?xml version="1.0" encoding="utf-8"?>
<!-- Generator: Adobe Illustrator 24.0.0, SVG Export Plug-In . SVG Version: 6.00 Build 0)  -->
<svg version="1.1" id="Capa_1" xmlns="http://www.w3.org/2000/svg" xmlns:xlink="http://www.w3.org/1999/xlink" x="0px" y="0px"
	 viewBox="0 0 200 200" style="enable-background:new 0 0 200 200;" xml:space="preserve">
<style type="text/css">
	.st0{fill:#ACAEAF;}
	.st1{fill:#FE9900;}
	.st2{fill:#1C3247;}
</style>
<g>
	<path class="st0" d="M171.6,111.2c0,4.9,0,9.6,0,14.5c-1.9,0-3.6,0-5.6,0c0-4.3,0-8.7,0-13.2c-4.9,1-9.5,2-14.1,3
		c-11,2.4-22,4.8-33,7.2c-1.8,0.4-2.9-0.1-4.1-1.4c-3.5-4.1-7-8.2-10.5-12.3c-0.2-0.3-0.5-0.5-0.9-1c0,22.8,0,45.4,0,68.3
		c6.3-1.6,12.6-3.1,19.1-4.7c0.5,1.9,0.9,3.6,1.4,5.5c-4.9,1.2-9.9,2.1-14.5,3.7c-6,2-11.7,1.6-17.8,0c-19.6-5.2-39.3-9.9-58.9-14.9
		c-2.9-0.7-3.4-1.3-3.4-4.3c0-16.1,0-32.1,0-48.2c0-0.7,0-1.4,0-2.3c-3.8-0.8-7.5-1.7-11.3-2.5c-1.3-0.3-2.4-0.8-2.8-2.1
		c-0.4-1.4,0.2-2.4,1.2-3.3c5.4-5.4,10.7-10.8,16.1-16.1c0.6-0.6,1.6-1.2,2.4-1.3C49.6,83,64.3,80.2,79,77.5c0.2,0,0.5-0.1,0.9-0.1
		c0.4,1.8,0.7,3.6,1.1,5.6c-9.8,1.9-19.5,3.7-29.2,5.5c0,0.1,0,0.2,0,0.3c3.9,0.7,7.8,1.4,11.7,2.1c11.9,2.1,23.8,4.2,35.7,6.2
		c1.1,0.2,2.2,0.1,3.3-0.1c15.1-2.6,30.3-5.2,45.4-7.9c0.4-0.1,0.8-0.2,1.6-0.5c-10.1-1.9-19.7-3.7-29.6-5.6c0.3-1.8,0.6-3.6,1-5.6
		c3.8,0.7,7.4,1.4,11.1,2.1c11.2,2.1,22.4,4.2,33.5,6.4c1.1,0.2,2.4,0.9,3.2,1.7c5.3,5.1,10.4,10.4,15.6,15.6c1,1,1.9,2,1.4,3.6
		c-0.5,1.6-1.8,1.9-3.1,2.2C179,109.6,175.4,110.4,171.6,111.2z M97.5,107.8c-4,4.7-7.8,9.1-11.5,13.5c-1.1,1.3-2.3,1.7-4.1,1.4
		c-11.4-2.6-22.9-5-34.4-7.5c-4.2-0.9-8.3-1.8-12.6-2.7c0,16.1,0,32.1,0,48.2c20.8,5.2,41.6,10.4,62.5,15.7
		C97.5,153.4,97.5,130.9,97.5,107.8z M94.9,102.1c-0.3-0.2-0.4-0.2-0.5-0.2c-19.1-3.3-38.2-6.7-57.2-10c-0.7-0.1-1.7,0.3-2.3,0.8
		c-3.5,3.3-6.8,6.8-10.2,10.2c-0.3,0.3-0.5,0.7-0.9,1.2c1.4,0.3,2.5,0.6,3.6,0.8c17.9,3.9,35.8,7.8,53.6,11.7c1,0.2,1.5,0.1,2.1-0.7
		c1.7-2,3.4-4,5.1-6C90.4,107.4,92.6,104.8,94.9,102.1z M106.1,102c0.2,0.4,0.3,0.6,0.4,0.7c3.8,4.5,7.6,9,11.5,13.4
		c0.4,0.4,1.4,0.6,2,0.4c15.7-3.4,31.4-6.8,47-10.2c3.3-0.7,6.6-1.5,10.1-2.2c-0.2-0.3-0.2-0.5-0.4-0.6c-3.7-3.7-7.3-7.4-11.1-11.1
		c-0.4-0.4-1.4-0.6-2.1-0.4C144.5,95.3,125.4,98.6,106.1,102z"/>
	<path class="st0" d="M99.9,91.5c-2.4,0.1-5.3,0.1-7.9-1.5c-3.6-2.2-5.5-5.4-5.7-9.7c-0.1-1.6-0.1-3.2,0-4.8
		c0.2-2.8-0.9-4.9-2.9-6.8c-5.8-5.4-8.6-12.2-8.5-20.2C75,35.1,85.8,23.8,98.8,23c13.4-0.8,25.2,9,26.9,22.5
		c1.2,9.1-1.6,16.9-8.2,23.2c-2,1.9-3,4-2.9,6.7c0.1,2,0.2,4.1-0.1,6.1c-0.7,5.7-5.4,9.9-11.2,10C102.4,91.5,101.4,91.5,99.9,91.5z
		 M107.8,61c-1.2-1.6-2.3-3-3.4-4.6c1.2-0.9,2.4-1.7,3.4-2.7c0.5-0.4,1-1,1-1.5c0-1.1-0.4-2.2-0.6-3.3c-0.9,0.5-2,0.9-2.7,1.5
		c-3.2,2.9-7.2,2.9-10.3-0.1c-0.5-0.5-0.9-1.2-1.4-1.3c-0.6-0.1-1.6,0.1-1.8,0.6c-0.7,1.3,0,3.4,1.3,4.4c2.6,1.9,5.1,3.9,7.7,5.7
		c1.7,1.2,2.5,2.5,2.3,4.6c-0.1,1.4,0,2.8,0,4.3c2.3,0,4.3,0,6.3,0c0.4,0,0.8-0.2,1.1-0.5c1.5-1.7,3-3.3,4.4-5.1
		c5.6-6.7,6.9-14.1,3.5-22.1c-3.2-7.5-9.1-11.8-17.3-12.3c-8-0.5-15.7,4.5-19,12c-3.4,7.6-1.9,16.7,3.7,22.7
		c1.4,1.5,2.7,3.1,4.1,4.6c0.2,0.2,0.5,0.5,0.8,0.5c2.2,0,4.3,0,6.6,0c0-0.7-0.1-1.2,0-1.6c0.3-1.9-0.4-3.2-2.1-4.2
		c-1.8-1.1-3.4-2.6-5.2-3.8c-3.1-2-4.4-4.7-4.2-8.4c0.2-3.2,1.2-5.7,4.2-7c2.7-1.2,5.5-0.6,7.9,1.8c2.1,2.1,2.1,2.1,4.2,0.1
		c0.4-0.4,0.9-0.8,1.3-1.2c2.7-2,6.3-1.5,8.8,0.7c2.7,2.4,2.9,10.2-0.3,12.5C110.9,58.6,109.5,59.7,107.8,61z M92,77.1
		c5.7,0,11.3,0,16.9,0c0-0.9,0-1.7,0-2.6c-5.7,0-11.3,0-16.9,0C92,75.4,92,76.2,92,77.1z M93,83c1.6,2.7,3.6,3.2,10.5,2.8
		c1.9-0.1,3.4-0.9,4.5-2.8C102.9,83,98,83,93,83z"/>
	<path class="st1" d="M138.2,130.1c1,0.8,2,1.5,2.9,2.3c0.8,0.6,1.2,1.8,2.6,1c1.3-0.8,3-0.8,2.8-3.1c-0.3-3.8,0.6-4.5,4.4-4.5
		c2.3,0,4.5,0,6.8,0c4.3,0,4.9,0.5,4.8,4.8c0,1.3,0.4,1.8,1.6,2.3c1.8,0.9,2.9,0.7,4.2-0.8c1.9-2.2,3.3-2.1,5.4-0.1
		c2.1,2.1,4.1,4.1,6.2,6.2c1.8,1.8,1.8,3.2,0,5c-0.1,0.1-0.3,0.3-0.4,0.4c-1.4,1.5-1.5,3.7-0.1,5.2c0.2,0.2,0.7,0.3,1.1,0.4
		c0.8,0.1,1.5,0,2.3,0c2,0.1,3,1.1,3.1,3.2c0,3.3,0,6.5,0,9.8c0,1.9-1,2.9-2.9,3.1c-0.4,0-0.7,0-1.1,0c-2.2,0-3.6,1.3-3.8,3.5
		c0,0.3,0.2,0.8,0.5,1.1c0.5,0.6,1.1,1.1,1.6,1.7c1.5,1.6,1.5,3,0,4.5c-2.2,2.3-4.4,4.5-6.7,6.7c-1.7,1.7-3.1,1.6-4.8,0
		c-0.2-0.2-0.3-0.3-0.5-0.5c-1.5-1.5-3.6-1.6-5.2-0.2c-0.3,0.2-0.3,0.7-0.4,1.1c-0.1,0.9,0,1.8-0.1,2.7c-0.2,1.7-1.2,2.7-2.9,2.8
		c-3.4,0.1-6.8,0.1-10.1,0c-1.7,0-2.7-1-2.9-2.7c-0.1-0.4,0-0.8,0-1.2c0-2.3-1.1-3.6-3.5-3.9c-0.3,0-0.8,0.2-1.1,0.4
		c-0.6,0.5-1.1,1.1-1.7,1.6c-1.6,1.5-3,1.5-4.5,0c-2.3-2.2-4.6-4.5-6.8-6.8c-1.6-1.6-1.5-3,0-4.6c0.2-0.2,0.3-0.3,0.5-0.5
		c1.6-1.6,1.7-3.5,0.2-5.2c-0.2-0.3-0.7-0.4-1.1-0.4c-0.8-0.1-1.7,0-2.5,0c-1.9-0.1-3-1.1-3-3.1c0-3.3,0-6.7,0-10c0-1.8,1-2.8,2.8-3
		c0.3,0,0.6,0,0.9,0c2.6,0,3.7-0.9,4.1-3.4c0.1-0.3-0.2-0.8-0.4-1.1c-0.4-0.5-0.9-0.9-1.4-1.4c-1.9-1.9-1.9-3.2,0-5.2
		c2.1-2.2,4.2-4.3,6.4-6.4C136.4,131,137.2,130.7,138.2,130.1z M174.1,173.7c-0.6-1-1.3-1.8-1.7-2.8c-1.1-2.8,1.7-9.6,4.4-10.9
		c1-0.5,2.1-0.6,3.2-0.8c0-1.4,0-2.8,0-4.4c-2.7,0-4.8-0.9-5.9-3.5c-0.3-0.8-0.5-1.6-0.9-2.3c-1.7-3-1.8-5.9,0.9-8.3
		c-1.1-1.1-2.1-2.2-3-3.1c-1.1,0.6-2.1,1.3-3.2,1.7c-2.6,0.9-9.2-1.9-10.4-4.4c-0.5-1-0.6-2.3-0.9-3.4c-1.4,0-2.8,0-4.3,0
		c-0.1,2.8-1,5-3.8,6c-0.7,0.2-1.4,0.4-2,0.8c-3,1.7-5.9,1.8-8.3-0.9c-1.1,1.1-2.2,2.1-3.2,3.1c0.6,1,1.3,1.9,1.7,3
		c1,2.7-1.8,9.4-4.3,10.6c-1,0.5-2.2,0.6-3.4,0.9c0,1.4,0,2.8,0,4.3c2.4,0.1,4.4,0.7,5.6,2.9c0.5,0.9,0.7,1.9,1.2,2.8
		c1.7,3.1,2,6-0.7,8.4c1.1,1.1,2.1,2.2,3.1,3.2c0.8-0.5,1.7-1.2,2.6-1.6c2.8-1.1,9.6,1.7,10.8,4.5c0.4,1,0.6,2.1,0.8,3.2
		c1.4,0,2.8,0,4.2,0c0.9-4,1.5-5,3.6-5.9c0.8-0.3,1.6-0.5,2.3-0.9c3-1.7,5.8-1.8,8.4,1C172.1,175.8,173.1,174.8,174.1,173.7z"/>
	<path class="st2" d="M72.6,24.2c1.1-1.1,2.3-2.3,3.6-3.6c1.9,2,3.8,4,5.7,6.1c-1.1,1-2.4,2.2-3.7,3.4
		C76.5,28.3,74.6,26.3,72.6,24.2z"/>
	<path class="st2" d="M128.1,24.8c-1.6,1.6-3.5,3.5-5.5,5.4c-1.1-1.2-2.4-2.6-3.6-3.9c1.7-1.7,3.7-3.6,5.7-5.6
		C125.7,22,126.9,23.3,128.1,24.8z"/>
	<path class="st2" d="M103.2,20c-1.8,0-3.6,0-5.5,0c0-2.7,0-5.5,0-8.4c1.8,0,3.6,0,5.5,0C103.2,14.5,103.2,17.2,103.2,20z"/>
	<path class="st2" d="M71.9,46c0,1.9,0,3.6,0,5.5c-2.8,0-5.5,0-8.3,0c0-1.8,0-3.6,0-5.5C66.2,46,69,46,71.9,46z"/>
	<path class="st2" d="M137.4,51.5c-2.8,0-5.5,0-8.3,0c0-1.8,0-3.6,0-5.5c2.7,0,5.4,0,8.3,0C137.4,47.7,137.4,49.5,137.4,51.5z"/>
	<path class="st1" d="M170.2,157.2c0,8.6-7,15.6-15.6,15.6c-8.7,0-15.7-7-15.7-15.7c0-8.6,7-15.7,15.6-15.7
		C163.2,141.4,170.2,148.5,170.2,157.2z M164.5,157.2c0-5.5-4.4-10-9.9-10.1c-5.5,0-10,4.4-10,9.9c-0.1,5.5,4.4,10,9.9,10.1
		C160,167.1,164.5,162.7,164.5,157.2z"/>
</g>
</svg>
