<?xml version="1.0" encoding="utf-8"?>
<!-- Generator: Adobe Illustrator 24.0.0, SVG Export Plug-In . SVG Version: 6.00 Build 0)  -->
<svg version="1.1" id="Capa_1" xmlns="http://www.w3.org/2000/svg" xmlns:xlink="http://www.w3.org/1999/xlink" x="0px" y="0px"
	 viewBox="0 0 226.8 226.8" style="enable-background:new 0 0 226.8 226.8;" xml:space="preserve">
<style type="text/css">
	.st0{fill:#14162B;}
</style>
<g>
	<path class="st0" d="M117.8,11.4c0.3,0.2,0.7,0.4,1,0.7c1.6,1.2,2.3,2.7,1.7,4.6c-0.6,1.9-2,2.9-4,2.9c-1.9,0-3.2-1.1-3.8-2.9
		c-0.6-1.9,0.1-3.4,1.7-4.6c0.3-0.2,0.7-0.5,1-0.7C116.1,11.4,116.9,11.4,117.8,11.4z"/>
	<path class="st0" d="M161,190.9c-2.4,6.8-4.8,13.4-7.2,20.1c-0.8,2.2-1.7,4.5-2.4,6.7c-0.6,1.9-1.7,3.3-3.8,3.5
		c-2.1,0.2-3.4-1.1-4.4-2.8c-8.5-15-17-29.9-25.5-44.8c-0.4-0.6-0.8-1.2-1.3-2.1c-0.5,0.8-0.9,1.4-1.3,2
		c-8.2,14.4-16.4,28.8-24.6,43.2c-0.4,0.7-0.8,1.3-1.1,2c-0.9,1.6-2.2,2.6-4.1,2.5c-2-0.2-3.1-1.4-3.8-3.3c-3-8.4-6-16.8-8.9-25.3
		c-0.5-1.6-1.1-1.9-2.8-1.6c-8.4,1.8-16.8,3.5-25.2,5.3c-2,0.4-3.7,0.2-4.9-1.5c-1.2-1.7-0.9-3.3,0.1-5
		c7.8-13.7,15.5-27.4,23.4-41.1c0.8-1.4,0.7-2.1-0.5-3.2C25,109.2,32.7,47.4,78.2,21.5c5.7-3.2,11.6-5.7,17.9-7.3
		c3.1-0.8,5.3,0.2,6,2.6c0.6,2.5-0.7,4.4-3.8,5.3C74,29.2,57.5,44.8,49.9,68.9c-12.5,39.8,13.2,81.5,54.2,88.9
		c37.3,6.7,72.9-17.4,80.7-54.6c7.4-35.6-14.6-71.5-49.7-81.1c-0.3-0.1-0.7-0.1-1-0.2c-2.7-0.8-3.9-2.9-3.2-5.3
		c0.6-2.2,2.9-3.4,5.5-2.6c4,1.3,8.1,2.5,11.9,4.2c29.4,13.1,47.6,42.8,46,74.9c-1.1,20.4-9,37.8-23.6,52c-1.6,1.6-1.6,2.5-0.6,4.4
		c7.6,13.2,15.1,26.4,22.6,39.7c0.2,0.4,0.4,0.7,0.6,1.1c1,1.6,1,3.3-0.2,4.8c-1.2,1.5-2.7,1.9-4.6,1.5c-8.5-1.8-17.1-3.6-25.6-5.3
		C162.3,191.1,161.7,191,161,190.9z M70.7,152.3c-6.5,11.5-12.9,22.7-19.4,34.2c0.9-0.1,1.5-0.1,2-0.2c6.5-1.3,13.1-2.7,19.6-4.1
		c3.3-0.7,4.8,0.1,5.9,3.4c2,5.7,4.1,11.4,6.1,17.1c0.5,1.4,1,2.8,1.7,4.6c7.8-13.7,15.3-27,23-40.4
		C95.3,165.4,82.4,160.7,70.7,152.3z M181.8,186.7c-6.6-11.7-13-23-19.5-34.4c-11.7,8.3-24.5,13.2-38.9,14.6
		c7.7,13.5,15.2,26.8,23,40.4c0.3-0.8,0.4-1.1,0.6-1.4c2.4-6.9,4.9-13.7,7.3-20.6c1-2.8,2.7-3.7,5.5-3.1c2.7,0.6,5.5,1.1,8.2,1.7
		C172.5,184.8,177,185.7,181.8,186.7z"/>
	<path class="st0" d="M116.5,150.8c-33.9,0-61.5-27.6-61.5-61.5c0-33.9,27.7-61.5,61.6-61.4c33.8,0.1,61.4,27.6,61.4,61.4
		C178.1,123.1,150.4,150.8,116.5,150.8z M63.2,89.2c0,29.4,23.9,53.4,53.3,53.4c29.3,0,53.2-23.8,53.3-53.1
		c0.1-29.4-23.8-53.4-53.2-53.5C87.3,35.9,63.3,59.8,63.2,89.2z"/>
	<path class="st0" d="M90.8,120c1-6,1.8-12.1,3.1-18.1c0.6-3,0.2-5-2.2-7.1c-4.3-3.8-8.3-8.1-12.5-12.2c-1.4-1.4-2.3-2.9-1.6-4.9
		c0.7-1.9,2.2-2.5,4.2-2.8C88.2,74,94.6,73,101,72c1.3-0.2,2.1-0.7,2.8-2c2.8-5.8,5.8-11.6,8.6-17.4c0.9-1.8,2-3.1,4.1-3.1
		c2.2,0,3.2,1.4,4.1,3.1c2.9,5.8,5.8,11.6,8.6,17.4c0.6,1.3,1.5,1.8,2.8,2c6.5,0.9,13,1.9,19.4,2.9c1.8,0.3,3.3,1,3.9,2.8
		c0.7,1.9-0.1,3.4-1.4,4.8c-4.7,4.6-9.4,9.3-14.2,13.9c-0.9,0.9-1.2,1.7-0.9,3c1.2,6.6,2.2,13.2,3.3,19.8c0.3,1.8-0.1,3.3-1.6,4.4
		c-1.5,1.1-3,1-4.6,0.2c-5.9-3.1-11.9-6.1-17.8-9.3c-1.2-0.7-2.2-0.6-3.4,0c-5.9,3.1-11.8,6.2-17.8,9.2
		C93.8,125.4,90.6,123.4,90.8,120z M100.3,112.9c4.7-2.5,9.1-4.6,13.3-6.9c2.1-1.1,3.9-1.1,6,0c3.8,2.1,7.7,4,11.6,6
		c0.4,0.2,0.9,0.4,1.6,0.7c-0.8-5.1-1.5-10-2.5-14.8c-0.4-2.2,0.2-3.8,1.8-5.3c3.2-3.1,6.3-6.2,9.5-9.3c0.3-0.3,0.6-0.8,1.1-1.3
		c-5.3-0.8-10.3-1.6-15.3-2.3c-1.9-0.3-3.1-1.2-3.9-2.9c-2-4-4-8.1-6-12.1c-0.3-0.5-0.6-1-0.9-1.5c-0.2,0.3-0.3,0.4-0.4,0.5
		c-1.5,2.9-2.9,5.8-4.4,8.8c-4,7.8-2.3,6.6-11.2,8c-3.3,0.5-6.6,1-9.8,1.5c3.5,3.7,6.9,7.3,10.4,10.9c1.4,1.4,2,2.9,1.6,5
		C101.9,102.6,101.1,107.5,100.3,112.9z"/>
</g>
</svg>
