<?xml version="1.0" encoding="utf-8"?>
<!-- Generator: Adobe Illustrator 24.0.0, SVG Export Plug-In . SVG Version: 6.00 Build 0)  -->
<svg version="1.1" id="Capa_1" xmlns="http://www.w3.org/2000/svg" xmlns:xlink="http://www.w3.org/1999/xlink" x="0px" y="0px"
	 viewBox="0 0 200 200" style="enable-background:new 0 0 200 200;" xml:space="preserve">
<style type="text/css">
	.st0{fill:#ACAEAF;}
	.st1{fill:#FE9900;}
</style>
<g>
	<path class="st0" d="M8.1,62.3C8.6,60.7,9,59,9.7,57.5c3.5-7.5,9.6-11.1,17.7-11.1c9.7-0.1,19.5,0,29.2,0c0.7,0,1.4,0,2.4,0
		c0-1.8-0.1-3.5,0-5.2c0.2-2.9,0.1-6,0.7-8.8c1.7-7.4,8.6-13,16.2-13.2c10.6-0.2,21.1-0.2,31.7,0c10.3,0.2,17.6,7.9,17.8,18.4
		c0,2.8,0,5.7,0,8.8c0.8,0,1.5,0,2.2,0c9.8,0,19.7,0,29.5,0c9.4,0,17,5.8,18.7,14.6c0.7,3.9,0.5,7.9,0.5,11.9c0,1.6,0.4,2.7,1.5,3.9
		c16.7,17.3,16.6,44.1-0.3,61.6c-0.9,0.9-1.2,1.9-1.2,3.1c-0.1,3.3,0.1,6.6-0.5,9.7c-1.8,8.7-9.1,14.5-18.4,14.5
		c-13.6,0.1-27.3,0-40.9,0c-0.6,0-1.4,0.1-1.7-0.3c-0.7-0.7-1.7-1.8-1.6-2.6s1.1-1.7,2-2.3c0.5-0.3,1.4-0.1,2.1-0.1
		c13.2,0,26.5,0,39.7,0c6.8,0,11.9-3.6,13.5-9.6c0.5-2.1,0.5-4.3,0.8-6.8c-17.1,10.2-33.7,10.2-50.4,0c-1.6,1.6-3.3,3.3-5,5.1
		c-0.3,0.3-0.4,1-0.3,1.4c0.1,2-0.5,3.6-1.9,5c-7.2,7.2-14.4,14.5-21.7,21.6c-4.4,4.3-11.3,4.2-15.5,0c-4.3-4.3-4.4-11.2,0.1-15.7
		c7.1-7.2,14.3-14.4,21.5-21.5c1.4-1.4,3-2,5-1.9c0.6,0,1.3-0.2,1.7-0.6c1.7-1.5,3.2-3.1,5-4.8c-5.2-7.6-7.7-16-7.8-25.2
		c-14.9,0-29.6,0-44.6,0c0,3.3,0,6.5,0,9.7c-0.1,4.4-2.9,8.1-7.1,9.4c-6.1,1.9-12.4-2.3-12.9-8.6c-0.2-3.5,0-7,0-10.6
		c-9.9-1-17.7-5.5-23.6-13.6c-0.1,0.8-0.1,1.3-0.1,1.8c0,17,0,34.1,0,51.1c0,8.3,5.5,13.9,13.8,13.9c12,0.1,24,0,36,0
		c0.4,0,0.8,0,1.2,0c2.2,0,3.5,1,3.4,2.7c0,1.7-1.3,2.6-3.5,2.6c-12.4,0-24.8,0.1-37.2,0c-9.7-0.1-16.6-5.8-18.8-15.4
		c-0.1-0.3-0.2-0.5-0.3-0.8C8.1,120.4,8.1,91.3,8.1,62.3z M171.1,70.7c0-2.3,0-4.2,0-6.2c0-0.9-0.2-1.9-0.4-2.8
		c-1.6-6.2-6.8-10-14-10c-42.9,0-85.8,0-128.7,0c-0.5,0-0.9,0-1.4,0c-7.7,0.3-13,5.9-13.1,13.6c0,3.6,0,7.2,0,10.9
		c0.1,11.2,7.4,21.2,18.1,24.5c1.8,0.6,3.6,0.8,5.4,1.2c0.9-8.2,3.9-11.9,9.5-12.2c2.5-0.1,4.8,0.5,6.8,2c3.3,2.5,4.3,6.1,4,10
		c0.4,0.1,0.5,0.1,0.7,0.1c14.4,0,28.7,0,43.1,0c1.1,0,1.2-0.5,1.4-1.4c5.1-31.3,39.9-47.3,66.9-30.8
		C169.8,70,170.3,70.3,171.1,70.7z M146.1,68.4c-21.5,0-38.9,17.5-38.9,39s17.5,38.9,39,38.9s38.9-17.6,38.8-39.1
		C184.9,85.8,167.4,68.4,146.1,68.4z M119.9,46.2c0-3.7,0.3-7.3-0.1-10.8c-0.6-6.1-5.7-10.8-11.8-10.9c-10.6-0.2-21.1-0.2-31.7,0
		c-5.5,0.1-9.3,3.1-11.2,8.2c-1.7,4.4-0.6,9-0.9,13.5c2.1,0,3.8,0,5.7,0c0-2.8,0-5.4,0-8.1c0-5.3,2.7-8,8-8c9.5,0,19,0,28.5,0
		c5.2,0,7.9,2.7,7.9,8c0,2.7,0,5.3,0,8.1C116.4,46.2,118.1,46.2,119.9,46.2z M109.1,46.2c0-2.8,0-5.6,0-8.3c0-2.1-0.4-2.5-2.5-2.5
		c-5.9,0-11.9,0-17.8,0c-3.7,0-7.5,0-11.2,0c-1.2,0-2.1,0.4-2.1,1.6c-0.1,3,0,6,0,9.1C86.6,46.2,97.7,46.2,109.1,46.2z M95.2,150.3
		c-5.1,5.1-10.3,10.1-15.3,15.3c-0.8,0.8-1.2,2.1-1.3,3.2c-0.3,2.4,1.1,4.6,3.2,5.6c2.2,1,4.7,0.6,6.5-1.3
		c4.5-4.4,8.9-8.9,13.3-13.3c0.5-0.5,1.3-0.8,1.8-1.2C100.5,155.6,97.9,153,95.2,150.3z M42.5,108.5c3.2,0,6.2,0,9.4,0
		c0-3,0-5.9,0-8.8c-0.1-2.7-2-4.6-4.6-4.7s-4.7,1.7-4.8,4.5C42.4,102.4,42.5,105.4,42.5,108.5z M42.6,114.1c-0.2,2.5-0.4,5,2,6.7
		c1.5,1.1,3.7,1.1,5.2,0.1c2.5-1.7,2.3-4.1,2.1-6.7C48.7,114.1,45.7,114.1,42.6,114.1z M99.4,146.1c2.7,2.7,5.3,5.3,7.7,7.7
		c1-0.8,2.1-1.7,3.4-2.8c-1.9-1.8-3.7-3.5-5.3-5.1C102.2,142.8,102.2,142.8,99.4,146.1z M108.6,141.2c1.2,1.4,2.4,2.6,3.3,3.7
		c1.6-1.6,3.1-3,4.6-4.4c-1.1-1.2-2.3-2.4-3.5-3.6C111.5,138.3,110,139.8,108.6,141.2z"/>
	<path class="st1" d="M146.1,75.2c14.6,0.1,27.4,10,31,24c0.6,2.5,0.1,3.9-1.6,4.4c-1.8,0.4-2.9-0.5-3.6-3
		c-2.9-10.1-9.5-16.7-19.7-19.2c-14.7-3.7-29.8,6.3-32.4,21c-2.7,15.5,7.9,29.8,23.2,31.5c13.4,1.4,25.3-6.8,28.9-19.8
		c0.1-0.3,0.2-0.6,0.2-0.9c0.5-1.7,1.8-2.5,3.3-2.1s2.2,1.8,1.8,3.5c-1.8,7.6-5.8,13.7-12,18.4c-10.5,8-25.1,8.6-36.4,1.5
		c-11.2-7-17-20.6-14.3-33.4c2.7-13.2,13.1-23.2,26.2-25.3C142.6,75.5,144.3,75.4,146.1,75.2z"/>
</g>
</svg>
