<?xml version="1.0" encoding="utf-8"?>
<!-- Generator: Adobe Illustrator 27.1.0, SVG Export Plug-In . SVG Version: 6.00 Build 0)  -->
<svg version="1.1" id="Capa_1" xmlns="http://www.w3.org/2000/svg" xmlns:xlink="http://www.w3.org/1999/xlink" x="0px" y="0px"
	 viewBox="0 0 200 200" style="enable-background:new 0 0 200 200;" xml:space="preserve">
<style type="text/css">
	.st0{fill:#ACAEAF;}
	.st1{fill:#1C3247;}
	.st2{fill:#FE9900;}
</style>
<g>
	<path class="st0" d="M79.27,91.91c0.73,0.01,1.45,0.01,2.19,0.02h6.57c1.1,0,2.2-0.01,3.29-0.02H79.27z"/>
	<path class="st1" d="M143.17,34.5l-4.45,5.69l-27.96-23.17C93.68,37.63,76.72,58.1,59.77,78.56c0.2,0.28,0.28,0.45,0.41,0.55
		c4.9,4.08,9.8,8.17,14.75,12.19c0.53,0.43,1.43,0.58,2.15,0.59c0.74,0.01,1.46,0.01,2.19,0.02H63.64c0.05-0.13,0.08-0.26,0.12-0.39
		c-2.89-2.41-5.78-4.82-8.68-7.22c-0.78-0.66-1.58-1.3-2.37-1.97c-2.19-1.85-2.38-3.69-0.54-5.92c5.09-6.18,10.21-12.34,15.31-18.51
		c12.57-15.16,25.15-30.32,37.72-45.48c0.53-0.64,1.07-1.29,1.6-1.94c2.19-2.65,3.95-2.84,6.57-0.68c0.81,0.67,1.62,1.33,2.43,1.99
		l3.33,2.77c0.59,0.49,1.15,1,1.71,1.5c0.25,0.22,0.51,0.41,0.76,0.56l0.02,0.01l9.54,7.91l0.48,0.4L143.17,34.5z"/>
	<path class="st0" d="M192.52,28.43v31.8c-0.92,1.99-2.48,2.69-4.65,2.65c-3.52-0.07-7.04-0.07-10.56-0.04
		c-1.84,0-3.68,0.03-5.52,0.05c-1.16,0.01-2.38,0.28-3.47,0.7c-5.77,2.23-11.4,4.91-17.3,6.72c-8.21,2.52-16.43,1.73-24.34-1.67
		l-7.9-4.01c-2.77-1.47-5.38-2.79-7.94-4.23c-5.32-3-7.33-9.22-4.85-14.8c2.48-5.56,8.7-8.34,14.41-6.39
		c3.24,1.11,6.45,2.31,9.69,3.42c3.31,1.13,6.71,0.18,8.64-2.43l4.45-5.69l2.51,2.09c2.35,1.95,2.52,3.82,0.56,6.19
		c-0.6,0.72-1.19,1.45-1.82,2.14c-0.34,0.37-0.7,0.74-1.07,1.08c-4.55,4.14-9.76,5.5-15.68,3.44c-3.12-1.08-6.22-2.24-9.35-3.3
		c-2.43-0.83-4.69,0.14-5.72,2.37c-1.04,2.27-0.29,4.47,2.12,5.77c4.24,2.27,8.46,4.6,12.8,6.68c8.69,4.17,17.56,4.62,26.53,0.76
		c3.87-1.67,7.71-3.38,11.66-4.83c1.07-0.39,2.2-0.7,3.34-0.91c0.91-0.17,1.83-0.27,2.74-0.31c4.42-0.18,8.87-0.06,13.37-0.06V33.03
		c-5.83,0-11.54,0.07-17.25-0.05c-1.44-0.03-2.99-0.42-4.28-1.05c-4.21-2.07-8.29-4.4-12.49-6.49c-1.75-0.88-3.65-1.92-5.53-2.02
		c-4.94-0.27-9.89-0.07-14.85-0.06c-0.02,0.25-0.05,0.5-0.07,0.76c0.16,0.13,0.32,0.27,0.48,0.41l-9.54-7.91
		c0.91,0.53,1.86,0.61,2.99,0.5c5.03-0.53,10.07-0.99,15.11-1.4c5.11-0.41,9.92,0.71,14.45,3.11c3.46,1.83,6.95,3.58,10.36,5.5
		c1.9,1.06,3.8,1.55,5.99,1.51c5.78-0.12,11.57,0.02,17.34-0.07C190.06,25.74,191.6,26.42,192.52,28.43z"/>
	<path class="st1" d="M126.68,68.64c-0.98-0.43-1.53-0.42-2.25,0.48c-5.99,7.31-12.04,14.58-18.08,21.85
		c-0.15,0.19-0.26,0.39-0.63,0.94h-14.4c1.09-0.01,2.19-0.03,3.28-0.05c0.88-0.02,1.98-0.54,2.54-1.19
		c3.77-4.39,7.42-8.87,11.11-13.31c3.47-4.2,6.95-8.4,10.53-12.73L126.68,68.64z"/>
	<path class="st0" d="M169.81,91.92H11.5c-2.67,0.02-3.99,1.37-4,4.03c-0.03,5.3-0.03,10.6,0,15.9c0.01,2.75,1.35,4.04,4.14,4.09
		c1.37,0.02,2.74,0,4.33,0v2.51c0,22.71-0.01,45.41,0,68.11c0,3.94,1.15,5.1,5.02,5.1h139.84c3.79,0,4.95-1.17,4.95-4.99v-70.74
		c1.47,0,2.73,0.01,3.98,0c3.25-0.02,4.42-1.2,4.44-4.5c0.01-4.82,0-9.63,0-14.46C174.2,93.14,173.33,92.05,169.81,91.92z
		 M158.45,184.31H23.33v-68.27h135.12V184.31z M166.87,108.6H14.86v-9.34h152.01V108.6z"/>
	<path class="st2" d="M140.82,132.23v35.06c0,3.66-1.21,4.88-4.87,4.88H45.8c-3.7,0-4.83-1.15-4.83-4.89
		c-0.01-11.74-0.01-23.49,0-35.23c0-3.6,1.15-4.75,4.75-4.76c9.82-0.01,19.63-0.02,29.45,0.02c2.51,0,4.12,1.48,4.11,3.6
		c-0.01,2.13-1.6,3.52-4.13,3.6c-0.48,0.02-0.96,0-1.44,0c-7.71,0.01-15.41,0.01-23.13,0.01h-2.27v30.31h85.19v-30.21
		c-0.73-0.03-1.42-0.09-2.11-0.09c-7.59-0.01-15.17,0-22.76-0.01c-0.72,0-1.45-0.02-2.15-0.16c-1.67-0.34-2.83-1.87-2.79-3.52
		c0.04-1.68,1.26-3.13,2.92-3.42c0.64-0.11,1.31-0.12,1.97-0.12c9.1,0,18.19-0.01,27.28,0C139.7,127.29,140.82,128.42,140.82,132.23
		z"/>
	<path class="st2" d="M95.2,131.01c-0.08,1.97-1.7,3.48-3.68,3.45c-1.98-0.04-3.5-1.59-3.49-3.6c0.01-2.06,1.65-3.61,3.73-3.53
		C93.72,127.42,95.29,129.1,95.2,131.01z"/>
	<line class="st0" x1="121.62" y1="16.62" x2="119.14" y2="14.56"/>
</g>
</svg>
