<?xml version="1.0" encoding="utf-8"?>
<!-- Generator: Adobe Illustrator 27.1.0, SVG Export Plug-In . SVG Version: 6.00 Build 0)  -->
<svg version="1.1" id="Capa_1" xmlns="http://www.w3.org/2000/svg" xmlns:xlink="http://www.w3.org/1999/xlink" x="0px" y="0px"
	 viewBox="0 0 200 200" style="enable-background:new 0 0 200 200;" xml:space="preserve">
<style type="text/css">
	.st0{fill:#ACAEAF;}
	.st1{fill:#FE9900;}
</style>
<g>
	<path class="st0" d="M68.8,34.58c-1.61,0-2.96,0.05-4.3-0.01c-2.46-0.12-4.19-1.76-4.22-4.21c-0.07-5.7-0.07-11.4,0-17.09
		c0.03-2.71,1.85-4.3,4.78-4.31c5.7-0.03,11.4-0.01,17.09-0.01c17.31,0,34.62,0,51.92,0c4.24,0,5.66,1.41,5.67,5.62
		c0.01,4.91,0.01,9.83,0,14.74c-0.01,3.78-1.53,5.27-5.34,5.28c-0.98,0-1.97,0-3.2,0c0,0.92,0,1.67,0,2.43
		c0,10.97-0.03,21.94,0.04,32.91c0.01,1.35,0.38,2.83,1,4.02c15.92,30.44,31.91,60.85,47.87,91.28c4.59,8.75,2.18,18.62-6,23.22
		c-2.56,1.44-5.75,2.41-8.67,2.46c-15.17,0.24-30.34,0.12-45.51,0.11c-3.06,0-5.02-1.75-4.97-4.35c0.05-2.53,1.93-4.18,4.91-4.18
		c14.81-0.02,29.63,0,44.44-0.01c7.9,0,11.79-6.44,8.12-13.45c-8.25-15.75-16.54-31.49-24.76-47.26c-0.63-1.21-1.29-1.73-2.74-1.72
		c-29.99,0.05-59.97,0.05-89.96,0.01c-1.31,0-2,0.37-2.62,1.56c-8.29,15.89-16.66,31.75-24.96,47.63
		c-3.53,6.75,0.43,13.23,8.06,13.23c14.53,0.01,29.06,0,43.59,0c0.71,0,1.43-0.04,2.13,0.05c2.19,0.26,3.8,2.05,3.83,4.18
		c0.02,2.12-1.56,3.96-3.73,4.27c-0.63,0.09-1.28,0.05-1.92,0.05c-14.6,0-29.2,0.01-43.8,0c-14.16-0.01-22.25-13.29-15.68-25.81
		c15.95-30.43,31.95-60.84,47.87-91.28c0.63-1.2,0.99-2.67,1-4.02C68.84,58.94,68.8,47.97,68.8,37C68.8,36.3,68.8,35.59,68.8,34.58z
		 M122.66,34.75c-15.23,0-30.22,0-45.31,0c0,0.93,0,1.71,0,2.48c0,11.47,0.04,22.94-0.05,34.41c-0.01,1.56-0.44,3.26-1.16,4.65
		c-5.7,11.07-11.52,22.08-17.29,33.11c-0.32,0.61-0.6,1.24-0.99,2.04c28.16,0,56.11,0,84.28,0c-0.38-0.78-0.66-1.41-0.98-2.02
		c-5.48-10.46-10.9-20.95-16.49-31.36c-1.43-2.66-2.09-5.29-2.06-8.32C122.73,58.13,122.66,46.52,122.66,34.75z M68.9,25.89
		c20.86,0,41.52,0,62.21,0c0-2.83,0-5.51,0-8.28c-20.77,0-41.44,0-62.21,0C68.9,20.4,68.9,23.08,68.9,25.89z"/>
	<path class="st0" d="M104.26,186.66c0.05,2.35-1.93,4.36-4.28,4.35c-2.26-0.01-4.19-1.9-4.24-4.17c-0.05-2.29,1.77-4.23,4.05-4.34
		C102.16,182.4,104.21,184.3,104.26,186.66z"/>
	<path class="st1" d="M100.06,94.43c-8.63,0.03-15.19-8.41-12.07-16.39c2.2-5.63,5.55-10.84,8.7-16.05
		c1.53-2.53,5.11-2.49,6.66,0.07c3.11,5.15,6.42,10.3,8.6,15.86C115.1,85.93,108.68,94.39,100.06,94.43z M100.36,72.74
		c-0.24,0-0.49,0-0.73-0.01c-1.27,2.73-2.69,5.41-3.74,8.22c-0.63,1.7,0.31,3.2,1.79,4.19c1.59,1.06,3.24,1.02,4.77-0.11
		c1.42-1.05,2.28-2.55,1.6-4.27C102.97,78.03,101.61,75.41,100.36,72.74z"/>
</g>
</svg>
