<svg xmlns="http://www.w3.org/2000/svg" xmlns:xlink="http://www.w3.org/1999/xlink" width="68.93" height="46.998" viewBox="0 0 68.93 46.998">
  <defs>
    <linearGradient id="linear-gradient" x1="0.5" x2="0.5" y2="1" gradientUnits="objectBoundingBox">
      <stop offset="0" stop-color="#f4836b"/>
      <stop offset="0.515" stop-color="#a02bbd"/>
      <stop offset="1" stop-color="#55069e"/>
    </linearGradient>
  </defs>
  <g id="Grupo_174" data-name="Grupo 174" transform="translate(249.188 292.719)">
    <path id="Trazado_237" data-name="Trazado 237" d="M-193.887-286.335a36.275,36.275,0,0,0-20.836-6.384,36.275,36.275,0,0,0-20.836,6.384,36.291,36.291,0,0,0-13.629,17.115,36.291,36.291,0,0,0,13.629,17.115,36.275,36.275,0,0,0,20.836,6.384,36.275,36.275,0,0,0,20.836-6.384,36.29,36.29,0,0,0,13.629-17.115A36.289,36.289,0,0,0-193.887-286.335Zm-4.582,29.687a29.906,29.906,0,0,1-16.253,4.661,29.906,29.906,0,0,1-16.253-4.661,30.62,30.62,0,0,1-11.319-12.572,30.62,30.62,0,0,1,11.319-12.572,29.905,29.905,0,0,1,16.253-4.661,29.905,29.905,0,0,1,16.253,4.661,30.62,30.62,0,0,1,11.319,12.572A30.62,30.62,0,0,1-198.47-256.648Z" transform="translate(0)" fill="#cfcde1"/>
    <path id="Trazado_238" data-name="Trazado 238" d="M-88.432-225.031a13.6,13.6,0,0,0-9.987,4.112,13.6,13.6,0,0,0-4.112,9.987,13.6,13.6,0,0,0,4.112,9.987,13.6,13.6,0,0,0,9.987,4.112,13.6,13.6,0,0,0,9.987-4.112,13.6,13.6,0,0,0,4.112-9.987,13.6,13.6,0,0,0-4.112-9.987A13.6,13.6,0,0,0-88.432-225.031Zm5.992,20.092a8.158,8.158,0,0,1-5.992,2.467,8.158,8.158,0,0,1-5.992-2.467,8.158,8.158,0,0,1-2.467-5.992,8.158,8.158,0,0,1,2.467-5.992,8.159,8.159,0,0,1,5.992-2.467,8.159,8.159,0,0,1,5.992,2.467,8.159,8.159,0,0,1,2.467,5.992A8.159,8.159,0,0,1-82.439-204.939Z" transform="translate(-126.291 -58.288)" fill="url(#linear-gradient)"/>
  </g>
</svg>
