<?xml version="1.0" encoding="utf-8"?>
<!-- Generator: Adobe Illustrator 27.1.0, SVG Export Plug-In . SVG Version: 6.00 Build 0)  -->
<svg version="1.1" id="Capa_1" xmlns="http://www.w3.org/2000/svg" xmlns:xlink="http://www.w3.org/1999/xlink" x="0px" y="0px"
	 viewBox="0 0 200 200" style="enable-background:new 0 0 200 200;" xml:space="preserve">
<style type="text/css">
	.st0{fill:#FE9900;}
	.st1{fill:#1C3247;}
	.st2{fill:#264763;}
	.st3{fill:#ACAEAF;}
</style>
<g>
	<path class="st0" d="M82.55,138.16c-2.72-2.75-5.78-2.9-8.09-0.54c-2.2,2.24-2.01,5.26,0.59,7.9c3.38,3.44,6.8,6.84,10.23,10.23
		c3.13,3.09,5.77,3.12,8.87,0.08c3.51-3.44,6.96-6.93,10.42-10.41c3.34-3.35,6.75-6.65,10-10.09c2.14-2.27,2.02-5.28-0.01-7.33
		c-2.03-2.04-5.01-2.1-7.34-0.08c-1.06,0.92-2.01,1.96-3,2.95c-4.76,4.76-9.51,9.53-14.72,14.75
		C87.07,143,84.88,140.51,82.55,138.16z"/>
	<g>
		<path class="st1" d="M34.73,34.1v26.74h-6.19V39.07h-5.35V34.1H34.73z"/>
	</g>
	<g>
		<path class="st1" d="M104.39,55.8v5.04H84.19v-4.01l10.31-9.74c2.37-2.25,2.79-3.63,2.79-4.93c0-2.1-1.45-3.32-4.28-3.32
			c-2.29,0-4.24,0.88-5.54,2.67l-4.51-2.9c2.06-3.02,5.81-4.97,10.62-4.97c5.96,0,9.93,3.06,9.93,7.91c0,2.6-0.73,4.97-4.47,8.44
			L92.9,55.8H104.39z"/>
	</g>
	<g>
		<path class="st1" d="M164.65,52.67c0,4.51-3.48,8.63-11.08,8.63c-3.74,0-7.6-1.03-10.2-2.87l2.41-4.74
			c2.02,1.53,4.85,2.41,7.64,2.41c3.09,0,5-1.26,5-3.44c0-2.02-1.49-3.29-5-3.29h-2.83V45.3l5.5-6.23h-11.38V34.1h18.72v4.01
			l-6.04,6.88C162.21,45.76,164.65,48.73,164.65,52.67z"/>
	</g>
	<rect x="53.74" y="44.24" class="st2" width="18.22" height="3.97"/>
	<rect x="116.14" y="44.24" class="st2" width="18.22" height="3.97"/>
	<path class="st2" d="M185.5,144.26h-50.84v-3.97h50.84c2.19,0,3.97-1.78,3.97-3.97V52.18c0-2.19-1.78-3.97-3.97-3.97h-4.96v-3.97
		h4.96c4.38,0,7.94,3.56,7.94,7.94v84.14C193.43,140.69,189.87,144.26,185.5,144.26z"/>
	<path class="st2" d="M145.38,155.52c-0.47,0-0.94-0.16-1.31-0.5l-12.77-11.26c-0.43-0.38-0.67-0.92-0.67-1.49s0.25-1.11,0.67-1.49
		l12.77-11.26c0.82-0.73,2.08-0.65,2.8,0.18c0.73,0.82,0.65,2.08-0.18,2.8l-11.08,9.77l11.08,9.77c0.82,0.73,0.9,1.98,0.18,2.8
		C146.48,155.29,145.93,155.52,145.38,155.52z"/>
	<path class="st3" d="M48.14,70.81H14.16c-4.18,0-7.59-3.4-7.59-7.59V29.24c0-4.18,3.4-7.59,7.59-7.59h33.98
		c4.18,0,7.59,3.4,7.59,7.59v33.98C55.72,67.4,52.32,70.81,48.14,70.81z M14.16,25.62c-1.99,0-3.62,1.62-3.62,3.62v33.98
		c0,1.99,1.62,3.62,3.62,3.62h33.98c1.99,0,3.62-1.62,3.62-3.62V29.24c0-1.99-1.62-3.62-3.62-3.62H14.16z"/>
	<path class="st3" d="M111.54,70.81H77.56c-4.18,0-7.59-3.4-7.59-7.59V29.24c0-4.18,3.4-7.59,7.59-7.59h33.98
		c4.18,0,7.59,3.4,7.59,7.59v33.98C119.13,67.4,115.72,70.81,111.54,70.81z M77.56,25.62c-1.99,0-3.62,1.62-3.62,3.62v33.98
		c0,1.99,1.62,3.62,3.62,3.62h33.98c1.99,0,3.62-1.62,3.62-3.62V29.24c0-1.99-1.62-3.62-3.62-3.62H77.56z"/>
	<path class="st3" d="M174.94,70.81h-33.98c-4.18,0-7.59-3.4-7.59-7.59V29.24c0-4.18,3.4-7.59,7.59-7.59h33.98
		c4.18,0,7.59,3.4,7.59,7.59v33.98C182.53,67.4,179.12,70.81,174.94,70.81z M140.96,25.62c-1.99,0-3.62,1.62-3.62,3.62v33.98
		c0,1.99,1.62,3.62,3.62,3.62h33.98c1.99,0,3.62-1.62,3.62-3.62V29.24c0-1.99-1.62-3.62-3.62-3.62H140.96z"/>
	<path class="st3" d="M119.2,178.35h-49.3c-6.3,0-11.43-5.13-11.43-11.43v-49.3c0-6.3,5.13-11.43,11.43-11.43h49.3
		c6.3,0,11.43,5.13,11.43,11.43v49.3C130.63,173.22,125.5,178.35,119.2,178.35z M69.89,110.16c-4.11,0-7.46,3.34-7.46,7.46v49.3
		c0,4.11,3.35,7.46,7.46,7.46h49.3c4.11,0,7.46-3.34,7.46-7.46v-49.3c0-4.11-3.34-7.46-7.46-7.46H69.89z"/>
</g>
</svg>
