<svg xmlns="http://www.w3.org/2000/svg" width="51.65" height="73.786" viewBox="0 0 51.65 73.786">
  <g id="Grupo_175" data-name="Grupo 175" transform="translate(-76.4 150)">
    <path id="Trazado_239" data-name="Trazado 239" d="M120.487-142.437A24.883,24.883,0,0,0,102.225-150a24.883,24.883,0,0,0-18.262,7.563A24.883,24.883,0,0,0,76.4-124.175v22.136a24.883,24.883,0,0,0,7.563,18.262,24.883,24.883,0,0,0,18.262,7.563,24.883,24.883,0,0,0,18.262-7.563,24.883,24.883,0,0,0,7.563-18.262v-22.136A24.883,24.883,0,0,0,120.487-142.437Zm-32.512,6.548a17.987,17.987,0,0,1,10.561-6.364v18.077H83.779A17.841,17.841,0,0,1,87.975-135.888Zm32.7,33.849a17.778,17.778,0,0,1-5.4,13.051,17.778,17.778,0,0,1-13.051,5.4,17.778,17.778,0,0,1-13.051-5.4,17.778,17.778,0,0,1-5.4-13.051V-116.8h36.893Zm-14.757-22.136v-18.077a17.987,17.987,0,0,1,10.561,6.364,17.841,17.841,0,0,1,4.2,11.713Z" fill="#cfcde1"/>
  </g>
</svg>
