<?xml version="1.0" encoding="utf-8"?>
<!-- Generator: Adobe Illustrator 27.1.0, SVG Export Plug-In . SVG Version: 6.00 Build 0)  -->
<svg version="1.1" id="Capa_1" xmlns="http://www.w3.org/2000/svg" xmlns:xlink="http://www.w3.org/1999/xlink" x="0px" y="0px"
	 viewBox="0 0 200 200" style="enable-background:new 0 0 200 200;" xml:space="preserve">
<style type="text/css">
	.st0{fill:#ACAEAF;}
	.st1{fill:#FE9900;}
	.st2{fill:#1C3247;}
</style>
<g>
	<g>
		<path class="st0" d="M113.65,66.49h-13.6c4.36,0,8.72,0,13.08,0.03C113.32,66.52,113.49,66.51,113.65,66.49z"/>
		<path class="st0" d="M186.04,152.58c-0.14-2.01-1.64-3.38-3.59-3.39c-1.95-0.01-3.45,1.35-3.64,3.34
			c-0.05,0.54-0.02,1.09-0.02,1.64c0,9.97,0,19.94,0,29.9c0,0.64,0,1.28,0,1.91c-52.64,0-105.01,0-157.46,0c0-31.9,0-63.71,0-95.59
			c52.52,0,104.93,0,157.46,0c0,0.79,0,1.46,0,2.12c0,10.09,0,20.18,0,30.27c0,2.75,1.47,4.5,3.7,4.46
			c2.17-0.04,3.59-1.74,3.59-4.39c0.01-11.85,0.04-23.7-0.06-35.56c-0.01-1.2-0.59-2.69-1.42-3.54
			c-10.68-10.81-21.43-21.55-32.25-32.21c-0.88-0.87-2.42-1.32-3.71-1.46c-2.2-0.23-4.43-0.06-7.19-0.06
			c1.88-1.87,3.64-3.6,5.33-5.29l-13.63,13.5c0.35-0.24,0.72-0.45,1.1-0.61c2.35-0.96,5.41-0.03,8.1-0.38
			c4.07-0.52,6.84,1.03,9.6,3.96c6.86,7.3,14.08,14.27,21.35,21.56c-48.92,0-97.63,0-146.81,0c8.52-8.49,16.73-16.68,24.97-24.86
			c0.31-0.31,0.82-0.58,1.24-0.58c5.21-0.04,10.43-0.03,15.68-0.03l8.38-8.4c-0.83,0.82-1.66,1.14-2.82,1.13
			c-7.41-0.05-14.83,0.02-22.24-0.05c-1.84-0.02-3.23,0.54-4.53,1.85C36.73,62.38,26.25,72.87,15.74,83.33
			c-1.25,1.24-1.83,2.56-1.83,4.35c0.03,33.67,0.02,67.34,0.03,101.02c0,3.46,1.24,4.68,4.75,4.68c54.22,0,108.43,0,162.65,0
			c3.52,0,4.74-1.21,4.74-4.69c0-10.64,0-21.27,0-31.91C186.07,155.37,186.14,153.97,186.04,152.58z"/>
		<path class="st1" d="M67.91,138.09c-0.04,17.69,14.37,32.18,32.04,32.22c17.58,0.04,32.08-14.36,32.14-31.93
			c0.07-17.76-14.22-32.18-31.95-32.24C82.38,106.07,67.95,120.39,67.91,138.09z M124.8,138.32c-0.05,13.61-11.33,24.79-24.94,24.69
			c-13.65-0.1-24.71-11.29-24.66-24.96c0.05-13.66,11.21-24.69,24.93-24.63C113.84,113.49,124.85,124.61,124.8,138.32z"/>
		<path class="st0" d="M178.8,138.09c-0.06,2.01,1.67,3.77,3.67,3.75c1.95-0.02,3.59-1.68,3.6-3.63c0.01-1.99-1.57-3.58-3.58-3.6
			C180.47,134.57,178.85,136.1,178.8,138.09z"/>
		<path class="st1" d="M91.7,134.37c-1.89-1.9-4.01-2.01-5.6-0.38c-1.52,1.56-1.39,3.64,0.41,5.48c2.34,2.38,4.71,4.74,7.09,7.09
			c2.17,2.14,3.99,2.16,6.15,0.05c2.43-2.38,4.82-4.8,7.22-7.21c2.32-2.32,4.68-4.6,6.93-6.99c1.48-1.57,1.4-3.66-0.01-5.07
			c-1.4-1.41-3.47-1.45-5.08-0.05c-0.73,0.64-1.39,1.35-2.08,2.04c-3.3,3.3-6.59,6.6-10.2,10.22C94.83,137.72,93.31,136,91.7,134.37
			z"/>
		<line class="st0" x1="113.66" y1="66.5" x2="100.05" y2="66.5"/>
	</g>
	<path class="st2" d="M150.03,41.51c-1.07,1.07-2.16,2.15-3.26,3.25l-13.63,13.5c-1.73,1.19-3.1,3.26-4.68,4.82
		c-1.03,1.03-2.04,2.09-3.27,3.35c0.7,0.04,1,0.06,1.31,0.06c2.87,0.01,5.75-0.03,8.62,0.01h-21.48c0.93-0.1,1.62-0.5,2.32-1.21
		c8.61-8.66,17.26-17.29,25.9-25.93c0.41-0.41,0.79-0.86,1-1.1c-7.57-7.56-15.04-15.02-22.39-22.36
		c-14.3,14.3-28.73,28.73-43.29,43.29c2.08,2.03,4.19,4.21,6.45,6.24c0.64,0.58,1.66,1.02,2.51,1.02c4.64,0.04,9.27,0.04,13.9,0.05
		H73.96c-1.79-3.29-6.44-4.43-5.56-9.17h-0.02l8.38-8.4c0.02-0.02,0.03-0.03,0.04-0.04c5.73-5.75,11.46-11.48,17.19-17.22l2.77-2.78
		c6.53-6.53,13.07-13.07,19.61-19.59c0.94-0.93,1.96-1.78,2.95-2.66h2.19c0.89,0.72,1.86,1.36,2.66,2.16
		c8.61,8.58,17.2,17.18,25.8,25.78C152.63,37.22,152.65,38.89,150.03,41.51z"/>
	<path class="st0" d="M140.79,70.24c-0.05,2.02-1.62,3.47-3.86,3.54c-0.55,0.02-1.1,0.01-1.64,0.01H75.49
		c-4.13,0-8.27,0.03-12.4-0.01c-2.25-0.02-3.82-1.49-3.88-3.51c-0.06-1.98,1.5-3.61,3.69-3.74c0.23-0.01,0.46-0.02,0.68-0.03h36.47
		c4.36,0,8.73,0,13.08,0.03c0.18,0,0.36-0.01,0.52-0.03h21.48c0.65,0.01,1.3,0.02,1.95,0.03C139.28,66.58,140.84,68.26,140.79,70.24
		z"/>
</g>
</svg>
