<svg xmlns="http://www.w3.org/2000/svg" xmlns:xlink="http://www.w3.org/1999/xlink" width="242.667" height="73.791" viewBox="0 0 242.667 73.791">
  <defs>
    <linearGradient id="linear-gradient" x1="0.5" y1="-0.077" x2="0.5" y2="1.994" gradientUnits="objectBoundingBox">
      <stop offset="0.338" stop-color="#f48303"/>
      <stop offset="0.392" stop-color="#f27b04"/>
      <stop offset="0.474" stop-color="#ed6607"/>
      <stop offset="0.573" stop-color="#e5440d"/>
      <stop offset="0.62" stop-color="#e13211"/>
    </linearGradient>
  </defs>
  <g id="Grupo_6" data-name="Grupo 6" transform="translate(-240.219 -160.571)">
    <g id="Grupo_1" data-name="Grupo 1" transform="translate(240.219 160.571)">
      <path id="Trazado_1" data-name="Trazado 1" d="M346.916,180.513,327.582,234.92a15.142,15.142,0,0,1-14.267,10.07H300.289l7.651-21.518h10.335l.143-.392a16.592,16.592,0,0,0,.956-5.56,4.7,4.7,0,0,0-.057-.714,4.458,4.458,0,0,0-.749-1.87l-5-7.294,2.169-6.11H328.2a3.418,3.418,0,0,0,3.219-2.269l1.021-2.862h-11.7a2.247,2.247,0,0,1-2.113-3l1.956-5.5h-2.6l2.048-5.767.571-1.613Z" transform="translate(-272.233 -171.199)" fill="url(#linear-gradient)"/>
      <path id="Trazado_2" data-name="Trazado 2" d="M291.9,160.571l-3.311,9.314-.571,1.613a3.066,3.066,0,0,0,.128-1.613,3.112,3.112,0,0,0-3.062-2.548h-6.217l-2.056,5.8a3.1,3.1,0,0,0,2.919,4.133H268.568a7.727,7.727,0,0,0-7.28,5.139l-.593,1.677-.607,1.692-1.82,5.132-2.17,6.11h3.19a3.443,3.443,0,0,0,3.247-2.291l1.356-3.818,1.827-5.132.6-1.692h5.075l-.6,1.692-1.827,5.132-1.206,3.4a16.682,16.682,0,0,0-.964,5.574,4.5,4.5,0,0,0,.806,2.576l2.577,3.719h-6.638l-2.369,6.666h7.787l-4.339,12.2h-24.4l19.334-54.407a15.135,15.135,0,0,1,14.267-10.071Z" transform="translate(-240.219 -160.571)" fill="#fff"/>
    </g>
    <g id="Grupo_5" data-name="Grupo 5" transform="translate(327.497 165.329)">
      <g id="Grupo_2" data-name="Grupo 2" transform="translate(0 36.7)">
        <path id="Trazado_3" data-name="Trazado 3" d="M427.085,276.963V250.126h8.645a12.718,12.718,0,0,1,6.4,1.613,11.338,11.338,0,0,1,4.433,4.553,13.746,13.746,0,0,1,1.613,6.589v1.235a13.82,13.82,0,0,1-1.558,6.608,11.387,11.387,0,0,1-4.387,4.571,12.43,12.43,0,0,1-6.313,1.668Zm6.47-21.842v16.866H435.8a5.033,5.033,0,0,0,4.276-1.981,9.71,9.71,0,0,0,1.493-5.889v-1.161a9.632,9.632,0,0,0-1.493-5.862,5.12,5.12,0,0,0-4.35-1.972Z" transform="translate(-427.085 -249.757)" fill="#fff"/>
        <path id="Trazado_4" data-name="Trazado 4" d="M493.556,265.572H483.381v6.414H495.4v4.977H476.911V250.126h18.525v4.995H483.381v5.659h10.175Z" transform="translate(-453.639 -249.757)" fill="#fff"/>
        <path id="Trazado_5" data-name="Trazado 5" d="M526.182,267.857v9.105h-6.469V250.126h10.709a12.474,12.474,0,0,1,5.446,1.134,8.546,8.546,0,0,1,3.668,3.225,8.814,8.814,0,0,1,1.3,4.747,7.766,7.766,0,0,1-2.811,6.276,11.664,11.664,0,0,1-7.714,2.35Zm0-4.995h4.239a4,4,0,0,0,2.866-.94,3.492,3.492,0,0,0,.986-2.655,4.319,4.319,0,0,0-1.014-3,3.593,3.593,0,0,0-2.765-1.143h-4.313Z" transform="translate(-476.45 -249.757)" fill="#fff"/>
        <path id="Trazado_6" data-name="Trazado 6" d="M591.757,263.676a15.829,15.829,0,0,1-1.456,6.949,10.763,10.763,0,0,1-4.138,4.654,11.524,11.524,0,0,1-6.11,1.631,11.683,11.683,0,0,1-6.083-1.576,10.739,10.739,0,0,1-4.138-4.507,15.36,15.36,0,0,1-1.557-6.728v-1.511a15.892,15.892,0,0,1,1.447-6.958,10.731,10.731,0,0,1,4.147-4.654,12.275,12.275,0,0,1,12.229-.019,10.936,10.936,0,0,1,4.157,4.617,15.444,15.444,0,0,1,1.5,6.866Zm-6.58-1.124a11.29,11.29,0,0,0-1.336-6.074,4.286,4.286,0,0,0-3.824-2.073q-4.867,0-5.143,7.3l-.018,1.972a11.6,11.6,0,0,0,1.309,6.065,4.279,4.279,0,0,0,3.889,2.119,4.228,4.228,0,0,0,3.779-2.083,11.284,11.284,0,0,0,1.346-5.99Z" transform="translate(-502.331 -249.336)" fill="#fff"/>
        <path id="Trazado_7" data-name="Trazado 7" d="M633.242,267.47h-3.5v9.493h-6.47V250.126h10.562q4.773,0,7.465,2.117a7.175,7.175,0,0,1,2.691,5.984,8.709,8.709,0,0,1-1.134,4.639,8.041,8.041,0,0,1-3.548,2.983l5.6,10.836v.277h-6.931Zm-3.5-4.977h4.092a3.675,3.675,0,0,0,2.774-.97,3.752,3.752,0,0,0,.931-2.707,3.8,3.8,0,0,0-.94-2.725,3.64,3.64,0,0,0-2.765-.989H629.74Z" transform="translate(-531.64 -249.757)" fill="#fff"/>
        <path id="Trazado_8" data-name="Trazado 8" d="M691.108,255.121h-8.055v21.842h-6.47V255.121h-7.907v-4.995h22.432Z" transform="translate(-555.838 -249.757)" fill="#fff"/>
        <path id="Trazado_9" data-name="Trazado 9" d="M736.764,265.572H726.59v6.414h12.018v4.977H720.12V250.126h18.524v4.995H726.59v5.659h10.174Z" transform="translate(-583.255 -249.757)" fill="#fff"/>
      </g>
      <g id="Grupo_4" data-name="Grupo 4" transform="translate(0 0)">
        <g id="Grupo_3" data-name="Grupo 3">
          <path id="Trazado_10" data-name="Trazado 10" d="M452.883,192.663a9.435,9.435,0,0,1-4.027,8.042,14.773,14.773,0,0,1-8.894,2.6,14.588,14.588,0,0,1-8.894-2.6,9.377,9.377,0,0,1-3.983-8.042v-21.9h10.236V191.82q0,2.5,2.641,2.5,2.685,0,2.684-2.5V170.759h10.237Z" transform="translate(-427.085 -170.759)" fill="#fff"/>
          <path id="Trazado_11" data-name="Trazado 11" d="M515.946,202.985H505.71l-9.527-14.8v14.8H485.947V170.759h9.57l10.193,15.508V170.759h10.237Z" transform="translate(-458.455 -170.759)" fill="#fff"/>
          <path id="Trazado_12" data-name="Trazado 12" d="M574.95,202.985H554.39V170.759h20.56V178.8H564.626v4.158h9.79V191h-9.79v3.9H574.95Z" transform="translate(-494.931 -170.759)" fill="#fff"/>
          <path id="Trazado_13" data-name="Trazado 13" d="M641.339,202.985h-10.28l-2.586-16.314-4.2,16.314h-5.817l-4.605-16.314-2.772,16.314H600.8l5.991-32.226H617.3l3.885,14.209,4.026-14.209h10.324Z" transform="translate(-519.664 -170.759)" fill="#fff"/>
          <path id="Trazado_14" data-name="Trazado 14" d="M701.344,202.985H691.063V170.759h10.281Z" transform="translate(-567.769 -170.759)" fill="#fff"/>
        </g>
      </g>
    </g>
  </g>
</svg>
