<svg xmlns="http://www.w3.org/2000/svg" width="375.757" height="64.5" viewBox="0 0 375.757 64.5">
  <g id="Grupo_57" data-name="Grupo 57" transform="translate(-423 -3484)">
    <g id="Grupo_53" data-name="Grupo 53" transform="translate(635.201 3489.828)">
      <g id="Grupo_48" data-name="Grupo 48" transform="translate(0)">
        <path id="Trazado_35" data-name="Trazado 35" d="M331.715,701.379l-13.031,36.67a10.205,10.205,0,0,1-9.616,6.788h-8.779l5.157-14.5h6.965l.1-.264a11.183,11.183,0,0,0,.644-3.747,3.165,3.165,0,0,0-.038-.481,3,3,0,0,0-.5-1.26l-3.372-4.916,1.462-4.118h8.4a2.3,2.3,0,0,0,2.17-1.53l.688-1.929h-7.884a1.515,1.515,0,0,1-1.424-2.025l1.318-3.709h-1.756l1.38-3.887.385-1.087Z" transform="translate(-281.379 -695.102)" fill="#fff"/>
        <path id="Trazado_36" data-name="Trazado 36" d="M275.051,681.438l-2.232,6.277-.385,1.087a2.066,2.066,0,0,0,.087-1.087A2.1,2.1,0,0,0,270.457,686h-4.19l-1.385,3.906a2.086,2.086,0,0,0,1.967,2.785h-7.524a5.208,5.208,0,0,0-4.906,3.463l-.4,1.13-.409,1.14-1.226,3.459L250.922,706h2.15a2.321,2.321,0,0,0,2.189-1.544l.914-2.574,1.231-3.459.4-1.14h3.42l-.4,1.14-1.231,3.459-.813,2.294a11.243,11.243,0,0,0-.649,3.757,3.03,3.03,0,0,0,.543,1.736l1.737,2.506h-4.474l-1.6,4.493h5.248l-2.925,8.226H240.219l13.031-36.67a10.2,10.2,0,0,1,9.616-6.787Z" transform="translate(-240.219 -681.438)" fill="#fff"/>
      </g>
      <g id="Grupo_52" data-name="Grupo 52" transform="translate(58.825 3.207)">
        <g id="Grupo_49" data-name="Grupo 49" transform="translate(0 24.736)">
          <path id="Trazado_37" data-name="Trazado 37" d="M427.085,789.08V770.992h5.827a8.572,8.572,0,0,1,4.311,1.087,7.643,7.643,0,0,1,2.988,3.069,9.265,9.265,0,0,1,1.087,4.441v.832a9.313,9.313,0,0,1-1.05,4.454,7.674,7.674,0,0,1-2.957,3.081,8.378,8.378,0,0,1-4.255,1.124Zm4.361-14.721v11.367h1.516a3.392,3.392,0,0,0,2.882-1.335,6.544,6.544,0,0,0,1.006-3.969v-.783a6.492,6.492,0,0,0-1.006-3.951,3.451,3.451,0,0,0-2.932-1.329Z" transform="translate(-427.085 -770.743)" fill="#fff"/>
          <path id="Trazado_38" data-name="Trazado 38" d="M488.129,781.4h-6.858v4.323h8.1v3.354H476.911V770.992H489.4v3.366h-8.125v3.814h6.858Z" transform="translate(-461.226 -770.743)" fill="#fff"/>
          <path id="Trazado_39" data-name="Trazado 39" d="M524.073,782.943v6.137h-4.36V770.992h7.218a8.407,8.407,0,0,1,3.671.764,5.759,5.759,0,0,1,2.472,2.174,5.939,5.939,0,0,1,.876,3.2,5.235,5.235,0,0,1-1.894,4.23,7.863,7.863,0,0,1-5.2,1.584Zm0-3.366h2.857a2.7,2.7,0,0,0,1.932-.634,2.354,2.354,0,0,0,.665-1.789,2.911,2.911,0,0,0-.683-2.025,2.422,2.422,0,0,0-1.863-.77h-2.907Z" transform="translate(-490.554 -770.743)" fill="#fff"/>
          <path id="Trazado_40" data-name="Trazado 40" d="M584.1,779.868a10.667,10.667,0,0,1-.981,4.683,7.257,7.257,0,0,1-2.789,3.137,7.77,7.77,0,0,1-4.118,1.1,7.875,7.875,0,0,1-4.1-1.062,7.238,7.238,0,0,1-2.789-3.037,10.353,10.353,0,0,1-1.05-4.534v-1.019a10.712,10.712,0,0,1,.975-4.69,7.232,7.232,0,0,1,2.8-3.137,8.273,8.273,0,0,1,8.243-.013,7.371,7.371,0,0,1,2.8,3.112,10.408,10.408,0,0,1,1.012,4.628Zm-4.435-.758a7.607,7.607,0,0,0-.9-4.093,2.889,2.889,0,0,0-2.578-1.4q-3.28,0-3.466,4.92l-.012,1.329a7.82,7.82,0,0,0,.882,4.087,2.884,2.884,0,0,0,2.621,1.428,2.85,2.85,0,0,0,2.547-1.4,7.605,7.605,0,0,0,.907-4.038Z" transform="translate(-523.829 -770.202)" fill="#fff"/>
          <path id="Trazado_41" data-name="Trazado 41" d="M629.991,782.682h-2.36v6.4H623.27V770.992h7.119a7.945,7.945,0,0,1,5.031,1.427,4.835,4.835,0,0,1,1.813,4.033,5.87,5.87,0,0,1-.764,3.127,5.419,5.419,0,0,1-2.391,2.011l3.777,7.3v.187h-4.671Zm-2.36-3.354h2.758a2.477,2.477,0,0,0,1.87-.654,2.528,2.528,0,0,0,.627-1.825,2.558,2.558,0,0,0-.634-1.837,2.453,2.453,0,0,0-1.864-.666h-2.758Z" transform="translate(-561.512 -770.743)" fill="#fff"/>
          <path id="Trazado_42" data-name="Trazado 42" d="M683.8,774.358h-5.429V789.08h-4.361V774.358h-5.33v-3.366H683.8Z" transform="translate(-592.624 -770.743)" fill="#fff"/>
          <path id="Trazado_43" data-name="Trazado 43" d="M731.338,781.4H724.48v4.323h8.1v3.354H720.12V770.992h12.485v3.366H724.48v3.814h6.858Z" transform="translate(-627.874 -770.743)" fill="#fff"/>
        </g>
        <g id="Grupo_51" data-name="Grupo 51" transform="translate(0 0)">
          <g id="Grupo_50" data-name="Grupo 50">
            <path id="Trazado_44" data-name="Trazado 44" d="M444.473,706.388a6.359,6.359,0,0,1-2.714,5.42,9.957,9.957,0,0,1-5.995,1.75,9.832,9.832,0,0,1-5.994-1.75,6.32,6.32,0,0,1-2.685-5.42V691.625h6.9v14.2q0,1.685,1.78,1.685,1.809,0,1.809-1.685v-14.2h6.9Z" transform="translate(-427.085 -691.625)" fill="#fff"/>
            <path id="Trazado_45" data-name="Trazado 45" d="M506.166,713.345h-6.9l-6.421-9.973v9.973h-6.9v-21.72h6.45l6.87,10.452V691.625h6.9Z" transform="translate(-467.418 -691.625)" fill="#fff"/>
            <path id="Trazado_46" data-name="Trazado 46" d="M568.247,713.345H554.39v-21.72h13.857v5.421h-6.958v2.8h6.6v5.42h-6.6V707.9h6.958Z" transform="translate(-514.315 -691.625)" fill="#fff"/>
            <path id="Trazado_47" data-name="Trazado 47" d="M628.123,713.345h-6.929l-1.743-11-2.832,11H612.7l-3.1-11-1.868,11H600.8l4.038-21.72h7.083l2.619,9.577,2.714-9.577h6.959Z" transform="translate(-546.114 -691.625)" fill="#fff"/>
            <path id="Trazado_48" data-name="Trazado 48" d="M697.992,713.345h-6.929v-21.72h6.929Z" transform="translate(-607.964 -691.625)" fill="#fff"/>
          </g>
        </g>
      </g>
    </g>
    <g id="Grupo_56" data-name="Grupo 56" transform="translate(423 3489.828)">
      <g id="Grupo_54" data-name="Grupo 54">
        <path id="Trazado_49" data-name="Trazado 49" d="M1312.9,668.523a12.034,12.034,0,0,1-5.136,10.256,18.846,18.846,0,0,1-11.343,3.311,18.609,18.609,0,0,1-11.344-3.311A11.96,11.96,0,0,1,1280,668.523V640.588h13.054v26.861q0,3.189,3.368,3.189,3.423,0,3.423-3.189V640.588H1312.9Z" transform="translate(-1280 -640.588)" fill="#fff"/>
        <path id="Trazado_50" data-name="Trazado 50" d="M1358.22,681.687h-13.055l-12.151-18.871v18.871H1319.96v-41.1h12.205l13,19.778V640.588h13.055Z" transform="translate(-1284.898 -640.588)" fill="#fff"/>
        <path id="Trazado_51" data-name="Trazado 51" d="M1392.646,681.687h-26.221v-41.1h26.221v10.258h-13.168v5.3h12.486v10.255h-12.486v4.97h13.168Z" transform="translate(-1290.593 -640.588)" fill="#fff"/>
        <path id="Trazado_52" data-name="Trazado 52" d="M1449.635,681.687h-13.11l-3.3-20.806-5.358,20.806h-7.42l-5.873-20.806-3.535,20.806h-13.11l7.641-41.1h13.4l4.956,18.122,5.135-18.122h13.167Z" transform="translate(-1294.455 -640.588)" fill="#fff"/>
        <path id="Trazado_53" data-name="Trazado 53" d="M1472.321,681.687H1459.21v-41.1h13.111Z" transform="translate(-1301.965 -640.588)" fill="#fff"/>
      </g>
      <g id="Grupo_55" data-name="Grupo 55" transform="translate(0 45.982)">
        <path id="Trazado_54" data-name="Trazado 54" d="M1280.885,693.182v4a1.655,1.655,0,1,0,3.283,0v-4h.885v4.141a2.527,2.527,0,1,1-5.054,0v-4.141Z" transform="translate(-1280 -693.016)" fill="#fff"/>
        <path id="Trazado_55" data-name="Trazado 55" d="M1287.96,693.182h1.162l3.6,5.368h.018v-5.368h.886v6.53H1292.5l-3.634-5.368h-.017v5.368h-.886Z" transform="translate(-1280.976 -693.016)" fill="#fff"/>
        <path id="Trazado_56" data-name="Trazado 56" d="M1296.751,693.182h.885v6.53h-.885Z" transform="translate(-1282.053 -693.016)" fill="#fff"/>
        <path id="Trazado_57" data-name="Trazado 57" d="M1299.074,693.182h1.025l1.917,5.314h.019l1.992-5.314h.968l-2.573,6.53h-.83Z" transform="translate(-1282.338 -693.016)" fill="#fff"/>
        <path id="Trazado_58" data-name="Trazado 58" d="M1307.14,693.182h4.213v.83h-3.33v1.948h3.1v.829h-3.1v2.093h3.5v.83h-4.379Z" transform="translate(-1283.327 -693.016)" fill="#fff"/>
        <path id="Trazado_59" data-name="Trazado 59" d="M1313.984,693.182h2.3c1.669,0,2.094,1.006,2.094,1.826a1.75,1.75,0,0,1-1.606,1.724l1.855,2.98h-1.108l-1.659-2.875h-.988v2.875h-.884Zm.884,2.879h1.162c.7,0,1.4-.166,1.4-1.053s-.7-1.05-1.4-1.05h-1.162Z" transform="translate(-1284.166 -693.016)" fill="#fff"/>
        <path id="Trazado_60" data-name="Trazado 60" d="M1320.949,698.325a1.624,1.624,0,0,0,1.382.7,1.21,1.21,0,0,0,1.3-1.09c0-1.5-3.218-.57-3.218-3.117a1.983,1.983,0,0,1,2.214-1.826,2.257,2.257,0,0,1,1.88.747l-.719.656a1.368,1.368,0,0,0-1.162-.573c-.977,0-1.273.591-1.273,1,0,1.651,3.218.666,3.218,3.016a2.061,2.061,0,0,1-2.267,2.02,2.508,2.508,0,0,1-2.084-.9Z" transform="translate(-1284.93 -692.993)" fill="#fff"/>
        <path id="Trazado_61" data-name="Trazado 61" d="M1327.1,693.182h.885v6.53h-.885Z" transform="translate(-1285.773 -693.016)" fill="#fff"/>
        <path id="Trazado_62" data-name="Trazado 62" d="M1330.272,693.182h2.277a3.152,3.152,0,0,1,3.431,3.265,3.3,3.3,0,0,1-3.577,3.265h-2.13Zm.885,5.7h1.116a2.47,2.47,0,0,0,2.766-2.435,2.342,2.342,0,0,0-2.554-2.435h-1.328Z" transform="translate(-1286.162 -693.016)" fill="#fff"/>
        <path id="Trazado_63" data-name="Trazado 63" d="M1340.583,693.182h.8l2.794,6.53h-1.032l-.656-1.613h-3.106l-.646,1.613h-1.033Zm1.587,4.141-1.219-3h-.019l-1.235,3Z" transform="translate(-1287.073 -693.016)" fill="#fff"/>
        <path id="Trazado_64" data-name="Trazado 64" d="M1346.306,693.182h2.279a3.153,3.153,0,0,1,3.431,3.265,3.3,3.3,0,0,1-3.579,3.265h-2.13Zm.886,5.7h1.115a2.47,2.47,0,0,0,2.766-2.435,2.342,2.342,0,0,0-2.554-2.435h-1.328Z" transform="translate(-1288.127 -693.016)" fill="#fff"/>
        <path id="Trazado_65" data-name="Trazado 65" d="M1358.031,693.182h4.215v.83h-3.33v1.948h3.1v.829h-3.1v2.093h3.5v.83h-4.381Z" transform="translate(-1289.564 -693.016)" fill="#fff"/>
        <path id="Trazado_66" data-name="Trazado 66" d="M1364.994,698.325a1.63,1.63,0,0,0,1.385.7,1.208,1.208,0,0,0,1.3-1.09c0-1.5-3.218-.57-3.218-3.117a1.982,1.982,0,0,1,2.213-1.826,2.259,2.259,0,0,1,1.881.747l-.718.656a1.374,1.374,0,0,0-1.163-.573c-.978,0-1.272.591-1.272,1,0,1.651,3.219.666,3.219,3.016a2.061,2.061,0,0,1-2.269,2.02,2.508,2.508,0,0,1-2.084-.9Z" transform="translate(-1290.328 -692.993)" fill="#fff"/>
        <path id="Trazado_67" data-name="Trazado 67" d="M1372.4,694.012h-2.1v-.83h5.091v.83h-2.1v5.7h-.886Z" transform="translate(-1291.068 -693.016)" fill="#fff"/>
        <path id="Trazado_68" data-name="Trazado 68" d="M1378.563,693.182h.8l2.795,6.53h-1.034l-.654-1.613h-3.108l-.646,1.613h-1.033Zm1.585,4.141-1.216-3h-.018l-1.236,3Z" transform="translate(-1291.728 -693.016)" fill="#fff"/>
        <path id="Trazado_69" data-name="Trazado 69" d="M1384.748,694.012h-2.1v-.83h5.091v.83h-2.1v5.7h-.885Z" transform="translate(-1292.581 -693.016)" fill="#fff"/>
        <path id="Trazado_70" data-name="Trazado 70" d="M1390.906,693.182h.8l2.795,6.53h-1.033l-.654-1.613h-3.109l-.646,1.613h-1.032Zm1.586,4.141-1.216-3h-.02l-1.236,3Z" transform="translate(-1293.241 -693.016)" fill="#fff"/>
        <path id="Trazado_71" data-name="Trazado 71" d="M1396.8,693.182h.885v5.7h3v.83H1396.8Z" transform="translate(-1294.316 -693.016)" fill="#fff"/>
        <path id="Trazado_72" data-name="Trazado 72" d="M1405.852,693.182h2.277a3.153,3.153,0,0,1,3.432,3.265,3.3,3.3,0,0,1-3.578,3.265h-2.13Zm.885,5.7h1.115a2.471,2.471,0,0,0,2.767-2.435,2.342,2.342,0,0,0-2.554-2.435h-1.328Z" transform="translate(-1295.426 -693.016)" fill="#fff"/>
        <path id="Trazado_73" data-name="Trazado 73" d="M1414.232,693.182h4.214v.83h-3.328v1.948h3.1v.829h-3.1v2.093h3.494v.83h-4.38Z" transform="translate(-1296.453 -693.016)" fill="#fff"/>
        <path id="Trazado_74" data-name="Trazado 74" d="M1424.347,693.182h1.319l2.074,4.945h.038l2.057-4.945h1.319v6.53h-.885v-5.368h-.018l-2.2,5.368h-.59l-2.2-5.368h-.017v5.368h-.886Z" transform="translate(-1297.692 -693.016)" fill="#fff"/>
        <path id="Trazado_75" data-name="Trazado 75" d="M1434.367,693.182h.886v6.53h-.886Z" transform="translate(-1298.921 -693.016)" fill="#fff"/>
        <path id="Trazado_76" data-name="Trazado 76" d="M1437.712,693.182h.885v5.7h3v.83h-3.882Z" transform="translate(-1299.331 -693.016)" fill="#fff"/>
        <path id="Trazado_77" data-name="Trazado 77" d="M1445.521,693.182h.8l2.795,6.53h-1.032l-.656-1.613h-3.108l-.646,1.613h-1.032Zm1.585,4.141-1.217-3h-.019l-1.236,3Z" transform="translate(-1299.935 -693.016)" fill="#fff"/>
        <path id="Trazado_78" data-name="Trazado 78" d="M1456.917,696.038v3.218a5.3,5.3,0,0,1-2.472.6,3.431,3.431,0,1,1-.092-6.861,3.139,3.139,0,0,1,2.435.851l-.627.671a2.531,2.531,0,0,0-4.27,1.908,2.521,2.521,0,0,0,2.536,2.6,3.453,3.453,0,0,0,1.606-.34v-1.817h-1.449v-.83Z" transform="translate(-1300.953 -692.993)" fill="#fff"/>
        <path id="Trazado_79" data-name="Trazado 79" d="M1460.013,693.182h2.3c1.671,0,2.093,1.006,2.093,1.826a1.748,1.748,0,0,1-1.6,1.724l1.853,2.98h-1.106l-1.659-2.875h-.987v2.875h-.885Zm.885,2.879h1.163c.7,0,1.4-.166,1.4-1.053s-.7-1.05-1.4-1.05H1460.9Z" transform="translate(-1302.064 -693.016)" fill="#fff"/>
        <path id="Trazado_80" data-name="Trazado 80" d="M1466.4,696.424a3.4,3.4,0,1,1,3.4,3.431A3.324,3.324,0,0,1,1466.4,696.424Zm5.867,0a2.466,2.466,0,1,0-2.462,2.6A2.456,2.456,0,0,0,1472.262,696.424Z" transform="translate(-1302.846 -692.993)" fill="#fff"/>
      </g>
    </g>
    <line id="Línea_18" data-name="Línea 18" y2="64.5" transform="translate(620.047 3484)" fill="none" stroke="#fff" stroke-width="1"/>
  </g>
</svg>
