<?xml version="1.0" encoding="utf-8"?>
<!-- Generator: Adobe Illustrator 24.0.0, SVG Export Plug-In . SVG Version: 6.00 Build 0)  -->
<svg version="1.1" id="Capa_1" xmlns="http://www.w3.org/2000/svg" xmlns:xlink="http://www.w3.org/1999/xlink" x="0px" y="0px"
	 viewBox="0 0 200 200" style="enable-background:new 0 0 200 200;" xml:space="preserve">
<style type="text/css">
	.st0{fill:#ACAEAF;}
	.st1{fill:#FE9900;}
	.st2{fill:#1C3247;}
</style>
<g>
	<path class="st0" d="M100.4,106.2c-24.8,0-49.5,0-74.3,0c-3.3,0-4.1-0.7-4.1-4.1c0-26.1,0-52.2,0-78.3c0-3.3,0.7-4.1,4.1-4.1
		c49.5,0,99,0,148.5,0c3.3,0,4.1,0.7,4.1,4.1c0,26.1,0,52.2,0,78.3c0,3.3-0.7,4.1-4.1,4.1C149.9,106.2,125.2,106.2,100.4,106.2z
		 M27.6,25.2c0,25.2,0,50.4,0,75.4c48.6,0,97.1,0,145.6,0c0-25.2,0-50.3,0-75.4C124.7,25.2,76.2,25.2,27.6,25.2z"/>
	<path class="st1" d="M77.8,155.5c6.5,2.8,9.4,7.7,9.2,14.6c-0.1,4.6,0,9.1,0,13.7c0,2.6-0.9,3.5-3.4,3.5c-21.1,0-42.3,0-63.4,0
		c-2.4,0-3.4-1-3.4-3.4c0-5,0-10,0-15c0-6.1,2.9-10.5,8.5-13c0.2-0.1,0.4-0.2,0.8-0.4c-2.3-3.4-3.2-7.1-1.9-11
		c0.8-2.7,2.4-4.8,4.7-6.4c4.6-3.2,10.8-2.8,15,0.9c4.6,4.1,5.2,9.7,1.8,16.2c2.1,1.5,4.3,3,6.4,4.5c1.9-1.4,4-2.9,6.3-4.6
		c-2.1-3-2.9-6.6-1.8-10.4c0.8-2.7,2.3-4.9,4.6-6.5c4.5-3.3,10.7-3.1,15,0.6C80.7,142.9,81.3,148.4,77.8,155.5z M22.1,181.7
		c9.1,0,18,0,27,0c0-0.6,0-1.1,0-1.6c0-4.2,0.1-8.3-0.1-12.5c-0.2-4-3.6-7.3-7.6-7.4c-3.9-0.1-7.8-0.1-11.6,0
		c-4,0.1-7.5,3.4-7.6,7.4C22,172.3,22.1,177,22.1,181.7z M81.4,181.8c0-0.4,0.1-0.9,0.1-1.3c0-4,0-8.1,0-12.1
		c-0.1-4.7-3.5-8.1-8.3-8.2c-3.5,0-7,0-10.4,0c-4.8,0-8.2,3.5-8.3,8.3c0,4,0,8,0,12c0,0.4,0.1,0.8,0.1,1.3
		C63.6,181.8,72.4,181.8,81.4,181.8z M42.3,148.1c0-3.7-3-6.8-6.7-6.8c-3.7,0-6.8,3-6.8,6.7c0,3.7,3,6.8,6.7,6.8
		C39.3,154.8,42.3,151.8,42.3,148.1z M74.8,148.1c0-3.7-3-6.8-6.7-6.8c-3.7-0.1-6.8,3-6.8,6.7c0,3.7,3,6.8,6.7,6.8
		C71.7,154.8,74.7,151.8,74.8,148.1z"/>
	<path class="st2" d="M155.5,155.5c-3.7-7-2.9-12.9,2.1-17c4.4-3.6,10.9-3.5,15.3,0.1c4.9,4.1,5.7,10,2,16.8
		c0.4,0.2,0.9,0.4,1.3,0.7c5,2.5,7.7,6.5,7.8,12c0.1,5.3,0,10.6,0,15.9c0,2.2-1,3.2-3.2,3.2c-10.5,0-20.9,0-31.4,0
		c-2.2,0-3.2-1-3.2-3.2c0-5.1-0.1-10.2,0-15.4c0.1-6,2.9-10.2,8.3-12.8C154.9,155.8,155.2,155.7,155.5,155.5z M178.7,181.8
		c0-4.9,0.2-9.7-0.1-14.4c-0.2-4-3.7-7-7.7-7.1c-3.8-0.1-7.5-0.1-11.3,0c-3.9,0.1-7.5,2.9-7.7,6.9c-0.3,4.8-0.1,9.7-0.1,14.7
		C160.8,181.8,169.6,181.8,178.7,181.8z M165.3,141.3c-3.7,0-6.8,3-6.8,6.7c0,3.7,3,6.8,6.7,6.8c3.7,0,6.8-3,6.8-6.7
		C172,144.4,169,141.4,165.3,141.3z"/>
	<path class="st0" d="M88.8,138.8c-0.3-0.1-0.4-0.1-0.6-0.1c-5.2-0.3-6.7-1.9-6.7-7.1c0-4.7,0-9.3,0-14c0-3.7,2.2-5.9,5.9-5.9
		c6.9,0,13.8,0,20.8,0c3.5,0,5.8,2.3,5.8,5.8c0,5.1,0,10.2,0,15.4c0,3.6-2.2,6-5.8,5.8c-3-0.2-5.2,0.7-7.4,2.7
		c-2.8,2.6-5.9,4.8-8.9,7.2c-1.2,0.9-2.3,1.4-3.7,0.5c-1.2-0.8-1.4-2-1-3.4C87.8,143.3,88.2,141,88.8,138.8z M94.2,139.6
		c2.4-1.9,4.4-3.7,6.6-5.2c0.9-0.6,2-1,3-1.1c1.5-0.2,3,0,4.5,0c0-5.5,0-10.8,0-16.1c-7.2,0-14.3,0-21.4,0c0,5.4,0,10.7,0,16.1
		c1.8,0,3.4,0,5.1,0c2.1,0.1,3.2,1.5,2.8,3.6C94.7,137.6,94.5,138.4,94.2,139.6z"/>
	<path class="st0" d="M144.4,138.6c0.6,2.5,1.1,4.7,1.7,7c0.4,1.3,0.2,2.5-1,3.3c-1.2,0.9-2.4,0.5-3.6-0.4
		c-3.6-2.9-7.2-5.7-10.8-8.7c-1.1-0.9-2.2-1.4-3.6-1.3c-0.8,0.1-1.7,0-2.5,0c-3-0.1-5.3-2.3-5.3-5.3c-0.1-5.5-0.1-11,0-16.5
		c0-2.8,2.4-5.1,5.2-5.2c7.3-0.1,14.6-0.1,21.9,0c2.9,0,5.2,2.3,5.2,5.2c0.1,5.5,0.1,11,0,16.5c0,3-2.3,5.1-5.3,5.3
		C145.8,138.6,145.2,138.6,144.4,138.6z M146.2,133.2c0-5.5,0-10.8,0-16.1c-7.2,0-14.3,0-21.5,0c0,2.8,0,5.4,0,8.1c0,2.6,0,5.2,0,8
		c0.9,0,1.7,0.1,2.5,0c2.7-0.3,4.9,0.5,6.9,2.4c1.4,1.4,3.1,2.5,4.9,3.9c-0.2-1.1-0.4-1.7-0.5-2.4c-0.6-2.5,0.5-3.9,3.1-3.9
		C143.1,133.2,144.6,133.2,146.2,133.2z"/>
	<path class="st0" d="M57.3,92.7c-1.7,0-3.4,0-5.1,0c-1.8,0-2.8-1-2.9-2.8c-0.1-1-0.1-2,0-3c0.1-0.9-0.3-1.4-1.1-2
		c-1.3-0.9-2.2-0.7-3.4,0.1c-4.1,2.6-4.5,2.4-7-1.8c-1.3-2.3-2.7-4.6-4-6.9c-1.1-1.9-0.7-3.1,1.1-4.2c0.6-0.4,1.2-0.8,1.9-1.1
		c1.2-0.5,1.7-1.2,1.7-2.7c0-1.4-0.8-1.8-1.7-2.3c-4.4-2.5-4.5-2.8-2-7.1c1.3-2.2,2.6-4.5,3.9-6.7c1.2-2,2.4-2.3,4.5-1.2
		c0.5,0.3,1.1,0.5,1.6,0.9c1.5,1.4,2.8,0.6,4-0.3c0.3-0.2,0.5-0.8,0.5-1.3c0.1-1.1-0.1-2.3,0-3.4c0.1-1.7,1-2.8,2.7-2.8
		c3.5-0.1,7.1,0,10.6,0c1.6,0,2.6,1,2.8,2.6c0.1,1.1,0.1,2.1,0,3.2c-0.1,1,0.3,1.6,1.2,2.1c1.2,0.8,2,0.6,3.1-0.1
		c4.3-2.7,4.7-2.6,7.2,1.9c1.3,2.2,2.6,4.5,3.9,6.7c1,1.9,0.7,3.1-1.1,4.3c-0.6,0.4-1.3,0.7-1.9,1.1c-2.5,1.4-2.4,3.5,0,5
		c4.4,2.6,4.4,2.8,1.9,7.3c-1.2,2.1-2.5,4.3-3.7,6.4c-1.3,2.1-2.5,2.5-4.6,1.3c-0.6-0.3-1.3-0.6-1.7-1c-1.6-1.5-2.8-0.2-4,0.5
		c-0.3,0.2-0.4,0.8-0.4,1.2c0,1.1,0.1,2.1,0.1,3.2c0,1.9-1.1,2.9-3,2.9C60.8,92.7,59.1,92.7,57.3,92.7z M72.4,56.5
		c-2.9,2.2-5.4,1.9-8.3,0.3c-3-1.7-4.3-3.9-4-7.2c-1.9,0-3.5,0-5.2,0c-1,7.5-5.9,10.3-12.5,7.1c-0.9,1.5-1.7,3-2.7,4.6
		c0.8,0.5,1.6,1,2.4,1.4c1.6,0.8,2.2,2,2,3.8c-0.2,1.3-0.1,2.7,0,4c0.2,1.7-0.4,2.8-1.9,3.6c-0.8,0.4-1.6,0.9-2.5,1.5
		c0.9,1.6,1.8,3.1,2.7,4.6c6.5-3.2,11.4-0.4,12.5,7.1c1.7,0,3.4,0,5.3,0c-0.4-3.4,1-5.5,3.9-7.2c3-1.7,5.5-1.9,8.3,0.2
		c0.9-1.6,1.8-3.1,2.7-4.7c-0.9-0.5-1.7-1-2.5-1.4c-1.6-0.8-2.2-2-2-3.7c0.2-1.3,0.1-2.7,0-4c-0.2-1.8,0.4-2.9,2-3.7
		c0.8-0.4,1.6-1,2.4-1.4C74.2,59.6,73.3,58.2,72.4,56.5z"/>
	<path class="st0" d="M134.2,71.6c0-0.5-0.1-0.9,0-1.3c0.3-1.5-0.4-2.5-1.6-3.6c-5.6-5.1-6.8-13.1-3.1-19.7
		c3.6-6.4,11.1-9.6,18.2-7.7c7.3,1.9,12.3,8.5,12.1,15.9c-0.1,4.7-1.9,8.8-5.5,11.9c-0.9,0.8-1.3,1.6-1.2,2.7c0.1,1.4,0.1,2.8,0,4.2
		c-0.1,4.4-3.5,7.8-7.8,7.9c-1.1,0-2.3,0.1-3.4,0c-4.2-0.2-7.5-3.6-7.7-7.8C134.2,73.3,134.2,72.4,134.2,71.6
		C134.2,71.6,134.2,71.6,134.2,71.6z M147.8,68.3c-0.5-2.5,0.7-3.7,2.4-5c5.1-3.8,5.6-11,1.4-15.7c-4.1-4.6-11.5-4.8-15.8-0.3
		c-4.3,4.4-4.1,11.7,0.7,15.6c1.8,1.5,3.6,2.7,3,5.4C142.4,68.3,144.9,68.3,147.8,68.3z M147.6,73.9c-2.6,0-5.3,0-7.9,0
		c0.6,2.4,1.4,2.7,5.1,2.6C146.5,76.4,147.3,75.7,147.6,73.9z"/>
	<path class="st0" d="M146.3,30.7c0,1.8,0,3.5,0,5.2c-1.7,0-3.4,0-5.2,0c0-1.7,0-3.4,0-5.2C142.7,30.7,144.4,30.7,146.3,30.7z"/>
	<path class="st0" d="M119.4,49.5c1.8,0,3.5,0,5.2,0c0,1.7,0,3.4,0,5.2c-1.7,0-3.4,0-5.2,0C119.4,53.1,119.4,51.4,119.4,49.5z"/>
	<path class="st0" d="M162.6,54.7c0-1.8,0-3.4,0-5.2c1.7,0,3.4,0,5.2,0c0,1.7,0,3.4,0,5.2C166.2,54.7,164.5,54.7,162.6,54.7z"/>
	<path class="st0" d="M87,65.7c1.8,0,3.4,0,5.2,0c0,1.7,0,3.4,0,5.2c-1.7,0-3.4,0-5.2,0C87,69.2,87,67.6,87,65.7z"/>
	<path class="st0" d="M103,65.8c0,1.8,0,3.5,0,5.2c-1.7,0-3.4,0-5.2,0c0-1.7,0-3.4,0-5.2C99.5,65.8,101.2,65.8,103,65.8z"/>
	<path class="st0" d="M108.6,71c0-1.8,0-3.4,0-5.2c1.7,0,3.4,0,5.2,0c0,1.7,0,3.4,0,5.2C112.1,71,110.4,71,108.6,71z"/>
	<path class="st0" d="M108.6,81.8c0-1.8,0-3.5,0-5.2c1.7,0,3.4,0,5.2,0c0,1.7,0,3.4,0,5.2C112.1,81.8,110.4,81.8,108.6,81.8z"/>
	<path class="st0" d="M113.9,87.4c0,1.7,0,3.4,0,5.2c-1.7,0-3.4,0-5.2,0c0-1.7,0-3.4,0-5.2C110.3,87.4,112,87.4,113.9,87.4z"/>
	<path class="st0" d="M124.7,87.4c0,1.8,0,3.4,0,5.2c-1.8,0-3.5,0-5.3,0c0-1.7,0-3.4,0-5.2C121.1,87.4,122.8,87.4,124.7,87.4z"/>
	<path class="st0" d="M130.3,87.4c1.8,0,3.4,0,5.2,0c0,1.7,0,3.4,0,5.2c-1.7,0-3.4,0-5.2,0C130.3,90.9,130.3,89.2,130.3,87.4z"/>
	<path class="st0" d="M141,92.6c0-1.7,0-3.4,0-5.2c1.8,0,3.5,0,5.3,0c0,1.7,0,3.4,0,5.2C144.6,92.6,142.9,92.6,141,92.6z"/>
	<path class="st0" d="M131.9,38c-1,1-2.3,2.2-3.5,3.3c-1.1-1.1-2.3-2.3-3.6-3.5c1.2-1.1,2.4-2.2,3.7-3.5
		C129.5,35.5,130.7,36.7,131.9,38z"/>
	<path class="st0" d="M158.9,34.1c1.2,1.3,2.4,2.5,3.6,3.8c-1.2,1-2.5,2.1-3.8,3.2c-0.9-0.9-2.1-2.2-3.2-3.3
		C156.5,36.7,157.7,35.5,158.9,34.1z"/>
	<path class="st0" d="M57.5,57.5c6,0,10.8,4.8,10.8,10.8c0,5.9-4.8,10.8-10.7,10.8c-5.9,0.1-10.9-4.8-10.9-10.8
		C46.7,62.3,51.5,57.5,57.5,57.5z M52.1,68.3c0,3,2.5,5.4,5.5,5.4c2.8,0,5.3-2.5,5.3-5.4c0-2.9-2.4-5.3-5.3-5.4
		C54.6,62.8,52.1,65.2,52.1,68.3z"/>
</g>
</svg>
