<?xml version="1.0" encoding="utf-8"?>
<!-- Generator: Adobe Illustrator 24.0.0, SVG Export Plug-In . SVG Version: 6.00 Build 0)  -->
<svg version="1.1" id="Capa_1" xmlns="http://www.w3.org/2000/svg" xmlns:xlink="http://www.w3.org/1999/xlink" x="0px" y="0px"
	 viewBox="0 0 200 200" style="enable-background:new 0 0 200 200;" xml:space="preserve">
<style type="text/css">
	.st0{fill:#849FB9;}
</style>
<g>
	<path class="st0" d="M191,100.2c-1.8,3.1-3.6,6.2-5.4,9.2c-9.6,15.6-22,28.5-37.8,37.9c-11.9,7.1-24.7,11.6-38.5,13
		c-27.8,2.8-52.1-5.7-73.3-23.6c-11.8-10-20.9-22.2-28-35.9c-0.3-0.5-0.3-1.4,0-1.9c10.1-19.5,24.1-35.5,43-46.8
		c11.7-7,24.4-11.4,38-12.8c27.9-2.8,52.2,5.7,73.4,23.7c11.2,9.5,20,21,26.9,33.9c0.5,0.9,1,1.7,1.6,2.6
		C191,99.7,191,100,191,100.2z M99.3,61.6c-20.9-0.1-38,16.8-38.3,38.1c-0.3,20.8,17,38.2,38.2,38.4c20.9,0.1,38-16.8,38.3-38.1
		C137.8,79.2,120.5,61.8,99.3,61.6z"/>
	<path class="st0" d="M122.2,99.9c0,12.6-10.3,22.9-22.9,22.9c-12.7,0-23-10.3-23-23c0.1-12.6,10.4-22.9,23-22.8
		C111.9,77,122.2,87.3,122.2,99.9z"/>
</g>
</svg>
