<?xml version="1.0" encoding="utf-8"?>
<!-- Generator: Adobe Illustrator 24.0.0, SVG Export Plug-In . SVG Version: 6.00 Build 0)  -->
<svg version="1.1" id="Capa_1" xmlns="http://www.w3.org/2000/svg" xmlns:xlink="http://www.w3.org/1999/xlink" x="0px" y="0px"
	 viewBox="0 0 200 200" style="enable-background:new 0 0 200 200;" xml:space="preserve">
<style type="text/css">
	.st0{fill:#BDD1E5;}
</style>
<g>
	<path class="st0" d="M52.6,9.1c25.3,0,50.6,0,75.9,0c0.4,0.5,0.8,1.1,1.3,1.6c14.2,14.1,28.3,28.3,42.6,42.4c1.2,1.2,1.7,2.3,1.7,4
		c-0.1,37.4,0,74.9,0,112.3c0,1.1,0,2.1-0.1,3.2c-0.4,8.6-7.1,16.2-15.6,17.6c-1.5,0.3-3.1,0.4-4.6,0.4c-32.5,0-65.1,0-97.6,0
		c-4.4,0-8.5-1-12.1-3.7c-5.2-3.8-7.9-9-8-15.4c-0.1-2.9,0-5.9,0-8.8c-7.3,0.1-9.9-4.1-9.7-10.5c0.3-12.2,0.1-24.3,0.1-36.5
		c0-2.9-0.1-5.8,0.1-8.7c0.2-3.9,3.3-6.9,7.2-7.2c0.7-0.1,1.5-0.1,2.4-0.1c0-0.8,0-1.5,0-2.2c0-22.9,0-45.7,0-68.6
		c0-9,5.3-16.3,13.5-18.9C50.5,9.6,51.6,9.4,52.6,9.1z M47.7,99.8c1,0,1.7,0,2.4,0c29.7,0,59.3,0,89,0c6.2,0,9.2,3,9.2,9.2
		c0,14.7-0.1,29.4,0.1,44.1c0.1,5.8-3.4,9.5-9.4,9.5c-29.7-0.2-59.3-0.1-89-0.1c-0.7,0-1.4,0-2.2,0c0,2.6,0,5.1,0,7.5
		c0,5.7,3,8.7,8.8,8.7c32.3,0,64.6,0,96.9,0c5.8,0,8.7-2.9,8.7-8.7c-0.1-36.2-0.2-72.4-0.3-108.6c0-0.6-0.1-1.2-0.1-2
		c-1,0-1.7,0-2.5,0c-7.8,0-15.6,0.1-23.4-0.1c-6.3-0.2-11.8-5.6-12-11.9c-0.3-8.1-0.2-16.2-0.2-24.3c0-0.7,0-1.5,0-2.3
		c-0.5-0.1-0.8-0.1-1.1-0.1c-22.3,0-44.5,0-66.8,0.1c-2,0-3.8,0.5-5.4,1.8c-2.1,1.8-2.7,4.2-2.7,6.8c0,22.7,0,45.5,0,68.2
		C47.7,98.4,47.7,99,47.7,99.8z M75.1,116.1c0,10.9,0,21.5,0,32.3c4.4,0,8.8,0.4,13-0.1c10.2-1,15.4-6.7,15.7-16.6
		c0.3-8.5-4.3-14.1-12.6-15.7C85.8,115,80.5,115.5,75.1,116.1z M46.7,148.2c2.5,0,4.8,0,7.3,0c0-3.9,0-7.6,0-11.5c0.7,0,1.3,0,1.9,0
		c2.9,0,5.8-0.3,8.4-1.6c4-2,5.8-5.3,5.7-9.6c0-4.1-1.8-7.2-5.6-8.8c-5.8-2.3-11.8-1.3-17.7-0.7C46.7,127,46.7,137.6,46.7,148.2z
		 M116.2,121.7c4.3,0,8.3,0,12.4,0c0-2.1,0-4,0-5.8c-6.7,0-13.3,0-19.8,0c0,10.9,0,21.6,0,32.4c2.5,0,4.8,0,7.4,0
		c0-4.4,0-8.7,0-13.1c4,0,7.8,0,11.6,0c0-2.1,0-3.9,0-5.9c-2,0-3.9,0-5.8,0c-1.9,0-3.8,0-5.8,0C116.2,126.6,116.2,124.3,116.2,121.7
		z"/>
	<path class="st0" d="M82.4,142.7c5.1,1,9.8-0.8,11.9-4.3c2.3-4,2.1-10.6-0.4-13.8c-2.4-3-7.4-4.3-11.5-3
		C82.4,128.6,82.4,135.6,82.4,142.7z"/>
	<path class="st0" d="M82.4,142.7c0-7.1,0-14.1,0-21.1c4.1-1.3,9.1,0,11.5,3c2.5,3.2,2.7,9.8,0.4,13.8
		C92.3,141.9,87.5,143.6,82.4,142.7z"/>
	<path class="st0" d="M54,131.2c0-3.3,0-6.2,0-9c0-0.4,0.6-1,1-1.1c1.3-0.1,2.6-0.2,3.9,0.1c2.4,0.4,3.7,1.9,3.9,4.1
		c0.2,2.3-0.9,4.5-3.1,5.1C57.9,131,56,131,54,131.2z"/>
</g>
</svg>
