<?xml version="1.0" encoding="utf-8"?>
<!-- Generator: Adobe Illustrator 24.0.0, SVG Export Plug-In . SVG Version: 6.00 Build 0)  -->
<svg version="1.1" id="Capa_1" xmlns="http://www.w3.org/2000/svg" xmlns:xlink="http://www.w3.org/1999/xlink" x="0px" y="0px"
	 viewBox="0 0 200 200" style="enable-background:new 0 0 200 200;" xml:space="preserve">
<style type="text/css">
	.st0{fill:#BDD1E5;}
</style>
<g>
	<path class="st0" d="M10.2,140.7c0-2.5,0-5.1,0-7.6c0.1-0.4,0.2-0.8,0.3-1.2c1.7-14,8.3-25.1,19.8-33.3c0.9-0.7,1.3-1.4,1.3-2.5
		c0-18.5,0-37,0-55.5c0-0.7,0-1.3,0-2c3.7,0,7.1,0,10.4,0c3.4,0,6.7,0,10.3,0c0-2.1-0.1-4,0-5.9c0.3-8,6.9-14.6,14.9-14.8
		c8.8-0.3,15.9,6.5,16.1,15.3c0,1.8,0,3.5,0,5.2c3.6,0,6.9,0,10.4,0c0-2-0.1-3.9,0-5.7c0.3-8,7-14.7,15-14.8
		c8.7-0.2,15.8,6.6,15.9,15.3c0,1.8,0,3.5,0,5.2c3.6,0,6.9,0,10.4,0c0-2-0.1-3.9,0-5.7c0.3-8,7-14.7,15-14.8
		c8.7-0.2,15.8,6.6,15.9,15.3c0,1.8,0,3.5,0,5.4c7,0,13.8,0,20.6,0c0,41.4,0,82.6,0,124c-0.8,0-1.5,0-2.1,0c-29.1,0-58.1,0-87.2,0
		c-1.4,0-2.1,0.5-2.9,1.5c-8.7,11.7-20.4,18.2-34.9,19.1c-21,1.3-40.2-11.8-46.7-31.8C11.5,148,11,144.3,10.2,140.7z M176.3,80.1
		c-44.8,0-89.5,0-134.3,0c0,4.2,0,8.3,0,12.5c18.2-5,34.5-1.8,47.8,11.7c13.3,13.5,16.3,29.9,11,48c25.2,0,50.3,0,75.5,0
		C176.3,128.2,176.3,104.3,176.3,80.1z M92.9,136.8c0-19.9-16.3-36.1-36.2-36.1c-19.9,0-36.1,16.2-36.2,36.2
		c0,20,16.3,36.3,36.3,36.2C76.8,173,93,156.7,92.9,136.8z M62.6,49.1c0,3.5,0,6.8,0,10.2c-3.5,0-6.8,0-10.3,0c0-3.4,0-6.8,0-10.1
		c-3.5,0-6.9,0-10.2,0c0,6.9,0,13.6,0,20.5c44.8,0,89.5,0,134.2,0c0-6.9,0-13.7,0-20.5c-10.3,0-20.6,0-30.9,0c0,3.4,0,6.7,0,10.1
		c-3.5,0-6.8,0-10.4,0c0-3.5,0-6.8,0-10.2c-10.4,0-20.6,0-31,0c0,3.4,0,6.8,0,10.1c-3.5,0-6.9,0-10.4,0c0-3.4,0-6.7,0-10.1
		C83.3,49.1,73.1,49.1,62.6,49.1z M72.9,38.6c0-1.9,0.1-3.6,0-5.3c-0.1-2.7-2.2-4.8-4.8-4.9c-2.5-0.2-5,1.6-5.3,4.1
		c-0.3,2-0.1,4.1-0.1,6.1C66.2,38.6,69.5,38.6,72.9,38.6z M114.3,38.6c0-2,0.1-3.8,0-5.6c-0.2-2.6-2.5-4.6-5.1-4.7
		c-2.5,0-4.9,1.9-5.1,4.4c-0.2,1.9,0,3.8,0,5.8C107.5,38.6,110.8,38.6,114.3,38.6z M155.7,38.6c0-1.9,0.1-3.7,0-5.5
		c-0.2-2.6-2.4-4.7-4.9-4.8c-2.6-0.1-5,1.8-5.3,4.4c-0.2,1.9,0,3.8,0,5.8C148.8,38.6,152.1,38.6,155.7,38.6z"/>
	<path class="st0" d="M114.4,100.6c0-3.4,0-6.7,0-10.1c6.8,0,13.6,0,20.5,0c0,3.3,0,6.7,0,10.1C128.1,100.6,121.3,100.6,114.4,100.6
		z"/>
	<path class="st0" d="M145.4,100.6c0-3.4,0-6.7,0-10.1c6.8,0,13.6,0,20.5,0c0,3.3,0,6.7,0,10.1C159.1,100.6,152.3,100.6,145.4,100.6
		z"/>
	<path class="st0" d="M134.9,121.3c-6.9,0-13.6,0-20.5,0c0-3.4,0-6.7,0-10.1c6.8,0,13.6,0,20.5,0
		C134.9,114.5,134.9,117.8,134.9,121.3z"/>
	<path class="st0" d="M165.9,121.3c-6.9,0-13.6,0-20.5,0c0-3.4,0-6.7,0-10.1c6.7,0,13.5,0,20.5,0
		C165.9,114.5,165.9,117.8,165.9,121.3z"/>
	<path class="st0" d="M134.9,131.8c0,3.4,0,6.7,0,10.1c-6.9,0-13.6,0-20.5,0c0-3.4,0-6.7,0-10.1C121.2,131.8,128,131.8,134.9,131.8z
		"/>
	<path class="st0" d="M145.4,131.8c6.9,0,13.6,0,20.5,0c0,3.4,0,6.7,0,10.2c-6.8,0-13.6,0-20.5,0
		C145.4,138.6,145.4,135.3,145.4,131.8z"/>
	<path class="st0" d="M51.7,111.1c3.4,0,6.7,0,10.2,0c0,6.8,0,13.6,0,20.5c3.5,0,6.8,0,10.2,0c0,3.5,0,6.8,0,10.3
		c-6.8,0-13.6,0-20.4,0C51.7,131.7,51.7,121.5,51.7,111.1z"/>
</g>
</svg>
