<?xml version="1.0" encoding="utf-8"?>
<!-- Generator: Adobe Illustrator 24.0.0, SVG Export Plug-In . SVG Version: 6.00 Build 0)  -->
<svg version="1.1" id="Capa_1" xmlns="http://www.w3.org/2000/svg" xmlns:xlink="http://www.w3.org/1999/xlink" x="0px" y="0px"
	 viewBox="0 0 200 200" style="enable-background:new 0 0 200 200;" xml:space="preserve">
<style type="text/css">
	.st0{fill:#849FB9;}
</style>
<g>
	<path class="st0" d="M148.3,193.7c-3.8-1.2-7.8-1.9-11.4-3.6c-13.6-6.4-20.8-22.1-17.1-36.6c0.5-2,0-2.8-1.7-3.7
		c-15.9-8.1-31.8-16.2-47.7-24.4c-0.5-0.3-1.1-0.5-1.8-0.9c-7.3,9.5-16.9,14.4-29,13.7c-8.4-0.5-15.6-3.9-21.4-9.9
		c-12.5-13.2-12.5-32.9,0.1-46c11.9-12.4,33.9-14.5,48.3,1.3c18.1-10.9,36.2-21.8,54.4-32.8c-1.6-4.4-2.4-8.8-2.2-13.3
		c0.7-15.7,12.7-28.9,28.2-31.1c0.5-0.1,0.9-0.2,1.4-0.4c2.2,0,4.4,0,6.6,0c0.3,0.1,0.7,0.3,1,0.3c18.4,2.8,30.6,18.8,28.3,37.2
		c-3,23.9-31,36.5-50.8,22.7c-2.5-1.7-4.7-3.8-7-5.8C108.8,71,91.2,81.7,73.5,92.3c-1,0.6-1,1.2-0.7,2.2c1.4,4,2.2,8.2,1.8,12.4
		c-0.2,2.5-0.8,5-1.2,7.7c17.2,8.8,34.4,17.7,51.7,26.5c0.5-0.5,0.8-0.9,1.1-1.2c9.1-10.5,20.5-14.3,34-11
		c13.1,3.3,22.7,14.9,24.1,28.9c1.4,13.2-6.2,26.8-18.3,32.4c-3.5,1.6-7.5,2.4-11.3,3.5C152.7,193.7,150.5,193.7,148.3,193.7z"/>
</g>
</svg>
