<?xml version="1.0" encoding="utf-8"?>
<!-- Generator: Adobe Illustrator 24.0.0, SVG Export Plug-In . SVG Version: 6.00 Build 0)  -->
<svg version="1.1" id="Capa_1" xmlns="http://www.w3.org/2000/svg" xmlns:xlink="http://www.w3.org/1999/xlink" x="0px" y="0px"
	 viewBox="0 0 200 200" style="enable-background:new 0 0 200 200;" xml:space="preserve">
<style type="text/css">
	.st0{fill:#849FB9;}
</style>
<g>
	<path class="st0" d="M57.7,185.7c-1.6-0.6-3.3-0.9-4.9-1.7c-5.3-2.6-8.5-7-8.9-12.9c-0.7-10.9-1.1-21.8-1.7-32.6
		c-0.9-17.9-1.7-35.8-2.6-53.7c-0.1-2.3-0.2-4.6-0.3-6.9c-0.1-1.4,0.6-2.2,2.1-2.2c0.3,0,0.7,0,1,0c38.8,0,77.6,0,116.3,0
		c2.9,0,3.1,0.4,3,3.2c-0.6,12.7-1.2,25.4-1.8,38.2c-0.9,17.9-1.6,35.7-2.6,53.6c-0.4,7.8-5.6,13.2-13.2,14.8
		c-0.2,0-0.4,0.2-0.6,0.3C114.9,185.7,86.3,185.7,57.7,185.7z M68.4,123.9c0,1.1,0,2.1,0,3.2c0,10.6,0,21.1,0,31.7
		c0,2.9,2,5.1,4.7,5.4c2.7,0.3,5.3-1.5,5.8-4.2c0.2-0.8,0.1-1.6,0.1-2.3c0-20.4,0-40.8,0-61.2c0-2.5,0-4.9,0-7.4
		c0-2.3-1.4-4.3-3.5-5c-3.6-1.3-7.2,1.3-7.2,5.3C68.4,100.9,68.4,112.4,68.4,123.9z M95.3,123.9c0,1.2,0,2.3,0,3.5
		c0,10.4,0,20.9,0,31.3c0,2.8,2,5.1,4.7,5.4c2.7,0.3,5.3-1.5,5.8-4.2c0.2-0.8,0.1-1.6,0.1-2.3c0-20.6,0-41.2,0-61.9
		c0-2.2,0-4.5,0-6.7c0-2.3-1.4-4.3-3.5-5c-3.6-1.3-7.2,1.3-7.2,5.3C95.3,100.9,95.3,112.4,95.3,123.9z M132.8,124.2
		c0-11.5,0.1-22.9-0.1-34.4c0-1.4-0.6-3.1-1.4-4.3c-1.2-1.8-3.7-2.2-5.8-1.4c-2.1,0.8-3.5,2.7-3.5,5.2c0,10.5,0,21,0,31.5
		c0,12.5,0,24.9,0,37.4c0,1.8,0.4,3.3,1.7,4.5c1.7,1.5,3.7,1.9,5.7,1c2.2-1,3.3-2.8,3.3-5.2C132.8,147.1,132.8,135.7,132.8,124.2z"
		/>
	<path class="st0" d="M113.7,14c1,0.3,2.1,0.6,3.1,1c6.2,2.3,10.4,8.1,10.6,14.7c0,1.8,0,3.7,0,5.8c0.7,0,1.3,0,1.9,0c9,0,18,0,27,0
		c8.4,0,14.1,5.7,14.1,14.1c0,3.2,0,6.5,0,9.7c0,3.4-2.3,5.6-5.7,5.7c-42.7,0-85.4,0-128.1,0c-3.4,0-5.7-2.2-5.7-5.7
		c0-4.2-0.3-8.5,0.3-12.7c0.9-6.6,6.4-11.1,13.1-11.1c9.2-0.1,18.3,0,27.5,0c0.6,0,1.2,0,2,0c0-1.7,0-3.2,0-4.8
		c0-8.4,4.9-14.5,13.2-16.4c0.2,0,0.4-0.2,0.6-0.3C96.3,14,105,14,113.7,14z M84.6,35.3c10.8,0,21.5,0,32.2,0c0-2,0.1-3.8,0-5.6
		c-0.2-2.7-2.4-4.9-5.2-5c-7.3-0.1-14.5-0.1-21.8,0c-2.8,0-5,2.2-5.2,5C84.5,31.5,84.6,33.4,84.6,35.3z"/>
</g>
</svg>
