<svg xmlns="http://www.w3.org/2000/svg" xmlns:xlink="http://www.w3.org/1999/xlink" width="78.939" height="76.21" viewBox="0 0 78.939 76.21">
  <defs>
    <clipPath id="clip-path">
      <rect id="Rectángulo_27" data-name="Rectángulo 27" width="78.939" height="76.21" fill="#95bde4"/>
    </clipPath>
  </defs>
  <g id="Grupo_560" data-name="Grupo 560" transform="translate(0 0)">
    <g id="Grupo_559" data-name="Grupo 559" transform="translate(0 0)" clip-path="url(#clip-path)">
      <path id="Trazado_9" data-name="Trazado 9" d="M51.538,55.7c-.951.969-1.894,1.938-2.848,2.9q-4.294,4.305-8.6,8.6a2.653,2.653,0,0,1-3.2.562,2.514,2.514,0,0,1-1.455-2.721,4.024,4.024,0,0,1,1.023-1.879c3.516-3.581,7.083-7.108,10.635-10.653.21-.214.41-.439.74-.791h-.98q-5.573,0-11.143,0a2.761,2.761,0,0,1-3.044-3.059c0-2.573,0-5.149,0-7.776H27.228v1.027q0,13.693,0,27.387A6.707,6.707,0,0,1,20.1,76.176a11.562,11.562,0,0,1-3.2-.976c-.392-.149-.628-.272-1.052-.022a6.777,6.777,0,0,1-10.384-5.9c-.015-5.813,0-11.625,0-17.5-.265-.091-.522-.178-.784-.265A6.785,6.785,0,0,1,.019,45.146q-.038-4.844,0-9.695A8.13,8.13,0,0,1,8.3,27.229c7.768-.022,15.533-.007,23.3-.007h1.038V5.521c-.276-.076-.573-.138-.856-.239a2.729,2.729,0,0,1-1.8-2.946A2.739,2.739,0,0,1,32.529.01C32.754,0,32.982,0,33.207,0q21.264,0,42.521,0a4.716,4.716,0,0,1,1.259.131,2.672,2.672,0,0,1,1.952,2.587A2.712,2.712,0,0,1,77.071,5.3c-.261.087-.533.142-.849.229V48.39c0,2.369-.976,3.334-3.367,3.334H61.066c.319.345.515.57.722.78q5.388,5.377,10.773,10.758a2.734,2.734,0,1,1-3.868,3.842Q63.337,61.755,58,56.387a8.86,8.86,0,0,1-.584-.729l-.192.094c-.018.232-.051.468-.051.7,0,2.863,0,5.729-.007,8.592a2.733,2.733,0,1,1-5.439.022c-.007-3.088,0-6.175,0-9.26-.065-.033-.127-.065-.189-.1m19.179-9.466V5.488H38.167v21.64a18.6,18.6,0,0,1,2.99.341,20.458,20.458,0,0,1,2.848,1.266c2.21-1.825,4.5-3.715,6.792-5.609,2.424-2.006,4.833-4.031,7.278-6.012A2.707,2.707,0,0,1,62.528,18.5a2.743,2.743,0,0,1-1.107,2.921q-7.228,6-14.444,12.024a1.813,1.813,0,0,0-.751,1.317,6.677,6.677,0,0,1-5.646,5.958,23.372,23.372,0,0,1-2.424.181v5.341ZM23.7,32.668q-7.652,0-15.3,0a2.711,2.711,0,0,0-2.939,2.9q-.016,4.506,0,9.016c0,1.067.519,1.691,1.368,1.684s1.346-.628,1.35-1.7c.007-2.126-.011-4.252.007-6.379a2.717,2.717,0,1,1,5.432-.029c.022,2.3.029,4.594-.007,6.89a6.408,6.408,0,0,1-2.162,4.818,1.574,1.574,0,0,0-.555,1.313q.022,8.844.011,17.688a3.547,3.547,0,0,0,.029.762,1.348,1.348,0,0,0,2.663-.015,3.807,3.807,0,0,0,.029-.762q0-5.655,0-11.31c0-1.876,1.1-3.113,2.743-3.1a2.768,2.768,0,0,1,2.7,3.062q.005,5.742,0,11.48c0,1.154.49,1.782,1.361,1.782s1.353-.635,1.361-1.782V38.8c0-2.489.94-3.414,3.454-3.414h13.6a4.131,4.131,0,0,0,.849-.029,1.349,1.349,0,0,0-.007-2.663,4.413,4.413,0,0,0-.849-.029H23.7" transform="translate(-0.001 0.002)" fill="#95bde4"/>
      <path id="Trazado_10" data-name="Trazado 10" d="M12.382.751A10.887,10.887,0,1,1,1.5,11.625,10.9,10.9,0,0,1,12.382.751m5.45,10.914a5.441,5.441,0,1,0-5.49,5.417,5.449,5.449,0,0,0,5.49-5.417" transform="translate(3.953 1.975)" fill="#95bde4"/>
    </g>
  </g>
</svg>
