<svg id="Grupo_558" data-name="Grupo 558" xmlns="http://www.w3.org/2000/svg" xmlns:xlink="http://www.w3.org/1999/xlink" width="65.282" height="76.21" viewBox="0 0 65.282 76.21">
  <defs>
    <clipPath id="clip-path">
      <rect id="Rectángulo_26" data-name="Rectángulo 26" width="65.282" height="76.21" fill="#95bde4"/>
    </clipPath>
  </defs>
  <g id="Grupo_557" data-name="Grupo 557" clip-path="url(#clip-path)">
    <path id="Trazado_7" data-name="Trazado 7" d="M20.13,16.209c-2.385-.686-4.742-1.373-7.1-2.038-.787-.221-1.588-.39-2.385-.573A2.8,2.8,0,0,1,8.456,11,2.752,2.752,0,0,1,10.5,8.3c3.531-1.012,7.064-2.015,10.585-3.06Q29.467,2.752,37.826.208a4.553,4.553,0,0,1,2.743.007q13.076,3.941,26.16,7.853c1.764.53,2.364,1.365,2.363,3.225q0,10.58,0,21.16a2.732,2.732,0,0,1-3.715,2.761,2.766,2.766,0,0,1-1.721-2.767q-.006-8.413,0-16.826V14.585l-5.44,1.63c0,4.593,0,9.124,0,13.655a19.024,19.024,0,0,1-37.755,3.449,22.342,22.342,0,0,1-.311-3.63c-.037-4.164-.014-8.328-.014-12.492v-.988M52.8,29.642a31.68,31.68,0,0,1-27.246,0c.073,4.965,1.99,8.93,6.091,11.616a12.921,12.921,0,0,0,14.365.425c4.533-2.618,6.656-6.746,6.79-12.039m4.007-18.7c-.388-.144-.555-.216-.729-.27C50.618,9,45.161,7.315,39.692,5.667a2.387,2.387,0,0,0-1.3.072q-7.915,2.4-15.817,4.841c-.276.085-.549.18-1.045.342.514.173.773.267,1.037.348C27.842,12.888,33.11,14.515,38.39,16.1a2.837,2.837,0,0,0,1.538.019c3.9-1.157,7.793-2.363,11.685-3.559,1.661-.51,3.318-1.032,5.194-1.616M25.57,17.811a25.7,25.7,0,0,1-.029,3.459c-.228,1.6.477,2.4,1.823,3.136a25.085,25.085,0,0,0,14.619,2.752,21.843,21.843,0,0,0,10.23-3.553c.231-.151.525-.433.531-.661.045-1.665.024-3.332.024-5.079-.372.1-.667.182-.958.272-3.807,1.177-7.6,2.392-11.428,3.5a4.756,4.756,0,0,1-2.384,0c-1.805-.456-3.57-1.076-5.351-1.63l-7.077-2.2" transform="translate(-6.539 0)" fill="#95bde4"/>
    <path id="Trazado_8" data-name="Trazado 8" d="M32.636,235.59c2.908-2.182,5.776-4.3,8.6-6.473A4.4,4.4,0,0,1,44.29,228.1a72.468,72.468,0,0,1,7.787.375,16.12,16.12,0,0,1,13.184,15.465c.035,1.9.018,3.8.01,5.694A2.726,2.726,0,0,1,62.3,252.59q-13.173.007-26.347,0H3.232c-2.211,0-3.281-1.017-3.23-3.2a58.1,58.1,0,0,1,.375-8.21,16.123,16.123,0,0,1,15.316-13.054c1.982-.046,3.969-.075,5.947.021a3.959,3.959,0,0,1,2.009.742c3,2.177,5.951,4.426,8.987,6.7m27.2,11.53c0-.995.011-1.924,0-2.852A10.64,10.64,0,0,0,51.5,233.919a37.182,37.182,0,0,0-6.417-.345,2.127,2.127,0,0,0-1.222.414c-3.1,2.288-6.163,4.614-9.244,6.921a2.8,2.8,0,0,1-3.933.014c-2.177-1.626-4.346-3.263-6.523-4.888-1.11-.829-2.126-1.96-3.377-2.374s-2.746-.072-4.132-.114c-6.112-.188-12.351,4.835-11.112,13.574Z" transform="translate(0 -176.383)" fill="#95bde4"/>
  </g>
</svg>
