<?xml version="1.0" encoding="utf-8"?>
<!-- Generator: Adobe Illustrator 24.2.0, SVG Export Plug-In . SVG Version: 6.00 Build 0)  -->
<svg version="1.1" id="Capa_1" xmlns="http://www.w3.org/2000/svg" xmlns:xlink="http://www.w3.org/1999/xlink" x="0px" y="0px"
	 viewBox="0 0 1212.75 366.76" style="enable-background:new 0 0 1212.75 366.76;" xml:space="preserve">
<style type="text/css">
	.st0{clip-path:url(#SVGID_2_);fill:url(#SVGID_3_);}
	.st1{fill:#0B2E43;}
	.st2{fill:#989898;}
	.st3{fill:#FFFFFF;}
	.st4{clip-path:url(#SVGID_5_);}
	.st5{clip-path:url(#SVGID_7_);fill:#F4981A;}
	.st6{clip-path:url(#SVGID_7_);fill:#254763;}
	.st7{clip-path:url(#SVGID_7_);fill:#082F43;}
	.st8{clip-path:url(#SVGID_7_);fill:#28285B;}
	.st9{clip-path:url(#SVGID_7_);fill:#808081;}
	.st10{clip-path:url(#SVGID_9_);fill:#F4981A;}
	.st11{clip-path:url(#SVGID_11_);fill:#254763;}
	.st12{clip-path:url(#SVGID_13_);fill:#254763;}
	.st13{clip-path:url(#SVGID_13_);fill:#EA572B;}
	.st14{clip-path:url(#SVGID_15_);fill:#F4981A;}
	.st15{clip-path:url(#SVGID_15_);fill:#254763;}
	.st16{clip-path:url(#SVGID_17_);fill:#F4981A;}
	.st17{clip-path:url(#SVGID_19_);fill:#254763;}
	.st18{clip-path:url(#SVGID_21_);fill:url(#SVGID_22_);}
	.st19{clip-path:url(#SVGID_24_);fill:url(#SVGID_25_);}
	.st20{clip-path:url(#SVGID_27_);fill:url(#SVGID_28_);}
	.st21{clip-path:url(#SVGID_30_);fill:url(#SVGID_31_);}
	.st22{clip-path:url(#SVGID_33_);fill:#254763;}
	.st23{clip-path:url(#SVGID_33_);fill:#F4981A;}
	.st24{clip-path:url(#SVGID_35_);fill:#082F43;}
	.st25{clip-path:url(#SVGID_35_);fill:#28285B;}
	.st26{clip-path:url(#SVGID_35_);fill:#808081;}
	.st27{clip-path:url(#SVGID_35_);fill:#F4981A;}
	.st28{fill:#F4981A;}
	.st29{fill:#254763;}
	.st30{clip-path:url(#SVGID_37_);fill:url(#SVGID_38_);}
	.st31{fill:#1D3347;}
	.st32{clip-path:url(#SVGID_40_);}
	.st33{clip-path:url(#SVGID_40_);fill:#FFFFFF;}
	.st34{clip-path:url(#SVGID_42_);fill:#0B2E43;}
	.st35{clip-path:url(#SVGID_42_);fill:#FFFFFF;}
	.st36{clip-path:url(#SVGID_42_);fill:#EF7D17;}
	.st37{clip-path:url(#SVGID_42_);fill:#F49818;}
	.st38{clip-path:url(#SVGID_42_);fill:#989898;}
	.st39{clip-path:url(#SVGID_42_);fill:#264763;}
	.st40{clip-path:url(#SVGID_44_);fill:url(#SVGID_45_);}
	.st41{clip-path:url(#SVGID_47_);fill:#FFFFFF;}
	.st42{clip-path:url(#SVGID_47_);fill:#264763;}
	.st43{clip-path:url(#SVGID_49_);}
	.st44{clip-path:url(#SVGID_51_);fill:#EE7D16;}
	.st45{clip-path:url(#SVGID_51_);fill:#1D3247;}
	.st46{clip-path:url(#SVGID_51_);fill:#F4981A;}
	.st47{clip-path:url(#SVGID_51_);fill:#0B2E43;}
	.st48{clip-path:url(#SVGID_51_);fill:#082F43;}
	.st49{clip-path:url(#SVGID_51_);fill:#28285B;}
	.st50{clip-path:url(#SVGID_51_);fill:#808081;}
	.st51{clip-path:url(#SVGID_51_);fill:#254763;}
	.st52{clip-path:url(#SVGID_53_);}
	.st53{clip-path:url(#SVGID_55_);fill:#254763;}
	.st54{clip-path:url(#SVGID_55_);fill:#356180;}
	.st55{clip-path:url(#SVGID_55_);fill:#F4981A;}
	.st56{clip-path:url(#SVGID_55_);fill:#1D3347;}
	.st57{clip-path:url(#SVGID_55_);fill:#9F9F9F;}
	.st58{clip-path:url(#SVGID_55_);fill:#EE7D16;}
	.st59{clip-path:url(#SVGID_55_);fill:#082F43;}
	.st60{clip-path:url(#SVGID_55_);fill:#28285B;}
	.st61{clip-path:url(#SVGID_55_);fill:#808081;}
	.st62{clip-path:url(#SVGID_57_);}
	.st63{clip-path:url(#SVGID_59_);fill:#F4981A;}
	.st64{clip-path:url(#SVGID_59_);fill:#254763;}
	.st65{clip-path:url(#SVGID_59_);fill:#082F43;}
	.st66{clip-path:url(#SVGID_59_);fill:#28285B;}
	.st67{clip-path:url(#SVGID_59_);fill:#808081;}
	.st68{clip-path:url(#SVGID_61_);fill:#F4981A;}
	.st69{clip-path:url(#SVGID_63_);fill:#254763;}
	.st70{clip-path:url(#SVGID_65_);fill:#254763;}
	.st71{clip-path:url(#SVGID_65_);fill:#EA572B;}
	.st72{clip-path:url(#SVGID_67_);fill:#F4981A;}
	.st73{clip-path:url(#SVGID_67_);fill:#254763;}
	.st74{clip-path:url(#SVGID_69_);fill:#F4981A;}
	.st75{clip-path:url(#SVGID_71_);fill:#254763;}
	.st76{clip-path:url(#SVGID_73_);fill:url(#SVGID_74_);}
	.st77{clip-path:url(#SVGID_76_);fill:url(#SVGID_77_);}
	.st78{clip-path:url(#SVGID_79_);fill:url(#SVGID_80_);}
	.st79{clip-path:url(#SVGID_82_);fill:url(#SVGID_83_);}
	.st80{clip-path:url(#SVGID_85_);}
	.st81{clip-path:url(#SVGID_87_);fill:#254763;}
	.st82{clip-path:url(#SVGID_87_);fill:#F4981A;}
	.st83{clip-path:url(#SVGID_89_);fill:#082F43;}
	.st84{clip-path:url(#SVGID_89_);fill:#28285B;}
	.st85{clip-path:url(#SVGID_89_);fill:#808081;}
	.st86{clip-path:url(#SVGID_89_);fill:#F4981A;}
	.st87{clip-path:url(#SVGID_91_);fill:#F4981A;}
	.st88{clip-path:url(#SVGID_91_);fill:#254763;}
	.st89{clip-path:url(#SVGID_93_);fill:#254763;}
	.st90{clip-path:url(#SVGID_95_);fill:#EA572B;}
	.st91{clip-path:url(#SVGID_97_);fill:#254763;}
	.st92{clip-path:url(#SVGID_97_);fill:#F4981A;}
	.st93{clip-path:url(#SVGID_99_);fill:#F4981A;}
	.st94{clip-path:url(#SVGID_101_);fill:#254763;}
	.st95{clip-path:url(#SVGID_103_);fill:url(#SVGID_104_);}
	.st96{clip-path:url(#SVGID_106_);fill:#1D3347;}
	.st97{clip-path:url(#SVGID_108_);fill:#FFFFFF;}
	.st98{clip-path:url(#SVGID_108_);}
	.st99{clip-path:url(#SVGID_110_);fill:#0B2E43;}
	.st100{clip-path:url(#SVGID_110_);fill:#FFFFFF;}
	.st101{clip-path:url(#SVGID_110_);fill:#EF7D17;}
	.st102{clip-path:url(#SVGID_110_);fill:#F49818;}
	.st103{clip-path:url(#SVGID_110_);fill:#989898;}
	.st104{clip-path:url(#SVGID_110_);fill:#264763;}
	.st105{clip-path:url(#SVGID_112_);fill:url(#SVGID_113_);}
	.st106{clip-path:url(#SVGID_115_);fill:#FFFFFF;}
	.st107{clip-path:url(#SVGID_115_);fill:#264763;}
	.st108{clip-path:url(#SVGID_117_);}
	.st109{clip-path:url(#SVGID_119_);fill:#FFFFFF;}
	.st110{clip-path:url(#SVGID_119_);}
	.st111{clip-path:url(#SVGID_121_);fill:#0B2E43;}
	.st112{clip-path:url(#SVGID_121_);fill:#FFFFFF;}
	.st113{clip-path:url(#SVGID_121_);fill:#EF7D17;}
	.st114{clip-path:url(#SVGID_121_);fill:#F49818;}
	.st115{clip-path:url(#SVGID_121_);fill:#989898;}
	.st116{clip-path:url(#SVGID_121_);fill:#264763;}
	.st117{clip-path:url(#SVGID_123_);fill:url(#SVGID_124_);}
	.st118{clip-path:url(#SVGID_126_);fill:#FFFFFF;}
	.st119{clip-path:url(#SVGID_126_);fill:#264763;}
	.st120{clip-path:url(#SVGID_128_);}
	.st121{clip-path:url(#SVGID_130_);fill:#FFFFFF;}
	.st122{clip-path:url(#SVGID_130_);}
	.st123{clip-path:url(#SVGID_132_);fill:#0B2E43;}
	.st124{clip-path:url(#SVGID_132_);fill:#FFFFFF;}
	.st125{clip-path:url(#SVGID_132_);fill:#EF7D17;}
	.st126{clip-path:url(#SVGID_132_);fill:#F49818;}
	.st127{clip-path:url(#SVGID_132_);fill:#989898;}
	.st128{clip-path:url(#SVGID_132_);fill:#264763;}
	.st129{clip-path:url(#SVGID_134_);fill:url(#SVGID_135_);}
	.st130{clip-path:url(#SVGID_137_);fill:#FFFFFF;}
	.st131{clip-path:url(#SVGID_137_);fill:#264763;}
	.st132{fill:#EF7D17;}
	.st133{fill:#F49818;}
	.st134{fill:#264763;}
	.st135{clip-path:url(#SVGID_139_);fill:url(#SVGID_140_);}
	.st136{opacity:0.92;}
	.st137{fill:#F49940;}
	.st138{fill:#102B42;}
	.st139{fill:#244762;}
	.st140{fill:url(#SVGID_143_);}
	.st141{opacity:0.91;fill:#0A2534;}
	.st142{opacity:0.44;}
	.st143{fill:#0A0A0A;stroke:#000000;stroke-miterlimit:10;}
	.st144{fill:none;stroke:#000000;stroke-miterlimit:10;}
	.st145{fill:#FFFFFF;stroke:#FFFFFF;stroke-miterlimit:10;}
	.st146{clip-path:url(#SVGID_147_);}
	.st147{fill:none;stroke:#FFFFFF;stroke-width:3;stroke-miterlimit:10;}
	.st148{clip-path:url(#SVGID_149_);}
	.st149{fill:#BF4C26;}
	.st150{fill:#F0E1C1;}
	.st151{fill:#2B2E34;}
	.st152{fill:#494441;}
	.st153{fill:#F59B25;}
	.st154{fill:#07B5C2;}
	.st155{fill:#5A4D9B;}
	.st156{fill:#A3C739;}
	.st157{fill:#515767;}
	.st158{fill:none;stroke:#FFFFFF;stroke-miterlimit:10;}
	.st159{fill:none;}
	.st160{fill:#616160;}
	.st161{clip-path:url(#SVGID_153_);fill:url(#SVGID_154_);}
	.st162{fill:#B3B2B2;}
	.st163{opacity:0.53;}
	.st164{opacity:0.86;}
	.st165{fill:url(#SVGID_161_);}
	.st166{fill:url(#SVGID_162_);}
	.st167{fill:url(#SVGID_163_);}
	.st168{fill:url(#SVGID_164_);}
	.st169{fill:url(#SVGID_165_);}
	.st170{fill:url(#SVGID_166_);}
	.st171{fill:url(#SVGID_167_);}
	.st172{fill:url(#SVGID_168_);}
	.st173{fill:url(#SVGID_169_);}
	.st174{fill:url(#SVGID_170_);}
	.st175{fill:url(#SVGID_171_);}
	.st176{opacity:0.56;}
	.st177{fill:url(#SVGID_174_);}
	.st178{fill:url(#SVGID_175_);}
	.st179{fill:url(#SVGID_176_);}
	.st180{fill:url(#SVGID_177_);}
	.st181{fill:url(#SVGID_178_);}
	.st182{fill:url(#SVGID_179_);}
	.st183{fill:url(#SVGID_180_);}
	.st184{fill:url(#SVGID_181_);}
	.st185{fill:url(#SVGID_182_);}
	.st186{fill:url(#SVGID_183_);}
	.st187{fill:url(#SVGID_184_);}
	.st188{fill:url(#SVGID_185_);}
	.st189{fill:url(#SVGID_186_);}
	.st190{fill:url(#SVGID_187_);}
	.st191{fill:url(#SVGID_188_);}
	.st192{fill:url(#SVGID_189_);}
	.st193{fill:url(#SVGID_190_);}
	.st194{fill:url(#SVGID_191_);}
	.st195{fill:url(#SVGID_192_);}
	.st196{fill:url(#SVGID_193_);}
	.st197{fill:url(#SVGID_194_);}
	.st198{fill:url(#SVGID_195_);}
	.st199{fill:url(#SVGID_196_);}
	.st200{fill:url(#SVGID_197_);}
	.st201{fill:url(#SVGID_198_);}
	.st202{fill:url(#SVGID_199_);}
	.st203{fill:url(#SVGID_200_);}
	.st204{clip-path:url(#SVGID_202_);fill:url(#SVGID_203_);}
	.st205{fill:url(#SVGID_204_);}
	.st206{fill:url(#SVGID_207_);}
	.st207{fill:url(#SVGID_208_);}
	.st208{fill:url(#SVGID_211_);}
	.st209{fill:url(#SVGID_212_);}
	.st210{fill:#F9FCFF;}
	.st211{fill:#0D2435;}
	.st212{opacity:0.86;clip-path:url(#SVGID_218_);fill:#0B2E43;}
	.st213{fill:url(#SVGID_219_);}
	.st214{fill:url(#SVGID_220_);}
	.st215{fill:url(#SVGID_221_);}
	.st216{fill:url(#SVGID_222_);}
	.st217{fill:url(#SVGID_223_);}
	.st218{fill:url(#SVGID_224_);}
	.st219{fill:url(#SVGID_225_);}
	.st220{fill:url(#SVGID_226_);}
	.st221{fill:url(#SVGID_227_);}
	.st222{fill:url(#SVGID_228_);}
	.st223{fill:url(#SVGID_229_);}
	.st224{fill:url(#SVGID_230_);}
	.st225{fill:url(#SVGID_231_);}
	.st226{fill:url(#SVGID_232_);}
	.st227{clip-path:url(#SVGID_234_);fill:url(#SVGID_235_);}
	.st228{opacity:0.43;}
	.st229{fill:#F7A51E;}
</style>
<g id="Capa_2">
</g>
<g>
	<path class="st3" d="M468.65,303.7c0,14.55-5.75,26.02-17.24,34.44c-10.26,7.42-22.95,11.12-38.09,11.12
		c-15.33,0-28.02-3.7-38.08-11.12c-11.37-8.26-17.06-19.74-17.06-34.44v-93.79h43.83v90.18c0,7.14,3.76,10.71,11.31,10.71
		c7.66,0,11.49-3.57,11.49-10.71v-90.18h43.84V303.7z"/>
	<polygon class="st3" points="604.37,347.9 560.54,347.9 519.74,284.54 519.74,347.9 475.91,347.9 475.91,209.91 516.89,209.91 
		560.54,276.31 560.54,209.91 604.37,209.91 	"/>
	<polygon class="st3" points="700.83,347.9 612.79,347.9 612.79,209.91 700.83,209.91 700.83,244.35 656.62,244.35 656.62,262.16 
		698.54,262.16 698.54,296.59 656.62,296.59 656.62,313.28 700.83,313.28 	"/>
	<polygon class="st3" points="879.21,347.9 835.19,347.9 824.12,278.04 806.13,347.9 781.21,347.9 761.49,278.04 749.63,347.9 
		705.61,347.9 731.26,209.91 776.26,209.91 792.9,270.76 810.14,209.91 854.35,209.91 	"/>
	<rect x="886.13" y="209.91" class="st3" width="44.02" height="137.99"/>
	<path class="st3" d="M351.6,36.22c3.04-5.33,7.19-9.49,12.47-12.47c5.27-2.98,11.17-4.46,17.71-4.46c7.65,0,14.36,1.96,20.12,5.89
		c5.75,3.92,9.78,9.35,12.07,16.29h-15.8c-1.57-3.27-3.78-5.73-6.62-7.36c-2.85-1.63-6.13-2.45-9.87-2.45
		c-3.99,0-7.54,0.93-10.65,2.8c-3.11,1.86-5.53,4.5-7.26,7.9c-1.74,3.4-2.6,7.4-2.6,11.97c0,4.51,0.86,8.49,2.6,11.93
		c1.73,3.44,4.15,6.08,7.26,7.95c3.11,1.86,6.66,2.8,10.65,2.8c3.73,0,7.02-0.84,9.87-2.51c2.84-1.67,5.05-4.13,6.62-7.41h15.8
		c-2.29,7-6.3,12.45-12.02,16.34c-5.73,3.9-12.45,5.84-20.17,5.84c-6.54,0-12.45-1.49-17.71-4.47c-5.27-2.98-9.42-7.12-12.47-12.41
		c-3.04-5.3-4.56-11.32-4.56-18.06C347.04,47.59,348.56,41.55,351.6,36.22"/>
	<path class="st3" d="M435.76,86.08c-4.19-2.32-7.48-5.61-9.87-9.87c-2.39-4.25-3.58-9.16-3.58-14.72s1.22-10.47,3.68-14.72
		s5.81-7.54,10.06-9.87c4.25-2.32,9-3.48,14.24-3.48c5.23,0,9.97,1.16,14.23,3.48c4.25,2.32,7.6,5.61,10.06,9.87
		s3.68,9.16,3.68,14.72s-1.26,10.47-3.78,14.72c-2.52,4.26-5.92,7.54-10.21,9.87c-4.29,2.32-9.08,3.48-14.38,3.48
		C444.65,89.56,439.94,88.4,435.76,86.08 M456.91,75.77c2.19-1.21,3.94-3.03,5.25-5.44c1.3-2.42,1.96-5.36,1.96-8.83
		c0-5.17-1.36-9.14-4.07-11.93c-2.72-2.78-6.04-4.17-9.96-4.17c-3.93,0-7.21,1.39-9.87,4.17c-2.65,2.78-3.98,6.75-3.98,11.93
		c0,5.17,1.29,9.14,3.88,11.92c2.59,2.78,5.84,4.17,9.77,4.17C452.38,77.59,454.71,76.98,456.91,75.77"/>
	<path class="st3" d="M534.19,39.66c3.99,4.09,5.98,9.8,5.98,17.13v31.9h-13.74V58.65c0-4.32-1.08-7.64-3.24-9.96
		c-2.16-2.32-5.11-3.48-8.83-3.48c-3.8,0-6.79,1.16-8.98,3.48c-2.2,2.32-3.29,5.64-3.29,9.96v30.03h-13.74V34.31h13.74v6.77
		c1.83-2.36,4.17-4.2,7.02-5.54c2.85-1.34,5.97-2.01,9.37-2.01C524.97,33.52,530.2,35.57,534.19,39.66"/>
	<path class="st3" d="M562.07,87.16c-3.53-1.6-6.33-3.78-8.39-6.53c-2.06-2.75-3.19-5.79-3.38-9.12h13.84
		c0.26,2.09,1.29,3.83,3.09,5.2c1.8,1.38,4.04,2.06,6.72,2.06c2.62,0,4.66-0.52,6.13-1.57c1.47-1.04,2.21-2.38,2.21-4.02
		c0-1.76-0.9-3.09-2.7-3.98c-1.8-0.88-4.67-1.85-8.59-2.9c-4.06-0.98-7.38-1.99-9.96-3.04c-2.59-1.05-4.81-2.65-6.67-4.81
		c-1.87-2.16-2.8-5.07-2.8-8.73c0-3.01,0.86-5.75,2.6-8.24c1.73-2.49,4.22-4.45,7.46-5.89c3.24-1.44,7.05-2.16,11.43-2.16
		c6.48,0,11.64,1.62,15.51,4.86c3.86,3.24,5.99,7.61,6.38,13.1h-13.15c-0.2-2.16-1.09-3.88-2.7-5.15c-1.61-1.28-3.75-1.91-6.43-1.91
		c-2.48,0-4.4,0.46-5.74,1.38c-1.34,0.92-2.01,2.19-2.01,3.83c0,1.83,0.92,3.22,2.75,4.17c1.83,0.95,4.68,1.91,8.54,2.9
		c3.93,0.98,7.17,1.99,9.72,3.04c2.55,1.05,4.76,2.67,6.63,4.86c1.86,2.2,2.83,5.09,2.9,8.69c0,3.14-0.87,5.96-2.6,8.44
		c-1.74,2.49-4.22,4.43-7.46,5.84c-3.24,1.4-7.02,2.11-11.33,2.11C569.59,89.56,565.6,88.76,562.07,87.16"/>
	<path class="st3" d="M658.05,34.31v54.37h-13.84v-6.87c-1.77,2.36-4.07,4.21-6.92,5.55c-2.84,1.34-5.94,2.01-9.27,2.01
		c-4.25,0-8.02-0.9-11.28-2.7c-3.28-1.8-5.84-4.45-7.71-7.95c-1.86-3.5-2.8-7.67-2.8-12.51v-31.9h13.74v29.93
		c0,4.32,1.08,7.64,3.24,9.96c2.16,2.32,5.1,3.49,8.83,3.49c3.79,0,6.77-1.16,8.93-3.49c2.16-2.32,3.24-5.64,3.24-9.96V34.31H658.05
		z"/>
	<rect x="671.6" y="16.05" class="st3" width="13.74" height="72.63"/>
	<path class="st3" d="M714.87,45.59v26.3c0,1.84,0.44,3.16,1.32,3.98c0.89,0.82,2.37,1.23,4.47,1.23h6.38v11.58h-8.64
		c-11.58,0-17.37-5.63-17.37-16.88v-26.2h-6.48V34.31h6.48V20.86h13.84v13.44h12.17v11.29H714.87z"/>
	<path class="st3" d="M746.97,86.08c-4.19-2.32-7.48-5.61-9.87-9.87c-2.39-4.25-3.58-9.16-3.58-14.72s1.22-10.47,3.68-14.72
		c2.45-4.25,5.81-7.54,10.06-9.87c4.25-2.32,9-3.48,14.24-3.48c5.23,0,9.97,1.16,14.23,3.48c4.25,2.32,7.6,5.61,10.06,9.87
		c2.45,4.25,3.68,9.16,3.68,14.72s-1.26,10.47-3.78,14.72c-2.52,4.26-5.92,7.54-10.21,9.87c-4.29,2.32-9.08,3.48-14.38,3.48
		C755.86,89.56,751.15,88.4,746.97,86.08 M768.11,75.77c2.19-1.21,3.94-3.03,5.25-5.44c1.3-2.42,1.96-5.36,1.96-8.83
		c0-5.17-1.36-9.14-4.07-11.93c-2.72-2.78-6.04-4.17-9.96-4.17c-3.93,0-7.21,1.39-9.87,4.17c-2.65,2.78-3.98,6.75-3.98,11.93
		c0,5.17,1.29,9.14,3.88,11.92c2.59,2.78,5.84,4.17,9.77,4.17C763.59,77.59,765.92,76.98,768.11,75.77"/>
	<path class="st3" d="M820.23,35.98c2.84-1.63,6.1-2.45,9.77-2.45v14.43h-3.63c-4.32,0-7.57,1.01-9.77,3.04
		c-2.19,2.03-3.29,5.57-3.29,10.6v27.09h-13.74V34.31h13.74v8.44C815.07,39.87,817.38,37.61,820.23,35.98"/>
	<path class="st3" d="M840.15,25.52c-1.61-1.54-2.4-3.45-2.4-5.74c0-2.29,0.8-4.2,2.4-5.74c1.61-1.53,3.61-2.3,6.04-2.3
		c2.42,0,4.43,0.77,6.04,2.3c1.61,1.54,2.41,3.45,2.41,5.74c0,2.3-0.8,4.21-2.41,5.74c-1.61,1.53-3.61,2.3-6.04,2.3
		C843.76,27.83,841.75,27.06,840.15,25.52 M852.96,88.68h-13.74V34.31h13.74V88.68z"/>
	<path class="st3" d="M876.51,86.08c-4.19-2.32-7.48-5.61-9.87-9.87c-2.39-4.25-3.58-9.16-3.58-14.72s1.22-10.47,3.68-14.72
		c2.45-4.25,5.81-7.54,10.06-9.87c4.25-2.32,9-3.48,14.24-3.48c5.23,0,9.97,1.16,14.23,3.48c4.25,2.32,7.6,5.61,10.06,9.87
		c2.45,4.25,3.68,9.16,3.68,14.72s-1.26,10.47-3.78,14.72c-2.52,4.26-5.92,7.54-10.21,9.87c-4.29,2.32-9.08,3.48-14.38,3.48
		C885.41,89.56,880.7,88.4,876.51,86.08 M897.66,75.77c2.19-1.21,3.94-3.03,5.25-5.44c1.3-2.42,1.96-5.36,1.96-8.83
		c0-5.17-1.36-9.14-4.07-11.93c-2.72-2.78-6.04-4.17-9.96-4.17c-3.93,0-7.21,1.39-9.87,4.17c-2.65,2.78-3.98,6.75-3.98,11.93
		c0,5.17,1.29,9.14,3.88,11.92c2.59,2.78,5.84,4.17,9.77,4.17C893.13,77.59,895.47,76.98,897.66,75.77"/>
	<path class="st3" d="M390.32,116.25v48.09c0,6.67-1.93,11.86-5.79,15.55c-3.86,3.7-9.03,5.54-15.51,5.54
		c-6.54,0-11.82-1.9-15.85-5.69c-4.02-3.79-6.04-9.09-6.04-15.9h13.74c0.06,2.94,0.76,5.23,2.11,6.87c1.34,1.63,3.29,2.45,5.84,2.45
		c2.49,0,4.38-0.78,5.69-2.35c1.31-1.57,1.97-3.73,1.97-6.48v-48.09H390.32z"/>
	<path class="st3" d="M457.64,130.38v54.37h-13.84v-6.87c-1.77,2.36-4.07,4.21-6.92,5.54c-2.84,1.34-5.94,2.01-9.27,2.01
		c-4.25,0-8.02-0.9-11.28-2.7c-3.28-1.8-5.84-4.45-7.71-7.95c-1.86-3.5-2.8-7.67-2.8-12.51v-31.9h13.74v29.93
		c0,4.32,1.08,7.64,3.24,9.96c2.16,2.32,5.1,3.49,8.83,3.49c3.79,0,6.77-1.16,8.93-3.49c2.16-2.32,3.24-5.64,3.24-9.96v-29.93
		H457.64z"/>
	<path class="st3" d="M491.84,132.05c2.84-1.63,6.1-2.45,9.77-2.45v14.43h-3.63c-4.32,0-7.57,1.01-9.77,3.04
		c-2.19,2.03-3.29,5.57-3.29,10.6v27.09h-13.74v-54.37h13.74v8.44C486.69,135.95,489,133.69,491.84,132.05"/>
	<path class="st3" d="M528.99,116.25l-22.58,10.31v-9.81l22.58-11.68V116.25z M525.16,184.75h-13.74v-54.37h13.74V184.75z"/>
	<path class="st3" d="M539.05,142.75c2.19-4.25,5.18-7.52,8.98-9.81c3.79-2.29,8.02-3.44,12.66-3.44c3.53,0,6.9,0.77,10.11,2.31
		c3.21,1.53,5.76,3.58,7.65,6.13v-25.81h13.94v72.63h-13.94v-8.05c-1.7,2.68-4.09,4.84-7.16,6.48c-3.08,1.63-6.64,2.45-10.7,2.45
		c-4.58,0-8.77-1.18-12.56-3.53c-3.8-2.35-6.79-5.67-8.98-9.96c-2.2-4.29-3.29-9.21-3.29-14.77
		C535.76,151.88,536.86,147,539.05,142.75 M576.59,148.98c-1.31-2.39-3.07-4.22-5.3-5.5c-2.22-1.28-4.61-1.91-7.17-1.91
		c-2.55,0-4.9,0.62-7.06,1.87c-2.16,1.24-3.91,3.06-5.25,5.44c-1.34,2.39-2.01,5.22-2.01,8.49c0,3.27,0.67,6.13,2.01,8.59
		c1.34,2.45,3.11,4.33,5.3,5.64c2.19,1.31,4.53,1.96,7.02,1.96c2.55,0,4.94-0.64,7.17-1.91c2.22-1.28,3.99-3.11,5.3-5.5
		c1.31-2.38,1.96-5.25,1.96-8.58C578.55,154.23,577.9,151.37,576.59,148.98"/>
	<path class="st3" d="M606.77,121.6c-1.61-1.54-2.41-3.45-2.41-5.74c0-2.29,0.8-4.2,2.41-5.74c1.6-1.53,3.61-2.3,6.04-2.3
		c2.42,0,4.43,0.77,6.04,2.3c1.6,1.54,2.4,3.45,2.4,5.74c0,2.3-0.8,4.21-2.4,5.74c-1.61,1.53-3.62,2.3-6.04,2.3
		C610.39,123.9,608.37,123.14,606.77,121.6 M619.57,184.75h-13.74v-54.37h13.74V184.75z"/>
	<path class="st3" d="M633.02,143.2c2.29-4.35,5.46-7.72,9.52-10.11c4.06-2.39,8.7-3.59,13.94-3.59c6.73,0,12.32,1.74,16.73,5.2
		c4.42,3.48,7.38,8.34,8.88,14.61h-14.82c-0.78-2.43-2.11-4.33-3.98-5.71c-1.86-1.38-4.17-2.07-6.92-2.07
		c-3.93,0-7.04,1.46-9.33,4.4c-2.29,2.93-3.44,7.09-3.44,12.48c0,5.33,1.14,9.45,3.44,12.39c2.29,2.93,5.4,4.39,9.33,4.39
		c5.56,0,9.19-2.56,10.89-7.68h14.82c-1.51,6.07-4.49,10.89-8.93,14.45c-4.45,3.57-10.01,5.36-16.68,5.36
		c-5.24,0-9.88-1.2-13.94-3.59c-4.06-2.39-7.23-5.76-9.52-10.11c-2.29-4.35-3.44-9.42-3.44-15.21
		C629.59,152.61,630.73,147.54,633.02,143.2"/>
	<path class="st3" d="M702.21,182.15c-4.19-2.32-7.48-5.61-9.87-9.87c-2.39-4.25-3.58-9.16-3.58-14.72s1.22-10.47,3.68-14.72
		c2.45-4.25,5.81-7.54,10.06-9.87c4.25-2.32,9-3.48,14.24-3.48c5.23,0,9.97,1.16,14.23,3.48c4.25,2.32,7.6,5.61,10.06,9.87
		c2.45,4.25,3.68,9.16,3.68,14.72s-1.26,10.47-3.78,14.72c-2.52,4.26-5.92,7.54-10.21,9.87c-4.29,2.32-9.08,3.48-14.38,3.48
		C711.11,185.64,706.4,184.48,702.21,182.15 M723.36,171.85c2.19-1.21,3.94-3.03,5.25-5.44c1.3-2.42,1.96-5.36,1.96-8.83
		c0-5.17-1.36-9.14-4.07-11.93c-2.72-2.78-6.04-4.17-9.96-4.17c-3.93,0-7.21,1.39-9.87,4.17c-2.65,2.78-3.98,6.75-3.98,11.93
		c0,5.17,1.29,9.14,3.88,11.92c2.59,2.78,5.84,4.17,9.77,4.17C718.83,173.66,721.17,173.06,723.36,171.85"/>
	<path class="st132" d="M265.4,251.72c-1.46,1.57-2.94,3.13-4.48,4.67l-97.69,97.69l-97.69-97.69
		c-13.46-13.44-23.55-28.97-30.31-45.56l31.9-31.9l75.6,75.57l11.85-11.85l-4.67-4.7l10.11-10.11l-3.46-3.46l40.75-40.75
		L265.4,251.72z"/>
	<path class="st133" d="M215.17,40.29l-10.14,10.11l3.46,3.46L97.28,165.08l-3.46-3.44l-10.11,10.11l-4.7-4.7l-11.87,11.87
		l-31.9,31.9C14.92,160.9,25.04,101.52,65.54,61.01c26.96-26.96,62.32-40.45,97.69-40.45c17.7,0,35.42,3.38,52.1,10.17l-4.86,4.86
		L215.17,40.29z"/>
	<path class="st132" d="M301.37,158.7c0,19.54-4.12,39.08-12.37,57.18l-61.97-61.99l40.72-40.72l3.46,3.46l10.14-10.14l4.7,4.7
		l4.97-5C297.94,122.95,301.37,140.84,301.37,158.7"/>
	<g>
		<path class="st3" d="M820.9,136.7c-1.54-2.87-3.65-5.06-6.34-6.57c-2.69-1.5-5.83-2.25-9.41-2.25c-3.97,0-7.49,0.92-10.57,2.74
			c-3.07,1.83-5.48,4.44-7.21,7.84c-1.73,3.4-2.59,7.32-2.59,11.76c0,4.57,0.88,8.56,2.64,11.96c1.76,3.4,4.21,6.01,7.35,7.84
			c3.14,1.83,6.79,2.74,10.95,2.74c5.12,0,9.32-1.39,12.58-4.17c3.27-2.78,5.41-6.65,6.44-11.61h-23.05V146.5H838v11.96
			c-0.9,4.77-2.82,9.18-5.76,13.23c-2.95,4.05-6.74,7.3-11.38,9.75c-4.64,2.45-9.85,3.68-15.61,3.68c-6.47,0-12.31-1.49-17.53-4.46
			c-5.22-2.97-9.32-7.11-12.3-12.4c-2.98-5.29-4.47-11.3-4.47-18.04c0-6.73,1.49-12.76,4.47-18.08c2.98-5.33,7.08-9.47,12.3-12.45
			c5.22-2.97,11.03-4.46,17.43-4.46c7.56,0,14.12,1.88,19.69,5.64c5.57,3.76,9.41,9.03,11.53,15.83H820.9z"/>
		<path class="st3" d="M866.77,131.9c2.79-1.63,5.97-2.45,9.56-2.45v14.41h-3.55c-4.23,0-7.41,1.01-9.56,3.04
			c-2.15,2.03-3.22,5.55-3.22,10.59v27.05h-13.45v-54.3H860v8.43C861.73,135.79,863.99,133.53,866.77,131.9z"/>
		<path class="st3" d="M883.68,142.58c2.14-4.25,5.06-7.51,8.74-9.8c3.68-2.29,7.8-3.43,12.34-3.43c3.97,0,7.44,0.82,10.42,2.45
			c2.98,1.63,5.36,3.69,7.16,6.18v-7.74h13.54v54.3h-13.54v-7.94c-1.73,2.55-4.12,4.66-7.16,6.32c-3.04,1.67-6.55,2.5-10.52,2.5
			c-4.48,0-8.57-1.18-12.25-3.53c-3.68-2.35-6.6-5.67-8.74-9.95c-2.15-4.28-3.22-9.2-3.22-14.75
			C880.46,151.7,881.53,146.83,883.68,142.58z M920.42,148.81c-1.28-2.38-3.01-4.21-5.19-5.49c-2.18-1.27-4.51-1.91-7.01-1.91
			c-2.5,0-4.8,0.62-6.92,1.86c-2.11,1.24-3.83,3.06-5.14,5.44c-1.31,2.39-1.97,5.21-1.97,8.48c0,3.27,0.65,6.13,1.97,8.58
			c1.31,2.45,3.04,4.33,5.19,5.64c2.14,1.31,4.43,1.96,6.87,1.96c2.5,0,4.83-0.64,7.01-1.91c2.18-1.27,3.91-3.1,5.19-5.49
			c1.28-2.38,1.92-5.24,1.92-8.58C922.34,154.05,921.7,151.19,920.42,148.81z"/>
		<path class="st3" d="M963.26,141.51v26.27c0,1.83,0.43,3.15,1.3,3.97c0.87,0.82,2.32,1.23,4.37,1.23h6.24v11.57h-8.45
			c-11.34,0-17-5.62-17-16.86v-26.17h-6.34v-11.27h6.34V116.8h13.54v13.43h11.91v11.27H963.26z"/>
		<path class="st3" d="M1033.67,130.23v54.3h-13.54v-6.86c-1.73,2.35-3.99,4.2-6.77,5.54c-2.79,1.34-5.81,2.01-9.08,2.01
			c-4.16,0-7.85-0.9-11.05-2.7c-3.2-1.8-5.71-4.44-7.54-7.94c-1.83-3.5-2.74-7.66-2.74-12.5v-31.86h13.45v29.9
			c0,4.31,1.06,7.63,3.17,9.95c2.11,2.32,4.99,3.48,8.64,3.48c3.71,0,6.63-1.16,8.74-3.48c2.11-2.32,3.17-5.64,3.17-9.95v-29.9
			H1033.67z"/>
		<path class="st3" d="M1046.4,121.46c-1.57-1.53-2.35-3.45-2.35-5.73c0-2.29,0.78-4.2,2.35-5.73c1.57-1.54,3.54-2.3,5.91-2.3
			c2.37,0,4.34,0.77,5.91,2.3c1.57,1.54,2.35,3.45,2.35,5.73c0,2.29-0.79,4.2-2.35,5.73c-1.57,1.54-3.54,2.3-5.91,2.3
			C1049.94,123.76,1047.97,123,1046.4,121.46z M1058.94,130.23v54.3h-13.45v-54.3H1058.94z"/>
		<path class="st3" d="M1086.41,141.51v26.27c0,1.83,0.43,3.15,1.3,3.97c0.87,0.82,2.32,1.23,4.37,1.23h6.24v11.57h-8.45
			c-11.34,0-17-5.62-17-16.86v-26.17h-6.34v-11.27h6.34V116.8h13.54v13.43h11.91v11.27H1086.41z"/>
		<path class="st3" d="M1116.38,181.94c-4.1-2.32-7.32-5.6-9.65-9.85c-2.34-4.25-3.51-9.15-3.51-14.7c0-5.55,1.2-10.45,3.6-14.7
			c2.4-4.25,5.68-7.53,9.85-9.85c4.16-2.32,8.81-3.48,13.93-3.48c5.12,0,9.76,1.16,13.93,3.48c4.16,2.32,7.44,5.6,9.85,9.85
			c2.4,4.25,3.6,9.15,3.6,14.7c0,5.56-1.23,10.46-3.7,14.7c-2.47,4.25-5.8,7.53-9.99,9.85c-4.19,2.32-8.89,3.48-14.07,3.48
			C1125.09,185.42,1120.48,184.26,1116.38,181.94z M1137.08,171.65c2.14-1.21,3.86-3.02,5.14-5.44c1.28-2.42,1.92-5.36,1.92-8.82
			c0-5.16-1.33-9.13-3.99-11.91c-2.66-2.78-5.91-4.17-9.75-4.17c-3.84,0-7.06,1.39-9.65,4.17c-2.59,2.78-3.89,6.75-3.89,11.91
			c0,5.16,1.26,9.13,3.79,11.91c2.53,2.78,5.71,4.17,9.56,4.17C1132.65,173.46,1134.93,172.86,1137.08,171.65z"/>
	</g>
</g>
</svg>
