<?xml version="1.0" encoding="utf-8"?>
<!-- Generator: Adobe Illustrator 24.2.0, SVG Export Plug-In . SVG Version: 6.00 Build 0)  -->
<svg version="1.1" id="PRINT" xmlns="http://www.w3.org/2000/svg" xmlns:xlink="http://www.w3.org/1999/xlink" x="0px" y="0px"
	 viewBox="0 0 1148.37 416.15" style="enable-background:new 0 0 1148.37 416.15;" xml:space="preserve">
<style type="text/css">
	.st0{clip-path:url(#SVGID_2_);fill:#FBFAFA;}
	.st1{clip-path:url(#SVGID_2_);}
	.st2{fill:#F6BBD6;}
	.st3{fill:#3B328A;}
	.st4{fill:#E8E5F4;}
	.st5{opacity:0.37;fill:#F6BBD6;}
	.st6{fill:#FAD9EA;}
	.st7{fill:#3B328A;stroke:#3B328A;stroke-width:0.25;stroke-miterlimit:10;}
	.st8{clip-path:url(#SVGID_4_);fill:#FBFAFA;}
	.st9{clip-path:url(#SVGID_4_);}
	.st10{clip-path:url(#SVGID_6_);}
	.st11{fill:#102B42;}
	.st12{fill:#FFFFFF;}
	.st13{font-family:'Montserrat-Bold';}
	.st14{font-size:60.4632px;}
	.st15{fill:#31385E;}
	.st16{fill:#9C345E;}
	.st17{fill:#324798;}
</style>
<g>
	<g>
		<g>
			<g>
				<path class="st12" d="M182.81,213c0,13.7-5,24.51-15.01,32.44c-8.92,6.99-19.97,10.47-33.14,10.47
					c-13.34,0-24.39-3.49-33.14-10.47c-9.9-7.77-14.84-18.59-14.84-32.44v-88.35h38.14v84.95c0,6.72,3.28,10.09,9.84,10.09
					c6.67,0,10-3.36,10-10.09v-84.95h38.14V213z"/>
			</g>
			<g>
				<path class="st12" d="M300.9,254.64h-38.14l-35.5-59.68v59.68h-38.14V124.65h35.66l37.98,62.55v-62.55h38.14V254.64z"/>
			</g>
			<g>
				<path class="st12" d="M384.84,254.64h-76.61V124.65h76.61v32.44h-38.47v16.77h36.48v32.44h-36.48v15.72h38.47V254.64z"/>
			</g>
			<g>
				<path class="st12" d="M540.07,254.64h-38.3l-9.63-65.8l-15.66,65.8h-21.68l-17.16-65.8l-10.33,65.8H389l22.32-129.98h39.16
					l14.48,57.31l15.01-57.31h38.47L540.07,254.64z"/>
			</g>
			<g>
				<path class="st12" d="M584.4,254.64H546.1V124.65h38.31V254.64z"/>
			</g>
		</g>
		<g>
			<g>
				<path class="st12" d="M89.26,270.6v12.66c0,2.57,1.19,5.89,4.8,5.89c3.61,0,4.8-3.32,4.8-5.89V270.6h2.59v13.1
					c0,4.78-3.2,8.08-7.38,8.08c-4.18,0-7.38-3.3-7.38-8.08v-13.1H89.26z"/>
			</g>
			<g>
				<path class="st12" d="M107.08,270.6h3.39l10.51,16.98h0.05V270.6h2.59v20.65h-3.29l-10.61-16.98h-0.05v16.98h-2.59V270.6z"/>
			</g>
			<g>
				<path class="st12" d="M129.62,270.6h2.58v20.65h-2.58V270.6z"/>
			</g>
			<g>
				<path class="st12" d="M135.58,270.6h2.99l5.6,16.8h0.06l5.82-16.8h2.83l-7.52,20.65h-2.42L135.58,270.6z"/>
			</g>
			<g>
				<path class="st12" d="M156.25,270.6h12.31v2.62h-9.73v6.16h9.05v2.62h-9.05v6.62h10.21v2.62h-12.8V270.6z"/>
			</g>
			<g>
				<path class="st12" d="M173.8,270.6h6.71c4.88,0,6.12,3.18,6.12,5.77c0,2.62-1.81,5.11-4.69,5.45l5.42,9.42h-3.24l-4.85-9.09
					h-2.89v9.09h-2.58V270.6z M176.38,279.71h3.39c2.05,0,4.1-0.52,4.1-3.33c0-2.8-2.05-3.32-4.1-3.32h-3.39V279.71z"/>
			</g>
			<g>
				<path class="st12" d="M191.91,286.94c0.91,1.52,2.5,2.21,4.04,2.21c1.7,0,3.8-1.17,3.8-3.44c0-4.75-9.4-1.8-9.4-9.86
					c0-2.42,1.88-5.77,6.47-5.77c2.08,0,4.07,0.47,5.49,2.36l-2.1,2.08c-0.65-1.08-1.91-1.81-3.39-1.81c-2.86,0-3.72,1.87-3.72,3.15
					c0,5.22,9.4,2.11,9.4,9.54c0,4-2.96,6.39-6.63,6.39c-2.45,0-4.8-0.9-6.09-2.85L191.91,286.94z"/>
			</g>
			<g>
				<path class="st12" d="M207.41,270.6H210v20.65h-2.59V270.6z"/>
			</g>
			<g>
				<path class="st12" d="M215.55,270.6h6.65c8.06,0,10.02,6.5,10.02,10.32c0,5.28-3.64,10.33-10.45,10.33h-6.22V270.6z
					 M218.14,288.63h3.26c4.36,0,8.08-2.59,8.08-7.7c0-2.62-1.27-7.7-7.46-7.7h-3.88V288.63z"/>
			</g>
			<g>
				<path class="st12" d="M243.02,270.6h2.35l8.16,20.65h-3.01l-1.92-5.1h-9.08l-1.89,5.1h-3.02L243.02,270.6z M247.65,283.7
					l-3.56-9.48h-0.05l-3.61,9.48H247.65z"/>
			</g>
			<g>
				<path class="st12" d="M256.66,270.6h6.66c8.05,0,10.02,6.5,10.02,10.32c0,5.28-3.64,10.33-10.46,10.33h-6.22V270.6z
					 M259.25,288.63h3.26c4.37,0,8.08-2.59,8.08-7.7c0-2.62-1.26-7.7-7.46-7.7h-3.88V288.63z"/>
			</g>
			<g>
				<path class="st12" d="M286.71,270.6h12.32v2.62h-9.73v6.16h9.05v2.62h-9.05v6.62h10.21v2.62h-12.8V270.6z"/>
			</g>
			<g>
				<path class="st12" d="M304.83,286.94c0.92,1.52,2.51,2.21,4.05,2.21c1.7,0,3.8-1.17,3.8-3.44c0-4.75-9.4-1.8-9.4-9.86
					c0-2.42,1.89-5.77,6.47-5.77c2.08,0,4.07,0.47,5.5,2.36l-2.1,2.08c-0.65-1.08-1.92-1.81-3.4-1.81c-2.86,0-3.72,1.87-3.72,3.15
					c0,5.22,9.4,2.11,9.4,9.54c0,4-2.96,6.39-6.63,6.39c-2.45,0-4.8-0.9-6.09-2.85L304.83,286.94z"/>
			</g>
			<g>
				<path class="st12" d="M324.32,273.23h-6.14v-2.62h14.87v2.62h-6.14v18.03h-2.59V273.23z"/>
			</g>
			<g>
				<path class="st12" d="M340.38,270.6h2.34l8.16,20.65h-3.02l-1.91-5.1h-9.08l-1.89,5.1h-3.02L340.38,270.6z M345.01,283.7
					l-3.55-9.48h-0.05l-3.61,9.48H345.01z"/>
			</g>
			<g>
				<path class="st12" d="M355.96,273.23h-6.14v-2.62h14.87v2.62h-6.14v18.03h-2.59V273.23z"/>
			</g>
			<g>
				<path class="st12" d="M372.02,270.6h2.35l8.16,20.65h-3.02l-1.91-5.1h-9.08l-1.89,5.1h-3.02L372.02,270.6z M376.66,283.7
					l-3.55-9.48h-0.06l-3.61,9.48H376.66z"/>
			</g>
			<g>
				<path class="st12" d="M386.1,270.6h2.59v18.03h8.75v2.62H386.1V270.6z"/>
			</g>
			<g>
				<path class="st12" d="M409.31,270.6h6.65c8.06,0,10.03,6.5,10.03,10.32c0,5.28-3.64,10.33-10.46,10.33h-6.22V270.6z
					 M411.9,288.63h3.26c4.36,0,8.08-2.59,8.08-7.7c0-2.62-1.27-7.7-7.46-7.7h-3.88V288.63z"/>
			</g>
			<g>
				<path class="st12" d="M430.79,270.6h12.31v2.62h-9.72v6.16h9.05v2.62h-9.05v6.62h10.21v2.62h-12.8V270.6z"/>
			</g>
			<g>
				<path class="st12" d="M456.72,270.6h3.85l6.06,15.64h0.11l6.01-15.64h3.85v20.65h-2.59v-16.98h-0.05l-6.44,16.98h-1.72
					l-6.44-16.98h-0.05v16.98h-2.59V270.6z"/>
			</g>
			<g>
				<path class="st12" d="M482.41,270.6H485v20.65h-2.59V270.6z"/>
			</g>
			<g>
				<path class="st12" d="M490.98,270.6h2.59v18.03h8.75v2.62h-11.34V270.6z"/>
			</g>
			<g>
				<path class="st12" d="M512.03,270.6h2.34l8.16,20.65h-3.02l-1.91-5.1h-9.08l-1.89,5.1h-3.02L512.03,270.6z M516.67,283.7
					l-3.56-9.48h-0.05l-3.61,9.48H516.67z"/>
			</g>
			<g>
				<path class="st12" d="M542.35,279.71v10.18c-1.86,1.22-4.91,1.9-7.22,1.9c-6.47,0-10.21-4.99-10.21-10.85
					c0-6.13,4.13-10.85,9.94-10.85c3.5,0,5.63,1.03,7.11,2.69l-1.83,2.12c-1.56-1.63-3.37-2.19-5.28-2.19
					c-4.36,0-7.19,3.71-7.19,8.23c0,4.67,3.2,8.23,7.41,8.23c1.81,0,3.53-0.38,4.69-1.07v-5.75h-4.23v-2.62H542.35z"/>
			</g>
			<g>
				<path class="st12" d="M548.15,270.6h6.71c4.88,0,6.11,3.18,6.11,5.77c0,2.62-1.8,5.11-4.69,5.45l5.41,9.42h-3.23l-4.85-9.09
					h-2.88v9.09h-2.59V270.6z M550.74,279.71h3.39c2.05,0,4.1-0.52,4.1-3.33c0-2.8-2.05-3.32-4.1-3.32h-3.39V279.71z"/>
			</g>
			<g>
				<path class="st12" d="M564.52,280.93c0-6.13,4.13-10.85,9.94-10.85c5.82,0,9.94,4.72,9.94,10.85c0,6.13-4.13,10.85-9.94,10.85
					C568.64,291.78,564.52,287.06,564.52,280.93z M581.65,280.93c0-4.52-2.83-8.23-7.19-8.23c-4.36,0-7.19,3.71-7.19,8.23
					c0,4.53,2.83,8.23,7.19,8.23C578.82,289.16,581.65,285.46,581.65,280.93z"/>
			</g>
		</g>
	</g>
	<g>
		<rect x="625" y="124.51" class="st12" width="2.88" height="167.42"/>
	</g>
	<text transform="matrix(0.9238 0 0 1 667.2257 194.5086)"><tspan x="0" y="0" class="st12 st13 st14">Vicerrectorado</tspan><tspan x="0" y="59.91" class="st12 st13 st14">de Vinculación</tspan></text>
</g>
</svg>
