<?xml version="1.0" encoding="utf-8"?>
<!-- Generator: Adobe Illustrator 24.2.0, SVG Export Plug-In . SVG Version: 6.00 Build 0)  -->
<svg version="1.1" id="Capa_1" xmlns="http://www.w3.org/2000/svg" xmlns:xlink="http://www.w3.org/1999/xlink" x="0px" y="0px"
	 viewBox="0 0 1080 591.42" style="enable-background:new 0 0 1080 591.42;" xml:space="preserve">
<style type="text/css">
	.st0{fill:#FFFFFF;}
	.st1{fill:#F3F2F2;}
	.st2{fill:#0E2E45;}
	.st3{fill:#EC7D17;}
	.st4{clip-path:url(#SVGID_2_);fill:url(#SVGID_3_);}
	.st5{fill:url(#SVGID_4_);}
	.st6{fill:#F09418;}
	.st7{fill:#F09419;}
	.st8{fill:#F09319;}
	.st9{fill:#F09219;}
	.st10{fill:#F0921A;}
	.st11{fill:#F0911A;}
	.st12{fill:#F0901A;}
	.st13{fill:#EF901A;}
	.st14{fill:#EF8F1B;}
	.st15{fill:#EF8E1B;}
	.st16{fill:#EF8D1B;}
	.st17{fill:#EF8D1C;}
	.st18{fill:#EF8C1C;}
	.st19{fill:#EF8B1C;}
	.st20{fill:#EF8A1D;}
	.st21{fill:#EF891D;}
	.st22{fill:#EF881D;}
	.st23{fill:#EF881E;}
	.st24{fill:#EF871E;}
	.st25{fill:#EE871E;}
	.st26{fill:#EE861E;}
	.st27{fill:#EE851E;}
	.st28{fill:#EE851F;}
	.st29{fill:#EE841F;}
	.st30{fill:#EE831F;}
	.st31{fill:#EE821F;}
	.st32{fill:#EE811F;}
	.st33{fill:#EE8120;}
	.st34{fill:#EE8020;}
	.st35{fill:#EE7F20;}
	.st36{fill:#EE7E20;}
	.st37{fill:#EE7E21;}
	.st38{fill:#EE7D21;}
	.st39{fill:#ED7D21;}
	.st40{fill:#ED7C21;}
	.st41{fill:#ED7B21;}
	.st42{fill:#ED7A21;}
	.st43{fill:#ED7A22;}
	.st44{fill:#ED7922;}
	.st45{fill:#ED7822;}
	.st46{fill:#ED7722;}
	.st47{fill:#ED7622;}
	.st48{fill:#ED7522;}
	.st49{fill:#ED7523;}
	.st50{fill:#ED7423;}
	.st51{fill:#ED7323;}
	.st52{fill:#ED7223;}
	.st53{fill:#EC7223;}
	.st54{fill:#EC7123;}
	.st55{fill:#EC7023;}
	.st56{fill:#EC7024;}
	.st57{fill:#EC6F24;}
	.st58{fill:#EC6E24;}
	.st59{fill:#EC6D24;}
	.st60{fill:#EC6C24;}
	.st61{fill:#EC6B24;}
	.st62{fill:#EC6A24;}
	.st63{fill:#EC6924;}
	.st64{fill:#EC6925;}
	.st65{fill:#EC6825;}
	.st66{fill:#EC6725;}
	.st67{fill:#EB6725;}
	.st68{fill:#EB6625;}
	.st69{fill:#EB6525;}
	.st70{fill:#EB6425;}
	.st71{fill:#EB6325;}
	.st72{fill:#EB6225;}
	.st73{fill:#EB6125;}
	.st74{fill:#EB6126;}
	.st75{fill:#EB6026;}
	.st76{fill:#EB5F26;}
	.st77{fill:#EB5E26;}
	.st78{fill:#EB5D26;}
	.st79{fill:#EB5C26;}
	.st80{fill:#EB5B26;}
	.st81{fill:#EB5A26;}
	.st82{fill:#264863;}
	.st83{fill:#366181;}
	.st84{fill:#F4981B;}
	.st85{fill:#1E3448;}
	.st86{fill:#A09FA0;}
	.st87{fill:#EF7E18;}
	.st88{clip-path:url(#SVGID_6_);fill:url(#SVGID_7_);}
	.st89{fill:url(#SVGID_8_);}
	.st90{clip-path:url(#SVGID_10_);fill:url(#SVGID_11_);}
	.st91{fill:url(#SVGID_12_);}
	.st92{clip-path:url(#SVGID_14_);fill:url(#SVGID_15_);}
	.st93{fill:url(#SVGID_16_);}
	.st94{clip-path:url(#SVGID_18_);fill:url(#SVGID_19_);}
	.st95{fill:url(#SVGID_20_);}
	.st96{clip-path:url(#SVGID_22_);fill:url(#SVGID_23_);}
	.st97{fill:url(#SVGID_24_);}
</style>
<g>
	<g>
		<path class="st0" d="M241.93,311.8c0,24.18-9.58,43.26-28.74,57.24c-17.09,12.33-38.25,18.49-63.48,18.49
			c-25.55,0-46.71-6.16-63.49-18.49c-18.95-13.72-28.43-32.81-28.43-57.24V155.91h73.07v149.9c0,11.86,6.28,17.79,18.85,17.79
			c12.77,0,19.16-5.93,19.16-17.79v-149.9h73.06V311.8z"/>
		<polygon class="st0" points="468.15,385.28 395.09,385.28 327.09,279.95 327.09,385.28 254.02,385.28 254.02,155.91 
			322.33,155.91 395.09,266.29 395.09,155.91 468.15,155.91 		"/>
		<polygon class="st0" points="628.95,385.28 482.19,385.28 482.19,155.91 628.95,155.91 628.95,213.16 555.26,213.16 
			555.26,242.75 625.13,242.75 625.13,300 555.26,300 555.26,327.72 628.95,327.72 		"/>
		<polygon class="st0" points="926.29,385.28 852.92,385.28 834.45,269.16 804.46,385.28 762.95,385.28 730.07,269.16 
			710.29,385.28 636.91,385.28 679.68,155.91 754.69,155.91 782.42,257.04 811.17,155.91 884.86,155.91 		"/>
		<rect x="937.84" y="155.91" class="st0" width="73.38" height="229.36"/>
		<path class="st0" d="M57.11,413.35h4.97v22.39c0,2.72,0.75,5.14,2.25,7.25c1.5,2.12,3.82,3.17,6.96,3.17
			c3.14,0,5.46-1.06,6.96-3.17c1.5-2.11,2.25-4.53,2.25-7.25v-22.39h4.96v23.17c0,4.2-1.34,7.63-4.04,10.29
			c-2.69,2.67-6.07,4-10.14,4s-7.45-1.33-10.14-4c-2.69-2.66-4.04-6.09-4.04-10.29V413.35z"/>
		<polygon class="st0" points="96.28,449.88 96.28,413.35 102.8,413.35 122.98,443.38 123.08,443.38 123.08,413.35 128.05,413.35 
			128.05,449.88 121.74,449.88 101.35,419.85 101.25,419.85 101.25,449.88 		"/>
		<rect x="139.54" y="413.35" class="st0" width="4.96" height="36.53"/>
		<polygon class="st0" points="165.1,449.88 150.97,413.35 156.72,413.35 167.48,443.07 167.58,443.07 178.76,413.35 184.19,413.35 
			169.76,449.88 		"/>
		<polygon class="st0" points="190.66,449.88 190.66,413.35 214.31,413.35 214.31,417.99 195.63,417.99 195.63,428.89 
			213.02,428.89 213.02,433.53 195.63,433.53 195.63,445.24 215.24,445.24 215.24,449.88 		"/>
		<path class="st0" d="M224.35,449.88v-36.53h12.88c2.24,0,4.17,0.31,5.77,0.93c1.6,0.62,2.82,1.45,3.65,2.5
			c0.83,1.05,1.42,2.13,1.79,3.23c0.36,1.1,0.54,2.29,0.54,3.56c0,2.41-0.83,4.54-2.49,6.4c-1.66,1.86-3.83,2.94-6.52,3.25
			l10.4,16.66h-6.21l-9.31-16.1h-5.54v16.1H224.35z M229.31,417.69v11.76h6.52c5.24,0,7.86-1.96,7.86-5.88
			c0-3.92-2.62-5.88-7.86-5.88H229.31z"/>
		<path class="st0" d="M255.03,445.75l4.09-3.51c1.72,2.62,4.31,3.93,7.76,3.93c1.83,0,3.5-0.55,5.02-1.66
			c1.52-1.1,2.28-2.58,2.28-4.43c0-1.51-0.62-2.72-1.87-3.61c-1.24-0.89-2.75-1.6-4.53-2.11c-1.78-0.52-3.54-1.12-5.3-1.81
			c-1.76-0.69-3.26-1.86-4.5-3.51c-1.24-1.65-1.86-3.78-1.86-6.4c0-1.14,0.24-2.28,0.72-3.43c0.48-1.16,1.2-2.24,2.15-3.28
			c0.95-1.03,2.25-1.88,3.91-2.53c1.66-0.66,3.53-0.98,5.64-0.98c4.76,0,8.28,1.39,10.55,4.18l-4.03,3.66
			c-0.62-0.96-1.51-1.73-2.66-2.32c-1.15-0.58-2.44-0.88-3.85-0.88c-2.48,0-4.3,0.58-5.43,1.73c-1.14,1.15-1.71,2.44-1.71,3.85
			c0,1.44,0.45,2.63,1.35,3.56c0.9,0.93,2.01,1.58,3.34,1.98c1.33,0.4,2.77,0.87,4.35,1.42c1.57,0.55,3.02,1.12,4.35,1.73
			c1.33,0.6,2.44,1.6,3.34,3c0.89,1.39,1.34,3.12,1.34,5.18c0,3.44-1.22,6.18-3.65,8.23c-2.43,2.04-5.46,3.07-9.08,3.07
			c-2.45,0-4.71-0.42-6.78-1.27C257.87,448.7,256.24,447.44,255.03,445.75"/>
		<rect x="288.87" y="413.35" class="st0" width="4.97" height="36.53"/>
		<path class="st0" d="M304.5,449.88v-36.53h12.78c2.97,0,5.61,0.42,7.94,1.26c2.33,0.85,4.18,1.91,5.56,3.2
			c1.38,1.29,2.52,2.78,3.41,4.46c0.9,1.69,1.51,3.3,1.84,4.83c0.33,1.53,0.49,3.04,0.49,4.52c0,2.37-0.44,4.64-1.32,6.81
			c-0.88,2.17-2.14,4.11-3.78,5.83c-1.64,1.72-3.75,3.09-6.34,4.1c-2.59,1.01-5.47,1.53-8.64,1.53H304.5z M309.46,418v27.24h6.26
			c4.41,0,8.1-1.19,11.07-3.56c2.97-2.38,4.45-5.73,4.45-10.06c0-1.07-0.11-2.14-0.34-3.23c-0.23-1.08-0.66-2.27-1.29-3.56
			c-0.64-1.29-1.47-2.42-2.48-3.41c-1.02-0.98-2.41-1.79-4.17-2.45c-1.76-0.65-3.78-0.98-6.05-0.98H309.46z"/>
		<path class="st0" d="M341.08,449.88l16.14-36.53h4.5l15.67,36.53h-5.79l-3.67-9.03h-17.44l-3.62,9.03H341.08z M352.26,436.52
			h13.87l-6.83-16.77h-0.1L352.26,436.52z"/>
		<path class="st0" d="M383.41,449.88v-36.53h12.78c2.97,0,5.61,0.42,7.94,1.26c2.33,0.85,4.18,1.91,5.56,3.2
			c1.38,1.29,2.52,2.78,3.42,4.46c0.9,1.69,1.51,3.3,1.84,4.83c0.33,1.53,0.49,3.04,0.49,4.52c0,2.37-0.44,4.64-1.32,6.81
			c-0.88,2.17-2.14,4.11-3.78,5.83c-1.64,1.72-3.75,3.09-6.34,4.1c-2.59,1.01-5.47,1.53-8.64,1.53H383.41z M388.37,418v27.24h6.26
			c4.41,0,8.11-1.19,11.07-3.56c2.97-2.38,4.45-5.73,4.45-10.06c0-1.07-0.11-2.14-0.34-3.23c-0.23-1.08-0.66-2.27-1.29-3.56
			c-0.64-1.29-1.47-2.42-2.48-3.41c-1.02-0.98-2.4-1.79-4.16-2.45c-1.76-0.65-3.78-0.98-6.06-0.98H388.37z"/>
		<polygon class="st0" points="441.1,449.88 441.1,413.35 464.75,413.35 464.75,417.99 446.06,417.99 446.06,428.89 463.45,428.89 
			463.45,433.53 446.06,433.53 446.06,445.24 465.68,445.24 465.68,449.88 		"/>
		<path class="st0" d="M471.78,445.75l4.09-3.51c1.72,2.62,4.31,3.93,7.76,3.93c1.83,0,3.5-0.55,5.02-1.66
			c1.52-1.1,2.28-2.58,2.28-4.43c0-1.51-0.62-2.72-1.87-3.61c-1.24-0.89-2.75-1.6-4.53-2.11c-1.78-0.52-3.54-1.12-5.3-1.81
			c-1.76-0.69-3.26-1.86-4.5-3.51c-1.24-1.65-1.86-3.78-1.86-6.4c0-1.14,0.24-2.28,0.72-3.43c0.48-1.16,1.2-2.24,2.15-3.28
			c0.95-1.03,2.25-1.88,3.91-2.53c1.66-0.66,3.53-0.98,5.64-0.98c4.76,0,8.28,1.39,10.55,4.18l-4.04,3.66
			c-0.62-0.96-1.51-1.73-2.66-2.32c-1.15-0.58-2.44-0.88-3.85-0.88c-2.48,0-4.3,0.58-5.43,1.73c-1.14,1.15-1.71,2.44-1.71,3.85
			c0,1.44,0.45,2.63,1.35,3.56c0.9,0.93,2.01,1.58,3.34,1.98c1.33,0.4,2.78,0.87,4.35,1.42c1.57,0.55,3.02,1.12,4.35,1.73
			c1.33,0.6,2.44,1.6,3.34,3c0.89,1.39,1.34,3.12,1.34,5.18c0,3.44-1.21,6.18-3.65,8.23c-2.43,2.04-5.46,3.07-9.08,3.07
			c-2.45,0-4.71-0.42-6.78-1.27C474.63,448.7,472.99,447.44,471.78,445.75"/>
		<polygon class="st0" points="513.28,449.88 513.28,417.99 501.48,417.99 501.48,413.35 530.04,413.35 530.04,417.99 
			518.25,417.99 518.25,449.88 		"/>
		<path class="st0" d="M527.97,449.88l16.14-36.53h4.51l15.68,36.53h-5.8l-3.67-9.03H537.4l-3.63,9.03H527.97z M539.15,436.52h13.87
			l-6.83-16.77h-0.1L539.15,436.52z"/>
		<polygon class="st0" points="574.03,449.88 574.03,417.99 562.23,417.99 562.23,413.35 590.79,413.35 590.79,417.99 
			578.99,417.99 578.99,449.88 		"/>
		<path class="st0" d="M588.72,449.88l16.14-36.53h4.5l15.68,36.53h-5.8l-3.67-9.03h-17.44l-3.62,9.03H588.72z M599.9,436.52h13.86
			l-6.83-16.77h-0.1L599.9,436.52z"/>
		<polygon class="st0" points="631.88,449.88 631.88,413.35 636.84,413.35 636.84,445.24 653.66,445.24 653.66,449.88 		"/>
		<path class="st0" d="M676.43,449.88v-36.53h12.78c2.97,0,5.61,0.42,7.94,1.26c2.33,0.85,4.18,1.91,5.56,3.2
			c1.38,1.29,2.52,2.78,3.41,4.46c0.89,1.69,1.51,3.3,1.84,4.83c0.33,1.53,0.49,3.04,0.49,4.52c0,2.37-0.44,4.64-1.32,6.81
			c-0.88,2.17-2.14,4.11-3.78,5.83c-1.64,1.72-3.75,3.09-6.34,4.1c-2.59,1.01-5.47,1.53-8.64,1.53H676.43z M681.4,418v27.24h6.26
			c4.42,0,8.11-1.19,11.08-3.56c2.97-2.38,4.45-5.73,4.45-10.06c0-1.07-0.12-2.14-0.34-3.23c-0.23-1.08-0.66-2.27-1.3-3.56
			c-0.64-1.29-1.46-2.42-2.48-3.41c-1.02-0.98-2.4-1.79-4.17-2.45c-1.76-0.65-3.78-0.98-6.05-0.98H681.4z"/>
		<polygon class="st0" points="717.66,449.88 717.66,413.35 741.31,413.35 741.31,417.99 722.63,417.99 722.63,428.89 
			740.02,428.89 740.02,433.53 722.63,433.53 722.63,445.24 742.24,445.24 742.24,449.88 		"/>
		<polygon class="st0" points="767.44,449.88 767.44,413.35 774.84,413.35 786.48,441.01 786.69,441.01 798.23,413.35 
			805.63,413.35 805.63,449.88 800.66,449.88 800.66,419.85 800.56,419.85 788.19,449.88 784.88,449.88 772.51,419.85 
			772.41,419.85 772.41,449.88 		"/>
		<rect x="816.75" y="413.35" class="st0" width="4.96" height="36.53"/>
		<polygon class="st0" points="833.21,449.88 833.21,413.35 838.17,413.35 838.17,445.24 854.99,445.24 854.99,449.88 		"/>
		<path class="st0" d="M857.48,449.88l16.14-36.53h4.5l15.68,36.53H888l-3.67-9.03h-17.44l-3.62,9.03H857.48z M868.65,436.52h13.87
			l-6.83-16.77h-0.1L868.65,436.52z"/>
		<path class="st0" d="M918.74,429.45h13.09v18.01c-1.72,1.03-3.88,1.85-6.47,2.45c-2.59,0.6-5.05,0.9-7.4,0.9
			c-6,0-10.77-1.85-14.31-5.55c-3.53-3.7-5.3-8.25-5.3-13.64c0-5.47,1.79-10.04,5.38-13.7c3.59-3.67,8.16-5.49,13.71-5.49
			c6.04,0,10.59,1.58,13.66,4.75l-3.52,3.77c-2.69-2.58-6.07-3.87-10.14-3.87c-4.11,0-7.43,1.4-9.99,4.2
			c-2.55,2.8-3.83,6.25-3.83,10.35c0,4.13,1.36,7.58,4.09,10.37c2.73,2.79,6.11,4.18,10.14,4.18c3.72,0,6.72-0.64,9-1.91v-10.17
			h-8.12V429.45z"/>
		<path class="st0" d="M942.96,449.88v-36.53h12.88c2.24,0,4.17,0.31,5.77,0.93c1.6,0.62,2.82,1.45,3.65,2.5
			c0.83,1.05,1.42,2.13,1.79,3.23c0.36,1.1,0.54,2.29,0.54,3.56c0,2.41-0.83,4.54-2.49,6.4c-1.66,1.86-3.83,2.94-6.52,3.25
			l10.4,16.66h-6.21l-9.31-16.1h-5.54v16.1H942.96z M947.92,417.69v11.76h6.52c5.24,0,7.86-1.96,7.86-5.88
			c0-3.92-2.62-5.88-7.86-5.88H947.92z"/>
		<path class="st0" d="M1007.17,445.32c-3.59,3.66-8.16,5.49-13.71,5.49c-5.55,0-10.12-1.83-13.71-5.49
			c-3.59-3.67-5.38-8.23-5.38-13.7c0-5.47,1.79-10.04,5.38-13.7c3.59-3.67,8.16-5.49,13.71-5.49c5.55,0,10.12,1.83,13.71,5.49
			c3.59,3.66,5.38,8.23,5.38,13.7C1012.55,437.08,1010.75,441.65,1007.17,445.32 M983.47,441.96c2.55,2.81,5.88,4.21,9.98,4.21
			c4.1,0,7.43-1.4,9.99-4.21c2.56-2.8,3.83-6.25,3.83-10.34c0-4.1-1.28-7.55-3.83-10.35c-2.55-2.8-5.88-4.2-9.99-4.2
			c-4.1,0-7.43,1.4-9.98,4.2c-2.55,2.8-3.83,6.25-3.83,10.35C979.64,435.71,980.92,439.16,983.47,441.96"/>
	</g>
</g>
</svg>
