<?xml version="1.0" encoding="utf-8"?>
<!-- Generator: Adobe Illustrator 24.2.0, SVG Export Plug-In . SVG Version: 6.00 Build 0)  -->
<svg version="1.1" xmlns="http://www.w3.org/2000/svg" xmlns:xlink="http://www.w3.org/1999/xlink" x="0px" y="0px"
	 viewBox="0 0 886.03 476.57" style="enable-background:new 0 0 886.03 476.57;" xml:space="preserve">
<style type="text/css">
	.st0{fill:#FFFFFF;}
	.st1{clip-path:url(#SVGID_2_);}
	.st2{clip-path:url(#SVGID_4_);fill:#F4981A;}
	.st3{clip-path:url(#SVGID_4_);fill:#254763;}
	.st4{clip-path:url(#SVGID_4_);fill:#082F43;}
	.st5{clip-path:url(#SVGID_4_);fill:#28285B;}
	.st6{clip-path:url(#SVGID_4_);fill:#808081;}
	.st7{clip-path:url(#SVGID_6_);fill:#F4981A;}
	.st8{clip-path:url(#SVGID_8_);fill:#254763;}
	.st9{clip-path:url(#SVGID_10_);fill:#254763;}
	.st10{clip-path:url(#SVGID_10_);fill:#EA572B;}
	.st11{clip-path:url(#SVGID_12_);fill:#F4981A;}
	.st12{clip-path:url(#SVGID_12_);fill:#254763;}
	.st13{clip-path:url(#SVGID_14_);fill:#F4981A;}
	.st14{clip-path:url(#SVGID_16_);fill:#254763;}
	.st15{clip-path:url(#SVGID_18_);fill:url(#SVGID_19_);}
	.st16{clip-path:url(#SVGID_21_);fill:url(#SVGID_22_);}
	.st17{clip-path:url(#SVGID_24_);fill:url(#SVGID_25_);}
	.st18{clip-path:url(#SVGID_27_);fill:url(#SVGID_28_);}
	.st19{clip-path:url(#SVGID_30_);fill:#254763;}
	.st20{clip-path:url(#SVGID_30_);fill:#F4981A;}
	.st21{clip-path:url(#SVGID_32_);fill:#082F43;}
	.st22{clip-path:url(#SVGID_32_);fill:#28285B;}
	.st23{clip-path:url(#SVGID_32_);fill:#808081;}
	.st24{clip-path:url(#SVGID_32_);fill:#F4981A;}
	.st25{fill:#F4981A;}
	.st26{fill:#254763;}
	.st27{clip-path:url(#SVGID_34_);fill:url(#SVGID_35_);}
	.st28{fill:#1D3347;}
	.st29{clip-path:url(#SVGID_37_);}
	.st30{clip-path:url(#SVGID_37_);fill:#FFFFFF;}
	.st31{clip-path:url(#SVGID_39_);fill:#0B2E43;}
	.st32{clip-path:url(#SVGID_39_);fill:#FFFFFF;}
	.st33{clip-path:url(#SVGID_39_);fill:#EF7D17;}
	.st34{clip-path:url(#SVGID_39_);fill:#F49818;}
	.st35{clip-path:url(#SVGID_39_);fill:#989898;}
	.st36{clip-path:url(#SVGID_39_);fill:#264763;}
	.st37{clip-path:url(#SVGID_41_);fill:url(#SVGID_42_);}
	.st38{clip-path:url(#SVGID_44_);fill:#FFFFFF;}
	.st39{clip-path:url(#SVGID_44_);fill:#264763;}
	.st40{clip-path:url(#SVGID_46_);}
	.st41{clip-path:url(#SVGID_48_);fill:url(#SVGID_49_);}
	.st42{clip-path:url(#SVGID_51_);fill:#0B2E43;}
	.st43{clip-path:url(#SVGID_51_);fill:#989898;}
	.st44{clip-path:url(#SVGID_51_);fill:#EE7D16;}
	.st45{clip-path:url(#SVGID_51_);fill:#1D3247;}
	.st46{clip-path:url(#SVGID_51_);fill:#F4981A;}
	.st47{clip-path:url(#SVGID_51_);fill:#082F43;}
	.st48{clip-path:url(#SVGID_51_);fill:#28285B;}
	.st49{clip-path:url(#SVGID_51_);fill:#808081;}
	.st50{clip-path:url(#SVGID_51_);fill:#254763;}
	.st51{clip-path:url(#SVGID_53_);}
	.st52{clip-path:url(#SVGID_55_);fill:#254763;}
	.st53{clip-path:url(#SVGID_55_);fill:#356180;}
	.st54{clip-path:url(#SVGID_55_);fill:#F4981A;}
	.st55{clip-path:url(#SVGID_55_);fill:#1D3347;}
	.st56{clip-path:url(#SVGID_55_);fill:#9F9F9F;}
	.st57{clip-path:url(#SVGID_55_);fill:#EE7D16;}
	.st58{clip-path:url(#SVGID_55_);fill:#082F43;}
	.st59{clip-path:url(#SVGID_55_);fill:#28285B;}
	.st60{clip-path:url(#SVGID_55_);fill:#808081;}
	.st61{clip-path:url(#SVGID_57_);}
	.st62{clip-path:url(#SVGID_59_);fill:#F4981A;}
	.st63{clip-path:url(#SVGID_59_);fill:#254763;}
	.st64{clip-path:url(#SVGID_59_);fill:#082F43;}
	.st65{clip-path:url(#SVGID_59_);fill:#28285B;}
	.st66{clip-path:url(#SVGID_59_);fill:#808081;}
	.st67{clip-path:url(#SVGID_61_);fill:#F4981A;}
	.st68{clip-path:url(#SVGID_63_);fill:#254763;}
	.st69{clip-path:url(#SVGID_65_);fill:#254763;}
	.st70{clip-path:url(#SVGID_65_);fill:#EA572B;}
	.st71{clip-path:url(#SVGID_67_);fill:#F4981A;}
	.st72{clip-path:url(#SVGID_67_);fill:#254763;}
	.st73{clip-path:url(#SVGID_69_);fill:#F4981A;}
	.st74{clip-path:url(#SVGID_71_);fill:#254763;}
	.st75{clip-path:url(#SVGID_73_);fill:url(#SVGID_74_);}
	.st76{clip-path:url(#SVGID_76_);fill:url(#SVGID_77_);}
	.st77{clip-path:url(#SVGID_79_);fill:url(#SVGID_80_);}
	.st78{clip-path:url(#SVGID_82_);fill:url(#SVGID_83_);}
	.st79{clip-path:url(#SVGID_85_);}
	.st80{clip-path:url(#SVGID_87_);fill:#254763;}
	.st81{clip-path:url(#SVGID_87_);fill:#F4981A;}
	.st82{clip-path:url(#SVGID_89_);fill:#082F43;}
	.st83{clip-path:url(#SVGID_89_);fill:#28285B;}
	.st84{clip-path:url(#SVGID_89_);fill:#808081;}
	.st85{clip-path:url(#SVGID_89_);fill:#F4981A;}
	.st86{clip-path:url(#SVGID_91_);fill:#F4981A;}
	.st87{clip-path:url(#SVGID_91_);fill:#254763;}
	.st88{clip-path:url(#SVGID_93_);fill:#254763;}
	.st89{clip-path:url(#SVGID_95_);fill:#EA572B;}
	.st90{clip-path:url(#SVGID_97_);fill:#254763;}
	.st91{clip-path:url(#SVGID_97_);fill:#F4981A;}
	.st92{clip-path:url(#SVGID_99_);fill:#F4981A;}
	.st93{clip-path:url(#SVGID_101_);fill:#254763;}
	.st94{clip-path:url(#SVGID_103_);fill:url(#SVGID_104_);}
	.st95{clip-path:url(#SVGID_106_);fill:#1D3347;}
	.st96{clip-path:url(#SVGID_108_);fill:#FFFFFF;}
	.st97{clip-path:url(#SVGID_108_);}
	.st98{clip-path:url(#SVGID_110_);fill:#0B2E43;}
	.st99{clip-path:url(#SVGID_110_);fill:#FFFFFF;}
	.st100{clip-path:url(#SVGID_110_);fill:#EF7D17;}
	.st101{clip-path:url(#SVGID_110_);fill:#F49818;}
	.st102{clip-path:url(#SVGID_110_);fill:#989898;}
	.st103{clip-path:url(#SVGID_110_);fill:#264763;}
	.st104{clip-path:url(#SVGID_112_);fill:url(#SVGID_113_);}
	.st105{clip-path:url(#SVGID_115_);fill:#FFFFFF;}
	.st106{clip-path:url(#SVGID_115_);fill:#264763;}
	.st107{clip-path:url(#SVGID_117_);}
	.st108{clip-path:url(#SVGID_119_);fill:#FFFFFF;}
	.st109{clip-path:url(#SVGID_119_);}
	.st110{clip-path:url(#SVGID_121_);fill:#0B2E43;}
	.st111{clip-path:url(#SVGID_121_);fill:#FFFFFF;}
	.st112{clip-path:url(#SVGID_121_);fill:#EF7D17;}
	.st113{clip-path:url(#SVGID_121_);fill:#F49818;}
	.st114{clip-path:url(#SVGID_121_);fill:#989898;}
	.st115{clip-path:url(#SVGID_121_);fill:#264763;}
	.st116{clip-path:url(#SVGID_123_);fill:url(#SVGID_124_);}
	.st117{clip-path:url(#SVGID_126_);fill:#FFFFFF;}
	.st118{clip-path:url(#SVGID_126_);fill:#264763;}
	.st119{clip-path:url(#SVGID_128_);}
	.st120{clip-path:url(#SVGID_130_);fill:#FFFFFF;}
	.st121{clip-path:url(#SVGID_130_);}
	.st122{clip-path:url(#SVGID_132_);fill:#0B2E43;}
	.st123{clip-path:url(#SVGID_132_);fill:#FFFFFF;}
	.st124{clip-path:url(#SVGID_132_);fill:#EF7D17;}
	.st125{clip-path:url(#SVGID_132_);fill:#F49818;}
	.st126{clip-path:url(#SVGID_132_);fill:#989898;}
	.st127{clip-path:url(#SVGID_132_);fill:#264763;}
	.st128{clip-path:url(#SVGID_134_);fill:url(#SVGID_135_);}
	.st129{clip-path:url(#SVGID_137_);fill:#FFFFFF;}
	.st130{clip-path:url(#SVGID_137_);fill:#264763;}
	.st131{fill:#0B2E43;}
	.st132{fill:#EF7D17;}
	.st133{fill:#F49818;}
	.st134{fill:#989898;}
	.st135{fill:#264763;}
	.st136{clip-path:url(#SVGID_139_);fill:url(#SVGID_140_);}
	.st137{opacity:0.92;}
	.st138{fill:#F49940;}
	.st139{fill:#102B42;}
	.st140{fill:#244762;}
	.st141{fill:#0A0A0A;stroke:#000000;stroke-miterlimit:10;}
	.st142{fill:none;stroke:#000000;stroke-miterlimit:10;}
	.st143{fill:#FFFFFF;stroke:#FFFFFF;stroke-miterlimit:10;}
	.st144{clip-path:url(#SVGID_142_);}
	.st145{fill:none;stroke:#FFFFFF;stroke-width:3;stroke-miterlimit:10;}
	.st146{clip-path:url(#SVGID_144_);}
	.st147{fill:#BF4C26;}
	.st148{fill:#F0E1C1;}
	.st149{fill:#2B2E34;}
	.st150{fill:#494441;}
	.st151{fill:#F59B25;}
	.st152{fill:#07B5C2;}
	.st153{fill:#5A4D9B;}
	.st154{fill:#A3C739;}
	.st155{fill:#515767;}
	.st156{fill:none;stroke:#FFFFFF;stroke-miterlimit:10;}
	.st157{fill:none;}
	.st158{fill:#616160;}
</style>
<g id="Capa_1">
	<g>
		<path class="st0" d="M366.27,326.93c0,9.91-3.92,17.74-11.75,23.47c-6.99,5.05-15.64,7.58-25.96,7.58
			c-10.45,0-19.1-2.52-25.96-7.58c-7.75-5.63-11.63-13.45-11.63-23.47V263h29.88v61.47c0,4.87,2.57,7.3,7.71,7.3
			c5.22,0,7.83-2.43,7.83-7.3V263h29.88V326.93z"/>
		<polygon class="st0" points="458.77,357.06 428.9,357.06 401.09,313.87 401.09,357.06 371.21,357.06 371.21,263 399.14,263 
			428.9,308.27 428.9,263 458.77,263 		"/>
		<polygon class="st0" points="524.52,357.06 464.52,357.06 464.52,263 524.52,263 524.52,286.48 494.39,286.48 494.39,298.62 
			522.97,298.62 522.97,322.09 494.39,322.09 494.39,333.46 524.52,333.46 		"/>
		<polygon class="st0" points="646.11,357.06 616.11,357.06 608.56,309.45 596.3,357.06 579.32,357.06 565.87,309.45 557.79,357.06 
			527.78,357.06 545.27,263 575.94,263 587.28,304.48 599.03,263 629.17,263 		"/>
		<rect x="650.83" y="263" class="st0" width="30.01" height="94.06"/>
		<path class="st0" d="M286.48,144.61c2.07-3.63,4.9-6.47,8.5-8.5c3.59-2.03,7.61-3.04,12.07-3.04c5.22,0,9.79,1.34,13.71,4.01
			c3.92,2.67,6.67,6.38,8.23,11.1h-10.77c-1.07-2.23-2.58-3.9-4.51-5.02c-1.94-1.11-4.18-1.67-6.72-1.67
			c-2.72,0-5.14,0.63-7.26,1.91c-2.12,1.27-3.77,3.06-4.95,5.38c-1.18,2.32-1.77,5.04-1.77,8.16c0,3.08,0.59,5.79,1.77,8.13
			c1.18,2.34,2.83,4.15,4.95,5.42c2.12,1.27,4.54,1.91,7.26,1.91c2.54,0,4.78-0.57,6.72-1.71c1.94-1.14,3.45-2.82,4.51-5.05h10.77
			c-1.56,4.77-4.29,8.48-8.2,11.14c-3.9,2.66-8.48,3.98-13.75,3.98c-4.46,0-8.48-1.01-12.07-3.05c-3.59-2.03-6.42-4.85-8.5-8.46
			c-2.07-3.61-3.11-7.72-3.11-12.31C283.37,152.36,284.41,148.25,286.48,144.61"/>
		<path class="st0" d="M343.84,178.6c-2.86-1.58-5.1-3.82-6.72-6.72c-1.63-2.9-2.44-6.24-2.44-10.03s0.83-7.14,2.51-10.04
			c1.67-2.9,3.96-5.14,6.86-6.72c2.9-1.58,6.13-2.37,9.7-2.37c3.57,0,6.8,0.79,9.7,2.37c2.9,1.58,5.18,3.83,6.86,6.72
			s2.51,6.24,2.51,10.04s-0.86,7.13-2.58,10.03c-1.72,2.9-4.04,5.14-6.96,6.72c-2.92,1.58-6.19,2.37-9.8,2.37
			C349.91,180.97,346.7,180.18,343.84,178.6 M358.26,171.57c1.49-0.83,2.69-2.06,3.58-3.71c0.89-1.65,1.34-3.66,1.34-6.02
			c0-3.53-0.93-6.23-2.78-8.13c-1.85-1.89-4.11-2.84-6.79-2.84c-2.68,0-4.92,0.95-6.72,2.84c-1.81,1.9-2.71,4.6-2.71,8.13
			c0,3.52,0.88,6.23,2.64,8.13c1.76,1.9,3.98,2.84,6.66,2.84C355.17,172.81,356.77,172.4,358.26,171.57"/>
		<path class="st0" d="M410.94,146.95c2.72,2.79,4.08,6.68,4.08,11.67v21.74h-9.36V159.9c0-2.94-0.74-5.21-2.21-6.79
			c-1.47-1.58-3.48-2.37-6.02-2.37c-2.59,0-4.63,0.79-6.12,2.37c-1.5,1.58-2.24,3.85-2.24,6.79v20.47h-9.37v-37.06h9.37v4.62
			c1.25-1.61,2.84-2.86,4.78-3.78c1.94-0.91,4.07-1.37,6.39-1.37C404.65,142.77,408.22,144.17,410.94,146.95"/>
		<path class="st0" d="M429.94,179.33c-2.41-1.09-4.32-2.58-5.72-4.45c-1.4-1.87-2.17-3.94-2.31-6.22h9.43
			c0.18,1.43,0.88,2.61,2.11,3.54c1.23,0.94,2.75,1.4,4.58,1.4c1.79,0,3.18-0.36,4.18-1.07c1-0.71,1.51-1.63,1.51-2.74
			c0-1.2-0.61-2.11-1.84-2.71c-1.23-0.6-3.18-1.26-5.85-1.97c-2.77-0.67-5.03-1.36-6.79-2.07c-1.76-0.71-3.28-1.81-4.55-3.28
			c-1.27-1.47-1.91-3.46-1.91-5.95c0-2.05,0.59-3.92,1.77-5.62c1.18-1.7,2.88-3.03,5.08-4.01c2.21-0.98,4.81-1.47,7.79-1.47
			c4.41,0,7.94,1.1,10.57,3.31c2.63,2.21,4.08,5.19,4.35,8.93h-8.96c-0.13-1.47-0.75-2.64-1.84-3.51c-1.09-0.87-2.55-1.31-4.38-1.31
			c-1.69,0-3,0.31-3.91,0.94c-0.91,0.62-1.37,1.49-1.37,2.61c0,1.25,0.63,2.19,1.87,2.84c1.25,0.65,3.19,1.31,5.82,1.97
			c2.68,0.67,4.89,1.36,6.62,2.07c1.74,0.71,3.25,1.82,4.52,3.31c1.27,1.5,1.93,3.47,1.97,5.92c0,2.14-0.59,4.06-1.77,5.75
			c-1.18,1.7-2.88,3.02-5.09,3.98c-2.21,0.96-4.78,1.44-7.73,1.44C435.07,180.97,432.35,180.42,429.94,179.33"/>
		<path class="st0" d="M495.36,143.31v37.06h-9.43v-4.68c-1.21,1.61-2.78,2.87-4.72,3.78c-1.94,0.91-4.05,1.37-6.32,1.37
			c-2.9,0-5.46-0.61-7.69-1.84c-2.23-1.23-3.98-3.03-5.25-5.42c-1.27-2.38-1.91-5.23-1.91-8.53v-21.74h9.36v20.4
			c0,2.94,0.74,5.21,2.21,6.79c1.47,1.58,3.48,2.38,6.02,2.38c2.58,0,4.61-0.79,6.09-2.38c1.47-1.58,2.21-3.85,2.21-6.79v-20.4
			H495.36z"/>
		<rect x="504.6" y="130.86" class="st0" width="9.36" height="49.5"/>
		<path class="st0" d="M534.1,151v17.93c0,1.25,0.3,2.15,0.9,2.71c0.6,0.56,1.62,0.84,3.05,0.84h4.35v7.89h-5.89
			c-7.9,0-11.84-3.84-11.84-11.51V151h-4.41v-7.69h4.41v-9.16h9.43v9.16h8.3V151H534.1z"/>
		<path class="st0" d="M555.97,178.6c-2.86-1.58-5.1-3.82-6.72-6.72c-1.63-2.9-2.44-6.24-2.44-10.03s0.83-7.14,2.51-10.04
			c1.67-2.9,3.96-5.14,6.86-6.72c2.9-1.58,6.13-2.37,9.7-2.37c3.57,0,6.8,0.79,9.7,2.37c2.9,1.58,5.18,3.83,6.86,6.72
			s2.51,6.24,2.51,10.04s-0.86,7.13-2.58,10.03c-1.72,2.9-4.04,5.14-6.96,6.72c-2.92,1.58-6.19,2.37-9.8,2.37
			C562.03,180.97,558.83,180.18,555.97,178.6 M570.39,171.57c1.49-0.83,2.69-2.06,3.58-3.71c0.89-1.65,1.34-3.66,1.34-6.02
			c0-3.53-0.93-6.23-2.78-8.13c-1.85-1.89-4.11-2.84-6.79-2.84c-2.68,0-4.92,0.95-6.72,2.84c-1.81,1.9-2.71,4.6-2.71,8.13
			c0,3.52,0.88,6.23,2.64,8.13c1.76,1.9,3.98,2.84,6.66,2.84C567.3,172.81,568.89,172.4,570.39,171.57"/>
		<path class="st0" d="M605.91,144.44c1.94-1.11,4.16-1.67,6.66-1.67v9.83h-2.48c-2.94,0-5.16,0.69-6.66,2.07
			c-1.49,1.39-2.24,3.79-2.24,7.23v18.46h-9.37v-37.06h9.37v5.75C602.4,147.1,603.97,145.56,605.91,144.44"/>
		<path class="st0" d="M619.49,137.32c-1.09-1.05-1.64-2.35-1.64-3.92c0-1.56,0.54-2.86,1.64-3.91c1.09-1.05,2.46-1.57,4.11-1.57
			c1.65,0,3.02,0.52,4.11,1.57c1.09,1.05,1.64,2.35,1.64,3.91c0,1.56-0.55,2.87-1.64,3.92c-1.09,1.05-2.46,1.57-4.11,1.57
			C621.95,138.89,620.58,138.37,619.49,137.32 M628.22,180.37h-9.37v-37.06h9.37V180.37z"/>
		<path class="st0" d="M644.28,178.6c-2.86-1.58-5.1-3.82-6.72-6.72c-1.63-2.9-2.44-6.24-2.44-10.03s0.83-7.14,2.51-10.04
			s3.96-5.14,6.86-6.72c2.9-1.58,6.13-2.37,9.7-2.37c3.57,0,6.8,0.79,9.7,2.37c2.9,1.58,5.18,3.83,6.86,6.72
			c1.67,2.9,2.51,6.24,2.51,10.04s-0.86,7.13-2.58,10.03c-1.72,2.9-4.04,5.14-6.96,6.72c-2.92,1.58-6.19,2.37-9.8,2.37
			C650.34,180.97,647.13,180.18,644.28,178.6 M658.69,171.57c1.49-0.83,2.69-2.06,3.58-3.71c0.89-1.65,1.34-3.66,1.34-6.02
			c0-3.53-0.93-6.23-2.78-8.13c-1.85-1.89-4.11-2.84-6.79-2.84c-2.68,0-4.92,0.95-6.72,2.84c-1.81,1.9-2.71,4.6-2.71,8.13
			c0,3.52,0.88,6.23,2.64,8.13c1.76,1.9,3.98,2.84,6.66,2.84C655.6,172.81,657.2,172.4,658.69,171.57"/>
		<path class="st0" d="M312.87,199.16v32.78c0,4.55-1.31,8.08-3.95,10.6c-2.63,2.52-6.16,3.78-10.57,3.78
			c-4.46,0-8.06-1.29-10.8-3.88c-2.74-2.59-4.11-6.2-4.11-10.84h9.37c0.04,2.01,0.52,3.57,1.44,4.68c0.92,1.11,2.24,1.67,3.98,1.67
			c1.7,0,2.99-0.53,3.88-1.6c0.89-1.07,1.34-2.54,1.34-4.41v-32.78H312.87z"/>
		<path class="st0" d="M358.76,208.79v37.06h-9.43v-4.68c-1.21,1.61-2.78,2.87-4.72,3.78c-1.94,0.91-4.05,1.37-6.32,1.37
			c-2.9,0-5.46-0.61-7.69-1.84c-2.23-1.23-3.98-3.03-5.25-5.42c-1.27-2.38-1.91-5.23-1.91-8.53v-21.74h9.36v20.4
			c0,2.94,0.74,5.21,2.21,6.79c1.47,1.58,3.48,2.38,6.02,2.38c2.58,0,4.61-0.79,6.09-2.38c1.47-1.58,2.21-3.85,2.21-6.79v-20.4
			H358.76z"/>
		<path class="st0" d="M382.07,209.93c1.94-1.11,4.16-1.67,6.66-1.67v9.83h-2.48c-2.94,0-5.16,0.69-6.66,2.07
			c-1.49,1.39-2.24,3.79-2.24,7.23v18.46h-9.37V208.8h9.37v5.75C378.56,212.59,380.14,211.05,382.07,209.93"/>
		<path class="st0" d="M407.4,199.16l-15.39,7.03v-6.69l15.39-7.96V199.16z M404.78,245.86h-9.36v-37.06h9.36V245.86z"/>
		<path class="st0" d="M414.25,217.22c1.49-2.9,3.53-5.13,6.12-6.69c2.58-1.56,5.46-2.34,8.63-2.34c2.41,0,4.71,0.52,6.89,1.57
			c2.18,1.05,3.93,2.44,5.22,4.18v-17.6h9.5v49.5h-9.5v-5.49c-1.16,1.83-2.79,3.3-4.88,4.42c-2.1,1.11-4.53,1.67-7.29,1.67
			c-3.12,0-5.98-0.8-8.56-2.41c-2.59-1.6-4.63-3.87-6.12-6.79c-1.5-2.92-2.24-6.28-2.24-10.07
			C412.01,223.45,412.76,220.12,414.25,217.22 M439.84,221.47c-0.89-1.63-2.1-2.88-3.61-3.75c-1.52-0.87-3.14-1.31-4.89-1.31
			c-1.74,0-3.34,0.43-4.81,1.27c-1.47,0.84-2.66,2.08-3.58,3.71c-0.91,1.63-1.37,3.56-1.37,5.79c0,2.23,0.46,4.18,1.37,5.85
			c0.92,1.67,2.12,2.95,3.61,3.85c1.49,0.89,3.09,1.34,4.78,1.34c1.74,0,3.37-0.44,4.89-1.3c1.52-0.87,2.72-2.12,3.61-3.75
			c0.89-1.63,1.34-3.58,1.34-5.85S440.73,223.1,439.84,221.47"/>
		<path class="st0" d="M460.41,202.81c-1.09-1.05-1.64-2.35-1.64-3.92c0-1.56,0.55-2.86,1.64-3.91c1.09-1.05,2.46-1.57,4.11-1.57
			c1.65,0,3.02,0.52,4.11,1.57c1.09,1.05,1.64,2.35,1.64,3.91c0,1.56-0.55,2.87-1.64,3.92c-1.09,1.05-2.47,1.57-4.11,1.57
			C462.87,204.38,461.5,203.85,460.41,202.81 M469.14,245.86h-9.37v-37.06h9.37V245.86z"/>
		<path class="st0" d="M478.3,217.53c1.56-2.96,3.72-5.26,6.49-6.89c2.77-1.63,5.93-2.45,9.5-2.45c4.59,0,8.39,1.18,11.4,3.55
			c3.01,2.37,5.03,5.69,6.06,9.96h-10.1c-0.53-1.65-1.44-2.95-2.71-3.89c-1.27-0.94-2.84-1.41-4.72-1.41c-2.68,0-4.8,1-6.36,3
			c-1.56,2-2.34,4.83-2.34,8.51c0,3.63,0.78,6.44,2.34,8.44c1.56,2,3.68,3,6.36,3c3.79,0,6.26-1.74,7.43-5.24h10.1
			c-1.03,4.14-3.06,7.42-6.09,9.85c-3.03,2.44-6.82,3.65-11.37,3.65c-3.57,0-6.73-0.82-9.5-2.45c-2.76-1.63-4.93-3.93-6.49-6.89
			c-1.56-2.96-2.34-6.42-2.34-10.37C475.96,223.95,476.74,220.49,478.3,217.53"/>
		<path class="st0" d="M525.47,244.08c-2.86-1.58-5.1-3.82-6.72-6.72c-1.63-2.9-2.44-6.24-2.44-10.03s0.83-7.14,2.51-10.04
			c1.67-2.9,3.96-5.14,6.86-6.72c2.9-1.58,6.13-2.37,9.7-2.37c3.57,0,6.8,0.79,9.7,2.37c2.9,1.58,5.18,3.83,6.86,6.72
			c1.67,2.9,2.51,6.24,2.51,10.04s-0.86,7.13-2.58,10.03c-1.72,2.9-4.04,5.14-6.96,6.72c-2.92,1.58-6.19,2.37-9.8,2.37
			C531.53,246.46,528.32,245.67,525.47,244.08 M539.88,237.06c1.49-0.83,2.69-2.06,3.58-3.71c0.89-1.65,1.34-3.66,1.34-6.02
			c0-3.53-0.93-6.23-2.78-8.13c-1.85-1.9-4.11-2.84-6.79-2.84c-2.68,0-4.92,0.95-6.72,2.84c-1.81,1.9-2.71,4.6-2.71,8.13
			c0,3.52,0.88,6.23,2.64,8.13c1.76,1.9,3.98,2.84,6.66,2.84C536.8,238.3,538.39,237.88,539.88,237.06"/>
		<path class="st132" d="M227.72,291.5c-0.99,1.07-2,2.13-3.05,3.18l-66.59,66.59l-66.59-66.59c-9.18-9.16-16.05-19.74-20.66-31.06
			l21.75-21.75l51.53,51.51l8.07-8.07l-3.18-3.2l6.89-6.89l-2.36-2.36l27.78-27.78L227.72,291.5z"/>
		<path class="st133" d="M193.48,147.39l-6.91,6.89l2.36,2.36l-75.81,75.81l-2.36-2.34l-6.89,6.89l-3.2-3.2l-8.09,8.09l-21.75,21.75
			c-13.84-34.04-6.95-74.51,20.66-102.12c18.37-18.37,42.48-27.57,66.59-27.57c12.06,0,24.14,2.31,35.51,6.93l-3.31,3.31
			L193.48,147.39z"/>
		<path class="st132" d="M252.24,228.1c0,13.32-2.81,26.64-8.43,38.98l-42.24-42.26l27.76-27.76l2.36,2.36l6.91-6.91l3.2,3.2
			l3.39-3.41C249.9,203.73,252.24,215.92,252.24,228.1"/>
		<g>
			<path class="st0" d="M606.37,213.1c-1.05-1.96-2.49-3.45-4.32-4.48c-1.83-1.02-3.97-1.54-6.42-1.54c-2.71,0-5.11,0.62-7.2,1.87
				c-2.1,1.25-3.73,3.03-4.91,5.35c-1.18,2.32-1.77,4.99-1.77,8.02c0,3.12,0.6,5.84,1.8,8.15c1.2,2.32,2.87,4.1,5.01,5.35
				c2.14,1.25,4.63,1.87,7.46,1.87c3.49,0,6.35-0.95,8.58-2.84c2.23-1.89,3.69-4.53,4.39-7.92h-15.71v-7.15h24.75v8.15
				c-0.61,3.25-1.92,6.26-3.93,9.02c-2.01,2.76-4.59,4.98-7.76,6.65c-3.17,1.67-6.71,2.51-10.64,2.51c-4.41,0-8.39-1.01-11.95-3.04
				c-3.56-2.03-6.35-4.84-8.38-8.45c-2.03-3.61-3.04-7.71-3.04-12.29c0-4.59,1.01-8.7,3.04-12.33c2.03-3.63,4.82-6.46,8.38-8.49
				c3.56-2.03,7.52-3.04,11.88-3.04c5.15,0,9.63,1.28,13.42,3.84c3.8,2.56,6.42,6.16,7.86,10.79H606.37z"/>
			<path class="st0" d="M637.64,209.83c1.9-1.11,4.07-1.67,6.51-1.67v9.82h-2.42c-2.88,0-5.05,0.69-6.52,2.07
				c-1.46,1.38-2.19,3.79-2.19,7.22v18.44h-9.17v-37.01h9.17v5.75C634.2,212.48,635.74,210.94,637.64,209.83z"/>
			<path class="st0" d="M649.16,217.11c1.46-2.9,3.45-5.12,5.96-6.68c2.51-1.56,5.31-2.34,8.41-2.34c2.71,0,5.07,0.56,7.1,1.67
				c2.03,1.11,3.66,2.52,4.88,4.21v-5.28h9.23v37.01h-9.23v-5.41c-1.18,1.74-2.81,3.17-4.88,4.31c-2.07,1.14-4.46,1.7-7.17,1.7
				c-3.06,0-5.84-0.8-8.35-2.41c-2.51-1.6-4.5-3.86-5.96-6.78c-1.46-2.92-2.19-6.27-2.19-10.06
				C646.97,223.33,647.7,220.01,649.16,217.11z M674.2,221.35c-0.87-1.63-2.05-2.87-3.54-3.74c-1.48-0.87-3.08-1.3-4.78-1.3
				c-1.7,0-3.27,0.42-4.71,1.27c-1.44,0.85-2.61,2.08-3.5,3.71c-0.9,1.63-1.34,3.55-1.34,5.78c0,2.23,0.45,4.18,1.34,5.85
				c0.89,1.67,2.07,2.95,3.54,3.84c1.46,0.89,3.02,1.34,4.68,1.34c1.7,0,3.29-0.43,4.78-1.3c1.48-0.87,2.66-2.12,3.54-3.74
				c0.87-1.63,1.31-3.57,1.31-5.85S675.08,222.98,674.2,221.35z"/>
			<path class="st0" d="M703.41,216.38v17.91c0,1.25,0.29,2.15,0.88,2.71c0.59,0.56,1.58,0.84,2.98,0.84h4.26v7.88h-5.76
				c-7.73,0-11.59-3.83-11.59-11.49v-17.84h-4.32v-7.68h4.32v-9.15h9.23v9.15h8.12v7.68H703.41z"/>
			<path class="st0" d="M751.4,208.69v37.01h-9.23v-4.68c-1.18,1.6-2.72,2.86-4.62,3.77c-1.9,0.91-3.96,1.37-6.19,1.37
				c-2.84,0-5.35-0.61-7.53-1.84c-2.18-1.22-3.9-3.03-5.14-5.41c-1.24-2.38-1.87-5.22-1.87-8.52v-21.71h9.17v20.38
				c0,2.94,0.72,5.2,2.16,6.78c1.44,1.58,3.4,2.37,5.89,2.37c2.53,0,4.52-0.79,5.96-2.37c1.44-1.58,2.16-3.84,2.16-6.78v-20.38
				H751.4z"/>
			<path class="st0" d="M760.08,202.71c-1.07-1.05-1.6-2.35-1.6-3.91c0-1.56,0.53-2.86,1.6-3.91c1.07-1.05,2.41-1.57,4.03-1.57
				c1.61,0,2.96,0.52,4.03,1.57c1.07,1.05,1.6,2.35,1.6,3.91c0,1.56-0.54,2.86-1.6,3.91c-1.07,1.05-2.41,1.57-4.03,1.57
				C762.49,204.28,761.15,203.76,760.08,202.71z M768.62,208.69v37.01h-9.17v-37.01H768.62z"/>
			<path class="st0" d="M787.35,216.38v17.91c0,1.25,0.29,2.15,0.88,2.71c0.59,0.56,1.58,0.84,2.98,0.84h4.26v7.88h-5.76
				c-7.73,0-11.59-3.83-11.59-11.49v-17.84h-4.32v-7.68h4.32v-9.15h9.23v9.15h8.12v7.68H787.35z"/>
			<path class="st0" d="M807.78,243.94c-2.79-1.58-4.99-3.82-6.58-6.71c-1.59-2.9-2.39-6.24-2.39-10.02c0-3.79,0.82-7.13,2.46-10.02
				c1.64-2.9,3.87-5.13,6.71-6.71c2.84-1.58,6-2.37,9.5-2.37c3.49,0,6.66,0.79,9.49,2.37c2.84,1.58,5.07,3.82,6.71,6.71
				c1.64,2.9,2.46,6.24,2.46,10.02c0,3.79-0.84,7.13-2.52,10.02c-1.68,2.9-3.95,5.13-6.81,6.71c-2.86,1.58-6.06,2.37-9.59,2.37
				C813.71,246.31,810.57,245.52,807.78,243.94z M821.89,236.92c1.46-0.82,2.63-2.06,3.5-3.71c0.87-1.65,1.31-3.65,1.31-6.01
				c0-3.52-0.91-6.22-2.72-8.12c-1.81-1.89-4.03-2.84-6.65-2.84s-4.81,0.95-6.58,2.84c-1.77,1.89-2.65,4.6-2.65,8.12
				c0,3.52,0.86,6.23,2.59,8.12c1.72,1.89,3.9,2.84,6.51,2.84C818.86,238.16,820.42,237.75,821.89,236.92z"/>
		</g>
	</g>
</g>
<g id="Capa_2">
</g>
</svg>
