<?xml version="1.0" encoding="utf-8"?>
<!-- Generator: Adobe Illustrator 24.2.0, SVG Export Plug-In . SVG Version: 6.00 Build 0)  -->
<svg version="1.1" id="Capa_1" xmlns="http://www.w3.org/2000/svg" xmlns:xlink="http://www.w3.org/1999/xlink" x="0px" y="0px"
	 viewBox="0 0 708.06 160.93" style="enable-background:new 0 0 708.06 160.93;" xml:space="preserve">
<style type="text/css">
	.st0{fill:#FFFFFF;}
	.st1{clip-path:url(#SVGID_2_);fill:url(#SVGID_3_);}
	.st2{fill:#0E2E45;}
	.st3{fill:#EC7D17;}
	.st4{fill:url(#SVGID_4_);}
	.st5{fill:#F09418;}
	.st6{fill:#F09419;}
	.st7{fill:#F09319;}
	.st8{fill:#F09219;}
	.st9{fill:#F0921A;}
	.st10{fill:#F0911A;}
	.st11{fill:#F0901A;}
	.st12{fill:#EF901A;}
	.st13{fill:#EF8F1B;}
	.st14{fill:#EF8E1B;}
	.st15{fill:#EF8D1B;}
	.st16{fill:#EF8D1C;}
	.st17{fill:#EF8C1C;}
	.st18{fill:#EF8B1C;}
	.st19{fill:#EF8A1D;}
	.st20{fill:#EF891D;}
	.st21{fill:#EF881D;}
	.st22{fill:#EF881E;}
	.st23{fill:#EF871E;}
	.st24{fill:#EE871E;}
	.st25{fill:#EE861E;}
	.st26{fill:#EE851E;}
	.st27{fill:#EE851F;}
	.st28{fill:#EE841F;}
	.st29{fill:#EE831F;}
	.st30{fill:#EE821F;}
	.st31{fill:#EE811F;}
	.st32{fill:#EE8120;}
	.st33{fill:#EE8020;}
	.st34{fill:#EE7F20;}
	.st35{fill:#EE7E20;}
	.st36{fill:#EE7E21;}
	.st37{fill:#EE7D21;}
	.st38{fill:#ED7D21;}
	.st39{fill:#ED7C21;}
	.st40{fill:#ED7B21;}
	.st41{fill:#ED7A21;}
	.st42{fill:#ED7A22;}
	.st43{fill:#ED7922;}
	.st44{fill:#ED7822;}
	.st45{fill:#ED7722;}
	.st46{fill:#ED7622;}
	.st47{fill:#ED7522;}
	.st48{fill:#ED7523;}
	.st49{fill:#ED7423;}
	.st50{fill:#ED7323;}
	.st51{fill:#ED7223;}
	.st52{fill:#EC7223;}
	.st53{fill:#EC7123;}
	.st54{fill:#EC7023;}
	.st55{fill:#EC7024;}
	.st56{fill:#EC6F24;}
	.st57{fill:#EC6E24;}
	.st58{fill:#EC6D24;}
	.st59{fill:#EC6C24;}
	.st60{fill:#EC6B24;}
	.st61{fill:#EC6A24;}
	.st62{fill:#EC6924;}
	.st63{fill:#EC6925;}
	.st64{fill:#EC6825;}
	.st65{fill:#EC6725;}
	.st66{fill:#EB6725;}
	.st67{fill:#EB6625;}
	.st68{fill:#EB6525;}
	.st69{fill:#EB6425;}
	.st70{fill:#EB6325;}
	.st71{fill:#EB6225;}
	.st72{fill:#EB6125;}
	.st73{fill:#EB6126;}
	.st74{fill:#EB6026;}
	.st75{fill:#EB5F26;}
	.st76{fill:#EB5E26;}
	.st77{fill:#EB5D26;}
	.st78{fill:#EB5C26;}
	.st79{fill:#EB5B26;}
	.st80{fill:#EB5A26;}
	.st81{clip-path:url(#SVGID_6_);fill:url(#SVGID_7_);}
	.st82{fill:url(#SVGID_8_);}
	.st83{fill:#F3F2F2;}
	.st84{fill:#264863;}
	.st85{fill:#366181;}
	.st86{fill:#F4981B;}
	.st87{fill:#1E3448;}
	.st88{fill:#A09FA0;}
	.st89{fill:#EF7E18;}
	.st90{clip-path:url(#SVGID_10_);fill:url(#SVGID_11_);}
	.st91{fill:#213246;}
	.st92{fill:#D37C27;}
	.st93{fill:url(#SVGID_12_);}
	.st94{fill:#F2F2F2;}
	.st95{fill:#DA932C;}
	.st96{fill:#DA922C;}
	.st97{fill:#DA912C;}
	.st98{fill:#D9912C;}
	.st99{fill:#D9902C;}
	.st100{fill:#D98F2C;}
	.st101{fill:#D98F2D;}
	.st102{fill:#D98E2D;}
	.st103{fill:#D88E2D;}
	.st104{fill:#D88D2D;}
	.st105{fill:#D88C2D;}
	.st106{fill:#D88B2D;}
	.st107{fill:#D88A2D;}
	.st108{fill:#D78A2D;}
	.st109{fill:#D7892D;}
	.st110{fill:#D7882D;}
	.st111{fill:#D7872D;}
	.st112{fill:#D7862D;}
	.st113{fill:#D6862D;}
	.st114{fill:#D6852D;}
	.st115{fill:#D6842D;}
	.st116{fill:#D6832D;}
	.st117{fill:#D6822D;}
	.st118{fill:#D5822D;}
	.st119{fill:#D5812D;}
	.st120{fill:#D5802D;}
	.st121{fill:#D5802E;}
	.st122{fill:#D57F2E;}
	.st123{fill:#D57E2E;}
	.st124{fill:#D47E2E;}
	.st125{fill:#D47D2E;}
	.st126{fill:#D47C2E;}
	.st127{fill:#D47B2E;}
	.st128{fill:#D47A2E;}
	.st129{fill:#D37A2E;}
	.st130{fill:#D3792E;}
	.st131{fill:#D3782E;}
	.st132{fill:#D3772E;}
	.st133{fill:#D3762E;}
	.st134{fill:#D3752E;}
	.st135{fill:#D2752E;}
	.st136{fill:#D2742E;}
	.st137{fill:#D2732E;}
	.st138{fill:#D2722E;}
	.st139{fill:#D2712E;}
	.st140{fill:#D2702E;}
	.st141{fill:#D1702E;}
	.st142{fill:#D16F2E;}
	.st143{fill:#D16E2E;}
	.st144{fill:#D16D2E;}
	.st145{fill:#D16C2E;}
	.st146{fill:#D16B2E;}
	.st147{fill:#D06B2E;}
	.st148{fill:#D06A2E;}
	.st149{fill:#D0692E;}
	.st150{fill:#D0682E;}
	.st151{fill:#D0672E;}
	.st152{fill:#CF672E;}
	.st153{fill:#CF662E;}
	.st154{fill:#CF652E;}
	.st155{fill:#CF642E;}
	.st156{fill:#CF632E;}
	.st157{fill:#CF622E;}
	.st158{fill:#CF612E;}
	.st159{fill:#CE612E;}
	.st160{fill:#CE602E;}
	.st161{fill:#CE5F2E;}
	.st162{fill:#CE5E2E;}
	.st163{fill:#CE5D2E;}
	.st164{fill:#CE5C2E;}
	.st165{fill:#CD5C2E;}
	.st166{fill:#CD5B2E;}
	.st167{fill:#354962;}
	.st168{fill:#47617F;}
	.st169{fill:#DE972E;}
	.st170{fill:#2A3749;}
	.st171{fill:#9E9E9E;}
	.st172{fill:#D57D28;}
	.st173{clip-path:url(#SVGID_14_);fill:url(#SVGID_15_);}
	.st174{fill:url(#SVGID_16_);}
</style>
<g>
	<g>
		<path class="st0" d="M76.85,76.76c0,7.93-3.14,14.19-9.43,18.78c-5.61,4.04-12.55,6.07-20.83,6.07c-8.38,0-15.33-2.02-20.83-6.07
			c-6.22-4.5-9.33-10.76-9.33-18.78V25.61H40.4V74.8c0,3.89,2.06,5.84,6.19,5.84c4.19,0,6.29-1.95,6.29-5.84V25.61h23.97V76.76z"/>
		<polygon class="st0" points="151.07,100.87 127.1,100.87 104.79,66.31 104.79,100.87 80.81,100.87 80.81,25.61 103.23,25.61 
			127.1,61.83 127.1,25.61 151.07,25.61 		"/>
		<polygon class="st0" points="203.83,100.87 155.68,100.87 155.68,25.61 203.83,25.61 203.83,44.4 179.65,44.4 179.65,54.11 
			202.58,54.11 202.58,72.89 179.65,72.89 179.65,81.99 203.83,81.99 		"/>
		<polygon class="st0" points="301.39,100.87 277.31,100.87 271.26,62.77 261.42,100.87 247.8,100.87 237.01,62.77 230.52,100.87 
			206.44,100.87 220.47,25.61 245.09,25.61 254.19,58.79 263.62,25.61 287.79,25.61 		"/>
		<rect x="305.18" y="25.61" class="st0" width="24.08" height="75.26"/>
		<path class="st0" d="M16.21,110.08h1.63v7.35c0,0.89,0.25,1.69,0.74,2.38c0.49,0.69,1.25,1.04,2.28,1.04
			c1.03,0,1.79-0.35,2.28-1.04c0.49-0.69,0.74-1.49,0.74-2.38v-7.35h1.63v7.6c0,1.38-0.44,2.5-1.32,3.38
			c-0.88,0.88-1.99,1.31-3.33,1.31s-2.44-0.44-3.33-1.31c-0.88-0.87-1.32-2-1.32-3.38V110.08z"/>
		<polygon class="st0" points="29.06,122.07 29.06,110.08 31.2,110.08 37.82,119.93 37.85,119.93 37.85,110.08 39.48,110.08 
			39.48,122.07 37.41,122.07 30.72,112.21 30.69,112.21 30.69,122.07 		"/>
		<rect x="43.25" y="110.08" class="st0" width="1.63" height="11.99"/>
		<polygon class="st0" points="51.64,122.07 47,110.08 48.89,110.08 52.42,119.83 52.45,119.83 56.12,110.08 57.9,110.08 
			53.17,122.07 		"/>
		<polygon class="st0" points="60.02,122.07 60.02,110.08 67.78,110.08 67.78,111.6 61.65,111.6 61.65,115.18 67.36,115.18 
			67.36,116.7 61.65,116.7 61.65,120.54 68.09,120.54 68.09,122.07 		"/>
		<path class="st0" d="M71.08,122.07v-11.99h4.23c0.74,0,1.37,0.1,1.89,0.3c0.53,0.2,0.93,0.48,1.2,0.82
			c0.27,0.35,0.47,0.7,0.59,1.06c0.12,0.36,0.18,0.75,0.18,1.17c0,0.79-0.27,1.49-0.82,2.1c-0.54,0.61-1.26,0.96-2.14,1.07
			l3.41,5.47h-2.04l-3.06-5.28h-1.82v5.28H71.08z M72.71,111.5v3.86h2.14c1.72,0,2.58-0.64,2.58-1.93c0-1.29-0.86-1.93-2.58-1.93
			H72.71z"/>
		<path class="st0" d="M81.14,120.71l1.34-1.15c0.57,0.86,1.42,1.29,2.55,1.29c0.6,0,1.15-0.18,1.65-0.54
			c0.5-0.36,0.75-0.85,0.75-1.45c0-0.5-0.2-0.89-0.61-1.19c-0.41-0.29-0.9-0.52-1.48-0.69c-0.58-0.17-1.16-0.37-1.74-0.59
			c-0.58-0.23-1.07-0.61-1.48-1.15c-0.41-0.54-0.61-1.24-0.61-2.1c0-0.37,0.08-0.75,0.24-1.12c0.16-0.38,0.39-0.74,0.7-1.08
			c0.31-0.34,0.74-0.62,1.28-0.83c0.54-0.21,1.16-0.32,1.85-0.32c1.56,0,2.72,0.46,3.46,1.37l-1.32,1.2
			c-0.2-0.32-0.5-0.57-0.87-0.76c-0.38-0.19-0.8-0.29-1.26-0.29c-0.82,0-1.41,0.19-1.78,0.57c-0.37,0.38-0.56,0.8-0.56,1.26
			c0,0.47,0.15,0.86,0.44,1.17c0.29,0.3,0.66,0.52,1.1,0.65c0.44,0.13,0.91,0.29,1.43,0.47c0.51,0.18,0.99,0.37,1.43,0.57
			c0.44,0.2,0.8,0.53,1.1,0.98c0.29,0.46,0.44,1.02,0.44,1.7c0,1.13-0.4,2.03-1.2,2.7c-0.8,0.67-1.79,1.01-2.98,1.01
			c-0.8,0-1.54-0.14-2.22-0.42C82.08,121.68,81.54,121.26,81.14,120.71"/>
		<rect x="92.25" y="110.08" class="st0" width="1.63" height="11.99"/>
		<path class="st0" d="M97.38,122.07v-11.99h4.19c0.97,0,1.84,0.14,2.61,0.41c0.76,0.28,1.37,0.63,1.83,1.05
			c0.45,0.42,0.83,0.91,1.12,1.46c0.29,0.55,0.5,1.08,0.6,1.58c0.11,0.5,0.16,1,0.16,1.48c0,0.78-0.14,1.52-0.43,2.23
			c-0.29,0.71-0.7,1.35-1.24,1.91c-0.54,0.57-1.23,1.01-2.08,1.35c-0.85,0.33-1.79,0.5-2.84,0.5H97.38z M99,111.6v8.94h2.05
			c1.45,0,2.66-0.39,3.63-1.17c0.97-0.78,1.46-1.88,1.46-3.3c0-0.35-0.04-0.7-0.11-1.06c-0.07-0.36-0.22-0.74-0.42-1.17
			c-0.21-0.42-0.48-0.8-0.82-1.12c-0.33-0.32-0.79-0.59-1.37-0.8c-0.58-0.21-1.24-0.32-1.99-0.32H99z"/>
		<path class="st0" d="M109.38,122.07l5.3-11.99h1.48l5.14,11.99h-1.9l-1.21-2.96h-5.72l-1.19,2.96H109.38z M113.04,117.68h4.55
			l-2.24-5.5h-0.03L113.04,117.68z"/>
		<path class="st0" d="M123.27,122.07v-11.99h4.19c0.97,0,1.84,0.14,2.61,0.41c0.76,0.28,1.37,0.63,1.82,1.05
			c0.45,0.42,0.83,0.91,1.12,1.46c0.29,0.55,0.49,1.08,0.6,1.58c0.11,0.5,0.16,1,0.16,1.48c0,0.78-0.14,1.52-0.43,2.23
			c-0.29,0.71-0.7,1.35-1.24,1.91c-0.54,0.57-1.23,1.01-2.08,1.35c-0.85,0.33-1.79,0.5-2.83,0.5H123.27z M124.89,111.6v8.94h2.06
			c1.45,0,2.66-0.39,3.63-1.17c0.97-0.78,1.46-1.88,1.46-3.3c0-0.35-0.04-0.7-0.11-1.06c-0.07-0.36-0.22-0.74-0.42-1.17
			c-0.21-0.42-0.48-0.8-0.82-1.12c-0.33-0.32-0.79-0.59-1.37-0.8c-0.58-0.21-1.24-0.32-1.99-0.32H124.89z"/>
		<polygon class="st0" points="142.19,122.07 142.19,110.08 149.95,110.08 149.95,111.6 143.82,111.6 143.82,115.18 149.53,115.18 
			149.53,116.7 143.82,116.7 143.82,120.54 150.26,120.54 150.26,122.07 		"/>
		<path class="st0" d="M152.26,120.71l1.34-1.15c0.57,0.86,1.42,1.29,2.55,1.29c0.6,0,1.15-0.18,1.65-0.54
			c0.5-0.36,0.75-0.85,0.75-1.45c0-0.5-0.2-0.89-0.61-1.19c-0.41-0.29-0.9-0.52-1.49-0.69c-0.58-0.17-1.16-0.37-1.74-0.59
			c-0.58-0.23-1.07-0.61-1.48-1.15c-0.41-0.54-0.61-1.24-0.61-2.1c0-0.37,0.08-0.75,0.24-1.12c0.16-0.38,0.39-0.74,0.7-1.08
			c0.31-0.34,0.74-0.62,1.28-0.83c0.54-0.21,1.16-0.32,1.85-0.32c1.56,0,2.72,0.46,3.46,1.37l-1.32,1.2
			c-0.2-0.32-0.5-0.57-0.87-0.76c-0.38-0.19-0.8-0.29-1.26-0.29c-0.81,0-1.41,0.19-1.78,0.57c-0.37,0.38-0.56,0.8-0.56,1.26
			c0,0.47,0.15,0.86,0.44,1.17c0.29,0.3,0.66,0.52,1.1,0.65c0.43,0.13,0.91,0.29,1.43,0.47c0.51,0.18,0.99,0.37,1.43,0.57
			c0.44,0.2,0.8,0.53,1.1,0.98c0.29,0.46,0.44,1.02,0.44,1.7c0,1.13-0.4,2.03-1.2,2.7c-0.8,0.67-1.79,1.01-2.98,1.01
			c-0.8,0-1.54-0.14-2.22-0.42C153.2,121.68,152.66,121.26,152.26,120.71"/>
		<polygon class="st0" points="165.88,122.07 165.88,111.6 162.01,111.6 162.01,110.08 171.38,110.08 171.38,111.6 167.51,111.6 
			167.51,122.07 		"/>
		<path class="st0" d="M170.7,122.07l5.3-11.99h1.48l5.14,11.99h-1.9l-1.21-2.96h-5.72l-1.19,2.96H170.7z M174.37,117.68h4.55
			l-2.24-5.5h-0.03L174.37,117.68z"/>
		<polygon class="st0" points="185.81,122.07 185.81,111.6 181.94,111.6 181.94,110.08 191.31,110.08 191.31,111.6 187.44,111.6 
			187.44,122.07 		"/>
		<path class="st0" d="M190.63,122.07l5.3-11.99h1.48l5.15,11.99h-1.9l-1.21-2.96h-5.72l-1.19,2.96H190.63z M194.3,117.68h4.55
			l-2.24-5.5h-0.03L194.3,117.68z"/>
		<polygon class="st0" points="204.79,122.07 204.79,110.08 206.42,110.08 206.42,120.54 211.94,120.54 211.94,122.07 		"/>
		<path class="st0" d="M219.41,122.07v-11.99h4.19c0.97,0,1.84,0.14,2.61,0.41c0.76,0.28,1.37,0.63,1.83,1.05
			c0.45,0.42,0.83,0.91,1.12,1.46c0.29,0.55,0.5,1.08,0.6,1.58c0.11,0.5,0.16,1,0.16,1.48c0,0.78-0.14,1.52-0.43,2.23
			c-0.29,0.71-0.7,1.35-1.24,1.91c-0.54,0.57-1.23,1.01-2.08,1.35c-0.85,0.33-1.79,0.5-2.84,0.5H219.41z M221.04,111.6v8.94h2.05
			c1.45,0,2.66-0.39,3.63-1.17c0.97-0.78,1.46-1.88,1.46-3.3c0-0.35-0.04-0.7-0.11-1.06c-0.07-0.36-0.22-0.74-0.43-1.17
			c-0.21-0.42-0.48-0.8-0.81-1.12c-0.33-0.32-0.79-0.59-1.37-0.8c-0.58-0.21-1.24-0.32-1.99-0.32H221.04z"/>
		<polygon class="st0" points="232.94,122.07 232.94,110.08 240.7,110.08 240.7,111.6 234.57,111.6 234.57,115.18 240.27,115.18 
			240.27,116.7 234.57,116.7 234.57,120.54 241,120.54 241,122.07 		"/>
		<polygon class="st0" points="249.27,122.07 249.27,110.08 251.7,110.08 255.52,119.15 255.59,119.15 259.37,110.08 261.8,110.08 
			261.8,122.07 260.17,122.07 260.17,112.21 260.14,112.21 256.08,122.07 254.99,122.07 250.93,112.21 250.9,112.21 250.9,122.07 		
			"/>
		<rect x="265.45" y="110.08" class="st0" width="1.63" height="11.99"/>
		<polygon class="st0" points="270.85,122.07 270.85,110.08 272.48,110.08 272.48,120.54 278,120.54 278,122.07 		"/>
		<path class="st0" d="M278.81,122.07l5.3-11.99h1.48l5.14,11.99h-1.9l-1.21-2.96h-5.72l-1.19,2.96H278.81z M282.48,117.68h4.55
			l-2.24-5.5h-0.03L282.48,117.68z"/>
		<path class="st0" d="M298.91,115.36h4.29v5.91c-0.57,0.34-1.27,0.61-2.12,0.8c-0.85,0.2-1.66,0.3-2.43,0.3
			c-1.97,0-3.53-0.61-4.69-1.82c-1.16-1.21-1.74-2.71-1.74-4.48c0-1.8,0.59-3.29,1.77-4.5c1.18-1.2,2.68-1.8,4.5-1.8
			c1.98,0,3.47,0.52,4.48,1.56l-1.15,1.24c-0.88-0.85-1.99-1.27-3.33-1.27c-1.35,0-2.44,0.46-3.28,1.38
			c-0.84,0.92-1.26,2.05-1.26,3.4c0,1.35,0.45,2.49,1.34,3.4c0.89,0.91,2,1.37,3.33,1.37c1.22,0,2.21-0.21,2.95-0.63v-3.34h-2.67
			V115.36z"/>
		<path class="st0" d="M306.86,122.07v-11.99h4.23c0.74,0,1.37,0.1,1.89,0.3c0.53,0.2,0.92,0.48,1.2,0.82
			c0.27,0.35,0.47,0.7,0.59,1.06c0.12,0.36,0.18,0.75,0.18,1.17c0,0.79-0.27,1.49-0.82,2.1c-0.54,0.61-1.26,0.96-2.14,1.07
			l3.41,5.47h-2.04l-3.06-5.28h-1.82v5.28H306.86z M308.49,111.5v3.86h2.14c1.72,0,2.58-0.64,2.58-1.93c0-1.29-0.86-1.93-2.58-1.93
			H308.49z"/>
		<path class="st0" d="M327.93,120.57c-1.18,1.2-2.68,1.8-4.5,1.8c-1.82,0-3.32-0.6-4.5-1.8c-1.18-1.2-1.76-2.7-1.76-4.49
			c0-1.8,0.59-3.29,1.76-4.5c1.18-1.2,2.68-1.8,4.5-1.8c1.82,0,3.32,0.6,4.5,1.8c1.18,1.2,1.77,2.7,1.77,4.5
			C329.69,117.87,329.1,119.37,327.93,120.57 M320.15,119.47c0.84,0.92,1.93,1.38,3.28,1.38c1.35,0,2.44-0.46,3.28-1.38
			c0.84-0.92,1.26-2.05,1.26-3.39c0-1.34-0.42-2.48-1.26-3.4c-0.84-0.92-1.93-1.38-3.28-1.38c-1.35,0-2.44,0.46-3.28,1.38
			c-0.84,0.92-1.26,2.05-1.26,3.4C318.89,117.42,319.31,118.55,320.15,119.47"/>
		<rect x="355.81" y="25.61" class="st0" width="3.08" height="96.76"/>
	</g>
	<g>
		<path class="st0" d="M390.1,68.61l-11.74-27.14h6.8l10.27,24.04h-4.01l10.42-24.04h6.26l-11.78,27.14H390.1z"/>
		<path class="st0" d="M413.39,44.84c-1.12,0-2.02-0.32-2.72-0.97c-0.7-0.65-1.05-1.45-1.05-2.4s0.35-1.76,1.05-2.4
			c0.7-0.65,1.61-0.97,2.72-0.97c1.11,0,2.02,0.3,2.72,0.91c0.7,0.61,1.05,1.39,1.05,2.35c0,1.01-0.34,1.84-1.03,2.5
			C415.44,44.51,414.53,44.84,413.39,44.84z M410.36,68.61V47.75h6.07v20.86H410.36z"/>
		<path class="st0" d="M432.17,68.92c-2.25,0-4.26-0.46-6.03-1.38c-1.76-0.92-3.14-2.19-4.14-3.82s-1.5-3.48-1.5-5.54
			c0-2.09,0.5-3.95,1.5-5.56c1-1.62,2.38-2.88,4.14-3.8c1.76-0.92,3.77-1.38,6.03-1.38c2.2,0,4.12,0.46,5.76,1.38
			c1.63,0.92,2.84,2.23,3.62,3.94l-4.71,2.52c-0.54-0.98-1.22-1.71-2.04-2.17c-0.82-0.47-1.71-0.7-2.66-0.7
			c-1.04,0-1.97,0.23-2.8,0.7c-0.83,0.46-1.48,1.12-1.96,1.98c-0.48,0.85-0.72,1.89-0.72,3.1c0,1.22,0.24,2.25,0.72,3.1
			c0.48,0.85,1.13,1.51,1.96,1.98c0.83,0.46,1.76,0.7,2.8,0.7c0.96,0,1.85-0.23,2.66-0.68c0.82-0.45,1.5-1.18,2.04-2.19l4.71,2.56
			c-0.78,1.68-1.98,2.98-3.62,3.9C436.29,68.46,434.38,68.92,432.17,68.92z"/>
		<path class="st0" d="M455.19,68.92c-2.39,0-4.48-0.47-6.28-1.4s-3.2-2.2-4.18-3.82c-0.99-1.62-1.48-3.46-1.48-5.53
			c0-2.09,0.49-3.95,1.46-5.56c0.97-1.62,2.3-2.88,3.99-3.8c1.69-0.92,3.59-1.38,5.72-1.38c2.05,0,3.89,0.43,5.54,1.3
			s2.95,2.11,3.91,3.72c0.96,1.62,1.44,3.55,1.44,5.8c0,0.23-0.01,0.5-0.04,0.79c-0.03,0.3-0.05,0.58-0.08,0.83h-16.99v-3.53H462
			l-2.33,1.05c0-1.09-0.22-2.03-0.66-2.83c-0.44-0.8-1.05-1.43-1.83-1.88s-1.69-0.68-2.72-0.68c-1.04,0-1.95,0.23-2.74,0.68
			s-1.41,1.08-1.85,1.9c-0.44,0.81-0.66,1.78-0.66,2.89v0.93c0,1.14,0.25,2.14,0.76,3.01c0.51,0.87,1.22,1.53,2.14,1.98
			s2,0.68,3.25,0.68c1.12,0,2.09-0.17,2.94-0.5c0.84-0.33,1.61-0.84,2.31-1.51l3.23,3.49c-0.96,1.09-2.17,1.92-3.62,2.5
			C458.76,68.63,457.09,68.92,455.19,68.92z"/>
		<path class="st0" d="M469.35,68.61V47.75h5.79v5.89l-0.82-1.71c0.62-1.47,1.62-2.59,2.99-3.35s3.05-1.14,5.02-1.14v5.58
			c-0.26-0.03-0.49-0.04-0.7-0.06c-0.21-0.01-0.43-0.02-0.66-0.02c-1.66,0-3,0.47-4.02,1.42c-1.02,0.94-1.54,2.41-1.54,4.4v9.85
			H469.35z"/>
		<path class="st0" d="M485.99,68.61V47.75h5.79v5.89l-0.82-1.71c0.62-1.47,1.62-2.59,2.99-3.35s3.05-1.14,5.02-1.14v5.58
			c-0.26-0.03-0.49-0.04-0.7-0.06c-0.21-0.01-0.43-0.02-0.66-0.02c-1.66,0-3,0.47-4.02,1.42c-1.02,0.94-1.54,2.41-1.54,4.4v9.85
			H485.99z"/>
		<path class="st0" d="M512.79,68.92c-2.39,0-4.48-0.47-6.28-1.4s-3.2-2.2-4.18-3.82c-0.99-1.62-1.48-3.46-1.48-5.53
			c0-2.09,0.49-3.95,1.46-5.56c0.97-1.62,2.3-2.88,3.99-3.8c1.69-0.92,3.59-1.38,5.72-1.38c2.05,0,3.89,0.43,5.54,1.3
			s2.95,2.11,3.91,3.72c0.96,1.62,1.44,3.55,1.44,5.8c0,0.23-0.01,0.5-0.04,0.79c-0.03,0.3-0.05,0.58-0.08,0.83h-16.99v-3.53h13.81
			l-2.33,1.05c0-1.09-0.22-2.03-0.66-2.83c-0.44-0.8-1.05-1.43-1.83-1.88s-1.69-0.68-2.72-0.68c-1.04,0-1.95,0.23-2.74,0.68
			s-1.41,1.08-1.85,1.9c-0.44,0.81-0.66,1.78-0.66,2.89v0.93c0,1.14,0.25,2.14,0.76,3.01c0.51,0.87,1.22,1.53,2.14,1.98
			s2,0.68,3.25,0.68c1.12,0,2.09-0.17,2.94-0.5c0.84-0.33,1.61-0.84,2.31-1.51l3.23,3.49c-0.96,1.09-2.17,1.92-3.62,2.5
			C516.35,68.63,514.68,68.92,512.79,68.92z"/>
		<path class="st0" d="M537.05,68.92c-2.25,0-4.26-0.46-6.03-1.38c-1.76-0.92-3.14-2.19-4.14-3.82s-1.5-3.48-1.5-5.54
			c0-2.09,0.5-3.95,1.5-5.56c1-1.62,2.38-2.88,4.14-3.8c1.76-0.92,3.77-1.38,6.03-1.38c2.2,0,4.12,0.46,5.76,1.38
			c1.63,0.92,2.84,2.23,3.62,3.94l-4.71,2.52c-0.54-0.98-1.22-1.71-2.04-2.17c-0.82-0.47-1.71-0.7-2.66-0.7
			c-1.04,0-1.97,0.23-2.8,0.7c-0.83,0.46-1.48,1.12-1.96,1.98c-0.48,0.85-0.72,1.89-0.72,3.1c0,1.22,0.24,2.25,0.72,3.1
			c0.48,0.85,1.13,1.51,1.96,1.98c0.83,0.46,1.76,0.7,2.8,0.7c0.96,0,1.85-0.23,2.66-0.68c0.82-0.45,1.5-1.18,2.04-2.19l4.71,2.56
			c-0.78,1.68-1.98,2.98-3.62,3.9C541.17,68.46,539.26,68.92,537.05,68.92z"/>
		<path class="st0" d="M547.75,52.87v-4.65h14.5v4.65H547.75z M558.79,68.92c-2.46,0-4.38-0.63-5.76-1.88s-2.06-3.12-2.06-5.6v-18.3
			h6.07v18.22c0,0.88,0.23,1.56,0.7,2.04c0.47,0.48,1.1,0.72,1.91,0.72c0.96,0,1.78-0.26,2.45-0.78l1.63,4.27
			c-0.62,0.44-1.37,0.77-2.24,0.99C560.62,68.81,559.72,68.92,558.79,68.92z"/>
		<path class="st0" d="M576.44,68.92c-2.23,0-4.21-0.47-5.93-1.4c-1.72-0.93-3.09-2.2-4.08-3.82c-1-1.62-1.5-3.46-1.5-5.53
			c0-2.09,0.5-3.95,1.5-5.56c1-1.62,2.36-2.88,4.08-3.8c1.72-0.92,3.7-1.38,5.93-1.38c2.2,0,4.17,0.46,5.91,1.38
			c1.74,0.92,3.1,2.18,4.08,3.78c0.99,1.6,1.48,3.46,1.48,5.58c0,2.07-0.49,3.91-1.48,5.53c-0.99,1.62-2.35,2.89-4.08,3.82
			C580.62,68.45,578.65,68.92,576.44,68.92z M576.44,63.96c1.01,0,1.92-0.23,2.72-0.7c0.8-0.47,1.44-1.13,1.91-2s0.7-1.89,0.7-3.08
			c0-1.21-0.23-2.25-0.7-3.1c-0.47-0.85-1.1-1.51-1.91-1.98c-0.8-0.47-1.71-0.7-2.72-0.7c-1.01,0-1.92,0.23-2.72,0.7
			c-0.8,0.46-1.45,1.12-1.92,1.98c-0.48,0.85-0.72,1.89-0.72,3.1c0,1.19,0.24,2.22,0.72,3.08c0.48,0.87,1.12,1.53,1.92,2
			C574.52,63.72,575.43,63.96,576.44,63.96z"/>
		<path class="st0" d="M591.96,68.61V47.75h5.79v5.89l-0.82-1.71c0.62-1.47,1.62-2.59,2.99-3.35s3.05-1.14,5.02-1.14v5.58
			c-0.26-0.03-0.49-0.04-0.7-0.06c-0.21-0.01-0.43-0.02-0.66-0.02c-1.66,0-3,0.47-4.02,1.42c-1.02,0.94-1.54,2.41-1.54,4.4v9.85
			H591.96z"/>
		<path class="st0" d="M614.9,68.92c-1.63,0-3.03-0.28-4.2-0.83c-1.17-0.56-2.06-1.31-2.68-2.27c-0.62-0.96-0.93-2.03-0.93-3.22
			c0-1.24,0.3-2.33,0.91-3.26s1.58-1.66,2.9-2.19c1.32-0.53,3.05-0.79,5.17-0.79h5.56v3.53h-4.9c-1.43,0-2.41,0.23-2.94,0.7
			c-0.53,0.46-0.8,1.05-0.8,1.75c0,0.78,0.3,1.39,0.91,1.84c0.61,0.45,1.44,0.68,2.51,0.68c1.01,0,1.92-0.24,2.72-0.72
			c0.8-0.48,1.39-1.18,1.75-2.11l0.93,2.79c-0.44,1.34-1.24,2.37-2.41,3.06C618.25,68.57,616.74,68.92,614.9,68.92z M621.28,68.61
			v-4.07l-0.39-0.89v-7.29c0-1.29-0.4-2.3-1.19-3.02s-2-1.09-3.64-1.09c-1.12,0-2.21,0.17-3.29,0.52c-1.08,0.35-1.99,0.82-2.74,1.42
			l-2.18-4.23c1.14-0.8,2.51-1.42,4.12-1.86c1.61-0.44,3.24-0.66,4.9-0.66c3.19,0,5.66,0.75,7.43,2.25c1.76,1.5,2.64,3.84,2.64,7.02
			v11.9H621.28z"/>
		<path class="st0" d="M641.66,68.92c-1.97,0-3.75-0.45-5.33-1.34s-2.83-2.14-3.75-3.74c-0.92-1.6-1.38-3.49-1.38-5.66
			c0-2.2,0.46-4.1,1.38-5.7c0.92-1.6,2.17-2.84,3.75-3.72s3.36-1.32,5.33-1.32c1.76,0,3.3,0.39,4.63,1.16s2.35,1.95,3.07,3.53
			c0.73,1.58,1.09,3.59,1.09,6.05c0,2.43-0.35,4.44-1.05,6.03s-1.71,2.77-3.01,3.55C645.07,68.53,643.5,68.92,641.66,68.92z
			 M642.71,63.96c0.98,0,1.88-0.23,2.68-0.7c0.8-0.47,1.45-1.13,1.93-2c0.48-0.87,0.72-1.89,0.72-3.08c0-1.21-0.24-2.25-0.72-3.1
			c-0.48-0.85-1.12-1.51-1.93-1.98c-0.8-0.47-1.7-0.7-2.68-0.7c-1.01,0-1.92,0.23-2.72,0.7c-0.8,0.46-1.45,1.12-1.92,1.98
			c-0.48,0.85-0.72,1.89-0.72,3.1c0,1.19,0.24,2.22,0.72,3.08s1.12,1.53,1.92,2C640.79,63.72,641.7,63.96,642.71,63.96z
			 M648.19,68.61v-4.27l0.12-6.2l-0.39-6.17V39.84h6.07v28.77H648.19z"/>
		<path class="st0" d="M669.54,68.92c-2.23,0-4.21-0.47-5.93-1.4c-1.72-0.93-3.09-2.2-4.08-3.82c-1-1.62-1.5-3.46-1.5-5.53
			c0-2.09,0.5-3.95,1.5-5.56c1-1.62,2.36-2.88,4.08-3.8c1.72-0.92,3.7-1.38,5.93-1.38c2.2,0,4.17,0.46,5.91,1.38
			c1.74,0.92,3.1,2.18,4.08,3.78c0.99,1.6,1.48,3.46,1.48,5.58c0,2.07-0.49,3.91-1.48,5.53c-0.99,1.62-2.35,2.89-4.08,3.82
			C673.71,68.45,671.74,68.92,669.54,68.92z M669.54,63.96c1.01,0,1.92-0.23,2.72-0.7c0.8-0.47,1.44-1.13,1.91-2s0.7-1.89,0.7-3.08
			c0-1.21-0.23-2.25-0.7-3.1c-0.47-0.85-1.1-1.51-1.91-1.98c-0.8-0.47-1.71-0.7-2.72-0.7c-1.01,0-1.92,0.23-2.72,0.7
			c-0.8,0.46-1.45,1.12-1.92,1.98c-0.48,0.85-0.72,1.89-0.72,3.1c0,1.19,0.24,2.22,0.72,3.08c0.48,0.87,1.12,1.53,1.92,2
			C667.62,63.72,668.53,63.96,669.54,63.96z"/>
	</g>
	<g>
		<path class="st0" d="M390.49,109.71c-1.97,0-3.75-0.45-5.33-1.34s-2.83-2.14-3.75-3.74c-0.92-1.6-1.38-3.49-1.38-5.66
			c0-2.2,0.46-4.1,1.38-5.7c0.92-1.6,2.17-2.84,3.75-3.72s3.36-1.32,5.33-1.32c1.76,0,3.3,0.39,4.63,1.16s2.35,1.95,3.07,3.53
			c0.73,1.58,1.09,3.59,1.09,6.05c0,2.43-0.35,4.44-1.05,6.03s-1.71,2.77-3.01,3.55C393.9,109.33,392.33,109.71,390.49,109.71z
			 M391.54,104.75c0.98,0,1.88-0.23,2.68-0.7c0.8-0.47,1.45-1.13,1.93-2c0.48-0.87,0.72-1.89,0.72-3.08c0-1.21-0.24-2.25-0.72-3.1
			c-0.48-0.85-1.12-1.51-1.93-1.98c-0.8-0.47-1.7-0.7-2.68-0.7c-1.01,0-1.92,0.23-2.72,0.7c-0.8,0.46-1.45,1.12-1.92,1.98
			c-0.48,0.85-0.72,1.89-0.72,3.1c0,1.19,0.24,2.22,0.72,3.08s1.12,1.53,1.92,2C389.62,104.52,390.52,104.75,391.54,104.75z
			 M397.02,109.4v-4.27l0.12-6.2l-0.39-6.17V80.63h6.07v28.77H397.02z"/>
		<path class="st0" d="M418.64,109.71c-2.39,0-4.48-0.47-6.28-1.4s-3.2-2.2-4.18-3.82c-0.99-1.62-1.48-3.46-1.48-5.53
			c0-2.09,0.49-3.95,1.46-5.56c0.97-1.62,2.3-2.88,3.99-3.8c1.69-0.92,3.59-1.38,5.72-1.38c2.05,0,3.89,0.43,5.54,1.3
			s2.95,2.11,3.91,3.72c0.96,1.62,1.44,3.55,1.44,5.8c0,0.23-0.01,0.5-0.04,0.79c-0.03,0.3-0.05,0.58-0.08,0.83h-16.99v-3.53h13.81
			l-2.33,1.05c0-1.09-0.22-2.03-0.66-2.83c-0.44-0.8-1.05-1.43-1.83-1.88s-1.69-0.68-2.72-0.68c-1.04,0-1.95,0.23-2.74,0.68
			s-1.41,1.08-1.85,1.9c-0.44,0.81-0.66,1.78-0.66,2.89v0.93c0,1.14,0.25,2.14,0.76,3.01c0.51,0.87,1.22,1.53,2.14,1.98
			s2,0.68,3.25,0.68c1.12,0,2.09-0.17,2.94-0.5c0.84-0.33,1.61-0.84,2.31-1.51l3.23,3.49c-0.96,1.09-2.17,1.92-3.62,2.5
			C422.2,109.42,420.53,109.71,418.64,109.71z"/>
		<path class="st0" d="M452.08,109.4l-11.74-27.14h6.8l10.27,24.04h-4.01l10.42-24.04h6.26l-11.78,27.14H452.08z"/>
		<path class="st0" d="M475.38,85.63c-1.12,0-2.02-0.32-2.72-0.97c-0.7-0.65-1.05-1.45-1.05-2.4s0.35-1.76,1.05-2.4
			c0.7-0.65,1.61-0.97,2.72-0.97c1.11,0,2.02,0.3,2.72,0.91c0.7,0.61,1.05,1.39,1.05,2.35c0,1.01-0.34,1.84-1.03,2.5
			C477.43,85.31,476.52,85.63,475.38,85.63z M472.34,109.4V88.54h6.07v20.86H472.34z"/>
		<path class="st0" d="M496.61,88.23c1.66,0,3.14,0.33,4.45,0.99c1.31,0.66,2.34,1.67,3.09,3.02c0.75,1.36,1.13,3.1,1.13,5.22v11.94
			h-6.07V98.39c0-1.68-0.37-2.92-1.11-3.72c-0.74-0.8-1.78-1.2-3.13-1.2c-0.96,0-1.82,0.2-2.59,0.6c-0.76,0.4-1.36,1.01-1.79,1.84
			c-0.43,0.83-0.64,1.89-0.64,3.18v10.31h-6.07V88.54h5.79v5.78l-1.09-1.74c0.75-1.4,1.83-2.47,3.23-3.22
			C493.23,88.61,494.82,88.23,496.61,88.23z"/>
		<path class="st0" d="M520.72,109.71c-2.25,0-4.26-0.46-6.03-1.38c-1.76-0.92-3.14-2.19-4.14-3.82s-1.5-3.48-1.5-5.54
			c0-2.09,0.5-3.95,1.5-5.56c1-1.62,2.38-2.88,4.14-3.8c1.76-0.92,3.77-1.38,6.03-1.38c2.2,0,4.12,0.46,5.76,1.38
			c1.63,0.92,2.84,2.23,3.62,3.94l-4.71,2.52c-0.54-0.98-1.22-1.71-2.04-2.17c-0.82-0.47-1.71-0.7-2.66-0.7
			c-1.04,0-1.97,0.23-2.8,0.7c-0.83,0.46-1.48,1.12-1.96,1.98c-0.48,0.85-0.72,1.89-0.72,3.1c0,1.22,0.24,2.25,0.72,3.1
			c0.48,0.85,1.13,1.51,1.96,1.98c0.83,0.46,1.76,0.7,2.8,0.7c0.96,0,1.85-0.23,2.66-0.68c0.82-0.45,1.5-1.18,2.04-2.19l4.71,2.56
			c-0.78,1.68-1.98,2.98-3.62,3.9C524.84,109.26,522.92,109.71,520.72,109.71z"/>
		<path class="st0" d="M542.26,109.71c-1.74,0-3.29-0.34-4.65-1.01c-1.36-0.67-2.42-1.7-3.17-3.08s-1.13-3.15-1.13-5.29V88.54h6.07
			v10.9c0,1.73,0.37,3,1.11,3.82c0.74,0.81,1.78,1.22,3.13,1.22c0.93,0,1.76-0.2,2.49-0.6c0.73-0.4,1.3-1.02,1.71-1.86
			c0.41-0.84,0.62-1.89,0.62-3.16V88.54h6.07v20.86h-5.76v-5.74l1.05,1.67c-0.7,1.45-1.73,2.54-3.09,3.28
			S543.87,109.71,542.26,109.71z"/>
		<path class="st0" d="M559.99,109.4V80.63h6.07v28.77H559.99z"/>
		<path class="st0" d="M578,109.71c-1.63,0-3.03-0.28-4.2-0.83c-1.17-0.56-2.06-1.31-2.68-2.27c-0.62-0.96-0.93-2.03-0.93-3.22
			c0-1.24,0.3-2.33,0.91-3.26s1.58-1.66,2.9-2.19c1.32-0.53,3.05-0.79,5.17-0.79h5.56v3.53h-4.9c-1.43,0-2.41,0.23-2.94,0.7
			c-0.53,0.46-0.8,1.05-0.8,1.75c0,0.78,0.3,1.39,0.91,1.84c0.61,0.45,1.44,0.68,2.51,0.68c1.01,0,1.92-0.24,2.72-0.72
			c0.8-0.48,1.39-1.18,1.75-2.11l0.93,2.79c-0.44,1.34-1.24,2.37-2.41,3.06C581.34,109.37,579.84,109.71,578,109.71z M584.38,109.4
			v-4.07l-0.39-0.89v-7.29c0-1.29-0.4-2.3-1.19-3.02s-2-1.09-3.64-1.09c-1.12,0-2.21,0.17-3.29,0.52c-1.08,0.35-1.99,0.82-2.74,1.42
			l-2.18-4.23c1.14-0.8,2.51-1.42,4.12-1.86c1.61-0.44,3.24-0.66,4.9-0.66c3.19,0,5.66,0.75,7.43,2.25c1.76,1.5,2.64,3.84,2.64,7.02
			v11.9H584.38z"/>
		<path class="st0" d="M605.49,109.71c-2.25,0-4.26-0.46-6.03-1.38c-1.76-0.92-3.14-2.19-4.14-3.82s-1.5-3.48-1.5-5.54
			c0-2.09,0.5-3.95,1.5-5.56c1-1.62,2.38-2.88,4.14-3.8c1.76-0.92,3.77-1.38,6.03-1.38c2.2,0,4.12,0.46,5.76,1.38
			c1.63,0.92,2.84,2.23,3.62,3.94l-4.71,2.52c-0.54-0.98-1.22-1.71-2.04-2.17c-0.82-0.47-1.71-0.7-2.66-0.7
			c-1.04,0-1.97,0.23-2.8,0.7c-0.83,0.46-1.48,1.12-1.96,1.98c-0.48,0.85-0.72,1.89-0.72,3.1c0,1.22,0.24,2.25,0.72,3.1
			c0.48,0.85,1.13,1.51,1.96,1.98c0.83,0.46,1.76,0.7,2.8,0.7c0.96,0,1.85-0.23,2.66-0.68c0.82-0.45,1.5-1.18,2.04-2.19l4.71,2.56
			c-0.78,1.68-1.98,2.98-3.62,3.9C609.61,109.26,607.69,109.71,605.49,109.71z"/>
		<path class="st0" d="M621.24,85.63c-1.12,0-2.02-0.32-2.72-0.97c-0.7-0.65-1.05-1.45-1.05-2.4s0.35-1.76,1.05-2.4
			c0.7-0.65,1.61-0.97,2.72-0.97c1.11,0,2.02,0.3,2.72,0.91c0.7,0.61,1.05,1.39,1.05,2.35c0,1.01-0.34,1.84-1.03,2.5
			C623.29,85.31,622.38,85.63,621.24,85.63z M618.21,109.4V88.54h6.07v20.86H618.21z"/>
		<path class="st0" d="M639.71,109.71c-2.23,0-4.21-0.47-5.93-1.4c-1.72-0.93-3.09-2.2-4.08-3.82c-1-1.62-1.5-3.46-1.5-5.53
			c0-2.09,0.5-3.95,1.5-5.56c1-1.62,2.36-2.88,4.08-3.8c1.72-0.92,3.7-1.38,5.93-1.38c2.2,0,4.17,0.46,5.91,1.38
			c1.74,0.92,3.1,2.18,4.08,3.78c0.99,1.6,1.48,3.46,1.48,5.58c0,2.07-0.49,3.91-1.48,5.53c-0.99,1.62-2.35,2.89-4.08,3.82
			C643.89,109.25,641.91,109.71,639.71,109.71z M639.71,104.75c1.01,0,1.92-0.23,2.72-0.7c0.8-0.47,1.44-1.13,1.91-2
			s0.7-1.89,0.7-3.08c0-1.21-0.23-2.25-0.7-3.1c-0.47-0.85-1.1-1.51-1.91-1.98c-0.8-0.47-1.71-0.7-2.72-0.7
			c-1.01,0-1.92,0.23-2.72,0.7c-0.8,0.46-1.45,1.12-1.92,1.98c-0.48,0.85-0.72,1.89-0.72,3.1c0,1.19,0.24,2.22,0.72,3.08
			c0.48,0.87,1.12,1.53,1.92,2C637.79,104.52,638.7,104.75,639.71,104.75z M636.1,85.87l5.25-5.58h6.53l-7.04,5.58H636.1z"/>
		<path class="st0" d="M667.79,88.23c1.66,0,3.14,0.33,4.45,0.99c1.31,0.66,2.34,1.67,3.09,3.02c0.75,1.36,1.13,3.1,1.13,5.22v11.94
			h-6.07V98.39c0-1.68-0.37-2.92-1.11-3.72c-0.74-0.8-1.78-1.2-3.13-1.2c-0.96,0-1.82,0.2-2.59,0.6c-0.76,0.4-1.36,1.01-1.79,1.84
			c-0.43,0.83-0.64,1.89-0.64,3.18v10.31h-6.07V88.54h5.79v5.78l-1.09-1.74c0.75-1.4,1.83-2.47,3.23-3.22
			C664.4,88.61,666,88.23,667.79,88.23z"/>
	</g>
</g>
</svg>
