<?xml version="1.0" encoding="utf-8"?>
<!-- Generator: Adobe Illustrator 24.2.0, SVG Export Plug-In . SVG Version: 6.00 Build 0)  -->
<svg version="1.1" xmlns="http://www.w3.org/2000/svg" xmlns:xlink="http://www.w3.org/1999/xlink" x="0px" y="0px"
	 viewBox="0 0 1227.59 370.72" style="enable-background:new 0 0 1227.59 370.72;" xml:space="preserve">
<style type="text/css">
	.st0{fill:#FFFFFF;}
	.st1{clip-path:url(#SVGID_2_);fill:#254763;}
	.st2{clip-path:url(#SVGID_2_);fill:#F4981A;}
	.st3{clip-path:url(#SVGID_4_);fill:#082F43;}
	.st4{clip-path:url(#SVGID_4_);fill:#28285B;}
	.st5{clip-path:url(#SVGID_4_);fill:#808081;}
	.st6{clip-path:url(#SVGID_4_);fill:#F4981A;}
	.st7{fill:#F4981A;}
	.st8{fill:#254763;}
	.st9{clip-path:url(#SVGID_6_);fill:url(#SVGID_7_);}
	.st10{fill:#1D3347;}
	.st11{clip-path:url(#SVGID_9_);}
	.st12{clip-path:url(#SVGID_9_);fill:#FFFFFF;}
	.st13{clip-path:url(#SVGID_11_);fill:#0B2E43;}
	.st14{clip-path:url(#SVGID_11_);fill:#FFFFFF;}
	.st15{clip-path:url(#SVGID_11_);fill:#EF7D17;}
	.st16{clip-path:url(#SVGID_11_);fill:#F49818;}
	.st17{clip-path:url(#SVGID_11_);fill:#989898;}
	.st18{clip-path:url(#SVGID_11_);fill:#264763;}
	.st19{clip-path:url(#SVGID_13_);fill:url(#SVGID_14_);}
	.st20{clip-path:url(#SVGID_16_);fill:#FFFFFF;}
	.st21{clip-path:url(#SVGID_16_);fill:#264763;}
	.st22{clip-path:url(#SVGID_18_);}
	.st23{clip-path:url(#SVGID_20_);fill:url(#SVGID_21_);}
	.st24{clip-path:url(#SVGID_23_);fill:#0B2E43;}
	.st25{clip-path:url(#SVGID_23_);fill:#989898;}
	.st26{clip-path:url(#SVGID_23_);fill:#EE7D16;}
	.st27{clip-path:url(#SVGID_23_);fill:#1D3247;}
	.st28{clip-path:url(#SVGID_23_);fill:#F4981A;}
	.st29{clip-path:url(#SVGID_23_);fill:#082F43;}
	.st30{clip-path:url(#SVGID_23_);fill:#28285B;}
	.st31{clip-path:url(#SVGID_23_);fill:#808081;}
	.st32{clip-path:url(#SVGID_23_);fill:#254763;}
	.st33{clip-path:url(#SVGID_25_);fill:#FFFFFF;}
	.st34{clip-path:url(#SVGID_25_);}
	.st35{clip-path:url(#SVGID_27_);fill:#0B2E43;}
	.st36{clip-path:url(#SVGID_27_);fill:#FFFFFF;}
	.st37{clip-path:url(#SVGID_27_);fill:#EF7D17;}
	.st38{clip-path:url(#SVGID_27_);fill:#F49818;}
	.st39{clip-path:url(#SVGID_27_);fill:#989898;}
	.st40{clip-path:url(#SVGID_27_);fill:#264763;}
	.st41{clip-path:url(#SVGID_29_);fill:url(#SVGID_30_);}
	.st42{clip-path:url(#SVGID_32_);fill:#FFFFFF;}
	.st43{clip-path:url(#SVGID_32_);fill:#264763;}
	.st44{clip-path:url(#SVGID_34_);}
	.st45{clip-path:url(#SVGID_36_);fill:#FFFFFF;}
	.st46{clip-path:url(#SVGID_36_);}
	.st47{clip-path:url(#SVGID_38_);fill:#0B2E43;}
	.st48{clip-path:url(#SVGID_38_);fill:#FFFFFF;}
	.st49{clip-path:url(#SVGID_38_);fill:#EF7D17;}
	.st50{clip-path:url(#SVGID_38_);fill:#F49818;}
	.st51{clip-path:url(#SVGID_38_);fill:#989898;}
	.st52{clip-path:url(#SVGID_38_);fill:#264763;}
	.st53{clip-path:url(#SVGID_40_);fill:url(#SVGID_41_);}
	.st54{clip-path:url(#SVGID_43_);fill:#FFFFFF;}
	.st55{clip-path:url(#SVGID_43_);fill:#264763;}
	.st56{clip-path:url(#SVGID_45_);}
	.st57{clip-path:url(#SVGID_47_);fill:#FFFFFF;}
	.st58{clip-path:url(#SVGID_47_);}
	.st59{clip-path:url(#SVGID_49_);fill:#0B2E43;}
	.st60{clip-path:url(#SVGID_49_);fill:#FFFFFF;}
	.st61{clip-path:url(#SVGID_49_);fill:#EF7D17;}
	.st62{clip-path:url(#SVGID_49_);fill:#F49818;}
	.st63{clip-path:url(#SVGID_49_);fill:#989898;}
	.st64{clip-path:url(#SVGID_49_);fill:#264763;}
	.st65{clip-path:url(#SVGID_51_);fill:url(#SVGID_52_);}
	.st66{clip-path:url(#SVGID_54_);fill:#FFFFFF;}
	.st67{clip-path:url(#SVGID_54_);fill:#264763;}
	.st68{fill:#0B2E43;}
	.st69{fill:#EF7D17;}
	.st70{fill:#F49818;}
	.st71{fill:#989898;}
	.st72{fill:#264763;}
	.st73{clip-path:url(#SVGID_56_);fill:url(#SVGID_57_);}
	.st74{opacity:0.92;}
	.st75{fill:#F49940;}
	.st76{fill:#102B42;}
	.st77{fill:#244762;}
	.st78{fill:#0A0A0A;stroke:#000000;stroke-miterlimit:10;}
	.st79{fill:none;stroke:#000000;stroke-miterlimit:10;}
	.st80{fill:#FFFFFF;stroke:#FFFFFF;stroke-miterlimit:10;}
	.st81{clip-path:url(#SVGID_59_);}
	.st82{fill:none;stroke:#FFFFFF;stroke-width:3;stroke-miterlimit:10;}
	.st83{clip-path:url(#SVGID_61_);}
	.st84{fill:#BF4C26;}
	.st85{fill:#F0E1C1;}
	.st86{fill:#2B2E34;}
	.st87{fill:#494441;}
	.st88{fill:#F59B25;}
	.st89{fill:#07B5C2;}
	.st90{fill:#5A4D9B;}
	.st91{fill:#A3C739;}
	.st92{fill:#515767;}
	.st93{fill:none;stroke:#FFFFFF;stroke-miterlimit:10;}
	.st94{fill:none;}
	.st95{fill:#616160;}
</style>
<g id="Capa_1">
	<g>
		<g>
			<rect x="33.97" y="23.81" class="st70" width="136.04" height="149.13"/>
			<rect x="33.45" y="194.71" class="st69" width="136.04" height="149.13"/>
			<rect x="194.9" y="194.46" class="st69" width="136.04" height="149.13"/>
		</g>
		<g>
			<g>
				<g>
					<path class="st0" d="M142.19,321.54l103.98-0.88l-2-35.29l2-39.15l23.87-41.15c0,0,22.37-41.2,14.55-73.78
						c-7.82-32.58-29.09-49.68-29.09-49.68l-14.57-15.2l-36.08-13.42c0,0-36.68-7.03-71.81,10.04s-49.19,58.81-49.19,58.81
						l-2.01,35.58l2.51,15.35l-26.1,35.32l16.56,7.51l4.01,4.01l-1,11.55l13.55,6.02l-11.04,9.54l10.79,5.89l-0.75,12.68l3.01,15.06
						c0,0,4.52,6.02,15.56,4.01c11.04-2.01,25.31-0.5,25.31-0.5s6.81,0,7.31,10.54C142.06,304.95,142.19,321.54,142.19,321.54z"/>
					<g>
						<path class="st0" d="M168.43,55.43c-13.13,2.03-25.67,5.78-37.28,12.23c-8.26,4.59-15.58,10.32-22.09,17.08
							c-13.84,14.39-20.68,31.8-23.2,51.08c-1.56,11.92-1.2,23.78,1.6,35.53c0.35,1.45,0.05,2.75-0.93,4
							c-7.25,9.25-14.41,18.57-21.67,27.81c-2.87,3.65-2.35,6.27,1.98,8.21c4.05,1.82,8.11,3.6,12.24,5.24
							c2.37,0.94,3.38,2.48,3.28,4.92c-0.08,2.04,0.2,4.12-0.07,6.13c-0.36,2.71,0.77,4.06,3.31,4.86c1.8,0.57,3.52,1.46,5.15,2.43
							c3.4,2.01,3.62,3.88,0.74,6.5c-1.66,1.51-3.43,2.97-5.36,4.11c-2.22,1.31-1.59,2.13,0.05,3.27c1.71,1.18,3.25,2.58,4.94,3.79
							c2.64,1.89,3.84,4.31,3.65,7.57c-0.2,3.55-0.14,7.12-0.11,10.68c0.08,7.71,3.11,10.66,10.92,10.67
							c11.29,0.01,22.58-0.01,33.88,0c4.07,0,4.97,0.89,4.98,4.84c0.01,10.15-0.05,20.29,0.04,30.44c0.02,2.05-0.47,3.64-2.28,4.73
							c-0.73,0-1.46,0-2.19,0c-1.79-1.26-2.21-2.99-2.19-5.09c0.09-8.72-0.02-17.45,0.08-26.17c0.02-1.9-0.57-2.38-2.46-2.36
							c-10.02,0.08-20.04,0.05-30.06,0.03c-11.12-0.03-16.58-5.05-17.23-15.97c-0.21-3.64-0.2-7.3-0.06-10.94
							c0.07-1.82-0.57-2.93-2-4c-2.89-2.16-5.72-4.41-8.43-6.79c-3.11-2.74-3.02-3.9,0.27-6.61c1.87-1.54,3.81-2.99,5.95-4.66
							c-1.76-0.84-3.25-1.66-4.82-2.26c-2.57-0.99-3.58-2.81-3.48-5.42c0.08-2.31-0.07-4.64,0.11-6.94c0.13-1.72-0.56-2.59-2.12-3.2
							c-2.95-1.15-5.83-2.49-8.77-3.68c-8.88-3.61-10.88-10.68-5.08-18.18c6.42-8.31,12.8-16.64,19.32-24.87
							c1.36-1.72,1.69-3.3,1.31-5.38c-4.28-23.07-1.87-45.44,8.54-66.62c11.91-24.23,31.8-39.76,57.53-48.45
							c7.14-2.41,14.45-4.22,22.02-4.82C168.43,51.25,168.43,53.34,168.43,55.43z"/>
						<path class="st0" d="M168.43,55.43c0-2.09,0-4.18,0-6.27c15.97-2.26,31.69-1.04,47.21,3.16c10.23,2.77,19.93,6.8,28.79,12.52
							c25.51,16.5,39.72,39.8,43.78,69.37c1.96,14.32,0.39,28.16-3.91,41.86c-6.53,20.82-15.12,40.72-27.2,59.09
							c-1.77,2.69-3.74,5.27-5.83,7.72c-1.14,1.33-1.55,2.65-1.55,4.34c0.04,22.79,0.03,45.57,0.02,68.36c0,0.97,0,1.98-0.24,2.9
							c-0.42,1.61-1.7,2.28-3.32,2.19c-1.63-0.09-2.74-0.93-2.95-2.61c-0.1-0.79-0.11-1.6-0.11-2.4
							c-0.01-23.32,0.02-46.64-0.04-69.96c-0.01-2.37,0.69-4.18,2.3-5.99c7.23-8.12,12.43-17.51,17.2-27.13
							c8.17-16.43,14.88-33.38,18.65-51.35c2.58-12.3,1.46-24.52-1.6-36.49c-9.45-37-34.38-58.63-71.61-67.58
							C194.98,54.03,181.73,53.84,168.43,55.43z"/>
					</g>
				</g>
			</g>
			<g>
				<g>
					<path class="st68" d="M237.45,186.12c0,0.57,0.02,1.06,0,1.54c-0.04,0.94-0.63,1.56-1.57,1.56c-4.14,0.01-8.28,0.01-12.41,0
						c-0.93,0-1.52-0.63-1.56-1.58c-0.02-0.48,0-0.96,0-1.52c-0.38,0-0.66,0-0.95,0c-4.19,0-8.37,0-12.56,0
						c-1.58,0-2.09-0.52-2.09-2.1c0-9.01,0-18.02,0-27.02c0-1.54,0.53-2.07,2.05-2.07c1.36,0,2.72,0,4.19,0c0-0.34,0-0.62,0-0.9
						c0-1.24-0.01-2.48,0.01-3.72c0.02-0.94,0.58-1.56,1.47-1.57c3.41-0.01,6.82-0.08,10.22,0.05c2.2,0.08,3.96,1.23,5.41,3
						c0.18-0.19,0.33-0.36,0.49-0.52c1.5-1.61,3.34-2.5,5.55-2.53c3.14-0.03,6.28-0.02,9.42-0.01c1.1,0,1.67,0.57,1.68,1.67
						c0.02,1.48,0,2.96,0,4.54c1.23,0,2.39,0,3.55,0c0.34,0,0.68-0.01,1.02,0c1.06,0.05,1.67,0.65,1.67,1.72
						c0.01,9.25,0.01,18.5,0,27.75c0,1.15-0.64,1.72-1.88,1.72c-4.26,0.01-8.52,0-12.78,0C238.1,186.12,237.81,186.12,237.45,186.12
						z M215.69,151.83c0,8.34,0,16.6,0,24.94c2.26,0,4.47,0.04,6.68-0.01c2-0.05,3.88,0.25,5.56,1.4c0.02,0.02,0.08-0.02,0.15-0.04
						c0.01-0.14,0.02-0.28,0.02-0.43c-0.01-7.11-0.01-14.22-0.03-21.33c-0.01-2.36-1.86-4.41-4.22-4.5
						C221.15,151.76,218.45,151.83,215.69,151.83z M243.64,176.77c0-8.38,0-16.65,0-24.94c-2.75,0-5.45-0.08-8.15,0.02
						c-2.36,0.09-4.21,2.14-4.22,4.5c-0.02,7.11-0.02,14.22-0.03,21.33c0,0.16,0.03,0.31,0.06,0.56c1.33-0.89,2.69-1.43,4.21-1.46
						c1.14-0.02,2.29-0.02,3.43-0.02C240.5,176.77,242.05,176.77,243.64,176.77z M228.07,186.07c0-0.48,0.01-0.93,0-1.39
						c-0.08-2.94-1.96-4.8-4.9-4.8c-2.99-0.01-5.99,0-8.98,0c-1.05,0-1.69-0.64-1.69-1.67c0.01-6.4,0.02-12.8,0.04-19.2
						c0-0.28,0-0.57,0-0.89c-1.08,0-2.06,0-3.09,0c0,8.29,0,16.55,0,24.87c0.34,0,0.63,0,0.92,0c4.21,0,8.42,0,12.63,0
						c1.44,0,2,0.55,2,1.97c0,0.38,0,0.75,0,1.17c0.97,0,1.82,0,2.67,0C227.78,186.12,227.9,186.09,228.07,186.07z M234.34,186.08
						c0-0.36,0-0.62,0-0.89c0-1.74,0.47-2.22,2.2-2.22c4.16,0,8.32,0,12.48,0c0.28,0,0.56,0,0.88,0c0-8.34,0-16.58,0-24.85
						c-1.04,0-2.04,0-3.1,0c0,0.88,0,1.71,0,2.53c0.01,5.84,0.02,11.68,0.04,17.52c0,1.04-0.62,1.69-1.66,1.7
						c-3.11,0.01-6.23-0.05-9.34,0.02c-3.16,0.07-5.17,2.8-4.46,6.19C232.33,186.08,233.3,186.08,234.34,186.08z"/>
				</g>
				<g>
					<path class="st68" d="M164.2,89.02c1.35,0,2.7-0.05,4.05,0.01c2.05,0.09,3.1,0.96,3.41,2.96c0.23,1.48,0.35,3,0.31,4.49
						c-0.06,2.63,0.73,3.4,3.33,3.37c1.7-0.02,3.4,0.23,5.09,0.45c1.19,0.15,2.04,0.87,2.08,2.1c0.1,3.64,0.15,7.28,0.12,10.93
						c-0.01,1.15-0.87,1.94-1.95,2.14c-1.62,0.31-3.29,0.61-4.92,0.54c-2.83-0.12-3.83,0.79-3.75,3.63
						c0.04,1.49-0.09,3.01-0.35,4.49c-0.32,1.82-1.27,2.59-3.13,2.62c-2.97,0.05-5.95,0.08-8.92-0.06c-2.49-0.11-3.18-0.8-3.55-3.29
						c-0.19-1.29-0.23-2.61-0.18-3.91c0.11-2.63-0.64-3.46-3.23-3.51c-1.59-0.03-3.17-0.13-4.75-0.28c-1.53-0.15-2.59-1-2.64-2.44
						c-0.13-3.4-0.13-6.8-0.07-10.2c0.03-1.64,1.06-2.67,2.64-2.92c1.36-0.21,2.77-0.35,4.13-0.22c2.79,0.27,3.93-0.66,3.97-3.45
						c0.02-1.54,0.02-3.1,0.22-4.62c0.22-1.71,0.88-2.34,2.63-2.57c1.8-0.24,3.63-0.29,5.45-0.42
						C164.2,88.9,164.2,88.96,164.2,89.02z M159.21,118.05c0.01,0,0.01,0,0.02,0c0,1.19-0.04,2.39,0.01,3.58
						c0.05,1.17,0.65,1.76,1.8,1.78c1.55,0.03,3.1,0.04,4.65-0.04c1.63-0.08,2.49-0.89,2.61-2.52c0.13-1.86,0.11-3.73,0.19-5.59
						c0.08-2.24,0.44-2.57,2.72-2.64c1.83-0.05,3.66-0.04,5.47-0.18c1.63-0.12,2.44-0.98,2.55-2.6c0.09-1.27,0.06-2.54,0.07-3.81
						c0.01-2.07-0.61-2.67-2.71-2.67c-1.95-0.01-3.9,0.05-5.84-0.07c-1.81-0.11-2.2-0.57-2.25-2.38c-0.05-1.94-0.02-3.88,0-5.83
						c0.03-2.03-1.11-3.01-3.08-2.72c-0.72,0.11-1.49,0.1-2.21-0.03c-2.59-0.47-3.84,0.45-3.97,3.12c-0.07,1.39-0.01,2.78-0.01,4.17
						c0,3.43-0.29,3.72-3.72,3.78c-1.51,0.03-3.02,0.02-4.52,0.18c-1.59,0.18-2.35,0.94-2.52,2.53c-0.14,1.37-0.14,2.77-0.08,4.15
						c0.08,1.72,0.89,2.39,2.6,2.38c2.07-0.01,4.13-0.01,6.2,0.01c1.39,0.02,1.95,0.53,2.01,1.94
						C159.26,115.74,159.21,116.9,159.21,118.05z"/>
				</g>
				<g>
					<path class="st75" d="M145.34,234.76c-9.03,0-17.76-2.95-25.04-8.54c-18.03-13.85-21.42-39.79-7.57-57.82
						c6.71-8.73,16.42-14.33,27.34-15.76c10.92-1.43,21.74,1.48,30.47,8.19c18.03,13.85,21.42,39.79,7.57,57.82
						c-6.71,8.73-16.42,14.33-27.34,15.76C148.96,234.64,147.14,234.76,145.34,234.76z M145.5,156.68c-1.61,0-3.24,0.11-4.86,0.32
						c-9.76,1.28-18.43,6.28-24.43,14.08c-12.37,16.11-9.34,39.28,6.76,51.65c7.81,6,17.5,8.6,27.23,7.32
						c9.76-1.28,18.43-6.28,24.43-14.08c12.37-16.11,9.34-39.28-6.76-51.65C161.37,159.32,153.57,156.68,145.5,156.68z"/>
				</g>
				<g>
					<path class="st75" d="M163.46,150.23c-9.03,0-17.76-2.95-25.04-8.55c-18.03-13.85-21.42-39.79-7.57-57.82
						c6.71-8.73,16.42-14.33,27.34-15.76c10.91-1.43,21.74,1.48,30.47,8.19c18.03,13.85,21.42,39.79,7.57,57.82
						c-6.71,8.73-16.42,14.33-27.34,15.76C167.08,150.11,165.26,150.23,163.46,150.23z M163.62,72.15c-1.61,0-3.24,0.11-4.86,0.32
						c-9.76,1.28-18.43,6.28-24.43,14.08c-12.37,16.11-9.34,39.28,6.76,51.65c7.81,6,17.5,8.6,27.23,7.32
						c9.76-1.28,18.43-6.28,24.43-14.08c12.37-16.11,9.34-39.28-6.76-51.65C179.49,74.78,171.69,72.15,163.62,72.15z"/>
				</g>
				<g>
					<path class="st75" d="M228.88,209.43c-8.77,0-17.6-2.78-25.07-8.52c-8.73-6.71-14.33-16.42-15.76-27.34
						c-1.43-10.92,1.48-21.74,8.19-30.48c6.71-8.73,16.42-14.33,27.34-15.76c10.94-1.44,21.74,1.48,30.48,8.19
						c18.03,13.85,21.42,39.79,7.57,57.82l0,0C253.51,203.89,241.26,209.43,228.88,209.43z M229,131.37c-1.61,0-3.23,0.11-4.86,0.32
						c-9.76,1.28-18.43,6.28-24.42,14.08c-6,7.8-8.6,17.47-7.32,27.23c1.28,9.76,6.28,18.43,14.08,24.43
						c16.11,12.37,39.28,9.34,51.66-6.76l0,0c12.37-16.1,9.34-39.28-6.76-51.65C244.87,134.01,237.07,131.37,229,131.37z"/>
				</g>
				<path class="st68" d="M141.07,197.79c-2.22-1.18-3.62-2.89-4.08-5.34c-0.03-0.18-0.35-0.42-0.56-0.44
					c-1.75-0.19-3.5-0.32-5.25-0.5c-0.42-0.04-0.63,0.08-0.85,0.46c-1.27,2.26-3.65,3.18-6.09,2.4c-2.38-0.76-3.73-2.84-3.5-5.39
					c0.21-2.3,2.07-4.22,4.41-4.55c2.44-0.33,4.69,1.08,5.55,3.52c0.14,0.4,0.33,0.58,0.76,0.61c1.75,0.14,3.5,0.3,5.25,0.48
					c0.4,0.04,0.59-0.08,0.75-0.46c0.89-2.13,2.46-3.54,4.67-4.21c0.41-0.12,0.58-0.3,0.58-0.75c-0.02-2.04-0.03-4.09,0-6.13
					c0.01-0.48-0.2-0.66-0.6-0.83c-2.56-1.13-3.66-3.91-2.65-6.63c0.96-2.58,3.55-3.9,6.21-3.14c1.99,0.56,3.43,2.42,3.62,4.67
					c0.19,2.2-0.9,4.19-2.88,5.04c-0.59,0.25-0.73,0.56-0.72,1.15c0.03,1.94,0,3.88,0.03,5.82c0,0.24,0.17,0.65,0.35,0.7
					c1.5,0.46,2.77,1.25,3.8,2.47c1.13-0.56,2.23-1.08,3.29-1.67c0.2-0.11,0.31-0.54,0.31-0.82c-0.01-2.17,1.13-4.07,3.08-4.88
					c2.09-0.86,4.03-0.5,5.7,1c2.03,1.82,2.2,4.88,0.47,6.92c-1.84,2.16-5.1,2.55-7.25,0.8c-0.48-0.39-0.81-0.46-1.35-0.15
					c-0.78,0.46-1.62,0.8-2.41,1.24c-0.18,0.1-0.37,0.43-0.35,0.63c0.23,2.83,0.13,3.35-1.33,5.89c0.54,0.65,1.07,1.35,1.68,1.96
					c0.16,0.16,0.6,0.14,0.89,0.08c2.79-0.62,5.57,1.08,6.19,3.81c0.64,2.79-1.03,5.53-3.82,6.17c-2.04,0.46-3.82-0.1-5.13-1.75
					c-1.34-1.69-1.56-3.58-0.6-5.52c0.25-0.5,0.25-0.81-0.14-1.21c-0.48-0.5-0.9-1.06-1.26-1.48c-1.23,0.25-2.36,0.46-3.48,0.71
					c-0.18,0.04-0.41,0.24-0.45,0.4c-1,3.85-1.98,7.71-2.92,11.58c-0.05,0.22,0.18,0.61,0.39,0.78c1.84,1.48,2.48,3.72,1.65,5.92
					c-0.89,2.36-3.23,3.68-5.72,3.21c-2.4-0.45-4.15-2.55-4.17-5c-0.02-2.47,1.68-4.6,4.09-5.04c0.57-0.11,0.81-0.33,0.94-0.89
					c0.89-3.61,1.81-7.22,2.73-10.83C140.96,198.35,141.01,198.1,141.07,197.79z M144.11,195.43c2.51,0.02,4.39-1.72,4.39-4.04
					c-0.01-2.45-1.88-4.34-4.32-4.34c-2.38-0.01-4.22,1.84-4.28,4.3C139.85,193.54,141.78,195.41,144.11,195.43z M158.59,181.92
					c-1.25,0.01-2.14,0.92-2.12,2.17c0.02,1.25,0.94,2.14,2.18,2.12c1.31-0.03,2.24-0.94,2.22-2.18
					C160.86,182.79,159.91,181.91,158.59,181.92z M146.33,171.89c-0.02-1.31-0.95-2.25-2.19-2.21c-1.2,0.03-2.07,0.98-2.06,2.26
					c0,1.3,0.93,2.24,2.19,2.2C145.48,174.11,146.34,173.16,146.33,171.89z M127.94,189.55c0.01-1.28-0.86-2.19-2.1-2.18
					c-1.21,0.01-2.09,0.89-2.11,2.12c-0.02,1.26,0.88,2.19,2.12,2.18C127.07,191.67,127.93,190.8,127.94,189.55z M153.75,204.89
					c1.26,0.02,2.14-0.86,2.14-2.14c0-1.25-0.84-2.13-2.06-2.15c-1.24-0.02-2.16,0.89-2.16,2.14
					C151.68,203.98,152.54,204.88,153.75,204.89z M140.38,215.33c0-1.22-0.98-2.15-2.25-2.14c-1.12,0.01-1.98,0.94-1.98,2.14
					c0,1.23,0.86,2.13,2.06,2.14C139.39,217.47,140.38,216.51,140.38,215.33z"/>
			</g>
		</g>
		<g>
			<path class="st0" d="M389.22,92.83c-3.57-1.56-6.4-3.8-8.48-6.73c-2.08-2.93-3.15-6.39-3.21-10.38h13.74
				c0.18,2.68,1.11,4.8,2.8,6.36c1.68,1.56,3.99,2.34,6.92,2.34c2.99,0,5.34-0.73,7.06-2.2c1.71-1.46,2.57-3.38,2.57-5.75
				c0-1.93-0.58-3.52-1.74-4.77c-1.16-1.25-2.61-2.23-4.35-2.95c-1.74-0.72-4.14-1.51-7.19-2.38c-4.15-1.25-7.53-2.48-10.12-3.69
				c-2.6-1.22-4.83-3.05-6.69-5.52c-1.86-2.46-2.8-5.75-2.8-9.86c0-3.86,0.95-7.23,2.84-10.1c1.89-2.87,4.55-5.06,7.97-6.59
				c3.42-1.53,7.33-2.29,11.73-2.29c6.6,0,11.96,1.64,16.08,4.91c4.12,3.27,6.4,7.84,6.83,13.7h-14.11c-0.12-2.24-1.05-4.1-2.8-5.56
				c-1.74-1.46-4.05-2.2-6.92-2.2c-2.51,0-4.51,0.65-6,1.96c-1.5,1.31-2.24,3.21-2.24,5.7c0,1.75,0.56,3.2,1.7,4.35
				c1.13,1.15,2.53,2.09,4.22,2.81c1.68,0.72,4.05,1.54,7.1,2.48c4.15,1.25,7.54,2.49,10.17,3.74c2.63,1.25,4.89,3.12,6.78,5.61
				c1.89,2.49,2.84,5.77,2.84,9.82c0,3.49-0.89,6.73-2.66,9.72c-1.77,2.99-4.37,5.38-7.79,7.15c-3.42,1.78-7.48,2.66-12.19,2.66
				C396.81,95.16,392.79,94.38,389.22,92.83z"/>
			<path class="st0" d="M433.38,54.49c2.05-4.05,4.83-7.17,8.34-9.35c3.51-2.18,7.44-3.27,11.77-3.27c3.79,0,7.1,0.78,9.94,2.34
				c2.84,1.56,5.12,3.52,6.83,5.89v-7.39h12.92v51.8h-12.92v-7.57c-1.65,2.43-3.93,4.44-6.83,6.03c-2.9,1.59-6.25,2.38-10.03,2.38
				c-4.28,0-8.17-1.12-11.68-3.37c-3.51-2.24-6.29-5.41-8.34-9.49c-2.05-4.08-3.07-8.77-3.07-14.07
				C430.31,63.18,431.34,58.54,433.38,54.49z M468.44,60.43c-1.22-2.28-2.87-4.02-4.95-5.24c-2.08-1.22-4.31-1.82-6.69-1.82
				c-2.38,0-4.58,0.59-6.6,1.78c-2.02,1.18-3.65,2.91-4.9,5.19c-1.25,2.28-1.88,4.97-1.88,8.09c0,3.12,0.63,5.84,1.88,8.18
				c1.25,2.34,2.9,4.13,4.95,5.38c2.05,1.25,4.23,1.87,6.55,1.87c2.38,0,4.61-0.61,6.69-1.82c2.08-1.22,3.72-2.96,4.95-5.24
				c1.22-2.27,1.83-5,1.83-8.18C470.27,65.43,469.66,62.7,468.44,60.43z"/>
			<path class="st0" d="M507.2,25.32v69.19h-12.83V25.32H507.2z"/>
			<path class="st0" d="M566.39,42.71v51.8h-12.92v-6.55c-1.65,2.24-3.8,4.01-6.46,5.28c-2.66,1.28-5.54,1.92-8.66,1.92
				c-3.97,0-7.48-0.86-10.54-2.57c-3.06-1.71-5.45-4.24-7.19-7.57c-1.74-3.33-2.61-7.31-2.61-11.92V42.71h12.83v28.52
				c0,4.11,1.01,7.28,3.02,9.49c2.02,2.21,4.77,3.32,8.25,3.32c3.54,0,6.32-1.11,8.34-3.32c2.02-2.21,3.03-5.38,3.03-9.49V42.71
				H566.39z"/>
			<path class="st0" d="M577.43,54.49c2.05-4.05,4.84-7.17,8.39-9.35c3.54-2.18,7.48-3.27,11.82-3.27c3.3,0,6.44,0.73,9.44,2.2
				c2.99,1.47,5.38,3.41,7.15,5.84V25.32h13.01v69.19h-13.01v-7.67c-1.59,2.56-3.82,4.61-6.69,6.17c-2.87,1.56-6.2,2.34-9.99,2.34
				c-4.28,0-8.19-1.12-11.73-3.37c-3.54-2.24-6.34-5.41-8.39-9.49c-2.05-4.08-3.07-8.77-3.07-14.07
				C574.36,63.18,575.39,58.54,577.43,54.49z M612.49,60.43c-1.22-2.28-2.87-4.02-4.95-5.24c-2.08-1.22-4.31-1.82-6.69-1.82
				c-2.38,0-4.58,0.59-6.6,1.78c-2.02,1.18-3.65,2.91-4.9,5.19c-1.25,2.28-1.88,4.97-1.88,8.09c0,3.12,0.63,5.84,1.88,8.18
				c1.25,2.34,2.9,4.13,4.95,5.38c2.05,1.25,4.23,1.87,6.55,1.87c2.38,0,4.61-0.61,6.69-1.82c2.08-1.22,3.72-2.96,4.95-5.24
				c1.22-2.27,1.83-5,1.83-8.18C614.32,65.43,613.71,62.7,612.49,60.43z"/>
			<path class="st0" d="M707.42,42.71l-31.43,76.3h-13.65l11-25.81l-20.34-50.49h14.39l13.1,36.19l13.29-36.19H707.42z"/>
			<path class="st0" d="M773.44,33.26c5.1,2.68,9.04,6.5,11.82,11.45c2.78,4.96,4.17,10.71,4.17,17.25c0,6.54-1.39,12.26-4.17,17.16
				c-2.78,4.89-6.72,8.68-11.82,11.36c-5.1,2.68-11.01,4.02-17.73,4.02h-22.36V29.24h22.36C762.43,29.24,768.34,30.58,773.44,33.26z
				 M770.83,77.77c3.67-3.74,5.5-9.01,5.5-15.8c0-6.79-1.83-12.11-5.5-15.94c-3.67-3.83-8.86-5.75-15.58-5.75h-9.07v43.11h9.07
				C761.97,83.38,767.16,81.51,770.83,77.77z"/>
			<path class="st0" d="M844.5,72.53h-37.11c0.31,3.74,1.59,6.67,3.85,8.79c2.26,2.12,5.04,3.18,8.34,3.18
				c4.77,0,8.16-2.09,10.17-6.26h13.84c-1.47,4.99-4.28,9.09-8.43,12.3c-4.15,3.21-9.25,4.82-15.3,4.82
				c-4.89,0-9.27-1.11-13.15-3.32c-3.88-2.21-6.9-5.34-9.07-9.4c-2.17-4.05-3.25-8.73-3.25-14.03c0-5.36,1.07-10.07,3.21-14.12
				c2.14-4.05,5.13-7.17,8.98-9.35c3.85-2.18,8.28-3.27,13.29-3.27c4.82,0,9.15,1.06,12.97,3.18c3.82,2.12,6.78,5.13,8.89,9.02
				c2.11,3.9,3.16,8.37,3.16,13.42C844.87,69.36,844.74,71.04,844.5,72.53z M831.58,63.75c-0.06-3.37-1.25-6.06-3.57-8.09
				c-2.32-2.03-5.16-3.04-8.52-3.04c-3.18,0-5.85,0.98-8.02,2.95c-2.17,1.96-3.5,4.69-3.99,8.18H831.58z"/>
			<path class="st0" d="M861.09,93.06c-3.3-1.53-5.91-3.6-7.83-6.22c-1.92-2.62-2.98-5.52-3.16-8.7h12.92
				c0.24,2,1.21,3.65,2.89,4.96c1.68,1.31,3.77,1.96,6.28,1.96c2.44,0,4.35-0.5,5.73-1.5c1.37-1,2.06-2.28,2.06-3.83
				c0-1.68-0.84-2.95-2.52-3.79c-1.68-0.84-4.35-1.76-8.02-2.76c-3.79-0.93-6.89-1.9-9.3-2.9c-2.41-1-4.49-2.52-6.23-4.58
				c-1.74-2.06-2.61-4.83-2.61-8.32c0-2.87,0.81-5.48,2.43-7.85c1.62-2.37,3.94-4.24,6.96-5.61c3.02-1.37,6.58-2.06,10.67-2.06
				c6.05,0,10.87,1.54,14.48,4.63c3.6,3.09,5.59,7.25,5.96,12.48H879.5c-0.18-2.06-1.02-3.69-2.52-4.91c-1.5-1.22-3.5-1.82-6-1.82
				c-2.32,0-4.11,0.44-5.36,1.31c-1.25,0.87-1.88,2.09-1.88,3.65c0,1.75,0.85,3.07,2.57,3.97c1.71,0.9,4.37,1.82,7.97,2.76
				c3.67,0.93,6.69,1.9,9.07,2.9c2.38,1,4.44,2.54,6.19,4.63c1.74,2.09,2.64,4.85,2.7,8.28c0,2.99-0.81,5.67-2.43,8.04
				c-1.62,2.37-3.94,4.22-6.96,5.56c-3.02,1.34-6.55,2.01-10.58,2.01C868.11,95.35,864.39,94.59,861.09,93.06z"/>
			<path class="st0" d="M901.17,54.49c2.05-4.05,4.83-7.17,8.34-9.35c3.51-2.18,7.44-3.27,11.77-3.27c3.79,0,7.1,0.78,9.94,2.34
				c2.84,1.56,5.12,3.52,6.83,5.89v-7.39h12.92v51.8h-12.92v-7.57c-1.65,2.43-3.93,4.44-6.83,6.03c-2.9,1.59-6.25,2.38-10.03,2.38
				c-4.28,0-8.17-1.12-11.68-3.37c-3.51-2.24-6.29-5.41-8.34-9.49c-2.05-4.08-3.07-8.77-3.07-14.07
				C898.11,63.18,899.13,58.54,901.17,54.49z M936.23,60.43c-1.22-2.28-2.87-4.02-4.95-5.24c-2.08-1.22-4.31-1.82-6.69-1.82
				c-2.38,0-4.58,0.59-6.6,1.78c-2.02,1.18-3.65,2.91-4.9,5.19c-1.25,2.28-1.88,4.97-1.88,8.09c0,3.12,0.63,5.84,1.88,8.18
				c1.25,2.34,2.9,4.13,4.95,5.38c2.05,1.25,4.23,1.87,6.55,1.87c2.38,0,4.61-0.61,6.69-1.82c2.08-1.22,3.72-2.96,4.95-5.24
				c1.22-2.27,1.83-5,1.83-8.18C938.06,65.43,937.45,62.7,936.23,60.43z"/>
			<path class="st0" d="M981.45,44.3c2.66-1.56,5.7-2.34,9.12-2.34V55.7h-3.39c-4.03,0-7.07,0.97-9.12,2.9
				c-2.05,1.93-3.07,5.3-3.07,10.1v25.81h-12.83v-51.8h12.83v8.04C976.64,48.01,978.79,45.86,981.45,44.3z"/>
			<path class="st0" d="M1017.09,44.3c2.66-1.56,5.7-2.34,9.12-2.34V55.7h-3.39c-4.03,0-7.07,0.97-9.12,2.9
				c-2.05,1.93-3.07,5.3-3.07,10.1v25.81H997.8v-51.8h12.83v8.04C1012.28,48.01,1014.43,45.86,1017.09,44.3z"/>
			<path class="st0" d="M1042.79,92.03c-3.91-2.21-6.98-5.34-9.21-9.4c-2.23-4.05-3.34-8.73-3.34-14.03c0-5.3,1.14-9.97,3.44-14.03
				c2.29-4.05,5.42-7.18,9.39-9.4c3.97-2.21,8.4-3.32,13.29-3.32s9.32,1.11,13.29,3.32c3.97,2.21,7.1,5.35,9.39,9.4
				c2.29,4.05,3.44,8.73,3.44,14.03c0,5.3-1.18,9.97-3.53,14.03c-2.35,4.05-5.53,7.19-9.53,9.4c-4,2.21-8.48,3.32-13.42,3.32
				C1051.1,95.35,1046.7,94.24,1042.79,92.03z M1062.54,82.21c2.05-1.15,3.68-2.88,4.9-5.19c1.22-2.31,1.83-5.11,1.83-8.42
				c0-4.92-1.27-8.71-3.8-11.36c-2.54-2.65-5.64-3.97-9.3-3.97c-3.67,0-6.74,1.33-9.21,3.97c-2.47,2.65-3.71,6.44-3.71,11.36
				c0,4.92,1.21,8.71,3.62,11.36c2.41,2.65,5.45,3.97,9.12,3.97C1058.31,83.94,1060.49,83.37,1062.54,82.21z"/>
			<path class="st0" d="M1103.36,25.32v69.19h-12.83V25.32H1103.36z"/>
			<path class="st0" d="M1127.46,25.32v69.19h-12.83V25.32H1127.46z"/>
			<path class="st0" d="M1148.08,92.03c-3.91-2.21-6.98-5.34-9.21-9.4c-2.23-4.05-3.34-8.73-3.34-14.03c0-5.3,1.14-9.97,3.44-14.03
				c2.29-4.05,5.42-7.18,9.39-9.4c3.97-2.21,8.4-3.32,13.29-3.32c4.89,0,9.32,1.11,13.29,3.32c3.97,2.21,7.1,5.35,9.39,9.4
				c2.29,4.05,3.44,8.73,3.44,14.03c0,5.3-1.18,9.97-3.53,14.03c-2.35,4.05-5.53,7.19-9.53,9.4c-4,2.21-8.48,3.32-13.42,3.32
				C1156.39,95.35,1151.99,94.24,1148.08,92.03z M1167.83,82.21c2.05-1.15,3.68-2.88,4.9-5.19c1.22-2.31,1.83-5.11,1.83-8.42
				c0-4.92-1.27-8.71-3.8-11.36c-2.54-2.65-5.64-3.97-9.3-3.97c-3.67,0-6.73,1.33-9.21,3.97c-2.47,2.65-3.71,6.44-3.71,11.36
				c0,4.92,1.21,8.71,3.62,11.36c2.41,2.65,5.45,3.97,9.12,3.97C1163.6,83.94,1165.78,83.37,1167.83,82.21z"/>
		</g>
		<g>
			<path class="st0" d="M473.54,302.24c0,13.13-5.19,23.5-15.57,31.09c-9.26,6.7-20.72,10.04-34.39,10.04
				c-13.84,0-25.31-3.34-34.39-10.04c-10.27-7.45-15.4-17.82-15.4-31.09v-84.69h39.58v81.44c0,6.44,3.4,9.67,10.21,9.67
				c6.92,0,10.38-3.22,10.38-9.67v-81.44h39.58V302.24z"/>
			<polygon class="st0" points="596.09,342.15 556.5,342.15 519.67,284.93 519.67,342.15 480.09,342.15 480.09,217.54 
				517.09,217.54 556.5,277.51 556.5,217.54 596.09,217.54 			"/>
			<polygon class="st0" points="683.19,342.15 603.69,342.15 603.69,217.54 683.19,217.54 683.19,248.64 643.27,248.64 
				643.27,264.72 681.13,264.72 681.13,295.82 643.27,295.82 643.27,310.88 683.19,310.88 			"/>
			<polygon class="st0" points="844.27,342.15 804.52,342.15 794.52,279.07 778.28,342.15 755.78,342.15 737.97,279.07 
				727.26,342.15 687.51,342.15 710.67,217.54 751.31,217.54 766.33,272.48 781.9,217.54 821.82,217.54 			"/>
			<rect x="850.53" y="217.54" class="st0" width="39.75" height="124.61"/>
		</g>
		<g>
			<path class="st0" d="M436.63,119.94v65.27H423.8v-27.77h-27.4v27.77h-12.83v-65.27h12.83v26.84h27.4v-26.84H436.63z"/>
			<path class="st0" d="M495.83,133.41v51.8h-12.92v-6.55c-1.65,2.24-3.8,4.01-6.46,5.28c-2.66,1.28-5.54,1.92-8.66,1.92
				c-3.97,0-7.48-0.86-10.54-2.57c-3.06-1.71-5.45-4.24-7.19-7.57c-1.74-3.33-2.61-7.31-2.61-11.92v-30.39h12.83v28.52
				c0,4.11,1.01,7.28,3.02,9.49c2.02,2.21,4.77,3.32,8.25,3.32c3.54,0,6.32-1.11,8.34-3.32c2.02-2.21,3.03-5.38,3.03-9.49v-28.52
				H495.83z"/>
			<path class="st0" d="M585.22,138.5c3.82,3.9,5.73,9.34,5.73,16.32v30.39h-12.83V156.6c0-4.05-1.01-7.15-3.03-9.3
				c-2.01-2.15-4.76-3.23-8.25-3.23c-3.48,0-6.25,1.08-8.29,3.23c-2.05,2.15-3.07,5.25-3.07,9.3v28.61h-12.83V156.6
				c0-4.05-1.01-7.15-3.02-9.3s-4.77-3.23-8.25-3.23c-3.54,0-6.34,1.08-8.38,3.23c-2.05,2.15-3.07,5.25-3.07,9.3v28.61H507.1v-51.8
				h12.83v6.26c1.65-2.18,3.77-3.9,6.37-5.14c2.6-1.25,5.45-1.87,8.57-1.87c3.97,0,7.51,0.86,10.63,2.57
				c3.12,1.72,5.53,4.16,7.24,7.34c1.65-2.99,4.05-5.39,7.19-7.2c3.15-1.81,6.55-2.71,10.22-2.71
				C576.37,132.66,581.4,134.61,585.22,138.5z"/>
			<path class="st0" d="M601.53,145.19c2.05-4.05,4.83-7.17,8.34-9.35c3.51-2.18,7.44-3.27,11.77-3.27c3.79,0,7.1,0.78,9.94,2.34
				c2.84,1.56,5.12,3.52,6.83,5.89v-7.39h12.92v51.8h-12.92v-7.57c-1.65,2.43-3.93,4.44-6.83,6.03c-2.9,1.59-6.25,2.38-10.03,2.38
				c-4.28,0-8.17-1.12-11.68-3.37c-3.51-2.24-6.29-5.41-8.34-9.49c-2.05-4.08-3.07-8.77-3.07-14.07
				C598.46,153.89,599.48,149.24,601.53,145.19z M636.58,151.13c-1.22-2.28-2.87-4.02-4.95-5.24c-2.08-1.22-4.31-1.82-6.69-1.82
				c-2.38,0-4.58,0.59-6.6,1.78c-2.02,1.18-3.65,2.91-4.9,5.19c-1.25,2.28-1.88,4.97-1.88,8.09c0,3.12,0.63,5.84,1.88,8.18
				c1.25,2.34,2.9,4.13,4.95,5.38c2.05,1.25,4.23,1.87,6.55,1.87c2.38,0,4.61-0.61,6.69-1.82c2.08-1.22,3.72-2.96,4.95-5.24
				c1.22-2.27,1.83-5,1.83-8.18C638.41,156.13,637.8,153.4,636.58,151.13z"/>
			<path class="st0" d="M705.3,138.5c3.72,3.9,5.59,9.34,5.59,16.32v30.39h-12.83V156.6c0-4.11-1.01-7.28-3.02-9.49
				c-2.02-2.21-4.77-3.32-8.25-3.32c-3.54,0-6.34,1.11-8.38,3.32c-2.05,2.21-3.07,5.38-3.07,9.49v28.61h-12.83v-51.8h12.83v6.45
				c1.71-2.24,3.9-4,6.55-5.28c2.66-1.28,5.57-1.92,8.75-1.92C696.69,132.66,701.57,134.61,705.3,138.5z"/>
			<path class="st0" d="M731.05,182.73c-3.91-2.21-6.98-5.34-9.21-9.4c-2.23-4.05-3.34-8.73-3.34-14.03c0-5.3,1.14-9.97,3.44-14.03
				c2.29-4.05,5.42-7.18,9.39-9.4c3.97-2.21,8.4-3.32,13.29-3.32c4.89,0,9.32,1.11,13.29,3.32c3.97,2.21,7.1,5.35,9.39,9.4
				c2.29,4.05,3.44,8.73,3.44,14.03c0,5.3-1.18,9.97-3.53,14.03c-2.35,4.05-5.53,7.19-9.53,9.4c-4,2.21-8.48,3.32-13.42,3.32
				C739.36,186.05,734.96,184.95,731.05,182.73z M750.8,172.91c2.05-1.15,3.68-2.88,4.9-5.19c1.22-2.31,1.83-5.11,1.83-8.42
				c0-4.92-1.27-8.71-3.8-11.36c-2.54-2.65-5.64-3.97-9.3-3.97s-6.74,1.33-9.21,3.97c-2.47,2.65-3.71,6.44-3.71,11.36
				c0,4.92,1.21,8.71,3.62,11.36c2.41,2.65,5.45,3.97,9.12,3.97C746.57,174.64,748.75,174.07,750.8,172.91z"/>
		</g>
	</g>
</g>
<g id="Capa_2">
</g>
</svg>
