<?xml version="1.0" encoding="utf-8"?>
<!-- Generator: Adobe Illustrator 24.2.0, SVG Export Plug-In . SVG Version: 6.00 Build 0)  -->
<svg version="1.1" xmlns="http://www.w3.org/2000/svg" xmlns:xlink="http://www.w3.org/1999/xlink" x="0px" y="0px"
	 viewBox="0 0 825.59 366.76" style="enable-background:new 0 0 825.59 366.76;" xml:space="preserve">
<style type="text/css">
	.st0{fill:#FFFFFF;}
	.st1{clip-path:url(#SVGID_2_);fill:#254763;}
	.st2{clip-path:url(#SVGID_2_);fill:#F4981A;}
	.st3{clip-path:url(#SVGID_4_);fill:#082F43;}
	.st4{clip-path:url(#SVGID_4_);fill:#28285B;}
	.st5{clip-path:url(#SVGID_4_);fill:#808081;}
	.st6{clip-path:url(#SVGID_4_);fill:#F4981A;}
	.st7{fill:#F4981A;}
	.st8{fill:#254763;}
	.st9{clip-path:url(#SVGID_6_);fill:url(#SVGID_7_);}
	.st10{fill:#1D3347;}
	.st11{clip-path:url(#SVGID_9_);}
	.st12{clip-path:url(#SVGID_9_);fill:#FFFFFF;}
	.st13{clip-path:url(#SVGID_11_);fill:#0B2E43;}
	.st14{clip-path:url(#SVGID_11_);fill:#FFFFFF;}
	.st15{clip-path:url(#SVGID_11_);fill:#EF7D17;}
	.st16{clip-path:url(#SVGID_11_);fill:#F49818;}
	.st17{clip-path:url(#SVGID_11_);fill:#989898;}
	.st18{clip-path:url(#SVGID_11_);fill:#264763;}
	.st19{clip-path:url(#SVGID_13_);fill:url(#SVGID_14_);}
	.st20{clip-path:url(#SVGID_16_);fill:#FFFFFF;}
	.st21{clip-path:url(#SVGID_16_);fill:#264763;}
	.st22{clip-path:url(#SVGID_18_);}
	.st23{clip-path:url(#SVGID_20_);fill:url(#SVGID_21_);}
	.st24{clip-path:url(#SVGID_23_);fill:#0B2E43;}
	.st25{clip-path:url(#SVGID_23_);fill:#989898;}
	.st26{clip-path:url(#SVGID_23_);fill:#EE7D16;}
	.st27{clip-path:url(#SVGID_23_);fill:#1D3247;}
	.st28{clip-path:url(#SVGID_23_);fill:#F4981A;}
	.st29{clip-path:url(#SVGID_23_);fill:#082F43;}
	.st30{clip-path:url(#SVGID_23_);fill:#28285B;}
	.st31{clip-path:url(#SVGID_23_);fill:#808081;}
	.st32{clip-path:url(#SVGID_23_);fill:#254763;}
	.st33{clip-path:url(#SVGID_25_);fill:#FFFFFF;}
	.st34{clip-path:url(#SVGID_25_);}
	.st35{clip-path:url(#SVGID_27_);fill:#0B2E43;}
	.st36{clip-path:url(#SVGID_27_);fill:#FFFFFF;}
	.st37{clip-path:url(#SVGID_27_);fill:#EF7D17;}
	.st38{clip-path:url(#SVGID_27_);fill:#F49818;}
	.st39{clip-path:url(#SVGID_27_);fill:#989898;}
	.st40{clip-path:url(#SVGID_27_);fill:#264763;}
	.st41{clip-path:url(#SVGID_29_);fill:url(#SVGID_30_);}
	.st42{clip-path:url(#SVGID_32_);fill:#FFFFFF;}
	.st43{clip-path:url(#SVGID_32_);fill:#264763;}
	.st44{clip-path:url(#SVGID_34_);}
	.st45{clip-path:url(#SVGID_36_);fill:#FFFFFF;}
	.st46{clip-path:url(#SVGID_36_);}
	.st47{clip-path:url(#SVGID_38_);fill:#0B2E43;}
	.st48{clip-path:url(#SVGID_38_);fill:#FFFFFF;}
	.st49{clip-path:url(#SVGID_38_);fill:#EF7D17;}
	.st50{clip-path:url(#SVGID_38_);fill:#F49818;}
	.st51{clip-path:url(#SVGID_38_);fill:#989898;}
	.st52{clip-path:url(#SVGID_38_);fill:#264763;}
	.st53{clip-path:url(#SVGID_40_);fill:url(#SVGID_41_);}
	.st54{clip-path:url(#SVGID_43_);fill:#FFFFFF;}
	.st55{clip-path:url(#SVGID_43_);fill:#264763;}
	.st56{clip-path:url(#SVGID_45_);}
	.st57{clip-path:url(#SVGID_47_);fill:#FFFFFF;}
	.st58{clip-path:url(#SVGID_47_);}
	.st59{clip-path:url(#SVGID_49_);fill:#0B2E43;}
	.st60{clip-path:url(#SVGID_49_);fill:#FFFFFF;}
	.st61{clip-path:url(#SVGID_49_);fill:#EF7D17;}
	.st62{clip-path:url(#SVGID_49_);fill:#F49818;}
	.st63{clip-path:url(#SVGID_49_);fill:#989898;}
	.st64{clip-path:url(#SVGID_49_);fill:#264763;}
	.st65{clip-path:url(#SVGID_51_);fill:url(#SVGID_52_);}
	.st66{clip-path:url(#SVGID_54_);fill:#FFFFFF;}
	.st67{clip-path:url(#SVGID_54_);fill:#264763;}
	.st68{fill:#0B2E43;}
	.st69{fill:#EF7D17;}
	.st70{fill:#F49818;}
	.st71{fill:#989898;}
	.st72{fill:#264763;}
	.st73{clip-path:url(#SVGID_56_);fill:url(#SVGID_57_);}
	.st74{opacity:0.92;}
	.st75{fill:#F49940;}
	.st76{fill:#102B42;}
	.st77{fill:#244762;}
	.st78{fill:#0A0A0A;stroke:#000000;stroke-miterlimit:10;}
	.st79{fill:none;stroke:#000000;stroke-miterlimit:10;}
	.st80{fill:#FFFFFF;stroke:#FFFFFF;stroke-miterlimit:10;}
	.st81{clip-path:url(#SVGID_59_);}
	.st82{fill:none;stroke:#FFFFFF;stroke-width:3;stroke-miterlimit:10;}
	.st83{clip-path:url(#SVGID_61_);}
	.st84{fill:#BF4C26;}
	.st85{fill:#F0E1C1;}
	.st86{fill:#2B2E34;}
	.st87{fill:#494441;}
	.st88{fill:#F59B25;}
	.st89{fill:#07B5C2;}
	.st90{fill:#5A4D9B;}
	.st91{fill:#A3C739;}
	.st92{fill:#515767;}
	.st93{fill:none;stroke:#FFFFFF;stroke-miterlimit:10;}
	.st94{fill:none;}
	.st95{fill:#616160;}
</style>
<g id="Capa_1">
	<g>
		<path class="st70" d="M304.47,149.25h-41.21l-62.6-39.12V70.29c1.28,0,2.57,0.32,3.73,1.04l103.8,64.88
			C314.22,139.98,311.57,149.25,304.47,149.25z"/>
		<path class="st70" d="M200.67,70.29v39.84l-62.6,39.12H96.86c-7.1,0-9.75-9.27-3.73-13.04l103.8-64.88
			C198.1,70.61,199.38,70.29,200.67,70.29z"/>
		<path class="st69" d="M263.26,149.25v37.48c0,0.12-0.16,0.16-0.24,0.04c-3.25-6.62-7.62-12.84-13.16-18.38
			c-13.16-13.12-30.62-20.34-49.19-20.34v-37.92L263.26,149.25z"/>
		<path class="st69" d="M200.67,110.13v37.92c-18.58,0-36.03,7.22-49.19,20.34c-5.54,5.54-9.91,11.76-13.16,18.38
			c-0.08,0.12-0.24,0.08-0.24-0.04v-37.48L200.67,110.13z"/>
		<polygon class="st70" points="118.76,145.98 118.61,197.31 111.84,202.99 111.75,142.6 		"/>
		<g>
			<path class="st0" d="M288.64,183.81c-1.75,0-3.43-0.25-5.04-0.75c-1.6-0.5-2.87-1.15-3.82-1.94l1.44-3.24
				c0.9,0.71,2.01,1.3,3.34,1.77s2.68,0.71,4.07,0.71c1.18,0,2.13-0.13,2.86-0.39c0.73-0.26,1.26-0.6,1.6-1.04
				c0.34-0.44,0.51-0.94,0.51-1.49c0-0.68-0.25-1.24-0.74-1.65c-0.49-0.42-1.13-0.75-1.91-1c-0.78-0.25-1.65-0.47-2.6-0.69
				c-0.95-0.21-1.9-0.47-2.86-0.75c-0.95-0.29-1.82-0.66-2.6-1.12c-0.78-0.46-1.42-1.08-1.91-1.84c-0.49-0.77-0.74-1.75-0.74-2.95
				c0-1.22,0.33-2.34,0.98-3.35c0.65-1.02,1.65-1.83,2.98-2.44c1.34-0.61,3.03-0.92,5.08-0.92c1.35,0,2.68,0.17,4.01,0.52
				c1.33,0.34,2.48,0.83,3.46,1.47l-1.31,3.24c-1.01-0.6-2.04-1.04-3.11-1.33c-1.07-0.29-2.1-0.43-3.08-0.43
				c-1.15,0-2.09,0.14-2.81,0.42c-0.72,0.28-1.24,0.64-1.57,1.09c-0.33,0.45-0.5,0.96-0.5,1.54c0,0.68,0.24,1.24,0.72,1.65
				c0.48,0.42,1.11,0.74,1.89,0.98c0.78,0.24,1.65,0.47,2.62,0.69c0.96,0.22,1.92,0.47,2.87,0.75c0.95,0.28,1.82,0.64,2.6,1.09
				c0.78,0.45,1.41,1.06,1.89,1.83c0.48,0.77,0.72,1.74,0.72,2.92c0,1.2-0.33,2.31-0.98,3.32c-0.65,1.02-1.65,1.83-3,2.44
				C292.39,183.51,290.69,183.81,288.64,183.81z"/>
			<path class="st0" d="M321.32,179.99h12.67v3.5h-16.84v-22.45h16.39v3.5h-12.22V179.99z M321,170.37h11.16v3.43H321V170.37z"/>
			<path class="st0" d="M364.43,183.81c-1.75,0-3.36-0.28-4.83-0.85s-2.74-1.37-3.83-2.41c-1.09-1.04-1.94-2.26-2.53-3.67
				c-0.6-1.41-0.9-2.95-0.9-4.62s0.3-3.21,0.9-4.62c0.6-1.41,1.45-2.63,2.55-3.67c1.1-1.04,2.39-1.84,3.87-2.41
				c1.47-0.57,3.09-0.85,4.84-0.85c1.9,0,3.62,0.31,5.15,0.93c1.53,0.62,2.82,1.53,3.86,2.73l-2.63,2.57
				c-0.88-0.88-1.82-1.52-2.84-1.94c-1.02-0.42-2.13-0.63-3.35-0.63c-1.18,0-2.27,0.19-3.27,0.58c-1,0.38-1.87,0.93-2.6,1.64
				c-0.73,0.71-1.29,1.54-1.68,2.5c-0.4,0.96-0.59,2.02-0.59,3.18c0,1.13,0.2,2.18,0.59,3.14s0.96,1.8,1.68,2.52
				c0.73,0.72,1.58,1.27,2.57,1.65c0.98,0.38,2.07,0.58,3.27,0.58c1.11,0,2.19-0.18,3.22-0.53c1.04-0.35,2.03-0.95,2.97-1.78
				l2.37,3.11c-1.18,0.94-2.54,1.65-4.09,2.13C367.58,183.57,366.01,183.81,364.43,183.81z M369.28,180.41v-8.4h3.95v8.95
				L369.28,180.41z"/>
			<path class="st0" d="M403.66,183.81c-3.08,0-5.49-0.87-7.23-2.6c-1.74-1.73-2.61-4.23-2.61-7.51v-12.67h4.17v12.51
				c0,2.31,0.5,3.99,1.49,5.04c0.99,1.05,2.4,1.57,4.22,1.57c1.82,0,3.22-0.52,4.2-1.57c0.98-1.05,1.48-2.73,1.48-5.04v-12.51h4.11
				v12.67c0,3.27-0.87,5.77-2.61,7.51C409.12,182.94,406.72,183.81,403.66,183.81z"/>
			<path class="st0" d="M434.61,183.49v-22.45h4.17v22.45H434.61z"/>
			<path class="st0" d="M460.15,183.49v-22.45h3.43l9.82,16.39h-1.8l9.66-16.39h3.43l0.03,22.45h-3.95l-0.03-16.26h0.84l-8.21,13.7
				h-1.86l-8.34-13.7h0.96v16.26H460.15z"/>
			<path class="st0" d="M506.08,183.49v-22.45h4.17v22.45H506.08z"/>
			<path class="st0" d="M535.78,179.99h12.67v3.5h-16.84v-22.45H548v3.5h-12.22V179.99z M535.46,170.37h11.16v3.43h-11.16V170.37z"
				/>
			<path class="st0" d="M568.4,183.49v-22.45h3.43l14.08,17.29h-1.7v-17.29h4.14v22.45h-3.43l-14.08-17.29h1.7v17.29H568.4z"/>
			<path class="st0" d="M614.24,183.49v-18.93h-7.44v-3.53h19.05v3.53h-7.44v18.93H614.24z"/>
			<path class="st0" d="M654.82,183.81c-1.75,0-3.37-0.29-4.84-0.87c-1.47-0.58-2.76-1.38-3.85-2.42s-1.94-2.26-2.53-3.66
				c-0.6-1.4-0.9-2.94-0.9-4.6s0.3-3.2,0.9-4.6c0.6-1.4,1.44-2.62,2.53-3.66c1.09-1.04,2.37-1.84,3.85-2.42
				c1.48-0.58,3.08-0.87,4.81-0.87c1.75,0,3.36,0.29,4.83,0.87c1.46,0.58,2.74,1.38,3.83,2.42c1.09,1.04,1.94,2.26,2.53,3.66
				c0.6,1.4,0.9,2.94,0.9,4.6s-0.3,3.21-0.9,4.62c-0.6,1.41-1.44,2.63-2.53,3.65c-1.09,1.03-2.37,1.83-3.83,2.41
				C658.15,183.52,656.55,183.81,654.82,183.81z M654.78,180.15c1.13,0,2.18-0.19,3.14-0.58c0.96-0.38,1.8-0.93,2.5-1.65
				c0.71-0.72,1.26-1.55,1.65-2.5c0.39-0.95,0.59-2.01,0.59-3.16c0-1.15-0.2-2.21-0.59-3.16c-0.4-0.95-0.95-1.78-1.65-2.5
				c-0.71-0.72-1.54-1.27-2.5-1.65c-0.96-0.39-2.01-0.58-3.14-0.58c-1.13,0-2.17,0.19-3.13,0.58c-0.95,0.38-1.79,0.93-2.5,1.65
				c-0.72,0.72-1.27,1.55-1.67,2.5c-0.4,0.95-0.59,2.01-0.59,3.16c0,1.13,0.2,2.18,0.59,3.14c0.4,0.96,0.95,1.8,1.65,2.52
				c0.71,0.72,1.54,1.27,2.5,1.65C652.6,179.96,653.65,180.15,654.78,180.15z"/>
			<path class="st0" d="M707.58,183.49l10.1-22.45h4.11l10.14,22.45h-4.36l-8.69-20.24h1.67l-8.66,20.24H707.58z M712.23,178.29
				l1.12-3.27h12.13l1.12,3.27H712.23z"/>
		</g>
		<g>
			<path class="st0" d="M302.24,241.84c-3.77,0-7.27-0.6-10.5-1.81c-3.23-1.2-6.01-2.92-8.36-5.15c-2.34-2.23-4.17-4.85-5.49-7.88
				c-1.32-3.02-1.98-6.36-1.98-9.99c0-3.64,0.66-6.97,1.98-9.99c1.32-3.02,3.16-5.65,5.53-7.88c2.36-2.23,5.17-3.95,8.42-5.15
				c3.25-1.2,6.81-1.81,10.67-1.81c4.5,0,8.52,0.75,12.07,2.25c3.55,1.5,6.48,3.66,8.8,6.48l-8.59,7.78
				c-1.64-1.77-3.4-3.1-5.28-3.99c-1.89-0.89-3.99-1.33-6.31-1.33c-2.05,0-3.91,0.32-5.59,0.95c-1.68,0.64-3.12,1.56-4.3,2.76
				c-1.18,1.21-2.1,2.64-2.76,4.3c-0.66,1.66-0.99,3.53-0.99,5.63c0,2,0.33,3.84,0.99,5.53c0.66,1.68,1.58,3.13,2.76,4.33
				c1.18,1.21,2.6,2.14,4.26,2.8c1.66,0.66,3.49,0.99,5.49,0.99c2,0,3.96-0.33,5.86-0.99c1.91-0.66,3.84-1.78,5.8-3.37l7.57,9.48
				c-2.73,1.95-5.89,3.45-9.48,4.5C309.22,241.31,305.7,241.84,302.24,241.84z M310.36,234v-18.01h11.94v19.78L310.36,234z"/>
			<path class="st0" d="M329.18,240.88v-47.74H351c4.37,0,8.13,0.71,11.29,2.12s5.6,3.44,7.33,6.1c1.73,2.66,2.59,5.81,2.59,9.45
				c0,3.59-0.86,6.7-2.59,9.31c-1.73,2.61-4.17,4.61-7.33,6c-3.16,1.39-6.92,2.08-11.29,2.08h-14.32l6-5.66v18.35H329.18z
				 M342.68,223.97l-6-6.21h13.5c2.82,0,4.92-0.61,6.31-1.84c1.38-1.23,2.08-2.94,2.08-5.12c0-2.23-0.69-3.96-2.08-5.18
				c-1.39-1.23-3.49-1.84-6.31-1.84h-13.5l6-6.21V223.97z M358.71,240.88l-11.87-17.39h14.39l11.94,17.39H358.71z"/>
			<path class="st0" d="M372.21,240.88l21.07-47.74h13.3l21.14,47.74h-14.05l-16.5-41.12h5.32l-16.5,41.12H372.21z M383.74,231.61
				l3.48-9.96h23.32l3.48,9.96H383.74z"/>
			<path class="st0" d="M429.85,240.88v-47.74h22.57c5.27,0,9.91,0.98,13.91,2.93c4,1.96,7.13,4.71,9.38,8.25
				c2.25,3.55,3.38,7.78,3.38,12.69c0,4.86-1.13,9.08-3.38,12.65c-2.25,3.57-5.38,6.33-9.38,8.29c-4,1.95-8.64,2.93-13.91,2.93
				H429.85z M443.35,230.11h8.52c2.73,0,5.1-0.51,7.13-1.53c2.02-1.02,3.6-2.52,4.74-4.5c1.14-1.98,1.7-4.33,1.7-7.06
				c0-2.77-0.57-5.14-1.7-7.09c-1.14-1.96-2.72-3.44-4.74-4.47c-2.02-1.02-4.4-1.54-7.13-1.54h-8.52V230.11z"/>
			<path class="st0" d="M506.5,241.84c-7.05,0-12.55-1.93-16.5-5.79c-3.96-3.87-5.93-9.35-5.93-16.44v-26.46h13.5v26.05
				c0,4.09,0.81,7.03,2.42,8.8c1.61,1.77,3.83,2.66,6.65,2.66c2.82,0,5.02-0.89,6.62-2.66c1.59-1.77,2.39-4.71,2.39-8.8v-26.05h13.3
				v26.46c0,7.09-1.98,12.57-5.93,16.44C519.05,239.9,513.55,241.84,506.5,241.84z"/>
			<path class="st0" d="M529.62,240.88l21.07-47.74H564l21.14,47.74h-14.05l-16.5-41.12h5.32l-16.5,41.12H529.62z M541.15,231.61
				l3.48-9.96h23.32l3.48,9.96H541.15z"/>
			<path class="st0" d="M587.25,240.88v-47.74h22.57c5.27,0,9.91,0.98,13.91,2.93c4,1.96,7.13,4.71,9.38,8.25
				c2.25,3.55,3.38,7.78,3.38,12.69c0,4.86-1.13,9.08-3.38,12.65c-2.25,3.57-5.38,6.33-9.38,8.29c-4,1.95-8.64,2.93-13.91,2.93
				H587.25z M600.76,230.11h8.52c2.73,0,5.1-0.51,7.13-1.53c2.02-1.02,3.6-2.52,4.74-4.5c1.14-1.98,1.7-4.33,1.7-7.06
				c0-2.77-0.57-5.14-1.7-7.09c-1.14-1.96-2.72-3.44-4.74-4.47c-2.02-1.02-4.4-1.54-7.13-1.54h-8.52V230.11z"/>
			<path class="st0" d="M665.96,241.84c-3.82,0-7.34-0.61-10.57-1.84c-3.23-1.23-6.04-2.97-8.42-5.22
				c-2.39-2.25-4.24-4.88-5.56-7.88c-1.32-3-1.98-6.3-1.98-9.89s0.66-6.89,1.98-9.89c1.32-3,3.17-5.63,5.56-7.88
				c2.39-2.25,5.19-3.99,8.42-5.22c3.23-1.23,6.75-1.84,10.57-1.84c3.86,0,7.4,0.62,10.6,1.84s5.99,2.97,8.36,5.22
				c2.36,2.25,4.22,4.88,5.56,7.88c1.34,3,2.01,6.3,2.01,9.89s-0.67,6.9-2.01,9.92c-1.34,3.03-3.19,5.65-5.56,7.88
				c-2.36,2.23-5.15,3.96-8.36,5.19S669.82,241.84,665.96,241.84z M665.96,230.65c1.82,0,3.51-0.32,5.08-0.95
				c1.57-0.64,2.93-1.56,4.09-2.76c1.16-1.2,2.07-2.65,2.73-4.33c0.66-1.68,0.99-3.55,0.99-5.59c0-2.09-0.33-3.97-0.99-5.63
				c-0.66-1.66-1.57-3.09-2.73-4.3c-1.16-1.2-2.52-2.12-4.09-2.76c-1.57-0.64-3.26-0.95-5.08-0.95c-1.82,0-3.51,0.32-5.08,0.95
				c-1.57,0.64-2.93,1.56-4.09,2.76c-1.16,1.21-2.07,2.64-2.73,4.3c-0.66,1.66-0.99,3.53-0.99,5.63c0,2.05,0.33,3.91,0.99,5.59
				c0.66,1.68,1.57,3.13,2.73,4.33c1.16,1.21,2.52,2.13,4.09,2.76C662.45,230.33,664.14,230.65,665.96,230.65z"/>
			<path class="st0" d="M714.65,241.84c-3.91,0-7.67-0.49-11.29-1.47s-6.56-2.24-8.83-3.79l4.43-9.96c2.14,1.37,4.6,2.49,7.4,3.38
				c2.8,0.89,5.58,1.33,8.36,1.33c1.86,0,3.36-0.17,4.5-0.51c1.14-0.34,1.97-0.8,2.49-1.37c0.52-0.57,0.78-1.24,0.78-2.01
				c0-1.09-0.5-1.95-1.5-2.59s-2.3-1.16-3.89-1.57c-1.59-0.41-3.35-0.82-5.29-1.23c-1.93-0.41-3.87-0.93-5.8-1.57
				c-1.93-0.64-3.69-1.47-5.29-2.49c-1.59-1.02-2.89-2.36-3.89-4.02c-1-1.66-1.5-3.76-1.5-6.31c0-2.87,0.78-5.46,2.35-7.78
				c1.57-2.32,3.92-4.18,7.06-5.59c3.14-1.41,7.05-2.12,11.73-2.12c3.14,0,6.22,0.35,9.24,1.06s5.72,1.74,8.08,3.1l-4.16,10.03
				c-2.28-1.23-4.53-2.15-6.75-2.76c-2.23-0.61-4.39-0.92-6.48-0.92c-1.87,0-3.37,0.19-4.5,0.58c-1.14,0.39-1.96,0.9-2.45,1.54
				c-0.5,0.64-0.75,1.37-0.75,2.19c0,1.04,0.49,1.87,1.47,2.49c0.98,0.62,2.27,1.12,3.89,1.5c1.61,0.39,3.39,0.78,5.32,1.2
				c1.93,0.41,3.86,0.92,5.8,1.53c1.93,0.62,3.69,1.43,5.28,2.46c1.59,1.02,2.88,2.36,3.85,4.02c0.98,1.66,1.47,3.74,1.47,6.24
				c0,2.77-0.78,5.33-2.35,7.67c-1.57,2.34-3.91,4.22-7.02,5.63C723.3,241.13,719.38,241.84,714.65,241.84z"/>
		</g>
		<g>
			<path class="st0" d="M294.78,296.48c-5.93,0-10.55-1.62-13.88-4.87c-3.33-3.25-4.99-7.86-4.99-13.82v-22.25h11.35v21.9
				c0,3.44,0.68,5.91,2.04,7.4c1.36,1.49,3.22,2.24,5.59,2.24c2.37,0,4.22-0.74,5.56-2.24c1.34-1.49,2.01-3.96,2.01-7.4v-21.9h11.18
				v22.25c0,5.96-1.66,10.57-4.99,13.82C305.33,294.85,300.7,296.48,294.78,296.48z"/>
			<path class="st0" d="M319.89,295.68v-40.14h9.35l22.13,26.72h-4.42v-26.72h11.12v40.14h-9.35l-22.13-26.72h4.42v26.72H319.89z"/>
			<path class="st0" d="M375.91,286.9h20.99v8.77h-32.22v-40.14h31.48v8.77h-20.24V286.9z M375.11,271.08h18.63v8.49h-18.63V271.08z
				"/>
			<path class="st0" d="M401.77,295.68v-40.14h9.35l16.63,27.3h-4.93l16.17-27.3h9.35l0.11,40.14h-10.44l-0.11-24.26h1.78
				l-12.1,20.3h-5.04l-12.44-20.3h2.18v24.26H401.77z"/>
			<path class="st0" d="M455.04,295.68v-40.14h11.35v40.14H455.04z"/>
		</g>
		<g>
			<path class="st70" d="M238.5,255.43l-37.84,37.84v-48.91c3.7,0,7.41-0.71,10.89-2.12c3.49-1.41,6.75-3.53,9.58-6.36
				c14.01-13.99,12.43-35.09-4.04-46.08c-4.96-3.3-10.68-4.96-16.42-4.96v-20.77c13.7,0,27.4,5.23,37.84,15.68
				C259.4,200.66,259.4,234.54,238.5,255.43z"/>
			<path class="st69" d="M180.2,235.89c5.66,5.65,13.06,8.47,20.47,8.47v48.91l-37.84-37.84c-20.89-20.89-20.89-54.77,0-75.68
				c10.45-10.45,24.15-15.68,37.84-15.68v20.77c-5.73,0-11.45,1.66-16.41,4.96C167.78,200.8,166.2,221.89,180.2,235.89z"/>
		</g>
	</g>
</g>
<g id="Capa_2">
</g>
</svg>
