<?xml version="1.0" encoding="utf-8"?>
<!-- Generator: Adobe Illustrator 24.2.0, SVG Export Plug-In . SVG Version: 6.00 Build 0)  -->
<svg version="1.1" xmlns="http://www.w3.org/2000/svg" xmlns:xlink="http://www.w3.org/1999/xlink" x="0px" y="0px"
	 viewBox="0 0 967.4 203.55" style="enable-background:new 0 0 967.4 203.55;" xml:space="preserve">
<style type="text/css">
	.st0{fill:#FFFFFF;}
	.st1{clip-path:url(#SVGID_2_);fill:#254763;}
	.st2{clip-path:url(#SVGID_2_);fill:#F4981A;}
	.st3{clip-path:url(#SVGID_4_);fill:#082F43;}
	.st4{clip-path:url(#SVGID_4_);fill:#28285B;}
	.st5{clip-path:url(#SVGID_4_);fill:#808081;}
	.st6{clip-path:url(#SVGID_4_);fill:#F4981A;}
	.st7{fill:#F4981A;}
	.st8{fill:#254763;}
	.st9{clip-path:url(#SVGID_6_);fill:url(#SVGID_7_);}
	.st10{fill:#1D3347;}
	.st11{clip-path:url(#SVGID_9_);}
	.st12{clip-path:url(#SVGID_9_);fill:#FFFFFF;}
	.st13{clip-path:url(#SVGID_11_);fill:#0B2E43;}
	.st14{clip-path:url(#SVGID_11_);fill:#FFFFFF;}
	.st15{clip-path:url(#SVGID_11_);fill:#EF7D17;}
	.st16{clip-path:url(#SVGID_11_);fill:#F49818;}
	.st17{clip-path:url(#SVGID_11_);fill:#989898;}
	.st18{clip-path:url(#SVGID_11_);fill:#264763;}
	.st19{clip-path:url(#SVGID_13_);fill:url(#SVGID_14_);}
	.st20{clip-path:url(#SVGID_16_);fill:#FFFFFF;}
	.st21{clip-path:url(#SVGID_16_);fill:#264763;}
	.st22{clip-path:url(#SVGID_18_);}
	.st23{clip-path:url(#SVGID_20_);fill:url(#SVGID_21_);}
	.st24{clip-path:url(#SVGID_23_);fill:#0B2E43;}
	.st25{clip-path:url(#SVGID_23_);fill:#989898;}
	.st26{clip-path:url(#SVGID_23_);fill:#EE7D16;}
	.st27{clip-path:url(#SVGID_23_);fill:#1D3247;}
	.st28{clip-path:url(#SVGID_23_);fill:#F4981A;}
	.st29{clip-path:url(#SVGID_23_);fill:#082F43;}
	.st30{clip-path:url(#SVGID_23_);fill:#28285B;}
	.st31{clip-path:url(#SVGID_23_);fill:#808081;}
	.st32{clip-path:url(#SVGID_23_);fill:#254763;}
	.st33{clip-path:url(#SVGID_25_);fill:#FFFFFF;}
	.st34{clip-path:url(#SVGID_25_);}
	.st35{clip-path:url(#SVGID_27_);fill:#0B2E43;}
	.st36{clip-path:url(#SVGID_27_);fill:#FFFFFF;}
	.st37{clip-path:url(#SVGID_27_);fill:#EF7D17;}
	.st38{clip-path:url(#SVGID_27_);fill:#F49818;}
	.st39{clip-path:url(#SVGID_27_);fill:#989898;}
	.st40{clip-path:url(#SVGID_27_);fill:#264763;}
	.st41{clip-path:url(#SVGID_29_);fill:url(#SVGID_30_);}
	.st42{clip-path:url(#SVGID_32_);fill:#FFFFFF;}
	.st43{clip-path:url(#SVGID_32_);fill:#264763;}
	.st44{clip-path:url(#SVGID_34_);}
	.st45{clip-path:url(#SVGID_36_);fill:#FFFFFF;}
	.st46{clip-path:url(#SVGID_36_);}
	.st47{clip-path:url(#SVGID_38_);fill:#0B2E43;}
	.st48{clip-path:url(#SVGID_38_);fill:#FFFFFF;}
	.st49{clip-path:url(#SVGID_38_);fill:#EF7D17;}
	.st50{clip-path:url(#SVGID_38_);fill:#F49818;}
	.st51{clip-path:url(#SVGID_38_);fill:#989898;}
	.st52{clip-path:url(#SVGID_38_);fill:#264763;}
	.st53{clip-path:url(#SVGID_40_);fill:url(#SVGID_41_);}
	.st54{clip-path:url(#SVGID_43_);fill:#FFFFFF;}
	.st55{clip-path:url(#SVGID_43_);fill:#264763;}
	.st56{clip-path:url(#SVGID_45_);}
	.st57{clip-path:url(#SVGID_47_);fill:#FFFFFF;}
	.st58{clip-path:url(#SVGID_47_);}
	.st59{clip-path:url(#SVGID_49_);fill:#0B2E43;}
	.st60{clip-path:url(#SVGID_49_);fill:#FFFFFF;}
	.st61{clip-path:url(#SVGID_49_);fill:#EF7D17;}
	.st62{clip-path:url(#SVGID_49_);fill:#F49818;}
	.st63{clip-path:url(#SVGID_49_);fill:#989898;}
	.st64{clip-path:url(#SVGID_49_);fill:#264763;}
	.st65{clip-path:url(#SVGID_51_);fill:url(#SVGID_52_);}
	.st66{clip-path:url(#SVGID_54_);fill:#FFFFFF;}
	.st67{clip-path:url(#SVGID_54_);fill:#264763;}
	.st68{fill:#0B2E43;}
	.st69{fill:#EF7D17;}
	.st70{fill:#F49818;}
	.st71{fill:#989898;}
	.st72{fill:#264763;}
	.st73{clip-path:url(#SVGID_56_);fill:url(#SVGID_57_);}
	.st74{opacity:0.92;}
	.st75{fill:#F49940;}
	.st76{fill:#102B42;}
	.st77{fill:#244762;}
	.st78{fill:#0A0A0A;stroke:#000000;stroke-miterlimit:10;}
	.st79{fill:none;stroke:#000000;stroke-miterlimit:10;}
	.st80{fill:#FFFFFF;stroke:#FFFFFF;stroke-miterlimit:10;}
	.st81{clip-path:url(#SVGID_59_);}
	.st82{fill:none;stroke:#FFFFFF;stroke-width:3;stroke-miterlimit:10;}
	.st83{clip-path:url(#SVGID_61_);}
	.st84{fill:#BF4C26;}
	.st85{fill:#F0E1C1;}
	.st86{fill:#2B2E34;}
	.st87{fill:#494441;}
	.st88{fill:#F59B25;}
	.st89{fill:#07B5C2;}
	.st90{fill:#5A4D9B;}
	.st91{fill:#A3C739;}
	.st92{fill:#515767;}
	.st93{fill:none;stroke:#FFFFFF;stroke-miterlimit:10;}
	.st94{fill:none;}
	.st95{fill:#616160;}
</style>
<g id="Capa_1">
	<g>
		<g>
			<g>
				<g>
					<g>
						<g>
							<g>
								<path class="st0" d="M603.69,111.29c0,0.21,0.01,0.39,0,0.57c-0.01,0.35-0.23,0.58-0.58,0.58c-1.53,0.01-3.06,0.01-4.59,0
									c-0.34,0-0.56-0.23-0.58-0.58c-0.01-0.18,0-0.35,0-0.56c-0.14,0-0.24,0-0.35,0c-1.55,0-3.09,0-4.64,0
									c-0.58,0-0.77-0.19-0.77-0.78c0-3.33,0-6.66,0-9.98c0-0.57,0.19-0.76,0.76-0.76c0.5,0,1.01,0,1.55,0c0-0.13,0-0.23,0-0.33
									c0-0.46-0.01-0.92,0-1.38c0.01-0.35,0.21-0.58,0.54-0.58c1.26-0.01,2.52-0.03,3.78,0.02c0.81,0.03,1.46,0.46,2,1.11
									c0.07-0.07,0.12-0.13,0.18-0.19c0.55-0.59,1.23-0.93,2.05-0.93c1.16-0.01,2.32-0.01,3.48,0c0.41,0,0.62,0.21,0.62,0.62
									c0.01,0.55,0,1.09,0,1.68c0.46,0,0.88,0,1.31,0c0.13,0,0.25,0,0.38,0c0.39,0.02,0.62,0.24,0.62,0.63c0,3.42,0,6.84,0,10.25
									c0,0.42-0.24,0.64-0.7,0.64c-1.57,0-3.15,0-4.72,0C603.93,111.29,603.82,111.29,603.69,111.29z M595.65,98.62
									c0,3.08,0,6.13,0,9.21c0.83,0,1.65,0.02,2.47,0c0.74-0.02,1.43,0.09,2.05,0.52c0.01,0.01,0.03-0.01,0.06-0.02
									c0-0.05,0.01-0.1,0.01-0.16c0-2.63,0-5.25-0.01-7.88c0-0.87-0.69-1.63-1.56-1.66C597.67,98.6,596.67,98.62,595.65,98.62z
									 M605.98,107.84c0-3.1,0-6.15,0-9.21c-1.02,0-2.02-0.03-3.01,0.01c-0.87,0.03-1.56,0.79-1.56,1.66
									c-0.01,2.63-0.01,5.25-0.01,7.88c0,0.06,0.01,0.12,0.02,0.21c0.49-0.33,0.99-0.53,1.56-0.54c0.42-0.01,0.85-0.01,1.27-0.01
									C604.81,107.84,605.39,107.84,605.98,107.84z M600.22,111.27c0-0.18,0-0.35,0-0.51c-0.03-1.09-0.73-1.77-1.81-1.77
									c-1.11,0-2.21,0-3.32,0c-0.39,0-0.62-0.24-0.62-0.62c0-2.36,0.01-4.73,0.01-7.09c0-0.11,0-0.21,0-0.33c-0.4,0-0.76,0-1.14,0
									c0,3.06,0,6.11,0,9.19c0.13,0,0.23,0,0.34,0c1.56,0,3.11,0,4.67,0c0.53,0,0.74,0.2,0.74,0.73c0,0.14,0,0.28,0,0.43
									c0.36,0,0.67,0,0.99,0C600.11,111.29,600.16,111.28,600.22,111.27z M602.54,111.28c0-0.13,0-0.23,0-0.33
									c0-0.64,0.17-0.82,0.81-0.82c1.54,0,3.07,0,4.61,0c0.1,0,0.21,0,0.32,0c0-3.08,0-6.13,0-9.18c-0.38,0-0.75,0-1.15,0
									c0,0.33,0,0.63,0,0.93c0,2.16,0.01,4.31,0.01,6.47c0,0.38-0.23,0.63-0.61,0.63c-1.15,0-2.3-0.02-3.45,0.01
									c-1.17,0.03-1.91,1.04-1.65,2.29C601.8,111.28,602.15,111.28,602.54,111.28z"/>
							</g>
							<g>
								<path class="st0" d="M576.63,75.42c0.5,0,1-0.02,1.5,0c0.76,0.03,1.14,0.35,1.26,1.09c0.09,0.55,0.13,1.11,0.12,1.66
									c-0.02,0.97,0.27,1.26,1.23,1.25c0.63-0.01,1.26,0.09,1.88,0.17c0.44,0.06,0.75,0.32,0.77,0.78
									c0.04,1.34,0.06,2.69,0.04,4.04c0,0.42-0.32,0.72-0.72,0.79c-0.6,0.11-1.21,0.22-1.82,0.2c-1.05-0.05-1.41,0.29-1.39,1.34
									c0.02,0.55-0.03,1.11-0.13,1.66c-0.12,0.67-0.47,0.96-1.15,0.97c-1.1,0.02-2.2,0.03-3.29-0.02
									c-0.92-0.04-1.18-0.3-1.31-1.22c-0.07-0.47-0.09-0.96-0.07-1.45c0.04-0.97-0.24-1.28-1.19-1.3
									c-0.59-0.01-1.17-0.05-1.76-0.1c-0.57-0.06-0.96-0.37-0.98-0.9c-0.05-1.26-0.05-2.51-0.03-3.77
									c0.01-0.61,0.39-0.99,0.98-1.08c0.5-0.08,1.02-0.13,1.52-0.08c1.03,0.1,1.45-0.25,1.47-1.28c0.01-0.57,0.01-1.14,0.08-1.71
									c0.08-0.63,0.33-0.87,0.97-0.95c0.67-0.09,1.34-0.11,2.01-0.16C576.63,75.38,576.63,75.4,576.63,75.42z M574.79,86.14
									C574.79,86.14,574.79,86.14,574.79,86.14c0.01,0.44-0.01,0.88,0.01,1.32c0.02,0.43,0.24,0.65,0.67,0.66
									c0.57,0.01,1.15,0.01,1.72-0.02c0.6-0.03,0.92-0.33,0.96-0.93c0.05-0.69,0.04-1.38,0.07-2.07c0.03-0.83,0.16-0.95,1-0.97
									c0.67-0.02,1.35-0.01,2.02-0.07c0.6-0.05,0.9-0.36,0.94-0.96c0.03-0.47,0.02-0.94,0.02-1.41c0-0.77-0.23-0.98-1-0.99
									c-0.72,0-1.44,0.02-2.16-0.02c-0.67-0.04-0.81-0.21-0.83-0.88c-0.02-0.72-0.01-1.43,0-2.15c0.01-0.75-0.41-1.11-1.14-1.01
									c-0.27,0.04-0.55,0.04-0.82-0.01c-0.96-0.17-1.42,0.17-1.47,1.15c-0.03,0.51,0,1.03,0,1.54c0,1.27-0.11,1.37-1.37,1.4
									c-0.56,0.01-1.12,0.01-1.67,0.07c-0.59,0.07-0.87,0.35-0.93,0.94c-0.05,0.51-0.05,1.02-0.03,1.53
									c0.03,0.64,0.33,0.88,0.96,0.88c0.76,0,1.53,0,2.29,0c0.52,0.01,0.72,0.2,0.74,0.72C574.8,85.29,574.79,85.72,574.79,86.14z
									"/>
							</g>
							<g>
								<path class="st0" d="M569.66,129.26c-3.34,0-6.56-1.09-9.25-3.16c-6.66-5.12-7.91-14.7-2.8-21.36
									c2.48-3.23,6.07-5.29,10.1-5.82c4.03-0.53,8.03,0.55,11.26,3.03c6.66,5.12,7.91,14.7,2.8,21.36
									c-2.48,3.23-6.07,5.29-10.1,5.82C571,129.22,570.33,129.26,569.66,129.26z M569.72,100.42c-0.6,0-1.2,0.04-1.79,0.12
									c-3.6,0.47-6.81,2.32-9.02,5.2c-4.57,5.95-3.45,14.51,2.5,19.08c2.88,2.22,6.46,3.18,10.06,2.7c3.6-0.47,6.81-2.32,9.02-5.2
									c4.57-5.95,3.45-14.51-2.5-19.08C575.58,101.39,572.7,100.42,569.72,100.42z"/>
							</g>
							<g>
								<path class="st0" d="M576.35,98.03c-3.34,0-6.56-1.09-9.25-3.16c-6.66-5.12-7.91-14.7-2.8-21.36
									c2.48-3.23,6.07-5.29,10.1-5.82c4.03-0.53,8.03,0.55,11.26,3.03c6.66,5.12,7.91,14.7,2.8,21.36
									c-2.48,3.23-6.07,5.29-10.1,5.82C577.69,97.99,577.02,98.03,576.35,98.03z M576.41,69.19c-0.6,0-1.2,0.04-1.79,0.12
									c-3.6,0.47-6.81,2.32-9.02,5.2c-4.57,5.95-3.45,14.51,2.5,19.08c2.88,2.22,6.46,3.18,10.06,2.7c3.6-0.47,6.81-2.32,9.02-5.2
									c4.57-5.95,3.45-14.51-2.5-19.08C582.27,70.16,579.39,69.19,576.41,69.19z"/>
							</g>
							<g>
								<path class="st0" d="M600.52,119.9c-3.24,0-6.5-1.03-9.26-3.15c-3.23-2.48-5.29-6.07-5.82-10.1
									c-0.53-4.03,0.55-8.03,3.03-11.26c2.48-3.23,6.07-5.29,10.1-5.82c4.04-0.53,8.03,0.55,11.26,3.03
									c6.66,5.12,7.91,14.7,2.8,21.36l0,0C609.62,117.86,605.1,119.9,600.52,119.9z M600.57,91.07c-0.59,0-1.19,0.04-1.79,0.12
									c-3.6,0.47-6.81,2.32-9.02,5.2c-2.22,2.88-3.18,6.45-2.7,10.06s2.32,6.81,5.2,9.02c5.95,4.57,14.51,3.45,19.08-2.5l0,0
									c4.57-5.95,3.45-14.51-2.5-19.08C606.43,92.04,603.55,91.07,600.57,91.07z"/>
							</g>
							<path class="st0" d="M568.08,115.6c-0.82-0.44-1.34-1.07-1.51-1.97c-0.01-0.07-0.13-0.16-0.21-0.16
								c-0.65-0.07-1.29-0.12-1.94-0.19c-0.15-0.02-0.23,0.03-0.31,0.17c-0.47,0.83-1.35,1.18-2.25,0.89
								c-0.88-0.28-1.38-1.05-1.29-1.99c0.08-0.85,0.77-1.56,1.63-1.68c0.9-0.12,1.73,0.4,2.05,1.3c0.05,0.15,0.12,0.21,0.28,0.22
								c0.65,0.05,1.29,0.11,1.94,0.18c0.15,0.01,0.22-0.03,0.28-0.17c0.33-0.79,0.91-1.31,1.73-1.55c0.15-0.05,0.21-0.11,0.21-0.28
								c-0.01-0.75-0.01-1.51,0-2.26c0-0.18-0.07-0.24-0.22-0.31c-0.95-0.42-1.35-1.44-0.98-2.45c0.35-0.95,1.31-1.44,2.29-1.16
								c0.74,0.21,1.27,0.89,1.34,1.72c0.07,0.81-0.33,1.55-1.06,1.86c-0.22,0.09-0.27,0.21-0.27,0.42c0.01,0.72,0,1.43,0.01,2.15
								c0,0.09,0.06,0.24,0.13,0.26c0.55,0.17,1.02,0.46,1.4,0.91c0.42-0.21,0.82-0.4,1.21-0.62c0.07-0.04,0.12-0.2,0.12-0.3
								c0-0.8,0.42-1.5,1.14-1.8c0.77-0.32,1.49-0.19,2.1,0.37c0.75,0.67,0.81,1.8,0.17,2.56c-0.68,0.8-1.88,0.94-2.68,0.3
								c-0.18-0.14-0.3-0.17-0.5-0.06c-0.29,0.17-0.6,0.3-0.89,0.46c-0.07,0.04-0.14,0.16-0.13,0.23c0.09,1.05,0.05,1.24-0.49,2.18
								c0.2,0.24,0.4,0.5,0.62,0.73c0.06,0.06,0.22,0.05,0.33,0.03c1.03-0.23,2.06,0.4,2.29,1.41c0.24,1.03-0.38,2.04-1.41,2.28
								c-0.75,0.17-1.41-0.04-1.9-0.65c-0.5-0.62-0.58-1.32-0.22-2.04c0.09-0.19,0.09-0.3-0.05-0.45c-0.18-0.18-0.33-0.39-0.47-0.55
								c-0.46,0.09-0.87,0.17-1.29,0.26c-0.07,0.01-0.15,0.09-0.17,0.15c-0.37,1.42-0.73,2.85-1.08,4.28
								c-0.02,0.08,0.07,0.23,0.14,0.29c0.68,0.55,0.91,1.37,0.61,2.19c-0.33,0.87-1.19,1.36-2.11,1.19
								c-0.89-0.16-1.53-0.94-1.54-1.85c-0.01-0.91,0.62-1.7,1.51-1.86c0.21-0.04,0.3-0.12,0.35-0.33c0.33-1.34,0.67-2.67,1.01-4
								C568.04,115.81,568.06,115.72,568.08,115.6z M569.2,114.73c0.93,0.01,1.62-0.64,1.62-1.49c0-0.9-0.7-1.6-1.6-1.6
								c-0.88,0-1.56,0.68-1.58,1.59C567.63,114.03,568.34,114.72,569.2,114.73z M574.56,109.74c-0.46,0-0.79,0.34-0.78,0.8
								c0.01,0.46,0.35,0.79,0.8,0.78c0.48-0.01,0.83-0.35,0.82-0.81C575.39,110.06,575.04,109.74,574.56,109.74z M570.02,106.03
								c-0.01-0.48-0.35-0.83-0.81-0.82c-0.44,0.01-0.76,0.36-0.76,0.83c0,0.48,0.34,0.83,0.81,0.81
								C569.71,106.85,570.03,106.5,570.02,106.03z M563.23,112.56c0.01-0.47-0.32-0.81-0.78-0.81c-0.45,0-0.77,0.33-0.78,0.78
								c-0.01,0.47,0.33,0.81,0.78,0.81C562.91,113.34,563.23,113.02,563.23,112.56z M572.77,118.23c0.47,0.01,0.79-0.32,0.79-0.79
								c0-0.46-0.31-0.79-0.76-0.79c-0.46-0.01-0.8,0.33-0.8,0.79C572,117.89,572.32,118.22,572.77,118.23z M567.83,122.08
								c0-0.45-0.36-0.8-0.83-0.79c-0.41,0-0.73,0.35-0.73,0.79c0,0.46,0.32,0.79,0.76,0.79
								C567.46,122.87,567.83,122.52,567.83,122.08z"/>
						</g>
					</g>
				</g>
				<g>
					<path class="st0" d="M545.65,104.98c-1.58-8.52-0.69-16.78,3.15-24.61c4.4-8.95,11.75-14.69,21.25-17.9
						c2.64-0.89,5.34-1.56,8.14-1.78c0.2-0.03,0.39-0.05,0.58-0.08v-9.29h-50.26v55.09h16.99
						C545.71,105.98,545.75,105.53,545.65,104.98z"/>
					<path class="st0" d="M567.69,161.32c-0.66-0.47-0.82-1.11-0.81-1.88c0.03-3.22-0.01-6.45,0.03-9.67
						c0.01-0.7-0.21-0.88-0.91-0.87c-3.7,0.03-7.4,0.02-11.1,0.01c-4.11-0.01-6.13-1.86-6.36-5.9c-0.08-1.34-0.07-2.7-0.02-4.04
						c0.03-0.67-0.21-1.08-0.74-1.48c-1.07-0.8-2.11-1.63-3.11-2.51c-1.15-1.01-1.12-1.44,0.1-2.44c0.69-0.57,1.41-1.1,2.2-1.72
						c-0.65-0.31-1.2-0.61-1.78-0.84c-0.95-0.37-1.32-1.04-1.29-2c0.03-0.85-0.02-1.71,0.04-2.56c0.05-0.63-0.21-0.96-0.78-1.18
						c-1.09-0.43-2.15-0.92-3.24-1.36c-3.28-1.33-4.02-3.95-1.88-6.71c0.44-0.57,0.87-1.13,1.31-1.7h-11.01v55.09h50.26v-8.32
						l-10.08,0.09C568.23,161.32,567.96,161.32,567.69,161.32z"/>
					<path class="st0" d="M618.61,114.37c-2.04,5.24-4.54,10.28-7.67,15.04c-0.65,0.99-1.38,1.95-2.15,2.85
						c-0.42,0.49-0.57,0.98-0.57,1.6c0.01,8.42,0.01,16.84,0.01,25.25c0,0.36,0,0.73-0.09,1.07c-0.16,0.59-0.63,0.84-1.23,0.81
						l-18.94,0.16v8.31h50.26v-55.09H618.61z"/>
				</g>
			</g>
			<g>
				<path class="st0" d="M660.14,77.45c-1.32-0.57-2.36-1.4-3.13-2.48c-0.77-1.08-1.16-2.36-1.18-3.83h5.07
					c0.07,0.99,0.41,1.77,1.03,2.34c0.62,0.57,1.47,0.86,2.55,0.86c1.1,0,1.97-0.27,2.6-0.81c0.63-0.54,0.95-1.25,0.95-2.12
					c0-0.71-0.21-1.3-0.64-1.76c-0.43-0.46-0.96-0.82-1.6-1.09c-0.64-0.26-1.53-0.56-2.65-0.88c-1.53-0.46-2.78-0.91-3.73-1.36
					c-0.96-0.45-1.78-1.13-2.47-2.03s-1.03-2.12-1.03-3.64c0-1.42,0.35-2.67,1.05-3.72c0.7-1.06,1.68-1.87,2.94-2.43
					c1.26-0.56,2.7-0.85,4.33-0.85c2.43,0,4.41,0.6,5.93,1.81c1.52,1.21,2.36,2.89,2.52,5.05h-5.2c-0.04-0.83-0.39-1.51-1.03-2.05
					c-0.64-0.54-1.49-0.81-2.55-0.81c-0.92,0-1.66,0.24-2.21,0.72c-0.55,0.48-0.83,1.18-0.83,2.1c0,0.64,0.21,1.18,0.63,1.6
					c0.42,0.43,0.93,0.77,1.55,1.03c0.62,0.26,1.49,0.57,2.62,0.91c1.53,0.46,2.78,0.92,3.75,1.38c0.97,0.46,1.8,1.15,2.5,2.07
					s1.05,2.13,1.05,3.62c0,1.29-0.33,2.48-0.98,3.59c-0.65,1.1-1.61,1.98-2.87,2.64c-1.26,0.65-2.76,0.98-4.49,0.98
					C662.94,78.31,661.46,78.03,660.14,77.45z"/>
				<path class="st0" d="M676.43,63.31c0.75-1.49,1.78-2.64,3.08-3.45c1.29-0.8,2.74-1.21,4.34-1.21c1.4,0,2.62,0.29,3.67,0.86
					c1.05,0.57,1.89,1.3,2.52,2.17v-2.72h4.76v19.1h-4.76v-2.79c-0.61,0.9-1.45,1.64-2.52,2.22c-1.07,0.59-2.3,0.88-3.7,0.88
					c-1.58,0-3.01-0.41-4.31-1.24c-1.3-0.83-2.32-1.99-3.08-3.5c-0.75-1.51-1.13-3.24-1.13-5.19
					C675.3,66.52,675.68,64.81,676.43,63.31z M689.36,65.5c-0.45-0.84-1.06-1.48-1.83-1.93c-0.77-0.45-1.59-0.67-2.47-0.67
					c-0.88,0-1.69,0.22-2.43,0.66c-0.74,0.44-1.35,1.08-1.81,1.91c-0.46,0.84-0.69,1.83-0.69,2.98c0,1.15,0.23,2.16,0.69,3.02
					c0.46,0.86,1.07,1.52,1.82,1.98c0.75,0.46,1.56,0.69,2.42,0.69c0.88,0,1.7-0.22,2.47-0.67s1.37-1.09,1.83-1.93
					c0.45-0.84,0.68-1.85,0.68-3.02S689.81,66.34,689.36,65.5z"/>
				<path class="st0" d="M703.65,52.56v25.52h-4.73V52.56H703.65z"/>
				<path class="st0" d="M725.48,58.97v19.1h-4.76v-2.41c-0.61,0.83-1.4,1.48-2.38,1.95c-0.98,0.47-2.04,0.71-3.19,0.71
					c-1.46,0-2.76-0.32-3.89-0.95c-1.13-0.63-2.01-1.56-2.65-2.79c-0.64-1.23-0.96-2.69-0.96-4.4V58.97h4.73v10.52
					c0,1.52,0.37,2.68,1.12,3.5s1.76,1.22,3.04,1.22c1.31,0,2.33-0.41,3.08-1.22c0.74-0.82,1.12-1.98,1.12-3.5V58.97H725.48z"/>
				<path class="st0" d="M729.55,63.31c0.75-1.49,1.79-2.64,3.09-3.45c1.31-0.8,2.76-1.21,4.36-1.21c1.22,0,2.38,0.27,3.48,0.81
					c1.1,0.54,1.98,1.26,2.64,2.16v-9.07h4.8v25.52h-4.8v-2.83c-0.59,0.94-1.41,1.7-2.47,2.28s-2.29,0.86-3.68,0.86
					c-1.58,0-3.02-0.41-4.33-1.24s-2.34-1.99-3.09-3.5c-0.75-1.51-1.13-3.24-1.13-5.19C728.42,66.52,728.8,64.81,729.55,63.31z
					 M742.48,65.5c-0.45-0.84-1.06-1.48-1.83-1.93c-0.77-0.45-1.59-0.67-2.47-0.67c-0.88,0-1.69,0.22-2.43,0.66
					c-0.74,0.44-1.35,1.08-1.81,1.91c-0.46,0.84-0.69,1.83-0.69,2.98c0,1.15,0.23,2.16,0.69,3.02c0.46,0.86,1.07,1.52,1.82,1.98
					c0.75,0.46,1.56,0.69,2.42,0.69c0.88,0,1.7-0.22,2.47-0.67s1.37-1.09,1.83-1.93c0.45-0.84,0.68-1.85,0.68-3.02
					S742.93,66.34,742.48,65.5z"/>
				<path class="st0" d="M777.49,58.97l-11.59,28.14h-5.03l4.05-9.52l-7.5-18.62h5.31l4.83,13.34l4.9-13.34H777.49z"/>
				<path class="st0" d="M801.83,55.49c1.88,0.99,3.33,2.4,4.36,4.22c1.02,1.83,1.54,3.95,1.54,6.36c0,2.41-0.51,4.52-1.54,6.33
					c-1.03,1.81-2.48,3.2-4.36,4.19c-1.88,0.99-4.06,1.48-6.54,1.48h-8.25V54h8.25C797.77,54,799.95,54.5,801.83,55.49z
					 M800.87,71.9c1.35-1.38,2.03-3.32,2.03-5.83c0-2.5-0.68-4.47-2.03-5.88c-1.35-1.41-3.27-2.12-5.74-2.12h-3.35v15.9h3.35
					C797.6,73.97,799.52,73.28,800.87,71.9z"/>
				<path class="st0" d="M828.04,69.97h-13.69c0.11,1.38,0.58,2.46,1.42,3.24c0.83,0.78,1.86,1.17,3.08,1.17
					c1.76,0,3.01-0.77,3.75-2.31h5.1c-0.54,1.84-1.58,3.35-3.11,4.53s-3.41,1.78-5.64,1.78c-1.8,0-3.42-0.41-4.85-1.22
					s-2.55-1.97-3.35-3.47c-0.8-1.49-1.2-3.22-1.2-5.17c0-1.98,0.39-3.71,1.18-5.21c0.79-1.49,1.89-2.64,3.31-3.45
					c1.42-0.8,3.05-1.21,4.9-1.21c1.78,0,3.37,0.39,4.78,1.17c1.41,0.78,2.5,1.89,3.28,3.33c0.78,1.44,1.17,3.09,1.17,4.95
					C828.17,68.8,828.13,69.42,828.04,69.97z M823.27,66.73c-0.02-1.24-0.46-2.24-1.32-2.98s-1.9-1.12-3.14-1.12
					c-1.17,0-2.16,0.36-2.96,1.09s-1.29,1.73-1.47,3.02H823.27z"/>
				<path class="st0" d="M834.15,77.54c-1.22-0.56-2.18-1.33-2.89-2.29c-0.71-0.97-1.1-2.03-1.17-3.21h4.76
					c0.09,0.74,0.44,1.34,1.06,1.83c0.62,0.48,1.39,0.72,2.31,0.72c0.9,0,1.61-0.18,2.11-0.55s0.76-0.84,0.76-1.41
					c0-0.62-0.31-1.09-0.93-1.4c-0.62-0.31-1.61-0.65-2.96-1.02c-1.4-0.34-2.54-0.7-3.43-1.07c-0.89-0.37-1.66-0.93-2.3-1.69
					c-0.64-0.76-0.96-1.78-0.96-3.07c0-1.06,0.3-2.02,0.9-2.9c0.6-0.87,1.45-1.56,2.57-2.07c1.12-0.51,2.43-0.76,3.94-0.76
					c2.23,0,4.01,0.57,5.34,1.71c1.33,1.14,2.06,2.67,2.2,4.6h-4.53c-0.07-0.76-0.38-1.36-0.93-1.81c-0.55-0.45-1.29-0.67-2.21-0.67
					c-0.86,0-1.52,0.16-1.98,0.48c-0.46,0.32-0.69,0.77-0.69,1.34c0,0.64,0.32,1.13,0.95,1.47c0.63,0.33,1.61,0.67,2.94,1.02
					c1.35,0.35,2.47,0.7,3.35,1.07c0.88,0.37,1.64,0.94,2.28,1.71c0.64,0.77,0.97,1.79,1,3.05c0,1.1-0.3,2.09-0.9,2.97
					c-0.6,0.87-1.45,1.56-2.57,2.05s-2.42,0.74-3.9,0.74C836.75,78.38,835.37,78.1,834.15,77.54z"/>
				<path class="st0" d="M848.94,63.31c0.75-1.49,1.78-2.64,3.08-3.45c1.29-0.8,2.74-1.21,4.34-1.21c1.4,0,2.62,0.29,3.67,0.86
					c1.05,0.57,1.89,1.3,2.52,2.17v-2.72h4.76v19.1h-4.76v-2.79c-0.61,0.9-1.45,1.64-2.52,2.22c-1.07,0.59-2.3,0.88-3.7,0.88
					c-1.58,0-3.01-0.41-4.31-1.24c-1.3-0.83-2.32-1.99-3.08-3.5c-0.75-1.51-1.13-3.24-1.13-5.19
					C847.81,66.52,848.18,64.81,848.94,63.31z M861.86,65.5c-0.45-0.84-1.06-1.48-1.83-1.93c-0.77-0.45-1.59-0.67-2.47-0.67
					c-0.88,0-1.69,0.22-2.43,0.66c-0.74,0.44-1.35,1.08-1.81,1.91c-0.46,0.84-0.69,1.83-0.69,2.98c0,1.15,0.23,2.16,0.69,3.02
					c0.46,0.86,1.07,1.52,1.82,1.98c0.75,0.46,1.56,0.69,2.42,0.69c0.88,0,1.7-0.22,2.47-0.67s1.37-1.09,1.83-1.93
					c0.45-0.84,0.68-1.85,0.68-3.02S862.31,66.34,861.86,65.5z"/>
				<path class="st0" d="M878.54,59.56c0.98-0.57,2.1-0.86,3.36-0.86v5.07h-1.25c-1.49,0-2.61,0.36-3.36,1.07
					c-0.75,0.71-1.13,1.95-1.13,3.72v9.52h-4.73v-19.1h4.73v2.97C876.77,60.92,877.56,60.13,878.54,59.56z"/>
				<path class="st0" d="M891.69,59.56c0.98-0.57,2.1-0.86,3.36-0.86v5.07h-1.25c-1.49,0-2.61,0.36-3.36,1.07
					c-0.75,0.71-1.13,1.95-1.13,3.72v9.52h-4.73v-19.1h4.73v2.97C889.91,60.92,890.71,60.13,891.69,59.56z"/>
				<path class="st0" d="M901.17,77.16c-1.44-0.82-2.57-1.97-3.4-3.47c-0.82-1.49-1.23-3.22-1.23-5.17c0-1.95,0.42-3.68,1.27-5.17
					s2-2.65,3.46-3.47c1.46-0.82,3.1-1.22,4.9-1.22c1.8,0,3.43,0.41,4.9,1.22c1.46,0.82,2.62,1.97,3.46,3.47s1.27,3.22,1.27,5.17
					c0,1.95-0.43,3.68-1.3,5.17c-0.87,1.49-2.04,2.65-3.51,3.47c-1.48,0.82-3.13,1.22-4.95,1.22
					C904.23,78.38,902.61,77.98,901.17,77.16z M908.45,73.54c0.75-0.43,1.36-1.06,1.81-1.91c0.45-0.85,0.68-1.88,0.68-3.1
					c0-1.82-0.47-3.21-1.4-4.19c-0.94-0.98-2.08-1.47-3.43-1.47s-2.48,0.49-3.4,1.47c-0.91,0.98-1.37,2.37-1.37,4.19
					c0,1.82,0.44,3.21,1.33,4.19c0.89,0.98,2.01,1.47,3.36,1.47C906.89,74.18,907.69,73.96,908.45,73.54z"/>
				<path class="st0" d="M923.5,52.56v25.52h-4.73V52.56H923.5z"/>
				<path class="st0" d="M932.39,52.56v25.52h-4.73V52.56H932.39z"/>
				<path class="st0" d="M939.99,77.16c-1.44-0.82-2.57-1.97-3.4-3.47c-0.82-1.49-1.23-3.22-1.23-5.17c0-1.95,0.42-3.68,1.27-5.17
					s2-2.65,3.46-3.47c1.46-0.82,3.1-1.22,4.9-1.22c1.8,0,3.43,0.41,4.9,1.22c1.46,0.82,2.62,1.97,3.46,3.47s1.27,3.22,1.27,5.17
					c0,1.95-0.43,3.68-1.3,5.17c-0.87,1.49-2.04,2.65-3.51,3.47c-1.48,0.82-3.13,1.22-4.95,1.22
					C943.06,78.38,941.43,77.98,939.99,77.16z M947.28,73.54c0.75-0.43,1.36-1.06,1.81-1.91c0.45-0.85,0.68-1.88,0.68-3.1
					c0-1.82-0.47-3.21-1.4-4.19c-0.94-0.98-2.08-1.47-3.43-1.47s-2.48,0.49-3.4,1.47c-0.91,0.98-1.37,2.37-1.37,4.19
					c0,1.82,0.44,3.21,1.33,4.19c0.89,0.98,2.01,1.47,3.36,1.47C945.72,74.18,946.52,73.96,947.28,73.54z"/>
			</g>
			<g>
				<path class="st0" d="M691.24,154.68c0,4.84-1.91,8.67-5.74,11.47c-3.41,2.47-7.64,3.7-12.68,3.7c-5.1,0-9.33-1.23-12.68-3.7
					c-3.79-2.75-5.68-6.57-5.68-11.47v-31.23h14.6v30.03c0,2.38,1.25,3.56,3.77,3.56c2.55,0,3.83-1.19,3.83-3.56v-30.03h14.6V154.68
					z"/>
				<polygon class="st0" points="736.43,169.4 721.83,169.4 708.25,148.3 708.25,169.4 693.65,169.4 693.65,123.44 707.3,123.44 
					721.83,145.56 721.83,123.44 736.43,123.44 				"/>
				<polygon class="st0" points="768.55,169.4 739.24,169.4 739.24,123.44 768.55,123.44 768.55,134.91 753.83,134.91 
					753.83,140.84 767.79,140.84 767.79,152.31 753.83,152.31 753.83,157.87 768.55,157.87 				"/>
				<polygon class="st0" points="827.95,169.4 813.3,169.4 809.61,146.13 803.62,169.4 795.32,169.4 788.75,146.13 784.8,169.4 
					770.15,169.4 778.69,123.44 793.67,123.44 799.21,143.71 804.96,123.44 819.68,123.44 				"/>
				<rect x="830.26" y="123.44" class="st0" width="14.66" height="45.95"/>
			</g>
			<g>
				<path class="st0" d="M677.63,87.45v24.07h-4.73v-10.24h-10.1v10.24h-4.73V87.45h4.73v9.9h10.1v-9.9H677.63z"/>
				<path class="st0" d="M699.46,92.42v19.1h-4.76v-2.41c-0.61,0.83-1.4,1.48-2.38,1.95c-0.98,0.47-2.04,0.71-3.19,0.71
					c-1.46,0-2.76-0.32-3.89-0.95c-1.13-0.63-2.01-1.56-2.65-2.79c-0.64-1.23-0.96-2.69-0.96-4.4V92.42h4.73v10.52
					c0,1.52,0.37,2.68,1.12,3.5s1.76,1.22,3.04,1.22c1.31,0,2.33-0.41,3.08-1.22c0.74-0.82,1.12-1.98,1.12-3.5V92.42H699.46z"/>
				<path class="st0" d="M732.42,94.3c1.41,1.44,2.11,3.44,2.11,6.02v11.21h-4.73v-10.55c0-1.49-0.37-2.64-1.12-3.43
					c-0.74-0.79-1.76-1.19-3.04-1.19s-2.3,0.4-3.06,1.19c-0.76,0.79-1.13,1.94-1.13,3.43v10.55h-4.73v-10.55
					c0-1.49-0.37-2.64-1.12-3.43s-1.76-1.19-3.04-1.19c-1.31,0-2.34,0.4-3.09,1.19s-1.13,1.94-1.13,3.43v10.55h-4.73v-19.1h4.73
					v2.31c0.61-0.8,1.39-1.44,2.35-1.9c0.96-0.46,2.01-0.69,3.16-0.69c1.46,0,2.77,0.32,3.92,0.95c1.15,0.63,2.04,1.53,2.67,2.71
					c0.61-1.1,1.49-1.99,2.65-2.66c1.16-0.67,2.42-1,3.77-1C729.16,92.14,731.02,92.86,732.42,94.3z"/>
				<path class="st0" d="M738.44,96.76c0.75-1.49,1.78-2.64,3.08-3.45c1.29-0.8,2.74-1.21,4.34-1.21c1.4,0,2.62,0.29,3.67,0.86
					c1.05,0.57,1.89,1.3,2.52,2.17v-2.72h4.76v19.1h-4.76v-2.79c-0.61,0.9-1.45,1.64-2.52,2.22c-1.07,0.59-2.3,0.88-3.7,0.88
					c-1.58,0-3.01-0.41-4.31-1.24c-1.3-0.83-2.32-1.99-3.08-3.5c-0.75-1.51-1.13-3.24-1.13-5.19
					C737.31,99.97,737.68,98.26,738.44,96.76z M751.36,98.95c-0.45-0.84-1.06-1.48-1.83-1.93c-0.77-0.45-1.59-0.67-2.47-0.67
					c-0.88,0-1.69,0.22-2.43,0.66c-0.74,0.44-1.35,1.08-1.81,1.91c-0.46,0.84-0.69,1.83-0.69,2.98c0,1.15,0.23,2.16,0.69,3.02
					c0.46,0.86,1.07,1.52,1.82,1.98c0.75,0.46,1.56,0.69,2.42,0.69c0.88,0,1.7-0.22,2.47-0.67s1.37-1.09,1.83-1.93
					c0.45-0.84,0.68-1.85,0.68-3.02S751.81,99.79,751.36,98.95z"/>
				<path class="st0" d="M776.71,94.3c1.37,1.44,2.06,3.44,2.06,6.02v11.21h-4.73v-10.55c0-1.52-0.37-2.68-1.12-3.5
					s-1.76-1.22-3.04-1.22c-1.31,0-2.34,0.41-3.09,1.22s-1.13,1.98-1.13,3.5v10.55h-4.73v-19.1h4.73v2.38
					c0.63-0.83,1.44-1.48,2.42-1.95c0.98-0.47,2.06-0.71,3.23-0.71C773.53,92.14,775.33,92.86,776.71,94.3z"/>
				<path class="st0" d="M786.2,110.61c-1.44-0.82-2.57-1.97-3.4-3.47c-0.82-1.49-1.23-3.22-1.23-5.17c0-1.95,0.42-3.68,1.27-5.17
					s2-2.65,3.46-3.47c1.46-0.82,3.1-1.22,4.9-1.22c1.8,0,3.43,0.41,4.9,1.22c1.46,0.82,2.62,1.97,3.46,3.47s1.27,3.22,1.27,5.17
					c0,1.95-0.43,3.68-1.3,5.17c-0.87,1.49-2.04,2.65-3.51,3.47c-1.48,0.82-3.13,1.22-4.95,1.22
					C789.27,111.83,787.64,111.42,786.2,110.61z M793.49,106.99c0.75-0.43,1.36-1.06,1.81-1.91c0.45-0.85,0.68-1.88,0.68-3.1
					c0-1.82-0.47-3.21-1.4-4.19c-0.94-0.98-2.08-1.47-3.43-1.47s-2.48,0.49-3.4,1.47c-0.91,0.98-1.37,2.37-1.37,4.19
					c0,1.82,0.44,3.21,1.33,4.19c0.89,0.98,2.01,1.47,3.36,1.47C791.93,107.63,792.73,107.41,793.49,106.99z"/>
			</g>
		</g>
		<g>
			<path class="st0" d="M123.81,114.03c0,8.95-3.54,16.02-10.61,21.19c-6.31,4.57-14.12,6.85-23.44,6.85
				c-9.43,0-17.25-2.28-23.44-6.85c-7-5.08-10.5-12.14-10.5-21.19V56.3H82.8v55.51c0,4.39,2.32,6.59,6.96,6.59
				c4.72,0,7.07-2.2,7.07-6.59V56.3h26.98V114.03z"/>
			<polygon class="st0" points="207.34,141.23 180.37,141.23 155.26,102.24 155.26,141.23 128.28,141.23 128.28,56.3 153.5,56.3 
				180.37,97.17 180.37,56.3 207.34,56.3 			"/>
			<polygon class="st0" points="266.72,141.23 212.53,141.23 212.53,56.3 266.72,56.3 266.72,77.5 239.51,77.5 239.51,88.46 
				265.31,88.46 265.31,109.65 239.51,109.65 239.51,119.92 266.72,119.92 			"/>
			<polygon class="st0" points="376.5,141.23 349.41,141.23 342.6,98.24 331.52,141.23 316.19,141.23 304.05,98.24 296.75,141.23 
				269.66,141.23 285.45,56.3 313.14,56.3 323.38,93.75 334,56.3 361.2,56.3 			"/>
			<rect x="380.77" y="56.3" class="st0" width="27.1" height="84.93"/>
			<path class="st0" d="M57.65,151.67v8.27c0,1.68,0.84,3.85,3.39,3.85c2.55,0,3.39-2.17,3.39-3.85v-8.27h1.83v8.56
				c0,3.12-2.27,5.28-5.22,5.28c-2.95,0-5.22-2.16-5.22-5.28v-8.56H57.65z"/>
			<polygon class="st0" points="70.26,151.67 72.66,151.67 80.09,162.76 80.13,162.76 80.13,151.67 81.96,151.67 81.96,165.16 
				79.63,165.16 72.12,154.07 72.09,154.07 72.09,165.16 70.26,165.16 			"/>
			<rect x="86.2" y="151.67" class="st0" width="1.83" height="13.49"/>
			<polygon class="st0" points="90.41,151.67 92.52,151.67 96.49,162.65 96.53,162.65 100.64,151.67 102.64,151.67 97.33,165.16 
				95.61,165.16 			"/>
			<polygon class="st0" points="105.03,151.67 113.74,151.67 113.74,153.38 106.86,153.38 106.86,157.41 113.26,157.41 
				113.26,159.12 106.86,159.12 106.86,163.45 114.08,163.45 114.08,165.16 105.03,165.16 			"/>
			<path class="st0" d="M117.44,151.67h4.75c3.45,0,4.33,2.08,4.33,3.77c0,1.72-1.28,3.34-3.32,3.56l3.83,6.16h-2.29l-3.43-5.94
				h-2.04v5.94h-1.83V151.67z M119.27,157.61h2.4c1.45,0,2.9-0.34,2.9-2.18c0-1.83-1.45-2.17-2.9-2.17h-2.4V157.61z"/>
			<path class="st0" d="M130.26,162.34c0.65,0.99,1.77,1.45,2.86,1.45c1.2,0,2.69-0.76,2.69-2.25c0-3.1-6.65-1.18-6.65-6.44
				c0-1.58,1.33-3.77,4.57-3.77c1.47,0,2.88,0.31,3.89,1.54l-1.48,1.35c-0.46-0.71-1.35-1.18-2.4-1.18c-2.02,0-2.63,1.22-2.63,2.06
				c0,3.41,6.65,1.38,6.65,6.23c0,2.62-2.1,4.17-4.69,4.17c-1.73,0-3.39-0.59-4.31-1.86L130.26,162.34z"/>
			<rect x="141.22" y="151.67" class="st0" width="1.83" height="13.49"/>
			<path class="st0" d="M146.98,151.67h4.71c5.7,0,7.09,4.25,7.09,6.75c0,3.45-2.57,6.75-7.39,6.75h-4.4V151.67z M148.81,163.45
				h2.31c3.09,0,5.71-1.69,5.71-5.03c0-1.71-0.9-5.03-5.28-5.03h-2.74V163.45z"/>
			<path class="st0" d="M166.4,151.67h1.66l5.77,13.49h-2.13l-1.36-3.33h-6.42l-1.33,3.33h-2.14L166.4,151.67z M169.68,160.22
				l-2.52-6.2h-0.04l-2.55,6.2H169.68z"/>
			<path class="st0" d="M176.05,151.67h4.71c5.7,0,7.09,4.25,7.09,6.75c0,3.45-2.57,6.75-7.4,6.75h-4.4V151.67z M177.88,163.45h2.3
				c3.09,0,5.72-1.69,5.72-5.03c0-1.71-0.89-5.03-5.28-5.03h-2.74V163.45z"/>
			<polygon class="st0" points="197.31,151.67 206.02,151.67 206.02,153.38 199.14,153.38 199.14,157.41 205.54,157.41 
				205.54,159.12 199.14,159.12 199.14,163.45 206.36,163.45 206.36,165.16 197.31,165.16 			"/>
			<path class="st0" d="M210.12,162.34c0.65,0.99,1.77,1.45,2.86,1.45c1.2,0,2.68-0.76,2.68-2.25c0-3.1-6.65-1.18-6.65-6.44
				c0-1.58,1.33-3.77,4.57-3.77c1.47,0,2.88,0.31,3.89,1.54l-1.49,1.35c-0.46-0.71-1.35-1.18-2.4-1.18c-2.02,0-2.63,1.22-2.63,2.06
				c0,3.41,6.65,1.38,6.65,6.23c0,2.62-2.09,4.17-4.69,4.17c-1.73,0-3.39-0.59-4.31-1.86L210.12,162.34z"/>
			<polygon class="st0" points="223.9,153.38 219.56,153.38 219.56,151.67 230.08,151.67 230.08,153.38 225.73,153.38 
				225.73,165.16 223.9,165.16 			"/>
			<path class="st0" d="M235.27,151.67h1.66l5.77,13.49h-2.14l-1.35-3.33h-6.42l-1.33,3.33h-2.14L235.27,151.67z M238.54,160.22
				l-2.51-6.2h-0.04l-2.56,6.2H238.54z"/>
			<polygon class="st0" points="246.29,153.38 241.94,153.38 241.94,151.67 252.46,151.67 252.46,153.38 248.12,153.38 
				248.12,165.16 246.29,165.16 			"/>
			<path class="st0" d="M257.65,151.67h1.66l5.77,13.49h-2.14l-1.35-3.33h-6.43l-1.33,3.33h-2.13L257.65,151.67z M260.93,160.22
				l-2.51-6.2h-0.04l-2.55,6.2H260.93z"/>
			<polygon class="st0" points="267.6,151.67 269.43,151.67 269.43,163.45 275.63,163.45 275.63,165.16 267.6,165.16 			"/>
			<path class="st0" d="M284.02,151.67h4.7c5.7,0,7.09,4.25,7.09,6.75c0,3.45-2.58,6.75-7.4,6.75h-4.4V151.67z M285.85,163.45h2.3
				c3.09,0,5.72-1.69,5.72-5.03c0-1.71-0.89-5.03-5.28-5.03h-2.74V163.45z"/>
			<polygon class="st0" points="299.21,151.67 307.92,151.67 307.92,153.38 301.04,153.38 301.04,157.41 307.45,157.41 
				307.45,159.12 301.04,159.12 301.04,163.45 308.27,163.45 308.27,165.16 299.21,165.16 			"/>
			<polygon class="st0" points="317.56,151.67 320.28,151.67 324.57,161.89 324.65,161.89 328.89,151.67 331.62,151.67 
				331.62,165.16 329.79,165.16 329.79,154.07 329.75,154.07 325.2,165.16 323.98,165.16 319.42,154.07 319.39,154.07 
				319.39,165.16 317.56,165.16 			"/>
			<rect x="335.72" y="151.67" class="st0" width="1.83" height="13.49"/>
			<polygon class="st0" points="341.79,151.67 343.62,151.67 343.62,163.45 349.81,163.45 349.81,165.16 341.79,165.16 			"/>
			<path class="st0" d="M356.68,151.67h1.66l5.77,13.49h-2.13l-1.35-3.33h-6.42l-1.33,3.33h-2.13L356.68,151.67z M359.95,160.22
				l-2.52-6.2h-0.04l-2.55,6.2H359.95z"/>
			<path class="st0" d="M378.12,157.61v6.65c-1.32,0.8-3.47,1.24-5.11,1.24c-4.57,0-7.22-3.26-7.22-7.09c0-4,2.92-7.09,7.03-7.09
				c2.48,0,3.98,0.67,5.03,1.76l-1.3,1.39c-1.1-1.07-2.38-1.43-3.73-1.43c-3.09,0-5.09,2.42-5.09,5.37c0,3.05,2.27,5.38,5.24,5.38
				c1.28,0,2.5-0.25,3.32-0.7v-3.76h-2.99v-1.72H378.12z"/>
			<path class="st0" d="M382.23,151.67h4.74c3.45,0,4.33,2.08,4.33,3.77c0,1.72-1.28,3.34-3.31,3.56l3.83,6.16h-2.29l-3.43-5.94
				h-2.04v5.94h-1.83V151.67z M384.06,157.61h2.4c1.45,0,2.9-0.34,2.9-2.18c0-1.83-1.45-2.17-2.9-2.17h-2.4V157.61z"/>
			<path class="st0" d="M393.8,158.41c0-4,2.92-7.09,7.03-7.09s7.03,3.09,7.03,7.09c0,4-2.92,7.09-7.03,7.09
				S393.8,162.42,393.8,158.41 M405.92,158.41c0-2.95-2-5.37-5.09-5.37c-3.09,0-5.09,2.42-5.09,5.37c0,2.96,2,5.37,5.09,5.37
				C403.92,163.79,405.92,161.37,405.92,158.41"/>
			<rect x="466.56" y="48.12" class="st0" width="1.98" height="125.57"/>
		</g>
	</g>
</g>
<g id="Capa_2">
</g>
</svg>
