<svg id="Capa_1" data-name="Capa 1" xmlns="http://www.w3.org/2000/svg" viewBox="0 0 886.03 476.57"><defs><style>.cls-1{fill:#fff;}.cls-2{fill:#ef7d17;}.cls-3{fill:#f49818;}</style></defs><path class="cls-1" d="M444.48,366.69q0,18.48-14.61,29.18-13,9.42-32.28,9.42-19.48,0-32.27-9.42-14.46-10.5-14.45-29.18V287.2H388v76.43q0,9.08,9.58,9.07,9.75,0,9.74-9.07V287.2h37.15Z"/><polygon class="cls-1" points="559.5 404.14 522.35 404.14 487.77 350.45 487.77 404.14 450.63 404.14 450.63 287.2 485.36 287.2 522.35 343.47 522.35 287.2 559.5 287.2 559.5 404.14"/><polygon class="cls-1" points="641.24 404.14 566.63 404.14 566.63 287.2 641.24 287.2 641.24 316.39 603.78 316.39 603.78 331.48 639.31 331.48 639.31 360.66 603.78 360.66 603.78 374.8 641.24 374.8 641.24 404.14"/><polygon class="cls-1" points="792.41 404.14 755.11 404.14 745.72 344.94 730.48 404.14 709.37 404.14 692.65 344.94 682.6 404.14 645.29 404.14 667.03 287.2 705.17 287.2 719.26 338.76 733.88 287.2 771.35 287.2 792.41 404.14"/><rect class="cls-1" x="798.28" y="287.2" width="37.31" height="116.94"/><path class="cls-1" d="M354.73,145.86a27.66,27.66,0,0,1,10.57-10.57,30,30,0,0,1,15-3.78,29.5,29.5,0,0,1,17.05,5,26.1,26.1,0,0,1,10.23,13.81H394.2a13.91,13.91,0,0,0-5.61-6.24,16.46,16.46,0,0,0-8.36-2.08,17.19,17.19,0,0,0-9,2.37,16.16,16.16,0,0,0-6.15,6.7,24.3,24.3,0,0,0,0,20.25,16.21,16.21,0,0,0,6.15,6.74,17.19,17.19,0,0,0,9,2.37,16.19,16.19,0,0,0,8.36-2.13A14.1,14.1,0,0,0,394.2,172h13.39a25.92,25.92,0,0,1-10.19,13.84,29.65,29.65,0,0,1-17.09,4.95,30,30,0,0,1-15-3.78,27.67,27.67,0,0,1-10.57-10.52,32.35,32.35,0,0,1,0-30.65"/><path class="cls-1" d="M426.05,188.11a21.27,21.27,0,0,1-8.36-8.36,25.06,25.06,0,0,1-3-12.47,24.5,24.5,0,0,1,3.12-12.48,21.73,21.73,0,0,1,8.52-8.36,26.13,26.13,0,0,1,24.12,0A21.69,21.69,0,0,1,459,154.8a24.5,24.5,0,0,1,3.12,12.48,23.94,23.94,0,0,1-3.21,12.47,22.06,22.06,0,0,1-8.65,8.36A25.11,25.11,0,0,1,438,191.06a24.26,24.26,0,0,1-12-2.95M444,179.38a11.28,11.28,0,0,0,4.45-4.62,15.63,15.63,0,0,0,1.66-7.48c0-4.39-1.15-7.75-3.45-10.11a11.38,11.38,0,0,0-8.44-3.54,11.1,11.1,0,0,0-8.36,3.54c-2.25,2.36-3.37,5.72-3.37,10.11s1.09,7.74,3.28,10.1a10.83,10.83,0,0,0,8.28,3.54,12.19,12.19,0,0,0,6-1.54"/><path class="cls-1" d="M509.48,148.77q5.07,5.19,5.07,14.51v27H502.9V164.86q0-5.49-2.74-8.44a9.72,9.72,0,0,0-7.49-2.95,9.93,9.93,0,0,0-7.6,2.95c-1.87,2-2.79,4.78-2.79,8.44v25.45H470.63V144.24h11.65V150a16,16,0,0,1,5.94-4.69,18.39,18.39,0,0,1,7.95-1.71q8.24,0,13.31,5.2"/><path class="cls-1" d="M533.1,189a17.86,17.86,0,0,1-7.12-5.53,14,14,0,0,1-2.86-7.73h11.72a6.42,6.42,0,0,0,2.62,4.41,9.14,9.14,0,0,0,5.7,1.74,8.83,8.83,0,0,0,5.2-1.33,4,4,0,0,0,1.87-3.41,3.6,3.6,0,0,0-2.29-3.37,43.94,43.94,0,0,0-7.28-2.45,60.87,60.87,0,0,1-8.44-2.58,14.67,14.67,0,0,1-5.65-4.08,10.91,10.91,0,0,1-2.37-7.4,11.92,11.92,0,0,1,2.2-7,14.8,14.8,0,0,1,6.32-5,23.73,23.73,0,0,1,9.69-1.83q8.24,0,13.14,4.11A15.27,15.27,0,0,1,561,158.71H549.81a6,6,0,0,0-2.28-4.37,8.54,8.54,0,0,0-5.45-1.62,8.65,8.65,0,0,0-4.87,1.16,3.71,3.71,0,0,0-1.7,3.25,3.79,3.79,0,0,0,2.33,3.53,36.13,36.13,0,0,0,7.23,2.46,62,62,0,0,1,8.23,2.57,14.52,14.52,0,0,1,5.62,4.12,11.3,11.3,0,0,1,2.45,7.36,12.18,12.18,0,0,1-2.2,7.15,14.6,14.6,0,0,1-6.32,5A26.51,26.51,0,0,1,533.1,189"/><path class="cls-1" d="M614.44,144.24v46.07H602.71v-5.82a15.26,15.26,0,0,1-5.87,4.7A18.13,18.13,0,0,1,589,190.9a19.47,19.47,0,0,1-9.57-2.29,16.16,16.16,0,0,1-6.53-6.74,22.24,22.24,0,0,1-2.37-10.6v-27h11.64V169.6c0,3.66.92,6.48,2.75,8.44a9.73,9.73,0,0,0,7.49,3,9.85,9.85,0,0,0,7.57-3c1.83-2,2.74-4.78,2.74-8.44V144.24Z"/><rect class="cls-1" x="625.92" y="128.77" width="11.64" height="61.55"/><path class="cls-1" d="M662.59,153.8v22.29a4.43,4.43,0,0,0,1.12,3.37,5.51,5.51,0,0,0,3.79,1h5.41v9.81h-7.32q-14.73,0-14.72-14.3V153.8h-5.49v-9.56h5.49v-11.4h11.72v11.4h10.32v9.56Z"/><path class="cls-1" d="M689.79,188.11a21.21,21.21,0,0,1-8.36-8.36,25.06,25.06,0,0,1-3-12.47,24.49,24.49,0,0,1,3.11-12.48,21.69,21.69,0,0,1,8.53-8.36,26.13,26.13,0,0,1,24.12,0,21.73,21.73,0,0,1,8.52,8.36,24.5,24.5,0,0,1,3.12,12.48,23.94,23.94,0,0,1-3.2,12.47,22.2,22.2,0,0,1-8.65,8.36,25.11,25.11,0,0,1-12.18,2.95,24.26,24.26,0,0,1-12-2.95m17.92-8.73a11.22,11.22,0,0,0,4.45-4.62,15.51,15.51,0,0,0,1.67-7.48c0-4.39-1.16-7.75-3.46-10.11a11.36,11.36,0,0,0-8.44-3.54,11.11,11.11,0,0,0-8.36,3.54c-2.24,2.36-3.37,5.72-3.37,10.11s1.1,7.74,3.29,10.1a10.81,10.81,0,0,0,8.28,3.54,12.12,12.12,0,0,0,5.94-1.54"/><path class="cls-1" d="M751.88,145.65a16.36,16.36,0,0,1,8.27-2.08V155.8h-3.08q-5.48,0-8.27,2.57c-1.86,1.73-2.79,4.72-2.79,9v22.95H734.37V144.24H746v7.15a16.46,16.46,0,0,1,5.87-5.74"/><path class="cls-1" d="M768.76,136.79a6.82,6.82,0,0,1,0-9.73,7.68,7.68,0,0,1,10.23,0,6.82,6.82,0,0,1,0,9.73,7.65,7.65,0,0,1-10.23,0m10.85,53.52H768V144.23h11.64Z"/><path class="cls-1" d="M799.58,188.11a21.21,21.21,0,0,1-8.36-8.36,25,25,0,0,1-3-12.47,24.5,24.5,0,0,1,3.12-12.48,21.73,21.73,0,0,1,8.52-8.36,26.15,26.15,0,0,1,24.13,0,21.73,21.73,0,0,1,8.52,8.36,24.5,24.5,0,0,1,3.12,12.48,24,24,0,0,1-3.2,12.47,22.2,22.2,0,0,1-8.65,8.36,25.18,25.18,0,0,1-12.19,2.95,24.22,24.22,0,0,1-12-2.95m17.92-8.73a11.22,11.22,0,0,0,4.45-4.62,15.51,15.51,0,0,0,1.66-7.48c0-4.39-1.15-7.75-3.45-10.11a11.36,11.36,0,0,0-8.44-3.54,11.11,11.11,0,0,0-8.36,3.54c-2.25,2.36-3.37,5.72-3.37,10.11s1.09,7.74,3.29,10.1a10.79,10.79,0,0,0,8.27,3.54,12.19,12.19,0,0,0,6-1.54"/><path class="cls-1" d="M387.55,205.53v40.76q0,8.47-4.91,13.18c-3.27,3.14-7.66,4.7-13.14,4.7s-10-1.61-13.44-4.82S351,251.64,351,245.87H362.6a9.25,9.25,0,0,0,1.78,5.83,6.05,6.05,0,0,0,4.95,2.07,5.91,5.91,0,0,0,4.82-2,8.31,8.31,0,0,0,1.67-5.49V205.53Z"/><path class="cls-1" d="M444.6,217.51v46.08H432.87v-5.82a15.3,15.3,0,0,1-5.86,4.69,18.15,18.15,0,0,1-7.86,1.71,19.45,19.45,0,0,1-9.56-2.29,16.07,16.07,0,0,1-6.53-6.73,22.28,22.28,0,0,1-2.37-10.61v-27h11.64v25.37c0,3.66.92,6.48,2.75,8.44a9.71,9.71,0,0,0,7.48,3,9.82,9.82,0,0,0,7.57-3c1.83-2,2.74-4.78,2.74-8.44V217.51Z"/><path class="cls-1" d="M473.59,218.93a16.26,16.26,0,0,1,8.27-2.08v12.22h-3.08q-5.49,0-8.27,2.58c-1.86,1.72-2.79,4.72-2.79,9v23H456.08V217.51h11.64v7.16a16.38,16.38,0,0,1,5.87-5.74"/><path class="cls-1" d="M505.07,205.54l-19.13,8.73V206l19.13-9.9Zm-3.25,58H490.18V217.51h11.64Z"/><path class="cls-1" d="M513.59,228a20.08,20.08,0,0,1,18.34-11.23,19.52,19.52,0,0,1,8.57,2,17,17,0,0,1,6.48,5.2V202H558.8v61.55H547v-6.82a15.79,15.79,0,0,1-6.07,5.49,19.07,19.07,0,0,1-9.06,2.08,19.79,19.79,0,0,1-10.65-3,20.81,20.81,0,0,1-7.61-8.44,27.07,27.07,0,0,1-2.79-12.52A26.64,26.64,0,0,1,513.59,228m31.81,5.28a11.7,11.7,0,0,0-4.49-4.65,11.91,11.91,0,0,0-6.07-1.63,11.74,11.74,0,0,0-10.44,6.2,14.51,14.51,0,0,0-1.7,7.19,15,15,0,0,0,1.7,7.28,12.35,12.35,0,0,0,4.49,4.78,11.42,11.42,0,0,0,6,1.67,12,12,0,0,0,6.07-1.62,11.72,11.72,0,0,0,4.49-4.66,16.7,16.7,0,0,0,0-14.56"/><path class="cls-1" d="M571,210.07a6.82,6.82,0,0,1,0-9.73,7.65,7.65,0,0,1,10.23,0,6.82,6.82,0,0,1,0,9.73,7.68,7.68,0,0,1-10.23,0m10.85,53.52H570.19V217.51h11.64Z"/><path class="cls-1" d="M593.23,228.37a21.14,21.14,0,0,1,8.06-8.56,22.81,22.81,0,0,1,11.82-3q8.55,0,14.18,4.4a21.62,21.62,0,0,1,7.53,12.38H622.26a9.44,9.44,0,0,0-3.37-4.83,10.4,10.4,0,0,0-13.77,2q-2.91,3.72-2.91,10.57c0,4.52,1,8,2.91,10.5a9.49,9.49,0,0,0,7.9,3.72c4.71,0,7.79-2.16,9.24-6.51h12.56a22,22,0,0,1-7.57,12.25q-5.65,4.54-14.14,4.55a22.82,22.82,0,0,1-11.82-3,21.14,21.14,0,0,1-8.06-8.56,30,30,0,0,1,0-25.79"/><path class="cls-1" d="M651.87,261.39A21.3,21.3,0,0,1,643.5,253a25.1,25.1,0,0,1-3-12.48,24.48,24.48,0,0,1,3.12-12.47,21.69,21.69,0,0,1,8.52-8.37,26.15,26.15,0,0,1,24.13,0,21.69,21.69,0,0,1,8.52,8.37,24.48,24.48,0,0,1,3.12,12.47,24.07,24.07,0,0,1-3.2,12.48,22.22,22.22,0,0,1-8.66,8.36,25.11,25.11,0,0,1-12.18,2.95,24.19,24.19,0,0,1-12-2.95m17.92-8.74a11.13,11.13,0,0,0,4.45-4.61,15.67,15.67,0,0,0,1.66-7.49q0-6.57-3.45-10.1a11.34,11.34,0,0,0-8.44-3.54,11.08,11.08,0,0,0-8.36,3.54q-3.37,3.53-3.37,10.1t3.28,10.11a10.86,10.86,0,0,0,8.28,3.53,12.08,12.08,0,0,0,5.95-1.54"/><path class="cls-2" d="M269.63,305.41c-1.42,1.52-2.86,3-4.37,4.55l-95.32,95.33L74.61,310A134,134,0,0,1,45,265.5l31.13-31.13,73.76,73.75,11.56-11.56L156.93,292l9.87-9.87-3.38-3.37L203.19,239Z"/><path class="cls-3" d="M220.62,99.1l-9.9,9.86,3.38,3.38L105.58,220.86l-3.38-3.35-9.86,9.87-4.59-4.59L76.17,234.38,45,265.51A134.88,134.88,0,0,1,220.78,89.77L216,94.51Z"/><path class="cls-2" d="M304.73,214.64a134.79,134.79,0,0,1-12.06,55.8L232.2,210l39.74-39.74,3.38,3.38,9.89-9.9,4.59,4.59,4.85-4.88a134.73,134.73,0,0,1,10.08,51.24"/></svg>