<?xml version="1.0" encoding="utf-8"?>
<!-- Generator: Adobe Illustrator 24.2.0, SVG Export Plug-In . SVG Version: 6.00 Build 0)  -->
<svg version="1.1" xmlns="http://www.w3.org/2000/svg" xmlns:xlink="http://www.w3.org/1999/xlink" x="0px" y="0px"
	 viewBox="0 0 886.03 291.89" style="enable-background:new 0 0 886.03 291.89;" xml:space="preserve">
<style type="text/css">
	.st0{fill:#FFFFFF;}
	.st1{clip-path:url(#SVGID_2_);}
	.st2{clip-path:url(#SVGID_4_);fill:#F4981A;}
	.st3{clip-path:url(#SVGID_4_);fill:#254763;}
	.st4{clip-path:url(#SVGID_4_);fill:#082F43;}
	.st5{clip-path:url(#SVGID_4_);fill:#28285B;}
	.st6{clip-path:url(#SVGID_4_);fill:#808081;}
	.st7{clip-path:url(#SVGID_6_);fill:#F4981A;}
	.st8{clip-path:url(#SVGID_8_);fill:#254763;}
	.st9{clip-path:url(#SVGID_10_);fill:#254763;}
	.st10{clip-path:url(#SVGID_10_);fill:#EA572B;}
	.st11{clip-path:url(#SVGID_12_);fill:#F4981A;}
	.st12{clip-path:url(#SVGID_12_);fill:#254763;}
	.st13{clip-path:url(#SVGID_14_);fill:#F4981A;}
	.st14{clip-path:url(#SVGID_16_);fill:#254763;}
	.st15{clip-path:url(#SVGID_18_);fill:url(#SVGID_19_);}
	.st16{clip-path:url(#SVGID_21_);fill:url(#SVGID_22_);}
	.st17{clip-path:url(#SVGID_24_);fill:url(#SVGID_25_);}
	.st18{clip-path:url(#SVGID_27_);fill:url(#SVGID_28_);}
	.st19{clip-path:url(#SVGID_30_);fill:#254763;}
	.st20{clip-path:url(#SVGID_30_);fill:#F4981A;}
	.st21{clip-path:url(#SVGID_32_);fill:#082F43;}
	.st22{clip-path:url(#SVGID_32_);fill:#28285B;}
	.st23{clip-path:url(#SVGID_32_);fill:#808081;}
	.st24{clip-path:url(#SVGID_32_);fill:#F4981A;}
	.st25{fill:#F4981A;}
	.st26{fill:#254763;}
	.st27{clip-path:url(#SVGID_34_);fill:url(#SVGID_35_);}
	.st28{fill:#1D3347;}
	.st29{clip-path:url(#SVGID_37_);}
	.st30{clip-path:url(#SVGID_37_);fill:#FFFFFF;}
	.st31{clip-path:url(#SVGID_39_);fill:#0B2E43;}
	.st32{clip-path:url(#SVGID_39_);fill:#FFFFFF;}
	.st33{clip-path:url(#SVGID_39_);fill:#EF7D17;}
	.st34{clip-path:url(#SVGID_39_);fill:#F49818;}
	.st35{clip-path:url(#SVGID_39_);fill:#989898;}
	.st36{clip-path:url(#SVGID_39_);fill:#264763;}
	.st37{clip-path:url(#SVGID_41_);fill:url(#SVGID_42_);}
	.st38{clip-path:url(#SVGID_44_);fill:#FFFFFF;}
	.st39{clip-path:url(#SVGID_44_);fill:#264763;}
	.st40{clip-path:url(#SVGID_46_);}
	.st41{clip-path:url(#SVGID_48_);fill:url(#SVGID_49_);}
	.st42{clip-path:url(#SVGID_51_);fill:#0B2E43;}
	.st43{clip-path:url(#SVGID_51_);fill:#989898;}
	.st44{clip-path:url(#SVGID_51_);fill:#EE7D16;}
	.st45{clip-path:url(#SVGID_51_);fill:#1D3247;}
	.st46{clip-path:url(#SVGID_51_);fill:#F4981A;}
	.st47{clip-path:url(#SVGID_51_);fill:#082F43;}
	.st48{clip-path:url(#SVGID_51_);fill:#28285B;}
	.st49{clip-path:url(#SVGID_51_);fill:#808081;}
	.st50{clip-path:url(#SVGID_51_);fill:#254763;}
	.st51{clip-path:url(#SVGID_53_);}
	.st52{clip-path:url(#SVGID_55_);fill:#254763;}
	.st53{clip-path:url(#SVGID_55_);fill:#356180;}
	.st54{clip-path:url(#SVGID_55_);fill:#F4981A;}
	.st55{clip-path:url(#SVGID_55_);fill:#1D3347;}
	.st56{clip-path:url(#SVGID_55_);fill:#9F9F9F;}
	.st57{clip-path:url(#SVGID_55_);fill:#EE7D16;}
	.st58{clip-path:url(#SVGID_55_);fill:#082F43;}
	.st59{clip-path:url(#SVGID_55_);fill:#28285B;}
	.st60{clip-path:url(#SVGID_55_);fill:#808081;}
	.st61{clip-path:url(#SVGID_57_);}
	.st62{clip-path:url(#SVGID_59_);fill:#F4981A;}
	.st63{clip-path:url(#SVGID_59_);fill:#254763;}
	.st64{clip-path:url(#SVGID_59_);fill:#082F43;}
	.st65{clip-path:url(#SVGID_59_);fill:#28285B;}
	.st66{clip-path:url(#SVGID_59_);fill:#808081;}
	.st67{clip-path:url(#SVGID_61_);fill:#F4981A;}
	.st68{clip-path:url(#SVGID_63_);fill:#254763;}
	.st69{clip-path:url(#SVGID_65_);fill:#254763;}
	.st70{clip-path:url(#SVGID_65_);fill:#EA572B;}
	.st71{clip-path:url(#SVGID_67_);fill:#F4981A;}
	.st72{clip-path:url(#SVGID_67_);fill:#254763;}
	.st73{clip-path:url(#SVGID_69_);fill:#F4981A;}
	.st74{clip-path:url(#SVGID_71_);fill:#254763;}
	.st75{clip-path:url(#SVGID_73_);fill:url(#SVGID_74_);}
	.st76{clip-path:url(#SVGID_76_);fill:url(#SVGID_77_);}
	.st77{clip-path:url(#SVGID_79_);fill:url(#SVGID_80_);}
	.st78{clip-path:url(#SVGID_82_);fill:url(#SVGID_83_);}
	.st79{clip-path:url(#SVGID_85_);}
	.st80{clip-path:url(#SVGID_87_);fill:#254763;}
	.st81{clip-path:url(#SVGID_87_);fill:#F4981A;}
	.st82{clip-path:url(#SVGID_89_);fill:#082F43;}
	.st83{clip-path:url(#SVGID_89_);fill:#28285B;}
	.st84{clip-path:url(#SVGID_89_);fill:#808081;}
	.st85{clip-path:url(#SVGID_89_);fill:#F4981A;}
	.st86{clip-path:url(#SVGID_91_);fill:#F4981A;}
	.st87{clip-path:url(#SVGID_91_);fill:#254763;}
	.st88{clip-path:url(#SVGID_93_);fill:#254763;}
	.st89{clip-path:url(#SVGID_95_);fill:#EA572B;}
	.st90{clip-path:url(#SVGID_97_);fill:#254763;}
	.st91{clip-path:url(#SVGID_97_);fill:#F4981A;}
	.st92{clip-path:url(#SVGID_99_);fill:#F4981A;}
	.st93{clip-path:url(#SVGID_101_);fill:#254763;}
	.st94{clip-path:url(#SVGID_103_);fill:url(#SVGID_104_);}
	.st95{clip-path:url(#SVGID_106_);fill:#1D3347;}
	.st96{clip-path:url(#SVGID_108_);fill:#FFFFFF;}
	.st97{clip-path:url(#SVGID_108_);}
	.st98{clip-path:url(#SVGID_110_);fill:#0B2E43;}
	.st99{clip-path:url(#SVGID_110_);fill:#FFFFFF;}
	.st100{clip-path:url(#SVGID_110_);fill:#EF7D17;}
	.st101{clip-path:url(#SVGID_110_);fill:#F49818;}
	.st102{clip-path:url(#SVGID_110_);fill:#989898;}
	.st103{clip-path:url(#SVGID_110_);fill:#264763;}
	.st104{clip-path:url(#SVGID_112_);fill:url(#SVGID_113_);}
	.st105{clip-path:url(#SVGID_115_);fill:#FFFFFF;}
	.st106{clip-path:url(#SVGID_115_);fill:#264763;}
	.st107{clip-path:url(#SVGID_117_);}
	.st108{clip-path:url(#SVGID_119_);fill:#FFFFFF;}
	.st109{clip-path:url(#SVGID_119_);}
	.st110{clip-path:url(#SVGID_121_);fill:#0B2E43;}
	.st111{clip-path:url(#SVGID_121_);fill:#FFFFFF;}
	.st112{clip-path:url(#SVGID_121_);fill:#EF7D17;}
	.st113{clip-path:url(#SVGID_121_);fill:#F49818;}
	.st114{clip-path:url(#SVGID_121_);fill:#989898;}
	.st115{clip-path:url(#SVGID_121_);fill:#264763;}
	.st116{clip-path:url(#SVGID_123_);fill:url(#SVGID_124_);}
	.st117{clip-path:url(#SVGID_126_);fill:#FFFFFF;}
	.st118{clip-path:url(#SVGID_126_);fill:#264763;}
	.st119{clip-path:url(#SVGID_128_);}
	.st120{clip-path:url(#SVGID_130_);fill:#FFFFFF;}
	.st121{clip-path:url(#SVGID_130_);}
	.st122{clip-path:url(#SVGID_132_);fill:#0B2E43;}
	.st123{clip-path:url(#SVGID_132_);fill:#FFFFFF;}
	.st124{clip-path:url(#SVGID_132_);fill:#EF7D17;}
	.st125{clip-path:url(#SVGID_132_);fill:#F49818;}
	.st126{clip-path:url(#SVGID_132_);fill:#989898;}
	.st127{clip-path:url(#SVGID_132_);fill:#264763;}
	.st128{clip-path:url(#SVGID_134_);fill:url(#SVGID_135_);}
	.st129{clip-path:url(#SVGID_137_);fill:#FFFFFF;}
	.st130{clip-path:url(#SVGID_137_);fill:#264763;}
	.st131{fill:#0B2E43;}
	.st132{fill:#EF7D17;}
	.st133{fill:#F49818;}
	.st134{fill:#989898;}
	.st135{fill:#264763;}
	.st136{clip-path:url(#SVGID_139_);fill:url(#SVGID_140_);}
	.st137{opacity:0.92;}
	.st138{fill:#F49940;}
	.st139{fill:#102B42;}
	.st140{fill:#244762;}
	.st141{fill:#0A0A0A;stroke:#000000;stroke-miterlimit:10;}
	.st142{fill:none;stroke:#000000;stroke-miterlimit:10;}
	.st143{fill:#FFFFFF;stroke:#FFFFFF;stroke-miterlimit:10;}
	.st144{clip-path:url(#SVGID_142_);}
	.st145{fill:none;stroke:#FFFFFF;stroke-width:3;stroke-miterlimit:10;}
	.st146{clip-path:url(#SVGID_144_);}
	.st147{fill:#BF4C26;}
	.st148{fill:#F0E1C1;}
	.st149{fill:#2B2E34;}
	.st150{fill:#494441;}
	.st151{fill:#F59B25;}
	.st152{fill:#07B5C2;}
	.st153{fill:#5A4D9B;}
	.st154{fill:#A3C739;}
	.st155{fill:#515767;}
	.st156{fill:none;stroke:#FFFFFF;stroke-miterlimit:10;}
	.st157{fill:none;}
	.st158{fill:#616160;}
</style>
<g id="Capa_1">
	<g>
		<path class="st0" d="M626.37,182.63c0,4.85-1.92,8.68-5.75,11.49c-3.42,2.47-7.66,3.71-12.71,3.71c-5.11,0-9.35-1.24-12.71-3.71
			c-3.79-2.75-5.69-6.59-5.69-11.49v-31.3h14.63v30.09c0,2.38,1.26,3.57,3.77,3.57c2.56,0,3.84-1.19,3.84-3.57v-30.09h14.63V182.63z
			"/>
		<polygon class="st0" points="671.65,197.38 657.03,197.38 643.41,176.24 643.41,197.38 628.79,197.38 628.79,151.34 
			642.46,151.34 657.03,173.49 657.03,151.34 671.65,151.34 		"/>
		<polygon class="st0" points="703.84,197.38 674.47,197.38 674.47,151.34 703.84,151.34 703.84,162.83 689.09,162.83 
			689.09,168.77 703.08,168.77 703.08,180.26 689.09,180.26 689.09,185.83 703.84,185.83 		"/>
		<polygon class="st0" points="763.36,197.38 748.67,197.38 744.98,174.07 738.98,197.38 730.66,197.38 724.08,174.07 
			720.12,197.38 705.44,197.38 714,151.34 729.01,151.34 734.56,171.64 740.32,151.34 755.07,151.34 		"/>
		<rect x="765.67" y="151.34" class="st0" width="14.69" height="46.04"/>
		<path class="st0" d="M587.31,93.38c1.01-1.78,2.4-3.17,4.16-4.16c1.76-0.99,3.73-1.49,5.91-1.49c2.55,0,4.79,0.65,6.71,1.97
			c1.92,1.31,3.26,3.12,4.03,5.44h-5.27c-0.52-1.09-1.26-1.91-2.21-2.46c-0.95-0.55-2.05-0.82-3.29-0.82
			c-1.33,0-2.52,0.31-3.55,0.93c-1.04,0.62-1.84,1.5-2.42,2.64c-0.58,1.14-0.87,2.47-0.87,4c0,1.51,0.29,2.83,0.87,3.98
			c0.58,1.15,1.39,2.03,2.42,2.65c1.04,0.62,2.22,0.93,3.55,0.93c1.24,0,2.34-0.28,3.29-0.84c0.95-0.56,1.69-1.38,2.21-2.47h5.27
			c-0.76,2.34-2.1,4.15-4.01,5.45c-1.91,1.3-4.15,1.95-6.73,1.95c-2.18,0-4.15-0.5-5.91-1.49c-1.76-0.99-3.14-2.37-4.16-4.14
			c-1.01-1.77-1.52-3.78-1.52-6.03C585.79,97.17,586.3,95.16,587.31,93.38"/>
		<path class="st0" d="M615.39,110.02c-1.4-0.78-2.49-1.87-3.29-3.29c-0.8-1.42-1.19-3.06-1.19-4.91s0.41-3.49,1.23-4.91
			c0.82-1.42,1.94-2.52,3.36-3.29c1.42-0.77,3-1.16,4.75-1.16c1.75,0,3.33,0.39,4.75,1.16c1.42,0.78,2.54,1.87,3.36,3.29
			c0.82,1.42,1.23,3.06,1.23,4.91s-0.42,3.49-1.26,4.91c-0.84,1.42-1.98,2.52-3.41,3.29c-1.43,0.78-3.03,1.16-4.8,1.16
			C618.36,111.18,616.79,110.79,615.39,110.02 M622.45,106.58c0.73-0.4,1.32-1.01,1.75-1.82c0.44-0.81,0.65-1.79,0.65-2.95
			c0-1.73-0.45-3.05-1.36-3.98c-0.91-0.93-2.01-1.39-3.32-1.39c-1.31,0-2.41,0.47-3.29,1.39c-0.88,0.93-1.33,2.25-1.33,3.98
			c0,1.72,0.43,3.05,1.29,3.98c0.86,0.93,1.95,1.39,3.26,1.39C620.94,107.18,621.72,106.98,622.45,106.58"/>
		<path class="st0" d="M648.24,94.53c1.33,1.36,2,3.27,2,5.71v10.64h-4.58v-10.02c0-1.44-0.36-2.55-1.08-3.32
			c-0.72-0.78-1.7-1.16-2.95-1.16c-1.27,0-2.27,0.39-3,1.16c-0.73,0.78-1.1,1.88-1.1,3.32v10.02h-4.59V92.74h4.59V95
			c0.61-0.79,1.39-1.4,2.34-1.85c0.95-0.45,1.99-0.67,3.13-0.67C645.16,92.48,646.91,93.16,648.24,94.53"/>
		<path class="st0" d="M657.54,110.38c-1.18-0.53-2.11-1.26-2.8-2.18c-0.69-0.92-1.06-1.93-1.13-3.04h4.62
			c0.09,0.7,0.43,1.28,1.03,1.74c0.6,0.46,1.35,0.69,2.24,0.69c0.87,0,1.56-0.17,2.05-0.52c0.49-0.35,0.74-0.8,0.74-1.34
			c0-0.59-0.3-1.03-0.9-1.33c-0.6-0.29-1.56-0.62-2.87-0.97c-1.35-0.33-2.46-0.67-3.32-1.01c-0.86-0.35-1.61-0.88-2.23-1.61
			c-0.62-0.72-0.93-1.69-0.93-2.91c0-1,0.29-1.92,0.87-2.75c0.58-0.83,1.41-1.48,2.49-1.97c1.08-0.48,2.35-0.72,3.82-0.72
			c2.16,0,3.89,0.54,5.17,1.62c1.29,1.08,2,2.54,2.13,4.37h-4.39c-0.07-0.72-0.36-1.29-0.9-1.72c-0.54-0.43-1.25-0.64-2.15-0.64
			c-0.83,0-1.47,0.15-1.92,0.46c-0.45,0.31-0.67,0.73-0.67,1.28c0,0.61,0.31,1.07,0.92,1.39c0.61,0.32,1.56,0.64,2.85,0.97
			c1.31,0.33,2.39,0.67,3.24,1.01c0.85,0.35,1.59,0.89,2.21,1.62c0.62,0.73,0.94,1.7,0.97,2.9c0,1.05-0.29,1.99-0.87,2.82
			c-0.58,0.83-1.41,1.48-2.49,1.95c-1.08,0.47-2.34,0.7-3.78,0.7C660.05,111.18,658.72,110.91,657.54,110.38"/>
		<path class="st0" d="M689.57,92.74v18.14h-4.62v-2.29c-0.59,0.79-1.36,1.4-2.31,1.85c-0.95,0.45-1.98,0.67-3.09,0.67
			c-1.42,0-2.67-0.3-3.76-0.9c-1.09-0.6-1.95-1.48-2.57-2.65c-0.62-1.17-0.93-2.56-0.93-4.18V92.74h4.58v9.99
			c0,1.44,0.36,2.55,1.08,3.32c0.72,0.78,1.7,1.16,2.95,1.16c1.27,0,2.26-0.39,2.98-1.16c0.72-0.77,1.08-1.88,1.08-3.32v-9.99
			H689.57z"/>
		<rect x="694.09" y="86.65" class="st0" width="4.58" height="24.23"/>
		<path class="st0" d="M708.53,96.51v8.78c0,0.61,0.15,1.05,0.44,1.33c0.3,0.27,0.79,0.41,1.49,0.41h2.13v3.86h-2.88
			c-3.87,0-5.8-1.88-5.8-5.63v-8.74h-2.16v-3.77h2.16v-4.49h4.62v4.49h4.06v3.77H708.53z"/>
		<path class="st0" d="M719.24,110.02c-1.4-0.78-2.49-1.87-3.29-3.29c-0.8-1.42-1.19-3.06-1.19-4.91s0.41-3.49,1.23-4.91
			c0.82-1.42,1.94-2.52,3.36-3.29c1.42-0.77,3-1.16,4.75-1.16c1.75,0,3.33,0.39,4.75,1.16c1.42,0.78,2.54,1.87,3.36,3.29
			c0.82,1.42,1.23,3.06,1.23,4.91s-0.42,3.49-1.26,4.91c-0.84,1.42-1.98,2.52-3.41,3.29c-1.43,0.78-3.03,1.16-4.8,1.16
			C722.2,111.18,720.63,110.79,719.24,110.02 M726.29,106.58c0.73-0.4,1.32-1.01,1.75-1.82c0.44-0.81,0.65-1.79,0.65-2.95
			c0-1.73-0.45-3.05-1.36-3.98c-0.91-0.93-2.01-1.39-3.32-1.39c-1.31,0-2.41,0.47-3.29,1.39c-0.88,0.93-1.33,2.25-1.33,3.98
			c0,1.72,0.43,3.05,1.29,3.98c0.86,0.93,1.95,1.39,3.26,1.39C724.78,107.18,725.56,106.98,726.29,106.58"/>
		<path class="st0" d="M743.68,93.3c0.95-0.54,2.04-0.82,3.26-0.82v4.81h-1.21c-1.44,0-2.53,0.34-3.26,1.01
			c-0.73,0.68-1.1,1.86-1.1,3.54v9.04h-4.59V92.74h4.59v2.82C741.96,94.6,742.73,93.85,743.68,93.3"/>
		<path class="st0" d="M750.33,89.81c-0.54-0.51-0.8-1.15-0.8-1.92c0-0.76,0.27-1.4,0.8-1.92c0.54-0.51,1.21-0.77,2.01-0.77
			c0.81,0,1.48,0.26,2.01,0.77c0.54,0.51,0.8,1.15,0.8,1.92c0,0.77-0.27,1.4-0.8,1.92c-0.54,0.51-1.21,0.77-2.01,0.77
			C751.53,90.58,750.86,90.32,750.33,89.81 M754.6,110.88h-4.59V92.74h4.59V110.88z"/>
		<path class="st0" d="M762.46,110.02c-1.4-0.78-2.49-1.87-3.29-3.29c-0.8-1.42-1.19-3.06-1.19-4.91s0.41-3.49,1.23-4.91
			c0.82-1.42,1.94-2.52,3.36-3.29c1.42-0.77,3-1.16,4.75-1.16c1.75,0,3.33,0.39,4.75,1.16c1.42,0.78,2.54,1.87,3.36,3.29
			c0.82,1.42,1.23,3.06,1.23,4.91s-0.42,3.49-1.26,4.91c-0.84,1.42-1.98,2.52-3.41,3.29c-1.43,0.78-3.03,1.16-4.8,1.16
			C765.43,111.18,763.86,110.79,762.46,110.02 M769.52,106.58c0.73-0.4,1.32-1.01,1.75-1.82c0.44-0.81,0.65-1.79,0.65-2.95
			c0-1.73-0.45-3.05-1.36-3.98c-0.91-0.93-2.01-1.39-3.32-1.39c-1.31,0-2.41,0.47-3.29,1.39c-0.88,0.93-1.33,2.25-1.33,3.98
			c0,1.72,0.43,3.05,1.29,3.98c0.86,0.93,1.95,1.39,3.26,1.39C768.01,107.18,768.79,106.98,769.52,106.58"/>
		<path class="st0" d="M600.23,120.08v16.05c0,2.23-0.64,3.96-1.93,5.19c-1.29,1.23-3.01,1.85-5.17,1.85c-2.18,0-3.94-0.63-5.29-1.9
			c-1.34-1.27-2.01-3.03-2.01-5.3h4.59c0.02,0.98,0.26,1.75,0.7,2.29c0.45,0.55,1.1,0.82,1.95,0.82c0.83,0,1.46-0.26,1.9-0.78
			c0.44-0.52,0.66-1.24,0.66-2.16v-16.05H600.23z"/>
		<path class="st0" d="M622.7,124.8v18.14h-4.62v-2.29c-0.59,0.79-1.36,1.4-2.31,1.85c-0.95,0.45-1.98,0.67-3.09,0.67
			c-1.42,0-2.67-0.3-3.76-0.9c-1.09-0.6-1.95-1.48-2.57-2.65c-0.62-1.17-0.93-2.56-0.93-4.18V124.8h4.58v9.99
			c0,1.44,0.36,2.55,1.08,3.32c0.72,0.78,1.7,1.16,2.95,1.16c1.27,0,2.26-0.39,2.98-1.16c0.72-0.77,1.08-1.88,1.08-3.32v-9.99H622.7
			z"/>
		<path class="st0" d="M634.11,125.36c0.95-0.54,2.04-0.82,3.26-0.82v4.81h-1.21c-1.44,0-2.53,0.34-3.26,1.01
			c-0.73,0.68-1.1,1.86-1.1,3.54v9.04h-4.59V124.8h4.59v2.82C632.39,126.66,633.16,125.9,634.11,125.36"/>
		<path class="st0" d="M646.5,120.08l-7.53,3.44v-3.27l7.53-3.9V120.08z M645.23,142.94h-4.58V124.8h4.58V142.94z"/>
		<path class="st0" d="M649.86,128.93c0.73-1.42,1.73-2.51,3-3.27c1.27-0.76,2.67-1.15,4.22-1.15c1.18,0,2.3,0.26,3.37,0.77
			c1.07,0.51,1.92,1.19,2.55,2.05v-8.61h4.65v24.23h-4.65v-2.69c-0.57,0.9-1.36,1.62-2.39,2.16c-1.03,0.55-2.22,0.82-3.57,0.82
			c-1.53,0-2.93-0.39-4.19-1.18c-1.27-0.78-2.26-1.89-3-3.32c-0.73-1.43-1.1-3.07-1.1-4.93
			C648.76,131.97,649.13,130.34,649.86,128.93 M662.39,131.01c-0.44-0.8-1.03-1.41-1.77-1.83c-0.74-0.43-1.54-0.64-2.39-0.64
			c-0.85,0-1.64,0.21-2.36,0.62c-0.72,0.41-1.3,1.02-1.75,1.82c-0.45,0.8-0.67,1.74-0.67,2.83s0.22,2.05,0.67,2.87
			c0.45,0.82,1.04,1.45,1.77,1.88c0.73,0.44,1.51,0.65,2.34,0.65c0.85,0,1.65-0.21,2.39-0.64c0.74-0.43,1.33-1.04,1.77-1.84
			c0.44-0.8,0.65-1.75,0.65-2.86C663.04,132.76,662.82,131.8,662.39,131.01"/>
		<path class="st0" d="M672.46,121.87c-0.54-0.51-0.8-1.15-0.8-1.92c0-0.76,0.27-1.4,0.8-1.92c0.53-0.51,1.21-0.77,2.01-0.77
			c0.81,0,1.48,0.26,2.01,0.77c0.53,0.51,0.8,1.15,0.8,1.92c0,0.77-0.27,1.4-0.8,1.92c-0.54,0.51-1.21,0.77-2.01,0.77
			C673.66,122.64,672.99,122.38,672.46,121.87 M676.73,142.94h-4.59V124.8h4.59V142.94z"/>
		<path class="st0" d="M681.22,129.08c0.76-1.45,1.82-2.57,3.18-3.37c1.35-0.8,2.9-1.2,4.65-1.2c2.25,0,4.11,0.58,5.58,1.74
			c1.47,1.16,2.46,2.78,2.96,4.87h-4.95c-0.26-0.81-0.7-1.45-1.33-1.9c-0.62-0.46-1.39-0.69-2.31-0.69c-1.31,0-2.35,0.49-3.11,1.47
			c-0.76,0.98-1.15,2.37-1.15,4.17c0,1.78,0.38,3.15,1.15,4.13c0.76,0.98,1.8,1.47,3.11,1.47c1.85,0,3.07-0.85,3.63-2.56h4.95
			c-0.5,2.02-1.5,3.63-2.98,4.82c-1.48,1.19-3.34,1.79-5.57,1.79c-1.75,0-3.3-0.4-4.65-1.2c-1.35-0.8-2.41-1.92-3.18-3.37
			c-0.76-1.45-1.15-3.14-1.15-5.08S680.45,130.53,681.22,129.08"/>
		<path class="st0" d="M704.3,142.07c-1.4-0.78-2.49-1.87-3.29-3.29c-0.8-1.42-1.19-3.06-1.19-4.91c0-1.86,0.41-3.49,1.23-4.91
			c0.82-1.42,1.94-2.52,3.36-3.29c1.42-0.77,3-1.16,4.75-1.16c1.75,0,3.33,0.39,4.75,1.16c1.42,0.78,2.54,1.87,3.36,3.29
			c0.82,1.42,1.23,3.06,1.23,4.91c0,1.86-0.42,3.49-1.26,4.91c-0.84,1.42-1.98,2.52-3.41,3.29c-1.43,0.78-3.03,1.16-4.8,1.16
			C707.27,143.24,705.7,142.85,704.3,142.07 M711.36,138.64c0.73-0.4,1.32-1.01,1.75-1.82c0.44-0.81,0.65-1.79,0.65-2.95
			c0-1.73-0.45-3.05-1.36-3.98c-0.91-0.93-2.01-1.39-3.32-1.39c-1.31,0-2.41,0.46-3.29,1.39c-0.88,0.93-1.33,2.25-1.33,3.98
			c0,1.72,0.43,3.05,1.29,3.98c0.86,0.93,1.95,1.39,3.26,1.39C709.85,139.24,710.63,139.04,711.36,138.64"/>
		<path class="st0" d="M558.55,165.29c-0.49,0.52-0.98,1.04-1.49,1.56l-32.6,32.6l-32.6-32.6c-4.49-4.48-7.86-9.66-10.11-15.2
			L492.39,141l25.22,25.22l3.95-3.95l-1.56-1.57l3.37-3.37l-1.16-1.15l13.6-13.6L558.55,165.29z"/>
		<path class="st0" d="M541.79,94.74l-3.38,3.37l1.16,1.15l-37.11,37.11l-1.15-1.15l-3.37,3.37l-1.57-1.57l-3.96,3.96l-10.65,10.65
			c-6.78-16.66-3.4-36.48,10.11-49.99c8.99-8.99,20.8-13.5,32.6-13.5c5.91,0,11.82,1.13,17.38,3.39l-1.62,1.62L541.79,94.74z"/>
		<path class="st0" d="M570.55,134.25c0,6.52-1.38,13.04-4.13,19.08l-20.68-20.69l13.59-13.59l1.15,1.16l3.38-3.38l1.57,1.57
			l1.66-1.67C569.41,122.32,570.55,128.29,570.55,134.25"/>
		<g>
			<path class="st0" d="M743.91,126.91c-0.51-0.96-1.22-1.69-2.12-2.19c-0.9-0.5-1.94-0.75-3.14-0.75c-1.33,0-2.5,0.31-3.53,0.92
				c-1.03,0.61-1.83,1.48-2.4,2.62c-0.58,1.13-0.87,2.44-0.87,3.92c0,1.53,0.29,2.86,0.88,3.99c0.59,1.13,1.4,2.01,2.45,2.62
				c1.05,0.61,2.26,0.92,3.65,0.92c1.71,0,3.11-0.46,4.2-1.39c1.09-0.93,1.81-2.22,2.15-3.88h-7.69v-3.5h12.12v3.99
				c-0.3,1.59-0.94,3.06-1.92,4.42c-0.98,1.35-2.25,2.44-3.8,3.25c-1.55,0.82-3.29,1.23-5.21,1.23c-2.16,0-4.11-0.5-5.85-1.49
				c-1.74-0.99-3.11-2.37-4.1-4.14c-0.99-1.77-1.49-3.77-1.49-6.02c0-2.25,0.5-4.26,1.49-6.03c0.99-1.78,2.36-3.16,4.1-4.15
				c1.74-0.99,3.68-1.49,5.82-1.49c2.52,0,4.71,0.63,6.57,1.88c1.86,1.25,3.14,3.01,3.85,5.28H743.91z"/>
			<path class="st0" d="M759.21,125.31c0.93-0.54,1.99-0.82,3.19-0.82v4.81h-1.19c-1.41,0-2.47,0.34-3.19,1.01
				c-0.72,0.68-1.07,1.85-1.07,3.53v9.03h-4.49v-18.12h4.49v2.81C757.53,126.6,758.28,125.85,759.21,125.31z"/>
			<path class="st0" d="M764.85,128.87c0.72-1.42,1.69-2.51,2.92-3.27c1.23-0.76,2.6-1.14,4.12-1.14c1.32,0,2.48,0.27,3.48,0.82
				c0.99,0.55,1.79,1.23,2.39,2.06v-2.58h4.52v18.12h-4.52v-2.65c-0.58,0.85-1.37,1.55-2.39,2.11c-1.02,0.56-2.19,0.83-3.51,0.83
				c-1.5,0-2.86-0.39-4.09-1.18c-1.23-0.78-2.2-1.89-2.92-3.32c-0.72-1.43-1.07-3.07-1.07-4.92
				C763.78,131.91,764.14,130.29,764.85,128.87z M777.11,130.95c-0.43-0.8-1-1.41-1.73-1.83c-0.73-0.43-1.51-0.64-2.34-0.64
				c-0.83,0-1.6,0.21-2.31,0.62c-0.71,0.41-1.28,1.02-1.71,1.82c-0.44,0.8-0.66,1.74-0.66,2.83c0,1.09,0.22,2.04,0.66,2.86
				c0.44,0.82,1.01,1.44,1.73,1.88c0.72,0.44,1.48,0.65,2.29,0.65c0.83,0,1.61-0.21,2.34-0.64c0.73-0.43,1.3-1.04,1.73-1.83
				c0.43-0.8,0.64-1.75,0.64-2.86C777.75,132.7,777.54,131.74,777.11,130.95z"/>
			<path class="st0" d="M791.41,128.51v8.77c0,0.61,0.14,1.05,0.43,1.32c0.29,0.27,0.77,0.41,1.46,0.41h2.08v3.86h-2.82
				c-3.78,0-5.67-1.87-5.67-5.63v-8.73h-2.12v-3.76h2.12v-4.48h4.52v4.48h3.97v3.76H791.41z"/>
			<path class="st0" d="M814.9,124.75v18.12h-4.52v-2.29c-0.58,0.78-1.33,1.4-2.26,1.85c-0.93,0.45-1.94,0.67-3.03,0.67
				c-1.39,0-2.62-0.3-3.69-0.9c-1.07-0.6-1.91-1.48-2.52-2.65c-0.61-1.17-0.91-2.56-0.91-4.17v-10.63h4.49v9.98
				c0,1.44,0.35,2.55,1.06,3.32c0.71,0.77,1.67,1.16,2.88,1.16c1.24,0,2.21-0.39,2.92-1.16c0.71-0.77,1.06-1.88,1.06-3.32v-9.98
				H814.9z"/>
			<path class="st0" d="M819.15,121.82c-0.52-0.51-0.78-1.15-0.78-1.91c0-0.76,0.26-1.4,0.78-1.91c0.52-0.51,1.18-0.77,1.97-0.77
				c0.79,0,1.45,0.26,1.97,0.77c0.52,0.51,0.79,1.15,0.79,1.91c0,0.76-0.26,1.4-0.79,1.91c-0.52,0.51-1.18,0.77-1.97,0.77
				C820.33,122.59,819.67,122.34,819.15,121.82z M823.33,124.75v18.12h-4.49v-18.12H823.33z"/>
			<path class="st0" d="M832.5,128.51v8.77c0,0.61,0.14,1.05,0.43,1.32c0.29,0.27,0.77,0.41,1.46,0.41h2.08v3.86h-2.82
				c-3.78,0-5.67-1.87-5.67-5.63v-8.73h-2.12v-3.76h2.12v-4.48h4.52v4.48h3.97v3.76H832.5z"/>
			<path class="st0" d="M842.5,142c-1.37-0.77-2.44-1.87-3.22-3.29c-0.78-1.42-1.17-3.05-1.17-4.91c0-1.85,0.4-3.49,1.2-4.91
				c0.8-1.42,1.9-2.51,3.29-3.29c1.39-0.77,2.94-1.16,4.65-1.16c1.71,0,3.26,0.39,4.65,1.16c1.39,0.77,2.48,1.87,3.29,3.29
				c0.8,1.42,1.2,3.05,1.2,4.91c0,1.85-0.41,3.49-1.23,4.91c-0.82,1.42-1.93,2.51-3.33,3.29c-1.4,0.77-2.96,1.16-4.7,1.16
				C845.41,143.16,843.87,142.78,842.5,142z M849.41,138.57c0.72-0.4,1.29-1.01,1.71-1.82c0.43-0.81,0.64-1.79,0.64-2.94
				c0-1.72-0.44-3.05-1.33-3.97c-0.89-0.93-1.97-1.39-3.25-1.39c-1.28,0-2.36,0.46-3.22,1.39c-0.87,0.93-1.3,2.25-1.3,3.97
				c0,1.72,0.42,3.05,1.27,3.97c0.84,0.93,1.91,1.39,3.19,1.39C847.93,139.17,848.69,138.97,849.41,138.57z"/>
		</g>
	</g>
	<g>
		<g>
			<path class="st0" d="M102.96,149.22c0,8.69-3.43,15.55-10.3,20.57c-6.13,4.43-13.71,6.65-22.76,6.65
				c-9.16,0-16.74-2.21-22.76-6.65c-6.79-4.93-10.19-11.79-10.19-20.57V93.18h26.19v53.88c0,4.27,2.25,6.4,6.76,6.4
				c4.58,0,6.87-2.13,6.87-6.4V93.18h26.19V149.22z"/>
			<polygon class="st0" points="184.04,175.63 157.85,175.63 133.48,137.77 133.48,175.63 107.29,175.63 107.29,93.18 131.77,93.18 
				157.85,132.86 157.85,93.18 184.04,93.18 			"/>
			<polygon class="st0" points="241.68,175.63 189.08,175.63 189.08,93.18 241.68,93.18 241.68,113.76 215.26,113.76 215.26,124.4 
				240.31,124.4 240.31,144.98 215.26,144.98 215.26,154.94 241.68,154.94 			"/>
			<polygon class="st0" points="348.25,175.63 321.95,175.63 315.34,133.89 304.59,175.63 289.71,175.63 277.92,133.89 
				270.83,175.63 244.53,175.63 259.86,93.18 286.75,93.18 296.69,129.54 306.99,93.18 333.4,93.18 			"/>
			<rect x="352.39" y="93.18" class="st0" width="26.3" height="82.45"/>
			<path class="st0" d="M38.73,185.76v8.03c0,1.63,0.81,3.73,3.29,3.73c2.48,0,3.29-2.11,3.29-3.73v-8.03h1.78v8.31
				c0,3.03-2.2,5.12-5.07,5.12c-2.87,0-5.07-2.09-5.07-5.12v-8.31H38.73z"/>
			<polygon class="st0" points="50.97,185.76 53.3,185.76 60.51,196.53 60.55,196.53 60.55,185.76 62.33,185.76 62.33,198.86 
				60.07,198.86 52.78,188.09 52.74,188.09 52.74,198.86 50.97,198.86 			"/>
			<rect x="66.44" y="185.76" class="st0" width="1.77" height="13.1"/>
			<polygon class="st0" points="70.53,185.76 72.58,185.76 76.43,196.42 76.47,196.42 80.46,185.76 82.4,185.76 77.24,198.86 
				75.58,198.86 			"/>
			<polygon class="st0" points="84.72,185.76 93.18,185.76 93.18,187.42 86.5,187.42 86.5,191.33 92.71,191.33 92.71,193 86.5,193 
				86.5,197.19 93.51,197.19 93.51,198.86 84.72,198.86 			"/>
			<path class="st0" d="M96.77,185.76h4.61c3.35,0,4.2,2.02,4.2,3.66c0,1.67-1.24,3.24-3.22,3.46l3.72,5.98h-2.22l-3.33-5.77h-1.98
				v5.77h-1.77V185.76z M98.55,191.53h2.33c1.41,0,2.81-0.33,2.81-2.11c0-1.77-1.41-2.11-2.81-2.11h-2.33V191.53z"/>
			<path class="st0" d="M109.21,196.12c0.63,0.96,1.72,1.41,2.77,1.41c1.17,0,2.61-0.74,2.61-2.19c0-3.01-6.46-1.15-6.46-6.25
				c0-1.54,1.29-3.66,4.44-3.66c1.43,0,2.79,0.3,3.77,1.5l-1.44,1.32c-0.45-0.69-1.31-1.15-2.33-1.15c-1.96,0-2.55,1.19-2.55,2
				c0,3.31,6.46,1.34,6.46,6.05c0,2.54-2.03,4.05-4.55,4.05c-1.68,0-3.29-0.57-4.18-1.81L109.21,196.12z"/>
			<rect x="119.85" y="185.76" class="st0" width="1.78" height="13.1"/>
			<path class="st0" d="M125.44,185.76h4.57c5.53,0,6.88,4.13,6.88,6.55c0,3.35-2.5,6.55-7.18,6.55h-4.27V185.76z M127.22,197.19
				h2.24c3,0,5.55-1.64,5.55-4.89c0-1.66-0.87-4.88-5.12-4.88h-2.66V197.19z"/>
			<path class="st0" d="M144.3,185.76h1.61l5.61,13.1h-2.07l-1.32-3.24h-6.23l-1.3,3.24h-2.07L144.3,185.76z M147.48,194.07
				l-2.45-6.01H145l-2.48,6.01H147.48z"/>
			<path class="st0" d="M153.67,185.76h4.57c5.53,0,6.88,4.13,6.88,6.55c0,3.35-2.5,6.55-7.18,6.55h-4.27V185.76z M155.44,197.19
				h2.24c3,0,5.55-1.64,5.55-4.89c0-1.66-0.87-4.88-5.12-4.88h-2.66V197.19z"/>
			<polygon class="st0" points="174.3,185.76 182.76,185.76 182.76,187.42 176.08,187.42 176.08,191.33 182.29,191.33 182.29,193 
				176.08,193 176.08,197.19 183.09,197.19 183.09,198.86 174.3,198.86 			"/>
			<path class="st0" d="M186.74,196.12c0.63,0.96,1.72,1.41,2.78,1.41c1.16,0,2.61-0.74,2.61-2.19c0-3.01-6.46-1.15-6.46-6.25
				c0-1.54,1.3-3.66,4.44-3.66c1.42,0,2.79,0.3,3.77,1.5l-1.44,1.32c-0.45-0.69-1.32-1.15-2.33-1.15c-1.96,0-2.55,1.19-2.55,2
				c0,3.31,6.46,1.34,6.46,6.05c0,2.54-2.03,4.05-4.55,4.05c-1.68,0-3.29-0.57-4.18-1.81L186.74,196.12z"/>
			<polygon class="st0" points="200.12,187.42 195.9,187.42 195.9,185.76 206.11,185.76 206.11,187.42 201.9,187.42 201.9,198.86 
				200.12,198.86 			"/>
			<path class="st0" d="M211.15,185.76h1.61l5.61,13.1h-2.07l-1.31-3.24h-6.24l-1.29,3.24h-2.07L211.15,185.76z M214.33,194.07
				l-2.44-6.01h-0.04l-2.48,6.01H214.33z"/>
			<polygon class="st0" points="221.85,187.42 217.63,187.42 217.63,185.76 227.84,185.76 227.84,187.42 223.62,187.42 
				223.62,198.86 221.85,198.86 			"/>
			<path class="st0" d="M232.88,185.76h1.61l5.61,13.1h-2.07l-1.31-3.24h-6.24l-1.3,3.24h-2.07L232.88,185.76z M236.06,194.07
				l-2.44-6.01h-0.04l-2.48,6.01H236.06z"/>
			<polygon class="st0" points="242.54,185.76 244.32,185.76 244.32,197.19 250.33,197.19 250.33,198.86 242.54,198.86 			"/>
			<path class="st0" d="M258.48,185.76h4.57c5.53,0,6.89,4.13,6.89,6.55c0,3.35-2.5,6.55-7.18,6.55h-4.27V185.76z M260.25,197.19
				h2.24c3,0,5.55-1.64,5.55-4.89c0-1.66-0.87-4.88-5.12-4.88h-2.66V197.19z"/>
			<polygon class="st0" points="273.23,185.76 281.68,185.76 281.68,187.42 275,187.42 275,191.33 281.22,191.33 281.22,193 
				275,193 275,197.19 282.01,197.19 282.01,198.86 273.23,198.86 			"/>
			<polygon class="st0" points="291.03,185.76 293.67,185.76 297.84,195.68 297.91,195.68 302.04,185.76 304.68,185.76 
				304.68,198.86 302.91,198.86 302.91,188.09 302.87,188.09 298.45,198.86 297.26,198.86 292.84,188.09 292.81,188.09 
				292.81,198.86 291.03,198.86 			"/>
			<rect x="308.67" y="185.76" class="st0" width="1.78" height="13.1"/>
			<polygon class="st0" points="314.55,185.76 316.33,185.76 316.33,197.19 322.34,197.19 322.34,198.86 314.55,198.86 			"/>
			<path class="st0" d="M329.01,185.76h1.61l5.61,13.1h-2.07l-1.31-3.24h-6.23l-1.3,3.24h-2.07L329.01,185.76z M332.19,194.07
				l-2.44-6.01h-0.04l-2.48,6.01H332.19z"/>
			<path class="st0" d="M349.83,191.53v6.46c-1.28,0.78-3.37,1.2-4.96,1.2c-4.44,0-7.01-3.16-7.01-6.88c0-3.89,2.83-6.88,6.83-6.88
				c2.41,0,3.87,0.65,4.88,1.71l-1.26,1.35c-1.07-1.04-2.31-1.39-3.63-1.39c-3,0-4.94,2.35-4.94,5.22c0,2.96,2.2,5.22,5.09,5.22
				c1.24,0,2.42-0.24,3.22-0.68v-3.65h-2.91v-1.67H349.83z"/>
			<path class="st0" d="M353.81,185.76h4.61c3.35,0,4.2,2.02,4.2,3.66c0,1.67-1.24,3.24-3.22,3.46l3.72,5.98h-2.22l-3.33-5.77h-1.98
				v5.77h-1.78V185.76z M355.59,191.53h2.33c1.41,0,2.81-0.33,2.81-2.11c0-1.77-1.41-2.11-2.81-2.11h-2.33V191.53z"/>
			<path class="st0" d="M365.04,192.31c0-3.89,2.83-6.88,6.83-6.88s6.83,3,6.83,6.88c0,3.89-2.83,6.88-6.83,6.88
				S365.04,196.19,365.04,192.31 M376.81,192.31c0-2.87-1.94-5.22-4.94-5.22c-3,0-4.94,2.35-4.94,5.22c0,2.87,1.94,5.22,4.94,5.22
				C374.87,197.52,376.81,195.18,376.81,192.31"/>
			<rect x="435.68" y="88.79" class="st0" width="1.92" height="121.9"/>
		</g>
	</g>
</g>
<g id="Capa_2">
</g>
</svg>
